<?xml version="1.0" encoding="UTF-8" standalone="no"?>
<?xml-stylesheet href="relationships.css" type="text/css"?>
<!-- Generated by graphviz version 2.26.0 (20091210.2329)
 -->
<!-- Title: Dependencies Pages: 1 -->
<svg xmlns="http://www.w3.org/2000/svg" xmlns:xlink="http://www.w3.org/1999/xlink" width="578pt" height="2248pt" viewBox="0.00 0.00 578.00 2248.00">
<g id="graph1" class="graph" transform="scale(1 1) rotate(0) translate(4 2244)">
<title>Dependencies</title>
<polygon fill="white" stroke="white" points="-4,5 -4,-2244 575,-2244 575,5 -4,5"/>
<g id="graph2" class="cluster"><title>cluster_17.10</title>
<polygon fill="none" stroke="black" points="24,-1852 24,-1968 562,-1968 562,-1852 24,-1852"/>
<text text-anchor="middle" x="293" y="-1953.2" font-family="Sans" font-size="12.00">17.10</text>
</g>
<g id="graph3" class="cluster"><title>cluster_17.8</title>
<polygon fill="none" stroke="black" points="24,-282 24,-1598 562,-1598 562,-282 24,-282"/>
<text text-anchor="middle" x="293" y="-1583.2" font-family="Sans" font-size="12.00">17.8</text>
</g>
<g id="graph5" class="cluster"><title>cluster_17.12</title>
<polygon fill="none" stroke="black" points="70,-1656 70,-1844 482,-1844 482,-1656 70,-1656"/>
<text text-anchor="middle" x="276" y="-1829.2" font-family="Sans" font-size="12.00">17.12</text>
</g>
<!-- aii#275 -->
<g id="node1" class="node"><title>aii#275</title>
<a xlink:href="https://github.com/quattor/aii/pull/275" xlink:title="remove aii-freeipa, deprecated by ncm-freeipa AII support" target="_parent">
<polygon fill="#6e5494" stroke="black" points="157,-1555 79,-1555 79,-1501 157,-1501 157,-1555"/>
<text text-anchor="middle" x="118" y="-1532" font-family="Sans" font-size="10.00">pull-request</text>
<text text-anchor="middle" x="118" y="-1519" font-family="Sans" font-size="10.00">aii#275</text>
</a>
</g>
<!-- aii#134 -->
<g id="node3" class="node"><title>aii#134</title>
<a xlink:href="https://github.com/quattor/aii/issues/134" xlink:title="Missing freeipa.pm in AII RPM" target="_parent">
<ellipse fill="#bd2c00" stroke="black" cx="432" cy="-1528" rx="41.2167" ry="38.1838"/>
<text text-anchor="middle" x="432" y="-1532" font-family="Sans" font-size="10.00">issue</text>
<text text-anchor="middle" x="432" y="-1519" font-family="Sans" font-size="10.00">aii#134</text>
</a>
</g>
<!-- aii#275&#45;&gt;aii#134 -->
<g id="edge2" class="edge"><title>aii#275-&gt;aii#134</title>
<path fill="none" stroke="black" stroke-width="2" d="M157.571,-1526.9C184.705,-1526.2 221.529,-1525.36 254,-1525 296.474,-1524.53 344.645,-1525.43 380.154,-1526.36"/>
<polygon fill="black" stroke="black" points="380.191,-1529.87 390.282,-1526.64 380.381,-1522.87 380.191,-1529.87"/>
<text text-anchor="middle" x="273" y="-1529" font-family="Sans" font-size="10.00">fixes</text>
</g>
<!-- aii#210 -->
<g id="node4" class="node"><title>aii#210</title>
<a xlink:href="https://github.com/quattor/aii/pull/210" xlink:title="Shellfe: support active config for plugins" target="_parent">
<polygon fill="#6cc644" stroke="black" points="157,-1729 79,-1729 79,-1675 157,-1675 157,-1729"/>
<text text-anchor="middle" x="118" y="-1706" font-family="Sans" font-size="10.00">pull-request</text>
<text text-anchor="middle" x="118" y="-1693" font-family="Sans" font-size="10.00">aii#210</text>
</a>
</g>
<!-- aii#209 -->
<g id="node6" class="node"><title>aii#209</title>
<a xlink:href="https://github.com/quattor/aii/issues/209" xlink:title="support ACTIVE_CONFIG" target="_parent">
<ellipse fill="#6cc644" stroke="black" cx="432" cy="-1702" rx="41.2167" ry="38.1838"/>
<text text-anchor="middle" x="432" y="-1706" font-family="Sans" font-size="10.00">issue</text>
<text text-anchor="middle" x="432" y="-1693" font-family="Sans" font-size="10.00">aii#209</text>
</a>
</g>
<!-- aii#210&#45;&gt;aii#209 -->
<g id="edge4" class="edge"><title>aii#210-&gt;aii#209</title>
<path fill="none" stroke="black" stroke-width="2" d="M157.768,-1702C214.279,-1702 317.868,-1702 380.284,-1702"/>
<polygon fill="black" stroke="black" points="380.31,-1705.5 390.31,-1702 380.31,-1698.5 380.31,-1705.5"/>
<text text-anchor="middle" x="273" y="-1706" font-family="Sans" font-size="10.00">fixes</text>
</g>
<!-- ncm&#45;ncd#74 -->
<g id="node8" class="node"><title>ncm-ncd#74</title>
<a xlink:href="https://github.com/quattor/ncm-ncd/pull/74" xlink:title="Set the current active config as an attribute to the component" target="_parent">
<polygon fill="#6cc644" stroke="black" points="473,-1812 391,-1812 391,-1758 473,-1758 473,-1812"/>
<text text-anchor="middle" x="432" y="-1789" font-family="Sans" font-size="10.00">pull-request</text>
<text text-anchor="middle" x="432" y="-1776" font-family="Sans" font-size="10.00">ncm-ncd#74</text>
</a>
</g>
<!-- aii#210&#45;&gt;ncm&#45;ncd#74 -->
<g id="edge6" class="edge"><title>aii#210-&gt;ncm-ncd#74</title>
<path fill="none" stroke="black" stroke-dasharray="5,2" d="M157.768,-1712.51C214.435,-1727.49 318.442,-1754.98 380.801,-1771.47"/>
<polygon fill="none" stroke="black" points="380.25,-1774.94 390.813,-1774.11 382.039,-1768.17 380.25,-1774.94"/>
<text text-anchor="middle" x="273" y="-1750" font-family="Sans" font-size="10.00">requires</text>
</g>
<!-- aii#203 -->
<g id="node10" class="node"><title>aii#203</title>
<polygon fill="lightgrey" stroke="black" points="461,-1646.5 403,-1646.5 403,-1605.5 461,-1605.5 461,-1646.5"/>
<text text-anchor="middle" x="432" y="-1623.5" font-family="Sans" font-size="10.00">aii#203</text>
</g>
<!-- aii#210&#45;&gt;aii#203 -->
<g id="edge8" class="edge"><title>aii#210-&gt;aii#203</title>
<path fill="none" stroke="black" stroke-dasharray="5,2" d="M157.585,-1691.14C196.315,-1680.64 257.039,-1664.53 310,-1652 337.353,-1645.53 368.33,-1638.93 392.226,-1634.01"/>
<polygon fill="none" stroke="black" points="393.24,-1637.37 402.334,-1631.94 391.835,-1630.51 393.24,-1637.37"/>
<text text-anchor="middle" x="273" y="-1669" font-family="Sans" font-size="10.00">requires</text>
</g>
<!-- configuration&#45;modules&#45;core#1169 -->
<g id="node11" class="node"><title>configuration-modules-core#1169</title>
<a xlink:href="https://github.com/quattor/configuration-modules-core/pull/1169" xlink:title="ncm-accounts: is_user_or_group function can be used without component" target="_parent">
<polygon fill="#6e5494" stroke="black" points="204,-1461 32,-1461 32,-1407 204,-1407 204,-1461"/>
<text text-anchor="middle" x="118" y="-1438" font-family="Sans" font-size="10.00">pull-request</text>
<text text-anchor="middle" x="118" y="-1425" font-family="Sans" font-size="10.00">configuration-modules-core#1169</text>
</a>
</g>
<!-- configuration&#45;modules&#45;core#1166 -->
<g id="node13" class="node"><title>configuration-modules-core#1166</title>
<a xlink:href="https://github.com/quattor/configuration-modules-core/issues/1166" xlink:title="ncm-systemd: schema depends on components/accounts/functions" target="_parent">
<ellipse fill="#bd2c00" stroke="black" cx="432" cy="-1434" rx="121.122" ry="38.1838"/>
<text text-anchor="middle" x="432" y="-1438" font-family="Sans" font-size="10.00">issue</text>
<text text-anchor="middle" x="432" y="-1425" font-family="Sans" font-size="10.00">configuration-modules-core#1166</text>
</a>
</g>
<!-- configuration&#45;modules&#45;core#1169&#45;&gt;configuration&#45;modules&#45;core#1166 -->
<g id="edge10" class="edge"><title>configuration-modules-core#1169-&gt;configuration-modules-core#1166</title>
<path fill="none" stroke="black" stroke-width="2" d="M204.217,-1434C233.916,-1434 267.888,-1434 300.372,-1434"/>
<polygon fill="black" stroke="black" points="300.399,-1437.5 310.399,-1434 300.399,-1430.5 300.399,-1437.5"/>
<text text-anchor="middle" x="273" y="-1438" font-family="Sans" font-size="10.00">fixes</text>
</g>
<!-- configuration&#45;modules&#45;core#1167 -->
<g id="node14" class="node"><title>configuration-modules-core#1167</title>
<a xlink:href="https://github.com/quattor/configuration-modules-core/pull/1167" xlink:title="ncm-cups: fix compatibility with EL7" target="_parent">
<polygon fill="#6e5494" stroke="black" points="204,-1367 32,-1367 32,-1313 204,-1313 204,-1367"/>
<text text-anchor="middle" x="118" y="-1344" font-family="Sans" font-size="10.00">pull-request</text>
<text text-anchor="middle" x="118" y="-1331" font-family="Sans" font-size="10.00">configuration-modules-core#1167</text>
</a>
</g>
<!-- configuration&#45;modules&#45;core#1161 -->
<g id="node16" class="node"><title>configuration-modules-core#1161</title>
<a xlink:href="https://github.com/quattor/configuration-modules-core/issues/1161" xlink:title="ncm-cups 17.7.0 broken on EL7 (pre-EL7 chkconfig dependency)" target="_parent">
<ellipse fill="#bd2c00" stroke="black" cx="432" cy="-1340" rx="121.122" ry="38.1838"/>
<text text-anchor="middle" x="432" y="-1344" font-family="Sans" font-size="10.00">issue</text>
<text text-anchor="middle" x="432" y="-1331" font-family="Sans" font-size="10.00">configuration-modules-core#1161</text>
</a>
</g>
<!-- configuration&#45;modules&#45;core#1167&#45;&gt;configuration&#45;modules&#45;core#1161 -->
<g id="edge12" class="edge"><title>configuration-modules-core#1167-&gt;configuration-modules-core#1161</title>
<path fill="none" stroke="black" stroke-width="2" d="M204.217,-1340C233.916,-1340 267.888,-1340 300.372,-1340"/>
<polygon fill="black" stroke="black" points="300.399,-1343.5 310.399,-1340 300.399,-1336.5 300.399,-1343.5"/>
<text text-anchor="middle" x="273" y="-1344" font-family="Sans" font-size="10.00">fixes</text>
</g>
<!-- configuration&#45;modules&#45;core#1163 -->
<g id="node17" class="node"><title>configuration-modules-core#1163</title>
<a xlink:href="https://github.com/quattor/configuration-modules-core/pull/1163" xlink:title="ncm-directoryservices: remove unsupported component" target="_parent">
<polygon fill="#6cc644" stroke="black" points="204,-1273 32,-1273 32,-1219 204,-1219 204,-1273"/>
<text text-anchor="middle" x="118" y="-1250" font-family="Sans" font-size="10.00">pull-request</text>
<text text-anchor="middle" x="118" y="-1237" font-family="Sans" font-size="10.00">configuration-modules-core#1163</text>
</a>
</g>
<!-- configuration&#45;modules&#45;core#1052 -->
<g id="node19" class="node"><title>configuration-modules-core#1052</title>
<a xlink:href="https://github.com/quattor/configuration-modules-core/issues/1052" xlink:title="ncm-directoryservices: Archive and remove from repository" target="_parent">
<ellipse fill="#6cc644" stroke="black" cx="432" cy="-1246" rx="121.122" ry="38.1838"/>
<text text-anchor="middle" x="432" y="-1250" font-family="Sans" font-size="10.00">issue</text>
<text text-anchor="middle" x="432" y="-1237" font-family="Sans" font-size="10.00">configuration-modules-core#1052</text>
</a>
</g>
<!-- configuration&#45;modules&#45;core#1163&#45;&gt;configuration&#45;modules&#45;core#1052 -->
<g id="edge14" class="edge"><title>configuration-modules-core#1163-&gt;configuration-modules-core#1052</title>
<path fill="none" stroke="black" stroke-width="2" d="M204.217,-1246C233.916,-1246 267.888,-1246 300.372,-1246"/>
<polygon fill="black" stroke="black" points="300.399,-1249.5 310.399,-1246 300.399,-1242.5 300.399,-1249.5"/>
<text text-anchor="middle" x="273" y="-1250" font-family="Sans" font-size="10.00">fixes</text>
</g>
<!-- configuration&#45;modules&#45;core#1162 -->
<g id="node20" class="node"><title>configuration-modules-core#1162</title>
<a xlink:href="https://github.com/quattor/configuration-modules-core/pull/1162" xlink:title="ncm-mcx: remove unsupported component" target="_parent">
<polygon fill="#6e5494" stroke="black" points="204,-1179 32,-1179 32,-1125 204,-1125 204,-1179"/>
<text text-anchor="middle" x="118" y="-1156" font-family="Sans" font-size="10.00">pull-request</text>
<text text-anchor="middle" x="118" y="-1143" font-family="Sans" font-size="10.00">configuration-modules-core#1162</text>
</a>
</g>
<!-- configuration&#45;modules&#45;core#1054 -->
<g id="node22" class="node"><title>configuration-modules-core#1054</title>
<a xlink:href="https://github.com/quattor/configuration-modules-core/issues/1054" xlink:title="ncm-mcx: Archive and remove from repository" target="_parent">
<ellipse fill="#bd2c00" stroke="black" cx="432" cy="-1152" rx="121.122" ry="38.1838"/>
<text text-anchor="middle" x="432" y="-1156" font-family="Sans" font-size="10.00">issue</text>
<text text-anchor="middle" x="432" y="-1143" font-family="Sans" font-size="10.00">configuration-modules-core#1054</text>
</a>
</g>
<!-- configuration&#45;modules&#45;core#1162&#45;&gt;configuration&#45;modules&#45;core#1054 -->
<g id="edge16" class="edge"><title>configuration-modules-core#1162-&gt;configuration-modules-core#1054</title>
<path fill="none" stroke="black" stroke-width="2" d="M204.217,-1152C233.916,-1152 267.888,-1152 300.372,-1152"/>
<polygon fill="black" stroke="black" points="300.399,-1155.5 310.399,-1152 300.399,-1148.5 300.399,-1155.5"/>
<text text-anchor="middle" x="273" y="-1156" font-family="Sans" font-size="10.00">fixes</text>
</g>
<!-- configuration&#45;modules&#45;core#1159 -->
<g id="node23" class="node"><title>configuration-modules-core#1159</title>
<a xlink:href="https://github.com/quattor/configuration-modules-core/pull/1159" xlink:title="ncm-authconfig: Remove deprecated startstop property" target="_parent">
<polygon fill="#6e5494" stroke="black" points="204,-1037 32,-1037 32,-983 204,-983 204,-1037"/>
<text text-anchor="middle" x="118" y="-1014" font-family="Sans" font-size="10.00">pull-request</text>
<text text-anchor="middle" x="118" y="-1001" font-family="Sans" font-size="10.00">configuration-modules-core#1159</text>
</a>
</g>
<!-- configuration&#45;modules&#45;core#1145 -->
<g id="node25" class="node"><title>configuration-modules-core#1145</title>
<a xlink:href="https://github.com/quattor/configuration-modules-core/issues/1145" xlink:title="ncm-authconfig: Remove startstop property" target="_parent">
<ellipse fill="#bd2c00" stroke="black" cx="432" cy="-964" rx="121.122" ry="38.1838"/>
<text text-anchor="middle" x="432" y="-968" font-family="Sans" font-size="10.00">issue</text>
<text text-anchor="middle" x="432" y="-955" font-family="Sans" font-size="10.00">configuration-modules-core#1145</text>
</a>
</g>
<!-- configuration&#45;modules&#45;core#1159&#45;&gt;configuration&#45;modules&#45;core#1145 -->
<g id="edge18" class="edge"><title>configuration-modules-core#1159-&gt;configuration-modules-core#1145</title>
<path fill="none" stroke="black" stroke-width="2" d="M204.217,-997.369C237.408,-992.507 275.936,-986.863 311.76,-981.615"/>
<polygon fill="black" stroke="black" points="312.398,-985.059 321.785,-980.146 311.383,-978.133 312.398,-985.059"/>
<text text-anchor="middle" x="273" y="-994" font-family="Sans" font-size="10.00">fixes</text>
</g>
<!-- configuration&#45;modules&#45;core#1143 -->
<g id="node27" class="node"><title>configuration-modules-core#1143</title>
<a xlink:href="https://github.com/quattor/configuration-modules-core/issues/1143" xlink:title="ncm-authconfig: What is startstop supposed to do?" target="_parent">
<ellipse fill="#bd2c00" stroke="black" cx="432" cy="-1058" rx="121.122" ry="38.1838"/>
<text text-anchor="middle" x="432" y="-1062" font-family="Sans" font-size="10.00">issue</text>
<text text-anchor="middle" x="432" y="-1049" font-family="Sans" font-size="10.00">configuration-modules-core#1143</text>
</a>
</g>
<!-- configuration&#45;modules&#45;core#1159&#45;&gt;configuration&#45;modules&#45;core#1143 -->
<g id="edge20" class="edge"><title>configuration-modules-core#1159-&gt;configuration-modules-core#1143</title>
<path fill="none" stroke="black" stroke-width="2" d="M204.217,-1023.18C237.657,-1028.29 276.515,-1034.23 312.565,-1039.74"/>
<polygon fill="black" stroke="black" points="312.238,-1043.23 322.652,-1041.28 313.296,-1036.31 312.238,-1043.23"/>
<text text-anchor="middle" x="273" y="-1040" font-family="Sans" font-size="10.00">fixes</text>
</g>
<!-- configuration&#45;modules&#45;core#1151 -->
<g id="node28" class="node"><title>configuration-modules-core#1151</title>
<a xlink:href="https://github.com/quattor/configuration-modules-core/pull/1151" xlink:title="Escape / unescape functions from CCM::Path" target="_parent">
<polygon fill="#6e5494" stroke="black" points="204,-897 32,-897 32,-843 204,-843 204,-897"/>
<text text-anchor="middle" x="118" y="-874" font-family="Sans" font-size="10.00">pull-request</text>
<text text-anchor="middle" x="118" y="-861" font-family="Sans" font-size="10.00">configuration-modules-core#1151</text>
</a>
</g>
<!-- configuration&#45;modules&#45;core#1083 -->
<g id="node30" class="node"><title>configuration-modules-core#1083</title>
<a xlink:href="https://github.com/quattor/configuration-modules-core/issues/1083" xlink:title="warnings due to deprecated CCM modules" target="_parent">
<ellipse fill="#bd2c00" stroke="black" cx="432" cy="-870" rx="121.122" ry="38.1838"/>
<text text-anchor="middle" x="432" y="-874" font-family="Sans" font-size="10.00">issue</text>
<text text-anchor="middle" x="432" y="-861" font-family="Sans" font-size="10.00">configuration-modules-core#1083</text>
</a>
</g>
<!-- configuration&#45;modules&#45;core#1151&#45;&gt;configuration&#45;modules&#45;core#1083 -->
<g id="edge22" class="edge"><title>configuration-modules-core#1151-&gt;configuration-modules-core#1083</title>
<path fill="none" stroke="black" stroke-width="2" d="M204.217,-870C233.916,-870 267.888,-870 300.372,-870"/>
<polygon fill="black" stroke="black" points="300.399,-873.5 310.399,-870 300.399,-866.5 300.399,-873.5"/>
<text text-anchor="middle" x="273" y="-874" font-family="Sans" font-size="10.00">fixes</text>
</g>
<!-- configuration&#45;modules&#45;core#1149 -->
<g id="node31" class="node"><title>configuration-modules-core#1149</title>
<a xlink:href="https://github.com/quattor/configuration-modules-core/pull/1149" xlink:title="ncm-metaconfig: rsyslog: rainer script configuration" target="_parent">
<polygon fill="#6cc644" stroke="black" points="204,-814 32,-814 32,-760 204,-760 204,-814"/>
<text text-anchor="middle" x="118" y="-791" font-family="Sans" font-size="10.00">pull-request</text>
<text text-anchor="middle" x="118" y="-778" font-family="Sans" font-size="10.00">configuration-modules-core#1149</text>
</a>
</g>
<!-- configuration&#45;modules&#45;core#1126 -->
<g id="node33" class="node"><title>configuration-modules-core#1126</title>
<a xlink:href="https://github.com/quattor/configuration-modules-core/pull/1126" xlink:title="ncm-metaconfig: cleanup and switch to 00-tqu" target="_parent">
<polygon fill="#6cc644" stroke="black" points="518,-814 346,-814 346,-760 518,-760 518,-814"/>
<text text-anchor="middle" x="432" y="-791" font-family="Sans" font-size="10.00">pull-request</text>
<text text-anchor="middle" x="432" y="-778" font-family="Sans" font-size="10.00">configuration-modules-core#1126</text>
</a>
</g>
<!-- configuration&#45;modules&#45;core#1149&#45;&gt;configuration&#45;modules&#45;core#1126 -->
<g id="edge24" class="edge"><title>configuration-modules-core#1149-&gt;configuration-modules-core#1126</title>
<path fill="none" stroke="black" stroke-dasharray="5,2" d="M204.217,-787C244.975,-787 293.781,-787 335.743,-787"/>
<polygon fill="none" stroke="black" points="335.975,-790.5 345.975,-787 335.975,-783.5 335.975,-790.5"/>
<text text-anchor="middle" x="273" y="-791" font-family="Sans" font-size="10.00">requires</text>
</g>
<!-- configuration&#45;modules&#45;core#1136 -->
<g id="node34" class="node"><title>configuration-modules-core#1136</title>
<a xlink:href="https://github.com/quattor/configuration-modules-core/pull/1136" xlink:title="ncm-gmond: cleanup and support new configuration options" target="_parent">
<polygon fill="#6e5494" stroke="black" points="204,-731 32,-731 32,-677 204,-677 204,-731"/>
<text text-anchor="middle" x="118" y="-708" font-family="Sans" font-size="10.00">pull-request</text>
<text text-anchor="middle" x="118" y="-695" font-family="Sans" font-size="10.00">configuration-modules-core#1136</text>
</a>
</g>
<!-- configuration&#45;modules&#45;core#1116 -->
<g id="node36" class="node"><title>configuration-modules-core#1116</title>
<a xlink:href="https://github.com/quattor/configuration-modules-core/issues/1116" xlink:title="ncm-gmond: configuration options missing from schema" target="_parent">
<ellipse fill="#bd2c00" stroke="black" cx="432" cy="-704" rx="121.122" ry="38.1838"/>
<text text-anchor="middle" x="432" y="-708" font-family="Sans" font-size="10.00">issue</text>
<text text-anchor="middle" x="432" y="-695" font-family="Sans" font-size="10.00">configuration-modules-core#1116</text>
</a>
</g>
<!-- configuration&#45;modules&#45;core#1136&#45;&gt;configuration&#45;modules&#45;core#1116 -->
<g id="edge26" class="edge"><title>configuration-modules-core#1136-&gt;configuration-modules-core#1116</title>
<path fill="none" stroke="black" stroke-width="2" d="M204.217,-704C233.916,-704 267.888,-704 300.372,-704"/>
<polygon fill="black" stroke="black" points="300.399,-707.5 310.399,-704 300.399,-700.5 300.399,-707.5"/>
<text text-anchor="middle" x="273" y="-708" font-family="Sans" font-size="10.00">fixes</text>
</g>
<!-- configuration&#45;modules&#45;core#1132 -->
<g id="node37" class="node"><title>configuration-modules-core#1132</title>
<a xlink:href="https://github.com/quattor/configuration-modules-core/pull/1132" xlink:title="ncm-metaconfig: hnormalise" target="_parent">
<polygon fill="#6cc644" stroke="black" points="204,-416 32,-416 32,-362 204,-362 204,-416"/>
<text text-anchor="middle" x="118" y="-393" font-family="Sans" font-size="10.00">pull-request</text>
<text text-anchor="middle" x="118" y="-380" font-family="Sans" font-size="10.00">configuration-modules-core#1132</text>
</a>
</g>
<!-- configuration&#45;modules&#45;core#1028 -->
<g id="node39" class="node"><title>configuration-modules-core#1028</title>
<polygon fill="lightgrey" stroke="black" points="518,-98.5 346,-98.5 346,-57.5 518,-57.5 518,-98.5"/>
<text text-anchor="middle" x="432" y="-75.5" font-family="Sans" font-size="10.00">configuration-modules-core#1028</text>
</g>
<!-- configuration&#45;modules&#45;core#1132&#45;&gt;configuration&#45;modules&#45;core#1028 -->
<g id="edge28" class="edge"><title>configuration-modules-core#1132-&gt;configuration-modules-core#1028</title>
<path fill="none" stroke="black" stroke-dasharray="5,2" d="M204.033,-376.331C216.353,-370.97 227.656,-363.468 236,-353 270.995,-309.099 215.452,-141.818 254,-101 274.855,-78.9166 305.637,-70.3162 335.762,-68.1327"/>
<polygon fill="none" stroke="black" points="336.123,-71.6192 345.938,-67.628 335.776,-64.6278 336.123,-71.6192"/>
<text text-anchor="middle" x="273" y="-105" font-family="Sans" font-size="10.00">requires</text>
</g>
<!-- configuration&#45;modules&#45;core#1124 -->
<g id="node40" class="node"><title>configuration-modules-core#1124</title>
<a xlink:href="https://github.com/quattor/configuration-modules-core/pull/1124" xlink:title="ncm-cron: cleanup and switch to 00-tqu" target="_parent">
<polygon fill="#6e5494" stroke="black" points="204,-488 32,-488 32,-434 204,-434 204,-488"/>
<text text-anchor="middle" x="118" y="-465" font-family="Sans" font-size="10.00">pull-request</text>
<text text-anchor="middle" x="118" y="-452" font-family="Sans" font-size="10.00">configuration-modules-core#1124</text>
</a>
</g>
<!-- CAF#230 -->
<g id="node42" class="node"><title>CAF#230</title>
<polygon fill="lightgrey" stroke="black" points="467,-156.5 397,-156.5 397,-115.5 467,-115.5 467,-156.5"/>
<text text-anchor="middle" x="432" y="-133.5" font-family="Sans" font-size="10.00">CAF#230</text>
</g>
<!-- configuration&#45;modules&#45;core#1124&#45;&gt;CAF#230 -->
<g id="edge30" class="edge"><title>configuration-modules-core#1124-&gt;CAF#230</title>
<path fill="none" stroke="black" stroke-dasharray="5,2" d="M204.112,-448.394C216.423,-443.026 227.702,-435.505 236,-425 275.748,-374.68 207.388,-181.037 254,-137 288.791,-104.132 346.634,-110.667 386.904,-120.958"/>
<polygon fill="none" stroke="black" points="386.171,-124.386 396.739,-123.634 388.009,-117.632 386.171,-124.386"/>
<text text-anchor="middle" x="273" y="-141" font-family="Sans" font-size="10.00">requires</text>
</g>
<!-- configuration&#45;modules&#45;core#1119 -->
<g id="node43" class="node"><title>configuration-modules-core#1119</title>
<a xlink:href="https://github.com/quattor/configuration-modules-core/pull/1119" xlink:title="ncm-systemd: cleanup, restarting modified unitfiles and initial handling of unconfigured units" target="_parent">
<polygon fill="#6cc644" stroke="black" points="204,-1925 32,-1925 32,-1871 204,-1871 204,-1925"/>
<text text-anchor="middle" x="118" y="-1902" font-family="Sans" font-size="10.00">pull-request</text>
<text text-anchor="middle" x="118" y="-1889" font-family="Sans" font-size="10.00">configuration-modules-core#1119</text>
</a>
</g>
<!-- configuration&#45;modules&#45;core#1095 -->
<g id="node45" class="node"><title>configuration-modules-core#1095</title>
<a xlink:href="https://github.com/quattor/configuration-modules-core/issues/1095" xlink:title="Manual intervention required in order for drop-in unit files to have any affect" target="_parent">
<ellipse fill="#6cc644" stroke="black" cx="432" cy="-1898" rx="121.122" ry="38.1838"/>
<text text-anchor="middle" x="432" y="-1902" font-family="Sans" font-size="10.00">issue</text>
<text text-anchor="middle" x="432" y="-1889" font-family="Sans" font-size="10.00">configuration-modules-core#1095</text>
</a>
</g>
<!-- configuration&#45;modules&#45;core#1119&#45;&gt;configuration&#45;modules&#45;core#1095 -->
<g id="edge32" class="edge"><title>configuration-modules-core#1119-&gt;configuration-modules-core#1095</title>
<path fill="none" stroke="black" stroke-width="2" d="M204.329,-1895.81C220.818,-1895.47 237.942,-1895.18 254,-1895 268.958,-1894.84 284.622,-1894.84 300.191,-1894.96"/>
<polygon fill="black" stroke="black" points="300.368,-1898.46 310.399,-1895.05 300.431,-1891.46 300.368,-1898.46"/>
<text text-anchor="middle" x="273" y="-1899" font-family="Sans" font-size="10.00">fixes</text>
</g>
<!-- configuration&#45;modules&#45;core#1087 -->
<g id="node46" class="node"><title>configuration-modules-core#1087</title>
<a xlink:href="https://github.com/quattor/configuration-modules-core/pull/1087" xlink:title="ncm-network: cleanup, fixes and new features" target="_parent">
<polygon fill="#6cc644" stroke="black" points="204,-560 32,-560 32,-506 204,-506 204,-560"/>
<text text-anchor="middle" x="118" y="-537" font-family="Sans" font-size="10.00">pull-request</text>
<text text-anchor="middle" x="118" y="-524" font-family="Sans" font-size="10.00">configuration-modules-core#1087</text>
</a>
</g>
<!-- configuration&#45;modules&#45;core#1087&#45;&gt;CAF#230 -->
<g id="edge44" class="edge"><title>configuration-modules-core#1087-&gt;CAF#230</title>
<path fill="none" stroke="black" stroke-dasharray="5,2" d="M204.096,-520.382C216.409,-515.015 227.693,-507.497 236,-497 274.691,-448.106 227.256,-273.324 254,-217 277.508,-167.491 342.145,-148.212 386.695,-140.725"/>
<polygon fill="none" stroke="black" points="387.361,-144.164 396.711,-139.182 386.294,-137.246 387.361,-144.164"/>
<text text-anchor="middle" x="273" y="-221" font-family="Sans" font-size="10.00">requires</text>
</g>
<!-- configuration&#45;modules&#45;core#1082 -->
<g id="node48" class="node"><title>configuration-modules-core#1082</title>
<a xlink:href="https://github.com/quattor/configuration-modules-core/issues/1082" xlink:title="ncm-network: Allow extra routing options for the default route" target="_parent">
<ellipse fill="#6cc644" stroke="black" cx="432" cy="-422" rx="121.122" ry="38.1838"/>
<text text-anchor="middle" x="432" y="-426" font-family="Sans" font-size="10.00">issue</text>
<text text-anchor="middle" x="432" y="-413" font-family="Sans" font-size="10.00">configuration-modules-core#1082</text>
</a>
</g>
<!-- configuration&#45;modules&#45;core#1087&#45;&gt;configuration&#45;modules&#45;core#1082 -->
<g id="edge34" class="edge"><title>configuration-modules-core#1087-&gt;configuration-modules-core#1082</title>
<path fill="none" stroke="black" stroke-width="2" d="M204.26,-507.441C214.984,-504.041 225.77,-500.513 236,-497 241.807,-495.006 295.852,-474.313 345.719,-455.169"/>
<polygon fill="black" stroke="black" points="347.214,-458.344 355.295,-451.492 344.705,-451.809 347.214,-458.344"/>
<text text-anchor="middle" x="273" y="-494" font-family="Sans" font-size="10.00">fixes</text>
</g>
<!-- configuration&#45;modules&#45;core#870 -->
<g id="node50" class="node"><title>configuration-modules-core#870</title>
<a xlink:href="https://github.com/quattor/configuration-modules-core/issues/870" xlink:title="ncm-network: hostname is not set in el7" target="_parent">
<ellipse fill="#6cc644" stroke="black" cx="432" cy="-516" rx="118.087" ry="38.1838"/>
<text text-anchor="middle" x="432" y="-520" font-family="Sans" font-size="10.00">issue</text>
<text text-anchor="middle" x="432" y="-507" font-family="Sans" font-size="10.00">configuration-modules-core#870</text>
</a>
</g>
<!-- configuration&#45;modules&#45;core#1087&#45;&gt;configuration&#45;modules&#45;core#870 -->
<g id="edge36" class="edge"><title>configuration-modules-core#1087-&gt;configuration-modules-core#870</title>
<path fill="none" stroke="black" stroke-width="2" d="M204.217,-528.332C235.448,-526.641 271.406,-524.695 305.388,-522.855"/>
<polygon fill="black" stroke="black" points="305.591,-526.349 315.387,-522.313 305.213,-519.359 305.591,-526.349"/>
<text text-anchor="middle" x="273" y="-530" font-family="Sans" font-size="10.00">fixes</text>
</g>
<!-- configuration&#45;modules&#45;core#1109 -->
<g id="node52" class="node"><title>configuration-modules-core#1109</title>
<a xlink:href="https://github.com/quattor/configuration-modules-core/issues/1109" xlink:title="ncm-network: systemd rpm scripts remove HOSTNAME from /etc/sysconfig/network" target="_parent">
<ellipse fill="#6cc644" stroke="black" cx="432" cy="-328" rx="121.122" ry="38.1838"/>
<text text-anchor="middle" x="432" y="-332" font-family="Sans" font-size="10.00">issue</text>
<text text-anchor="middle" x="432" y="-319" font-family="Sans" font-size="10.00">configuration-modules-core#1109</text>
</a>
</g>
<!-- configuration&#45;modules&#45;core#1087&#45;&gt;configuration&#45;modules&#45;core#1109 -->
<g id="edge38" class="edge"><title>configuration-modules-core#1087-&gt;configuration-modules-core#1109</title>
<path fill="none" stroke="black" stroke-width="2" d="M204.152,-515.844C215.653,-511.036 226.675,-504.88 236,-497 249.663,-485.454 245.105,-476.52 254,-461 276.68,-421.427 274.553,-403.704 310,-375 317.462,-368.957 325.79,-363.628 334.493,-358.942"/>
<polygon fill="black" stroke="black" points="336.34,-361.93 343.678,-354.288 333.176,-355.686 336.34,-361.93"/>
<text text-anchor="middle" x="273" y="-465" font-family="Sans" font-size="10.00">fixes</text>
</g>
<!-- configuration&#45;modules&#45;core#1085 -->
<g id="node54" class="node"><title>configuration-modules-core#1085</title>
<polygon fill="lightgrey" stroke="black" points="518,-214.5 346,-214.5 346,-173.5 518,-173.5 518,-214.5"/>
<text text-anchor="middle" x="432" y="-191.5" font-family="Sans" font-size="10.00">configuration-modules-core#1085</text>
</g>
<!-- configuration&#45;modules&#45;core#1087&#45;&gt;configuration&#45;modules&#45;core#1085 -->
<g id="edge40" class="edge"><title>configuration-modules-core#1087-&gt;configuration-modules-core#1085</title>
<path fill="none" stroke="black" stroke-dasharray="1,5" d="M204.236,-520.128C216.452,-514.785 227.669,-507.341 236,-497 266.773,-458.802 232.991,-321.325 254,-277 268.809,-245.756 279.662,-239.585 310,-223 318.223,-218.505 327.13,-214.701 336.259,-211.484"/>
<polygon fill="black" stroke="black" points="345.833,-208.339 337.737,-215.735 341.082,-209.899 336.332,-211.46 336.332,-211.46 336.332,-211.46 341.082,-209.899 334.928,-207.184 345.833,-208.339 345.833,-208.339"/>
<text text-anchor="middle" x="273" y="-281" font-family="Sans" font-size="10.00">replaces</text>
</g>
<!-- configuration&#45;modules&#45;core#1070 -->
<g id="node56" class="node"><title>configuration-modules-core#1070</title>
<polygon fill="lightgrey" stroke="black" points="518,-272.5 346,-272.5 346,-231.5 518,-231.5 518,-272.5"/>
<text text-anchor="middle" x="432" y="-249.5" font-family="Sans" font-size="10.00">configuration-modules-core#1070</text>
</g>
<!-- configuration&#45;modules&#45;core#1087&#45;&gt;configuration&#45;modules&#45;core#1070 -->
<g id="edge42" class="edge"><title>configuration-modules-core#1087-&gt;configuration-modules-core#1070</title>
<path fill="none" stroke="black" stroke-dasharray="1,5" d="M204.249,-519.387C216.308,-514.123 227.472,-506.898 236,-497 271.489,-455.81 236.207,-427.376 254,-376 270.417,-328.597 269.489,-307.587 310,-278 317.935,-272.204 326.891,-267.646 336.255,-264.069"/>
<polygon fill="black" stroke="black" points="345.732,-260.81 337.739,-268.318 341.004,-262.436 336.276,-264.062 336.276,-264.062 336.276,-264.062 341.004,-262.436 334.812,-259.807 345.732,-260.81 345.732,-260.81"/>
<text text-anchor="middle" x="273" y="-380" font-family="Sans" font-size="10.00">replaces</text>
</g>
<!-- configuration&#45;modules&#45;core#1058 -->
<g id="node58" class="node"><title>configuration-modules-core#1058</title>
<a xlink:href="https://github.com/quattor/configuration-modules-core/pull/1058" xlink:title="ncm-ssh: disable insecure ssh ciphersuites and macs" target="_parent">
<polygon fill="#6cc644" stroke="black" points="204,-344 32,-344 32,-290 204,-290 204,-344"/>
<text text-anchor="middle" x="118" y="-321" font-family="Sans" font-size="10.00">pull-request</text>
<text text-anchor="middle" x="118" y="-308" font-family="Sans" font-size="10.00">configuration-modules-core#1058</text>
</a>
</g>
<!-- configuration&#45;modules&#45;core#983 -->
<g id="node60" class="node"><title>configuration-modules-core#983</title>
<polygon fill="lightgrey" stroke="black" points="515,-40.5 349,-40.5 349,0.5 515,0.5 515,-40.5"/>
<text text-anchor="middle" x="432" y="-17.5" font-family="Sans" font-size="10.00">configuration-modules-core#983</text>
</g>
<!-- configuration&#45;modules&#45;core#1058&#45;&gt;configuration&#45;modules&#45;core#983 -->
<g id="edge46" class="edge"><title>configuration-modules-core#1058-&gt;configuration-modules-core#983</title>
<path fill="none" stroke="black" stroke-dasharray="1,5" d="M122.766,-289.724C134.196,-233.248 168.808,-103.727 254,-43 278.172,-25.7692 309.004,-18.1776 338.192,-15.4374"/>
<polygon fill="black" stroke="black" points="348.434,-14.6626 338.802,-19.9042 343.448,-15.0398 338.462,-15.417 338.462,-15.417 338.462,-15.417 343.448,-15.0398 338.123,-10.9298 348.434,-14.6626 348.434,-14.6626"/>
<text text-anchor="middle" x="273" y="-47" font-family="Sans" font-size="10.00">replaces</text>
</g>
<!-- configuration&#45;modules&#45;core#1171 -->
<g id="node61" class="node"><title>configuration-modules-core#1171</title>
<a xlink:href="https://github.com/quattor/configuration-modules-core/pull/1171" xlink:title="[WIP] ncm-cups enhancements and cleanups" target="_parent">
<polygon fill="#6cc644" stroke="black" points="204,-2041 32,-2041 32,-1987 204,-1987 204,-2041"/>
<text text-anchor="middle" x="118" y="-2018" font-family="Sans" font-size="10.00">pull-request</text>
<text text-anchor="middle" x="118" y="-2005" font-family="Sans" font-size="10.00">configuration-modules-core#1171</text>
</a>
</g>
<!-- configuration&#45;modules&#45;core#1164 -->
<g id="node63" class="node"><title>configuration-modules-core#1164</title>
<a xlink:href="https://github.com/quattor/configuration-modules-core/issues/1164" xlink:title="ncm-cups 17.7.0: configuration of ServerAlias + miscellanous enhancements" target="_parent">
<ellipse fill="#6cc644" stroke="black" cx="432" cy="-2014" rx="121.122" ry="38.1838"/>
<text text-anchor="middle" x="432" y="-2018" font-family="Sans" font-size="10.00">issue</text>
<text text-anchor="middle" x="432" y="-2005" font-family="Sans" font-size="10.00">configuration-modules-core#1164</text>
</a>
</g>
<!-- configuration&#45;modules&#45;core#1171&#45;&gt;configuration&#45;modules&#45;core#1164 -->
<g id="edge48" class="edge"><title>configuration-modules-core#1171-&gt;configuration-modules-core#1164</title>
<path fill="none" stroke="black" stroke-width="2" d="M204.217,-2014C233.916,-2014 267.888,-2014 300.372,-2014"/>
<polygon fill="black" stroke="black" points="300.399,-2017.5 310.399,-2014 300.399,-2010.5 300.399,-2017.5"/>
<text text-anchor="middle" x="273" y="-2018" font-family="Sans" font-size="10.00">fixes</text>
</g>
<!-- configuration&#45;modules&#45;core#1148 -->
<g id="node64" class="node"><title>configuration-modules-core#1148</title>
<a xlink:href="https://github.com/quattor/configuration-modules-core/pull/1148" xlink:title="ncm-spma: Remove support from groups from spma yumng backend" target="_parent">
<polygon fill="#6cc644" stroke="black" points="204,-2229 32,-2229 32,-2175 204,-2175 204,-2229"/>
<text text-anchor="middle" x="118" y="-2206" font-family="Sans" font-size="10.00">pull-request</text>
<text text-anchor="middle" x="118" y="-2193" font-family="Sans" font-size="10.00">configuration-modules-core#1148</text>
</a>
</g>
<!-- configuration&#45;modules&#45;core#952 -->
<g id="node66" class="node"><title>configuration-modules-core#952</title>
<a xlink:href="https://github.com/quattor/configuration-modules-core/issues/952" xlink:title="ncm-spma (yumng): Remove support for package groups" target="_parent">
<ellipse fill="#6cc644" stroke="black" cx="432" cy="-2202" rx="118.087" ry="38.1838"/>
<text text-anchor="middle" x="432" y="-2206" font-family="Sans" font-size="10.00">issue</text>
<text text-anchor="middle" x="432" y="-2193" font-family="Sans" font-size="10.00">configuration-modules-core#952</text>
</a>
</g>
<!-- configuration&#45;modules&#45;core#1148&#45;&gt;configuration&#45;modules&#45;core#952 -->
<g id="edge50" class="edge"><title>configuration-modules-core#1148-&gt;configuration-modules-core#952</title>
<path fill="none" stroke="black" stroke-width="2" d="M204.217,-2202C234.903,-2202 270.151,-2202 303.606,-2202"/>
<polygon fill="black" stroke="black" points="303.924,-2205.5 313.924,-2202 303.924,-2198.5 303.924,-2205.5"/>
<text text-anchor="middle" x="273" y="-2206" font-family="Sans" font-size="10.00">fixes</text>
</g>
<!-- configuration&#45;modules&#45;core#950 -->
<g id="node67" class="node"><title>configuration-modules-core#950</title>
<a xlink:href="https://github.com/quattor/configuration-modules-core/issues/950" xlink:title="ncm-spma: Remove support for package groups from yum backends" target="_parent">
<ellipse fill="#6cc644" stroke="black" cx="118" cy="-2113" rx="118.087" ry="38.1838"/>
<text text-anchor="middle" x="118" y="-2117" font-family="Sans" font-size="10.00">issue</text>
<text text-anchor="middle" x="118" y="-2104" font-family="Sans" font-size="10.00">configuration-modules-core#950</text>
</a>
</g>
<!-- configuration&#45;modules&#45;core#950&#45;&gt;configuration&#45;modules&#45;core#952 -->
<g id="edge54" class="edge"><title>configuration-modules-core#950-&gt;configuration-modules-core#952</title>
<path fill="none" stroke="black" stroke-dasharray="5,2" d="M206.721,-2138.15C246.26,-2149.35 292.974,-2162.59 333.584,-2174.11"/>
<polygon fill="none" stroke="black" points="332.651,-2177.48 343.226,-2176.84 334.56,-2170.74 332.651,-2177.48"/>
<text text-anchor="middle" x="273" y="-2164" font-family="Sans" font-size="10.00">requires</text>
</g>
<!-- configuration&#45;modules&#45;core#951 -->
<g id="node69" class="node"><title>configuration-modules-core#951</title>
<a xlink:href="https://github.com/quattor/configuration-modules-core/issues/951" xlink:title="ncm-spma (yum): Remove support for package groups" target="_parent">
<ellipse fill="#6cc644" stroke="black" cx="432" cy="-2108" rx="118.087" ry="38.1838"/>
<text text-anchor="middle" x="432" y="-2112" font-family="Sans" font-size="10.00">issue</text>
<text text-anchor="middle" x="432" y="-2099" font-family="Sans" font-size="10.00">configuration-modules-core#951</text>
</a>
</g>
<!-- configuration&#45;modules&#45;core#950&#45;&gt;configuration&#45;modules&#45;core#951 -->
<g id="edge52" class="edge"><title>configuration-modules-core#950-&gt;configuration-modules-core#951</title>
<path fill="none" stroke="black" stroke-dasharray="5,2" d="M236.263,-2111.12C258.348,-2110.77 281.525,-2110.4 303.892,-2110.04"/>
<polygon fill="none" stroke="black" points="304.162,-2113.54 314.105,-2109.88 304.05,-2106.54 304.162,-2113.54"/>
<text text-anchor="middle" x="273" y="-2114" font-family="Sans" font-size="10.00">requires</text>
</g>
<!-- template&#45;library&#45;standard#104 -->
<g id="node71" class="node"><title>template-library-standard#104</title>
<a xlink:href="https://github.com/quattor/template-library-standard/pull/104" xlink:title="Add CPUs used in Mellanox SN2100 and SN2700 switches" target="_parent">
<polygon fill="#6cc644" stroke="black" points="196,-637 40,-637 40,-583 196,-583 196,-637"/>
<text text-anchor="middle" x="118" y="-614" font-family="Sans" font-size="10.00">pull-request</text>
<text text-anchor="middle" x="118" y="-601" font-family="Sans" font-size="10.00">template-library-standard#104</text>
</a>
</g>
<!-- template&#45;library&#45;standard#103 -->
<g id="node73" class="node"><title>template-library-standard#103</title>
<a xlink:href="https://github.com/quattor/template-library-standard/issues/103" xlink:title="hardware/cpu/intel add embedded cpus" target="_parent">
<ellipse fill="#6cc644" stroke="black" cx="432" cy="-610" rx="111.016" ry="38.1838"/>
<text text-anchor="middle" x="432" y="-614" font-family="Sans" font-size="10.00">issue</text>
<text text-anchor="middle" x="432" y="-601" font-family="Sans" font-size="10.00">template-library-standard#103</text>
</a>
</g>
<!-- template&#45;library&#45;standard#104&#45;&gt;template&#45;library&#45;standard#103 -->
<g id="edge56" class="edge"><title>template-library-standard#104-&gt;template-library-standard#103</title>
<path fill="none" stroke="black" stroke-width="2" d="M196.83,-610C231.267,-610 272.44,-610 310.641,-610"/>
<polygon fill="black" stroke="black" points="310.804,-613.5 320.804,-610 310.804,-606.5 310.804,-613.5"/>
<text text-anchor="middle" x="273" y="-614" font-family="Sans" font-size="10.00">fixes</text>
</g>
</g>
</svg>
