<?xml version="1.0" encoding="UTF-8" standalone="no"?>
<?xml-stylesheet href="relationships.css" type="text/css"?>
<!-- Generated by graphviz version 2.30.1 (20200930.0103)
 -->
<!-- Title: Dependencies Pages: 1 -->
<svg xmlns="http://www.w3.org/2000/svg" xmlns:xlink="http://www.w3.org/1999/xlink" width="1111pt" height="1466pt" viewBox="0.00 0.00 1111.00 1466.00">
<g id="graph0" class="graph" transform="scale(1 1) rotate(0) translate(4 1462)">
<title>Dependencies</title>
<polygon fill="white" stroke="white" points="-4,5 -4,-1462 1108,-1462 1108,5 -4,5"/>
<g id="clust3" class="cluster"><title>cluster_milestone_23.12</title>
<polygon fill="none" stroke="black" points="8,-1029 8,-1196 522,-1196 522,-1029 8,-1029"/>
<text text-anchor="middle" x="265" y="-1182.4" font-family="Sans" font-size="12.00">23.12</text>
</g>
<g id="clust2" class="cluster"><title>cluster_milestone_22.12</title>
<polygon fill="none" stroke="black" points="319,-286 319,-1021 843,-1021 843,-286 319,-286"/>
<text text-anchor="middle" x="581" y="-1007.4" font-family="Sans" font-size="12.00">22.12</text>
</g>
<g id="clust1" class="cluster"><title>cluster_milestone_23.6</title>
<polygon fill="none" stroke="black" points="29,-860 29,-959 187,-959 187,-860 29,-860"/>
<text text-anchor="middle" x="108" y="-945.4" font-family="Sans" font-size="12.00">23.6</text>
</g>
<!-- aii#331 -->
<g id="node1" class="node"><title>aii#331</title>
<g id="a_node1"><a xlink:href="https://github.com/quattor/aii/pull/331" xlink:title="aii#331 (pull-request)" target="_parent">
<polygon fill="#6cc644" stroke="black" points="179,-929.5 37,-929.5 37,-868.5 179,-868.5 179,-929.5"/>
<text text-anchor="middle" x="108" y="-907.5" font-family="Sans" font-size="10.00">let aii generate ansible</text>
<text text-anchor="middle" x="108" y="-896.5" font-family="Sans" font-size="10.00">playbook for supported</text>
<text text-anchor="middle" x="108" y="-885.5" font-family="Sans" font-size="10.00">components</text>
</a>
</g>
</g>
<!-- aii#328 -->
<g id="node2" class="node"><title>aii#328</title>
<g id="a_node2"><a xlink:href="https://github.com/quattor/aii/pull/328" xlink:title="aii#328 (pull-request)" target="_parent">
<polygon fill="#6cc644" stroke="black" points="515,-924 333,-924 333,-874 515,-874 515,-924"/>
<text text-anchor="middle" x="424" y="-902" font-family="Sans" font-size="10.00">aii-ks: generate ks post section</text>
<text text-anchor="middle" x="424" y="-891" font-family="Sans" font-size="10.00">as standalone script</text>
</a>
</g>
</g>
<!-- aii#331&#45;&gt;aii#328 -->
<g id="edge1" class="edge"><title>aii#331-&gt;aii#328</title>
<path fill="none" stroke="black" stroke-dasharray="5,2" d="M179.077,-893.27C221.343,-892.16 275.883,-891.956 322.668,-892.657"/>
<polygon fill="none" stroke="black" points="322.777,-896.159 332.834,-892.826 322.893,-889.16 322.777,-896.159"/>
<text text-anchor="middle" x="235.574" y="-884.263" font-family="Sans" font-size="10.00">requires</text>
</g>
<!-- aii#331&#45;&gt;aii#328 -->
<g id="edge8" class="edge"><title>aii#331-&gt;aii#328</title>
<path fill="none" stroke="black" stroke-dasharray="5,2" d="M179.077,-904.73C221.343,-905.84 275.883,-906.044 322.668,-905.343"/>
<polygon fill="none" stroke="black" points="322.893,-908.84 332.834,-905.174 322.777,-901.841 322.893,-908.84"/>
<text text-anchor="middle" x="235.574" y="-897.737" font-family="Sans" font-size="10.00">requires</text>
</g>
<!-- aii#280 -->
<g id="node3" class="node"><title>aii#280</title>
<polygon fill="lightgrey" stroke="black" points="1056.5,-986.5 989.5,-986.5 989.5,-947.5 1056.5,-947.5 1056.5,-986.5"/>
<text text-anchor="middle" x="1023" y="-964.5" font-family="Sans" font-size="10.00">aii#280</text>
</g>
<!-- aii#328&#45;&gt;aii#280 -->
<g id="edge2" class="edge"><title>aii#328-&gt;aii#280</title>
<path fill="none" stroke="black" stroke-dasharray="5,2" d="M515.081,-916.852C519.874,-919.073 524.546,-921.457 529,-924 584.518,-955.693 577.187,-996.437 637,-1019 755.832,-1063.83 907.344,-1010.15 979.757,-981.843"/>
<polygon fill="none" stroke="black" points="981.416,-984.951 989.438,-978.03 978.851,-978.438 981.416,-984.951"/>
<text text-anchor="middle" x="735.32" y="-1027.92" font-family="Sans" font-size="10.00">requires</text>
</g>
<!-- aii#316 -->
<g id="node4" class="node"><title>aii#316</title>
<g id="a_node4"><a xlink:href="https://github.com/quattor/aii/pull/316" xlink:title="aii#316 (pull-request)" target="_parent">
<polygon fill="#6cc644" stroke="black" points="824,-929.5 648,-929.5 648,-868.5 824,-868.5 824,-929.5"/>
<text text-anchor="middle" x="736" y="-907.5" font-family="Sans" font-size="10.00">aii-ks: generate kickstart repo</text>
<text text-anchor="middle" x="736" y="-896.5" font-family="Sans" font-size="10.00">entries based on SPMA</text>
<text text-anchor="middle" x="736" y="-885.5" font-family="Sans" font-size="10.00">configuration</text>
</a>
</g>
</g>
<!-- aii#328&#45;&gt;aii#316 -->
<g id="edge3" class="edge"><title>aii#328-&gt;aii#316</title>
<path fill="none" stroke="black" stroke-dasharray="5,2" d="M515.081,-892.806C553.563,-892.107 598.56,-892.067 637.792,-892.686"/>
<polygon fill="none" stroke="black" points="637.839,-896.187 647.899,-892.862 637.961,-889.188 637.839,-896.187"/>
<text text-anchor="middle" x="561.561" y="-884.25" font-family="Sans" font-size="10.00">requires</text>
</g>
<!-- aii#328&#45;&gt;aii#280 -->
<g id="edge9" class="edge"><title>aii#328-&gt;aii#280</title>
<path fill="none" stroke="black" stroke-dasharray="5,2" d="M488.622,-924.038C502.39,-929.016 516.545,-934.89 529,-942 584.518,-973.693 577.187,-1014.44 637,-1037 757.893,-1082.6 912.61,-1026.25 983.453,-990.926"/>
<polygon fill="none" stroke="black" points="985.171,-993.979 992.477,-986.306 981.981,-987.748 985.171,-993.979"/>
<text text-anchor="middle" x="721.351" y="-1046.06" font-family="Sans" font-size="10.00">requires</text>
</g>
<!-- aii#328&#45;&gt;aii#316 -->
<g id="edge10" class="edge"><title>aii#328-&gt;aii#316</title>
<path fill="none" stroke="black" stroke-dasharray="5,2" d="M515.081,-905.194C553.563,-905.893 598.56,-905.933 637.792,-905.314"/>
<polygon fill="none" stroke="black" points="637.961,-908.812 647.899,-905.138 637.839,-901.813 637.961,-908.812"/>
<text text-anchor="middle" x="561.561" y="-897.75" font-family="Sans" font-size="10.00">requires</text>
</g>
<!-- aii#316&#45;&gt;aii#280 -->
<g id="edge4" class="edge"><title>aii#316-&gt;aii#280</title>
<path fill="none" stroke="black" stroke-dasharray="5,2" d="M824.058,-913.498C875.627,-924.871 938.673,-940.347 979.549,-951.898"/>
<polygon fill="none" stroke="black" points="978.612,-955.271 989.19,-954.671 980.547,-948.543 978.612,-955.271"/>
<text text-anchor="middle" x="887.093" y="-924.947" font-family="Sans" font-size="10.00">requires</text>
</g>
<!-- aii#314 -->
<g id="node5" class="node"><title>aii#314</title>
<polygon fill="lightgrey" stroke="black" points="1056.5,-923.5 989.5,-923.5 989.5,-884.5 1056.5,-884.5 1056.5,-923.5"/>
<text text-anchor="middle" x="1023" y="-901.5" font-family="Sans" font-size="10.00">aii#314</text>
</g>
<!-- aii#316&#45;&gt;aii#314 -->
<g id="edge5" class="edge"><title>aii#316-&gt;aii#314</title>
<path fill="none" stroke="black" stroke-dasharray="5,2" d="M824.058,-894.254C875.409,-894.228 938.14,-895.754 979.03,-898.25"/>
<polygon fill="none" stroke="black" points="978.98,-901.755 989.19,-898.924 979.443,-894.77 978.98,-901.755"/>
<text text-anchor="middle" x="886.741" y="-887.339" font-family="Sans" font-size="10.00">requires</text>
</g>
<!-- aii#315 -->
<g id="node6" class="node"><title>aii#315</title>
<polygon fill="lightgrey" stroke="black" points="1056.5,-866.5 989.5,-866.5 989.5,-827.5 1056.5,-827.5 1056.5,-866.5"/>
<text text-anchor="middle" x="1023" y="-844.5" font-family="Sans" font-size="10.00">aii#315</text>
</g>
<!-- aii#316&#45;&gt;aii#315 -->
<g id="edge6" class="edge"><title>aii#316-&gt;aii#315</title>
<path fill="none" stroke="black" stroke-dasharray="5,2" d="M824.058,-876.842C875.409,-866.546 938.14,-855.526 979.03,-849.845"/>
<polygon fill="none" stroke="black" points="979.742,-853.281 989.19,-848.486 978.814,-846.342 979.742,-853.281"/>
<text text-anchor="middle" x="886.104" y="-853.502" font-family="Sans" font-size="10.00">requires</text>
</g>
<!-- aii#316&#45;&gt;aii#280 -->
<g id="edge11" class="edge"><title>aii#316-&gt;aii#280</title>
<path fill="none" stroke="black" stroke-dasharray="5,2" d="M824.058,-926.045C875.518,-939.252 938.406,-953.828 979.29,-961.794"/>
<polygon fill="none" stroke="black" points="978.712,-965.247 989.19,-963.672 980.017,-958.369 978.712,-965.247"/>
<text text-anchor="middle" x="886.279" y="-938.032" font-family="Sans" font-size="10.00">requires</text>
</g>
<!-- aii#316&#45;&gt;aii#314 -->
<g id="edge12" class="edge"><title>aii#316-&gt;aii#314</title>
<path fill="none" stroke="black" stroke-dasharray="5,2" d="M824.058,-906.801C875.409,-908.629 938.14,-909.303 979.03,-908.242"/>
<polygon fill="none" stroke="black" points="979.304,-911.735 989.19,-907.925 979.085,-904.738 979.304,-911.735"/>
<text text-anchor="middle" x="886.741" y="-900.617" font-family="Sans" font-size="10.00">requires</text>
</g>
<!-- aii#316&#45;&gt;aii#315 -->
<g id="edge13" class="edge"><title>aii#316-&gt;aii#315</title>
<path fill="none" stroke="black" stroke-dasharray="5,2" d="M824.058,-889.389C875.518,-880.929 938.406,-869.025 979.29,-859.777"/>
<polygon fill="none" stroke="black" points="980.236,-863.151 989.19,-857.487 978.658,-856.331 980.236,-863.151"/>
<text text-anchor="middle" x="886.917" y="-866.635" font-family="Sans" font-size="10.00">requires</text>
</g>
<!-- aii#299 -->
<g id="node7" class="node"><title>aii#299</title>
<g id="a_node7"><a xlink:href="https://github.com/quattor/aii/pull/299" xlink:title="aii#299 (pull-request)" target="_parent">
<polygon fill="#6cc644" stroke="black" points="500.5,-992 347.5,-992 347.5,-942 500.5,-942 500.5,-992"/>
<text text-anchor="middle" x="424" y="-970" font-family="Sans" font-size="10.00">aii-dhcp: support optional</text>
<text text-anchor="middle" x="424" y="-959" font-family="Sans" font-size="10.00">hostname ip verification</text>
</a>
</g>
</g>
<!-- aii#299&#45;&gt;aii#280 -->
<g id="edge7" class="edge"><title>aii#299-&gt;aii#280</title>
<path fill="none" stroke="black" stroke-dasharray="5,2" d="M500.61,-962.327C627.43,-959.263 878.958,-959.589 979.256,-963.304"/>
<polygon fill="none" stroke="black" points="979.191,-966.804 989.324,-963.711 979.474,-959.81 979.191,-966.804"/>
<text text-anchor="middle" x="729.912" y="-952.274" font-family="Sans" font-size="10.00">requires</text>
</g>
<!-- aii#299&#45;&gt;aii#280 -->
<g id="edge14" class="edge"><title>aii#299-&gt;aii#280</title>
<path fill="none" stroke="black" stroke-dasharray="5,2" d="M500.61,-971.673C627.43,-974.737 878.958,-974.411 979.256,-970.696"/>
<polygon fill="none" stroke="black" points="979.474,-974.19 989.324,-970.289 979.191,-967.196 979.474,-974.19"/>
<text text-anchor="middle" x="729.912" y="-965.726" font-family="Sans" font-size="10.00">requires</text>
</g>
<!-- CAF#257 -->
<g id="node8" class="node"><title>CAF#257</title>
<g id="a_node8"><a xlink:href="https://github.com/quattor/CAF/pull/257" xlink:title="CAF#257 (pull-request)" target="_parent">
<polygon fill="#6cc644" stroke="black" points="199.5,-1161 16.5,-1161 16.5,-1111 199.5,-1111 199.5,-1161"/>
<text text-anchor="middle" x="108" y="-1139" font-family="Sans" font-size="10.00">Process: run process as another</text>
<text text-anchor="middle" x="108" y="-1128" font-family="Sans" font-size="10.00">user</text>
</a>
</g>
</g>
<!-- CAF#253 -->
<g id="node9" class="node"><title>CAF#253</title>
<g id="a_node9"><a xlink:href="https://github.com/quattor/CAF/issues/253" xlink:title="CAF#253 (issue)" target="_parent">
<path fill="#6cc644" stroke="black" d="M502,-1166.5C502,-1166.5 346,-1166.5 346,-1166.5 340,-1166.5 334,-1160.5 334,-1154.5 334,-1154.5 334,-1117.5 334,-1117.5 334,-1111.5 340,-1105.5 346,-1105.5 346,-1105.5 502,-1105.5 502,-1105.5 508,-1105.5 514,-1111.5 514,-1117.5 514,-1117.5 514,-1154.5 514,-1154.5 514,-1160.5 508,-1166.5 502,-1166.5"/>
<text text-anchor="middle" x="424" y="-1144.5" font-family="Sans" font-size="10.00">CAF::Process: Include an option</text>
<text text-anchor="middle" x="424" y="-1133.5" font-family="Sans" font-size="10.00">to execute the command as an</text>
<text text-anchor="middle" x="424" y="-1122.5" font-family="Sans" font-size="10.00">specific user</text>
</a>
</g>
</g>
<!-- CAF#257&#45;&gt;CAF#253 -->
<g id="edge15" class="edge"><title>CAF#257-&gt;CAF#253</title>
<path fill="none" stroke="black" stroke-width="2" d="M199.822,-1136C238.561,-1136 283.88,-1136 323.522,-1136"/>
<polygon fill="black" stroke="black" points="323.737,-1139.5 333.737,-1136 323.737,-1132.5 323.737,-1139.5"/>
<text text-anchor="middle" x="254.782" y="-1128" font-family="Sans" font-size="10.00">fixes</text>
</g>
<!-- CAF#110 -->
<g id="node10" class="node"><title>CAF#110</title>
<g id="a_node10"><a xlink:href="https://github.com/quattor/CAF/pull/110" xlink:title="CAF#110 (pull-request)" target="_parent">
<polygon fill="#6cc644" stroke="black" points="499.5,-492 348.5,-492 348.5,-442 499.5,-442 499.5,-492"/>
<text text-anchor="middle" x="424" y="-470" font-family="Sans" font-size="10.00">CAF::Download class: API</text>
<text text-anchor="middle" x="424" y="-459" font-family="Sans" font-size="10.00">proposal</text>
</a>
</g>
</g>
<!-- CAF#120 -->
<g id="node11" class="node"><title>CAF#120</title>
<polygon fill="lightgrey" stroke="black" points="773,-209.5 699,-209.5 699,-170.5 773,-170.5 773,-209.5"/>
<text text-anchor="middle" x="736" y="-187.5" font-family="Sans" font-size="10.00">CAF#120</text>
</g>
<!-- CAF#110&#45;&gt;CAF#120 -->
<g id="edge16" class="edge"><title>CAF#110-&gt;CAF#120</title>
<path fill="none" stroke="black" stroke-dasharray="5,2" d="M499.604,-449.9C510.221,-445.274 520.427,-439.415 529,-432 609.279,-362.566 555.453,-286.94 637,-219 651.472,-206.943 670.795,-199.898 688.456,-195.783"/>
<polygon fill="none" stroke="black" points="689.53,-199.135 698.614,-193.682 688.112,-192.28 689.53,-199.135"/>
<text text-anchor="middle" x="563.642" y="-311.023" font-family="Sans" font-size="10.00">requires</text>
</g>
<!-- configuration&#45;modules&#45;core#1567 -->
<g id="node12" class="node"><title>configuration-modules-core#1567</title>
<g id="a_node12"><a xlink:href="https://github.com/quattor/configuration-modules-core/pull/1567" xlink:title="configuration-modules-core#1567 (pull-request)" target="_parent">
<polygon fill="#6cc644" stroke="black" points="516.5,-856 331.5,-856 331.5,-806 516.5,-806 516.5,-856"/>
<text text-anchor="middle" x="424" y="-834" font-family="Sans" font-size="10.00">ncm-systemd: All Exec* options</text>
<text text-anchor="middle" x="424" y="-823" font-family="Sans" font-size="10.00">can be lists of strings</text>
</a>
</g>
</g>
<!-- configuration&#45;modules&#45;core#1262 -->
<g id="node13" class="node"><title>configuration-modules-core#1262</title>
<g id="a_node13"><a xlink:href="https://github.com/quattor/configuration-modules-core/issues/1262" xlink:title="configuration-modules-core#1262 (issue)" target="_parent">
<path fill="#6cc644" stroke="black" d="M823,-850C823,-850 649,-850 649,-850 643,-850 637,-844 637,-838 637,-838 637,-812 637,-812 637,-806 643,-800 649,-800 649,-800 823,-800 823,-800 829,-800 835,-806 835,-812 835,-812 835,-838 835,-838 835,-844 829,-850 823,-850"/>
<text text-anchor="middle" x="736" y="-828" font-family="Sans" font-size="10.00">ncm-systemd: ExecStart should be</text>
<text text-anchor="middle" x="736" y="-817" font-family="Sans" font-size="10.00">a list of string, not a string</text>
</a>
</g>
</g>
<!-- configuration&#45;modules&#45;core#1567&#45;&gt;configuration&#45;modules&#45;core#1262 -->
<g id="edge17" class="edge"><title>configuration-modules-core#1567-&gt;configuration-modules-core#1262</title>
<path fill="none" stroke="black" stroke-width="2" d="M516.752,-829.224C551.268,-828.556 590.834,-827.79 626.716,-827.096"/>
<polygon fill="black" stroke="black" points="626.801,-830.595 636.732,-826.902 626.666,-823.596 626.801,-830.595"/>
<text text-anchor="middle" x="564.921" y="-820.06" font-family="Sans" font-size="10.00">fixes</text>
</g>
<!-- configuration&#45;modules&#45;core#1554 -->
<g id="node14" class="node"><title>configuration-modules-core#1554</title>
<g id="a_node14"><a xlink:href="https://github.com/quattor/configuration-modules-core/pull/1554" xlink:title="configuration-modules-core#1554 (pull-request)" target="_parent">
<polygon fill="#6cc644" stroke="black" points="509,-788 339,-788 339,-738 509,-738 509,-788"/>
<text text-anchor="middle" x="424" y="-766" font-family="Sans" font-size="10.00">avoid removing empty list of</text>
<text text-anchor="middle" x="424" y="-755" font-family="Sans" font-size="10.00">packages</text>
</a>
</g>
</g>
<!-- configuration&#45;modules&#45;core#1553 -->
<g id="node15" class="node"><title>configuration-modules-core#1553</title>
<g id="a_node15"><a xlink:href="https://github.com/quattor/configuration-modules-core/issues/1553" xlink:title="configuration-modules-core#1553 (issue)" target="_parent">
<path fill="#6cc644" stroke="black" d="M816.5,-781.5C816.5,-781.5 655.5,-781.5 655.5,-781.5 649.5,-781.5 643.5,-775.5 643.5,-769.5 643.5,-769.5 643.5,-732.5 643.5,-732.5 643.5,-726.5 649.5,-720.5 655.5,-720.5 655.5,-720.5 816.5,-720.5 816.5,-720.5 822.5,-720.5 828.5,-726.5 828.5,-732.5 828.5,-732.5 828.5,-769.5 828.5,-769.5 828.5,-775.5 822.5,-781.5 816.5,-781.5"/>
<text text-anchor="middle" x="736" y="-759.5" font-family="Sans" font-size="10.00">ncm-spma: update_pkgs in yum</text>
<text text-anchor="middle" x="736" y="-748.5" font-family="Sans" font-size="10.00">plugin tries to remove empty</text>
<text text-anchor="middle" x="736" y="-737.5" font-family="Sans" font-size="10.00">list of packages</text>
</a>
</g>
</g>
<!-- configuration&#45;modules&#45;core#1554&#45;&gt;configuration&#45;modules&#45;core#1553 -->
<g id="edge18" class="edge"><title>configuration-modules-core#1554-&gt;configuration-modules-core#1553</title>
<path fill="none" stroke="black" stroke-width="2" d="M509.299,-759.737C547.563,-758.256 593.142,-756.491 633.29,-754.937"/>
<polygon fill="black" stroke="black" points="633.515,-758.431 643.372,-754.547 633.244,-751.436 633.515,-758.431"/>
<text text-anchor="middle" x="564.057" y="-749.153" font-family="Sans" font-size="10.00">fixes</text>
</g>
<!-- configuration&#45;modules&#45;core#1490 -->
<g id="node16" class="node"><title>configuration-modules-core#1490</title>
<g id="a_node16"><a xlink:href="https://github.com/quattor/configuration-modules-core/pull/1490" xlink:title="configuration-modules-core#1490 (pull-request)" target="_parent">
<polygon fill="#6e5494" stroke="black" points="507.5,-423.5 340.5,-423.5 340.5,-362.5 507.5,-362.5 507.5,-423.5"/>
<text text-anchor="middle" x="424" y="-401.5" font-family="Sans" font-size="10.00">ncm-ceph: Add support for</text>
<text text-anchor="middle" x="424" y="-390.5" font-family="Sans" font-size="10.00">orchestrator/cephadm under</text>
<text text-anchor="middle" x="424" y="-379.5" font-family="Sans" font-size="10.00">octopus</text>
</a>
</g>
</g>
<!-- configuration&#45;modules&#45;core#1463 -->
<g id="node17" class="node"><title>configuration-modules-core#1463</title>
<polygon fill="lightgrey" stroke="black" points="833.5,-152.5 638.5,-152.5 638.5,-113.5 833.5,-113.5 833.5,-152.5"/>
<text text-anchor="middle" x="736" y="-130.5" font-family="Sans" font-size="10.00">configuration-modules-core#1463</text>
</g>
<!-- configuration&#45;modules&#45;core#1490&#45;&gt;configuration&#45;modules&#45;core#1463 -->
<g id="edge19" class="edge"><title>configuration-modules-core#1490-&gt;configuration-modules-core#1463</title>
<path fill="none" stroke="black" stroke-dasharray="1,5" d="M507.591,-367.591C515.262,-363.401 522.56,-358.566 529,-353 603.071,-288.974 560.158,-221.672 637,-161 638.384,-159.907 639.81,-158.856 641.27,-157.847"/>
<polygon fill="black" stroke="black" points="649.988,-152.503 643.814,-161.566 645.725,-155.116 641.462,-157.729 641.462,-157.729 641.462,-157.729 645.725,-155.116 639.11,-153.893 649.988,-152.503 649.988,-152.503"/>
<text text-anchor="middle" x="559.72" y="-252.683" font-family="Sans" font-size="10.00">replaces</text>
</g>
<!-- configuration&#45;modules&#45;core#1464 -->
<g id="node18" class="node"><title>configuration-modules-core#1464</title>
<g id="a_node18"><a xlink:href="https://github.com/quattor/configuration-modules-core/pull/1464" xlink:title="configuration-modules-core#1464 (pull-request)" target="_parent">
<polygon fill="#6e5494" stroke="black" points="516,-719.5 332,-719.5 332,-658.5 516,-658.5 516,-719.5"/>
<text text-anchor="middle" x="424" y="-697.5" font-family="Sans" font-size="10.00">ncm-systemd: all pre and post</text>
<text text-anchor="middle" x="424" y="-686.5" font-family="Sans" font-size="10.00">exec commands now take a list</text>
<text text-anchor="middle" x="424" y="-675.5" font-family="Sans" font-size="10.00">instead of a string</text>
</a>
</g>
</g>
<!-- template&#45;library&#45;core#212 -->
<g id="node19" class="node"><title>template-library-core#212</title>
<g id="a_node19"><a xlink:href="https://github.com/quattor/template-library-core/pull/212" xlink:title="template-library-core#212 (pull-request)" target="_parent">
<polygon fill="#6e5494" stroke="black" points="823.5,-702.5 648.5,-702.5 648.5,-641.5 823.5,-641.5 823.5,-702.5"/>
<text text-anchor="middle" x="736" y="-680.5" font-family="Sans" font-size="10.00">Add a transitional type for</text>
<text text-anchor="middle" x="736" y="-669.5" font-family="Sans" font-size="10.00">strings being migrated to lists</text>
<text text-anchor="middle" x="736" y="-658.5" font-family="Sans" font-size="10.00">of strings</text>
</a>
</g>
</g>
<!-- configuration&#45;modules&#45;core#1464&#45;&gt;template&#45;library&#45;core#212 -->
<g id="edge20" class="edge"><title>configuration-modules-core#1464-&gt;template-library-core#212</title>
<path fill="none" stroke="black" stroke-dasharray="5,2" d="M516.334,-683.991C554.615,-681.892 599.168,-679.449 638.032,-677.318"/>
<polygon fill="none" stroke="black" points="638.513,-680.797 648.306,-676.754 638.13,-673.807 638.513,-680.797"/>
<text text-anchor="middle" x="562.323" y="-672.373" font-family="Sans" font-size="10.00">requires</text>
</g>
<!-- configuration&#45;modules&#45;core#1452 -->
<g id="node20" class="node"><title>configuration-modules-core#1452</title>
<g id="a_node20"><a xlink:href="https://github.com/quattor/configuration-modules-core/pull/1452" xlink:title="configuration-modules-core#1452 (pull-request)" target="_parent">
<polygon fill="#6cc644" stroke="black" points="510.5,-344 337.5,-344 337.5,-294 510.5,-294 510.5,-344"/>
<text text-anchor="middle" x="424" y="-322" font-family="Sans" font-size="10.00">ncm-metaconfig: ssh daemon</text>
<text text-anchor="middle" x="424" y="-311" font-family="Sans" font-size="10.00">configuration support</text>
</a>
</g>
</g>
<!-- configuration&#45;modules&#45;core#1377 -->
<g id="node21" class="node"><title>configuration-modules-core#1377</title>
<polygon fill="lightgrey" stroke="black" points="833.5,-38.5 638.5,-38.5 638.5,0.5 833.5,0.5 833.5,-38.5"/>
<text text-anchor="middle" x="736" y="-16.5" font-family="Sans" font-size="10.00">configuration-modules-core#1377</text>
</g>
<!-- configuration&#45;modules&#45;core#1452&#45;&gt;configuration&#45;modules&#45;core#1377 -->
<g id="edge21" class="edge"><title>configuration-modules-core#1452-&gt;configuration-modules-core#1377</title>
<path fill="none" stroke="black" stroke-dasharray="1,5" d="M437.582,-293.65C465.651,-239.754 538.728,-113.3 637,-47 639.118,-45.5712 641.308,-44.2145 643.557,-42.9264"/>
<polygon fill="black" stroke="black" points="652.485,-38.2899 645.684,-46.8923 648.047,-40.5943 643.61,-42.8987 643.61,-42.8987 643.61,-42.8987 648.047,-40.5943 641.536,-38.9052 652.485,-38.2899 652.485,-38.2899"/>
<text text-anchor="middle" x="506.996" y="-144.517" font-family="Sans" font-size="10.00">replaces</text>
</g>
<!-- configuration&#45;modules&#45;core#1451 -->
<g id="node22" class="node"><title>configuration-modules-core#1451</title>
<polygon fill="lightgrey" stroke="black" points="833.5,-95.5 638.5,-95.5 638.5,-56.5 833.5,-56.5 833.5,-95.5"/>
<text text-anchor="middle" x="736" y="-73.5" font-family="Sans" font-size="10.00">configuration-modules-core#1451</text>
</g>
<!-- configuration&#45;modules&#45;core#1452&#45;&gt;configuration&#45;modules&#45;core#1451 -->
<g id="edge22" class="edge"><title>configuration-modules-core#1452-&gt;configuration-modules-core#1451</title>
<path fill="none" stroke="black" stroke-dasharray="5,2" d="M442.665,-293.983C475.655,-249.124 551.111,-154.944 637,-104 639.654,-102.426 642.401,-100.936 645.216,-99.5271"/>
<polygon fill="none" stroke="black" points="646.788,-102.656 654.408,-95.2946 643.86,-96.2981 646.788,-102.656"/>
<text text-anchor="middle" x="517.53" y="-175.365" font-family="Sans" font-size="10.00">requires</text>
</g>
<!-- configuration&#45;modules&#45;core#1336 -->
<g id="node23" class="node"><title>configuration-modules-core#1336</title>
<g id="a_node23"><a xlink:href="https://github.com/quattor/configuration-modules-core/pull/1336" xlink:title="configuration-modules-core#1336 (pull-request)" target="_parent">
<polygon fill="#6cc644" stroke="black" points="511,-571.5 337,-571.5 337,-510.5 511,-510.5 511,-571.5"/>
<text text-anchor="middle" x="424" y="-549.5" font-family="Sans" font-size="10.00">ncm-network: Add support for</text>
<text text-anchor="middle" x="424" y="-538.5" font-family="Sans" font-size="10.00">CAF::Service actions after</text>
<text text-anchor="middle" x="424" y="-527.5" font-family="Sans" font-size="10.00">changes</text>
</a>
</g>
</g>
<!-- configuration&#45;modules&#45;core#1335 -->
<g id="node24" class="node"><title>configuration-modules-core#1335</title>
<g id="a_node24"><a xlink:href="https://github.com/quattor/configuration-modules-core/pull/1335" xlink:title="configuration-modules-core#1335 (pull-request)" target="_parent">
<polygon fill="#6cc644" stroke="black" points="829,-554.5 643,-554.5 643,-493.5 829,-493.5 829,-554.5"/>
<text text-anchor="middle" x="736" y="-532.5" font-family="Sans" font-size="10.00">ncm-metaconfig: Remove</text>
<text text-anchor="middle" x="736" y="-521.5" font-family="Sans" font-size="10.00">caf_service_action type to allow</text>
<text text-anchor="middle" x="736" y="-510.5" font-family="Sans" font-size="10.00">reuse</text>
</a>
</g>
</g>
<!-- configuration&#45;modules&#45;core#1336&#45;&gt;configuration&#45;modules&#45;core#1335 -->
<g id="edge23" class="edge"><title>configuration-modules-core#1336-&gt;configuration-modules-core#1335</title>
<path fill="none" stroke="black" stroke-dasharray="5,2" d="M511.352,-536.265C549.011,-534.199 593.444,-531.763 632.742,-529.608"/>
<polygon fill="none" stroke="black" points="633.087,-533.094 642.88,-529.052 632.703,-526.105 633.087,-533.094"/>
<text text-anchor="middle" x="556.78" y="-524.677" font-family="Sans" font-size="10.00">requires</text>
</g>
<!-- configuration&#45;modules&#45;core#1071 -->
<g id="node25" class="node"><title>configuration-modules-core#1071</title>
<g id="a_node25"><a xlink:href="https://github.com/quattor/configuration-modules-core/issues/1071" xlink:title="configuration-modules-core#1071 (issue)" target="_parent">
<path fill="#6cc644" stroke="black" d="M822.5,-278C822.5,-278 649.5,-278 649.5,-278 643.5,-278 637.5,-272 637.5,-266 637.5,-266 637.5,-240 637.5,-240 637.5,-234 643.5,-228 649.5,-228 649.5,-228 822.5,-228 822.5,-228 828.5,-228 834.5,-234 834.5,-240 834.5,-240 834.5,-266 834.5,-266 834.5,-272 828.5,-278 822.5,-278"/>
<text text-anchor="middle" x="736" y="-256" font-family="Sans" font-size="10.00">ncm-network: support daemons to</text>
<text text-anchor="middle" x="736" y="-245" font-family="Sans" font-size="10.00">restart after network changes</text>
</a>
</g>
</g>
<!-- configuration&#45;modules&#45;core#1336&#45;&gt;configuration&#45;modules&#45;core#1071 -->
<g id="edge24" class="edge"><title>configuration-modules-core#1336-&gt;configuration-modules-core#1071</title>
<path fill="none" stroke="black" stroke-width="2" d="M511.25,-514.013C517.623,-510.207 523.642,-505.891 529,-501 606.645,-430.116 557.322,-356.67 634.219,-285.005"/>
<polygon fill="black" stroke="black" points="636.886,-287.32 642.063,-278.076 632.252,-282.073 636.886,-287.32"/>
<text text-anchor="middle" x="569.151" y="-389.111" font-family="Sans" font-size="10.00">fixes</text>
</g>
<!-- template&#45;library&#45;core#191 -->
<g id="node26" class="node"><title>template-library-core#191</title>
<polygon fill="lightgrey" stroke="black" points="1102.5,-543.5 943.5,-543.5 943.5,-504.5 1102.5,-504.5 1102.5,-543.5"/>
<text text-anchor="middle" x="1023" y="-521.5" font-family="Sans" font-size="10.00">template-library-core#191</text>
</g>
<!-- configuration&#45;modules&#45;core#1335&#45;&gt;template&#45;library&#45;core#191 -->
<g id="edge25" class="edge"><title>configuration-modules-core#1335-&gt;template-library-core#191</title>
<path fill="none" stroke="black" stroke-dasharray="5,2" d="M829.138,-524C862.447,-524 899.968,-524 933.003,-524"/>
<polygon fill="none" stroke="black" points="933.101,-527.5 943.101,-524 933.101,-520.5 933.101,-527.5"/>
<text text-anchor="middle" x="866.142" y="-516" font-family="Sans" font-size="10.00">requires</text>
</g>
<!-- configuration&#45;modules&#45;core#1507 -->
<g id="node27" class="node"><title>configuration-modules-core#1507</title>
<g id="a_node27"><a xlink:href="https://github.com/quattor/configuration-modules-core/pull/1507" xlink:title="configuration-modules-core#1507 (pull-request)" target="_parent">
<polygon fill="#6cc644" stroke="black" points="196,-1254 20,-1254 20,-1204 196,-1204 196,-1254"/>
<text text-anchor="middle" x="108" y="-1232" font-family="Sans" font-size="10.00">[WIP] ncm-spma: yumdnf: use</text>
<text text-anchor="middle" x="108" y="-1221" font-family="Sans" font-size="10.00">spmaleaves dnf plugin</text>
</a>
</g>
</g>
<!-- configuration&#45;modules&#45;core#1401 -->
<g id="node28" class="node"><title>configuration-modules-core#1401</title>
<polygon fill="lightgrey" stroke="black" points="521.5,-1248.5 326.5,-1248.5 326.5,-1209.5 521.5,-1209.5 521.5,-1248.5"/>
<text text-anchor="middle" x="424" y="-1226.5" font-family="Sans" font-size="10.00">configuration-modules-core#1401</text>
</g>
<!-- configuration&#45;modules&#45;core#1507&#45;&gt;configuration&#45;modules&#45;core#1401 -->
<g id="edge26" class="edge"><title>configuration-modules-core#1507-&gt;configuration-modules-core#1401</title>
<path fill="none" stroke="black" stroke-dasharray="5,2" d="M196.05,-1229C233.203,-1229 276.927,-1229 316.027,-1229"/>
<polygon fill="none" stroke="black" points="316.391,-1232.5 326.391,-1229 316.391,-1225.5 316.391,-1232.5"/>
<text text-anchor="middle" x="241.549" y="-1221" font-family="Sans" font-size="10.00">requires</text>
</g>
<!-- configuration&#45;modules&#45;core#1148 -->
<g id="node29" class="node"><title>configuration-modules-core#1148</title>
<g id="a_node29"><a xlink:href="https://github.com/quattor/configuration-modules-core/pull/1148" xlink:title="configuration-modules-core#1148 (pull-request)" target="_parent">
<polygon fill="#6cc644" stroke="black" points="207.5,-1390 8.5,-1390 8.5,-1340 207.5,-1340 207.5,-1390"/>
<text text-anchor="middle" x="108" y="-1368" font-family="Sans" font-size="10.00">ncm-spma: Remove support from</text>
<text text-anchor="middle" x="108" y="-1357" font-family="Sans" font-size="10.00">groups from spma yumng backend</text>
</a>
</g>
</g>
<!-- configuration&#45;modules&#45;core#952 -->
<g id="node30" class="node"><title>configuration-modules-core#952</title>
<g id="a_node30"><a xlink:href="https://github.com/quattor/configuration-modules-core/issues/952" xlink:title="configuration-modules-core#952 (issue)" target="_parent">
<path fill="#6cc644" stroke="black" d="M517,-1390C517,-1390 331,-1390 331,-1390 325,-1390 319,-1384 319,-1378 319,-1378 319,-1352 319,-1352 319,-1346 325,-1340 331,-1340 331,-1340 517,-1340 517,-1340 523,-1340 529,-1346 529,-1352 529,-1352 529,-1378 529,-1378 529,-1384 523,-1390 517,-1390"/>
<text text-anchor="middle" x="424" y="-1368" font-family="Sans" font-size="10.00">ncm-spma (yumng): Remove support</text>
<text text-anchor="middle" x="424" y="-1357" font-family="Sans" font-size="10.00">for package groups</text>
</a>
</g>
</g>
<!-- configuration&#45;modules&#45;core#1148&#45;&gt;configuration&#45;modules&#45;core#952 -->
<g id="edge27" class="edge"><title>configuration-modules-core#1148-&gt;configuration-modules-core#952</title>
<path fill="none" stroke="black" stroke-width="2" d="M207.921,-1365C239.933,-1365 275.695,-1365 308.726,-1365"/>
<polygon fill="black" stroke="black" points="308.883,-1368.5 318.883,-1365 308.882,-1361.5 308.883,-1368.5"/>
<text text-anchor="middle" x="251.546" y="-1357" font-family="Sans" font-size="10.00">fixes</text>
</g>
<!-- configuration&#45;modules&#45;core#950 -->
<g id="node31" class="node"><title>configuration-modules-core#950</title>
<g id="a_node31"><a xlink:href="https://github.com/quattor/configuration-modules-core/issues/950" xlink:title="configuration-modules-core#950 (issue)" target="_parent">
<path fill="#6cc644" stroke="black" d="M199,-1322C199,-1322 17,-1322 17,-1322 11,-1322 5,-1316 5,-1310 5,-1310 5,-1284 5,-1284 5,-1278 11,-1272 17,-1272 17,-1272 199,-1272 199,-1272 205,-1272 211,-1278 211,-1284 211,-1284 211,-1310 211,-1310 211,-1316 205,-1322 199,-1322"/>
<text text-anchor="middle" x="108" y="-1300" font-family="Sans" font-size="10.00">ncm-spma: Remove support for</text>
<text text-anchor="middle" x="108" y="-1289" font-family="Sans" font-size="10.00">package groups from yum backends</text>
</a>
</g>
</g>
<!-- configuration&#45;modules&#45;core#951 -->
<g id="node32" class="node"><title>configuration-modules-core#951</title>
<g id="a_node32"><a xlink:href="https://github.com/quattor/configuration-modules-core/issues/951" xlink:title="configuration-modules-core#951 (issue)" target="_parent">
<path fill="#6cc644" stroke="black" d="M511,-1322C511,-1322 337,-1322 337,-1322 331,-1322 325,-1316 325,-1310 325,-1310 325,-1284 325,-1284 325,-1278 331,-1272 337,-1272 337,-1272 511,-1272 511,-1272 517,-1272 523,-1278 523,-1284 523,-1284 523,-1310 523,-1310 523,-1316 517,-1322 511,-1322"/>
<text text-anchor="middle" x="424" y="-1300" font-family="Sans" font-size="10.00">ncm-spma (yum): Remove support</text>
<text text-anchor="middle" x="424" y="-1289" font-family="Sans" font-size="10.00">for package groups</text>
</a>
</g>
</g>
<!-- configuration&#45;modules&#45;core#950&#45;&gt;configuration&#45;modules&#45;core#951 -->
<g id="edge28" class="edge"><title>configuration-modules-core#950-&gt;configuration-modules-core#951</title>
<path fill="none" stroke="black" stroke-dasharray="5,2" d="M211.381,-1297C244.386,-1297 281.071,-1297 314.502,-1297"/>
<polygon fill="none" stroke="black" points="314.765,-1300.5 324.765,-1297 314.765,-1293.5 314.765,-1300.5"/>
<text text-anchor="middle" x="248.107" y="-1289" font-family="Sans" font-size="10.00">requires</text>
</g>
<!-- configuration&#45;modules&#45;core#950&#45;&gt;configuration&#45;modules&#45;core#952 -->
<g id="edge29" class="edge"><title>configuration-modules-core#950-&gt;configuration-modules-core#952</title>
<path fill="none" stroke="black" stroke-dasharray="5,2" d="M211.381,-1319.17C242.602,-1325.93 277.116,-1333.41 309.053,-1340.32"/>
<polygon fill="none" stroke="black" points="308.361,-1343.75 318.876,-1342.45 309.843,-1336.91 308.361,-1343.75"/>
<text text-anchor="middle" x="245.372" y="-1322.86" font-family="Sans" font-size="10.00">requires</text>
</g>
<!-- template&#45;library&#45;grid#241 -->
<g id="node33" class="node"><title>template-library-grid#241</title>
<g id="a_node33"><a xlink:href="https://github.com/quattor/template-library-grid/pull/241" xlink:title="template-library-grid#241 (pull-request)" target="_parent">
<polygon fill="#6cc644" stroke="black" points="521,-640 327,-640 327,-590 521,-590 521,-640"/>
<text text-anchor="middle" x="424" y="-618" font-family="Sans" font-size="10.00">machines-types update based on</text>
<text text-anchor="middle" x="424" y="-607" font-family="Sans" font-size="10.00">new standard/machine-types/core</text>
</a>
</g>
</g>
<!-- template&#45;library&#45;standard#140 -->
<g id="node34" class="node"><title>template-library-standard#140</title>
<g id="a_node34"><a xlink:href="https://github.com/quattor/template-library-standard/pull/140" xlink:title="template-library-standard#140 (pull-request)" target="_parent">
<polygon fill="#6e5494" stroke="black" points="827,-623 645,-623 645,-573 827,-573 827,-623"/>
<text text-anchor="middle" x="736" y="-601" font-family="Sans" font-size="10.00">machine-types/core refactoring</text>
<text text-anchor="middle" x="736" y="-590" font-family="Sans" font-size="10.00">to make it more flexible</text>
</a>
</g>
</g>
<!-- template&#45;library&#45;grid#241&#45;&gt;template&#45;library&#45;standard#140 -->
<g id="edge30" class="edge"><title>template-library-grid#241-&gt;template-library-standard#140</title>
<path fill="none" stroke="black" stroke-dasharray="5,2" d="M521.387,-609.714C557.372,-607.741 598.301,-605.496 634.636,-603.504"/>
<polygon fill="none" stroke="black" points="634.961,-606.991 644.754,-602.949 634.578,-600.002 634.961,-606.991"/>
<text text-anchor="middle" x="562.849" y="-598.344" font-family="Sans" font-size="10.00">requires</text>
</g>
<!-- template&#45;library&#45;grid#232 -->
<g id="node35" class="node"><title>template-library-grid#232</title>
<g id="a_node35"><a xlink:href="https://github.com/quattor/template-library-grid/pull/232" xlink:title="template-library-grid#232 (pull-request)" target="_parent">
<polygon fill="#6cc644" stroke="black" points="191.5,-1087 24.5,-1087 24.5,-1037 191.5,-1037 191.5,-1087"/>
<text text-anchor="middle" x="108" y="-1065" font-family="Sans" font-size="10.00">arc-ce: Export arc-ce feature</text>
<text text-anchor="middle" x="108" y="-1054" font-family="Sans" font-size="10.00">from aquilon at RAL</text>
</a>
</g>
</g>
<!-- template&#45;library&#45;grid#221 -->
<g id="node36" class="node"><title>template-library-grid#221</title>
<g id="a_node36"><a xlink:href="https://github.com/quattor/template-library-grid/issues/221" xlink:title="template-library-grid#221 (issue)" target="_parent">
<path fill="#6cc644" stroke="black" d="M501,-1087C501,-1087 347,-1087 347,-1087 341,-1087 335,-1081 335,-1075 335,-1075 335,-1049 335,-1049 335,-1043 341,-1037 347,-1037 347,-1037 501,-1037 501,-1037 507,-1037 513,-1043 513,-1049 513,-1049 513,-1075 513,-1075 513,-1081 507,-1087 501,-1087"/>
<text text-anchor="middle" x="424" y="-1065" font-family="Sans" font-size="10.00">Support for new CE types (ARC</text>
<text text-anchor="middle" x="424" y="-1054" font-family="Sans" font-size="10.00">CE, HTCONDOR CE)</text>
</a>
</g>
</g>
<!-- template&#45;library&#45;grid#232&#45;&gt;template&#45;library&#45;grid#221 -->
<g id="edge31" class="edge"><title>template-library-grid#232-&gt;template-library-grid#221</title>
<path fill="none" stroke="black" stroke-width="2" d="M191.911,-1062C232.702,-1062 282.151,-1062 324.823,-1062"/>
<polygon fill="black" stroke="black" points="324.947,-1065.5 334.947,-1062 324.947,-1058.5 324.947,-1065.5"/>
<text text-anchor="middle" x="251.543" y="-1054" font-family="Sans" font-size="10.00">fixes</text>
</g>
<!-- template&#45;library&#45;standard#151 -->
<g id="node37" class="node"><title>template-library-standard#151</title>
<g id="a_node37"><a xlink:href="https://github.com/quattor/template-library-standard/pull/151" xlink:title="template-library-standard#151 (pull-request)" target="_parent">
<polygon fill="#6cc644" stroke="black" points="190,-1458 26,-1458 26,-1408 190,-1408 190,-1458"/>
<text text-anchor="middle" x="108" y="-1436" font-family="Sans" font-size="10.00">support for muti options</text>
<text text-anchor="middle" x="108" y="-1425" font-family="Sans" font-size="10.00">settings for logical volumes</text>
</a>
</g>
</g>
<!-- template&#45;library&#45;standard#150 -->
<g id="node38" class="node"><title>template-library-standard#150</title>
<g id="a_node38"><a xlink:href="https://github.com/quattor/template-library-standard/issues/150" xlink:title="template-library-standard#150 (issue)" target="_parent">
<path fill="#6cc644" stroke="black" d="M500.5,-1458C500.5,-1458 347.5,-1458 347.5,-1458 341.5,-1458 335.5,-1452 335.5,-1446 335.5,-1446 335.5,-1420 335.5,-1420 335.5,-1414 341.5,-1408 347.5,-1408 347.5,-1408 500.5,-1408 500.5,-1408 506.5,-1408 512.5,-1414 512.5,-1420 512.5,-1420 512.5,-1446 512.5,-1446 512.5,-1452 506.5,-1458 500.5,-1458"/>
<text text-anchor="middle" x="424" y="-1436" font-family="Sans" font-size="10.00">way to set lvm raid type when</text>
<text text-anchor="middle" x="424" y="-1425" font-family="Sans" font-size="10.00">vol type = lvm</text>
</a>
</g>
</g>
<!-- template&#45;library&#45;standard#151&#45;&gt;template&#45;library&#45;standard#150 -->
<g id="edge32" class="edge"><title>template-library-standard#151-&gt;template-library-standard#150</title>
<path fill="none" stroke="black" stroke-width="2" d="M190.271,-1433C231.574,-1433 282.071,-1433 325.459,-1433"/>
<polygon fill="black" stroke="black" points="325.461,-1436.5 335.461,-1433 325.461,-1429.5 325.461,-1436.5"/>
<text text-anchor="middle" x="251.071" y="-1425" font-family="Sans" font-size="10.00">fixes</text>
</g>
</g>
</svg>
