<?xml version="1.0" encoding="UTF-8" standalone="no"?>
<!-- Generated by graphviz version 2.26.0 (20091210.2329)
 -->
<!-- Title: Dependencies Pages: 1 -->
<svg xmlns="http://www.w3.org/2000/svg" xmlns:xlink="http://www.w3.org/1999/xlink" width="1118pt" height="2098pt" viewBox="0.00 0.00 1118.00 2098.00">
<g id="graph1" class="graph" transform="scale(1 1) rotate(0) translate(4 2094)">
<title>Dependencies</title>
<polygon fill="white" stroke="white" points="-4,5 -4,-2094 1115,-2094 1115,5 -4,5"/>
<g id="graph2" class="cluster"><title>cluster_17.2</title>
<polygon fill="none" stroke="black" points="86,-1966 86,-2082 492,-2082 492,-1966 86,-1966"/>
<text text-anchor="middle" x="289" y="-2067.2" font-family="Sans" font-size="12.00">17.2</text>
</g>
<g id="graph3" class="cluster"><title>cluster_16.12</title>
<polygon fill="none" stroke="black" points="8,-166 8,-1958 1102,-1958 1102,-166 8,-166"/>
<text text-anchor="middle" x="555" y="-1943.2" font-family="Sans" font-size="12.00">16.12</text>
</g>
<!-- aii#226 -->
<g id="node1" class="node"><title>aii#226</title>
<a xlink:href="https://github.com/quattor/aii/pull/226" xlink:title="aii-opennebula: Include ONE labels support" target="_parent">
<polygon fill="#6cc644" stroke="black" points="173,-1821 95,-1821 95,-1767 173,-1767 173,-1821"/>
<text text-anchor="middle" x="134" y="-1798" font-family="Sans" font-size="10.00">pull-request</text>
<text text-anchor="middle" x="134" y="-1785" font-family="Sans" font-size="10.00">aii#226</text>
</a>
</g>
<!-- aii#223 -->
<g id="node3" class="node"><title>aii#223</title>
<a xlink:href="https://github.com/quattor/aii/issues/223" xlink:title="aii opennebula handle missing template" target="_parent">
<ellipse fill="#6cc644" stroke="black" cx="442" cy="-1700" rx="41.2167" ry="38.1838"/>
<text text-anchor="middle" x="442" y="-1704" font-family="Sans" font-size="10.00">issue</text>
<text text-anchor="middle" x="442" y="-1691" font-family="Sans" font-size="10.00">aii#223</text>
</a>
</g>
<!-- aii#226&#45;&gt;aii#223 -->
<g id="edge2" class="edge"><title>aii#226-&gt;aii#223</title>
<path fill="none" stroke="black" d="M173.635,-1781.9C229.656,-1764.81 331.935,-1733.59 392.759,-1715.03"/>
<polygon fill="black" stroke="black" points="393.974,-1718.32 402.517,-1712.05 391.931,-1711.62 393.974,-1718.32"/>
<text text-anchor="middle" x="288" y="-1754" font-family="Sans" font-size="10.00">fix</text>
</g>
<!-- aii#224 -->
<g id="node5" class="node"><title>aii#224</title>
<a xlink:href="https://github.com/quattor/aii/issues/224" xlink:title="aii-opennebula: Include labels feature" target="_parent">
<ellipse fill="#6cc644" stroke="black" cx="442" cy="-1794" rx="41.2167" ry="38.1838"/>
<text text-anchor="middle" x="442" y="-1798" font-family="Sans" font-size="10.00">issue</text>
<text text-anchor="middle" x="442" y="-1785" font-family="Sans" font-size="10.00">aii#224</text>
</a>
</g>
<!-- aii#226&#45;&gt;aii#224 -->
<g id="edge4" class="edge"><title>aii#226-&gt;aii#224</title>
<path fill="none" stroke="black" d="M173.635,-1794C228.773,-1794 328.72,-1794 389.851,-1794"/>
<polygon fill="black" stroke="black" points="390.055,-1797.5 400.055,-1794 390.055,-1790.5 390.055,-1797.5"/>
<text text-anchor="middle" x="288" y="-1798" font-family="Sans" font-size="10.00">fix</text>
</g>
<!-- aii#228 -->
<g id="node7" class="node"><title>aii#228</title>
<a xlink:href="https://github.com/quattor/aii/issues/228" xlink:title="aii-opennebula: Include random passwords for SPICE/VNC connections" target="_parent">
<ellipse fill="#6cc644" stroke="black" cx="442" cy="-1888" rx="41.2167" ry="38.1838"/>
<text text-anchor="middle" x="442" y="-1892" font-family="Sans" font-size="10.00">issue</text>
<text text-anchor="middle" x="442" y="-1879" font-family="Sans" font-size="10.00">aii#228</text>
</a>
</g>
<!-- aii#226&#45;&gt;aii#228 -->
<g id="edge6" class="edge"><title>aii#226-&gt;aii#228</title>
<path fill="none" stroke="black" d="M173.635,-1806.1C229.656,-1823.19 331.935,-1854.41 392.759,-1872.97"/>
<polygon fill="black" stroke="black" points="391.931,-1876.38 402.517,-1875.95 393.974,-1869.68 391.931,-1876.38"/>
<text text-anchor="middle" x="288" y="-1848" font-family="Sans" font-size="10.00">fix</text>
</g>
<!-- aii#225 -->
<g id="node8" class="node"><title>aii#225</title>
<a xlink:href="https://github.com/quattor/aii/pull/225" xlink:title="[WIP] Add UEFI support through Grub-based PXE loader" target="_parent">
<polygon fill="#6cc644" stroke="black" points="173,-2039 95,-2039 95,-1985 173,-1985 173,-2039"/>
<text text-anchor="middle" x="134" y="-2016" font-family="Sans" font-size="10.00">pull-request</text>
<text text-anchor="middle" x="134" y="-2003" font-family="Sans" font-size="10.00">aii#225</text>
</a>
</g>
<!-- aii#216 -->
<g id="node10" class="node"><title>aii#216</title>
<a xlink:href="https://github.com/quattor/aii/issues/216" xlink:title="aii-pxelinux: add support for Grub-based UEFI PXE boot loader" target="_parent">
<ellipse fill="#6cc644" stroke="black" cx="442" cy="-2012" rx="41.2167" ry="38.1838"/>
<text text-anchor="middle" x="442" y="-2016" font-family="Sans" font-size="10.00">issue</text>
<text text-anchor="middle" x="442" y="-2003" font-family="Sans" font-size="10.00">aii#216</text>
</a>
</g>
<!-- aii#225&#45;&gt;aii#216 -->
<g id="edge8" class="edge"><title>aii#225-&gt;aii#216</title>
<path fill="none" stroke="black" d="M173.635,-2012C228.773,-2012 328.72,-2012 389.851,-2012"/>
<polygon fill="black" stroke="black" points="390.055,-2015.5 400.055,-2012 390.055,-2008.5 390.055,-2015.5"/>
<text text-anchor="middle" x="288" y="-2016" font-family="Sans" font-size="10.00">fixes</text>
</g>
<!-- aii#210 -->
<g id="node11" class="node"><title>aii#210</title>
<a xlink:href="https://github.com/quattor/aii/pull/210" xlink:title="Shellfe: support active config for plugins" target="_parent">
<polygon fill="#6cc644" stroke="black" points="173,-1561 95,-1561 95,-1507 173,-1507 173,-1561"/>
<text text-anchor="middle" x="134" y="-1538" font-family="Sans" font-size="10.00">pull-request</text>
<text text-anchor="middle" x="134" y="-1525" font-family="Sans" font-size="10.00">aii#210</text>
</a>
</g>
<!-- aii#209 -->
<g id="node13" class="node"><title>aii#209</title>
<a xlink:href="https://github.com/quattor/aii/issues/209" xlink:title="support ACTIVE_CONFIG" target="_parent">
<ellipse fill="#6cc644" stroke="black" cx="442" cy="-1534" rx="41.2167" ry="38.1838"/>
<text text-anchor="middle" x="442" y="-1538" font-family="Sans" font-size="10.00">issue</text>
<text text-anchor="middle" x="442" y="-1525" font-family="Sans" font-size="10.00">aii#209</text>
</a>
</g>
<!-- aii#210&#45;&gt;aii#209 -->
<g id="edge10" class="edge"><title>aii#210-&gt;aii#209</title>
<path fill="none" stroke="black" d="M173.635,-1534C228.773,-1534 328.72,-1534 389.851,-1534"/>
<polygon fill="black" stroke="black" points="390.055,-1537.5 400.055,-1534 390.055,-1530.5 390.055,-1537.5"/>
<text text-anchor="middle" x="288" y="-1538" font-family="Sans" font-size="10.00">fixes</text>
</g>
<!-- ncm&#45;ncd#74 -->
<g id="node15" class="node"><title>ncm-ncd#74</title>
<a xlink:href="https://github.com/quattor/ncm-ncd/pull/74" xlink:title="Set the current active config as an attribute to the component" target="_parent">
<polygon fill="#6cc644" stroke="black" points="483,-1644 401,-1644 401,-1590 483,-1590 483,-1644"/>
<text text-anchor="middle" x="442" y="-1621" font-family="Sans" font-size="10.00">pull-request</text>
<text text-anchor="middle" x="442" y="-1608" font-family="Sans" font-size="10.00">ncm-ncd#74</text>
</a>
</g>
<!-- aii#210&#45;&gt;ncm&#45;ncd#74 -->
<g id="edge12" class="edge"><title>aii#210-&gt;ncm-ncd#74</title>
<path fill="none" stroke="black" d="M173.635,-1544.68C229.041,-1559.61 329.692,-1586.74 390.739,-1603.19"/>
<polygon fill="none" stroke="black" points="389.985,-1606.61 400.552,-1605.83 391.807,-1599.85 389.985,-1606.61"/>
<text text-anchor="middle" x="288" y="-1582" font-family="Sans" font-size="10.00">requires</text>
</g>
<!-- aii#203 -->
<g id="node17" class="node"><title>aii#203</title>
<polygon fill="lightgrey" stroke="black" points="471,-156.5 413,-156.5 413,-115.5 471,-115.5 471,-156.5"/>
<text text-anchor="middle" x="442" y="-133.5" font-family="Sans" font-size="10.00">aii#203</text>
</g>
<!-- aii#210&#45;&gt;aii#203 -->
<g id="edge14" class="edge"><title>aii#210-&gt;aii#203</title>
<path fill="none" stroke="black" d="M173.538,-1507.1C201.184,-1485.76 235.926,-1453.22 252,-1415 303.313,-1293 222.656,-347.591 270,-224 283.072,-189.876 292.575,-180.648 324,-162 347.729,-147.919 378.226,-141.444 402.271,-138.476"/>
<polygon fill="none" stroke="black" points="402.912,-141.927 412.479,-137.376 402.162,-134.967 402.912,-141.927"/>
<text text-anchor="middle" x="288" y="-228" font-family="Sans" font-size="10.00">requires</text>
</g>
<!-- CAF#202 -->
<g id="node18" class="node"><title>CAF#202</title>
<a xlink:href="https://github.com/quattor/CAF/pull/202" xlink:title="FileWriter: use atomic write" target="_parent">
<polygon fill="#6cc644" stroke="black" points="173,-1406 95,-1406 95,-1352 173,-1352 173,-1406"/>
<text text-anchor="middle" x="134" y="-1383" font-family="Sans" font-size="10.00">pull-request</text>
<text text-anchor="middle" x="134" y="-1370" font-family="Sans" font-size="10.00">CAF#202</text>
</a>
</g>
<!-- CAF#148 -->
<g id="node20" class="node"><title>CAF#148</title>
<a xlink:href="https://github.com/quattor/CAF/issues/148" xlink:title="CAF::FileWriter updates files in-place" target="_parent">
<ellipse fill="#6cc644" stroke="black" cx="442" cy="-1346" rx="48.9975" ry="38.1838"/>
<text text-anchor="middle" x="442" y="-1350" font-family="Sans" font-size="10.00">issue</text>
<text text-anchor="middle" x="442" y="-1337" font-family="Sans" font-size="10.00">CAF#148</text>
</a>
</g>
<!-- CAF#202&#45;&gt;CAF#148 -->
<g id="edge16" class="edge"><title>CAF#202-&gt;CAF#148</title>
<path fill="none" stroke="black" d="M173.635,-1374.75C226.732,-1369.06 321.383,-1358.92 382.908,-1352.33"/>
<polygon fill="black" stroke="black" points="383.292,-1355.81 392.863,-1351.26 382.547,-1348.85 383.292,-1355.81"/>
<text text-anchor="middle" x="288" y="-1368" font-family="Sans" font-size="10.00">fixes</text>
</g>
<!-- CAF#189 -->
<g id="node22" class="node"><title>CAF#189</title>
<a xlink:href="https://github.com/quattor/CAF/issues/189" xlink:title="FileWriter: add diff to history" target="_parent">
<ellipse fill="#6cc644" stroke="black" cx="442" cy="-1440" rx="48.9975" ry="38.1838"/>
<text text-anchor="middle" x="442" y="-1444" font-family="Sans" font-size="10.00">issue</text>
<text text-anchor="middle" x="442" y="-1431" font-family="Sans" font-size="10.00">CAF#189</text>
</a>
</g>
<!-- CAF#202&#45;&gt;CAF#189 -->
<g id="edge18" class="edge"><title>CAF#202-&gt;CAF#189</title>
<path fill="none" stroke="black" d="M173.635,-1386.85C227.04,-1397.43 322.482,-1416.33 383.975,-1428.51"/>
<polygon fill="black" stroke="black" points="383.427,-1431.97 393.916,-1430.48 384.787,-1425.1 383.427,-1431.97"/>
<text text-anchor="middle" x="288" y="-1416" font-family="Sans" font-size="10.00">fixes</text>
</g>
<!-- CAF#199 -->
<g id="node23" class="node"><title>CAF#199</title>
<a xlink:href="https://github.com/quattor/CAF/pull/199" xlink:title="Remove add_files to track files" target="_parent">
<polygon fill="#6e5494" stroke="black" points="173,-1226 95,-1226 95,-1172 173,-1172 173,-1226"/>
<text text-anchor="middle" x="134" y="-1203" font-family="Sans" font-size="10.00">pull-request</text>
<text text-anchor="middle" x="134" y="-1190" font-family="Sans" font-size="10.00">CAF#199</text>
</a>
</g>
<!-- ncm&#45;ncd#96 -->
<g id="node25" class="node"><title>ncm-ncd#96</title>
<a xlink:href="https://github.com/quattor/ncm-ncd/pull/96" xlink:title="Remove support for add_files / get_files and FILES attribute" target="_parent">
<polygon fill="#6e5494" stroke="black" points="483,-1196 401,-1196 401,-1142 483,-1142 483,-1196"/>
<text text-anchor="middle" x="442" y="-1173" font-family="Sans" font-size="10.00">pull-request</text>
<text text-anchor="middle" x="442" y="-1160" font-family="Sans" font-size="10.00">ncm-ncd#96</text>
</a>
</g>
<!-- CAF#199&#45;&gt;ncm&#45;ncd#96 -->
<g id="edge20" class="edge"><title>CAF#199-&gt;ncm-ncd#96</title>
<path fill="none" stroke="black" d="M173.635,-1195.14C228.926,-1189.75 329.277,-1179.98 390.361,-1174.03"/>
<polygon fill="none" stroke="black" points="390.938,-1177.49 400.552,-1173.04 390.259,-1170.52 390.938,-1177.49"/>
<text text-anchor="middle" x="288" y="-1189" font-family="Sans" font-size="10.00">requires</text>
</g>
<!-- CAF#153 -->
<g id="node27" class="node"><title>CAF#153</title>
<a xlink:href="https://github.com/quattor/CAF/issues/153" xlink:title="remove add_files" target="_parent">
<ellipse fill="#bd2c00" stroke="black" cx="442" cy="-1252" rx="48.9975" ry="38.1838"/>
<text text-anchor="middle" x="442" y="-1256" font-family="Sans" font-size="10.00">issue</text>
<text text-anchor="middle" x="442" y="-1243" font-family="Sans" font-size="10.00">CAF#153</text>
</a>
</g>
<!-- CAF#199&#45;&gt;CAF#153 -->
<g id="edge22" class="edge"><title>CAF#199-&gt;CAF#153</title>
<path fill="none" stroke="black" d="M173.635,-1205.82C226.963,-1215 322.207,-1231.39 383.709,-1241.97"/>
<polygon fill="black" stroke="black" points="383.205,-1245.43 393.653,-1243.68 384.392,-1238.54 383.205,-1245.43"/>
<text text-anchor="middle" x="288" y="-1232" font-family="Sans" font-size="10.00">fixes</text>
</g>
<!-- CAF#98 -->
<g id="node28" class="node"><title>CAF#98</title>
<a xlink:href="https://github.com/quattor/CAF/pull/98" xlink:title="FileWriter: disable chatty LC::Check by default unless NoAction" target="_parent">
<polygon fill="#6cc644" stroke="black" points="173,-228 95,-228 95,-174 173,-174 173,-228"/>
<text text-anchor="middle" x="134" y="-205" font-family="Sans" font-size="10.00">pull-request</text>
<text text-anchor="middle" x="134" y="-192" font-family="Sans" font-size="10.00">CAF#98</text>
</a>
</g>
<!-- ncm&#45;ncd#88 -->
<g id="node30" class="node"><title>ncm-ncd#88</title>
<polygon fill="lightgrey" stroke="black" points="483,-98.5 401,-98.5 401,-57.5 483,-57.5 483,-98.5"/>
<text text-anchor="middle" x="442" y="-75.5" font-family="Sans" font-size="10.00">ncm-ncd#88</text>
</g>
<!-- CAF#98&#45;&gt;ncm&#45;ncd#88 -->
<g id="edge24" class="edge"><title>CAF#98-&gt;ncm-ncd#88</title>
<path fill="none" stroke="black" d="M161.884,-173.839C187.696,-150.431 228.281,-117.831 270,-101 308.652,-85.406 355.759,-79.9493 390.895,-78.2274"/>
<polygon fill="none" stroke="black" points="391.08,-81.7229 400.93,-77.8205 390.797,-74.7286 391.08,-81.7229"/>
<text text-anchor="middle" x="288" y="-105" font-family="Sans" font-size="10.00">requires</text>
</g>
<!-- ncm&#45;cdispd#42 -->
<g id="node32" class="node"><title>ncm-cdispd#42</title>
<polygon fill="lightgrey" stroke="black" points="489,-40.5 395,-40.5 395,0.5 489,0.5 489,-40.5"/>
<text text-anchor="middle" x="442" y="-17.5" font-family="Sans" font-size="10.00">ncm-cdispd#42</text>
</g>
<!-- CAF#98&#45;&gt;ncm&#45;cdispd#42 -->
<g id="edge26" class="edge"><title>CAF#98-&gt;ncm-cdispd#42</title>
<path fill="none" stroke="black" d="M158.22,-173.768C183.919,-146.05 226.717,-103.13 270,-74 291.941,-59.2334 299.043,-57.7521 324,-49 343.325,-42.2229 364.963,-36.4154 384.379,-31.8168"/>
<polygon fill="none" stroke="black" points="385.351,-35.1846 394.306,-29.5235 383.775,-28.3642 385.351,-35.1846"/>
<text text-anchor="middle" x="288" y="-78" font-family="Sans" font-size="10.00">requires</text>
</g>
<!-- CCM#152 -->
<g id="node33" class="node"><title>CCM#152</title>
<a xlink:href="https://github.com/quattor/CCM/pull/152" xlink:title="Remove unused syncfile" target="_parent">
<polygon fill="#6cc644" stroke="black" points="173,-1071 95,-1071 95,-1017 173,-1017 173,-1071"/>
<text text-anchor="middle" x="134" y="-1048" font-family="Sans" font-size="10.00">pull-request</text>
<text text-anchor="middle" x="134" y="-1035" font-family="Sans" font-size="10.00">CCM#152</text>
</a>
</g>
<!-- CCM#143 -->
<g id="node35" class="node"><title>CCM#143</title>
<a xlink:href="https://github.com/quattor/CCM/issues/143" xlink:title="Remove SyncFile" target="_parent">
<ellipse fill="#6cc644" stroke="black" cx="442" cy="-1014" rx="51.1176" ry="38.1838"/>
<text text-anchor="middle" x="442" y="-1018" font-family="Sans" font-size="10.00">issue</text>
<text text-anchor="middle" x="442" y="-1005" font-family="Sans" font-size="10.00">CCM#143</text>
</a>
</g>
<!-- CCM#152&#45;&gt;CCM#143 -->
<g id="edge28" class="edge"><title>CCM#152-&gt;CCM#143</title>
<path fill="none" stroke="black" d="M173.635,-1040.14C226.117,-1035.03 319.194,-1025.96 380.755,-1019.97"/>
<polygon fill="black" stroke="black" points="381.117,-1023.45 390.731,-1018.99 380.439,-1016.48 381.117,-1023.45"/>
<text text-anchor="middle" x="288" y="-1034" font-family="Sans" font-size="10.00">fixes</text>
</g>
<!-- CCM#150 -->
<g id="node37" class="node"><title>CCM#150</title>
<a xlink:href="https://github.com/quattor/CCM/pull/150" xlink:title="Remove Property class" target="_parent">
<polygon fill="#6cc644" stroke="black" points="481,-1124 403,-1124 403,-1070 481,-1070 481,-1124"/>
<text text-anchor="middle" x="442" y="-1101" font-family="Sans" font-size="10.00">pull-request</text>
<text text-anchor="middle" x="442" y="-1088" font-family="Sans" font-size="10.00">CCM#150</text>
</a>
</g>
<!-- CCM#152&#45;&gt;CCM#150 -->
<g id="edge30" class="edge"><title>CCM#152-&gt;CCM#150</title>
<path fill="none" stroke="black" d="M173.635,-1050.82C229.387,-1060.41 330.953,-1077.89 391.88,-1088.38"/>
<polygon fill="none" stroke="black" points="391.58,-1091.88 402.029,-1090.12 392.768,-1084.98 391.58,-1091.88"/>
<text text-anchor="middle" x="288" y="-1077" font-family="Sans" font-size="10.00">requires</text>
</g>
<!-- CCM#107 -->
<g id="node42" class="node"><title>CCM#107</title>
<a xlink:href="https://github.com/quattor/CCM/issues/107" xlink:title="remove CCM::Property class" target="_parent">
<ellipse fill="#6cc644" stroke="black" cx="716" cy="-1097" rx="51.1176" ry="38.1838"/>
<text text-anchor="middle" x="716" y="-1101" font-family="Sans" font-size="10.00">issue</text>
<text text-anchor="middle" x="716" y="-1088" font-family="Sans" font-size="10.00">CCM#107</text>
</a>
</g>
<!-- CCM#150&#45;&gt;CCM#107 -->
<g id="edge34" class="edge"><title>CCM#150-&gt;CCM#107</title>
<path fill="none" stroke="black" d="M481.549,-1097C526.704,-1097 601.144,-1097 654.023,-1097"/>
<polygon fill="black" stroke="black" points="654.296,-1100.5 664.296,-1097 654.296,-1093.5 654.296,-1100.5"/>
<text text-anchor="middle" x="596" y="-1101" font-family="Sans" font-size="10.00">fixes</text>
</g>
<!-- configuration&#45;modules&#45;core#972 -->
<g id="node44" class="node"><title>configuration-modules-core#972</title>
<a xlink:href="https://github.com/quattor/configuration-modules-core/pull/972" xlink:title="Round of cleanup to prepare for removal of CCM::Property module" target="_parent">
<polygon fill="#6cc644" stroke="black" points="799,-1207 633,-1207 633,-1153 799,-1153 799,-1207"/>
<text text-anchor="middle" x="716" y="-1184" font-family="Sans" font-size="10.00">pull-request</text>
<text text-anchor="middle" x="716" y="-1171" font-family="Sans" font-size="10.00">configuration-modules-core#972</text>
</a>
</g>
<!-- CCM#150&#45;&gt;configuration&#45;modules&#45;core#972 -->
<g id="edge36" class="edge"><title>CCM#150-&gt;configuration-modules-core#972</title>
<path fill="none" stroke="black" d="M481.549,-1108.98C518.291,-1120.11 574.422,-1137.11 622.55,-1151.69"/>
<polygon fill="none" stroke="black" points="621.789,-1155.12 632.374,-1154.67 623.818,-1148.42 621.789,-1155.12"/>
<text text-anchor="middle" x="596" y="-1153" font-family="Sans" font-size="10.00">requires</text>
</g>
<!-- aii#232 -->
<g id="node46" class="node"><title>aii#232</title>
<a xlink:href="https://github.com/quattor/aii/pull/232" xlink:title="Round of cleanup to prepare for removal of CCM::Property module" target="_parent">
<polygon fill="#6e5494" stroke="black" points="755,-1041 677,-1041 677,-987 755,-987 755,-1041"/>
<text text-anchor="middle" x="716" y="-1018" font-family="Sans" font-size="10.00">pull-request</text>
<text text-anchor="middle" x="716" y="-1005" font-family="Sans" font-size="10.00">aii#232</text>
</a>
</g>
<!-- CCM#150&#45;&gt;aii#232 -->
<g id="edge38" class="edge"><title>CCM#150-&gt;aii#232</title>
<path fill="none" stroke="black" d="M481.549,-1085.02C530.418,-1070.22 613.587,-1045.02 666.605,-1028.96"/>
<polygon fill="none" stroke="black" points="667.907,-1032.23 676.463,-1025.98 665.877,-1025.53 667.907,-1032.23"/>
<text text-anchor="middle" x="596" y="-1060" font-family="Sans" font-size="10.00">requires</text>
</g>
<!-- CCM#151 -->
<g id="node38" class="node"><title>CCM#151</title>
<a xlink:href="https://github.com/quattor/CCM/pull/151" xlink:title="Path: add /software/components/download/files/ to safe unescape paths" target="_parent">
<polygon fill="#6cc644" stroke="black" points="173,-947 95,-947 95,-893 173,-893 173,-947"/>
<text text-anchor="middle" x="134" y="-924" font-family="Sans" font-size="10.00">pull-request</text>
<text text-anchor="middle" x="134" y="-911" font-family="Sans" font-size="10.00">CCM#151</text>
</a>
</g>
<!-- CCM#149 -->
<g id="node40" class="node"><title>CCM#149</title>
<a xlink:href="https://github.com/quattor/CCM/issues/149" xlink:title="Add ncm-download files to safe unescape paths" target="_parent">
<ellipse fill="#6cc644" stroke="black" cx="442" cy="-920" rx="51.1176" ry="38.1838"/>
<text text-anchor="middle" x="442" y="-924" font-family="Sans" font-size="10.00">issue</text>
<text text-anchor="middle" x="442" y="-911" font-family="Sans" font-size="10.00">CCM#149</text>
</a>
</g>
<!-- CCM#151&#45;&gt;CCM#149 -->
<g id="edge32" class="edge"><title>CCM#151-&gt;CCM#149</title>
<path fill="none" stroke="black" d="M173.635,-920C225.932,-920 318.538,-920 380.103,-920"/>
<polygon fill="black" stroke="black" points="380.462,-923.5 390.462,-920 380.462,-916.5 380.462,-923.5"/>
<text text-anchor="middle" x="288" y="-924" font-family="Sans" font-size="10.00">fixes</text>
</g>
<!-- configuration&#45;modules&#45;core#973 -->
<g id="node51" class="node"><title>configuration-modules-core#973</title>
<a xlink:href="https://github.com/quattor/configuration-modules-core/issues/973" xlink:title="ncm-interactivelimits: bugs in comment and missing trailing newline" target="_parent">
<ellipse fill="#6cc644" stroke="black" cx="976" cy="-1180" rx="118.087" ry="38.1838"/>
<text text-anchor="middle" x="976" y="-1184" font-family="Sans" font-size="10.00">issue</text>
<text text-anchor="middle" x="976" y="-1171" font-family="Sans" font-size="10.00">configuration-modules-core#973</text>
</a>
</g>
<!-- configuration&#45;modules&#45;core#972&#45;&gt;configuration&#45;modules&#45;core#973 -->
<g id="edge42" class="edge"><title>configuration-modules-core#972-&gt;configuration-modules-core#973</title>
<path fill="none" stroke="black" d="M799.697,-1180C815.064,-1180 831.423,-1180 847.747,-1180"/>
<polygon fill="black" stroke="black" points="847.896,-1183.5 857.896,-1180 847.896,-1176.5 847.896,-1183.5"/>
<text text-anchor="middle" x="829" y="-1184" font-family="Sans" font-size="10.00">fixes</text>
</g>
<!-- cdp&#45;listend#16 -->
<g id="node47" class="node"><title>cdp-listend#16</title>
<a xlink:href="https://github.com/quattor/cdp-listend/pull/16" xlink:title="Add hostname configuration option to choose the hostname/IP to listen on" target="_parent">
<polygon fill="#6cc644" stroke="black" points="488,-322 396,-322 396,-268 488,-268 488,-322"/>
<text text-anchor="middle" x="442" y="-299" font-family="Sans" font-size="10.00">pull-request</text>
<text text-anchor="middle" x="442" y="-286" font-family="Sans" font-size="10.00">cdp-listend#16</text>
</a>
</g>
<!-- cdp&#45;listend#15 -->
<g id="node49" class="node"><title>cdp-listend#15</title>
<a xlink:href="https://github.com/quattor/cdp-listend/issues/15" xlink:title="Issue with binding on a specific IP" target="_parent">
<ellipse fill="#6cc644" stroke="black" cx="716" cy="-295" rx="65.0538" ry="38.1838"/>
<text text-anchor="middle" x="716" y="-299" font-family="Sans" font-size="10.00">issue</text>
<text text-anchor="middle" x="716" y="-286" font-family="Sans" font-size="10.00">cdp-listend#15</text>
</a>
</g>
<!-- cdp&#45;listend#16&#45;&gt;cdp&#45;listend#15 -->
<g id="edge40" class="edge"><title>cdp-listend#16-&gt;cdp-listend#15</title>
<path fill="none" stroke="black" d="M488.171,-295C529.819,-295 591.85,-295 640.674,-295"/>
<polygon fill="black" stroke="black" points="640.88,-298.5 650.88,-295 640.88,-291.5 640.88,-298.5"/>
<text text-anchor="middle" x="596" y="-299" font-family="Sans" font-size="10.00">fixes</text>
</g>
<!-- configuration&#45;modules&#45;core#967 -->
<g id="node52" class="node"><title>configuration-modules-core#967</title>
<a xlink:href="https://github.com/quattor/configuration-modules-core/pull/967" xlink:title="ncm-opennebula: Include OpenNebula labels support" target="_parent">
<polygon fill="#6cc644" stroke="black" points="217,-805 51,-805 51,-751 217,-751 217,-805"/>
<text text-anchor="middle" x="134" y="-782" font-family="Sans" font-size="10.00">pull-request</text>
<text text-anchor="middle" x="134" y="-769" font-family="Sans" font-size="10.00">configuration-modules-core#967</text>
</a>
</g>
<!-- configuration&#45;modules&#45;core#959 -->
<g id="node54" class="node"><title>configuration-modules-core#959</title>
<a xlink:href="https://github.com/quattor/configuration-modules-core/issues/959" xlink:title="ncm-opennebula: Include Labels support" target="_parent">
<ellipse fill="#6cc644" stroke="black" cx="442" cy="-732" rx="118.087" ry="38.1838"/>
<text text-anchor="middle" x="442" y="-736" font-family="Sans" font-size="10.00">issue</text>
<text text-anchor="middle" x="442" y="-723" font-family="Sans" font-size="10.00">configuration-modules-core#959</text>
</a>
</g>
<!-- configuration&#45;modules&#45;core#967&#45;&gt;configuration&#45;modules&#45;core#959 -->
<g id="edge44" class="edge"><title>configuration-modules-core#967-&gt;configuration-modules-core#959</title>
<path fill="none" stroke="black" d="M217.756,-765.491C250.728,-760.567 289.168,-754.826 324.813,-749.502"/>
<polygon fill="black" stroke="black" points="325.412,-752.951 334.785,-748.013 324.378,-746.028 325.412,-752.951"/>
<text text-anchor="middle" x="288" y="-761" font-family="Sans" font-size="10.00">fix</text>
</g>
<!-- configuration&#45;modules&#45;core#966 -->
<g id="node56" class="node"><title>configuration-modules-core#966</title>
<a xlink:href="https://github.com/quattor/configuration-modules-core/issues/966" xlink:title="ncm-opennebula: src/test/perl/host.t fails with Net::OpenNebula 0.309.0" target="_parent">
<ellipse fill="#6cc644" stroke="black" cx="442" cy="-826" rx="118.087" ry="38.1838"/>
<text text-anchor="middle" x="442" y="-830" font-family="Sans" font-size="10.00">issue</text>
<text text-anchor="middle" x="442" y="-817" font-family="Sans" font-size="10.00">configuration-modules-core#966</text>
</a>
</g>
<!-- configuration&#45;modules&#45;core#967&#45;&gt;configuration&#45;modules&#45;core#966 -->
<g id="edge46" class="edge"><title>configuration-modules-core#967-&gt;configuration-modules-core#966</title>
<path fill="none" stroke="black" d="M217.756,-791.053C250.972,-796.229 289.737,-802.271 325.604,-807.86"/>
<polygon fill="black" stroke="black" points="325.217,-811.342 335.637,-809.424 326.295,-804.426 325.217,-811.342"/>
<text text-anchor="middle" x="288" y="-808" font-family="Sans" font-size="10.00">fix</text>
</g>
<!-- configuration&#45;modules&#45;core#957 -->
<g id="node57" class="node"><title>configuration-modules-core#957</title>
<a xlink:href="https://github.com/quattor/configuration-modules-core/pull/957" xlink:title="ncm-gpfs: allow to run mmsdrfrestore after each configfetch" target="_parent">
<polygon fill="#6cc644" stroke="black" points="217,-676 51,-676 51,-622 217,-622 217,-676"/>
<text text-anchor="middle" x="134" y="-653" font-family="Sans" font-size="10.00">pull-request</text>
<text text-anchor="middle" x="134" y="-640" font-family="Sans" font-size="10.00">configuration-modules-core#957</text>
</a>
</g>
<!-- configuration&#45;modules&#45;core#911 -->
<g id="node59" class="node"><title>configuration-modules-core#911</title>
<a xlink:href="https://github.com/quattor/configuration-modules-core/pull/911" xlink:title="ncm-gpfs: add ccr support" target="_parent">
<polygon fill="#6cc644" stroke="black" points="525,-676 359,-676 359,-622 525,-622 525,-676"/>
<text text-anchor="middle" x="442" y="-653" font-family="Sans" font-size="10.00">pull-request</text>
<text text-anchor="middle" x="442" y="-640" font-family="Sans" font-size="10.00">configuration-modules-core#911</text>
</a>
</g>
<!-- configuration&#45;modules&#45;core#957&#45;&gt;configuration&#45;modules&#45;core#911 -->
<g id="edge48" class="edge"><title>configuration-modules-core#957-&gt;configuration-modules-core#911</title>
<path fill="none" stroke="black" d="M217.756,-649C258.074,-649 306.568,-649 348.13,-649"/>
<polygon fill="none" stroke="black" points="348.261,-652.5 358.261,-649 348.261,-645.5 348.261,-652.5"/>
<text text-anchor="middle" x="288" y="-653" font-family="Sans" font-size="10.00">requires</text>
</g>
<!-- configuration&#45;modules&#45;core#950 -->
<g id="node60" class="node"><title>configuration-modules-core#950</title>
<a xlink:href="https://github.com/quattor/configuration-modules-core/issues/950" xlink:title="ncm-spma: Remove support for package groups from yum backends" target="_parent">
<ellipse fill="#6cc644" stroke="black" cx="134" cy="-518" rx="118.087" ry="38.1838"/>
<text text-anchor="middle" x="134" y="-522" font-family="Sans" font-size="10.00">issue</text>
<text text-anchor="middle" x="134" y="-509" font-family="Sans" font-size="10.00">configuration-modules-core#950</text>
</a>
</g>
<!-- configuration&#45;modules&#45;core#951 -->
<g id="node62" class="node"><title>configuration-modules-core#951</title>
<a xlink:href="https://github.com/quattor/configuration-modules-core/issues/951" xlink:title="ncm-spma (yum): Remove support for package groups" target="_parent">
<ellipse fill="#6cc644" stroke="black" cx="442" cy="-472" rx="118.087" ry="38.1838"/>
<text text-anchor="middle" x="442" y="-476" font-family="Sans" font-size="10.00">issue</text>
<text text-anchor="middle" x="442" y="-463" font-family="Sans" font-size="10.00">configuration-modules-core#951</text>
</a>
</g>
<!-- configuration&#45;modules&#45;core#950&#45;&gt;configuration&#45;modules&#45;core#951 -->
<g id="edge50" class="edge"><title>configuration-modules-core#950-&gt;configuration-modules-core#951</title>
<path fill="none" stroke="black" d="M241.291,-501.976C268.273,-497.946 297.367,-493.601 324.806,-489.503"/>
<polygon fill="none" stroke="black" points="325.459,-492.944 334.833,-488.006 324.425,-486.021 325.459,-492.944"/>
<text text-anchor="middle" x="288" y="-501" font-family="Sans" font-size="10.00">requires</text>
</g>
<!-- configuration&#45;modules&#45;core#952 -->
<g id="node64" class="node"><title>configuration-modules-core#952</title>
<a xlink:href="https://github.com/quattor/configuration-modules-core/issues/952" xlink:title="ncm-spma (yumng): Remove support for package groups" target="_parent">
<ellipse fill="#6cc644" stroke="black" cx="442" cy="-566" rx="118.087" ry="38.1838"/>
<text text-anchor="middle" x="442" y="-570" font-family="Sans" font-size="10.00">issue</text>
<text text-anchor="middle" x="442" y="-557" font-family="Sans" font-size="10.00">configuration-modules-core#952</text>
</a>
</g>
<!-- configuration&#45;modules&#45;core#950&#45;&gt;configuration&#45;modules&#45;core#952 -->
<g id="edge52" class="edge"><title>configuration-modules-core#950-&gt;configuration-modules-core#952</title>
<path fill="none" stroke="black" d="M240.427,-534.586C267.838,-538.858 297.478,-543.477 325.376,-547.825"/>
<polygon fill="none" stroke="black" points="325.149,-551.332 335.568,-549.413 326.227,-544.415 325.149,-551.332"/>
<text text-anchor="middle" x="288" y="-548" font-family="Sans" font-size="10.00">requires</text>
</g>
<!-- configuration&#45;modules&#45;core#945 -->
<g id="node65" class="node"><title>configuration-modules-core#945</title>
<a xlink:href="https://github.com/quattor/configuration-modules-core/pull/945" xlink:title="ncm-cdp : Update ncm-cdp schema to support hostname" target="_parent">
<polygon fill="#6cc644" stroke="black" points="217,-381 51,-381 51,-327 217,-327 217,-381"/>
<text text-anchor="middle" x="134" y="-358" font-family="Sans" font-size="10.00">pull-request</text>
<text text-anchor="middle" x="134" y="-345" font-family="Sans" font-size="10.00">configuration-modules-core#945</text>
</a>
</g>
<!-- configuration&#45;modules&#45;core#945&#45;&gt;cdp&#45;listend#16 -->
<g id="edge56" class="edge"><title>configuration-modules-core#945-&gt;cdp-listend#16</title>
<path fill="none" stroke="black" d="M217.756,-337.956C271.194,-327.719 338.994,-314.732 385.981,-305.731"/>
<polygon fill="none" stroke="black" points="386.811,-309.136 395.974,-303.817 385.494,-302.261 386.811,-309.136"/>
<text text-anchor="middle" x="288" y="-331" font-family="Sans" font-size="10.00">requires</text>
</g>
<!-- configuration&#45;modules&#45;core#944 -->
<g id="node67" class="node"><title>configuration-modules-core#944</title>
<a xlink:href="https://github.com/quattor/configuration-modules-core/issues/944" xlink:title="cdp: suport hostname config" target="_parent">
<ellipse fill="#6cc644" stroke="black" cx="442" cy="-378" rx="118.087" ry="38.1838"/>
<text text-anchor="middle" x="442" y="-382" font-family="Sans" font-size="10.00">issue</text>
<text text-anchor="middle" x="442" y="-369" font-family="Sans" font-size="10.00">configuration-modules-core#944</text>
</a>
</g>
<!-- configuration&#45;modules&#45;core#945&#45;&gt;configuration&#45;modules&#45;core#944 -->
<g id="edge54" class="edge"><title>configuration-modules-core#945-&gt;configuration-modules-core#944</title>
<path fill="none" stroke="black" d="M217.756,-360.526C248.267,-362.904 283.46,-365.646 316.787,-368.243"/>
<polygon fill="black" stroke="black" points="316.822,-371.756 327.063,-369.044 317.365,-364.778 316.822,-371.756"/>
<text text-anchor="middle" x="288" y="-371" font-family="Sans" font-size="10.00">fixes</text>
</g>
<!-- maven&#45;tools#113 -->
<g id="node69" class="node"><title>maven-tools#113</title>
<a xlink:href="https://github.com/quattor/maven-tools/pull/113" xlink:title="maven-tools: add component config.pan and schema.pan header templates" target="_parent">
<polygon fill="#6cc644" stroke="black" points="185,-300 83,-300 83,-246 185,-246 185,-300"/>
<text text-anchor="middle" x="134" y="-277" font-family="Sans" font-size="10.00">pull-request</text>
<text text-anchor="middle" x="134" y="-264" font-family="Sans" font-size="10.00">maven-tools#113</text>
</a>
</g>
<!-- maven&#45;tools#109 -->
<g id="node71" class="node"><title>maven-tools#109</title>
<a xlink:href="https://github.com/quattor/maven-tools/issues/109" xlink:title="Add support for site specific component configuration to component configs" target="_parent">
<ellipse fill="#6cc644" stroke="black" cx="442" cy="-212" rx="72.832" ry="38.1838"/>
<text text-anchor="middle" x="442" y="-216" font-family="Sans" font-size="10.00">issue</text>
<text text-anchor="middle" x="442" y="-203" font-family="Sans" font-size="10.00">maven-tools#109</text>
</a>
</g>
<!-- maven&#45;tools#113&#45;&gt;maven&#45;tools#109 -->
<g id="edge58" class="edge"><title>maven-tools#113-&gt;maven-tools#109</title>
<path fill="none" stroke="black" d="M185.552,-262.79C234.179,-253.159 307.746,-238.589 363.634,-227.521"/>
<polygon fill="black" stroke="black" points="364.37,-230.943 373.5,-225.567 363.01,-224.076 364.37,-230.943"/>
<text text-anchor="middle" x="288" y="-249" font-family="Sans" font-size="10.00">fixes</text>
</g>
</g>
</svg>
