<?xml version="1.0" encoding="UTF-8" standalone="no"?>
<?xml-stylesheet href="relationships.css" type="text/css"?>
<!-- Generated by graphviz version 2.26.0 (20091210.2329)
 -->
<!-- Title: Dependencies Pages: 1 -->
<svg xmlns="http://www.w3.org/2000/svg" xmlns:xlink="http://www.w3.org/1999/xlink" width="1020pt" height="2415pt" viewBox="0.00 0.00 1020.00 2415.00">
<g id="graph1" class="graph" transform="scale(1 1) rotate(0) translate(4 2411)">
<title>Dependencies</title>
<polygon fill="white" stroke="white" points="-4,5 -4,-2411 1017,-2411 1017,5 -4,5"/>
<g id="graph3" class="cluster"><title>cluster_milestone_18.12</title>
<polygon fill="none" stroke="black" points="300,-267 300,-1821 878,-1821 878,-267 300,-267"/>
<text text-anchor="middle" x="589" y="-1806.2" font-family="Sans" font-size="12.00">18.12</text>
</g>
<g id="graph4" class="cluster"><title>cluster_milestone_19.2</title>
<polygon fill="none" stroke="black" points="70,-8 70,-196 488,-196 488,-8 70,-8"/>
<text text-anchor="middle" x="279" y="-181.2" font-family="Sans" font-size="12.00">19.2</text>
</g>
<g id="graph5" class="cluster"><title>cluster_repo_aquilon</title>
<polygon fill="none" stroke="black" points="57,-2067 57,-2399 495,-2399 495,-2067 57,-2067"/>
<text text-anchor="middle" x="276" y="-2384.2" font-family="Sans" font-size="12.00">aquilon</text>
</g>
<!-- aii#299 -->
<g id="node1" class="node"><title>aii#299</title>
<a xlink:href="https://github.com/quattor/aii/pull/299" xlink:title="aii-dhcp: support optional hostname ip verification" target="_parent">
<polygon fill="#6cc644" stroke="black" points="157,-164 79,-164 79,-110 157,-110 157,-164"/>
<text text-anchor="middle" x="118" y="-141" font-family="Sans" font-size="10.00">pull-request</text>
<text text-anchor="middle" x="118" y="-128" font-family="Sans" font-size="10.00">aii#299</text>
</a>
</g>
<!-- aii#296 -->
<g id="node3" class="node"><title>aii#296</title>
<a xlink:href="https://github.com/quattor/aii/pull/296" xlink:title="DHCP plugin updates" target="_parent">
<polygon fill="#6cc644" stroke="black" points="469,-164 391,-164 391,-110 469,-110 469,-164"/>
<text text-anchor="middle" x="430" y="-141" font-family="Sans" font-size="10.00">pull-request</text>
<text text-anchor="middle" x="430" y="-128" font-family="Sans" font-size="10.00">aii#296</text>
</a>
</g>
<!-- aii#299&#45;&gt;aii#296 -->
<g id="edge2" class="edge"><title>aii#299-&gt;aii#296</title>
<path fill="none" stroke="black" stroke-dasharray="5,2" d="M157.571,-135.897C184.705,-135.197 221.529,-134.358 254,-134 296.553,-133.531 344.889,-134.46 380.125,-135.405"/>
<polygon fill="none" stroke="black" points="380.066,-138.904 390.159,-135.683 380.26,-131.907 380.066,-138.904"/>
<text text-anchor="middle" x="272" y="-138" font-family="Sans" font-size="10.00">requires</text>
</g>
<!-- aii#294 -->
<g id="node4" class="node"><title>aii#294</title>
<a xlink:href="https://github.com/quattor/aii/pull/294" xlink:title="aii: ks: disable selinux with kernel param" target="_parent">
<polygon fill="#6e5494" stroke="black" points="469,-1706 391,-1706 391,-1652 469,-1652 469,-1706"/>
<text text-anchor="middle" x="430" y="-1683" font-family="Sans" font-size="10.00">pull-request</text>
<text text-anchor="middle" x="430" y="-1670" font-family="Sans" font-size="10.00">aii#294</text>
</a>
</g>
<!-- aii#293 -->
<g id="node6" class="node"><title>aii#293</title>
<a xlink:href="https://github.com/quattor/aii/issues/293" xlink:title="Disabling selinux during OS installation does not work with CentOS 7.5" target="_parent">
<ellipse fill="#bd2c00" stroke="black" cx="748" cy="-1679" rx="41.2167" ry="38.1838"/>
<text text-anchor="middle" x="748" y="-1683" font-family="Sans" font-size="10.00">issue</text>
<text text-anchor="middle" x="748" y="-1670" font-family="Sans" font-size="10.00">aii#293</text>
</a>
</g>
<!-- aii#294&#45;&gt;aii#293 -->
<g id="edge4" class="edge"><title>aii#294-&gt;aii#293</title>
<path fill="none" stroke="black" stroke-width="2" d="M469.632,-1679C526.883,-1679 632.79,-1679 696.177,-1679"/>
<polygon fill="black" stroke="black" points="696.352,-1682.5 706.352,-1679 696.352,-1675.5 696.352,-1682.5"/>
<text text-anchor="middle" x="589" y="-1683" font-family="Sans" font-size="10.00">fixes</text>
</g>
<!-- aii#291 -->
<g id="node7" class="node"><title>aii#291</title>
<a xlink:href="https://github.com/quattor/aii/pull/291" xlink:title="aii-installfe: add support for --cdburl" target="_parent">
<polygon fill="#6e5494" stroke="black" points="469,-1612 391,-1612 391,-1558 469,-1558 469,-1612"/>
<text text-anchor="middle" x="430" y="-1589" font-family="Sans" font-size="10.00">pull-request</text>
<text text-anchor="middle" x="430" y="-1576" font-family="Sans" font-size="10.00">aii#291</text>
</a>
</g>
<!-- aii#290 -->
<g id="node9" class="node"><title>aii#290</title>
<a xlink:href="https://github.com/quattor/aii/issues/290" xlink:title="18.6.0: aii-installfe should allow to define cdburl" target="_parent">
<ellipse fill="#bd2c00" stroke="black" cx="748" cy="-1585" rx="41.2167" ry="38.1838"/>
<text text-anchor="middle" x="748" y="-1589" font-family="Sans" font-size="10.00">issue</text>
<text text-anchor="middle" x="748" y="-1576" font-family="Sans" font-size="10.00">aii#290</text>
</a>
</g>
<!-- aii#291&#45;&gt;aii#290 -->
<g id="edge6" class="edge"><title>aii#291-&gt;aii#290</title>
<path fill="none" stroke="black" stroke-width="2" d="M469.632,-1585C526.883,-1585 632.79,-1585 696.177,-1585"/>
<polygon fill="black" stroke="black" points="696.352,-1588.5 706.352,-1585 696.352,-1581.5 696.352,-1588.5"/>
<text text-anchor="middle" x="589" y="-1589" font-family="Sans" font-size="10.00">fixes</text>
</g>
<!-- aii#280 -->
<g id="node10" class="node"><title>aii#280</title>
<a xlink:href="https://github.com/quattor/aii/pull/280" xlink:title="Support active configuration attribute for plugins" target="_parent">
<polygon fill="#6cc644" stroke="black" points="469,-333 391,-333 391,-279 469,-279 469,-333"/>
<text text-anchor="middle" x="430" y="-310" font-family="Sans" font-size="10.00">pull-request</text>
<text text-anchor="middle" x="430" y="-297" font-family="Sans" font-size="10.00">aii#280</text>
</a>
</g>
<!-- aii#209 -->
<g id="node12" class="node"><title>aii#209</title>
<a xlink:href="https://github.com/quattor/aii/issues/209" xlink:title="support ACTIVE_CONFIG" target="_parent">
<ellipse fill="#6cc644" stroke="black" cx="748" cy="-313" rx="41.2167" ry="38.1838"/>
<text text-anchor="middle" x="748" y="-317" font-family="Sans" font-size="10.00">issue</text>
<text text-anchor="middle" x="748" y="-304" font-family="Sans" font-size="10.00">aii#209</text>
</a>
</g>
<!-- aii#280&#45;&gt;aii#209 -->
<g id="edge8" class="edge"><title>aii#280-&gt;aii#209</title>
<path fill="none" stroke="black" stroke-width="2" d="M469.632,-306.872C526.883,-308.133 632.79,-310.464 696.177,-311.859"/>
<polygon fill="black" stroke="black" points="696.277,-315.362 706.352,-312.083 696.431,-308.364 696.277,-315.362"/>
<text text-anchor="middle" x="589" y="-314" font-family="Sans" font-size="10.00">fixes</text>
</g>
<!-- ncm&#45;ncd#74 -->
<g id="node14" class="node"><title>ncm-ncd#74</title>
<a xlink:href="https://github.com/quattor/ncm-ncd/pull/74" xlink:title="Set the current active config as an attribute to the component" target="_parent">
<polygon fill="#6e5494" stroke="black" points="789,-423 707,-423 707,-369 789,-369 789,-423"/>
<text text-anchor="middle" x="748" y="-400" font-family="Sans" font-size="10.00">pull-request</text>
<text text-anchor="middle" x="748" y="-387" font-family="Sans" font-size="10.00">ncm-ncd#74</text>
</a>
</g>
<!-- aii#280&#45;&gt;ncm&#45;ncd#74 -->
<g id="edge10" class="edge"><title>aii#280-&gt;ncm-ncd#74</title>
<path fill="none" stroke="black" stroke-dasharray="5,2" d="M469.632,-317.217C527.159,-333.498 633.813,-363.683 697.091,-381.592"/>
<polygon fill="none" stroke="black" points="696.285,-385.001 706.86,-384.357 698.191,-378.266 696.285,-385.001"/>
<text text-anchor="middle" x="589" y="-358" font-family="Sans" font-size="10.00">requires</text>
</g>
<!-- aii#203 -->
<g id="node16" class="node"><title>aii#203</title>
<polygon fill="lightgrey" stroke="black" points="777,-257.5 719,-257.5 719,-216.5 777,-216.5 777,-257.5"/>
<text text-anchor="middle" x="748" y="-234.5" font-family="Sans" font-size="10.00">aii#203</text>
</g>
<!-- aii#280&#45;&gt;aii#203 -->
<g id="edge12" class="edge"><title>aii#280-&gt;aii#203</title>
<path fill="none" stroke="black" stroke-dasharray="5,2" d="M469.776,-297.2C509.364,-288.46 571.861,-274.708 626,-263 653.473,-257.059 684.449,-250.459 708.313,-245.395"/>
<polygon fill="none" stroke="black" points="709.35,-248.753 718.406,-243.255 707.898,-241.905 709.35,-248.753"/>
<text text-anchor="middle" x="589" y="-279" font-family="Sans" font-size="10.00">requires</text>
</g>
<!-- aii#210 -->
<g id="node18" class="node"><title>aii#210</title>
<polygon fill="lightgrey" stroke="black" points="777,-199.5 719,-199.5 719,-158.5 777,-158.5 777,-199.5"/>
<text text-anchor="middle" x="748" y="-176.5" font-family="Sans" font-size="10.00">aii#210</text>
</g>
<!-- aii#280&#45;&gt;aii#210 -->
<g id="edge14" class="edge"><title>aii#280-&gt;aii#210</title>
<path fill="none" stroke="black" stroke-dasharray="1,5" d="M469.55,-302.739C494.869,-299.092 527.454,-291.366 552,-275 563.094,-267.603 560.625,-260.481 570,-251 592.063,-228.686 597.664,-221.482 626,-208 652.06,-195.6 683.844,-188.266 708.437,-184.077"/>
<polygon fill="black" stroke="black" points="718.498,-182.468 709.334,-188.49 713.561,-183.257 708.624,-184.047 708.624,-184.047 708.624,-184.047 713.561,-183.257 707.913,-179.603 718.498,-182.468 718.498,-182.468"/>
<text text-anchor="middle" x="589" y="-255" font-family="Sans" font-size="10.00">replaces</text>
</g>
<!-- CAF#257 -->
<g id="node19" class="node"><title>CAF#257</title>
<a xlink:href="https://github.com/quattor/CAF/pull/257" xlink:title="Process: run process as another user" target="_parent">
<polygon fill="#6cc644" stroke="black" points="157,-81 79,-81 79,-27 157,-27 157,-81"/>
<text text-anchor="middle" x="118" y="-58" font-family="Sans" font-size="10.00">pull-request</text>
<text text-anchor="middle" x="118" y="-45" font-family="Sans" font-size="10.00">CAF#257</text>
</a>
</g>
<!-- CAF#253 -->
<g id="node21" class="node"><title>CAF#253</title>
<a xlink:href="https://github.com/quattor/CAF/issues/253" xlink:title="CAF::Process: Include an option to execute the command as an specific user" target="_parent">
<ellipse fill="#6cc644" stroke="black" cx="430" cy="-54" rx="48.9975" ry="38.1838"/>
<text text-anchor="middle" x="430" y="-58" font-family="Sans" font-size="10.00">issue</text>
<text text-anchor="middle" x="430" y="-45" font-family="Sans" font-size="10.00">CAF#253</text>
</a>
</g>
<!-- CAF#257&#45;&gt;CAF#253 -->
<g id="edge16" class="edge"><title>CAF#257-&gt;CAF#253</title>
<path fill="none" stroke="black" stroke-width="2" d="M157.515,-54C211.181,-54 307.576,-54 370.145,-54"/>
<polygon fill="black" stroke="black" points="370.268,-57.5001 380.268,-54 370.268,-50.5001 370.268,-57.5001"/>
<text text-anchor="middle" x="272" y="-58" font-family="Sans" font-size="10.00">fixes</text>
</g>
<!-- CAF#110 -->
<g id="node22" class="node"><title>CAF#110</title>
<a xlink:href="https://github.com/quattor/CAF/pull/110" xlink:title="CAF::Download class: API proposal" target="_parent">
<polygon fill="#6cc644" stroke="black" points="157,-1876 79,-1876 79,-1822 157,-1822 157,-1876"/>
<text text-anchor="middle" x="118" y="-1853" font-family="Sans" font-size="10.00">pull-request</text>
<text text-anchor="middle" x="118" y="-1840" font-family="Sans" font-size="10.00">CAF#110</text>
</a>
</g>
<!-- CAF#120 -->
<g id="node24" class="node"><title>CAF#120</title>
<polygon fill="lightgrey" stroke="black" points="465,-1869.5 395,-1869.5 395,-1828.5 465,-1828.5 465,-1869.5"/>
<text text-anchor="middle" x="430" y="-1846.5" font-family="Sans" font-size="10.00">CAF#120</text>
</g>
<!-- CAF#110&#45;&gt;CAF#120 -->
<g id="edge18" class="edge"><title>CAF#110-&gt;CAF#120</title>
<path fill="none" stroke="black" stroke-dasharray="5,2" d="M157.515,-1849C215.488,-1849 323.324,-1849 384.517,-1849"/>
<polygon fill="none" stroke="black" points="384.651,-1852.5 394.651,-1849 384.651,-1845.5 384.651,-1852.5"/>
<text text-anchor="middle" x="272" y="-1853" font-family="Sans" font-size="10.00">requires</text>
</g>
<!-- CCM#186 -->
<g id="node25" class="node"><title>CCM#186</title>
<a xlink:href="https://github.com/quattor/CCM/pull/186" xlink:title="TextRender: add support for jsonpretty type" target="_parent">
<polygon fill="#6e5494" stroke="black" points="787,-1789 709,-1789 709,-1735 787,-1735 787,-1789"/>
<text text-anchor="middle" x="748" y="-1766" font-family="Sans" font-size="10.00">pull-request</text>
<text text-anchor="middle" x="748" y="-1753" font-family="Sans" font-size="10.00">CCM#186</text>
</a>
</g>
<!-- CAF#265 -->
<g id="node27" class="node"><title>CAF#265</title>
<polygon fill="lightgrey" stroke="black" points="1012,-1822.5 942,-1822.5 942,-1781.5 1012,-1781.5 1012,-1822.5"/>
<text text-anchor="middle" x="977" y="-1799.5" font-family="Sans" font-size="10.00">CAF#265</text>
</g>
<!-- CCM#186&#45;&gt;CAF#265 -->
<g id="edge20" class="edge"><title>CCM#186-&gt;CAF#265</title>
<path fill="none" stroke="black" stroke-dasharray="5,2" d="M787.627,-1768.92C827.836,-1775.95 889.982,-1786.8 932.017,-1794.14"/>
<polygon fill="none" stroke="black" points="931.527,-1797.61 941.98,-1795.88 932.732,-1790.71 931.527,-1797.61"/>
<text text-anchor="middle" x="906" y="-1797" font-family="Sans" font-size="10.00">requires</text>
</g>
<!-- configuration&#45;modules&#45;core#1345 -->
<g id="node28" class="node"><title>configuration-modules-core#1345</title>
<a xlink:href="https://github.com/quattor/configuration-modules-core/pull/1345" xlink:title="ncm-metaconfig: add libvirt guests setup" target="_parent">
<polygon fill="#6e5494" stroke="black" points="516,-1518 344,-1518 344,-1464 516,-1464 516,-1518"/>
<text text-anchor="middle" x="430" y="-1495" font-family="Sans" font-size="10.00">pull-request</text>
<text text-anchor="middle" x="430" y="-1482" font-family="Sans" font-size="10.00">configuration-modules-core#1345</text>
</a>
</g>
<!-- configuration&#45;modules&#45;core#1287 -->
<g id="node30" class="node"><title>configuration-modules-core#1287</title>
<a xlink:href="https://github.com/quattor/configuration-modules-core/issues/1287" xlink:title="ncm-metaconfig: add libvirtd libvirt-guests configuration" target="_parent">
<ellipse fill="#bd2c00" stroke="black" cx="748" cy="-1491" rx="121.122" ry="38.1838"/>
<text text-anchor="middle" x="748" y="-1495" font-family="Sans" font-size="10.00">issue</text>
<text text-anchor="middle" x="748" y="-1482" font-family="Sans" font-size="10.00">configuration-modules-core#1287</text>
</a>
</g>
<!-- configuration&#45;modules&#45;core#1345&#45;&gt;configuration&#45;modules&#45;core#1287 -->
<g id="edge22" class="edge"><title>configuration-modules-core#1345-&gt;configuration-modules-core#1287</title>
<path fill="none" stroke="black" stroke-width="2" d="M516.055,-1491C546.811,-1491 582.215,-1491 615.951,-1491"/>
<polygon fill="black" stroke="black" points="616.361,-1494.5 626.361,-1491 616.361,-1487.5 616.361,-1494.5"/>
<text text-anchor="middle" x="589" y="-1495" font-family="Sans" font-size="10.00">fixes</text>
</g>
<!-- configuration&#45;modules&#45;core#1341 -->
<g id="node31" class="node"><title>configuration-modules-core#1341</title>
<a xlink:href="https://github.com/quattor/configuration-modules-core/pull/1341" xlink:title="ncm-metaconfig: switch to CAF::ServiceActions" target="_parent">
<polygon fill="#6cc644" stroke="black" points="516,-1435 344,-1435 344,-1381 516,-1381 516,-1435"/>
<text text-anchor="middle" x="430" y="-1412" font-family="Sans" font-size="10.00">pull-request</text>
<text text-anchor="middle" x="430" y="-1399" font-family="Sans" font-size="10.00">configuration-modules-core#1341</text>
</a>
</g>
<!-- CAF#267 -->
<g id="node33" class="node"><title>CAF#267</title>
<a xlink:href="https://github.com/quattor/CAF/pull/267" xlink:title="ServiceActions: handle multiple service actions" target="_parent">
<polygon fill="#6cc644" stroke="black" points="787,-1435 709,-1435 709,-1381 787,-1381 787,-1435"/>
<text text-anchor="middle" x="748" y="-1412" font-family="Sans" font-size="10.00">pull-request</text>
<text text-anchor="middle" x="748" y="-1399" font-family="Sans" font-size="10.00">CAF#267</text>
</a>
</g>
<!-- configuration&#45;modules&#45;core#1341&#45;&gt;CAF#267 -->
<g id="edge24" class="edge"><title>configuration-modules-core#1341-&gt;CAF#267</title>
<path fill="none" stroke="black" stroke-dasharray="5,2" d="M516.055,-1408C574.32,-1408 649.268,-1408 697.956,-1408"/>
<polygon fill="none" stroke="black" points="698.233,-1411.5 708.233,-1408 698.233,-1404.5 698.233,-1411.5"/>
<text text-anchor="middle" x="589" y="-1412" font-family="Sans" font-size="10.00">requires</text>
</g>
<!-- configuration&#45;modules&#45;core#1331 -->
<g id="node34" class="node"><title>configuration-modules-core#1331</title>
<a xlink:href="https://github.com/quattor/configuration-modules-core/pull/1331" xlink:title="ncm-cron: Throw an error if multiple cron jobs are defined with the same name" target="_parent">
<polygon fill="#6cc644" stroke="black" points="516,-1352 344,-1352 344,-1298 516,-1298 516,-1352"/>
<text text-anchor="middle" x="430" y="-1329" font-family="Sans" font-size="10.00">pull-request</text>
<text text-anchor="middle" x="430" y="-1316" font-family="Sans" font-size="10.00">configuration-modules-core#1331</text>
</a>
</g>
<!-- configuration&#45;modules&#45;core#1228 -->
<g id="node36" class="node"><title>configuration-modules-core#1228</title>
<a xlink:href="https://github.com/quattor/configuration-modules-core/issues/1228" xlink:title="ncm-cron: Catch cron entries with duplicate names at build time" target="_parent">
<ellipse fill="#6cc644" stroke="black" cx="748" cy="-1325" rx="121.122" ry="38.1838"/>
<text text-anchor="middle" x="748" y="-1329" font-family="Sans" font-size="10.00">issue</text>
<text text-anchor="middle" x="748" y="-1316" font-family="Sans" font-size="10.00">configuration-modules-core#1228</text>
</a>
</g>
<!-- configuration&#45;modules&#45;core#1331&#45;&gt;configuration&#45;modules&#45;core#1228 -->
<g id="edge26" class="edge"><title>configuration-modules-core#1331-&gt;configuration-modules-core#1228</title>
<path fill="none" stroke="black" stroke-width="2" d="M516.055,-1325C546.811,-1325 582.215,-1325 615.951,-1325"/>
<polygon fill="black" stroke="black" points="616.361,-1328.5 626.361,-1325 616.361,-1321.5 616.361,-1328.5"/>
<text text-anchor="middle" x="589" y="-1329" font-family="Sans" font-size="10.00">fixes</text>
</g>
<!-- configuration&#45;modules&#45;core#1308 -->
<g id="node37" class="node"><title>configuration-modules-core#1308</title>
<a xlink:href="https://github.com/quattor/configuration-modules-core/pull/1308" xlink:title="ncm-network: no error wrt missing (IPv4) ip and netmask in a pure IPv6 config" target="_parent">
<polygon fill="#6e5494" stroke="black" points="516,-1258 344,-1258 344,-1204 516,-1204 516,-1258"/>
<text text-anchor="middle" x="430" y="-1235" font-family="Sans" font-size="10.00">pull-request</text>
<text text-anchor="middle" x="430" y="-1222" font-family="Sans" font-size="10.00">configuration-modules-core#1308</text>
</a>
</g>
<!-- configuration&#45;modules&#45;core#1296 -->
<g id="node39" class="node"><title>configuration-modules-core#1296</title>
<a xlink:href="https://github.com/quattor/configuration-modules-core/issues/1296" xlink:title="ncm-network: Returns an error when an interface is configured as IPv6 only" target="_parent">
<ellipse fill="#bd2c00" stroke="black" cx="748" cy="-1231" rx="121.122" ry="38.1838"/>
<text text-anchor="middle" x="748" y="-1235" font-family="Sans" font-size="10.00">issue</text>
<text text-anchor="middle" x="748" y="-1222" font-family="Sans" font-size="10.00">configuration-modules-core#1296</text>
</a>
</g>
<!-- configuration&#45;modules&#45;core#1308&#45;&gt;configuration&#45;modules&#45;core#1296 -->
<g id="edge28" class="edge"><title>configuration-modules-core#1308-&gt;configuration-modules-core#1296</title>
<path fill="none" stroke="black" stroke-width="2" d="M516.055,-1231C546.811,-1231 582.215,-1231 615.951,-1231"/>
<polygon fill="black" stroke="black" points="616.361,-1234.5 626.361,-1231 616.361,-1227.5 616.361,-1234.5"/>
<text text-anchor="middle" x="589" y="-1235" font-family="Sans" font-size="10.00">fixes</text>
</g>
<!-- configuration&#45;modules&#45;core#1299 -->
<g id="node40" class="node"><title>configuration-modules-core#1299</title>
<a xlink:href="https://github.com/quattor/configuration-modules-core/pull/1299" xlink:title="ncm-sysconfig: Automatically quote values containing whitespace" target="_parent">
<polygon fill="#6cc644" stroke="black" points="516,-1164 344,-1164 344,-1110 516,-1110 516,-1164"/>
<text text-anchor="middle" x="430" y="-1141" font-family="Sans" font-size="10.00">pull-request</text>
<text text-anchor="middle" x="430" y="-1128" font-family="Sans" font-size="10.00">configuration-modules-core#1299</text>
</a>
</g>
<!-- configuration&#45;modules&#45;core#1191 -->
<g id="node42" class="node"><title>configuration-modules-core#1191</title>
<a xlink:href="https://github.com/quattor/configuration-modules-core/issues/1191" xlink:title="ncm-sysconfig: Values should be quoted" target="_parent">
<ellipse fill="#6cc644" stroke="black" cx="748" cy="-1137" rx="121.122" ry="38.1838"/>
<text text-anchor="middle" x="748" y="-1141" font-family="Sans" font-size="10.00">issue</text>
<text text-anchor="middle" x="748" y="-1128" font-family="Sans" font-size="10.00">configuration-modules-core#1191</text>
</a>
</g>
<!-- configuration&#45;modules&#45;core#1299&#45;&gt;configuration&#45;modules&#45;core#1191 -->
<g id="edge30" class="edge"><title>configuration-modules-core#1299-&gt;configuration-modules-core#1191</title>
<path fill="none" stroke="black" stroke-width="2" d="M516.055,-1137C546.811,-1137 582.215,-1137 615.951,-1137"/>
<polygon fill="black" stroke="black" points="616.361,-1140.5 626.361,-1137 616.361,-1133.5 616.361,-1140.5"/>
<text text-anchor="middle" x="589" y="-1141" font-family="Sans" font-size="10.00">fixes</text>
</g>
<!-- configuration&#45;modules&#45;core#1279 -->
<g id="node43" class="node"><title>configuration-modules-core#1279</title>
<a xlink:href="https://github.com/quattor/configuration-modules-core/pull/1279" xlink:title="ncm-metaconfig: ganeshav2 add include" target="_parent">
<polygon fill="#6e5494" stroke="black" points="516,-1070 344,-1070 344,-1016 516,-1016 516,-1070"/>
<text text-anchor="middle" x="430" y="-1047" font-family="Sans" font-size="10.00">pull-request</text>
<text text-anchor="middle" x="430" y="-1034" font-family="Sans" font-size="10.00">configuration-modules-core#1279</text>
</a>
</g>
<!-- configuration&#45;modules&#45;core#1276 -->
<g id="node45" class="node"><title>configuration-modules-core#1276</title>
<a xlink:href="https://github.com/quattor/configuration-modules-core/issues/1276" xlink:title="ncm-metaconfig: Ganesha v2 %include option is missing" target="_parent">
<ellipse fill="#bd2c00" stroke="black" cx="748" cy="-1043" rx="121.122" ry="38.1838"/>
<text text-anchor="middle" x="748" y="-1047" font-family="Sans" font-size="10.00">issue</text>
<text text-anchor="middle" x="748" y="-1034" font-family="Sans" font-size="10.00">configuration-modules-core#1276</text>
</a>
</g>
<!-- configuration&#45;modules&#45;core#1279&#45;&gt;configuration&#45;modules&#45;core#1276 -->
<g id="edge32" class="edge"><title>configuration-modules-core#1279-&gt;configuration-modules-core#1276</title>
<path fill="none" stroke="black" stroke-width="2" d="M516.055,-1043C546.811,-1043 582.215,-1043 615.951,-1043"/>
<polygon fill="black" stroke="black" points="616.361,-1046.5 626.361,-1043 616.361,-1039.5 616.361,-1046.5"/>
<text text-anchor="middle" x="589" y="-1047" font-family="Sans" font-size="10.00">fixes</text>
</g>
<!-- configuration&#45;modules&#45;core#1261 -->
<g id="node46" class="node"><title>configuration-modules-core#1261</title>
<a xlink:href="https://github.com/quattor/configuration-modules-core/pull/1261" xlink:title="ncm-openstack: Include ovs and storage support" target="_parent">
<polygon fill="#6cc644" stroke="black" points="516,-930 344,-930 344,-876 516,-876 516,-930"/>
<text text-anchor="middle" x="430" y="-907" font-family="Sans" font-size="10.00">pull-request</text>
<text text-anchor="middle" x="430" y="-894" font-family="Sans" font-size="10.00">configuration-modules-core#1261</text>
</a>
</g>
<!-- configuration&#45;modules&#45;core#1310 -->
<g id="node48" class="node"><title>configuration-modules-core#1310</title>
<a xlink:href="https://github.com/quattor/configuration-modules-core/issues/1310" xlink:title="ncm-openstack: add Heat service support" target="_parent">
<ellipse fill="#6cc644" stroke="black" cx="748" cy="-855" rx="121.122" ry="38.1838"/>
<text text-anchor="middle" x="748" y="-859" font-family="Sans" font-size="10.00">issue</text>
<text text-anchor="middle" x="748" y="-846" font-family="Sans" font-size="10.00">configuration-modules-core#1310</text>
</a>
</g>
<!-- configuration&#45;modules&#45;core#1261&#45;&gt;configuration&#45;modules&#45;core#1310 -->
<g id="edge34" class="edge"><title>configuration-modules-core#1261-&gt;configuration-modules-core#1310</title>
<path fill="none" stroke="black" stroke-width="2" d="M516.055,-890.011C550.67,-884.786 591.173,-878.672 628.56,-873.029"/>
<polygon fill="black" stroke="black" points="629.136,-876.481 638.502,-871.528 628.091,-869.56 629.136,-876.481"/>
<text text-anchor="middle" x="589" y="-885" font-family="Sans" font-size="10.00">fixes</text>
</g>
<!-- configuration&#45;modules&#45;core#1315 -->
<g id="node50" class="node"><title>configuration-modules-core#1315</title>
<a xlink:href="https://github.com/quattor/configuration-modules-core/issues/1315" xlink:title="ncm-openstack: add murano service support" target="_parent">
<ellipse fill="#6cc644" stroke="black" cx="748" cy="-949" rx="121.122" ry="38.1838"/>
<text text-anchor="middle" x="748" y="-953" font-family="Sans" font-size="10.00">issue</text>
<text text-anchor="middle" x="748" y="-940" font-family="Sans" font-size="10.00">configuration-modules-core#1315</text>
</a>
</g>
<!-- configuration&#45;modules&#45;core#1261&#45;&gt;configuration&#45;modules&#45;core#1315 -->
<g id="edge36" class="edge"><title>configuration-modules-core#1261-&gt;configuration-modules-core#1315</title>
<path fill="none" stroke="black" stroke-width="2" d="M516.055,-915.448C550.27,-920.398 590.239,-926.179 627.264,-931.535"/>
<polygon fill="black" stroke="black" points="627.224,-935.066 637.622,-933.033 628.226,-928.138 627.224,-935.066"/>
<text text-anchor="middle" x="589" y="-932" font-family="Sans" font-size="10.00">fixes</text>
</g>
<!-- configuration&#45;modules&#45;core#1255 -->
<g id="node51" class="node"><title>configuration-modules-core#1255</title>
<a xlink:href="https://github.com/quattor/configuration-modules-core/pull/1255" xlink:title=" ncm-metaconfig: add irods config files" target="_parent">
<polygon fill="#6cc644" stroke="black" points="516,-1789 344,-1789 344,-1735 516,-1735 516,-1789"/>
<text text-anchor="middle" x="430" y="-1766" font-family="Sans" font-size="10.00">pull-request</text>
<text text-anchor="middle" x="430" y="-1753" font-family="Sans" font-size="10.00">configuration-modules-core#1255</text>
</a>
</g>
<!-- configuration&#45;modules&#45;core#1255&#45;&gt;CCM#186 -->
<g id="edge40" class="edge"><title>configuration-modules-core#1255-&gt;CCM#186</title>
<path fill="none" stroke="black" stroke-dasharray="5,2" d="M516.007,-1759.59C545.206,-1759.03 578.022,-1758.68 608,-1759 637.938,-1759.32 671.471,-1760.03 698.212,-1760.67"/>
<polygon fill="none" stroke="black" points="698.394,-1764.18 708.477,-1760.93 698.567,-1757.18 698.394,-1764.18"/>
<text text-anchor="middle" x="589" y="-1763" font-family="Sans" font-size="10.00">requires</text>
</g>
<!-- configuration&#45;modules&#45;core#1255&#45;&gt;CAF#265 -->
<g id="edge38" class="edge"><title>configuration-modules-core#1255-&gt;CAF#265</title>
<path fill="none" stroke="black" stroke-dasharray="5,2" d="M516.459,-1780.5C550.45,-1787.08 589.908,-1793.88 626,-1798 741.814,-1811.23 771.464,-1807.33 888,-1810 903.996,-1810.37 908.045,-1811.2 924,-1810 926.517,-1809.81 929.096,-1809.57 931.695,-1809.3"/>
<polygon fill="none" stroke="black" points="932.228,-1812.76 941.732,-1808.08 931.383,-1805.81 932.228,-1812.76"/>
<text text-anchor="middle" x="748" y="-1814" font-family="Sans" font-size="10.00">requires</text>
</g>
<!-- configuration&#45;modules&#45;core#1336 -->
<g id="node54" class="node"><title>configuration-modules-core#1336</title>
<a xlink:href="https://github.com/quattor/configuration-modules-core/pull/1336" xlink:title="ncm-network: Add support for CAF::Service actions after changes" target="_parent">
<polygon fill="#6cc644" stroke="black" points="204,-388 32,-388 32,-334 204,-334 204,-388"/>
<text text-anchor="middle" x="118" y="-365" font-family="Sans" font-size="10.00">pull-request</text>
<text text-anchor="middle" x="118" y="-352" font-family="Sans" font-size="10.00">configuration-modules-core#1336</text>
</a>
</g>
<!-- configuration&#45;modules&#45;core#1335 -->
<g id="node56" class="node"><title>configuration-modules-core#1335</title>
<a xlink:href="https://github.com/quattor/configuration-modules-core/pull/1335" xlink:title="ncm-metaconfig: Remove caf_service_action type to allow reuse" target="_parent">
<polygon fill="#6cc644" stroke="black" points="516,-258 344,-258 344,-204 516,-204 516,-258"/>
<text text-anchor="middle" x="430" y="-235" font-family="Sans" font-size="10.00">pull-request</text>
<text text-anchor="middle" x="430" y="-222" font-family="Sans" font-size="10.00">configuration-modules-core#1335</text>
</a>
</g>
<!-- configuration&#45;modules&#45;core#1336&#45;&gt;configuration&#45;modules&#45;core#1335 -->
<g id="edge42" class="edge"><title>configuration-modules-core#1336-&gt;configuration-modules-core#1335</title>
<path fill="none" stroke="black" stroke-dasharray="5,2" d="M161.018,-333.803C196.993,-312.063 250.269,-282.154 300,-263 310.845,-258.823 322.413,-255.057 334.007,-251.701"/>
<polygon fill="none" stroke="black" points="335.051,-255.043 343.738,-248.978 333.164,-248.302 335.051,-255.043"/>
<text text-anchor="middle" x="272" y="-285" font-family="Sans" font-size="10.00">requires</text>
</g>
<!-- configuration&#45;modules&#45;core#1071 -->
<g id="node58" class="node"><title>configuration-modules-core#1071</title>
<a xlink:href="https://github.com/quattor/configuration-modules-core/issues/1071" xlink:title="ncm-network: support daemons to restart after network changes" target="_parent">
<ellipse fill="#6cc644" stroke="black" cx="430" cy="-712" rx="121.122" ry="38.1838"/>
<text text-anchor="middle" x="430" y="-716" font-family="Sans" font-size="10.00">issue</text>
<text text-anchor="middle" x="430" y="-703" font-family="Sans" font-size="10.00">configuration-modules-core#1071</text>
</a>
</g>
<!-- configuration&#45;modules&#45;core#1336&#45;&gt;configuration&#45;modules&#45;core#1071 -->
<g id="edge44" class="edge"><title>configuration-modules-core#1336-&gt;configuration-modules-core#1071</title>
<path fill="none" stroke="black" stroke-width="2" d="M127.158,-388.369C148.242,-447.348 205.76,-587.358 300,-665 308.367,-671.893 317.829,-677.817 327.739,-682.9"/>
<polygon fill="black" stroke="black" points="326.419,-686.148 336.947,-687.334 329.456,-679.842 326.419,-686.148"/>
<text text-anchor="middle" x="272" y="-657" font-family="Sans" font-size="10.00">fixes</text>
</g>
<!-- template&#45;library&#45;core#191 -->
<g id="node60" class="node"><title>template-library-core#191</title>
<a xlink:href="https://github.com/quattor/template-library-core/pull/191" xlink:title="Allow the caf_service_action to be used by multiple components" target="_parent">
<polygon fill="#6cc644" stroke="black" points="817,-141 679,-141 679,-87 817,-87 817,-141"/>
<text text-anchor="middle" x="748" y="-118" font-family="Sans" font-size="10.00">pull-request</text>
<text text-anchor="middle" x="748" y="-105" font-family="Sans" font-size="10.00">template-library-core#191</text>
</a>
</g>
<!-- configuration&#45;modules&#45;core#1335&#45;&gt;template&#45;library&#45;core#191 -->
<g id="edge46" class="edge"><title>configuration-modules-core#1335-&gt;template-library-core#191</title>
<path fill="none" stroke="black" stroke-dasharray="5,2" d="M516.051,-220.896C529.285,-216.199 541.887,-209.503 552,-200 571.051,-182.098 550.232,-161.108 570,-144 596.737,-120.861 634.482,-112.291 668.338,-109.943"/>
<polygon fill="none" stroke="black" points="668.899,-113.418 678.704,-109.404 668.536,-106.428 668.899,-113.418"/>
<text text-anchor="middle" x="589" y="-148" font-family="Sans" font-size="10.00">requires</text>
</g>
<!-- configuration&#45;modules&#45;core#1148 -->
<g id="node61" class="node"><title>configuration-modules-core#1148</title>
<a xlink:href="https://github.com/quattor/configuration-modules-core/pull/1148" xlink:title="ncm-spma: Remove support from groups from spma yumng backend" target="_parent">
<polygon fill="#6cc644" stroke="black" points="204,-2046 32,-2046 32,-1992 204,-1992 204,-2046"/>
<text text-anchor="middle" x="118" y="-2023" font-family="Sans" font-size="10.00">pull-request</text>
<text text-anchor="middle" x="118" y="-2010" font-family="Sans" font-size="10.00">configuration-modules-core#1148</text>
</a>
</g>
<!-- configuration&#45;modules&#45;core#952 -->
<g id="node63" class="node"><title>configuration-modules-core#952</title>
<a xlink:href="https://github.com/quattor/configuration-modules-core/issues/952" xlink:title="ncm-spma (yumng): Remove support for package groups" target="_parent">
<ellipse fill="#6cc644" stroke="black" cx="430" cy="-2019" rx="118.087" ry="38.1838"/>
<text text-anchor="middle" x="430" y="-2023" font-family="Sans" font-size="10.00">issue</text>
<text text-anchor="middle" x="430" y="-2010" font-family="Sans" font-size="10.00">configuration-modules-core#952</text>
</a>
</g>
<!-- configuration&#45;modules&#45;core#1148&#45;&gt;configuration&#45;modules&#45;core#952 -->
<g id="edge48" class="edge"><title>configuration-modules-core#1148-&gt;configuration-modules-core#952</title>
<path fill="none" stroke="black" stroke-width="2" d="M204.081,-2019C234.24,-2019 268.794,-2019 301.657,-2019"/>
<polygon fill="black" stroke="black" points="301.795,-2022.5 311.795,-2019 301.795,-2015.5 301.795,-2022.5"/>
<text text-anchor="middle" x="272" y="-2023" font-family="Sans" font-size="10.00">fixes</text>
</g>
<!-- configuration&#45;modules&#45;core#950 -->
<g id="node64" class="node"><title>configuration-modules-core#950</title>
<a xlink:href="https://github.com/quattor/configuration-modules-core/issues/950" xlink:title="ncm-spma: Remove support for package groups from yum backends" target="_parent">
<ellipse fill="#6cc644" stroke="black" cx="118" cy="-1934" rx="118.087" ry="38.1838"/>
<text text-anchor="middle" x="118" y="-1938" font-family="Sans" font-size="10.00">issue</text>
<text text-anchor="middle" x="118" y="-1925" font-family="Sans" font-size="10.00">configuration-modules-core#950</text>
</a>
</g>
<!-- configuration&#45;modules&#45;core#950&#45;&gt;configuration&#45;modules&#45;core#952 -->
<g id="edge52" class="edge"><title>configuration-modules-core#950-&gt;configuration-modules-core#952</title>
<path fill="none" stroke="black" stroke-dasharray="5,2" d="M208.243,-1958.59C246.32,-1968.96 290.794,-1981.08 329.877,-1991.72"/>
<polygon fill="none" stroke="black" points="329.121,-1995.14 339.69,-1994.4 330.961,-1988.39 329.121,-1995.14"/>
<text text-anchor="middle" x="272" y="-1984" font-family="Sans" font-size="10.00">requires</text>
</g>
<!-- configuration&#45;modules&#45;core#951 -->
<g id="node66" class="node"><title>configuration-modules-core#951</title>
<a xlink:href="https://github.com/quattor/configuration-modules-core/issues/951" xlink:title="ncm-spma (yum): Remove support for package groups" target="_parent">
<ellipse fill="#6cc644" stroke="black" cx="430" cy="-1925" rx="118.087" ry="38.1838"/>
<text text-anchor="middle" x="430" y="-1929" font-family="Sans" font-size="10.00">issue</text>
<text text-anchor="middle" x="430" y="-1916" font-family="Sans" font-size="10.00">configuration-modules-core#951</text>
</a>
</g>
<!-- configuration&#45;modules&#45;core#950&#45;&gt;configuration&#45;modules&#45;core#951 -->
<g id="edge50" class="edge"><title>configuration-modules-core#950-&gt;configuration-modules-core#951</title>
<path fill="none" stroke="black" stroke-dasharray="5,2" d="M235.954,-1930.6C257.652,-1929.97 280.397,-1929.32 302.365,-1928.68"/>
<polygon fill="none" stroke="black" points="302.502,-1932.18 312.397,-1928.39 302.3,-1925.18 302.502,-1932.18"/>
<text text-anchor="middle" x="272" y="-1935" font-family="Sans" font-size="10.00">requires</text>
</g>
<!-- ncm&#45;lib&#45;blockdevices#91 -->
<g id="node68" class="node"><title>ncm-lib-blockdevices#91</title>
<a xlink:href="https://github.com/quattor/ncm-lib-blockdevices/pull/91" xlink:title="Filesystem.pm: add option -f to mkfs.xfs" target="_parent">
<polygon fill="#6e5494" stroke="black" points="498,-822 362,-822 362,-768 498,-768 498,-822"/>
<text text-anchor="middle" x="430" y="-799" font-family="Sans" font-size="10.00">pull-request</text>
<text text-anchor="middle" x="430" y="-786" font-family="Sans" font-size="10.00">ncm-lib-blockdevices#91</text>
</a>
</g>
<!-- ncm&#45;lib&#45;blockdevices#90 -->
<g id="node70" class="node"><title>ncm-lib-blockdevices#90</title>
<a xlink:href="https://github.com/quattor/ncm-lib-blockdevices/issues/90" xlink:title="Filesystem: mkfs.xfs should be used with -f" target="_parent">
<ellipse fill="#bd2c00" stroke="black" cx="748" cy="-761" rx="96.1665" ry="38.1838"/>
<text text-anchor="middle" x="748" y="-765" font-family="Sans" font-size="10.00">issue</text>
<text text-anchor="middle" x="748" y="-752" font-family="Sans" font-size="10.00">ncm-lib-blockdevices#90</text>
</a>
</g>
<!-- ncm&#45;lib&#45;blockdevices#91&#45;&gt;ncm&#45;lib&#45;blockdevices#90 -->
<g id="edge54" class="edge"><title>ncm-lib-blockdevices#91-&gt;ncm-lib-blockdevices#90</title>
<path fill="none" stroke="black" stroke-width="2" d="M498.219,-787.706C540.984,-783.134 596.926,-777.153 645.024,-772.01"/>
<polygon fill="black" stroke="black" points="645.59,-775.47 655.161,-770.926 644.846,-768.509 645.59,-775.47"/>
<text text-anchor="middle" x="589" y="-784" font-family="Sans" font-size="10.00">fixes</text>
</g>
<!-- ncm&#45;ncd#117 -->
<g id="node71" class="node"><title>ncm-ncd#117</title>
<a xlink:href="https://github.com/quattor/ncm-ncd/pull/117" xlink:title="Allow component modules to be loaded from any path" target="_parent">
<polygon fill="#6e5494" stroke="black" points="473,-656 387,-656 387,-602 473,-602 473,-656"/>
<text text-anchor="middle" x="430" y="-633" font-family="Sans" font-size="10.00">pull-request</text>
<text text-anchor="middle" x="430" y="-620" font-family="Sans" font-size="10.00">ncm-ncd#117</text>
</a>
</g>
<!-- ncm&#45;ncd#116 -->
<g id="node73" class="node"><title>ncm-ncd#116</title>
<a xlink:href="https://github.com/quattor/ncm-ncd/issues/116" xlink:title="hasFile() prevents component modules from being relocated" target="_parent">
<ellipse fill="#bd2c00" stroke="black" cx="748" cy="-667" rx="61.0181" ry="38.1838"/>
<text text-anchor="middle" x="748" y="-671" font-family="Sans" font-size="10.00">issue</text>
<text text-anchor="middle" x="748" y="-658" font-family="Sans" font-size="10.00">ncm-ncd#116</text>
</a>
</g>
<!-- ncm&#45;ncd#117&#45;&gt;ncm&#45;ncd#116 -->
<g id="edge56" class="edge"><title>ncm-ncd#117-&gt;ncm-ncd#116</title>
<path fill="none" stroke="black" stroke-width="2" d="M473.55,-634.204C526.079,-640.481 615.082,-651.117 677.453,-658.57"/>
<polygon fill="black" stroke="black" points="677.266,-662.072 687.611,-659.784 678.097,-655.122 677.266,-662.072"/>
<text text-anchor="middle" x="589" y="-654" font-family="Sans" font-size="10.00">fixes</text>
</g>
<!-- template&#45;library&#45;core#187 -->
<g id="node74" class="node"><title>template-library-core#187</title>
<a xlink:href="https://github.com/quattor/template-library-core/pull/187" xlink:title="pan/types: fix incorrect regexp for linux_capability" target="_parent">
<polygon fill="#6e5494" stroke="black" points="499,-584 361,-584 361,-530 499,-530 499,-584"/>
<text text-anchor="middle" x="430" y="-561" font-family="Sans" font-size="10.00">pull-request</text>
<text text-anchor="middle" x="430" y="-548" font-family="Sans" font-size="10.00">template-library-core#187</text>
</a>
</g>
<!-- template&#45;library&#45;core#186 -->
<g id="node76" class="node"><title>template-library-core#186</title>
<a xlink:href="https://github.com/quattor/template-library-core/issues/186" xlink:title="18.6.0: linux_capability type regexp incorrect" target="_parent">
<ellipse fill="#bd2c00" stroke="black" cx="748" cy="-573" rx="97.0803" ry="38.1838"/>
<text text-anchor="middle" x="748" y="-577" font-family="Sans" font-size="10.00">issue</text>
<text text-anchor="middle" x="748" y="-564" font-family="Sans" font-size="10.00">template-library-core#186</text>
</a>
</g>
<!-- template&#45;library&#45;core#187&#45;&gt;template&#45;library&#45;core#186 -->
<g id="edge58" class="edge"><title>template-library-core#187-&gt;template-library-core#186</title>
<path fill="none" stroke="black" stroke-width="2" d="M499.001,-560.472C540.44,-562.557 594.041,-565.254 640.89,-567.611"/>
<polygon fill="black" stroke="black" points="640.923,-571.117 651.086,-568.124 641.275,-564.126 640.923,-571.117"/>
<text text-anchor="middle" x="589" y="-570" font-family="Sans" font-size="10.00">fixes</text>
</g>
<!-- template&#45;library&#45;grid#215 -->
<g id="node77" class="node"><title>template-library-grid#215</title>
<a xlink:href="https://github.com/quattor/template-library-grid/pull/215" xlink:title="Committing changes running in production at GRIF" target="_parent">
<polygon fill="#6e5494" stroke="black" points="497,-506 363,-506 363,-452 497,-452 497,-506"/>
<text text-anchor="middle" x="430" y="-483" font-family="Sans" font-size="10.00">pull-request</text>
<text text-anchor="middle" x="430" y="-470" font-family="Sans" font-size="10.00">template-library-grid#215</text>
</a>
</g>
<!-- template&#45;library&#45;grid#214 -->
<g id="node79" class="node"><title>template-library-grid#214</title>
<a xlink:href="https://github.com/quattor/template-library-grid/issues/214" xlink:title="features/htcondor/server/groups: voms-clients package renamed" target="_parent">
<ellipse fill="#bd2c00" stroke="black" cx="748" cy="-479" rx="94.9596" ry="38.1838"/>
<text text-anchor="middle" x="748" y="-483" font-family="Sans" font-size="10.00">issue</text>
<text text-anchor="middle" x="748" y="-470" font-family="Sans" font-size="10.00">template-library-grid#214</text>
</a>
</g>
<!-- template&#45;library&#45;grid#215&#45;&gt;template&#45;library&#45;grid#214 -->
<g id="edge60" class="edge"><title>template-library-grid#215-&gt;template-library-grid#214</title>
<path fill="none" stroke="black" stroke-width="2" d="M497.829,-479C539.807,-479 594.59,-479 642.187,-479"/>
<polygon fill="black" stroke="black" points="642.227,-482.5 652.227,-479 642.227,-475.5 642.227,-482.5"/>
<text text-anchor="middle" x="589" y="-483" font-family="Sans" font-size="10.00">fixes</text>
</g>
<!-- aquilon#115 -->
<g id="node80" class="node"><title>aquilon#115</title>
<a xlink:href="https://github.com/quattor/aquilon/pull/115" xlink:title="services: insert service data early in the object template" target="_parent">
<polygon fill="#6cc644" stroke="black" points="158,-2367 78,-2367 78,-2313 158,-2313 158,-2367"/>
<text text-anchor="middle" x="118" y="-2344" font-family="Sans" font-size="10.00">pull-request</text>
<text text-anchor="middle" x="118" y="-2331" font-family="Sans" font-size="10.00">aquilon#115</text>
</a>
</g>
<!-- aquilon#109 -->
<g id="node82" class="node"><title>aquilon#109</title>
<a xlink:href="https://github.com/quattor/aquilon/issues/109" xlink:title="Why service configuration is included so late in the plenary object?" target="_parent">
<ellipse fill="#6cc644" stroke="black" cx="430" cy="-2329" rx="56.0679" ry="38.1838"/>
<text text-anchor="middle" x="430" y="-2333" font-family="Sans" font-size="10.00">issue</text>
<text text-anchor="middle" x="430" y="-2320" font-family="Sans" font-size="10.00">aquilon#109</text>
</a>
</g>
<!-- aquilon#115&#45;&gt;aquilon#109 -->
<g id="edge62" class="edge"><title>aquilon#115-&gt;aquilon#109</title>
<path fill="none" stroke="black" stroke-width="2" d="M158.15,-2338.58C209.988,-2336.76 300.924,-2333.55 363.238,-2331.35"/>
<polygon fill="black" stroke="black" points="363.497,-2334.85 373.367,-2331 363.25,-2327.85 363.497,-2334.85"/>
<text text-anchor="middle" x="272" y="-2339" font-family="Sans" font-size="10.00">fixes</text>
</g>
<!-- aquilon#110 -->
<g id="node83" class="node"><title>aquilon#110</title>
<a xlink:href="https://github.com/quattor/aquilon/pull/110" xlink:title="Change site and machine namespace to use continent name" target="_parent">
<polygon fill="#6cc644" stroke="black" points="158,-2295 78,-2295 78,-2241 158,-2241 158,-2295"/>
<text text-anchor="middle" x="118" y="-2272" font-family="Sans" font-size="10.00">pull-request</text>
<text text-anchor="middle" x="118" y="-2259" font-family="Sans" font-size="10.00">aquilon#110</text>
</a>
</g>
<!-- aquilon#104 -->
<g id="node85" class="node"><title>aquilon#104</title>
<a xlink:href="https://github.com/quattor/aquilon/issues/104" xlink:title="1.12.62: location related templates cannot be used" target="_parent">
<ellipse fill="#6cc644" stroke="black" cx="430" cy="-2222" rx="56.0679" ry="38.1838"/>
<text text-anchor="middle" x="430" y="-2226" font-family="Sans" font-size="10.00">issue</text>
<text text-anchor="middle" x="430" y="-2213" font-family="Sans" font-size="10.00">aquilon#104</text>
</a>
</g>
<!-- aquilon#110&#45;&gt;aquilon#104 -->
<g id="edge64" class="edge"><title>aquilon#110-&gt;aquilon#104</title>
<path fill="none" stroke="black" stroke-width="2" d="M158.15,-2262.08C210.377,-2254.38 302.294,-2240.83 364.639,-2231.64"/>
<polygon fill="black" stroke="black" points="365.381,-2235.07 374.764,-2230.14 364.36,-2228.14 365.381,-2235.07"/>
<text text-anchor="middle" x="272" y="-2251" font-family="Sans" font-size="10.00">fixes</text>
</g>
<!-- aquilon#91 -->
<g id="node86" class="node"><title>aquilon#91</title>
<a xlink:href="https://github.com/quattor/aquilon/issues/91" xlink:title="1.12.58: city timezone is not passed to the object template" target="_parent">
<ellipse fill="#6cc644" stroke="black" cx="118" cy="-2185" rx="53.033" ry="38.1838"/>
<text text-anchor="middle" x="118" y="-2189" font-family="Sans" font-size="10.00">issue</text>
<text text-anchor="middle" x="118" y="-2176" font-family="Sans" font-size="10.00">aquilon#91</text>
</a>
</g>
<!-- aquilon#91&#45;&gt;aquilon#104 -->
<g id="edge66" class="edge"><title>aquilon#91-&gt;aquilon#104</title>
<path fill="none" stroke="black" stroke-dasharray="5,2" d="M170.574,-2191.23C223.901,-2197.56 306.574,-2207.36 364.213,-2214.2"/>
<polygon fill="none" stroke="black" points="363.97,-2217.69 374.313,-2215.4 364.795,-2210.74 363.97,-2217.69"/>
<text text-anchor="middle" x="272" y="-2208" font-family="Sans" font-size="10.00">requires</text>
</g>
<!-- aquilon#89 -->
<g id="node88" class="node"><title>aquilon#89</title>
<a xlink:href="https://github.com/quattor/aquilon/pull/89" xlink:title="Broker: pass archetype to the object profile" target="_parent">
<polygon fill="#6cc644" stroke="black" points="157,-2129 79,-2129 79,-2075 157,-2075 157,-2129"/>
<text text-anchor="middle" x="118" y="-2106" font-family="Sans" font-size="10.00">pull-request</text>
<text text-anchor="middle" x="118" y="-2093" font-family="Sans" font-size="10.00">aquilon#89</text>
</a>
</g>
<!-- aquilon#88 -->
<g id="node90" class="node"><title>aquilon#88</title>
<a xlink:href="https://github.com/quattor/aquilon/issues/88" xlink:title="1.12.58: the broker should pass the archetype to the object template" target="_parent">
<ellipse fill="#6cc644" stroke="black" cx="430" cy="-2113" rx="53.033" ry="38.1838"/>
<text text-anchor="middle" x="430" y="-2117" font-family="Sans" font-size="10.00">issue</text>
<text text-anchor="middle" x="430" y="-2104" font-family="Sans" font-size="10.00">aquilon#88</text>
</a>
</g>
<!-- aquilon#89&#45;&gt;aquilon#88 -->
<g id="edge68" class="edge"><title>aquilon#89-&gt;aquilon#88</title>
<path fill="none" stroke="black" stroke-width="2" d="M157.515,-2103.39C210.249,-2105.25 304.241,-2108.57 366.856,-2110.77"/>
<polygon fill="black" stroke="black" points="366.891,-2114.28 377.009,-2111.13 367.138,-2107.28 366.891,-2114.28"/>
<text text-anchor="middle" x="272" y="-2112" font-family="Sans" font-size="10.00">fixes</text>
</g>
</g>
</svg>
