<?xml version="1.0" encoding="UTF-8" standalone="no"?>
<?xml-stylesheet href="relationships.css" type="text/css"?>
<!-- Generated by graphviz version 2.40.1 (0)
 -->
<!-- Title: Dependencies Pages: 1 -->
<svg xmlns="http://www.w3.org/2000/svg" xmlns:xlink="http://www.w3.org/1999/xlink" width="781pt" height="1237pt" viewBox="0.00 0.00 781.00 1236.50">
<g id="graph0" class="graph" transform="scale(1 1) rotate(0) translate(4 1232.5)">
<title>Dependencies</title>
<polygon fill="#ffffff" stroke="transparent" points="-4,4 -4,-1232.5 777,-1232.5 777,4 -4,4"/>
<g id="clust1" class="cluster">
<title>cluster_milestone_25.next</title>
<polygon fill="none" stroke="#000000" points="8,-183.5 8,-963.5 765,-963.5 765,-183.5 8,-183.5"/>
<text text-anchor="middle" x="386.5" y="-949.9" font-family="Sans" font-size="12.00" fill="#000000">25.next</text>
</g>
<!-- aii#331 -->
<g id="node1" class="node">
<title>aii#331</title>
<g id="a_node1"><a xlink:href="https://github.com/quattor/aii/pull/331" xlink:title="aii#331 (pull-request)" target="_parent">
<polygon fill="#6cc644" stroke="#000000" points="170.5,-61 42.5,-61 42.5,0 170.5,0 170.5,-61"/>
<text text-anchor="middle" x="106.5" y="-39" font-family="Sans" font-size="10.00" fill="#000000">let aii generate ansible</text>
<text text-anchor="middle" x="106.5" y="-28" font-family="Sans" font-size="10.00" fill="#000000">playbook for supported</text>
<text text-anchor="middle" x="106.5" y="-17" font-family="Sans" font-size="10.00" fill="#000000">components</text>
</a>
</g>
</g>
<!-- aii#328 -->
<g id="node2" class="node">
<title>aii#328</title>
<polygon fill="#d3d3d3" stroke="#000000" points="421.5,-50 362.5,-50 362.5,-11 421.5,-11 421.5,-50"/>
<text text-anchor="middle" x="392" y="-28" font-family="Sans" font-size="10.00" fill="#000000">aii#328</text>
</g>
<!-- aii#331&#45;&gt;aii#328 -->
<g id="edge1" class="edge">
<title>aii#331-&gt;aii#328</title>
<path fill="none" stroke="#000000" stroke-dasharray="5,2" d="M170.5718,-30.5C226.2071,-30.5 305.0301,-30.5 352.0844,-30.5"/>
<polygon fill="none" stroke="#000000" points="352.1917,-34.0001 362.1916,-30.5 352.1916,-27.0001 352.1917,-34.0001"/>
<text text-anchor="middle" x="248.9515" y="-22.5" font-family="Sans" font-size="10.00" fill="#000000">requires</text>
</g>
<!-- CCM#216 -->
<g id="node3" class="node">
<title>CCM#216</title>
<g id="a_node3"><a xlink:href="https://github.com/quattor/CCM/pull/216" xlink:title="CCM#216 (pull-request)" target="_parent">
<polygon fill="#6e5494" stroke="#000000" points="184,-934.5 29,-934.5 29,-884.5 184,-884.5 184,-934.5"/>
<text text-anchor="middle" x="106.5" y="-912.5" font-family="Sans" font-size="10.00" fill="#000000">ProfileCache: Include type in</text>
<text text-anchor="middle" x="106.5" y="-901.5" font-family="Sans" font-size="10.00" fill="#000000">checksum calculation</text>
</a>
</g>
</g>
<!-- CCM#213 -->
<g id="node4" class="node">
<title>CCM#213</title>
<g id="a_node4"><a xlink:href="https://github.com/quattor/CCM/issues/213" xlink:title="CCM#213 (issue)" target="_parent">
<path fill="#6e5494" stroke="#000000" d="M451.5,-934.5C451.5,-934.5 332.5,-934.5 332.5,-934.5 326.5,-934.5 320.5,-928.5 320.5,-922.5 320.5,-922.5 320.5,-896.5 320.5,-896.5 320.5,-890.5 326.5,-884.5 332.5,-884.5 332.5,-884.5 451.5,-884.5 451.5,-884.5 457.5,-884.5 463.5,-890.5 463.5,-896.5 463.5,-896.5 463.5,-922.5 463.5,-922.5 463.5,-928.5 457.5,-934.5 451.5,-934.5"/>
<text text-anchor="middle" x="392" y="-912.5" font-family="Sans" font-size="10.00" fill="#000000">Include type information in</text>
<text text-anchor="middle" x="392" y="-901.5" font-family="Sans" font-size="10.00" fill="#000000">checksum computation</text>
</a>
</g>
</g>
<!-- CCM#216&#45;&gt;CCM#213 -->
<g id="edge2" class="edge">
<title>CCM#216-&gt;CCM#213</title>
<path fill="none" stroke="#000000" stroke-width="2" d="M184.137,-909.5C223.175,-909.5 270.4814,-909.5 310.0965,-909.5"/>
<polygon fill="#000000" stroke="#000000" stroke-width="2" points="310.2565,-913.0001 320.2565,-909.5 310.2564,-906.0001 310.2565,-913.0001"/>
<text text-anchor="middle" x="240.9769" y="-901.5" font-family="Sans" font-size="10.00" fill="#000000">fixes</text>
</g>
<!-- CCM#215 -->
<g id="node5" class="node">
<title>CCM#215</title>
<g id="a_node5"><a xlink:href="https://github.com/quattor/CCM/pull/215" xlink:title="CCM#215 (pull-request)" target="_parent">
<polygon fill="#6e5494" stroke="#000000" points="175,-866 38,-866 38,-827 175,-827 175,-866"/>
<text text-anchor="middle" x="106.5" y="-844" font-family="Sans" font-size="10.00" fill="#000000">Remove description field</text>
</a>
</g>
</g>
<!-- CCM#214 -->
<g id="node6" class="node">
<title>CCM#214</title>
<g id="a_node6"><a xlink:href="https://github.com/quattor/CCM/pull/214" xlink:title="CCM#214 (pull-request)" target="_parent">
<polygon fill="#6e5494" stroke="#000000" points="461,-866.5 323,-866.5 323,-816.5 461,-816.5 461,-866.5"/>
<text text-anchor="middle" x="392" y="-844.5" font-family="Sans" font-size="10.00" fill="#000000">Strip out all references to</text>
<text text-anchor="middle" x="392" y="-833.5" font-family="Sans" font-size="10.00" fill="#000000">derivation</text>
</a>
</g>
</g>
<!-- CCM#215&#45;&gt;CCM#214 -->
<g id="edge3" class="edge">
<title>CCM#215-&gt;CCM#214</title>
<path fill="none" stroke="#000000" stroke-dasharray="5,2" d="M175.2477,-845.296C216.6436,-844.571 269.5154,-843.6451 312.6768,-842.8892"/>
<polygon fill="none" stroke="#000000" points="312.9221,-846.3855 322.8592,-842.7109 312.7995,-839.3866 312.9221,-846.3855"/>
<text text-anchor="middle" x="231.3782" y="-836.0065" font-family="Sans" font-size="10.00" fill="#000000">requires</text>
</g>
<!-- CCM#134 -->
<g id="node7" class="node">
<title>CCM#134</title>
<g id="a_node7"><a xlink:href="https://github.com/quattor/CCM/issues/134" xlink:title="CCM#134 (issue)" target="_parent">
<path fill="#6e5494" stroke="#000000" d="M745,-861C745,-861 599,-861 599,-861 593,-861 587,-855 587,-849 587,-849 587,-834 587,-834 587,-828 593,-822 599,-822 599,-822 745,-822 745,-822 751,-822 757,-828 757,-834 757,-834 757,-849 757,-849 757,-855 751,-861 745,-861"/>
<text text-anchor="middle" x="672" y="-839" font-family="Sans" font-size="10.00" fill="#000000">Remove references to derivation</text>
</a>
</g>
</g>
<!-- CCM#214&#45;&gt;CCM#134 -->
<g id="edge4" class="edge">
<title>CCM#214-&gt;CCM#134</title>
<path fill="none" stroke="#000000" stroke-width="2" d="M461.2135,-841.5C496.0744,-841.5 538.8819,-841.5 576.7915,-841.5"/>
<polygon fill="#000000" stroke="#000000" stroke-width="2" points="576.8281,-845.0001 586.828,-841.5 576.828,-838.0001 576.8281,-845.0001"/>
<text text-anchor="middle" x="512.9016" y="-833.5" font-family="Sans" font-size="10.00" fill="#000000">fixes</text>
</g>
<!-- configuration&#45;modules&#45;core#1810 -->
<g id="node8" class="node">
<title>configuration-modules-core#1810</title>
<g id="a_node8"><a xlink:href="https://github.com/quattor/configuration-modules-core/pull/1810" xlink:title="configuration-modules-core#1810 (pull-request)" target="_parent">
<polygon fill="#6cc644" stroke="#000000" points="193,-808.5 20,-808.5 20,-758.5 193,-758.5 193,-808.5"/>
<text text-anchor="middle" x="106.5" y="-786.5" font-family="Sans" font-size="10.00" fill="#000000">ncm-metaconfig: updated filebeat</text>
<text text-anchor="middle" x="106.5" y="-775.5" font-family="Sans" font-size="10.00" fill="#000000">7.x schema to fix #1728</text>
</a>
</g>
</g>
<!-- configuration&#45;modules&#45;core#1728 -->
<g id="node9" class="node">
<title>configuration-modules-core#1728</title>
<g id="a_node9"><a xlink:href="https://github.com/quattor/configuration-modules-core/issues/1728" xlink:title="configuration-modules-core#1728 (issue)" target="_parent">
<path fill="#6cc644" stroke="#000000" d="M467,-798C467,-798 317,-798 317,-798 311,-798 305,-792 305,-786 305,-786 305,-749 305,-749 305,-743 311,-737 317,-737 317,-737 467,-737 467,-737 473,-737 479,-743 479,-749 479,-749 479,-786 479,-786 479,-792 473,-798 467,-798"/>
<text text-anchor="middle" x="392" y="-776" font-family="Sans" font-size="10.00" fill="#000000">ncm-metaconfig: fixing filebeat</text>
<text text-anchor="middle" x="392" y="-765" font-family="Sans" font-size="10.00" fill="#000000">schema 7.0 and adding additional</text>
<text text-anchor="middle" x="392" y="-754" font-family="Sans" font-size="10.00" fill="#000000">processor</text>
</a>
</g>
</g>
<!-- configuration&#45;modules&#45;core#1810&#45;&gt;configuration&#45;modules&#45;core#1728 -->
<g id="edge5" class="edge">
<title>configuration-modules-core#1810-&gt;configuration-modules-core#1728</title>
<path fill="none" stroke="#000000" stroke-width="2" d="M193.3222,-778.6343C225.2871,-776.8429 261.6961,-774.8025 294.5375,-772.962"/>
<polygon fill="#000000" stroke="#000000" stroke-width="2" points="294.8178,-776.4519 304.6063,-772.3977 294.4261,-769.4628 294.8178,-776.4519"/>
<text text-anchor="middle" x="238.2486" y="-767.5001" font-family="Sans" font-size="10.00" fill="#000000">fixes</text>
</g>
<!-- configuration&#45;modules&#45;core#1788 -->
<g id="node10" class="node">
<title>configuration-modules-core#1788</title>
<g id="a_node10"><a xlink:href="https://github.com/quattor/configuration-modules-core/pull/1788" xlink:title="configuration-modules-core#1788 (pull-request)" target="_parent">
<polygon fill="#6e5494" stroke="#000000" points="177.5,-740.5 35.5,-740.5 35.5,-690.5 177.5,-690.5 177.5,-740.5"/>
<text text-anchor="middle" x="106.5" y="-718.5" font-family="Sans" font-size="10.00" fill="#000000">ncm-systemd: ensure unit</text>
<text text-anchor="middle" x="106.5" y="-707.5" font-family="Sans" font-size="10.00" fill="#000000">property is defined</text>
</a>
</g>
</g>
<!-- configuration&#45;modules&#45;core#1787 -->
<g id="node11" class="node">
<title>configuration-modules-core#1787</title>
<g id="a_node11"><a xlink:href="https://github.com/quattor/configuration-modules-core/issues/1787" xlink:title="configuration-modules-core#1787 (issue)" target="_parent">
<path fill="#6e5494" stroke="#000000" d="M465,-718.5C465,-718.5 319,-718.5 319,-718.5 313,-718.5 307,-712.5 307,-706.5 307,-706.5 307,-680.5 307,-680.5 307,-674.5 313,-668.5 319,-668.5 319,-668.5 465,-668.5 465,-668.5 471,-668.5 477,-674.5 477,-680.5 477,-680.5 477,-706.5 477,-706.5 477,-712.5 471,-718.5 465,-718.5"/>
<text text-anchor="middle" x="392" y="-696.5" font-family="Sans" font-size="10.00" fill="#000000">ncm-systemd 24.10.0: validation</text>
<text text-anchor="middle" x="392" y="-685.5" font-family="Sans" font-size="10.00" fill="#000000">fails if no unit is defined</text>
</a>
</g>
</g>
<!-- configuration&#45;modules&#45;core#1788&#45;&gt;configuration&#45;modules&#45;core#1787 -->
<g id="edge6" class="edge">
<title>configuration-modules-core#1788-&gt;configuration-modules-core#1787</title>
<path fill="none" stroke="#000000" stroke-width="2" d="M177.8072,-710.0052C213.7397,-707.2363 257.8092,-703.8404 296.6128,-700.8503"/>
<polygon fill="#000000" stroke="#000000" stroke-width="2" points="297.1782,-704.3172 306.8798,-700.0592 296.6404,-697.3379 297.1782,-704.3172"/>
<text text-anchor="middle" x="231.346" y="-697.032" font-family="Sans" font-size="10.00" fill="#000000">fixes</text>
</g>
<!-- configuration&#45;modules&#45;core#1783 -->
<g id="node12" class="node">
<title>configuration-modules-core#1783</title>
<g id="a_node12"><a xlink:href="https://github.com/quattor/configuration-modules-core/pull/1783" xlink:title="configuration-modules-core#1783 (pull-request)" target="_parent">
<polygon fill="#6cc644" stroke="#000000" points="191.5,-672 21.5,-672 21.5,-611 191.5,-611 191.5,-672"/>
<text text-anchor="middle" x="106.5" y="-650" font-family="Sans" font-size="10.00" fill="#000000">metaconfig/named: fix validation</text>
<text text-anchor="middle" x="106.5" y="-639" font-family="Sans" font-size="10.00" fill="#000000">of logging channels in</text>
<text text-anchor="middle" x="106.5" y="-628" font-family="Sans" font-size="10.00" fill="#000000">categories</text>
</a>
</g>
</g>
<!-- configuration&#45;modules&#45;core#1784 -->
<g id="node13" class="node">
<title>configuration-modules-core#1784</title>
<g id="a_node13"><a xlink:href="https://github.com/quattor/configuration-modules-core/issues/1784" xlink:title="configuration-modules-core#1784 (issue)" target="_parent">
<path fill="#6cc644" stroke="#000000" d="M463.5,-650C463.5,-650 320.5,-650 320.5,-650 314.5,-650 308.5,-644 308.5,-638 308.5,-638 308.5,-601 308.5,-601 308.5,-595 314.5,-589 320.5,-589 320.5,-589 463.5,-589 463.5,-589 469.5,-589 475.5,-595 475.5,-601 475.5,-601 475.5,-638 475.5,-638 475.5,-644 469.5,-650 463.5,-650"/>
<text text-anchor="middle" x="392" y="-628" font-family="Sans" font-size="10.00" fill="#000000">ncm-metaconfig 24.10.0 named</text>
<text text-anchor="middle" x="392" y="-617" font-family="Sans" font-size="10.00" fill="#000000">module: error in logging channel</text>
<text text-anchor="middle" x="392" y="-606" font-family="Sans" font-size="10.00" fill="#000000">name validation</text>
</a>
</g>
</g>
<!-- configuration&#45;modules&#45;core#1783&#45;&gt;configuration&#45;modules&#45;core#1784 -->
<g id="edge7" class="edge">
<title>configuration-modules-core#1783-&gt;configuration-modules-core#1784</title>
<path fill="none" stroke="#000000" stroke-width="2" d="M191.7727,-634.9291C225.2716,-632.3477 263.84,-629.3757 298.1292,-626.7335"/>
<polygon fill="#000000" stroke="#000000" stroke-width="2" points="298.4479,-630.2194 308.1494,-625.9613 297.91,-623.2401 298.4479,-630.2194"/>
<text text-anchor="middle" x="239.176" y="-622.4286" font-family="Sans" font-size="10.00" fill="#000000">fixes</text>
</g>
<!-- configuration&#45;modules&#45;core#1739 -->
<g id="node14" class="node">
<title>configuration-modules-core#1739</title>
<g id="a_node14"><a xlink:href="https://github.com/quattor/configuration-modules-core/pull/1739" xlink:title="configuration-modules-core#1739 (pull-request)" target="_parent">
<polygon fill="#6cc644" stroke="#000000" points="190.5,-593 22.5,-593 22.5,-532 190.5,-532 190.5,-593"/>
<text text-anchor="middle" x="106.5" y="-571" font-family="Sans" font-size="10.00" fill="#000000">ncm-network: dropin file support</text>
<text text-anchor="middle" x="106.5" y="-560" font-family="Sans" font-size="10.00" fill="#000000">for main configuration of</text>
<text text-anchor="middle" x="106.5" y="-549" font-family="Sans" font-size="10.00" fill="#000000">NetworkManager</text>
</a>
</g>
</g>
<!-- configuration&#45;modules&#45;core#1740 -->
<g id="node15" class="node">
<title>configuration-modules-core#1740</title>
<g id="a_node15"><a xlink:href="https://github.com/quattor/configuration-modules-core/issues/1740" xlink:title="configuration-modules-core#1740 (issue)" target="_parent">
<path fill="#6cc644" stroke="#000000" d="M453,-571C453,-571 331,-571 331,-571 325,-571 319,-565 319,-559 319,-559 319,-522 319,-522 319,-516 325,-510 331,-510 331,-510 453,-510 453,-510 459,-510 465,-516 465,-522 465,-522 465,-559 465,-559 465,-565 459,-571 453,-571"/>
<text text-anchor="middle" x="392" y="-549" font-family="Sans" font-size="10.00" fill="#000000">ncm-network - capability to</text>
<text text-anchor="middle" x="392" y="-538" font-family="Sans" font-size="10.00" fill="#000000">manage main section of</text>
<text text-anchor="middle" x="392" y="-527" font-family="Sans" font-size="10.00" fill="#000000">NetworkManager.conf</text>
</a>
</g>
</g>
<!-- configuration&#45;modules&#45;core#1739&#45;&gt;configuration&#45;modules&#45;core#1740 -->
<g id="edge8" class="edge">
<title>configuration-modules-core#1739-&gt;configuration-modules-core#1740</title>
<path fill="none" stroke="#000000" stroke-width="2" d="M190.6152,-556.0183C227.7512,-553.1566 271.295,-549.8013 308.3744,-546.944"/>
<polygon fill="#000000" stroke="#000000" stroke-width="2" points="308.949,-550.4102 318.6505,-546.1521 308.4111,-543.4309 308.949,-550.4102"/>
<text text-anchor="middle" x="243.7131" y="-543.079" font-family="Sans" font-size="10.00" fill="#000000">fixes</text>
</g>
<!-- configuration&#45;modules&#45;core#1507 -->
<g id="node16" class="node">
<title>configuration-modules-core#1507</title>
<g id="a_node16"><a xlink:href="https://github.com/quattor/configuration-modules-core/pull/1507" xlink:title="configuration-modules-core#1507 (pull-request)" target="_parent">
<polygon fill="#6cc644" stroke="#000000" points="188,-1021.5 25,-1021.5 25,-971.5 188,-971.5 188,-1021.5"/>
<text text-anchor="middle" x="106.5" y="-999.5" font-family="Sans" font-size="10.00" fill="#000000">[WIP] ncm-spma: yumdnf: use</text>
<text text-anchor="middle" x="106.5" y="-988.5" font-family="Sans" font-size="10.00" fill="#000000">spmaleaves dnf plugin</text>
</a>
</g>
</g>
<!-- configuration&#45;modules&#45;core#1401 -->
<g id="node17" class="node">
<title>configuration-modules-core#1401</title>
<polygon fill="#d3d3d3" stroke="#000000" points="478,-1016 306,-1016 306,-977 478,-977 478,-1016"/>
<text text-anchor="middle" x="392" y="-994" font-family="Sans" font-size="10.00" fill="#000000">configuration-modules-core#1401</text>
</g>
<!-- configuration&#45;modules&#45;core#1507&#45;&gt;configuration&#45;modules&#45;core#1401 -->
<g id="edge9" class="edge">
<title>configuration-modules-core#1507-&gt;configuration-modules-core#1401</title>
<path fill="none" stroke="#000000" stroke-dasharray="5,2" d="M188.3128,-996.5C221.8313,-996.5 260.8679,-996.5 295.747,-996.5"/>
<polygon fill="none" stroke="#000000" points="295.9451,-1000.0001 305.9451,-996.5 295.9451,-993.0001 295.9451,-1000.0001"/>
<text text-anchor="middle" x="229.6022" y="-988.5" font-family="Sans" font-size="10.00" fill="#000000">requires</text>
</g>
<!-- configuration&#45;modules&#45;core#1336 -->
<g id="node18" class="node">
<title>configuration-modules-core#1336</title>
<g id="a_node18"><a xlink:href="https://github.com/quattor/configuration-modules-core/pull/1336" xlink:title="configuration-modules-core#1336 (pull-request)" target="_parent">
<polygon fill="#6cc644" stroke="#000000" points="185.5,-1138 27.5,-1138 27.5,-1077 185.5,-1077 185.5,-1138"/>
<text text-anchor="middle" x="106.5" y="-1116" font-family="Sans" font-size="10.00" fill="#000000">ncm-network: Add support for</text>
<text text-anchor="middle" x="106.5" y="-1105" font-family="Sans" font-size="10.00" fill="#000000">CAF::Service actions after</text>
<text text-anchor="middle" x="106.5" y="-1094" font-family="Sans" font-size="10.00" fill="#000000">changes</text>
</a>
</g>
</g>
<!-- configuration&#45;modules&#45;core#1335 -->
<g id="node19" class="node">
<title>configuration-modules-core#1335</title>
<g id="a_node19"><a xlink:href="https://github.com/quattor/configuration-modules-core/pull/1335" xlink:title="configuration-modules-core#1335 (pull-request)" target="_parent">
<polygon fill="#6cc644" stroke="#000000" points="476.5,-1152 307.5,-1152 307.5,-1091 476.5,-1091 476.5,-1152"/>
<text text-anchor="middle" x="392" y="-1130" font-family="Sans" font-size="10.00" fill="#000000">ncm-metaconfig: Remove</text>
<text text-anchor="middle" x="392" y="-1119" font-family="Sans" font-size="10.00" fill="#000000">caf_service_action type to allow</text>
<text text-anchor="middle" x="392" y="-1108" font-family="Sans" font-size="10.00" fill="#000000">reuse</text>
</a>
</g>
</g>
<!-- configuration&#45;modules&#45;core#1336&#45;&gt;configuration&#45;modules&#45;core#1335 -->
<g id="edge10" class="edge">
<title>configuration-modules-core#1336-&gt;configuration-modules-core#1335</title>
<path fill="none" stroke="#000000" stroke-dasharray="5,2" d="M185.6485,-1111.3812C220.2668,-1113.0788 261.1579,-1115.0839 297.3703,-1116.8597"/>
<polygon fill="none" stroke="#000000" points="297.2914,-1120.3599 307.4508,-1117.354 297.6343,-1113.3683 297.2914,-1120.3599"/>
<text text-anchor="middle" x="229.2288" y="-1106.3764" font-family="Sans" font-size="10.00" fill="#000000">requires</text>
</g>
<!-- configuration&#45;modules&#45;core#1071 -->
<g id="node20" class="node">
<title>configuration-modules-core#1071</title>
<polygon fill="#d3d3d3" stroke="#000000" points="478,-1073 306,-1073 306,-1034 478,-1034 478,-1073"/>
<text text-anchor="middle" x="392" y="-1051" font-family="Sans" font-size="10.00" fill="#000000">configuration-modules-core#1071</text>
</g>
<!-- configuration&#45;modules&#45;core#1336&#45;&gt;configuration&#45;modules&#45;core#1071 -->
<g id="edge11" class="edge">
<title>configuration-modules-core#1336-&gt;configuration-modules-core#1071</title>
<path fill="none" stroke="#000000" stroke-width="2" d="M185.6485,-1092.5297C219.8143,-1086.0675 260.09,-1078.4497 295.9478,-1071.6675"/>
<polygon fill="#000000" stroke="#000000" stroke-width="2" points="296.7603,-1075.0759 305.9356,-1069.7784 295.4594,-1068.1979 296.7603,-1075.0759"/>
<text text-anchor="middle" x="234.9036" y="-1073.1329" font-family="Sans" font-size="10.00" fill="#000000">fixes</text>
</g>
<!-- template&#45;library&#45;core#191 -->
<g id="node21" class="node">
<title>template-library-core#191</title>
<polygon fill="#d3d3d3" stroke="#000000" points="741,-1141 603,-1141 603,-1102 741,-1102 741,-1141"/>
<text text-anchor="middle" x="672" y="-1119" font-family="Sans" font-size="10.00" fill="#000000">template-library-core#191</text>
</g>
<!-- configuration&#45;modules&#45;core#1335&#45;&gt;template&#45;library&#45;core#191 -->
<g id="edge12" class="edge">
<title>configuration-modules-core#1335-&gt;template-library-core#191</title>
<path fill="none" stroke="#000000" stroke-dasharray="5,2" d="M476.7691,-1121.5C513.5508,-1121.5 556.39,-1121.5 592.5525,-1121.5"/>
<polygon fill="none" stroke="#000000" points="592.5646,-1125.0001 602.5645,-1121.5 592.5645,-1118.0001 592.5646,-1125.0001"/>
<text text-anchor="middle" x="522.038" y="-1113.5" font-family="Sans" font-size="10.00" fill="#000000">requires</text>
</g>
<!-- configuration&#45;modules&#45;core#1148 -->
<g id="node22" class="node">
<title>configuration-modules-core#1148</title>
<g id="a_node22"><a xlink:href="https://github.com/quattor/configuration-modules-core/pull/1148" xlink:title="configuration-modules-core#1148 (pull-request)" target="_parent">
<polygon fill="#6cc644" stroke="#000000" points="196,-1228.5 17,-1228.5 17,-1178.5 196,-1178.5 196,-1228.5"/>
<text text-anchor="middle" x="106.5" y="-1206.5" font-family="Sans" font-size="10.00" fill="#000000">ncm-spma: Remove support from</text>
<text text-anchor="middle" x="106.5" y="-1195.5" font-family="Sans" font-size="10.00" fill="#000000">groups from spma yumng backend</text>
</a>
</g>
</g>
<!-- configuration&#45;modules&#45;core#952 -->
<g id="node23" class="node">
<title>configuration-modules-core#952</title>
<polygon fill="#d3d3d3" stroke="#000000" points="475.5,-1223 308.5,-1223 308.5,-1184 475.5,-1184 475.5,-1223"/>
<text text-anchor="middle" x="392" y="-1201" font-family="Sans" font-size="10.00" fill="#000000">configuration-modules-core#952</text>
</g>
<!-- configuration&#45;modules&#45;core#1148&#45;&gt;configuration&#45;modules&#45;core#952 -->
<g id="edge13" class="edge">
<title>configuration-modules-core#1148-&gt;configuration-modules-core#952</title>
<path fill="none" stroke="#000000" stroke-width="2" d="M196.0507,-1203.5C228.5064,-1203.5 265.2437,-1203.5 298.0663,-1203.5"/>
<polygon fill="#000000" stroke="#000000" stroke-width="2" points="298.1179,-1207.0001 308.1179,-1203.5 298.1178,-1200.0001 298.1179,-1207.0001"/>
<text text-anchor="middle" x="241.2058" y="-1195.5" font-family="Sans" font-size="10.00" fill="#000000">fixes</text>
</g>
<!-- ncm&#45;lib&#45;blockdevices#111 -->
<g id="node24" class="node">
<title>ncm-lib-blockdevices#111</title>
<g id="a_node24"><a xlink:href="https://github.com/quattor/ncm-lib-blockdevices/pull/111" xlink:title="ncm-lib-blockdevices#111 (pull-request)" target="_parent">
<polygon fill="#6e5494" stroke="#000000" points="192.5,-513.5 20.5,-513.5 20.5,-463.5 192.5,-463.5 192.5,-513.5"/>
<text text-anchor="middle" x="106.5" y="-491.5" font-family="Sans" font-size="10.00" fill="#000000">option to always use device path</text>
<text text-anchor="middle" x="106.5" y="-480.5" font-family="Sans" font-size="10.00" fill="#000000">for mounts instead of uuid</text>
</a>
</g>
</g>
<!-- ncm&#45;lib&#45;blockdevices#110 -->
<g id="node25" class="node">
<title>ncm-lib-blockdevices#110</title>
<g id="a_node25"><a xlink:href="https://github.com/quattor/ncm-lib-blockdevices/issues/110" xlink:title="ncm-lib-blockdevices#110 (issue)" target="_parent">
<path fill="#6e5494" stroke="#000000" d="M461.5,-491.5C461.5,-491.5 322.5,-491.5 322.5,-491.5 316.5,-491.5 310.5,-485.5 310.5,-479.5 310.5,-479.5 310.5,-453.5 310.5,-453.5 310.5,-447.5 316.5,-441.5 322.5,-441.5 322.5,-441.5 461.5,-441.5 461.5,-441.5 467.5,-441.5 473.5,-447.5 473.5,-453.5 473.5,-453.5 473.5,-479.5 473.5,-479.5 473.5,-485.5 467.5,-491.5 461.5,-491.5"/>
<text text-anchor="middle" x="392" y="-469.5" font-family="Sans" font-size="10.00" fill="#000000">Do not set uuid for vxvm vol in</text>
<text text-anchor="middle" x="392" y="-458.5" font-family="Sans" font-size="10.00" fill="#000000">fstab</text>
</a>
</g>
</g>
<!-- ncm&#45;lib&#45;blockdevices#111&#45;&gt;ncm&#45;lib&#45;blockdevices#110 -->
<g id="edge14" class="edge">
<title>ncm-lib-blockdevices#111-&gt;ncm-lib-blockdevices#110</title>
<path fill="none" stroke="#000000" stroke-width="2" d="M192.5466,-481.8694C226.4684,-479.2555 265.4912,-476.2485 299.9746,-473.5913"/>
<polygon fill="#000000" stroke="#000000" stroke-width="2" points="300.343,-477.0734 310.0445,-472.8153 299.8051,-470.094 300.343,-477.0734"/>
<text text-anchor="middle" x="240.1995" y="-469.3498" font-family="Sans" font-size="10.00" fill="#000000">fixes</text>
</g>
<!-- ncm&#45;lib&#45;blockdevices#106 -->
<g id="node26" class="node">
<title>ncm-lib-blockdevices#106</title>
<g id="a_node26"><a xlink:href="https://github.com/quattor/ncm-lib-blockdevices/pull/106" xlink:title="ncm-lib-blockdevices#106 (pull-request)" target="_parent">
<polygon fill="#6cc644" stroke="#000000" points="188.5,-445.5 24.5,-445.5 24.5,-395.5 188.5,-395.5 188.5,-445.5"/>
<text text-anchor="middle" x="106.5" y="-423.5" font-family="Sans" font-size="10.00" fill="#000000">Partition: Mask DM/LVM rules,</text>
<text text-anchor="middle" x="106.5" y="-412.5" font-family="Sans" font-size="10.00" fill="#000000">don't stop udev</text>
</a>
</g>
</g>
<!-- ncm&#45;lib&#45;blockdevices#105 -->
<g id="node27" class="node">
<title>ncm-lib-blockdevices#105</title>
<g id="a_node27"><a xlink:href="https://github.com/quattor/ncm-lib-blockdevices/issues/105" xlink:title="ncm-lib-blockdevices#105 (issue)" target="_parent">
<path fill="#6cc644" stroke="#000000" d="M455.5,-423C455.5,-423 328.5,-423 328.5,-423 322.5,-423 316.5,-417 316.5,-411 316.5,-411 316.5,-374 316.5,-374 316.5,-368 322.5,-362 328.5,-362 328.5,-362 455.5,-362 455.5,-362 461.5,-362 467.5,-368 467.5,-374 467.5,-374 467.5,-411 467.5,-411 467.5,-417 461.5,-423 455.5,-423"/>
<text text-anchor="middle" x="392" y="-401" font-family="Sans" font-size="10.00" fill="#000000">Pausing udev makes</text>
<text text-anchor="middle" x="392" y="-390" font-family="Sans" font-size="10.00" fill="#000000">`/dev/disk/by-*` unusable for</text>
<text text-anchor="middle" x="392" y="-379" font-family="Sans" font-size="10.00" fill="#000000">installations</text>
</a>
</g>
</g>
<!-- ncm&#45;lib&#45;blockdevices#106&#45;&gt;ncm&#45;lib&#45;blockdevices#105 -->
<g id="edge15" class="edge">
<title>ncm-lib-blockdevices#106-&gt;ncm-lib-blockdevices#105</title>
<path fill="none" stroke="#000000" stroke-width="2" d="M188.6954,-412.4388C225.4356,-408.8356 268.7451,-404.588 305.9289,-400.9413"/>
<polygon fill="#000000" stroke="#000000" stroke-width="2" points="306.6331,-404.3891 316.2437,-399.9297 305.9498,-397.4225 306.6331,-404.3891"/>
<text text-anchor="middle" x="241.3198" y="-398.1989" font-family="Sans" font-size="10.00" fill="#000000">fixes</text>
</g>
<!-- release#370 -->
<g id="node28" class="node">
<title>release#370</title>
<g id="a_node28"><a xlink:href="https://github.com/quattor/release/pull/370" xlink:title="release#370 (pull-request)" target="_parent">
<polygon fill="#6e5494" stroke="#000000" points="187.5,-377.5 25.5,-377.5 25.5,-327.5 187.5,-327.5 187.5,-377.5"/>
<text text-anchor="middle" x="106.5" y="-355.5" font-family="Sans" font-size="10.00" fill="#000000">Update template library scripts</text>
<text text-anchor="middle" x="106.5" y="-344.5" font-family="Sans" font-size="10.00" fill="#000000">for new repository structure</text>
</a>
</g>
</g>
<!-- release#373 -->
<g id="node29" class="node">
<title>release#373</title>
<g id="a_node29"><a xlink:href="https://github.com/quattor/release/issues/373" xlink:title="release#373 (issue)" target="_parent">
<path fill="#6e5494" stroke="#000000" d="M466.5,-344C466.5,-344 317.5,-344 317.5,-344 311.5,-344 305.5,-338 305.5,-332 305.5,-332 305.5,-295 305.5,-295 305.5,-289 311.5,-283 317.5,-283 317.5,-283 466.5,-283 466.5,-283 472.5,-283 478.5,-289 478.5,-295 478.5,-295 478.5,-332 478.5,-332 478.5,-338 472.5,-344 466.5,-344"/>
<text text-anchor="middle" x="392" y="-322" font-family="Sans" font-size="10.00" fill="#000000">get-template-library: update the</text>
<text text-anchor="middle" x="392" y="-311" font-family="Sans" font-size="10.00" fill="#000000">default master branch name after</text>
<text text-anchor="middle" x="392" y="-300" font-family="Sans" font-size="10.00" fill="#000000">master -&gt; main rename</text>
</a>
</g>
</g>
<!-- release#370&#45;&gt;release#373 -->
<g id="edge16" class="edge">
<title>release#370-&gt;release#373</title>
<path fill="none" stroke="#000000" stroke-width="2" d="M187.5492,-341.4285C221.0092,-336.8578 260.0695,-331.522 295.032,-326.7461"/>
<polygon fill="#000000" stroke="#000000" stroke-width="2" points="295.8224,-330.1707 305.2566,-325.3494 294.8749,-323.2351 295.8224,-330.1707"/>
<text text-anchor="middle" x="235.3129" y="-325.4012" font-family="Sans" font-size="10.00" fill="#000000">fixes</text>
</g>
<!-- template&#45;library&#45;grid#232 -->
<g id="node30" class="node">
<title>template-library-grid#232</title>
<g id="a_node30"><a xlink:href="https://github.com/quattor/template-library-grid/pull/232" xlink:title="template-library-grid#232 (pull-request)" target="_parent">
<polygon fill="#6cc644" stroke="#000000" points="183,-309.5 30,-309.5 30,-259.5 183,-259.5 183,-309.5"/>
<text text-anchor="middle" x="106.5" y="-287.5" font-family="Sans" font-size="10.00" fill="#000000">arc-ce: Export arc-ce feature</text>
<text text-anchor="middle" x="106.5" y="-276.5" font-family="Sans" font-size="10.00" fill="#000000">from aquilon at RAL</text>
</a>
</g>
</g>
<!-- template&#45;library&#45;grid#221 -->
<g id="node31" class="node">
<title>template-library-grid#221</title>
<g id="a_node31"><a xlink:href="https://github.com/quattor/template-library-grid/issues/221" xlink:title="template-library-grid#221 (issue)" target="_parent">
<path fill="#6cc644" stroke="#000000" d="M465,-175.5C465,-175.5 319,-175.5 319,-175.5 313,-175.5 307,-169.5 307,-163.5 307,-163.5 307,-137.5 307,-137.5 307,-131.5 313,-125.5 319,-125.5 319,-125.5 465,-125.5 465,-125.5 471,-125.5 477,-131.5 477,-137.5 477,-137.5 477,-163.5 477,-163.5 477,-169.5 471,-175.5 465,-175.5"/>
<text text-anchor="middle" x="392" y="-153.5" font-family="Sans" font-size="10.00" fill="#000000">Support for new CE types (ARC</text>
<text text-anchor="middle" x="392" y="-142.5" font-family="Sans" font-size="10.00" fill="#000000">CE, HTCONDOR CE)</text>
</a>
</g>
</g>
<!-- template&#45;library&#45;grid#232&#45;&gt;template&#45;library&#45;grid#221 -->
<g id="edge17" class="edge">
<title>template-library-grid#232-&gt;template-library-grid#221</title>
<path fill="none" stroke="#000000" stroke-width="2" d="M177.8003,-259.4376C184.3758,-256.6117 190.8662,-253.6194 197,-250.5 245.5024,-225.8337 252.6491,-206.6864 304.3083,-180.1521"/>
<polygon fill="#000000" stroke="#000000" stroke-width="2" points="305.9683,-183.2356 313.3646,-175.6497 302.852,-176.9675 305.9683,-183.2356"/>
<text text-anchor="middle" x="235.1193" y="-210.645" font-family="Sans" font-size="10.00" fill="#000000">fixes</text>
</g>
<!-- template&#45;library&#45;openstack#63 -->
<g id="node32" class="node">
<title>template-library-openstack#63</title>
<g id="a_node32"><a xlink:href="https://github.com/quattor/template-library-openstack/pull/63" xlink:title="template-library-openstack#63 (pull-request)" target="_parent">
<polygon fill="#6cc644" stroke="#000000" points="197,-241.5 16,-241.5 16,-191.5 197,-191.5 197,-241.5"/>
<text text-anchor="middle" x="106.5" y="-219.5" font-family="Sans" font-size="10.00" fill="#000000">Templates for OpenStack Antelope</text>
<text text-anchor="middle" x="106.5" y="-208.5" font-family="Sans" font-size="10.00" fill="#000000">version</text>
</a>
</g>
</g>
<!-- template&#45;library&#45;openstack#1 -->
<g id="node33" class="node">
<title>template-library-openstack#1</title>
<polygon fill="#d3d3d3" stroke="#000000" points="469,-107 315,-107 315,-68 469,-68 469,-107"/>
<text text-anchor="middle" x="392" y="-85" font-family="Sans" font-size="10.00" fill="#000000">template-library-openstack#1</text>
</g>
<!-- template&#45;library&#45;openstack#63&#45;&gt;template&#45;library&#45;openstack#1 -->
<g id="edge18" class="edge">
<title>template-library-openstack#63-&gt;template-library-openstack#1</title>
<path fill="none" stroke="#000000" stroke-width="2" d="M151.7422,-191.339C191.4137,-169.8534 251.0232,-138.9534 305,-116.5 309.9613,-114.4362 315.1265,-112.4125 320.3557,-110.4543"/>
<polygon fill="#000000" stroke="#000000" stroke-width="2" points="321.6128,-113.7214 329.8071,-107.0055 319.2132,-107.1455 321.6128,-113.7214"/>
<text text-anchor="middle" x="228.4157" y="-138.2318" font-family="Sans" font-size="10.00" fill="#000000">fixes</text>
</g>
</g>
</svg>
