<?xml version="1.0" encoding="UTF-8" standalone="no"?>
<!-- Generated by graphviz version 2.26.0 (20091210.2329)
 -->
<!-- Title: Dependencies Pages: 1 -->
<svg xmlns="http://www.w3.org/2000/svg" xmlns:xlink="http://www.w3.org/1999/xlink" width="1134pt" height="2478pt" viewBox="0.00 0.00 1134.00 2478.00">
<g id="graph1" class="graph" transform="scale(1 1) rotate(0) translate(4 2474)">
<title>Dependencies</title>
<polygon fill="white" stroke="white" points="-4,5 -4,-2474 1131,-2474 1131,5 -4,5"/>
<g id="graph2" class="cluster"><title>cluster_17.2</title>
<polygon fill="none" stroke="black" points="352,-106 352,-1528 1090,-1528 1090,-106 352,-106"/>
<text text-anchor="middle" x="721" y="-1513.2" font-family="Sans" font-size="12.00">17.2</text>
</g>
<g id="graph3" class="cluster"><title>cluster_17.3</title>
<polygon fill="none" stroke="black" points="40,-1536 40,-2028 576,-2028 576,-1536 40,-1536"/>
<text text-anchor="middle" x="308" y="-2013.2" font-family="Sans" font-size="12.00">17.3</text>
</g>
<g id="graph5" class="cluster"><title>cluster_17.4</title>
<polygon fill="none" stroke="black" points="8,-2086 8,-2462 572,-2462 572,-2086 8,-2086"/>
<text text-anchor="middle" x="290" y="-2447.2" font-family="Sans" font-size="12.00">17.4</text>
</g>
<!-- aii#244 -->
<g id="node1" class="node"><title>aii#244</title>
<a xlink:href="https://github.com/quattor/aii/pull/244" xlink:title="aii-ks: rename ncm-lib-blockdevices 'correct' to 'validate'" target="_parent">
<polygon fill="#6cc644" stroke="black" points="485,-1496 407,-1496 407,-1442 485,-1442 485,-1496"/>
<text text-anchor="middle" x="446" y="-1473" font-family="Sans" font-size="10.00">pull-request</text>
<text text-anchor="middle" x="446" y="-1460" font-family="Sans" font-size="10.00">aii#244</text>
</a>
</g>
<!-- ncm&#45;lib&#45;blockdevices#80 -->
<g id="node3" class="node"><title>ncm-lib-blockdevices#80</title>
<a xlink:href="https://github.com/quattor/ncm-lib-blockdevices/pull/80" xlink:title="Partition: export partition_sort instead of partition_compare" target="_parent">
<polygon fill="#6cc644" stroke="black" points="830,-1496 694,-1496 694,-1442 830,-1442 830,-1496"/>
<text text-anchor="middle" x="762" y="-1473" font-family="Sans" font-size="10.00">pull-request</text>
<text text-anchor="middle" x="762" y="-1460" font-family="Sans" font-size="10.00">ncm-lib-blockdevices#80</text>
</a>
</g>
<!-- aii#244&#45;&gt;ncm&#45;lib&#45;blockdevices#80 -->
<g id="edge2" class="edge"><title>aii#244-&gt;ncm-lib-blockdevices#80</title>
<path fill="none" stroke="black" stroke-dasharray="5,2" d="M485.702,-1469C535.164,-1469 620.817,-1469 683.678,-1469"/>
<polygon fill="none" stroke="black" points="683.955,-1472.5 693.955,-1469 683.955,-1465.5 683.955,-1472.5"/>
<text text-anchor="middle" x="604" y="-1473" font-family="Sans" font-size="10.00">requires</text>
</g>
<!-- aii#238 -->
<g id="node4" class="node"><title>aii#238</title>
<a xlink:href="https://github.com/quattor/aii/pull/238" xlink:title="aii-opennebula: Add VM image driver option" target="_parent">
<polygon fill="#6e5494" stroke="black" points="485,-1413 407,-1413 407,-1359 485,-1359 485,-1413"/>
<text text-anchor="middle" x="446" y="-1390" font-family="Sans" font-size="10.00">pull-request</text>
<text text-anchor="middle" x="446" y="-1377" font-family="Sans" font-size="10.00">aii#238</text>
</a>
</g>
<!-- aii#235 -->
<g id="node6" class="node"><title>aii#235</title>
<a xlink:href="https://github.com/quattor/aii/issues/235" xlink:title="aii-opennebula: Add qcow2 image support" target="_parent">
<ellipse fill="#bd2c00" stroke="black" cx="762" cy="-1386" rx="41.2167" ry="38.1838"/>
<text text-anchor="middle" x="762" y="-1390" font-family="Sans" font-size="10.00">issue</text>
<text text-anchor="middle" x="762" y="-1377" font-family="Sans" font-size="10.00">aii#235</text>
</a>
</g>
<!-- aii#238&#45;&gt;aii#235 -->
<g id="edge4" class="edge"><title>aii#238-&gt;aii#235</title>
<path fill="none" stroke="black" stroke-width="2" d="M485.702,-1386C542.622,-1386 647.472,-1386 710.358,-1386"/>
<polygon fill="black" stroke="black" points="710.455,-1389.5 720.455,-1386 710.455,-1382.5 710.455,-1389.5"/>
<text text-anchor="middle" x="604" y="-1390" font-family="Sans" font-size="10.00">fixes</text>
</g>
<!-- aii#237 -->
<g id="node7" class="node"><title>aii#237</title>
<a xlink:href="https://github.com/quattor/aii/pull/237" xlink:title="aii-core: switch to CAF::Download::LWP" target="_parent">
<polygon fill="#6e5494" stroke="black" points="801,-1330 723,-1330 723,-1276 801,-1276 801,-1330"/>
<text text-anchor="middle" x="762" y="-1307" font-family="Sans" font-size="10.00">pull-request</text>
<text text-anchor="middle" x="762" y="-1294" font-family="Sans" font-size="10.00">aii#237</text>
</a>
</g>
<!-- CAF#203 -->
<g id="node9" class="node"><title>CAF#203</title>
<a xlink:href="https://github.com/quattor/CAF/pull/203" xlink:title="CAF::Download::LWP: CAF interface for LWP to handle https settings" target="_parent">
<polygon fill="#6e5494" stroke="black" points="1081,-240 1003,-240 1003,-186 1081,-186 1081,-240"/>
<text text-anchor="middle" x="1042" y="-217" font-family="Sans" font-size="10.00">pull-request</text>
<text text-anchor="middle" x="1042" y="-204" font-family="Sans" font-size="10.00">CAF#203</text>
</a>
</g>
<!-- aii#237&#45;&gt;CAF#203 -->
<g id="edge6" class="edge"><title>aii#237-&gt;CAF#203</title>
<path fill="none" stroke="black" stroke-dasharray="5,2" d="M801.652,-1301.92C828.869,-1298.96 863.627,-1290.4 884,-1267 1020.19,-1110.57 1039.02,-419.774 1041.6,-250.527"/>
<polygon fill="none" stroke="black" points="1045.1,-250.416 1041.74,-240.368 1038.1,-250.317 1045.1,-250.416"/>
<text text-anchor="middle" x="921" y="-1232" font-family="Sans" font-size="10.00">requires</text>
</g>
<!-- aii#225 -->
<g id="node10" class="node"><title>aii#225</title>
<a xlink:href="https://github.com/quattor/aii/pull/225" xlink:title="[WIP] Add UEFI support through Grub-based PXE loader" target="_parent">
<polygon fill="#6cc644" stroke="black" points="173,-1985 95,-1985 95,-1931 173,-1931 173,-1985"/>
<text text-anchor="middle" x="134" y="-1962" font-family="Sans" font-size="10.00">pull-request</text>
<text text-anchor="middle" x="134" y="-1949" font-family="Sans" font-size="10.00">aii#225</text>
</a>
</g>
<!-- aii#216 -->
<g id="node12" class="node"><title>aii#216</title>
<a xlink:href="https://github.com/quattor/aii/issues/216" xlink:title="aii-pxelinux: add support for Grub-based UEFI PXE boot loader" target="_parent">
<ellipse fill="#6cc644" stroke="black" cx="446" cy="-1958" rx="41.2167" ry="38.1838"/>
<text text-anchor="middle" x="446" y="-1962" font-family="Sans" font-size="10.00">issue</text>
<text text-anchor="middle" x="446" y="-1949" font-family="Sans" font-size="10.00">aii#216</text>
</a>
</g>
<!-- aii#225&#45;&gt;aii#216 -->
<g id="edge8" class="edge"><title>aii#225-&gt;aii#216</title>
<path fill="none" stroke="black" stroke-width="2" d="M173.571,-1956.9C200.705,-1956.2 237.529,-1955.36 270,-1955 311.858,-1954.54 359.311,-1955.43 394.388,-1956.36"/>
<polygon fill="black" stroke="black" points="394.304,-1959.86 404.396,-1956.63 394.496,-1952.86 394.304,-1959.86"/>
<text text-anchor="middle" x="288" y="-1959" font-family="Sans" font-size="10.00">fixes</text>
</g>
<!-- aii#210 -->
<g id="node13" class="node"><title>aii#210</title>
<a xlink:href="https://github.com/quattor/aii/pull/210" xlink:title="Shellfe: support active config for plugins" target="_parent">
<polygon fill="#6cc644" stroke="black" points="173,-2347 95,-2347 95,-2293 173,-2293 173,-2347"/>
<text text-anchor="middle" x="134" y="-2324" font-family="Sans" font-size="10.00">pull-request</text>
<text text-anchor="middle" x="134" y="-2311" font-family="Sans" font-size="10.00">aii#210</text>
</a>
</g>
<!-- aii#209 -->
<g id="node15" class="node"><title>aii#209</title>
<a xlink:href="https://github.com/quattor/aii/issues/209" xlink:title="support ACTIVE_CONFIG" target="_parent">
<ellipse fill="#6cc644" stroke="black" cx="446" cy="-2320" rx="41.2167" ry="38.1838"/>
<text text-anchor="middle" x="446" y="-2324" font-family="Sans" font-size="10.00">issue</text>
<text text-anchor="middle" x="446" y="-2311" font-family="Sans" font-size="10.00">aii#209</text>
</a>
</g>
<!-- aii#210&#45;&gt;aii#209 -->
<g id="edge10" class="edge"><title>aii#210-&gt;aii#209</title>
<path fill="none" stroke="black" stroke-width="2" d="M173.515,-2320C229.473,-2320 331.887,-2320 393.971,-2320"/>
<polygon fill="black" stroke="black" points="394.324,-2323.5 404.324,-2320 394.324,-2316.5 394.324,-2323.5"/>
<text text-anchor="middle" x="288" y="-2324" font-family="Sans" font-size="10.00">fixes</text>
</g>
<!-- ncm&#45;ncd#74 -->
<g id="node17" class="node"><title>ncm-ncd#74</title>
<a xlink:href="https://github.com/quattor/ncm-ncd/pull/74" xlink:title="Set the current active config as an attribute to the component" target="_parent">
<polygon fill="#6cc644" stroke="black" points="487,-2430 405,-2430 405,-2376 487,-2376 487,-2430"/>
<text text-anchor="middle" x="446" y="-2407" font-family="Sans" font-size="10.00">pull-request</text>
<text text-anchor="middle" x="446" y="-2394" font-family="Sans" font-size="10.00">ncm-ncd#74</text>
</a>
</g>
<!-- aii#210&#45;&gt;ncm&#45;ncd#74 -->
<g id="edge12" class="edge"><title>aii#210-&gt;ncm-ncd#74</title>
<path fill="none" stroke="black" stroke-dasharray="5,2" d="M173.515,-2330.51C229.743,-2345.47 332.88,-2372.91 394.87,-2389.4"/>
<polygon fill="none" stroke="black" points="394.262,-2392.86 404.825,-2392.05 396.061,-2386.09 394.262,-2392.86"/>
<text text-anchor="middle" x="288" y="-2367" font-family="Sans" font-size="10.00">requires</text>
</g>
<!-- aii#203 -->
<g id="node19" class="node"><title>aii#203</title>
<polygon fill="lightgrey" stroke="black" points="475,-2076.5 417,-2076.5 417,-2035.5 475,-2035.5 475,-2076.5"/>
<text text-anchor="middle" x="446" y="-2053.5" font-family="Sans" font-size="10.00">aii#203</text>
</g>
<!-- aii#210&#45;&gt;aii#203 -->
<g id="edge14" class="edge"><title>aii#210-&gt;aii#203</title>
<path fill="none" stroke="black" stroke-dasharray="5,2" d="M173.591,-2293.67C199.791,-2274.18 232.75,-2245.3 252,-2212 270.456,-2180.07 251.475,-2162.89 270,-2131 286.279,-2102.98 295.157,-2096.78 324,-2082 349.635,-2068.87 381.563,-2062.36 406.326,-2059.14"/>
<polygon fill="none" stroke="black" points="406.936,-2062.6 416.461,-2057.96 406.121,-2055.64 406.936,-2062.6"/>
<text text-anchor="middle" x="288" y="-2135" font-family="Sans" font-size="10.00">requires</text>
</g>
<!-- CAF#204 -->
<g id="node20" class="node"><title>CAF#204</title>
<a xlink:href="https://github.com/quattor/CAF/pull/204" xlink:title="Reporter: add structured logging and message templating" target="_parent">
<polygon fill="#6cc644" stroke="black" points="485,-998 407,-998 407,-944 485,-944 485,-998"/>
<text text-anchor="middle" x="446" y="-975" font-family="Sans" font-size="10.00">pull-request</text>
<text text-anchor="middle" x="446" y="-962" font-family="Sans" font-size="10.00">CAF#204</text>
</a>
</g>
<!-- CAF#206 -->
<g id="node22" class="node"><title>CAF#206</title>
<a xlink:href="https://github.com/quattor/CAF/pull/206" xlink:title="Switch to 00-tqu" target="_parent">
<polygon fill="#6e5494" stroke="black" points="801,-998 723,-998 723,-944 801,-944 801,-998"/>
<text text-anchor="middle" x="762" y="-975" font-family="Sans" font-size="10.00">pull-request</text>
<text text-anchor="middle" x="762" y="-962" font-family="Sans" font-size="10.00">CAF#206</text>
</a>
</g>
<!-- CAF#204&#45;&gt;CAF#206 -->
<g id="edge16" class="edge"><title>CAF#204-&gt;CAF#206</title>
<path fill="none" stroke="black" stroke-dasharray="5,2" d="M485.702,-971C543.172,-971 649.501,-971 712.168,-971"/>
<polygon fill="none" stroke="black" points="712.212,-974.5 722.212,-971 712.212,-967.5 712.212,-974.5"/>
<text text-anchor="middle" x="604" y="-975" font-family="Sans" font-size="10.00">requires</text>
</g>
<!-- CAF#202 -->
<g id="node23" class="node"><title>CAF#202</title>
<a xlink:href="https://github.com/quattor/CAF/pull/202" xlink:title="FileWriter: use atomic write" target="_parent">
<polygon fill="#6cc644" stroke="black" points="173,-1670 95,-1670 95,-1616 173,-1616 173,-1670"/>
<text text-anchor="middle" x="134" y="-1647" font-family="Sans" font-size="10.00">pull-request</text>
<text text-anchor="middle" x="134" y="-1634" font-family="Sans" font-size="10.00">CAF#202</text>
</a>
</g>
<!-- CAF#202&#45;&gt;CAF#204 -->
<g id="edge18" class="edge"><title>CAF#202-&gt;CAF#204</title>
<path fill="none" stroke="black" stroke-dasharray="5,2" d="M173.721,-1641.58C199.98,-1638.42 232.957,-1629.74 252,-1607 424.418,-1401.07 150.639,-1212.14 324,-1007 341.665,-986.098 370.816,-976.996 396.194,-973.168"/>
<polygon fill="none" stroke="black" points="396.949,-976.601 406.429,-971.87 396.067,-969.656 396.949,-976.601"/>
<text text-anchor="middle" x="288" y="-1587" font-family="Sans" font-size="10.00">requires</text>
</g>
<!-- CAF#202&#45;&gt;CAF#206 -->
<g id="edge20" class="edge"><title>CAF#202-&gt;CAF#206</title>
<path fill="none" stroke="black" stroke-dasharray="5,2" d="M173.507,-1642.2C200.202,-1639.35 233.784,-1630.82 252,-1607 271.55,-1581.44 268.551,-1060.15 270,-1028 274.581,-926.371 249.973,-183.782 324,-114 372.5,-68.281 591.306,-88.8364 622,-148 642.14,-186.82 613.416,-900.274 640,-935 656.828,-956.982 686.43,-966.068 712.26,-969.617"/>
<polygon fill="none" stroke="black" points="711.977,-973.107 722.308,-970.755 712.765,-966.152 711.977,-973.107"/>
<text text-anchor="middle" x="446" y="-118" font-family="Sans" font-size="10.00">requires</text>
</g>
<!-- CAF#148 -->
<g id="node27" class="node"><title>CAF#148</title>
<a xlink:href="https://github.com/quattor/CAF/issues/148" xlink:title="CAF::FileWriter updates files in-place" target="_parent">
<ellipse fill="#6cc644" stroke="black" cx="446" cy="-1676" rx="48.9975" ry="38.1838"/>
<text text-anchor="middle" x="446" y="-1680" font-family="Sans" font-size="10.00">issue</text>
<text text-anchor="middle" x="446" y="-1667" font-family="Sans" font-size="10.00">CAF#148</text>
</a>
</g>
<!-- CAF#202&#45;&gt;CAF#148 -->
<g id="edge22" class="edge"><title>CAF#202-&gt;CAF#148</title>
<path fill="none" stroke="black" stroke-width="2" d="M173.515,-1647.18C227.336,-1652.87 324.134,-1663.11 386.688,-1669.73"/>
<polygon fill="black" stroke="black" points="386.491,-1673.23 396.803,-1670.8 387.227,-1666.26 386.491,-1673.23"/>
<text text-anchor="middle" x="288" y="-1665" font-family="Sans" font-size="10.00">fixes</text>
</g>
<!-- CAF#189 -->
<g id="node29" class="node"><title>CAF#189</title>
<a xlink:href="https://github.com/quattor/CAF/issues/189" xlink:title="FileWriter: add diff to history" target="_parent">
<ellipse fill="#6cc644" stroke="black" cx="446" cy="-1582" rx="48.9975" ry="38.1838"/>
<text text-anchor="middle" x="446" y="-1586" font-family="Sans" font-size="10.00">issue</text>
<text text-anchor="middle" x="446" y="-1573" font-family="Sans" font-size="10.00">CAF#189</text>
</a>
</g>
<!-- CAF#202&#45;&gt;CAF#189 -->
<g id="edge24" class="edge"><title>CAF#202-&gt;CAF#189</title>
<path fill="none" stroke="black" stroke-width="2" d="M173.515,-1635.27C227.647,-1624.69 325.253,-1605.61 387.768,-1593.39"/>
<polygon fill="black" stroke="black" points="388.726,-1596.76 397.868,-1591.41 387.383,-1589.89 388.726,-1596.76"/>
<text text-anchor="middle" x="288" y="-1621" font-family="Sans" font-size="10.00">fixes</text>
</g>
<!-- CCM#162 -->
<g id="node30" class="node"><title>CCM#162</title>
<a xlink:href="https://github.com/quattor/CCM/pull/162" xlink:title="Cleanup: move internal modules in subdirectories and remove/integrate util scripts" target="_parent">
<polygon fill="#6cc644" stroke="black" points="173,-1598 95,-1598 95,-1544 173,-1544 173,-1598"/>
<text text-anchor="middle" x="134" y="-1575" font-family="Sans" font-size="10.00">pull-request</text>
<text text-anchor="middle" x="134" y="-1562" font-family="Sans" font-size="10.00">CCM#162</text>
</a>
</g>
<!-- CCM#160 -->
<g id="node32" class="node"><title>CCM#160</title>
<a xlink:href="https://github.com/quattor/CCM/pull/160" xlink:title="Switch to 00-tqu" target="_parent">
<polygon fill="#6e5494" stroke="black" points="485,-190 407,-190 407,-136 485,-136 485,-190"/>
<text text-anchor="middle" x="446" y="-167" font-family="Sans" font-size="10.00">pull-request</text>
<text text-anchor="middle" x="446" y="-154" font-family="Sans" font-size="10.00">CCM#160</text>
</a>
</g>
<!-- CCM#162&#45;&gt;CCM#160 -->
<g id="edge26" class="edge"><title>CCM#162-&gt;CCM#160</title>
<path fill="none" stroke="black" stroke-dasharray="5,2" d="M136.001,-1543.83C149.745,-1360.26 232.373,-305.443 324,-199 341.791,-178.332 370.805,-169.227 396.075,-165.339"/>
<polygon fill="none" stroke="black" points="396.804,-168.773 406.268,-164.012 395.9,-161.832 396.804,-168.773"/>
<text text-anchor="middle" x="288" y="-363" font-family="Sans" font-size="10.00">requires</text>
</g>
<!-- CCM#156 -->
<g id="node34" class="node"><title>CCM#156</title>
<a xlink:href="https://github.com/quattor/CCM/pull/156" xlink:title="Fetch::Download: switch to CAF::Download::LWP" target="_parent">
<polygon fill="#6e5494" stroke="black" points="801,-168 723,-168 723,-114 801,-114 801,-168"/>
<text text-anchor="middle" x="762" y="-145" font-family="Sans" font-size="10.00">pull-request</text>
<text text-anchor="middle" x="762" y="-132" font-family="Sans" font-size="10.00">CCM#156</text>
</a>
</g>
<!-- CCM#162&#45;&gt;CCM#156 -->
<g id="edge28" class="edge"><title>CCM#162-&gt;CCM#156</title>
<path fill="none" stroke="black" stroke-dasharray="5,2" d="M135.132,-1543.94C143.573,-1348.99 199.841,-163.994 324,-73 442.095,13.5503 626.593,-66.1152 713.555,-112.733"/>
<polygon fill="none" stroke="black" points="711.956,-115.848 722.413,-117.55 715.3,-109.698 711.956,-115.848"/>
<text text-anchor="middle" x="446" y="-77" font-family="Sans" font-size="10.00">requires</text>
</g>
<!-- CCM#160&#45;&gt;CCM#156 -->
<g id="edge30" class="edge"><title>CCM#160-&gt;CCM#156</title>
<path fill="none" stroke="black" stroke-dasharray="5,2" d="M485.702,-160.236C543.172,-156.235 649.501,-148.832 712.168,-144.469"/>
<polygon fill="none" stroke="black" points="712.479,-147.956 722.212,-143.77 711.993,-140.973 712.479,-147.956"/>
<text text-anchor="middle" x="604" y="-157" font-family="Sans" font-size="10.00">requires</text>
</g>
<!-- CCM#156&#45;&gt;CAF#203 -->
<g id="edge32" class="edge"><title>CCM#156-&gt;CAF#203</title>
<path fill="none" stroke="black" stroke-dasharray="5,2" d="M801.523,-151.163C851.619,-164.045 937.991,-186.255 992.445,-200.257"/>
<polygon fill="none" stroke="black" points="991.669,-203.671 1002.23,-202.772 993.412,-196.892 991.669,-203.671"/>
<text text-anchor="middle" x="921" y="-190" font-family="Sans" font-size="10.00">requires</text>
</g>
<!-- CCM#152 -->
<g id="node38" class="node"><title>CCM#152</title>
<polygon fill="lightgrey" stroke="black" points="1078,-40.5 1006,-40.5 1006,0.5 1078,0.5 1078,-40.5"/>
<text text-anchor="middle" x="1042" y="-17.5" font-family="Sans" font-size="10.00">CCM#152</text>
</g>
<!-- CCM#156&#45;&gt;CCM#152 -->
<g id="edge34" class="edge"><title>CCM#156-&gt;CCM#152</title>
<path fill="none" stroke="black" stroke-dasharray="5,2" d="M792.13,-113.818C818.984,-91.1639 860.372,-59.9547 902,-43 931.634,-30.9304 967.242,-25.1876 995.131,-22.4585"/>
<polygon fill="none" stroke="black" points="995.759,-25.9169 1005.41,-21.5533 995.145,-18.9439 995.759,-25.9169"/>
<text text-anchor="middle" x="921" y="-47" font-family="Sans" font-size="10.00">requires</text>
</g>
<!-- configuration&#45;modules&#45;core#1035 -->
<g id="node39" class="node"><title>configuration-modules-core#1035</title>
<a xlink:href="https://github.com/quattor/configuration-modules-core/pull/1035" xlink:title="ncm-freeipa: CLI: support location based discovery" target="_parent">
<polygon fill="#6cc644" stroke="black" points="532,-1186 360,-1186 360,-1132 532,-1132 532,-1186"/>
<text text-anchor="middle" x="446" y="-1163" font-family="Sans" font-size="10.00">pull-request</text>
<text text-anchor="middle" x="446" y="-1150" font-family="Sans" font-size="10.00">configuration-modules-core#1035</text>
</a>
</g>
<!-- configuration&#45;modules&#45;core#1032 -->
<g id="node41" class="node"><title>configuration-modules-core#1032</title>
<a xlink:href="https://github.com/quattor/configuration-modules-core/issues/1032" xlink:title="freeipa: documentation issue" target="_parent">
<ellipse fill="#6cc644" stroke="black" cx="762" cy="-1126" rx="121.122" ry="38.1838"/>
<text text-anchor="middle" x="762" y="-1130" font-family="Sans" font-size="10.00">issue</text>
<text text-anchor="middle" x="762" y="-1117" font-family="Sans" font-size="10.00">configuration-modules-core#1032</text>
</a>
</g>
<!-- configuration&#45;modules&#45;core#1035&#45;&gt;configuration&#45;modules&#45;core#1032 -->
<g id="edge36" class="edge"><title>configuration-modules-core#1035-&gt;configuration-modules-core#1032</title>
<path fill="none" stroke="black" stroke-width="2" d="M532.348,-1149.98C564.448,-1146.63 601.554,-1142.76 636.452,-1139.11"/>
<polygon fill="black" stroke="black" points="637.133,-1142.56 646.715,-1138.04 636.406,-1135.6 637.133,-1142.56"/>
<text text-anchor="middle" x="604" y="-1148" font-family="Sans" font-size="10.00">fixes</text>
</g>
<!-- configuration&#45;modules&#45;core#1033 -->
<g id="node43" class="node"><title>configuration-modules-core#1033</title>
<a xlink:href="https://github.com/quattor/configuration-modules-core/issues/1033" xlink:title="freeipa: certutil doesn't initialise quattor/nssdb if directory exists but db doesn't" target="_parent">
<ellipse fill="#6cc644" stroke="black" cx="762" cy="-1220" rx="121.122" ry="38.1838"/>
<text text-anchor="middle" x="762" y="-1224" font-family="Sans" font-size="10.00">issue</text>
<text text-anchor="middle" x="762" y="-1211" font-family="Sans" font-size="10.00">configuration-modules-core#1033</text>
</a>
</g>
<!-- configuration&#45;modules&#45;core#1035&#45;&gt;configuration&#45;modules&#45;core#1033 -->
<g id="edge38" class="edge"><title>configuration-modules-core#1035-&gt;configuration-modules-core#1033</title>
<path fill="none" stroke="black" stroke-width="2" d="M532.348,-1175.67C568.079,-1182.57 610.011,-1190.66 648.198,-1198.03"/>
<polygon fill="black" stroke="black" points="647.856,-1201.53 658.338,-1199.99 649.183,-1194.66 647.856,-1201.53"/>
<text text-anchor="middle" x="604" y="-1196" font-family="Sans" font-size="10.00">fixes</text>
</g>
<!-- configuration&#45;modules&#45;core#1024 -->
<g id="node44" class="node"><title>configuration-modules-core#1024</title>
<a xlink:href="https://github.com/quattor/configuration-modules-core/pull/1024" xlink:title="ncm-syslog: cleanup and refactor" target="_parent">
<polygon fill="#6cc644" stroke="black" points="532,-1070 360,-1070 360,-1016 532,-1016 532,-1070"/>
<text text-anchor="middle" x="446" y="-1047" font-family="Sans" font-size="10.00">pull-request</text>
<text text-anchor="middle" x="446" y="-1034" font-family="Sans" font-size="10.00">configuration-modules-core#1024</text>
</a>
</g>
<!-- configuration&#45;modules&#45;core#1024&#45;&gt;CAF#206 -->
<g id="edge42" class="edge"><title>configuration-modules-core#1024-&gt;CAF#206</title>
<path fill="none" stroke="black" stroke-dasharray="5,2" d="M532.348,-1023.33C590.183,-1010.15 664.267,-993.268 712.413,-982.298"/>
<polygon fill="none" stroke="black" points="713.306,-985.685 722.278,-980.05 711.751,-978.86 713.306,-985.685"/>
<text text-anchor="middle" x="604" y="-1014" font-family="Sans" font-size="10.00">requires</text>
</g>
<!-- CAF#211 -->
<g id="node46" class="node"><title>CAF#211</title>
<a xlink:href="https://github.com/quattor/CAF/pull/211" xlink:title="FileEditor: fix add_or_replace_sysconfig_lines " target="_parent">
<polygon fill="#6e5494" stroke="black" points="801,-1070 723,-1070 723,-1016 801,-1016 801,-1070"/>
<text text-anchor="middle" x="762" y="-1047" font-family="Sans" font-size="10.00">pull-request</text>
<text text-anchor="middle" x="762" y="-1034" font-family="Sans" font-size="10.00">CAF#211</text>
</a>
</g>
<!-- configuration&#45;modules&#45;core#1024&#45;&gt;CAF#211 -->
<g id="edge40" class="edge"><title>configuration-modules-core#1024-&gt;CAF#211</title>
<path fill="none" stroke="black" stroke-dasharray="5,2" d="M532.348,-1043C590.062,-1043 663.957,-1043 712.111,-1043"/>
<polygon fill="none" stroke="black" points="712.278,-1046.5 722.278,-1043 712.278,-1039.5 712.278,-1046.5"/>
<text text-anchor="middle" x="604" y="-1047" font-family="Sans" font-size="10.00">requires</text>
</g>
<!-- configuration&#45;modules&#45;core#1009 -->
<g id="node48" class="node"><title>configuration-modules-core#1009</title>
<a xlink:href="https://github.com/quattor/configuration-modules-core/pull/1009" xlink:title="ncm-opennebula: Opennebula refactoring and AII code (WIP)" target="_parent">
<polygon fill="#6cc644" stroke="black" points="220,-1830 48,-1830 48,-1776 220,-1776 220,-1830"/>
<text text-anchor="middle" x="134" y="-1807" font-family="Sans" font-size="10.00">pull-request</text>
<text text-anchor="middle" x="134" y="-1794" font-family="Sans" font-size="10.00">configuration-modules-core#1009</text>
</a>
</g>
<!-- configuration&#45;modules&#45;core#978 -->
<g id="node50" class="node"><title>configuration-modules-core#978</title>
<a xlink:href="https://github.com/quattor/configuration-modules-core/issues/978" xlink:title="ncm-opennebula: include ONE AII code and refactoring" target="_parent">
<ellipse fill="#6cc644" stroke="black" cx="446" cy="-1864" rx="118.087" ry="38.1838"/>
<text text-anchor="middle" x="446" y="-1868" font-family="Sans" font-size="10.00">issue</text>
<text text-anchor="middle" x="446" y="-1855" font-family="Sans" font-size="10.00">configuration-modules-core#978</text>
</a>
</g>
<!-- configuration&#45;modules&#45;core#1009&#45;&gt;configuration&#45;modules&#45;core#978 -->
<g id="edge44" class="edge"><title>configuration-modules-core#1009-&gt;configuration-modules-core#978</title>
<path fill="none" stroke="black" stroke-width="2" d="M220.081,-1819.83C255.597,-1826.77 297.209,-1834.91 334.976,-1842.29"/>
<polygon fill="black" stroke="black" points="334.516,-1845.77 345.001,-1844.25 335.859,-1838.9 334.516,-1845.77"/>
<text text-anchor="middle" x="288" y="-1840" font-family="Sans" font-size="10.00">fixes</text>
</g>
<!-- configuration&#45;modules&#45;core#1018 -->
<g id="node52" class="node"><title>configuration-modules-core#1018</title>
<a xlink:href="https://github.com/quattor/configuration-modules-core/issues/1018" xlink:title="ncm-opennebula: aii VNET methods create new AR instead of an update" target="_parent">
<ellipse fill="#6cc644" stroke="black" cx="446" cy="-1770" rx="121.122" ry="38.1838"/>
<text text-anchor="middle" x="446" y="-1774" font-family="Sans" font-size="10.00">issue</text>
<text text-anchor="middle" x="446" y="-1761" font-family="Sans" font-size="10.00">configuration-modules-core#1018</text>
</a>
</g>
<!-- configuration&#45;modules&#45;core#1009&#45;&gt;configuration&#45;modules&#45;core#1018 -->
<g id="edge46" class="edge"><title>configuration-modules-core#1009-&gt;configuration-modules-core#1018</title>
<path fill="none" stroke="black" stroke-width="2" d="M220.081,-1793.9C251.057,-1790.62 286.671,-1786.85 320.325,-1783.29"/>
<polygon fill="black" stroke="black" points="321.123,-1786.73 330.7,-1782.2 320.387,-1779.77 321.123,-1786.73"/>
<text text-anchor="middle" x="288" y="-1793" font-family="Sans" font-size="10.00">fixes</text>
</g>
<!-- configuration&#45;modules&#45;core#1005 -->
<g id="node53" class="node"><title>configuration-modules-core#1005</title>
<a xlink:href="https://github.com/quattor/configuration-modules-core/pull/1005" xlink:title=" ncm-download: allow_older boolean to allow downloading remote files that are older then current file" target="_parent">
<polygon fill="#6cc644" stroke="black" points="532,-262 360,-262 360,-208 532,-208 532,-262"/>
<text text-anchor="middle" x="446" y="-239" font-family="Sans" font-size="10.00">pull-request</text>
<text text-anchor="middle" x="446" y="-226" font-family="Sans" font-size="10.00">configuration-modules-core#1005</text>
</a>
</g>
<!-- configuration&#45;modules&#45;core#984 -->
<g id="node55" class="node"><title>configuration-modules-core#984</title>
<a xlink:href="https://github.com/quattor/configuration-modules-core/pull/984" xlink:title="ncm-download: switch to CAF::Download::LWP" target="_parent">
<polygon fill="#6e5494" stroke="black" points="845,-240 679,-240 679,-186 845,-186 845,-240"/>
<text text-anchor="middle" x="762" y="-217" font-family="Sans" font-size="10.00">pull-request</text>
<text text-anchor="middle" x="762" y="-204" font-family="Sans" font-size="10.00">configuration-modules-core#984</text>
</a>
</g>
<!-- configuration&#45;modules&#45;core#1005&#45;&gt;configuration&#45;modules&#45;core#984 -->
<g id="edge48" class="edge"><title>configuration-modules-core#1005-&gt;configuration-modules-core#984</title>
<path fill="none" stroke="black" stroke-dasharray="5,2" d="M532.348,-228.988C574.473,-226.056 625.219,-222.523 668.283,-219.525"/>
<polygon fill="none" stroke="black" points="668.751,-223.001 678.484,-218.814 668.265,-216.017 668.751,-223.001"/>
<text text-anchor="middle" x="604" y="-229" font-family="Sans" font-size="10.00">requires</text>
</g>
<!-- configuration&#45;modules&#45;core#984&#45;&gt;CAF#203 -->
<g id="edge56" class="edge"><title>configuration-modules-core#984-&gt;CAF#203</title>
<path fill="none" stroke="black" stroke-dasharray="5,2" d="M845.63,-213C893.364,-213 951.593,-213 992.196,-213"/>
<polygon fill="none" stroke="black" points="992.381,-216.5 1002.38,-213 992.381,-209.5 992.381,-216.5"/>
<text text-anchor="middle" x="921" y="-217" font-family="Sans" font-size="10.00">requires</text>
</g>
<!-- configuration&#45;modules&#45;core#925 -->
<g id="node62" class="node"><title>configuration-modules-core#925</title>
<polygon fill="lightgrey" stroke="black" points="1125,-98.5 959,-98.5 959,-57.5 1125,-57.5 1125,-98.5"/>
<text text-anchor="middle" x="1042" y="-75.5" font-family="Sans" font-size="10.00">configuration-modules-core#925</text>
</g>
<!-- configuration&#45;modules&#45;core#984&#45;&gt;configuration&#45;modules&#45;core#925 -->
<g id="edge54" class="edge"><title>configuration-modules-core#984-&gt;configuration-modules-core#925</title>
<path fill="none" stroke="black" stroke-dasharray="1,5" d="M845.761,-194.43C859.04,-189.772 872.253,-184.034 884,-177 892.788,-171.738 935.144,-122.834 957.216,-104.044"/>
<polygon fill="black" stroke="black" points="965.276,-98.0504 959.937,-107.629 961.264,-101.034 957.252,-104.018 957.252,-104.018 957.252,-104.018 961.264,-101.034 954.567,-100.406 965.276,-98.0504 965.276,-98.0504"/>
<text text-anchor="middle" x="921" y="-164" font-family="Sans" font-size="10.00">replaces</text>
</g>
<!-- configuration&#45;modules&#45;core#999 -->
<g id="node56" class="node"><title>configuration-modules-core#999</title>
<a xlink:href="https://github.com/quattor/configuration-modules-core/pull/999" xlink:title="ncm-grub: full overhaul" target="_parent">
<polygon fill="#6e5494" stroke="black" points="529,-867 363,-867 363,-813 529,-813 529,-867"/>
<text text-anchor="middle" x="446" y="-844" font-family="Sans" font-size="10.00">pull-request</text>
<text text-anchor="middle" x="446" y="-831" font-family="Sans" font-size="10.00">configuration-modules-core#999</text>
</a>
</g>
<!-- configuration&#45;modules&#45;core#232 -->
<g id="node58" class="node"><title>configuration-modules-core#232</title>
<a xlink:href="https://github.com/quattor/configuration-modules-core/issues/232" xlink:title="ncm-grub: full rewrite needed!" target="_parent">
<ellipse fill="#bd2c00" stroke="black" cx="762" cy="-794" rx="118.087" ry="38.1838"/>
<text text-anchor="middle" x="762" y="-798" font-family="Sans" font-size="10.00">issue</text>
<text text-anchor="middle" x="762" y="-785" font-family="Sans" font-size="10.00">configuration-modules-core#232</text>
</a>
</g>
<!-- configuration&#45;modules&#45;core#999&#45;&gt;configuration&#45;modules&#45;core#232 -->
<g id="edge50" class="edge"><title>configuration-modules-core#999-&gt;configuration-modules-core#232</title>
<path fill="none" stroke="black" stroke-width="2" d="M529.853,-827.794C564.932,-822.687 606.319,-816.662 644.36,-811.125"/>
<polygon fill="black" stroke="black" points="645.079,-814.557 654.471,-809.653 644.071,-807.63 645.079,-814.557"/>
<text text-anchor="middle" x="604" y="-823" font-family="Sans" font-size="10.00">fixes</text>
</g>
<!-- configuration&#45;modules&#45;core#1000 -->
<g id="node60" class="node"><title>configuration-modules-core#1000</title>
<a xlink:href="https://github.com/quattor/configuration-modules-core/issues/1000" xlink:title="ncm-grub: drop non-multiboot support" target="_parent">
<ellipse fill="#bd2c00" stroke="black" cx="762" cy="-888" rx="121.122" ry="38.1838"/>
<text text-anchor="middle" x="762" y="-892" font-family="Sans" font-size="10.00">issue</text>
<text text-anchor="middle" x="762" y="-879" font-family="Sans" font-size="10.00">configuration-modules-core#1000</text>
</a>
</g>
<!-- configuration&#45;modules&#45;core#999&#45;&gt;configuration&#45;modules&#45;core#1000 -->
<g id="edge52" class="edge"><title>configuration-modules-core#999-&gt;configuration-modules-core#1000</title>
<path fill="none" stroke="black" stroke-width="2" d="M529.853,-852.737C564.345,-857.976 604.934,-864.142 642.446,-869.84"/>
<polygon fill="black" stroke="black" points="642.009,-873.314 652.422,-871.355 643.061,-866.393 642.009,-873.314"/>
<text text-anchor="middle" x="604" y="-870" font-family="Sans" font-size="10.00">fixes</text>
</g>
<!-- configuration&#45;modules&#45;core#950 -->
<g id="node64" class="node"><title>configuration-modules-core#950</title>
<a xlink:href="https://github.com/quattor/configuration-modules-core/issues/950" xlink:title="ncm-spma: Remove support for package groups from yum backends" target="_parent">
<ellipse fill="#6cc644" stroke="black" cx="134" cy="-2165" rx="118.087" ry="38.1838"/>
<text text-anchor="middle" x="134" y="-2169" font-family="Sans" font-size="10.00">issue</text>
<text text-anchor="middle" x="134" y="-2156" font-family="Sans" font-size="10.00">configuration-modules-core#950</text>
</a>
</g>
<!-- configuration&#45;modules&#45;core#951 -->
<g id="node66" class="node"><title>configuration-modules-core#951</title>
<a xlink:href="https://github.com/quattor/configuration-modules-core/issues/951" xlink:title="ncm-spma (yum): Remove support for package groups" target="_parent">
<ellipse fill="#6cc644" stroke="black" cx="446" cy="-2132" rx="118.087" ry="38.1838"/>
<text text-anchor="middle" x="446" y="-2136" font-family="Sans" font-size="10.00">issue</text>
<text text-anchor="middle" x="446" y="-2123" font-family="Sans" font-size="10.00">configuration-modules-core#951</text>
</a>
</g>
<!-- configuration&#45;modules&#45;core#950&#45;&gt;configuration&#45;modules&#45;core#951 -->
<g id="edge58" class="edge"><title>configuration-modules-core#950-&gt;configuration-modules-core#951</title>
<path fill="none" stroke="black" stroke-dasharray="5,2" d="M246.198,-2153.13C271.338,-2150.47 298.128,-2147.64 323.657,-2144.94"/>
<polygon fill="none" stroke="black" points="324.173,-2148.41 333.749,-2143.87 323.436,-2141.44 324.173,-2148.41"/>
<text text-anchor="middle" x="288" y="-2155" font-family="Sans" font-size="10.00">requires</text>
</g>
<!-- configuration&#45;modules&#45;core#952 -->
<g id="node68" class="node"><title>configuration-modules-core#952</title>
<a xlink:href="https://github.com/quattor/configuration-modules-core/issues/952" xlink:title="ncm-spma (yumng): Remove support for package groups" target="_parent">
<ellipse fill="#6cc644" stroke="black" cx="446" cy="-2226" rx="118.087" ry="38.1838"/>
<text text-anchor="middle" x="446" y="-2230" font-family="Sans" font-size="10.00">issue</text>
<text text-anchor="middle" x="446" y="-2217" font-family="Sans" font-size="10.00">configuration-modules-core#952</text>
</a>
</g>
<!-- configuration&#45;modules&#45;core#950&#45;&gt;configuration&#45;modules&#45;core#952 -->
<g id="edge60" class="edge"><title>configuration-modules-core#950-&gt;configuration-modules-core#952</title>
<path fill="none" stroke="black" stroke-dasharray="5,2" d="M234.867,-2184.72C266.813,-2190.97 302.3,-2197.9 334.922,-2204.28"/>
<polygon fill="none" stroke="black" points="334.461,-2207.76 344.947,-2206.24 335.804,-2200.89 334.461,-2207.76"/>
<text text-anchor="middle" x="288" y="-2202" font-family="Sans" font-size="10.00">requires</text>
</g>
<!-- maven&#45;tools#127 -->
<g id="node69" class="node"><title>maven-tools#127</title>
<a xlink:href="https://github.com/quattor/maven-tools/pull/127" xlink:title="ProfileCache: prepare_profile_cache checks for valid object template" target="_parent">
<polygon fill="#6e5494" stroke="black" points="497,-676 395,-676 395,-622 497,-622 497,-676"/>
<text text-anchor="middle" x="446" y="-653" font-family="Sans" font-size="10.00">pull-request</text>
<text text-anchor="middle" x="446" y="-640" font-family="Sans" font-size="10.00">maven-tools#127</text>
</a>
</g>
<!-- maven&#45;tools#125 -->
<g id="node71" class="node"><title>maven-tools#125</title>
<a xlink:href="https://github.com/quattor/maven-tools/pull/125" xlink:title="Critic: no more backticks/qx/system, use CAF::Process" target="_parent">
<polygon fill="#6e5494" stroke="black" points="813,-644 711,-644 711,-590 813,-590 813,-644"/>
<text text-anchor="middle" x="762" y="-621" font-family="Sans" font-size="10.00">pull-request</text>
<text text-anchor="middle" x="762" y="-608" font-family="Sans" font-size="10.00">maven-tools#125</text>
</a>
</g>
<!-- maven&#45;tools#127&#45;&gt;maven&#45;tools#125 -->
<g id="edge62" class="edge"><title>maven-tools#127-&gt;maven-tools#125</title>
<path fill="none" stroke="black" stroke-dasharray="5,2" d="M497.827,-643.752C553.244,-638.14 641.094,-629.244 700.103,-623.268"/>
<polygon fill="none" stroke="black" points="700.811,-626.714 710.407,-622.225 700.105,-619.75 700.811,-626.714"/>
<text text-anchor="middle" x="604" y="-638" font-family="Sans" font-size="10.00">requires</text>
</g>
<!-- maven&#45;tools#126 -->
<g id="node73" class="node"><title>maven-tools#126</title>
<a xlink:href="https://github.com/quattor/maven-tools/issues/126" xlink:title="test execution stalled if the associated pan template is not an object template" target="_parent">
<ellipse fill="#bd2c00" stroke="black" cx="762" cy="-700" rx="72.832" ry="38.1838"/>
<text text-anchor="middle" x="762" y="-704" font-family="Sans" font-size="10.00">issue</text>
<text text-anchor="middle" x="762" y="-691" font-family="Sans" font-size="10.00">maven-tools#126</text>
</a>
</g>
<!-- maven&#45;tools#127&#45;&gt;maven&#45;tools#126 -->
<g id="edge64" class="edge"><title>maven-tools#127-&gt;maven-tools#126</title>
<path fill="none" stroke="black" stroke-width="2" d="M497.827,-657.365C547.793,-665.429 624.126,-677.748 681.912,-687.074"/>
<polygon fill="black" stroke="black" points="681.68,-690.582 692.11,-688.72 682.796,-683.672 681.68,-690.582"/>
<text text-anchor="middle" x="604" y="-681" font-family="Sans" font-size="10.00">fixes</text>
</g>
<!-- ncm&#45;lib&#45;blockdevices#76 -->
<g id="node74" class="node"><title>ncm-lib-blockdevices#76</title>
<a xlink:href="https://github.com/quattor/ncm-lib-blockdevices/pull/76" xlink:title="LV: force lvconvert by passing -y" target="_parent">
<polygon fill="#6e5494" stroke="black" points="514,-561 378,-561 378,-507 514,-507 514,-561"/>
<text text-anchor="middle" x="446" y="-538" font-family="Sans" font-size="10.00">pull-request</text>
<text text-anchor="middle" x="446" y="-525" font-family="Sans" font-size="10.00">ncm-lib-blockdevices#76</text>
</a>
</g>
<!-- ncm&#45;lib&#45;blockdevices#75 -->
<g id="node76" class="node"><title>ncm-lib-blockdevices#75</title>
<a xlink:href="https://github.com/quattor/ncm-lib-blockdevices/issues/75" xlink:title="lvconvert requires -y option" target="_parent">
<ellipse fill="#bd2c00" stroke="black" cx="762" cy="-534" rx="96.1665" ry="38.1838"/>
<text text-anchor="middle" x="762" y="-538" font-family="Sans" font-size="10.00">issue</text>
<text text-anchor="middle" x="762" y="-525" font-family="Sans" font-size="10.00">ncm-lib-blockdevices#75</text>
</a>
</g>
<!-- ncm&#45;lib&#45;blockdevices#76&#45;&gt;ncm&#45;lib&#45;blockdevices#75 -->
<g id="edge66" class="edge"><title>ncm-lib-blockdevices#76-&gt;ncm-lib-blockdevices#75</title>
<path fill="none" stroke="black" stroke-width="2" d="M514.178,-534C555.422,-534 608.894,-534 655.606,-534"/>
<polygon fill="black" stroke="black" points="655.772,-537.5 665.772,-534 655.772,-530.5 655.772,-537.5"/>
<text text-anchor="middle" x="604" y="-538" font-family="Sans" font-size="10.00">fixes</text>
</g>
<!-- template&#45;library&#45;core#146 -->
<g id="node77" class="node"><title>template-library-core#146</title>
<a xlink:href="https://github.com/quattor/template-library-core/pull/146" xlink:title="Remove /system/oldnames from schema" target="_parent">
<polygon fill="#6e5494" stroke="black" points="515,-478 377,-478 377,-424 515,-424 515,-478"/>
<text text-anchor="middle" x="446" y="-455" font-family="Sans" font-size="10.00">pull-request</text>
<text text-anchor="middle" x="446" y="-442" font-family="Sans" font-size="10.00">template-library-core#146</text>
</a>
</g>
<!-- template&#45;library&#45;core#145 -->
<g id="node79" class="node"><title>template-library-core#145</title>
<a xlink:href="https://github.com/quattor/template-library-core/issues/145" xlink:title="What is oldnames intended for?" target="_parent">
<ellipse fill="#bd2c00" stroke="black" cx="762" cy="-440" rx="97.0803" ry="38.1838"/>
<text text-anchor="middle" x="762" y="-444" font-family="Sans" font-size="10.00">issue</text>
<text text-anchor="middle" x="762" y="-431" font-family="Sans" font-size="10.00">template-library-core#145</text>
</a>
</g>
<!-- template&#45;library&#45;core#146&#45;&gt;template&#45;library&#45;core#145 -->
<g id="edge68" class="edge"><title>template-library-core#146-&gt;template-library-core#145</title>
<path fill="none" stroke="black" stroke-width="2" d="M515.348,-448.586C556.139,-447.166 608.587,-445.34 654.623,-443.738"/>
<polygon fill="black" stroke="black" points="654.774,-447.235 664.646,-443.389 654.531,-440.239 654.774,-447.235"/>
<text text-anchor="middle" x="604" y="-450" font-family="Sans" font-size="10.00">fixes</text>
</g>
<!-- template&#45;library&#45;core#142 -->
<g id="node80" class="node"><title>template-library-core#142</title>
<a xlink:href="https://github.com/quattor/template-library-core/pull/142" xlink:title="Add structures to model operating system information" target="_parent">
<polygon fill="#6e5494" stroke="black" points="515,-406 377,-406 377,-352 515,-352 515,-406"/>
<text text-anchor="middle" x="446" y="-383" font-family="Sans" font-size="10.00">pull-request</text>
<text text-anchor="middle" x="446" y="-370" font-family="Sans" font-size="10.00">template-library-core#142</text>
</a>
</g>
<!-- template&#45;library&#45;core#143 -->
<g id="node82" class="node"><title>template-library-core#143</title>
<a xlink:href="https://github.com/quattor/template-library-core/pull/143" xlink:title="Add CPU architecture type definition" target="_parent">
<polygon fill="#6e5494" stroke="black" points="831,-384 693,-384 693,-330 831,-330 831,-384"/>
<text text-anchor="middle" x="762" y="-361" font-family="Sans" font-size="10.00">pull-request</text>
<text text-anchor="middle" x="762" y="-348" font-family="Sans" font-size="10.00">template-library-core#143</text>
</a>
</g>
<!-- template&#45;library&#45;core#142&#45;&gt;template&#45;library&#45;core#143 -->
<g id="edge70" class="edge"><title>template-library-core#142-&gt;template-library-core#143</title>
<path fill="none" stroke="black" stroke-dasharray="5,2" d="M515.348,-374.172C564.742,-370.733 631.226,-366.104 682.724,-362.519"/>
<polygon fill="none" stroke="black" points="683.081,-366.003 692.814,-361.817 682.595,-359.02 683.081,-366.003"/>
<text text-anchor="middle" x="604" y="-373" font-family="Sans" font-size="10.00">requires</text>
</g>
<!-- template&#45;library&#45;core#139 -->
<g id="node83" class="node"><title>template-library-core#139</title>
<a xlink:href="https://github.com/quattor/template-library-core/pull/139" xlink:title="blockdevices: add validation check configuration to physical devices" target="_parent">
<polygon fill="#6e5494" stroke="black" points="515,-334 377,-334 377,-280 515,-280 515,-334"/>
<text text-anchor="middle" x="446" y="-311" font-family="Sans" font-size="10.00">pull-request</text>
<text text-anchor="middle" x="446" y="-298" font-family="Sans" font-size="10.00">template-library-core#139</text>
</a>
</g>
<!-- ncm&#45;lib&#45;blockdevices#73 -->
<g id="node85" class="node"><title>ncm-lib-blockdevices#73</title>
<a xlink:href="https://github.com/quattor/ncm-lib-blockdevices/pull/73" xlink:title="Blockdevices: determine correct disksize using integers (not floats) in bash" target="_parent">
<polygon fill="#6e5494" stroke="black" points="830,-312 694,-312 694,-258 830,-258 830,-312"/>
<text text-anchor="middle" x="762" y="-289" font-family="Sans" font-size="10.00">pull-request</text>
<text text-anchor="middle" x="762" y="-276" font-family="Sans" font-size="10.00">ncm-lib-blockdevices#73</text>
</a>
</g>
<!-- template&#45;library&#45;core#139&#45;&gt;ncm&#45;lib&#45;blockdevices#73 -->
<g id="edge72" class="edge"><title>template-library-core#139-&gt;ncm-lib-blockdevices#73</title>
<path fill="none" stroke="black" stroke-dasharray="5,2" d="M515.348,-302.172C565.082,-298.709 632.144,-294.041 683.787,-290.445"/>
<polygon fill="none" stroke="black" points="684.168,-293.927 693.901,-289.741 683.682,-286.944 684.168,-293.927"/>
<text text-anchor="middle" x="604" y="-301" font-family="Sans" font-size="10.00">requires</text>
</g>
</g>
</svg>
