<?xml version="1.0" encoding="UTF-8" standalone="no"?>
<?xml-stylesheet href="relationships.css" type="text/css"?>
<!-- Generated by graphviz version 2.26.0 (20091210.2329)
 -->
<!-- Title: Dependencies Pages: 1 -->
<svg xmlns="http://www.w3.org/2000/svg" xmlns:xlink="http://www.w3.org/1999/xlink" width="730pt" height="2256pt" viewBox="0.00 0.00 730.00 2256.00">
<g id="graph1" class="graph" transform="scale(1 1) rotate(0) translate(4 2252)">
<title>Dependencies</title>
<polygon fill="white" stroke="white" points="-4,5 -4,-2252 727,-2252 727,5 -4,5"/>
<g id="graph6" class="cluster"><title>cluster_18.3</title>
<polygon fill="none" stroke="black" points="24,-1688 24,-2070 562,-2070 562,-1688 24,-1688"/>
<text text-anchor="middle" x="293" y="-2055.2" font-family="Sans" font-size="12.00">18.3</text>
</g>
<g id="graph7" class="cluster"><title>cluster_18.6</title>
<polygon fill="none" stroke="black" points="24,-224 24,-1567 714,-1567 714,-224 24,-224"/>
<text text-anchor="middle" x="369" y="-1552.2" font-family="Sans" font-size="12.00">18.6</text>
</g>
<!-- aii#281 -->
<g id="node1" class="node"><title>aii#281</title>
<a xlink:href="https://github.com/quattor/aii/pull/281" xlink:title="ks: set useexisting_lv flag for el7" target="_parent">
<polygon fill="#6cc644" stroke="black" points="157,-286 79,-286 79,-232 157,-232 157,-286"/>
<text text-anchor="middle" x="118" y="-263" font-family="Sans" font-size="10.00">pull-request</text>
<text text-anchor="middle" x="118" y="-250" font-family="Sans" font-size="10.00">aii#281</text>
</a>
</g>
<!-- aii#88 -->
<g id="node3" class="node"><title>aii#88</title>
<polygon fill="lightgrey" stroke="black" points="459,-40.5 405,-40.5 405,0.5 459,0.5 459,-40.5"/>
<text text-anchor="middle" x="432" y="-17.5" font-family="Sans" font-size="10.00">aii#88</text>
</g>
<!-- aii#281&#45;&gt;aii#88 -->
<g id="edge2" class="edge"><title>aii#281-&gt;aii#88</title>
<path fill="none" stroke="black" stroke-dasharray="5,2" d="M126.569,-231.627C142.932,-184.342 183.429,-88.1036 254,-43 296.478,-15.8513 356.36,-13.8315 394.681,-16.0217"/>
<polygon fill="none" stroke="black" points="394.666,-19.5291 404.886,-16.7337 395.154,-12.5461 394.666,-19.5291"/>
<text text-anchor="middle" x="273" y="-47" font-family="Sans" font-size="10.00">requires</text>
</g>
<!-- aii#280 -->
<g id="node4" class="node"><title>aii#280</title>
<a xlink:href="https://github.com/quattor/aii/pull/280" xlink:title="Support active configuration attribute for plugins" target="_parent">
<polygon fill="#6cc644" stroke="black" points="157,-358 79,-358 79,-304 157,-304 157,-358"/>
<text text-anchor="middle" x="118" y="-335" font-family="Sans" font-size="10.00">pull-request</text>
<text text-anchor="middle" x="118" y="-322" font-family="Sans" font-size="10.00">aii#280</text>
</a>
</g>
<!-- aii#209 -->
<g id="node6" class="node"><title>aii#209</title>
<a xlink:href="https://github.com/quattor/aii/issues/209" xlink:title="support ACTIVE_CONFIG" target="_parent">
<ellipse fill="#6cc644" stroke="black" cx="432" cy="-270" rx="41.2167" ry="38.1838"/>
<text text-anchor="middle" x="432" y="-274" font-family="Sans" font-size="10.00">issue</text>
<text text-anchor="middle" x="432" y="-261" font-family="Sans" font-size="10.00">aii#209</text>
</a>
</g>
<!-- aii#280&#45;&gt;aii#209 -->
<g id="edge4" class="edge"><title>aii#280-&gt;aii#209</title>
<path fill="none" stroke="black" stroke-width="2" d="M157.768,-323.274C214.592,-312.235 319.016,-291.949 381.316,-279.846"/>
<polygon fill="black" stroke="black" points="382.164,-283.247 391.313,-277.904 380.829,-276.375 382.164,-283.247"/>
<text text-anchor="middle" x="273" y="-309" font-family="Sans" font-size="10.00">fixes</text>
</g>
<!-- ncm&#45;ncd#74 -->
<g id="node8" class="node"><title>ncm-ncd#74</title>
<a xlink:href="https://github.com/quattor/ncm-ncd/pull/74" xlink:title="Set the current active config as an attribute to the component" target="_parent">
<polygon fill="#6cc644" stroke="black" points="473,-380 391,-380 391,-326 473,-326 473,-380"/>
<text text-anchor="middle" x="432" y="-357" font-family="Sans" font-size="10.00">pull-request</text>
<text text-anchor="middle" x="432" y="-344" font-family="Sans" font-size="10.00">ncm-ncd#74</text>
</a>
</g>
<!-- aii#280&#45;&gt;ncm&#45;ncd#74 -->
<g id="edge6" class="edge"><title>aii#280-&gt;ncm-ncd#74</title>
<path fill="none" stroke="black" stroke-dasharray="5,2" d="M157.768,-333.786C214.435,-337.757 318.442,-345.044 380.801,-349.413"/>
<polygon fill="none" stroke="black" points="380.592,-352.907 390.813,-350.114 381.082,-345.924 380.592,-352.907"/>
<text text-anchor="middle" x="273" y="-347" font-family="Sans" font-size="10.00">requires</text>
</g>
<!-- aii#203 -->
<g id="node10" class="node"><title>aii#203</title>
<polygon fill="lightgrey" stroke="black" points="461,-98.5 403,-98.5 403,-57.5 461,-57.5 461,-98.5"/>
<text text-anchor="middle" x="432" y="-75.5" font-family="Sans" font-size="10.00">aii#203</text>
</g>
<!-- aii#280&#45;&gt;aii#203 -->
<g id="edge8" class="edge"><title>aii#280-&gt;aii#203</title>
<path fill="none" stroke="black" stroke-dasharray="5,2" d="M157.558,-329.72C183.919,-326.626 217.082,-317.988 236,-295 285.685,-234.628 202.398,-178.742 254,-120 288.121,-81.1589 350.846,-74.7358 391.986,-75.2055"/>
<polygon fill="none" stroke="black" points="392.119,-78.7099 402.205,-75.468 392.299,-71.7122 392.119,-78.7099"/>
<text text-anchor="middle" x="273" y="-124" font-family="Sans" font-size="10.00">requires</text>
</g>
<!-- aii#210 -->
<g id="node12" class="node"><title>aii#210</title>
<polygon fill="lightgrey" stroke="black" points="461,-156.5 403,-156.5 403,-115.5 461,-115.5 461,-156.5"/>
<text text-anchor="middle" x="432" y="-133.5" font-family="Sans" font-size="10.00">aii#210</text>
</g>
<!-- aii#280&#45;&gt;aii#210 -->
<g id="edge10" class="edge"><title>aii#280-&gt;aii#210</title>
<path fill="none" stroke="black" stroke-dasharray="1,5" d="M157.634,-329.511C183.854,-326.309 216.819,-317.629 236,-295 275.425,-248.49 210.82,-202.047 254,-159 289.83,-123.281 351.813,-123.619 392.361,-128.645"/>
<polygon fill="black" stroke="black" points="402.432,-130.043 391.908,-133.125 397.479,-129.355 392.527,-128.667 392.527,-128.667 392.527,-128.667 397.479,-129.355 393.146,-124.21 402.432,-130.043 402.432,-130.043"/>
<text text-anchor="middle" x="273" y="-163" font-family="Sans" font-size="10.00">replaces</text>
</g>
<!-- CAF#257 -->
<g id="node13" class="node"><title>CAF#257</title>
<a xlink:href="https://github.com/quattor/CAF/pull/257" xlink:title="Process: run process as another user" target="_parent">
<polygon fill="#6cc644" stroke="black" points="157,-1524 79,-1524 79,-1470 157,-1470 157,-1524"/>
<text text-anchor="middle" x="118" y="-1501" font-family="Sans" font-size="10.00">pull-request</text>
<text text-anchor="middle" x="118" y="-1488" font-family="Sans" font-size="10.00">CAF#257</text>
</a>
</g>
<!-- CAF#253 -->
<g id="node15" class="node"><title>CAF#253</title>
<a xlink:href="https://github.com/quattor/CAF/issues/253" xlink:title="CAF::Process: Include an option to execute the command as an specific user" target="_parent">
<ellipse fill="#6cc644" stroke="black" cx="432" cy="-1497" rx="48.9975" ry="38.1838"/>
<text text-anchor="middle" x="432" y="-1501" font-family="Sans" font-size="10.00">issue</text>
<text text-anchor="middle" x="432" y="-1488" font-family="Sans" font-size="10.00">CAF#253</text>
</a>
</g>
<!-- CAF#257&#45;&gt;CAF#253 -->
<g id="edge12" class="edge"><title>CAF#257-&gt;CAF#253</title>
<path fill="none" stroke="black" stroke-width="2" d="M157.571,-1495.9C184.705,-1495.2 221.529,-1494.36 254,-1494 293.351,-1493.57 337.592,-1494.31 372.123,-1495.16"/>
<polygon fill="black" stroke="black" points="372.425,-1498.67 382.512,-1495.43 372.605,-1491.67 372.425,-1498.67"/>
<text text-anchor="middle" x="273" y="-1498" font-family="Sans" font-size="10.00">fixes</text>
</g>
<!-- CAF#110 -->
<g id="node16" class="node"><title>CAF#110</title>
<a xlink:href="https://github.com/quattor/CAF/pull/110" xlink:title="CAF::Download class: API proposal" target="_parent">
<polygon fill="#6cc644" stroke="black" points="157,-1629 79,-1629 79,-1575 157,-1575 157,-1629"/>
<text text-anchor="middle" x="118" y="-1606" font-family="Sans" font-size="10.00">pull-request</text>
<text text-anchor="middle" x="118" y="-1593" font-family="Sans" font-size="10.00">CAF#110</text>
</a>
</g>
<!-- CAF#120 -->
<g id="node18" class="node"><title>CAF#120</title>
<polygon fill="lightgrey" stroke="black" points="467,-1622.5 397,-1622.5 397,-1581.5 467,-1581.5 467,-1622.5"/>
<text text-anchor="middle" x="432" y="-1599.5" font-family="Sans" font-size="10.00">CAF#120</text>
</g>
<!-- CAF#110&#45;&gt;CAF#120 -->
<g id="edge14" class="edge"><title>CAF#110-&gt;CAF#120</title>
<path fill="none" stroke="black" stroke-dasharray="5,2" d="M157.768,-1602C216.269,-1602 325.221,-1602 386.719,-1602"/>
<polygon fill="none" stroke="black" points="386.897,-1605.5 396.897,-1602 386.897,-1598.5 386.897,-1605.5"/>
<text text-anchor="middle" x="273" y="-1606" font-family="Sans" font-size="10.00">requires</text>
</g>
<!-- CCM#186 -->
<g id="node19" class="node"><title>CCM#186</title>
<a xlink:href="https://github.com/quattor/CCM/pull/186" xlink:title="TextRender: add support for jsonpretty type" target="_parent">
<polygon fill="#6cc644" stroke="black" points="471,-1392 393,-1392 393,-1338 471,-1338 471,-1392"/>
<text text-anchor="middle" x="432" y="-1369" font-family="Sans" font-size="10.00">pull-request</text>
<text text-anchor="middle" x="432" y="-1356" font-family="Sans" font-size="10.00">CCM#186</text>
</a>
</g>
<!-- CAF#265 -->
<g id="node21" class="node"><title>CAF#265</title>
<a xlink:href="https://github.com/quattor/CAF/pull/265" xlink:title="TextRender: add jsonpretty module" target="_parent">
<polygon fill="#6cc644" stroke="black" points="705,-1439 627,-1439 627,-1385 705,-1385 705,-1439"/>
<text text-anchor="middle" x="666" y="-1416" font-family="Sans" font-size="10.00">pull-request</text>
<text text-anchor="middle" x="666" y="-1403" font-family="Sans" font-size="10.00">CAF#265</text>
</a>
</g>
<!-- CCM#186&#45;&gt;CAF#265 -->
<g id="edge16" class="edge"><title>CCM#186-&gt;CAF#265</title>
<path fill="none" stroke="black" stroke-dasharray="5,2" d="M471.695,-1372.97C511.531,-1380.97 573.008,-1393.32 616.117,-1401.98"/>
<polygon fill="none" stroke="black" points="615.617,-1405.45 626.11,-1403.99 616.995,-1398.59 615.617,-1405.45"/>
<text text-anchor="middle" x="590" y="-1404" font-family="Sans" font-size="10.00">requires</text>
</g>
<!-- configuration&#45;modules&#45;core#1255 -->
<g id="node22" class="node"><title>configuration-modules-core#1255</title>
<a xlink:href="https://github.com/quattor/configuration-modules-core/pull/1255" xlink:title=" ncm-metaconfig: add irods config files" target="_parent">
<polygon fill="#6cc644" stroke="black" points="204,-1422 32,-1422 32,-1368 204,-1368 204,-1422"/>
<text text-anchor="middle" x="118" y="-1399" font-family="Sans" font-size="10.00">pull-request</text>
<text text-anchor="middle" x="118" y="-1386" font-family="Sans" font-size="10.00">configuration-modules-core#1255</text>
</a>
</g>
<!-- configuration&#45;modules&#45;core#1255&#45;&gt;CCM#186 -->
<g id="edge20" class="edge"><title>configuration-modules-core#1255-&gt;CCM#186</title>
<path fill="none" stroke="black" stroke-dasharray="5,2" d="M204.217,-1386.76C261.388,-1381.3 334.397,-1374.33 382.136,-1369.76"/>
<polygon fill="none" stroke="black" points="382.599,-1373.24 392.22,-1368.8 381.933,-1366.27 382.599,-1373.24"/>
<text text-anchor="middle" x="273" y="-1386" font-family="Sans" font-size="10.00">requires</text>
</g>
<!-- configuration&#45;modules&#45;core#1255&#45;&gt;CAF#265 -->
<g id="edge18" class="edge"><title>configuration-modules-core#1255-&gt;CAF#265</title>
<path fill="none" stroke="black" stroke-dasharray="5,2" d="M204.145,-1400.42C295.429,-1405.87 443.806,-1413.9 572,-1417 587.995,-1417.39 592.015,-1417.69 608,-1417 610.699,-1416.88 613.468,-1416.74 616.261,-1416.57"/>
<polygon fill="none" stroke="black" points="616.67,-1420.05 626.406,-1415.87 616.189,-1413.07 616.67,-1420.05"/>
<text text-anchor="middle" x="432" y="-1421" font-family="Sans" font-size="10.00">requires</text>
</g>
<!-- configuration&#45;modules&#45;core#1236 -->
<g id="node25" class="node"><title>configuration-modules-core#1236</title>
<a xlink:href="https://github.com/quattor/configuration-modules-core/pull/1236" xlink:title="ncm-spma: yum: Expose support for multiple reposdirs" target="_parent">
<polygon fill="#6e5494" stroke="black" points="204,-2038 32,-2038 32,-1984 204,-1984 204,-2038"/>
<text text-anchor="middle" x="118" y="-2015" font-family="Sans" font-size="10.00">pull-request</text>
<text text-anchor="middle" x="118" y="-2002" font-family="Sans" font-size="10.00">configuration-modules-core#1236</text>
</a>
</g>
<!-- configuration&#45;modules&#45;core#1075 -->
<g id="node27" class="node"><title>configuration-modules-core#1075</title>
<a xlink:href="https://github.com/quattor/configuration-modules-core/pull/1075" xlink:title="ncm-spma (yum): Allow unmanaged repositories to be controlled seperately from packages" target="_parent">
<polygon fill="#6e5494" stroke="black" points="518,-2038 346,-2038 346,-1984 518,-1984 518,-2038"/>
<text text-anchor="middle" x="432" y="-2015" font-family="Sans" font-size="10.00">pull-request</text>
<text text-anchor="middle" x="432" y="-2002" font-family="Sans" font-size="10.00">configuration-modules-core#1075</text>
</a>
</g>
<!-- configuration&#45;modules&#45;core#1236&#45;&gt;configuration&#45;modules&#45;core#1075 -->
<g id="edge22" class="edge"><title>configuration-modules-core#1236-&gt;configuration-modules-core#1075</title>
<path fill="none" stroke="black" stroke-dasharray="1,5" d="M204.329,-2008.81C220.818,-2008.47 237.942,-2008.18 254,-2008 280.582,-2007.71 309.395,-2007.95 335.94,-2008.4"/>
<polygon fill="black" stroke="black" points="345.993,-2008.58 335.913,-2012.9 340.994,-2008.49 335.995,-2008.4 335.995,-2008.4 335.995,-2008.4 340.994,-2008.49 336.076,-2003.9 345.993,-2008.58 345.993,-2008.58"/>
<text text-anchor="middle" x="273" y="-2012" font-family="Sans" font-size="10.00">replaces</text>
</g>
<!-- configuration&#45;modules&#45;core#1235 -->
<g id="node28" class="node"><title>configuration-modules-core#1235</title>
<a xlink:href="https://github.com/quattor/configuration-modules-core/pull/1235" xlink:title="ncm-ofed: import CAF::Service and enable NoActionSupported" target="_parent">
<polygon fill="#6e5494" stroke="black" points="204,-1966 32,-1966 32,-1912 204,-1912 204,-1966"/>
<text text-anchor="middle" x="118" y="-1943" font-family="Sans" font-size="10.00">pull-request</text>
<text text-anchor="middle" x="118" y="-1930" font-family="Sans" font-size="10.00">configuration-modules-core#1235</text>
</a>
</g>
<!-- configuration&#45;modules&#45;core#1234 -->
<g id="node30" class="node"><title>configuration-modules-core#1234</title>
<a xlink:href="https://github.com/quattor/configuration-modules-core/issues/1234" xlink:title="ncm-ofed: no loading of CAF::Service" target="_parent">
<ellipse fill="#bd2c00" stroke="black" cx="432" cy="-1928" rx="121.122" ry="38.1838"/>
<text text-anchor="middle" x="432" y="-1932" font-family="Sans" font-size="10.00">issue</text>
<text text-anchor="middle" x="432" y="-1919" font-family="Sans" font-size="10.00">configuration-modules-core#1234</text>
</a>
</g>
<!-- configuration&#45;modules&#45;core#1235&#45;&gt;configuration&#45;modules&#45;core#1234 -->
<g id="edge24" class="edge"><title>configuration-modules-core#1235-&gt;configuration-modules-core#1234</title>
<path fill="none" stroke="black" stroke-width="2" d="M204.217,-1935.98C234.08,-1934.93 268.265,-1933.74 300.912,-1932.59"/>
<polygon fill="black" stroke="black" points="301.116,-1936.09 310.988,-1932.24 300.871,-1929.09 301.116,-1936.09"/>
<text text-anchor="middle" x="273" y="-1939" font-family="Sans" font-size="10.00">fixes</text>
</g>
<!-- configuration&#45;modules&#45;core#1230 -->
<g id="node31" class="node"><title>configuration-modules-core#1230</title>
<a xlink:href="https://github.com/quattor/configuration-modules-core/pull/1230" xlink:title="ncm-ceph: support for luminous, bluestore, ceph-volume and per host osd deployment" target="_parent">
<polygon fill="#6cc644" stroke="black" points="204,-1060 32,-1060 32,-1006 204,-1006 204,-1060"/>
<text text-anchor="middle" x="118" y="-1037" font-family="Sans" font-size="10.00">pull-request</text>
<text text-anchor="middle" x="118" y="-1024" font-family="Sans" font-size="10.00">configuration-modules-core#1230</text>
</a>
</g>
<!-- configuration&#45;modules&#45;core#1224 -->
<g id="node33" class="node"><title>configuration-modules-core#1224</title>
<polygon fill="lightgrey" stroke="black" points="518,-214.5 346,-214.5 346,-173.5 518,-173.5 518,-214.5"/>
<text text-anchor="middle" x="432" y="-191.5" font-family="Sans" font-size="10.00">configuration-modules-core#1224</text>
</g>
<!-- configuration&#45;modules&#45;core#1230&#45;&gt;configuration&#45;modules&#45;core#1224 -->
<g id="edge26" class="edge"><title>configuration-modules-core#1230-&gt;configuration-modules-core#1224</title>
<path fill="none" stroke="black" stroke-dasharray="1,5" d="M133.365,-1005.99C160.087,-957.416 214.337,-851.278 236,-754 258.816,-651.545 214.448,-379.228 254,-282 267.992,-247.605 277.833,-238.549 310,-220 318.145,-215.303 327.037,-211.451 336.188,-208.293"/>
<polygon fill="black" stroke="black" points="345.797,-205.247 337.624,-212.558 341.031,-206.758 336.264,-208.269 336.264,-208.269 336.264,-208.269 341.031,-206.758 334.905,-203.979 345.797,-205.247 345.797,-205.247"/>
<text text-anchor="middle" x="273" y="-286" font-family="Sans" font-size="10.00">replaces</text>
</g>
<!-- configuration&#45;modules&#45;core#740 -->
<g id="node35" class="node"><title>configuration-modules-core#740</title>
<a xlink:href="https://github.com/quattor/configuration-modules-core/issues/740" xlink:title="ncm-ceph: add boolean to disable osd features" target="_parent">
<ellipse fill="#6cc644" stroke="black" cx="432" cy="-1000" rx="118.087" ry="38.1838"/>
<text text-anchor="middle" x="432" y="-1004" font-family="Sans" font-size="10.00">issue</text>
<text text-anchor="middle" x="432" y="-991" font-family="Sans" font-size="10.00">configuration-modules-core#740</text>
</a>
</g>
<!-- configuration&#45;modules&#45;core#1230&#45;&gt;configuration&#45;modules&#45;core#740 -->
<g id="edge28" class="edge"><title>configuration-modules-core#1230-&gt;configuration-modules-core#740</title>
<path fill="none" stroke="black" stroke-width="2" d="M204.217,-1023.94C236.688,-1020.53 274.267,-1016.58 309.424,-1012.88"/>
<polygon fill="black" stroke="black" points="310.178,-1016.32 319.757,-1011.8 309.446,-1009.36 310.178,-1016.32"/>
<text text-anchor="middle" x="273" y="-1023" font-family="Sans" font-size="10.00">fixes</text>
</g>
<!-- configuration&#45;modules&#45;core#741 -->
<g id="node37" class="node"><title>configuration-modules-core#741</title>
<a xlink:href="https://github.com/quattor/configuration-modules-core/issues/741" xlink:title="ncm-ceph: check possibilities to rescale ceph in Jewel" target="_parent">
<ellipse fill="#6cc644" stroke="black" cx="432" cy="-1094" rx="118.087" ry="38.1838"/>
<text text-anchor="middle" x="432" y="-1098" font-family="Sans" font-size="10.00">issue</text>
<text text-anchor="middle" x="432" y="-1085" font-family="Sans" font-size="10.00">configuration-modules-core#741</text>
</a>
</g>
<!-- configuration&#45;modules&#45;core#1230&#45;&gt;configuration&#45;modules&#45;core#741 -->
<g id="edge30" class="edge"><title>configuration-modules-core#1230-&gt;configuration-modules-core#741</title>
<path fill="none" stroke="black" stroke-width="2" d="M204.217,-1049.75C240.216,-1056.74 282.495,-1064.96 320.79,-1072.4"/>
<polygon fill="black" stroke="black" points="320.47,-1075.9 330.954,-1074.37 321.805,-1069.03 320.47,-1075.9"/>
<text text-anchor="middle" x="273" y="-1070" font-family="Sans" font-size="10.00">fixes</text>
</g>
<!-- configuration&#45;modules&#45;core#742 -->
<g id="node39" class="node"><title>configuration-modules-core#742</title>
<a xlink:href="https://github.com/quattor/configuration-modules-core/issues/742" xlink:title="ncm-ceph: allow control over deploying admin keyrings along with ceph.conf" target="_parent">
<ellipse fill="#6cc644" stroke="black" cx="432" cy="-1188" rx="118.087" ry="38.1838"/>
<text text-anchor="middle" x="432" y="-1192" font-family="Sans" font-size="10.00">issue</text>
<text text-anchor="middle" x="432" y="-1179" font-family="Sans" font-size="10.00">configuration-modules-core#742</text>
</a>
</g>
<!-- configuration&#45;modules&#45;core#1230&#45;&gt;configuration&#45;modules&#45;core#742 -->
<g id="edge32" class="edge"><title>configuration-modules-core#1230-&gt;configuration-modules-core#742</title>
<path fill="none" stroke="black" stroke-width="2" d="M162.035,-1060.19C200.341,-1083.24 257.752,-1116.4 310,-1141 320.749,-1146.06 332.203,-1151.02 343.624,-1155.7"/>
<polygon fill="black" stroke="black" points="342.611,-1159.07 353.194,-1159.57 345.232,-1152.58 342.611,-1159.07"/>
<text text-anchor="middle" x="273" y="-1135" font-family="Sans" font-size="10.00">fixes</text>
</g>
<!-- configuration&#45;modules&#45;core#743 -->
<g id="node41" class="node"><title>configuration-modules-core#743</title>
<a xlink:href="https://github.com/quattor/configuration-modules-core/issues/743" xlink:title="ncm-ceph: check admin keyring is current before running ceph-deploy admin" target="_parent">
<ellipse fill="#6cc644" stroke="black" cx="432" cy="-1282" rx="118.087" ry="38.1838"/>
<text text-anchor="middle" x="432" y="-1286" font-family="Sans" font-size="10.00">issue</text>
<text text-anchor="middle" x="432" y="-1273" font-family="Sans" font-size="10.00">configuration-modules-core#743</text>
</a>
</g>
<!-- configuration&#45;modules&#45;core#1230&#45;&gt;configuration&#45;modules&#45;core#743 -->
<g id="edge34" class="edge"><title>configuration-modules-core#1230-&gt;configuration-modules-core#743</title>
<path fill="none" stroke="black" stroke-width="2" d="M137.456,-1060.21C169.18,-1102.82 235.988,-1185.53 310,-1235 318.885,-1240.94 328.629,-1246.28 338.615,-1251.05"/>
<polygon fill="black" stroke="black" points="337.287,-1254.29 347.837,-1255.27 340.198,-1247.93 337.287,-1254.29"/>
<text text-anchor="middle" x="273" y="-1226" font-family="Sans" font-size="10.00">fixes</text>
</g>
<!-- configuration&#45;modules&#45;core#776 -->
<g id="node43" class="node"><title>configuration-modules-core#776</title>
<a xlink:href="https://github.com/quattor/configuration-modules-core/issues/776" xlink:title="ncm-ceph: ceph mds stat output redesigned on Jewel" target="_parent">
<ellipse fill="#6cc644" stroke="black" cx="432" cy="-906" rx="118.087" ry="38.1838"/>
<text text-anchor="middle" x="432" y="-910" font-family="Sans" font-size="10.00">issue</text>
<text text-anchor="middle" x="432" y="-897" font-family="Sans" font-size="10.00">configuration-modules-core#776</text>
</a>
</g>
<!-- configuration&#45;modules&#45;core#1230&#45;&gt;configuration&#45;modules&#45;core#776 -->
<g id="edge36" class="edge"><title>configuration-modules-core#1230-&gt;configuration-modules-core#776</title>
<path fill="none" stroke="black" stroke-width="2" d="M181.822,-1005.9C219.097,-990.199 267.097,-970.199 310,-953 321.637,-948.335 333.932,-943.495 346.059,-938.773"/>
<polygon fill="black" stroke="black" points="347.677,-941.899 355.732,-935.017 345.144,-935.374 347.677,-941.899"/>
<text text-anchor="middle" x="273" y="-979" font-family="Sans" font-size="10.00">fixes</text>
</g>
<!-- configuration&#45;modules&#45;core#1220 -->
<g id="node44" class="node"><title>configuration-modules-core#1220</title>
<a xlink:href="https://github.com/quattor/configuration-modules-core/pull/1220" xlink:title="ncm-cups: Stop daemon if server not enabled" target="_parent">
<polygon fill="#6e5494" stroke="black" points="204,-1894 32,-1894 32,-1840 204,-1840 204,-1894"/>
<text text-anchor="middle" x="118" y="-1871" font-family="Sans" font-size="10.00">pull-request</text>
<text text-anchor="middle" x="118" y="-1858" font-family="Sans" font-size="10.00">configuration-modules-core#1220</text>
</a>
</g>
<!-- configuration&#45;modules&#45;core#1189 -->
<g id="node46" class="node"><title>configuration-modules-core#1189</title>
<a xlink:href="https://github.com/quattor/configuration-modules-core/issues/1189" xlink:title="ncm-cups: Nodetype of client should stop running cups daemon" target="_parent">
<ellipse fill="#bd2c00" stroke="black" cx="432" cy="-1834" rx="121.122" ry="38.1838"/>
<text text-anchor="middle" x="432" y="-1838" font-family="Sans" font-size="10.00">issue</text>
<text text-anchor="middle" x="432" y="-1825" font-family="Sans" font-size="10.00">configuration-modules-core#1189</text>
</a>
</g>
<!-- configuration&#45;modules&#45;core#1220&#45;&gt;configuration&#45;modules&#45;core#1189 -->
<g id="edge38" class="edge"><title>configuration-modules-core#1220-&gt;configuration-modules-core#1189</title>
<path fill="none" stroke="black" stroke-width="2" d="M204.217,-1857.94C235.779,-1854.62 272.167,-1850.8 306.466,-1847.19"/>
<polygon fill="black" stroke="black" points="306.976,-1850.66 316.556,-1846.13 306.245,-1843.7 306.976,-1850.66"/>
<text text-anchor="middle" x="273" y="-1857" font-family="Sans" font-size="10.00">fixes</text>
</g>
<!-- configuration&#45;modules&#45;core#1105 -->
<g id="node47" class="node"><title>configuration-modules-core#1105</title>
<a xlink:href="https://github.com/quattor/configuration-modules-core/pull/1105" xlink:title="ncm-authconfig: fix krb5_realm, user_object_class and newline between ldap_krb5_canonicalize and ldap_krb5_realm" target="_parent">
<polygon fill="#6cc644" stroke="black" points="204,-745 32,-745 32,-691 204,-691 204,-745"/>
<text text-anchor="middle" x="118" y="-722" font-family="Sans" font-size="10.00">pull-request</text>
<text text-anchor="middle" x="118" y="-709" font-family="Sans" font-size="10.00">configuration-modules-core#1105</text>
</a>
</g>
<!-- configuration&#45;modules&#45;core#1100 -->
<g id="node49" class="node"><title>configuration-modules-core#1100</title>
<a xlink:href="https://github.com/quattor/configuration-modules-core/issues/1100" xlink:title="ncm-authconfig : no newline after krb5_canonicalize option" target="_parent">
<ellipse fill="#6cc644" stroke="black" cx="432" cy="-624" rx="121.122" ry="38.1838"/>
<text text-anchor="middle" x="432" y="-628" font-family="Sans" font-size="10.00">issue</text>
<text text-anchor="middle" x="432" y="-615" font-family="Sans" font-size="10.00">configuration-modules-core#1100</text>
</a>
</g>
<!-- configuration&#45;modules&#45;core#1105&#45;&gt;configuration&#45;modules&#45;core#1100 -->
<g id="edge40" class="edge"><title>configuration-modules-core#1105-&gt;configuration-modules-core#1100</title>
<path fill="none" stroke="black" stroke-width="2" d="M204.217,-692.19C244.557,-680.113 292.783,-665.676 334.453,-653.202"/>
<polygon fill="black" stroke="black" points="335.488,-656.546 344.064,-650.325 333.48,-649.84 335.488,-656.546"/>
<text text-anchor="middle" x="273" y="-681" font-family="Sans" font-size="10.00">fixes</text>
</g>
<!-- configuration&#45;modules&#45;core#1102 -->
<g id="node51" class="node"><title>configuration-modules-core#1102</title>
<a xlink:href="https://github.com/quattor/configuration-modules-core/issues/1102" xlink:title="ncm-authconfig: There is no " target="_parent">
<ellipse fill="#6cc644" stroke="black" cx="432" cy="-718" rx="121.122" ry="38.1838"/>
<text text-anchor="middle" x="432" y="-722" font-family="Sans" font-size="10.00">issue</text>
<text text-anchor="middle" x="432" y="-709" font-family="Sans" font-size="10.00">configuration-modules-core#1102</text>
</a>
</g>
<!-- configuration&#45;modules&#45;core#1105&#45;&gt;configuration&#45;modules&#45;core#1102 -->
<g id="edge42" class="edge"><title>configuration-modules-core#1105-&gt;configuration-modules-core#1102</title>
<path fill="none" stroke="black" stroke-width="2" d="M204.217,-718C233.916,-718 267.888,-718 300.372,-718"/>
<polygon fill="black" stroke="black" points="300.399,-721.5 310.399,-718 300.399,-714.5 300.399,-721.5"/>
<text text-anchor="middle" x="273" y="-722" font-family="Sans" font-size="10.00">fixes</text>
</g>
<!-- configuration&#45;modules&#45;core#1103 -->
<g id="node53" class="node"><title>configuration-modules-core#1103</title>
<a xlink:href="https://github.com/quattor/configuration-modules-core/issues/1103" xlink:title="ncm-authconfig: krb5_realm = ARRAY(0x39a5830)" target="_parent">
<ellipse fill="#6cc644" stroke="black" cx="432" cy="-812" rx="121.122" ry="38.1838"/>
<text text-anchor="middle" x="432" y="-816" font-family="Sans" font-size="10.00">issue</text>
<text text-anchor="middle" x="432" y="-803" font-family="Sans" font-size="10.00">configuration-modules-core#1103</text>
</a>
</g>
<!-- configuration&#45;modules&#45;core#1105&#45;&gt;configuration&#45;modules&#45;core#1103 -->
<g id="edge44" class="edge"><title>configuration-modules-core#1105-&gt;configuration-modules-core#1103</title>
<path fill="none" stroke="black" stroke-width="2" d="M204.217,-743.81C244.557,-755.887 292.783,-770.324 334.453,-782.798"/>
<polygon fill="black" stroke="black" points="333.48,-786.16 344.064,-785.675 335.488,-779.454 333.48,-786.16"/>
<text text-anchor="middle" x="273" y="-772" font-family="Sans" font-size="10.00">fixes</text>
</g>
<!-- configuration&#45;modules&#45;core#1148 -->
<g id="node54" class="node"><title>configuration-modules-core#1148</title>
<a xlink:href="https://github.com/quattor/configuration-modules-core/pull/1148" xlink:title="ncm-spma: Remove support from groups from spma yumng backend" target="_parent">
<polygon fill="#6cc644" stroke="black" points="204,-2237 32,-2237 32,-2183 204,-2183 204,-2237"/>
<text text-anchor="middle" x="118" y="-2214" font-family="Sans" font-size="10.00">pull-request</text>
<text text-anchor="middle" x="118" y="-2201" font-family="Sans" font-size="10.00">configuration-modules-core#1148</text>
</a>
</g>
<!-- configuration&#45;modules&#45;core#952 -->
<g id="node56" class="node"><title>configuration-modules-core#952</title>
<a xlink:href="https://github.com/quattor/configuration-modules-core/issues/952" xlink:title="ncm-spma (yumng): Remove support for package groups" target="_parent">
<ellipse fill="#6cc644" stroke="black" cx="432" cy="-2210" rx="118.087" ry="38.1838"/>
<text text-anchor="middle" x="432" y="-2214" font-family="Sans" font-size="10.00">issue</text>
<text text-anchor="middle" x="432" y="-2201" font-family="Sans" font-size="10.00">configuration-modules-core#952</text>
</a>
</g>
<!-- configuration&#45;modules&#45;core#1148&#45;&gt;configuration&#45;modules&#45;core#952 -->
<g id="edge46" class="edge"><title>configuration-modules-core#1148-&gt;configuration-modules-core#952</title>
<path fill="none" stroke="black" stroke-width="2" d="M204.217,-2210C234.903,-2210 270.151,-2210 303.606,-2210"/>
<polygon fill="black" stroke="black" points="303.924,-2213.5 313.924,-2210 303.924,-2206.5 303.924,-2213.5"/>
<text text-anchor="middle" x="273" y="-2214" font-family="Sans" font-size="10.00">fixes</text>
</g>
<!-- configuration&#45;modules&#45;core#950 -->
<g id="node57" class="node"><title>configuration-modules-core#950</title>
<a xlink:href="https://github.com/quattor/configuration-modules-core/issues/950" xlink:title="ncm-spma: Remove support for package groups from yum backends" target="_parent">
<ellipse fill="#6cc644" stroke="black" cx="118" cy="-2121" rx="118.087" ry="38.1838"/>
<text text-anchor="middle" x="118" y="-2125" font-family="Sans" font-size="10.00">issue</text>
<text text-anchor="middle" x="118" y="-2112" font-family="Sans" font-size="10.00">configuration-modules-core#950</text>
</a>
</g>
<!-- configuration&#45;modules&#45;core#950&#45;&gt;configuration&#45;modules&#45;core#952 -->
<g id="edge50" class="edge"><title>configuration-modules-core#950-&gt;configuration-modules-core#952</title>
<path fill="none" stroke="black" stroke-dasharray="5,2" d="M206.721,-2146.15C246.26,-2157.35 292.974,-2170.59 333.584,-2182.11"/>
<polygon fill="none" stroke="black" points="332.651,-2185.48 343.226,-2184.84 334.56,-2178.74 332.651,-2185.48"/>
<text text-anchor="middle" x="273" y="-2172" font-family="Sans" font-size="10.00">requires</text>
</g>
<!-- configuration&#45;modules&#45;core#951 -->
<g id="node59" class="node"><title>configuration-modules-core#951</title>
<a xlink:href="https://github.com/quattor/configuration-modules-core/issues/951" xlink:title="ncm-spma (yum): Remove support for package groups" target="_parent">
<ellipse fill="#6cc644" stroke="black" cx="432" cy="-2116" rx="118.087" ry="38.1838"/>
<text text-anchor="middle" x="432" y="-2120" font-family="Sans" font-size="10.00">issue</text>
<text text-anchor="middle" x="432" y="-2107" font-family="Sans" font-size="10.00">configuration-modules-core#951</text>
</a>
</g>
<!-- configuration&#45;modules&#45;core#950&#45;&gt;configuration&#45;modules&#45;core#951 -->
<g id="edge48" class="edge"><title>configuration-modules-core#950-&gt;configuration-modules-core#951</title>
<path fill="none" stroke="black" stroke-dasharray="5,2" d="M236.263,-2119.12C258.348,-2118.77 281.525,-2118.4 303.892,-2118.04"/>
<polygon fill="none" stroke="black" points="304.162,-2121.54 314.105,-2117.88 304.05,-2114.54 304.162,-2121.54"/>
<text text-anchor="middle" x="273" y="-2123" font-family="Sans" font-size="10.00">requires</text>
</g>
<!-- ncm&#45;lib&#45;blockdevices#88 -->
<g id="node61" class="node"><title>ncm-lib-blockdevices#88</title>
<a xlink:href="https://github.com/quattor/ncm-lib-blockdevices/pull/88" xlink:title="LV: add useexisting_lv flag and support useexisting option in ks" target="_parent">
<polygon fill="#6cc644" stroke="black" points="186,-557 50,-557 50,-503 186,-503 186,-557"/>
<text text-anchor="middle" x="118" y="-534" font-family="Sans" font-size="10.00">pull-request</text>
<text text-anchor="middle" x="118" y="-521" font-family="Sans" font-size="10.00">ncm-lib-blockdevices#88</text>
</a>
</g>
<!-- ncm&#45;lib&#45;blockdevices#82 -->
<g id="node63" class="node"><title>ncm-lib-blockdevices#82</title>
<a xlink:href="https://github.com/quattor/ncm-lib-blockdevices/issues/82" xlink:title="kickstart configuration of logvol is incomplete on SL7" target="_parent">
<ellipse fill="#6cc644" stroke="black" cx="432" cy="-530" rx="96.1665" ry="38.1838"/>
<text text-anchor="middle" x="432" y="-534" font-family="Sans" font-size="10.00">issue</text>
<text text-anchor="middle" x="432" y="-521" font-family="Sans" font-size="10.00">ncm-lib-blockdevices#82</text>
</a>
</g>
<!-- ncm&#45;lib&#45;blockdevices#88&#45;&gt;ncm&#45;lib&#45;blockdevices#82 -->
<g id="edge52" class="edge"><title>ncm-lib-blockdevices#88-&gt;ncm-lib-blockdevices#82</title>
<path fill="none" stroke="black" stroke-width="2" d="M186.133,-530C226.883,-530 279.543,-530 325.667,-530"/>
<polygon fill="black" stroke="black" points="325.708,-533.5 335.708,-530 325.708,-526.5 325.708,-533.5"/>
<text text-anchor="middle" x="273" y="-534" font-family="Sans" font-size="10.00">fixes</text>
</g>
<!-- ncm&#45;ncd#117 -->
<g id="node64" class="node"><title>ncm-ncd#117</title>
<a xlink:href="https://github.com/quattor/ncm-ncd/pull/117" xlink:title="Allow component modules to be loaded from any path" target="_parent">
<polygon fill="#6cc644" stroke="black" points="161,-463 75,-463 75,-409 161,-409 161,-463"/>
<text text-anchor="middle" x="118" y="-440" font-family="Sans" font-size="10.00">pull-request</text>
<text text-anchor="middle" x="118" y="-427" font-family="Sans" font-size="10.00">ncm-ncd#117</text>
</a>
</g>
<!-- ncm&#45;ncd#116 -->
<g id="node66" class="node"><title>ncm-ncd#116</title>
<a xlink:href="https://github.com/quattor/ncm-ncd/issues/116" xlink:title="hasFile() prevents component modules from being relocated" target="_parent">
<ellipse fill="#6cc644" stroke="black" cx="432" cy="-436" rx="61.0181" ry="38.1838"/>
<text text-anchor="middle" x="432" y="-440" font-family="Sans" font-size="10.00">issue</text>
<text text-anchor="middle" x="432" y="-427" font-family="Sans" font-size="10.00">ncm-ncd#116</text>
</a>
</g>
<!-- ncm&#45;ncd#117&#45;&gt;ncm&#45;ncd#116 -->
<g id="edge54" class="edge"><title>ncm-ncd#117-&gt;ncm-ncd#116</title>
<path fill="none" stroke="black" stroke-width="2" d="M161.66,-436C212.954,-436 298.809,-436 360.001,-436"/>
<polygon fill="black" stroke="black" points="360.362,-439.5 370.362,-436 360.362,-432.5 360.362,-439.5"/>
<text text-anchor="middle" x="273" y="-440" font-family="Sans" font-size="10.00">fixes</text>
</g>
<!-- template&#45;library&#45;grid#211 -->
<g id="node67" class="node"><title>template-library-grid#211</title>
<a xlink:href="https://github.com/quattor/template-library-grid/pull/211" xlink:title="Machine job feature bug fix" target="_parent">
<polygon fill="#6e5494" stroke="black" points="185,-1750 51,-1750 51,-1696 185,-1696 185,-1750"/>
<text text-anchor="middle" x="118" y="-1727" font-family="Sans" font-size="10.00">pull-request</text>
<text text-anchor="middle" x="118" y="-1714" font-family="Sans" font-size="10.00">template-library-grid#211</text>
</a>
</g>
<!-- template&#45;library&#45;grid#155 -->
<g id="node69" class="node"><title>template-library-grid#155</title>
<polygon fill="lightgrey" stroke="black" points="499,-1680.5 365,-1680.5 365,-1639.5 499,-1639.5 499,-1680.5"/>
<text text-anchor="middle" x="432" y="-1657.5" font-family="Sans" font-size="10.00">template-library-grid#155</text>
</g>
<!-- template&#45;library&#45;grid#211&#45;&gt;template&#45;library&#45;grid#155 -->
<g id="edge56" class="edge"><title>template-library-grid#211-&gt;template-library-grid#155</title>
<path fill="none" stroke="black" stroke-width="2" d="M185.51,-1709.18C222.302,-1701.68 268.641,-1692.27 310,-1684 324.275,-1681.15 339.495,-1678.13 354.172,-1675.24"/>
<polygon fill="black" stroke="black" points="355.093,-1678.62 364.228,-1673.26 353.74,-1671.75 355.093,-1678.62"/>
<text text-anchor="middle" x="273" y="-1699" font-family="Sans" font-size="10.00">fixes</text>
</g>
<!-- template&#45;library&#45;standard#109 -->
<g id="node70" class="node"><title>template-library-standard#109</title>
<a xlink:href="https://github.com/quattor/template-library-standard/pull/109" xlink:title="Add sample of nvidia workstation and compute GPUs" target="_parent">
<polygon fill="#6e5494" stroke="black" points="196,-1822 40,-1822 40,-1768 196,-1768 196,-1822"/>
<text text-anchor="middle" x="118" y="-1799" font-family="Sans" font-size="10.00">pull-request</text>
<text text-anchor="middle" x="118" y="-1786" font-family="Sans" font-size="10.00">template-library-standard#109</text>
</a>
</g>
<!-- template&#45;library&#45;core#172 -->
<g id="node72" class="node"><title>template-library-core#172</title>
<a xlink:href="https://github.com/quattor/template-library-core/pull/172" xlink:title="Allow RAM to be modelled on GPU cards" target="_parent">
<polygon fill="#6e5494" stroke="black" points="501,-1778 363,-1778 363,-1724 501,-1724 501,-1778"/>
<text text-anchor="middle" x="432" y="-1755" font-family="Sans" font-size="10.00">pull-request</text>
<text text-anchor="middle" x="432" y="-1742" font-family="Sans" font-size="10.00">template-library-core#172</text>
</a>
</g>
<!-- template&#45;library&#45;standard#109&#45;&gt;template&#45;library&#45;core#172 -->
<g id="edge58" class="edge"><title>template-library-standard#109-&gt;template-library-core#172</title>
<path fill="none" stroke="black" stroke-dasharray="5,2" d="M196.83,-1783.95C244.488,-1777.28 305.049,-1768.79 352.777,-1762.1"/>
<polygon fill="none" stroke="black" points="353.341,-1765.56 362.758,-1760.7 352.369,-1758.62 353.341,-1765.56"/>
<text text-anchor="middle" x="273" y="-1780" font-family="Sans" font-size="10.00">requires</text>
</g>
</g>
</svg>
