<?xml version="1.0" encoding="UTF-8" standalone="no"?>
<?xml-stylesheet href="relationships.css" type="text/css"?>
<!-- Generated by graphviz version 2.26.0 (20091210.2329)
 -->
<!-- Title: Dependencies Pages: 1 -->
<svg xmlns="http://www.w3.org/2000/svg" xmlns:xlink="http://www.w3.org/1999/xlink" width="822pt" height="2172pt" viewBox="0.00 0.00 822.00 2172.16">
<g id="graph1" class="graph" transform="scale(1 1) rotate(0) translate(4 2168.16)">
<title>Dependencies</title>
<polygon fill="white" stroke="white" points="-4,5 -4,-2168.16 819,-2168.16 819,5 -4,5"/>
<g id="graph2" class="cluster"><title>cluster_milestone_20.12</title>
<polygon fill="none" stroke="black" points="42,-928.165 42,-1138.16 536,-1138.16 536,-928.165 42,-928.165"/>
<text text-anchor="middle" x="289" y="-1123.36" font-family="Sans" font-size="12.00">20.12</text>
</g>
<g id="graph3" class="cluster"><title>cluster_milestone_20.3</title>
<polygon fill="none" stroke="black" points="24,-1210.16 24,-1636.16 806,-1636.16 806,-1210.16 24,-1210.16"/>
<text text-anchor="middle" x="415" y="-1621.36" font-family="Sans" font-size="12.00">20.3</text>
</g>
<g id="graph4" class="cluster"><title>cluster_milestone_20.4</title>
<polygon fill="none" stroke="black" points="24,-402.165 24,-856.165 789,-856.165 789,-402.165 24,-402.165"/>
<text text-anchor="middle" x="406.5" y="-841.365" font-family="Sans" font-size="12.00">20.4</text>
</g>
<g id="graph5" class="cluster"><title>cluster_repo_aquilon</title>
<polygon fill="none" stroke="black" points="57,-1824.16 57,-2156.16 497,-2156.16 497,-1824.16 57,-1824.16"/>
<text text-anchor="middle" x="277" y="-2141.36" font-family="Sans" font-size="12.00">aquilon</text>
</g>
<!-- aii#316 -->
<g id="node1" class="node"><title>aii#316</title>
<a xlink:href="https://github.com/quattor/aii/pull/316" xlink:title="aii-ks: generate kickstart repo entries based on SPMA configuration" target="_parent">
<polygon fill="#6cc644" stroke="black" points="157,-680.165 79,-680.165 79,-626.165 157,-626.165 157,-680.165"/>
<text text-anchor="middle" x="118" y="-657.165" font-family="Sans" font-size="10.00">pull-request</text>
<text text-anchor="middle" x="118" y="-644.165" font-family="Sans" font-size="10.00">aii#316</text>
</a>
</g>
<!-- aii#314 -->
<g id="node3" class="node"><title>aii#314</title>
<polygon fill="lightgrey" stroke="black" points="461,-394.665 403,-394.665 403,-353.665 461,-353.665 461,-394.665"/>
<text text-anchor="middle" x="432" y="-371.665" font-family="Sans" font-size="10.00">aii#314</text>
</g>
<!-- aii#316&#45;&gt;aii#314 -->
<g id="edge2" class="edge"><title>aii#316-&gt;aii#314</title>
<path fill="none" stroke="black" stroke-dasharray="5,2" d="M157.64,-650.805C183.349,-647.188 215.717,-638.369 236,-617.165 258.204,-593.951 244.335,-577.799 254,-547.165 275.285,-479.698 256.018,-443.889 310,-398.165 332.584,-379.035 365.973,-373.512 392.114,-372.508"/>
<polygon fill="none" stroke="black" points="392.522,-376.002 402.459,-372.327 392.399,-369.003 392.522,-376.002"/>
<text text-anchor="middle" x="273" y="-551.165" font-family="Sans" font-size="10.00">requires</text>
</g>
<!-- aii#315 -->
<g id="node5" class="node"><title>aii#315</title>
<polygon fill="lightgrey" stroke="black" points="461,-336.665 403,-336.665 403,-295.665 461,-295.665 461,-336.665"/>
<text text-anchor="middle" x="432" y="-313.665" font-family="Sans" font-size="10.00">aii#315</text>
</g>
<!-- aii#316&#45;&gt;aii#315 -->
<g id="edge4" class="edge"><title>aii#316-&gt;aii#315</title>
<path fill="none" stroke="black" stroke-dasharray="5,2" d="M157.701,-652C184.128,-648.96 217.31,-640.338 236,-617.165 266.378,-579.501 233.452,-443.973 254,-400.165 268.814,-368.581 279.467,-362.039 310,-345.165 335.342,-331.159 367.282,-323.879 392.123,-320.116"/>
<polygon fill="none" stroke="black" points="392.869,-323.546 402.295,-318.709 391.91,-316.612 392.869,-323.546"/>
<text text-anchor="middle" x="273" y="-404.165" font-family="Sans" font-size="10.00">requires</text>
</g>
<!-- aii#299 -->
<g id="node6" class="node"><title>aii#299</title>
<a xlink:href="https://github.com/quattor/aii/pull/299" xlink:title="aii-dhcp: support optional hostname ip verification" target="_parent">
<polygon fill="#6cc644" stroke="black" points="157,-824.165 79,-824.165 79,-770.165 157,-770.165 157,-824.165"/>
<text text-anchor="middle" x="118" y="-801.165" font-family="Sans" font-size="10.00">pull-request</text>
<text text-anchor="middle" x="118" y="-788.165" font-family="Sans" font-size="10.00">aii#299</text>
</a>
</g>
<!-- aii#296 -->
<g id="node8" class="node"><title>aii#296</title>
<a xlink:href="https://github.com/quattor/aii/pull/296" xlink:title="DHCP plugin updates" target="_parent">
<polygon fill="#6cc644" stroke="black" points="471,-824.165 393,-824.165 393,-770.165 471,-770.165 471,-824.165"/>
<text text-anchor="middle" x="432" y="-801.165" font-family="Sans" font-size="10.00">pull-request</text>
<text text-anchor="middle" x="432" y="-788.165" font-family="Sans" font-size="10.00">aii#296</text>
</a>
</g>
<!-- aii#299&#45;&gt;aii#296 -->
<g id="edge6" class="edge"><title>aii#299-&gt;aii#296</title>
<path fill="none" stroke="black" stroke-dasharray="5,2" d="M157.571,-796.061C184.705,-795.362 221.529,-794.523 254,-794.165 297.318,-793.687 346.561,-794.632 382.256,-795.584"/>
<polygon fill="none" stroke="black" points="382.318,-799.087 392.411,-795.865 382.512,-792.09 382.318,-799.087"/>
<text text-anchor="middle" x="273" y="-798.165" font-family="Sans" font-size="10.00">requires</text>
</g>
<!-- aii#280 -->
<g id="node9" class="node"><title>aii#280</title>
<a xlink:href="https://github.com/quattor/aii/pull/280" xlink:title="Support active configuration attribute for plugins" target="_parent">
<polygon fill="#6cc644" stroke="black" points="157,-608.165 79,-608.165 79,-554.165 157,-554.165 157,-608.165"/>
<text text-anchor="middle" x="118" y="-585.165" font-family="Sans" font-size="10.00">pull-request</text>
<text text-anchor="middle" x="118" y="-572.165" font-family="Sans" font-size="10.00">aii#280</text>
</a>
</g>
<!-- aii#209 -->
<g id="node11" class="node"><title>aii#209</title>
<a xlink:href="https://github.com/quattor/aii/issues/209" xlink:title="support ACTIVE_CONFIG" target="_parent">
<ellipse fill="#6cc644" stroke="black" cx="432" cy="-548.165" rx="41.2167" ry="38.1838"/>
<text text-anchor="middle" x="432" y="-552.165" font-family="Sans" font-size="10.00">issue</text>
<text text-anchor="middle" x="432" y="-539.165" font-family="Sans" font-size="10.00">aii#209</text>
</a>
</g>
<!-- aii#280&#45;&gt;aii#209 -->
<g id="edge8" class="edge"><title>aii#280-&gt;aii#209</title>
<path fill="none" stroke="black" stroke-width="2" d="M157.768,-576.985C214.357,-571.038 318.155,-560.129 380.542,-553.573"/>
<polygon fill="black" stroke="black" points="380.982,-557.046 390.561,-552.52 380.25,-550.084 380.982,-557.046"/>
<text text-anchor="middle" x="273" y="-571.165" font-family="Sans" font-size="10.00">fixes</text>
</g>
<!-- ncm&#45;ncd#74 -->
<g id="node13" class="node"><title>ncm-ncd#74</title>
<polygon fill="lightgrey" stroke="black" points="473,-278.665 391,-278.665 391,-237.665 473,-237.665 473,-278.665"/>
<text text-anchor="middle" x="432" y="-255.665" font-family="Sans" font-size="10.00">ncm-ncd#74</text>
</g>
<!-- aii#280&#45;&gt;ncm&#45;ncd#74 -->
<g id="edge10" class="edge"><title>aii#280-&gt;ncm-ncd#74</title>
<path fill="none" stroke="black" stroke-dasharray="5,2" d="M157.523,-580.118C184.045,-577.146 217.414,-568.558 236,-545.165 272.579,-499.124 213.695,-323.982 254,-281.165 285.699,-247.49 340.474,-245.131 380.912,-249.096"/>
<polygon fill="none" stroke="black" points="380.53,-252.575 390.861,-250.225 381.32,-245.619 380.53,-252.575"/>
<text text-anchor="middle" x="273" y="-285.165" font-family="Sans" font-size="10.00">requires</text>
</g>
<!-- aii#203 -->
<g id="node15" class="node"><title>aii#203</title>
<polygon fill="lightgrey" stroke="black" points="461,-220.665 403,-220.665 403,-179.665 461,-179.665 461,-220.665"/>
<text text-anchor="middle" x="432" y="-197.665" font-family="Sans" font-size="10.00">aii#203</text>
</g>
<!-- aii#280&#45;&gt;aii#203 -->
<g id="edge12" class="edge"><title>aii#280-&gt;aii#203</title>
<path fill="none" stroke="black" stroke-dasharray="5,2" d="M157.588,-580.17C184.14,-577.222 217.518,-568.641 236,-545.165 277.86,-491.991 210.312,-292.847 254,-241.165 287.5,-201.535 350.898,-195.816 392.287,-196.848"/>
<polygon fill="none" stroke="black" points="392.175,-200.347 402.304,-197.24 392.448,-193.352 392.175,-200.347"/>
<text text-anchor="middle" x="273" y="-245.165" font-family="Sans" font-size="10.00">requires</text>
</g>
<!-- aii#210 -->
<g id="node17" class="node"><title>aii#210</title>
<polygon fill="lightgrey" stroke="black" points="461,-162.665 403,-162.665 403,-121.665 461,-121.665 461,-162.665"/>
<text text-anchor="middle" x="432" y="-139.665" font-family="Sans" font-size="10.00">aii#210</text>
</g>
<!-- aii#280&#45;&gt;aii#210 -->
<g id="edge14" class="edge"><title>aii#280-&gt;aii#210</title>
<path fill="none" stroke="black" stroke-dasharray="1,5" d="M157.641,-580.212C184.218,-577.283 217.604,-568.709 236,-545.165 283.54,-484.32 211.254,-262.468 254,-198.165 283.74,-153.426 349.639,-143.15 392.374,-141.462"/>
<polygon fill="black" stroke="black" points="402.439,-141.205 392.557,-145.959 397.44,-141.332 392.442,-141.46 392.442,-141.46 392.442,-141.46 397.44,-141.332 392.327,-136.962 402.439,-141.205 402.439,-141.205"/>
<text text-anchor="middle" x="273" y="-202.165" font-family="Sans" font-size="10.00">replaces</text>
</g>
<!-- aii#325 -->
<g id="node18" class="node"><title>aii#325</title>
<a xlink:href="https://github.com/quattor/aii/pull/325" xlink:title="Use wipefs for RHEL6+" target="_parent">
<polygon fill="#6cc644" stroke="black" points="157,-918.165 79,-918.165 79,-864.165 157,-864.165 157,-918.165"/>
<text text-anchor="middle" x="118" y="-895.165" font-family="Sans" font-size="10.00">pull-request</text>
<text text-anchor="middle" x="118" y="-882.165" font-family="Sans" font-size="10.00">aii#325</text>
</a>
</g>
<!-- ncm&#45;lib&#45;blockdevices#93 -->
<g id="node20" class="node"><title>ncm-lib-blockdevices#93</title>
<a xlink:href="https://github.com/quattor/ncm-lib-blockdevices/pull/93" xlink:title="Accumulated changes" target="_parent">
<polygon fill="#6cc644" stroke="black" points="500,-918.165 364,-918.165 364,-864.165 500,-864.165 500,-918.165"/>
<text text-anchor="middle" x="432" y="-895.165" font-family="Sans" font-size="10.00">pull-request</text>
<text text-anchor="middle" x="432" y="-882.165" font-family="Sans" font-size="10.00">ncm-lib-blockdevices#93</text>
</a>
</g>
<!-- aii#325&#45;&gt;ncm&#45;lib&#45;blockdevices#93 -->
<g id="edge16" class="edge"><title>aii#325-&gt;ncm-lib-blockdevices#93</title>
<path fill="none" stroke="black" stroke-dasharray="5,2" d="M157.768,-891.165C206.854,-891.165 291.459,-891.165 353.748,-891.165"/>
<polygon fill="none" stroke="black" points="353.933,-894.665 363.933,-891.165 353.933,-887.665 353.933,-894.665"/>
<text text-anchor="middle" x="273" y="-895.165" font-family="Sans" font-size="10.00">requires</text>
</g>
<!-- CAF#257 -->
<g id="node21" class="node"><title>CAF#257</title>
<a xlink:href="https://github.com/quattor/CAF/pull/257" xlink:title="Process: run process as another user" target="_parent">
<polygon fill="#6cc644" stroke="black" points="157,-1095.16 79,-1095.16 79,-1041.16 157,-1041.16 157,-1095.16"/>
<text text-anchor="middle" x="118" y="-1072.16" font-family="Sans" font-size="10.00">pull-request</text>
<text text-anchor="middle" x="118" y="-1059.16" font-family="Sans" font-size="10.00">CAF#257</text>
</a>
</g>
<!-- CAF#253 -->
<g id="node23" class="node"><title>CAF#253</title>
<a xlink:href="https://github.com/quattor/CAF/issues/253" xlink:title="CAF::Process: Include an option to execute the command as an specific user" target="_parent">
<ellipse fill="#6cc644" stroke="black" cx="432" cy="-1068.16" rx="48.9975" ry="38.1838"/>
<text text-anchor="middle" x="432" y="-1072.16" font-family="Sans" font-size="10.00">issue</text>
<text text-anchor="middle" x="432" y="-1059.16" font-family="Sans" font-size="10.00">CAF#253</text>
</a>
</g>
<!-- CAF#257&#45;&gt;CAF#253 -->
<g id="edge18" class="edge"><title>CAF#257-&gt;CAF#253</title>
<path fill="none" stroke="black" stroke-width="2" d="M157.571,-1067.06C184.705,-1066.36 221.529,-1065.52 254,-1065.16 293.351,-1064.73 337.592,-1065.47 372.123,-1066.32"/>
<polygon fill="black" stroke="black" points="372.425,-1069.83 382.512,-1066.59 372.605,-1062.84 372.425,-1069.83"/>
<text text-anchor="middle" x="273" y="-1069.16" font-family="Sans" font-size="10.00">fixes</text>
</g>
<!-- CAF#110 -->
<g id="node24" class="node"><title>CAF#110</title>
<a xlink:href="https://github.com/quattor/CAF/pull/110" xlink:title="CAF::Download class: API proposal" target="_parent">
<polygon fill="#6cc644" stroke="black" points="157,-1200.16 79,-1200.16 79,-1146.16 157,-1146.16 157,-1200.16"/>
<text text-anchor="middle" x="118" y="-1177.16" font-family="Sans" font-size="10.00">pull-request</text>
<text text-anchor="middle" x="118" y="-1164.16" font-family="Sans" font-size="10.00">CAF#110</text>
</a>
</g>
<!-- CAF#120 -->
<g id="node26" class="node"><title>CAF#120</title>
<polygon fill="lightgrey" stroke="black" points="467,-1193.66 397,-1193.66 397,-1152.66 467,-1152.66 467,-1193.66"/>
<text text-anchor="middle" x="432" y="-1170.66" font-family="Sans" font-size="10.00">CAF#120</text>
</g>
<!-- CAF#110&#45;&gt;CAF#120 -->
<g id="edge20" class="edge"><title>CAF#110-&gt;CAF#120</title>
<path fill="none" stroke="black" stroke-dasharray="5,2" d="M157.768,-1173.16C216.269,-1173.16 325.221,-1173.16 386.719,-1173.16"/>
<polygon fill="none" stroke="black" points="386.897,-1176.66 396.897,-1173.16 386.897,-1169.66 386.897,-1176.66"/>
<text text-anchor="middle" x="273" y="-1177.16" font-family="Sans" font-size="10.00">requires</text>
</g>
<!-- configuration&#45;modules&#45;core#1431 -->
<g id="node27" class="node"><title>configuration-modules-core#1431</title>
<a xlink:href="https://github.com/quattor/configuration-modules-core/pull/1431" xlink:title="ncm-cron: Provide schema validation to match the component code" target="_parent">
<polygon fill="#6cc644" stroke="black" points="204,-1582.16 32,-1582.16 32,-1528.16 204,-1528.16 204,-1582.16"/>
<text text-anchor="middle" x="118" y="-1559.16" font-family="Sans" font-size="10.00">pull-request</text>
<text text-anchor="middle" x="118" y="-1546.16" font-family="Sans" font-size="10.00">configuration-modules-core#1431</text>
</a>
</g>
<!-- configuration&#45;modules&#45;core#1429 -->
<g id="node29" class="node"><title>configuration-modules-core#1429</title>
<a xlink:href="https://github.com/quattor/configuration-modules-core/issues/1429" xlink:title="ncm-cron: Minutes field should not be optional if smear is used" target="_parent">
<ellipse fill="#6cc644" stroke="black" cx="432" cy="-1566.16" rx="121.122" ry="38.1838"/>
<text text-anchor="middle" x="432" y="-1570.16" font-family="Sans" font-size="10.00">issue</text>
<text text-anchor="middle" x="432" y="-1557.16" font-family="Sans" font-size="10.00">configuration-modules-core#1429</text>
</a>
</g>
<!-- configuration&#45;modules&#45;core#1431&#45;&gt;configuration&#45;modules&#45;core#1429 -->
<g id="edge22" class="edge"><title>configuration-modules-core#1431-&gt;configuration-modules-core#1429</title>
<path fill="none" stroke="black" stroke-width="2" d="M193.132,-1528.1C223.706,-1520.21 259.444,-1514.95 292,-1520.16 309.905,-1523.03 328.626,-1527.84 346.34,-1533.29"/>
<polygon fill="black" stroke="black" points="345.475,-1536.68 356.066,-1536.37 347.593,-1530.01 345.475,-1536.68"/>
<text text-anchor="middle" x="273" y="-1524.16" font-family="Sans" font-size="10.00">fixes</text>
</g>
<!-- configuration&#45;modules&#45;core#1431&#45;&gt;configuration&#45;modules&#45;core#1429 -->
<g id="edge42" class="edge"><title>configuration-modules-core#1431-&gt;configuration-modules-core#1429</title>
<path fill="none" stroke="black" stroke-width="2" d="M204.316,-1554.54C232.298,-1554.64 263.474,-1555.07 292,-1556.16 295.751,-1556.31 299.558,-1556.47 303.4,-1556.65"/>
<polygon fill="black" stroke="black" points="303.477,-1560.16 313.639,-1557.16 303.826,-1553.17 303.477,-1560.16"/>
<text text-anchor="middle" x="273" y="-1560.16" font-family="Sans" font-size="10.00">fixes</text>
</g>
<!-- configuration&#45;modules&#45;core#1431&#45;&gt;configuration&#45;modules&#45;core#1429 -->
<g id="edge44" class="edge"><title>configuration-modules-core#1431-&gt;configuration-modules-core#1429</title>
<path fill="none" stroke="black" stroke-width="2" d="M204.231,-1565.39C220.729,-1566.96 237.881,-1568.34 254,-1569.16 269.066,-1569.94 284.857,-1570.31 300.549,-1570.4"/>
<polygon fill="black" stroke="black" points="300.831,-1573.9 310.839,-1570.42 300.846,-1566.9 300.831,-1573.9"/>
<text text-anchor="middle" x="273" y="-1575.16" font-family="Sans" font-size="10.00">fixes</text>
</g>
<!-- configuration&#45;modules&#45;core#1417 -->
<g id="node30" class="node"><title>configuration-modules-core#1417</title>
<a xlink:href="https://github.com/quattor/configuration-modules-core/pull/1417" xlink:title="ncm-puppet: Document string quoting behaviour" target="_parent">
<polygon fill="#6e5494" stroke="black" points="204,-1499.16 32,-1499.16 32,-1445.16 204,-1445.16 204,-1499.16"/>
<text text-anchor="middle" x="118" y="-1476.16" font-family="Sans" font-size="10.00">pull-request</text>
<text text-anchor="middle" x="118" y="-1463.16" font-family="Sans" font-size="10.00">configuration-modules-core#1417</text>
</a>
</g>
<!-- configuration&#45;modules&#45;core#1416 -->
<g id="node32" class="node"><title>configuration-modules-core#1416</title>
<a xlink:href="https://github.com/quattor/configuration-modules-core/issues/1416" xlink:title="ncm-puppet: document behaviour when quoting strings" target="_parent">
<ellipse fill="#bd2c00" stroke="black" cx="432" cy="-1472.16" rx="121.122" ry="38.1838"/>
<text text-anchor="middle" x="432" y="-1476.16" font-family="Sans" font-size="10.00">issue</text>
<text text-anchor="middle" x="432" y="-1463.16" font-family="Sans" font-size="10.00">configuration-modules-core#1416</text>
</a>
</g>
<!-- configuration&#45;modules&#45;core#1417&#45;&gt;configuration&#45;modules&#45;core#1416 -->
<g id="edge24" class="edge"><title>configuration-modules-core#1417-&gt;configuration-modules-core#1416</title>
<path fill="none" stroke="black" stroke-width="2" d="M204.231,-1450.2C220.652,-1446.85 237.775,-1443.93 254,-1442.16 279.028,-1439.44 305.877,-1441.38 330.939,-1445.32"/>
<polygon fill="black" stroke="black" points="330.373,-1448.77 340.817,-1446.99 331.541,-1441.87 330.373,-1448.77"/>
<text text-anchor="middle" x="273" y="-1446.16" font-family="Sans" font-size="10.00">fixes</text>
</g>
<!-- configuration&#45;modules&#45;core#1417&#45;&gt;configuration&#45;modules&#45;core#1416 -->
<g id="edge46" class="edge"><title>configuration-modules-core#1417-&gt;configuration-modules-core#1416</title>
<path fill="none" stroke="black" stroke-width="2" d="M204.217,-1472.16C233.916,-1472.16 267.888,-1472.16 300.372,-1472.16"/>
<polygon fill="black" stroke="black" points="300.399,-1475.66 310.399,-1472.16 300.399,-1468.66 300.399,-1475.66"/>
<text text-anchor="middle" x="273" y="-1476.16" font-family="Sans" font-size="10.00">fixes</text>
</g>
<!-- configuration&#45;modules&#45;core#1402 -->
<g id="node33" class="node"><title>configuration-modules-core#1402</title>
<a xlink:href="https://github.com/quattor/configuration-modules-core/pull/1402" xlink:title="ncm-network: always enable the network service" target="_parent">
<polygon fill="#6cc644" stroke="black" points="204,-1422.16 32,-1422.16 32,-1368.16 204,-1368.16 204,-1422.16"/>
<text text-anchor="middle" x="118" y="-1399.16" font-family="Sans" font-size="10.00">pull-request</text>
<text text-anchor="middle" x="118" y="-1386.16" font-family="Sans" font-size="10.00">configuration-modules-core#1402</text>
</a>
</g>
<!-- configuration&#45;modules&#45;core#1372 -->
<g id="node35" class="node"><title>configuration-modules-core#1372</title>
<a xlink:href="https://github.com/quattor/configuration-modules-core/pull/1372" xlink:title="ncm-network: support ethtool channels" target="_parent">
<polygon fill="#6e5494" stroke="black" points="518,-1416.16 346,-1416.16 346,-1362.16 518,-1362.16 518,-1416.16"/>
<text text-anchor="middle" x="432" y="-1393.16" font-family="Sans" font-size="10.00">pull-request</text>
<text text-anchor="middle" x="432" y="-1380.16" font-family="Sans" font-size="10.00">configuration-modules-core#1372</text>
</a>
</g>
<!-- configuration&#45;modules&#45;core#1402&#45;&gt;configuration&#45;modules&#45;core#1372 -->
<g id="edge26" class="edge"><title>configuration-modules-core#1402-&gt;configuration-modules-core#1372</title>
<path fill="none" stroke="black" stroke-dasharray="5,2" d="M204.319,-1375.39C220.731,-1372.38 237.829,-1369.75 254,-1368.16 280.499,-1365.56 309.17,-1367.04 335.6,-1370.17"/>
<polygon fill="none" stroke="black" points="335.249,-1373.65 345.611,-1371.45 336.134,-1366.71 335.249,-1373.65"/>
<text text-anchor="middle" x="273" y="-1372.16" font-family="Sans" font-size="10.00">requires</text>
</g>
<!-- configuration&#45;modules&#45;core#1402&#45;&gt;configuration&#45;modules&#45;core#1372 -->
<g id="edge48" class="edge"><title>configuration-modules-core#1402-&gt;configuration-modules-core#1372</title>
<path fill="none" stroke="black" stroke-dasharray="5,2" d="M204.217,-1393.52C244.975,-1392.74 293.781,-1391.81 335.743,-1391"/>
<polygon fill="none" stroke="black" points="336.044,-1394.5 345.975,-1390.81 335.91,-1387.5 336.044,-1394.5"/>
<text text-anchor="middle" x="273" y="-1397.16" font-family="Sans" font-size="10.00">requires</text>
</g>
<!-- configuration&#45;modules&#45;core#1322 -->
<g id="node43" class="node"><title>configuration-modules-core#1322</title>
<a xlink:href="https://github.com/quattor/configuration-modules-core/pull/1322" xlink:title="ncm-network: support rules and routes using routing tables" target="_parent">
<polygon fill="#6e5494" stroke="black" points="798,-1416.16 626,-1416.16 626,-1362.16 798,-1362.16 798,-1416.16"/>
<text text-anchor="middle" x="712" y="-1393.16" font-family="Sans" font-size="10.00">pull-request</text>
<text text-anchor="middle" x="712" y="-1380.16" font-family="Sans" font-size="10.00">configuration-modules-core#1322</text>
</a>
</g>
<!-- configuration&#45;modules&#45;core#1372&#45;&gt;configuration&#45;modules&#45;core#1322 -->
<g id="edge32" class="edge"><title>configuration-modules-core#1372-&gt;configuration-modules-core#1322</title>
<path fill="none" stroke="black" stroke-dasharray="5,2" d="M518.339,-1374.7C546.868,-1371.56 578.78,-1369.79 608,-1372.16 610.553,-1372.37 613.138,-1372.61 615.743,-1372.87"/>
<polygon fill="none" stroke="black" points="615.548,-1376.37 625.872,-1373.98 616.315,-1369.41 615.548,-1376.37"/>
<text text-anchor="middle" x="590" y="-1376.16" font-family="Sans" font-size="10.00">requires</text>
</g>
<!-- configuration&#45;modules&#45;core#1372&#45;&gt;configuration&#45;modules&#45;core#1322 -->
<g id="edge54" class="edge"><title>configuration-modules-core#1372-&gt;configuration-modules-core#1322</title>
<path fill="none" stroke="black" stroke-dasharray="5,2" d="M518.294,-1389.16C549.177,-1389.16 584.171,-1389.16 615.836,-1389.16"/>
<polygon fill="none" stroke="black" points="615.991,-1392.66 625.991,-1389.16 615.991,-1385.66 615.991,-1392.66"/>
<text text-anchor="middle" x="590" y="-1393.16" font-family="Sans" font-size="10.00">requires</text>
</g>
<!-- configuration&#45;modules&#45;core#1401 -->
<g id="node36" class="node"><title>configuration-modules-core#1401</title>
<a xlink:href="https://github.com/quattor/configuration-modules-core/pull/1401" xlink:title="ncm-spma: yumdnf: initial dnf/yum4 based on yum" target="_parent">
<polygon fill="#6cc644" stroke="black" points="204,-536.165 32,-536.165 32,-482.165 204,-482.165 204,-536.165"/>
<text text-anchor="middle" x="118" y="-513.165" font-family="Sans" font-size="10.00">pull-request</text>
<text text-anchor="middle" x="118" y="-500.165" font-family="Sans" font-size="10.00">configuration-modules-core#1401</text>
</a>
</g>
<!-- configuration&#45;modules&#45;core#1405 -->
<g id="node38" class="node"><title>configuration-modules-core#1405</title>
<polygon fill="lightgrey" stroke="black" points="518,-104.665 346,-104.665 346,-63.6646 518,-63.6646 518,-104.665"/>
<text text-anchor="middle" x="432" y="-81.6646" font-family="Sans" font-size="10.00">configuration-modules-core#1405</text>
</g>
<!-- configuration&#45;modules&#45;core#1401&#45;&gt;configuration&#45;modules&#45;core#1405 -->
<g id="edge28" class="edge"><title>configuration-modules-core#1401-&gt;configuration-modules-core#1405</title>
<path fill="none" stroke="black" stroke-dasharray="5,2" d="M204.201,-496.629C216.501,-491.252 227.754,-483.71 236,-473.165 282.879,-413.212 207.568,-191.464 254,-131.165 264.784,-117.16 299.474,-106.484 335.402,-98.8738"/>
<polygon fill="none" stroke="black" points="336.448,-102.233 345.549,-96.8084 335.052,-95.3733 336.448,-102.233"/>
<text text-anchor="middle" x="273" y="-135.165" font-family="Sans" font-size="10.00">requires</text>
</g>
<!-- configuration&#45;modules&#45;core#1401&#45;&gt;configuration&#45;modules&#45;core#1405 -->
<g id="edge50" class="edge"><title>configuration-modules-core#1401-&gt;configuration-modules-core#1405</title>
<path fill="none" stroke="black" stroke-dasharray="5,2" d="M204.248,-496.665C216.542,-491.284 227.781,-483.731 236,-473.165 261.884,-439.887 224.319,-124.104 254,-94.1646 265.9,-82.1611 300.045,-78.5797 335.289,-78.4189"/>
<polygon fill="none" stroke="black" points="335.721,-81.9208 345.737,-78.4664 335.753,-74.9209 335.721,-81.9208"/>
<text text-anchor="middle" x="273" y="-98.1646" font-family="Sans" font-size="10.00">requires</text>
</g>
<!-- configuration&#45;modules&#45;core#1394 -->
<g id="node39" class="node"><title>configuration-modules-core#1394</title>
<a xlink:href="https://github.com/quattor/configuration-modules-core/pull/1394" xlink:title="ncm-metaconfig generic templates" target="_parent">
<polygon fill="#6e5494" stroke="black" points="204,-1348.16 32,-1348.16 32,-1294.16 204,-1294.16 204,-1348.16"/>
<text text-anchor="middle" x="118" y="-1325.16" font-family="Sans" font-size="10.00">pull-request</text>
<text text-anchor="middle" x="118" y="-1312.16" font-family="Sans" font-size="10.00">configuration-modules-core#1394</text>
</a>
</g>
<!-- configuration&#45;modules&#45;core#1387 -->
<g id="node41" class="node"><title>configuration-modules-core#1387</title>
<a xlink:href="https://github.com/quattor/configuration-modules-core/pull/1387" xlink:title="ncm-metaconfig: the content should not only be a dict" target="_parent">
<polygon fill="#6e5494" stroke="black" points="518,-1344.16 346,-1344.16 346,-1290.16 518,-1290.16 518,-1344.16"/>
<text text-anchor="middle" x="432" y="-1321.16" font-family="Sans" font-size="10.00">pull-request</text>
<text text-anchor="middle" x="432" y="-1308.16" font-family="Sans" font-size="10.00">configuration-modules-core#1387</text>
</a>
</g>
<!-- configuration&#45;modules&#45;core#1394&#45;&gt;configuration&#45;modules&#45;core#1387 -->
<g id="edge30" class="edge"><title>configuration-modules-core#1394-&gt;configuration-modules-core#1387</title>
<path fill="none" stroke="black" stroke-dasharray="5,2" d="M204.2,-1298.47C220.623,-1295.01 237.756,-1291.99 254,-1290.16 280.578,-1287.17 309.275,-1289.2 335.706,-1293.22"/>
<polygon fill="none" stroke="black" points="335.282,-1296.7 345.715,-1294.85 336.409,-1289.79 335.282,-1296.7"/>
<text text-anchor="middle" x="273" y="-1294.16" font-family="Sans" font-size="10.00">requires</text>
</g>
<!-- configuration&#45;modules&#45;core#1394&#45;&gt;configuration&#45;modules&#45;core#1387 -->
<g id="edge52" class="edge"><title>configuration-modules-core#1394-&gt;configuration-modules-core#1387</title>
<path fill="none" stroke="black" stroke-dasharray="5,2" d="M204.217,-1320.07C244.975,-1319.55 293.781,-1318.93 335.743,-1318.39"/>
<polygon fill="none" stroke="black" points="336.021,-1321.89 345.975,-1318.26 335.931,-1314.89 336.021,-1321.89"/>
<text text-anchor="middle" x="273" y="-1324.16" font-family="Sans" font-size="10.00">requires</text>
</g>
<!-- configuration&#45;modules&#45;core#1341 -->
<g id="node44" class="node"><title>configuration-modules-core#1341</title>
<a xlink:href="https://github.com/quattor/configuration-modules-core/pull/1341" xlink:title="ncm-metaconfig: switch to CAF::ServiceActions" target="_parent">
<polygon fill="#6cc644" stroke="black" points="204,-464.165 32,-464.165 32,-410.165 204,-410.165 204,-464.165"/>
<text text-anchor="middle" x="118" y="-441.165" font-family="Sans" font-size="10.00">pull-request</text>
<text text-anchor="middle" x="118" y="-428.165" font-family="Sans" font-size="10.00">configuration-modules-core#1341</text>
</a>
</g>
<!-- CAF#267 -->
<g id="node46" class="node"><title>CAF#267</title>
<polygon fill="lightgrey" stroke="black" points="467,-43.6646 397,-43.6646 397,-2.66462 467,-2.66462 467,-43.6646"/>
<text text-anchor="middle" x="432" y="-20.6646" font-family="Sans" font-size="10.00">CAF#267</text>
</g>
<!-- configuration&#45;modules&#45;core#1341&#45;&gt;CAF#267 -->
<g id="edge34" class="edge"><title>configuration-modules-core#1341-&gt;CAF#267</title>
<path fill="none" stroke="black" stroke-dasharray="5,2" d="M119.111,-410.033C123.521,-340.161 145.411,-152.972 254,-59.1646 290.576,-27.5681 347.177,-20.9039 386.703,-20.6421"/>
<polygon fill="none" stroke="black" points="386.84,-24.1431 396.864,-20.7121 386.889,-17.1432 386.84,-24.1431"/>
<text text-anchor="middle" x="273" y="-63.1646" font-family="Sans" font-size="10.00">requires</text>
</g>
<!-- configuration&#45;modules&#45;core#1341&#45;&gt;CAF#267 -->
<g id="edge56" class="edge"><title>configuration-modules-core#1341-&gt;CAF#267</title>
<path fill="none" stroke="black" stroke-dasharray="5,2" d="M122.613,-410.152C137.682,-325.449 188.287,-67.8528 254,-20.1646 292.118,7.49742 347.925,1.1651 386.857,-8.49273"/>
<polygon fill="none" stroke="black" points="386.303,-11.9664 396.865,-11.1396 388.092,-5.19906 386.303,-11.9664"/>
<text text-anchor="middle" x="273" y="-24.1646" font-family="Sans" font-size="10.00">requires</text>
</g>
<!-- configuration&#45;modules&#45;core#1336 -->
<g id="node47" class="node"><title>configuration-modules-core#1336</title>
<a xlink:href="https://github.com/quattor/configuration-modules-core/pull/1336" xlink:title="ncm-network: Add support for CAF::Service actions after changes" target="_parent">
<polygon fill="#6cc644" stroke="black" points="204,-752.165 32,-752.165 32,-698.165 204,-698.165 204,-752.165"/>
<text text-anchor="middle" x="118" y="-729.165" font-family="Sans" font-size="10.00">pull-request</text>
<text text-anchor="middle" x="118" y="-716.165" font-family="Sans" font-size="10.00">configuration-modules-core#1336</text>
</a>
</g>
<!-- configuration&#45;modules&#45;core#1335 -->
<g id="node49" class="node"><title>configuration-modules-core#1335</title>
<a xlink:href="https://github.com/quattor/configuration-modules-core/pull/1335" xlink:title="ncm-metaconfig: Remove caf_service_action type to allow reuse" target="_parent">
<polygon fill="#6cc644" stroke="black" points="518,-752.165 346,-752.165 346,-698.165 518,-698.165 518,-752.165"/>
<text text-anchor="middle" x="432" y="-729.165" font-family="Sans" font-size="10.00">pull-request</text>
<text text-anchor="middle" x="432" y="-716.165" font-family="Sans" font-size="10.00">configuration-modules-core#1335</text>
</a>
</g>
<!-- configuration&#45;modules&#45;core#1336&#45;&gt;configuration&#45;modules&#45;core#1335 -->
<g id="edge36" class="edge"><title>configuration-modules-core#1336-&gt;configuration-modules-core#1335</title>
<path fill="none" stroke="black" stroke-dasharray="5,2" d="M204.333,-724.434C220.822,-724.322 237.944,-724.224 254,-724.165 280.58,-724.067 309.393,-724.148 335.937,-724.298"/>
<polygon fill="none" stroke="black" points="335.969,-727.798 345.99,-724.359 336.012,-720.798 335.969,-727.798"/>
<text text-anchor="middle" x="273" y="-728.165" font-family="Sans" font-size="10.00">requires</text>
</g>
<!-- configuration&#45;modules&#45;core#1336&#45;&gt;configuration&#45;modules&#45;core#1335 -->
<g id="edge58" class="edge"><title>configuration-modules-core#1336-&gt;configuration-modules-core#1335</title>
<path fill="none" stroke="black" stroke-dasharray="5,2" d="M204.258,-733.927C220.754,-735.277 237.898,-736.456 254,-737.165 280.477,-738.33 309.141,-737.376 335.572,-735.589"/>
<polygon fill="none" stroke="black" points="335.862,-739.077 345.583,-734.866 335.357,-732.095 335.862,-739.077"/>
<text text-anchor="middle" x="273" y="-742.165" font-family="Sans" font-size="10.00">requires</text>
</g>
<!-- configuration&#45;modules&#45;core#1071 -->
<g id="node51" class="node"><title>configuration-modules-core#1071</title>
<a xlink:href="https://github.com/quattor/configuration-modules-core/issues/1071" xlink:title="ncm-network: support daemons to restart after network changes" target="_parent">
<ellipse fill="#6cc644" stroke="black" cx="432" cy="-642.165" rx="121.122" ry="38.1838"/>
<text text-anchor="middle" x="432" y="-646.165" font-family="Sans" font-size="10.00">issue</text>
<text text-anchor="middle" x="432" y="-633.165" font-family="Sans" font-size="10.00">configuration-modules-core#1071</text>
</a>
</g>
<!-- configuration&#45;modules&#45;core#1336&#45;&gt;configuration&#45;modules&#45;core#1071 -->
<g id="edge38" class="edge"><title>configuration-modules-core#1336-&gt;configuration-modules-core#1071</title>
<path fill="none" stroke="black" stroke-width="2" d="M204.145,-708.478C215.714,-703.603 226.758,-697.304 236,-689.165 250.63,-676.28 237.84,-660.069 254,-649.165 270.154,-638.263 289.141,-632.305 308.587,-629.516"/>
<polygon fill="black" stroke="black" points="309.254,-632.962 318.786,-628.337 308.45,-626.009 309.254,-632.962"/>
<text text-anchor="middle" x="273" y="-653.165" font-family="Sans" font-size="10.00">fixes</text>
</g>
<!-- configuration&#45;modules&#45;core#1336&#45;&gt;configuration&#45;modules&#45;core#1071 -->
<g id="edge60" class="edge"><title>configuration-modules-core#1336-&gt;configuration-modules-core#1071</title>
<path fill="none" stroke="black" stroke-width="2" d="M204.217,-702.375C242.878,-692.155 288.781,-680.022 329.216,-669.334"/>
<polygon fill="black" stroke="black" points="330.325,-672.661 339.099,-666.721 328.536,-665.893 330.325,-672.661"/>
<text text-anchor="middle" x="273" y="-693.165" font-family="Sans" font-size="10.00">fixes</text>
</g>
<!-- template&#45;library&#45;core#191 -->
<g id="node53" class="node"><title>template-library-core#191</title>
<a xlink:href="https://github.com/quattor/template-library-core/pull/191" xlink:title="Allow the caf_service_action to be used by multiple components" target="_parent">
<polygon fill="#6cc644" stroke="black" points="781,-752.165 643,-752.165 643,-698.165 781,-698.165 781,-752.165"/>
<text text-anchor="middle" x="712" y="-729.165" font-family="Sans" font-size="10.00">pull-request</text>
<text text-anchor="middle" x="712" y="-716.165" font-family="Sans" font-size="10.00">template-library-core#191</text>
</a>
</g>
<!-- configuration&#45;modules&#45;core#1335&#45;&gt;template&#45;library&#45;core#191 -->
<g id="edge40" class="edge"><title>configuration-modules-core#1335-&gt;template-library-core#191</title>
<path fill="none" stroke="black" stroke-dasharray="5,2" d="M518.339,-710.699C546.868,-707.556 578.78,-705.792 608,-708.165 616.038,-708.817 624.391,-709.749 632.712,-710.845"/>
<polygon fill="none" stroke="black" points="632.436,-714.34 642.824,-712.254 633.403,-707.407 632.436,-714.34"/>
<text text-anchor="middle" x="590" y="-712.165" font-family="Sans" font-size="10.00">requires</text>
</g>
<!-- configuration&#45;modules&#45;core#1335&#45;&gt;template&#45;library&#45;core#191 -->
<g id="edge62" class="edge"><title>configuration-modules-core#1335-&gt;template-library-core#191</title>
<path fill="none" stroke="black" stroke-dasharray="5,2" d="M518.294,-725.165C554.71,-725.165 596.84,-725.165 632.49,-725.165"/>
<polygon fill="none" stroke="black" points="632.847,-728.665 642.847,-725.165 632.847,-721.665 632.847,-728.665"/>
<text text-anchor="middle" x="590" y="-729.165" font-family="Sans" font-size="10.00">requires</text>
</g>
<!-- configuration&#45;modules&#45;core#1148 -->
<g id="node65" class="node"><title>configuration-modules-core#1148</title>
<a xlink:href="https://github.com/quattor/configuration-modules-core/pull/1148" xlink:title="ncm-spma: Remove support from groups from spma yumng backend" target="_parent">
<polygon fill="#6cc644" stroke="black" points="204,-1803.16 32,-1803.16 32,-1749.16 204,-1749.16 204,-1803.16"/>
<text text-anchor="middle" x="118" y="-1780.16" font-family="Sans" font-size="10.00">pull-request</text>
<text text-anchor="middle" x="118" y="-1767.16" font-family="Sans" font-size="10.00">configuration-modules-core#1148</text>
</a>
</g>
<!-- configuration&#45;modules&#45;core#952 -->
<g id="node67" class="node"><title>configuration-modules-core#952</title>
<a xlink:href="https://github.com/quattor/configuration-modules-core/issues/952" xlink:title="ncm-spma (yumng): Remove support for package groups" target="_parent">
<ellipse fill="#6cc644" stroke="black" cx="432" cy="-1776.16" rx="118.087" ry="38.1838"/>
<text text-anchor="middle" x="432" y="-1780.16" font-family="Sans" font-size="10.00">issue</text>
<text text-anchor="middle" x="432" y="-1767.16" font-family="Sans" font-size="10.00">configuration-modules-core#952</text>
</a>
</g>
<!-- configuration&#45;modules&#45;core#1148&#45;&gt;configuration&#45;modules&#45;core#952 -->
<g id="edge64" class="edge"><title>configuration-modules-core#1148-&gt;configuration-modules-core#952</title>
<path fill="none" stroke="black" stroke-width="2" d="M204.217,-1776.16C234.903,-1776.16 270.151,-1776.16 303.606,-1776.16"/>
<polygon fill="black" stroke="black" points="303.924,-1779.66 313.924,-1776.16 303.924,-1772.66 303.924,-1779.66"/>
<text text-anchor="middle" x="273" y="-1780.16" font-family="Sans" font-size="10.00">fixes</text>
</g>
<!-- configuration&#45;modules&#45;core#950 -->
<g id="node68" class="node"><title>configuration-modules-core#950</title>
<a xlink:href="https://github.com/quattor/configuration-modules-core/issues/950" xlink:title="ncm-spma: Remove support for package groups from yum backends" target="_parent">
<ellipse fill="#6cc644" stroke="black" cx="118" cy="-1687.16" rx="118.087" ry="38.1838"/>
<text text-anchor="middle" x="118" y="-1691.16" font-family="Sans" font-size="10.00">issue</text>
<text text-anchor="middle" x="118" y="-1678.16" font-family="Sans" font-size="10.00">configuration-modules-core#950</text>
</a>
</g>
<!-- configuration&#45;modules&#45;core#950&#45;&gt;configuration&#45;modules&#45;core#952 -->
<g id="edge68" class="edge"><title>configuration-modules-core#950-&gt;configuration-modules-core#952</title>
<path fill="none" stroke="black" stroke-dasharray="5,2" d="M206.721,-1712.31C246.26,-1723.52 292.974,-1736.76 333.584,-1748.27"/>
<polygon fill="none" stroke="black" points="332.651,-1751.64 343.226,-1751 334.56,-1744.91 332.651,-1751.64"/>
<text text-anchor="middle" x="273" y="-1739.16" font-family="Sans" font-size="10.00">requires</text>
</g>
<!-- configuration&#45;modules&#45;core#951 -->
<g id="node70" class="node"><title>configuration-modules-core#951</title>
<a xlink:href="https://github.com/quattor/configuration-modules-core/issues/951" xlink:title="ncm-spma (yum): Remove support for package groups" target="_parent">
<ellipse fill="#6cc644" stroke="black" cx="432" cy="-1682.16" rx="118.087" ry="38.1838"/>
<text text-anchor="middle" x="432" y="-1686.16" font-family="Sans" font-size="10.00">issue</text>
<text text-anchor="middle" x="432" y="-1673.16" font-family="Sans" font-size="10.00">configuration-modules-core#951</text>
</a>
</g>
<!-- configuration&#45;modules&#45;core#950&#45;&gt;configuration&#45;modules&#45;core#951 -->
<g id="edge66" class="edge"><title>configuration-modules-core#950-&gt;configuration-modules-core#951</title>
<path fill="none" stroke="black" stroke-dasharray="5,2" d="M236.263,-1685.28C258.348,-1684.93 281.525,-1684.56 303.892,-1684.2"/>
<polygon fill="none" stroke="black" points="304.162,-1687.7 314.105,-1684.04 304.05,-1680.7 304.162,-1687.7"/>
<text text-anchor="middle" x="273" y="-1689.16" font-family="Sans" font-size="10.00">requires</text>
</g>
<!-- template&#45;library&#45;core#196 -->
<g id="node72" class="node"><title>template-library-core#196</title>
<a xlink:href="https://github.com/quattor/template-library-core/pull/196" xlink:title="pan/types: Add string type for search paths" target="_parent">
<polygon fill="#6e5494" stroke="black" points="187,-1272.16 49,-1272.16 49,-1218.16 187,-1218.16 187,-1272.16"/>
<text text-anchor="middle" x="118" y="-1249.16" font-family="Sans" font-size="10.00">pull-request</text>
<text text-anchor="middle" x="118" y="-1236.16" font-family="Sans" font-size="10.00">template-library-core#196</text>
</a>
</g>
<!-- template&#45;library&#45;core#197 -->
<g id="node74" class="node"><title>template-library-core#197</title>
<a xlink:href="https://github.com/quattor/template-library-core/pull/197" xlink:title="pan/types: Cleanup style - lint, indentation, wrapping" target="_parent">
<polygon fill="#6e5494" stroke="black" points="501,-1272.16 363,-1272.16 363,-1218.16 501,-1218.16 501,-1272.16"/>
<text text-anchor="middle" x="432" y="-1249.16" font-family="Sans" font-size="10.00">pull-request</text>
<text text-anchor="middle" x="432" y="-1236.16" font-family="Sans" font-size="10.00">template-library-core#197</text>
</a>
</g>
<!-- template&#45;library&#45;core#196&#45;&gt;template&#45;library&#45;core#197 -->
<g id="edge70" class="edge"><title>template-library-core#196-&gt;template-library-core#197</title>
<path fill="none" stroke="black" stroke-dasharray="5,2" d="M187.297,-1245.16C236.128,-1245.16 301.624,-1245.16 352.568,-1245.16"/>
<polygon fill="none" stroke="black" points="352.88,-1248.66 362.88,-1245.16 352.88,-1241.66 352.88,-1248.66"/>
<text text-anchor="middle" x="273" y="-1249.16" font-family="Sans" font-size="10.00">requires</text>
</g>
<!-- template&#45;library&#45;grid#232 -->
<g id="node75" class="node"><title>template-library-grid#232</title>
<a xlink:href="https://github.com/quattor/template-library-grid/pull/232" xlink:title="arc-ce: Export arc-ce feature from aquilon at RAL" target="_parent">
<polygon fill="#6cc644" stroke="black" points="185,-1001.16 51,-1001.16 51,-947.165 185,-947.165 185,-1001.16"/>
<text text-anchor="middle" x="118" y="-978.165" font-family="Sans" font-size="10.00">pull-request</text>
<text text-anchor="middle" x="118" y="-965.165" font-family="Sans" font-size="10.00">template-library-grid#232</text>
</a>
</g>
<!-- template&#45;library&#45;grid#221 -->
<g id="node77" class="node"><title>template-library-grid#221</title>
<a xlink:href="https://github.com/quattor/template-library-grid/issues/221" xlink:title="Support for new CE types (ARC CE, HTCONDOR CE)" target="_parent">
<ellipse fill="#6cc644" stroke="black" cx="432" cy="-974.165" rx="94.9596" ry="38.1838"/>
<text text-anchor="middle" x="432" y="-978.165" font-family="Sans" font-size="10.00">issue</text>
<text text-anchor="middle" x="432" y="-965.165" font-family="Sans" font-size="10.00">template-library-grid#221</text>
</a>
</g>
<!-- template&#45;library&#45;grid#232&#45;&gt;template&#45;library&#45;grid#221 -->
<g id="edge72" class="edge"><title>template-library-grid#232-&gt;template-library-grid#221</title>
<path fill="none" stroke="black" stroke-width="2" d="M185.747,-974.165C226.73,-974.165 279.863,-974.165 326.279,-974.165"/>
<polygon fill="black" stroke="black" points="326.381,-977.665 336.381,-974.165 326.381,-970.665 326.381,-977.665"/>
<text text-anchor="middle" x="273" y="-978.165" font-family="Sans" font-size="10.00">fixes</text>
</g>
<!-- aquilon#115 -->
<g id="node78" class="node"><title>aquilon#115</title>
<a xlink:href="https://github.com/quattor/aquilon/pull/115" xlink:title="services: insert service data early in the object template" target="_parent">
<polygon fill="#6cc644" stroke="black" points="158,-2124.16 78,-2124.16 78,-2070.16 158,-2070.16 158,-2124.16"/>
<text text-anchor="middle" x="118" y="-2101.16" font-family="Sans" font-size="10.00">pull-request</text>
<text text-anchor="middle" x="118" y="-2088.16" font-family="Sans" font-size="10.00">aquilon#115</text>
</a>
</g>
<!-- aquilon#109 -->
<g id="node80" class="node"><title>aquilon#109</title>
<a xlink:href="https://github.com/quattor/aquilon/issues/109" xlink:title="Why service configuration is included so late in the plenary object?" target="_parent">
<ellipse fill="#6cc644" stroke="black" cx="432" cy="-2086.16" rx="56.0679" ry="38.1838"/>
<text text-anchor="middle" x="432" y="-2090.16" font-family="Sans" font-size="10.00">issue</text>
<text text-anchor="middle" x="432" y="-2077.16" font-family="Sans" font-size="10.00">aquilon#109</text>
</a>
</g>
<!-- aquilon#115&#45;&gt;aquilon#109 -->
<g id="edge74" class="edge"><title>aquilon#115-&gt;aquilon#109</title>
<path fill="none" stroke="black" stroke-width="2" d="M158.087,-2095.76C210.318,-2093.93 302.376,-2090.71 365.228,-2088.5"/>
<polygon fill="black" stroke="black" points="365.57,-2091.99 375.441,-2088.15 365.325,-2085 365.57,-2091.99"/>
<text text-anchor="middle" x="273" y="-2096.16" font-family="Sans" font-size="10.00">fixes</text>
</g>
<!-- aquilon#110 -->
<g id="node81" class="node"><title>aquilon#110</title>
<a xlink:href="https://github.com/quattor/aquilon/pull/110" xlink:title="Change site and machine namespace to use continent name" target="_parent">
<polygon fill="#6cc644" stroke="black" points="158,-2052.16 78,-2052.16 78,-1998.16 158,-1998.16 158,-2052.16"/>
<text text-anchor="middle" x="118" y="-2029.16" font-family="Sans" font-size="10.00">pull-request</text>
<text text-anchor="middle" x="118" y="-2016.16" font-family="Sans" font-size="10.00">aquilon#110</text>
</a>
</g>
<!-- aquilon#104 -->
<g id="node83" class="node"><title>aquilon#104</title>
<a xlink:href="https://github.com/quattor/aquilon/issues/104" xlink:title="1.12.62: location related templates cannot be used" target="_parent">
<ellipse fill="#6cc644" stroke="black" cx="432" cy="-1979.16" rx="56.0679" ry="38.1838"/>
<text text-anchor="middle" x="432" y="-1983.16" font-family="Sans" font-size="10.00">issue</text>
<text text-anchor="middle" x="432" y="-1970.16" font-family="Sans" font-size="10.00">aquilon#104</text>
</a>
</g>
<!-- aquilon#110&#45;&gt;aquilon#104 -->
<g id="edge76" class="edge"><title>aquilon#110-&gt;aquilon#104</title>
<path fill="none" stroke="black" stroke-width="2" d="M158.087,-2019.29C210.631,-2011.59 303.481,-1997.99 366.355,-1988.78"/>
<polygon fill="black" stroke="black" points="367.178,-1992.2 376.565,-1987.29 366.163,-1985.27 367.178,-1992.2"/>
<text text-anchor="middle" x="273" y="-2008.16" font-family="Sans" font-size="10.00">fixes</text>
</g>
<!-- aquilon#91 -->
<g id="node84" class="node"><title>aquilon#91</title>
<a xlink:href="https://github.com/quattor/aquilon/issues/91" xlink:title="1.12.58: city timezone is not passed to the object template" target="_parent">
<ellipse fill="#6cc644" stroke="black" cx="118" cy="-1942.16" rx="53.033" ry="38.1838"/>
<text text-anchor="middle" x="118" y="-1946.16" font-family="Sans" font-size="10.00">issue</text>
<text text-anchor="middle" x="118" y="-1933.16" font-family="Sans" font-size="10.00">aquilon#91</text>
</a>
</g>
<!-- aquilon#91&#45;&gt;aquilon#104 -->
<g id="edge78" class="edge"><title>aquilon#91-&gt;aquilon#104</title>
<path fill="none" stroke="black" stroke-dasharray="5,2" d="M170.557,-1948.36C224.248,-1954.68 307.764,-1964.53 365.906,-1971.38"/>
<polygon fill="none" stroke="black" points="365.751,-1974.88 376.092,-1972.58 366.57,-1967.93 365.751,-1974.88"/>
<text text-anchor="middle" x="273" y="-1965.16" font-family="Sans" font-size="10.00">requires</text>
</g>
<!-- aquilon#89 -->
<g id="node86" class="node"><title>aquilon#89</title>
<a xlink:href="https://github.com/quattor/aquilon/pull/89" xlink:title="Broker: pass archetype to the object profile" target="_parent">
<polygon fill="#6cc644" stroke="black" points="157,-1886.16 79,-1886.16 79,-1832.16 157,-1832.16 157,-1886.16"/>
<text text-anchor="middle" x="118" y="-1863.16" font-family="Sans" font-size="10.00">pull-request</text>
<text text-anchor="middle" x="118" y="-1850.16" font-family="Sans" font-size="10.00">aquilon#89</text>
</a>
</g>
<!-- aquilon#88 -->
<g id="node88" class="node"><title>aquilon#88</title>
<a xlink:href="https://github.com/quattor/aquilon/issues/88" xlink:title="1.12.58: the broker should pass the archetype to the object template" target="_parent">
<ellipse fill="#6cc644" stroke="black" cx="432" cy="-1870.16" rx="53.033" ry="38.1838"/>
<text text-anchor="middle" x="432" y="-1874.16" font-family="Sans" font-size="10.00">issue</text>
<text text-anchor="middle" x="432" y="-1861.16" font-family="Sans" font-size="10.00">aquilon#88</text>
</a>
</g>
<!-- aquilon#89&#45;&gt;aquilon#88 -->
<g id="edge80" class="edge"><title>aquilon#89-&gt;aquilon#88</title>
<path fill="none" stroke="black" stroke-width="2" d="M157.768,-1860.56C210.918,-1862.42 305.713,-1865.74 368.729,-1867.95"/>
<polygon fill="black" stroke="black" points="368.829,-1871.45 378.945,-1868.31 369.074,-1864.46 368.829,-1871.45"/>
<text text-anchor="middle" x="273" y="-1869.16" font-family="Sans" font-size="10.00">fixes</text>
</g>
</g>
</svg>
