<?xml version="1.0" encoding="UTF-8" standalone="no"?>
<?xml-stylesheet href="relationships.css" type="text/css"?>
<!-- Generated by graphviz version 2.40.1 (0)
 -->
<!-- Title: Dependencies Pages: 1 -->
<svg xmlns="http://www.w3.org/2000/svg" xmlns:xlink="http://www.w3.org/1999/xlink" width="1076pt" height="1680pt" viewBox="0.00 0.00 1076.00 1679.50">
<g id="graph0" class="graph" transform="scale(1 1) rotate(0) translate(4 1675.5)">
<title>Dependencies</title>
<polygon fill="#ffffff" stroke="transparent" points="-4,4 -4,-1675.5 1072,-1675.5 1072,4 -4,4"/>
<g id="clust1" class="cluster">
<title>cluster_milestone_25.next</title>
<polygon fill="none" stroke="#000000" points="292,-287.5 292,-1339.5 1060,-1339.5 1060,-287.5 292,-287.5"/>
<text text-anchor="middle" x="676" y="-1325.9" font-family="Sans" font-size="12.00" fill="#000000">25.next</text>
</g>
<!-- aii#328 -->
<g id="node1" class="node">
<title>aii#328</title>
<g id="a_node1"><a xlink:href="https://github.com/quattor/aii/pull/328" xlink:title="aii#328 (pull-request)" target="_parent">
<polygon fill="#6cc644" stroke="#000000" points="473,-549.5 308,-549.5 308,-499.5 473,-499.5 473,-549.5"/>
<text text-anchor="middle" x="390.5" y="-527.5" font-family="Sans" font-size="10.00" fill="#000000">aii-ks: generate ks post section</text>
<text text-anchor="middle" x="390.5" y="-516.5" font-family="Sans" font-size="10.00" fill="#000000">as standalone script</text>
</a>
</g>
</g>
<!-- aii#280 -->
<g id="node2" class="node">
<title>aii#280</title>
<polygon fill="#d3d3d3" stroke="#000000" points="713.5,-279 654.5,-279 654.5,-240 713.5,-240 713.5,-279"/>
<text text-anchor="middle" x="684" y="-257" font-family="Sans" font-size="10.00" fill="#000000">aii#280</text>
</g>
<!-- aii#328&#45;&gt;aii#280 -->
<g id="edge1" class="edge">
<title>aii#328-&gt;aii#280</title>
<path fill="none" stroke="#000000" stroke-dasharray="5,2" d="M473.0595,-499.8936C477.6554,-497.0855 482.0166,-493.9654 486,-490.5 564.2893,-422.3914 513.0034,-348.3657 594,-283.5 608.1113,-272.1991 627.0617,-266.1914 643.9335,-263.0091"/>
<polygon fill="none" stroke="#000000" points="644.7918,-266.416 654.1082,-261.3706 643.6789,-259.505 644.7918,-266.416"/>
<text text-anchor="middle" x="523.6019" y="-367.5058" font-family="Sans" font-size="10.00" fill="#000000">requires</text>
</g>
<!-- aii#316 -->
<g id="node3" class="node">
<title>aii#316</title>
<polygon fill="#d3d3d3" stroke="#000000" points="713.5,-222 654.5,-222 654.5,-183 713.5,-183 713.5,-222"/>
<text text-anchor="middle" x="684" y="-200" font-family="Sans" font-size="10.00" fill="#000000">aii#316</text>
</g>
<!-- aii#328&#45;&gt;aii#316 -->
<g id="edge2" class="edge">
<title>aii#328-&gt;aii#316</title>
<path fill="none" stroke="#000000" stroke-dasharray="5,2" d="M473.4214,-500.2918C477.9287,-497.3862 482.1714,-494.1357 486,-490.5 576.7351,-404.3361 501.5426,-314.8132 594,-230.5 607.8472,-217.8725 627.3167,-210.9394 644.6069,-207.133"/>
<polygon fill="none" stroke="#000000" points="645.3179,-210.5605 654.4763,-205.2337 643.995,-203.6866 645.3179,-210.5605"/>
<text text-anchor="middle" x="522.7369" y="-342.5938" font-family="Sans" font-size="10.00" fill="#000000">requires</text>
</g>
<!-- aii#331 -->
<g id="node4" class="node">
<title>aii#331</title>
<g id="a_node4"><a xlink:href="https://github.com/quattor/aii/pull/331" xlink:title="aii#331 (pull-request)" target="_parent">
<polygon fill="#6cc644" stroke="#000000" points="157.5,-555 29.5,-555 29.5,-494 157.5,-494 157.5,-555"/>
<text text-anchor="middle" x="93.5" y="-533" font-family="Sans" font-size="10.00" fill="#000000">let aii generate ansible</text>
<text text-anchor="middle" x="93.5" y="-522" font-family="Sans" font-size="10.00" fill="#000000">playbook for supported</text>
<text text-anchor="middle" x="93.5" y="-511" font-family="Sans" font-size="10.00" fill="#000000">components</text>
</a>
</g>
</g>
<!-- aii#331&#45;&gt;aii#328 -->
<g id="edge3" class="edge">
<title>aii#331-&gt;aii#328</title>
<path fill="none" stroke="#000000" stroke-dasharray="5,2" d="M157.5789,-524.5C198.4814,-524.5 252.1793,-524.5 297.7071,-524.5"/>
<polygon fill="none" stroke="#000000" points="297.8877,-528.0001 307.8876,-524.5 297.8876,-521.0001 297.8877,-528.0001"/>
<text text-anchor="middle" x="215.2358" y="-516.5" font-family="Sans" font-size="10.00" fill="#000000">requires</text>
</g>
<!-- CAF#257 -->
<g id="node5" class="node">
<title>CAF#257</title>
<g id="a_node5"><a xlink:href="https://github.com/quattor/CAF/pull/257" xlink:title="CAF#257 (pull-request)" target="_parent">
<polygon fill="#6cc644" stroke="#000000" points="475.5,-1310.5 305.5,-1310.5 305.5,-1260.5 475.5,-1260.5 475.5,-1310.5"/>
<text text-anchor="middle" x="390.5" y="-1288.5" font-family="Sans" font-size="10.00" fill="#000000">Process: run process as another</text>
<text text-anchor="middle" x="390.5" y="-1277.5" font-family="Sans" font-size="10.00" fill="#000000">user</text>
</a>
</g>
</g>
<!-- CAF#253 -->
<g id="node6" class="node">
<title>CAF#253</title>
<g id="a_node6"><a xlink:href="https://github.com/quattor/CAF/issues/253" xlink:title="CAF#253 (issue)" target="_parent">
<path fill="#6cc644" stroke="#000000" d="M757.5,-1310C757.5,-1310 610.5,-1310 610.5,-1310 604.5,-1310 598.5,-1304 598.5,-1298 598.5,-1298 598.5,-1261 598.5,-1261 598.5,-1255 604.5,-1249 610.5,-1249 610.5,-1249 757.5,-1249 757.5,-1249 763.5,-1249 769.5,-1255 769.5,-1261 769.5,-1261 769.5,-1298 769.5,-1298 769.5,-1304 763.5,-1310 757.5,-1310"/>
<text text-anchor="middle" x="684" y="-1288" font-family="Sans" font-size="10.00" fill="#000000">CAF::Process: Include an option</text>
<text text-anchor="middle" x="684" y="-1277" font-family="Sans" font-size="10.00" fill="#000000">to execute the command as an</text>
<text text-anchor="middle" x="684" y="-1266" font-family="Sans" font-size="10.00" fill="#000000">specific user</text>
</a>
</g>
</g>
<!-- CAF#257&#45;&gt;CAF#253 -->
<g id="edge4" class="edge">
<title>CAF#257-&gt;CAF#253</title>
<path fill="none" stroke="#000000" stroke-width="2" d="M475.7866,-1283.7565C510.9823,-1283.037 551.935,-1282.1998 588.1625,-1281.4592"/>
<polygon fill="#000000" stroke="#000000" stroke-width="2" points="588.3202,-1284.9568 598.2465,-1281.2531 588.177,-1277.9583 588.3202,-1284.9568"/>
<text text-anchor="middle" x="525.9804" y="-1274.5055" font-family="Sans" font-size="10.00" fill="#000000">fixes</text>
</g>
<!-- CAF#110 -->
<g id="node7" class="node">
<title>CAF#110</title>
<g id="a_node7"><a xlink:href="https://github.com/quattor/CAF/pull/110" xlink:title="CAF#110 (pull-request)" target="_parent">
<polygon fill="#6cc644" stroke="#000000" points="463.5,-481.5 317.5,-481.5 317.5,-431.5 463.5,-431.5 463.5,-481.5"/>
<text text-anchor="middle" x="390.5" y="-459.5" font-family="Sans" font-size="10.00" fill="#000000">CAF::Download class: API</text>
<text text-anchor="middle" x="390.5" y="-448.5" font-family="Sans" font-size="10.00" fill="#000000">proposal</text>
</a>
</g>
</g>
<!-- CAF#120 -->
<g id="node8" class="node">
<title>CAF#120</title>
<polygon fill="#d3d3d3" stroke="#000000" points="719,-165 649,-165 649,-126 719,-126 719,-165"/>
<text text-anchor="middle" x="684" y="-143" font-family="Sans" font-size="10.00" fill="#000000">CAF#120</text>
</g>
<!-- CAF#110&#45;&gt;CAF#120 -->
<g id="edge5" class="edge">
<title>CAF#110-&gt;CAF#120</title>
<path fill="none" stroke="#000000" stroke-dasharray="5,2" d="M463.5266,-437.8029C471.7093,-433.6668 479.4436,-428.6299 486,-422.5 574.1149,-340.1175 504.2387,-254.0855 594,-173.5 606.3858,-162.3803 623.1379,-155.6766 638.8311,-151.6352"/>
<polygon fill="none" stroke="#000000" points="639.9559,-154.969 648.9343,-149.3442 638.4078,-148.1424 639.9559,-154.969"/>
<text text-anchor="middle" x="522.5012" y="-283.929" font-family="Sans" font-size="10.00" fill="#000000">requires</text>
</g>
<!-- CCM#216 -->
<g id="node9" class="node">
<title>CCM#216</title>
<g id="a_node9"><a xlink:href="https://github.com/quattor/CCM/pull/216" xlink:title="CCM#216 (pull-request)" target="_parent">
<polygon fill="#6e5494" stroke="#000000" points="468,-1242.5 313,-1242.5 313,-1192.5 468,-1192.5 468,-1242.5"/>
<text text-anchor="middle" x="390.5" y="-1220.5" font-family="Sans" font-size="10.00" fill="#000000">ProfileCache: Include type in</text>
<text text-anchor="middle" x="390.5" y="-1209.5" font-family="Sans" font-size="10.00" fill="#000000">checksum calculation</text>
</a>
</g>
</g>
<!-- CCM#213 -->
<g id="node10" class="node">
<title>CCM#213</title>
<g id="a_node10"><a xlink:href="https://github.com/quattor/CCM/issues/213" xlink:title="CCM#213 (issue)" target="_parent">
<path fill="#6e5494" stroke="#000000" d="M743.5,-1230.5C743.5,-1230.5 624.5,-1230.5 624.5,-1230.5 618.5,-1230.5 612.5,-1224.5 612.5,-1218.5 612.5,-1218.5 612.5,-1192.5 612.5,-1192.5 612.5,-1186.5 618.5,-1180.5 624.5,-1180.5 624.5,-1180.5 743.5,-1180.5 743.5,-1180.5 749.5,-1180.5 755.5,-1186.5 755.5,-1192.5 755.5,-1192.5 755.5,-1218.5 755.5,-1218.5 755.5,-1224.5 749.5,-1230.5 743.5,-1230.5"/>
<text text-anchor="middle" x="684" y="-1208.5" font-family="Sans" font-size="10.00" fill="#000000">Include type information in</text>
<text text-anchor="middle" x="684" y="-1197.5" font-family="Sans" font-size="10.00" fill="#000000">checksum computation</text>
</a>
</g>
</g>
<!-- CCM#216&#45;&gt;CCM#213 -->
<g id="edge6" class="edge">
<title>CCM#216-&gt;CCM#213</title>
<path fill="none" stroke="#000000" stroke-width="2" d="M468.3821,-1214.3157C509.6441,-1212.6287 560.3003,-1210.5576 602.1429,-1208.8468"/>
<polygon fill="#000000" stroke="#000000" stroke-width="2" points="602.4544,-1212.3371 612.303,-1208.4314 602.1684,-1205.3429 602.4544,-1212.3371"/>
<text text-anchor="middle" x="529.4479" y="-1203.3693" font-family="Sans" font-size="10.00" fill="#000000">fixes</text>
</g>
<!-- CCM#215 -->
<g id="node11" class="node">
<title>CCM#215</title>
<g id="a_node11"><a xlink:href="https://github.com/quattor/CCM/pull/215" xlink:title="CCM#215 (pull-request)" target="_parent">
<polygon fill="#6e5494" stroke="#000000" points="459,-1174 322,-1174 322,-1135 459,-1135 459,-1174"/>
<text text-anchor="middle" x="390.5" y="-1152" font-family="Sans" font-size="10.00" fill="#000000">Remove description field</text>
</a>
</g>
</g>
<!-- CCM#214 -->
<g id="node12" class="node">
<title>CCM#214</title>
<g id="a_node12"><a xlink:href="https://github.com/quattor/CCM/pull/214" xlink:title="CCM#214 (pull-request)" target="_parent">
<polygon fill="#6e5494" stroke="#000000" points="753,-1162.5 615,-1162.5 615,-1112.5 753,-1112.5 753,-1162.5"/>
<text text-anchor="middle" x="684" y="-1140.5" font-family="Sans" font-size="10.00" fill="#000000">Strip out all references to</text>
<text text-anchor="middle" x="684" y="-1129.5" font-family="Sans" font-size="10.00" fill="#000000">derivation</text>
</a>
</g>
</g>
<!-- CCM#215&#45;&gt;CCM#214 -->
<g id="edge7" class="edge">
<title>CCM#215-&gt;CCM#214</title>
<path fill="none" stroke="#000000" stroke-dasharray="5,2" d="M459.3127,-1150.5143C502.867,-1147.9915 559.3242,-1144.7214 604.7493,-1142.0903"/>
<polygon fill="none" stroke="#000000" points="605.0753,-1145.5774 614.8561,-1141.5049 604.6705,-1138.5891 605.0753,-1145.5774"/>
<text text-anchor="middle" x="519.7471" y="-1138.0002" font-family="Sans" font-size="10.00" fill="#000000">requires</text>
</g>
<!-- CCM#134 -->
<g id="node13" class="node">
<title>CCM#134</title>
<g id="a_node13"><a xlink:href="https://github.com/quattor/CCM/issues/134" xlink:title="CCM#134 (issue)" target="_parent">
<path fill="#6e5494" stroke="#000000" d="M1040,-1157C1040,-1157 894,-1157 894,-1157 888,-1157 882,-1151 882,-1145 882,-1145 882,-1130 882,-1130 882,-1124 888,-1118 894,-1118 894,-1118 1040,-1118 1040,-1118 1046,-1118 1052,-1124 1052,-1130 1052,-1130 1052,-1145 1052,-1145 1052,-1151 1046,-1157 1040,-1157"/>
<text text-anchor="middle" x="967" y="-1135" font-family="Sans" font-size="10.00" fill="#000000">Remove references to derivation</text>
</a>
</g>
</g>
<!-- CCM#214&#45;&gt;CCM#134 -->
<g id="edge8" class="edge">
<title>CCM#214-&gt;CCM#134</title>
<path fill="none" stroke="#000000" stroke-width="2" d="M753.2296,-1137.5C788.8301,-1137.5 832.7735,-1137.5 871.5418,-1137.5"/>
<polygon fill="#000000" stroke="#000000" stroke-width="2" points="871.8014,-1141.0001 881.8014,-1137.5 871.8013,-1134.0001 871.8014,-1141.0001"/>
<text text-anchor="middle" x="806.3879" y="-1129.5" font-family="Sans" font-size="10.00" fill="#000000">fixes</text>
</g>
<!-- configuration&#45;modules&#45;core#1810 -->
<g id="node14" class="node">
<title>configuration-modules-core#1810</title>
<g id="a_node14"><a xlink:href="https://github.com/quattor/configuration-modules-core/pull/1810" xlink:title="configuration-modules-core#1810 (pull-request)" target="_parent">
<polygon fill="#6cc644" stroke="#000000" points="477,-1116.5 304,-1116.5 304,-1066.5 477,-1066.5 477,-1116.5"/>
<text text-anchor="middle" x="390.5" y="-1094.5" font-family="Sans" font-size="10.00" fill="#000000">ncm-metaconfig: updated filebeat</text>
<text text-anchor="middle" x="390.5" y="-1083.5" font-family="Sans" font-size="10.00" fill="#000000">7.x schema to fix #1728</text>
</a>
</g>
</g>
<!-- configuration&#45;modules&#45;core#1728 -->
<g id="node15" class="node">
<title>configuration-modules-core#1728</title>
<g id="a_node15"><a xlink:href="https://github.com/quattor/configuration-modules-core/issues/1728" xlink:title="configuration-modules-core#1728 (issue)" target="_parent">
<path fill="#6cc644" stroke="#000000" d="M759,-1094C759,-1094 609,-1094 609,-1094 603,-1094 597,-1088 597,-1082 597,-1082 597,-1045 597,-1045 597,-1039 603,-1033 609,-1033 609,-1033 759,-1033 759,-1033 765,-1033 771,-1039 771,-1045 771,-1045 771,-1082 771,-1082 771,-1088 765,-1094 759,-1094"/>
<text text-anchor="middle" x="684" y="-1072" font-family="Sans" font-size="10.00" fill="#000000">ncm-metaconfig: fixing filebeat</text>
<text text-anchor="middle" x="684" y="-1061" font-family="Sans" font-size="10.00" fill="#000000">schema 7.0 and adding additional</text>
<text text-anchor="middle" x="684" y="-1050" font-family="Sans" font-size="10.00" fill="#000000">processor</text>
</a>
</g>
</g>
<!-- configuration&#45;modules&#45;core#1810&#45;&gt;configuration&#45;modules&#45;core#1728 -->
<g id="edge9" class="edge">
<title>configuration-modules-core#1810-&gt;configuration-modules-core#1728</title>
<path fill="none" stroke="#000000" stroke-width="2" d="M477.3684,-1083.2127C511.6766,-1079.9397 551.2554,-1076.1639 586.5347,-1072.7982"/>
<polygon fill="#000000" stroke="#000000" stroke-width="2" points="587.225,-1076.2484 596.8473,-1071.8144 586.5601,-1069.28 587.225,-1076.2484"/>
<text text-anchor="middle" x="526.255" y="-1069.4995" font-family="Sans" font-size="10.00" fill="#000000">fixes</text>
</g>
<!-- configuration&#45;modules&#45;core#1788 -->
<g id="node16" class="node">
<title>configuration-modules-core#1788</title>
<g id="a_node16"><a xlink:href="https://github.com/quattor/configuration-modules-core/pull/1788" xlink:title="configuration-modules-core#1788 (pull-request)" target="_parent">
<polygon fill="#6e5494" stroke="#000000" points="461.5,-1048.5 319.5,-1048.5 319.5,-998.5 461.5,-998.5 461.5,-1048.5"/>
<text text-anchor="middle" x="390.5" y="-1026.5" font-family="Sans" font-size="10.00" fill="#000000">ncm-systemd: ensure unit</text>
<text text-anchor="middle" x="390.5" y="-1015.5" font-family="Sans" font-size="10.00" fill="#000000">property is defined</text>
</a>
</g>
</g>
<!-- configuration&#45;modules&#45;core#1787 -->
<g id="node17" class="node">
<title>configuration-modules-core#1787</title>
<g id="a_node17"><a xlink:href="https://github.com/quattor/configuration-modules-core/issues/1787" xlink:title="configuration-modules-core#1787 (issue)" target="_parent">
<path fill="#6e5494" stroke="#000000" d="M757,-1014.5C757,-1014.5 611,-1014.5 611,-1014.5 605,-1014.5 599,-1008.5 599,-1002.5 599,-1002.5 599,-976.5 599,-976.5 599,-970.5 605,-964.5 611,-964.5 611,-964.5 757,-964.5 757,-964.5 763,-964.5 769,-970.5 769,-976.5 769,-976.5 769,-1002.5 769,-1002.5 769,-1008.5 763,-1014.5 757,-1014.5"/>
<text text-anchor="middle" x="684" y="-992.5" font-family="Sans" font-size="10.00" fill="#000000">ncm-systemd 24.10.0: validation</text>
<text text-anchor="middle" x="684" y="-981.5" font-family="Sans" font-size="10.00" fill="#000000">fails if no unit is defined</text>
</a>
</g>
</g>
<!-- configuration&#45;modules&#45;core#1788&#45;&gt;configuration&#45;modules&#45;core#1787 -->
<g id="edge10" class="edge">
<title>configuration-modules-core#1788-&gt;configuration-modules-core#1787</title>
<path fill="none" stroke="#000000" stroke-width="2" d="M461.5482,-1015.2695C499.7903,-1010.8395 547.4772,-1005.3152 588.8802,-1000.519"/>
<polygon fill="#000000" stroke="#000000" stroke-width="2" points="589.4537,-1003.976 598.9845,-999.3485 588.6481,-997.0225 589.4537,-1003.976"/>
<text text-anchor="middle" x="519.1907" y="-999.3178" font-family="Sans" font-size="10.00" fill="#000000">fixes</text>
</g>
<!-- configuration&#45;modules&#45;core#1783 -->
<g id="node18" class="node">
<title>configuration-modules-core#1783</title>
<g id="a_node18"><a xlink:href="https://github.com/quattor/configuration-modules-core/pull/1783" xlink:title="configuration-modules-core#1783 (pull-request)" target="_parent">
<polygon fill="#6cc644" stroke="#000000" points="475.5,-980 305.5,-980 305.5,-919 475.5,-919 475.5,-980"/>
<text text-anchor="middle" x="390.5" y="-958" font-family="Sans" font-size="10.00" fill="#000000">metaconfig/named: fix validation</text>
<text text-anchor="middle" x="390.5" y="-947" font-family="Sans" font-size="10.00" fill="#000000">of logging channels in</text>
<text text-anchor="middle" x="390.5" y="-936" font-family="Sans" font-size="10.00" fill="#000000">categories</text>
</a>
</g>
</g>
<!-- configuration&#45;modules&#45;core#1784 -->
<g id="node19" class="node">
<title>configuration-modules-core#1784</title>
<g id="a_node19"><a xlink:href="https://github.com/quattor/configuration-modules-core/issues/1784" xlink:title="configuration-modules-core#1784 (issue)" target="_parent">
<path fill="#6cc644" stroke="#000000" d="M755.5,-946C755.5,-946 612.5,-946 612.5,-946 606.5,-946 600.5,-940 600.5,-934 600.5,-934 600.5,-897 600.5,-897 600.5,-891 606.5,-885 612.5,-885 612.5,-885 755.5,-885 755.5,-885 761.5,-885 767.5,-891 767.5,-897 767.5,-897 767.5,-934 767.5,-934 767.5,-940 761.5,-946 755.5,-946"/>
<text text-anchor="middle" x="684" y="-924" font-family="Sans" font-size="10.00" fill="#000000">ncm-metaconfig 24.10.0 named</text>
<text text-anchor="middle" x="684" y="-913" font-family="Sans" font-size="10.00" fill="#000000">module: error in logging channel</text>
<text text-anchor="middle" x="684" y="-902" font-family="Sans" font-size="10.00" fill="#000000">name validation</text>
</a>
</g>
</g>
<!-- configuration&#45;modules&#45;core#1783&#45;&gt;configuration&#45;modules&#45;core#1784 -->
<g id="edge11" class="edge">
<title>configuration-modules-core#1783-&gt;configuration-modules-core#1784</title>
<path fill="none" stroke="#000000" stroke-width="2" d="M475.7866,-939.6201C511.6011,-935.4713 553.3769,-930.6318 590.069,-926.3813"/>
<polygon fill="#000000" stroke="#000000" stroke-width="2" points="590.7433,-929.8267 600.274,-925.1991 589.9377,-922.8732 590.7433,-929.8267"/>
<text text-anchor="middle" x="527.0869" y="-924.4031" font-family="Sans" font-size="10.00" fill="#000000">fixes</text>
</g>
<!-- configuration&#45;modules&#45;core#1739 -->
<g id="node20" class="node">
<title>configuration-modules-core#1739</title>
<g id="a_node20"><a xlink:href="https://github.com/quattor/configuration-modules-core/pull/1739" xlink:title="configuration-modules-core#1739 (pull-request)" target="_parent">
<polygon fill="#6cc644" stroke="#000000" points="474.5,-901 306.5,-901 306.5,-840 474.5,-840 474.5,-901"/>
<text text-anchor="middle" x="390.5" y="-879" font-family="Sans" font-size="10.00" fill="#000000">ncm-network: dropin file support</text>
<text text-anchor="middle" x="390.5" y="-868" font-family="Sans" font-size="10.00" fill="#000000">for main configuration of</text>
<text text-anchor="middle" x="390.5" y="-857" font-family="Sans" font-size="10.00" fill="#000000">NetworkManager</text>
</a>
</g>
</g>
<!-- configuration&#45;modules&#45;core#1740 -->
<g id="node21" class="node">
<title>configuration-modules-core#1740</title>
<g id="a_node21"><a xlink:href="https://github.com/quattor/configuration-modules-core/issues/1740" xlink:title="configuration-modules-core#1740 (issue)" target="_parent">
<path fill="#6cc644" stroke="#000000" d="M745,-867C745,-867 623,-867 623,-867 617,-867 611,-861 611,-855 611,-855 611,-818 611,-818 611,-812 617,-806 623,-806 623,-806 745,-806 745,-806 751,-806 757,-812 757,-818 757,-818 757,-855 757,-855 757,-861 751,-867 745,-867"/>
<text text-anchor="middle" x="684" y="-845" font-family="Sans" font-size="10.00" fill="#000000">ncm-network - capability to</text>
<text text-anchor="middle" x="684" y="-834" font-family="Sans" font-size="10.00" fill="#000000">manage main section of</text>
<text text-anchor="middle" x="684" y="-823" font-family="Sans" font-size="10.00" fill="#000000">NetworkManager.conf</text>
</a>
</g>
</g>
<!-- configuration&#45;modules&#45;core#1739&#45;&gt;configuration&#45;modules&#45;core#1740 -->
<g id="edge12" class="edge">
<title>configuration-modules-core#1739-&gt;configuration-modules-core#1740</title>
<path fill="none" stroke="#000000" stroke-width="2" d="M474.6053,-860.757C514.1855,-856.1719 561.2503,-850.7197 600.7249,-846.1469"/>
<polygon fill="#000000" stroke="#000000" stroke-width="2" points="601.3203,-849.6014 610.8511,-844.9738 600.5148,-842.6479 601.3203,-849.6014"/>
<text text-anchor="middle" x="531.7773" y="-844.8597" font-family="Sans" font-size="10.00" fill="#000000">fixes</text>
</g>
<!-- configuration&#45;modules&#45;core#1554 -->
<g id="node22" class="node">
<title>configuration-modules-core#1554</title>
<g id="a_node22"><a xlink:href="https://github.com/quattor/configuration-modules-core/pull/1554" xlink:title="configuration-modules-core#1554 (pull-request)" target="_parent">
<polygon fill="#6cc644" stroke="#000000" points="466.5,-821.5 314.5,-821.5 314.5,-771.5 466.5,-771.5 466.5,-821.5"/>
<text text-anchor="middle" x="390.5" y="-799.5" font-family="Sans" font-size="10.00" fill="#000000">avoid removing empty list of</text>
<text text-anchor="middle" x="390.5" y="-788.5" font-family="Sans" font-size="10.00" fill="#000000">packages</text>
</a>
</g>
</g>
<!-- configuration&#45;modules&#45;core#1553 -->
<g id="node23" class="node">
<title>configuration-modules-core#1553</title>
<g id="a_node23"><a xlink:href="https://github.com/quattor/configuration-modules-core/issues/1553" xlink:title="configuration-modules-core#1553 (issue)" target="_parent">
<path fill="#6cc644" stroke="#000000" d="M756,-788C756,-788 612,-788 612,-788 606,-788 600,-782 600,-776 600,-776 600,-739 600,-739 600,-733 606,-727 612,-727 612,-727 756,-727 756,-727 762,-727 768,-733 768,-739 768,-739 768,-776 768,-776 768,-782 762,-788 756,-788"/>
<text text-anchor="middle" x="684" y="-766" font-family="Sans" font-size="10.00" fill="#000000">ncm-spma: update_pkgs in yum</text>
<text text-anchor="middle" x="684" y="-755" font-family="Sans" font-size="10.00" fill="#000000">plugin tries to remove empty</text>
<text text-anchor="middle" x="684" y="-744" font-family="Sans" font-size="10.00" fill="#000000">list of packages</text>
</a>
</g>
</g>
<!-- configuration&#45;modules&#45;core#1554&#45;&gt;configuration&#45;modules&#45;core#1553 -->
<g id="edge13" class="edge">
<title>configuration-modules-core#1554-&gt;configuration-modules-core#1553</title>
<path fill="none" stroke="#000000" stroke-width="2" d="M466.8475,-786.355C504.4266,-781.3615 550.0777,-775.2955 589.8072,-770.0162"/>
<polygon fill="#000000" stroke="#000000" stroke-width="2" points="590.32,-773.479 599.7718,-768.6922 589.3979,-766.54 590.32,-773.479"/>
<text text-anchor="middle" x="521.9596" y="-769.5701" font-family="Sans" font-size="10.00" fill="#000000">fixes</text>
</g>
<!-- configuration&#45;modules&#45;core#1507 -->
<g id="node24" class="node">
<title>configuration-modules-core#1507</title>
<g id="a_node24"><a xlink:href="https://github.com/quattor/configuration-modules-core/pull/1507" xlink:title="configuration-modules-core#1507 (pull-request)" target="_parent">
<polygon fill="#6cc644" stroke="#000000" points="175,-1392.5 12,-1392.5 12,-1342.5 175,-1342.5 175,-1392.5"/>
<text text-anchor="middle" x="93.5" y="-1370.5" font-family="Sans" font-size="10.00" fill="#000000">[WIP] ncm-spma: yumdnf: use</text>
<text text-anchor="middle" x="93.5" y="-1359.5" font-family="Sans" font-size="10.00" fill="#000000">spmaleaves dnf plugin</text>
</a>
</g>
</g>
<!-- configuration&#45;modules&#45;core#1401 -->
<g id="node25" class="node">
<title>configuration-modules-core#1401</title>
<polygon fill="#d3d3d3" stroke="#000000" points="476.5,-1387 304.5,-1387 304.5,-1348 476.5,-1348 476.5,-1387"/>
<text text-anchor="middle" x="390.5" y="-1365" font-family="Sans" font-size="10.00" fill="#000000">configuration-modules-core#1401</text>
</g>
<!-- configuration&#45;modules&#45;core#1507&#45;&gt;configuration&#45;modules&#45;core#1401 -->
<g id="edge14" class="edge">
<title>configuration-modules-core#1507-&gt;configuration-modules-core#1401</title>
<path fill="none" stroke="#000000" stroke-dasharray="5,2" d="M175.0494,-1367.5C211.937,-1367.5 255.7952,-1367.5 294.2825,-1367.5"/>
<polygon fill="none" stroke="#000000" points="294.4629,-1371.0001 304.4629,-1367.5 294.4628,-1364.0001 294.4629,-1371.0001"/>
<text text-anchor="middle" x="222.3037" y="-1359.5" font-family="Sans" font-size="10.00" fill="#000000">requires</text>
</g>
<!-- configuration&#45;modules&#45;core#1336 -->
<g id="node26" class="node">
<title>configuration-modules-core#1336</title>
<g id="a_node26"><a xlink:href="https://github.com/quattor/configuration-modules-core/pull/1336" xlink:title="configuration-modules-core#1336 (pull-request)" target="_parent">
<polygon fill="#6cc644" stroke="#000000" points="172.5,-1504 14.5,-1504 14.5,-1443 172.5,-1443 172.5,-1504"/>
<text text-anchor="middle" x="93.5" y="-1482" font-family="Sans" font-size="10.00" fill="#000000">ncm-network: Add support for</text>
<text text-anchor="middle" x="93.5" y="-1471" font-family="Sans" font-size="10.00" fill="#000000">CAF::Service actions after</text>
<text text-anchor="middle" x="93.5" y="-1460" font-family="Sans" font-size="10.00" fill="#000000">changes</text>
</a>
</g>
</g>
<!-- configuration&#45;modules&#45;core#1335 -->
<g id="node27" class="node">
<title>configuration-modules-core#1335</title>
<g id="a_node27"><a xlink:href="https://github.com/quattor/configuration-modules-core/pull/1335" xlink:title="configuration-modules-core#1335 (pull-request)" target="_parent">
<polygon fill="#6cc644" stroke="#000000" points="475,-1535 306,-1535 306,-1474 475,-1474 475,-1535"/>
<text text-anchor="middle" x="390.5" y="-1513" font-family="Sans" font-size="10.00" fill="#000000">ncm-metaconfig: Remove</text>
<text text-anchor="middle" x="390.5" y="-1502" font-family="Sans" font-size="10.00" fill="#000000">caf_service_action type to allow</text>
<text text-anchor="middle" x="390.5" y="-1491" font-family="Sans" font-size="10.00" fill="#000000">reuse</text>
</a>
</g>
</g>
<!-- configuration&#45;modules&#45;core#1336&#45;&gt;configuration&#45;modules&#45;core#1335 -->
<g id="edge15" class="edge">
<title>configuration-modules-core#1336-&gt;configuration-modules-core#1335</title>
<path fill="none" stroke="#000000" stroke-dasharray="5,2" d="M172.7004,-1481.7667C210.5615,-1485.7185 256.1699,-1490.479 295.8466,-1494.6203"/>
<polygon fill="none" stroke="#000000" points="295.4884,-1498.1019 305.7977,-1495.659 296.2151,-1491.1397 295.4884,-1498.1019"/>
<text text-anchor="middle" x="221.535" y="-1480.6905" font-family="Sans" font-size="10.00" fill="#000000">requires</text>
</g>
<!-- configuration&#45;modules&#45;core#1071 -->
<g id="node28" class="node">
<title>configuration-modules-core#1071</title>
<g id="a_node28"><a xlink:href="https://github.com/quattor/configuration-modules-core/issues/1071" xlink:title="configuration-modules-core#1071 (issue)" target="_parent">
<path fill="#6cc644" stroke="#000000" d="M467,-1455.5C467,-1455.5 314,-1455.5 314,-1455.5 308,-1455.5 302,-1449.5 302,-1443.5 302,-1443.5 302,-1417.5 302,-1417.5 302,-1411.5 308,-1405.5 314,-1405.5 314,-1405.5 467,-1405.5 467,-1405.5 473,-1405.5 479,-1411.5 479,-1417.5 479,-1417.5 479,-1443.5 479,-1443.5 479,-1449.5 473,-1455.5 467,-1455.5"/>
<text text-anchor="middle" x="390.5" y="-1433.5" font-family="Sans" font-size="10.00" fill="#000000">ncm-network: support daemons to</text>
<text text-anchor="middle" x="390.5" y="-1422.5" font-family="Sans" font-size="10.00" fill="#000000">restart after network changes</text>
</a>
</g>
</g>
<!-- configuration&#45;modules&#45;core#1336&#45;&gt;configuration&#45;modules&#45;core#1071 -->
<g id="edge16" class="edge">
<title>configuration-modules-core#1336-&gt;configuration-modules-core#1071</title>
<path fill="none" stroke="#000000" stroke-width="2" d="M172.7004,-1462.0333C209.218,-1456.7462 252.9428,-1450.4157 291.601,-1444.8187"/>
<polygon fill="#000000" stroke="#000000" stroke-width="2" points="292.4392,-1448.2339 301.8345,-1443.3371 291.4362,-1441.3062 292.4392,-1448.2339"/>
<text text-anchor="middle" x="226.5484" y="-1444.6445" font-family="Sans" font-size="10.00" fill="#000000">fixes</text>
</g>
<!-- template&#45;library&#45;core#191 -->
<g id="node29" class="node">
<title>template-library-core#191</title>
<polygon fill="#d3d3d3" stroke="#000000" points="753,-1524 615,-1524 615,-1485 753,-1485 753,-1524"/>
<text text-anchor="middle" x="684" y="-1502" font-family="Sans" font-size="10.00" fill="#000000">template-library-core#191</text>
</g>
<!-- configuration&#45;modules&#45;core#1335&#45;&gt;template&#45;library&#45;core#191 -->
<g id="edge17" class="edge">
<title>configuration-modules-core#1335-&gt;template-library-core#191</title>
<path fill="none" stroke="#000000" stroke-dasharray="5,2" d="M475.3924,-1504.5C516.0413,-1504.5 564.4407,-1504.5 604.3825,-1504.5"/>
<polygon fill="none" stroke="#000000" points="604.6102,-1508.0001 614.6102,-1504.5 604.6101,-1501.0001 604.6102,-1508.0001"/>
<text text-anchor="middle" x="527.3279" y="-1496.5" font-family="Sans" font-size="10.00" fill="#000000">requires</text>
</g>
<!-- configuration&#45;modules&#45;core#1148 -->
<g id="node30" class="node">
<title>configuration-modules-core#1148</title>
<g id="a_node30"><a xlink:href="https://github.com/quattor/configuration-modules-core/pull/1148" xlink:title="configuration-modules-core#1148 (pull-request)" target="_parent">
<polygon fill="#6cc644" stroke="#000000" points="183,-1671.5 4,-1671.5 4,-1621.5 183,-1621.5 183,-1671.5"/>
<text text-anchor="middle" x="93.5" y="-1649.5" font-family="Sans" font-size="10.00" fill="#000000">ncm-spma: Remove support from</text>
<text text-anchor="middle" x="93.5" y="-1638.5" font-family="Sans" font-size="10.00" fill="#000000">groups from spma yumng backend</text>
</a>
</g>
</g>
<!-- configuration&#45;modules&#45;core#952 -->
<g id="node31" class="node">
<title>configuration-modules-core#952</title>
<g id="a_node31"><a xlink:href="https://github.com/quattor/configuration-modules-core/issues/952" xlink:title="configuration-modules-core#952 (issue)" target="_parent">
<path fill="#6cc644" stroke="#000000" d="M474,-1671.5C474,-1671.5 307,-1671.5 307,-1671.5 301,-1671.5 295,-1665.5 295,-1659.5 295,-1659.5 295,-1633.5 295,-1633.5 295,-1627.5 301,-1621.5 307,-1621.5 307,-1621.5 474,-1621.5 474,-1621.5 480,-1621.5 486,-1627.5 486,-1633.5 486,-1633.5 486,-1659.5 486,-1659.5 486,-1665.5 480,-1671.5 474,-1671.5"/>
<text text-anchor="middle" x="390.5" y="-1649.5" font-family="Sans" font-size="10.00" fill="#000000">ncm-spma (yumng): Remove support</text>
<text text-anchor="middle" x="390.5" y="-1638.5" font-family="Sans" font-size="10.00" fill="#000000">for package groups</text>
</a>
</g>
</g>
<!-- configuration&#45;modules&#45;core#1148&#45;&gt;configuration&#45;modules&#45;core#952 -->
<g id="edge18" class="edge">
<title>configuration-modules-core#1148-&gt;configuration-modules-core#952</title>
<path fill="none" stroke="#000000" stroke-width="2" d="M183.0126,-1646.5C215.0535,-1646.5 251.4693,-1646.5 284.7528,-1646.5"/>
<polygon fill="#000000" stroke="#000000" stroke-width="2" points="284.9733,-1650.0001 294.9733,-1646.5 284.9733,-1643.0001 284.9733,-1650.0001"/>
<text text-anchor="middle" x="228.0876" y="-1638.5" font-family="Sans" font-size="10.00" fill="#000000">fixes</text>
</g>
<!-- configuration&#45;modules&#45;core#950 -->
<g id="node32" class="node">
<title>configuration-modules-core#950</title>
<g id="a_node32"><a xlink:href="https://github.com/quattor/configuration-modules-core/issues/950" xlink:title="configuration-modules-core#950 (issue)" target="_parent">
<path fill="#6cc644" stroke="#000000" d="M175,-1603.5C175,-1603.5 12,-1603.5 12,-1603.5 6,-1603.5 0,-1597.5 0,-1591.5 0,-1591.5 0,-1565.5 0,-1565.5 0,-1559.5 6,-1553.5 12,-1553.5 12,-1553.5 175,-1553.5 175,-1553.5 181,-1553.5 187,-1559.5 187,-1565.5 187,-1565.5 187,-1591.5 187,-1591.5 187,-1597.5 181,-1603.5 175,-1603.5"/>
<text text-anchor="middle" x="93.5" y="-1581.5" font-family="Sans" font-size="10.00" fill="#000000">ncm-spma: Remove support for</text>
<text text-anchor="middle" x="93.5" y="-1570.5" font-family="Sans" font-size="10.00" fill="#000000">package groups from yum backends</text>
</a>
</g>
</g>
<!-- configuration&#45;modules&#45;core#950&#45;&gt;configuration&#45;modules&#45;core#952 -->
<g id="edge20" class="edge">
<title>configuration-modules-core#950-&gt;configuration-modules-core#952</title>
<path fill="none" stroke="#000000" stroke-dasharray="5,2" d="M187.065,-1599.9223C218.1915,-1607.0489 253.0665,-1615.0337 285.0303,-1622.3521"/>
<polygon fill="none" stroke="#000000" points="284.3204,-1625.78 294.8493,-1624.6002 285.8827,-1618.9566 284.3204,-1625.78"/>
<text text-anchor="middle" x="223.6849" y="-1604.3134" font-family="Sans" font-size="10.00" fill="#000000">requires</text>
</g>
<!-- configuration&#45;modules&#45;core#951 -->
<g id="node33" class="node">
<title>configuration-modules-core#951</title>
<g id="a_node33"><a xlink:href="https://github.com/quattor/configuration-modules-core/issues/951" xlink:title="configuration-modules-core#951 (issue)" target="_parent">
<path fill="#6cc644" stroke="#000000" d="M468.5,-1603.5C468.5,-1603.5 312.5,-1603.5 312.5,-1603.5 306.5,-1603.5 300.5,-1597.5 300.5,-1591.5 300.5,-1591.5 300.5,-1565.5 300.5,-1565.5 300.5,-1559.5 306.5,-1553.5 312.5,-1553.5 312.5,-1553.5 468.5,-1553.5 468.5,-1553.5 474.5,-1553.5 480.5,-1559.5 480.5,-1565.5 480.5,-1565.5 480.5,-1591.5 480.5,-1591.5 480.5,-1597.5 474.5,-1603.5 468.5,-1603.5"/>
<text text-anchor="middle" x="390.5" y="-1581.5" font-family="Sans" font-size="10.00" fill="#000000">ncm-spma (yum): Remove support</text>
<text text-anchor="middle" x="390.5" y="-1570.5" font-family="Sans" font-size="10.00" fill="#000000">for package groups</text>
</a>
</g>
</g>
<!-- configuration&#45;modules&#45;core#950&#45;&gt;configuration&#45;modules&#45;core#951 -->
<g id="edge19" class="edge">
<title>configuration-modules-core#950-&gt;configuration-modules-core#951</title>
<path fill="none" stroke="#000000" stroke-dasharray="5,2" d="M187.065,-1578.5C219.8866,-1578.5 256.8759,-1578.5 290.2252,-1578.5"/>
<polygon fill="none" stroke="#000000" points="290.4495,-1582.0001 300.4494,-1578.5 290.4494,-1575.0001 290.4495,-1582.0001"/>
<text text-anchor="middle" x="226.2859" y="-1570.5" font-family="Sans" font-size="10.00" fill="#000000">requires</text>
</g>
<!-- configuration&#45;modules&#45;grid#151 -->
<g id="node34" class="node">
<title>configuration-modules-grid#151</title>
<g id="a_node34"><a xlink:href="https://github.com/quattor/configuration-modules-grid/pull/151" xlink:title="configuration-modules-grid#151 (pull-request)" target="_parent">
<polygon fill="#6cc644" stroke="#000000" points="467.5,-753.5 313.5,-753.5 313.5,-703.5 467.5,-703.5 467.5,-753.5"/>
<text text-anchor="middle" x="390.5" y="-731.5" font-family="Sans" font-size="10.00" fill="#000000">ncm-maui: Remove obsolete</text>
<text text-anchor="middle" x="390.5" y="-720.5" font-family="Sans" font-size="10.00" fill="#000000">component</text>
</a>
</g>
</g>
<!-- configuration&#45;modules&#45;grid#85 -->
<g id="node35" class="node">
<title>configuration-modules-grid#85</title>
<g id="a_node35"><a xlink:href="https://github.com/quattor/configuration-modules-grid/issues/85" xlink:title="configuration-modules-grid#85 (issue)" target="_parent">
<path fill="#6cc644" stroke="#000000" d="M762,-708.5C762,-708.5 606,-708.5 606,-708.5 600,-708.5 594,-702.5 594,-696.5 594,-696.5 594,-670.5 594,-670.5 594,-664.5 600,-658.5 606,-658.5 606,-658.5 762,-658.5 762,-658.5 768,-658.5 774,-664.5 774,-670.5 774,-670.5 774,-696.5 774,-696.5 774,-702.5 768,-708.5 762,-708.5"/>
<text text-anchor="middle" x="684" y="-686.5" font-family="Sans" font-size="10.00" fill="#000000">deprecate / remove ncm-moab and</text>
<text text-anchor="middle" x="684" y="-675.5" font-family="Sans" font-size="10.00" fill="#000000">ncm-maui</text>
</a>
</g>
</g>
<!-- configuration&#45;modules&#45;grid#151&#45;&gt;configuration&#45;modules&#45;grid#85 -->
<g id="edge21" class="edge">
<title>configuration-modules-grid#151-&gt;configuration-modules-grid#85</title>
<path fill="none" stroke="#000000" stroke-width="2" d="M467.6137,-716.6768C503.161,-711.2266 545.805,-704.6883 583.8035,-698.8623"/>
<polygon fill="#000000" stroke="#000000" stroke-width="2" points="584.5167,-702.294 593.8707,-697.3188 583.4557,-695.3748 584.5167,-702.294"/>
<text text-anchor="middle" x="519.8467" y="-698.9818" font-family="Sans" font-size="10.00" fill="#000000">fixes</text>
</g>
<!-- ncm&#45;lib&#45;blockdevices#106 -->
<g id="node36" class="node">
<title>ncm-lib-blockdevices#106</title>
<g id="a_node36"><a xlink:href="https://github.com/quattor/ncm-lib-blockdevices/pull/106" xlink:title="ncm-lib-blockdevices#106 (pull-request)" target="_parent">
<polygon fill="#6cc644" stroke="#000000" points="472.5,-685.5 308.5,-685.5 308.5,-635.5 472.5,-635.5 472.5,-685.5"/>
<text text-anchor="middle" x="390.5" y="-663.5" font-family="Sans" font-size="10.00" fill="#000000">Partition: Mask DM/LVM rules,</text>
<text text-anchor="middle" x="390.5" y="-652.5" font-family="Sans" font-size="10.00" fill="#000000">don't stop udev</text>
</a>
</g>
</g>
<!-- ncm&#45;lib&#45;blockdevices#105 -->
<g id="node37" class="node">
<title>ncm-lib-blockdevices#105</title>
<g id="a_node37"><a xlink:href="https://github.com/quattor/ncm-lib-blockdevices/issues/105" xlink:title="ncm-lib-blockdevices#105 (issue)" target="_parent">
<path fill="#6cc644" stroke="#000000" d="M747.5,-640C747.5,-640 620.5,-640 620.5,-640 614.5,-640 608.5,-634 608.5,-628 608.5,-628 608.5,-591 608.5,-591 608.5,-585 614.5,-579 620.5,-579 620.5,-579 747.5,-579 747.5,-579 753.5,-579 759.5,-585 759.5,-591 759.5,-591 759.5,-628 759.5,-628 759.5,-634 753.5,-640 747.5,-640"/>
<text text-anchor="middle" x="684" y="-618" font-family="Sans" font-size="10.00" fill="#000000">Pausing udev makes</text>
<text text-anchor="middle" x="684" y="-607" font-family="Sans" font-size="10.00" fill="#000000">`/dev/disk/by-*` unusable for</text>
<text text-anchor="middle" x="684" y="-596" font-family="Sans" font-size="10.00" fill="#000000">installations</text>
</a>
</g>
</g>
<!-- ncm&#45;lib&#45;blockdevices#106&#45;&gt;ncm&#45;lib&#45;blockdevices#105 -->
<g id="edge22" class="edge">
<title>ncm-lib-blockdevices#106-&gt;ncm-lib-blockdevices#105</title>
<path fill="none" stroke="#000000" stroke-width="2" d="M472.6464,-646.2258C511.8868,-639.4072 558.827,-631.2507 598.4926,-624.3582"/>
<polygon fill="#000000" stroke="#000000" stroke-width="2" points="599.1581,-627.7951 608.4112,-622.6347 597.9597,-620.8984 599.1581,-627.7951"/>
<text text-anchor="middle" x="529.4722" y="-626.4401" font-family="Sans" font-size="10.00" fill="#000000">fixes</text>
</g>
<!-- release#370 -->
<g id="node38" class="node">
<title>release#370</title>
<g id="a_node38"><a xlink:href="https://github.com/quattor/release/pull/370" xlink:title="release#370 (pull-request)" target="_parent">
<polygon fill="#6e5494" stroke="#000000" points="471.5,-617.5 309.5,-617.5 309.5,-567.5 471.5,-567.5 471.5,-617.5"/>
<text text-anchor="middle" x="390.5" y="-595.5" font-family="Sans" font-size="10.00" fill="#000000">Update template library scripts</text>
<text text-anchor="middle" x="390.5" y="-584.5" font-family="Sans" font-size="10.00" fill="#000000">for new repository structure</text>
</a>
</g>
</g>
<!-- release#373 -->
<g id="node39" class="node">
<title>release#373</title>
<g id="a_node39"><a xlink:href="https://github.com/quattor/release/issues/373" xlink:title="release#373 (issue)" target="_parent">
<path fill="#6e5494" stroke="#000000" d="M758.5,-561C758.5,-561 609.5,-561 609.5,-561 603.5,-561 597.5,-555 597.5,-549 597.5,-549 597.5,-512 597.5,-512 597.5,-506 603.5,-500 609.5,-500 609.5,-500 758.5,-500 758.5,-500 764.5,-500 770.5,-506 770.5,-512 770.5,-512 770.5,-549 770.5,-549 770.5,-555 764.5,-561 758.5,-561"/>
<text text-anchor="middle" x="684" y="-539" font-family="Sans" font-size="10.00" fill="#000000">get-template-library: update the</text>
<text text-anchor="middle" x="684" y="-528" font-family="Sans" font-size="10.00" fill="#000000">default master branch name after</text>
<text text-anchor="middle" x="684" y="-517" font-family="Sans" font-size="10.00" fill="#000000">master -&gt; main rename</text>
</a>
</g>
</g>
<!-- release#370&#45;&gt;release#373 -->
<g id="edge23" class="edge">
<title>release#370-&gt;release#373</title>
<path fill="none" stroke="#000000" stroke-width="2" d="M471.8664,-575.3119C507.6846,-567.7455 550.0351,-558.7992 587.4397,-550.8978"/>
<polygon fill="#000000" stroke="#000000" stroke-width="2" points="588.2799,-554.2976 597.3406,-548.8063 586.8331,-547.4487 588.2799,-554.2976"/>
<text text-anchor="middle" x="523.6142" y="-554.0568" font-family="Sans" font-size="10.00" fill="#000000">fixes</text>
</g>
<!-- template&#45;library&#45;grid#232 -->
<g id="node40" class="node">
<title>template-library-grid#232</title>
<g id="a_node40"><a xlink:href="https://github.com/quattor/template-library-grid/pull/232" xlink:title="template-library-grid#232 (pull-request)" target="_parent">
<polygon fill="#6cc644" stroke="#000000" points="467,-413.5 314,-413.5 314,-363.5 467,-363.5 467,-413.5"/>
<text text-anchor="middle" x="390.5" y="-391.5" font-family="Sans" font-size="10.00" fill="#000000">arc-ce: Export arc-ce feature</text>
<text text-anchor="middle" x="390.5" y="-380.5" font-family="Sans" font-size="10.00" fill="#000000">from aquilon at RAL</text>
</a>
</g>
</g>
<!-- template&#45;library&#45;grid#221 -->
<g id="node41" class="node">
<title>template-library-grid#221</title>
<g id="a_node41"><a xlink:href="https://github.com/quattor/template-library-grid/issues/221" xlink:title="template-library-grid#221 (issue)" target="_parent">
<path fill="#6cc644" stroke="#000000" d="M757,-107.5C757,-107.5 611,-107.5 611,-107.5 605,-107.5 599,-101.5 599,-95.5 599,-95.5 599,-69.5 599,-69.5 599,-63.5 605,-57.5 611,-57.5 611,-57.5 757,-57.5 757,-57.5 763,-57.5 769,-63.5 769,-69.5 769,-69.5 769,-95.5 769,-95.5 769,-101.5 763,-107.5 757,-107.5"/>
<text text-anchor="middle" x="684" y="-85.5" font-family="Sans" font-size="10.00" fill="#000000">Support for new CE types (ARC</text>
<text text-anchor="middle" x="684" y="-74.5" font-family="Sans" font-size="10.00" fill="#000000">CE, HTCONDOR CE)</text>
</a>
</g>
</g>
<!-- template&#45;library&#45;grid#232&#45;&gt;template&#45;library&#45;grid#221 -->
<g id="edge24" class="edge">
<title>template-library-grid#232-&gt;template-library-grid#221</title>
<path fill="none" stroke="#000000" stroke-width="2" d="M467.2519,-367.6927C474.0351,-363.9824 480.429,-359.6219 486,-354.5 571.5118,-275.8828 509.2458,-195.9334 594,-116.5 594.9597,-115.6005 595.9456,-114.7242 596.955,-113.8705"/>
<polygon fill="#000000" stroke="#000000" stroke-width="2" points="599.2094,-116.5549 605.1146,-107.7583 595.0127,-110.9524 599.2094,-116.5549"/>
<text text-anchor="middle" x="528.9488" y="-230.1347" font-family="Sans" font-size="10.00" fill="#000000">fixes</text>
</g>
<!-- template&#45;library&#45;openstack#63 -->
<g id="node42" class="node">
<title>template-library-openstack#63</title>
<g id="a_node42"><a xlink:href="https://github.com/quattor/template-library-openstack/pull/63" xlink:title="template-library-openstack#63 (pull-request)" target="_parent">
<polygon fill="#6cc644" stroke="#000000" points="481,-345.5 300,-345.5 300,-295.5 481,-295.5 481,-345.5"/>
<text text-anchor="middle" x="390.5" y="-323.5" font-family="Sans" font-size="10.00" fill="#000000">Templates for OpenStack Antelope</text>
<text text-anchor="middle" x="390.5" y="-312.5" font-family="Sans" font-size="10.00" fill="#000000">version</text>
</a>
</g>
</g>
<!-- template&#45;library&#45;openstack#1 -->
<g id="node43" class="node">
<title>template-library-openstack#1</title>
<polygon fill="#d3d3d3" stroke="#000000" points="761,-39 607,-39 607,0 761,0 761,-39"/>
<text text-anchor="middle" x="684" y="-17" font-family="Sans" font-size="10.00" fill="#000000">template-library-openstack#1</text>
</g>
<!-- template&#45;library&#45;openstack#63&#45;&gt;template&#45;library&#45;openstack#1 -->
<g id="edge25" class="edge">
<title>template-library-openstack#63-&gt;template-library-openstack#1</title>
<path fill="none" stroke="#000000" stroke-width="2" d="M402.47,-295.3903C429.2039,-241.9599 498.9683,-116.3576 594,-48.5 596.1626,-46.9558 598.4116,-45.4909 600.7274,-44.1015"/>
<polygon fill="#000000" stroke="#000000" stroke-width="2" points="602.8219,-46.9476 609.9492,-39.1085 599.489,-40.7919 602.8219,-46.9476"/>
<text text-anchor="middle" x="478.3786" y="-146.3644" font-family="Sans" font-size="10.00" fill="#000000">fixes</text>
</g>
</g>
</svg>
