<?xml version="1.0" encoding="UTF-8" standalone="no"?>
<?xml-stylesheet href="relationships.css" type="text/css"?>
<!-- Generated by graphviz version 2.40.1 (0)
 -->
<!-- Title: Dependencies Pages: 1 -->
<svg xmlns="http://www.w3.org/2000/svg" xmlns:xlink="http://www.w3.org/1999/xlink" width="789pt" height="838pt" viewBox="0.00 0.00 789.00 837.50">
<g id="graph0" class="graph" transform="scale(1 1) rotate(0) translate(4 833.5)">
<title>Dependencies</title>
<polygon fill="#ffffff" stroke="transparent" points="-4,4 -4,-833.5 785,-833.5 785,4 -4,4"/>
<g id="clust1" class="cluster">
<title>cluster_milestone_26.next</title>
<polygon fill="none" stroke="#000000" points="297.5,-161.5 297.5,-703.5 773,-703.5 773,-161.5 297.5,-161.5"/>
<text text-anchor="middle" x="535.25" y="-689.9" font-family="Sans" font-size="12.00" fill="#000000">26.next</text>
</g>
<!-- CAF#257 -->
<g id="node1" class="node">
<title>CAF#257</title>
<g id="a_node1"><a xlink:href="https://github.com/quattor/CAF/pull/257" xlink:title="CAF#257 (pull-request)" target="_parent">
<polygon fill="#6cc644" stroke="#000000" points="475.5,-674.5 305.5,-674.5 305.5,-624.5 475.5,-624.5 475.5,-674.5"/>
<text text-anchor="middle" x="390.5" y="-652.5" font-family="Sans" font-size="10.00" fill="#000000">Process: run process as another</text>
<text text-anchor="middle" x="390.5" y="-641.5" font-family="Sans" font-size="10.00" fill="#000000">user</text>
</a>
</g>
</g>
<!-- CAF#253 -->
<g id="node2" class="node">
<title>CAF#253</title>
<g id="a_node2"><a xlink:href="https://github.com/quattor/CAF/issues/253" xlink:title="CAF#253 (issue)" target="_parent">
<path fill="#6cc644" stroke="#000000" d="M753,-674C753,-674 606,-674 606,-674 600,-674 594,-668 594,-662 594,-662 594,-625 594,-625 594,-619 600,-613 606,-613 606,-613 753,-613 753,-613 759,-613 765,-619 765,-625 765,-625 765,-662 765,-662 765,-668 759,-674 753,-674"/>
<text text-anchor="middle" x="679.5" y="-652" font-family="Sans" font-size="10.00" fill="#000000">CAF::Process: Include an option</text>
<text text-anchor="middle" x="679.5" y="-641" font-family="Sans" font-size="10.00" fill="#000000">to execute the command as an</text>
<text text-anchor="middle" x="679.5" y="-630" font-family="Sans" font-size="10.00" fill="#000000">specific user</text>
</a>
</g>
</g>
<!-- CAF#257&#45;&gt;CAF#253 -->
<g id="edge1" class="edge">
<title>CAF#257-&gt;CAF#253</title>
<path fill="none" stroke="#000000" stroke-width="2" d="M475.6464,-647.7323C509.5916,-647.0275 548.8258,-646.213 583.7548,-645.4878"/>
<polygon fill="#000000" stroke="#000000" stroke-width="2" points="584.0383,-648.9828 593.9635,-645.2758 583.893,-641.9843 584.0383,-648.9828"/>
<text text-anchor="middle" x="523.9459" y="-638.5011" font-family="Sans" font-size="10.00" fill="#000000">fixes</text>
</g>
<!-- CAF#110 -->
<g id="node3" class="node">
<title>CAF#110</title>
<g id="a_node3"><a xlink:href="https://github.com/quattor/CAF/pull/110" xlink:title="CAF#110 (pull-request)" target="_parent">
<polygon fill="#6cc644" stroke="#000000" points="463.5,-334.5 317.5,-334.5 317.5,-284.5 463.5,-284.5 463.5,-334.5"/>
<text text-anchor="middle" x="390.5" y="-312.5" font-family="Sans" font-size="10.00" fill="#000000">CAF::Download class: API</text>
<text text-anchor="middle" x="390.5" y="-301.5" font-family="Sans" font-size="10.00" fill="#000000">proposal</text>
</a>
</g>
</g>
<!-- CAF#120 -->
<g id="node4" class="node">
<title>CAF#120</title>
<polygon fill="#d3d3d3" stroke="#000000" points="714.5,-153 644.5,-153 644.5,-114 714.5,-114 714.5,-153"/>
<text text-anchor="middle" x="679.5" y="-131" font-family="Sans" font-size="10.00" fill="#000000">CAF#120</text>
</g>
<!-- CAF#110&#45;&gt;CAF#120 -->
<g id="edge2" class="edge">
<title>CAF#110-&gt;CAF#120</title>
<path fill="none" stroke="#000000" stroke-dasharray="5,2" d="M463.7432,-287.6618C471.527,-284.1133 479.1076,-280.0733 486,-275.5 545.24,-236.1929 533.4512,-194.7594 594,-157.5 606.2565,-149.9578 620.9423,-144.7249 634.6563,-141.12"/>
<polygon fill="none" stroke="#000000" points="635.5165,-144.513 644.4218,-138.7731 633.8807,-137.7068 635.5165,-144.513"/>
<text text-anchor="middle" x="527.1424" y="-199.3419" font-family="Sans" font-size="10.00" fill="#000000">requires</text>
</g>
<!-- configuration&#45;modules&#45;core#1864 -->
<g id="node5" class="node">
<title>configuration-modules-core#1864</title>
<g id="a_node5"><a xlink:href="https://github.com/quattor/configuration-modules-core/pull/1864" xlink:title="configuration-modules-core#1864 (pull-request)" target="_parent">
<polygon fill="#6cc644" stroke="#000000" points="474.5,-606.5 306.5,-606.5 306.5,-556.5 474.5,-556.5 474.5,-606.5"/>
<text text-anchor="middle" x="390.5" y="-584.5" font-family="Sans" font-size="10.00" fill="#000000">ncm-network: add option to skip</text>
<text text-anchor="middle" x="390.5" y="-573.5" font-family="Sans" font-size="10.00" fill="#000000">managing interface.</text>
</a>
</g>
</g>
<!-- configuration&#45;modules&#45;core#1858 -->
<g id="node6" class="node">
<title>configuration-modules-core#1858</title>
<g id="a_node6"><a xlink:href="https://github.com/quattor/configuration-modules-core/issues/1858" xlink:title="configuration-modules-core#1858 (issue)" target="_parent">
<path fill="#6cc644" stroke="#000000" d="M743.5,-594.5C743.5,-594.5 615.5,-594.5 615.5,-594.5 609.5,-594.5 603.5,-588.5 603.5,-582.5 603.5,-582.5 603.5,-556.5 603.5,-556.5 603.5,-550.5 609.5,-544.5 615.5,-544.5 615.5,-544.5 743.5,-544.5 743.5,-544.5 749.5,-544.5 755.5,-550.5 755.5,-556.5 755.5,-556.5 755.5,-582.5 755.5,-582.5 755.5,-588.5 749.5,-594.5 743.5,-594.5"/>
<text text-anchor="middle" x="679.5" y="-572.5" font-family="Sans" font-size="10.00" fill="#000000">ncm-network: option to not</text>
<text text-anchor="middle" x="679.5" y="-561.5" font-family="Sans" font-size="10.00" fill="#000000">manage interface using ncm</text>
</a>
</g>
</g>
<!-- configuration&#45;modules&#45;core#1864&#45;&gt;configuration&#45;modules&#45;core#1858 -->
<g id="edge3" class="edge">
<title>configuration-modules-core#1864-&gt;configuration-modules-core#1858</title>
<path fill="none" stroke="#000000" stroke-width="2" d="M474.8677,-577.9968C512.026,-576.4539 555.6413,-574.6429 593.0371,-573.0902"/>
<polygon fill="#000000" stroke="#000000" stroke-width="2" points="593.5631,-576.5714 603.4092,-572.6595 593.2726,-569.5775 593.5631,-576.5714"/>
<text text-anchor="middle" x="528.0768" y="-567.3307" font-family="Sans" font-size="10.00" fill="#000000">fixes</text>
</g>
<!-- configuration&#45;modules&#45;core#1554 -->
<g id="node7" class="node">
<title>configuration-modules-core#1554</title>
<g id="a_node7"><a xlink:href="https://github.com/quattor/configuration-modules-core/pull/1554" xlink:title="configuration-modules-core#1554 (pull-request)" target="_parent">
<polygon fill="#6cc644" stroke="#000000" points="466.5,-538.5 314.5,-538.5 314.5,-488.5 466.5,-488.5 466.5,-538.5"/>
<text text-anchor="middle" x="390.5" y="-516.5" font-family="Sans" font-size="10.00" fill="#000000">avoid removing empty list of</text>
<text text-anchor="middle" x="390.5" y="-505.5" font-family="Sans" font-size="10.00" fill="#000000">packages</text>
</a>
</g>
</g>
<!-- configuration&#45;modules&#45;core#1553 -->
<g id="node8" class="node">
<title>configuration-modules-core#1553</title>
<g id="a_node8"><a xlink:href="https://github.com/quattor/configuration-modules-core/issues/1553" xlink:title="configuration-modules-core#1553 (issue)" target="_parent">
<path fill="#6cc644" stroke="#000000" d="M751.5,-526C751.5,-526 607.5,-526 607.5,-526 601.5,-526 595.5,-520 595.5,-514 595.5,-514 595.5,-477 595.5,-477 595.5,-471 601.5,-465 607.5,-465 607.5,-465 751.5,-465 751.5,-465 757.5,-465 763.5,-471 763.5,-477 763.5,-477 763.5,-514 763.5,-514 763.5,-520 757.5,-526 751.5,-526"/>
<text text-anchor="middle" x="679.5" y="-504" font-family="Sans" font-size="10.00" fill="#000000">ncm-spma: update_pkgs in yum</text>
<text text-anchor="middle" x="679.5" y="-493" font-family="Sans" font-size="10.00" fill="#000000">plugin tries to remove empty</text>
<text text-anchor="middle" x="679.5" y="-482" font-family="Sans" font-size="10.00" fill="#000000">list of packages</text>
</a>
</g>
</g>
<!-- configuration&#45;modules&#45;core#1554&#45;&gt;configuration&#45;modules&#45;core#1553 -->
<g id="edge4" class="edge">
<title>configuration-modules-core#1554-&gt;configuration-modules-core#1553</title>
<path fill="none" stroke="#000000" stroke-width="2" d="M466.8094,-508.7472C503.1152,-506.4859 546.8727,-503.7605 585.2351,-501.3712"/>
<polygon fill="#000000" stroke="#000000" stroke-width="2" points="585.618,-504.8542 595.381,-500.7392 585.1827,-497.8677 585.618,-504.8542"/>
<text text-anchor="middle" x="520.4342" y="-496.7221" font-family="Sans" font-size="10.00" fill="#000000">fixes</text>
</g>
<!-- configuration&#45;modules&#45;core#1865 -->
<g id="node9" class="node">
<title>configuration-modules-core#1865</title>
<g id="a_node9"><a xlink:href="https://github.com/quattor/configuration-modules-core/pull/1865" xlink:title="configuration-modules-core#1865 (pull-request)" target="_parent">
<polygon fill="#6cc644" stroke="#000000" points="181.5,-402.5 5.5,-402.5 5.5,-352.5 181.5,-352.5 181.5,-402.5"/>
<text text-anchor="middle" x="93.5" y="-380.5" font-family="Sans" font-size="10.00" fill="#000000">ncm-network: nmstate support for</text>
<text text-anchor="middle" x="93.5" y="-369.5" font-family="Sans" font-size="10.00" fill="#000000">alt-names</text>
</a>
</g>
</g>
<!-- configuration&#45;modules&#45;core#1863 -->
<g id="node10" class="node">
<title>configuration-modules-core#1863</title>
<g id="a_node10"><a xlink:href="https://github.com/quattor/configuration-modules-core/issues/1863" xlink:title="configuration-modules-core#1863 (issue)" target="_parent">
<path fill="#6cc644" stroke="#000000" d="M447,-402.5C447,-402.5 334,-402.5 334,-402.5 328,-402.5 322,-396.5 322,-390.5 322,-390.5 322,-364.5 322,-364.5 322,-358.5 328,-352.5 334,-352.5 334,-352.5 447,-352.5 447,-352.5 453,-352.5 459,-358.5 459,-364.5 459,-364.5 459,-390.5 459,-390.5 459,-396.5 453,-402.5 447,-402.5"/>
<text text-anchor="middle" x="390.5" y="-380.5" font-family="Sans" font-size="10.00" fill="#000000">ncm-network: support for</text>
<text text-anchor="middle" x="390.5" y="-369.5" font-family="Sans" font-size="10.00" fill="#000000">altnames in nmstate.</text>
</a>
</g>
</g>
<!-- configuration&#45;modules&#45;core#1865&#45;&gt;configuration&#45;modules&#45;core#1863 -->
<g id="edge5" class="edge">
<title>configuration-modules-core#1865-&gt;configuration-modules-core#1863</title>
<path fill="none" stroke="#000000" stroke-width="2" d="M181.8057,-377.5C223.0179,-377.5 271.6756,-377.5 311.6366,-377.5"/>
<polygon fill="#000000" stroke="#000000" stroke-width="2" points="311.8639,-381.0001 321.8639,-377.5 311.8638,-374.0001 311.8639,-381.0001"/>
<text text-anchor="middle" x="240.8936" y="-369.5" font-family="Sans" font-size="10.00" fill="#000000">fixes</text>
</g>
<!-- configuration&#45;modules&#45;core#1148 -->
<g id="node11" class="node">
<title>configuration-modules-core#1148</title>
<g id="a_node11"><a xlink:href="https://github.com/quattor/configuration-modules-core/pull/1148" xlink:title="configuration-modules-core#1148 (pull-request)" target="_parent">
<polygon fill="#6cc644" stroke="#000000" points="183,-829.5 4,-829.5 4,-779.5 183,-779.5 183,-829.5"/>
<text text-anchor="middle" x="93.5" y="-807.5" font-family="Sans" font-size="10.00" fill="#000000">ncm-spma: Remove support from</text>
<text text-anchor="middle" x="93.5" y="-796.5" font-family="Sans" font-size="10.00" fill="#000000">groups from spma yumng backend</text>
</a>
</g>
</g>
<!-- configuration&#45;modules&#45;core#952 -->
<g id="node12" class="node">
<title>configuration-modules-core#952</title>
<g id="a_node12"><a xlink:href="https://github.com/quattor/configuration-modules-core/issues/952" xlink:title="configuration-modules-core#952 (issue)" target="_parent">
<path fill="#6cc644" stroke="#000000" d="M474,-829.5C474,-829.5 307,-829.5 307,-829.5 301,-829.5 295,-823.5 295,-817.5 295,-817.5 295,-791.5 295,-791.5 295,-785.5 301,-779.5 307,-779.5 307,-779.5 474,-779.5 474,-779.5 480,-779.5 486,-785.5 486,-791.5 486,-791.5 486,-817.5 486,-817.5 486,-823.5 480,-829.5 474,-829.5"/>
<text text-anchor="middle" x="390.5" y="-807.5" font-family="Sans" font-size="10.00" fill="#000000">ncm-spma (yumng): Remove support</text>
<text text-anchor="middle" x="390.5" y="-796.5" font-family="Sans" font-size="10.00" fill="#000000">for package groups</text>
</a>
</g>
</g>
<!-- configuration&#45;modules&#45;core#1148&#45;&gt;configuration&#45;modules&#45;core#952 -->
<g id="edge6" class="edge">
<title>configuration-modules-core#1148-&gt;configuration-modules-core#952</title>
<path fill="none" stroke="#000000" stroke-width="2" d="M183.0126,-804.5C215.0535,-804.5 251.4693,-804.5 284.7528,-804.5"/>
<polygon fill="#000000" stroke="#000000" stroke-width="2" points="284.9733,-808.0001 294.9733,-804.5 284.9733,-801.0001 284.9733,-808.0001"/>
<text text-anchor="middle" x="228.0876" y="-796.5" font-family="Sans" font-size="10.00" fill="#000000">fixes</text>
</g>
<!-- configuration&#45;modules&#45;core#950 -->
<g id="node13" class="node">
<title>configuration-modules-core#950</title>
<g id="a_node13"><a xlink:href="https://github.com/quattor/configuration-modules-core/issues/950" xlink:title="configuration-modules-core#950 (issue)" target="_parent">
<path fill="#6cc644" stroke="#000000" d="M175,-761.5C175,-761.5 12,-761.5 12,-761.5 6,-761.5 0,-755.5 0,-749.5 0,-749.5 0,-723.5 0,-723.5 0,-717.5 6,-711.5 12,-711.5 12,-711.5 175,-711.5 175,-711.5 181,-711.5 187,-717.5 187,-723.5 187,-723.5 187,-749.5 187,-749.5 187,-755.5 181,-761.5 175,-761.5"/>
<text text-anchor="middle" x="93.5" y="-739.5" font-family="Sans" font-size="10.00" fill="#000000">ncm-spma: Remove support for</text>
<text text-anchor="middle" x="93.5" y="-728.5" font-family="Sans" font-size="10.00" fill="#000000">package groups from yum backends</text>
</a>
</g>
</g>
<!-- configuration&#45;modules&#45;core#950&#45;&gt;configuration&#45;modules&#45;core#952 -->
<g id="edge8" class="edge">
<title>configuration-modules-core#950-&gt;configuration-modules-core#952</title>
<path fill="none" stroke="#000000" stroke-dasharray="5,2" d="M187.065,-757.9223C218.1915,-765.0489 253.0665,-773.0337 285.0303,-780.3521"/>
<polygon fill="none" stroke="#000000" points="284.3204,-783.78 294.8493,-782.6002 285.8827,-776.9566 284.3204,-783.78"/>
<text text-anchor="middle" x="223.6849" y="-762.3134" font-family="Sans" font-size="10.00" fill="#000000">requires</text>
</g>
<!-- configuration&#45;modules&#45;core#951 -->
<g id="node14" class="node">
<title>configuration-modules-core#951</title>
<g id="a_node14"><a xlink:href="https://github.com/quattor/configuration-modules-core/issues/951" xlink:title="configuration-modules-core#951 (issue)" target="_parent">
<path fill="#6cc644" stroke="#000000" d="M468.5,-761.5C468.5,-761.5 312.5,-761.5 312.5,-761.5 306.5,-761.5 300.5,-755.5 300.5,-749.5 300.5,-749.5 300.5,-723.5 300.5,-723.5 300.5,-717.5 306.5,-711.5 312.5,-711.5 312.5,-711.5 468.5,-711.5 468.5,-711.5 474.5,-711.5 480.5,-717.5 480.5,-723.5 480.5,-723.5 480.5,-749.5 480.5,-749.5 480.5,-755.5 474.5,-761.5 468.5,-761.5"/>
<text text-anchor="middle" x="390.5" y="-739.5" font-family="Sans" font-size="10.00" fill="#000000">ncm-spma (yum): Remove support</text>
<text text-anchor="middle" x="390.5" y="-728.5" font-family="Sans" font-size="10.00" fill="#000000">for package groups</text>
</a>
</g>
</g>
<!-- configuration&#45;modules&#45;core#950&#45;&gt;configuration&#45;modules&#45;core#951 -->
<g id="edge7" class="edge">
<title>configuration-modules-core#950-&gt;configuration-modules-core#951</title>
<path fill="none" stroke="#000000" stroke-dasharray="5,2" d="M187.065,-736.5C219.8866,-736.5 256.8759,-736.5 290.2252,-736.5"/>
<polygon fill="none" stroke="#000000" points="290.4495,-740.0001 300.4494,-736.5 290.4494,-733.0001 290.4495,-740.0001"/>
<text text-anchor="middle" x="226.2859" y="-728.5" font-family="Sans" font-size="10.00" fill="#000000">requires</text>
</g>
<!-- ncm&#45;lib&#45;blockdevices#106 -->
<g id="node15" class="node">
<title>ncm-lib-blockdevices#106</title>
<g id="a_node15"><a xlink:href="https://github.com/quattor/ncm-lib-blockdevices/pull/106" xlink:title="ncm-lib-blockdevices#106 (pull-request)" target="_parent">
<polygon fill="#6cc644" stroke="#000000" points="472.5,-470.5 308.5,-470.5 308.5,-420.5 472.5,-420.5 472.5,-470.5"/>
<text text-anchor="middle" x="390.5" y="-448.5" font-family="Sans" font-size="10.00" fill="#000000">Partition: Mask DM/LVM rules,</text>
<text text-anchor="middle" x="390.5" y="-437.5" font-family="Sans" font-size="10.00" fill="#000000">don't stop udev</text>
</a>
</g>
</g>
<!-- ncm&#45;lib&#45;blockdevices#105 -->
<g id="node16" class="node">
<title>ncm-lib-blockdevices#105</title>
<g id="a_node16"><a xlink:href="https://github.com/quattor/ncm-lib-blockdevices/issues/105" xlink:title="ncm-lib-blockdevices#105 (issue)" target="_parent">
<path fill="#6cc644" stroke="#000000" d="M743,-447C743,-447 616,-447 616,-447 610,-447 604,-441 604,-435 604,-435 604,-398 604,-398 604,-392 610,-386 616,-386 616,-386 743,-386 743,-386 749,-386 755,-392 755,-398 755,-398 755,-435 755,-435 755,-441 749,-447 743,-447"/>
<text text-anchor="middle" x="679.5" y="-425" font-family="Sans" font-size="10.00" fill="#000000">Pausing udev makes</text>
<text text-anchor="middle" x="679.5" y="-414" font-family="Sans" font-size="10.00" fill="#000000">`/dev/disk/by-*` unusable for</text>
<text text-anchor="middle" x="679.5" y="-403" font-family="Sans" font-size="10.00" fill="#000000">installations</text>
</a>
</g>
</g>
<!-- ncm&#45;lib&#45;blockdevices#106&#45;&gt;ncm&#45;lib&#45;blockdevices#105 -->
<g id="edge9" class="edge">
<title>ncm-lib-blockdevices#106-&gt;ncm-lib-blockdevices#105</title>
<path fill="none" stroke="#000000" stroke-width="2" d="M472.5428,-437.2673C510.3802,-433.4705 555.2925,-428.9637 593.5929,-425.1204"/>
<polygon fill="#000000" stroke="#000000" stroke-width="2" points="594.092,-428.588 603.6926,-424.107 593.3931,-421.623 594.092,-428.588"/>
<text text-anchor="middle" x="527.2428" y="-422.6746" font-family="Sans" font-size="10.00" fill="#000000">fixes</text>
</g>
<!-- template&#45;library&#45;examples#43 -->
<g id="node17" class="node">
<title>template-library-examples#43</title>
<g id="a_node17"><a xlink:href="https://github.com/quattor/template-library-examples/pull/43" xlink:title="template-library-examples#43 (pull-request)" target="_parent">
<polygon fill="#6cc644" stroke="#000000" points="456,-266 325,-266 325,-227 456,-227 456,-266"/>
<text text-anchor="middle" x="390.5" y="-244" font-family="Sans" font-size="10.00" fill="#000000">Trim lint from examples</text>
</a>
</g>
</g>
<!-- pan#278 -->
<g id="node18" class="node">
<title>pan#278</title>
<polygon fill="#d3d3d3" stroke="#000000" points="712,-96 647,-96 647,-57 712,-57 712,-96"/>
<text text-anchor="middle" x="679.5" y="-74" font-family="Sans" font-size="10.00" fill="#000000">pan#278</text>
</g>
<!-- template&#45;library&#45;examples#43&#45;&gt;pan#278 -->
<g id="edge10" class="edge">
<title>template-library-examples#43-&gt;pan#278</title>
<path fill="none" stroke="#000000" stroke-dasharray="5,2" d="M456.1634,-232.2592C466.547,-228.6121 476.8609,-224.0883 486,-218.5 545.5439,-182.0908 535.0327,-141.8359 594,-104.5 607.0812,-96.2175 622.851,-90.151 637.2662,-85.8263"/>
<polygon fill="none" stroke="#000000" points="638.2949,-89.1729 646.9798,-83.1047 636.4063,-82.4325 638.2949,-89.1729"/>
<text text-anchor="middle" x="527.9015" y="-145.7085" font-family="Sans" font-size="10.00" fill="#000000">requires</text>
</g>
<!-- template&#45;library&#45;standard#178 -->
<g id="node19" class="node">
<title>template-library-standard#178</title>
<g id="a_node19"><a xlink:href="https://github.com/quattor/template-library-standard/pull/178" xlink:title="template-library-standard#178 (pull-request)" target="_parent">
<polygon fill="#6cc644" stroke="#000000" points="472.5,-209 308.5,-209 308.5,-170 472.5,-170 472.5,-209"/>
<text text-anchor="middle" x="390.5" y="-187" font-family="Sans" font-size="10.00" fill="#000000">Add test-templates to workflow</text>
</a>
</g>
</g>
<!-- template&#45;library&#45;standard#177 -->
<g id="node20" class="node">
<title>template-library-standard#177</title>
<polygon fill="#d3d3d3" stroke="#000000" points="758,-39 601,-39 601,0 758,0 758,-39"/>
<text text-anchor="middle" x="679.5" y="-17" font-family="Sans" font-size="10.00" fill="#000000">template-library-standard#177</text>
</g>
<!-- template&#45;library&#45;standard#178&#45;&gt;template&#45;library&#45;standard#177 -->
<g id="edge11" class="edge">
<title>template-library-standard#178-&gt;template-library-standard#177</title>
<path fill="none" stroke="#000000" stroke-dasharray="5,2" d="M413.795,-169.7869C450.1825,-139.8246 523.6502,-82.6056 594,-47.5 597.0987,-45.9537 600.3021,-44.4652 603.5686,-43.0361"/>
<polygon fill="none" stroke="#000000" points="605.0084,-46.2281 612.9074,-39.1672 602.3293,-39.7611 605.0084,-46.2281"/>
<text text-anchor="middle" x="491.5246" y="-90.1868" font-family="Sans" font-size="10.00" fill="#000000">requires</text>
</g>
</g>
</svg>
