<?xml version="1.0" encoding="UTF-8" standalone="no"?>
<!-- Generated by graphviz version 2.26.0 (20091210.2329)
 -->
<!-- Title: Dependencies Pages: 1 -->
<svg xmlns="http://www.w3.org/2000/svg" xmlns:xlink="http://www.w3.org/1999/xlink" width="1080pt" height="2046pt" viewBox="0.00 0.00 1080.00 2046.00">
<g id="graph1" class="graph" transform="scale(1 1) rotate(0) translate(4 2042)">
<title>Dependencies</title>
<polygon fill="white" stroke="white" points="-4,5 -4,-2042 1077,-2042 1077,5 -4,5"/>
<g id="graph2" class="cluster"><title>cluster_17.2</title>
<polygon fill="none" stroke="black" points="42,-108 42,-1462 1036,-1462 1036,-108 42,-108"/>
<text text-anchor="middle" x="539" y="-1447.2" font-family="Sans" font-size="12.00">17.2</text>
</g>
<g id="graph5" class="cluster"><title>cluster_17.4</title>
<polygon fill="none" stroke="black" points="8,-1520 8,-1896 588,-1896 588,-1520 8,-1520"/>
<text text-anchor="middle" x="298" y="-1881.2" font-family="Sans" font-size="12.00">17.4</text>
</g>
<!-- aii#244 -->
<g id="node1" class="node"><title>aii#244</title>
<a xlink:href="https://github.com/quattor/aii/pull/244" xlink:title="aii-ks: rename ncm-lib-blockdevices 'correct' to 'validate'" target="_parent">
<polygon fill="#6cc644" stroke="black" points="173,-1430 95,-1430 95,-1376 173,-1376 173,-1430"/>
<text text-anchor="middle" x="134" y="-1407" font-family="Sans" font-size="10.00">pull-request</text>
<text text-anchor="middle" x="134" y="-1394" font-family="Sans" font-size="10.00">aii#244</text>
</a>
</g>
<!-- ncm&#45;lib&#45;blockdevices#80 -->
<g id="node3" class="node"><title>ncm-lib-blockdevices#80</title>
<a xlink:href="https://github.com/quattor/ncm-lib-blockdevices/pull/80" xlink:title="Partition: export partition_sort instead of partition_compare" target="_parent">
<polygon fill="#6cc644" stroke="black" points="530,-1430 394,-1430 394,-1376 530,-1376 530,-1430"/>
<text text-anchor="middle" x="462" y="-1407" font-family="Sans" font-size="10.00">pull-request</text>
<text text-anchor="middle" x="462" y="-1394" font-family="Sans" font-size="10.00">ncm-lib-blockdevices#80</text>
</a>
</g>
<!-- aii#244&#45;&gt;ncm&#45;lib&#45;blockdevices#80 -->
<g id="edge2" class="edge"><title>aii#244-&gt;ncm-lib-blockdevices#80</title>
<path fill="none" stroke="black" d="M173.571,-1401.9C200.705,-1401.2 237.529,-1400.36 270,-1400 307.319,-1399.59 348.715,-1400.11 383.486,-1400.83"/>
<polygon fill="none" stroke="black" points="383.506,-1404.33 393.579,-1401.05 383.657,-1397.33 383.506,-1404.33"/>
<text text-anchor="middle" x="296" y="-1404" font-family="Sans" font-size="10.00">requires</text>
</g>
<!-- aii#238 -->
<g id="node4" class="node"><title>aii#238</title>
<a xlink:href="https://github.com/quattor/aii/pull/238" xlink:title="aii-opennebula: Add VM image driver option" target="_parent">
<polygon fill="#6e5494" stroke="black" points="173,-1347 95,-1347 95,-1293 173,-1293 173,-1347"/>
<text text-anchor="middle" x="134" y="-1324" font-family="Sans" font-size="10.00">pull-request</text>
<text text-anchor="middle" x="134" y="-1311" font-family="Sans" font-size="10.00">aii#238</text>
</a>
</g>
<!-- aii#235 -->
<g id="node6" class="node"><title>aii#235</title>
<a xlink:href="https://github.com/quattor/aii/issues/235" xlink:title="aii-opennebula: Add qcow2 image support" target="_parent">
<ellipse fill="#bd2c00" stroke="black" cx="462" cy="-1320" rx="41.2167" ry="38.1838"/>
<text text-anchor="middle" x="462" y="-1324" font-family="Sans" font-size="10.00">issue</text>
<text text-anchor="middle" x="462" y="-1311" font-family="Sans" font-size="10.00">aii#235</text>
</a>
</g>
<!-- aii#238&#45;&gt;aii#235 -->
<g id="edge4" class="edge"><title>aii#238-&gt;aii#235</title>
<path fill="none" stroke="black" d="M173.564,-1320C232.84,-1320 344.728,-1320 410.366,-1320"/>
<polygon fill="black" stroke="black" points="410.488,-1323.5 420.488,-1320 410.488,-1316.5 410.488,-1323.5"/>
<text text-anchor="middle" x="296" y="-1324" font-family="Sans" font-size="10.00">fix</text>
</g>
<!-- aii#237 -->
<g id="node7" class="node"><title>aii#237</title>
<a xlink:href="https://github.com/quattor/aii/pull/237" xlink:title="aii-core: switch to CAF::Download::LWP" target="_parent">
<polygon fill="#6e5494" stroke="black" points="783,-1005 705,-1005 705,-951 783,-951 783,-1005"/>
<text text-anchor="middle" x="744" y="-982" font-family="Sans" font-size="10.00">pull-request</text>
<text text-anchor="middle" x="744" y="-969" font-family="Sans" font-size="10.00">aii#237</text>
</a>
</g>
<!-- CAF#203 -->
<g id="node9" class="node"><title>CAF#203</title>
<a xlink:href="https://github.com/quattor/CAF/pull/203" xlink:title="CAF::Download::LWP: CAF interface for LWP to handle https settings" target="_parent">
<polygon fill="#6e5494" stroke="black" points="1027,-740 949,-740 949,-686 1027,-686 1027,-740"/>
<text text-anchor="middle" x="988" y="-717" font-family="Sans" font-size="10.00">pull-request</text>
<text text-anchor="middle" x="988" y="-704" font-family="Sans" font-size="10.00">CAF#203</text>
</a>
</g>
<!-- aii#237&#45;&gt;CAF#203 -->
<g id="edge6" class="edge"><title>aii#237-&gt;CAF#203</title>
<path fill="none" stroke="black" d="M783.71,-966.174C798.623,-960.458 815.077,-952.513 828,-942 894.625,-887.8 945.637,-799.006 970.755,-749.414"/>
<polygon fill="none" stroke="black" points="973.953,-750.844 975.286,-740.334 967.69,-747.719 973.953,-750.844"/>
<text text-anchor="middle" x="866" y="-926" font-family="Sans" font-size="10.00">requires</text>
</g>
<!-- aii#225 -->
<g id="node10" class="node"><title>aii#225</title>
<a xlink:href="https://github.com/quattor/aii/pull/225" xlink:title="[WIP] Add UEFI support through Grub-based PXE loader" target="_parent">
<polygon fill="#6cc644" stroke="black" points="173,-1253 95,-1253 95,-1199 173,-1199 173,-1253"/>
<text text-anchor="middle" x="134" y="-1230" font-family="Sans" font-size="10.00">pull-request</text>
<text text-anchor="middle" x="134" y="-1217" font-family="Sans" font-size="10.00">aii#225</text>
</a>
</g>
<!-- aii#216 -->
<g id="node12" class="node"><title>aii#216</title>
<a xlink:href="https://github.com/quattor/aii/issues/216" xlink:title="aii-pxelinux: add support for Grub-based UEFI PXE boot loader" target="_parent">
<ellipse fill="#6cc644" stroke="black" cx="462" cy="-1226" rx="41.2167" ry="38.1838"/>
<text text-anchor="middle" x="462" y="-1230" font-family="Sans" font-size="10.00">issue</text>
<text text-anchor="middle" x="462" y="-1217" font-family="Sans" font-size="10.00">aii#216</text>
</a>
</g>
<!-- aii#225&#45;&gt;aii#216 -->
<g id="edge8" class="edge"><title>aii#225-&gt;aii#216</title>
<path fill="none" stroke="black" d="M173.564,-1226C232.84,-1226 344.728,-1226 410.366,-1226"/>
<polygon fill="black" stroke="black" points="410.488,-1229.5 420.488,-1226 410.488,-1222.5 410.488,-1229.5"/>
<text text-anchor="middle" x="296" y="-1230" font-family="Sans" font-size="10.00">fixes</text>
</g>
<!-- aii#210 -->
<g id="node13" class="node"><title>aii#210</title>
<a xlink:href="https://github.com/quattor/aii/pull/210" xlink:title="Shellfe: support active config for plugins" target="_parent">
<polygon fill="#6cc644" stroke="black" points="173,-1781 95,-1781 95,-1727 173,-1727 173,-1781"/>
<text text-anchor="middle" x="134" y="-1758" font-family="Sans" font-size="10.00">pull-request</text>
<text text-anchor="middle" x="134" y="-1745" font-family="Sans" font-size="10.00">aii#210</text>
</a>
</g>
<!-- aii#209 -->
<g id="node15" class="node"><title>aii#209</title>
<a xlink:href="https://github.com/quattor/aii/issues/209" xlink:title="support ACTIVE_CONFIG" target="_parent">
<ellipse fill="#6cc644" stroke="black" cx="462" cy="-1754" rx="41.2167" ry="38.1838"/>
<text text-anchor="middle" x="462" y="-1758" font-family="Sans" font-size="10.00">issue</text>
<text text-anchor="middle" x="462" y="-1745" font-family="Sans" font-size="10.00">aii#209</text>
</a>
</g>
<!-- aii#210&#45;&gt;aii#209 -->
<g id="edge10" class="edge"><title>aii#210-&gt;aii#209</title>
<path fill="none" stroke="black" d="M173.564,-1754C232.84,-1754 344.728,-1754 410.366,-1754"/>
<polygon fill="black" stroke="black" points="410.488,-1757.5 420.488,-1754 410.488,-1750.5 410.488,-1757.5"/>
<text text-anchor="middle" x="296" y="-1758" font-family="Sans" font-size="10.00">fixes</text>
</g>
<!-- ncm&#45;ncd#74 -->
<g id="node17" class="node"><title>ncm-ncd#74</title>
<a xlink:href="https://github.com/quattor/ncm-ncd/pull/74" xlink:title="Set the current active config as an attribute to the component" target="_parent">
<polygon fill="#6cc644" stroke="black" points="503,-1864 421,-1864 421,-1810 503,-1810 503,-1864"/>
<text text-anchor="middle" x="462" y="-1841" font-family="Sans" font-size="10.00">pull-request</text>
<text text-anchor="middle" x="462" y="-1828" font-family="Sans" font-size="10.00">ncm-ncd#74</text>
</a>
</g>
<!-- aii#210&#45;&gt;ncm&#45;ncd#74 -->
<g id="edge12" class="edge"><title>aii#210-&gt;ncm-ncd#74</title>
<path fill="none" stroke="black" d="M173.564,-1764.01C233.043,-1779.06 345.495,-1807.52 411.038,-1824.1"/>
<polygon fill="none" stroke="black" points="410.195,-1827.5 420.748,-1826.56 411.912,-1820.71 410.195,-1827.5"/>
<text text-anchor="middle" x="296" y="-1805" font-family="Sans" font-size="10.00">requires</text>
</g>
<!-- aii#203 -->
<g id="node19" class="node"><title>aii#203</title>
<polygon fill="lightgrey" stroke="black" points="491,-1510.5 433,-1510.5 433,-1469.5 491,-1469.5 491,-1510.5"/>
<text text-anchor="middle" x="462" y="-1487.5" font-family="Sans" font-size="10.00">aii#203</text>
</g>
<!-- aii#210&#45;&gt;aii#203 -->
<g id="edge14" class="edge"><title>aii#210-&gt;aii#203</title>
<path fill="none" stroke="black" d="M173.618,-1727.69C199.831,-1708.2 232.793,-1679.32 252,-1646 270.632,-1613.67 249.151,-1594.94 270,-1564 291.078,-1532.72 305.337,-1530.88 340,-1516 366.293,-1504.71 397.943,-1498.15 422.417,-1494.44"/>
<polygon fill="none" stroke="black" points="423.02,-1497.89 432.43,-1493.02 422.037,-1490.96 423.02,-1497.89"/>
<text text-anchor="middle" x="296" y="-1568" font-family="Sans" font-size="10.00">requires</text>
</g>
<!-- CAF#204 -->
<g id="node20" class="node"><title>CAF#204</title>
<a xlink:href="https://github.com/quattor/CAF/pull/204" xlink:title="Reporter: add structured logging and message templating" target="_parent">
<polygon fill="#6cc644" stroke="black" points="501,-933 423,-933 423,-879 501,-879 501,-933"/>
<text text-anchor="middle" x="462" y="-910" font-family="Sans" font-size="10.00">pull-request</text>
<text text-anchor="middle" x="462" y="-897" font-family="Sans" font-size="10.00">CAF#204</text>
</a>
</g>
<!-- CAF#206 -->
<g id="node22" class="node"><title>CAF#206</title>
<a xlink:href="https://github.com/quattor/CAF/pull/206" xlink:title="Switch to 00-tqu" target="_parent">
<polygon fill="#6e5494" stroke="black" points="783,-933 705,-933 705,-879 783,-879 783,-933"/>
<text text-anchor="middle" x="744" y="-910" font-family="Sans" font-size="10.00">pull-request</text>
<text text-anchor="middle" x="744" y="-897" font-family="Sans" font-size="10.00">CAF#206</text>
</a>
</g>
<!-- CAF#204&#45;&gt;CAF#206 -->
<g id="edge16" class="edge"><title>CAF#204-&gt;CAF#206</title>
<path fill="none" stroke="black" d="M501.508,-906C551.919,-906 639.151,-906 694.101,-906"/>
<polygon fill="none" stroke="black" points="694.305,-909.5 704.305,-906 694.305,-902.5 694.305,-909.5"/>
<text text-anchor="middle" x="622" y="-910" font-family="Sans" font-size="10.00">requires</text>
</g>
<!-- CAF#202 -->
<g id="node23" class="node"><title>CAF#202</title>
<a xlink:href="https://github.com/quattor/CAF/pull/202" xlink:title="FileWriter: use atomic write" target="_parent">
<polygon fill="#6cc644" stroke="black" points="173,-1071 95,-1071 95,-1017 173,-1017 173,-1071"/>
<text text-anchor="middle" x="134" y="-1048" font-family="Sans" font-size="10.00">pull-request</text>
<text text-anchor="middle" x="134" y="-1035" font-family="Sans" font-size="10.00">CAF#202</text>
</a>
</g>
<!-- CAF#202&#45;&gt;CAF#204 -->
<g id="edge18" class="edge"><title>CAF#202-&gt;CAF#204</title>
<path fill="none" stroke="black" d="M173.715,-1021.76C214.531,-999.523 280.36,-965.362 340,-942 363.464,-932.809 390.251,-924.658 412.736,-918.447"/>
<polygon fill="none" stroke="black" points="413.677,-921.819 422.411,-915.82 411.843,-915.063 413.677,-921.819"/>
<text text-anchor="middle" x="296" y="-977" font-family="Sans" font-size="10.00">requires</text>
</g>
<!-- CAF#202&#45;&gt;CAF#206 -->
<g id="edge20" class="edge"><title>CAF#202-&gt;CAF#206</title>
<path fill="none" stroke="black" d="M173.701,-1047.63C270.543,-1055.8 516.216,-1072.23 588,-1036 634.981,-1012.29 618.46,-974.308 660,-942 670.278,-934.007 682.598,-927.439 694.595,-922.204"/>
<polygon fill="none" stroke="black" points="696.187,-925.333 704.102,-918.289 693.522,-918.86 696.187,-925.333"/>
<text text-anchor="middle" x="462" y="-1063" font-family="Sans" font-size="10.00">requires</text>
</g>
<!-- CAF#148 -->
<g id="node27" class="node"><title>CAF#148</title>
<a xlink:href="https://github.com/quattor/CAF/issues/148" xlink:title="CAF::FileWriter updates files in-place" target="_parent">
<ellipse fill="#6cc644" stroke="black" cx="462" cy="-989" rx="48.9975" ry="38.1838"/>
<text text-anchor="middle" x="462" y="-993" font-family="Sans" font-size="10.00">issue</text>
<text text-anchor="middle" x="462" y="-980" font-family="Sans" font-size="10.00">CAF#148</text>
</a>
</g>
<!-- CAF#202&#45;&gt;CAF#148 -->
<g id="edge22" class="edge"><title>CAF#202-&gt;CAF#148</title>
<path fill="none" stroke="black" d="M173.564,-1037.37C230.855,-1027.76 337.294,-1009.91 403.62,-998.789"/>
<polygon fill="black" stroke="black" points="404.222,-1002.24 413.505,-997.132 403.064,-995.334 404.222,-1002.24"/>
<text text-anchor="middle" x="296" y="-1024" font-family="Sans" font-size="10.00">fixes</text>
</g>
<!-- CAF#189 -->
<g id="node29" class="node"><title>CAF#189</title>
<a xlink:href="https://github.com/quattor/CAF/issues/189" xlink:title="FileWriter: add diff to history" target="_parent">
<ellipse fill="#6cc644" stroke="black" cx="462" cy="-1132" rx="48.9975" ry="38.1838"/>
<text text-anchor="middle" x="462" y="-1136" font-family="Sans" font-size="10.00">issue</text>
<text text-anchor="middle" x="462" y="-1123" font-family="Sans" font-size="10.00">CAF#189</text>
</a>
</g>
<!-- CAF#202&#45;&gt;CAF#189 -->
<g id="edge24" class="edge"><title>CAF#202-&gt;CAF#189</title>
<path fill="none" stroke="black" d="M173.564,-1054.61C231.341,-1070.12 339.104,-1099.03 405.3,-1116.79"/>
<polygon fill="black" stroke="black" points="404.588,-1120.22 415.153,-1119.43 406.402,-1113.46 404.588,-1120.22"/>
<text text-anchor="middle" x="296" y="-1098" font-family="Sans" font-size="10.00">fixes</text>
</g>
<!-- CCM#162 -->
<g id="node30" class="node"><title>CCM#162</title>
<a xlink:href="https://github.com/quattor/CCM/pull/162" xlink:title="Cleanup: move internal modules in subdirectories and remove/integrate util scripts" target="_parent">
<polygon fill="#6cc644" stroke="black" points="173,-772 95,-772 95,-718 173,-718 173,-772"/>
<text text-anchor="middle" x="134" y="-749" font-family="Sans" font-size="10.00">pull-request</text>
<text text-anchor="middle" x="134" y="-736" font-family="Sans" font-size="10.00">CCM#162</text>
</a>
</g>
<!-- CCM#160 -->
<g id="node32" class="node"><title>CCM#160</title>
<a xlink:href="https://github.com/quattor/CCM/pull/160" xlink:title="Switch to 00-tqu" target="_parent">
<polygon fill="#6e5494" stroke="black" points="501,-740 423,-740 423,-686 501,-686 501,-740"/>
<text text-anchor="middle" x="462" y="-717" font-family="Sans" font-size="10.00">pull-request</text>
<text text-anchor="middle" x="462" y="-704" font-family="Sans" font-size="10.00">CCM#160</text>
</a>
</g>
<!-- CCM#162&#45;&gt;CCM#160 -->
<g id="edge26" class="edge"><title>CCM#162-&gt;CCM#160</title>
<path fill="none" stroke="black" d="M173.564,-741.14C233.406,-735.302 346.87,-724.232 412.233,-717.855"/>
<polygon fill="black" stroke="black" points="412.682,-721.328 422.295,-716.874 412.003,-714.361 412.682,-721.328"/>
<text text-anchor="middle" x="296" y="-735" font-family="Sans" font-size="10.00">based on</text>
</g>
<!-- CCM#156 -->
<g id="node34" class="node"><title>CCM#156</title>
<a xlink:href="https://github.com/quattor/CCM/pull/156" xlink:title="Fetch::Download: switch to CAF::Download::LWP" target="_parent">
<polygon fill="#6e5494" stroke="black" points="783,-740 705,-740 705,-686 783,-686 783,-740"/>
<text text-anchor="middle" x="744" y="-717" font-family="Sans" font-size="10.00">pull-request</text>
<text text-anchor="middle" x="744" y="-704" font-family="Sans" font-size="10.00">CCM#156</text>
</a>
</g>
<!-- CCM#162&#45;&gt;CCM#156 -->
<g id="edge28" class="edge"><title>CCM#162-&gt;CCM#156</title>
<path fill="none" stroke="black" d="M173.642,-748.585C252.744,-755.026 435.675,-766.348 588,-749 624.101,-744.889 664.01,-735.589 694.425,-727.472"/>
<polygon fill="black" stroke="black" points="695.623,-730.773 704.356,-724.774 693.788,-724.018 695.623,-730.773"/>
<text text-anchor="middle" x="462" y="-763" font-family="Sans" font-size="10.00">based on</text>
</g>
<!-- CCM#160&#45;&gt;CCM#156 -->
<g id="edge30" class="edge"><title>CCM#160-&gt;CCM#156</title>
<path fill="none" stroke="black" d="M501.508,-713C551.919,-713 639.151,-713 694.101,-713"/>
<polygon fill="black" stroke="black" points="694.305,-716.5 704.305,-713 694.305,-709.5 694.305,-716.5"/>
<text text-anchor="middle" x="622" y="-717" font-family="Sans" font-size="10.00">based on</text>
</g>
<!-- CCM#156&#45;&gt;CAF#203 -->
<g id="edge32" class="edge"><title>CCM#156-&gt;CAF#203</title>
<path fill="none" stroke="black" d="M783.746,-713C825.84,-713 892.389,-713 938.012,-713"/>
<polygon fill="none" stroke="black" points="938.271,-716.5 948.271,-713 938.271,-709.5 938.271,-716.5"/>
<text text-anchor="middle" x="866" y="-717" font-family="Sans" font-size="10.00">requires</text>
</g>
<!-- CCM#152 -->
<g id="node38" class="node"><title>CCM#152</title>
<polygon fill="lightgrey" stroke="black" points="1024,-100.5 952,-100.5 952,-59.5 1024,-59.5 1024,-100.5"/>
<text text-anchor="middle" x="988" y="-77.5" font-family="Sans" font-size="10.00">CCM#152</text>
</g>
<!-- CCM#156&#45;&gt;CCM#152 -->
<g id="edge34" class="edge"><title>CCM#156-&gt;CCM#152</title>
<path fill="none" stroke="black" d="M783.641,-705.082C799.841,-699.819 817.262,-691.158 828,-677 983.242,-472.315 736.121,-298.455 904,-104 913.411,-93.099 927.397,-86.9828 941.27,-83.6016"/>
<polygon fill="black" stroke="black" points="942.167,-86.9914 951.284,-81.5937 940.791,-80.128 942.167,-86.9914"/>
<text text-anchor="middle" x="866" y="-645" font-family="Sans" font-size="10.00">based on</text>
</g>
<!-- configuration&#45;modules&#45;core#1024 -->
<g id="node39" class="node"><title>configuration-modules-core#1024</title>
<a xlink:href="https://github.com/quattor/configuration-modules-core/pull/1024" xlink:title="ncm-syslog: cleanup and refactor" target="_parent">
<polygon fill="#6cc644" stroke="black" points="548,-861 376,-861 376,-807 548,-807 548,-861"/>
<text text-anchor="middle" x="462" y="-838" font-family="Sans" font-size="10.00">pull-request</text>
<text text-anchor="middle" x="462" y="-825" font-family="Sans" font-size="10.00">configuration-modules-core#1024</text>
</a>
</g>
<!-- configuration&#45;modules&#45;core#1024&#45;&gt;CAF#206 -->
<g id="edge38" class="edge"><title>configuration-modules-core#1024-&gt;CAF#206</title>
<path fill="none" stroke="black" d="M548.142,-855.994C596.073,-868.232 654.026,-883.028 694.403,-893.337"/>
<polygon fill="none" stroke="black" points="693.719,-896.774 704.274,-895.857 695.45,-889.992 693.719,-896.774"/>
<text text-anchor="middle" x="622" y="-883" font-family="Sans" font-size="10.00">requires</text>
</g>
<!-- CAF#211 -->
<g id="node41" class="node"><title>CAF#211</title>
<a xlink:href="https://github.com/quattor/CAF/pull/211" xlink:title="FileEditor: fix add_or_replace_sysconfig_lines " target="_parent">
<polygon fill="#6e5494" stroke="black" points="783,-861 705,-861 705,-807 783,-807 783,-861"/>
<text text-anchor="middle" x="744" y="-838" font-family="Sans" font-size="10.00">pull-request</text>
<text text-anchor="middle" x="744" y="-825" font-family="Sans" font-size="10.00">CAF#211</text>
</a>
</g>
<!-- configuration&#45;modules&#45;core#1024&#45;&gt;CAF#211 -->
<g id="edge36" class="edge"><title>configuration-modules-core#1024-&gt;CAF#211</title>
<path fill="none" stroke="black" d="M548.142,-834C595.972,-834 653.78,-834 694.147,-834"/>
<polygon fill="none" stroke="black" points="694.274,-837.5 704.274,-834 694.274,-830.5 694.274,-837.5"/>
<text text-anchor="middle" x="622" y="-838" font-family="Sans" font-size="10.00">requires</text>
</g>
<!-- configuration&#45;modules&#45;core#1005 -->
<g id="node43" class="node"><title>configuration-modules-core#1005</title>
<a xlink:href="https://github.com/quattor/configuration-modules-core/pull/1005" xlink:title=" ncm-download: allow_older boolean to allow downloading remote files that are older then current file" target="_parent">
<polygon fill="#6cc644" stroke="black" points="548,-668 376,-668 376,-614 548,-614 548,-668"/>
<text text-anchor="middle" x="462" y="-645" font-family="Sans" font-size="10.00">pull-request</text>
<text text-anchor="middle" x="462" y="-632" font-family="Sans" font-size="10.00">configuration-modules-core#1005</text>
</a>
</g>
<!-- configuration&#45;modules&#45;core#984 -->
<g id="node45" class="node"><title>configuration-modules-core#984</title>
<a xlink:href="https://github.com/quattor/configuration-modules-core/pull/984" xlink:title="ncm-download: switch to CAF::Download::LWP" target="_parent">
<polygon fill="#6cc644" stroke="black" points="827,-668 661,-668 661,-614 827,-614 827,-668"/>
<text text-anchor="middle" x="744" y="-645" font-family="Sans" font-size="10.00">pull-request</text>
<text text-anchor="middle" x="744" y="-632" font-family="Sans" font-size="10.00">configuration-modules-core#984</text>
</a>
</g>
<!-- configuration&#45;modules&#45;core#1005&#45;&gt;configuration&#45;modules&#45;core#984 -->
<g id="edge40" class="edge"><title>configuration-modules-core#1005-&gt;configuration-modules-core#984</title>
<path fill="none" stroke="black" d="M548.142,-641C580.435,-641 617.278,-641 650.229,-641"/>
<polygon fill="black" stroke="black" points="650.321,-644.5 660.321,-641 650.321,-637.5 650.321,-644.5"/>
<text text-anchor="middle" x="622" y="-645" font-family="Sans" font-size="10.00">based on</text>
</g>
<!-- configuration&#45;modules&#45;core#984&#45;&gt;CAF#203 -->
<g id="edge48" class="edge"><title>configuration-modules-core#984-&gt;CAF#203</title>
<path fill="none" stroke="black" d="M827.63,-665.678C864.477,-676.55 906.523,-688.957 938.316,-698.339"/>
<polygon fill="none" stroke="black" points="937.677,-701.8 948.258,-701.273 939.658,-695.086 937.677,-701.8"/>
<text text-anchor="middle" x="866" y="-686" font-family="Sans" font-size="10.00">requires</text>
</g>
<!-- configuration&#45;modules&#45;core#925 -->
<g id="node52" class="node"><title>configuration-modules-core#925</title>
<polygon fill="lightgrey" stroke="black" points="1071,-42.5 905,-42.5 905,-1.5 1071,-1.5 1071,-42.5"/>
<text text-anchor="middle" x="988" y="-19.5" font-family="Sans" font-size="10.00">configuration-modules-core#925</text>
</g>
<!-- configuration&#45;modules&#45;core#984&#45;&gt;configuration&#45;modules&#45;core#925 -->
<g id="edge46" class="edge"><title>configuration-modules-core#984-&gt;configuration-modules-core#925</title>
<path fill="none" stroke="black" d="M744.618,-613.779C747.603,-508.023 763.984,-126.288 846,-45 859.021,-32.0949 876.25,-24.6996 894.203,-20.7154"/>
<polygon fill="black" stroke="black" points="904.229,-18.8395 895.228,-25.1019 899.315,-19.7591 894.4,-20.6786 894.4,-20.6786 894.4,-20.6786 899.315,-19.7591 893.572,-16.2554 904.229,-18.8395 904.229,-18.8395"/>
<text text-anchor="middle" x="866" y="-49" font-family="Sans" font-size="10.00">replaces</text>
</g>
<!-- configuration&#45;modules&#45;core#999 -->
<g id="node46" class="node"><title>configuration-modules-core#999</title>
<a xlink:href="https://github.com/quattor/configuration-modules-core/pull/999" xlink:title="ncm-grub: full overhaul" target="_parent">
<polygon fill="#6e5494" stroke="black" points="217,-544 51,-544 51,-490 217,-490 217,-544"/>
<text text-anchor="middle" x="134" y="-521" font-family="Sans" font-size="10.00">pull-request</text>
<text text-anchor="middle" x="134" y="-508" font-family="Sans" font-size="10.00">configuration-modules-core#999</text>
</a>
</g>
<!-- configuration&#45;modules&#45;core#232 -->
<g id="node48" class="node"><title>configuration-modules-core#232</title>
<a xlink:href="https://github.com/quattor/configuration-modules-core/issues/232" xlink:title="ncm-grub: full rewrite needed!" target="_parent">
<ellipse fill="#bd2c00" stroke="black" cx="462" cy="-558" rx="118.087" ry="38.1838"/>
<text text-anchor="middle" x="462" y="-562" font-family="Sans" font-size="10.00">issue</text>
<text text-anchor="middle" x="462" y="-549" font-family="Sans" font-size="10.00">configuration-modules-core#232</text>
</a>
</g>
<!-- configuration&#45;modules&#45;core#999&#45;&gt;configuration&#45;modules&#45;core#232 -->
<g id="edge42" class="edge"><title>configuration-modules-core#999-&gt;configuration-modules-core#232</title>
<path fill="none" stroke="black" d="M217.617,-527.452C255.316,-532.164 300.543,-537.818 341.785,-542.973"/>
<polygon fill="black" stroke="black" points="341.542,-546.47 351.899,-544.237 342.41,-539.524 341.542,-546.47"/>
<text text-anchor="middle" x="296" y="-544" font-family="Sans" font-size="10.00">fixes</text>
</g>
<!-- configuration&#45;modules&#45;core#1000 -->
<g id="node50" class="node"><title>configuration-modules-core#1000</title>
<a xlink:href="https://github.com/quattor/configuration-modules-core/issues/1000" xlink:title="ncm-grub: drop non-multiboot support" target="_parent">
<ellipse fill="#bd2c00" stroke="black" cx="462" cy="-464" rx="121.122" ry="38.1838"/>
<text text-anchor="middle" x="462" y="-468" font-family="Sans" font-size="10.00">issue</text>
<text text-anchor="middle" x="462" y="-455" font-family="Sans" font-size="10.00">configuration-modules-core#1000</text>
</a>
</g>
<!-- configuration&#45;modules&#45;core#999&#45;&gt;configuration&#45;modules&#45;core#1000 -->
<g id="edge44" class="edge"><title>configuration-modules-core#999-&gt;configuration-modules-core#1000</title>
<path fill="none" stroke="black" d="M217.617,-503.489C256.011,-497.285 302.213,-489.819 344.061,-483.057"/>
<polygon fill="black" stroke="black" points="344.722,-486.496 354.035,-481.446 343.605,-479.586 344.722,-486.496"/>
<text text-anchor="middle" x="296" y="-498" font-family="Sans" font-size="10.00">fixes</text>
</g>
<!-- configuration&#45;modules&#45;core#950 -->
<g id="node54" class="node"><title>configuration-modules-core#950</title>
<a xlink:href="https://github.com/quattor/configuration-modules-core/issues/950" xlink:title="ncm-spma: Remove support for package groups from yum backends" target="_parent">
<ellipse fill="#6cc644" stroke="black" cx="134" cy="-1599" rx="118.087" ry="38.1838"/>
<text text-anchor="middle" x="134" y="-1603" font-family="Sans" font-size="10.00">issue</text>
<text text-anchor="middle" x="134" y="-1590" font-family="Sans" font-size="10.00">configuration-modules-core#950</text>
</a>
</g>
<!-- configuration&#45;modules&#45;core#951 -->
<g id="node56" class="node"><title>configuration-modules-core#951</title>
<a xlink:href="https://github.com/quattor/configuration-modules-core/issues/951" xlink:title="ncm-spma (yum): Remove support for package groups" target="_parent">
<ellipse fill="#6cc644" stroke="black" cx="462" cy="-1566" rx="118.087" ry="38.1838"/>
<text text-anchor="middle" x="462" y="-1570" font-family="Sans" font-size="10.00">issue</text>
<text text-anchor="middle" x="462" y="-1557" font-family="Sans" font-size="10.00">configuration-modules-core#951</text>
</a>
</g>
<!-- configuration&#45;modules&#45;core#950&#45;&gt;configuration&#45;modules&#45;core#951 -->
<g id="edge50" class="edge"><title>configuration-modules-core#950-&gt;configuration-modules-core#951</title>
<path fill="none" stroke="black" d="M246.879,-1587.64C276.597,-1584.65 308.804,-1581.41 339.025,-1578.37"/>
<polygon fill="none" stroke="black" points="339.592,-1581.83 349.191,-1577.35 338.891,-1574.87 339.592,-1581.83"/>
<text text-anchor="middle" x="296" y="-1589" font-family="Sans" font-size="10.00">requires</text>
</g>
<!-- configuration&#45;modules&#45;core#952 -->
<g id="node58" class="node"><title>configuration-modules-core#952</title>
<a xlink:href="https://github.com/quattor/configuration-modules-core/issues/952" xlink:title="ncm-spma (yumng): Remove support for package groups" target="_parent">
<ellipse fill="#6cc644" stroke="black" cx="462" cy="-1660" rx="118.087" ry="38.1838"/>
<text text-anchor="middle" x="462" y="-1664" font-family="Sans" font-size="10.00">issue</text>
<text text-anchor="middle" x="462" y="-1651" font-family="Sans" font-size="10.00">configuration-modules-core#952</text>
</a>
</g>
<!-- configuration&#45;modules&#45;core#950&#45;&gt;configuration&#45;modules&#45;core#952 -->
<g id="edge52" class="edge"><title>configuration-modules-core#950-&gt;configuration-modules-core#952</title>
<path fill="none" stroke="black" d="M236.432,-1618.05C272.341,-1624.73 312.857,-1632.26 349.542,-1639.09"/>
<polygon fill="none" stroke="black" points="349.31,-1642.6 359.781,-1640.99 350.59,-1635.72 349.31,-1642.6"/>
<text text-anchor="middle" x="296" y="-1638" font-family="Sans" font-size="10.00">requires</text>
</g>
<!-- configuration&#45;modules&#45;core#1009 -->
<g id="node59" class="node"><title>configuration-modules-core#1009</title>
<a xlink:href="https://github.com/quattor/configuration-modules-core/pull/1009" xlink:title="ncm-opennebula: Opennebula refactoring and AII code (WIP)" target="_parent">
<polygon fill="#6cc644" stroke="black" points="220,-2007 48,-2007 48,-1953 220,-1953 220,-2007"/>
<text text-anchor="middle" x="134" y="-1984" font-family="Sans" font-size="10.00">pull-request</text>
<text text-anchor="middle" x="134" y="-1971" font-family="Sans" font-size="10.00">configuration-modules-core#1009</text>
</a>
</g>
<!-- configuration&#45;modules&#45;core#978 -->
<g id="node61" class="node"><title>configuration-modules-core#978</title>
<polygon fill="lightgrey" stroke="black" points="545,-2038.5 379,-2038.5 379,-1997.5 545,-1997.5 545,-2038.5"/>
<text text-anchor="middle" x="462" y="-2015.5" font-family="Sans" font-size="10.00">configuration-modules-core#978</text>
</g>
<!-- configuration&#45;modules&#45;core#1009&#45;&gt;configuration&#45;modules&#45;core#978 -->
<g id="edge54" class="edge"><title>configuration-modules-core#1009-&gt;configuration-modules-core#978</title>
<path fill="none" stroke="black" d="M220.178,-1989.98C265.712,-1995.26 321.666,-2001.74 368.278,-2007.14"/>
<polygon fill="black" stroke="black" points="368.043,-2010.64 378.38,-2008.31 368.849,-2003.68 368.043,-2010.64"/>
<text text-anchor="middle" x="296" y="-2005" font-family="Sans" font-size="10.00">fix</text>
</g>
<!-- configuration&#45;modules&#45;core#1018 -->
<g id="node63" class="node"><title>configuration-modules-core#1018</title>
<a xlink:href="https://github.com/quattor/configuration-modules-core/issues/1018" xlink:title="ncm-opennebula: aii VNET methods create new AR instead of an update" target="_parent">
<ellipse fill="#6cc644" stroke="black" cx="462" cy="-1942" rx="121.122" ry="38.1838"/>
<text text-anchor="middle" x="462" y="-1946" font-family="Sans" font-size="10.00">issue</text>
<text text-anchor="middle" x="462" y="-1933" font-family="Sans" font-size="10.00">configuration-modules-core#1018</text>
</a>
</g>
<!-- configuration&#45;modules&#45;core#1009&#45;&gt;configuration&#45;modules&#45;core#1018 -->
<g id="edge56" class="edge"><title>configuration-modules-core#1009-&gt;configuration-modules-core#1018</title>
<path fill="none" stroke="black" d="M220.178,-1970.02C256.147,-1965.85 298.618,-1960.93 337.85,-1956.38"/>
<polygon fill="black" stroke="black" points="338.484,-1959.83 348.015,-1955.21 337.679,-1952.88 338.484,-1959.83"/>
<text text-anchor="middle" x="296" y="-1967" font-family="Sans" font-size="10.00">fix</text>
</g>
<!-- maven&#45;tools#127 -->
<g id="node64" class="node"><title>maven-tools#127</title>
<a xlink:href="https://github.com/quattor/maven-tools/pull/127" xlink:title="ProfileCache: prepare_profile_cache checks for valid object template" target="_parent">
<polygon fill="#6e5494" stroke="black" points="185,-242 83,-242 83,-188 185,-188 185,-242"/>
<text text-anchor="middle" x="134" y="-219" font-family="Sans" font-size="10.00">pull-request</text>
<text text-anchor="middle" x="134" y="-206" font-family="Sans" font-size="10.00">maven-tools#127</text>
</a>
</g>
<!-- maven&#45;tools#125 -->
<g id="node66" class="node"><title>maven-tools#125</title>
<a xlink:href="https://github.com/quattor/maven-tools/pull/125" xlink:title="Critic: no more backticks/qx/system, use CAF::Process" target="_parent">
<polygon fill="#6e5494" stroke="black" points="513,-170 411,-170 411,-116 513,-116 513,-170"/>
<text text-anchor="middle" x="462" y="-147" font-family="Sans" font-size="10.00">pull-request</text>
<text text-anchor="middle" x="462" y="-134" font-family="Sans" font-size="10.00">maven-tools#125</text>
</a>
</g>
<!-- maven&#45;tools#127&#45;&gt;maven&#45;tools#125 -->
<g id="edge58" class="edge"><title>maven-tools#127-&gt;maven-tools#125</title>
<path fill="none" stroke="black" d="M185.611,-203.671C243.801,-190.897 338.363,-170.14 400.377,-156.527"/>
<polygon fill="none" stroke="black" points="401.403,-159.885 410.42,-154.322 399.902,-153.048 401.403,-159.885"/>
<text text-anchor="middle" x="296" y="-188" font-family="Sans" font-size="10.00">depends on</text>
</g>
<!-- maven&#45;tools#126 -->
<g id="node68" class="node"><title>maven-tools#126</title>
<polygon fill="lightgrey" stroke="black" points="513,-98.5 411,-98.5 411,-57.5 513,-57.5 513,-98.5"/>
<text text-anchor="middle" x="462" y="-75.5" font-family="Sans" font-size="10.00">maven-tools#126</text>
</g>
<!-- maven&#45;tools#127&#45;&gt;maven&#45;tools#126 -->
<g id="edge60" class="edge"><title>maven-tools#127-&gt;maven-tools#126</title>
<path fill="none" stroke="black" d="M185.535,-205.958C207.275,-200.508 232.103,-192.012 252,-179 262.288,-172.272 261.087,-166.465 270,-158 298.491,-130.941 304.342,-120.506 340,-104 358.746,-95.3227 380.459,-89.5021 400.327,-85.6141"/>
<polygon fill="black" stroke="black" points="401.009,-89.0476 410.215,-83.8045 399.749,-82.1619 401.009,-89.0476"/>
<text text-anchor="middle" x="296" y="-162" font-family="Sans" font-size="10.00">fixes</text>
</g>
<!-- ncm&#45;lib&#45;blockdevices#76 -->
<g id="node69" class="node"><title>ncm-lib-blockdevices#76</title>
<a xlink:href="https://github.com/quattor/ncm-lib-blockdevices/pull/76" xlink:title="LV: force lvconvert by passing -y" target="_parent">
<polygon fill="#6e5494" stroke="black" points="202,-458 66,-458 66,-404 202,-404 202,-458"/>
<text text-anchor="middle" x="134" y="-435" font-family="Sans" font-size="10.00">pull-request</text>
<text text-anchor="middle" x="134" y="-422" font-family="Sans" font-size="10.00">ncm-lib-blockdevices#76</text>
</a>
</g>
<!-- ncm&#45;lib&#45;blockdevices#75 -->
<g id="node71" class="node"><title>ncm-lib-blockdevices#75</title>
<a xlink:href="https://github.com/quattor/ncm-lib-blockdevices/issues/75" xlink:title="lvconvert requires -y option" target="_parent">
<ellipse fill="#bd2c00" stroke="black" cx="462" cy="-370" rx="96.1665" ry="38.1838"/>
<text text-anchor="middle" x="462" y="-374" font-family="Sans" font-size="10.00">issue</text>
<text text-anchor="middle" x="462" y="-361" font-family="Sans" font-size="10.00">ncm-lib-blockdevices#75</text>
</a>
</g>
<!-- ncm&#45;lib&#45;blockdevices#76&#45;&gt;ncm&#45;lib&#45;blockdevices#75 -->
<g id="edge62" class="edge"><title>ncm-lib-blockdevices#76-&gt;ncm-lib-blockdevices#75</title>
<path fill="none" stroke="black" d="M202.36,-418.287C249.454,-409.528 312.721,-397.762 365.011,-388.038"/>
<polygon fill="black" stroke="black" points="365.786,-391.454 374.977,-386.184 364.506,-384.572 365.786,-391.454"/>
<text text-anchor="middle" x="296" y="-409" font-family="Sans" font-size="10.00">fixes</text>
</g>
<!-- template&#45;library&#45;core#146 -->
<g id="node72" class="node"><title>template-library-core#146</title>
<a xlink:href="https://github.com/quattor/template-library-core/pull/146" xlink:title="Remove /system/oldnames from schema" target="_parent">
<polygon fill="#6e5494" stroke="black" points="203,-170 65,-170 65,-116 203,-116 203,-170"/>
<text text-anchor="middle" x="134" y="-147" font-family="Sans" font-size="10.00">pull-request</text>
<text text-anchor="middle" x="134" y="-134" font-family="Sans" font-size="10.00">template-library-core#146</text>
</a>
</g>
<!-- template&#45;library&#45;core#145 -->
<g id="node74" class="node"><title>template-library-core#145</title>
<polygon fill="lightgrey" stroke="black" points="531,-40.5 393,-40.5 393,0.5 531,0.5 531,-40.5"/>
<text text-anchor="middle" x="462" y="-17.5" font-family="Sans" font-size="10.00">template-library-core#145</text>
</g>
<!-- template&#45;library&#45;core#146&#45;&gt;template&#45;library&#45;core#145 -->
<g id="edge64" class="edge"><title>template-library-core#146-&gt;template-library-core#145</title>
<path fill="none" stroke="black" d="M161.578,-115.93C187.34,-92.415 228.031,-59.599 270,-43 305.375,-29.009 347.052,-22.8975 382.52,-20.4312"/>
<polygon fill="black" stroke="black" points="383.061,-23.9049 392.83,-19.8034 382.636,-16.9178 383.061,-23.9049"/>
<text text-anchor="middle" x="296" y="-47" font-family="Sans" font-size="10.00">resolves</text>
</g>
<!-- template&#45;library&#45;core#142 -->
<g id="node75" class="node"><title>template-library-core#142</title>
<a xlink:href="https://github.com/quattor/template-library-core/pull/142" xlink:title="Add structures to model operating system information" target="_parent">
<polygon fill="#6e5494" stroke="black" points="203,-386 65,-386 65,-332 203,-332 203,-386"/>
<text text-anchor="middle" x="134" y="-363" font-family="Sans" font-size="10.00">pull-request</text>
<text text-anchor="middle" x="134" y="-350" font-family="Sans" font-size="10.00">template-library-core#142</text>
</a>
</g>
<!-- template&#45;library&#45;core#143 -->
<g id="node77" class="node"><title>template-library-core#143</title>
<a xlink:href="https://github.com/quattor/template-library-core/pull/143" xlink:title="Add CPU architecture type definition" target="_parent">
<polygon fill="#6e5494" stroke="black" points="531,-314 393,-314 393,-260 531,-260 531,-314"/>
<text text-anchor="middle" x="462" y="-291" font-family="Sans" font-size="10.00">pull-request</text>
<text text-anchor="middle" x="462" y="-278" font-family="Sans" font-size="10.00">template-library-core#143</text>
</a>
</g>
<!-- template&#45;library&#45;core#142&#45;&gt;template&#45;library&#45;core#143 -->
<g id="edge66" class="edge"><title>template-library-core#142-&gt;template-library-core#143</title>
<path fill="none" stroke="black" d="M203.16,-343.819C255.711,-332.283 328.056,-316.402 382.906,-304.362"/>
<polygon fill="none" stroke="black" points="383.918,-307.723 392.935,-302.161 382.417,-300.886 383.918,-307.723"/>
<text text-anchor="middle" x="296" y="-332" font-family="Sans" font-size="10.00">requires</text>
</g>
<!-- template&#45;library&#45;core#139 -->
<g id="node78" class="node"><title>template-library-core#139</title>
<a xlink:href="https://github.com/quattor/template-library-core/pull/139" xlink:title="blockdevices: add validation check configuration to physical devices" target="_parent">
<polygon fill="#6e5494" stroke="black" points="203,-314 65,-314 65,-260 203,-260 203,-314"/>
<text text-anchor="middle" x="134" y="-291" font-family="Sans" font-size="10.00">pull-request</text>
<text text-anchor="middle" x="134" y="-278" font-family="Sans" font-size="10.00">template-library-core#139</text>
</a>
</g>
<!-- ncm&#45;lib&#45;blockdevices#73 -->
<g id="node80" class="node"><title>ncm-lib-blockdevices#73</title>
<a xlink:href="https://github.com/quattor/ncm-lib-blockdevices/pull/73" xlink:title="Blockdevices: determine correct disksize using integers (not floats) in bash" target="_parent">
<polygon fill="#6e5494" stroke="black" points="530,-242 394,-242 394,-188 530,-188 530,-242"/>
<text text-anchor="middle" x="462" y="-219" font-family="Sans" font-size="10.00">pull-request</text>
<text text-anchor="middle" x="462" y="-206" font-family="Sans" font-size="10.00">ncm-lib-blockdevices#73</text>
</a>
</g>
<!-- template&#45;library&#45;core#139&#45;&gt;ncm&#45;lib&#45;blockdevices#73 -->
<g id="edge68" class="edge"><title>template-library-core#139-&gt;ncm-lib-blockdevices#73</title>
<path fill="none" stroke="black" d="M203.16,-271.819C255.976,-260.225 328.787,-244.242 383.735,-232.18"/>
<polygon fill="none" stroke="black" points="384.762,-235.538 393.779,-229.975 383.261,-228.701 384.762,-235.538"/>
<text text-anchor="middle" x="296" y="-260" font-family="Sans" font-size="10.00">requires</text>
</g>
</g>
</svg>
