<?xml version="1.0" encoding="UTF-8" standalone="no"?>
<?xml-stylesheet href="relationships.css" type="text/css"?>
<!-- Generated by graphviz version 2.26.0 (20091210.2329)
 -->
<!-- Title: Dependencies Pages: 1 -->
<svg xmlns="http://www.w3.org/2000/svg" xmlns:xlink="http://www.w3.org/1999/xlink" width="578pt" height="2248pt" viewBox="0.00 0.00 578.00 2248.00">
<g id="graph1" class="graph" transform="scale(1 1) rotate(0) translate(4 2244)">
<title>Dependencies</title>
<polygon fill="white" stroke="white" points="-4,5 -4,-2244 575,-2244 575,5 -4,5"/>
<g id="graph2" class="cluster"><title>cluster_17.10</title>
<polygon fill="none" stroke="black" points="302,-376 302,-492 562,-492 562,-376 302,-376"/>
<text text-anchor="middle" x="432" y="-477.2" font-family="Sans" font-size="12.00">17.10</text>
</g>
<g id="graph3" class="cluster"><title>cluster_17.8</title>
<polygon fill="none" stroke="black" points="24,-500 24,-1722 562,-1722 562,-500 24,-500"/>
<text text-anchor="middle" x="293" y="-1707.2" font-family="Sans" font-size="12.00">17.8</text>
</g>
<g id="graph5" class="cluster"><title>cluster_17.12</title>
<polygon fill="none" stroke="black" points="70,-1780 70,-1968 482,-1968 482,-1780 70,-1780"/>
<text text-anchor="middle" x="276" y="-1953.2" font-family="Sans" font-size="12.00">17.12</text>
</g>
<!-- aii#275 -->
<g id="node1" class="node"><title>aii#275</title>
<a xlink:href="https://github.com/quattor/aii/pull/275" xlink:title="remove aii-freeipa, deprecated by ncm-freeipa AII support" target="_parent">
<polygon fill="#6e5494" stroke="black" points="157,-1679 79,-1679 79,-1625 157,-1625 157,-1679"/>
<text text-anchor="middle" x="118" y="-1656" font-family="Sans" font-size="10.00">pull-request</text>
<text text-anchor="middle" x="118" y="-1643" font-family="Sans" font-size="10.00">aii#275</text>
</a>
</g>
<!-- aii#134 -->
<g id="node3" class="node"><title>aii#134</title>
<a xlink:href="https://github.com/quattor/aii/issues/134" xlink:title="Missing freeipa.pm in AII RPM" target="_parent">
<ellipse fill="#bd2c00" stroke="black" cx="432" cy="-1652" rx="41.2167" ry="38.1838"/>
<text text-anchor="middle" x="432" y="-1656" font-family="Sans" font-size="10.00">issue</text>
<text text-anchor="middle" x="432" y="-1643" font-family="Sans" font-size="10.00">aii#134</text>
</a>
</g>
<!-- aii#275&#45;&gt;aii#134 -->
<g id="edge2" class="edge"><title>aii#275-&gt;aii#134</title>
<path fill="none" stroke="black" stroke-width="2" d="M157.571,-1650.9C184.705,-1650.2 221.529,-1649.36 254,-1649 296.474,-1648.53 344.645,-1649.43 380.154,-1650.36"/>
<polygon fill="black" stroke="black" points="380.191,-1653.87 390.282,-1650.64 380.381,-1646.87 380.191,-1653.87"/>
<text text-anchor="middle" x="273" y="-1653" font-family="Sans" font-size="10.00">fixes</text>
</g>
<!-- aii#210 -->
<g id="node4" class="node"><title>aii#210</title>
<a xlink:href="https://github.com/quattor/aii/pull/210" xlink:title="Shellfe: support active config for plugins" target="_parent">
<polygon fill="#6cc644" stroke="black" points="157,-1853 79,-1853 79,-1799 157,-1799 157,-1853"/>
<text text-anchor="middle" x="118" y="-1830" font-family="Sans" font-size="10.00">pull-request</text>
<text text-anchor="middle" x="118" y="-1817" font-family="Sans" font-size="10.00">aii#210</text>
</a>
</g>
<!-- aii#209 -->
<g id="node6" class="node"><title>aii#209</title>
<a xlink:href="https://github.com/quattor/aii/issues/209" xlink:title="support ACTIVE_CONFIG" target="_parent">
<ellipse fill="#6cc644" stroke="black" cx="432" cy="-1826" rx="41.2167" ry="38.1838"/>
<text text-anchor="middle" x="432" y="-1830" font-family="Sans" font-size="10.00">issue</text>
<text text-anchor="middle" x="432" y="-1817" font-family="Sans" font-size="10.00">aii#209</text>
</a>
</g>
<!-- aii#210&#45;&gt;aii#209 -->
<g id="edge4" class="edge"><title>aii#210-&gt;aii#209</title>
<path fill="none" stroke="black" stroke-width="2" d="M157.768,-1826C214.279,-1826 317.868,-1826 380.284,-1826"/>
<polygon fill="black" stroke="black" points="380.31,-1829.5 390.31,-1826 380.31,-1822.5 380.31,-1829.5"/>
<text text-anchor="middle" x="273" y="-1830" font-family="Sans" font-size="10.00">fixes</text>
</g>
<!-- ncm&#45;ncd#74 -->
<g id="node8" class="node"><title>ncm-ncd#74</title>
<a xlink:href="https://github.com/quattor/ncm-ncd/pull/74" xlink:title="Set the current active config as an attribute to the component" target="_parent">
<polygon fill="#6cc644" stroke="black" points="473,-1936 391,-1936 391,-1882 473,-1882 473,-1936"/>
<text text-anchor="middle" x="432" y="-1913" font-family="Sans" font-size="10.00">pull-request</text>
<text text-anchor="middle" x="432" y="-1900" font-family="Sans" font-size="10.00">ncm-ncd#74</text>
</a>
</g>
<!-- aii#210&#45;&gt;ncm&#45;ncd#74 -->
<g id="edge6" class="edge"><title>aii#210-&gt;ncm-ncd#74</title>
<path fill="none" stroke="black" stroke-dasharray="5,2" d="M157.609,-1836.38C180.517,-1842.39 209.889,-1850.11 236,-1857 285.266,-1870.01 341.475,-1884.93 381.028,-1895.44"/>
<polygon fill="none" stroke="black" points="380.148,-1898.83 390.711,-1898.01 381.946,-1892.06 380.148,-1898.83"/>
<text text-anchor="middle" x="273" y="-1876" font-family="Sans" font-size="10.00">requires</text>
</g>
<!-- aii#203 -->
<g id="node10" class="node"><title>aii#203</title>
<polygon fill="lightgrey" stroke="black" points="461,-1770.5 403,-1770.5 403,-1729.5 461,-1729.5 461,-1770.5"/>
<text text-anchor="middle" x="432" y="-1747.5" font-family="Sans" font-size="10.00">aii#203</text>
</g>
<!-- aii#210&#45;&gt;aii#203 -->
<g id="edge8" class="edge"><title>aii#210-&gt;aii#203</title>
<path fill="none" stroke="black" stroke-dasharray="5,2" d="M157.642,-1814.39C194.772,-1803.72 251.897,-1787.8 302,-1776 332.126,-1768.9 366.473,-1762.09 392.293,-1757.22"/>
<polygon fill="none" stroke="black" points="393.261,-1760.6 402.447,-1755.32 391.974,-1753.72 393.261,-1760.6"/>
<text text-anchor="middle" x="273" y="-1792" font-family="Sans" font-size="10.00">requires</text>
</g>
<!-- configuration&#45;modules&#45;core#1169 -->
<g id="node11" class="node"><title>configuration-modules-core#1169</title>
<a xlink:href="https://github.com/quattor/configuration-modules-core/pull/1169" xlink:title="ncm-accounts: is_user_or_group function can be used without component" target="_parent">
<polygon fill="#6e5494" stroke="black" points="204,-1585 32,-1585 32,-1531 204,-1531 204,-1585"/>
<text text-anchor="middle" x="118" y="-1562" font-family="Sans" font-size="10.00">pull-request</text>
<text text-anchor="middle" x="118" y="-1549" font-family="Sans" font-size="10.00">configuration-modules-core#1169</text>
</a>
</g>
<!-- configuration&#45;modules&#45;core#1166 -->
<g id="node13" class="node"><title>configuration-modules-core#1166</title>
<a xlink:href="https://github.com/quattor/configuration-modules-core/issues/1166" xlink:title="ncm-systemd: schema depends on components/accounts/functions" target="_parent">
<ellipse fill="#bd2c00" stroke="black" cx="432" cy="-1558" rx="121.122" ry="38.1838"/>
<text text-anchor="middle" x="432" y="-1562" font-family="Sans" font-size="10.00">issue</text>
<text text-anchor="middle" x="432" y="-1549" font-family="Sans" font-size="10.00">configuration-modules-core#1166</text>
</a>
</g>
<!-- configuration&#45;modules&#45;core#1169&#45;&gt;configuration&#45;modules&#45;core#1166 -->
<g id="edge10" class="edge"><title>configuration-modules-core#1169-&gt;configuration-modules-core#1166</title>
<path fill="none" stroke="black" stroke-width="2" d="M204.217,-1558C233.916,-1558 267.888,-1558 300.372,-1558"/>
<polygon fill="black" stroke="black" points="300.399,-1561.5 310.399,-1558 300.399,-1554.5 300.399,-1561.5"/>
<text text-anchor="middle" x="273" y="-1562" font-family="Sans" font-size="10.00">fixes</text>
</g>
<!-- configuration&#45;modules&#45;core#1167 -->
<g id="node14" class="node"><title>configuration-modules-core#1167</title>
<a xlink:href="https://github.com/quattor/configuration-modules-core/pull/1167" xlink:title="ncm-cups: fix compatibility with EL7" target="_parent">
<polygon fill="#6cc644" stroke="black" points="204,-850 32,-850 32,-796 204,-796 204,-850"/>
<text text-anchor="middle" x="118" y="-827" font-family="Sans" font-size="10.00">pull-request</text>
<text text-anchor="middle" x="118" y="-814" font-family="Sans" font-size="10.00">configuration-modules-core#1167</text>
</a>
</g>
<!-- configuration&#45;modules&#45;core#1161 -->
<g id="node16" class="node"><title>configuration-modules-core#1161</title>
<a xlink:href="https://github.com/quattor/configuration-modules-core/issues/1161" xlink:title="ncm-cups 17.7.0 broken on EL7 (pre-EL7 chkconfig dependency)" target="_parent">
<ellipse fill="#6cc644" stroke="black" cx="432" cy="-422" rx="121.122" ry="38.1838"/>
<text text-anchor="middle" x="432" y="-426" font-family="Sans" font-size="10.00">issue</text>
<text text-anchor="middle" x="432" y="-413" font-family="Sans" font-size="10.00">configuration-modules-core#1161</text>
</a>
</g>
<!-- configuration&#45;modules&#45;core#1167&#45;&gt;configuration&#45;modules&#45;core#1161 -->
<g id="edge12" class="edge"><title>configuration-modules-core#1167-&gt;configuration-modules-core#1161</title>
<path fill="none" stroke="black" stroke-width="2" d="M204.168,-810.073C216.392,-804.736 227.629,-797.309 236,-787 264.268,-752.186 241.192,-628.978 254,-586 266.947,-542.555 270.389,-528.494 302,-496 316.395,-481.203 334.385,-468.46 352.349,-457.923"/>
<polygon fill="black" stroke="black" points="354.181,-460.908 361.15,-452.928 350.726,-454.82 354.181,-460.908"/>
<text text-anchor="middle" x="273" y="-590" font-family="Sans" font-size="10.00">fixes</text>
</g>
<!-- configuration&#45;modules&#45;core#1163 -->
<g id="node17" class="node"><title>configuration-modules-core#1163</title>
<a xlink:href="https://github.com/quattor/configuration-modules-core/pull/1163" xlink:title="ncm-directoryservices: remove unsupported component" target="_parent">
<polygon fill="#6cc644" stroke="black" points="204,-1491 32,-1491 32,-1437 204,-1437 204,-1491"/>
<text text-anchor="middle" x="118" y="-1468" font-family="Sans" font-size="10.00">pull-request</text>
<text text-anchor="middle" x="118" y="-1455" font-family="Sans" font-size="10.00">configuration-modules-core#1163</text>
</a>
</g>
<!-- configuration&#45;modules&#45;core#1052 -->
<g id="node19" class="node"><title>configuration-modules-core#1052</title>
<a xlink:href="https://github.com/quattor/configuration-modules-core/issues/1052" xlink:title="ncm-directoryservices: Archive and remove from repository" target="_parent">
<ellipse fill="#6cc644" stroke="black" cx="432" cy="-1464" rx="121.122" ry="38.1838"/>
<text text-anchor="middle" x="432" y="-1468" font-family="Sans" font-size="10.00">issue</text>
<text text-anchor="middle" x="432" y="-1455" font-family="Sans" font-size="10.00">configuration-modules-core#1052</text>
</a>
</g>
<!-- configuration&#45;modules&#45;core#1163&#45;&gt;configuration&#45;modules&#45;core#1052 -->
<g id="edge14" class="edge"><title>configuration-modules-core#1163-&gt;configuration-modules-core#1052</title>
<path fill="none" stroke="black" stroke-width="2" d="M204.217,-1464C233.916,-1464 267.888,-1464 300.372,-1464"/>
<polygon fill="black" stroke="black" points="300.399,-1467.5 310.399,-1464 300.399,-1460.5 300.399,-1467.5"/>
<text text-anchor="middle" x="273" y="-1468" font-family="Sans" font-size="10.00">fixes</text>
</g>
<!-- configuration&#45;modules&#45;core#1162 -->
<g id="node20" class="node"><title>configuration-modules-core#1162</title>
<a xlink:href="https://github.com/quattor/configuration-modules-core/pull/1162" xlink:title="ncm-mcx: remove unsupported component" target="_parent">
<polygon fill="#6e5494" stroke="black" points="204,-1397 32,-1397 32,-1343 204,-1343 204,-1397"/>
<text text-anchor="middle" x="118" y="-1374" font-family="Sans" font-size="10.00">pull-request</text>
<text text-anchor="middle" x="118" y="-1361" font-family="Sans" font-size="10.00">configuration-modules-core#1162</text>
</a>
</g>
<!-- configuration&#45;modules&#45;core#1054 -->
<g id="node22" class="node"><title>configuration-modules-core#1054</title>
<a xlink:href="https://github.com/quattor/configuration-modules-core/issues/1054" xlink:title="ncm-mcx: Archive and remove from repository" target="_parent">
<ellipse fill="#bd2c00" stroke="black" cx="432" cy="-1370" rx="121.122" ry="38.1838"/>
<text text-anchor="middle" x="432" y="-1374" font-family="Sans" font-size="10.00">issue</text>
<text text-anchor="middle" x="432" y="-1361" font-family="Sans" font-size="10.00">configuration-modules-core#1054</text>
</a>
</g>
<!-- configuration&#45;modules&#45;core#1162&#45;&gt;configuration&#45;modules&#45;core#1054 -->
<g id="edge16" class="edge"><title>configuration-modules-core#1162-&gt;configuration-modules-core#1054</title>
<path fill="none" stroke="black" stroke-width="2" d="M204.217,-1370C233.916,-1370 267.888,-1370 300.372,-1370"/>
<polygon fill="black" stroke="black" points="300.399,-1373.5 310.399,-1370 300.399,-1366.5 300.399,-1373.5"/>
<text text-anchor="middle" x="273" y="-1374" font-family="Sans" font-size="10.00">fixes</text>
</g>
<!-- configuration&#45;modules&#45;core#1159 -->
<g id="node23" class="node"><title>configuration-modules-core#1159</title>
<a xlink:href="https://github.com/quattor/configuration-modules-core/pull/1159" xlink:title="ncm-authconfig: Remove deprecated startstop property" target="_parent">
<polygon fill="#6e5494" stroke="black" points="204,-1288 32,-1288 32,-1234 204,-1234 204,-1288"/>
<text text-anchor="middle" x="118" y="-1265" font-family="Sans" font-size="10.00">pull-request</text>
<text text-anchor="middle" x="118" y="-1252" font-family="Sans" font-size="10.00">configuration-modules-core#1159</text>
</a>
</g>
<!-- configuration&#45;modules&#45;core#1145 -->
<g id="node25" class="node"><title>configuration-modules-core#1145</title>
<a xlink:href="https://github.com/quattor/configuration-modules-core/issues/1145" xlink:title="ncm-authconfig: Remove startstop property" target="_parent">
<ellipse fill="#bd2c00" stroke="black" cx="432" cy="-1276" rx="121.122" ry="38.1838"/>
<text text-anchor="middle" x="432" y="-1280" font-family="Sans" font-size="10.00">issue</text>
<text text-anchor="middle" x="432" y="-1267" font-family="Sans" font-size="10.00">configuration-modules-core#1145</text>
</a>
</g>
<!-- configuration&#45;modules&#45;core#1159&#45;&gt;configuration&#45;modules&#45;core#1145 -->
<g id="edge18" class="edge"><title>configuration-modules-core#1159-&gt;configuration-modules-core#1145</title>
<path fill="none" stroke="black" stroke-width="2" d="M204.217,-1265.12C234.327,-1266.56 268.83,-1268.21 301.721,-1269.78"/>
<polygon fill="black" stroke="black" points="301.714,-1273.28 311.87,-1270.26 302.048,-1266.29 301.714,-1273.28"/>
<text text-anchor="middle" x="273" y="-1273" font-family="Sans" font-size="10.00">fixes</text>
</g>
<!-- configuration&#45;modules&#45;core#1143 -->
<g id="node27" class="node"><title>configuration-modules-core#1143</title>
<a xlink:href="https://github.com/quattor/configuration-modules-core/issues/1143" xlink:title="ncm-authconfig: What is startstop supposed to do?" target="_parent">
<ellipse fill="#bd2c00" stroke="black" cx="432" cy="-1182" rx="121.122" ry="38.1838"/>
<text text-anchor="middle" x="432" y="-1186" font-family="Sans" font-size="10.00">issue</text>
<text text-anchor="middle" x="432" y="-1173" font-family="Sans" font-size="10.00">configuration-modules-core#1143</text>
</a>
</g>
<!-- configuration&#45;modules&#45;core#1159&#45;&gt;configuration&#45;modules&#45;core#1143 -->
<g id="edge20" class="edge"><title>configuration-modules-core#1159-&gt;configuration-modules-core#1143</title>
<path fill="none" stroke="black" stroke-width="2" d="M204.217,-1239.31C242.291,-1229.73 287.389,-1218.38 327.37,-1208.32"/>
<polygon fill="black" stroke="black" points="328.304,-1211.7 337.148,-1205.86 326.596,-1204.91 328.304,-1211.7"/>
<text text-anchor="middle" x="273" y="-1231" font-family="Sans" font-size="10.00">fixes</text>
</g>
<!-- configuration&#45;modules&#45;core#1151 -->
<g id="node28" class="node"><title>configuration-modules-core#1151</title>
<a xlink:href="https://github.com/quattor/configuration-modules-core/pull/1151" xlink:title="Escape / unescape functions from CCM::Path" target="_parent">
<polygon fill="#6e5494" stroke="black" points="204,-1210 32,-1210 32,-1156 204,-1156 204,-1210"/>
<text text-anchor="middle" x="118" y="-1187" font-family="Sans" font-size="10.00">pull-request</text>
<text text-anchor="middle" x="118" y="-1174" font-family="Sans" font-size="10.00">configuration-modules-core#1151</text>
</a>
</g>
<!-- configuration&#45;modules&#45;core#1083 -->
<g id="node30" class="node"><title>configuration-modules-core#1083</title>
<a xlink:href="https://github.com/quattor/configuration-modules-core/issues/1083" xlink:title="warnings due to deprecated CCM modules" target="_parent">
<ellipse fill="#bd2c00" stroke="black" cx="432" cy="-1088" rx="121.122" ry="38.1838"/>
<text text-anchor="middle" x="432" y="-1092" font-family="Sans" font-size="10.00">issue</text>
<text text-anchor="middle" x="432" y="-1079" font-family="Sans" font-size="10.00">configuration-modules-core#1083</text>
</a>
</g>
<!-- configuration&#45;modules&#45;core#1151&#45;&gt;configuration&#45;modules&#45;core#1083 -->
<g id="edge22" class="edge"><title>configuration-modules-core#1151-&gt;configuration-modules-core#1083</title>
<path fill="none" stroke="black" stroke-width="2" d="M204.217,-1156.92C244.726,-1144.66 293.186,-1130 334.974,-1117.35"/>
<polygon fill="black" stroke="black" points="336.053,-1120.69 344.611,-1114.44 334.026,-1113.99 336.053,-1120.69"/>
<text text-anchor="middle" x="273" y="-1146" font-family="Sans" font-size="10.00">fixes</text>
</g>
<!-- configuration&#45;modules&#45;core#1149 -->
<g id="node31" class="node"><title>configuration-modules-core#1149</title>
<a xlink:href="https://github.com/quattor/configuration-modules-core/pull/1149" xlink:title="ncm-metaconfig: rsyslog: rainer script configuration" target="_parent">
<polygon fill="#6cc644" stroke="black" points="204,-1138 32,-1138 32,-1084 204,-1084 204,-1138"/>
<text text-anchor="middle" x="118" y="-1115" font-family="Sans" font-size="10.00">pull-request</text>
<text text-anchor="middle" x="118" y="-1102" font-family="Sans" font-size="10.00">configuration-modules-core#1149</text>
</a>
</g>
<!-- configuration&#45;modules&#45;core#1126 -->
<g id="node33" class="node"><title>configuration-modules-core#1126</title>
<a xlink:href="https://github.com/quattor/configuration-modules-core/pull/1126" xlink:title="ncm-metaconfig: cleanup and switch to 00-tqu" target="_parent">
<polygon fill="#6cc644" stroke="black" points="518,-1032 346,-1032 346,-978 518,-978 518,-1032"/>
<text text-anchor="middle" x="432" y="-1009" font-family="Sans" font-size="10.00">pull-request</text>
<text text-anchor="middle" x="432" y="-996" font-family="Sans" font-size="10.00">configuration-modules-core#1126</text>
</a>
</g>
<!-- configuration&#45;modules&#45;core#1149&#45;&gt;configuration&#45;modules&#45;core#1126 -->
<g id="edge24" class="edge"><title>configuration-modules-core#1149-&gt;configuration-modules-core#1126</title>
<path fill="none" stroke="black" stroke-dasharray="5,2" d="M204.031,-1086.73C214.898,-1083.09 225.781,-1079.15 236,-1075 266.57,-1062.58 271.271,-1053.02 302,-1041 312.905,-1036.73 324.509,-1032.76 336.123,-1029.13"/>
<polygon fill="none" stroke="black" points="337.321,-1032.42 345.866,-1026.16 335.28,-1025.73 337.321,-1032.42"/>
<text text-anchor="middle" x="273" y="-1071" font-family="Sans" font-size="10.00">requires</text>
</g>
<!-- configuration&#45;modules&#45;core#1136 -->
<g id="node34" class="node"><title>configuration-modules-core#1136</title>
<a xlink:href="https://github.com/quattor/configuration-modules-core/pull/1136" xlink:title="ncm-gmond: cleanup and support new configuration options" target="_parent">
<polygon fill="#6cc644" stroke="black" points="204,-1066 32,-1066 32,-1012 204,-1012 204,-1066"/>
<text text-anchor="middle" x="118" y="-1043" font-family="Sans" font-size="10.00">pull-request</text>
<text text-anchor="middle" x="118" y="-1030" font-family="Sans" font-size="10.00">configuration-modules-core#1136</text>
</a>
</g>
<!-- configuration&#45;modules&#45;core#1116 -->
<g id="node36" class="node"><title>configuration-modules-core#1116</title>
<a xlink:href="https://github.com/quattor/configuration-modules-core/issues/1116" xlink:title="ncm-gmond: configuration options missing from schema" target="_parent">
<ellipse fill="#6cc644" stroke="black" cx="432" cy="-922" rx="121.122" ry="38.1838"/>
<text text-anchor="middle" x="432" y="-926" font-family="Sans" font-size="10.00">issue</text>
<text text-anchor="middle" x="432" y="-913" font-family="Sans" font-size="10.00">configuration-modules-core#1116</text>
</a>
</g>
<!-- configuration&#45;modules&#45;core#1136&#45;&gt;configuration&#45;modules&#45;core#1116 -->
<g id="edge26" class="edge"><title>configuration-modules-core#1136-&gt;configuration-modules-core#1116</title>
<path fill="none" stroke="black" stroke-width="2" d="M204.031,-1014.73C214.898,-1011.09 225.781,-1007.15 236,-1003 266.57,-990.58 271.755,-982.192 302,-969 314.214,-963.673 327.245,-958.445 340.164,-953.525"/>
<polygon fill="black" stroke="black" points="341.41,-956.796 349.538,-949.999 338.946,-950.244 341.41,-956.796"/>
<text text-anchor="middle" x="273" y="-999" font-family="Sans" font-size="10.00">fixes</text>
</g>
<!-- configuration&#45;modules&#45;core#1132 -->
<g id="node37" class="node"><title>configuration-modules-core#1132</title>
<a xlink:href="https://github.com/quattor/configuration-modules-core/pull/1132" xlink:title="ncm-metaconfig: hnormalise" target="_parent">
<polygon fill="#6cc644" stroke="black" points="204,-706 32,-706 32,-652 204,-652 204,-706"/>
<text text-anchor="middle" x="118" y="-683" font-family="Sans" font-size="10.00">pull-request</text>
<text text-anchor="middle" x="118" y="-670" font-family="Sans" font-size="10.00">configuration-modules-core#1132</text>
</a>
</g>
<!-- configuration&#45;modules&#45;core#1028 -->
<g id="node39" class="node"><title>configuration-modules-core#1028</title>
<polygon fill="lightgrey" stroke="black" points="518,-192.5 346,-192.5 346,-151.5 518,-151.5 518,-192.5"/>
<text text-anchor="middle" x="432" y="-169.5" font-family="Sans" font-size="10.00">configuration-modules-core#1028</text>
</g>
<!-- configuration&#45;modules&#45;core#1132&#45;&gt;configuration&#45;modules&#45;core#1028 -->
<g id="edge28" class="edge"><title>configuration-modules-core#1132-&gt;configuration-modules-core#1028</title>
<path fill="none" stroke="black" stroke-dasharray="5,2" d="M204.019,-666.68C216.421,-661.285 227.754,-653.681 236,-643 266.443,-603.566 220.363,-231.748 254,-195 274.509,-172.594 305.208,-163.917 335.363,-161.762"/>
<polygon fill="none" stroke="black" points="335.734,-165.248 345.553,-161.271 335.396,-158.257 335.734,-165.248"/>
<text text-anchor="middle" x="273" y="-199" font-family="Sans" font-size="10.00">requires</text>
</g>
<!-- configuration&#45;modules&#45;core#1124 -->
<g id="node40" class="node"><title>configuration-modules-core#1124</title>
<a xlink:href="https://github.com/quattor/configuration-modules-core/pull/1124" xlink:title="ncm-cron: cleanup and switch to 00-tqu" target="_parent">
<polygon fill="#6e5494" stroke="black" points="204,-778 32,-778 32,-724 204,-724 204,-778"/>
<text text-anchor="middle" x="118" y="-755" font-family="Sans" font-size="10.00">pull-request</text>
<text text-anchor="middle" x="118" y="-742" font-family="Sans" font-size="10.00">configuration-modules-core#1124</text>
</a>
</g>
<!-- CAF#230 -->
<g id="node42" class="node"><title>CAF#230</title>
<polygon fill="lightgrey" stroke="black" points="467,-250.5 397,-250.5 397,-209.5 467,-209.5 467,-250.5"/>
<text text-anchor="middle" x="432" y="-227.5" font-family="Sans" font-size="10.00">CAF#230</text>
</g>
<!-- configuration&#45;modules&#45;core#1124&#45;&gt;CAF#230 -->
<g id="edge30" class="edge"><title>configuration-modules-core#1124-&gt;CAF#230</title>
<path fill="none" stroke="black" stroke-dasharray="5,2" d="M204.046,-738.701C216.445,-733.304 227.77,-725.693 236,-715 268.821,-672.353 215.351,-268.448 254,-231 288.475,-197.596 346.649,-204.362 387.069,-214.847"/>
<polygon fill="none" stroke="black" points="386.366,-218.284 396.937,-217.571 388.229,-211.537 386.366,-218.284"/>
<text text-anchor="middle" x="273" y="-235" font-family="Sans" font-size="10.00">requires</text>
</g>
<!-- configuration&#45;modules&#45;core#1119 -->
<g id="node43" class="node"><title>configuration-modules-core#1119</title>
<a xlink:href="https://github.com/quattor/configuration-modules-core/pull/1119" xlink:title="ncm-systemd: cleanup, restarting modified unitfiles and initial handling of unconfigured units" target="_parent">
<polygon fill="#6cc644" stroke="black" points="204,-994 32,-994 32,-940 204,-940 204,-994"/>
<text text-anchor="middle" x="118" y="-971" font-family="Sans" font-size="10.00">pull-request</text>
<text text-anchor="middle" x="118" y="-958" font-family="Sans" font-size="10.00">configuration-modules-core#1119</text>
</a>
</g>
<!-- configuration&#45;modules&#45;core#1095 -->
<g id="node45" class="node"><title>configuration-modules-core#1095</title>
<a xlink:href="https://github.com/quattor/configuration-modules-core/issues/1095" xlink:title="Manual intervention required in order for drop-in unit files to have any affect" target="_parent">
<ellipse fill="#6cc644" stroke="black" cx="432" cy="-828" rx="121.122" ry="38.1838"/>
<text text-anchor="middle" x="432" y="-832" font-family="Sans" font-size="10.00">issue</text>
<text text-anchor="middle" x="432" y="-819" font-family="Sans" font-size="10.00">configuration-modules-core#1095</text>
</a>
</g>
<!-- configuration&#45;modules&#45;core#1119&#45;&gt;configuration&#45;modules&#45;core#1095 -->
<g id="edge32" class="edge"><title>configuration-modules-core#1119-&gt;configuration-modules-core#1095</title>
<path fill="none" stroke="black" stroke-width="2" d="M204.127,-945.254C215.142,-941.172 226.037,-936.441 236,-931 269.763,-912.561 268.717,-894.29 302,-875 312.486,-868.923 323.893,-863.414 335.451,-858.486"/>
<polygon fill="black" stroke="black" points="336.826,-861.706 344.737,-854.659 334.158,-855.234 336.826,-861.706"/>
<text text-anchor="middle" x="273" y="-922" font-family="Sans" font-size="10.00">fixes</text>
</g>
<!-- configuration&#45;modules&#45;core#1087 -->
<g id="node46" class="node"><title>configuration-modules-core#1087</title>
<a xlink:href="https://github.com/quattor/configuration-modules-core/pull/1087" xlink:title="ncm-network: cleanup, fixes and new features" target="_parent">
<polygon fill="#6cc644" stroke="black" points="204,-922 32,-922 32,-868 204,-868 204,-922"/>
<text text-anchor="middle" x="118" y="-899" font-family="Sans" font-size="10.00">pull-request</text>
<text text-anchor="middle" x="118" y="-886" font-family="Sans" font-size="10.00">configuration-modules-core#1087</text>
</a>
</g>
<!-- configuration&#45;modules&#45;core#1087&#45;&gt;CAF#230 -->
<g id="edge44" class="edge"><title>configuration-modules-core#1087-&gt;CAF#230</title>
<path fill="none" stroke="black" stroke-dasharray="5,2" d="M204.087,-882.733C216.481,-877.332 227.795,-869.712 236,-859 273.249,-810.372 229.928,-364.327 254,-308 275.527,-257.63 341.341,-239.777 386.611,-233.456"/>
<polygon fill="none" stroke="black" points="387.299,-236.897 396.785,-232.178 386.427,-229.951 387.299,-236.897"/>
<text text-anchor="middle" x="273" y="-312" font-family="Sans" font-size="10.00">requires</text>
</g>
<!-- configuration&#45;modules&#45;core#1082 -->
<g id="node48" class="node"><title>configuration-modules-core#1082</title>
<a xlink:href="https://github.com/quattor/configuration-modules-core/issues/1082" xlink:title="ncm-network: Allow extra routing options for the default route" target="_parent">
<ellipse fill="#6cc644" stroke="black" cx="432" cy="-546" rx="121.122" ry="38.1838"/>
<text text-anchor="middle" x="432" y="-550" font-family="Sans" font-size="10.00">issue</text>
<text text-anchor="middle" x="432" y="-537" font-family="Sans" font-size="10.00">configuration-modules-core#1082</text>
</a>
</g>
<!-- configuration&#45;modules&#45;core#1087&#45;&gt;configuration&#45;modules&#45;core#1082 -->
<g id="edge34" class="edge"><title>configuration-modules-core#1087-&gt;configuration-modules-core#1082</title>
<path fill="none" stroke="black" stroke-width="2" d="M204.071,-881.994C216.307,-876.667 227.573,-869.263 236,-859 261.369,-828.102 242.102,-718.167 254,-680 267.143,-637.84 268.417,-621.678 302,-593 310.174,-586.02 319.467,-580.043 329.238,-574.933"/>
<polygon fill="black" stroke="black" points="330.887,-578.023 338.327,-570.48 327.807,-571.737 330.887,-578.023"/>
<text text-anchor="middle" x="273" y="-684" font-family="Sans" font-size="10.00">fixes</text>
</g>
<!-- configuration&#45;modules&#45;core#870 -->
<g id="node50" class="node"><title>configuration-modules-core#870</title>
<a xlink:href="https://github.com/quattor/configuration-modules-core/issues/870" xlink:title="ncm-network: hostname is not set in el7" target="_parent">
<ellipse fill="#6cc644" stroke="black" cx="432" cy="-640" rx="118.087" ry="38.1838"/>
<text text-anchor="middle" x="432" y="-644" font-family="Sans" font-size="10.00">issue</text>
<text text-anchor="middle" x="432" y="-631" font-family="Sans" font-size="10.00">configuration-modules-core#870</text>
</a>
</g>
<!-- configuration&#45;modules&#45;core#1087&#45;&gt;configuration&#45;modules&#45;core#870 -->
<g id="edge36" class="edge"><title>configuration-modules-core#1087-&gt;configuration-modules-core#870</title>
<path fill="none" stroke="black" stroke-width="2" d="M204.029,-880.798C216.04,-875.604 227.246,-868.554 236,-859 262.086,-830.527 240.526,-810.189 254,-774 269.409,-732.614 268.417,-715.678 302,-687 310.54,-679.707 320.301,-673.511 330.552,-668.252"/>
<polygon fill="black" stroke="black" points="332.172,-671.357 339.668,-663.869 329.139,-665.048 332.172,-671.357"/>
<text text-anchor="middle" x="273" y="-778" font-family="Sans" font-size="10.00">fixes</text>
</g>
<!-- configuration&#45;modules&#45;core#1109 -->
<g id="node52" class="node"><title>configuration-modules-core#1109</title>
<a xlink:href="https://github.com/quattor/configuration-modules-core/issues/1109" xlink:title="ncm-network: systemd rpm scripts remove HOSTNAME from /etc/sysconfig/network" target="_parent">
<ellipse fill="#6cc644" stroke="black" cx="432" cy="-734" rx="121.122" ry="38.1838"/>
<text text-anchor="middle" x="432" y="-738" font-family="Sans" font-size="10.00">issue</text>
<text text-anchor="middle" x="432" y="-725" font-family="Sans" font-size="10.00">configuration-modules-core#1109</text>
</a>
</g>
<!-- configuration&#45;modules&#45;core#1087&#45;&gt;configuration&#45;modules&#45;core#1109 -->
<g id="edge38" class="edge"><title>configuration-modules-core#1087-&gt;configuration-modules-core#1109</title>
<path fill="none" stroke="black" stroke-width="2" d="M204.113,-875.132C215.305,-870.738 226.251,-865.42 236,-859 273.927,-834.025 264.719,-806.93 302,-781 311.372,-774.482 321.749,-768.763 332.434,-763.772"/>
<polygon fill="black" stroke="black" points="334.169,-766.831 341.886,-759.571 331.326,-760.434 334.169,-766.831"/>
<text text-anchor="middle" x="273" y="-847" font-family="Sans" font-size="10.00">fixes</text>
</g>
<!-- configuration&#45;modules&#45;core#1085 -->
<g id="node54" class="node"><title>configuration-modules-core#1085</title>
<polygon fill="lightgrey" stroke="black" points="518,-366.5 346,-366.5 346,-325.5 518,-325.5 518,-366.5"/>
<text text-anchor="middle" x="432" y="-343.5" font-family="Sans" font-size="10.00">configuration-modules-core#1085</text>
</g>
<!-- configuration&#45;modules&#45;core#1087&#45;&gt;configuration&#45;modules&#45;core#1085 -->
<g id="edge40" class="edge"><title>configuration-modules-core#1087-&gt;configuration-modules-core#1085</title>
<path fill="none" stroke="black" stroke-dasharray="1,5" d="M204.236,-882.491C216.532,-877.111 227.774,-869.561 236,-859 261.223,-826.615 245.141,-530.081 254,-490 266.22,-434.717 258.367,-408.08 302,-372 311.965,-363.76 323.817,-357.884 336.248,-353.732"/>
<polygon fill="black" stroke="black" points="345.845,-350.883 337.54,-358.043 341.052,-352.306 336.259,-353.729 336.259,-353.729 336.259,-353.729 341.052,-352.306 334.978,-349.415 345.845,-350.883 345.845,-350.883"/>
<text text-anchor="middle" x="273" y="-494" font-family="Sans" font-size="10.00">replaces</text>
</g>
<!-- configuration&#45;modules&#45;core#1070 -->
<g id="node56" class="node"><title>configuration-modules-core#1070</title>
<polygon fill="lightgrey" stroke="black" points="518,-308.5 346,-308.5 346,-267.5 518,-267.5 518,-308.5"/>
<text text-anchor="middle" x="432" y="-285.5" font-family="Sans" font-size="10.00">configuration-modules-core#1070</text>
</g>
<!-- configuration&#45;modules&#45;core#1087&#45;&gt;configuration&#45;modules&#45;core#1070 -->
<g id="edge42" class="edge"><title>configuration-modules-core#1087-&gt;configuration-modules-core#1070</title>
<path fill="none" stroke="black" stroke-dasharray="1,5" d="M204.052,-882.706C216.45,-877.308 227.774,-869.696 236,-859 269.416,-815.549 232.362,-416.363 254,-366 268.304,-332.706 301.937,-313.619 336.162,-302.679"/>
<polygon fill="black" stroke="black" points="345.815,-299.804 337.515,-306.971 341.023,-301.231 336.231,-302.658 336.231,-302.658 336.231,-302.658 341.023,-301.231 334.947,-298.345 345.815,-299.804 345.815,-299.804"/>
<text text-anchor="middle" x="273" y="-370" font-family="Sans" font-size="10.00">replaces</text>
</g>
<!-- configuration&#45;modules&#45;core#1058 -->
<g id="node58" class="node"><title>configuration-modules-core#1058</title>
<a xlink:href="https://github.com/quattor/configuration-modules-core/pull/1058" xlink:title="ncm-ssh: disable insecure ssh ciphersuites and macs" target="_parent">
<polygon fill="#6cc644" stroke="black" points="204,-634 32,-634 32,-580 204,-580 204,-634"/>
<text text-anchor="middle" x="118" y="-611" font-family="Sans" font-size="10.00">pull-request</text>
<text text-anchor="middle" x="118" y="-598" font-family="Sans" font-size="10.00">configuration-modules-core#1058</text>
</a>
</g>
<!-- configuration&#45;modules&#45;core#983 -->
<g id="node60" class="node"><title>configuration-modules-core#983</title>
<polygon fill="lightgrey" stroke="black" points="515,-134.5 349,-134.5 349,-93.5 515,-93.5 515,-134.5"/>
<text text-anchor="middle" x="432" y="-111.5" font-family="Sans" font-size="10.00">configuration-modules-core#983</text>
</g>
<!-- configuration&#45;modules&#45;core#1058&#45;&gt;configuration&#45;modules&#45;core#983 -->
<g id="edge46" class="edge"><title>configuration-modules-core#1058-&gt;configuration-modules-core#983</title>
<path fill="none" stroke="black" stroke-dasharray="1,5" d="M204.007,-594.671C216.41,-589.277 227.748,-581.676 236,-571 265.517,-532.815 221.39,-172.58 254,-137 275.182,-113.889 307.209,-105.391 338.283,-103.59"/>
<polygon fill="black" stroke="black" points="348.324,-103.23 338.492,-108.085 343.327,-103.409 338.33,-103.588 338.33,-103.588 338.33,-103.588 343.327,-103.409 338.169,-99.0909 348.324,-103.23 348.324,-103.23"/>
<text text-anchor="middle" x="273" y="-141" font-family="Sans" font-size="10.00">replaces</text>
</g>
<!-- configuration&#45;modules&#45;core#1171 -->
<g id="node61" class="node"><title>configuration-modules-core#1171</title>
<a xlink:href="https://github.com/quattor/configuration-modules-core/pull/1171" xlink:title="[WIP] ncm-cups enhancements and cleanups" target="_parent">
<polygon fill="#6cc644" stroke="black" points="204,-2041 32,-2041 32,-1987 204,-1987 204,-2041"/>
<text text-anchor="middle" x="118" y="-2018" font-family="Sans" font-size="10.00">pull-request</text>
<text text-anchor="middle" x="118" y="-2005" font-family="Sans" font-size="10.00">configuration-modules-core#1171</text>
</a>
</g>
<!-- configuration&#45;modules&#45;core#1164 -->
<g id="node63" class="node"><title>configuration-modules-core#1164</title>
<a xlink:href="https://github.com/quattor/configuration-modules-core/issues/1164" xlink:title="ncm-cups 17.7.0: configuration of ServerAlias + miscellanous enhancements" target="_parent">
<ellipse fill="#6cc644" stroke="black" cx="432" cy="-2014" rx="121.122" ry="38.1838"/>
<text text-anchor="middle" x="432" y="-2018" font-family="Sans" font-size="10.00">issue</text>
<text text-anchor="middle" x="432" y="-2005" font-family="Sans" font-size="10.00">configuration-modules-core#1164</text>
</a>
</g>
<!-- configuration&#45;modules&#45;core#1171&#45;&gt;configuration&#45;modules&#45;core#1164 -->
<g id="edge48" class="edge"><title>configuration-modules-core#1171-&gt;configuration-modules-core#1164</title>
<path fill="none" stroke="black" stroke-width="2" d="M204.217,-2014C233.916,-2014 267.888,-2014 300.372,-2014"/>
<polygon fill="black" stroke="black" points="300.399,-2017.5 310.399,-2014 300.399,-2010.5 300.399,-2017.5"/>
<text text-anchor="middle" x="273" y="-2018" font-family="Sans" font-size="10.00">fixes</text>
</g>
<!-- configuration&#45;modules&#45;core#1148 -->
<g id="node64" class="node"><title>configuration-modules-core#1148</title>
<a xlink:href="https://github.com/quattor/configuration-modules-core/pull/1148" xlink:title="ncm-spma: Remove support from groups from spma yumng backend" target="_parent">
<polygon fill="#6cc644" stroke="black" points="204,-2229 32,-2229 32,-2175 204,-2175 204,-2229"/>
<text text-anchor="middle" x="118" y="-2206" font-family="Sans" font-size="10.00">pull-request</text>
<text text-anchor="middle" x="118" y="-2193" font-family="Sans" font-size="10.00">configuration-modules-core#1148</text>
</a>
</g>
<!-- configuration&#45;modules&#45;core#952 -->
<g id="node66" class="node"><title>configuration-modules-core#952</title>
<a xlink:href="https://github.com/quattor/configuration-modules-core/issues/952" xlink:title="ncm-spma (yumng): Remove support for package groups" target="_parent">
<ellipse fill="#6cc644" stroke="black" cx="432" cy="-2202" rx="118.087" ry="38.1838"/>
<text text-anchor="middle" x="432" y="-2206" font-family="Sans" font-size="10.00">issue</text>
<text text-anchor="middle" x="432" y="-2193" font-family="Sans" font-size="10.00">configuration-modules-core#952</text>
</a>
</g>
<!-- configuration&#45;modules&#45;core#1148&#45;&gt;configuration&#45;modules&#45;core#952 -->
<g id="edge50" class="edge"><title>configuration-modules-core#1148-&gt;configuration-modules-core#952</title>
<path fill="none" stroke="black" stroke-width="2" d="M204.217,-2202C234.903,-2202 270.151,-2202 303.606,-2202"/>
<polygon fill="black" stroke="black" points="303.924,-2205.5 313.924,-2202 303.924,-2198.5 303.924,-2205.5"/>
<text text-anchor="middle" x="273" y="-2206" font-family="Sans" font-size="10.00">fixes</text>
</g>
<!-- configuration&#45;modules&#45;core#950 -->
<g id="node67" class="node"><title>configuration-modules-core#950</title>
<a xlink:href="https://github.com/quattor/configuration-modules-core/issues/950" xlink:title="ncm-spma: Remove support for package groups from yum backends" target="_parent">
<ellipse fill="#6cc644" stroke="black" cx="118" cy="-2113" rx="118.087" ry="38.1838"/>
<text text-anchor="middle" x="118" y="-2117" font-family="Sans" font-size="10.00">issue</text>
<text text-anchor="middle" x="118" y="-2104" font-family="Sans" font-size="10.00">configuration-modules-core#950</text>
</a>
</g>
<!-- configuration&#45;modules&#45;core#950&#45;&gt;configuration&#45;modules&#45;core#952 -->
<g id="edge54" class="edge"><title>configuration-modules-core#950-&gt;configuration-modules-core#952</title>
<path fill="none" stroke="black" stroke-dasharray="5,2" d="M206.721,-2138.15C246.26,-2149.35 292.974,-2162.59 333.584,-2174.11"/>
<polygon fill="none" stroke="black" points="332.651,-2177.48 343.226,-2176.84 334.56,-2170.74 332.651,-2177.48"/>
<text text-anchor="middle" x="273" y="-2164" font-family="Sans" font-size="10.00">requires</text>
</g>
<!-- configuration&#45;modules&#45;core#951 -->
<g id="node69" class="node"><title>configuration-modules-core#951</title>
<a xlink:href="https://github.com/quattor/configuration-modules-core/issues/951" xlink:title="ncm-spma (yum): Remove support for package groups" target="_parent">
<ellipse fill="#6cc644" stroke="black" cx="432" cy="-2108" rx="118.087" ry="38.1838"/>
<text text-anchor="middle" x="432" y="-2112" font-family="Sans" font-size="10.00">issue</text>
<text text-anchor="middle" x="432" y="-2099" font-family="Sans" font-size="10.00">configuration-modules-core#951</text>
</a>
</g>
<!-- configuration&#45;modules&#45;core#950&#45;&gt;configuration&#45;modules&#45;core#951 -->
<g id="edge52" class="edge"><title>configuration-modules-core#950-&gt;configuration-modules-core#951</title>
<path fill="none" stroke="black" stroke-dasharray="5,2" d="M236.263,-2111.12C258.348,-2110.77 281.525,-2110.4 303.892,-2110.04"/>
<polygon fill="none" stroke="black" points="304.162,-2113.54 314.105,-2109.88 304.05,-2106.54 304.162,-2113.54"/>
<text text-anchor="middle" x="273" y="-2114" font-family="Sans" font-size="10.00">requires</text>
</g>
<!-- template&#45;library&#45;standard#104 -->
<g id="node71" class="node"><title>template-library-standard#104</title>
<a xlink:href="https://github.com/quattor/template-library-standard/pull/104" xlink:title="Add CPUs used in Mellanox SN2100 and SN2700 switches" target="_parent">
<polygon fill="#6cc644" stroke="black" points="196,-562 40,-562 40,-508 196,-508 196,-562"/>
<text text-anchor="middle" x="118" y="-539" font-family="Sans" font-size="10.00">pull-request</text>
<text text-anchor="middle" x="118" y="-526" font-family="Sans" font-size="10.00">template-library-standard#104</text>
</a>
</g>
<!-- template&#45;library&#45;standard#103 -->
<g id="node73" class="node"><title>template-library-standard#103</title>
<a xlink:href="https://github.com/quattor/template-library-standard/issues/103" xlink:title="hardware/cpu/intel add embedded cpus" target="_parent">
<ellipse fill="#6cc644" stroke="black" cx="432" cy="-38" rx="111.016" ry="38.1838"/>
<text text-anchor="middle" x="432" y="-42" font-family="Sans" font-size="10.00">issue</text>
<text text-anchor="middle" x="432" y="-29" font-family="Sans" font-size="10.00">template-library-standard#103</text>
</a>
</g>
<!-- template&#45;library&#45;standard#104&#45;&gt;template&#45;library&#45;standard#103 -->
<g id="edge56" class="edge"><title>template-library-standard#104-&gt;template-library-standard#103</title>
<path fill="none" stroke="black" stroke-width="2" d="M123.078,-507.809C139.643,-421.787 194.471,-157.671 254,-97 272.297,-78.3517 296.614,-65.5972 321.379,-56.8739"/>
<polygon fill="black" stroke="black" points="322.489,-60.1931 330.88,-53.7242 320.287,-53.5486 322.489,-60.1931"/>
<text text-anchor="middle" x="273" y="-101" font-family="Sans" font-size="10.00">fixes</text>
</g>
</g>
</svg>
