<?xml version="1.0" encoding="UTF-8" standalone="no"?>
<?xml-stylesheet href="relationships.css" type="text/css"?>
<!-- Generated by graphviz version 2.26.0 (20091210.2329)
 -->
<!-- Title: Dependencies Pages: 1 -->
<svg xmlns="http://www.w3.org/2000/svg" xmlns:xlink="http://www.w3.org/1999/xlink" width="894pt" height="2320pt" viewBox="0.00 0.00 894.00 2320.00">
<g id="graph1" class="graph" transform="scale(1 1) rotate(0) translate(4 2316)">
<title>Dependencies</title>
<polygon fill="white" stroke="white" points="-4,5 -4,-2316 891,-2316 891,5 -4,5"/>
<g id="graph2" class="cluster"><title>cluster_17.10</title>
<polygon fill="none" stroke="black" points="24,-1628 24,-1794 560,-1794 560,-1628 24,-1628"/>
<text text-anchor="middle" x="292" y="-1779.2" font-family="Sans" font-size="12.00">17.10</text>
</g>
<g id="graph3" class="cluster"><title>cluster_17.8</title>
<polygon fill="none" stroke="black" points="336,-282 336,-1620 878,-1620 878,-282 336,-282"/>
<text text-anchor="middle" x="607" y="-1605.2" font-family="Sans" font-size="12.00">17.8</text>
</g>
<g id="graph5" class="cluster"><title>cluster_17.12</title>
<polygon fill="none" stroke="black" points="70,-1852 70,-2040 480,-2040 480,-1852 70,-1852"/>
<text text-anchor="middle" x="275" y="-2025.2" font-family="Sans" font-size="12.00">17.12</text>
</g>
<!-- aii#275 -->
<g id="node1" class="node"><title>aii#275</title>
<a xlink:href="https://github.com/quattor/aii/pull/275" xlink:title="remove aii-freeipa, deprecated by ncm-freeipa AII support" target="_parent">
<polygon fill="#6e5494" stroke="black" points="469,-1577 391,-1577 391,-1523 469,-1523 469,-1577"/>
<text text-anchor="middle" x="430" y="-1554" font-family="Sans" font-size="10.00">pull-request</text>
<text text-anchor="middle" x="430" y="-1541" font-family="Sans" font-size="10.00">aii#275</text>
</a>
</g>
<!-- aii#134 -->
<g id="node3" class="node"><title>aii#134</title>
<a xlink:href="https://github.com/quattor/aii/issues/134" xlink:title="Missing freeipa.pm in AII RPM" target="_parent">
<ellipse fill="#bd2c00" stroke="black" cx="748" cy="-1550" rx="41.2167" ry="38.1838"/>
<text text-anchor="middle" x="748" y="-1554" font-family="Sans" font-size="10.00">issue</text>
<text text-anchor="middle" x="748" y="-1541" font-family="Sans" font-size="10.00">aii#134</text>
</a>
</g>
<!-- aii#275&#45;&gt;aii#134 -->
<g id="edge2" class="edge"><title>aii#275-&gt;aii#134</title>
<path fill="none" stroke="black" stroke-width="2" d="M469.632,-1550C526.883,-1550 632.79,-1550 696.177,-1550"/>
<polygon fill="black" stroke="black" points="696.352,-1553.5 706.352,-1550 696.352,-1546.5 696.352,-1553.5"/>
<text text-anchor="middle" x="589" y="-1554" font-family="Sans" font-size="10.00">fixes</text>
</g>
<!-- aii#210 -->
<g id="node4" class="node"><title>aii#210</title>
<a xlink:href="https://github.com/quattor/aii/pull/210" xlink:title="Shellfe: support active config for plugins" target="_parent">
<polygon fill="#6cc644" stroke="black" points="157,-1925 79,-1925 79,-1871 157,-1871 157,-1925"/>
<text text-anchor="middle" x="118" y="-1902" font-family="Sans" font-size="10.00">pull-request</text>
<text text-anchor="middle" x="118" y="-1889" font-family="Sans" font-size="10.00">aii#210</text>
</a>
</g>
<!-- aii#209 -->
<g id="node6" class="node"><title>aii#209</title>
<a xlink:href="https://github.com/quattor/aii/issues/209" xlink:title="support ACTIVE_CONFIG" target="_parent">
<ellipse fill="#6cc644" stroke="black" cx="430" cy="-1898" rx="41.2167" ry="38.1838"/>
<text text-anchor="middle" x="430" y="-1902" font-family="Sans" font-size="10.00">issue</text>
<text text-anchor="middle" x="430" y="-1889" font-family="Sans" font-size="10.00">aii#209</text>
</a>
</g>
<!-- aii#210&#45;&gt;aii#209 -->
<g id="edge4" class="edge"><title>aii#210-&gt;aii#209</title>
<path fill="none" stroke="black" stroke-width="2" d="M157.515,-1898C213.473,-1898 315.887,-1898 377.971,-1898"/>
<polygon fill="black" stroke="black" points="378.324,-1901.5 388.324,-1898 378.324,-1894.5 378.324,-1901.5"/>
<text text-anchor="middle" x="272" y="-1902" font-family="Sans" font-size="10.00">fixes</text>
</g>
<!-- ncm&#45;ncd#74 -->
<g id="node8" class="node"><title>ncm-ncd#74</title>
<a xlink:href="https://github.com/quattor/ncm-ncd/pull/74" xlink:title="Set the current active config as an attribute to the component" target="_parent">
<polygon fill="#6cc644" stroke="black" points="471,-2008 389,-2008 389,-1954 471,-1954 471,-2008"/>
<text text-anchor="middle" x="430" y="-1985" font-family="Sans" font-size="10.00">pull-request</text>
<text text-anchor="middle" x="430" y="-1972" font-family="Sans" font-size="10.00">ncm-ncd#74</text>
</a>
</g>
<!-- aii#210&#45;&gt;ncm&#45;ncd#74 -->
<g id="edge6" class="edge"><title>aii#210-&gt;ncm-ncd#74</title>
<path fill="none" stroke="black" stroke-dasharray="5,2" d="M157.615,-1908.35C180.525,-1914.36 209.897,-1922.07 236,-1929 284.418,-1941.85 339.589,-1956.65 378.685,-1967.17"/>
<polygon fill="none" stroke="black" points="378.199,-1970.66 388.765,-1969.88 380.018,-1963.91 378.199,-1970.66"/>
<text text-anchor="middle" x="272" y="-1948" font-family="Sans" font-size="10.00">requires</text>
</g>
<!-- aii#203 -->
<g id="node10" class="node"><title>aii#203</title>
<polygon fill="lightgrey" stroke="black" points="459,-1842.5 401,-1842.5 401,-1801.5 459,-1801.5 459,-1842.5"/>
<text text-anchor="middle" x="430" y="-1819.5" font-family="Sans" font-size="10.00">aii#203</text>
</g>
<!-- aii#210&#45;&gt;aii#203 -->
<g id="edge8" class="edge"><title>aii#210-&gt;aii#203</title>
<path fill="none" stroke="black" stroke-dasharray="5,2" d="M157.528,-1887.01C195.865,-1876.5 255.738,-1860.44 308,-1848 335.344,-1841.49 366.322,-1834.9 390.219,-1829.98"/>
<polygon fill="none" stroke="black" points="391.233,-1833.35 400.329,-1827.91 389.83,-1826.49 391.233,-1833.35"/>
<text text-anchor="middle" x="272" y="-1865" font-family="Sans" font-size="10.00">requires</text>
</g>
<!-- configuration&#45;modules&#45;core#1169 -->
<g id="node11" class="node"><title>configuration-modules-core#1169</title>
<a xlink:href="https://github.com/quattor/configuration-modules-core/pull/1169" xlink:title="ncm-accounts: is_user_or_group function can be used without component" target="_parent">
<polygon fill="#6e5494" stroke="black" points="516,-1483 344,-1483 344,-1429 516,-1429 516,-1483"/>
<text text-anchor="middle" x="430" y="-1460" font-family="Sans" font-size="10.00">pull-request</text>
<text text-anchor="middle" x="430" y="-1447" font-family="Sans" font-size="10.00">configuration-modules-core#1169</text>
</a>
</g>
<!-- configuration&#45;modules&#45;core#1166 -->
<g id="node13" class="node"><title>configuration-modules-core#1166</title>
<a xlink:href="https://github.com/quattor/configuration-modules-core/issues/1166" xlink:title="ncm-systemd: schema depends on components/accounts/functions" target="_parent">
<ellipse fill="#bd2c00" stroke="black" cx="748" cy="-1456" rx="121.122" ry="38.1838"/>
<text text-anchor="middle" x="748" y="-1460" font-family="Sans" font-size="10.00">issue</text>
<text text-anchor="middle" x="748" y="-1447" font-family="Sans" font-size="10.00">configuration-modules-core#1166</text>
</a>
</g>
<!-- configuration&#45;modules&#45;core#1169&#45;&gt;configuration&#45;modules&#45;core#1166 -->
<g id="edge10" class="edge"><title>configuration-modules-core#1169-&gt;configuration-modules-core#1166</title>
<path fill="none" stroke="black" stroke-width="2" d="M516.055,-1456C546.811,-1456 582.215,-1456 615.951,-1456"/>
<polygon fill="black" stroke="black" points="616.361,-1459.5 626.361,-1456 616.361,-1452.5 616.361,-1459.5"/>
<text text-anchor="middle" x="589" y="-1460" font-family="Sans" font-size="10.00">fixes</text>
</g>
<!-- configuration&#45;modules&#45;core#1167 -->
<g id="node14" class="node"><title>configuration-modules-core#1167</title>
<a xlink:href="https://github.com/quattor/configuration-modules-core/pull/1167" xlink:title="ncm-cups: fix compatibility with EL7" target="_parent">
<polygon fill="#6e5494" stroke="black" points="516,-1389 344,-1389 344,-1335 516,-1335 516,-1389"/>
<text text-anchor="middle" x="430" y="-1366" font-family="Sans" font-size="10.00">pull-request</text>
<text text-anchor="middle" x="430" y="-1353" font-family="Sans" font-size="10.00">configuration-modules-core#1167</text>
</a>
</g>
<!-- configuration&#45;modules&#45;core#1161 -->
<g id="node16" class="node"><title>configuration-modules-core#1161</title>
<a xlink:href="https://github.com/quattor/configuration-modules-core/issues/1161" xlink:title="ncm-cups 17.7.0 broken on EL7 (pre-EL7 chkconfig dependency)" target="_parent">
<ellipse fill="#bd2c00" stroke="black" cx="748" cy="-1362" rx="121.122" ry="38.1838"/>
<text text-anchor="middle" x="748" y="-1366" font-family="Sans" font-size="10.00">issue</text>
<text text-anchor="middle" x="748" y="-1353" font-family="Sans" font-size="10.00">configuration-modules-core#1161</text>
</a>
</g>
<!-- configuration&#45;modules&#45;core#1167&#45;&gt;configuration&#45;modules&#45;core#1161 -->
<g id="edge12" class="edge"><title>configuration-modules-core#1167-&gt;configuration-modules-core#1161</title>
<path fill="none" stroke="black" stroke-width="2" d="M516.055,-1362C546.811,-1362 582.215,-1362 615.951,-1362"/>
<polygon fill="black" stroke="black" points="616.361,-1365.5 626.361,-1362 616.361,-1358.5 616.361,-1365.5"/>
<text text-anchor="middle" x="589" y="-1366" font-family="Sans" font-size="10.00">fixes</text>
</g>
<!-- configuration&#45;modules&#45;core#1163 -->
<g id="node17" class="node"><title>configuration-modules-core#1163</title>
<a xlink:href="https://github.com/quattor/configuration-modules-core/pull/1163" xlink:title="ncm-directoryservices: remove unsupported component" target="_parent">
<polygon fill="#6cc644" stroke="black" points="516,-1295 344,-1295 344,-1241 516,-1241 516,-1295"/>
<text text-anchor="middle" x="430" y="-1272" font-family="Sans" font-size="10.00">pull-request</text>
<text text-anchor="middle" x="430" y="-1259" font-family="Sans" font-size="10.00">configuration-modules-core#1163</text>
</a>
</g>
<!-- configuration&#45;modules&#45;core#1052 -->
<g id="node19" class="node"><title>configuration-modules-core#1052</title>
<a xlink:href="https://github.com/quattor/configuration-modules-core/issues/1052" xlink:title="ncm-directoryservices: Archive and remove from repository" target="_parent">
<ellipse fill="#6cc644" stroke="black" cx="748" cy="-1268" rx="121.122" ry="38.1838"/>
<text text-anchor="middle" x="748" y="-1272" font-family="Sans" font-size="10.00">issue</text>
<text text-anchor="middle" x="748" y="-1259" font-family="Sans" font-size="10.00">configuration-modules-core#1052</text>
</a>
</g>
<!-- configuration&#45;modules&#45;core#1163&#45;&gt;configuration&#45;modules&#45;core#1052 -->
<g id="edge14" class="edge"><title>configuration-modules-core#1163-&gt;configuration-modules-core#1052</title>
<path fill="none" stroke="black" stroke-width="2" d="M516.055,-1268C546.811,-1268 582.215,-1268 615.951,-1268"/>
<polygon fill="black" stroke="black" points="616.361,-1271.5 626.361,-1268 616.361,-1264.5 616.361,-1271.5"/>
<text text-anchor="middle" x="589" y="-1272" font-family="Sans" font-size="10.00">fixes</text>
</g>
<!-- configuration&#45;modules&#45;core#1162 -->
<g id="node20" class="node"><title>configuration-modules-core#1162</title>
<a xlink:href="https://github.com/quattor/configuration-modules-core/pull/1162" xlink:title="ncm-mcx: remove unsupported component" target="_parent">
<polygon fill="#6e5494" stroke="black" points="516,-1201 344,-1201 344,-1147 516,-1147 516,-1201"/>
<text text-anchor="middle" x="430" y="-1178" font-family="Sans" font-size="10.00">pull-request</text>
<text text-anchor="middle" x="430" y="-1165" font-family="Sans" font-size="10.00">configuration-modules-core#1162</text>
</a>
</g>
<!-- configuration&#45;modules&#45;core#1054 -->
<g id="node22" class="node"><title>configuration-modules-core#1054</title>
<a xlink:href="https://github.com/quattor/configuration-modules-core/issues/1054" xlink:title="ncm-mcx: Archive and remove from repository" target="_parent">
<ellipse fill="#bd2c00" stroke="black" cx="748" cy="-1174" rx="121.122" ry="38.1838"/>
<text text-anchor="middle" x="748" y="-1178" font-family="Sans" font-size="10.00">issue</text>
<text text-anchor="middle" x="748" y="-1165" font-family="Sans" font-size="10.00">configuration-modules-core#1054</text>
</a>
</g>
<!-- configuration&#45;modules&#45;core#1162&#45;&gt;configuration&#45;modules&#45;core#1054 -->
<g id="edge16" class="edge"><title>configuration-modules-core#1162-&gt;configuration-modules-core#1054</title>
<path fill="none" stroke="black" stroke-width="2" d="M516.055,-1174C546.811,-1174 582.215,-1174 615.951,-1174"/>
<polygon fill="black" stroke="black" points="616.361,-1177.5 626.361,-1174 616.361,-1170.5 616.361,-1177.5"/>
<text text-anchor="middle" x="589" y="-1178" font-family="Sans" font-size="10.00">fixes</text>
</g>
<!-- configuration&#45;modules&#45;core#1159 -->
<g id="node23" class="node"><title>configuration-modules-core#1159</title>
<a xlink:href="https://github.com/quattor/configuration-modules-core/pull/1159" xlink:title="ncm-authconfig: Remove deprecated startstop property" target="_parent">
<polygon fill="#6e5494" stroke="black" points="516,-1069 344,-1069 344,-1015 516,-1015 516,-1069"/>
<text text-anchor="middle" x="430" y="-1046" font-family="Sans" font-size="10.00">pull-request</text>
<text text-anchor="middle" x="430" y="-1033" font-family="Sans" font-size="10.00">configuration-modules-core#1159</text>
</a>
</g>
<!-- configuration&#45;modules&#45;core#1145 -->
<g id="node25" class="node"><title>configuration-modules-core#1145</title>
<a xlink:href="https://github.com/quattor/configuration-modules-core/issues/1145" xlink:title="ncm-authconfig: Remove startstop property" target="_parent">
<ellipse fill="#bd2c00" stroke="black" cx="748" cy="-986" rx="121.122" ry="38.1838"/>
<text text-anchor="middle" x="748" y="-990" font-family="Sans" font-size="10.00">issue</text>
<text text-anchor="middle" x="748" y="-977" font-family="Sans" font-size="10.00">configuration-modules-core#1145</text>
</a>
</g>
<!-- configuration&#45;modules&#45;core#1159&#45;&gt;configuration&#45;modules&#45;core#1145 -->
<g id="edge18" class="edge"><title>configuration-modules-core#1159-&gt;configuration-modules-core#1145</title>
<path fill="none" stroke="black" stroke-width="2" d="M516.055,-1026.85C551.683,-1020.57 593.549,-1013.2 631.834,-1006.46"/>
<polygon fill="black" stroke="black" points="632.764,-1009.85 642.005,-1004.67 631.55,-1002.95 632.764,-1009.85"/>
<text text-anchor="middle" x="589" y="-1020" font-family="Sans" font-size="10.00">fixes</text>
</g>
<!-- configuration&#45;modules&#45;core#1143 -->
<g id="node27" class="node"><title>configuration-modules-core#1143</title>
<a xlink:href="https://github.com/quattor/configuration-modules-core/issues/1143" xlink:title="ncm-authconfig: What is startstop supposed to do?" target="_parent">
<ellipse fill="#bd2c00" stroke="black" cx="748" cy="-1080" rx="121.122" ry="38.1838"/>
<text text-anchor="middle" x="748" y="-1084" font-family="Sans" font-size="10.00">issue</text>
<text text-anchor="middle" x="748" y="-1071" font-family="Sans" font-size="10.00">configuration-modules-core#1143</text>
</a>
</g>
<!-- configuration&#45;modules&#45;core#1159&#45;&gt;configuration&#45;modules&#45;core#1143 -->
<g id="edge20" class="edge"><title>configuration-modules-core#1159-&gt;configuration-modules-core#1143</title>
<path fill="none" stroke="black" stroke-width="2" d="M516.055,-1052.28C549.346,-1056.26 588.082,-1060.89 624.256,-1065.21"/>
<polygon fill="black" stroke="black" points="624.039,-1068.71 634.384,-1066.42 624.87,-1061.76 624.039,-1068.71"/>
<text text-anchor="middle" x="589" y="-1067" font-family="Sans" font-size="10.00">fixes</text>
</g>
<!-- configuration&#45;modules&#45;core#1151 -->
<g id="node28" class="node"><title>configuration-modules-core#1151</title>
<a xlink:href="https://github.com/quattor/configuration-modules-core/pull/1151" xlink:title="Escape / unescape functions from CCM::Path" target="_parent">
<polygon fill="#6e5494" stroke="black" points="516,-979 344,-979 344,-925 516,-925 516,-979"/>
<text text-anchor="middle" x="430" y="-956" font-family="Sans" font-size="10.00">pull-request</text>
<text text-anchor="middle" x="430" y="-943" font-family="Sans" font-size="10.00">configuration-modules-core#1151</text>
</a>
</g>
<!-- configuration&#45;modules&#45;core#1083 -->
<g id="node30" class="node"><title>configuration-modules-core#1083</title>
<a xlink:href="https://github.com/quattor/configuration-modules-core/issues/1083" xlink:title="warnings due to deprecated CCM modules" target="_parent">
<ellipse fill="#bd2c00" stroke="black" cx="748" cy="-892" rx="121.122" ry="38.1838"/>
<text text-anchor="middle" x="748" y="-896" font-family="Sans" font-size="10.00">issue</text>
<text text-anchor="middle" x="748" y="-883" font-family="Sans" font-size="10.00">configuration-modules-core#1083</text>
</a>
</g>
<!-- configuration&#45;modules&#45;core#1151&#45;&gt;configuration&#45;modules&#45;core#1083 -->
<g id="edge22" class="edge"><title>configuration-modules-core#1151-&gt;configuration-modules-core#1083</title>
<path fill="none" stroke="black" stroke-width="2" d="M516.055,-935.763C552.189,-928.945 594.741,-920.917 633.465,-913.61"/>
<polygon fill="black" stroke="black" points="634.57,-916.964 643.748,-911.67 633.272,-910.085 634.57,-916.964"/>
<text text-anchor="middle" x="589" y="-928" font-family="Sans" font-size="10.00">fixes</text>
</g>
<!-- configuration&#45;modules&#45;core#1149 -->
<g id="node31" class="node"><title>configuration-modules-core#1149</title>
<a xlink:href="https://github.com/quattor/configuration-modules-core/pull/1149" xlink:title="ncm-metaconfig: rsyslog: rainer script configuration" target="_parent">
<polygon fill="#6cc644" stroke="black" points="204,-1690 32,-1690 32,-1636 204,-1636 204,-1690"/>
<text text-anchor="middle" x="118" y="-1667" font-family="Sans" font-size="10.00">pull-request</text>
<text text-anchor="middle" x="118" y="-1654" font-family="Sans" font-size="10.00">configuration-modules-core#1149</text>
</a>
</g>
<!-- configuration&#45;modules&#45;core#1126 -->
<g id="node33" class="node"><title>configuration-modules-core#1126</title>
<a xlink:href="https://github.com/quattor/configuration-modules-core/pull/1126" xlink:title="ncm-metaconfig: cleanup and switch to 00-tqu" target="_parent">
<polygon fill="#6e5494" stroke="black" points="516,-907 344,-907 344,-853 516,-853 516,-907"/>
<text text-anchor="middle" x="430" y="-884" font-family="Sans" font-size="10.00">pull-request</text>
<text text-anchor="middle" x="430" y="-871" font-family="Sans" font-size="10.00">configuration-modules-core#1126</text>
</a>
</g>
<!-- configuration&#45;modules&#45;core#1149&#45;&gt;configuration&#45;modules&#45;core#1126 -->
<g id="edge24" class="edge"><title>configuration-modules-core#1149-&gt;configuration-modules-core#1126</title>
<path fill="none" stroke="black" stroke-dasharray="5,2" d="M121.291,-1635.96C136.543,-1514.91 204.048,-1023.97 308,-916 315.564,-908.144 324.749,-901.979 334.649,-897.146"/>
<polygon fill="none" stroke="black" points="336.171,-900.3 343.916,-893.071 333.353,-893.892 336.171,-900.3"/>
<text text-anchor="middle" x="272" y="-1014" font-family="Sans" font-size="10.00">requires</text>
</g>
<!-- configuration&#45;modules&#45;core#1136 -->
<g id="node34" class="node"><title>configuration-modules-core#1136</title>
<a xlink:href="https://github.com/quattor/configuration-modules-core/pull/1136" xlink:title="ncm-gmond: cleanup and support new configuration options" target="_parent">
<polygon fill="#6e5494" stroke="black" points="516,-825 344,-825 344,-771 516,-771 516,-825"/>
<text text-anchor="middle" x="430" y="-802" font-family="Sans" font-size="10.00">pull-request</text>
<text text-anchor="middle" x="430" y="-789" font-family="Sans" font-size="10.00">configuration-modules-core#1136</text>
</a>
</g>
<!-- configuration&#45;modules&#45;core#1116 -->
<g id="node36" class="node"><title>configuration-modules-core#1116</title>
<a xlink:href="https://github.com/quattor/configuration-modules-core/issues/1116" xlink:title="ncm-gmond: configuration options missing from schema" target="_parent">
<ellipse fill="#bd2c00" stroke="black" cx="748" cy="-798" rx="121.122" ry="38.1838"/>
<text text-anchor="middle" x="748" y="-802" font-family="Sans" font-size="10.00">issue</text>
<text text-anchor="middle" x="748" y="-789" font-family="Sans" font-size="10.00">configuration-modules-core#1116</text>
</a>
</g>
<!-- configuration&#45;modules&#45;core#1136&#45;&gt;configuration&#45;modules&#45;core#1116 -->
<g id="edge26" class="edge"><title>configuration-modules-core#1136-&gt;configuration-modules-core#1116</title>
<path fill="none" stroke="black" stroke-width="2" d="M516.055,-798C546.811,-798 582.215,-798 615.951,-798"/>
<polygon fill="black" stroke="black" points="616.361,-801.5 626.361,-798 616.361,-794.5 616.361,-801.5"/>
<text text-anchor="middle" x="589" y="-802" font-family="Sans" font-size="10.00">fixes</text>
</g>
<!-- configuration&#45;modules&#45;core#1132 -->
<g id="node37" class="node"><title>configuration-modules-core#1132</title>
<a xlink:href="https://github.com/quattor/configuration-modules-core/pull/1132" xlink:title="ncm-metaconfig: hnormalise" target="_parent">
<polygon fill="#6e5494" stroke="black" points="516,-416 344,-416 344,-362 516,-362 516,-416"/>
<text text-anchor="middle" x="430" y="-393" font-family="Sans" font-size="10.00">pull-request</text>
<text text-anchor="middle" x="430" y="-380" font-family="Sans" font-size="10.00">configuration-modules-core#1132</text>
</a>
</g>
<!-- configuration&#45;modules&#45;core#1028 -->
<g id="node39" class="node"><title>configuration-modules-core#1028</title>
<polygon fill="lightgrey" stroke="black" points="834,-98.5 662,-98.5 662,-57.5 834,-57.5 834,-98.5"/>
<text text-anchor="middle" x="748" y="-75.5" font-family="Sans" font-size="10.00">configuration-modules-core#1028</text>
</g>
<!-- configuration&#45;modules&#45;core#1132&#45;&gt;configuration&#45;modules&#45;core#1028 -->
<g id="edge28" class="edge"><title>configuration-modules-core#1132-&gt;configuration-modules-core#1028</title>
<path fill="none" stroke="black" stroke-dasharray="5,2" d="M516.035,-381.323C532.997,-375.789 548.945,-366.949 560,-353 577.405,-331.038 551.085,-121.675 570,-101 590.503,-78.5894 621.201,-69.911 651.357,-67.7563"/>
<polygon fill="none" stroke="black" points="651.727,-71.2426 661.547,-67.2653 651.39,-64.2507 651.727,-71.2426"/>
<text text-anchor="middle" x="589" y="-105" font-family="Sans" font-size="10.00">requires</text>
</g>
<!-- configuration&#45;modules&#45;core#1124 -->
<g id="node40" class="node"><title>configuration-modules-core#1124</title>
<a xlink:href="https://github.com/quattor/configuration-modules-core/pull/1124" xlink:title="ncm-cron: cleanup and switch to 00-tqu" target="_parent">
<polygon fill="#6e5494" stroke="black" points="516,-488 344,-488 344,-434 516,-434 516,-488"/>
<text text-anchor="middle" x="430" y="-465" font-family="Sans" font-size="10.00">pull-request</text>
<text text-anchor="middle" x="430" y="-452" font-family="Sans" font-size="10.00">configuration-modules-core#1124</text>
</a>
</g>
<!-- CAF#230 -->
<g id="node42" class="node"><title>CAF#230</title>
<polygon fill="lightgrey" stroke="black" points="783,-156.5 713,-156.5 713,-115.5 783,-115.5 783,-156.5"/>
<text text-anchor="middle" x="748" y="-133.5" font-family="Sans" font-size="10.00">CAF#230</text>
</g>
<!-- configuration&#45;modules&#45;core#1124&#45;&gt;CAF#230 -->
<g id="edge30" class="edge"><title>configuration-modules-core#1124-&gt;CAF#230</title>
<path fill="none" stroke="black" stroke-dasharray="5,2" d="M516.086,-453.364C533.046,-447.827 548.98,-438.976 560,-425 579.825,-399.856 547.032,-159.309 570,-137 604.434,-103.553 662.617,-110.328 703.05,-120.828"/>
<polygon fill="none" stroke="black" points="702.351,-124.266 712.922,-123.555 704.215,-117.518 702.351,-124.266"/>
<text text-anchor="middle" x="589" y="-141" font-family="Sans" font-size="10.00">requires</text>
</g>
<!-- configuration&#45;modules&#45;core#1119 -->
<g id="node43" class="node"><title>configuration-modules-core#1119</title>
<a xlink:href="https://github.com/quattor/configuration-modules-core/pull/1119" xlink:title="ncm-systemd: cleanup, restarting modified unitfiles and initial handling of unconfigured units" target="_parent">
<polygon fill="#6cc644" stroke="black" points="204,-1762 32,-1762 32,-1708 204,-1708 204,-1762"/>
<text text-anchor="middle" x="118" y="-1739" font-family="Sans" font-size="10.00">pull-request</text>
<text text-anchor="middle" x="118" y="-1726" font-family="Sans" font-size="10.00">configuration-modules-core#1119</text>
</a>
</g>
<!-- configuration&#45;modules&#45;core#1095 -->
<g id="node45" class="node"><title>configuration-modules-core#1095</title>
<a xlink:href="https://github.com/quattor/configuration-modules-core/issues/1095" xlink:title="Manual intervention required in order for drop-in unit files to have any affect" target="_parent">
<ellipse fill="#6cc644" stroke="black" cx="430" cy="-1724" rx="121.122" ry="38.1838"/>
<text text-anchor="middle" x="430" y="-1728" font-family="Sans" font-size="10.00">issue</text>
<text text-anchor="middle" x="430" y="-1715" font-family="Sans" font-size="10.00">configuration-modules-core#1095</text>
</a>
</g>
<!-- configuration&#45;modules&#45;core#1119&#45;&gt;configuration&#45;modules&#45;core#1095 -->
<g id="edge32" class="edge"><title>configuration-modules-core#1119-&gt;configuration-modules-core#1095</title>
<path fill="none" stroke="black" stroke-width="2" d="M204.297,-1728.58C220.789,-1727.55 237.921,-1726.62 254,-1726 268.265,-1725.45 283.186,-1725.03 298.047,-1724.72"/>
<polygon fill="black" stroke="black" points="298.387,-1728.21 308.317,-1724.52 298.25,-1721.21 298.387,-1728.21"/>
<text text-anchor="middle" x="272" y="-1730" font-family="Sans" font-size="10.00">fixes</text>
</g>
<!-- configuration&#45;modules&#45;core#1087 -->
<g id="node46" class="node"><title>configuration-modules-core#1087</title>
<a xlink:href="https://github.com/quattor/configuration-modules-core/pull/1087" xlink:title="ncm-network: cleanup, fixes and new features" target="_parent">
<polygon fill="#6e5494" stroke="black" points="516,-560 344,-560 344,-506 516,-506 516,-560"/>
<text text-anchor="middle" x="430" y="-537" font-family="Sans" font-size="10.00">pull-request</text>
<text text-anchor="middle" x="430" y="-524" font-family="Sans" font-size="10.00">configuration-modules-core#1087</text>
</a>
</g>
<!-- configuration&#45;modules&#45;core#1087&#45;&gt;CAF#230 -->
<g id="edge44" class="edge"><title>configuration-modules-core#1087-&gt;CAF#230</title>
<path fill="none" stroke="black" stroke-dasharray="5,2" d="M516.076,-525.356C533.036,-519.819 548.973,-510.971 560,-497 579.287,-472.564 557.049,-245.309 570,-217 592.866,-167.017 657.995,-147.859 702.791,-140.527"/>
<polygon fill="none" stroke="black" points="703.487,-143.962 712.859,-139.02 702.451,-137.039 703.487,-143.962"/>
<text text-anchor="middle" x="589" y="-221" font-family="Sans" font-size="10.00">requires</text>
</g>
<!-- configuration&#45;modules&#45;core#1082 -->
<g id="node48" class="node"><title>configuration-modules-core#1082</title>
<a xlink:href="https://github.com/quattor/configuration-modules-core/issues/1082" xlink:title="ncm-network: Allow extra routing options for the default route" target="_parent">
<ellipse fill="#bd2c00" stroke="black" cx="748" cy="-422" rx="121.122" ry="38.1838"/>
<text text-anchor="middle" x="748" y="-426" font-family="Sans" font-size="10.00">issue</text>
<text text-anchor="middle" x="748" y="-413" font-family="Sans" font-size="10.00">configuration-modules-core#1082</text>
</a>
</g>
<!-- configuration&#45;modules&#45;core#1087&#45;&gt;configuration&#45;modules&#45;core#1082 -->
<g id="edge34" class="edge"><title>configuration-modules-core#1087-&gt;configuration-modules-core#1082</title>
<path fill="none" stroke="black" stroke-width="2" d="M516.155,-510.856C530.885,-506.582 545.959,-501.899 560,-497 590.085,-486.503 596.462,-480.951 626,-469 637.29,-464.432 649.206,-459.714 660.991,-455.11"/>
<polygon fill="black" stroke="black" points="662.351,-458.337 670.4,-451.447 659.811,-451.814 662.351,-458.337"/>
<text text-anchor="middle" x="589" y="-497" font-family="Sans" font-size="10.00">fixes</text>
</g>
<!-- configuration&#45;modules&#45;core#870 -->
<g id="node50" class="node"><title>configuration-modules-core#870</title>
<a xlink:href="https://github.com/quattor/configuration-modules-core/issues/870" xlink:title="ncm-network: hostname is not set in el7" target="_parent">
<ellipse fill="#bd2c00" stroke="black" cx="748" cy="-516" rx="118.087" ry="38.1838"/>
<text text-anchor="middle" x="748" y="-520" font-family="Sans" font-size="10.00">issue</text>
<text text-anchor="middle" x="748" y="-507" font-family="Sans" font-size="10.00">configuration-modules-core#870</text>
</a>
</g>
<!-- configuration&#45;modules&#45;core#1087&#45;&gt;configuration&#45;modules&#45;core#870 -->
<g id="edge36" class="edge"><title>configuration-modules-core#1087-&gt;configuration-modules-core#870</title>
<path fill="none" stroke="black" stroke-width="2" d="M516.055,-528.4C548.366,-526.672 585.808,-524.671 621.057,-522.786"/>
<polygon fill="black" stroke="black" points="621.625,-526.261 631.424,-522.232 621.252,-519.271 621.625,-526.261"/>
<text text-anchor="middle" x="589" y="-530" font-family="Sans" font-size="10.00">fixes</text>
</g>
<!-- configuration&#45;modules&#45;core#1109 -->
<g id="node52" class="node"><title>configuration-modules-core#1109</title>
<a xlink:href="https://github.com/quattor/configuration-modules-core/issues/1109" xlink:title="ncm-network: systemd rpm scripts remove HOSTNAME from /etc/sysconfig/network" target="_parent">
<ellipse fill="#bd2c00" stroke="black" cx="748" cy="-328" rx="121.122" ry="38.1838"/>
<text text-anchor="middle" x="748" y="-332" font-family="Sans" font-size="10.00">issue</text>
<text text-anchor="middle" x="748" y="-319" font-family="Sans" font-size="10.00">configuration-modules-core#1109</text>
</a>
</g>
<!-- configuration&#45;modules&#45;core#1087&#45;&gt;configuration&#45;modules&#45;core#1109 -->
<g id="edge38" class="edge"><title>configuration-modules-core#1087-&gt;configuration-modules-core#1109</title>
<path fill="none" stroke="black" stroke-width="2" d="M516.113,-522.525C532.355,-517.092 547.99,-509.001 560,-497 571.747,-485.263 563.167,-476.135 570,-461 588.768,-419.429 590.553,-403.704 626,-375 633.462,-368.957 641.79,-363.628 650.493,-358.942"/>
<polygon fill="black" stroke="black" points="652.34,-361.93 659.678,-354.288 649.176,-355.686 652.34,-361.93"/>
<text text-anchor="middle" x="589" y="-465" font-family="Sans" font-size="10.00">fixes</text>
</g>
<!-- configuration&#45;modules&#45;core#1085 -->
<g id="node54" class="node"><title>configuration-modules-core#1085</title>
<polygon fill="lightgrey" stroke="black" points="834,-272.5 662,-272.5 662,-231.5 834,-231.5 834,-272.5"/>
<text text-anchor="middle" x="748" y="-249.5" font-family="Sans" font-size="10.00">configuration-modules-core#1085</text>
</g>
<!-- configuration&#45;modules&#45;core#1087&#45;&gt;configuration&#45;modules&#45;core#1085 -->
<g id="edge40" class="edge"><title>configuration-modules-core#1087-&gt;configuration-modules-core#1085</title>
<path fill="none" stroke="black" stroke-dasharray="1,5" d="M516.266,-524.748C533.003,-519.221 548.799,-510.529 560,-497 577.206,-476.218 562.006,-401.769 570,-376 584.863,-328.087 585.489,-307.587 626,-278 633.935,-272.204 642.891,-267.646 652.255,-264.069"/>
<polygon fill="black" stroke="black" points="661.732,-260.81 653.739,-268.318 657.004,-262.436 652.276,-264.062 652.276,-264.062 652.276,-264.062 657.004,-262.436 650.812,-259.807 661.732,-260.81 661.732,-260.81"/>
<text text-anchor="middle" x="589" y="-380" font-family="Sans" font-size="10.00">replaces</text>
</g>
<!-- configuration&#45;modules&#45;core#1070 -->
<g id="node56" class="node"><title>configuration-modules-core#1070</title>
<polygon fill="lightgrey" stroke="black" points="834,-214.5 662,-214.5 662,-173.5 834,-173.5 834,-214.5"/>
<text text-anchor="middle" x="748" y="-191.5" font-family="Sans" font-size="10.00">configuration-modules-core#1070</text>
</g>
<!-- configuration&#45;modules&#45;core#1087&#45;&gt;configuration&#45;modules&#45;core#1070 -->
<g id="edge42" class="edge"><title>configuration-modules-core#1087-&gt;configuration-modules-core#1070</title>
<path fill="none" stroke="black" stroke-dasharray="1,5" d="M516.31,-525.166C533.15,-519.627 548.978,-510.826 560,-497 575.253,-477.866 559.922,-299.298 570,-277 584.24,-245.493 595.662,-239.585 626,-223 634.223,-218.505 643.13,-214.701 652.259,-211.484"/>
<polygon fill="black" stroke="black" points="661.833,-208.339 653.737,-215.735 657.082,-209.899 652.332,-211.46 652.332,-211.46 652.332,-211.46 657.082,-209.899 650.928,-207.184 661.833,-208.339 661.833,-208.339"/>
<text text-anchor="middle" x="589" y="-281" font-family="Sans" font-size="10.00">replaces</text>
</g>
<!-- configuration&#45;modules&#45;core#1058 -->
<g id="node58" class="node"><title>configuration-modules-core#1058</title>
<a xlink:href="https://github.com/quattor/configuration-modules-core/pull/1058" xlink:title="ncm-ssh: disable insecure ssh ciphersuites and macs" target="_parent">
<polygon fill="#6cc644" stroke="black" points="516,-344 344,-344 344,-290 516,-290 516,-344"/>
<text text-anchor="middle" x="430" y="-321" font-family="Sans" font-size="10.00">pull-request</text>
<text text-anchor="middle" x="430" y="-308" font-family="Sans" font-size="10.00">configuration-modules-core#1058</text>
</a>
</g>
<!-- configuration&#45;modules&#45;core#983 -->
<g id="node60" class="node"><title>configuration-modules-core#983</title>
<polygon fill="lightgrey" stroke="black" points="831,-40.5 665,-40.5 665,0.5 831,0.5 831,-40.5"/>
<text text-anchor="middle" x="748" y="-17.5" font-family="Sans" font-size="10.00">configuration-modules-core#983</text>
</g>
<!-- configuration&#45;modules&#45;core#1058&#45;&gt;configuration&#45;modules&#45;core#983 -->
<g id="edge46" class="edge"><title>configuration-modules-core#1058-&gt;configuration-modules-core#983</title>
<path fill="none" stroke="black" stroke-dasharray="1,5" d="M435.17,-289.701C447.433,-233.183 483.953,-103.585 570,-43 594.158,-25.9904 624.84,-18.4259 653.899,-15.6432"/>
<polygon fill="black" stroke="black" points="664.097,-14.8507 654.475,-20.1121 659.112,-15.2382 654.127,-15.6256 654.127,-15.6256 654.127,-15.6256 659.112,-15.2382 653.778,-11.1391 664.097,-14.8507 664.097,-14.8507"/>
<text text-anchor="middle" x="589" y="-47" font-family="Sans" font-size="10.00">replaces</text>
</g>
<!-- configuration&#45;modules&#45;core#1171 -->
<g id="node61" class="node"><title>configuration-modules-core#1171</title>
<a xlink:href="https://github.com/quattor/configuration-modules-core/pull/1171" xlink:title="[WIP] ncm-cups enhancements and cleanups" target="_parent">
<polygon fill="#6cc644" stroke="black" points="204,-2113 32,-2113 32,-2059 204,-2059 204,-2113"/>
<text text-anchor="middle" x="118" y="-2090" font-family="Sans" font-size="10.00">pull-request</text>
<text text-anchor="middle" x="118" y="-2077" font-family="Sans" font-size="10.00">configuration-modules-core#1171</text>
</a>
</g>
<!-- configuration&#45;modules&#45;core#1164 -->
<g id="node63" class="node"><title>configuration-modules-core#1164</title>
<a xlink:href="https://github.com/quattor/configuration-modules-core/issues/1164" xlink:title="ncm-cups 17.7.0: configuration of ServerAlias + miscellanous enhancements" target="_parent">
<ellipse fill="#6cc644" stroke="black" cx="430" cy="-2086" rx="121.122" ry="38.1838"/>
<text text-anchor="middle" x="430" y="-2090" font-family="Sans" font-size="10.00">issue</text>
<text text-anchor="middle" x="430" y="-2077" font-family="Sans" font-size="10.00">configuration-modules-core#1164</text>
</a>
</g>
<!-- configuration&#45;modules&#45;core#1171&#45;&gt;configuration&#45;modules&#45;core#1164 -->
<g id="edge48" class="edge"><title>configuration-modules-core#1171-&gt;configuration-modules-core#1164</title>
<path fill="none" stroke="black" stroke-width="2" d="M204.081,-2086C233.133,-2086 266.265,-2086 298.034,-2086"/>
<polygon fill="black" stroke="black" points="298.293,-2089.5 308.293,-2086 298.293,-2082.5 298.293,-2089.5"/>
<text text-anchor="middle" x="272" y="-2090" font-family="Sans" font-size="10.00">fixes</text>
</g>
<!-- configuration&#45;modules&#45;core#1148 -->
<g id="node64" class="node"><title>configuration-modules-core#1148</title>
<a xlink:href="https://github.com/quattor/configuration-modules-core/pull/1148" xlink:title="ncm-spma: Remove support from groups from spma yumng backend" target="_parent">
<polygon fill="#6cc644" stroke="black" points="204,-2301 32,-2301 32,-2247 204,-2247 204,-2301"/>
<text text-anchor="middle" x="118" y="-2278" font-family="Sans" font-size="10.00">pull-request</text>
<text text-anchor="middle" x="118" y="-2265" font-family="Sans" font-size="10.00">configuration-modules-core#1148</text>
</a>
</g>
<!-- configuration&#45;modules&#45;core#952 -->
<g id="node66" class="node"><title>configuration-modules-core#952</title>
<a xlink:href="https://github.com/quattor/configuration-modules-core/issues/952" xlink:title="ncm-spma (yumng): Remove support for package groups" target="_parent">
<ellipse fill="#6cc644" stroke="black" cx="430" cy="-2274" rx="118.087" ry="38.1838"/>
<text text-anchor="middle" x="430" y="-2278" font-family="Sans" font-size="10.00">issue</text>
<text text-anchor="middle" x="430" y="-2265" font-family="Sans" font-size="10.00">configuration-modules-core#952</text>
</a>
</g>
<!-- configuration&#45;modules&#45;core#1148&#45;&gt;configuration&#45;modules&#45;core#952 -->
<g id="edge50" class="edge"><title>configuration-modules-core#1148-&gt;configuration-modules-core#952</title>
<path fill="none" stroke="black" stroke-width="2" d="M204.081,-2274C234.24,-2274 268.794,-2274 301.657,-2274"/>
<polygon fill="black" stroke="black" points="301.795,-2277.5 311.795,-2274 301.795,-2270.5 301.795,-2277.5"/>
<text text-anchor="middle" x="272" y="-2278" font-family="Sans" font-size="10.00">fixes</text>
</g>
<!-- configuration&#45;modules&#45;core#950 -->
<g id="node67" class="node"><title>configuration-modules-core#950</title>
<a xlink:href="https://github.com/quattor/configuration-modules-core/issues/950" xlink:title="ncm-spma: Remove support for package groups from yum backends" target="_parent">
<ellipse fill="#6cc644" stroke="black" cx="118" cy="-2185" rx="118.087" ry="38.1838"/>
<text text-anchor="middle" x="118" y="-2189" font-family="Sans" font-size="10.00">issue</text>
<text text-anchor="middle" x="118" y="-2176" font-family="Sans" font-size="10.00">configuration-modules-core#950</text>
</a>
</g>
<!-- configuration&#45;modules&#45;core#950&#45;&gt;configuration&#45;modules&#45;core#952 -->
<g id="edge54" class="edge"><title>configuration-modules-core#950-&gt;configuration-modules-core#952</title>
<path fill="none" stroke="black" stroke-dasharray="5,2" d="M206.572,-2210.27C245.601,-2221.4 291.603,-2234.52 331.689,-2245.96"/>
<polygon fill="none" stroke="black" points="330.9,-2249.37 341.477,-2248.75 332.82,-2242.64 330.9,-2249.37"/>
<text text-anchor="middle" x="272" y="-2236" font-family="Sans" font-size="10.00">requires</text>
</g>
<!-- configuration&#45;modules&#45;core#951 -->
<g id="node69" class="node"><title>configuration-modules-core#951</title>
<a xlink:href="https://github.com/quattor/configuration-modules-core/issues/951" xlink:title="ncm-spma (yum): Remove support for package groups" target="_parent">
<ellipse fill="#6cc644" stroke="black" cx="430" cy="-2180" rx="118.087" ry="38.1838"/>
<text text-anchor="middle" x="430" y="-2184" font-family="Sans" font-size="10.00">issue</text>
<text text-anchor="middle" x="430" y="-2171" font-family="Sans" font-size="10.00">configuration-modules-core#951</text>
</a>
</g>
<!-- configuration&#45;modules&#45;core#950&#45;&gt;configuration&#45;modules&#45;core#951 -->
<g id="edge52" class="edge"><title>configuration-modules-core#950-&gt;configuration-modules-core#951</title>
<path fill="none" stroke="black" stroke-dasharray="5,2" d="M235.954,-2183.11C257.578,-2182.76 280.24,-2182.4 302.138,-2182.05"/>
<polygon fill="none" stroke="black" points="302.196,-2185.55 312.138,-2181.89 302.083,-2178.55 302.196,-2185.55"/>
<text text-anchor="middle" x="272" y="-2186" font-family="Sans" font-size="10.00">requires</text>
</g>
<!-- template&#45;library&#45;grid#200 -->
<g id="node71" class="node"><title>template-library-grid#200</title>
<a xlink:href="https://github.com/quattor/template-library-grid/pull/200" xlink:title="Allow location of CREAM monitoring configuration file to be changed" target="_parent">
<polygon fill="#6e5494" stroke="black" points="497,-731 363,-731 363,-677 497,-677 497,-731"/>
<text text-anchor="middle" x="430" y="-708" font-family="Sans" font-size="10.00">pull-request</text>
<text text-anchor="middle" x="430" y="-695" font-family="Sans" font-size="10.00">template-library-grid#200</text>
</a>
</g>
<!-- template&#45;library&#45;grid#199 -->
<g id="node73" class="node"><title>template-library-grid#199</title>
<a xlink:href="https://github.com/quattor/template-library-grid/issues/199" xlink:title="template personality/cream_ce/templates/cream-config.templ" target="_parent">
<ellipse fill="#bd2c00" stroke="black" cx="748" cy="-704" rx="94.9596" ry="38.1838"/>
<text text-anchor="middle" x="748" y="-708" font-family="Sans" font-size="10.00">issue</text>
<text text-anchor="middle" x="748" y="-695" font-family="Sans" font-size="10.00">template-library-grid#199</text>
</a>
</g>
<!-- template&#45;library&#45;grid#200&#45;&gt;template&#45;library&#45;grid#199 -->
<g id="edge56" class="edge"><title>template-library-grid#200-&gt;template-library-grid#199</title>
<path fill="none" stroke="black" stroke-width="2" d="M497.829,-704C539.807,-704 594.59,-704 642.187,-704"/>
<polygon fill="black" stroke="black" points="642.227,-707.5 652.227,-704 642.227,-700.5 642.227,-707.5"/>
<text text-anchor="middle" x="589" y="-708" font-family="Sans" font-size="10.00">fixes</text>
</g>
<!-- template&#45;library&#45;standard#104 -->
<g id="node74" class="node"><title>template-library-standard#104</title>
<a xlink:href="https://github.com/quattor/template-library-standard/pull/104" xlink:title="Add CPUs used in Mellanox SN2100 and SN2700 switches" target="_parent">
<polygon fill="#6e5494" stroke="black" points="508,-637 352,-637 352,-583 508,-583 508,-637"/>
<text text-anchor="middle" x="430" y="-614" font-family="Sans" font-size="10.00">pull-request</text>
<text text-anchor="middle" x="430" y="-601" font-family="Sans" font-size="10.00">template-library-standard#104</text>
</a>
</g>
<!-- template&#45;library&#45;standard#103 -->
<g id="node76" class="node"><title>template-library-standard#103</title>
<a xlink:href="https://github.com/quattor/template-library-standard/issues/103" xlink:title="hardware/cpu/intel add embedded cpus" target="_parent">
<ellipse fill="#bd2c00" stroke="black" cx="748" cy="-610" rx="111.016" ry="38.1838"/>
<text text-anchor="middle" x="748" y="-614" font-family="Sans" font-size="10.00">issue</text>
<text text-anchor="middle" x="748" y="-601" font-family="Sans" font-size="10.00">template-library-standard#103</text>
</a>
</g>
<!-- template&#45;library&#45;standard#104&#45;&gt;template&#45;library&#45;standard#103 -->
<g id="edge58" class="edge"><title>template-library-standard#104-&gt;template-library-standard#103</title>
<path fill="none" stroke="black" stroke-width="2" d="M508.607,-610C544.138,-610 586.937,-610 626.462,-610"/>
<polygon fill="black" stroke="black" points="626.702,-613.5 636.702,-610 626.702,-606.5 626.702,-613.5"/>
<text text-anchor="middle" x="589" y="-614" font-family="Sans" font-size="10.00">fixes</text>
</g>
</g>
</svg>
