<?xml version="1.0" encoding="UTF-8" standalone="no"?>
<?xml-stylesheet href="relationships.css" type="text/css"?>
<!-- Generated by graphviz version 2.26.0 (20091210.2329)
 -->
<!-- Title: Dependencies Pages: 1 -->
<svg xmlns="http://www.w3.org/2000/svg" xmlns:xlink="http://www.w3.org/1999/xlink" width="578pt" height="1111pt" viewBox="0.00 0.00 578.00 1111.00">
<g id="graph1" class="graph" transform="scale(1 1) rotate(0) translate(4 1107)">
<title>Dependencies</title>
<polygon fill="white" stroke="white" points="-4,5 -4,-1107 575,-1107 575,5 -4,5"/>
<g id="graph3" class="cluster"><title>cluster_18.3</title>
<polygon fill="none" stroke="black" points="24,-108 24,-766 562,-766 562,-108 24,-108"/>
<text text-anchor="middle" x="293" y="-751.2" font-family="Sans" font-size="12.00">18.3</text>
</g>
<!-- aii#210 -->
<g id="node1" class="node"><title>aii#210</title>
<a xlink:href="https://github.com/quattor/aii/pull/210" xlink:title="Shellfe: support active config for plugins" target="_parent">
<polygon fill="#6cc644" stroke="black" points="157,-640 79,-640 79,-586 157,-586 157,-640"/>
<text text-anchor="middle" x="118" y="-617" font-family="Sans" font-size="10.00">pull-request</text>
<text text-anchor="middle" x="118" y="-604" font-family="Sans" font-size="10.00">aii#210</text>
</a>
</g>
<!-- aii#209 -->
<g id="node3" class="node"><title>aii#209</title>
<a xlink:href="https://github.com/quattor/aii/issues/209" xlink:title="support ACTIVE_CONFIG" target="_parent">
<ellipse fill="#6cc644" stroke="black" cx="432" cy="-696" rx="41.2167" ry="38.1838"/>
<text text-anchor="middle" x="432" y="-700" font-family="Sans" font-size="10.00">issue</text>
<text text-anchor="middle" x="432" y="-687" font-family="Sans" font-size="10.00">aii#209</text>
</a>
</g>
<!-- aii#210&#45;&gt;aii#209 -->
<g id="edge2" class="edge"><title>aii#210-&gt;aii#209</title>
<path fill="none" stroke="black" stroke-width="2" d="M157.609,-623.38C180.517,-629.39 209.889,-637.106 236,-644 285.736,-657.131 342.549,-672.213 382.158,-682.741"/>
<polygon fill="black" stroke="black" points="381.278,-686.129 391.842,-685.315 383.077,-679.364 381.278,-686.129"/>
<text text-anchor="middle" x="273" y="-663" font-family="Sans" font-size="10.00">fixes</text>
</g>
<!-- ncm&#45;ncd#74 -->
<g id="node5" class="node"><title>ncm-ncd#74</title>
<a xlink:href="https://github.com/quattor/ncm-ncd/pull/74" xlink:title="Set the current active config as an attribute to the component" target="_parent">
<polygon fill="#6cc644" stroke="black" points="473,-640 391,-640 391,-586 473,-586 473,-640"/>
<text text-anchor="middle" x="432" y="-617" font-family="Sans" font-size="10.00">pull-request</text>
<text text-anchor="middle" x="432" y="-604" font-family="Sans" font-size="10.00">ncm-ncd#74</text>
</a>
</g>
<!-- aii#210&#45;&gt;ncm&#45;ncd#74 -->
<g id="edge4" class="edge"><title>aii#210-&gt;ncm-ncd#74</title>
<path fill="none" stroke="black" stroke-dasharray="5,2" d="M157.768,-613C214.435,-613 318.442,-613 380.801,-613"/>
<polygon fill="none" stroke="black" points="380.813,-616.5 390.813,-613 380.813,-609.5 380.813,-616.5"/>
<text text-anchor="middle" x="273" y="-617" font-family="Sans" font-size="10.00">requires</text>
</g>
<!-- aii#203 -->
<g id="node7" class="node"><title>aii#203</title>
<polygon fill="lightgrey" stroke="black" points="461,-98.5 403,-98.5 403,-57.5 461,-57.5 461,-98.5"/>
<text text-anchor="middle" x="432" y="-75.5" font-family="Sans" font-size="10.00">aii#203</text>
</g>
<!-- aii#210&#45;&gt;aii#203 -->
<g id="edge6" class="edge"><title>aii#210-&gt;aii#203</title>
<path fill="none" stroke="black" stroke-dasharray="5,2" d="M157.735,-608.312C184.536,-602.886 218.154,-591.191 236,-566 264.221,-526.165 225.992,-166.985 254,-127 284.409,-83.5873 349.805,-75.8143 392.299,-75.752"/>
<polygon fill="none" stroke="black" points="392.267,-79.2518 402.31,-75.8782 392.355,-72.2524 392.267,-79.2518"/>
<text text-anchor="middle" x="273" y="-131" font-family="Sans" font-size="10.00">requires</text>
</g>
<!-- CAF#257 -->
<g id="node8" class="node"><title>CAF#257</title>
<a xlink:href="https://github.com/quattor/CAF/pull/257" xlink:title="Process: run process as another user" target="_parent">
<polygon fill="#6cc644" stroke="black" points="157,-557 79,-557 79,-503 157,-503 157,-557"/>
<text text-anchor="middle" x="118" y="-534" font-family="Sans" font-size="10.00">pull-request</text>
<text text-anchor="middle" x="118" y="-521" font-family="Sans" font-size="10.00">CAF#257</text>
</a>
</g>
<!-- CAF#253 -->
<g id="node10" class="node"><title>CAF#253</title>
<a xlink:href="https://github.com/quattor/CAF/issues/253" xlink:title="CAF::Process: Include an option to execute the command as an specific user" target="_parent">
<ellipse fill="#6cc644" stroke="black" cx="432" cy="-530" rx="48.9975" ry="38.1838"/>
<text text-anchor="middle" x="432" y="-534" font-family="Sans" font-size="10.00">issue</text>
<text text-anchor="middle" x="432" y="-521" font-family="Sans" font-size="10.00">CAF#253</text>
</a>
</g>
<!-- CAF#257&#45;&gt;CAF#253 -->
<g id="edge8" class="edge"><title>CAF#257-&gt;CAF#253</title>
<path fill="none" stroke="black" stroke-width="2" d="M157.768,-530C211.934,-530 309.353,-530 372.308,-530"/>
<polygon fill="black" stroke="black" points="372.488,-533.5 382.488,-530 372.488,-526.5 372.488,-533.5"/>
<text text-anchor="middle" x="273" y="-534" font-family="Sans" font-size="10.00">fixes</text>
</g>
<!-- CAF#110 -->
<g id="node11" class="node"><title>CAF#110</title>
<a xlink:href="https://github.com/quattor/CAF/pull/110" xlink:title="Download: API proposal" target="_parent">
<polygon fill="#6cc644" stroke="black" points="157,-828 79,-828 79,-774 157,-774 157,-828"/>
<text text-anchor="middle" x="118" y="-805" font-family="Sans" font-size="10.00">pull-request</text>
<text text-anchor="middle" x="118" y="-792" font-family="Sans" font-size="10.00">CAF#110</text>
</a>
</g>
<!-- CAF#120 -->
<g id="node13" class="node"><title>CAF#120</title>
<polygon fill="lightgrey" stroke="black" points="467,-821.5 397,-821.5 397,-780.5 467,-780.5 467,-821.5"/>
<text text-anchor="middle" x="432" y="-798.5" font-family="Sans" font-size="10.00">CAF#120</text>
</g>
<!-- CAF#110&#45;&gt;CAF#120 -->
<g id="edge10" class="edge"><title>CAF#110-&gt;CAF#120</title>
<path fill="none" stroke="black" stroke-dasharray="5,2" d="M157.768,-801C216.269,-801 325.221,-801 386.719,-801"/>
<polygon fill="none" stroke="black" points="386.897,-804.5 396.897,-801 386.897,-797.5 386.897,-804.5"/>
<text text-anchor="middle" x="273" y="-805" font-family="Sans" font-size="10.00">requires</text>
</g>
<!-- configuration&#45;modules&#45;core#1230 -->
<g id="node14" class="node"><title>configuration-modules-core#1230</title>
<a xlink:href="https://github.com/quattor/configuration-modules-core/pull/1230" xlink:title="ncm-ceph: support for luminous, bluestore, ceph-volume and per host osd deployment" target="_parent">
<polygon fill="#6cc644" stroke="black" points="204,-170 32,-170 32,-116 204,-116 204,-170"/>
<text text-anchor="middle" x="118" y="-147" font-family="Sans" font-size="10.00">pull-request</text>
<text text-anchor="middle" x="118" y="-134" font-family="Sans" font-size="10.00">configuration-modules-core#1230</text>
</a>
</g>
<!-- configuration&#45;modules&#45;core#1224 -->
<g id="node16" class="node"><title>configuration-modules-core#1224</title>
<polygon fill="lightgrey" stroke="black" points="518,-40.5 346,-40.5 346,0.5 518,0.5 518,-40.5"/>
<text text-anchor="middle" x="432" y="-17.5" font-family="Sans" font-size="10.00">configuration-modules-core#1224</text>
</g>
<!-- configuration&#45;modules&#45;core#1230&#45;&gt;configuration&#45;modules&#45;core#1224 -->
<g id="edge22" class="edge"><title>configuration-modules-core#1230-&gt;configuration-modules-core#1224</title>
<path fill="none" stroke="black" stroke-dasharray="1,5" d="M153.011,-115.877C179.404,-96.7094 217.226,-71.8762 254,-57 279.799,-46.5635 308.942,-38.9269 336.065,-33.3996"/>
<polygon fill="black" stroke="black" points="345.956,-31.4574 337.011,-37.7999 341.05,-32.4208 336.144,-33.3842 336.144,-33.3842 336.144,-33.3842 341.05,-32.4208 335.277,-28.9685 345.956,-31.4574 345.956,-31.4574"/>
<text text-anchor="middle" x="273" y="-61" font-family="Sans" font-size="10.00">replaces</text>
</g>
<!-- configuration&#45;modules&#45;core#1230&#45;&gt;configuration&#45;modules&#45;core#1224 -->
<g id="edge12" class="edge"><title>configuration-modules-core#1230-&gt;configuration-modules-core#1224</title>
<path fill="none" stroke="black" stroke-dasharray="1,5" d="M137.965,-115.933C161.765,-86.1813 204.583,-40.0762 254,-21 279.436,-11.181 308.482,-8.0113 335.628,-8.07394"/>
<polygon fill="black" stroke="black" points="345.928,-8.24909 335.853,-12.5783 340.929,-8.16403 335.929,-8.07896 335.929,-8.07896 335.929,-8.07896 340.929,-8.16403 336.006,-3.57962 345.928,-8.24909 345.928,-8.24909"/>
<text text-anchor="middle" x="273" y="-25" font-family="Sans" font-size="10.00">replaces</text>
</g>
<!-- configuration&#45;modules&#45;core#1220 -->
<g id="node17" class="node"><title>configuration-modules-core#1220</title>
<a xlink:href="https://github.com/quattor/configuration-modules-core/pull/1220" xlink:title="ncm-cups: Stop daemon if server not enabled" target="_parent">
<polygon fill="#6cc644" stroke="black" points="204,-463 32,-463 32,-409 204,-409 204,-463"/>
<text text-anchor="middle" x="118" y="-440" font-family="Sans" font-size="10.00">pull-request</text>
<text text-anchor="middle" x="118" y="-427" font-family="Sans" font-size="10.00">configuration-modules-core#1220</text>
</a>
</g>
<!-- configuration&#45;modules&#45;core#1189 -->
<g id="node19" class="node"><title>configuration-modules-core#1189</title>
<a xlink:href="https://github.com/quattor/configuration-modules-core/issues/1189" xlink:title="ncm-cups: Nodetype of client should stop running cups daemon" target="_parent">
<ellipse fill="#6cc644" stroke="black" cx="432" cy="-436" rx="121.122" ry="38.1838"/>
<text text-anchor="middle" x="432" y="-440" font-family="Sans" font-size="10.00">issue</text>
<text text-anchor="middle" x="432" y="-427" font-family="Sans" font-size="10.00">configuration-modules-core#1189</text>
</a>
</g>
<!-- configuration&#45;modules&#45;core#1220&#45;&gt;configuration&#45;modules&#45;core#1189 -->
<g id="edge24" class="edge"><title>configuration-modules-core#1220-&gt;configuration-modules-core#1189</title>
<path fill="none" stroke="black" stroke-width="2" d="M204.217,-436C233.916,-436 267.888,-436 300.372,-436"/>
<polygon fill="black" stroke="black" points="300.399,-439.5 310.399,-436 300.399,-432.5 300.399,-439.5"/>
<text text-anchor="middle" x="273" y="-440" font-family="Sans" font-size="10.00">fixes</text>
</g>
<!-- configuration&#45;modules&#45;core#1220&#45;&gt;configuration&#45;modules&#45;core#1189 -->
<g id="edge14" class="edge"><title>configuration-modules-core#1220-&gt;configuration-modules-core#1189</title>
<path fill="none" stroke="black" stroke-width="2" d="M204.182,-423.588C220.685,-421.676 237.851,-420.005 254,-419 272.601,-417.842 292.267,-418.162 311.475,-419.331"/>
<polygon fill="black" stroke="black" points="311.254,-422.824 321.47,-420.016 311.733,-415.84 311.254,-422.824"/>
<text text-anchor="middle" x="273" y="-423" font-family="Sans" font-size="10.00">fixes</text>
</g>
<!-- configuration&#45;modules&#45;core#1105 -->
<g id="node20" class="node"><title>configuration-modules-core#1105</title>
<a xlink:href="https://github.com/quattor/configuration-modules-core/pull/1105" xlink:title="ncm-authconfig: fix krb5_realm, user_object_class and newline between ldap_krb5_canonicalize and ldap_krb5_realm" target="_parent">
<polygon fill="#6cc644" stroke="black" points="204,-274 32,-274 32,-220 204,-220 204,-274"/>
<text text-anchor="middle" x="118" y="-251" font-family="Sans" font-size="10.00">pull-request</text>
<text text-anchor="middle" x="118" y="-238" font-family="Sans" font-size="10.00">configuration-modules-core#1105</text>
</a>
</g>
<!-- configuration&#45;modules&#45;core#1100 -->
<g id="node22" class="node"><title>configuration-modules-core#1100</title>
<a xlink:href="https://github.com/quattor/configuration-modules-core/issues/1100" xlink:title="ncm-authconfig : no newline after krb5_canonicalize option" target="_parent">
<ellipse fill="#6cc644" stroke="black" cx="432" cy="-154" rx="121.122" ry="38.1838"/>
<text text-anchor="middle" x="432" y="-158" font-family="Sans" font-size="10.00">issue</text>
<text text-anchor="middle" x="432" y="-145" font-family="Sans" font-size="10.00">configuration-modules-core#1100</text>
</a>
</g>
<!-- configuration&#45;modules&#45;core#1105&#45;&gt;configuration&#45;modules&#45;core#1100 -->
<g id="edge26" class="edge"><title>configuration-modules-core#1105-&gt;configuration-modules-core#1100</title>
<path fill="none" stroke="black" stroke-width="2" d="M204.217,-221.464C244.304,-209.591 292.178,-195.412 333.668,-183.124"/>
<polygon fill="black" stroke="black" points="334.922,-186.403 343.516,-180.207 332.934,-179.691 334.922,-186.403"/>
<text text-anchor="middle" x="273" y="-211" font-family="Sans" font-size="10.00">fixes</text>
</g>
<!-- configuration&#45;modules&#45;core#1105&#45;&gt;configuration&#45;modules&#45;core#1100 -->
<g id="edge16" class="edge"><title>configuration-modules-core#1105-&gt;configuration-modules-core#1100</title>
<path fill="none" stroke="black" stroke-width="2" d="M174.955,-219.944C195.353,-208.813 217.786,-194.807 236,-179 245.803,-170.492 242.363,-161.751 254,-156 270.675,-147.76 289.347,-143.283 308.156,-141.256"/>
<polygon fill="black" stroke="black" points="308.632,-144.728 318.299,-140.393 308.039,-137.754 308.632,-144.728"/>
<text text-anchor="middle" x="273" y="-160" font-family="Sans" font-size="10.00">fixes</text>
</g>
<!-- configuration&#45;modules&#45;core#1102 -->
<g id="node24" class="node"><title>configuration-modules-core#1102</title>
<a xlink:href="https://github.com/quattor/configuration-modules-core/issues/1102" xlink:title="ncm-authconfig: There is no " target="_parent">
<ellipse fill="#6cc644" stroke="black" cx="432" cy="-342" rx="121.122" ry="38.1838"/>
<text text-anchor="middle" x="432" y="-346" font-family="Sans" font-size="10.00">issue</text>
<text text-anchor="middle" x="432" y="-333" font-family="Sans" font-size="10.00">configuration-modules-core#1102</text>
</a>
</g>
<!-- configuration&#45;modules&#45;core#1105&#45;&gt;configuration&#45;modules&#45;core#1102 -->
<g id="edge28" class="edge"><title>configuration-modules-core#1105-&gt;configuration-modules-core#1102</title>
<path fill="none" stroke="black" stroke-width="2" d="M163.066,-274.018C188.853,-288.315 222.295,-304.945 254,-315 270.717,-320.301 288.657,-324.576 306.481,-328.019"/>
<polygon fill="black" stroke="black" points="305.893,-331.47 316.363,-329.848 307.166,-324.587 305.893,-331.47"/>
<text text-anchor="middle" x="273" y="-328" font-family="Sans" font-size="10.00">fixes</text>
</g>
<!-- configuration&#45;modules&#45;core#1105&#45;&gt;configuration&#45;modules&#45;core#1102 -->
<g id="edge18" class="edge"><title>configuration-modules-core#1105-&gt;configuration-modules-core#1102</title>
<path fill="none" stroke="black" stroke-width="2" d="M204.217,-273.085C244.726,-285.341 293.186,-300.002 334.974,-312.645"/>
<polygon fill="black" stroke="black" points="334.026,-316.015 344.611,-315.561 336.053,-309.315 334.026,-316.015"/>
<text text-anchor="middle" x="273" y="-302" font-family="Sans" font-size="10.00">fixes</text>
</g>
<!-- configuration&#45;modules&#45;core#1103 -->
<g id="node26" class="node"><title>configuration-modules-core#1103</title>
<a xlink:href="https://github.com/quattor/configuration-modules-core/issues/1103" xlink:title="ncm-authconfig: krb5_realm = ARRAY(0x39a5830)" target="_parent">
<ellipse fill="#6cc644" stroke="black" cx="432" cy="-248" rx="121.122" ry="38.1838"/>
<text text-anchor="middle" x="432" y="-252" font-family="Sans" font-size="10.00">issue</text>
<text text-anchor="middle" x="432" y="-239" font-family="Sans" font-size="10.00">configuration-modules-core#1103</text>
</a>
</g>
<!-- configuration&#45;modules&#45;core#1105&#45;&gt;configuration&#45;modules&#45;core#1103 -->
<g id="edge30" class="edge"><title>configuration-modules-core#1105-&gt;configuration-modules-core#1103</title>
<path fill="none" stroke="black" stroke-width="2" d="M204.217,-247.275C233.916,-247.369 267.888,-247.477 300.372,-247.581"/>
<polygon fill="black" stroke="black" points="300.388,-251.081 310.399,-247.613 300.41,-244.081 300.388,-251.081"/>
<text text-anchor="middle" x="273" y="-252" font-family="Sans" font-size="10.00">fixes</text>
</g>
<!-- configuration&#45;modules&#45;core#1105&#45;&gt;configuration&#45;modules&#45;core#1103 -->
<g id="edge20" class="edge"><title>configuration-modules-core#1105-&gt;configuration-modules-core#1103</title>
<path fill="none" stroke="black" stroke-width="2" d="M204.182,-234.588C220.685,-232.676 237.851,-231.005 254,-230 272.875,-228.825 292.841,-229.227 312.31,-230.522"/>
<polygon fill="black" stroke="black" points="312.206,-234.024 322.438,-231.278 312.726,-227.044 312.206,-234.024"/>
<text text-anchor="middle" x="273" y="-234" font-family="Sans" font-size="10.00">fixes</text>
</g>
<!-- configuration&#45;modules&#45;core#1148 -->
<g id="node32" class="node"><title>configuration-modules-core#1148</title>
<a xlink:href="https://github.com/quattor/configuration-modules-core/pull/1148" xlink:title="ncm-spma: Remove support from groups from spma yumng backend" target="_parent">
<polygon fill="#6cc644" stroke="black" points="204,-998 32,-998 32,-944 204,-944 204,-998"/>
<text text-anchor="middle" x="118" y="-975" font-family="Sans" font-size="10.00">pull-request</text>
<text text-anchor="middle" x="118" y="-962" font-family="Sans" font-size="10.00">configuration-modules-core#1148</text>
</a>
</g>
<!-- configuration&#45;modules&#45;core#952 -->
<g id="node34" class="node"><title>configuration-modules-core#952</title>
<a xlink:href="https://github.com/quattor/configuration-modules-core/issues/952" xlink:title="ncm-spma (yumng): Remove support for package groups" target="_parent">
<ellipse fill="#6cc644" stroke="black" cx="432" cy="-971" rx="118.087" ry="38.1838"/>
<text text-anchor="middle" x="432" y="-975" font-family="Sans" font-size="10.00">issue</text>
<text text-anchor="middle" x="432" y="-962" font-family="Sans" font-size="10.00">configuration-modules-core#952</text>
</a>
</g>
<!-- configuration&#45;modules&#45;core#1148&#45;&gt;configuration&#45;modules&#45;core#952 -->
<g id="edge32" class="edge"><title>configuration-modules-core#1148-&gt;configuration-modules-core#952</title>
<path fill="none" stroke="black" stroke-width="2" d="M204.217,-971C234.903,-971 270.151,-971 303.606,-971"/>
<polygon fill="black" stroke="black" points="303.924,-974.5 313.924,-971 303.924,-967.5 303.924,-974.5"/>
<text text-anchor="middle" x="273" y="-975" font-family="Sans" font-size="10.00">fixes</text>
</g>
<!-- configuration&#45;modules&#45;core#950 -->
<g id="node35" class="node"><title>configuration-modules-core#950</title>
<a xlink:href="https://github.com/quattor/configuration-modules-core/issues/950" xlink:title="ncm-spma: Remove support for package groups from yum backends" target="_parent">
<ellipse fill="#6cc644" stroke="black" cx="118" cy="-886" rx="118.087" ry="38.1838"/>
<text text-anchor="middle" x="118" y="-890" font-family="Sans" font-size="10.00">issue</text>
<text text-anchor="middle" x="118" y="-877" font-family="Sans" font-size="10.00">configuration-modules-core#950</text>
</a>
</g>
<!-- configuration&#45;modules&#45;core#950&#45;&gt;configuration&#45;modules&#45;core#952 -->
<g id="edge36" class="edge"><title>configuration-modules-core#950-&gt;configuration-modules-core#952</title>
<path fill="none" stroke="black" stroke-dasharray="5,2" d="M208.401,-910.471C246.98,-920.915 292.147,-933.142 331.747,-943.861"/>
<polygon fill="none" stroke="black" points="330.855,-947.246 341.422,-946.481 332.684,-940.489 330.855,-947.246"/>
<text text-anchor="middle" x="273" y="-936" font-family="Sans" font-size="10.00">requires</text>
</g>
<!-- configuration&#45;modules&#45;core#951 -->
<g id="node37" class="node"><title>configuration-modules-core#951</title>
<a xlink:href="https://github.com/quattor/configuration-modules-core/issues/951" xlink:title="ncm-spma (yum): Remove support for package groups" target="_parent">
<ellipse fill="#6cc644" stroke="black" cx="432" cy="-877" rx="118.087" ry="38.1838"/>
<text text-anchor="middle" x="432" y="-881" font-family="Sans" font-size="10.00">issue</text>
<text text-anchor="middle" x="432" y="-868" font-family="Sans" font-size="10.00">configuration-modules-core#951</text>
</a>
</g>
<!-- configuration&#45;modules&#45;core#950&#45;&gt;configuration&#45;modules&#45;core#951 -->
<g id="edge34" class="edge"><title>configuration-modules-core#950-&gt;configuration-modules-core#951</title>
<path fill="none" stroke="black" stroke-dasharray="5,2" d="M235.815,-882.623C258.074,-881.985 281.456,-881.315 304.01,-880.668"/>
<polygon fill="none" stroke="black" points="304.412,-884.159 314.308,-880.373 304.212,-877.161 304.412,-884.159"/>
<text text-anchor="middle" x="273" y="-887" font-family="Sans" font-size="10.00">requires</text>
</g>
<!-- ncm&#45;ncd#117 -->
<g id="node39" class="node"><title>ncm-ncd#117</title>
<a xlink:href="https://github.com/quattor/ncm-ncd/pull/117" xlink:title="Allow component modules to be loaded from any path" target="_parent">
<polygon fill="#6cc644" stroke="black" points="161,-1092 75,-1092 75,-1038 161,-1038 161,-1092"/>
<text text-anchor="middle" x="118" y="-1069" font-family="Sans" font-size="10.00">pull-request</text>
<text text-anchor="middle" x="118" y="-1056" font-family="Sans" font-size="10.00">ncm-ncd#117</text>
</a>
</g>
<!-- ncm&#45;ncd#116 -->
<g id="node41" class="node"><title>ncm-ncd#116</title>
<a xlink:href="https://github.com/quattor/ncm-ncd/issues/116" xlink:title="hasFile() prevents component modules from being relocated" target="_parent">
<ellipse fill="#6cc644" stroke="black" cx="432" cy="-1065" rx="61.0181" ry="38.1838"/>
<text text-anchor="middle" x="432" y="-1069" font-family="Sans" font-size="10.00">issue</text>
<text text-anchor="middle" x="432" y="-1056" font-family="Sans" font-size="10.00">ncm-ncd#116</text>
</a>
</g>
<!-- ncm&#45;ncd#117&#45;&gt;ncm&#45;ncd#116 -->
<g id="edge38" class="edge"><title>ncm-ncd#117-&gt;ncm-ncd#116</title>
<path fill="none" stroke="black" stroke-width="2" d="M161.66,-1065C212.954,-1065 298.809,-1065 360.001,-1065"/>
<polygon fill="black" stroke="black" points="360.362,-1068.5 370.362,-1065 360.362,-1061.5 360.362,-1068.5"/>
<text text-anchor="middle" x="273" y="-1069" font-family="Sans" font-size="10.00">fixes</text>
</g>
</g>
</svg>
