<?xml version="1.0" encoding="UTF-8" standalone="no"?>
<?xml-stylesheet href="relationships.css" type="text/css"?>
<!-- Generated by graphviz version 2.26.0 (20091210.2329)
 -->
<!-- Title: Dependencies Pages: 1 -->
<svg xmlns="http://www.w3.org/2000/svg" xmlns:xlink="http://www.w3.org/1999/xlink" width="594pt" height="1838pt" viewBox="0.00 0.00 594.00 1838.11">
<g id="graph1" class="graph" transform="scale(1 1) rotate(0) translate(4 1834.11)">
<title>Dependencies</title>
<polygon fill="white" stroke="white" points="-4,5 -4,-1834.11 591,-1834.11 591,5 -4,5"/>
<g id="graph3" class="cluster"><title>cluster_17.8</title>
<polygon fill="none" stroke="black" points="8,-328.106 8,-1268.11 578,-1268.11 578,-328.106 8,-328.106"/>
<text text-anchor="middle" x="293" y="-1253.31" font-family="Sans" font-size="12.00">17.8</text>
</g>
<g id="graph5" class="cluster"><title>cluster_17.12</title>
<polygon fill="none" stroke="black" points="86,-1326.11 86,-1514.11 498,-1514.11 498,-1326.11 86,-1326.11"/>
<text text-anchor="middle" x="292" y="-1499.31" font-family="Sans" font-size="12.00">17.12</text>
</g>
<!-- aii#275 -->
<g id="node1" class="node"><title>aii#275</title>
<a xlink:href="https://github.com/quattor/aii/pull/275" xlink:title="remove aii-freeipa, deprecated by ncm-freeipa AII support" target="_parent">
<polygon fill="#6e5494" stroke="black" points="173,-1225.11 95,-1225.11 95,-1171.11 173,-1171.11 173,-1225.11"/>
<text text-anchor="middle" x="134" y="-1202.11" font-family="Sans" font-size="10.00">pull-request</text>
<text text-anchor="middle" x="134" y="-1189.11" font-family="Sans" font-size="10.00">aii#275</text>
</a>
</g>
<!-- aii#134 -->
<g id="node3" class="node"><title>aii#134</title>
<a xlink:href="https://github.com/quattor/aii/issues/134" xlink:title="Missing freeipa.pm in AII RPM" target="_parent">
<ellipse fill="#bd2c00" stroke="black" cx="448" cy="-1198.11" rx="41.2167" ry="38.1838"/>
<text text-anchor="middle" x="448" y="-1202.11" font-family="Sans" font-size="10.00">issue</text>
<text text-anchor="middle" x="448" y="-1189.11" font-family="Sans" font-size="10.00">aii#134</text>
</a>
</g>
<!-- aii#275&#45;&gt;aii#134 -->
<g id="edge2" class="edge"><title>aii#275-&gt;aii#134</title>
<path fill="none" stroke="black" stroke-width="2" d="M173.571,-1197C200.705,-1196.3 237.529,-1195.46 270,-1195.11 312.474,-1194.64 360.645,-1195.54 396.154,-1196.47"/>
<polygon fill="black" stroke="black" points="396.191,-1199.97 406.282,-1196.75 396.381,-1192.97 396.191,-1199.97"/>
<text text-anchor="middle" x="289" y="-1199.11" font-family="Sans" font-size="10.00">fixes</text>
</g>
<!-- aii#210 -->
<g id="node4" class="node"><title>aii#210</title>
<a xlink:href="https://github.com/quattor/aii/pull/210" xlink:title="Shellfe: support active config for plugins" target="_parent">
<polygon fill="#6cc644" stroke="black" points="173,-1399.11 95,-1399.11 95,-1345.11 173,-1345.11 173,-1399.11"/>
<text text-anchor="middle" x="134" y="-1376.11" font-family="Sans" font-size="10.00">pull-request</text>
<text text-anchor="middle" x="134" y="-1363.11" font-family="Sans" font-size="10.00">aii#210</text>
</a>
</g>
<!-- aii#209 -->
<g id="node6" class="node"><title>aii#209</title>
<a xlink:href="https://github.com/quattor/aii/issues/209" xlink:title="support ACTIVE_CONFIG" target="_parent">
<ellipse fill="#6cc644" stroke="black" cx="448" cy="-1372.11" rx="41.2167" ry="38.1838"/>
<text text-anchor="middle" x="448" y="-1376.11" font-family="Sans" font-size="10.00">issue</text>
<text text-anchor="middle" x="448" y="-1363.11" font-family="Sans" font-size="10.00">aii#209</text>
</a>
</g>
<!-- aii#210&#45;&gt;aii#209 -->
<g id="edge4" class="edge"><title>aii#210-&gt;aii#209</title>
<path fill="none" stroke="black" stroke-width="2" d="M173.768,-1372.11C230.279,-1372.11 333.868,-1372.11 396.284,-1372.11"/>
<polygon fill="black" stroke="black" points="396.31,-1375.61 406.31,-1372.11 396.31,-1368.61 396.31,-1375.61"/>
<text text-anchor="middle" x="289" y="-1376.11" font-family="Sans" font-size="10.00">fixes</text>
</g>
<!-- ncm&#45;ncd#74 -->
<g id="node8" class="node"><title>ncm-ncd#74</title>
<a xlink:href="https://github.com/quattor/ncm-ncd/pull/74" xlink:title="Set the current active config as an attribute to the component" target="_parent">
<polygon fill="#6cc644" stroke="black" points="489,-1482.11 407,-1482.11 407,-1428.11 489,-1428.11 489,-1482.11"/>
<text text-anchor="middle" x="448" y="-1459.11" font-family="Sans" font-size="10.00">pull-request</text>
<text text-anchor="middle" x="448" y="-1446.11" font-family="Sans" font-size="10.00">ncm-ncd#74</text>
</a>
</g>
<!-- aii#210&#45;&gt;ncm&#45;ncd#74 -->
<g id="edge6" class="edge"><title>aii#210-&gt;ncm-ncd#74</title>
<path fill="none" stroke="black" stroke-dasharray="5,2" d="M173.609,-1382.49C196.517,-1388.5 225.889,-1396.21 252,-1403.11 301.266,-1416.11 357.475,-1431.03 397.028,-1441.55"/>
<polygon fill="none" stroke="black" points="396.148,-1444.93 406.711,-1444.12 397.946,-1438.17 396.148,-1444.93"/>
<text text-anchor="middle" x="289" y="-1422.11" font-family="Sans" font-size="10.00">requires</text>
</g>
<!-- aii#203 -->
<g id="node10" class="node"><title>aii#203</title>
<polygon fill="lightgrey" stroke="black" points="477,-1316.61 419,-1316.61 419,-1275.61 477,-1275.61 477,-1316.61"/>
<text text-anchor="middle" x="448" y="-1293.61" font-family="Sans" font-size="10.00">aii#203</text>
</g>
<!-- aii#210&#45;&gt;aii#203 -->
<g id="edge8" class="edge"><title>aii#210-&gt;aii#203</title>
<path fill="none" stroke="black" stroke-dasharray="5,2" d="M173.585,-1361.24C212.315,-1350.75 273.039,-1334.64 326,-1322.11 353.353,-1315.63 384.33,-1309.04 408.226,-1304.11"/>
<polygon fill="none" stroke="black" points="409.24,-1307.48 418.334,-1302.04 407.835,-1300.62 409.24,-1307.48"/>
<text text-anchor="middle" x="289" y="-1339.11" font-family="Sans" font-size="10.00">requires</text>
</g>
<!-- configuration&#45;modules&#45;core#1151 -->
<g id="node11" class="node"><title>configuration-modules-core#1151</title>
<a xlink:href="https://github.com/quattor/configuration-modules-core/pull/1151" xlink:title="Escape / unescape functions from CCM::Path" target="_parent">
<polygon fill="#6cc644" stroke="black" points="220,-1131.11 48,-1131.11 48,-1077.11 220,-1077.11 220,-1131.11"/>
<text text-anchor="middle" x="134" y="-1108.11" font-family="Sans" font-size="10.00">pull-request</text>
<text text-anchor="middle" x="134" y="-1095.11" font-family="Sans" font-size="10.00">configuration-modules-core#1151</text>
</a>
</g>
<!-- configuration&#45;modules&#45;core#1083 -->
<g id="node13" class="node"><title>configuration-modules-core#1083</title>
<a xlink:href="https://github.com/quattor/configuration-modules-core/issues/1083" xlink:title="warnings due to deprecated CCM modules" target="_parent">
<ellipse fill="#6cc644" stroke="black" cx="448" cy="-1104.11" rx="121.122" ry="38.1838"/>
<text text-anchor="middle" x="448" y="-1108.11" font-family="Sans" font-size="10.00">issue</text>
<text text-anchor="middle" x="448" y="-1095.11" font-family="Sans" font-size="10.00">configuration-modules-core#1083</text>
</a>
</g>
<!-- configuration&#45;modules&#45;core#1151&#45;&gt;configuration&#45;modules&#45;core#1083 -->
<g id="edge42" class="edge"><title>configuration-modules-core#1151-&gt;configuration-modules-core#1083</title>
<path fill="none" stroke="black" stroke-width="2" d="M220.065,-1078.48C236.502,-1074.58 253.674,-1071.17 270,-1069.11 297.688,-1065.6 327.537,-1068.72 354.732,-1074.29"/>
<polygon fill="black" stroke="black" points="354.106,-1077.73 364.622,-1076.44 355.598,-1070.89 354.106,-1077.73"/>
<text text-anchor="middle" x="289" y="-1073.11" font-family="Sans" font-size="10.00">fixes</text>
</g>
<!-- configuration&#45;modules&#45;core#1151&#45;&gt;configuration&#45;modules&#45;core#1083 -->
<g id="edge44" class="edge"><title>configuration-modules-core#1151-&gt;configuration-modules-core#1083</title>
<path fill="none" stroke="black" stroke-width="2" d="M220.329,-1101.91C236.818,-1101.58 253.942,-1101.28 270,-1101.11 284.958,-1100.94 300.622,-1100.95 316.191,-1101.06"/>
<polygon fill="black" stroke="black" points="316.368,-1104.56 326.399,-1101.15 316.431,-1097.56 316.368,-1104.56"/>
<text text-anchor="middle" x="289" y="-1105.11" font-family="Sans" font-size="10.00">fixes</text>
</g>
<!-- configuration&#45;modules&#45;core#1151&#45;&gt;configuration&#45;modules&#45;core#1083 -->
<g id="edge10" class="edge"><title>configuration-modules-core#1151-&gt;configuration-modules-core#1083</title>
<path fill="none" stroke="black" stroke-width="2" d="M220.231,-1114.33C236.729,-1115.9 253.881,-1117.28 270,-1118.11 287.501,-1119 305.952,-1118.82 324.081,-1118"/>
<polygon fill="black" stroke="black" points="324.307,-1121.49 334.111,-1117.47 323.942,-1114.5 324.307,-1121.49"/>
<text text-anchor="middle" x="289" y="-1123.11" font-family="Sans" font-size="10.00">fixes</text>
</g>
<!-- configuration&#45;modules&#45;core#1149 -->
<g id="node14" class="node"><title>configuration-modules-core#1149</title>
<a xlink:href="https://github.com/quattor/configuration-modules-core/pull/1149" xlink:title="ncm-metaconfig: rsyslog: rainer script configuration" target="_parent">
<polygon fill="#6cc644" stroke="black" points="220,-1059.11 48,-1059.11 48,-1005.11 220,-1005.11 220,-1059.11"/>
<text text-anchor="middle" x="134" y="-1036.11" font-family="Sans" font-size="10.00">pull-request</text>
<text text-anchor="middle" x="134" y="-1023.11" font-family="Sans" font-size="10.00">configuration-modules-core#1149</text>
</a>
</g>
<!-- configuration&#45;modules&#45;core#1126 -->
<g id="node16" class="node"><title>configuration-modules-core#1126</title>
<a xlink:href="https://github.com/quattor/configuration-modules-core/pull/1126" xlink:title="ncm-metaconfig: cleanup and switch to 00-tqu" target="_parent">
<polygon fill="#6cc644" stroke="black" points="534,-1048.11 362,-1048.11 362,-994.106 534,-994.106 534,-1048.11"/>
<text text-anchor="middle" x="448" y="-1025.11" font-family="Sans" font-size="10.00">pull-request</text>
<text text-anchor="middle" x="448" y="-1012.11" font-family="Sans" font-size="10.00">configuration-modules-core#1126</text>
</a>
</g>
<!-- configuration&#45;modules&#45;core#1149&#45;&gt;configuration&#45;modules&#45;core#1126 -->
<g id="edge46" class="edge"><title>configuration-modules-core#1149-&gt;configuration-modules-core#1126</title>
<path fill="none" stroke="black" stroke-dasharray="5,2" d="M220.081,-1016.05C236.593,-1013.57 253.788,-1011.41 270,-1010.11 296.545,-1007.97 325.346,-1008.51 351.891,-1010.17"/>
<polygon fill="none" stroke="black" points="351.729,-1013.67 361.945,-1010.86 352.207,-1006.69 351.729,-1013.67"/>
<text text-anchor="middle" x="289" y="-1014.11" font-family="Sans" font-size="10.00">requires</text>
</g>
<!-- configuration&#45;modules&#45;core#1149&#45;&gt;configuration&#45;modules&#45;core#1126 -->
<g id="edge12" class="edge"><title>configuration-modules-core#1149-&gt;configuration-modules-core#1126</title>
<path fill="none" stroke="black" stroke-dasharray="5,2" d="M220.217,-1029.09C260.975,-1027.66 309.781,-1025.95 351.743,-1024.48"/>
<polygon fill="none" stroke="black" points="352.104,-1027.97 361.975,-1024.12 351.859,-1020.97 352.104,-1027.97"/>
<text text-anchor="middle" x="289" y="-1032.11" font-family="Sans" font-size="10.00">requires</text>
</g>
<!-- configuration&#45;modules&#45;core#1148 -->
<g id="node17" class="node"><title>configuration-modules-core#1148</title>
<a xlink:href="https://github.com/quattor/configuration-modules-core/pull/1148" xlink:title="ncm-spma: Remove support from groups from spma yumng backend" target="_parent">
<polygon fill="#6cc644" stroke="black" points="220,-977.106 48,-977.106 48,-923.106 220,-923.106 220,-977.106"/>
<text text-anchor="middle" x="134" y="-954.106" font-family="Sans" font-size="10.00">pull-request</text>
<text text-anchor="middle" x="134" y="-941.106" font-family="Sans" font-size="10.00">configuration-modules-core#1148</text>
</a>
</g>
<!-- configuration&#45;modules&#45;core#952 -->
<g id="node19" class="node"><title>configuration-modules-core#952</title>
<a xlink:href="https://github.com/quattor/configuration-modules-core/issues/952" xlink:title="ncm-spma (yumng): Remove support for package groups" target="_parent">
<ellipse fill="#6cc644" stroke="black" cx="448" cy="-938.106" rx="118.087" ry="38.1838"/>
<text text-anchor="middle" x="448" y="-942.106" font-family="Sans" font-size="10.00">issue</text>
<text text-anchor="middle" x="448" y="-929.106" font-family="Sans" font-size="10.00">configuration-modules-core#952</text>
</a>
</g>
<!-- configuration&#45;modules&#45;core#1148&#45;&gt;configuration&#45;modules&#45;core#952 -->
<g id="edge48" class="edge"><title>configuration-modules-core#1148-&gt;configuration-modules-core#952</title>
<path fill="none" stroke="black" stroke-width="2" d="M220.058,-933.316C236.572,-930.73 253.774,-928.468 270,-927.106 288.045,-925.591 307.137,-925.342 325.854,-925.86"/>
<polygon fill="black" stroke="black" points="325.785,-929.36 335.901,-926.211 326.029,-922.364 325.785,-929.36"/>
<text text-anchor="middle" x="289" y="-931.106" font-family="Sans" font-size="10.00">fixes</text>
</g>
<!-- configuration&#45;modules&#45;core#1148&#45;&gt;configuration&#45;modules&#45;core#952 -->
<g id="edge14" class="edge"><title>configuration-modules-core#1148-&gt;configuration-modules-core#952</title>
<path fill="none" stroke="black" stroke-width="2" d="M220.217,-946.811C251.15,-945.629 286.719,-944.269 320.413,-942.982"/>
<polygon fill="black" stroke="black" points="320.943,-946.464 330.802,-942.585 320.676,-939.469 320.943,-946.464"/>
<text text-anchor="middle" x="289" y="-949.106" font-family="Sans" font-size="10.00">fixes</text>
</g>
<!-- configuration&#45;modules&#45;core#1136 -->
<g id="node20" class="node"><title>configuration-modules-core#1136</title>
<a xlink:href="https://github.com/quattor/configuration-modules-core/pull/1136" xlink:title="ncm-gmond: cleanup and support new configuration options" target="_parent">
<polygon fill="#6cc644" stroke="black" points="220,-787.106 48,-787.106 48,-733.106 220,-733.106 220,-787.106"/>
<text text-anchor="middle" x="134" y="-764.106" font-family="Sans" font-size="10.00">pull-request</text>
<text text-anchor="middle" x="134" y="-751.106" font-family="Sans" font-size="10.00">configuration-modules-core#1136</text>
</a>
</g>
<!-- configuration&#45;modules&#45;core#1116 -->
<g id="node22" class="node"><title>configuration-modules-core#1116</title>
<a xlink:href="https://github.com/quattor/configuration-modules-core/issues/1116" xlink:title="ncm-gmond: configuration options missing from schema" target="_parent">
<ellipse fill="#6cc644" stroke="black" cx="448" cy="-750.106" rx="121.122" ry="38.1838"/>
<text text-anchor="middle" x="448" y="-754.106" font-family="Sans" font-size="10.00">issue</text>
<text text-anchor="middle" x="448" y="-741.106" font-family="Sans" font-size="10.00">configuration-modules-core#1116</text>
</a>
</g>
<!-- configuration&#45;modules&#45;core#1136&#45;&gt;configuration&#45;modules&#45;core#1116 -->
<g id="edge50" class="edge"><title>configuration-modules-core#1136-&gt;configuration-modules-core#1116</title>
<path fill="none" stroke="black" stroke-width="2" d="M220.164,-746.964C236.669,-744.94 253.839,-743.171 270,-742.106 285.976,-741.053 302.768,-740.753 319.393,-740.945"/>
<polygon fill="black" stroke="black" points="319.655,-744.45 329.714,-741.125 319.777,-737.451 319.655,-744.45"/>
<text text-anchor="middle" x="289" y="-746.106" font-family="Sans" font-size="10.00">fixes</text>
</g>
<!-- configuration&#45;modules&#45;core#1136&#45;&gt;configuration&#45;modules&#45;core#1116 -->
<g id="edge16" class="edge"><title>configuration-modules-core#1136-&gt;configuration-modules-core#1116</title>
<path fill="none" stroke="black" stroke-width="2" d="M220.311,-760.606C248.293,-760.502 279.47,-760.104 308,-759.106 311.685,-758.977 315.424,-758.832 319.198,-758.673"/>
<polygon fill="black" stroke="black" points="319.422,-762.166 329.255,-758.221 319.108,-755.173 319.422,-762.166"/>
<text text-anchor="middle" x="289" y="-764.106" font-family="Sans" font-size="10.00">fixes</text>
</g>
<!-- configuration&#45;modules&#45;core#1132 -->
<g id="node23" class="node"><title>configuration-modules-core#1132</title>
<a xlink:href="https://github.com/quattor/configuration-modules-core/pull/1132" xlink:title="ncm-metaconfig: hnormalise" target="_parent">
<polygon fill="#6cc644" stroke="black" points="220,-462.106 48,-462.106 48,-408.106 220,-408.106 220,-462.106"/>
<text text-anchor="middle" x="134" y="-439.106" font-family="Sans" font-size="10.00">pull-request</text>
<text text-anchor="middle" x="134" y="-426.106" font-family="Sans" font-size="10.00">configuration-modules-core#1132</text>
</a>
</g>
<!-- configuration&#45;modules&#45;core#1028 -->
<g id="node25" class="node"><title>configuration-modules-core#1028</title>
<polygon fill="lightgrey" stroke="black" points="534,-133.606 362,-133.606 362,-92.6058 534,-92.6058 534,-133.606"/>
<text text-anchor="middle" x="448" y="-110.606" font-family="Sans" font-size="10.00">configuration-modules-core#1028</text>
</g>
<!-- configuration&#45;modules&#45;core#1132&#45;&gt;configuration&#45;modules&#45;core#1028 -->
<g id="edge52" class="edge"><title>configuration-modules-core#1132-&gt;configuration-modules-core#1028</title>
<path fill="none" stroke="black" stroke-dasharray="5,2" d="M220.088,-422.481C232.402,-417.115 243.688,-409.599 252,-399.106 290.163,-350.926 226.343,-166.371 270,-123.106 291.233,-102.063 321.78,-95.4749 351.592,-95.4296"/>
<polygon fill="none" stroke="black" points="351.584,-98.9302 361.659,-95.6536 351.739,-91.9319 351.584,-98.9302"/>
<text text-anchor="middle" x="289" y="-127.106" font-family="Sans" font-size="10.00">requires</text>
</g>
<!-- configuration&#45;modules&#45;core#1132&#45;&gt;configuration&#45;modules&#45;core#1028 -->
<g id="edge18" class="edge"><title>configuration-modules-core#1132-&gt;configuration-modules-core#1028</title>
<path fill="none" stroke="black" stroke-dasharray="5,2" d="M220.156,-422.534C232.461,-417.162 243.728,-409.63 252,-399.106 273.458,-371.805 244.749,-110.942 270,-87.1058 305.291,-53.7921 363.325,-70.5022 403.487,-88.7809"/>
<polygon fill="none" stroke="black" points="401.992,-91.9453 412.528,-93.058 404.985,-85.6177 401.992,-91.9453"/>
<text text-anchor="middle" x="289" y="-91.1058" font-family="Sans" font-size="10.00">requires</text>
</g>
<!-- configuration&#45;modules&#45;core#1124 -->
<g id="node26" class="node"><title>configuration-modules-core#1124</title>
<a xlink:href="https://github.com/quattor/configuration-modules-core/pull/1124" xlink:title="ncm-cron: cleanup and switch to 00-tqu" target="_parent">
<polygon fill="#6cc644" stroke="black" points="220,-534.106 48,-534.106 48,-480.106 220,-480.106 220,-534.106"/>
<text text-anchor="middle" x="134" y="-511.106" font-family="Sans" font-size="10.00">pull-request</text>
<text text-anchor="middle" x="134" y="-498.106" font-family="Sans" font-size="10.00">configuration-modules-core#1124</text>
</a>
</g>
<!-- CAF#230 -->
<g id="node28" class="node"><title>CAF#230</title>
<polygon fill="lightgrey" stroke="black" points="483,-202.606 413,-202.606 413,-161.606 483,-161.606 483,-202.606"/>
<text text-anchor="middle" x="448" y="-179.606" font-family="Sans" font-size="10.00">CAF#230</text>
</g>
<!-- configuration&#45;modules&#45;core#1124&#45;&gt;CAF#230 -->
<g id="edge54" class="edge"><title>configuration-modules-core#1124-&gt;CAF#230</title>
<path fill="none" stroke="black" stroke-dasharray="5,2" d="M220.088,-494.481C232.402,-489.115 243.688,-481.599 252,-471.106 290.163,-422.926 226.708,-238.736 270,-195.106 303.901,-160.94 362.198,-163.45 402.803,-170.707"/>
<polygon fill="none" stroke="black" points="402.235,-174.162 412.719,-172.635 403.571,-167.291 402.235,-174.162"/>
<text text-anchor="middle" x="289" y="-199.106" font-family="Sans" font-size="10.00">requires</text>
</g>
<!-- configuration&#45;modules&#45;core#1124&#45;&gt;CAF#230 -->
<g id="edge20" class="edge"><title>configuration-modules-core#1124-&gt;CAF#230</title>
<path fill="none" stroke="black" stroke-dasharray="5,2" d="M220.156,-494.534C232.461,-489.162 243.728,-481.63 252,-471.106 273.458,-443.805 244.749,-182.942 270,-159.106 288.63,-141.52 356.766,-156.015 403.124,-168.634"/>
<polygon fill="none" stroke="black" points="402.376,-172.059 412.949,-171.368 404.253,-165.315 402.376,-172.059"/>
<text text-anchor="middle" x="289" y="-163.106" font-family="Sans" font-size="10.00">requires</text>
</g>
<!-- configuration&#45;modules&#45;core#1119 -->
<g id="node29" class="node"><title>configuration-modules-core#1119</title>
<a xlink:href="https://github.com/quattor/configuration-modules-core/pull/1119" xlink:title="ncm-systemd: cleanup, restarting modified unitfiles and initial handling of unconfigured units" target="_parent">
<polygon fill="#6cc644" stroke="black" points="220,-696.106 48,-696.106 48,-642.106 220,-642.106 220,-696.106"/>
<text text-anchor="middle" x="134" y="-673.106" font-family="Sans" font-size="10.00">pull-request</text>
<text text-anchor="middle" x="134" y="-660.106" font-family="Sans" font-size="10.00">configuration-modules-core#1119</text>
</a>
</g>
<!-- configuration&#45;modules&#45;core#1095 -->
<g id="node31" class="node"><title>configuration-modules-core#1095</title>
<a xlink:href="https://github.com/quattor/configuration-modules-core/issues/1095" xlink:title="Manual intervention required in order for drop-in unit files to have any affect" target="_parent">
<ellipse fill="#6cc644" stroke="black" cx="448" cy="-656.106" rx="121.122" ry="38.1838"/>
<text text-anchor="middle" x="448" y="-660.106" font-family="Sans" font-size="10.00">issue</text>
<text text-anchor="middle" x="448" y="-647.106" font-family="Sans" font-size="10.00">configuration-modules-core#1095</text>
</a>
</g>
<!-- configuration&#45;modules&#45;core#1119&#45;&gt;configuration&#45;modules&#45;core#1095 -->
<g id="edge22" class="edge"><title>configuration-modules-core#1119-&gt;configuration-modules-core#1095</title>
<path fill="none" stroke="black" stroke-width="2" d="M220.331,-665.235C236.82,-664.513 253.943,-663.776 270,-663.106 285.208,-662.471 301.149,-661.822 316.977,-661.187"/>
<polygon fill="black" stroke="black" points="317.501,-664.669 327.353,-660.772 317.221,-657.675 317.501,-664.669"/>
<text text-anchor="middle" x="289" y="-667.106" font-family="Sans" font-size="10.00">fixes</text>
</g>
<!-- configuration&#45;modules&#45;core#1119&#45;&gt;configuration&#45;modules&#45;core#1095 -->
<g id="edge56" class="edge"><title>configuration-modules-core#1119-&gt;configuration-modules-core#1095</title>
<path fill="none" stroke="black" stroke-width="2" d="M220.308,-674.218C236.799,-675.005 253.929,-675.693 270,-676.106 286.883,-676.54 291.154,-677.303 308,-676.106 314.829,-675.621 321.831,-675.004 328.887,-674.29"/>
<polygon fill="black" stroke="black" points="329.681,-677.725 339.251,-673.178 328.935,-670.765 329.681,-677.725"/>
<text text-anchor="middle" x="289" y="-681.106" font-family="Sans" font-size="10.00">fixes</text>
</g>
<!-- configuration&#45;modules&#45;core#1087 -->
<g id="node32" class="node"><title>configuration-modules-core#1087</title>
<a xlink:href="https://github.com/quattor/configuration-modules-core/pull/1087" xlink:title="ncm-network: cleanup, fixes and new features" target="_parent">
<polygon fill="#6cc644" stroke="black" points="220,-606.106 48,-606.106 48,-552.106 220,-552.106 220,-606.106"/>
<text text-anchor="middle" x="134" y="-583.106" font-family="Sans" font-size="10.00">pull-request</text>
<text text-anchor="middle" x="134" y="-570.106" font-family="Sans" font-size="10.00">configuration-modules-core#1087</text>
</a>
</g>
<!-- configuration&#45;modules&#45;core#1087&#45;&gt;CAF#230 -->
<g id="edge34" class="edge"><title>configuration-modules-core#1087-&gt;CAF#230</title>
<path fill="none" stroke="black" stroke-dasharray="5,2" d="M220.096,-566.487C232.409,-561.12 243.693,-553.603 252,-543.106 290.691,-494.212 235.535,-315.065 270,-263.106 280.437,-247.37 294.412,-257.217 308,-244.106 320.022,-232.505 312.725,-221.249 326,-211.106 347.873,-194.394 377.9,-187.116 402.691,-184.03"/>
<polygon fill="none" stroke="black" points="403.378,-187.477 412.956,-182.949 402.644,-180.516 403.378,-187.477"/>
<text text-anchor="middle" x="289" y="-267.106" font-family="Sans" font-size="10.00">requires</text>
</g>
<!-- configuration&#45;modules&#45;core#1087&#45;&gt;CAF#230 -->
<g id="edge68" class="edge"><title>configuration-modules-core#1087-&gt;CAF#230</title>
<path fill="none" stroke="black" stroke-dasharray="5,2" d="M220.162,-566.539C232.467,-561.166 243.731,-553.633 252,-543.106 295.445,-487.792 226.064,-282.031 270,-227.106 278.383,-216.627 352.759,-200.462 402.68,-190.626"/>
<polygon fill="none" stroke="black" points="403.475,-194.037 412.62,-188.688 402.135,-187.167 403.475,-194.037"/>
<text text-anchor="middle" x="289" y="-231.106" font-family="Sans" font-size="10.00">requires</text>
</g>
<!-- configuration&#45;modules&#45;core#1082 -->
<g id="node34" class="node"><title>configuration-modules-core#1082</title>
<a xlink:href="https://github.com/quattor/configuration-modules-core/issues/1082" xlink:title="ncm-network: Allow extra routing options for the default route" target="_parent">
<ellipse fill="#6cc644" stroke="black" cx="448" cy="-374.106" rx="121.122" ry="38.1838"/>
<text text-anchor="middle" x="448" y="-378.106" font-family="Sans" font-size="10.00">issue</text>
<text text-anchor="middle" x="448" y="-365.106" font-family="Sans" font-size="10.00">configuration-modules-core#1082</text>
</a>
</g>
<!-- configuration&#45;modules&#45;core#1087&#45;&gt;configuration&#45;modules&#45;core#1082 -->
<g id="edge24" class="edge"><title>configuration-modules-core#1087-&gt;configuration-modules-core#1082</title>
<path fill="none" stroke="black" stroke-width="2" d="M220.249,-563.872C232.012,-558.802 243.085,-552.062 252,-543.106 271.641,-523.374 252.953,-505.117 270,-483.106 282.088,-467.498 294.843,-474.824 308,-460.106 320.723,-445.873 312.072,-434.161 326,-421.106 332.75,-414.779 340.443,-409.276 348.607,-404.494"/>
<polygon fill="black" stroke="black" points="350.52,-407.438 357.63,-399.583 347.173,-401.29 350.52,-407.438"/>
<text text-anchor="middle" x="289" y="-487.106" font-family="Sans" font-size="10.00">fixes</text>
</g>
<!-- configuration&#45;modules&#45;core#1087&#45;&gt;configuration&#45;modules&#45;core#1082 -->
<g id="edge58" class="edge"><title>configuration-modules-core#1087-&gt;configuration-modules-core#1082</title>
<path fill="none" stroke="black" stroke-width="2" d="M220.286,-565.136C232.265,-559.912 243.394,-552.793 252,-543.106 281.993,-509.346 241.35,-478.012 270,-443.106 273.3,-439.086 316.168,-422.415 359.004,-406.469"/>
<polygon fill="black" stroke="black" points="360.26,-409.736 368.417,-402.975 357.824,-403.173 360.26,-409.736"/>
<text text-anchor="middle" x="289" y="-447.106" font-family="Sans" font-size="10.00">fixes</text>
</g>
<!-- configuration&#45;modules&#45;core#870 -->
<g id="node36" class="node"><title>configuration-modules-core#870</title>
<a xlink:href="https://github.com/quattor/configuration-modules-core/issues/870" xlink:title="ncm-network: hostname is not set in el7" target="_parent">
<ellipse fill="#6cc644" stroke="black" cx="448" cy="-468.106" rx="118.087" ry="38.1838"/>
<text text-anchor="middle" x="448" y="-472.106" font-family="Sans" font-size="10.00">issue</text>
<text text-anchor="middle" x="448" y="-459.106" font-family="Sans" font-size="10.00">configuration-modules-core#870</text>
</a>
</g>
<!-- configuration&#45;modules&#45;core#1087&#45;&gt;configuration&#45;modules&#45;core#870 -->
<g id="edge26" class="edge"><title>configuration-modules-core#1087-&gt;configuration-modules-core#870</title>
<path fill="none" stroke="black" stroke-width="2" d="M220.004,-564.721C249.147,-557.589 281.106,-547.161 308,-532.106 317.602,-526.731 316.69,-520.972 326,-515.106 335.189,-509.316 345.206,-504.048 355.419,-499.309"/>
<polygon fill="black" stroke="black" points="357.13,-502.378 364.836,-495.107 354.278,-495.986 357.13,-502.378"/>
<text text-anchor="middle" x="289" y="-553.106" font-family="Sans" font-size="10.00">fixes</text>
</g>
<!-- configuration&#45;modules&#45;core#1087&#45;&gt;configuration&#45;modules&#45;core#870 -->
<g id="edge60" class="edge"><title>configuration-modules-core#1087-&gt;configuration-modules-core#870</title>
<path fill="none" stroke="black" stroke-width="2" d="M220.018,-560.773C231.409,-556.137 242.436,-550.343 252,-543.106 263.797,-534.179 258.036,-523.807 270,-515.106 281.902,-506.45 308.275,-497.939 337.167,-490.59"/>
<polygon fill="black" stroke="black" points="338.179,-493.945 347.045,-488.144 336.497,-487.15 338.179,-493.945"/>
<text text-anchor="middle" x="289" y="-519.106" font-family="Sans" font-size="10.00">fixes</text>
</g>
<!-- configuration&#45;modules&#45;core#1109 -->
<g id="node38" class="node"><title>configuration-modules-core#1109</title>
<a xlink:href="https://github.com/quattor/configuration-modules-core/issues/1109" xlink:title="ncm-network: systemd rpm scripts remove HOSTNAME from /etc/sysconfig/network" target="_parent">
<ellipse fill="#6cc644" stroke="black" cx="448" cy="-562.106" rx="121.122" ry="38.1838"/>
<text text-anchor="middle" x="448" y="-566.106" font-family="Sans" font-size="10.00">issue</text>
<text text-anchor="middle" x="448" y="-553.106" font-family="Sans" font-size="10.00">configuration-modules-core#1109</text>
</a>
</g>
<!-- configuration&#45;modules&#45;core#1087&#45;&gt;configuration&#45;modules&#45;core#1109 -->
<g id="edge28" class="edge"><title>configuration-modules-core#1087-&gt;configuration-modules-core#1109</title>
<path fill="none" stroke="black" stroke-width="2" d="M220.306,-601.401C248.288,-605.983 279.466,-608.294 308,-604.106 324.217,-601.726 341.164,-597.873 357.439,-593.442"/>
<polygon fill="black" stroke="black" points="358.797,-596.696 367.474,-590.616 356.899,-589.958 358.797,-596.696"/>
<text text-anchor="middle" x="289" y="-611.106" font-family="Sans" font-size="10.00">fixes</text>
</g>
<!-- configuration&#45;modules&#45;core#1087&#45;&gt;configuration&#45;modules&#45;core#1109 -->
<g id="edge62" class="edge"><title>configuration-modules-core#1087-&gt;configuration-modules-core#1109</title>
<path fill="none" stroke="black" stroke-width="2" d="M220.217,-574.438C250.409,-572.803 285.018,-570.93 317.99,-569.145"/>
<polygon fill="black" stroke="black" points="318.368,-572.629 328.164,-568.594 317.989,-565.64 318.368,-572.629"/>
<text text-anchor="middle" x="289" y="-576.106" font-family="Sans" font-size="10.00">fixes</text>
</g>
<!-- configuration&#45;modules&#45;core#1085 -->
<g id="node40" class="node"><title>configuration-modules-core#1085</title>
<polygon fill="lightgrey" stroke="black" points="534,-318.606 362,-318.606 362,-277.606 534,-277.606 534,-318.606"/>
<text text-anchor="middle" x="448" y="-295.606" font-family="Sans" font-size="10.00">configuration-modules-core#1085</text>
</g>
<!-- configuration&#45;modules&#45;core#1087&#45;&gt;configuration&#45;modules&#45;core#1085 -->
<g id="edge30" class="edge"><title>configuration-modules-core#1087-&gt;configuration-modules-core#1085</title>
<path fill="none" stroke="black" stroke-dasharray="1,5" d="M220.067,-565.719C232.225,-560.433 243.468,-553.141 252,-543.106 290.637,-497.66 236.8,-459.663 270,-410.106 280.862,-393.893 296.034,-403.522 308,-388.106 326.118,-364.765 304.447,-344.318 326,-324.106 333.602,-316.977 342.656,-311.61 352.349,-307.594"/>
<polygon fill="black" stroke="black" points="361.811,-304.143 353.957,-311.797 357.113,-305.856 352.416,-307.569 352.416,-307.569 352.416,-307.569 357.113,-305.856 350.874,-303.342 361.811,-304.143 361.811,-304.143"/>
<text text-anchor="middle" x="289" y="-414.106" font-family="Sans" font-size="10.00">replaces</text>
</g>
<!-- configuration&#45;modules&#45;core#1087&#45;&gt;configuration&#45;modules&#45;core#1085 -->
<g id="edge64" class="edge"><title>configuration-modules-core#1087-&gt;configuration-modules-core#1085</title>
<path fill="none" stroke="black" stroke-dasharray="1,5" d="M220.035,-566.07C232.276,-560.747 243.553,-553.352 252,-543.106 300.894,-483.801 226.239,-434.294 270,-371.106 280.751,-355.583 293.949,-364.72 308,-352.106 319.009,-342.223 313.829,-332.517 326,-324.106 333.934,-318.623 342.799,-314.261 352.031,-310.796"/>
<polygon fill="black" stroke="black" points="361.761,-307.5 353.734,-314.97 357.026,-309.104 352.29,-310.708 352.29,-310.708 352.29,-310.708 357.026,-309.104 350.846,-306.446 361.761,-307.5 361.761,-307.5"/>
<text text-anchor="middle" x="289" y="-375.106" font-family="Sans" font-size="10.00">replaces</text>
</g>
<!-- configuration&#45;modules&#45;core#1070 -->
<g id="node42" class="node"><title>configuration-modules-core#1070</title>
<polygon fill="lightgrey" stroke="black" points="534,-260.606 362,-260.606 362,-219.606 534,-219.606 534,-260.606"/>
<text text-anchor="middle" x="448" y="-237.606" font-family="Sans" font-size="10.00">configuration-modules-core#1070</text>
</g>
<!-- configuration&#45;modules&#45;core#1087&#45;&gt;configuration&#45;modules&#45;core#1070 -->
<g id="edge32" class="edge"><title>configuration-modules-core#1087-&gt;configuration-modules-core#1070</title>
<path fill="none" stroke="black" stroke-dasharray="1,5" d="M220.194,-566.2C232.415,-560.861 243.645,-553.427 252,-543.106 281.191,-507.045 243.929,-373.483 270,-335.106 280.611,-319.487 295.317,-330.095 308,-316.106 323.024,-299.534 309.172,-283.842 326,-269.106 333.757,-262.313 342.821,-257.041 352.44,-252.959"/>
<polygon fill="black" stroke="black" points="361.81,-249.4 354.06,-257.158 357.136,-251.176 352.462,-252.951 352.462,-252.951 352.462,-252.951 357.136,-251.176 350.864,-248.745 361.81,-249.4 361.81,-249.4"/>
<text text-anchor="middle" x="289" y="-339.106" font-family="Sans" font-size="10.00">replaces</text>
</g>
<!-- configuration&#45;modules&#45;core#1087&#45;&gt;configuration&#45;modules&#45;core#1070 -->
<g id="edge66" class="edge"><title>configuration-modules-core#1087-&gt;configuration-modules-core#1070</title>
<path fill="none" stroke="black" stroke-dasharray="1,5" d="M220.012,-566.42C232.334,-561.061 243.644,-553.564 252,-543.106 285.94,-500.631 239.733,-344.272 270,-299.106 280.512,-283.42 291.485,-289.259 308,-280.106 316.2,-275.561 317.332,-272.679 326,-269.106 334.352,-265.664 343.201,-262.575 352.167,-259.817"/>
<polygon fill="black" stroke="black" points="361.924,-256.952 353.597,-264.087 357.127,-258.36 352.329,-259.769 352.329,-259.769 352.329,-259.769 357.127,-258.36 351.061,-255.451 361.924,-256.952 361.924,-256.952"/>
<text text-anchor="middle" x="289" y="-303.106" font-family="Sans" font-size="10.00">replaces</text>
</g>
<!-- configuration&#45;modules&#45;core#1058 -->
<g id="node44" class="node"><title>configuration-modules-core#1058</title>
<a xlink:href="https://github.com/quattor/configuration-modules-core/pull/1058" xlink:title="ncm-ssh: disable insecure ssh ciphersuites and macs" target="_parent">
<polygon fill="#6cc644" stroke="black" points="220,-390.106 48,-390.106 48,-336.106 220,-336.106 220,-390.106"/>
<text text-anchor="middle" x="134" y="-367.106" font-family="Sans" font-size="10.00">pull-request</text>
<text text-anchor="middle" x="134" y="-354.106" font-family="Sans" font-size="10.00">configuration-modules-core#1058</text>
</a>
</g>
<!-- configuration&#45;modules&#45;core#983 -->
<g id="node46" class="node"><title>configuration-modules-core#983</title>
<polygon fill="lightgrey" stroke="black" points="531,-46.6058 365,-46.6058 365,-5.60585 531,-5.60585 531,-46.6058"/>
<text text-anchor="middle" x="448" y="-23.6058" font-family="Sans" font-size="10.00">configuration-modules-core#983</text>
</g>
<!-- configuration&#45;modules&#45;core#1058&#45;&gt;configuration&#45;modules&#45;core#983 -->
<g id="edge36" class="edge"><title>configuration-modules-core#1058-&gt;configuration-modules-core#983</title>
<path fill="none" stroke="black" stroke-dasharray="1,5" d="M137.218,-335.82C146.025,-274.343 176.476,-124.789 270,-53.1058 293.745,-34.9065 324.616,-26.5418 353.967,-23.2017"/>
<polygon fill="black" stroke="black" points="364.27,-22.222 354.741,-27.6484 359.293,-22.6953 354.315,-23.1686 354.315,-23.1686 354.315,-23.1686 359.293,-22.6953 353.889,-18.6888 364.27,-22.222 364.27,-22.222"/>
<text text-anchor="middle" x="289" y="-57.1058" font-family="Sans" font-size="10.00">replaces</text>
</g>
<!-- configuration&#45;modules&#45;core#1058&#45;&gt;configuration&#45;modules&#45;core#983 -->
<g id="edge70" class="edge"><title>configuration-modules-core#1058-&gt;configuration-modules-core#983</title>
<path fill="none" stroke="black" stroke-dasharray="1,5" d="M140.512,-336.05C159.064,-261.463 214.45,-55.9184 270,-18.1058 300.606,2.72729 341.501,2.33192 376.374,-3.996"/>
<polygon fill="black" stroke="black" points="386.509,-6.02865 375.82,-8.47441 381.607,-5.04546 376.705,-4.06226 376.705,-4.06226 376.705,-4.06226 381.607,-5.04546 377.589,0.349886 386.509,-6.02865 386.509,-6.02865"/>
<text text-anchor="middle" x="289" y="-22.1058" font-family="Sans" font-size="10.00">replaces</text>
</g>
<!-- configuration&#45;modules&#45;core#950 -->
<g id="node47" class="node"><title>configuration-modules-core#950</title>
<a xlink:href="https://github.com/quattor/configuration-modules-core/issues/950" xlink:title="ncm-spma: Remove support for package groups from yum backends" target="_parent">
<ellipse fill="#6cc644" stroke="black" cx="134" cy="-857.106" rx="118.087" ry="38.1838"/>
<text text-anchor="middle" x="134" y="-861.106" font-family="Sans" font-size="10.00">issue</text>
<text text-anchor="middle" x="134" y="-848.106" font-family="Sans" font-size="10.00">configuration-modules-core#950</text>
</a>
</g>
<!-- configuration&#45;modules&#45;core#950&#45;&gt;configuration&#45;modules&#45;core#952 -->
<g id="edge40" class="edge"><title>configuration-modules-core#950-&gt;configuration-modules-core#952</title>
<path fill="none" stroke="black" stroke-dasharray="5,2" d="M226.512,-880.97C263.959,-890.63 307.331,-901.819 345.715,-911.72"/>
<polygon fill="none" stroke="black" points="345.321,-915.233 355.878,-914.342 347.069,-908.455 345.321,-915.233"/>
<text text-anchor="middle" x="289" y="-904.106" font-family="Sans" font-size="10.00">requires</text>
</g>
<!-- configuration&#45;modules&#45;core#951 -->
<g id="node49" class="node"><title>configuration-modules-core#951</title>
<a xlink:href="https://github.com/quattor/configuration-modules-core/issues/951" xlink:title="ncm-spma (yum): Remove support for package groups" target="_parent">
<ellipse fill="#6cc644" stroke="black" cx="448" cy="-844.106" rx="118.087" ry="38.1838"/>
<text text-anchor="middle" x="448" y="-848.106" font-family="Sans" font-size="10.00">issue</text>
<text text-anchor="middle" x="448" y="-835.106" font-family="Sans" font-size="10.00">configuration-modules-core#951</text>
</a>
</g>
<!-- configuration&#45;modules&#45;core#950&#45;&gt;configuration&#45;modules&#45;core#951 -->
<g id="edge38" class="edge"><title>configuration-modules-core#950-&gt;configuration-modules-core#951</title>
<path fill="none" stroke="black" stroke-dasharray="5,2" d="M250.471,-850.975C257.077,-850.67 263.622,-850.377 270,-850.106 286.117,-849.419 303.058,-848.764 319.817,-848.154"/>
<polygon fill="none" stroke="black" points="320.352,-851.638 330.22,-847.781 320.101,-844.642 320.352,-851.638"/>
<text text-anchor="middle" x="289" y="-854.106" font-family="Sans" font-size="10.00">requires</text>
</g>
<!-- ncm&#45;ncd#117 -->
<g id="node66" class="node"><title>ncm-ncd#117</title>
<a xlink:href="https://github.com/quattor/ncm-ncd/pull/117" xlink:title="Allow component modules to be loaded from any path" target="_parent">
<polygon fill="#6cc644" stroke="black" points="177,-1587.11 91,-1587.11 91,-1533.11 177,-1533.11 177,-1587.11"/>
<text text-anchor="middle" x="134" y="-1564.11" font-family="Sans" font-size="10.00">pull-request</text>
<text text-anchor="middle" x="134" y="-1551.11" font-family="Sans" font-size="10.00">ncm-ncd#117</text>
</a>
</g>
<!-- ncm&#45;ncd#116 -->
<g id="node68" class="node"><title>ncm-ncd#116</title>
<a xlink:href="https://github.com/quattor/ncm-ncd/issues/116" xlink:title="hasFile() prevents component modules from being relocated" target="_parent">
<ellipse fill="#6cc644" stroke="black" cx="448" cy="-1560.11" rx="61.0181" ry="38.1838"/>
<text text-anchor="middle" x="448" y="-1564.11" font-family="Sans" font-size="10.00">issue</text>
<text text-anchor="middle" x="448" y="-1551.11" font-family="Sans" font-size="10.00">ncm-ncd#116</text>
</a>
</g>
<!-- ncm&#45;ncd#117&#45;&gt;ncm&#45;ncd#116 -->
<g id="edge72" class="edge"><title>ncm-ncd#117-&gt;ncm-ncd#116</title>
<path fill="none" stroke="black" stroke-width="2" d="M177.66,-1560.11C228.954,-1560.11 314.809,-1560.11 376.001,-1560.11"/>
<polygon fill="black" stroke="black" points="376.362,-1563.61 386.362,-1560.11 376.362,-1556.61 376.362,-1563.61"/>
<text text-anchor="middle" x="289" y="-1564.11" font-family="Sans" font-size="10.00">fixes</text>
</g>
<!-- aquilon#70 -->
<g id="node69" class="node"><title>aquilon#70</title>
<a xlink:href="https://github.com/quattor/aquilon/pull/70" xlink:title="Create usable EL7 rpms with bdist_rpm that pull in all dependencies" target="_parent">
<polygon fill="#6cc644" stroke="black" points="173,-1750.11 95,-1750.11 95,-1696.11 173,-1696.11 173,-1750.11"/>
<text text-anchor="middle" x="134" y="-1727.11" font-family="Sans" font-size="10.00">pull-request</text>
<text text-anchor="middle" x="134" y="-1714.11" font-family="Sans" font-size="10.00">aquilon#70</text>
</a>
</g>
<!-- aquilon#41 -->
<g id="node71" class="node"><title>aquilon#41</title>
<polygon fill="lightgrey" stroke="black" points="485,-1830.61 411,-1830.61 411,-1789.61 485,-1789.61 485,-1830.61"/>
<text text-anchor="middle" x="448" y="-1807.61" font-family="Sans" font-size="10.00">aquilon#41</text>
</g>
<!-- aquilon#70&#45;&gt;aquilon#41 -->
<g id="edge74" class="edge"><title>aquilon#70-&gt;aquilon#41</title>
<path fill="none" stroke="black" stroke-dasharray="1,5" d="M173.514,-1735.8C212.193,-1748.05 272.88,-1766.78 326,-1781.11 350.426,-1787.69 377.814,-1794.27 400.443,-1799.5"/>
<polygon fill="black" stroke="black" points="410.477,-1801.8 399.724,-1803.95 405.603,-1800.68 400.73,-1799.56 400.73,-1799.56 400.73,-1799.56 405.603,-1800.68 401.735,-1795.18 410.477,-1801.8 410.477,-1801.8"/>
<text text-anchor="middle" x="289" y="-1779.11" font-family="Sans" font-size="10.00">replaces</text>
</g>
<!-- aquilon#58 -->
<g id="node73" class="node"><title>aquilon#58</title>
<polygon fill="lightgrey" stroke="black" points="485,-1772.61 411,-1772.61 411,-1731.61 485,-1731.61 485,-1772.61"/>
<text text-anchor="middle" x="448" y="-1749.61" font-family="Sans" font-size="10.00">aquilon#58</text>
</g>
<!-- aquilon#70&#45;&gt;aquilon#58 -->
<g id="edge76" class="edge"><title>aquilon#70-&gt;aquilon#58</title>
<path fill="none" stroke="black" stroke-dasharray="1,5" d="M173.768,-1726.78C231.333,-1732.1 337.747,-1741.92 399.731,-1747.65"/>
<polygon fill="black" stroke="black" points="410.024,-1748.6 399.653,-1752.16 405.045,-1748.14 400.067,-1747.68 400.067,-1747.68 400.067,-1747.68 405.045,-1748.14 400.48,-1743.2 410.024,-1748.6 410.024,-1748.6"/>
<text text-anchor="middle" x="289" y="-1742.11" font-family="Sans" font-size="10.00">replaces</text>
</g>
<!-- aquilon#47 -->
<g id="node75" class="node"><title>aquilon#47</title>
<polygon fill="lightgrey" stroke="black" points="485,-1714.61 411,-1714.61 411,-1673.61 485,-1673.61 485,-1714.61"/>
<text text-anchor="middle" x="448" y="-1691.61" font-family="Sans" font-size="10.00">aquilon#47</text>
</g>
<!-- aquilon#70&#45;&gt;aquilon#47 -->
<g id="edge78" class="edge"><title>aquilon#70-&gt;aquilon#47</title>
<path fill="none" stroke="black" stroke-width="2" d="M173.768,-1719.43C231.333,-1714.12 337.747,-1704.29 399.731,-1698.56"/>
<polygon fill="black" stroke="black" points="400.388,-1702.02 410.024,-1697.61 399.745,-1695.05 400.388,-1702.02"/>
<text text-anchor="middle" x="289" y="-1714.11" font-family="Sans" font-size="10.00">fixes</text>
</g>
<!-- aquilon#48 -->
<g id="node77" class="node"><title>aquilon#48</title>
<polygon fill="lightgrey" stroke="black" points="485,-1656.61 411,-1656.61 411,-1615.61 485,-1615.61 485,-1656.61"/>
<text text-anchor="middle" x="448" y="-1633.61" font-family="Sans" font-size="10.00">aquilon#48</text>
</g>
<!-- aquilon#70&#45;&gt;aquilon#48 -->
<g id="edge80" class="edge"><title>aquilon#70-&gt;aquilon#48</title>
<path fill="none" stroke="black" stroke-width="2" d="M173.514,-1710.41C212.193,-1698.17 272.88,-1679.43 326,-1665.11 350.426,-1658.52 377.814,-1651.94 400.443,-1646.71"/>
<polygon fill="black" stroke="black" points="401.512,-1650.06 410.477,-1644.41 399.948,-1643.24 401.512,-1650.06"/>
<text text-anchor="middle" x="289" y="-1684.11" font-family="Sans" font-size="10.00">fixes</text>
</g>
</g>
</svg>
