<?xml version="1.0" encoding="UTF-8" standalone="no"?>
<?xml-stylesheet href="relationships.css" type="text/css"?>
<!-- Generated by graphviz version 2.30.1 (20200930.0103)
 -->
<!-- Title: Dependencies Pages: 1 -->
<svg xmlns="http://www.w3.org/2000/svg" xmlns:xlink="http://www.w3.org/1999/xlink" width="1019pt" height="1609pt" viewBox="0.00 0.00 1019.00 1609.00">
<g id="graph0" class="graph" transform="scale(1 1) rotate(0) translate(4 1605)">
<title>Dependencies</title>
<polygon fill="white" stroke="white" points="-4,5 -4,-1605 1016,-1605 1016,5 -4,5"/>
<g id="clust3" class="cluster"><title>cluster_milestone_23.12</title>
<polygon fill="none" stroke="black" points="8,-893 8,-1060 522,-1060 522,-893 8,-893"/>
<text text-anchor="middle" x="265" y="-1046.4" font-family="Sans" font-size="12.00">23.12</text>
</g>
<g id="clust2" class="cluster"><title>cluster_milestone_22.12</title>
<polygon fill="none" stroke="black" points="319,-230 319,-885 843,-885 843,-230 319,-230"/>
<text text-anchor="middle" x="581" y="-871.4" font-family="Sans" font-size="12.00">22.12</text>
</g>
<g id="clust1" class="cluster"><title>cluster_milestone_23.6</title>
<polygon fill="none" stroke="black" points="29,-372 29,-471 187,-471 187,-372 29,-372"/>
<text text-anchor="middle" x="108" y="-457.4" font-family="Sans" font-size="12.00">23.6</text>
</g>
<!-- aii#331 -->
<g id="node1" class="node"><title>aii#331</title>
<g id="a_node1"><a xlink:href="https://github.com/quattor/aii/pull/331" xlink:title="aii#331 (pull-request)" target="_parent">
<polygon fill="#6cc644" stroke="black" points="179,-441.5 37,-441.5 37,-380.5 179,-380.5 179,-441.5"/>
<text text-anchor="middle" x="108" y="-419.5" font-family="Sans" font-size="10.00">let aii generate ansible</text>
<text text-anchor="middle" x="108" y="-408.5" font-family="Sans" font-size="10.00">playbook for supported</text>
<text text-anchor="middle" x="108" y="-397.5" font-family="Sans" font-size="10.00">components</text>
</a>
</g>
</g>
<!-- aii#328 -->
<g id="node2" class="node"><title>aii#328</title>
<g id="a_node2"><a xlink:href="https://github.com/quattor/aii/pull/328" xlink:title="aii#328 (pull-request)" target="_parent">
<polygon fill="#6cc644" stroke="black" points="515,-436 333,-436 333,-386 515,-386 515,-436"/>
<text text-anchor="middle" x="424" y="-414" font-family="Sans" font-size="10.00">aii-ks: generate ks post section</text>
<text text-anchor="middle" x="424" y="-403" font-family="Sans" font-size="10.00">as standalone script</text>
</a>
</g>
</g>
<!-- aii#331&#45;&gt;aii#328 -->
<g id="edge1" class="edge"><title>aii#331-&gt;aii#328</title>
<path fill="none" stroke="black" stroke-dasharray="5,2" d="M179.077,-405.27C221.343,-404.16 275.883,-403.956 322.668,-404.657"/>
<polygon fill="none" stroke="black" points="322.777,-408.159 332.834,-404.826 322.893,-401.16 322.777,-408.159"/>
<text text-anchor="middle" x="235.574" y="-396.263" font-family="Sans" font-size="10.00">requires</text>
</g>
<!-- aii#331&#45;&gt;aii#328 -->
<g id="edge8" class="edge"><title>aii#331-&gt;aii#328</title>
<path fill="none" stroke="black" stroke-dasharray="5,2" d="M179.077,-416.73C221.343,-417.84 275.883,-418.044 322.668,-417.343"/>
<polygon fill="none" stroke="black" points="322.893,-420.84 332.834,-417.174 322.777,-413.841 322.893,-420.84"/>
<text text-anchor="middle" x="235.574" y="-409.737" font-family="Sans" font-size="10.00">requires</text>
</g>
<!-- aii#280 -->
<g id="node3" class="node"><title>aii#280</title>
<polygon fill="lightgrey" stroke="black" points="1010.5,-314.5 943.5,-314.5 943.5,-275.5 1010.5,-275.5 1010.5,-314.5"/>
<text text-anchor="middle" x="977" y="-292.5" font-family="Sans" font-size="10.00">aii#280</text>
</g>
<!-- aii#328&#45;&gt;aii#280 -->
<g id="edge2" class="edge"><title>aii#328-&gt;aii#280</title>
<path fill="none" stroke="black" stroke-dasharray="5,2" d="M480.16,-385.908C537.616,-364.294 621.417,-336.586 637,-333 742.037,-308.826 868.432,-295.312 933.176,-292.691"/>
<polygon fill="none" stroke="black" points="933.522,-296.181 943.401,-292.354 933.292,-289.185 933.522,-296.181"/>
<text text-anchor="middle" x="688.451" y="-310.611" font-family="Sans" font-size="10.00">requires</text>
</g>
<!-- aii#316 -->
<g id="node4" class="node"><title>aii#316</title>
<g id="a_node4"><a xlink:href="https://github.com/quattor/aii/pull/316" xlink:title="aii#316 (pull-request)" target="_parent">
<polygon fill="#6e5494" stroke="black" points="824,-412.5 648,-412.5 648,-351.5 824,-351.5 824,-412.5"/>
<text text-anchor="middle" x="736" y="-390.5" font-family="Sans" font-size="10.00">aii-ks: generate kickstart repo</text>
<text text-anchor="middle" x="736" y="-379.5" font-family="Sans" font-size="10.00">entries based on SPMA</text>
<text text-anchor="middle" x="736" y="-368.5" font-family="Sans" font-size="10.00">configuration</text>
</a>
</g>
</g>
<!-- aii#328&#45;&gt;aii#316 -->
<g id="edge3" class="edge"><title>aii#328-&gt;aii#316</title>
<path fill="none" stroke="black" stroke-dasharray="5,2" d="M515.081,-396.379C553.563,-392.08 598.56,-387.831 637.792,-384.779"/>
<polygon fill="none" stroke="black" points="638.193,-388.259 647.899,-384.01 637.662,-381.279 638.193,-388.259"/>
<text text-anchor="middle" x="561.561" y="-381.604" font-family="Sans" font-size="10.00">requires</text>
</g>
<!-- aii#328&#45;&gt;aii#280 -->
<g id="edge9" class="edge"><title>aii#328-&gt;aii#280</title>
<path fill="none" stroke="black" stroke-dasharray="5,2" d="M515.234,-388.526C567.085,-372.607 624.387,-353.903 637,-351 742.037,-326.826 868.432,-313.312 933.176,-304.287"/>
<polygon fill="none" stroke="black" points="934,-307.704 943.401,-302.82 933.006,-300.775 934,-307.704"/>
<text text-anchor="middle" x="706.905" y="-325.324" font-family="Sans" font-size="10.00">requires</text>
</g>
<!-- aii#328&#45;&gt;aii#316 -->
<g id="edge10" class="edge"><title>aii#328-&gt;aii#316</title>
<path fill="none" stroke="black" stroke-dasharray="5,2" d="M515.081,-408.767C553.563,-405.866 598.56,-401.697 637.792,-397.408"/>
<polygon fill="none" stroke="black" points="638.346,-400.868 647.899,-396.286 637.573,-393.911 638.346,-400.868"/>
<text text-anchor="middle" x="561.561" y="-395.104" font-family="Sans" font-size="10.00">requires</text>
</g>
<!-- aii#316&#45;&gt;aii#280 -->
<g id="edge4" class="edge"><title>aii#316-&gt;aii#280</title>
<path fill="none" stroke="black" stroke-dasharray="5,2" d="M803.575,-351.642C845.238,-335.422 897.657,-316.616 933.697,-305.102"/>
<polygon fill="none" stroke="black" points="934.912,-308.389 943.406,-302.056 932.817,-301.71 934.912,-308.389"/>
<text text-anchor="middle" x="853.415" y="-317.653" font-family="Sans" font-size="10.00">requires</text>
</g>
<!-- aii#314 -->
<g id="node5" class="node"><title>aii#314</title>
<polygon fill="lightgrey" stroke="black" points="1010.5,-448.5 943.5,-448.5 943.5,-409.5 1010.5,-409.5 1010.5,-448.5"/>
<text text-anchor="middle" x="977" y="-426.5" font-family="Sans" font-size="10.00">aii#314</text>
</g>
<!-- aii#316&#45;&gt;aii#314 -->
<g id="edge5" class="edge"><title>aii#316-&gt;aii#314</title>
<path fill="none" stroke="black" stroke-dasharray="5,2" d="M824.299,-392.64C861.558,-399.44 903.33,-408.063 933.593,-415.359"/>
<polygon fill="none" stroke="black" points="932.844,-418.779 943.392,-417.778 934.522,-411.983 932.844,-418.779"/>
<text text-anchor="middle" x="864.219" y="-396.365" font-family="Sans" font-size="10.00">requires</text>
</g>
<!-- aii#315 -->
<g id="node6" class="node"><title>aii#315</title>
<polygon fill="lightgrey" stroke="black" points="1010.5,-391.5 943.5,-391.5 943.5,-352.5 1010.5,-352.5 1010.5,-391.5"/>
<text text-anchor="middle" x="977" y="-369.5" font-family="Sans" font-size="10.00">aii#315</text>
</g>
<!-- aii#316&#45;&gt;aii#315 -->
<g id="edge6" class="edge"><title>aii#316-&gt;aii#315</title>
<path fill="none" stroke="black" stroke-dasharray="5,2" d="M824.299,-371.82C861.396,-369.743 902.967,-368.406 933.198,-368.472"/>
<polygon fill="none" stroke="black" points="933.363,-371.973 943.392,-368.554 933.42,-364.973 933.363,-371.973"/>
<text text-anchor="middle" x="863.962" y="-361.262" font-family="Sans" font-size="10.00">requires</text>
</g>
<!-- aii#316&#45;&gt;aii#280 -->
<g id="edge11" class="edge"><title>aii#316-&gt;aii#280</title>
<path fill="none" stroke="black" stroke-dasharray="5,2" d="M824.299,-356.749C861.72,-343.657 903.693,-327.963 933.987,-315.578"/>
<polygon fill="none" stroke="black" points="935.494,-318.742 943.392,-311.68 932.813,-312.275 935.494,-318.742"/>
<text text-anchor="middle" x="904.033" y="-327.066" font-family="Sans" font-size="10.00">requires</text>
</g>
<!-- aii#316&#45;&gt;aii#314 -->
<g id="edge12" class="edge"><title>aii#316-&gt;aii#314</title>
<path fill="none" stroke="black" stroke-dasharray="5,2" d="M824.299,-405.695C861.396,-413.515 902.967,-421.287 933.198,-425.902"/>
<polygon fill="none" stroke="black" points="932.989,-429.409 943.392,-427.397 934.006,-422.483 932.989,-429.409"/>
<text text-anchor="middle" x="863.523" y="-409.408" font-family="Sans" font-size="10.00">requires</text>
</g>
<!-- aii#316&#45;&gt;aii#315 -->
<g id="edge13" class="edge"><title>aii#316-&gt;aii#315</title>
<path fill="none" stroke="black" stroke-dasharray="5,2" d="M824.299,-384.875C861.396,-383.847 902.967,-381.705 933.198,-379.11"/>
<polygon fill="none" stroke="black" points="933.753,-382.574 943.392,-378.174 933.113,-375.603 933.753,-382.574"/>
<text text-anchor="middle" x="863.962" y="-374.44" font-family="Sans" font-size="10.00">requires</text>
</g>
<!-- aii#299 -->
<g id="node7" class="node"><title>aii#299</title>
<g id="a_node7"><a xlink:href="https://github.com/quattor/aii/pull/299" xlink:title="aii#299 (pull-request)" target="_parent">
<polygon fill="#6cc644" stroke="black" points="812.5,-50 659.5,-50 659.5,-0 812.5,-0 812.5,-50"/>
<text text-anchor="middle" x="736" y="-28" font-family="Sans" font-size="10.00">aii-dhcp: support optional</text>
<text text-anchor="middle" x="736" y="-17" font-family="Sans" font-size="10.00">hostname ip verification</text>
</a>
</g>
</g>
<!-- aii#299&#45;&gt;aii#280 -->
<g id="edge7" class="edge"><title>aii#299-&gt;aii#280</title>
<path fill="none" stroke="black" stroke-dasharray="5,2" d="M812.73,-32.6134C823.592,-37.0085 834.088,-42.7338 843,-50 913.932,-107.83 953.876,-214.104 968.958,-265.713"/>
<polygon fill="none" stroke="black" points="965.651,-266.885 971.723,-275.568 972.391,-264.994 965.651,-266.885"/>
<text text-anchor="middle" x="896.149" y="-132.374" font-family="Sans" font-size="10.00">requires</text>
</g>
<!-- aii#299&#45;&gt;aii#280 -->
<g id="edge14" class="edge"><title>aii#299-&gt;aii#280</title>
<path fill="none" stroke="black" stroke-dasharray="5,2" d="M811.908,-50.0401C823.062,-54.7208 833.863,-60.5506 843,-68 909.19,-121.964 948.397,-218.111 965.597,-266.236"/>
<polygon fill="none" stroke="black" points="962.321,-267.468 968.936,-275.744 968.925,-265.149 962.321,-267.468"/>
<text text-anchor="middle" x="891.433" y="-152.896" font-family="Sans" font-size="10.00">requires</text>
</g>
<!-- CAF#257 -->
<g id="node8" class="node"><title>CAF#257</title>
<g id="a_node8"><a xlink:href="https://github.com/quattor/CAF/pull/257" xlink:title="CAF#257 (pull-request)" target="_parent">
<polygon fill="#6cc644" stroke="black" points="199.5,-1025 16.5,-1025 16.5,-975 199.5,-975 199.5,-1025"/>
<text text-anchor="middle" x="108" y="-1003" font-family="Sans" font-size="10.00">Process: run process as another</text>
<text text-anchor="middle" x="108" y="-992" font-family="Sans" font-size="10.00">user</text>
</a>
</g>
</g>
<!-- CAF#253 -->
<g id="node9" class="node"><title>CAF#253</title>
<g id="a_node9"><a xlink:href="https://github.com/quattor/CAF/issues/253" xlink:title="CAF#253 (issue)" target="_parent">
<path fill="#6cc644" stroke="black" d="M502,-1030.5C502,-1030.5 346,-1030.5 346,-1030.5 340,-1030.5 334,-1024.5 334,-1018.5 334,-1018.5 334,-981.5 334,-981.5 334,-975.5 340,-969.5 346,-969.5 346,-969.5 502,-969.5 502,-969.5 508,-969.5 514,-975.5 514,-981.5 514,-981.5 514,-1018.5 514,-1018.5 514,-1024.5 508,-1030.5 502,-1030.5"/>
<text text-anchor="middle" x="424" y="-1008.5" font-family="Sans" font-size="10.00">CAF::Process: Include an option</text>
<text text-anchor="middle" x="424" y="-997.5" font-family="Sans" font-size="10.00">to execute the command as an</text>
<text text-anchor="middle" x="424" y="-986.5" font-family="Sans" font-size="10.00">specific user</text>
</a>
</g>
</g>
<!-- CAF#257&#45;&gt;CAF#253 -->
<g id="edge15" class="edge"><title>CAF#257-&gt;CAF#253</title>
<path fill="none" stroke="black" stroke-width="2" d="M199.822,-1000C238.561,-1000 283.88,-1000 323.522,-1000"/>
<polygon fill="black" stroke="black" points="323.737,-1003.5 333.737,-1000 323.737,-996.5 323.737,-1003.5"/>
<text text-anchor="middle" x="254.782" y="-992" font-family="Sans" font-size="10.00">fixes</text>
</g>
<!-- CAF#110 -->
<g id="node10" class="node"><title>CAF#110</title>
<g id="a_node10"><a xlink:href="https://github.com/quattor/CAF/pull/110" xlink:title="CAF#110 (pull-request)" target="_parent">
<polygon fill="#6cc644" stroke="black" points="183.5,-1118 32.5,-1118 32.5,-1068 183.5,-1068 183.5,-1118"/>
<text text-anchor="middle" x="108" y="-1096" font-family="Sans" font-size="10.00">CAF::Download class: API</text>
<text text-anchor="middle" x="108" y="-1085" font-family="Sans" font-size="10.00">proposal</text>
</a>
</g>
</g>
<!-- CAF#120 -->
<g id="node11" class="node"><title>CAF#120</title>
<polygon fill="lightgrey" stroke="black" points="461,-1112.5 387,-1112.5 387,-1073.5 461,-1073.5 461,-1112.5"/>
<text text-anchor="middle" x="424" y="-1090.5" font-family="Sans" font-size="10.00">CAF#120</text>
</g>
<!-- CAF#110&#45;&gt;CAF#120 -->
<g id="edge16" class="edge"><title>CAF#110-&gt;CAF#120</title>
<path fill="none" stroke="black" stroke-dasharray="5,2" d="M183.812,-1093C243.718,-1093 325.856,-1093 376.623,-1093"/>
<polygon fill="none" stroke="black" points="376.651,-1096.5 386.651,-1093 376.651,-1089.5 376.651,-1096.5"/>
<text text-anchor="middle" x="265.255" y="-1085" font-family="Sans" font-size="10.00">requires</text>
</g>
<!-- configuration&#45;modules&#45;core#1572 -->
<g id="node12" class="node"><title>configuration-modules-core#1572</title>
<g id="a_node12"><a xlink:href="https://github.com/quattor/configuration-modules-core/pull/1572" xlink:title="configuration-modules-core#1572 (pull-request)" target="_parent">
<polygon fill="#6cc644" stroke="black" points="513.5,-856 334.5,-856 334.5,-806 513.5,-806 513.5,-856"/>
<text text-anchor="middle" x="424" y="-834" font-family="Sans" font-size="10.00">ncm-spma: fix dnf provider not</text>
<text text-anchor="middle" x="424" y="-823" font-family="Sans" font-size="10.00">to remove running kernel</text>
</a>
</g>
</g>
<!-- configuration&#45;modules&#45;core#1565 -->
<g id="node13" class="node"><title>configuration-modules-core#1565</title>
<g id="a_node13"><a xlink:href="https://github.com/quattor/configuration-modules-core/issues/1565" xlink:title="configuration-modules-core#1565 (issue)" target="_parent">
<path fill="#6cc644" stroke="black" d="M816.5,-855.5C816.5,-855.5 655.5,-855.5 655.5,-855.5 649.5,-855.5 643.5,-849.5 643.5,-843.5 643.5,-843.5 643.5,-806.5 643.5,-806.5 643.5,-800.5 649.5,-794.5 655.5,-794.5 655.5,-794.5 816.5,-794.5 816.5,-794.5 822.5,-794.5 828.5,-800.5 828.5,-806.5 828.5,-806.5 828.5,-843.5 828.5,-843.5 828.5,-849.5 822.5,-855.5 816.5,-855.5"/>
<text text-anchor="middle" x="736" y="-833.5" font-family="Sans" font-size="10.00">ncm-spma: dnf provider tries to</text>
<text text-anchor="middle" x="736" y="-822.5" font-family="Sans" font-size="10.00">remove running kernel-core and</text>
<text text-anchor="middle" x="736" y="-811.5" font-family="Sans" font-size="10.00">fail</text>
</a>
</g>
</g>
<!-- configuration&#45;modules&#45;core#1572&#45;&gt;configuration&#45;modules&#45;core#1565 -->
<g id="edge17" class="edge"><title>configuration-modules-core#1572-&gt;configuration-modules-core#1565</title>
<path fill="none" stroke="black" stroke-width="2" d="M513.834,-829.281C551.116,-828.559 594.685,-827.716 633.249,-826.969"/>
<polygon fill="black" stroke="black" points="633.529,-830.465 643.459,-826.772 633.393,-823.466 633.529,-830.465"/>
<text text-anchor="middle" x="566.316" y="-820.033" font-family="Sans" font-size="10.00">fixes</text>
</g>
<!-- configuration&#45;modules&#45;core#1570 -->
<g id="node14" class="node"><title>configuration-modules-core#1570</title>
<g id="a_node14"><a xlink:href="https://github.com/quattor/configuration-modules-core/pull/1570" xlink:title="configuration-modules-core#1570 (pull-request)" target="_parent">
<polygon fill="#6e5494" stroke="black" points="507.5,-788 340.5,-788 340.5,-738 507.5,-738 507.5,-788"/>
<text text-anchor="middle" x="424" y="-766" font-family="Sans" font-size="10.00">ncm-ntpd: Validate interface</text>
<text text-anchor="middle" x="424" y="-755" font-family="Sans" font-size="10.00">match option</text>
</a>
</g>
</g>
<!-- configuration&#45;modules&#45;core#1481 -->
<g id="node15" class="node"><title>configuration-modules-core#1481</title>
<g id="a_node15"><a xlink:href="https://github.com/quattor/configuration-modules-core/issues/1481" xlink:title="configuration-modules-core#1481 (issue)" target="_parent">
<path fill="#6e5494" stroke="black" d="M816,-776C816,-776 656,-776 656,-776 650,-776 644,-770 644,-764 644,-764 644,-738 644,-738 644,-732 650,-726 656,-726 656,-726 816,-726 816,-726 822,-726 828,-732 828,-738 828,-738 828,-764 828,-764 828,-770 822,-776 816,-776"/>
<text text-anchor="middle" x="736" y="-754" font-family="Sans" font-size="10.00">ncm-ntpd: Validate the `match`</text>
<text text-anchor="middle" x="736" y="-743" font-family="Sans" font-size="10.00">option of `interface` directive</text>
</a>
</g>
</g>
<!-- configuration&#45;modules&#45;core#1570&#45;&gt;configuration&#45;modules&#45;core#1481 -->
<g id="edge18" class="edge"><title>configuration-modules-core#1570-&gt;configuration-modules-core#1481</title>
<path fill="none" stroke="black" stroke-width="2" d="M507.667,-759.8C546.359,-758.302 592.802,-756.504 633.596,-754.925"/>
<polygon fill="black" stroke="black" points="633.981,-758.413 643.838,-754.529 633.71,-751.418 633.981,-758.413"/>
<text text-anchor="middle" x="563.403" y="-749.178" font-family="Sans" font-size="10.00">fixes</text>
</g>
<!-- configuration&#45;modules&#45;core#1567 -->
<g id="node16" class="node"><title>configuration-modules-core#1567</title>
<g id="a_node16"><a xlink:href="https://github.com/quattor/configuration-modules-core/pull/1567" xlink:title="configuration-modules-core#1567 (pull-request)" target="_parent">
<polygon fill="#6cc644" stroke="black" points="516.5,-720 331.5,-720 331.5,-670 516.5,-670 516.5,-720"/>
<text text-anchor="middle" x="424" y="-698" font-family="Sans" font-size="10.00">ncm-systemd: All Exec* options</text>
<text text-anchor="middle" x="424" y="-687" font-family="Sans" font-size="10.00">can be lists of strings</text>
</a>
</g>
</g>
<!-- configuration&#45;modules&#45;core#1262 -->
<g id="node17" class="node"><title>configuration-modules-core#1262</title>
<g id="a_node17"><a xlink:href="https://github.com/quattor/configuration-modules-core/issues/1262" xlink:title="configuration-modules-core#1262 (issue)" target="_parent">
<path fill="#6cc644" stroke="black" d="M823,-708C823,-708 649,-708 649,-708 643,-708 637,-702 637,-696 637,-696 637,-670 637,-670 637,-664 643,-658 649,-658 649,-658 823,-658 823,-658 829,-658 835,-664 835,-670 835,-670 835,-696 835,-696 835,-702 829,-708 823,-708"/>
<text text-anchor="middle" x="736" y="-686" font-family="Sans" font-size="10.00">ncm-systemd: ExecStart should be</text>
<text text-anchor="middle" x="736" y="-675" font-family="Sans" font-size="10.00">a list of string, not a string</text>
</a>
</g>
</g>
<!-- configuration&#45;modules&#45;core#1567&#45;&gt;configuration&#45;modules&#45;core#1262 -->
<g id="edge19" class="edge"><title>configuration-modules-core#1567-&gt;configuration-modules-core#1262</title>
<path fill="none" stroke="black" stroke-width="2" d="M516.752,-691.448C551.268,-690.112 590.834,-688.581 626.716,-687.192"/>
<polygon fill="black" stroke="black" points="626.874,-690.688 636.732,-686.804 626.604,-683.693 626.874,-690.688"/>
<text text-anchor="middle" x="564.921" y="-681.119" font-family="Sans" font-size="10.00">fixes</text>
</g>
<!-- configuration&#45;modules&#45;core#1554 -->
<g id="node18" class="node"><title>configuration-modules-core#1554</title>
<g id="a_node18"><a xlink:href="https://github.com/quattor/configuration-modules-core/pull/1554" xlink:title="configuration-modules-core#1554 (pull-request)" target="_parent">
<polygon fill="#6cc644" stroke="black" points="509,-652 339,-652 339,-602 509,-602 509,-652"/>
<text text-anchor="middle" x="424" y="-630" font-family="Sans" font-size="10.00">avoid removing empty list of</text>
<text text-anchor="middle" x="424" y="-619" font-family="Sans" font-size="10.00">packages</text>
</a>
</g>
</g>
<!-- configuration&#45;modules&#45;core#1553 -->
<g id="node19" class="node"><title>configuration-modules-core#1553</title>
<g id="a_node19"><a xlink:href="https://github.com/quattor/configuration-modules-core/issues/1553" xlink:title="configuration-modules-core#1553 (issue)" target="_parent">
<path fill="#6cc644" stroke="black" d="M816.5,-639.5C816.5,-639.5 655.5,-639.5 655.5,-639.5 649.5,-639.5 643.5,-633.5 643.5,-627.5 643.5,-627.5 643.5,-590.5 643.5,-590.5 643.5,-584.5 649.5,-578.5 655.5,-578.5 655.5,-578.5 816.5,-578.5 816.5,-578.5 822.5,-578.5 828.5,-584.5 828.5,-590.5 828.5,-590.5 828.5,-627.5 828.5,-627.5 828.5,-633.5 822.5,-639.5 816.5,-639.5"/>
<text text-anchor="middle" x="736" y="-617.5" font-family="Sans" font-size="10.00">ncm-spma: update_pkgs in yum</text>
<text text-anchor="middle" x="736" y="-606.5" font-family="Sans" font-size="10.00">plugin tries to remove empty</text>
<text text-anchor="middle" x="736" y="-595.5" font-family="Sans" font-size="10.00">list of packages</text>
</a>
</g>
</g>
<!-- configuration&#45;modules&#45;core#1554&#45;&gt;configuration&#45;modules&#45;core#1553 -->
<g id="edge20" class="edge"><title>configuration-modules-core#1554-&gt;configuration-modules-core#1553</title>
<path fill="none" stroke="black" stroke-width="2" d="M509.299,-622.105C547.563,-619.883 593.142,-617.237 633.29,-614.906"/>
<polygon fill="black" stroke="black" points="633.592,-618.394 643.372,-614.32 633.186,-611.406 633.592,-618.394"/>
<text text-anchor="middle" x="564.057" y="-610.229" font-family="Sans" font-size="10.00">fixes</text>
</g>
<!-- configuration&#45;modules&#45;core#1490 -->
<g id="node20" class="node"><title>configuration-modules-core#1490</title>
<g id="a_node20"><a xlink:href="https://github.com/quattor/configuration-modules-core/pull/1490" xlink:title="configuration-modules-core#1490 (pull-request)" target="_parent">
<polygon fill="#6e5494" stroke="black" points="507.5,-367.5 340.5,-367.5 340.5,-306.5 507.5,-306.5 507.5,-367.5"/>
<text text-anchor="middle" x="424" y="-345.5" font-family="Sans" font-size="10.00">ncm-ceph: Add support for</text>
<text text-anchor="middle" x="424" y="-334.5" font-family="Sans" font-size="10.00">orchestrator/cephadm under</text>
<text text-anchor="middle" x="424" y="-323.5" font-family="Sans" font-size="10.00">octopus</text>
</a>
</g>
</g>
<!-- configuration&#45;modules&#45;core#1463 -->
<g id="node21" class="node"><title>configuration-modules-core#1463</title>
<polygon fill="lightgrey" stroke="black" points="833.5,-221.5 638.5,-221.5 638.5,-182.5 833.5,-182.5 833.5,-221.5"/>
<text text-anchor="middle" x="736" y="-199.5" font-family="Sans" font-size="10.00">configuration-modules-core#1463</text>
</g>
<!-- configuration&#45;modules&#45;core#1490&#45;&gt;configuration&#45;modules&#45;core#1463 -->
<g id="edge21" class="edge"><title>configuration-modules-core#1490-&gt;configuration-modules-core#1463</title>
<path fill="none" stroke="black" stroke-dasharray="1,5" d="M507.751,-307.052C515.027,-303.856 522.202,-300.49 529,-297 580.101,-270.761 584.337,-248.943 637,-226 637.843,-225.633 638.693,-225.27 639.549,-224.913"/>
<polygon fill="black" stroke="black" points="648.919,-221.27 641.229,-229.088 644.258,-223.082 639.598,-224.894 639.598,-224.894 639.598,-224.894 644.258,-223.082 637.967,-220.7 648.919,-221.27 648.919,-221.27"/>
<text text-anchor="middle" x="557.133" y="-255.813" font-family="Sans" font-size="10.00">replaces</text>
</g>
<!-- configuration&#45;modules&#45;core#1464 -->
<g id="node22" class="node"><title>configuration-modules-core#1464</title>
<g id="a_node22"><a xlink:href="https://github.com/quattor/configuration-modules-core/pull/1464" xlink:title="configuration-modules-core#1464 (pull-request)" target="_parent">
<polygon fill="#6e5494" stroke="black" points="516,-583.5 332,-583.5 332,-522.5 516,-522.5 516,-583.5"/>
<text text-anchor="middle" x="424" y="-561.5" font-family="Sans" font-size="10.00">ncm-systemd: all pre and post</text>
<text text-anchor="middle" x="424" y="-550.5" font-family="Sans" font-size="10.00">exec commands now take a list</text>
<text text-anchor="middle" x="424" y="-539.5" font-family="Sans" font-size="10.00">instead of a string</text>
</a>
</g>
</g>
<!-- template&#45;library&#45;core#212 -->
<g id="node23" class="node"><title>template-library-core#212</title>
<g id="a_node23"><a xlink:href="https://github.com/quattor/template-library-core/pull/212" xlink:title="template-library-core#212 (pull-request)" target="_parent">
<polygon fill="#6e5494" stroke="black" points="823.5,-560.5 648.5,-560.5 648.5,-499.5 823.5,-499.5 823.5,-560.5"/>
<text text-anchor="middle" x="736" y="-538.5" font-family="Sans" font-size="10.00">Add a transitional type for</text>
<text text-anchor="middle" x="736" y="-527.5" font-family="Sans" font-size="10.00">strings being migrated to lists</text>
<text text-anchor="middle" x="736" y="-516.5" font-family="Sans" font-size="10.00">of strings</text>
</a>
</g>
</g>
<!-- configuration&#45;modules&#45;core#1464&#45;&gt;template&#45;library&#45;core#212 -->
<g id="edge22" class="edge"><title>configuration-modules-core#1464-&gt;template-library-core#212</title>
<path fill="none" stroke="black" stroke-dasharray="5,2" d="M516.334,-546.224C554.615,-543.383 599.168,-540.078 638.032,-537.194"/>
<polygon fill="none" stroke="black" points="638.593,-540.663 648.306,-536.432 638.075,-533.682 638.593,-540.663"/>
<text text-anchor="middle" x="562.323" y="-533.328" font-family="Sans" font-size="10.00">requires</text>
</g>
<!-- configuration&#45;modules&#45;core#1452 -->
<g id="node24" class="node"><title>configuration-modules-core#1452</title>
<g id="a_node24"><a xlink:href="https://github.com/quattor/configuration-modules-core/pull/1452" xlink:title="configuration-modules-core#1452 (pull-request)" target="_parent">
<polygon fill="#6cc644" stroke="black" points="510.5,-288 337.5,-288 337.5,-238 510.5,-238 510.5,-288"/>
<text text-anchor="middle" x="424" y="-266" font-family="Sans" font-size="10.00">ncm-metaconfig: ssh daemon</text>
<text text-anchor="middle" x="424" y="-255" font-family="Sans" font-size="10.00">configuration support</text>
</a>
</g>
</g>
<!-- configuration&#45;modules&#45;core#1377 -->
<g id="node25" class="node"><title>configuration-modules-core#1377</title>
<polygon fill="lightgrey" stroke="black" points="833.5,-164.5 638.5,-164.5 638.5,-125.5 833.5,-125.5 833.5,-164.5"/>
<text text-anchor="middle" x="736" y="-142.5" font-family="Sans" font-size="10.00">configuration-modules-core#1377</text>
</g>
<!-- configuration&#45;modules&#45;core#1452&#45;&gt;configuration&#45;modules&#45;core#1377 -->
<g id="edge23" class="edge"><title>configuration-modules-core#1452-&gt;configuration-modules-core#1377</title>
<path fill="none" stroke="black" stroke-dasharray="1,5" d="M479.177,-237.814C521.585,-218.635 582.339,-192.329 637,-173 642.45,-171.073 648.106,-169.181 653.825,-167.348"/>
<polygon fill="black" stroke="black" points="663.486,-164.321 655.289,-171.605 658.715,-165.816 653.943,-167.311 653.943,-167.311 653.943,-167.311 658.715,-165.816 652.598,-163.017 663.486,-164.321 663.486,-164.321"/>
<text text-anchor="middle" x="549.307" y="-190.535" font-family="Sans" font-size="10.00">replaces</text>
</g>
<!-- configuration&#45;modules&#45;core#1451 -->
<g id="node26" class="node"><title>configuration-modules-core#1451</title>
<polygon fill="lightgrey" stroke="black" points="833.5,-107.5 638.5,-107.5 638.5,-68.5 833.5,-68.5 833.5,-107.5"/>
<text text-anchor="middle" x="736" y="-85.5" font-family="Sans" font-size="10.00">configuration-modules-core#1451</text>
</g>
<!-- configuration&#45;modules&#45;core#1452&#45;&gt;configuration&#45;modules&#45;core#1451 -->
<g id="edge24" class="edge"><title>configuration-modules-core#1452-&gt;configuration-modules-core#1451</title>
<path fill="none" stroke="black" stroke-dasharray="5,2" d="M454.302,-237.961C493.523,-205.6 566.366,-149.451 637,-116 640.778,-114.211 644.694,-112.513 648.689,-110.906"/>
<polygon fill="none" stroke="black" points="650.024,-114.143 658.129,-107.318 647.537,-107.599 650.024,-114.143"/>
<text text-anchor="middle" x="531.444" y="-157.408" font-family="Sans" font-size="10.00">requires</text>
</g>
<!-- configuration&#45;modules&#45;core#1573 -->
<g id="node27" class="node"><title>configuration-modules-core#1573</title>
<g id="a_node27"><a xlink:href="https://github.com/quattor/configuration-modules-core/pull/1573" xlink:title="configuration-modules-core#1573 (pull-request)" target="_parent">
<polygon fill="#6cc644" stroke="black" points="198,-1186 18,-1186 18,-1136 198,-1136 198,-1186"/>
<text text-anchor="middle" x="108" y="-1164" font-family="Sans" font-size="10.00">ncm-metaconfig: add lvm_conf</text>
<text text-anchor="middle" x="108" y="-1153" font-family="Sans" font-size="10.00">config support</text>
</a>
</g>
</g>
<!-- configuration&#45;modules&#45;core#1566 -->
<g id="node28" class="node"><title>configuration-modules-core#1566</title>
<g id="a_node28"><a xlink:href="https://github.com/quattor/configuration-modules-core/issues/1566" xlink:title="configuration-modules-core#1566 (issue)" target="_parent">
<path fill="#6cc644" stroke="black" d="M504.5,-1186C504.5,-1186 343.5,-1186 343.5,-1186 337.5,-1186 331.5,-1180 331.5,-1174 331.5,-1174 331.5,-1148 331.5,-1148 331.5,-1142 337.5,-1136 343.5,-1136 343.5,-1136 504.5,-1136 504.5,-1136 510.5,-1136 516.5,-1142 516.5,-1148 516.5,-1148 516.5,-1174 516.5,-1174 516.5,-1180 510.5,-1186 504.5,-1186"/>
<text text-anchor="middle" x="424" y="-1164" font-family="Sans" font-size="10.00">ncm-metaconfig: add support to</text>
<text text-anchor="middle" x="424" y="-1153" font-family="Sans" font-size="10.00">manage lvm.conf</text>
</a>
</g>
</g>
<!-- configuration&#45;modules&#45;core#1573&#45;&gt;configuration&#45;modules&#45;core#1566 -->
<g id="edge25" class="edge"><title>configuration-modules-core#1573-&gt;configuration-modules-core#1566</title>
<path fill="none" stroke="black" stroke-width="2" d="M198.14,-1161C236.502,-1161 281.559,-1161 321.225,-1161"/>
<polygon fill="black" stroke="black" points="321.453,-1164.5 331.453,-1161 321.453,-1157.5 321.453,-1164.5"/>
<text text-anchor="middle" x="252.615" y="-1153" font-family="Sans" font-size="10.00">fixes</text>
</g>
<!-- configuration&#45;modules&#45;core#1507 -->
<g id="node29" class="node"><title>configuration-modules-core#1507</title>
<g id="a_node29"><a xlink:href="https://github.com/quattor/configuration-modules-core/pull/1507" xlink:title="configuration-modules-core#1507 (pull-request)" target="_parent">
<polygon fill="#6cc644" stroke="black" points="196,-1254 20,-1254 20,-1204 196,-1204 196,-1254"/>
<text text-anchor="middle" x="108" y="-1232" font-family="Sans" font-size="10.00">[WIP] ncm-spma: yumdnf: use</text>
<text text-anchor="middle" x="108" y="-1221" font-family="Sans" font-size="10.00">spmaleaves dnf plugin</text>
</a>
</g>
</g>
<!-- configuration&#45;modules&#45;core#1401 -->
<g id="node30" class="node"><title>configuration-modules-core#1401</title>
<polygon fill="lightgrey" stroke="black" points="521.5,-1248.5 326.5,-1248.5 326.5,-1209.5 521.5,-1209.5 521.5,-1248.5"/>
<text text-anchor="middle" x="424" y="-1226.5" font-family="Sans" font-size="10.00">configuration-modules-core#1401</text>
</g>
<!-- configuration&#45;modules&#45;core#1507&#45;&gt;configuration&#45;modules&#45;core#1401 -->
<g id="edge26" class="edge"><title>configuration-modules-core#1507-&gt;configuration-modules-core#1401</title>
<path fill="none" stroke="black" stroke-dasharray="5,2" d="M196.05,-1229C233.203,-1229 276.927,-1229 316.027,-1229"/>
<polygon fill="none" stroke="black" points="316.391,-1232.5 326.391,-1229 316.391,-1225.5 316.391,-1232.5"/>
<text text-anchor="middle" x="241.549" y="-1221" font-family="Sans" font-size="10.00">requires</text>
</g>
<!-- configuration&#45;modules&#45;core#1336 -->
<g id="node31" class="node"><title>configuration-modules-core#1336</title>
<g id="a_node31"><a xlink:href="https://github.com/quattor/configuration-modules-core/pull/1336" xlink:title="configuration-modules-core#1336 (pull-request)" target="_parent">
<polygon fill="#6cc644" stroke="black" points="195,-1365.5 21,-1365.5 21,-1304.5 195,-1304.5 195,-1365.5"/>
<text text-anchor="middle" x="108" y="-1343.5" font-family="Sans" font-size="10.00">ncm-network: Add support for</text>
<text text-anchor="middle" x="108" y="-1332.5" font-family="Sans" font-size="10.00">CAF::Service actions after</text>
<text text-anchor="middle" x="108" y="-1321.5" font-family="Sans" font-size="10.00">changes</text>
</a>
</g>
</g>
<!-- configuration&#45;modules&#45;core#1335 -->
<g id="node32" class="node"><title>configuration-modules-core#1335</title>
<g id="a_node32"><a xlink:href="https://github.com/quattor/configuration-modules-core/pull/1335" xlink:title="configuration-modules-core#1335 (pull-request)" target="_parent">
<polygon fill="#6cc644" stroke="black" points="517,-1396.5 331,-1396.5 331,-1335.5 517,-1335.5 517,-1396.5"/>
<text text-anchor="middle" x="424" y="-1374.5" font-family="Sans" font-size="10.00">ncm-metaconfig: Remove</text>
<text text-anchor="middle" x="424" y="-1363.5" font-family="Sans" font-size="10.00">caf_service_action type to allow</text>
<text text-anchor="middle" x="424" y="-1352.5" font-family="Sans" font-size="10.00">reuse</text>
</a>
</g>
</g>
<!-- configuration&#45;modules&#45;core#1336&#45;&gt;configuration&#45;modules&#45;core#1335 -->
<g id="edge27" class="edge"><title>configuration-modules-core#1336-&gt;configuration-modules-core#1335</title>
<path fill="none" stroke="black" stroke-dasharray="5,2" d="M195.217,-1343.51C234.047,-1347.35 280.184,-1351.9 320.746,-1355.9"/>
<polygon fill="none" stroke="black" points="320.636,-1359.41 330.931,-1356.91 321.323,-1352.44 320.636,-1359.41"/>
<text text-anchor="middle" x="242.868" y="-1342.19" font-family="Sans" font-size="10.00">requires</text>
</g>
<!-- configuration&#45;modules&#45;core#1071 -->
<g id="node33" class="node"><title>configuration-modules-core#1071</title>
<g id="a_node33"><a xlink:href="https://github.com/quattor/configuration-modules-core/issues/1071" xlink:title="configuration-modules-core#1071 (issue)" target="_parent">
<path fill="#6cc644" stroke="black" d="M510.5,-1317C510.5,-1317 337.5,-1317 337.5,-1317 331.5,-1317 325.5,-1311 325.5,-1305 325.5,-1305 325.5,-1279 325.5,-1279 325.5,-1273 331.5,-1267 337.5,-1267 337.5,-1267 510.5,-1267 510.5,-1267 516.5,-1267 522.5,-1273 522.5,-1279 522.5,-1279 522.5,-1305 522.5,-1305 522.5,-1311 516.5,-1317 510.5,-1317"/>
<text text-anchor="middle" x="424" y="-1295" font-family="Sans" font-size="10.00">ncm-network: support daemons to</text>
<text text-anchor="middle" x="424" y="-1284" font-family="Sans" font-size="10.00">restart after network changes</text>
</a>
</g>
</g>
<!-- configuration&#45;modules&#45;core#1336&#45;&gt;configuration&#45;modules&#45;core#1071 -->
<g id="edge28" class="edge"><title>configuration-modules-core#1336-&gt;configuration-modules-core#1071</title>
<path fill="none" stroke="black" stroke-width="2" d="M195.217,-1323.19C232.216,-1318.13 275.848,-1312.15 314.972,-1306.79"/>
<polygon fill="black" stroke="black" points="315.912,-1310.2 325.344,-1305.37 314.962,-1303.26 315.912,-1310.2"/>
<text text-anchor="middle" x="248.527" y="-1306.25" font-family="Sans" font-size="10.00">fixes</text>
</g>
<!-- template&#45;library&#45;core#191 -->
<g id="node34" class="node"><title>template-library-core#191</title>
<polygon fill="lightgrey" stroke="black" points="815.5,-1385.5 656.5,-1385.5 656.5,-1346.5 815.5,-1346.5 815.5,-1385.5"/>
<text text-anchor="middle" x="736" y="-1363.5" font-family="Sans" font-size="10.00">template-library-core#191</text>
</g>
<!-- configuration&#45;modules&#45;core#1335&#45;&gt;template&#45;library&#45;core#191 -->
<g id="edge29" class="edge"><title>configuration-modules-core#1335-&gt;template-library-core#191</title>
<path fill="none" stroke="black" stroke-dasharray="5,2" d="M517.171,-1366C557.975,-1366 605.772,-1366 646.18,-1366"/>
<polygon fill="none" stroke="black" points="646.285,-1369.5 656.285,-1366 646.285,-1362.5 646.285,-1369.5"/>
<text text-anchor="middle" x="566.484" y="-1358" font-family="Sans" font-size="10.00">requires</text>
</g>
<!-- configuration&#45;modules&#45;core#1148 -->
<g id="node35" class="node"><title>configuration-modules-core#1148</title>
<g id="a_node35"><a xlink:href="https://github.com/quattor/configuration-modules-core/pull/1148" xlink:title="configuration-modules-core#1148 (pull-request)" target="_parent">
<polygon fill="#6cc644" stroke="black" points="207.5,-1533 8.5,-1533 8.5,-1483 207.5,-1483 207.5,-1533"/>
<text text-anchor="middle" x="108" y="-1511" font-family="Sans" font-size="10.00">ncm-spma: Remove support from</text>
<text text-anchor="middle" x="108" y="-1500" font-family="Sans" font-size="10.00">groups from spma yumng backend</text>
</a>
</g>
</g>
<!-- configuration&#45;modules&#45;core#952 -->
<g id="node36" class="node"><title>configuration-modules-core#952</title>
<g id="a_node36"><a xlink:href="https://github.com/quattor/configuration-modules-core/issues/952" xlink:title="configuration-modules-core#952 (issue)" target="_parent">
<path fill="#6cc644" stroke="black" d="M517,-1533C517,-1533 331,-1533 331,-1533 325,-1533 319,-1527 319,-1521 319,-1521 319,-1495 319,-1495 319,-1489 325,-1483 331,-1483 331,-1483 517,-1483 517,-1483 523,-1483 529,-1489 529,-1495 529,-1495 529,-1521 529,-1521 529,-1527 523,-1533 517,-1533"/>
<text text-anchor="middle" x="424" y="-1511" font-family="Sans" font-size="10.00">ncm-spma (yumng): Remove support</text>
<text text-anchor="middle" x="424" y="-1500" font-family="Sans" font-size="10.00">for package groups</text>
</a>
</g>
</g>
<!-- configuration&#45;modules&#45;core#1148&#45;&gt;configuration&#45;modules&#45;core#952 -->
<g id="edge30" class="edge"><title>configuration-modules-core#1148-&gt;configuration-modules-core#952</title>
<path fill="none" stroke="black" stroke-width="2" d="M207.921,-1508C239.933,-1508 275.695,-1508 308.726,-1508"/>
<polygon fill="black" stroke="black" points="308.883,-1511.5 318.883,-1508 308.882,-1504.5 308.883,-1511.5"/>
<text text-anchor="middle" x="251.546" y="-1500" font-family="Sans" font-size="10.00">fixes</text>
</g>
<!-- configuration&#45;modules&#45;core#950 -->
<g id="node37" class="node"><title>configuration-modules-core#950</title>
<g id="a_node37"><a xlink:href="https://github.com/quattor/configuration-modules-core/issues/950" xlink:title="configuration-modules-core#950 (issue)" target="_parent">
<path fill="#6cc644" stroke="black" d="M199,-1465C199,-1465 17,-1465 17,-1465 11,-1465 5,-1459 5,-1453 5,-1453 5,-1427 5,-1427 5,-1421 11,-1415 17,-1415 17,-1415 199,-1415 199,-1415 205,-1415 211,-1421 211,-1427 211,-1427 211,-1453 211,-1453 211,-1459 205,-1465 199,-1465"/>
<text text-anchor="middle" x="108" y="-1443" font-family="Sans" font-size="10.00">ncm-spma: Remove support for</text>
<text text-anchor="middle" x="108" y="-1432" font-family="Sans" font-size="10.00">package groups from yum backends</text>
</a>
</g>
</g>
<!-- configuration&#45;modules&#45;core#951 -->
<g id="node38" class="node"><title>configuration-modules-core#951</title>
<g id="a_node38"><a xlink:href="https://github.com/quattor/configuration-modules-core/issues/951" xlink:title="configuration-modules-core#951 (issue)" target="_parent">
<path fill="#6cc644" stroke="black" d="M511,-1465C511,-1465 337,-1465 337,-1465 331,-1465 325,-1459 325,-1453 325,-1453 325,-1427 325,-1427 325,-1421 331,-1415 337,-1415 337,-1415 511,-1415 511,-1415 517,-1415 523,-1421 523,-1427 523,-1427 523,-1453 523,-1453 523,-1459 517,-1465 511,-1465"/>
<text text-anchor="middle" x="424" y="-1443" font-family="Sans" font-size="10.00">ncm-spma (yum): Remove support</text>
<text text-anchor="middle" x="424" y="-1432" font-family="Sans" font-size="10.00">for package groups</text>
</a>
</g>
</g>
<!-- configuration&#45;modules&#45;core#950&#45;&gt;configuration&#45;modules&#45;core#951 -->
<g id="edge31" class="edge"><title>configuration-modules-core#950-&gt;configuration-modules-core#951</title>
<path fill="none" stroke="black" stroke-dasharray="5,2" d="M211.381,-1440C244.386,-1440 281.071,-1440 314.502,-1440"/>
<polygon fill="none" stroke="black" points="314.765,-1443.5 324.765,-1440 314.765,-1436.5 314.765,-1443.5"/>
<text text-anchor="middle" x="248.107" y="-1432" font-family="Sans" font-size="10.00">requires</text>
</g>
<!-- configuration&#45;modules&#45;core#950&#45;&gt;configuration&#45;modules&#45;core#952 -->
<g id="edge32" class="edge"><title>configuration-modules-core#950-&gt;configuration-modules-core#952</title>
<path fill="none" stroke="black" stroke-dasharray="5,2" d="M211.381,-1462.17C242.602,-1468.93 277.116,-1476.41 309.053,-1483.32"/>
<polygon fill="none" stroke="black" points="308.361,-1486.75 318.876,-1485.45 309.843,-1479.91 308.361,-1486.75"/>
<text text-anchor="middle" x="245.372" y="-1465.86" font-family="Sans" font-size="10.00">requires</text>
</g>
<!-- template&#45;library&#45;grid#241 -->
<g id="node39" class="node"><title>template-library-grid#241</title>
<g id="a_node39"><a xlink:href="https://github.com/quattor/template-library-grid/pull/241" xlink:title="template-library-grid#241 (pull-request)" target="_parent">
<polygon fill="#6cc644" stroke="black" points="521,-504 327,-504 327,-454 521,-454 521,-504"/>
<text text-anchor="middle" x="424" y="-482" font-family="Sans" font-size="10.00">machines-types update based on</text>
<text text-anchor="middle" x="424" y="-471" font-family="Sans" font-size="10.00">new standard/machine-types/core</text>
</a>
</g>
</g>
<!-- template&#45;library&#45;standard#140 -->
<g id="node40" class="node"><title>template-library-standard#140</title>
<g id="a_node40"><a xlink:href="https://github.com/quattor/template-library-standard/pull/140" xlink:title="template-library-standard#140 (pull-request)" target="_parent">
<polygon fill="#6e5494" stroke="black" points="827,-481 645,-481 645,-431 827,-431 827,-481"/>
<text text-anchor="middle" x="736" y="-459" font-family="Sans" font-size="10.00">machine-types/core refactoring</text>
<text text-anchor="middle" x="736" y="-448" font-family="Sans" font-size="10.00">to make it more flexible</text>
</a>
</g>
</g>
<!-- template&#45;library&#45;grid#241&#45;&gt;template&#45;library&#45;standard#140 -->
<g id="edge33" class="edge"><title>template-library-grid#241-&gt;template-library-standard#140</title>
<path fill="none" stroke="black" stroke-dasharray="5,2" d="M521.387,-471.849C557.372,-469.179 598.301,-466.142 634.636,-463.446"/>
<polygon fill="none" stroke="black" points="635.041,-466.926 644.754,-462.696 634.523,-459.945 635.041,-466.926"/>
<text text-anchor="middle" x="562.849" y="-459.289" font-family="Sans" font-size="10.00">requires</text>
</g>
<!-- template&#45;library&#45;grid#232 -->
<g id="node41" class="node"><title>template-library-grid#232</title>
<g id="a_node41"><a xlink:href="https://github.com/quattor/template-library-grid/pull/232" xlink:title="template-library-grid#232 (pull-request)" target="_parent">
<polygon fill="#6cc644" stroke="black" points="191.5,-951 24.5,-951 24.5,-901 191.5,-901 191.5,-951"/>
<text text-anchor="middle" x="108" y="-929" font-family="Sans" font-size="10.00">arc-ce: Export arc-ce feature</text>
<text text-anchor="middle" x="108" y="-918" font-family="Sans" font-size="10.00">from aquilon at RAL</text>
</a>
</g>
</g>
<!-- template&#45;library&#45;grid#221 -->
<g id="node42" class="node"><title>template-library-grid#221</title>
<g id="a_node42"><a xlink:href="https://github.com/quattor/template-library-grid/issues/221" xlink:title="template-library-grid#221 (issue)" target="_parent">
<path fill="#6cc644" stroke="black" d="M501,-951C501,-951 347,-951 347,-951 341,-951 335,-945 335,-939 335,-939 335,-913 335,-913 335,-907 341,-901 347,-901 347,-901 501,-901 501,-901 507,-901 513,-907 513,-913 513,-913 513,-939 513,-939 513,-945 507,-951 501,-951"/>
<text text-anchor="middle" x="424" y="-929" font-family="Sans" font-size="10.00">Support for new CE types (ARC</text>
<text text-anchor="middle" x="424" y="-918" font-family="Sans" font-size="10.00">CE, HTCONDOR CE)</text>
</a>
</g>
</g>
<!-- template&#45;library&#45;grid#232&#45;&gt;template&#45;library&#45;grid#221 -->
<g id="edge34" class="edge"><title>template-library-grid#232-&gt;template-library-grid#221</title>
<path fill="none" stroke="black" stroke-width="2" d="M191.911,-926C232.702,-926 282.151,-926 324.823,-926"/>
<polygon fill="black" stroke="black" points="324.947,-929.5 334.947,-926 324.947,-922.5 324.947,-929.5"/>
<text text-anchor="middle" x="251.543" y="-918" font-family="Sans" font-size="10.00">fixes</text>
</g>
<!-- template&#45;library&#45;standard#151 -->
<g id="node43" class="node"><title>template-library-standard#151</title>
<g id="a_node43"><a xlink:href="https://github.com/quattor/template-library-standard/pull/151" xlink:title="template-library-standard#151 (pull-request)" target="_parent">
<polygon fill="#6cc644" stroke="black" points="190,-1601 26,-1601 26,-1551 190,-1551 190,-1601"/>
<text text-anchor="middle" x="108" y="-1579" font-family="Sans" font-size="10.00">support for muti options</text>
<text text-anchor="middle" x="108" y="-1568" font-family="Sans" font-size="10.00">settings for logical volumes</text>
</a>
</g>
</g>
<!-- template&#45;library&#45;standard#150 -->
<g id="node44" class="node"><title>template-library-standard#150</title>
<g id="a_node44"><a xlink:href="https://github.com/quattor/template-library-standard/issues/150" xlink:title="template-library-standard#150 (issue)" target="_parent">
<path fill="#6cc644" stroke="black" d="M500.5,-1601C500.5,-1601 347.5,-1601 347.5,-1601 341.5,-1601 335.5,-1595 335.5,-1589 335.5,-1589 335.5,-1563 335.5,-1563 335.5,-1557 341.5,-1551 347.5,-1551 347.5,-1551 500.5,-1551 500.5,-1551 506.5,-1551 512.5,-1557 512.5,-1563 512.5,-1563 512.5,-1589 512.5,-1589 512.5,-1595 506.5,-1601 500.5,-1601"/>
<text text-anchor="middle" x="424" y="-1579" font-family="Sans" font-size="10.00">way to set lvm raid type when</text>
<text text-anchor="middle" x="424" y="-1568" font-family="Sans" font-size="10.00">vol type = lvm</text>
</a>
</g>
</g>
<!-- template&#45;library&#45;standard#151&#45;&gt;template&#45;library&#45;standard#150 -->
<g id="edge35" class="edge"><title>template-library-standard#151-&gt;template-library-standard#150</title>
<path fill="none" stroke="black" stroke-width="2" d="M190.271,-1576C231.574,-1576 282.071,-1576 325.459,-1576"/>
<polygon fill="black" stroke="black" points="325.461,-1579.5 335.461,-1576 325.461,-1572.5 325.461,-1579.5"/>
<text text-anchor="middle" x="251.071" y="-1568" font-family="Sans" font-size="10.00">fixes</text>
</g>
</g>
</svg>
