<?xml version="1.0" encoding="UTF-8" standalone="no"?>
<?xml-stylesheet href="relationships.css" type="text/css"?>
<!-- Generated by graphviz version 2.30.1 (20200930.0103)
 -->
<!-- Title: Dependencies Pages: 1 -->
<svg xmlns="http://www.w3.org/2000/svg" xmlns:xlink="http://www.w3.org/1999/xlink" width="1174pt" height="2152pt" viewBox="0.00 0.00 1174.00 2152.00">
<g id="graph0" class="graph" transform="scale(1 1) rotate(0) translate(4 2148)">
<title>Dependencies</title>
<polygon fill="white" stroke="white" points="-4,5 -4,-2148 1171,-2148 1171,5 -4,5"/>
<g id="clust3" class="cluster"><title>cluster_repo_aquilon</title>
<polygon fill="none" stroke="black" points="66,-1825 66,-2136 557,-2136 557,-1825 66,-1825"/>
<text text-anchor="middle" x="311.5" y="-2122.4" font-family="Sans" font-size="12.00">aquilon</text>
</g>
<g id="clust2" class="cluster"><title>cluster_milestone_21.8</title>
<polygon fill="none" stroke="black" points="28,-681 28,-1380 630,-1380 630,-681 28,-681"/>
<text text-anchor="middle" x="329" y="-1366.4" font-family="Sans" font-size="12.00">21.8</text>
</g>
<g id="clust1" class="cluster"><title>cluster_milestone_21.4</title>
<polygon fill="none" stroke="black" points="378,-106 378,-397 902,-397 902,-106 378,-106"/>
<text text-anchor="middle" x="640" y="-383.4" font-family="Sans" font-size="12.00">21.4</text>
</g>
<g id="clust4" class="cluster"><title>cluster_milestone_21.12</title>
<polygon fill="none" stroke="black" points="47,-1388 47,-1584 603,-1584 603,-1388 47,-1388"/>
<text text-anchor="middle" x="325" y="-1570.4" font-family="Sans" font-size="12.00">21.12</text>
</g>
<!-- aii#328 -->
<g id="node1" class="node"><title>aii#328</title>
<g id="a_node1"><a xlink:href="https://github.com/quattor/aii/pull/328" xlink:title="aii-ks: generate ks post as ansible playbook" target="_parent">
<polygon fill="#6cc644" stroke="black" points="177.5,-1351 90.5,-1351 90.5,-1301 177.5,-1301 177.5,-1351"/>
<text text-anchor="middle" x="134" y="-1329" font-family="Sans" font-size="10.00">pull-request</text>
<text text-anchor="middle" x="134" y="-1318" font-family="Sans" font-size="10.00">aii#328</text>
</a>
</g>
</g>
<!-- aii#316 -->
<g id="node2" class="node"><title>aii#316</title>
<g id="a_node2"><a xlink:href="https://github.com/quattor/aii/pull/316" xlink:title="aii-ks: generate kickstart repo entries based on SPMA configuration" target="_parent">
<polygon fill="#6cc644" stroke="black" points="527.5,-1351 440.5,-1351 440.5,-1301 527.5,-1301 527.5,-1351"/>
<text text-anchor="middle" x="484" y="-1329" font-family="Sans" font-size="10.00">pull-request</text>
<text text-anchor="middle" x="484" y="-1318" font-family="Sans" font-size="10.00">aii#316</text>
</a>
</g>
</g>
<!-- aii#328&#45;&gt;aii#316 -->
<g id="edge1" class="edge"><title>aii#328-&gt;aii#316</title>
<path fill="none" stroke="black" stroke-dasharray="5,2" d="M177.672,-1326C241.287,-1326 360.896,-1326 430.02,-1326"/>
<polygon fill="none" stroke="black" points="430.252,-1329.5 440.252,-1326 430.252,-1322.5 430.252,-1329.5"/>
<text text-anchor="middle" x="307" y="-1329" font-family="Sans" font-size="10.00">requires</text>
</g>
<!-- aii#314 -->
<g id="node5" class="node"><title>aii#314</title>
<polygon fill="lightgrey" stroke="black" points="829.5,-1373.5 762.5,-1373.5 762.5,-1334.5 829.5,-1334.5 829.5,-1373.5"/>
<text text-anchor="middle" x="796" y="-1351.5" font-family="Sans" font-size="10.00">aii#314</text>
</g>
<!-- aii#316&#45;&gt;aii#314 -->
<g id="edge3" class="edge"><title>aii#316-&gt;aii#314</title>
<path fill="none" stroke="black" stroke-dasharray="5,2" d="M527.779,-1329.86C586.85,-1335.2 692.791,-1344.77 751.987,-1350.11"/>
<polygon fill="none" stroke="black" points="751.849,-1353.62 762.123,-1351.03 752.479,-1346.65 751.849,-1353.62"/>
<text text-anchor="middle" x="660" y="-1347" font-family="Sans" font-size="10.00">requires</text>
</g>
<!-- aii#315 -->
<g id="node6" class="node"><title>aii#315</title>
<polygon fill="lightgrey" stroke="black" points="829.5,-1316.5 762.5,-1316.5 762.5,-1277.5 829.5,-1277.5 829.5,-1316.5"/>
<text text-anchor="middle" x="796" y="-1294.5" font-family="Sans" font-size="10.00">aii#315</text>
</g>
<!-- aii#316&#45;&gt;aii#315 -->
<g id="edge4" class="edge"><title>aii#316-&gt;aii#315</title>
<path fill="none" stroke="black" stroke-dasharray="5,2" d="M527.779,-1322C586.85,-1316.47 692.791,-1306.56 751.987,-1301.02"/>
<polygon fill="none" stroke="black" points="752.493,-1304.49 762.123,-1300.08 751.841,-1297.52 752.493,-1304.49"/>
<text text-anchor="middle" x="660" y="-1315" font-family="Sans" font-size="10.00">requires</text>
</g>
<!-- aii#325 -->
<g id="node3" class="node"><title>aii#325</title>
<g id="a_node3"><a xlink:href="https://github.com/quattor/aii/pull/325" xlink:title="Use wipefs for RHEL6+" target="_parent">
<polygon fill="#6cc644" stroke="black" points="177.5,-1079 90.5,-1079 90.5,-1029 177.5,-1029 177.5,-1079"/>
<text text-anchor="middle" x="134" y="-1057" font-family="Sans" font-size="10.00">pull-request</text>
<text text-anchor="middle" x="134" y="-1046" font-family="Sans" font-size="10.00">aii#325</text>
</a>
</g>
</g>
<!-- ncm&#45;lib&#45;blockdevices#93 -->
<g id="node4" class="node"><title>ncm-lib-blockdevices#93</title>
<polygon fill="lightgrey" stroke="black" points="560.5,-672.5 407.5,-672.5 407.5,-633.5 560.5,-633.5 560.5,-672.5"/>
<text text-anchor="middle" x="484" y="-650.5" font-family="Sans" font-size="10.00">ncm-lib-blockdevices#93</text>
</g>
<!-- aii#325&#45;&gt;ncm&#45;lib&#45;blockdevices#93 -->
<g id="edge2" class="edge"><title>aii#325-&gt;ncm-lib-blockdevices#93</title>
<path fill="none" stroke="black" stroke-dasharray="5,2" d="M177.525,-1054.13C206.86,-1051.89 244.64,-1043.99 268,-1020 271.408,-1016.5 342.46,-680.367 346,-677 359.932,-663.75 378.45,-656.421 397.354,-652.611"/>
<polygon fill="none" stroke="black" points="397.981,-656.055 407.252,-650.927 396.807,-649.154 397.981,-656.055"/>
<text text-anchor="middle" x="307" y="-940" font-family="Sans" font-size="10.00">requires</text>
</g>
<!-- aii#299 -->
<g id="node7" class="node"><title>aii#299</title>
<g id="a_node7"><a xlink:href="https://github.com/quattor/aii/pull/299" xlink:title="aii-dhcp: support optional hostname ip verification" target="_parent">
<polygon fill="#6cc644" stroke="black" points="177.5,-1283 90.5,-1283 90.5,-1233 177.5,-1233 177.5,-1283"/>
<text text-anchor="middle" x="134" y="-1261" font-family="Sans" font-size="10.00">pull-request</text>
<text text-anchor="middle" x="134" y="-1250" font-family="Sans" font-size="10.00">aii#299</text>
</a>
</g>
</g>
<!-- aii#296 -->
<g id="node8" class="node"><title>aii#296</title>
<g id="a_node8"><a xlink:href="https://github.com/quattor/aii/pull/296" xlink:title="DHCP plugin updates" target="_parent">
<polygon fill="#6cc644" stroke="black" points="527.5,-1283 440.5,-1283 440.5,-1233 527.5,-1233 527.5,-1283"/>
<text text-anchor="middle" x="484" y="-1261" font-family="Sans" font-size="10.00">pull-request</text>
<text text-anchor="middle" x="484" y="-1250" font-family="Sans" font-size="10.00">aii#296</text>
</a>
</g>
</g>
<!-- aii#299&#45;&gt;aii#296 -->
<g id="edge5" class="edge"><title>aii#299-&gt;aii#296</title>
<path fill="none" stroke="black" stroke-dasharray="5,2" d="M177.672,-1258C241.287,-1258 360.896,-1258 430.02,-1258"/>
<polygon fill="none" stroke="black" points="430.252,-1261.5 440.252,-1258 430.252,-1254.5 430.252,-1261.5"/>
<text text-anchor="middle" x="307" y="-1261" font-family="Sans" font-size="10.00">requires</text>
</g>
<!-- aii#280 -->
<g id="node9" class="node"><title>aii#280</title>
<g id="a_node9"><a xlink:href="https://github.com/quattor/aii/pull/280" xlink:title="Support active configuration attribute for plugins" target="_parent">
<polygon fill="#6cc644" stroke="black" points="177.5,-1011 90.5,-1011 90.5,-961 177.5,-961 177.5,-1011"/>
<text text-anchor="middle" x="134" y="-989" font-family="Sans" font-size="10.00">pull-request</text>
<text text-anchor="middle" x="134" y="-978" font-family="Sans" font-size="10.00">aii#280</text>
</a>
</g>
</g>
<!-- aii#209 -->
<g id="node10" class="node"><title>aii#209</title>
<g id="a_node10"><a xlink:href="https://github.com/quattor/aii/issues/209" xlink:title="support ACTIVE_CONFIG" target="_parent">
<ellipse fill="#6cc644" stroke="black" cx="484" cy="-935" rx="47.2526" ry="35.2113"/>
<text text-anchor="middle" x="484" y="-938" font-family="Sans" font-size="10.00">issue</text>
<text text-anchor="middle" x="484" y="-927" font-family="Sans" font-size="10.00">aii#209</text>
</a>
</g>
</g>
<!-- aii#280&#45;&gt;aii#209 -->
<g id="edge6" class="edge"><title>aii#280-&gt;aii#209</title>
<path fill="none" stroke="black" stroke-width="2" d="M177.672,-979.746C240.466,-970.544 357.819,-953.346 427.32,-943.16"/>
<polygon fill="black" stroke="black" points="427.828,-946.623 437.214,-941.71 426.813,-939.697 427.828,-946.623"/>
<text text-anchor="middle" x="307" y="-967" font-family="Sans" font-size="10.00">fixes</text>
</g>
<!-- ncm&#45;ncd#74 -->
<g id="node11" class="node"><title>ncm-ncd#74</title>
<polygon fill="lightgrey" stroke="black" points="529.5,-615.5 438.5,-615.5 438.5,-576.5 529.5,-576.5 529.5,-615.5"/>
<text text-anchor="middle" x="484" y="-593.5" font-family="Sans" font-size="10.00">ncm-ncd#74</text>
</g>
<!-- aii#280&#45;&gt;ncm&#45;ncd#74 -->
<g id="edge7" class="edge"><title>aii#280-&gt;ncm-ncd#74</title>
<path fill="none" stroke="black" stroke-dasharray="5,2" d="M177.541,-987.356C207.683,-985.811 246.452,-978.25 268,-952 314.88,-894.891 235.536,-673.968 286,-620 321.367,-582.177 383.107,-580.493 428.063,-585.55"/>
<polygon fill="none" stroke="black" points="427.882,-589.055 438.243,-586.841 428.763,-582.111 427.882,-589.055"/>
<text text-anchor="middle" x="307" y="-623" font-family="Sans" font-size="10.00">requires</text>
</g>
<!-- aii#203 -->
<g id="node12" class="node"><title>aii#203</title>
<polygon fill="lightgrey" stroke="black" points="517.5,-558.5 450.5,-558.5 450.5,-519.5 517.5,-519.5 517.5,-558.5"/>
<text text-anchor="middle" x="484" y="-536.5" font-family="Sans" font-size="10.00">aii#203</text>
</g>
<!-- aii#280&#45;&gt;aii#203 -->
<g id="edge8" class="edge"><title>aii#280-&gt;aii#203</title>
<path fill="none" stroke="black" stroke-dasharray="5,2" d="M177.587,-987.393C207.751,-985.867 246.528,-978.313 268,-952 294.163,-919.938 259.25,-611.573 286,-580 323.292,-535.984 394.446,-531.694 440.258,-534.194"/>
<polygon fill="none" stroke="black" points="440.26,-537.702 450.474,-534.886 440.734,-530.718 440.26,-537.702"/>
<text text-anchor="middle" x="307" y="-583" font-family="Sans" font-size="10.00">requires</text>
</g>
<!-- aii#210 -->
<g id="node13" class="node"><title>aii#210</title>
<polygon fill="lightgrey" stroke="black" points="517.5,-501.5 450.5,-501.5 450.5,-462.5 517.5,-462.5 517.5,-501.5"/>
<text text-anchor="middle" x="484" y="-479.5" font-family="Sans" font-size="10.00">aii#210</text>
</g>
<!-- aii#280&#45;&gt;aii#210 -->
<g id="edge9" class="edge"><title>aii#280-&gt;aii#210</title>
<path fill="none" stroke="black" stroke-dasharray="1,5" d="M177.625,-987.425C207.809,-985.914 246.594,-978.366 268,-952 297.091,-916.168 260.105,-575.206 286,-537 319.246,-487.947 392.86,-479.475 440.085,-479.521"/>
<polygon fill="black" stroke="black" points="450.319,-479.664 440.257,-484.024 445.319,-479.594 440.32,-479.524 440.32,-479.524 440.32,-479.524 445.319,-479.594 440.382,-475.025 450.319,-479.664 450.319,-479.664"/>
<text text-anchor="middle" x="307" y="-540" font-family="Sans" font-size="10.00">replaces</text>
</g>
<!-- CAF#257 -->
<g id="node14" class="node"><title>CAF#257</title>
<g id="a_node14"><a xlink:href="https://github.com/quattor/CAF/pull/257" xlink:title="Process: run process as another user" target="_parent">
<polygon fill="#6cc644" stroke="black" points="177.5,-1545 90.5,-1545 90.5,-1495 177.5,-1495 177.5,-1545"/>
<text text-anchor="middle" x="134" y="-1523" font-family="Sans" font-size="10.00">pull-request</text>
<text text-anchor="middle" x="134" y="-1512" font-family="Sans" font-size="10.00">CAF#257</text>
</a>
</g>
</g>
<!-- CAF#253 -->
<g id="node15" class="node"><title>CAF#253</title>
<g id="a_node15"><a xlink:href="https://github.com/quattor/CAF/issues/253" xlink:title="CAF::Process: Include an option to execute the command as an specific user" target="_parent">
<ellipse fill="#6cc644" stroke="black" cx="484" cy="-1520" rx="52.1524" ry="35.2113"/>
<text text-anchor="middle" x="484" y="-1523" font-family="Sans" font-size="10.00">issue</text>
<text text-anchor="middle" x="484" y="-1512" font-family="Sans" font-size="10.00">CAF#253</text>
</a>
</g>
</g>
<!-- CAF#257&#45;&gt;CAF#253 -->
<g id="edge10" class="edge"><title>CAF#257-&gt;CAF#253</title>
<path fill="none" stroke="black" stroke-width="2" d="M177.672,-1520C238.737,-1520 351.395,-1520 421.469,-1520"/>
<polygon fill="black" stroke="black" points="421.488,-1523.5 431.488,-1520 421.488,-1516.5 421.488,-1523.5"/>
<text text-anchor="middle" x="307" y="-1523" font-family="Sans" font-size="10.00">fixes</text>
</g>
<!-- CAF#110 -->
<g id="node16" class="node"><title>CAF#110</title>
<g id="a_node16"><a xlink:href="https://github.com/quattor/CAF/pull/110" xlink:title="CAF::Download class: API proposal" target="_parent">
<polygon fill="#6cc644" stroke="black" points="177.5,-943 90.5,-943 90.5,-893 177.5,-893 177.5,-943"/>
<text text-anchor="middle" x="134" y="-921" font-family="Sans" font-size="10.00">pull-request</text>
<text text-anchor="middle" x="134" y="-910" font-family="Sans" font-size="10.00">CAF#110</text>
</a>
</g>
</g>
<!-- CAF#120 -->
<g id="node17" class="node"><title>CAF#120</title>
<polygon fill="lightgrey" stroke="black" points="521,-444.5 447,-444.5 447,-405.5 521,-405.5 521,-444.5"/>
<text text-anchor="middle" x="484" y="-422.5" font-family="Sans" font-size="10.00">CAF#120</text>
</g>
<!-- CAF#110&#45;&gt;CAF#120 -->
<g id="edge11" class="edge"><title>CAF#110-&gt;CAF#120</title>
<path fill="none" stroke="black" stroke-dasharray="5,2" d="M177.641,-919.437C207.832,-917.933 246.62,-910.388 268,-884 298.453,-846.414 253.187,-484.545 286,-449 323.48,-408.4 391.312,-409.249 436.759,-415.549"/>
<polygon fill="none" stroke="black" points="436.251,-419.012 446.664,-417.056 437.304,-412.092 436.251,-419.012"/>
<text text-anchor="middle" x="307" y="-452" font-family="Sans" font-size="10.00">requires</text>
</g>
<!-- CCM#203 -->
<g id="node18" class="node"><title>CCM#203</title>
<g id="a_node18"><a xlink:href="https://github.com/quattor/CCM/pull/203" xlink:title="TextRender: support yaml multi document" target="_parent">
<polygon fill="#6cc644" stroke="black" points="527.5,-368 440.5,-368 440.5,-318 527.5,-318 527.5,-368"/>
<text text-anchor="middle" x="484" y="-346" font-family="Sans" font-size="10.00">pull-request</text>
<text text-anchor="middle" x="484" y="-335" font-family="Sans" font-size="10.00">CCM#203</text>
</a>
</g>
</g>
<!-- CAF#274 -->
<g id="node19" class="node"><title>CAF#274</title>
<g id="a_node19"><a xlink:href="https://github.com/quattor/CAF/pull/274" xlink:title="TextRender: support yaml multi doc rendering" target="_parent">
<polygon fill="#6cc644" stroke="black" points="839.5,-368 752.5,-368 752.5,-318 839.5,-318 839.5,-368"/>
<text text-anchor="middle" x="796" y="-346" font-family="Sans" font-size="10.00">pull-request</text>
<text text-anchor="middle" x="796" y="-335" font-family="Sans" font-size="10.00">CAF#274</text>
</a>
</g>
</g>
<!-- CCM#203&#45;&gt;CAF#274 -->
<g id="edge12" class="edge"><title>CCM#203-&gt;CAF#274</title>
<path fill="none" stroke="black" stroke-dasharray="5,2" d="M527.779,-343C583.675,-343 681.538,-343 742.051,-343"/>
<polygon fill="none" stroke="black" points="742.163,-346.5 752.163,-343 742.163,-339.5 742.163,-346.5"/>
<text text-anchor="middle" x="660" y="-346" font-family="Sans" font-size="10.00">requires</text>
</g>
<!-- configuration&#45;modules&#45;core#1489 -->
<g id="node20" class="node"><title>configuration-modules-core#1489</title>
<g id="a_node20"><a xlink:href="https://github.com/quattor/configuration-modules-core/pull/1489" xlink:title="ncm-systemd: add support for resource control in units" target="_parent">
<polygon fill="#6cc644" stroke="black" points="581.5,-300 386.5,-300 386.5,-250 581.5,-250 581.5,-300"/>
<text text-anchor="middle" x="484" y="-278" font-family="Sans" font-size="10.00">pull-request</text>
<text text-anchor="middle" x="484" y="-267" font-family="Sans" font-size="10.00">configuration-modules-core#1489</text>
</a>
</g>
</g>
<!-- configuration&#45;modules&#45;core#1484 -->
<g id="node21" class="node"><title>configuration-modules-core#1484</title>
<g id="a_node21"><a xlink:href="https://github.com/quattor/configuration-modules-core/pull/1484" xlink:title="Replace travis checks with github action" target="_parent">
<polygon fill="#6e5494" stroke="black" points="893.5,-300 698.5,-300 698.5,-250 893.5,-250 893.5,-300"/>
<text text-anchor="middle" x="796" y="-278" font-family="Sans" font-size="10.00">pull-request</text>
<text text-anchor="middle" x="796" y="-267" font-family="Sans" font-size="10.00">configuration-modules-core#1484</text>
</a>
</g>
</g>
<!-- configuration&#45;modules&#45;core#1489&#45;&gt;configuration&#45;modules&#45;core#1484 -->
<g id="edge13" class="edge"><title>configuration-modules-core#1489-&gt;configuration-modules-core#1484</title>
<path fill="none" stroke="black" stroke-dasharray="5,2" d="M581.811,-275C615.604,-275 653.714,-275 688.269,-275"/>
<polygon fill="none" stroke="black" points="688.391,-278.5 698.391,-275 688.391,-271.5 688.391,-278.5"/>
<text text-anchor="middle" x="660" y="-278" font-family="Sans" font-size="10.00">requires</text>
</g>
<!-- configuration&#45;modules&#45;core#1456 -->
<g id="node22" class="node"><title>configuration-modules-core#1456</title>
<g id="a_node22"><a xlink:href="https://github.com/quattor/configuration-modules-core/pull/1456" xlink:title="ncm-opennebula: include 5.12.x support" target="_parent">
<polygon fill="#6cc644" stroke="black" points="231.5,-875 36.5,-875 36.5,-825 231.5,-825 231.5,-875"/>
<text text-anchor="middle" x="134" y="-853" font-family="Sans" font-size="10.00">pull-request</text>
<text text-anchor="middle" x="134" y="-842" font-family="Sans" font-size="10.00">configuration-modules-core#1456</text>
</a>
</g>
</g>
<!-- configuration&#45;modules&#45;core#1427 -->
<g id="node23" class="node"><title>configuration-modules-core#1427</title>
<g id="a_node23"><a xlink:href="https://github.com/quattor/configuration-modules-core/pull/1427" xlink:title="ncm-opennebula: RDM datastore support" target="_parent">
<polygon fill="#6cc644" stroke="black" points="581.5,-232 386.5,-232 386.5,-182 581.5,-182 581.5,-232"/>
<text text-anchor="middle" x="484" y="-210" font-family="Sans" font-size="10.00">pull-request</text>
<text text-anchor="middle" x="484" y="-199" font-family="Sans" font-size="10.00">configuration-modules-core#1427</text>
</a>
</g>
</g>
<!-- configuration&#45;modules&#45;core#1456&#45;&gt;configuration&#45;modules&#45;core#1427 -->
<g id="edge14" class="edge"><title>configuration-modules-core#1456-&gt;configuration-modules-core#1427</title>
<path fill="none" stroke="black" stroke-dasharray="5,2" d="M231.655,-841.033C245.668,-835.629 258.531,-827.653 268,-816 296.546,-780.869 277.291,-453.421 286,-409 301.255,-331.196 287.211,-294.198 346,-241 354.944,-232.907 365.512,-226.669 376.75,-221.872"/>
<polygon fill="none" stroke="black" points="378.26,-225.041 386.327,-218.173 375.738,-218.511 378.26,-225.041"/>
<text text-anchor="middle" x="307" y="-412" font-family="Sans" font-size="10.00">requires</text>
</g>
<!-- configuration&#45;modules&#45;core#1391 -->
<g id="node27" class="node"><title>configuration-modules-core#1391</title>
<g id="a_node27"><a xlink:href="https://github.com/quattor/configuration-modules-core/pull/1391" xlink:title="ncm-opennebula: include OpenNebula 5.8.x and vmgroups support" target="_parent">
<polygon fill="#6cc644" stroke="black" points="893.5,-232 698.5,-232 698.5,-182 893.5,-182 893.5,-232"/>
<text text-anchor="middle" x="796" y="-210" font-family="Sans" font-size="10.00">pull-request</text>
<text text-anchor="middle" x="796" y="-199" font-family="Sans" font-size="10.00">configuration-modules-core#1391</text>
</a>
</g>
</g>
<!-- configuration&#45;modules&#45;core#1427&#45;&gt;configuration&#45;modules&#45;core#1391 -->
<g id="edge17" class="edge"><title>configuration-modules-core#1427-&gt;configuration-modules-core#1391</title>
<path fill="none" stroke="black" stroke-dasharray="5,2" d="M581.811,-207C615.604,-207 653.714,-207 688.269,-207"/>
<polygon fill="none" stroke="black" points="688.391,-210.5 698.391,-207 688.391,-203.5 688.391,-210.5"/>
<text text-anchor="middle" x="660" y="-210" font-family="Sans" font-size="10.00">requires</text>
</g>
<!-- configuration&#45;modules&#45;core#1452 -->
<g id="node24" class="node"><title>configuration-modules-core#1452</title>
<g id="a_node24"><a xlink:href="https://github.com/quattor/configuration-modules-core/pull/1452" xlink:title="ncm-metaconfig: ssh daemon configuration support" target="_parent">
<polygon fill="#6cc644" stroke="black" points="231.5,-807 36.5,-807 36.5,-757 231.5,-757 231.5,-807"/>
<text text-anchor="middle" x="134" y="-785" font-family="Sans" font-size="10.00">pull-request</text>
<text text-anchor="middle" x="134" y="-774" font-family="Sans" font-size="10.00">configuration-modules-core#1452</text>
</a>
</g>
</g>
<!-- configuration&#45;modules&#45;core#1377 -->
<g id="node25" class="node"><title>configuration-modules-core#1377</title>
<polygon fill="lightgrey" stroke="black" points="581.5,-95.5 386.5,-95.5 386.5,-56.5 581.5,-56.5 581.5,-95.5"/>
<text text-anchor="middle" x="484" y="-73.5" font-family="Sans" font-size="10.00">configuration-modules-core#1377</text>
</g>
<!-- configuration&#45;modules&#45;core#1452&#45;&gt;configuration&#45;modules&#45;core#1377 -->
<g id="edge15" class="edge"><title>configuration-modules-core#1452-&gt;configuration-modules-core#1377</title>
<path fill="none" stroke="black" stroke-dasharray="1,5" d="M231.785,-773.138C245.783,-767.722 258.607,-759.714 268,-748 308.125,-697.958 262.598,-230.721 286,-171 300.827,-133.162 310.759,-122.239 346,-102 355.483,-96.5539 365.885,-92.2202 376.587,-88.7759"/>
<polygon fill="black" stroke="black" points="386.481,-85.8565 378.163,-93.0026 381.685,-87.2715 376.89,-88.6866 376.89,-88.6866 376.89,-88.6866 381.685,-87.2715 375.616,-84.3706 386.481,-85.8565 386.481,-85.8565"/>
<text text-anchor="middle" x="307" y="-174" font-family="Sans" font-size="10.00">replaces</text>
</g>
<!-- configuration&#45;modules&#45;core#1451 -->
<g id="node26" class="node"><title>configuration-modules-core#1451</title>
<g id="a_node26"><a xlink:href="https://github.com/quattor/configuration-modules-core/pull/1451" xlink:title="ncm-metaconfig: support running arbitrary commands in various steps" target="_parent">
<polygon fill="#6cc644" stroke="black" points="581.5,-164 386.5,-164 386.5,-114 581.5,-114 581.5,-164"/>
<text text-anchor="middle" x="484" y="-142" font-family="Sans" font-size="10.00">pull-request</text>
<text text-anchor="middle" x="484" y="-131" font-family="Sans" font-size="10.00">configuration-modules-core#1451</text>
</a>
</g>
</g>
<!-- configuration&#45;modules&#45;core#1452&#45;&gt;configuration&#45;modules&#45;core#1451 -->
<g id="edge16" class="edge"><title>configuration-modules-core#1452-&gt;configuration-modules-core#1451</title>
<path fill="none" stroke="black" stroke-dasharray="5,2" d="M231.739,-773.101C245.742,-767.689 258.581,-759.693 268,-748 303.084,-704.449 266.024,-297.235 286,-245 300.878,-206.093 310.7,-195.114 346,-173 355.477,-167.063 365.928,-162.162 376.705,-158.117"/>
<polygon fill="none" stroke="black" points="377.962,-161.385 386.244,-154.778 375.649,-154.779 377.962,-161.385"/>
<text text-anchor="middle" x="307" y="-248" font-family="Sans" font-size="10.00">requires</text>
</g>
<!-- configuration&#45;modules&#45;core#1378 -->
<g id="node30" class="node"><title>configuration-modules-core#1378</title>
<polygon fill="lightgrey" stroke="black" points="1165.5,-255.5 970.5,-255.5 970.5,-216.5 1165.5,-216.5 1165.5,-255.5"/>
<text text-anchor="middle" x="1068" y="-233.5" font-family="Sans" font-size="10.00">configuration-modules-core#1378</text>
</g>
<!-- configuration&#45;modules&#45;core#1391&#45;&gt;configuration&#45;modules&#45;core#1378 -->
<g id="edge19" class="edge"><title>configuration-modules-core#1391-&gt;configuration-modules-core#1378</title>
<path fill="none" stroke="black" stroke-dasharray="5,2" d="M893.714,-217.388C915.234,-219.699 938.168,-222.163 960.072,-224.515"/>
<polygon fill="none" stroke="black" points="959.738,-227.999 970.054,-225.587 960.485,-221.039 959.738,-227.999"/>
<text text-anchor="middle" x="932" y="-227" font-family="Sans" font-size="10.00">requires</text>
</g>
<!-- configuration&#45;modules&#45;core#1371 -->
<g id="node31" class="node"><title>configuration-modules-core#1371</title>
<polygon fill="lightgrey" stroke="black" points="1165.5,-198.5 970.5,-198.5 970.5,-159.5 1165.5,-159.5 1165.5,-198.5"/>
<text text-anchor="middle" x="1068" y="-176.5" font-family="Sans" font-size="10.00">configuration-modules-core#1371</text>
</g>
<!-- configuration&#45;modules&#45;core#1391&#45;&gt;configuration&#45;modules&#45;core#1371 -->
<g id="edge20" class="edge"><title>configuration-modules-core#1391-&gt;configuration-modules-core#1371</title>
<path fill="none" stroke="black" stroke-dasharray="5,2" d="M893.714,-196.97C915.234,-194.739 938.168,-192.36 960.072,-190.089"/>
<polygon fill="none" stroke="black" points="960.469,-193.567 970.054,-189.054 959.746,-186.604 960.469,-193.567"/>
<text text-anchor="middle" x="932" y="-198" font-family="Sans" font-size="10.00">requires</text>
</g>
<!-- configuration&#45;modules&#45;core#1401 -->
<g id="node28" class="node"><title>configuration-modules-core#1401</title>
<g id="a_node28"><a xlink:href="https://github.com/quattor/configuration-modules-core/pull/1401" xlink:title="ncm-spma: yumdnf: initial dnf/yum4 based on yum" target="_parent">
<polygon fill="#6cc644" stroke="black" points="231.5,-739 36.5,-739 36.5,-689 231.5,-689 231.5,-739"/>
<text text-anchor="middle" x="134" y="-717" font-family="Sans" font-size="10.00">pull-request</text>
<text text-anchor="middle" x="134" y="-706" font-family="Sans" font-size="10.00">configuration-modules-core#1401</text>
</a>
</g>
</g>
<!-- configuration&#45;modules&#45;core#1405 -->
<g id="node29" class="node"><title>configuration-modules-core#1405</title>
<polygon fill="lightgrey" stroke="black" points="581.5,-38.5 386.5,-38.5 386.5,0.5 581.5,0.5 581.5,-38.5"/>
<text text-anchor="middle" x="484" y="-16.5" font-family="Sans" font-size="10.00">configuration-modules-core#1405</text>
</g>
<!-- configuration&#45;modules&#45;core#1401&#45;&gt;configuration&#45;modules&#45;core#1405 -->
<g id="edge18" class="edge"><title>configuration-modules-core#1401-&gt;configuration-modules-core#1405</title>
<path fill="none" stroke="black" stroke-dasharray="5,2" d="M136.898,-688.63C145.78,-577.172 187.043,-132.514 286,-43 310.372,-20.954 343.93,-12.0044 376.446,-9.4526"/>
<polygon fill="none" stroke="black" points="376.717,-12.9428 386.493,-8.85865 376.304,-5.95502 376.717,-12.9428"/>
<text text-anchor="middle" x="307" y="-46" font-family="Sans" font-size="10.00">requires</text>
</g>
<!-- configuration&#45;modules&#45;core#1336 -->
<g id="node32" class="node"><title>configuration-modules-core#1336</title>
<g id="a_node32"><a xlink:href="https://github.com/quattor/configuration-modules-core/pull/1336" xlink:title="ncm-network: Add support for CAF::Service actions after changes" target="_parent">
<polygon fill="#6cc644" stroke="black" points="231.5,-1215 36.5,-1215 36.5,-1165 231.5,-1165 231.5,-1215"/>
<text text-anchor="middle" x="134" y="-1193" font-family="Sans" font-size="10.00">pull-request</text>
<text text-anchor="middle" x="134" y="-1182" font-family="Sans" font-size="10.00">configuration-modules-core#1336</text>
</a>
</g>
</g>
<!-- configuration&#45;modules&#45;core#1335 -->
<g id="node33" class="node"><title>configuration-modules-core#1335</title>
<g id="a_node33"><a xlink:href="https://github.com/quattor/configuration-modules-core/pull/1335" xlink:title="ncm-metaconfig: Remove caf_service_action type to allow reuse" target="_parent">
<polygon fill="#6cc644" stroke="black" points="581.5,-1127 386.5,-1127 386.5,-1077 581.5,-1077 581.5,-1127"/>
<text text-anchor="middle" x="484" y="-1105" font-family="Sans" font-size="10.00">pull-request</text>
<text text-anchor="middle" x="484" y="-1094" font-family="Sans" font-size="10.00">configuration-modules-core#1335</text>
</a>
</g>
</g>
<!-- configuration&#45;modules&#45;core#1336&#45;&gt;configuration&#45;modules&#45;core#1335 -->
<g id="edge21" class="edge"><title>configuration-modules-core#1336-&gt;configuration-modules-core#1335</title>
<path fill="none" stroke="black" stroke-dasharray="5,2" d="M231.616,-1165.31C243.863,-1162.18 256.225,-1159.01 268,-1156 302.67,-1147.12 311.299,-1144.75 346,-1136 355.904,-1133.5 366.214,-1130.92 376.536,-1128.34"/>
<polygon fill="none" stroke="black" points="377.569,-1131.69 386.424,-1125.87 375.874,-1124.89 377.569,-1131.69"/>
<text text-anchor="middle" x="307" y="-1155" font-family="Sans" font-size="10.00">requires</text>
</g>
<!-- configuration&#45;modules&#45;core#1071 -->
<g id="node34" class="node"><title>configuration-modules-core#1071</title>
<g id="a_node34"><a xlink:href="https://github.com/quattor/configuration-modules-core/issues/1071" xlink:title="ncm-network: support daemons to restart after network changes" target="_parent">
<ellipse fill="#6cc644" stroke="black" cx="484" cy="-1180" rx="137.772" ry="35.2113"/>
<text text-anchor="middle" x="484" y="-1183" font-family="Sans" font-size="10.00">issue</text>
<text text-anchor="middle" x="484" y="-1172" font-family="Sans" font-size="10.00">configuration-modules-core#1071</text>
</a>
</g>
</g>
<!-- configuration&#45;modules&#45;core#1336&#45;&gt;configuration&#45;modules&#45;core#1071 -->
<g id="edge22" class="edge"><title>configuration-modules-core#1336-&gt;configuration-modules-core#1071</title>
<path fill="none" stroke="black" stroke-width="2" d="M231.937,-1187.21C264.336,-1186.28 301.202,-1185.22 336.517,-1184.21"/>
<polygon fill="black" stroke="black" points="337.029,-1187.7 346.924,-1183.91 336.827,-1180.7 337.029,-1187.7"/>
<text text-anchor="middle" x="307" y="-1189" font-family="Sans" font-size="10.00">fixes</text>
</g>
<!-- template&#45;library&#45;core#191 -->
<g id="node35" class="node"><title>template-library-core#191</title>
<polygon fill="lightgrey" stroke="black" points="875.5,-1121.5 716.5,-1121.5 716.5,-1082.5 875.5,-1082.5 875.5,-1121.5"/>
<text text-anchor="middle" x="796" y="-1099.5" font-family="Sans" font-size="10.00">template-library-core#191</text>
</g>
<!-- configuration&#45;modules&#45;core#1335&#45;&gt;template&#45;library&#45;core#191 -->
<g id="edge23" class="edge"><title>configuration-modules-core#1335-&gt;template-library-core#191</title>
<path fill="none" stroke="black" stroke-dasharray="5,2" d="M581.811,-1102C621.52,-1102 667.191,-1102 706.049,-1102"/>
<polygon fill="none" stroke="black" points="706.294,-1105.5 716.294,-1102 706.294,-1098.5 706.294,-1105.5"/>
<text text-anchor="middle" x="660" y="-1105" font-family="Sans" font-size="10.00">requires</text>
</g>
<!-- configuration&#45;modules&#45;core#1490 -->
<g id="node36" class="node"><title>configuration-modules-core#1490</title>
<g id="a_node36"><a xlink:href="https://github.com/quattor/configuration-modules-core/pull/1490" xlink:title="ncm-ceph: Add support for orchestrator/cephadm under octopus" target="_parent">
<polygon fill="#6cc644" stroke="black" points="231.5,-1642 36.5,-1642 36.5,-1592 231.5,-1592 231.5,-1642"/>
<text text-anchor="middle" x="134" y="-1620" font-family="Sans" font-size="10.00">pull-request</text>
<text text-anchor="middle" x="134" y="-1609" font-family="Sans" font-size="10.00">configuration-modules-core#1490</text>
</a>
</g>
</g>
<!-- configuration&#45;modules&#45;core#1463 -->
<g id="node37" class="node"><title>configuration-modules-core#1463</title>
<polygon fill="lightgrey" stroke="black" points="581.5,-1636.5 386.5,-1636.5 386.5,-1597.5 581.5,-1597.5 581.5,-1636.5"/>
<text text-anchor="middle" x="484" y="-1614.5" font-family="Sans" font-size="10.00">configuration-modules-core#1463</text>
</g>
<!-- configuration&#45;modules&#45;core#1490&#45;&gt;configuration&#45;modules&#45;core#1463 -->
<g id="edge24" class="edge"><title>configuration-modules-core#1490-&gt;configuration-modules-core#1463</title>
<path fill="none" stroke="black" stroke-dasharray="5,2" d="M231.937,-1617C276.812,-1617 330.255,-1617 376.277,-1617"/>
<polygon fill="none" stroke="black" points="376.281,-1620.5 386.281,-1617 376.281,-1613.5 376.281,-1620.5"/>
<text text-anchor="middle" x="307" y="-1620" font-family="Sans" font-size="10.00">requires</text>
</g>
<!-- configuration&#45;modules&#45;core#1148 -->
<g id="node38" class="node"><title>configuration-modules-core#1148</title>
<g id="a_node38"><a xlink:href="https://github.com/quattor/configuration-modules-core/pull/1148" xlink:title="ncm-spma: Remove support from groups from spma yumng backend" target="_parent">
<polygon fill="#6cc644" stroke="black" points="231.5,-1804 36.5,-1804 36.5,-1754 231.5,-1754 231.5,-1804"/>
<text text-anchor="middle" x="134" y="-1782" font-family="Sans" font-size="10.00">pull-request</text>
<text text-anchor="middle" x="134" y="-1771" font-family="Sans" font-size="10.00">configuration-modules-core#1148</text>
</a>
</g>
</g>
<!-- configuration&#45;modules&#45;core#952 -->
<g id="node39" class="node"><title>configuration-modules-core#952</title>
<g id="a_node39"><a xlink:href="https://github.com/quattor/configuration-modules-core/issues/952" xlink:title="ncm-spma (yumng): Remove support for package groups" target="_parent">
<ellipse fill="#6cc644" stroke="black" cx="484" cy="-1779" rx="133.787" ry="35.2113"/>
<text text-anchor="middle" x="484" y="-1782" font-family="Sans" font-size="10.00">issue</text>
<text text-anchor="middle" x="484" y="-1771" font-family="Sans" font-size="10.00">configuration-modules-core#952</text>
</a>
</g>
</g>
<!-- configuration&#45;modules&#45;core#1148&#45;&gt;configuration&#45;modules&#45;core#952 -->
<g id="edge25" class="edge"><title>configuration-modules-core#1148-&gt;configuration-modules-core#952</title>
<path fill="none" stroke="black" stroke-width="2" d="M231.937,-1779C265.395,-1779 303.615,-1779 339.972,-1779"/>
<polygon fill="black" stroke="black" points="340.172,-1782.5 350.172,-1779 340.172,-1775.5 340.172,-1782.5"/>
<text text-anchor="middle" x="307" y="-1782" font-family="Sans" font-size="10.00">fixes</text>
</g>
<!-- configuration&#45;modules&#45;core#950 -->
<g id="node40" class="node"><title>configuration-modules-core#950</title>
<g id="a_node40"><a xlink:href="https://github.com/quattor/configuration-modules-core/issues/950" xlink:title="ncm-spma: Remove support for package groups from yum backends" target="_parent">
<ellipse fill="#6cc644" stroke="black" cx="134" cy="-1698" rx="133.787" ry="35.2113"/>
<text text-anchor="middle" x="134" y="-1701" font-family="Sans" font-size="10.00">issue</text>
<text text-anchor="middle" x="134" y="-1690" font-family="Sans" font-size="10.00">configuration-modules-core#950</text>
</a>
</g>
</g>
<!-- configuration&#45;modules&#45;core#951 -->
<g id="node41" class="node"><title>configuration-modules-core#951</title>
<g id="a_node41"><a xlink:href="https://github.com/quattor/configuration-modules-core/issues/951" xlink:title="ncm-spma (yum): Remove support for package groups" target="_parent">
<ellipse fill="#6cc644" stroke="black" cx="484" cy="-1690" rx="133.787" ry="35.2113"/>
<text text-anchor="middle" x="484" y="-1693" font-family="Sans" font-size="10.00">issue</text>
<text text-anchor="middle" x="484" y="-1682" font-family="Sans" font-size="10.00">configuration-modules-core#951</text>
</a>
</g>
</g>
<!-- configuration&#45;modules&#45;core#950&#45;&gt;configuration&#45;modules&#45;core#951 -->
<g id="edge26" class="edge"><title>configuration-modules-core#950-&gt;configuration-modules-core#951</title>
<path fill="none" stroke="black" stroke-dasharray="5,2" d="M267.557,-1694.95C291.422,-1694.4 316.393,-1693.83 340.526,-1693.28"/>
<polygon fill="none" stroke="black" points="340.895,-1696.77 350.812,-1693.04 340.734,-1689.77 340.895,-1696.77"/>
<text text-anchor="middle" x="307" y="-1698" font-family="Sans" font-size="10.00">requires</text>
</g>
<!-- configuration&#45;modules&#45;core#950&#45;&gt;configuration&#45;modules&#45;core#952 -->
<g id="edge27" class="edge"><title>configuration-modules-core#950-&gt;configuration-modules-core#952</title>
<path fill="none" stroke="black" stroke-dasharray="5,2" d="M234.723,-1721.21C278.043,-1731.29 328.925,-1743.14 373.31,-1753.47"/>
<polygon fill="none" stroke="black" points="372.729,-1756.93 383.263,-1755.79 374.316,-1750.11 372.729,-1756.93"/>
<text text-anchor="middle" x="307" y="-1744" font-family="Sans" font-size="10.00">requires</text>
</g>
<!-- template&#45;library&#45;grid#237 -->
<g id="node42" class="node"><title>template-library-grid#237</title>
<g id="a_node42"><a xlink:href="https://github.com/quattor/template-library-grid/pull/237" xlink:title="users: Fix collisions with system managed groups" target="_parent">
<polygon fill="#6cc644" stroke="black" points="212.5,-1147 55.5,-1147 55.5,-1097 212.5,-1097 212.5,-1147"/>
<text text-anchor="middle" x="134" y="-1125" font-family="Sans" font-size="10.00">pull-request</text>
<text text-anchor="middle" x="134" y="-1114" font-family="Sans" font-size="10.00">template-library-grid#237</text>
</a>
</g>
</g>
<!-- template&#45;library&#45;grid#226 -->
<g id="node43" class="node"><title>template-library-grid#226</title>
<g id="a_node43"><a xlink:href="https://github.com/quattor/template-library-grid/issues/226" xlink:title="collisions group id" target="_parent">
<ellipse fill="#6cc644" stroke="black" cx="484" cy="-1024" rx="111.032" ry="35.2113"/>
<text text-anchor="middle" x="484" y="-1027" font-family="Sans" font-size="10.00">issue</text>
<text text-anchor="middle" x="484" y="-1016" font-family="Sans" font-size="10.00">template-library-grid#226</text>
</a>
</g>
</g>
<!-- template&#45;library&#45;grid#237&#45;&gt;template&#45;library&#45;grid#226 -->
<g id="edge28" class="edge"><title>template-library-grid#237-&gt;template-library-grid#226</title>
<path fill="none" stroke="black" stroke-width="2" d="M212.847,-1102.64C230.985,-1097.98 250.198,-1092.92 268,-1088 309.611,-1076.49 355.5,-1062.95 394.159,-1051.29"/>
<polygon fill="black" stroke="black" points="395.265,-1054.62 403.825,-1048.37 393.24,-1047.92 395.265,-1054.62"/>
<text text-anchor="middle" x="307" y="-1085" font-family="Sans" font-size="10.00">fixes</text>
</g>
<!-- template&#45;library&#45;grid#232 -->
<g id="node44" class="node"><title>template-library-grid#232</title>
<g id="a_node44"><a xlink:href="https://github.com/quattor/template-library-grid/pull/232" xlink:title="arc-ce: Export arc-ce feature from aquilon at RAL" target="_parent">
<polygon fill="#6cc644" stroke="black" points="212.5,-1456 55.5,-1456 55.5,-1406 212.5,-1406 212.5,-1456"/>
<text text-anchor="middle" x="134" y="-1434" font-family="Sans" font-size="10.00">pull-request</text>
<text text-anchor="middle" x="134" y="-1423" font-family="Sans" font-size="10.00">template-library-grid#232</text>
</a>
</g>
</g>
<!-- template&#45;library&#45;grid#221 -->
<g id="node45" class="node"><title>template-library-grid#221</title>
<g id="a_node45"><a xlink:href="https://github.com/quattor/template-library-grid/issues/221" xlink:title="Support for new CE types (ARC CE, HTCONDOR CE)" target="_parent">
<ellipse fill="#6cc644" stroke="black" cx="484" cy="-1431" rx="111.032" ry="35.2113"/>
<text text-anchor="middle" x="484" y="-1434" font-family="Sans" font-size="10.00">issue</text>
<text text-anchor="middle" x="484" y="-1423" font-family="Sans" font-size="10.00">template-library-grid#221</text>
</a>
</g>
</g>
<!-- template&#45;library&#45;grid#232&#45;&gt;template&#45;library&#45;grid#221 -->
<g id="edge29" class="edge"><title>template-library-grid#232-&gt;template-library-grid#221</title>
<path fill="none" stroke="black" stroke-width="2" d="M212.665,-1431C256.799,-1431 313.009,-1431 362.728,-1431"/>
<polygon fill="black" stroke="black" points="362.906,-1434.5 372.906,-1431 362.906,-1427.5 362.906,-1434.5"/>
<text text-anchor="middle" x="307" y="-1434" font-family="Sans" font-size="10.00">fixes</text>
</g>
<!-- aquilon#115 -->
<g id="node46" class="node"><title>aquilon#115</title>
<g id="a_node46"><a xlink:href="https://github.com/quattor/aquilon/pull/115" xlink:title="services: insert service data early in the object template" target="_parent">
<polygon fill="#6cc644" stroke="black" points="179.5,-2107 88.5,-2107 88.5,-2057 179.5,-2057 179.5,-2107"/>
<text text-anchor="middle" x="134" y="-2085" font-family="Sans" font-size="10.00">pull-request</text>
<text text-anchor="middle" x="134" y="-2074" font-family="Sans" font-size="10.00">aquilon#115</text>
</a>
</g>
</g>
<!-- aquilon#109 -->
<g id="node47" class="node"><title>aquilon#109</title>
<g id="a_node47"><a xlink:href="https://github.com/quattor/aquilon/issues/109" xlink:title="Why service configuration is included so late in the plenary object?" target="_parent">
<ellipse fill="#6cc644" stroke="black" cx="484" cy="-2072" rx="64.1938" ry="35.2113"/>
<text text-anchor="middle" x="484" y="-2075" font-family="Sans" font-size="10.00">issue</text>
<text text-anchor="middle" x="484" y="-2064" font-family="Sans" font-size="10.00">aquilon#109</text>
</a>
</g>
</g>
<!-- aquilon#115&#45;&gt;aquilon#109 -->
<g id="edge30" class="edge"><title>aquilon#115-&gt;aquilon#109</title>
<path fill="none" stroke="black" stroke-width="2" d="M179.782,-2080.71C237.872,-2079.04 339.98,-2076.11 409.507,-2074.11"/>
<polygon fill="black" stroke="black" points="409.624,-2077.61 419.519,-2073.82 409.423,-2070.61 409.624,-2077.61"/>
<text text-anchor="middle" x="307" y="-2080" font-family="Sans" font-size="10.00">fixes</text>
</g>
<!-- aquilon#110 -->
<g id="node48" class="node"><title>aquilon#110</title>
<g id="a_node48"><a xlink:href="https://github.com/quattor/aquilon/pull/110" xlink:title="Change site and machine namespace to use continent name" target="_parent">
<polygon fill="#6cc644" stroke="black" points="179.5,-2039 88.5,-2039 88.5,-1989 179.5,-1989 179.5,-2039"/>
<text text-anchor="middle" x="134" y="-2017" font-family="Sans" font-size="10.00">pull-request</text>
<text text-anchor="middle" x="134" y="-2006" font-family="Sans" font-size="10.00">aquilon#110</text>
</a>
</g>
</g>
<!-- aquilon#104 -->
<g id="node49" class="node"><title>aquilon#104</title>
<g id="a_node49"><a xlink:href="https://github.com/quattor/aquilon/issues/104" xlink:title="1.12.62: location related templates cannot be used" target="_parent">
<ellipse fill="#6cc644" stroke="black" cx="484" cy="-1970" rx="64.1938" ry="35.2113"/>
<text text-anchor="middle" x="484" y="-1973" font-family="Sans" font-size="10.00">issue</text>
<text text-anchor="middle" x="484" y="-1962" font-family="Sans" font-size="10.00">aquilon#104</text>
</a>
</g>
</g>
<!-- aquilon#110&#45;&gt;aquilon#104 -->
<g id="edge31" class="edge"><title>aquilon#110-&gt;aquilon#104</title>
<path fill="none" stroke="black" stroke-width="2" d="M179.782,-2008.34C238.309,-2000.94 341.52,-1987.89 411.072,-1979.09"/>
<polygon fill="black" stroke="black" points="411.598,-1982.56 421.08,-1977.83 410.72,-1975.61 411.598,-1982.56"/>
<text text-anchor="middle" x="307" y="-1997" font-family="Sans" font-size="10.00">fixes</text>
</g>
<!-- aquilon#91 -->
<g id="node50" class="node"><title>aquilon#91</title>
<g id="a_node50"><a xlink:href="https://github.com/quattor/aquilon/issues/91" xlink:title="1.12.58: city timezone is not passed to the object template" target="_parent">
<ellipse fill="#6cc644" stroke="black" cx="134" cy="-1936" rx="60.2083" ry="35.2113"/>
<text text-anchor="middle" x="134" y="-1939" font-family="Sans" font-size="10.00">issue</text>
<text text-anchor="middle" x="134" y="-1928" font-family="Sans" font-size="10.00">aquilon#91</text>
</a>
</g>
</g>
<!-- aquilon#91&#45;&gt;aquilon#104 -->
<g id="edge32" class="edge"><title>aquilon#91-&gt;aquilon#104</title>
<path fill="none" stroke="black" stroke-dasharray="5,2" d="M193.64,-1941.73C253.397,-1947.57 346.194,-1956.63 410.521,-1962.92"/>
<polygon fill="none" stroke="black" points="410.298,-1966.41 420.591,-1963.9 410.979,-1959.45 410.298,-1966.41"/>
<text text-anchor="middle" x="307" y="-1957" font-family="Sans" font-size="10.00">requires</text>
</g>
<!-- aquilon#89 -->
<g id="node51" class="node"><title>aquilon#89</title>
<g id="a_node51"><a xlink:href="https://github.com/quattor/aquilon/pull/89" xlink:title="Broker: pass archetype to the object profile" target="_parent">
<polygon fill="#6cc644" stroke="black" points="177.5,-1883 90.5,-1883 90.5,-1833 177.5,-1833 177.5,-1883"/>
<text text-anchor="middle" x="134" y="-1861" font-family="Sans" font-size="10.00">pull-request</text>
<text text-anchor="middle" x="134" y="-1850" font-family="Sans" font-size="10.00">aquilon#89</text>
</a>
</g>
</g>
<!-- aquilon#88 -->
<g id="node52" class="node"><title>aquilon#88</title>
<g id="a_node52"><a xlink:href="https://github.com/quattor/aquilon/issues/88" xlink:title="1.12.58: the broker should pass the archetype to the object template" target="_parent">
<ellipse fill="#6cc644" stroke="black" cx="484" cy="-1868" rx="60.2083" ry="35.2113"/>
<text text-anchor="middle" x="484" y="-1871" font-family="Sans" font-size="10.00">issue</text>
<text text-anchor="middle" x="484" y="-1860" font-family="Sans" font-size="10.00">aquilon#88</text>
</a>
</g>
</g>
<!-- aquilon#89&#45;&gt;aquilon#88 -->
<g id="edge33" class="edge"><title>aquilon#89-&gt;aquilon#88</title>
<path fill="none" stroke="black" stroke-width="2" d="M177.672,-1859.23C236.488,-1860.92 343.167,-1863.98 413.558,-1866"/>
<polygon fill="black" stroke="black" points="413.574,-1869.51 423.671,-1866.3 413.775,-1862.51 413.574,-1869.51"/>
<text text-anchor="middle" x="307" y="-1867" font-family="Sans" font-size="10.00">fixes</text>
</g>
</g>
</svg>
