<?xml version="1.0" encoding="UTF-8" standalone="no"?>
<!-- Generated by graphviz version 2.26.0 (20091210.2329)
 -->
<!-- Title: Dependencies Pages: 1 -->
<svg xmlns="http://www.w3.org/2000/svg" xmlns:xlink="http://www.w3.org/1999/xlink" width="1426pt" height="2654pt" viewBox="0.00 0.00 1426.00 2654.00">
<g id="graph1" class="graph" transform="scale(1 1) rotate(0) translate(4 2650)">
<title>Dependencies</title>
<polygon fill="white" stroke="white" points="-4,5 -4,-2650 1423,-2650 1423,5 -4,5"/>
<g id="graph2" class="cluster"><title>cluster_17.2</title>
<polygon fill="none" stroke="black" points="8,-2052 8,-2638 568,-2638 568,-2052 8,-2052"/>
<text text-anchor="middle" x="288" y="-2623.2" font-family="Sans" font-size="12.00">17.2</text>
</g>
<g id="graph3" class="cluster"><title>cluster_16.12</title>
<polygon fill="none" stroke="black" points="350,-108 350,-2044 1410,-2044 1410,-108 350,-108"/>
<text text-anchor="middle" x="880" y="-2029.2" font-family="Sans" font-size="12.00">16.12</text>
</g>
<!-- aii#226 -->
<g id="node1" class="node"><title>aii#226</title>
<a xlink:href="https://github.com/quattor/aii/pull/226" xlink:title="aii-opennebula: Include ONE labels support" target="_parent">
<polygon fill="#6e5494" stroke="black" points="481,-1939 403,-1939 403,-1885 481,-1885 481,-1939"/>
<text text-anchor="middle" x="442" y="-1916" font-family="Sans" font-size="10.00">pull-request</text>
<text text-anchor="middle" x="442" y="-1903" font-family="Sans" font-size="10.00">aii#226</text>
</a>
</g>
<!-- aii#223 -->
<g id="node3" class="node"><title>aii#223</title>
<a xlink:href="https://github.com/quattor/aii/issues/223" xlink:title="aii opennebula handle missing template" target="_parent">
<ellipse fill="#bd2c00" stroke="black" cx="750" cy="-1974" rx="41.2167" ry="38.1838"/>
<text text-anchor="middle" x="750" y="-1978" font-family="Sans" font-size="10.00">issue</text>
<text text-anchor="middle" x="750" y="-1965" font-family="Sans" font-size="10.00">aii#223</text>
</a>
</g>
<!-- aii#226&#45;&gt;aii#223 -->
<g id="edge2" class="edge"><title>aii#226-&gt;aii#223</title>
<path fill="none" stroke="black" d="M481.635,-1919.98C537.08,-1931.14 637.835,-1951.42 698.869,-1963.71"/>
<polygon fill="black" stroke="black" points="698.552,-1967.21 709.047,-1965.76 699.934,-1960.35 698.552,-1967.21"/>
<text text-anchor="middle" x="596" y="-1949" font-family="Sans" font-size="10.00">fix</text>
</g>
<!-- aii#224 -->
<g id="node5" class="node"><title>aii#224</title>
<a xlink:href="https://github.com/quattor/aii/issues/224" xlink:title="aii-opennebula: Include labels feature" target="_parent">
<ellipse fill="#bd2c00" stroke="black" cx="750" cy="-1786" rx="41.2167" ry="38.1838"/>
<text text-anchor="middle" x="750" y="-1790" font-family="Sans" font-size="10.00">issue</text>
<text text-anchor="middle" x="750" y="-1777" font-family="Sans" font-size="10.00">aii#224</text>
</a>
</g>
<!-- aii#226&#45;&gt;aii#224 -->
<g id="edge4" class="edge"><title>aii#226-&gt;aii#224</title>
<path fill="none" stroke="black" d="M481.737,-1904.02C507.127,-1898.11 540.353,-1888.85 568,-1876 599.078,-1861.56 601.689,-1848.99 632,-1833 653.989,-1821.4 679.494,-1810.91 701.155,-1802.79"/>
<polygon fill="black" stroke="black" points="702.637,-1805.97 710.81,-1799.23 700.217,-1799.4 702.637,-1805.97"/>
<text text-anchor="middle" x="596" y="-1875" font-family="Sans" font-size="10.00">fix</text>
</g>
<!-- aii#228 -->
<g id="node7" class="node"><title>aii#228</title>
<a xlink:href="https://github.com/quattor/aii/issues/228" xlink:title="aii-opennebula: Include random passwords for SPICE/VNC connections" target="_parent">
<ellipse fill="#bd2c00" stroke="black" cx="750" cy="-1880" rx="41.2167" ry="38.1838"/>
<text text-anchor="middle" x="750" y="-1884" font-family="Sans" font-size="10.00">issue</text>
<text text-anchor="middle" x="750" y="-1871" font-family="Sans" font-size="10.00">aii#228</text>
</a>
</g>
<!-- aii#226&#45;&gt;aii#228 -->
<g id="edge6" class="edge"><title>aii#226-&gt;aii#228</title>
<path fill="none" stroke="black" d="M481.635,-1907.88C536.926,-1902.14 637.277,-1891.71 698.361,-1885.37"/>
<polygon fill="black" stroke="black" points="698.967,-1888.82 708.552,-1884.31 698.244,-1881.86 698.967,-1888.82"/>
<text text-anchor="middle" x="596" y="-1901" font-family="Sans" font-size="10.00">fix</text>
</g>
<!-- aii#225 -->
<g id="node8" class="node"><title>aii#225</title>
<a xlink:href="https://github.com/quattor/aii/pull/225" xlink:title="[WIP] Add UEFI support through Grub-based PXE loader" target="_parent">
<polygon fill="#6cc644" stroke="black" points="173,-2595 95,-2595 95,-2541 173,-2541 173,-2595"/>
<text text-anchor="middle" x="134" y="-2572" font-family="Sans" font-size="10.00">pull-request</text>
<text text-anchor="middle" x="134" y="-2559" font-family="Sans" font-size="10.00">aii#225</text>
</a>
</g>
<!-- aii#216 -->
<g id="node10" class="node"><title>aii#216</title>
<a xlink:href="https://github.com/quattor/aii/issues/216" xlink:title="aii-pxelinux: add support for Grub-based UEFI PXE boot loader" target="_parent">
<ellipse fill="#6cc644" stroke="black" cx="442" cy="-2568" rx="41.2167" ry="38.1838"/>
<text text-anchor="middle" x="442" y="-2572" font-family="Sans" font-size="10.00">issue</text>
<text text-anchor="middle" x="442" y="-2559" font-family="Sans" font-size="10.00">aii#216</text>
</a>
</g>
<!-- aii#225&#45;&gt;aii#216 -->
<g id="edge8" class="edge"><title>aii#225-&gt;aii#216</title>
<path fill="none" stroke="black" d="M173.635,-2568C228.773,-2568 328.72,-2568 389.851,-2568"/>
<polygon fill="black" stroke="black" points="390.055,-2571.5 400.055,-2568 390.055,-2564.5 390.055,-2571.5"/>
<text text-anchor="middle" x="288" y="-2572" font-family="Sans" font-size="10.00">fixes</text>
</g>
<!-- aii#210 -->
<g id="node11" class="node"><title>aii#210</title>
<a xlink:href="https://github.com/quattor/aii/pull/210" xlink:title="Shellfe: support active config for plugins" target="_parent">
<polygon fill="#6cc644" stroke="black" points="173,-2114 95,-2114 95,-2060 173,-2060 173,-2114"/>
<text text-anchor="middle" x="134" y="-2091" font-family="Sans" font-size="10.00">pull-request</text>
<text text-anchor="middle" x="134" y="-2078" font-family="Sans" font-size="10.00">aii#210</text>
</a>
</g>
<!-- aii#209 -->
<g id="node13" class="node"><title>aii#209</title>
<a xlink:href="https://github.com/quattor/aii/issues/209" xlink:title="support ACTIVE_CONFIG" target="_parent">
<ellipse fill="#6cc644" stroke="black" cx="442" cy="-2098" rx="41.2167" ry="38.1838"/>
<text text-anchor="middle" x="442" y="-2102" font-family="Sans" font-size="10.00">issue</text>
<text text-anchor="middle" x="442" y="-2089" font-family="Sans" font-size="10.00">aii#209</text>
</a>
</g>
<!-- aii#210&#45;&gt;aii#209 -->
<g id="edge10" class="edge"><title>aii#210-&gt;aii#209</title>
<path fill="none" stroke="black" d="M173.635,-2088.42C228.773,-2090.38 328.72,-2093.95 389.851,-2096.14"/>
<polygon fill="black" stroke="black" points="389.936,-2099.64 400.055,-2096.5 390.186,-2092.65 389.936,-2099.64"/>
<text text-anchor="middle" x="288" y="-2097" font-family="Sans" font-size="10.00">fixes</text>
</g>
<!-- ncm&#45;ncd#74 -->
<g id="node15" class="node"><title>ncm-ncd#74</title>
<a xlink:href="https://github.com/quattor/ncm-ncd/pull/74" xlink:title="Set the current active config as an attribute to the component" target="_parent">
<polygon fill="#6cc644" stroke="black" points="483,-1867 401,-1867 401,-1813 483,-1813 483,-1867"/>
<text text-anchor="middle" x="442" y="-1844" font-family="Sans" font-size="10.00">pull-request</text>
<text text-anchor="middle" x="442" y="-1831" font-family="Sans" font-size="10.00">ncm-ncd#74</text>
</a>
</g>
<!-- aii#210&#45;&gt;ncm&#45;ncd#74 -->
<g id="edge12" class="edge"><title>aii#210-&gt;ncm-ncd#74</title>
<path fill="none" stroke="black" d="M173.865,-2063.58C213.22,-2038.41 272.262,-1994.83 306,-1942 322.364,-1916.37 302.824,-1897.82 324,-1876 341.412,-1858.06 367.478,-1849 390.687,-1844.44"/>
<polygon fill="none" stroke="black" points="391.505,-1847.85 400.765,-1842.7 390.315,-1840.95 391.505,-1847.85"/>
<text text-anchor="middle" x="288" y="-1990" font-family="Sans" font-size="10.00">requires</text>
</g>
<!-- aii#203 -->
<g id="node17" class="node"><title>aii#203</title>
<polygon fill="lightgrey" stroke="black" points="471,-98.5 413,-98.5 413,-57.5 471,-57.5 471,-98.5"/>
<text text-anchor="middle" x="442" y="-75.5" font-family="Sans" font-size="10.00">aii#203</text>
</g>
<!-- aii#210&#45;&gt;aii#203 -->
<g id="edge14" class="edge"><title>aii#210-&gt;aii#203</title>
<path fill="none" stroke="black" d="M134.701,-2059.84C140.794,-1832.97 187.87,-257.74 324,-104 343.213,-82.3012 376.057,-76.4508 402.223,-75.6624"/>
<polygon fill="none" stroke="black" points="402.268,-79.1622 412.243,-75.5908 402.218,-72.1624 402.268,-79.1622"/>
<text text-anchor="middle" x="288" y="-234" font-family="Sans" font-size="10.00">requires</text>
</g>
<!-- CAF#202 -->
<g id="node18" class="node"><title>CAF#202</title>
<a xlink:href="https://github.com/quattor/CAF/pull/202" xlink:title="FileWriter: use atomic write" target="_parent">
<polygon fill="#6cc644" stroke="black" points="173,-2440 95,-2440 95,-2386 173,-2386 173,-2440"/>
<text text-anchor="middle" x="134" y="-2417" font-family="Sans" font-size="10.00">pull-request</text>
<text text-anchor="middle" x="134" y="-2404" font-family="Sans" font-size="10.00">CAF#202</text>
</a>
</g>
<!-- CAF#148 -->
<g id="node20" class="node"><title>CAF#148</title>
<a xlink:href="https://github.com/quattor/CAF/issues/148" xlink:title="CAF::FileWriter updates files in-place" target="_parent">
<ellipse fill="#6cc644" stroke="black" cx="442" cy="-2380" rx="48.9975" ry="38.1838"/>
<text text-anchor="middle" x="442" y="-2384" font-family="Sans" font-size="10.00">issue</text>
<text text-anchor="middle" x="442" y="-2371" font-family="Sans" font-size="10.00">CAF#148</text>
</a>
</g>
<!-- CAF#202&#45;&gt;CAF#148 -->
<g id="edge16" class="edge"><title>CAF#202-&gt;CAF#148</title>
<path fill="none" stroke="black" d="M173.635,-2408.75C226.732,-2403.06 321.383,-2392.92 382.908,-2386.33"/>
<polygon fill="black" stroke="black" points="383.292,-2389.81 392.863,-2385.26 382.547,-2382.85 383.292,-2389.81"/>
<text text-anchor="middle" x="288" y="-2401" font-family="Sans" font-size="10.00">fixes</text>
</g>
<!-- CAF#189 -->
<g id="node22" class="node"><title>CAF#189</title>
<a xlink:href="https://github.com/quattor/CAF/issues/189" xlink:title="FileWriter: add diff to history" target="_parent">
<ellipse fill="#6cc644" stroke="black" cx="442" cy="-2474" rx="48.9975" ry="38.1838"/>
<text text-anchor="middle" x="442" y="-2478" font-family="Sans" font-size="10.00">issue</text>
<text text-anchor="middle" x="442" y="-2465" font-family="Sans" font-size="10.00">CAF#189</text>
</a>
</g>
<!-- CAF#202&#45;&gt;CAF#189 -->
<g id="edge18" class="edge"><title>CAF#202-&gt;CAF#189</title>
<path fill="none" stroke="black" d="M173.635,-2420.85C227.04,-2431.43 322.482,-2450.33 383.975,-2462.51"/>
<polygon fill="black" stroke="black" points="383.427,-2465.97 393.916,-2464.48 384.787,-2459.1 383.427,-2465.97"/>
<text text-anchor="middle" x="288" y="-2449" font-family="Sans" font-size="10.00">fixes</text>
</g>
<!-- CAF#199 -->
<g id="node23" class="node"><title>CAF#199</title>
<a xlink:href="https://github.com/quattor/CAF/pull/199" xlink:title="Remove add_files to track files" target="_parent">
<polygon fill="#6e5494" stroke="black" points="481,-1678 403,-1678 403,-1624 481,-1624 481,-1678"/>
<text text-anchor="middle" x="442" y="-1655" font-family="Sans" font-size="10.00">pull-request</text>
<text text-anchor="middle" x="442" y="-1642" font-family="Sans" font-size="10.00">CAF#199</text>
</a>
</g>
<!-- ncm&#45;ncd#96 -->
<g id="node25" class="node"><title>ncm-ncd#96</title>
<a xlink:href="https://github.com/quattor/ncm-ncd/pull/96" xlink:title="Remove support for add_files / get_files and FILES attribute" target="_parent">
<polygon fill="#6e5494" stroke="black" points="791,-1636 709,-1636 709,-1582 791,-1582 791,-1636"/>
<text text-anchor="middle" x="750" y="-1613" font-family="Sans" font-size="10.00">pull-request</text>
<text text-anchor="middle" x="750" y="-1600" font-family="Sans" font-size="10.00">ncm-ncd#96</text>
</a>
</g>
<!-- CAF#199&#45;&gt;ncm&#45;ncd#96 -->
<g id="edge20" class="edge"><title>CAF#199-&gt;ncm-ncd#96</title>
<path fill="none" stroke="black" d="M481.635,-1645.6C536.926,-1638.06 637.277,-1624.37 698.361,-1616.04"/>
<polygon fill="none" stroke="black" points="699.116,-1619.47 708.552,-1614.65 698.171,-1612.54 699.116,-1619.47"/>
<text text-anchor="middle" x="596" y="-1636" font-family="Sans" font-size="10.00">requires</text>
</g>
<!-- CAF#153 -->
<g id="node27" class="node"><title>CAF#153</title>
<a xlink:href="https://github.com/quattor/CAF/issues/153" xlink:title="remove add_files" target="_parent">
<ellipse fill="#bd2c00" stroke="black" cx="750" cy="-1692" rx="48.9975" ry="38.1838"/>
<text text-anchor="middle" x="750" y="-1696" font-family="Sans" font-size="10.00">issue</text>
<text text-anchor="middle" x="750" y="-1683" font-family="Sans" font-size="10.00">CAF#153</text>
</a>
</g>
<!-- CAF#199&#45;&gt;CAF#153 -->
<g id="edge22" class="edge"><title>CAF#199-&gt;CAF#153</title>
<path fill="none" stroke="black" d="M481.635,-1656.28C534.809,-1663.35 629.658,-1675.98 691.175,-1684.17"/>
<polygon fill="black" stroke="black" points="690.752,-1687.64 701.127,-1685.49 691.676,-1680.71 690.752,-1687.64"/>
<text text-anchor="middle" x="596" y="-1677" font-family="Sans" font-size="10.00">fixes</text>
</g>
<!-- CAF#98 -->
<g id="node28" class="node"><title>CAF#98</title>
<a xlink:href="https://github.com/quattor/CAF/pull/98" xlink:title="FileWriter: disable chatty LC::Check by default unless NoAction" target="_parent">
<polygon fill="#6e5494" stroke="black" points="481,-170 403,-170 403,-116 481,-116 481,-170"/>
<text text-anchor="middle" x="442" y="-147" font-family="Sans" font-size="10.00">pull-request</text>
<text text-anchor="middle" x="442" y="-134" font-family="Sans" font-size="10.00">CAF#98</text>
</a>
</g>
<!-- ncm&#45;ncd#88 -->
<g id="node30" class="node"><title>ncm-ncd#88</title>
<polygon fill="lightgrey" stroke="black" points="791,-98.5 709,-98.5 709,-57.5 791,-57.5 791,-98.5"/>
<text text-anchor="middle" x="750" y="-75.5" font-family="Sans" font-size="10.00">ncm-ncd#88</text>
</g>
<!-- CAF#98&#45;&gt;ncm&#45;ncd#88 -->
<g id="edge24" class="edge"><title>CAF#98-&gt;ncm-ncd#88</title>
<path fill="none" stroke="black" d="M481.635,-134.635C537.041,-122.943 637.692,-101.701 698.739,-88.818"/>
<polygon fill="none" stroke="black" points="699.49,-92.2368 708.552,-86.7472 698.044,-85.3876 699.49,-92.2368"/>
<text text-anchor="middle" x="596" y="-117" font-family="Sans" font-size="10.00">requires</text>
</g>
<!-- ncm&#45;cdispd#42 -->
<g id="node32" class="node"><title>ncm-cdispd#42</title>
<polygon fill="lightgrey" stroke="black" points="797,-40.5 703,-40.5 703,0.5 797,0.5 797,-40.5"/>
<text text-anchor="middle" x="750" y="-17.5" font-family="Sans" font-size="10.00">ncm-cdispd#42</text>
</g>
<!-- CAF#98&#45;&gt;ncm&#45;cdispd#42 -->
<g id="edge26" class="edge"><title>CAF#98-&gt;ncm-cdispd#42</title>
<path fill="none" stroke="black" d="M481.57,-141.742C508.493,-139.007 543.538,-131.548 568,-112 575.764,-105.796 571.743,-99.7214 578,-92 597.315,-68.1634 604.465,-62.5302 632,-49 650.788,-39.7676 672.741,-33.3353 692.583,-28.9194"/>
<polygon fill="none" stroke="black" points="693.366,-32.3314 702.433,-26.8502 691.927,-25.4809 693.366,-32.3314"/>
<text text-anchor="middle" x="596" y="-96" font-family="Sans" font-size="10.00">requires</text>
</g>
<!-- CCM#155 -->
<g id="node33" class="node"><title>CCM#155</title>
<a xlink:href="https://github.com/quattor/CCM/pull/155" xlink:title="Fetch::Config: support valid principal with -" target="_parent">
<polygon fill="#6cc644" stroke="black" points="481,-1553 403,-1553 403,-1499 481,-1499 481,-1553"/>
<text text-anchor="middle" x="442" y="-1530" font-family="Sans" font-size="10.00">pull-request</text>
<text text-anchor="middle" x="442" y="-1517" font-family="Sans" font-size="10.00">CCM#155</text>
</a>
</g>
<!-- CCM#154 -->
<g id="node35" class="node"><title>CCM#154</title>
<a xlink:href="https://github.com/quattor/CCM/issues/154" xlink:title="ccm-fetch fails claiming illegal characters in kerberos principal" target="_parent">
<ellipse fill="#6cc644" stroke="black" cx="750" cy="-1526" rx="51.1176" ry="38.1838"/>
<text text-anchor="middle" x="750" y="-1530" font-family="Sans" font-size="10.00">issue</text>
<text text-anchor="middle" x="750" y="-1517" font-family="Sans" font-size="10.00">CCM#154</text>
</a>
</g>
<!-- CCM#155&#45;&gt;CCM#154 -->
<g id="edge28" class="edge"><title>CCM#155-&gt;CCM#154</title>
<path fill="none" stroke="black" d="M481.635,-1526C533.932,-1526 626.538,-1526 688.103,-1526"/>
<polygon fill="black" stroke="black" points="688.462,-1529.5 698.462,-1526 688.462,-1522.5 688.462,-1529.5"/>
<text text-anchor="middle" x="596" y="-1530" font-family="Sans" font-size="10.00">fixes</text>
</g>
<!-- CCM#153 -->
<g id="node36" class="node"><title>CCM#153</title>
<a xlink:href="https://github.com/quattor/CCM/pull/153" xlink:title="TextRender: cast_double and cast_long fail on non-numeric argument" target="_parent">
<polygon fill="#6e5494" stroke="black" points="481,-1459 403,-1459 403,-1405 481,-1405 481,-1459"/>
<text text-anchor="middle" x="442" y="-1436" font-family="Sans" font-size="10.00">pull-request</text>
<text text-anchor="middle" x="442" y="-1423" font-family="Sans" font-size="10.00">CCM#153</text>
</a>
</g>
<!-- CCM#95 -->
<g id="node38" class="node"><title>CCM#95</title>
<a xlink:href="https://github.com/quattor/CCM/issues/95" xlink:title="TextRender: cast_double and friends do not fail on impossible conversion" target="_parent">
<ellipse fill="#bd2c00" stroke="black" cx="750" cy="-1432" rx="48.0833" ry="38.1838"/>
<text text-anchor="middle" x="750" y="-1436" font-family="Sans" font-size="10.00">issue</text>
<text text-anchor="middle" x="750" y="-1423" font-family="Sans" font-size="10.00">CCM#95</text>
</a>
</g>
<!-- CCM#153&#45;&gt;CCM#95 -->
<g id="edge30" class="edge"><title>CCM#153-&gt;CCM#95</title>
<path fill="none" stroke="black" d="M481.635,-1432C534.93,-1432 630.089,-1432 691.594,-1432"/>
<polygon fill="black" stroke="black" points="691.916,-1435.5 701.916,-1432 691.916,-1428.5 691.916,-1435.5"/>
<text text-anchor="middle" x="596" y="-1436" font-family="Sans" font-size="10.00">fixes</text>
</g>
<!-- CCM#152 -->
<g id="node39" class="node"><title>CCM#152</title>
<a xlink:href="https://github.com/quattor/CCM/pull/152" xlink:title="Remove unused syncfile" target="_parent">
<polygon fill="#6cc644" stroke="black" points="481,-1335 403,-1335 403,-1281 481,-1281 481,-1335"/>
<text text-anchor="middle" x="442" y="-1312" font-family="Sans" font-size="10.00">pull-request</text>
<text text-anchor="middle" x="442" y="-1299" font-family="Sans" font-size="10.00">CCM#152</text>
</a>
</g>
<!-- CCM#143 -->
<g id="node41" class="node"><title>CCM#143</title>
<a xlink:href="https://github.com/quattor/CCM/issues/143" xlink:title="Remove SyncFile" target="_parent">
<ellipse fill="#6cc644" stroke="black" cx="750" cy="-1266" rx="51.1176" ry="38.1838"/>
<text text-anchor="middle" x="750" y="-1270" font-family="Sans" font-size="10.00">issue</text>
<text text-anchor="middle" x="750" y="-1257" font-family="Sans" font-size="10.00">CCM#143</text>
</a>
</g>
<!-- CCM#152&#45;&gt;CCM#143 -->
<g id="edge32" class="edge"><title>CCM#152-&gt;CCM#143</title>
<path fill="none" stroke="black" d="M481.635,-1302.6C534.27,-1295.42 627.74,-1282.67 689.296,-1274.28"/>
<polygon fill="black" stroke="black" points="689.831,-1277.74 699.267,-1272.92 688.886,-1270.8 689.831,-1277.74"/>
<text text-anchor="middle" x="596" y="-1293" font-family="Sans" font-size="10.00">fixes</text>
</g>
<!-- CCM#150 -->
<g id="node43" class="node"><title>CCM#150</title>
<a xlink:href="https://github.com/quattor/CCM/pull/150" xlink:title="Remove Property class" target="_parent">
<polygon fill="#6e5494" stroke="black" points="789,-1376 711,-1376 711,-1322 789,-1322 789,-1376"/>
<text text-anchor="middle" x="750" y="-1353" font-family="Sans" font-size="10.00">pull-request</text>
<text text-anchor="middle" x="750" y="-1340" font-family="Sans" font-size="10.00">CCM#150</text>
</a>
</g>
<!-- CCM#152&#45;&gt;CCM#150 -->
<g id="edge34" class="edge"><title>CCM#152-&gt;CCM#150</title>
<path fill="none" stroke="black" d="M481.635,-1313.28C537.387,-1320.7 638.953,-1334.22 699.88,-1342.33"/>
<polygon fill="none" stroke="black" points="699.655,-1345.83 710.029,-1343.68 700.579,-1338.89 699.655,-1345.83"/>
<text text-anchor="middle" x="596" y="-1334" font-family="Sans" font-size="10.00">requires</text>
</g>
<!-- CCM#107 -->
<g id="node48" class="node"><title>CCM#107</title>
<a xlink:href="https://github.com/quattor/CCM/issues/107" xlink:title="remove CCM::Property class" target="_parent">
<ellipse fill="#bd2c00" stroke="black" cx="1024" cy="-1432" rx="51.1176" ry="38.1838"/>
<text text-anchor="middle" x="1024" y="-1436" font-family="Sans" font-size="10.00">issue</text>
<text text-anchor="middle" x="1024" y="-1423" font-family="Sans" font-size="10.00">CCM#107</text>
</a>
</g>
<!-- CCM#150&#45;&gt;CCM#107 -->
<g id="edge38" class="edge"><title>CCM#150-&gt;CCM#107</title>
<path fill="none" stroke="black" d="M789.549,-1360.98C836.009,-1375.05 913.469,-1398.52 966.55,-1414.6"/>
<polygon fill="black" stroke="black" points="965.579,-1417.96 976.165,-1417.51 967.609,-1411.26 965.579,-1417.96"/>
<text text-anchor="middle" x="904" y="-1405" font-family="Sans" font-size="10.00">fixes</text>
</g>
<!-- configuration&#45;modules&#45;core#972 -->
<g id="node50" class="node"><title>configuration-modules-core#972</title>
<a xlink:href="https://github.com/quattor/configuration-modules-core/pull/972" xlink:title="Round of cleanup to prepare for removal of CCM::Property module" target="_parent">
<polygon fill="#6e5494" stroke="black" points="1107,-1304 941,-1304 941,-1250 1107,-1250 1107,-1304"/>
<text text-anchor="middle" x="1024" y="-1281" font-family="Sans" font-size="10.00">pull-request</text>
<text text-anchor="middle" x="1024" y="-1268" font-family="Sans" font-size="10.00">configuration-modules-core#972</text>
</a>
</g>
<!-- CCM#150&#45;&gt;configuration&#45;modules&#45;core#972 -->
<g id="edge40" class="edge"><title>CCM#150-&gt;configuration-modules-core#972</title>
<path fill="none" stroke="black" d="M789.549,-1338.61C826.291,-1328.95 882.422,-1314.2 930.55,-1301.56"/>
<polygon fill="none" stroke="black" points="931.592,-1304.9 940.374,-1298.97 929.813,-1298.13 931.592,-1304.9"/>
<text text-anchor="middle" x="904" y="-1317" font-family="Sans" font-size="10.00">requires</text>
</g>
<!-- aii#232 -->
<g id="node52" class="node"><title>aii#232</title>
<a xlink:href="https://github.com/quattor/aii/pull/232" xlink:title="Round of cleanup to prepare for removal of CCM::Property module" target="_parent">
<polygon fill="#6e5494" stroke="black" points="1063,-1376 985,-1376 985,-1322 1063,-1322 1063,-1376"/>
<text text-anchor="middle" x="1024" y="-1353" font-family="Sans" font-size="10.00">pull-request</text>
<text text-anchor="middle" x="1024" y="-1340" font-family="Sans" font-size="10.00">aii#232</text>
</a>
</g>
<!-- CCM#150&#45;&gt;aii#232 -->
<g id="edge42" class="edge"><title>CCM#150-&gt;aii#232</title>
<path fill="none" stroke="black" d="M789.549,-1349C838.317,-1349 921.242,-1349 974.274,-1349"/>
<polygon fill="none" stroke="black" points="974.463,-1352.5 984.463,-1349 974.463,-1345.5 974.463,-1352.5"/>
<text text-anchor="middle" x="904" y="-1353" font-family="Sans" font-size="10.00">requires</text>
</g>
<!-- CCM#151 -->
<g id="node44" class="node"><title>CCM#151</title>
<a xlink:href="https://github.com/quattor/CCM/pull/151" xlink:title="Path: add /software/components/download/files/ to safe unescape paths" target="_parent">
<polygon fill="#6cc644" stroke="black" points="481,-1199 403,-1199 403,-1145 481,-1145 481,-1199"/>
<text text-anchor="middle" x="442" y="-1176" font-family="Sans" font-size="10.00">pull-request</text>
<text text-anchor="middle" x="442" y="-1163" font-family="Sans" font-size="10.00">CCM#151</text>
</a>
</g>
<!-- CCM#149 -->
<g id="node46" class="node"><title>CCM#149</title>
<a xlink:href="https://github.com/quattor/CCM/issues/149" xlink:title="Add ncm-download files to safe unescape paths" target="_parent">
<ellipse fill="#6cc644" stroke="black" cx="750" cy="-1172" rx="51.1176" ry="38.1838"/>
<text text-anchor="middle" x="750" y="-1176" font-family="Sans" font-size="10.00">issue</text>
<text text-anchor="middle" x="750" y="-1163" font-family="Sans" font-size="10.00">CCM#149</text>
</a>
</g>
<!-- CCM#151&#45;&gt;CCM#149 -->
<g id="edge36" class="edge"><title>CCM#151-&gt;CCM#149</title>
<path fill="none" stroke="black" d="M481.635,-1172C533.932,-1172 626.538,-1172 688.103,-1172"/>
<polygon fill="black" stroke="black" points="688.462,-1175.5 698.462,-1172 688.462,-1168.5 688.462,-1175.5"/>
<text text-anchor="middle" x="596" y="-1176" font-family="Sans" font-size="10.00">fixes</text>
</g>
<!-- configuration&#45;modules&#45;core#973 -->
<g id="node60" class="node"><title>configuration-modules-core#973</title>
<a xlink:href="https://github.com/quattor/configuration-modules-core/issues/973" xlink:title="ncm-interactivelimits: bugs in comment and missing trailing newline" target="_parent">
<ellipse fill="#bd2c00" stroke="black" cx="1284" cy="-1277" rx="118.087" ry="38.1838"/>
<text text-anchor="middle" x="1284" y="-1281" font-family="Sans" font-size="10.00">issue</text>
<text text-anchor="middle" x="1284" y="-1268" font-family="Sans" font-size="10.00">configuration-modules-core#973</text>
</a>
</g>
<!-- configuration&#45;modules&#45;core#972&#45;&gt;configuration&#45;modules&#45;core#973 -->
<g id="edge48" class="edge"><title>configuration-modules-core#972-&gt;configuration-modules-core#973</title>
<path fill="none" stroke="black" d="M1107.7,-1277C1123.06,-1277 1139.42,-1277 1155.75,-1277"/>
<polygon fill="black" stroke="black" points="1155.9,-1280.5 1165.9,-1277 1155.9,-1273.5 1155.9,-1280.5"/>
<text text-anchor="middle" x="1137" y="-1281" font-family="Sans" font-size="10.00">fixes</text>
</g>
<!-- cdp&#45;listend#16 -->
<g id="node53" class="node"><title>cdp-listend#16</title>
<a xlink:href="https://github.com/quattor/cdp-listend/pull/16" xlink:title="Add hostname configuration option to choose the hostname/IP to listen on" target="_parent">
<polygon fill="#6cc644" stroke="black" points="796,-668 704,-668 704,-614 796,-614 796,-668"/>
<text text-anchor="middle" x="750" y="-645" font-family="Sans" font-size="10.00">pull-request</text>
<text text-anchor="middle" x="750" y="-632" font-family="Sans" font-size="10.00">cdp-listend#16</text>
</a>
</g>
<!-- cdp&#45;listend#15 -->
<g id="node55" class="node"><title>cdp-listend#15</title>
<a xlink:href="https://github.com/quattor/cdp-listend/issues/15" xlink:title="Issue with binding on a specific IP" target="_parent">
<ellipse fill="#6cc644" stroke="black" cx="1024" cy="-641" rx="65.0538" ry="38.1838"/>
<text text-anchor="middle" x="1024" y="-645" font-family="Sans" font-size="10.00">issue</text>
<text text-anchor="middle" x="1024" y="-632" font-family="Sans" font-size="10.00">cdp-listend#15</text>
</a>
</g>
<!-- cdp&#45;listend#16&#45;&gt;cdp&#45;listend#15 -->
<g id="edge44" class="edge"><title>cdp-listend#16-&gt;cdp-listend#15</title>
<path fill="none" stroke="black" d="M796.171,-641C837.819,-641 899.85,-641 948.674,-641"/>
<polygon fill="black" stroke="black" points="948.88,-644.5 958.88,-641 948.88,-637.5 948.88,-644.5"/>
<text text-anchor="middle" x="904" y="-645" font-family="Sans" font-size="10.00">fixes</text>
</g>
<!-- configuration&#45;modules&#45;core#976 -->
<g id="node56" class="node"><title>configuration-modules-core#976</title>
<a xlink:href="https://github.com/quattor/configuration-modules-core/pull/976" xlink:title="ncm-download: download to temporary file." target="_parent">
<polygon fill="#6e5494" stroke="black" points="525,-1105 359,-1105 359,-1051 525,-1051 525,-1105"/>
<text text-anchor="middle" x="442" y="-1082" font-family="Sans" font-size="10.00">pull-request</text>
<text text-anchor="middle" x="442" y="-1069" font-family="Sans" font-size="10.00">configuration-modules-core#976</text>
</a>
</g>
<!-- configuration&#45;modules&#45;core#975 -->
<g id="node58" class="node"><title>configuration-modules-core#975</title>
<a xlink:href="https://github.com/quattor/configuration-modules-core/issues/975" xlink:title="ncm-download: can leave partial files" target="_parent">
<ellipse fill="#bd2c00" stroke="black" cx="750" cy="-1078" rx="118.087" ry="38.1838"/>
<text text-anchor="middle" x="750" y="-1082" font-family="Sans" font-size="10.00">issue</text>
<text text-anchor="middle" x="750" y="-1069" font-family="Sans" font-size="10.00">configuration-modules-core#975</text>
</a>
</g>
<!-- configuration&#45;modules&#45;core#976&#45;&gt;configuration&#45;modules&#45;core#975 -->
<g id="edge46" class="edge"><title>configuration-modules-core#976-&gt;configuration-modules-core#975</title>
<path fill="none" stroke="black" d="M525.756,-1078C555.379,-1078 589.415,-1078 621.873,-1078"/>
<polygon fill="black" stroke="black" points="621.889,-1081.5 631.889,-1078 621.889,-1074.5 621.889,-1081.5"/>
<text text-anchor="middle" x="596" y="-1082" font-family="Sans" font-size="10.00">fixes</text>
</g>
<!-- configuration&#45;modules&#45;core#967 -->
<g id="node61" class="node"><title>configuration-modules-core#967</title>
<a xlink:href="https://github.com/quattor/configuration-modules-core/pull/967" xlink:title="ncm-opennebula: Include OpenNebula labels support" target="_parent">
<polygon fill="#6e5494" stroke="black" points="525,-964 359,-964 359,-910 525,-910 525,-964"/>
<text text-anchor="middle" x="442" y="-941" font-family="Sans" font-size="10.00">pull-request</text>
<text text-anchor="middle" x="442" y="-928" font-family="Sans" font-size="10.00">configuration-modules-core#967</text>
</a>
</g>
<!-- configuration&#45;modules&#45;core#959 -->
<g id="node63" class="node"><title>configuration-modules-core#959</title>
<a xlink:href="https://github.com/quattor/configuration-modules-core/issues/959" xlink:title="ncm-opennebula: Include Labels support" target="_parent">
<ellipse fill="#bd2c00" stroke="black" cx="750" cy="-890" rx="118.087" ry="38.1838"/>
<text text-anchor="middle" x="750" y="-894" font-family="Sans" font-size="10.00">issue</text>
<text text-anchor="middle" x="750" y="-881" font-family="Sans" font-size="10.00">configuration-modules-core#959</text>
</a>
</g>
<!-- configuration&#45;modules&#45;core#967&#45;&gt;configuration&#45;modules&#45;core#959 -->
<g id="edge50" class="edge"><title>configuration-modules-core#967-&gt;configuration-modules-core#959</title>
<path fill="none" stroke="black" d="M525.756,-924.219C558.891,-919.163 597.547,-913.264 633.34,-907.802"/>
<polygon fill="black" stroke="black" points="633.995,-911.243 643.353,-906.274 632.939,-904.323 633.995,-911.243"/>
<text text-anchor="middle" x="596" y="-919" font-family="Sans" font-size="10.00">fix</text>
</g>
<!-- configuration&#45;modules&#45;core#966 -->
<g id="node65" class="node"><title>configuration-modules-core#966</title>
<a xlink:href="https://github.com/quattor/configuration-modules-core/issues/966" xlink:title="ncm-opennebula: src/test/perl/host.t fails with Net::OpenNebula 0.309.0" target="_parent">
<ellipse fill="#bd2c00" stroke="black" cx="750" cy="-984" rx="118.087" ry="38.1838"/>
<text text-anchor="middle" x="750" y="-988" font-family="Sans" font-size="10.00">issue</text>
<text text-anchor="middle" x="750" y="-975" font-family="Sans" font-size="10.00">configuration-modules-core#966</text>
</a>
</g>
<!-- configuration&#45;modules&#45;core#967&#45;&gt;configuration&#45;modules&#45;core#966 -->
<g id="edge52" class="edge"><title>configuration-modules-core#967-&gt;configuration-modules-core#966</title>
<path fill="none" stroke="black" d="M525.756,-949.781C558.891,-954.837 597.547,-960.736 633.34,-966.198"/>
<polygon fill="black" stroke="black" points="632.939,-969.677 643.353,-967.726 633.995,-962.757 632.939,-969.677"/>
<text text-anchor="middle" x="596" y="-966" font-family="Sans" font-size="10.00">fix</text>
</g>
<!-- configuration&#45;modules&#45;core#957 -->
<g id="node66" class="node"><title>configuration-modules-core#957</title>
<a xlink:href="https://github.com/quattor/configuration-modules-core/pull/957" xlink:title="ncm-gpfs: allow to run mmsdrfrestore after each configfetch" target="_parent">
<polygon fill="#6e5494" stroke="black" points="525,-834 359,-834 359,-780 525,-780 525,-834"/>
<text text-anchor="middle" x="442" y="-811" font-family="Sans" font-size="10.00">pull-request</text>
<text text-anchor="middle" x="442" y="-798" font-family="Sans" font-size="10.00">configuration-modules-core#957</text>
</a>
</g>
<!-- configuration&#45;modules&#45;core#911 -->
<g id="node68" class="node"><title>configuration-modules-core#911</title>
<a xlink:href="https://github.com/quattor/configuration-modules-core/pull/911" xlink:title="ncm-gpfs: add ccr support" target="_parent">
<polygon fill="#6e5494" stroke="black" points="833,-834 667,-834 667,-780 833,-780 833,-834"/>
<text text-anchor="middle" x="750" y="-811" font-family="Sans" font-size="10.00">pull-request</text>
<text text-anchor="middle" x="750" y="-798" font-family="Sans" font-size="10.00">configuration-modules-core#911</text>
</a>
</g>
<!-- configuration&#45;modules&#45;core#957&#45;&gt;configuration&#45;modules&#45;core#911 -->
<g id="edge54" class="edge"><title>configuration-modules-core#957-&gt;configuration-modules-core#911</title>
<path fill="none" stroke="black" d="M525.756,-807C566.074,-807 614.568,-807 656.13,-807"/>
<polygon fill="none" stroke="black" points="656.261,-810.5 666.261,-807 656.261,-803.5 656.261,-810.5"/>
<text text-anchor="middle" x="596" y="-811" font-family="Sans" font-size="10.00">requires</text>
</g>
<!-- configuration&#45;modules&#45;core#950 -->
<g id="node69" class="node"><title>configuration-modules-core#950</title>
<a xlink:href="https://github.com/quattor/configuration-modules-core/issues/950" xlink:title="ncm-spma: Remove support for package groups from yum backends" target="_parent">
<ellipse fill="#6cc644" stroke="black" cx="134" cy="-2238" rx="118.087" ry="38.1838"/>
<text text-anchor="middle" x="134" y="-2242" font-family="Sans" font-size="10.00">issue</text>
<text text-anchor="middle" x="134" y="-2229" font-family="Sans" font-size="10.00">configuration-modules-core#950</text>
</a>
</g>
<!-- configuration&#45;modules&#45;core#951 -->
<g id="node71" class="node"><title>configuration-modules-core#951</title>
<a xlink:href="https://github.com/quattor/configuration-modules-core/issues/951" xlink:title="ncm-spma (yum): Remove support for package groups" target="_parent">
<ellipse fill="#6cc644" stroke="black" cx="442" cy="-2192" rx="118.087" ry="38.1838"/>
<text text-anchor="middle" x="442" y="-2196" font-family="Sans" font-size="10.00">issue</text>
<text text-anchor="middle" x="442" y="-2183" font-family="Sans" font-size="10.00">configuration-modules-core#951</text>
</a>
</g>
<!-- configuration&#45;modules&#45;core#950&#45;&gt;configuration&#45;modules&#45;core#951 -->
<g id="edge56" class="edge"><title>configuration-modules-core#950-&gt;configuration-modules-core#951</title>
<path fill="none" stroke="black" d="M241.291,-2221.98C268.273,-2217.95 297.367,-2213.6 324.806,-2209.5"/>
<polygon fill="none" stroke="black" points="325.459,-2212.94 334.833,-2208.01 324.425,-2206.02 325.459,-2212.94"/>
<text text-anchor="middle" x="288" y="-2221" font-family="Sans" font-size="10.00">requires</text>
</g>
<!-- configuration&#45;modules&#45;core#952 -->
<g id="node73" class="node"><title>configuration-modules-core#952</title>
<a xlink:href="https://github.com/quattor/configuration-modules-core/issues/952" xlink:title="ncm-spma (yumng): Remove support for package groups" target="_parent">
<ellipse fill="#6cc644" stroke="black" cx="442" cy="-2286" rx="118.087" ry="38.1838"/>
<text text-anchor="middle" x="442" y="-2290" font-family="Sans" font-size="10.00">issue</text>
<text text-anchor="middle" x="442" y="-2277" font-family="Sans" font-size="10.00">configuration-modules-core#952</text>
</a>
</g>
<!-- configuration&#45;modules&#45;core#950&#45;&gt;configuration&#45;modules&#45;core#952 -->
<g id="edge58" class="edge"><title>configuration-modules-core#950-&gt;configuration-modules-core#952</title>
<path fill="none" stroke="black" d="M240.427,-2254.59C267.838,-2258.86 297.478,-2263.48 325.376,-2267.82"/>
<polygon fill="none" stroke="black" points="325.149,-2271.33 335.568,-2269.41 326.227,-2264.42 325.149,-2271.33"/>
<text text-anchor="middle" x="288" y="-2267" font-family="Sans" font-size="10.00">requires</text>
</g>
<!-- configuration&#45;modules&#45;core#945 -->
<g id="node74" class="node"><title>configuration-modules-core#945</title>
<a xlink:href="https://github.com/quattor/configuration-modules-core/pull/945" xlink:title="ncm-cdp : Update ncm-cdp schema to support hostname" target="_parent">
<polygon fill="#6cc644" stroke="black" points="525,-691 359,-691 359,-637 525,-637 525,-691"/>
<text text-anchor="middle" x="442" y="-668" font-family="Sans" font-size="10.00">pull-request</text>
<text text-anchor="middle" x="442" y="-655" font-family="Sans" font-size="10.00">configuration-modules-core#945</text>
</a>
</g>
<!-- configuration&#45;modules&#45;core#945&#45;&gt;cdp&#45;listend#16 -->
<g id="edge62" class="edge"><title>configuration-modules-core#945-&gt;cdp-listend#16</title>
<path fill="none" stroke="black" d="M525.756,-657.746C579.194,-653.755 646.994,-648.692 693.981,-645.183"/>
<polygon fill="none" stroke="black" points="694.262,-648.672 703.974,-644.437 693.741,-641.692 694.262,-648.672"/>
<text text-anchor="middle" x="596" y="-658" font-family="Sans" font-size="10.00">requires</text>
</g>
<!-- configuration&#45;modules&#45;core#944 -->
<g id="node76" class="node"><title>configuration-modules-core#944</title>
<a xlink:href="https://github.com/quattor/configuration-modules-core/issues/944" xlink:title="cdp: suport hostname config" target="_parent">
<ellipse fill="#6cc644" stroke="black" cx="750" cy="-724" rx="118.087" ry="38.1838"/>
<text text-anchor="middle" x="750" y="-728" font-family="Sans" font-size="10.00">issue</text>
<text text-anchor="middle" x="750" y="-715" font-family="Sans" font-size="10.00">configuration-modules-core#944</text>
</a>
</g>
<!-- configuration&#45;modules&#45;core#945&#45;&gt;configuration&#45;modules&#45;core#944 -->
<g id="edge60" class="edge"><title>configuration-modules-core#945-&gt;configuration-modules-core#944</title>
<path fill="none" stroke="black" d="M525.756,-680.316C560.667,-687.117 601.709,-695.112 639.073,-702.391"/>
<polygon fill="black" stroke="black" points="638.509,-705.847 648.994,-704.323 639.848,-698.976 638.509,-705.847"/>
<text text-anchor="middle" x="596" y="-700" font-family="Sans" font-size="10.00">fixes</text>
</g>
<!-- maven&#45;tools#115 -->
<g id="node78" class="node"><title>maven-tools#115</title>
<a xlink:href="https://github.com/quattor/maven-tools/pull/115" xlink:title="Test::Quattor::Critic: add Perl::Critic whitelist testing" target="_parent">
<polygon fill="#6cc644" stroke="black" points="493,-596 391,-596 391,-542 493,-542 493,-596"/>
<text text-anchor="middle" x="442" y="-573" font-family="Sans" font-size="10.00">pull-request</text>
<text text-anchor="middle" x="442" y="-560" font-family="Sans" font-size="10.00">maven-tools#115</text>
</a>
</g>
<!-- maven&#45;tools#114 -->
<g id="node80" class="node"><title>maven-tools#114</title>
<a xlink:href="https://github.com/quattor/maven-tools/pull/114" xlink:title="Test::Quattor::Unittest: add baseline unittests" target="_parent">
<polygon fill="#6cc644" stroke="black" points="801,-596 699,-596 699,-542 801,-542 801,-596"/>
<text text-anchor="middle" x="750" y="-573" font-family="Sans" font-size="10.00">pull-request</text>
<text text-anchor="middle" x="750" y="-560" font-family="Sans" font-size="10.00">maven-tools#114</text>
</a>
</g>
<!-- maven&#45;tools#115&#45;&gt;maven&#45;tools#114 -->
<g id="edge64" class="edge"><title>maven-tools#115-&gt;maven-tools#114</title>
<path fill="none" stroke="black" d="M493.552,-569C547.076,-569 630.816,-569 687.937,-569"/>
<polygon fill="none" stroke="black" points="688.28,-572.5 698.28,-569 688.28,-565.5 688.28,-572.5"/>
<text text-anchor="middle" x="596" y="-573" font-family="Sans" font-size="10.00">requires</text>
</g>
<!-- maven&#45;tools#113 -->
<g id="node81" class="node"><title>maven-tools#113</title>
<a xlink:href="https://github.com/quattor/maven-tools/pull/113" xlink:title="maven-tools: add component config.pan and schema.pan header templates" target="_parent">
<polygon fill="#6cc644" stroke="black" points="493,-513 391,-513 391,-459 493,-459 493,-513"/>
<text text-anchor="middle" x="442" y="-490" font-family="Sans" font-size="10.00">pull-request</text>
<text text-anchor="middle" x="442" y="-477" font-family="Sans" font-size="10.00">maven-tools#113</text>
</a>
</g>
<!-- maven&#45;tools#109 -->
<g id="node83" class="node"><title>maven-tools#109</title>
<a xlink:href="https://github.com/quattor/maven-tools/issues/109" xlink:title="Add support for site specific component configuration to component configs" target="_parent">
<ellipse fill="#6cc644" stroke="black" cx="750" cy="-486" rx="72.832" ry="38.1838"/>
<text text-anchor="middle" x="750" y="-490" font-family="Sans" font-size="10.00">issue</text>
<text text-anchor="middle" x="750" y="-477" font-family="Sans" font-size="10.00">maven-tools#109</text>
</a>
</g>
<!-- maven&#45;tools#113&#45;&gt;maven&#45;tools#109 -->
<g id="edge66" class="edge"><title>maven-tools#113-&gt;maven-tools#109</title>
<path fill="none" stroke="black" d="M493.552,-486C540.789,-486 611.559,-486 666.797,-486"/>
<polygon fill="black" stroke="black" points="666.921,-489.5 676.921,-486 666.921,-482.5 666.921,-489.5"/>
<text text-anchor="middle" x="596" y="-490" font-family="Sans" font-size="10.00">fixes</text>
</g>
<!-- ncm&#45;ncd#102 -->
<g id="node84" class="node"><title>ncm-ncd#102</title>
<a xlink:href="https://github.com/quattor/ncm-ncd/pull/102" xlink:title="NCM::Component: remove escape and unescape methods" target="_parent">
<polygon fill="#6cc644" stroke="black" points="485,-404 399,-404 399,-350 485,-350 485,-404"/>
<text text-anchor="middle" x="442" y="-381" font-family="Sans" font-size="10.00">pull-request</text>
<text text-anchor="middle" x="442" y="-368" font-family="Sans" font-size="10.00">ncm-ncd#102</text>
</a>
</g>
<!-- configuration&#45;modules&#45;core#980 -->
<g id="node86" class="node"><title>configuration-modules-core#980</title>
<a xlink:href="https://github.com/quattor/configuration-modules-core/pull/980" xlink:title="ncm-mcx, ncm-directoryservices: Remove unescape method from NCM::Component" target="_parent">
<polygon fill="#6e5494" stroke="black" points="833,-358 667,-358 667,-304 833,-304 833,-358"/>
<text text-anchor="middle" x="750" y="-335" font-family="Sans" font-size="10.00">pull-request</text>
<text text-anchor="middle" x="750" y="-322" font-family="Sans" font-size="10.00">configuration-modules-core#980</text>
</a>
</g>
<!-- ncm&#45;ncd#102&#45;&gt;configuration&#45;modules&#45;core#980 -->
<g id="edge68" class="edge"><title>ncm-ncd#102-&gt;configuration-modules-core#980</title>
<path fill="none" stroke="black" d="M485.802,-370.458C529.984,-363.86 599.578,-353.466 656.25,-345.002"/>
<polygon fill="none" stroke="black" points="656.936,-348.438 666.31,-343.499 655.902,-341.515 656.936,-348.438"/>
<text text-anchor="middle" x="596" y="-360" font-family="Sans" font-size="10.00">requires</text>
</g>
<!-- aii#233 -->
<g id="node88" class="node"><title>aii#233</title>
<a xlink:href="https://github.com/quattor/aii/pull/233" xlink:title="aii-ks: remove Component escape method" target="_parent">
<polygon fill="#6e5494" stroke="black" points="789,-430 711,-430 711,-376 789,-376 789,-430"/>
<text text-anchor="middle" x="750" y="-407" font-family="Sans" font-size="10.00">pull-request</text>
<text text-anchor="middle" x="750" y="-394" font-family="Sans" font-size="10.00">aii#233</text>
</a>
</g>
<!-- ncm&#45;ncd#102&#45;&gt;aii#233 -->
<g id="edge70" class="edge"><title>ncm-ncd#102-&gt;aii#233</title>
<path fill="none" stroke="black" d="M485.802,-380.698C542.361,-385.472 640.565,-393.762 699.992,-398.779"/>
<polygon fill="none" stroke="black" points="700.001,-402.292 710.26,-399.645 700.59,-395.316 700.001,-402.292"/>
<text text-anchor="middle" x="596" y="-395" font-family="Sans" font-size="10.00">requires</text>
</g>
<!-- ncm&#45;ncd#101 -->
<g id="node89" class="node"><title>ncm-ncd#101</title>
<a xlink:href="https://github.com/quattor/ncm-ncd/pull/101" xlink:title="CLI: report the used CCM configuration CID and (optional) name" target="_parent">
<polygon fill="#6e5494" stroke="black" points="485,-314 399,-314 399,-260 485,-260 485,-314"/>
<text text-anchor="middle" x="442" y="-291" font-family="Sans" font-size="10.00">pull-request</text>
<text text-anchor="middle" x="442" y="-278" font-family="Sans" font-size="10.00">ncm-ncd#101</text>
</a>
</g>
<!-- ncm&#45;ncd#92 -->
<g id="node91" class="node"><title>ncm-ncd#92</title>
<a xlink:href="https://github.com/quattor/ncm-ncd/issues/92" xlink:title="report configuration name during ncm-ncd start" target="_parent">
<ellipse fill="#bd2c00" stroke="black" cx="750" cy="-248" rx="57.9828" ry="38.1838"/>
<text text-anchor="middle" x="750" y="-252" font-family="Sans" font-size="10.00">issue</text>
<text text-anchor="middle" x="750" y="-239" font-family="Sans" font-size="10.00">ncm-ncd#92</text>
</a>
</g>
<!-- ncm&#45;ncd#101&#45;&gt;ncm&#45;ncd#92 -->
<g id="edge72" class="edge"><title>ncm-ncd#101-&gt;ncm-ncd#92</title>
<path fill="none" stroke="black" d="M485.802,-281.454C537.219,-274.943 623.052,-264.075 682.882,-256.499"/>
<polygon fill="black" stroke="black" points="683.512,-259.947 692.993,-255.218 682.632,-253.002 683.512,-259.947"/>
<text text-anchor="middle" x="596" y="-273" font-family="Sans" font-size="10.00">fixes</text>
</g>
<!-- ncm&#45;ncd#100 -->
<g id="node92" class="node"><title>ncm-ncd#100</title>
<a xlink:href="https://github.com/quattor/ncm-ncd/pull/100" xlink:title="Set check-noquattor to true by default" target="_parent">
<polygon fill="#6cc644" stroke="black" points="485,-242 399,-242 399,-188 485,-188 485,-242"/>
<text text-anchor="middle" x="442" y="-219" font-family="Sans" font-size="10.00">pull-request</text>
<text text-anchor="middle" x="442" y="-206" font-family="Sans" font-size="10.00">ncm-ncd#100</text>
</a>
</g>
<!-- ncm&#45;ncd#99 -->
<g id="node94" class="node"><title>ncm-ncd#99</title>
<a xlink:href="https://github.com/quattor/ncm-ncd/issues/99" xlink:title="enable check-noquattor by default" target="_parent">
<ellipse fill="#6cc644" stroke="black" cx="750" cy="-154" rx="57.9828" ry="38.1838"/>
<text text-anchor="middle" x="750" y="-158" font-family="Sans" font-size="10.00">issue</text>
<text text-anchor="middle" x="750" y="-145" font-family="Sans" font-size="10.00">ncm-ncd#99</text>
</a>
</g>
<!-- ncm&#45;ncd#100&#45;&gt;ncm&#45;ncd#99 -->
<g id="edge74" class="edge"><title>ncm-ncd#100-&gt;ncm-ncd#99</title>
<path fill="none" stroke="black" d="M485.802,-206.325C537.611,-196.064 624.365,-178.882 684.248,-167.022"/>
<polygon fill="black" stroke="black" points="685.229,-170.396 694.359,-165.02 683.869,-163.529 685.229,-170.396"/>
<text text-anchor="middle" x="596" y="-191" font-family="Sans" font-size="10.00">fixes</text>
</g>
</g>
</svg>
