<?xml version="1.0" encoding="UTF-8" standalone="no"?>
<?xml-stylesheet href="relationships.css" type="text/css"?>
<!-- Generated by graphviz version 2.30.1 (20200930.0103)
 -->
<!-- Title: Dependencies Pages: 1 -->
<svg xmlns="http://www.w3.org/2000/svg" xmlns:xlink="http://www.w3.org/1999/xlink" width="1019pt" height="1387pt" viewBox="0.00 0.00 1019.00 1387.00">
<g id="graph0" class="graph" transform="scale(1 1) rotate(0) translate(4 1383)">
<title>Dependencies</title>
<polygon fill="white" stroke="white" points="-4,5 -4,-1383 1016,-1383 1016,5 -4,5"/>
<g id="clust3" class="cluster"><title>cluster_milestone_23.12</title>
<polygon fill="none" stroke="black" points="8,-671 8,-838 522,-838 522,-671 8,-671"/>
<text text-anchor="middle" x="265" y="-824.4" font-family="Sans" font-size="12.00">23.12</text>
</g>
<g id="clust2" class="cluster"><title>cluster_milestone_22.12</title>
<polygon fill="none" stroke="black" points="319,-8 319,-663 843,-663 843,-8 319,-8"/>
<text text-anchor="middle" x="581" y="-649.4" font-family="Sans" font-size="12.00">22.12</text>
</g>
<g id="clust1" class="cluster"><title>cluster_milestone_23.6</title>
<polygon fill="none" stroke="black" points="29,-422 29,-521 187,-521 187,-422 29,-422"/>
<text text-anchor="middle" x="108" y="-507.4" font-family="Sans" font-size="12.00">23.6</text>
</g>
<!-- aii#331 -->
<g id="node1" class="node"><title>aii#331</title>
<g id="a_node1"><a xlink:href="https://github.com/quattor/aii/pull/331" xlink:title="aii#331 (pull-request)" target="_parent">
<polygon fill="#6cc644" stroke="black" points="179,-491.5 37,-491.5 37,-430.5 179,-430.5 179,-491.5"/>
<text text-anchor="middle" x="108" y="-469.5" font-family="Sans" font-size="10.00">let aii generate ansible</text>
<text text-anchor="middle" x="108" y="-458.5" font-family="Sans" font-size="10.00">playbook for supported</text>
<text text-anchor="middle" x="108" y="-447.5" font-family="Sans" font-size="10.00">components</text>
</a>
</g>
</g>
<!-- aii#328 -->
<g id="node2" class="node"><title>aii#328</title>
<g id="a_node2"><a xlink:href="https://github.com/quattor/aii/pull/328" xlink:title="aii#328 (pull-request)" target="_parent">
<polygon fill="#6cc644" stroke="black" points="515,-486 333,-486 333,-436 515,-436 515,-486"/>
<text text-anchor="middle" x="424" y="-464" font-family="Sans" font-size="10.00">aii-ks: generate ks post section</text>
<text text-anchor="middle" x="424" y="-453" font-family="Sans" font-size="10.00">as standalone script</text>
</a>
</g>
</g>
<!-- aii#331&#45;&gt;aii#328 -->
<g id="edge1" class="edge"><title>aii#331-&gt;aii#328</title>
<path fill="none" stroke="black" stroke-dasharray="5,2" d="M179.077,-461C221.343,-461 275.883,-461 322.668,-461"/>
<polygon fill="none" stroke="black" points="322.834,-464.5 332.834,-461 322.834,-457.5 322.834,-464.5"/>
<text text-anchor="middle" x="235.574" y="-453" font-family="Sans" font-size="10.00">requires</text>
</g>
<!-- aii#280 -->
<g id="node3" class="node"><title>aii#280</title>
<polygon fill="lightgrey" stroke="black" points="1010.5,-567.5 943.5,-567.5 943.5,-528.5 1010.5,-528.5 1010.5,-567.5"/>
<text text-anchor="middle" x="977" y="-545.5" font-family="Sans" font-size="10.00">aii#280</text>
</g>
<!-- aii#328&#45;&gt;aii#280 -->
<g id="edge2" class="edge"><title>aii#328-&gt;aii#280</title>
<path fill="none" stroke="black" stroke-dasharray="5,2" d="M502.609,-486.02C560.218,-504.513 629.978,-526.704 637,-528 742.172,-547.412 868.51,-549.355 933.21,-548.84"/>
<polygon fill="none" stroke="black" points="933.465,-552.338 943.428,-548.734 933.393,-545.338 933.465,-552.338"/>
<text text-anchor="middle" x="700.497" y="-531.721" font-family="Sans" font-size="10.00">requires</text>
</g>
<!-- aii#316 -->
<g id="node4" class="node"><title>aii#316</title>
<g id="a_node4"><a xlink:href="https://github.com/quattor/aii/pull/316" xlink:title="aii#316 (pull-request)" target="_parent">
<polygon fill="#6e5494" stroke="black" points="824,-519.5 648,-519.5 648,-458.5 824,-458.5 824,-519.5"/>
<text text-anchor="middle" x="736" y="-497.5" font-family="Sans" font-size="10.00">aii-ks: generate kickstart repo</text>
<text text-anchor="middle" x="736" y="-486.5" font-family="Sans" font-size="10.00">entries based on SPMA</text>
<text text-anchor="middle" x="736" y="-475.5" font-family="Sans" font-size="10.00">configuration</text>
</a>
</g>
</g>
<!-- aii#328&#45;&gt;aii#316 -->
<g id="edge3" class="edge"><title>aii#328-&gt;aii#316</title>
<path fill="none" stroke="black" stroke-dasharray="5,2" d="M515.081,-469.136C553.563,-472.612 598.56,-476.676 637.792,-480.22"/>
<polygon fill="none" stroke="black" points="637.624,-483.719 647.899,-481.133 638.254,-476.747 637.624,-483.719"/>
<text text-anchor="middle" x="561.561" y="-467.141" font-family="Sans" font-size="10.00">requires</text>
</g>
<!-- aii#316&#45;&gt;aii#280 -->
<g id="edge4" class="edge"><title>aii#316-&gt;aii#280</title>
<path fill="none" stroke="black" stroke-dasharray="5,2" d="M824.299,-510.551C861.558,-519.749 903.33,-530.061 933.593,-537.531"/>
<polygon fill="none" stroke="black" points="932.844,-540.951 943.392,-539.95 934.522,-534.155 932.844,-540.951"/>
<text text-anchor="middle" x="863.778" y="-517.234" font-family="Sans" font-size="10.00">requires</text>
</g>
<!-- aii#314 -->
<g id="node5" class="node"><title>aii#314</title>
<polygon fill="lightgrey" stroke="black" points="1010.5,-452.5 943.5,-452.5 943.5,-413.5 1010.5,-413.5 1010.5,-452.5"/>
<text text-anchor="middle" x="977" y="-430.5" font-family="Sans" font-size="10.00">aii#314</text>
</g>
<!-- aii#316&#45;&gt;aii#314 -->
<g id="edge5" class="edge"><title>aii#316-&gt;aii#314</title>
<path fill="none" stroke="black" stroke-dasharray="5,2" d="M824.299,-468.545C861.558,-459.815 903.33,-450.027 933.593,-442.936"/>
<polygon fill="none" stroke="black" points="934.454,-446.33 943.392,-440.64 932.857,-439.514 934.454,-446.33"/>
<text text-anchor="middle" x="863.778" y="-446.608" font-family="Sans" font-size="10.00">requires</text>
</g>
<!-- aii#315 -->
<g id="node6" class="node"><title>aii#315</title>
<polygon fill="lightgrey" stroke="black" points="1010.5,-509.5 943.5,-509.5 943.5,-470.5 1010.5,-470.5 1010.5,-509.5"/>
<text text-anchor="middle" x="977" y="-487.5" font-family="Sans" font-size="10.00">aii#315</text>
</g>
<!-- aii#316&#45;&gt;aii#315 -->
<g id="edge6" class="edge"><title>aii#316-&gt;aii#315</title>
<path fill="none" stroke="black" stroke-dasharray="5,2" d="M824.299,-489.365C861.396,-489.52 902.967,-489.694 933.198,-489.821"/>
<polygon fill="none" stroke="black" points="933.377,-493.322 943.392,-489.864 933.406,-486.322 933.377,-493.322"/>
<text text-anchor="middle" x="863.962" y="-481.615" font-family="Sans" font-size="10.00">requires</text>
</g>
<!-- aii#299 -->
<g id="node7" class="node"><title>aii#299</title>
<g id="a_node7"><a xlink:href="https://github.com/quattor/aii/pull/299" xlink:title="aii#299 (pull-request)" target="_parent">
<polygon fill="#6cc644" stroke="black" points="812.5,-836 659.5,-836 659.5,-786 812.5,-786 812.5,-836"/>
<text text-anchor="middle" x="736" y="-814" font-family="Sans" font-size="10.00">aii-dhcp: support optional</text>
<text text-anchor="middle" x="736" y="-803" font-family="Sans" font-size="10.00">hostname ip verification</text>
</a>
</g>
</g>
<!-- aii#299&#45;&gt;aii#280 -->
<g id="edge7" class="edge"><title>aii#299-&gt;aii#280</title>
<path fill="none" stroke="black" stroke-dasharray="5,2" d="M812.646,-793.622C823.518,-789.033 834.04,-783.258 843,-776 909.655,-722.008 949.942,-625.074 966.785,-576.863"/>
<polygon fill="none" stroke="black" points="970.115,-577.942 970.024,-567.348 963.488,-575.686 970.115,-577.942"/>
<text text-anchor="middle" x="892.444" y="-685.352" font-family="Sans" font-size="10.00">requires</text>
</g>
<!-- CAF#257 -->
<g id="node8" class="node"><title>CAF#257</title>
<g id="a_node8"><a xlink:href="https://github.com/quattor/CAF/pull/257" xlink:title="CAF#257 (pull-request)" target="_parent">
<polygon fill="#6cc644" stroke="black" points="199.5,-803 16.5,-803 16.5,-753 199.5,-753 199.5,-803"/>
<text text-anchor="middle" x="108" y="-781" font-family="Sans" font-size="10.00">Process: run process as another</text>
<text text-anchor="middle" x="108" y="-770" font-family="Sans" font-size="10.00">user</text>
</a>
</g>
</g>
<!-- CAF#253 -->
<g id="node9" class="node"><title>CAF#253</title>
<g id="a_node9"><a xlink:href="https://github.com/quattor/CAF/issues/253" xlink:title="CAF#253 (issue)" target="_parent">
<path fill="#6cc644" stroke="black" d="M502,-808.5C502,-808.5 346,-808.5 346,-808.5 340,-808.5 334,-802.5 334,-796.5 334,-796.5 334,-759.5 334,-759.5 334,-753.5 340,-747.5 346,-747.5 346,-747.5 502,-747.5 502,-747.5 508,-747.5 514,-753.5 514,-759.5 514,-759.5 514,-796.5 514,-796.5 514,-802.5 508,-808.5 502,-808.5"/>
<text text-anchor="middle" x="424" y="-786.5" font-family="Sans" font-size="10.00">CAF::Process: Include an option</text>
<text text-anchor="middle" x="424" y="-775.5" font-family="Sans" font-size="10.00">to execute the command as an</text>
<text text-anchor="middle" x="424" y="-764.5" font-family="Sans" font-size="10.00">specific user</text>
</a>
</g>
</g>
<!-- CAF#257&#45;&gt;CAF#253 -->
<g id="edge8" class="edge"><title>CAF#257-&gt;CAF#253</title>
<path fill="none" stroke="black" stroke-width="2" d="M199.822,-778C238.561,-778 283.88,-778 323.522,-778"/>
<polygon fill="black" stroke="black" points="323.737,-781.5 333.737,-778 323.737,-774.5 323.737,-781.5"/>
<text text-anchor="middle" x="254.782" y="-770" font-family="Sans" font-size="10.00">fixes</text>
</g>
<!-- CAF#110 -->
<g id="node10" class="node"><title>CAF#110</title>
<g id="a_node10"><a xlink:href="https://github.com/quattor/CAF/pull/110" xlink:title="CAF#110 (pull-request)" target="_parent">
<polygon fill="#6cc644" stroke="black" points="183.5,-896 32.5,-896 32.5,-846 183.5,-846 183.5,-896"/>
<text text-anchor="middle" x="108" y="-874" font-family="Sans" font-size="10.00">CAF::Download class: API</text>
<text text-anchor="middle" x="108" y="-863" font-family="Sans" font-size="10.00">proposal</text>
</a>
</g>
</g>
<!-- CAF#120 -->
<g id="node11" class="node"><title>CAF#120</title>
<polygon fill="lightgrey" stroke="black" points="461,-890.5 387,-890.5 387,-851.5 461,-851.5 461,-890.5"/>
<text text-anchor="middle" x="424" y="-868.5" font-family="Sans" font-size="10.00">CAF#120</text>
</g>
<!-- CAF#110&#45;&gt;CAF#120 -->
<g id="edge9" class="edge"><title>CAF#110-&gt;CAF#120</title>
<path fill="none" stroke="black" stroke-dasharray="5,2" d="M183.812,-871C243.718,-871 325.856,-871 376.623,-871"/>
<polygon fill="none" stroke="black" points="376.651,-874.5 386.651,-871 376.651,-867.5 376.651,-874.5"/>
<text text-anchor="middle" x="265.255" y="-863" font-family="Sans" font-size="10.00">requires</text>
</g>
<!-- configuration&#45;modules&#45;core#1572 -->
<g id="node12" class="node"><title>configuration-modules-core#1572</title>
<g id="a_node12"><a xlink:href="https://github.com/quattor/configuration-modules-core/pull/1572" xlink:title="configuration-modules-core#1572 (pull-request)" target="_parent">
<polygon fill="#6cc644" stroke="black" points="513.5,-418 334.5,-418 334.5,-368 513.5,-368 513.5,-418"/>
<text text-anchor="middle" x="424" y="-396" font-family="Sans" font-size="10.00">ncm-spma: fix dnf provider not</text>
<text text-anchor="middle" x="424" y="-385" font-family="Sans" font-size="10.00">to remove running kernel</text>
</a>
</g>
</g>
<!-- configuration&#45;modules&#45;core#1565 -->
<g id="node13" class="node"><title>configuration-modules-core#1565</title>
<g id="a_node13"><a xlink:href="https://github.com/quattor/configuration-modules-core/issues/1565" xlink:title="configuration-modules-core#1565 (issue)" target="_parent">
<path fill="#6cc644" stroke="black" d="M816.5,-440.5C816.5,-440.5 655.5,-440.5 655.5,-440.5 649.5,-440.5 643.5,-434.5 643.5,-428.5 643.5,-428.5 643.5,-391.5 643.5,-391.5 643.5,-385.5 649.5,-379.5 655.5,-379.5 655.5,-379.5 816.5,-379.5 816.5,-379.5 822.5,-379.5 828.5,-385.5 828.5,-391.5 828.5,-391.5 828.5,-428.5 828.5,-428.5 828.5,-434.5 822.5,-440.5 816.5,-440.5"/>
<text text-anchor="middle" x="736" y="-418.5" font-family="Sans" font-size="10.00">ncm-spma: dnf provider tries to</text>
<text text-anchor="middle" x="736" y="-407.5" font-family="Sans" font-size="10.00">remove running kernel-core and</text>
<text text-anchor="middle" x="736" y="-396.5" font-family="Sans" font-size="10.00">fail</text>
</a>
</g>
</g>
<!-- configuration&#45;modules&#45;core#1572&#45;&gt;configuration&#45;modules&#45;core#1565 -->
<g id="edge10" class="edge"><title>configuration-modules-core#1572-&gt;configuration-modules-core#1565</title>
<path fill="none" stroke="black" stroke-width="2" d="M513.834,-391.701C551.116,-393.052 594.685,-395.37 633.249,-398.037"/>
<polygon fill="black" stroke="black" points="633.237,-401.545 643.459,-398.76 633.731,-394.563 633.237,-401.545"/>
<text text-anchor="middle" x="566.794" y="-386.684" font-family="Sans" font-size="10.00">fixes</text>
</g>
<!-- configuration&#45;modules&#45;core#1572&#45;&gt;configuration&#45;modules&#45;core#1565 -->
<g id="edge14" class="edge"><title>configuration-modules-core#1572-&gt;configuration-modules-core#1565</title>
<path fill="none" stroke="black" stroke-width="2" d="M513.834,-404.042C551.116,-406.78 594.685,-409.24 633.249,-410.803"/>
<polygon fill="black" stroke="black" points="633.33,-414.309 643.459,-411.2 633.602,-407.314 633.33,-414.309"/>
<text text-anchor="middle" x="566.316" y="-400.157" font-family="Sans" font-size="10.00">fixes</text>
</g>
<!-- configuration&#45;modules&#45;core#1570 -->
<g id="node14" class="node"><title>configuration-modules-core#1570</title>
<g id="a_node14"><a xlink:href="https://github.com/quattor/configuration-modules-core/pull/1570" xlink:title="configuration-modules-core#1570 (pull-request)" target="_parent">
<polygon fill="#6e5494" stroke="black" points="507.5,-350 340.5,-350 340.5,-300 507.5,-300 507.5,-350"/>
<text text-anchor="middle" x="424" y="-328" font-family="Sans" font-size="10.00">ncm-ntpd: Validate interface</text>
<text text-anchor="middle" x="424" y="-317" font-family="Sans" font-size="10.00">match option</text>
</a>
</g>
</g>
<!-- configuration&#45;modules&#45;core#1481 -->
<g id="node15" class="node"><title>configuration-modules-core#1481</title>
<g id="a_node15"><a xlink:href="https://github.com/quattor/configuration-modules-core/issues/1481" xlink:title="configuration-modules-core#1481 (issue)" target="_parent">
<path fill="#6e5494" stroke="black" d="M816,-361C816,-361 656,-361 656,-361 650,-361 644,-355 644,-349 644,-349 644,-323 644,-323 644,-317 650,-311 656,-311 656,-311 816,-311 816,-311 822,-311 828,-317 828,-323 828,-323 828,-349 828,-349 828,-355 822,-361 816,-361"/>
<text text-anchor="middle" x="736" y="-339" font-family="Sans" font-size="10.00">ncm-ntpd: Validate the `match`</text>
<text text-anchor="middle" x="736" y="-328" font-family="Sans" font-size="10.00">option of `interface` directive</text>
</a>
</g>
</g>
<!-- configuration&#45;modules&#45;core#1570&#45;&gt;configuration&#45;modules&#45;core#1481 -->
<g id="edge11" class="edge"><title>configuration-modules-core#1570-&gt;configuration-modules-core#1481</title>
<path fill="none" stroke="black" stroke-width="2" d="M507.667,-321.884C546.359,-322.449 592.802,-323.988 633.596,-326.024"/>
<polygon fill="black" stroke="black" points="633.671,-329.532 643.838,-326.552 634.031,-322.542 633.671,-329.532"/>
<text text-anchor="middle" x="563.403" y="-315.59" font-family="Sans" font-size="10.00">fixes</text>
</g>
<!-- configuration&#45;modules&#45;core#1570&#45;&gt;configuration&#45;modules&#45;core#1481 -->
<g id="edge15" class="edge"><title>configuration-modules-core#1570-&gt;configuration-modules-core#1481</title>
<path fill="none" stroke="black" stroke-width="2" d="M507.667,-333.982C546.359,-336.163 592.802,-337.921 633.596,-338.78"/>
<polygon fill="black" stroke="black" points="633.772,-342.284 643.838,-338.978 633.908,-335.285 633.772,-342.284"/>
<text text-anchor="middle" x="563.403" y="-329.084" font-family="Sans" font-size="10.00">fixes</text>
</g>
<!-- configuration&#45;modules&#45;core#1567 -->
<g id="node16" class="node"><title>configuration-modules-core#1567</title>
<g id="a_node16"><a xlink:href="https://github.com/quattor/configuration-modules-core/pull/1567" xlink:title="configuration-modules-core#1567 (pull-request)" target="_parent">
<polygon fill="#6cc644" stroke="black" points="516.5,-282 331.5,-282 331.5,-232 516.5,-232 516.5,-282"/>
<text text-anchor="middle" x="424" y="-260" font-family="Sans" font-size="10.00">ncm-systemd: All Exec* options</text>
<text text-anchor="middle" x="424" y="-249" font-family="Sans" font-size="10.00">can be lists of strings</text>
</a>
</g>
</g>
<!-- configuration&#45;modules&#45;core#1262 -->
<g id="node17" class="node"><title>configuration-modules-core#1262</title>
<g id="a_node17"><a xlink:href="https://github.com/quattor/configuration-modules-core/issues/1262" xlink:title="configuration-modules-core#1262 (issue)" target="_parent">
<path fill="#6cc644" stroke="black" d="M823,-293C823,-293 649,-293 649,-293 643,-293 637,-287 637,-281 637,-281 637,-255 637,-255 637,-249 643,-243 649,-243 649,-243 823,-243 823,-243 829,-243 835,-249 835,-255 835,-255 835,-281 835,-281 835,-287 829,-293 823,-293"/>
<text text-anchor="middle" x="736" y="-271" font-family="Sans" font-size="10.00">ncm-systemd: ExecStart should be</text>
<text text-anchor="middle" x="736" y="-260" font-family="Sans" font-size="10.00">a list of string, not a string</text>
</a>
</g>
</g>
<!-- configuration&#45;modules&#45;core#1567&#45;&gt;configuration&#45;modules&#45;core#1262 -->
<g id="edge12" class="edge"><title>configuration-modules-core#1567-&gt;configuration-modules-core#1262</title>
<path fill="none" stroke="black" stroke-width="2" d="M516.752,-254.032C551.268,-254.65 590.834,-255.972 626.716,-257.688"/>
<polygon fill="black" stroke="black" points="626.571,-261.185 636.732,-258.182 626.916,-254.193 626.571,-261.185"/>
<text text-anchor="middle" x="564.921" y="-247.642" font-family="Sans" font-size="10.00">fixes</text>
</g>
<!-- configuration&#45;modules&#45;core#1567&#45;&gt;configuration&#45;modules&#45;core#1262 -->
<g id="edge16" class="edge"><title>configuration-modules-core#1567-&gt;configuration-modules-core#1262</title>
<path fill="none" stroke="black" stroke-width="2" d="M516.752,-266.479C551.268,-268.311 590.834,-269.797 626.716,-270.627"/>
<polygon fill="black" stroke="black" points="626.658,-274.127 636.732,-270.844 626.81,-267.129 626.658,-274.127"/>
<text text-anchor="middle" x="564.921" y="-261.14" font-family="Sans" font-size="10.00">fixes</text>
</g>
<!-- configuration&#45;modules&#45;core#1554 -->
<g id="node18" class="node"><title>configuration-modules-core#1554</title>
<g id="a_node18"><a xlink:href="https://github.com/quattor/configuration-modules-core/pull/1554" xlink:title="configuration-modules-core#1554 (pull-request)" target="_parent">
<polygon fill="#6cc644" stroke="black" points="509,-214 339,-214 339,-164 509,-164 509,-214"/>
<text text-anchor="middle" x="424" y="-192" font-family="Sans" font-size="10.00">avoid removing empty list of</text>
<text text-anchor="middle" x="424" y="-181" font-family="Sans" font-size="10.00">packages</text>
</a>
</g>
</g>
<!-- configuration&#45;modules&#45;core#1553 -->
<g id="node19" class="node"><title>configuration-modules-core#1553</title>
<g id="a_node19"><a xlink:href="https://github.com/quattor/configuration-modules-core/issues/1553" xlink:title="configuration-modules-core#1553 (issue)" target="_parent">
<path fill="#6cc644" stroke="black" d="M816.5,-224.5C816.5,-224.5 655.5,-224.5 655.5,-224.5 649.5,-224.5 643.5,-218.5 643.5,-212.5 643.5,-212.5 643.5,-175.5 643.5,-175.5 643.5,-169.5 649.5,-163.5 655.5,-163.5 655.5,-163.5 816.5,-163.5 816.5,-163.5 822.5,-163.5 828.5,-169.5 828.5,-175.5 828.5,-175.5 828.5,-212.5 828.5,-212.5 828.5,-218.5 822.5,-224.5 816.5,-224.5"/>
<text text-anchor="middle" x="736" y="-202.5" font-family="Sans" font-size="10.00">ncm-spma: update_pkgs in yum</text>
<text text-anchor="middle" x="736" y="-191.5" font-family="Sans" font-size="10.00">plugin tries to remove empty</text>
<text text-anchor="middle" x="736" y="-180.5" font-family="Sans" font-size="10.00">list of packages</text>
</a>
</g>
</g>
<!-- configuration&#45;modules&#45;core#1554&#45;&gt;configuration&#45;modules&#45;core#1553 -->
<g id="edge13" class="edge"><title>configuration-modules-core#1554-&gt;configuration-modules-core#1553</title>
<path fill="none" stroke="black" stroke-width="2" d="M509.299,-184.277C547.563,-184.119 593.142,-184.754 633.29,-185.977"/>
<polygon fill="black" stroke="black" points="633.265,-189.478 643.372,-186.301 633.489,-182.482 633.265,-189.478"/>
<text text-anchor="middle" x="564.057" y="-176.688" font-family="Sans" font-size="10.00">fixes</text>
</g>
<!-- configuration&#45;modules&#45;core#1554&#45;&gt;configuration&#45;modules&#45;core#1553 -->
<g id="edge17" class="edge"><title>configuration-modules-core#1554-&gt;configuration-modules-core#1553</title>
<path fill="none" stroke="black" stroke-width="2" d="M509.299,-196.442C547.563,-197.835 593.142,-198.67 633.29,-198.742"/>
<polygon fill="black" stroke="black" points="633.371,-202.242 643.372,-198.743 633.373,-195.242 633.371,-202.242"/>
<text text-anchor="middle" x="564.057" y="-190.184" font-family="Sans" font-size="10.00">fixes</text>
</g>
<!-- configuration&#45;modules&#45;core#1490 -->
<g id="node20" class="node"><title>configuration-modules-core#1490</title>
<g id="a_node20"><a xlink:href="https://github.com/quattor/configuration-modules-core/pull/1490" xlink:title="configuration-modules-core#1490 (pull-request)" target="_parent">
<polygon fill="#6e5494" stroke="black" points="507.5,-565.5 340.5,-565.5 340.5,-504.5 507.5,-504.5 507.5,-565.5"/>
<text text-anchor="middle" x="424" y="-543.5" font-family="Sans" font-size="10.00">ncm-ceph: Add support for</text>
<text text-anchor="middle" x="424" y="-532.5" font-family="Sans" font-size="10.00">orchestrator/cephadm under</text>
<text text-anchor="middle" x="424" y="-521.5" font-family="Sans" font-size="10.00">octopus</text>
</a>
</g>
</g>
<!-- configuration&#45;modules&#45;core#1463 -->
<g id="node21" class="node"><title>configuration-modules-core#1463</title>
<polygon fill="lightgrey" stroke="black" points="833.5,-710.5 638.5,-710.5 638.5,-671.5 833.5,-671.5 833.5,-710.5"/>
<text text-anchor="middle" x="736" y="-688.5" font-family="Sans" font-size="10.00">configuration-modules-core#1463</text>
</g>
<!-- configuration&#45;modules&#45;core#1490&#45;&gt;configuration&#45;modules&#45;core#1463 -->
<g id="edge18" class="edge"><title>configuration-modules-core#1490-&gt;configuration-modules-core#1463</title>
<path fill="none" stroke="black" stroke-dasharray="1,5" d="M507.698,-563.802C515.059,-567.258 522.266,-570.996 529,-575 583.2,-607.222 580.865,-638.282 637,-667 637.307,-667.157 637.615,-667.313 637.924,-667.468"/>
<polygon fill="black" stroke="black" points="647.149,-671.693 636.183,-671.62 642.603,-669.611 638.057,-667.529 638.057,-667.529 638.057,-667.529 642.603,-669.611 639.931,-663.438 647.149,-671.693 647.149,-671.693"/>
<text text-anchor="middle" x="556.93" y="-609.251" font-family="Sans" font-size="10.00">replaces</text>
</g>
<!-- configuration&#45;modules&#45;core#1464 -->
<g id="node22" class="node"><title>configuration-modules-core#1464</title>
<g id="a_node22"><a xlink:href="https://github.com/quattor/configuration-modules-core/pull/1464" xlink:title="configuration-modules-core#1464 (pull-request)" target="_parent">
<polygon fill="#6e5494" stroke="black" points="516,-145.5 332,-145.5 332,-84.5 516,-84.5 516,-145.5"/>
<text text-anchor="middle" x="424" y="-123.5" font-family="Sans" font-size="10.00">ncm-systemd: all pre and post</text>
<text text-anchor="middle" x="424" y="-112.5" font-family="Sans" font-size="10.00">exec commands now take a list</text>
<text text-anchor="middle" x="424" y="-101.5" font-family="Sans" font-size="10.00">instead of a string</text>
</a>
</g>
</g>
<!-- template&#45;library&#45;core#212 -->
<g id="node23" class="node"><title>template-library-core#212</title>
<g id="a_node23"><a xlink:href="https://github.com/quattor/template-library-core/pull/212" xlink:title="template-library-core#212 (pull-request)" target="_parent">
<polygon fill="#6e5494" stroke="black" points="823.5,-145.5 648.5,-145.5 648.5,-84.5 823.5,-84.5 823.5,-145.5"/>
<text text-anchor="middle" x="736" y="-123.5" font-family="Sans" font-size="10.00">Add a transitional type for</text>
<text text-anchor="middle" x="736" y="-112.5" font-family="Sans" font-size="10.00">strings being migrated to lists</text>
<text text-anchor="middle" x="736" y="-101.5" font-family="Sans" font-size="10.00">of strings</text>
</a>
</g>
</g>
<!-- configuration&#45;modules&#45;core#1464&#45;&gt;template&#45;library&#45;core#212 -->
<g id="edge19" class="edge"><title>configuration-modules-core#1464-&gt;template-library-core#212</title>
<path fill="none" stroke="black" stroke-dasharray="5,2" d="M516.334,-115C554.615,-115 599.168,-115 638.032,-115"/>
<polygon fill="none" stroke="black" points="638.306,-118.5 648.306,-115 638.306,-111.5 638.306,-118.5"/>
<text text-anchor="middle" x="562.323" y="-107" font-family="Sans" font-size="10.00">requires</text>
</g>
<!-- configuration&#45;modules&#45;core#1452 -->
<g id="node24" class="node"><title>configuration-modules-core#1452</title>
<g id="a_node24"><a xlink:href="https://github.com/quattor/configuration-modules-core/pull/1452" xlink:title="configuration-modules-core#1452 (pull-request)" target="_parent">
<polygon fill="#6cc644" stroke="black" points="510.5,-634 337.5,-634 337.5,-584 510.5,-584 510.5,-634"/>
<text text-anchor="middle" x="424" y="-612" font-family="Sans" font-size="10.00">ncm-metaconfig: ssh daemon</text>
<text text-anchor="middle" x="424" y="-601" font-family="Sans" font-size="10.00">configuration support</text>
</a>
</g>
</g>
<!-- configuration&#45;modules&#45;core#1377 -->
<g id="node25" class="node"><title>configuration-modules-core#1377</title>
<polygon fill="lightgrey" stroke="black" points="833.5,-767.5 638.5,-767.5 638.5,-728.5 833.5,-728.5 833.5,-767.5"/>
<text text-anchor="middle" x="736" y="-745.5" font-family="Sans" font-size="10.00">configuration-modules-core#1377</text>
</g>
<!-- configuration&#45;modules&#45;core#1452&#45;&gt;configuration&#45;modules&#45;core#1377 -->
<g id="edge20" class="edge"><title>configuration-modules-core#1452-&gt;configuration-modules-core#1377</title>
<path fill="none" stroke="black" stroke-dasharray="1,5" d="M471.014,-634.19C523.006,-662.416 604.599,-705.939 637,-719 642.482,-721.21 648.197,-723.336 653.991,-725.362"/>
<polygon fill="black" stroke="black" points="663.79,-728.675 652.875,-729.735 659.053,-727.073 654.317,-725.472 654.317,-725.472 654.317,-725.472 659.053,-727.073 655.758,-721.209 663.79,-728.675 663.79,-728.675"/>
<text text-anchor="middle" x="544.688" y="-676.525" font-family="Sans" font-size="10.00">replaces</text>
</g>
<!-- configuration&#45;modules&#45;core#1451 -->
<g id="node26" class="node"><title>configuration-modules-core#1451</title>
<polygon fill="lightgrey" stroke="black" points="833.5,-893.5 638.5,-893.5 638.5,-854.5 833.5,-854.5 833.5,-893.5"/>
<text text-anchor="middle" x="736" y="-871.5" font-family="Sans" font-size="10.00">configuration-modules-core#1451</text>
</g>
<!-- configuration&#45;modules&#45;core#1452&#45;&gt;configuration&#45;modules&#45;core#1451 -->
<g id="edge21" class="edge"><title>configuration-modules-core#1452-&gt;configuration-modules-core#1451</title>
<path fill="none" stroke="black" stroke-dasharray="5,2" d="M482.309,-634.098C498.587,-642.962 515.53,-654.015 529,-667 595.619,-731.222 563.705,-788.517 637,-845 639.091,-846.611 641.269,-848.133 643.518,-849.57"/>
<polygon fill="none" stroke="black" points="642.088,-852.784 652.507,-854.706 645.561,-846.706 642.088,-852.784"/>
<text text-anchor="middle" x="554.829" y="-733.552" font-family="Sans" font-size="10.00">requires</text>
</g>
<!-- configuration&#45;modules&#45;core#1573 -->
<g id="node27" class="node"><title>configuration-modules-core#1573</title>
<g id="a_node27"><a xlink:href="https://github.com/quattor/configuration-modules-core/pull/1573" xlink:title="configuration-modules-core#1573 (pull-request)" target="_parent">
<polygon fill="#6cc644" stroke="black" points="198,-964 18,-964 18,-914 198,-914 198,-964"/>
<text text-anchor="middle" x="108" y="-942" font-family="Sans" font-size="10.00">ncm-metaconfig: add lvm_conf</text>
<text text-anchor="middle" x="108" y="-931" font-family="Sans" font-size="10.00">config support</text>
</a>
</g>
</g>
<!-- configuration&#45;modules&#45;core#1566 -->
<g id="node28" class="node"><title>configuration-modules-core#1566</title>
<g id="a_node28"><a xlink:href="https://github.com/quattor/configuration-modules-core/issues/1566" xlink:title="configuration-modules-core#1566 (issue)" target="_parent">
<path fill="#6cc644" stroke="black" d="M504.5,-964C504.5,-964 343.5,-964 343.5,-964 337.5,-964 331.5,-958 331.5,-952 331.5,-952 331.5,-926 331.5,-926 331.5,-920 337.5,-914 343.5,-914 343.5,-914 504.5,-914 504.5,-914 510.5,-914 516.5,-920 516.5,-926 516.5,-926 516.5,-952 516.5,-952 516.5,-958 510.5,-964 504.5,-964"/>
<text text-anchor="middle" x="424" y="-942" font-family="Sans" font-size="10.00">ncm-metaconfig: add support to</text>
<text text-anchor="middle" x="424" y="-931" font-family="Sans" font-size="10.00">manage lvm.conf</text>
</a>
</g>
</g>
<!-- configuration&#45;modules&#45;core#1573&#45;&gt;configuration&#45;modules&#45;core#1566 -->
<g id="edge22" class="edge"><title>configuration-modules-core#1573-&gt;configuration-modules-core#1566</title>
<path fill="none" stroke="black" stroke-width="2" d="M198.14,-939C236.502,-939 281.559,-939 321.225,-939"/>
<polygon fill="black" stroke="black" points="321.453,-942.5 331.453,-939 321.453,-935.5 321.453,-942.5"/>
<text text-anchor="middle" x="252.615" y="-931" font-family="Sans" font-size="10.00">fixes</text>
</g>
<!-- configuration&#45;modules&#45;core#1507 -->
<g id="node29" class="node"><title>configuration-modules-core#1507</title>
<g id="a_node29"><a xlink:href="https://github.com/quattor/configuration-modules-core/pull/1507" xlink:title="configuration-modules-core#1507 (pull-request)" target="_parent">
<polygon fill="#6cc644" stroke="black" points="196,-1032 20,-1032 20,-982 196,-982 196,-1032"/>
<text text-anchor="middle" x="108" y="-1010" font-family="Sans" font-size="10.00">[WIP] ncm-spma: yumdnf: use</text>
<text text-anchor="middle" x="108" y="-999" font-family="Sans" font-size="10.00">spmaleaves dnf plugin</text>
</a>
</g>
</g>
<!-- configuration&#45;modules&#45;core#1401 -->
<g id="node30" class="node"><title>configuration-modules-core#1401</title>
<polygon fill="lightgrey" stroke="black" points="521.5,-1026.5 326.5,-1026.5 326.5,-987.5 521.5,-987.5 521.5,-1026.5"/>
<text text-anchor="middle" x="424" y="-1004.5" font-family="Sans" font-size="10.00">configuration-modules-core#1401</text>
</g>
<!-- configuration&#45;modules&#45;core#1507&#45;&gt;configuration&#45;modules&#45;core#1401 -->
<g id="edge23" class="edge"><title>configuration-modules-core#1507-&gt;configuration-modules-core#1401</title>
<path fill="none" stroke="black" stroke-dasharray="5,2" d="M196.05,-1007C233.203,-1007 276.927,-1007 316.027,-1007"/>
<polygon fill="none" stroke="black" points="316.391,-1010.5 326.391,-1007 316.391,-1003.5 316.391,-1010.5"/>
<text text-anchor="middle" x="241.549" y="-999" font-family="Sans" font-size="10.00">requires</text>
</g>
<!-- configuration&#45;modules&#45;core#1336 -->
<g id="node31" class="node"><title>configuration-modules-core#1336</title>
<g id="a_node31"><a xlink:href="https://github.com/quattor/configuration-modules-core/pull/1336" xlink:title="configuration-modules-core#1336 (pull-request)" target="_parent">
<polygon fill="#6cc644" stroke="black" points="195,-1143.5 21,-1143.5 21,-1082.5 195,-1082.5 195,-1143.5"/>
<text text-anchor="middle" x="108" y="-1121.5" font-family="Sans" font-size="10.00">ncm-network: Add support for</text>
<text text-anchor="middle" x="108" y="-1110.5" font-family="Sans" font-size="10.00">CAF::Service actions after</text>
<text text-anchor="middle" x="108" y="-1099.5" font-family="Sans" font-size="10.00">changes</text>
</a>
</g>
</g>
<!-- configuration&#45;modules&#45;core#1335 -->
<g id="node32" class="node"><title>configuration-modules-core#1335</title>
<g id="a_node32"><a xlink:href="https://github.com/quattor/configuration-modules-core/pull/1335" xlink:title="configuration-modules-core#1335 (pull-request)" target="_parent">
<polygon fill="#6cc644" stroke="black" points="517,-1174.5 331,-1174.5 331,-1113.5 517,-1113.5 517,-1174.5"/>
<text text-anchor="middle" x="424" y="-1152.5" font-family="Sans" font-size="10.00">ncm-metaconfig: Remove</text>
<text text-anchor="middle" x="424" y="-1141.5" font-family="Sans" font-size="10.00">caf_service_action type to allow</text>
<text text-anchor="middle" x="424" y="-1130.5" font-family="Sans" font-size="10.00">reuse</text>
</a>
</g>
</g>
<!-- configuration&#45;modules&#45;core#1336&#45;&gt;configuration&#45;modules&#45;core#1335 -->
<g id="edge24" class="edge"><title>configuration-modules-core#1336-&gt;configuration-modules-core#1335</title>
<path fill="none" stroke="black" stroke-dasharray="5,2" d="M195.217,-1121.51C234.047,-1125.35 280.184,-1129.9 320.746,-1133.9"/>
<polygon fill="none" stroke="black" points="320.636,-1137.41 330.931,-1134.91 321.323,-1130.44 320.636,-1137.41"/>
<text text-anchor="middle" x="242.868" y="-1120.19" font-family="Sans" font-size="10.00">requires</text>
</g>
<!-- configuration&#45;modules&#45;core#1071 -->
<g id="node33" class="node"><title>configuration-modules-core#1071</title>
<g id="a_node33"><a xlink:href="https://github.com/quattor/configuration-modules-core/issues/1071" xlink:title="configuration-modules-core#1071 (issue)" target="_parent">
<path fill="#6cc644" stroke="black" d="M510.5,-1095C510.5,-1095 337.5,-1095 337.5,-1095 331.5,-1095 325.5,-1089 325.5,-1083 325.5,-1083 325.5,-1057 325.5,-1057 325.5,-1051 331.5,-1045 337.5,-1045 337.5,-1045 510.5,-1045 510.5,-1045 516.5,-1045 522.5,-1051 522.5,-1057 522.5,-1057 522.5,-1083 522.5,-1083 522.5,-1089 516.5,-1095 510.5,-1095"/>
<text text-anchor="middle" x="424" y="-1073" font-family="Sans" font-size="10.00">ncm-network: support daemons to</text>
<text text-anchor="middle" x="424" y="-1062" font-family="Sans" font-size="10.00">restart after network changes</text>
</a>
</g>
</g>
<!-- configuration&#45;modules&#45;core#1336&#45;&gt;configuration&#45;modules&#45;core#1071 -->
<g id="edge25" class="edge"><title>configuration-modules-core#1336-&gt;configuration-modules-core#1071</title>
<path fill="none" stroke="black" stroke-width="2" d="M195.217,-1101.19C232.216,-1096.13 275.848,-1090.15 314.972,-1084.79"/>
<polygon fill="black" stroke="black" points="315.912,-1088.2 325.344,-1083.37 314.962,-1081.26 315.912,-1088.2"/>
<text text-anchor="middle" x="248.527" y="-1084.25" font-family="Sans" font-size="10.00">fixes</text>
</g>
<!-- template&#45;library&#45;core#191 -->
<g id="node34" class="node"><title>template-library-core#191</title>
<polygon fill="lightgrey" stroke="black" points="815.5,-1163.5 656.5,-1163.5 656.5,-1124.5 815.5,-1124.5 815.5,-1163.5"/>
<text text-anchor="middle" x="736" y="-1141.5" font-family="Sans" font-size="10.00">template-library-core#191</text>
</g>
<!-- configuration&#45;modules&#45;core#1335&#45;&gt;template&#45;library&#45;core#191 -->
<g id="edge26" class="edge"><title>configuration-modules-core#1335-&gt;template-library-core#191</title>
<path fill="none" stroke="black" stroke-dasharray="5,2" d="M517.171,-1144C557.975,-1144 605.772,-1144 646.18,-1144"/>
<polygon fill="none" stroke="black" points="646.285,-1147.5 656.285,-1144 646.285,-1140.5 646.285,-1147.5"/>
<text text-anchor="middle" x="566.484" y="-1136" font-family="Sans" font-size="10.00">requires</text>
</g>
<!-- configuration&#45;modules&#45;core#1148 -->
<g id="node35" class="node"><title>configuration-modules-core#1148</title>
<g id="a_node35"><a xlink:href="https://github.com/quattor/configuration-modules-core/pull/1148" xlink:title="configuration-modules-core#1148 (pull-request)" target="_parent">
<polygon fill="#6cc644" stroke="black" points="207.5,-1311 8.5,-1311 8.5,-1261 207.5,-1261 207.5,-1311"/>
<text text-anchor="middle" x="108" y="-1289" font-family="Sans" font-size="10.00">ncm-spma: Remove support from</text>
<text text-anchor="middle" x="108" y="-1278" font-family="Sans" font-size="10.00">groups from spma yumng backend</text>
</a>
</g>
</g>
<!-- configuration&#45;modules&#45;core#952 -->
<g id="node36" class="node"><title>configuration-modules-core#952</title>
<g id="a_node36"><a xlink:href="https://github.com/quattor/configuration-modules-core/issues/952" xlink:title="configuration-modules-core#952 (issue)" target="_parent">
<path fill="#6cc644" stroke="black" d="M517,-1311C517,-1311 331,-1311 331,-1311 325,-1311 319,-1305 319,-1299 319,-1299 319,-1273 319,-1273 319,-1267 325,-1261 331,-1261 331,-1261 517,-1261 517,-1261 523,-1261 529,-1267 529,-1273 529,-1273 529,-1299 529,-1299 529,-1305 523,-1311 517,-1311"/>
<text text-anchor="middle" x="424" y="-1289" font-family="Sans" font-size="10.00">ncm-spma (yumng): Remove support</text>
<text text-anchor="middle" x="424" y="-1278" font-family="Sans" font-size="10.00">for package groups</text>
</a>
</g>
</g>
<!-- configuration&#45;modules&#45;core#1148&#45;&gt;configuration&#45;modules&#45;core#952 -->
<g id="edge27" class="edge"><title>configuration-modules-core#1148-&gt;configuration-modules-core#952</title>
<path fill="none" stroke="black" stroke-width="2" d="M207.921,-1286C239.933,-1286 275.695,-1286 308.726,-1286"/>
<polygon fill="black" stroke="black" points="308.883,-1289.5 318.883,-1286 308.882,-1282.5 308.883,-1289.5"/>
<text text-anchor="middle" x="251.546" y="-1278" font-family="Sans" font-size="10.00">fixes</text>
</g>
<!-- configuration&#45;modules&#45;core#950 -->
<g id="node37" class="node"><title>configuration-modules-core#950</title>
<g id="a_node37"><a xlink:href="https://github.com/quattor/configuration-modules-core/issues/950" xlink:title="configuration-modules-core#950 (issue)" target="_parent">
<path fill="#6cc644" stroke="black" d="M199,-1243C199,-1243 17,-1243 17,-1243 11,-1243 5,-1237 5,-1231 5,-1231 5,-1205 5,-1205 5,-1199 11,-1193 17,-1193 17,-1193 199,-1193 199,-1193 205,-1193 211,-1199 211,-1205 211,-1205 211,-1231 211,-1231 211,-1237 205,-1243 199,-1243"/>
<text text-anchor="middle" x="108" y="-1221" font-family="Sans" font-size="10.00">ncm-spma: Remove support for</text>
<text text-anchor="middle" x="108" y="-1210" font-family="Sans" font-size="10.00">package groups from yum backends</text>
</a>
</g>
</g>
<!-- configuration&#45;modules&#45;core#951 -->
<g id="node38" class="node"><title>configuration-modules-core#951</title>
<g id="a_node38"><a xlink:href="https://github.com/quattor/configuration-modules-core/issues/951" xlink:title="configuration-modules-core#951 (issue)" target="_parent">
<path fill="#6cc644" stroke="black" d="M511,-1243C511,-1243 337,-1243 337,-1243 331,-1243 325,-1237 325,-1231 325,-1231 325,-1205 325,-1205 325,-1199 331,-1193 337,-1193 337,-1193 511,-1193 511,-1193 517,-1193 523,-1199 523,-1205 523,-1205 523,-1231 523,-1231 523,-1237 517,-1243 511,-1243"/>
<text text-anchor="middle" x="424" y="-1221" font-family="Sans" font-size="10.00">ncm-spma (yum): Remove support</text>
<text text-anchor="middle" x="424" y="-1210" font-family="Sans" font-size="10.00">for package groups</text>
</a>
</g>
</g>
<!-- configuration&#45;modules&#45;core#950&#45;&gt;configuration&#45;modules&#45;core#951 -->
<g id="edge28" class="edge"><title>configuration-modules-core#950-&gt;configuration-modules-core#951</title>
<path fill="none" stroke="black" stroke-dasharray="5,2" d="M211.381,-1218C244.386,-1218 281.071,-1218 314.502,-1218"/>
<polygon fill="none" stroke="black" points="314.765,-1221.5 324.765,-1218 314.765,-1214.5 314.765,-1221.5"/>
<text text-anchor="middle" x="248.107" y="-1210" font-family="Sans" font-size="10.00">requires</text>
</g>
<!-- configuration&#45;modules&#45;core#950&#45;&gt;configuration&#45;modules&#45;core#952 -->
<g id="edge29" class="edge"><title>configuration-modules-core#950-&gt;configuration-modules-core#952</title>
<path fill="none" stroke="black" stroke-dasharray="5,2" d="M211.381,-1240.17C242.602,-1246.93 277.116,-1254.41 309.053,-1261.32"/>
<polygon fill="none" stroke="black" points="308.361,-1264.75 318.876,-1263.45 309.843,-1257.91 308.361,-1264.75"/>
<text text-anchor="middle" x="245.372" y="-1243.86" font-family="Sans" font-size="10.00">requires</text>
</g>
<!-- template&#45;library&#45;grid#241 -->
<g id="node39" class="node"><title>template-library-grid#241</title>
<g id="a_node39"><a xlink:href="https://github.com/quattor/template-library-grid/pull/241" xlink:title="template-library-grid#241 (pull-request)" target="_parent">
<polygon fill="#6cc644" stroke="black" points="521,-66 327,-66 327,-16 521,-16 521,-66"/>
<text text-anchor="middle" x="424" y="-44" font-family="Sans" font-size="10.00">machines-types update based on</text>
<text text-anchor="middle" x="424" y="-33" font-family="Sans" font-size="10.00">new standard/machine-types/core</text>
</a>
</g>
</g>
<!-- template&#45;library&#45;standard#140 -->
<g id="node40" class="node"><title>template-library-standard#140</title>
<g id="a_node40"><a xlink:href="https://github.com/quattor/template-library-standard/pull/140" xlink:title="template-library-standard#140 (pull-request)" target="_parent">
<polygon fill="#6e5494" stroke="black" points="827,-66 645,-66 645,-16 827,-16 827,-66"/>
<text text-anchor="middle" x="736" y="-44" font-family="Sans" font-size="10.00">machine-types/core refactoring</text>
<text text-anchor="middle" x="736" y="-33" font-family="Sans" font-size="10.00">to make it more flexible</text>
</a>
</g>
</g>
<!-- template&#45;library&#45;grid#241&#45;&gt;template&#45;library&#45;standard#140 -->
<g id="edge30" class="edge"><title>template-library-grid#241-&gt;template-library-standard#140</title>
<path fill="none" stroke="black" stroke-dasharray="5,2" d="M521.387,-41C557.372,-41 598.301,-41 634.636,-41"/>
<polygon fill="none" stroke="black" points="634.754,-44.5001 644.754,-41 634.754,-37.5001 634.754,-44.5001"/>
<text text-anchor="middle" x="562.849" y="-33" font-family="Sans" font-size="10.00">requires</text>
</g>
<!-- template&#45;library&#45;grid#232 -->
<g id="node41" class="node"><title>template-library-grid#232</title>
<g id="a_node41"><a xlink:href="https://github.com/quattor/template-library-grid/pull/232" xlink:title="template-library-grid#232 (pull-request)" target="_parent">
<polygon fill="#6cc644" stroke="black" points="191.5,-729 24.5,-729 24.5,-679 191.5,-679 191.5,-729"/>
<text text-anchor="middle" x="108" y="-707" font-family="Sans" font-size="10.00">arc-ce: Export arc-ce feature</text>
<text text-anchor="middle" x="108" y="-696" font-family="Sans" font-size="10.00">from aquilon at RAL</text>
</a>
</g>
</g>
<!-- template&#45;library&#45;grid#221 -->
<g id="node42" class="node"><title>template-library-grid#221</title>
<g id="a_node42"><a xlink:href="https://github.com/quattor/template-library-grid/issues/221" xlink:title="template-library-grid#221 (issue)" target="_parent">
<path fill="#6cc644" stroke="black" d="M501,-729C501,-729 347,-729 347,-729 341,-729 335,-723 335,-717 335,-717 335,-691 335,-691 335,-685 341,-679 347,-679 347,-679 501,-679 501,-679 507,-679 513,-685 513,-691 513,-691 513,-717 513,-717 513,-723 507,-729 501,-729"/>
<text text-anchor="middle" x="424" y="-707" font-family="Sans" font-size="10.00">Support for new CE types (ARC</text>
<text text-anchor="middle" x="424" y="-696" font-family="Sans" font-size="10.00">CE, HTCONDOR CE)</text>
</a>
</g>
</g>
<!-- template&#45;library&#45;grid#232&#45;&gt;template&#45;library&#45;grid#221 -->
<g id="edge31" class="edge"><title>template-library-grid#232-&gt;template-library-grid#221</title>
<path fill="none" stroke="black" stroke-width="2" d="M191.911,-704C232.702,-704 282.151,-704 324.823,-704"/>
<polygon fill="black" stroke="black" points="324.947,-707.5 334.947,-704 324.947,-700.5 324.947,-707.5"/>
<text text-anchor="middle" x="251.543" y="-696" font-family="Sans" font-size="10.00">fixes</text>
</g>
<!-- template&#45;library&#45;standard#151 -->
<g id="node43" class="node"><title>template-library-standard#151</title>
<g id="a_node43"><a xlink:href="https://github.com/quattor/template-library-standard/pull/151" xlink:title="template-library-standard#151 (pull-request)" target="_parent">
<polygon fill="#6cc644" stroke="black" points="190,-1379 26,-1379 26,-1329 190,-1329 190,-1379"/>
<text text-anchor="middle" x="108" y="-1357" font-family="Sans" font-size="10.00">support for muti options</text>
<text text-anchor="middle" x="108" y="-1346" font-family="Sans" font-size="10.00">settings for logical volumes</text>
</a>
</g>
</g>
<!-- template&#45;library&#45;standard#150 -->
<g id="node44" class="node"><title>template-library-standard#150</title>
<g id="a_node44"><a xlink:href="https://github.com/quattor/template-library-standard/issues/150" xlink:title="template-library-standard#150 (issue)" target="_parent">
<path fill="#6cc644" stroke="black" d="M500.5,-1379C500.5,-1379 347.5,-1379 347.5,-1379 341.5,-1379 335.5,-1373 335.5,-1367 335.5,-1367 335.5,-1341 335.5,-1341 335.5,-1335 341.5,-1329 347.5,-1329 347.5,-1329 500.5,-1329 500.5,-1329 506.5,-1329 512.5,-1335 512.5,-1341 512.5,-1341 512.5,-1367 512.5,-1367 512.5,-1373 506.5,-1379 500.5,-1379"/>
<text text-anchor="middle" x="424" y="-1357" font-family="Sans" font-size="10.00">way to set lvm raid type when</text>
<text text-anchor="middle" x="424" y="-1346" font-family="Sans" font-size="10.00">vol type = lvm</text>
</a>
</g>
</g>
<!-- template&#45;library&#45;standard#151&#45;&gt;template&#45;library&#45;standard#150 -->
<g id="edge32" class="edge"><title>template-library-standard#151-&gt;template-library-standard#150</title>
<path fill="none" stroke="black" stroke-width="2" d="M190.271,-1354C231.574,-1354 282.071,-1354 325.459,-1354"/>
<polygon fill="black" stroke="black" points="325.461,-1357.5 335.461,-1354 325.461,-1350.5 325.461,-1357.5"/>
<text text-anchor="middle" x="251.071" y="-1346" font-family="Sans" font-size="10.00">fixes</text>
</g>
</g>
</svg>
