<?xml version="1.0" encoding="UTF-8" standalone="no"?>
<?xml-stylesheet href="relationships.css" type="text/css"?>
<!-- Generated by graphviz version 2.40.1 (0)
 -->
<!-- Title: Dependencies Pages: 1 -->
<svg xmlns="http://www.w3.org/2000/svg" xmlns:xlink="http://www.w3.org/1999/xlink" width="1076pt" height="1816pt" viewBox="0.00 0.00 1076.00 1815.50">
<g id="graph0" class="graph" transform="scale(1 1) rotate(0) translate(4 1811.5)">
<title>Dependencies</title>
<polygon fill="#ffffff" stroke="transparent" points="-4,4 -4,-1811.5 1072,-1811.5 1072,4 -4,4"/>
<g id="clust1" class="cluster">
<title>cluster_milestone_25.next</title>
<polygon fill="none" stroke="#000000" points="292,-287.5 292,-1475.5 1060,-1475.5 1060,-287.5 292,-287.5"/>
<text text-anchor="middle" x="676" y="-1461.9" font-family="Sans" font-size="12.00" fill="#000000">25.next</text>
</g>
<!-- aii#328 -->
<g id="node1" class="node">
<title>aii#328</title>
<g id="a_node1"><a xlink:href="https://github.com/quattor/aii/pull/328" xlink:title="aii#328 (pull-request)" target="_parent">
<polygon fill="#6cc644" stroke="#000000" points="473,-549.5 308,-549.5 308,-499.5 473,-499.5 473,-549.5"/>
<text text-anchor="middle" x="390.5" y="-527.5" font-family="Sans" font-size="10.00" fill="#000000">aii-ks: generate ks post section</text>
<text text-anchor="middle" x="390.5" y="-516.5" font-family="Sans" font-size="10.00" fill="#000000">as standalone script</text>
</a>
</g>
</g>
<!-- aii#280 -->
<g id="node2" class="node">
<title>aii#280</title>
<polygon fill="#d3d3d3" stroke="#000000" points="713.5,-279 654.5,-279 654.5,-240 713.5,-240 713.5,-279"/>
<text text-anchor="middle" x="684" y="-257" font-family="Sans" font-size="10.00" fill="#000000">aii#280</text>
</g>
<!-- aii#328&#45;&gt;aii#280 -->
<g id="edge1" class="edge">
<title>aii#328-&gt;aii#280</title>
<path fill="none" stroke="#000000" stroke-dasharray="5,2" d="M473.0595,-499.8936C477.6554,-497.0855 482.0166,-493.9654 486,-490.5 564.2893,-422.3914 513.0034,-348.3657 594,-283.5 608.1113,-272.1991 627.0617,-266.1914 643.9335,-263.0091"/>
<polygon fill="none" stroke="#000000" points="644.7918,-266.416 654.1082,-261.3706 643.6789,-259.505 644.7918,-266.416"/>
<text text-anchor="middle" x="523.6019" y="-367.5058" font-family="Sans" font-size="10.00" fill="#000000">requires</text>
</g>
<!-- aii#316 -->
<g id="node3" class="node">
<title>aii#316</title>
<polygon fill="#d3d3d3" stroke="#000000" points="713.5,-222 654.5,-222 654.5,-183 713.5,-183 713.5,-222"/>
<text text-anchor="middle" x="684" y="-200" font-family="Sans" font-size="10.00" fill="#000000">aii#316</text>
</g>
<!-- aii#328&#45;&gt;aii#316 -->
<g id="edge2" class="edge">
<title>aii#328-&gt;aii#316</title>
<path fill="none" stroke="#000000" stroke-dasharray="5,2" d="M473.4214,-500.2918C477.9287,-497.3862 482.1714,-494.1357 486,-490.5 576.7351,-404.3361 501.5426,-314.8132 594,-230.5 607.8472,-217.8725 627.3167,-210.9394 644.6069,-207.133"/>
<polygon fill="none" stroke="#000000" points="645.3179,-210.5605 654.4763,-205.2337 643.995,-203.6866 645.3179,-210.5605"/>
<text text-anchor="middle" x="522.7369" y="-342.5938" font-family="Sans" font-size="10.00" fill="#000000">requires</text>
</g>
<!-- aii#299 -->
<g id="node4" class="node">
<title>aii#299</title>
<g id="a_node4"><a xlink:href="https://github.com/quattor/aii/pull/299" xlink:title="aii#299 (pull-request)" target="_parent">
<polygon fill="#6cc644" stroke="#000000" points="459,-617.5 322,-617.5 322,-567.5 459,-567.5 459,-617.5"/>
<text text-anchor="middle" x="390.5" y="-595.5" font-family="Sans" font-size="10.00" fill="#000000">aii-dhcp: support optional</text>
<text text-anchor="middle" x="390.5" y="-584.5" font-family="Sans" font-size="10.00" fill="#000000">hostname ip verification</text>
</a>
</g>
</g>
<!-- aii#299&#45;&gt;aii#280 -->
<g id="edge3" class="edge">
<title>aii#299-&gt;aii#280</title>
<path fill="none" stroke="#000000" stroke-dasharray="5,2" d="M459.3809,-576.1451C469.138,-571.6156 478.414,-565.8456 486,-558.5 580.3325,-467.1564 496.0278,-370.9284 594,-283.5 607.6886,-271.2846 626.9208,-265.1826 644.0944,-262.1746"/>
<polygon fill="none" stroke="#000000" points="645.0583,-265.5716 654.4534,-260.6745 644.055,-258.6438 645.0583,-265.5716"/>
<text text-anchor="middle" x="521.3095" y="-408.8134" font-family="Sans" font-size="10.00" fill="#000000">requires</text>
</g>
<!-- aii#331 -->
<g id="node5" class="node">
<title>aii#331</title>
<g id="a_node5"><a xlink:href="https://github.com/quattor/aii/pull/331" xlink:title="aii#331 (pull-request)" target="_parent">
<polygon fill="#6cc644" stroke="#000000" points="157.5,-555 29.5,-555 29.5,-494 157.5,-494 157.5,-555"/>
<text text-anchor="middle" x="93.5" y="-533" font-family="Sans" font-size="10.00" fill="#000000">let aii generate ansible</text>
<text text-anchor="middle" x="93.5" y="-522" font-family="Sans" font-size="10.00" fill="#000000">playbook for supported</text>
<text text-anchor="middle" x="93.5" y="-511" font-family="Sans" font-size="10.00" fill="#000000">components</text>
</a>
</g>
</g>
<!-- aii#331&#45;&gt;aii#328 -->
<g id="edge4" class="edge">
<title>aii#331-&gt;aii#328</title>
<path fill="none" stroke="#000000" stroke-dasharray="5,2" d="M157.5789,-524.5C198.4814,-524.5 252.1793,-524.5 297.7071,-524.5"/>
<polygon fill="none" stroke="#000000" points="297.8877,-528.0001 307.8876,-524.5 297.8876,-521.0001 297.8877,-528.0001"/>
<text text-anchor="middle" x="215.2358" y="-516.5" font-family="Sans" font-size="10.00" fill="#000000">requires</text>
</g>
<!-- CAF#257 -->
<g id="node6" class="node">
<title>CAF#257</title>
<g id="a_node6"><a xlink:href="https://github.com/quattor/CAF/pull/257" xlink:title="CAF#257 (pull-request)" target="_parent">
<polygon fill="#6cc644" stroke="#000000" points="475.5,-1446.5 305.5,-1446.5 305.5,-1396.5 475.5,-1396.5 475.5,-1446.5"/>
<text text-anchor="middle" x="390.5" y="-1424.5" font-family="Sans" font-size="10.00" fill="#000000">Process: run process as another</text>
<text text-anchor="middle" x="390.5" y="-1413.5" font-family="Sans" font-size="10.00" fill="#000000">user</text>
</a>
</g>
</g>
<!-- CAF#253 -->
<g id="node7" class="node">
<title>CAF#253</title>
<g id="a_node7"><a xlink:href="https://github.com/quattor/CAF/issues/253" xlink:title="CAF#253 (issue)" target="_parent">
<path fill="#6cc644" stroke="#000000" d="M757.5,-1446C757.5,-1446 610.5,-1446 610.5,-1446 604.5,-1446 598.5,-1440 598.5,-1434 598.5,-1434 598.5,-1397 598.5,-1397 598.5,-1391 604.5,-1385 610.5,-1385 610.5,-1385 757.5,-1385 757.5,-1385 763.5,-1385 769.5,-1391 769.5,-1397 769.5,-1397 769.5,-1434 769.5,-1434 769.5,-1440 763.5,-1446 757.5,-1446"/>
<text text-anchor="middle" x="684" y="-1424" font-family="Sans" font-size="10.00" fill="#000000">CAF::Process: Include an option</text>
<text text-anchor="middle" x="684" y="-1413" font-family="Sans" font-size="10.00" fill="#000000">to execute the command as an</text>
<text text-anchor="middle" x="684" y="-1402" font-family="Sans" font-size="10.00" fill="#000000">specific user</text>
</a>
</g>
</g>
<!-- CAF#257&#45;&gt;CAF#253 -->
<g id="edge5" class="edge">
<title>CAF#257-&gt;CAF#253</title>
<path fill="none" stroke="#000000" stroke-width="2" d="M475.7866,-1419.7565C510.9823,-1419.037 551.935,-1418.1998 588.1625,-1417.4592"/>
<polygon fill="#000000" stroke="#000000" stroke-width="2" points="588.3202,-1420.9568 598.2465,-1417.2531 588.177,-1413.9583 588.3202,-1420.9568"/>
<text text-anchor="middle" x="525.9804" y="-1410.5055" font-family="Sans" font-size="10.00" fill="#000000">fixes</text>
</g>
<!-- CAF#110 -->
<g id="node8" class="node">
<title>CAF#110</title>
<g id="a_node8"><a xlink:href="https://github.com/quattor/CAF/pull/110" xlink:title="CAF#110 (pull-request)" target="_parent">
<polygon fill="#6cc644" stroke="#000000" points="463.5,-481.5 317.5,-481.5 317.5,-431.5 463.5,-431.5 463.5,-481.5"/>
<text text-anchor="middle" x="390.5" y="-459.5" font-family="Sans" font-size="10.00" fill="#000000">CAF::Download class: API</text>
<text text-anchor="middle" x="390.5" y="-448.5" font-family="Sans" font-size="10.00" fill="#000000">proposal</text>
</a>
</g>
</g>
<!-- CAF#120 -->
<g id="node9" class="node">
<title>CAF#120</title>
<polygon fill="#d3d3d3" stroke="#000000" points="719,-165 649,-165 649,-126 719,-126 719,-165"/>
<text text-anchor="middle" x="684" y="-143" font-family="Sans" font-size="10.00" fill="#000000">CAF#120</text>
</g>
<!-- CAF#110&#45;&gt;CAF#120 -->
<g id="edge6" class="edge">
<title>CAF#110-&gt;CAF#120</title>
<path fill="none" stroke="#000000" stroke-dasharray="5,2" d="M463.5266,-437.8029C471.7093,-433.6668 479.4436,-428.6299 486,-422.5 574.1149,-340.1175 504.2387,-254.0855 594,-173.5 606.3858,-162.3803 623.1379,-155.6766 638.8311,-151.6352"/>
<polygon fill="none" stroke="#000000" points="639.9559,-154.969 648.9343,-149.3442 638.4078,-148.1424 639.9559,-154.969"/>
<text text-anchor="middle" x="522.5012" y="-283.929" font-family="Sans" font-size="10.00" fill="#000000">requires</text>
</g>
<!-- CCM#216 -->
<g id="node10" class="node">
<title>CCM#216</title>
<g id="a_node10"><a xlink:href="https://github.com/quattor/CCM/pull/216" xlink:title="CCM#216 (pull-request)" target="_parent">
<polygon fill="#6e5494" stroke="#000000" points="468,-1378.5 313,-1378.5 313,-1328.5 468,-1328.5 468,-1378.5"/>
<text text-anchor="middle" x="390.5" y="-1356.5" font-family="Sans" font-size="10.00" fill="#000000">ProfileCache: Include type in</text>
<text text-anchor="middle" x="390.5" y="-1345.5" font-family="Sans" font-size="10.00" fill="#000000">checksum calculation</text>
</a>
</g>
</g>
<!-- CCM#213 -->
<g id="node11" class="node">
<title>CCM#213</title>
<g id="a_node11"><a xlink:href="https://github.com/quattor/CCM/issues/213" xlink:title="CCM#213 (issue)" target="_parent">
<path fill="#6e5494" stroke="#000000" d="M743.5,-1366.5C743.5,-1366.5 624.5,-1366.5 624.5,-1366.5 618.5,-1366.5 612.5,-1360.5 612.5,-1354.5 612.5,-1354.5 612.5,-1328.5 612.5,-1328.5 612.5,-1322.5 618.5,-1316.5 624.5,-1316.5 624.5,-1316.5 743.5,-1316.5 743.5,-1316.5 749.5,-1316.5 755.5,-1322.5 755.5,-1328.5 755.5,-1328.5 755.5,-1354.5 755.5,-1354.5 755.5,-1360.5 749.5,-1366.5 743.5,-1366.5"/>
<text text-anchor="middle" x="684" y="-1344.5" font-family="Sans" font-size="10.00" fill="#000000">Include type information in</text>
<text text-anchor="middle" x="684" y="-1333.5" font-family="Sans" font-size="10.00" fill="#000000">checksum computation</text>
</a>
</g>
</g>
<!-- CCM#216&#45;&gt;CCM#213 -->
<g id="edge7" class="edge">
<title>CCM#216-&gt;CCM#213</title>
<path fill="none" stroke="#000000" stroke-width="2" d="M468.3821,-1350.3157C509.6441,-1348.6287 560.3003,-1346.5576 602.1429,-1344.8468"/>
<polygon fill="#000000" stroke="#000000" stroke-width="2" points="602.4544,-1348.3371 612.303,-1344.4314 602.1684,-1341.3429 602.4544,-1348.3371"/>
<text text-anchor="middle" x="529.4479" y="-1339.3693" font-family="Sans" font-size="10.00" fill="#000000">fixes</text>
</g>
<!-- CCM#215 -->
<g id="node12" class="node">
<title>CCM#215</title>
<g id="a_node12"><a xlink:href="https://github.com/quattor/CCM/pull/215" xlink:title="CCM#215 (pull-request)" target="_parent">
<polygon fill="#6e5494" stroke="#000000" points="459,-1310 322,-1310 322,-1271 459,-1271 459,-1310"/>
<text text-anchor="middle" x="390.5" y="-1288" font-family="Sans" font-size="10.00" fill="#000000">Remove description field</text>
</a>
</g>
</g>
<!-- CCM#214 -->
<g id="node13" class="node">
<title>CCM#214</title>
<g id="a_node13"><a xlink:href="https://github.com/quattor/CCM/pull/214" xlink:title="CCM#214 (pull-request)" target="_parent">
<polygon fill="#6e5494" stroke="#000000" points="753,-1298.5 615,-1298.5 615,-1248.5 753,-1248.5 753,-1298.5"/>
<text text-anchor="middle" x="684" y="-1276.5" font-family="Sans" font-size="10.00" fill="#000000">Strip out all references to</text>
<text text-anchor="middle" x="684" y="-1265.5" font-family="Sans" font-size="10.00" fill="#000000">derivation</text>
</a>
</g>
</g>
<!-- CCM#215&#45;&gt;CCM#214 -->
<g id="edge8" class="edge">
<title>CCM#215-&gt;CCM#214</title>
<path fill="none" stroke="#000000" stroke-dasharray="5,2" d="M459.3127,-1286.5143C502.867,-1283.9915 559.3242,-1280.7214 604.7493,-1278.0903"/>
<polygon fill="none" stroke="#000000" points="605.0753,-1281.5774 614.8561,-1277.5049 604.6705,-1274.5891 605.0753,-1281.5774"/>
<text text-anchor="middle" x="519.7471" y="-1274.0002" font-family="Sans" font-size="10.00" fill="#000000">requires</text>
</g>
<!-- CCM#134 -->
<g id="node14" class="node">
<title>CCM#134</title>
<g id="a_node14"><a xlink:href="https://github.com/quattor/CCM/issues/134" xlink:title="CCM#134 (issue)" target="_parent">
<path fill="#6e5494" stroke="#000000" d="M1040,-1293C1040,-1293 894,-1293 894,-1293 888,-1293 882,-1287 882,-1281 882,-1281 882,-1266 882,-1266 882,-1260 888,-1254 894,-1254 894,-1254 1040,-1254 1040,-1254 1046,-1254 1052,-1260 1052,-1266 1052,-1266 1052,-1281 1052,-1281 1052,-1287 1046,-1293 1040,-1293"/>
<text text-anchor="middle" x="967" y="-1271" font-family="Sans" font-size="10.00" fill="#000000">Remove references to derivation</text>
</a>
</g>
</g>
<!-- CCM#214&#45;&gt;CCM#134 -->
<g id="edge9" class="edge">
<title>CCM#214-&gt;CCM#134</title>
<path fill="none" stroke="#000000" stroke-width="2" d="M753.2296,-1273.5C788.8301,-1273.5 832.7735,-1273.5 871.5418,-1273.5"/>
<polygon fill="#000000" stroke="#000000" stroke-width="2" points="871.8014,-1277.0001 881.8014,-1273.5 871.8013,-1270.0001 871.8014,-1277.0001"/>
<text text-anchor="middle" x="806.3879" y="-1265.5" font-family="Sans" font-size="10.00" fill="#000000">fixes</text>
</g>
<!-- configuration&#45;modules&#45;core#1810 -->
<g id="node15" class="node">
<title>configuration-modules-core#1810</title>
<g id="a_node15"><a xlink:href="https://github.com/quattor/configuration-modules-core/pull/1810" xlink:title="configuration-modules-core#1810 (pull-request)" target="_parent">
<polygon fill="#6cc644" stroke="#000000" points="477,-1252.5 304,-1252.5 304,-1202.5 477,-1202.5 477,-1252.5"/>
<text text-anchor="middle" x="390.5" y="-1230.5" font-family="Sans" font-size="10.00" fill="#000000">ncm-metaconfig: updated filebeat</text>
<text text-anchor="middle" x="390.5" y="-1219.5" font-family="Sans" font-size="10.00" fill="#000000">7.x schema to fix #1728</text>
</a>
</g>
</g>
<!-- configuration&#45;modules&#45;core#1728 -->
<g id="node16" class="node">
<title>configuration-modules-core#1728</title>
<g id="a_node16"><a xlink:href="https://github.com/quattor/configuration-modules-core/issues/1728" xlink:title="configuration-modules-core#1728 (issue)" target="_parent">
<path fill="#6cc644" stroke="#000000" d="M759,-1230C759,-1230 609,-1230 609,-1230 603,-1230 597,-1224 597,-1218 597,-1218 597,-1181 597,-1181 597,-1175 603,-1169 609,-1169 609,-1169 759,-1169 759,-1169 765,-1169 771,-1175 771,-1181 771,-1181 771,-1218 771,-1218 771,-1224 765,-1230 759,-1230"/>
<text text-anchor="middle" x="684" y="-1208" font-family="Sans" font-size="10.00" fill="#000000">ncm-metaconfig: fixing filebeat</text>
<text text-anchor="middle" x="684" y="-1197" font-family="Sans" font-size="10.00" fill="#000000">schema 7.0 and adding additional</text>
<text text-anchor="middle" x="684" y="-1186" font-family="Sans" font-size="10.00" fill="#000000">processor</text>
</a>
</g>
</g>
<!-- configuration&#45;modules&#45;core#1810&#45;&gt;configuration&#45;modules&#45;core#1728 -->
<g id="edge10" class="edge">
<title>configuration-modules-core#1810-&gt;configuration-modules-core#1728</title>
<path fill="none" stroke="#000000" stroke-width="2" d="M477.3684,-1219.2127C511.6766,-1215.9397 551.2554,-1212.1639 586.5347,-1208.7982"/>
<polygon fill="#000000" stroke="#000000" stroke-width="2" points="587.225,-1212.2484 596.8473,-1207.8144 586.5601,-1205.28 587.225,-1212.2484"/>
<text text-anchor="middle" x="526.255" y="-1205.4995" font-family="Sans" font-size="10.00" fill="#000000">fixes</text>
</g>
<!-- configuration&#45;modules&#45;core#1788 -->
<g id="node17" class="node">
<title>configuration-modules-core#1788</title>
<g id="a_node17"><a xlink:href="https://github.com/quattor/configuration-modules-core/pull/1788" xlink:title="configuration-modules-core#1788 (pull-request)" target="_parent">
<polygon fill="#6e5494" stroke="#000000" points="461.5,-1184.5 319.5,-1184.5 319.5,-1134.5 461.5,-1134.5 461.5,-1184.5"/>
<text text-anchor="middle" x="390.5" y="-1162.5" font-family="Sans" font-size="10.00" fill="#000000">ncm-systemd: ensure unit</text>
<text text-anchor="middle" x="390.5" y="-1151.5" font-family="Sans" font-size="10.00" fill="#000000">property is defined</text>
</a>
</g>
</g>
<!-- configuration&#45;modules&#45;core#1787 -->
<g id="node18" class="node">
<title>configuration-modules-core#1787</title>
<g id="a_node18"><a xlink:href="https://github.com/quattor/configuration-modules-core/issues/1787" xlink:title="configuration-modules-core#1787 (issue)" target="_parent">
<path fill="#6e5494" stroke="#000000" d="M757,-1150.5C757,-1150.5 611,-1150.5 611,-1150.5 605,-1150.5 599,-1144.5 599,-1138.5 599,-1138.5 599,-1112.5 599,-1112.5 599,-1106.5 605,-1100.5 611,-1100.5 611,-1100.5 757,-1100.5 757,-1100.5 763,-1100.5 769,-1106.5 769,-1112.5 769,-1112.5 769,-1138.5 769,-1138.5 769,-1144.5 763,-1150.5 757,-1150.5"/>
<text text-anchor="middle" x="684" y="-1128.5" font-family="Sans" font-size="10.00" fill="#000000">ncm-systemd 24.10.0: validation</text>
<text text-anchor="middle" x="684" y="-1117.5" font-family="Sans" font-size="10.00" fill="#000000">fails if no unit is defined</text>
</a>
</g>
</g>
<!-- configuration&#45;modules&#45;core#1788&#45;&gt;configuration&#45;modules&#45;core#1787 -->
<g id="edge11" class="edge">
<title>configuration-modules-core#1788-&gt;configuration-modules-core#1787</title>
<path fill="none" stroke="#000000" stroke-width="2" d="M461.5482,-1151.2695C499.7903,-1146.8395 547.4772,-1141.3152 588.8802,-1136.519"/>
<polygon fill="#000000" stroke="#000000" stroke-width="2" points="589.4537,-1139.976 598.9845,-1135.3485 588.6481,-1133.0225 589.4537,-1139.976"/>
<text text-anchor="middle" x="519.1907" y="-1135.3178" font-family="Sans" font-size="10.00" fill="#000000">fixes</text>
</g>
<!-- configuration&#45;modules&#45;core#1783 -->
<g id="node19" class="node">
<title>configuration-modules-core#1783</title>
<g id="a_node19"><a xlink:href="https://github.com/quattor/configuration-modules-core/pull/1783" xlink:title="configuration-modules-core#1783 (pull-request)" target="_parent">
<polygon fill="#6cc644" stroke="#000000" points="475.5,-1116 305.5,-1116 305.5,-1055 475.5,-1055 475.5,-1116"/>
<text text-anchor="middle" x="390.5" y="-1094" font-family="Sans" font-size="10.00" fill="#000000">metaconfig/named: fix validation</text>
<text text-anchor="middle" x="390.5" y="-1083" font-family="Sans" font-size="10.00" fill="#000000">of logging channels in</text>
<text text-anchor="middle" x="390.5" y="-1072" font-family="Sans" font-size="10.00" fill="#000000">categories</text>
</a>
</g>
</g>
<!-- configuration&#45;modules&#45;core#1784 -->
<g id="node20" class="node">
<title>configuration-modules-core#1784</title>
<g id="a_node20"><a xlink:href="https://github.com/quattor/configuration-modules-core/issues/1784" xlink:title="configuration-modules-core#1784 (issue)" target="_parent">
<path fill="#6cc644" stroke="#000000" d="M755.5,-1082C755.5,-1082 612.5,-1082 612.5,-1082 606.5,-1082 600.5,-1076 600.5,-1070 600.5,-1070 600.5,-1033 600.5,-1033 600.5,-1027 606.5,-1021 612.5,-1021 612.5,-1021 755.5,-1021 755.5,-1021 761.5,-1021 767.5,-1027 767.5,-1033 767.5,-1033 767.5,-1070 767.5,-1070 767.5,-1076 761.5,-1082 755.5,-1082"/>
<text text-anchor="middle" x="684" y="-1060" font-family="Sans" font-size="10.00" fill="#000000">ncm-metaconfig 24.10.0 named</text>
<text text-anchor="middle" x="684" y="-1049" font-family="Sans" font-size="10.00" fill="#000000">module: error in logging channel</text>
<text text-anchor="middle" x="684" y="-1038" font-family="Sans" font-size="10.00" fill="#000000">name validation</text>
</a>
</g>
</g>
<!-- configuration&#45;modules&#45;core#1783&#45;&gt;configuration&#45;modules&#45;core#1784 -->
<g id="edge12" class="edge">
<title>configuration-modules-core#1783-&gt;configuration-modules-core#1784</title>
<path fill="none" stroke="#000000" stroke-width="2" d="M475.7866,-1075.6201C511.6011,-1071.4713 553.3769,-1066.6318 590.069,-1062.3813"/>
<polygon fill="#000000" stroke="#000000" stroke-width="2" points="590.7433,-1065.8267 600.274,-1061.1991 589.9377,-1058.8732 590.7433,-1065.8267"/>
<text text-anchor="middle" x="527.0869" y="-1060.4031" font-family="Sans" font-size="10.00" fill="#000000">fixes</text>
</g>
<!-- configuration&#45;modules&#45;core#1739 -->
<g id="node21" class="node">
<title>configuration-modules-core#1739</title>
<g id="a_node21"><a xlink:href="https://github.com/quattor/configuration-modules-core/pull/1739" xlink:title="configuration-modules-core#1739 (pull-request)" target="_parent">
<polygon fill="#6cc644" stroke="#000000" points="474.5,-1037 306.5,-1037 306.5,-976 474.5,-976 474.5,-1037"/>
<text text-anchor="middle" x="390.5" y="-1015" font-family="Sans" font-size="10.00" fill="#000000">ncm-network: dropin file support</text>
<text text-anchor="middle" x="390.5" y="-1004" font-family="Sans" font-size="10.00" fill="#000000">for main configuration of</text>
<text text-anchor="middle" x="390.5" y="-993" font-family="Sans" font-size="10.00" fill="#000000">NetworkManager</text>
</a>
</g>
</g>
<!-- configuration&#45;modules&#45;core#1740 -->
<g id="node22" class="node">
<title>configuration-modules-core#1740</title>
<g id="a_node22"><a xlink:href="https://github.com/quattor/configuration-modules-core/issues/1740" xlink:title="configuration-modules-core#1740 (issue)" target="_parent">
<path fill="#6cc644" stroke="#000000" d="M745,-1003C745,-1003 623,-1003 623,-1003 617,-1003 611,-997 611,-991 611,-991 611,-954 611,-954 611,-948 617,-942 623,-942 623,-942 745,-942 745,-942 751,-942 757,-948 757,-954 757,-954 757,-991 757,-991 757,-997 751,-1003 745,-1003"/>
<text text-anchor="middle" x="684" y="-981" font-family="Sans" font-size="10.00" fill="#000000">ncm-network - capability to</text>
<text text-anchor="middle" x="684" y="-970" font-family="Sans" font-size="10.00" fill="#000000">manage main section of</text>
<text text-anchor="middle" x="684" y="-959" font-family="Sans" font-size="10.00" fill="#000000">NetworkManager.conf</text>
</a>
</g>
</g>
<!-- configuration&#45;modules&#45;core#1739&#45;&gt;configuration&#45;modules&#45;core#1740 -->
<g id="edge13" class="edge">
<title>configuration-modules-core#1739-&gt;configuration-modules-core#1740</title>
<path fill="none" stroke="#000000" stroke-width="2" d="M474.6053,-996.757C514.1855,-992.1719 561.2503,-986.7197 600.7249,-982.1469"/>
<polygon fill="#000000" stroke="#000000" stroke-width="2" points="601.3203,-985.6014 610.8511,-980.9738 600.5148,-978.6479 601.3203,-985.6014"/>
<text text-anchor="middle" x="531.7773" y="-980.8597" font-family="Sans" font-size="10.00" fill="#000000">fixes</text>
</g>
<!-- configuration&#45;modules&#45;core#1554 -->
<g id="node23" class="node">
<title>configuration-modules-core#1554</title>
<g id="a_node23"><a xlink:href="https://github.com/quattor/configuration-modules-core/pull/1554" xlink:title="configuration-modules-core#1554 (pull-request)" target="_parent">
<polygon fill="#6cc644" stroke="#000000" points="466.5,-957.5 314.5,-957.5 314.5,-907.5 466.5,-907.5 466.5,-957.5"/>
<text text-anchor="middle" x="390.5" y="-935.5" font-family="Sans" font-size="10.00" fill="#000000">avoid removing empty list of</text>
<text text-anchor="middle" x="390.5" y="-924.5" font-family="Sans" font-size="10.00" fill="#000000">packages</text>
</a>
</g>
</g>
<!-- configuration&#45;modules&#45;core#1553 -->
<g id="node24" class="node">
<title>configuration-modules-core#1553</title>
<g id="a_node24"><a xlink:href="https://github.com/quattor/configuration-modules-core/issues/1553" xlink:title="configuration-modules-core#1553 (issue)" target="_parent">
<path fill="#6cc644" stroke="#000000" d="M756,-924C756,-924 612,-924 612,-924 606,-924 600,-918 600,-912 600,-912 600,-875 600,-875 600,-869 606,-863 612,-863 612,-863 756,-863 756,-863 762,-863 768,-869 768,-875 768,-875 768,-912 768,-912 768,-918 762,-924 756,-924"/>
<text text-anchor="middle" x="684" y="-902" font-family="Sans" font-size="10.00" fill="#000000">ncm-spma: update_pkgs in yum</text>
<text text-anchor="middle" x="684" y="-891" font-family="Sans" font-size="10.00" fill="#000000">plugin tries to remove empty</text>
<text text-anchor="middle" x="684" y="-880" font-family="Sans" font-size="10.00" fill="#000000">list of packages</text>
</a>
</g>
</g>
<!-- configuration&#45;modules&#45;core#1554&#45;&gt;configuration&#45;modules&#45;core#1553 -->
<g id="edge14" class="edge">
<title>configuration-modules-core#1554-&gt;configuration-modules-core#1553</title>
<path fill="none" stroke="#000000" stroke-width="2" d="M466.8475,-922.355C504.4266,-917.3615 550.0777,-911.2955 589.8072,-906.0162"/>
<polygon fill="#000000" stroke="#000000" stroke-width="2" points="590.32,-909.479 599.7718,-904.6922 589.3979,-902.54 590.32,-909.479"/>
<text text-anchor="middle" x="521.9596" y="-905.5701" font-family="Sans" font-size="10.00" fill="#000000">fixes</text>
</g>
<!-- configuration&#45;modules&#45;core#1507 -->
<g id="node25" class="node">
<title>configuration-modules-core#1507</title>
<g id="a_node25"><a xlink:href="https://github.com/quattor/configuration-modules-core/pull/1507" xlink:title="configuration-modules-core#1507 (pull-request)" target="_parent">
<polygon fill="#6cc644" stroke="#000000" points="175,-1528.5 12,-1528.5 12,-1478.5 175,-1478.5 175,-1528.5"/>
<text text-anchor="middle" x="93.5" y="-1506.5" font-family="Sans" font-size="10.00" fill="#000000">[WIP] ncm-spma: yumdnf: use</text>
<text text-anchor="middle" x="93.5" y="-1495.5" font-family="Sans" font-size="10.00" fill="#000000">spmaleaves dnf plugin</text>
</a>
</g>
</g>
<!-- configuration&#45;modules&#45;core#1401 -->
<g id="node26" class="node">
<title>configuration-modules-core#1401</title>
<polygon fill="#d3d3d3" stroke="#000000" points="476.5,-1523 304.5,-1523 304.5,-1484 476.5,-1484 476.5,-1523"/>
<text text-anchor="middle" x="390.5" y="-1501" font-family="Sans" font-size="10.00" fill="#000000">configuration-modules-core#1401</text>
</g>
<!-- configuration&#45;modules&#45;core#1507&#45;&gt;configuration&#45;modules&#45;core#1401 -->
<g id="edge15" class="edge">
<title>configuration-modules-core#1507-&gt;configuration-modules-core#1401</title>
<path fill="none" stroke="#000000" stroke-dasharray="5,2" d="M175.0494,-1503.5C211.937,-1503.5 255.7952,-1503.5 294.2825,-1503.5"/>
<polygon fill="none" stroke="#000000" points="294.4629,-1507.0001 304.4629,-1503.5 294.4628,-1500.0001 294.4629,-1507.0001"/>
<text text-anchor="middle" x="222.3037" y="-1495.5" font-family="Sans" font-size="10.00" fill="#000000">requires</text>
</g>
<!-- configuration&#45;modules&#45;core#1336 -->
<g id="node27" class="node">
<title>configuration-modules-core#1336</title>
<g id="a_node27"><a xlink:href="https://github.com/quattor/configuration-modules-core/pull/1336" xlink:title="configuration-modules-core#1336 (pull-request)" target="_parent">
<polygon fill="#6cc644" stroke="#000000" points="172.5,-1640 14.5,-1640 14.5,-1579 172.5,-1579 172.5,-1640"/>
<text text-anchor="middle" x="93.5" y="-1618" font-family="Sans" font-size="10.00" fill="#000000">ncm-network: Add support for</text>
<text text-anchor="middle" x="93.5" y="-1607" font-family="Sans" font-size="10.00" fill="#000000">CAF::Service actions after</text>
<text text-anchor="middle" x="93.5" y="-1596" font-family="Sans" font-size="10.00" fill="#000000">changes</text>
</a>
</g>
</g>
<!-- configuration&#45;modules&#45;core#1335 -->
<g id="node28" class="node">
<title>configuration-modules-core#1335</title>
<g id="a_node28"><a xlink:href="https://github.com/quattor/configuration-modules-core/pull/1335" xlink:title="configuration-modules-core#1335 (pull-request)" target="_parent">
<polygon fill="#6cc644" stroke="#000000" points="475,-1671 306,-1671 306,-1610 475,-1610 475,-1671"/>
<text text-anchor="middle" x="390.5" y="-1649" font-family="Sans" font-size="10.00" fill="#000000">ncm-metaconfig: Remove</text>
<text text-anchor="middle" x="390.5" y="-1638" font-family="Sans" font-size="10.00" fill="#000000">caf_service_action type to allow</text>
<text text-anchor="middle" x="390.5" y="-1627" font-family="Sans" font-size="10.00" fill="#000000">reuse</text>
</a>
</g>
</g>
<!-- configuration&#45;modules&#45;core#1336&#45;&gt;configuration&#45;modules&#45;core#1335 -->
<g id="edge16" class="edge">
<title>configuration-modules-core#1336-&gt;configuration-modules-core#1335</title>
<path fill="none" stroke="#000000" stroke-dasharray="5,2" d="M172.7004,-1617.7667C210.5615,-1621.7185 256.1699,-1626.479 295.8466,-1630.6203"/>
<polygon fill="none" stroke="#000000" points="295.4884,-1634.1019 305.7977,-1631.659 296.2151,-1627.1397 295.4884,-1634.1019"/>
<text text-anchor="middle" x="221.535" y="-1616.6905" font-family="Sans" font-size="10.00" fill="#000000">requires</text>
</g>
<!-- configuration&#45;modules&#45;core#1071 -->
<g id="node29" class="node">
<title>configuration-modules-core#1071</title>
<g id="a_node29"><a xlink:href="https://github.com/quattor/configuration-modules-core/issues/1071" xlink:title="configuration-modules-core#1071 (issue)" target="_parent">
<path fill="#6cc644" stroke="#000000" d="M467,-1591.5C467,-1591.5 314,-1591.5 314,-1591.5 308,-1591.5 302,-1585.5 302,-1579.5 302,-1579.5 302,-1553.5 302,-1553.5 302,-1547.5 308,-1541.5 314,-1541.5 314,-1541.5 467,-1541.5 467,-1541.5 473,-1541.5 479,-1547.5 479,-1553.5 479,-1553.5 479,-1579.5 479,-1579.5 479,-1585.5 473,-1591.5 467,-1591.5"/>
<text text-anchor="middle" x="390.5" y="-1569.5" font-family="Sans" font-size="10.00" fill="#000000">ncm-network: support daemons to</text>
<text text-anchor="middle" x="390.5" y="-1558.5" font-family="Sans" font-size="10.00" fill="#000000">restart after network changes</text>
</a>
</g>
</g>
<!-- configuration&#45;modules&#45;core#1336&#45;&gt;configuration&#45;modules&#45;core#1071 -->
<g id="edge17" class="edge">
<title>configuration-modules-core#1336-&gt;configuration-modules-core#1071</title>
<path fill="none" stroke="#000000" stroke-width="2" d="M172.7004,-1598.0333C209.218,-1592.7462 252.9428,-1586.4157 291.601,-1580.8187"/>
<polygon fill="#000000" stroke="#000000" stroke-width="2" points="292.4392,-1584.2339 301.8345,-1579.3371 291.4362,-1577.3062 292.4392,-1584.2339"/>
<text text-anchor="middle" x="226.5484" y="-1580.6445" font-family="Sans" font-size="10.00" fill="#000000">fixes</text>
</g>
<!-- template&#45;library&#45;core#191 -->
<g id="node30" class="node">
<title>template-library-core#191</title>
<polygon fill="#d3d3d3" stroke="#000000" points="753,-1660 615,-1660 615,-1621 753,-1621 753,-1660"/>
<text text-anchor="middle" x="684" y="-1638" font-family="Sans" font-size="10.00" fill="#000000">template-library-core#191</text>
</g>
<!-- configuration&#45;modules&#45;core#1335&#45;&gt;template&#45;library&#45;core#191 -->
<g id="edge18" class="edge">
<title>configuration-modules-core#1335-&gt;template-library-core#191</title>
<path fill="none" stroke="#000000" stroke-dasharray="5,2" d="M475.3924,-1640.5C516.0413,-1640.5 564.4407,-1640.5 604.3825,-1640.5"/>
<polygon fill="none" stroke="#000000" points="604.6102,-1644.0001 614.6102,-1640.5 604.6101,-1637.0001 604.6102,-1644.0001"/>
<text text-anchor="middle" x="527.3279" y="-1632.5" font-family="Sans" font-size="10.00" fill="#000000">requires</text>
</g>
<!-- configuration&#45;modules&#45;core#1148 -->
<g id="node31" class="node">
<title>configuration-modules-core#1148</title>
<g id="a_node31"><a xlink:href="https://github.com/quattor/configuration-modules-core/pull/1148" xlink:title="configuration-modules-core#1148 (pull-request)" target="_parent">
<polygon fill="#6cc644" stroke="#000000" points="183,-1807.5 4,-1807.5 4,-1757.5 183,-1757.5 183,-1807.5"/>
<text text-anchor="middle" x="93.5" y="-1785.5" font-family="Sans" font-size="10.00" fill="#000000">ncm-spma: Remove support from</text>
<text text-anchor="middle" x="93.5" y="-1774.5" font-family="Sans" font-size="10.00" fill="#000000">groups from spma yumng backend</text>
</a>
</g>
</g>
<!-- configuration&#45;modules&#45;core#952 -->
<g id="node32" class="node">
<title>configuration-modules-core#952</title>
<g id="a_node32"><a xlink:href="https://github.com/quattor/configuration-modules-core/issues/952" xlink:title="configuration-modules-core#952 (issue)" target="_parent">
<path fill="#6cc644" stroke="#000000" d="M474,-1807.5C474,-1807.5 307,-1807.5 307,-1807.5 301,-1807.5 295,-1801.5 295,-1795.5 295,-1795.5 295,-1769.5 295,-1769.5 295,-1763.5 301,-1757.5 307,-1757.5 307,-1757.5 474,-1757.5 474,-1757.5 480,-1757.5 486,-1763.5 486,-1769.5 486,-1769.5 486,-1795.5 486,-1795.5 486,-1801.5 480,-1807.5 474,-1807.5"/>
<text text-anchor="middle" x="390.5" y="-1785.5" font-family="Sans" font-size="10.00" fill="#000000">ncm-spma (yumng): Remove support</text>
<text text-anchor="middle" x="390.5" y="-1774.5" font-family="Sans" font-size="10.00" fill="#000000">for package groups</text>
</a>
</g>
</g>
<!-- configuration&#45;modules&#45;core#1148&#45;&gt;configuration&#45;modules&#45;core#952 -->
<g id="edge19" class="edge">
<title>configuration-modules-core#1148-&gt;configuration-modules-core#952</title>
<path fill="none" stroke="#000000" stroke-width="2" d="M183.0126,-1782.5C215.0535,-1782.5 251.4693,-1782.5 284.7528,-1782.5"/>
<polygon fill="#000000" stroke="#000000" stroke-width="2" points="284.9733,-1786.0001 294.9733,-1782.5 284.9733,-1779.0001 284.9733,-1786.0001"/>
<text text-anchor="middle" x="228.0876" y="-1774.5" font-family="Sans" font-size="10.00" fill="#000000">fixes</text>
</g>
<!-- configuration&#45;modules&#45;core#950 -->
<g id="node33" class="node">
<title>configuration-modules-core#950</title>
<g id="a_node33"><a xlink:href="https://github.com/quattor/configuration-modules-core/issues/950" xlink:title="configuration-modules-core#950 (issue)" target="_parent">
<path fill="#6cc644" stroke="#000000" d="M175,-1739.5C175,-1739.5 12,-1739.5 12,-1739.5 6,-1739.5 0,-1733.5 0,-1727.5 0,-1727.5 0,-1701.5 0,-1701.5 0,-1695.5 6,-1689.5 12,-1689.5 12,-1689.5 175,-1689.5 175,-1689.5 181,-1689.5 187,-1695.5 187,-1701.5 187,-1701.5 187,-1727.5 187,-1727.5 187,-1733.5 181,-1739.5 175,-1739.5"/>
<text text-anchor="middle" x="93.5" y="-1717.5" font-family="Sans" font-size="10.00" fill="#000000">ncm-spma: Remove support for</text>
<text text-anchor="middle" x="93.5" y="-1706.5" font-family="Sans" font-size="10.00" fill="#000000">package groups from yum backends</text>
</a>
</g>
</g>
<!-- configuration&#45;modules&#45;core#950&#45;&gt;configuration&#45;modules&#45;core#952 -->
<g id="edge21" class="edge">
<title>configuration-modules-core#950-&gt;configuration-modules-core#952</title>
<path fill="none" stroke="#000000" stroke-dasharray="5,2" d="M187.065,-1735.9223C218.1915,-1743.0489 253.0665,-1751.0337 285.0303,-1758.3521"/>
<polygon fill="none" stroke="#000000" points="284.3204,-1761.78 294.8493,-1760.6002 285.8827,-1754.9566 284.3204,-1761.78"/>
<text text-anchor="middle" x="223.6849" y="-1740.3134" font-family="Sans" font-size="10.00" fill="#000000">requires</text>
</g>
<!-- configuration&#45;modules&#45;core#951 -->
<g id="node34" class="node">
<title>configuration-modules-core#951</title>
<g id="a_node34"><a xlink:href="https://github.com/quattor/configuration-modules-core/issues/951" xlink:title="configuration-modules-core#951 (issue)" target="_parent">
<path fill="#6cc644" stroke="#000000" d="M468.5,-1739.5C468.5,-1739.5 312.5,-1739.5 312.5,-1739.5 306.5,-1739.5 300.5,-1733.5 300.5,-1727.5 300.5,-1727.5 300.5,-1701.5 300.5,-1701.5 300.5,-1695.5 306.5,-1689.5 312.5,-1689.5 312.5,-1689.5 468.5,-1689.5 468.5,-1689.5 474.5,-1689.5 480.5,-1695.5 480.5,-1701.5 480.5,-1701.5 480.5,-1727.5 480.5,-1727.5 480.5,-1733.5 474.5,-1739.5 468.5,-1739.5"/>
<text text-anchor="middle" x="390.5" y="-1717.5" font-family="Sans" font-size="10.00" fill="#000000">ncm-spma (yum): Remove support</text>
<text text-anchor="middle" x="390.5" y="-1706.5" font-family="Sans" font-size="10.00" fill="#000000">for package groups</text>
</a>
</g>
</g>
<!-- configuration&#45;modules&#45;core#950&#45;&gt;configuration&#45;modules&#45;core#951 -->
<g id="edge20" class="edge">
<title>configuration-modules-core#950-&gt;configuration-modules-core#951</title>
<path fill="none" stroke="#000000" stroke-dasharray="5,2" d="M187.065,-1714.5C219.8866,-1714.5 256.8759,-1714.5 290.2252,-1714.5"/>
<polygon fill="none" stroke="#000000" points="290.4495,-1718.0001 300.4494,-1714.5 290.4494,-1711.0001 290.4495,-1718.0001"/>
<text text-anchor="middle" x="226.2859" y="-1706.5" font-family="Sans" font-size="10.00" fill="#000000">requires</text>
</g>
<!-- configuration&#45;modules&#45;grid#151 -->
<g id="node35" class="node">
<title>configuration-modules-grid#151</title>
<g id="a_node35"><a xlink:href="https://github.com/quattor/configuration-modules-grid/pull/151" xlink:title="configuration-modules-grid#151 (pull-request)" target="_parent">
<polygon fill="#6cc644" stroke="#000000" points="467.5,-889.5 313.5,-889.5 313.5,-839.5 467.5,-839.5 467.5,-889.5"/>
<text text-anchor="middle" x="390.5" y="-867.5" font-family="Sans" font-size="10.00" fill="#000000">ncm-maui: Remove obsolete</text>
<text text-anchor="middle" x="390.5" y="-856.5" font-family="Sans" font-size="10.00" fill="#000000">component</text>
</a>
</g>
</g>
<!-- configuration&#45;modules&#45;grid#85 -->
<g id="node36" class="node">
<title>configuration-modules-grid#85</title>
<g id="a_node36"><a xlink:href="https://github.com/quattor/configuration-modules-grid/issues/85" xlink:title="configuration-modules-grid#85 (issue)" target="_parent">
<path fill="#6cc644" stroke="#000000" d="M762,-844.5C762,-844.5 606,-844.5 606,-844.5 600,-844.5 594,-838.5 594,-832.5 594,-832.5 594,-806.5 594,-806.5 594,-800.5 600,-794.5 606,-794.5 606,-794.5 762,-794.5 762,-794.5 768,-794.5 774,-800.5 774,-806.5 774,-806.5 774,-832.5 774,-832.5 774,-838.5 768,-844.5 762,-844.5"/>
<text text-anchor="middle" x="684" y="-822.5" font-family="Sans" font-size="10.00" fill="#000000">deprecate / remove ncm-moab and</text>
<text text-anchor="middle" x="684" y="-811.5" font-family="Sans" font-size="10.00" fill="#000000">ncm-maui</text>
</a>
</g>
</g>
<!-- configuration&#45;modules&#45;grid#151&#45;&gt;configuration&#45;modules&#45;grid#85 -->
<g id="edge22" class="edge">
<title>configuration-modules-grid#151-&gt;configuration-modules-grid#85</title>
<path fill="none" stroke="#000000" stroke-width="2" d="M467.6137,-852.6768C503.161,-847.2266 545.805,-840.6883 583.8035,-834.8623"/>
<polygon fill="#000000" stroke="#000000" stroke-width="2" points="584.5167,-838.294 593.8707,-833.3188 583.4557,-831.3748 584.5167,-838.294"/>
<text text-anchor="middle" x="519.8467" y="-834.9818" font-family="Sans" font-size="10.00" fill="#000000">fixes</text>
</g>
<!-- ncm&#45;lib&#45;blockdevices#111 -->
<g id="node37" class="node">
<title>ncm-lib-blockdevices#111</title>
<g id="a_node37"><a xlink:href="https://github.com/quattor/ncm-lib-blockdevices/pull/111" xlink:title="ncm-lib-blockdevices#111 (pull-request)" target="_parent">
<polygon fill="#6e5494" stroke="#000000" points="476.5,-821.5 304.5,-821.5 304.5,-771.5 476.5,-771.5 476.5,-821.5"/>
<text text-anchor="middle" x="390.5" y="-799.5" font-family="Sans" font-size="10.00" fill="#000000">option to always use device path</text>
<text text-anchor="middle" x="390.5" y="-788.5" font-family="Sans" font-size="10.00" fill="#000000">for mounts instead of uuid</text>
</a>
</g>
</g>
<!-- ncm&#45;lib&#45;blockdevices#110 -->
<g id="node38" class="node">
<title>ncm-lib-blockdevices#110</title>
<g id="a_node38"><a xlink:href="https://github.com/quattor/ncm-lib-blockdevices/issues/110" xlink:title="ncm-lib-blockdevices#110 (issue)" target="_parent">
<path fill="#6e5494" stroke="#000000" d="M753.5,-776.5C753.5,-776.5 614.5,-776.5 614.5,-776.5 608.5,-776.5 602.5,-770.5 602.5,-764.5 602.5,-764.5 602.5,-738.5 602.5,-738.5 602.5,-732.5 608.5,-726.5 614.5,-726.5 614.5,-726.5 753.5,-726.5 753.5,-726.5 759.5,-726.5 765.5,-732.5 765.5,-738.5 765.5,-738.5 765.5,-764.5 765.5,-764.5 765.5,-770.5 759.5,-776.5 753.5,-776.5"/>
<text text-anchor="middle" x="684" y="-754.5" font-family="Sans" font-size="10.00" fill="#000000">Do not set uuid for vxvm vol in</text>
<text text-anchor="middle" x="684" y="-743.5" font-family="Sans" font-size="10.00" fill="#000000">fstab</text>
</a>
</g>
</g>
<!-- ncm&#45;lib&#45;blockdevices#111&#45;&gt;ncm&#45;lib&#45;blockdevices#110 -->
<g id="edge23" class="edge">
<title>ncm-lib-blockdevices#111-&gt;ncm-lib-blockdevices#110</title>
<path fill="none" stroke="#000000" stroke-width="2" d="M476.5766,-783.3026C512.9102,-777.7318 555.2664,-771.2377 592.1966,-765.5755"/>
<polygon fill="#000000" stroke="#000000" stroke-width="2" points="593.1053,-768.9771 602.4594,-764.002 592.0444,-762.058 593.1053,-768.9771"/>
<text text-anchor="middle" x="528.2546" y="-765.6926" font-family="Sans" font-size="10.00" fill="#000000">fixes</text>
</g>
<!-- ncm&#45;lib&#45;blockdevices#106 -->
<g id="node39" class="node">
<title>ncm-lib-blockdevices#106</title>
<g id="a_node39"><a xlink:href="https://github.com/quattor/ncm-lib-blockdevices/pull/106" xlink:title="ncm-lib-blockdevices#106 (pull-request)" target="_parent">
<polygon fill="#6cc644" stroke="#000000" points="472.5,-753.5 308.5,-753.5 308.5,-703.5 472.5,-703.5 472.5,-753.5"/>
<text text-anchor="middle" x="390.5" y="-731.5" font-family="Sans" font-size="10.00" fill="#000000">Partition: Mask DM/LVM rules,</text>
<text text-anchor="middle" x="390.5" y="-720.5" font-family="Sans" font-size="10.00" fill="#000000">don't stop udev</text>
</a>
</g>
</g>
<!-- ncm&#45;lib&#45;blockdevices#105 -->
<g id="node40" class="node">
<title>ncm-lib-blockdevices#105</title>
<g id="a_node40"><a xlink:href="https://github.com/quattor/ncm-lib-blockdevices/issues/105" xlink:title="ncm-lib-blockdevices#105 (issue)" target="_parent">
<path fill="#6cc644" stroke="#000000" d="M747.5,-708C747.5,-708 620.5,-708 620.5,-708 614.5,-708 608.5,-702 608.5,-696 608.5,-696 608.5,-659 608.5,-659 608.5,-653 614.5,-647 620.5,-647 620.5,-647 747.5,-647 747.5,-647 753.5,-647 759.5,-653 759.5,-659 759.5,-659 759.5,-696 759.5,-696 759.5,-702 753.5,-708 747.5,-708"/>
<text text-anchor="middle" x="684" y="-686" font-family="Sans" font-size="10.00" fill="#000000">Pausing udev makes</text>
<text text-anchor="middle" x="684" y="-675" font-family="Sans" font-size="10.00" fill="#000000">`/dev/disk/by-*` unusable for</text>
<text text-anchor="middle" x="684" y="-664" font-family="Sans" font-size="10.00" fill="#000000">installations</text>
</a>
</g>
</g>
<!-- ncm&#45;lib&#45;blockdevices#106&#45;&gt;ncm&#45;lib&#45;blockdevices#105 -->
<g id="edge24" class="edge">
<title>ncm-lib-blockdevices#106-&gt;ncm-lib-blockdevices#105</title>
<path fill="none" stroke="#000000" stroke-width="2" d="M472.6464,-714.2258C511.8868,-707.4072 558.827,-699.2507 598.4926,-692.3582"/>
<polygon fill="#000000" stroke="#000000" stroke-width="2" points="599.1581,-695.7951 608.4112,-690.6347 597.9597,-688.8984 599.1581,-695.7951"/>
<text text-anchor="middle" x="529.4722" y="-694.4401" font-family="Sans" font-size="10.00" fill="#000000">fixes</text>
</g>
<!-- release#370 -->
<g id="node41" class="node">
<title>release#370</title>
<g id="a_node41"><a xlink:href="https://github.com/quattor/release/pull/370" xlink:title="release#370 (pull-request)" target="_parent">
<polygon fill="#6e5494" stroke="#000000" points="471.5,-685.5 309.5,-685.5 309.5,-635.5 471.5,-635.5 471.5,-685.5"/>
<text text-anchor="middle" x="390.5" y="-663.5" font-family="Sans" font-size="10.00" fill="#000000">Update template library scripts</text>
<text text-anchor="middle" x="390.5" y="-652.5" font-family="Sans" font-size="10.00" fill="#000000">for new repository structure</text>
</a>
</g>
</g>
<!-- release#373 -->
<g id="node42" class="node">
<title>release#373</title>
<g id="a_node42"><a xlink:href="https://github.com/quattor/release/issues/373" xlink:title="release#373 (issue)" target="_parent">
<path fill="#6e5494" stroke="#000000" d="M758.5,-629C758.5,-629 609.5,-629 609.5,-629 603.5,-629 597.5,-623 597.5,-617 597.5,-617 597.5,-580 597.5,-580 597.5,-574 603.5,-568 609.5,-568 609.5,-568 758.5,-568 758.5,-568 764.5,-568 770.5,-574 770.5,-580 770.5,-580 770.5,-617 770.5,-617 770.5,-623 764.5,-629 758.5,-629"/>
<text text-anchor="middle" x="684" y="-607" font-family="Sans" font-size="10.00" fill="#000000">get-template-library: update the</text>
<text text-anchor="middle" x="684" y="-596" font-family="Sans" font-size="10.00" fill="#000000">default master branch name after</text>
<text text-anchor="middle" x="684" y="-585" font-family="Sans" font-size="10.00" fill="#000000">master -&gt; main rename</text>
</a>
</g>
</g>
<!-- release#370&#45;&gt;release#373 -->
<g id="edge25" class="edge">
<title>release#370-&gt;release#373</title>
<path fill="none" stroke="#000000" stroke-width="2" d="M471.8664,-643.3119C507.6846,-635.7455 550.0351,-626.7992 587.4397,-618.8978"/>
<polygon fill="#000000" stroke="#000000" stroke-width="2" points="588.2799,-622.2976 597.3406,-616.8063 586.8331,-615.4487 588.2799,-622.2976"/>
<text text-anchor="middle" x="523.6142" y="-622.0568" font-family="Sans" font-size="10.00" fill="#000000">fixes</text>
</g>
<!-- template&#45;library&#45;grid#232 -->
<g id="node43" class="node">
<title>template-library-grid#232</title>
<g id="a_node43"><a xlink:href="https://github.com/quattor/template-library-grid/pull/232" xlink:title="template-library-grid#232 (pull-request)" target="_parent">
<polygon fill="#6cc644" stroke="#000000" points="467,-413.5 314,-413.5 314,-363.5 467,-363.5 467,-413.5"/>
<text text-anchor="middle" x="390.5" y="-391.5" font-family="Sans" font-size="10.00" fill="#000000">arc-ce: Export arc-ce feature</text>
<text text-anchor="middle" x="390.5" y="-380.5" font-family="Sans" font-size="10.00" fill="#000000">from aquilon at RAL</text>
</a>
</g>
</g>
<!-- template&#45;library&#45;grid#221 -->
<g id="node44" class="node">
<title>template-library-grid#221</title>
<g id="a_node44"><a xlink:href="https://github.com/quattor/template-library-grid/issues/221" xlink:title="template-library-grid#221 (issue)" target="_parent">
<path fill="#6cc644" stroke="#000000" d="M757,-107.5C757,-107.5 611,-107.5 611,-107.5 605,-107.5 599,-101.5 599,-95.5 599,-95.5 599,-69.5 599,-69.5 599,-63.5 605,-57.5 611,-57.5 611,-57.5 757,-57.5 757,-57.5 763,-57.5 769,-63.5 769,-69.5 769,-69.5 769,-95.5 769,-95.5 769,-101.5 763,-107.5 757,-107.5"/>
<text text-anchor="middle" x="684" y="-85.5" font-family="Sans" font-size="10.00" fill="#000000">Support for new CE types (ARC</text>
<text text-anchor="middle" x="684" y="-74.5" font-family="Sans" font-size="10.00" fill="#000000">CE, HTCONDOR CE)</text>
</a>
</g>
</g>
<!-- template&#45;library&#45;grid#232&#45;&gt;template&#45;library&#45;grid#221 -->
<g id="edge26" class="edge">
<title>template-library-grid#232-&gt;template-library-grid#221</title>
<path fill="none" stroke="#000000" stroke-width="2" d="M467.2519,-367.6927C474.0351,-363.9824 480.429,-359.6219 486,-354.5 571.5118,-275.8828 509.2458,-195.9334 594,-116.5 594.9597,-115.6005 595.9456,-114.7242 596.955,-113.8705"/>
<polygon fill="#000000" stroke="#000000" stroke-width="2" points="599.2094,-116.5549 605.1146,-107.7583 595.0127,-110.9524 599.2094,-116.5549"/>
<text text-anchor="middle" x="528.9488" y="-230.1347" font-family="Sans" font-size="10.00" fill="#000000">fixes</text>
</g>
<!-- template&#45;library&#45;openstack#63 -->
<g id="node45" class="node">
<title>template-library-openstack#63</title>
<g id="a_node45"><a xlink:href="https://github.com/quattor/template-library-openstack/pull/63" xlink:title="template-library-openstack#63 (pull-request)" target="_parent">
<polygon fill="#6cc644" stroke="#000000" points="481,-345.5 300,-345.5 300,-295.5 481,-295.5 481,-345.5"/>
<text text-anchor="middle" x="390.5" y="-323.5" font-family="Sans" font-size="10.00" fill="#000000">Templates for OpenStack Antelope</text>
<text text-anchor="middle" x="390.5" y="-312.5" font-family="Sans" font-size="10.00" fill="#000000">version</text>
</a>
</g>
</g>
<!-- template&#45;library&#45;openstack#1 -->
<g id="node46" class="node">
<title>template-library-openstack#1</title>
<polygon fill="#d3d3d3" stroke="#000000" points="761,-39 607,-39 607,0 761,0 761,-39"/>
<text text-anchor="middle" x="684" y="-17" font-family="Sans" font-size="10.00" fill="#000000">template-library-openstack#1</text>
</g>
<!-- template&#45;library&#45;openstack#63&#45;&gt;template&#45;library&#45;openstack#1 -->
<g id="edge27" class="edge">
<title>template-library-openstack#63-&gt;template-library-openstack#1</title>
<path fill="none" stroke="#000000" stroke-width="2" d="M402.47,-295.3903C429.2039,-241.9599 498.9683,-116.3576 594,-48.5 596.1626,-46.9558 598.4116,-45.4909 600.7274,-44.1015"/>
<polygon fill="#000000" stroke="#000000" stroke-width="2" points="602.8219,-46.9476 609.9492,-39.1085 599.489,-40.7919 602.8219,-46.9476"/>
<text text-anchor="middle" x="478.3786" y="-146.3644" font-family="Sans" font-size="10.00" fill="#000000">fixes</text>
</g>
</g>
</svg>
