<?xml version="1.0" encoding="UTF-8" standalone="no"?>
<?xml-stylesheet href="relationships.css" type="text/css"?>
<!-- Generated by graphviz version 2.30.1 (20200930.0103)
 -->
<!-- Title: Dependencies Pages: 1 -->
<svg xmlns="http://www.w3.org/2000/svg" xmlns:xlink="http://www.w3.org/1999/xlink" width="1019pt" height="1478pt" viewBox="0.00 0.00 1019.00 1478.00">
<g id="graph0" class="graph" transform="scale(1 1) rotate(0) translate(4 1474)">
<title>Dependencies</title>
<polygon fill="white" stroke="white" points="-4,5 -4,-1474 1016,-1474 1016,5 -4,5"/>
<g id="clust3" class="cluster"><title>cluster_milestone_23.12</title>
<polygon fill="none" stroke="black" points="8,-881 8,-1048 522,-1048 522,-881 8,-881"/>
<text text-anchor="middle" x="265" y="-1034.4" font-family="Sans" font-size="12.00">23.12</text>
</g>
<g id="clust2" class="cluster"><title>cluster_milestone_22.12</title>
<polygon fill="none" stroke="black" points="319,-218 319,-873 843,-873 843,-218 319,-218"/>
<text text-anchor="middle" x="581" y="-859.4" font-family="Sans" font-size="12.00">22.12</text>
</g>
<g id="clust1" class="cluster"><title>cluster_milestone_23.6</title>
<polygon fill="none" stroke="black" points="29,-712 29,-811 187,-811 187,-712 29,-712"/>
<text text-anchor="middle" x="108" y="-797.4" font-family="Sans" font-size="12.00">23.6</text>
</g>
<!-- aii#331 -->
<g id="node1" class="node"><title>aii#331</title>
<g id="a_node1"><a xlink:href="https://github.com/quattor/aii/pull/331" xlink:title="aii#331 (pull-request)" target="_parent">
<polygon fill="#6cc644" stroke="black" points="179,-781.5 37,-781.5 37,-720.5 179,-720.5 179,-781.5"/>
<text text-anchor="middle" x="108" y="-759.5" font-family="Sans" font-size="10.00">let aii generate ansible</text>
<text text-anchor="middle" x="108" y="-748.5" font-family="Sans" font-size="10.00">playbook for supported</text>
<text text-anchor="middle" x="108" y="-737.5" font-family="Sans" font-size="10.00">components</text>
</a>
</g>
</g>
<!-- aii#328 -->
<g id="node2" class="node"><title>aii#328</title>
<g id="a_node2"><a xlink:href="https://github.com/quattor/aii/pull/328" xlink:title="aii#328 (pull-request)" target="_parent">
<polygon fill="#6cc644" stroke="black" points="515,-776 333,-776 333,-726 515,-726 515,-776"/>
<text text-anchor="middle" x="424" y="-754" font-family="Sans" font-size="10.00">aii-ks: generate ks post section</text>
<text text-anchor="middle" x="424" y="-743" font-family="Sans" font-size="10.00">as standalone script</text>
</a>
</g>
</g>
<!-- aii#331&#45;&gt;aii#328 -->
<g id="edge1" class="edge"><title>aii#331-&gt;aii#328</title>
<path fill="none" stroke="black" stroke-dasharray="5,2" d="M179.077,-751C221.343,-751 275.883,-751 322.668,-751"/>
<polygon fill="none" stroke="black" points="322.834,-754.5 332.834,-751 322.834,-747.5 322.834,-754.5"/>
<text text-anchor="middle" x="235.574" y="-743" font-family="Sans" font-size="10.00">requires</text>
</g>
<!-- aii#280 -->
<g id="node3" class="node"><title>aii#280</title>
<polygon fill="lightgrey" stroke="black" points="1010.5,-835.5 943.5,-835.5 943.5,-796.5 1010.5,-796.5 1010.5,-835.5"/>
<text text-anchor="middle" x="977" y="-813.5" font-family="Sans" font-size="10.00">aii#280</text>
</g>
<!-- aii#328&#45;&gt;aii#280 -->
<g id="edge2" class="edge"><title>aii#328-&gt;aii#280</title>
<path fill="none" stroke="black" stroke-dasharray="5,2" d="M515.002,-773.227C552.501,-781.671 596.636,-790.557 637,-796 742.712,-810.256 868.329,-814.351 932.912,-815.527"/>
<polygon fill="none" stroke="black" points="933.06,-819.03 943.117,-815.697 933.177,-812.031 933.06,-819.03"/>
<text text-anchor="middle" x="708.47" y="-797.725" font-family="Sans" font-size="10.00">requires</text>
</g>
<!-- aii#316 -->
<g id="node4" class="node"><title>aii#316</title>
<g id="a_node4"><a xlink:href="https://github.com/quattor/aii/pull/316" xlink:title="aii#316 (pull-request)" target="_parent">
<polygon fill="#6cc644" stroke="black" points="824,-787.5 648,-787.5 648,-726.5 824,-726.5 824,-787.5"/>
<text text-anchor="middle" x="736" y="-765.5" font-family="Sans" font-size="10.00">aii-ks: generate kickstart repo</text>
<text text-anchor="middle" x="736" y="-754.5" font-family="Sans" font-size="10.00">entries based on SPMA</text>
<text text-anchor="middle" x="736" y="-743.5" font-family="Sans" font-size="10.00">configuration</text>
</a>
</g>
</g>
<!-- aii#328&#45;&gt;aii#316 -->
<g id="edge3" class="edge"><title>aii#328-&gt;aii#316</title>
<path fill="none" stroke="black" stroke-dasharray="5,2" d="M515.081,-752.744C553.563,-753.488 598.56,-754.359 637.792,-755.119"/>
<polygon fill="none" stroke="black" points="637.833,-758.62 647.899,-755.314 637.968,-751.621 637.833,-758.62"/>
<text text-anchor="middle" x="561.561" y="-746.03" font-family="Sans" font-size="10.00">requires</text>
</g>
<!-- aii#316&#45;&gt;aii#280 -->
<g id="edge4" class="edge"><title>aii#316-&gt;aii#280</title>
<path fill="none" stroke="black" stroke-dasharray="5,2" d="M824.299,-778.551C861.558,-787.749 903.33,-798.061 933.593,-805.531"/>
<polygon fill="none" stroke="black" points="932.844,-808.951 943.392,-807.95 934.522,-802.155 932.844,-808.951"/>
<text text-anchor="middle" x="863.778" y="-785.234" font-family="Sans" font-size="10.00">requires</text>
</g>
<!-- aii#314 -->
<g id="node5" class="node"><title>aii#314</title>
<polygon fill="lightgrey" stroke="black" points="1010.5,-720.5 943.5,-720.5 943.5,-681.5 1010.5,-681.5 1010.5,-720.5"/>
<text text-anchor="middle" x="977" y="-698.5" font-family="Sans" font-size="10.00">aii#314</text>
</g>
<!-- aii#316&#45;&gt;aii#314 -->
<g id="edge5" class="edge"><title>aii#316-&gt;aii#314</title>
<path fill="none" stroke="black" stroke-dasharray="5,2" d="M824.299,-736.545C861.558,-727.815 903.33,-718.027 933.593,-710.936"/>
<polygon fill="none" stroke="black" points="934.454,-714.33 943.392,-708.64 932.857,-707.514 934.454,-714.33"/>
<text text-anchor="middle" x="863.778" y="-714.608" font-family="Sans" font-size="10.00">requires</text>
</g>
<!-- aii#315 -->
<g id="node6" class="node"><title>aii#315</title>
<polygon fill="lightgrey" stroke="black" points="1010.5,-777.5 943.5,-777.5 943.5,-738.5 1010.5,-738.5 1010.5,-777.5"/>
<text text-anchor="middle" x="977" y="-755.5" font-family="Sans" font-size="10.00">aii#315</text>
</g>
<!-- aii#316&#45;&gt;aii#315 -->
<g id="edge6" class="edge"><title>aii#316-&gt;aii#315</title>
<path fill="none" stroke="black" stroke-dasharray="5,2" d="M824.299,-757.365C861.396,-757.52 902.967,-757.694 933.198,-757.821"/>
<polygon fill="none" stroke="black" points="933.377,-761.322 943.392,-757.864 933.406,-754.322 933.377,-761.322"/>
<text text-anchor="middle" x="863.962" y="-749.615" font-family="Sans" font-size="10.00">requires</text>
</g>
<!-- aii#299 -->
<g id="node7" class="node"><title>aii#299</title>
<g id="a_node7"><a xlink:href="https://github.com/quattor/aii/pull/299" xlink:title="aii#299 (pull-request)" target="_parent">
<polygon fill="#6cc644" stroke="black" points="500.5,-844 347.5,-844 347.5,-794 500.5,-794 500.5,-844"/>
<text text-anchor="middle" x="424" y="-822" font-family="Sans" font-size="10.00">aii-dhcp: support optional</text>
<text text-anchor="middle" x="424" y="-811" font-family="Sans" font-size="10.00">hostname ip verification</text>
</a>
</g>
</g>
<!-- aii#299&#45;&gt;aii#280 -->
<g id="edge7" class="edge"><title>aii#299-&gt;aii#280</title>
<path fill="none" stroke="black" stroke-dasharray="5,2" d="M500.559,-824.562C584.314,-829.894 723.384,-836.278 843,-830 873.16,-828.417 907.009,-824.828 933.011,-821.681"/>
<polygon fill="none" stroke="black" points="933.786,-825.111 943.281,-820.411 932.927,-818.164 933.786,-825.111"/>
<text text-anchor="middle" x="701.975" y="-824.576" font-family="Sans" font-size="10.00">requires</text>
</g>
<!-- CAF#257 -->
<g id="node8" class="node"><title>CAF#257</title>
<g id="a_node8"><a xlink:href="https://github.com/quattor/CAF/pull/257" xlink:title="CAF#257 (pull-request)" target="_parent">
<polygon fill="#6cc644" stroke="black" points="199.5,-1013 16.5,-1013 16.5,-963 199.5,-963 199.5,-1013"/>
<text text-anchor="middle" x="108" y="-991" font-family="Sans" font-size="10.00">Process: run process as another</text>
<text text-anchor="middle" x="108" y="-980" font-family="Sans" font-size="10.00">user</text>
</a>
</g>
</g>
<!-- CAF#253 -->
<g id="node9" class="node"><title>CAF#253</title>
<g id="a_node9"><a xlink:href="https://github.com/quattor/CAF/issues/253" xlink:title="CAF#253 (issue)" target="_parent">
<path fill="#6cc644" stroke="black" d="M502,-1018.5C502,-1018.5 346,-1018.5 346,-1018.5 340,-1018.5 334,-1012.5 334,-1006.5 334,-1006.5 334,-969.5 334,-969.5 334,-963.5 340,-957.5 346,-957.5 346,-957.5 502,-957.5 502,-957.5 508,-957.5 514,-963.5 514,-969.5 514,-969.5 514,-1006.5 514,-1006.5 514,-1012.5 508,-1018.5 502,-1018.5"/>
<text text-anchor="middle" x="424" y="-996.5" font-family="Sans" font-size="10.00">CAF::Process: Include an option</text>
<text text-anchor="middle" x="424" y="-985.5" font-family="Sans" font-size="10.00">to execute the command as an</text>
<text text-anchor="middle" x="424" y="-974.5" font-family="Sans" font-size="10.00">specific user</text>
</a>
</g>
</g>
<!-- CAF#257&#45;&gt;CAF#253 -->
<g id="edge8" class="edge"><title>CAF#257-&gt;CAF#253</title>
<path fill="none" stroke="black" stroke-width="2" d="M199.822,-988C238.561,-988 283.88,-988 323.522,-988"/>
<polygon fill="black" stroke="black" points="323.737,-991.5 333.737,-988 323.737,-984.5 323.737,-991.5"/>
<text text-anchor="middle" x="254.782" y="-980" font-family="Sans" font-size="10.00">fixes</text>
</g>
<!-- CAF#110 -->
<g id="node10" class="node"><title>CAF#110</title>
<g id="a_node10"><a xlink:href="https://github.com/quattor/CAF/pull/110" xlink:title="CAF#110 (pull-request)" target="_parent">
<polygon fill="#6cc644" stroke="black" points="499.5,-424 348.5,-424 348.5,-374 499.5,-374 499.5,-424"/>
<text text-anchor="middle" x="424" y="-402" font-family="Sans" font-size="10.00">CAF::Download class: API</text>
<text text-anchor="middle" x="424" y="-391" font-family="Sans" font-size="10.00">proposal</text>
</a>
</g>
</g>
<!-- CAF#120 -->
<g id="node11" class="node"><title>CAF#120</title>
<polygon fill="lightgrey" stroke="black" points="773,-209.5 699,-209.5 699,-170.5 773,-170.5 773,-209.5"/>
<text text-anchor="middle" x="736" y="-187.5" font-family="Sans" font-size="10.00">CAF#120</text>
</g>
<!-- CAF#110&#45;&gt;CAF#120 -->
<g id="edge9" class="edge"><title>CAF#110-&gt;CAF#120</title>
<path fill="none" stroke="black" stroke-dasharray="5,2" d="M499.719,-380.235C510.084,-375.852 520.186,-370.504 529,-364 595.102,-315.225 568.898,-259.941 637,-214 652.174,-203.764 671.288,-197.885 688.597,-194.513"/>
<polygon fill="none" stroke="black" points="689.275,-197.948 698.537,-192.802 688.088,-191.049 689.275,-197.948"/>
<text text-anchor="middle" x="565.151" y="-272.731" font-family="Sans" font-size="10.00">requires</text>
</g>
<!-- configuration&#45;modules&#45;core#1567 -->
<g id="node12" class="node"><title>configuration-modules-core#1567</title>
<g id="a_node12"><a xlink:href="https://github.com/quattor/configuration-modules-core/pull/1567" xlink:title="configuration-modules-core#1567 (pull-request)" target="_parent">
<polygon fill="#6cc644" stroke="black" points="516.5,-708 331.5,-708 331.5,-658 516.5,-658 516.5,-708"/>
<text text-anchor="middle" x="424" y="-686" font-family="Sans" font-size="10.00">ncm-systemd: All Exec* options</text>
<text text-anchor="middle" x="424" y="-675" font-family="Sans" font-size="10.00">can be lists of strings</text>
</a>
</g>
</g>
<!-- configuration&#45;modules&#45;core#1262 -->
<g id="node13" class="node"><title>configuration-modules-core#1262</title>
<g id="a_node13"><a xlink:href="https://github.com/quattor/configuration-modules-core/issues/1262" xlink:title="configuration-modules-core#1262 (issue)" target="_parent">
<path fill="#6cc644" stroke="black" d="M823,-708C823,-708 649,-708 649,-708 643,-708 637,-702 637,-696 637,-696 637,-670 637,-670 637,-664 643,-658 649,-658 649,-658 823,-658 823,-658 829,-658 835,-664 835,-670 835,-670 835,-696 835,-696 835,-702 829,-708 823,-708"/>
<text text-anchor="middle" x="736" y="-686" font-family="Sans" font-size="10.00">ncm-systemd: ExecStart should be</text>
<text text-anchor="middle" x="736" y="-675" font-family="Sans" font-size="10.00">a list of string, not a string</text>
</a>
</g>
</g>
<!-- configuration&#45;modules&#45;core#1567&#45;&gt;configuration&#45;modules&#45;core#1262 -->
<g id="edge10" class="edge"><title>configuration-modules-core#1567-&gt;configuration-modules-core#1262</title>
<path fill="none" stroke="black" stroke-width="2" d="M516.752,-683C551.268,-683 590.834,-683 626.716,-683"/>
<polygon fill="black" stroke="black" points="626.732,-686.5 636.732,-683 626.731,-679.5 626.732,-686.5"/>
<text text-anchor="middle" x="564.921" y="-675" font-family="Sans" font-size="10.00">fixes</text>
</g>
<!-- configuration&#45;modules&#45;core#1554 -->
<g id="node14" class="node"><title>configuration-modules-core#1554</title>
<g id="a_node14"><a xlink:href="https://github.com/quattor/configuration-modules-core/pull/1554" xlink:title="configuration-modules-core#1554 (pull-request)" target="_parent">
<polygon fill="#6cc644" stroke="black" points="509,-640 339,-640 339,-590 509,-590 509,-640"/>
<text text-anchor="middle" x="424" y="-618" font-family="Sans" font-size="10.00">avoid removing empty list of</text>
<text text-anchor="middle" x="424" y="-607" font-family="Sans" font-size="10.00">packages</text>
</a>
</g>
</g>
<!-- configuration&#45;modules&#45;core#1553 -->
<g id="node15" class="node"><title>configuration-modules-core#1553</title>
<g id="a_node15"><a xlink:href="https://github.com/quattor/configuration-modules-core/issues/1553" xlink:title="configuration-modules-core#1553 (issue)" target="_parent">
<path fill="#6cc644" stroke="black" d="M816.5,-639.5C816.5,-639.5 655.5,-639.5 655.5,-639.5 649.5,-639.5 643.5,-633.5 643.5,-627.5 643.5,-627.5 643.5,-590.5 643.5,-590.5 643.5,-584.5 649.5,-578.5 655.5,-578.5 655.5,-578.5 816.5,-578.5 816.5,-578.5 822.5,-578.5 828.5,-584.5 828.5,-590.5 828.5,-590.5 828.5,-627.5 828.5,-627.5 828.5,-633.5 822.5,-639.5 816.5,-639.5"/>
<text text-anchor="middle" x="736" y="-617.5" font-family="Sans" font-size="10.00">ncm-spma: update_pkgs in yum</text>
<text text-anchor="middle" x="736" y="-606.5" font-family="Sans" font-size="10.00">plugin tries to remove empty</text>
<text text-anchor="middle" x="736" y="-595.5" font-family="Sans" font-size="10.00">list of packages</text>
</a>
</g>
</g>
<!-- configuration&#45;modules&#45;core#1554&#45;&gt;configuration&#45;modules&#45;core#1553 -->
<g id="edge11" class="edge"><title>configuration-modules-core#1554-&gt;configuration-modules-core#1553</title>
<path fill="none" stroke="black" stroke-width="2" d="M509.299,-613.368C547.563,-612.628 593.142,-611.746 633.29,-610.969"/>
<polygon fill="black" stroke="black" points="633.442,-614.466 643.372,-610.773 633.306,-607.468 633.442,-614.466"/>
<text text-anchor="middle" x="564.057" y="-604.076" font-family="Sans" font-size="10.00">fixes</text>
</g>
<!-- configuration&#45;modules&#45;core#1490 -->
<g id="node16" class="node"><title>configuration-modules-core#1490</title>
<g id="a_node16"><a xlink:href="https://github.com/quattor/configuration-modules-core/pull/1490" xlink:title="configuration-modules-core#1490 (pull-request)" target="_parent">
<polygon fill="#6e5494" stroke="black" points="507.5,-355.5 340.5,-355.5 340.5,-294.5 507.5,-294.5 507.5,-355.5"/>
<text text-anchor="middle" x="424" y="-333.5" font-family="Sans" font-size="10.00">ncm-ceph: Add support for</text>
<text text-anchor="middle" x="424" y="-322.5" font-family="Sans" font-size="10.00">orchestrator/cephadm under</text>
<text text-anchor="middle" x="424" y="-311.5" font-family="Sans" font-size="10.00">octopus</text>
</a>
</g>
</g>
<!-- configuration&#45;modules&#45;core#1463 -->
<g id="node17" class="node"><title>configuration-modules-core#1463</title>
<polygon fill="lightgrey" stroke="black" points="833.5,-152.5 638.5,-152.5 638.5,-113.5 833.5,-113.5 833.5,-152.5"/>
<text text-anchor="middle" x="736" y="-130.5" font-family="Sans" font-size="10.00">configuration-modules-core#1463</text>
</g>
<!-- configuration&#45;modules&#45;core#1490&#45;&gt;configuration&#45;modules&#45;core#1463 -->
<g id="edge12" class="edge"><title>configuration-modules-core#1490-&gt;configuration-modules-core#1463</title>
<path fill="none" stroke="black" stroke-dasharray="1,5" d="M507.567,-297.644C515.072,-293.866 522.344,-289.659 529,-285 588.873,-243.09 575.324,-200.209 637,-161 639.301,-159.537 641.679,-158.15 644.118,-156.833"/>
<polygon fill="black" stroke="black" points="653.181,-152.368 646.199,-160.824 648.696,-154.577 644.21,-156.787 644.21,-156.787 644.21,-156.787 648.696,-154.577 642.222,-152.75 653.181,-152.368 653.181,-152.368"/>
<text text-anchor="middle" x="559.663" y="-216.923" font-family="Sans" font-size="10.00">replaces</text>
</g>
<!-- configuration&#45;modules&#45;core#1464 -->
<g id="node18" class="node"><title>configuration-modules-core#1464</title>
<g id="a_node18"><a xlink:href="https://github.com/quattor/configuration-modules-core/pull/1464" xlink:title="configuration-modules-core#1464 (pull-request)" target="_parent">
<polygon fill="#6e5494" stroke="black" points="516,-571.5 332,-571.5 332,-510.5 516,-510.5 516,-571.5"/>
<text text-anchor="middle" x="424" y="-549.5" font-family="Sans" font-size="10.00">ncm-systemd: all pre and post</text>
<text text-anchor="middle" x="424" y="-538.5" font-family="Sans" font-size="10.00">exec commands now take a list</text>
<text text-anchor="middle" x="424" y="-527.5" font-family="Sans" font-size="10.00">instead of a string</text>
</a>
</g>
</g>
<!-- template&#45;library&#45;core#212 -->
<g id="node19" class="node"><title>template-library-core#212</title>
<g id="a_node19"><a xlink:href="https://github.com/quattor/template-library-core/pull/212" xlink:title="template-library-core#212 (pull-request)" target="_parent">
<polygon fill="#6e5494" stroke="black" points="823.5,-560.5 648.5,-560.5 648.5,-499.5 823.5,-499.5 823.5,-560.5"/>
<text text-anchor="middle" x="736" y="-538.5" font-family="Sans" font-size="10.00">Add a transitional type for</text>
<text text-anchor="middle" x="736" y="-527.5" font-family="Sans" font-size="10.00">strings being migrated to lists</text>
<text text-anchor="middle" x="736" y="-516.5" font-family="Sans" font-size="10.00">of strings</text>
</a>
</g>
</g>
<!-- configuration&#45;modules&#45;core#1464&#45;&gt;template&#45;library&#45;core#212 -->
<g id="edge13" class="edge"><title>configuration-modules-core#1464-&gt;template-library-core#212</title>
<path fill="none" stroke="black" stroke-dasharray="5,2" d="M516.334,-537.759C554.615,-536.401 599.168,-534.82 638.032,-533.441"/>
<polygon fill="none" stroke="black" points="638.437,-536.929 648.306,-533.076 638.189,-529.933 638.437,-536.929"/>
<text text-anchor="middle" x="562.323" y="-527.418" font-family="Sans" font-size="10.00">requires</text>
</g>
<!-- configuration&#45;modules&#45;core#1452 -->
<g id="node20" class="node"><title>configuration-modules-core#1452</title>
<g id="a_node20"><a xlink:href="https://github.com/quattor/configuration-modules-core/pull/1452" xlink:title="configuration-modules-core#1452 (pull-request)" target="_parent">
<polygon fill="#6cc644" stroke="black" points="510.5,-276 337.5,-276 337.5,-226 510.5,-226 510.5,-276"/>
<text text-anchor="middle" x="424" y="-254" font-family="Sans" font-size="10.00">ncm-metaconfig: ssh daemon</text>
<text text-anchor="middle" x="424" y="-243" font-family="Sans" font-size="10.00">configuration support</text>
</a>
</g>
</g>
<!-- configuration&#45;modules&#45;core#1377 -->
<g id="node21" class="node"><title>configuration-modules-core#1377</title>
<polygon fill="lightgrey" stroke="black" points="833.5,-95.5 638.5,-95.5 638.5,-56.5 833.5,-56.5 833.5,-95.5"/>
<text text-anchor="middle" x="736" y="-73.5" font-family="Sans" font-size="10.00">configuration-modules-core#1377</text>
</g>
<!-- configuration&#45;modules&#45;core#1452&#45;&gt;configuration&#45;modules&#45;core#1377 -->
<g id="edge14" class="edge"><title>configuration-modules-core#1452-&gt;configuration-modules-core#1377</title>
<path fill="none" stroke="black" stroke-dasharray="1,5" d="M454.302,-225.961C493.523,-193.6 566.366,-137.451 637,-104 640.778,-102.211 644.694,-100.513 648.689,-98.9059"/>
<polygon fill="black" stroke="black" points="658.129,-95.318 650.38,-103.077 653.455,-97.0945 648.781,-98.8709 648.781,-98.8709 648.781,-98.8709 653.455,-97.0945 647.182,-94.6645 658.129,-95.318 658.129,-95.318"/>
<text text-anchor="middle" x="530.444" y="-145.408" font-family="Sans" font-size="10.00">replaces</text>
</g>
<!-- configuration&#45;modules&#45;core#1451 -->
<g id="node22" class="node"><title>configuration-modules-core#1451</title>
<polygon fill="lightgrey" stroke="black" points="833.5,-38.5 638.5,-38.5 638.5,0.5 833.5,0.5 833.5,-38.5"/>
<text text-anchor="middle" x="736" y="-16.5" font-family="Sans" font-size="10.00">configuration-modules-core#1451</text>
</g>
<!-- configuration&#45;modules&#45;core#1452&#45;&gt;configuration&#45;modules&#45;core#1451 -->
<g id="edge15" class="edge"><title>configuration-modules-core#1452-&gt;configuration-modules-core#1451</title>
<path fill="none" stroke="black" stroke-dasharray="5,2" d="M444.039,-225.948C478.052,-182.932 553.551,-95.0275 637,-47 639.711,-45.4395 642.516,-43.961 645.387,-42.5606"/>
<polygon fill="none" stroke="black" points="647.069,-45.6421 654.754,-38.3493 644.198,-39.2576 647.069,-45.6421"/>
<text text-anchor="middle" x="519.394" y="-113.542" font-family="Sans" font-size="10.00">requires</text>
</g>
<!-- configuration&#45;modules&#45;core#1507 -->
<g id="node23" class="node"><title>configuration-modules-core#1507</title>
<g id="a_node23"><a xlink:href="https://github.com/quattor/configuration-modules-core/pull/1507" xlink:title="configuration-modules-core#1507 (pull-request)" target="_parent">
<polygon fill="#6cc644" stroke="black" points="196,-1106 20,-1106 20,-1056 196,-1056 196,-1106"/>
<text text-anchor="middle" x="108" y="-1084" font-family="Sans" font-size="10.00">[WIP] ncm-spma: yumdnf: use</text>
<text text-anchor="middle" x="108" y="-1073" font-family="Sans" font-size="10.00">spmaleaves dnf plugin</text>
</a>
</g>
</g>
<!-- configuration&#45;modules&#45;core#1401 -->
<g id="node24" class="node"><title>configuration-modules-core#1401</title>
<polygon fill="lightgrey" stroke="black" points="521.5,-1100.5 326.5,-1100.5 326.5,-1061.5 521.5,-1061.5 521.5,-1100.5"/>
<text text-anchor="middle" x="424" y="-1078.5" font-family="Sans" font-size="10.00">configuration-modules-core#1401</text>
</g>
<!-- configuration&#45;modules&#45;core#1507&#45;&gt;configuration&#45;modules&#45;core#1401 -->
<g id="edge16" class="edge"><title>configuration-modules-core#1507-&gt;configuration-modules-core#1401</title>
<path fill="none" stroke="black" stroke-dasharray="5,2" d="M196.05,-1081C233.203,-1081 276.927,-1081 316.027,-1081"/>
<polygon fill="none" stroke="black" points="316.391,-1084.5 326.391,-1081 316.391,-1077.5 316.391,-1084.5"/>
<text text-anchor="middle" x="241.549" y="-1073" font-family="Sans" font-size="10.00">requires</text>
</g>
<!-- configuration&#45;modules&#45;core#1336 -->
<g id="node25" class="node"><title>configuration-modules-core#1336</title>
<g id="a_node25"><a xlink:href="https://github.com/quattor/configuration-modules-core/pull/1336" xlink:title="configuration-modules-core#1336 (pull-request)" target="_parent">
<polygon fill="#6cc644" stroke="black" points="195,-1234.5 21,-1234.5 21,-1173.5 195,-1173.5 195,-1234.5"/>
<text text-anchor="middle" x="108" y="-1212.5" font-family="Sans" font-size="10.00">ncm-network: Add support for</text>
<text text-anchor="middle" x="108" y="-1201.5" font-family="Sans" font-size="10.00">CAF::Service actions after</text>
<text text-anchor="middle" x="108" y="-1190.5" font-family="Sans" font-size="10.00">changes</text>
</a>
</g>
</g>
<!-- configuration&#45;modules&#45;core#1335 -->
<g id="node26" class="node"><title>configuration-modules-core#1335</title>
<g id="a_node26"><a xlink:href="https://github.com/quattor/configuration-modules-core/pull/1335" xlink:title="configuration-modules-core#1335 (pull-request)" target="_parent">
<polygon fill="#6cc644" stroke="black" points="517,-1179.5 331,-1179.5 331,-1118.5 517,-1118.5 517,-1179.5"/>
<text text-anchor="middle" x="424" y="-1157.5" font-family="Sans" font-size="10.00">ncm-metaconfig: Remove</text>
<text text-anchor="middle" x="424" y="-1146.5" font-family="Sans" font-size="10.00">caf_service_action type to allow</text>
<text text-anchor="middle" x="424" y="-1135.5" font-family="Sans" font-size="10.00">reuse</text>
</a>
</g>
</g>
<!-- configuration&#45;modules&#45;core#1336&#45;&gt;configuration&#45;modules&#45;core#1335 -->
<g id="edge17" class="edge"><title>configuration-modules-core#1336-&gt;configuration-modules-core#1335</title>
<path fill="none" stroke="black" stroke-dasharray="5,2" d="M195.217,-1188.9C234.13,-1182.08 280.379,-1173.98 321.004,-1166.87"/>
<polygon fill="none" stroke="black" points="321.685,-1170.3 330.931,-1165.13 320.477,-1163.4 321.685,-1170.3"/>
<text text-anchor="middle" x="243.016" y="-1169.02" font-family="Sans" font-size="10.00">requires</text>
</g>
<!-- configuration&#45;modules&#45;core#1071 -->
<g id="node27" class="node"><title>configuration-modules-core#1071</title>
<g id="a_node27"><a xlink:href="https://github.com/quattor/configuration-modules-core/issues/1071" xlink:title="configuration-modules-core#1071 (issue)" target="_parent">
<path fill="#6cc644" stroke="black" d="M510.5,-1248C510.5,-1248 337.5,-1248 337.5,-1248 331.5,-1248 325.5,-1242 325.5,-1236 325.5,-1236 325.5,-1210 325.5,-1210 325.5,-1204 331.5,-1198 337.5,-1198 337.5,-1198 510.5,-1198 510.5,-1198 516.5,-1198 522.5,-1204 522.5,-1210 522.5,-1210 522.5,-1236 522.5,-1236 522.5,-1242 516.5,-1248 510.5,-1248"/>
<text text-anchor="middle" x="424" y="-1226" font-family="Sans" font-size="10.00">ncm-network: support daemons to</text>
<text text-anchor="middle" x="424" y="-1215" font-family="Sans" font-size="10.00">restart after network changes</text>
</a>
</g>
</g>
<!-- configuration&#45;modules&#45;core#1336&#45;&gt;configuration&#45;modules&#45;core#1071 -->
<g id="edge18" class="edge"><title>configuration-modules-core#1336-&gt;configuration-modules-core#1071</title>
<path fill="none" stroke="black" stroke-width="2" d="M195.217,-1209.22C232.216,-1211.46 275.848,-1214.1 314.972,-1216.46"/>
<polygon fill="black" stroke="black" points="315.151,-1219.98 325.344,-1217.09 315.574,-1212.99 315.151,-1219.98"/>
<text text-anchor="middle" x="248.527" y="-1205.17" font-family="Sans" font-size="10.00">fixes</text>
</g>
<!-- template&#45;library&#45;core#191 -->
<g id="node28" class="node"><title>template-library-core#191</title>
<polygon fill="lightgrey" stroke="black" points="815.5,-1168.5 656.5,-1168.5 656.5,-1129.5 815.5,-1129.5 815.5,-1168.5"/>
<text text-anchor="middle" x="736" y="-1146.5" font-family="Sans" font-size="10.00">template-library-core#191</text>
</g>
<!-- configuration&#45;modules&#45;core#1335&#45;&gt;template&#45;library&#45;core#191 -->
<g id="edge19" class="edge"><title>configuration-modules-core#1335-&gt;template-library-core#191</title>
<path fill="none" stroke="black" stroke-dasharray="5,2" d="M517.171,-1149C557.975,-1149 605.772,-1149 646.18,-1149"/>
<polygon fill="none" stroke="black" points="646.285,-1152.5 656.285,-1149 646.285,-1145.5 646.285,-1152.5"/>
<text text-anchor="middle" x="566.484" y="-1141" font-family="Sans" font-size="10.00">requires</text>
</g>
<!-- configuration&#45;modules&#45;core#1148 -->
<g id="node29" class="node"><title>configuration-modules-core#1148</title>
<g id="a_node29"><a xlink:href="https://github.com/quattor/configuration-modules-core/pull/1148" xlink:title="configuration-modules-core#1148 (pull-request)" target="_parent">
<polygon fill="#6cc644" stroke="black" points="207.5,-1402 8.5,-1402 8.5,-1352 207.5,-1352 207.5,-1402"/>
<text text-anchor="middle" x="108" y="-1380" font-family="Sans" font-size="10.00">ncm-spma: Remove support from</text>
<text text-anchor="middle" x="108" y="-1369" font-family="Sans" font-size="10.00">groups from spma yumng backend</text>
</a>
</g>
</g>
<!-- configuration&#45;modules&#45;core#952 -->
<g id="node30" class="node"><title>configuration-modules-core#952</title>
<g id="a_node30"><a xlink:href="https://github.com/quattor/configuration-modules-core/issues/952" xlink:title="configuration-modules-core#952 (issue)" target="_parent">
<path fill="#6cc644" stroke="black" d="M517,-1402C517,-1402 331,-1402 331,-1402 325,-1402 319,-1396 319,-1390 319,-1390 319,-1364 319,-1364 319,-1358 325,-1352 331,-1352 331,-1352 517,-1352 517,-1352 523,-1352 529,-1358 529,-1364 529,-1364 529,-1390 529,-1390 529,-1396 523,-1402 517,-1402"/>
<text text-anchor="middle" x="424" y="-1380" font-family="Sans" font-size="10.00">ncm-spma (yumng): Remove support</text>
<text text-anchor="middle" x="424" y="-1369" font-family="Sans" font-size="10.00">for package groups</text>
</a>
</g>
</g>
<!-- configuration&#45;modules&#45;core#1148&#45;&gt;configuration&#45;modules&#45;core#952 -->
<g id="edge20" class="edge"><title>configuration-modules-core#1148-&gt;configuration-modules-core#952</title>
<path fill="none" stroke="black" stroke-width="2" d="M207.921,-1377C239.933,-1377 275.695,-1377 308.726,-1377"/>
<polygon fill="black" stroke="black" points="308.883,-1380.5 318.883,-1377 308.882,-1373.5 308.883,-1380.5"/>
<text text-anchor="middle" x="251.546" y="-1369" font-family="Sans" font-size="10.00">fixes</text>
</g>
<!-- configuration&#45;modules&#45;core#950 -->
<g id="node31" class="node"><title>configuration-modules-core#950</title>
<g id="a_node31"><a xlink:href="https://github.com/quattor/configuration-modules-core/issues/950" xlink:title="configuration-modules-core#950 (issue)" target="_parent">
<path fill="#6cc644" stroke="black" d="M199,-1334C199,-1334 17,-1334 17,-1334 11,-1334 5,-1328 5,-1322 5,-1322 5,-1296 5,-1296 5,-1290 11,-1284 17,-1284 17,-1284 199,-1284 199,-1284 205,-1284 211,-1290 211,-1296 211,-1296 211,-1322 211,-1322 211,-1328 205,-1334 199,-1334"/>
<text text-anchor="middle" x="108" y="-1312" font-family="Sans" font-size="10.00">ncm-spma: Remove support for</text>
<text text-anchor="middle" x="108" y="-1301" font-family="Sans" font-size="10.00">package groups from yum backends</text>
</a>
</g>
</g>
<!-- configuration&#45;modules&#45;core#951 -->
<g id="node32" class="node"><title>configuration-modules-core#951</title>
<g id="a_node32"><a xlink:href="https://github.com/quattor/configuration-modules-core/issues/951" xlink:title="configuration-modules-core#951 (issue)" target="_parent">
<path fill="#6cc644" stroke="black" d="M511,-1334C511,-1334 337,-1334 337,-1334 331,-1334 325,-1328 325,-1322 325,-1322 325,-1296 325,-1296 325,-1290 331,-1284 337,-1284 337,-1284 511,-1284 511,-1284 517,-1284 523,-1290 523,-1296 523,-1296 523,-1322 523,-1322 523,-1328 517,-1334 511,-1334"/>
<text text-anchor="middle" x="424" y="-1312" font-family="Sans" font-size="10.00">ncm-spma (yum): Remove support</text>
<text text-anchor="middle" x="424" y="-1301" font-family="Sans" font-size="10.00">for package groups</text>
</a>
</g>
</g>
<!-- configuration&#45;modules&#45;core#950&#45;&gt;configuration&#45;modules&#45;core#951 -->
<g id="edge21" class="edge"><title>configuration-modules-core#950-&gt;configuration-modules-core#951</title>
<path fill="none" stroke="black" stroke-dasharray="5,2" d="M211.381,-1309C244.386,-1309 281.071,-1309 314.502,-1309"/>
<polygon fill="none" stroke="black" points="314.765,-1312.5 324.765,-1309 314.765,-1305.5 314.765,-1312.5"/>
<text text-anchor="middle" x="248.107" y="-1301" font-family="Sans" font-size="10.00">requires</text>
</g>
<!-- configuration&#45;modules&#45;core#950&#45;&gt;configuration&#45;modules&#45;core#952 -->
<g id="edge22" class="edge"><title>configuration-modules-core#950-&gt;configuration-modules-core#952</title>
<path fill="none" stroke="black" stroke-dasharray="5,2" d="M211.381,-1331.17C242.602,-1337.93 277.116,-1345.41 309.053,-1352.32"/>
<polygon fill="none" stroke="black" points="308.361,-1355.75 318.876,-1354.45 309.843,-1348.91 308.361,-1355.75"/>
<text text-anchor="middle" x="245.372" y="-1334.86" font-family="Sans" font-size="10.00">requires</text>
</g>
<!-- template&#45;library&#45;grid#241 -->
<g id="node33" class="node"><title>template-library-grid#241</title>
<g id="a_node33"><a xlink:href="https://github.com/quattor/template-library-grid/pull/241" xlink:title="template-library-grid#241 (pull-request)" target="_parent">
<polygon fill="#6cc644" stroke="black" points="521,-492 327,-492 327,-442 521,-442 521,-492"/>
<text text-anchor="middle" x="424" y="-470" font-family="Sans" font-size="10.00">machines-types update based on</text>
<text text-anchor="middle" x="424" y="-459" font-family="Sans" font-size="10.00">new standard/machine-types/core</text>
</a>
</g>
</g>
<!-- template&#45;library&#45;standard#140 -->
<g id="node34" class="node"><title>template-library-standard#140</title>
<g id="a_node34"><a xlink:href="https://github.com/quattor/template-library-standard/pull/140" xlink:title="template-library-standard#140 (pull-request)" target="_parent">
<polygon fill="#6e5494" stroke="black" points="827,-481 645,-481 645,-431 827,-431 827,-481"/>
<text text-anchor="middle" x="736" y="-459" font-family="Sans" font-size="10.00">machine-types/core refactoring</text>
<text text-anchor="middle" x="736" y="-448" font-family="Sans" font-size="10.00">to make it more flexible</text>
</a>
</g>
</g>
<!-- template&#45;library&#45;grid#241&#45;&gt;template&#45;library&#45;standard#140 -->
<g id="edge23" class="edge"><title>template-library-grid#241-&gt;template-library-standard#140</title>
<path fill="none" stroke="black" stroke-dasharray="5,2" d="M521.387,-463.58C557.372,-462.303 598.301,-460.851 634.636,-459.561"/>
<polygon fill="none" stroke="black" points="634.885,-463.055 644.754,-459.202 634.636,-456.059 634.885,-463.055"/>
<text text-anchor="middle" x="562.849" y="-453.399" font-family="Sans" font-size="10.00">requires</text>
</g>
<!-- template&#45;library&#45;grid#232 -->
<g id="node35" class="node"><title>template-library-grid#232</title>
<g id="a_node35"><a xlink:href="https://github.com/quattor/template-library-grid/pull/232" xlink:title="template-library-grid#232 (pull-request)" target="_parent">
<polygon fill="#6cc644" stroke="black" points="191.5,-939 24.5,-939 24.5,-889 191.5,-889 191.5,-939"/>
<text text-anchor="middle" x="108" y="-917" font-family="Sans" font-size="10.00">arc-ce: Export arc-ce feature</text>
<text text-anchor="middle" x="108" y="-906" font-family="Sans" font-size="10.00">from aquilon at RAL</text>
</a>
</g>
</g>
<!-- template&#45;library&#45;grid#221 -->
<g id="node36" class="node"><title>template-library-grid#221</title>
<g id="a_node36"><a xlink:href="https://github.com/quattor/template-library-grid/issues/221" xlink:title="template-library-grid#221 (issue)" target="_parent">
<path fill="#6cc644" stroke="black" d="M501,-939C501,-939 347,-939 347,-939 341,-939 335,-933 335,-927 335,-927 335,-901 335,-901 335,-895 341,-889 347,-889 347,-889 501,-889 501,-889 507,-889 513,-895 513,-901 513,-901 513,-927 513,-927 513,-933 507,-939 501,-939"/>
<text text-anchor="middle" x="424" y="-917" font-family="Sans" font-size="10.00">Support for new CE types (ARC</text>
<text text-anchor="middle" x="424" y="-906" font-family="Sans" font-size="10.00">CE, HTCONDOR CE)</text>
</a>
</g>
</g>
<!-- template&#45;library&#45;grid#232&#45;&gt;template&#45;library&#45;grid#221 -->
<g id="edge24" class="edge"><title>template-library-grid#232-&gt;template-library-grid#221</title>
<path fill="none" stroke="black" stroke-width="2" d="M191.911,-914C232.702,-914 282.151,-914 324.823,-914"/>
<polygon fill="black" stroke="black" points="324.947,-917.5 334.947,-914 324.947,-910.5 324.947,-917.5"/>
<text text-anchor="middle" x="251.543" y="-906" font-family="Sans" font-size="10.00">fixes</text>
</g>
<!-- template&#45;library&#45;standard#151 -->
<g id="node37" class="node"><title>template-library-standard#151</title>
<g id="a_node37"><a xlink:href="https://github.com/quattor/template-library-standard/pull/151" xlink:title="template-library-standard#151 (pull-request)" target="_parent">
<polygon fill="#6cc644" stroke="black" points="190,-1470 26,-1470 26,-1420 190,-1420 190,-1470"/>
<text text-anchor="middle" x="108" y="-1448" font-family="Sans" font-size="10.00">support for muti options</text>
<text text-anchor="middle" x="108" y="-1437" font-family="Sans" font-size="10.00">settings for logical volumes</text>
</a>
</g>
</g>
<!-- template&#45;library&#45;standard#150 -->
<g id="node38" class="node"><title>template-library-standard#150</title>
<g id="a_node38"><a xlink:href="https://github.com/quattor/template-library-standard/issues/150" xlink:title="template-library-standard#150 (issue)" target="_parent">
<path fill="#6cc644" stroke="black" d="M500.5,-1470C500.5,-1470 347.5,-1470 347.5,-1470 341.5,-1470 335.5,-1464 335.5,-1458 335.5,-1458 335.5,-1432 335.5,-1432 335.5,-1426 341.5,-1420 347.5,-1420 347.5,-1420 500.5,-1420 500.5,-1420 506.5,-1420 512.5,-1426 512.5,-1432 512.5,-1432 512.5,-1458 512.5,-1458 512.5,-1464 506.5,-1470 500.5,-1470"/>
<text text-anchor="middle" x="424" y="-1448" font-family="Sans" font-size="10.00">way to set lvm raid type when</text>
<text text-anchor="middle" x="424" y="-1437" font-family="Sans" font-size="10.00">vol type = lvm</text>
</a>
</g>
</g>
<!-- template&#45;library&#45;standard#151&#45;&gt;template&#45;library&#45;standard#150 -->
<g id="edge25" class="edge"><title>template-library-standard#151-&gt;template-library-standard#150</title>
<path fill="none" stroke="black" stroke-width="2" d="M190.271,-1445C231.574,-1445 282.071,-1445 325.459,-1445"/>
<polygon fill="black" stroke="black" points="325.461,-1448.5 335.461,-1445 325.461,-1441.5 325.461,-1448.5"/>
<text text-anchor="middle" x="251.071" y="-1437" font-family="Sans" font-size="10.00">fixes</text>
</g>
</g>
</svg>
