<?xml version="1.0" encoding="UTF-8" standalone="no"?>
<?xml-stylesheet href="relationships.css" type="text/css"?>
<!-- Generated by graphviz version 2.26.0 (20091210.2329)
 -->
<!-- Title: Dependencies Pages: 1 -->
<svg xmlns="http://www.w3.org/2000/svg" xmlns:xlink="http://www.w3.org/1999/xlink" width="822pt" height="2102pt" viewBox="0.00 0.00 822.00 2102.00">
<g id="graph1" class="graph" transform="scale(1 1) rotate(0) translate(4 2098)">
<title>Dependencies</title>
<polygon fill="white" stroke="white" points="-4,5 -4,-2098 819,-2098 819,5 -4,5"/>
<g id="graph2" class="cluster"><title>cluster_milestone_20.12</title>
<polygon fill="none" stroke="black" points="42,-858 42,-1068 536,-1068 536,-858 42,-858"/>
<text text-anchor="middle" x="289" y="-1053.2" font-family="Sans" font-size="12.00">20.12</text>
</g>
<g id="graph3" class="cluster"><title>cluster_milestone_20.3</title>
<polygon fill="none" stroke="black" points="24,-1140 24,-1566 806,-1566 806,-1140 24,-1140"/>
<text text-anchor="middle" x="415" y="-1551.2" font-family="Sans" font-size="12.00">20.3</text>
</g>
<g id="graph4" class="cluster"><title>cluster_milestone_20.4</title>
<polygon fill="none" stroke="black" points="24,-396 24,-850 789,-850 789,-396 24,-396"/>
<text text-anchor="middle" x="406.5" y="-835.2" font-family="Sans" font-size="12.00">20.4</text>
</g>
<g id="graph5" class="cluster"><title>cluster_repo_aquilon</title>
<polygon fill="none" stroke="black" points="57,-1754 57,-2086 497,-2086 497,-1754 57,-1754"/>
<text text-anchor="middle" x="277" y="-2071.2" font-family="Sans" font-size="12.00">aquilon</text>
</g>
<!-- aii#316 -->
<g id="node1" class="node"><title>aii#316</title>
<a xlink:href="https://github.com/quattor/aii/pull/316" xlink:title="aii-ks: generate kickstart repo entries based on SPMA configuration" target="_parent">
<polygon fill="#6cc644" stroke="black" points="157,-674 79,-674 79,-620 157,-620 157,-674"/>
<text text-anchor="middle" x="118" y="-651" font-family="Sans" font-size="10.00">pull-request</text>
<text text-anchor="middle" x="118" y="-638" font-family="Sans" font-size="10.00">aii#316</text>
</a>
</g>
<!-- aii#314 -->
<g id="node3" class="node"><title>aii#314</title>
<polygon fill="lightgrey" stroke="black" points="461,-388.5 403,-388.5 403,-347.5 461,-347.5 461,-388.5"/>
<text text-anchor="middle" x="432" y="-365.5" font-family="Sans" font-size="10.00">aii#314</text>
</g>
<!-- aii#316&#45;&gt;aii#314 -->
<g id="edge2" class="edge"><title>aii#316-&gt;aii#314</title>
<path fill="none" stroke="black" stroke-dasharray="5,2" d="M157.64,-644.641C183.349,-641.024 215.717,-632.204 236,-611 258.204,-587.787 244.335,-571.635 254,-541 275.285,-473.533 256.018,-437.725 310,-392 332.584,-372.87 365.973,-367.347 392.114,-366.343"/>
<polygon fill="none" stroke="black" points="392.522,-369.837 402.459,-366.162 392.399,-362.838 392.522,-369.837"/>
<text text-anchor="middle" x="273" y="-545" font-family="Sans" font-size="10.00">requires</text>
</g>
<!-- aii#315 -->
<g id="node5" class="node"><title>aii#315</title>
<polygon fill="lightgrey" stroke="black" points="461,-330.5 403,-330.5 403,-289.5 461,-289.5 461,-330.5"/>
<text text-anchor="middle" x="432" y="-307.5" font-family="Sans" font-size="10.00">aii#315</text>
</g>
<!-- aii#316&#45;&gt;aii#315 -->
<g id="edge4" class="edge"><title>aii#316-&gt;aii#315</title>
<path fill="none" stroke="black" stroke-dasharray="5,2" d="M157.701,-645.836C184.128,-642.795 217.31,-634.173 236,-611 266.378,-573.336 233.452,-437.808 254,-394 268.814,-362.416 279.467,-355.874 310,-339 335.342,-324.994 367.282,-317.714 392.123,-313.951"/>
<polygon fill="none" stroke="black" points="392.869,-317.381 402.295,-312.545 391.91,-310.447 392.869,-317.381"/>
<text text-anchor="middle" x="273" y="-398" font-family="Sans" font-size="10.00">requires</text>
</g>
<!-- aii#299 -->
<g id="node6" class="node"><title>aii#299</title>
<a xlink:href="https://github.com/quattor/aii/pull/299" xlink:title="aii-dhcp: support optional hostname ip verification" target="_parent">
<polygon fill="#6cc644" stroke="black" points="157,-818 79,-818 79,-764 157,-764 157,-818"/>
<text text-anchor="middle" x="118" y="-795" font-family="Sans" font-size="10.00">pull-request</text>
<text text-anchor="middle" x="118" y="-782" font-family="Sans" font-size="10.00">aii#299</text>
</a>
</g>
<!-- aii#296 -->
<g id="node8" class="node"><title>aii#296</title>
<a xlink:href="https://github.com/quattor/aii/pull/296" xlink:title="DHCP plugin updates" target="_parent">
<polygon fill="#6cc644" stroke="black" points="471,-818 393,-818 393,-764 471,-764 471,-818"/>
<text text-anchor="middle" x="432" y="-795" font-family="Sans" font-size="10.00">pull-request</text>
<text text-anchor="middle" x="432" y="-782" font-family="Sans" font-size="10.00">aii#296</text>
</a>
</g>
<!-- aii#299&#45;&gt;aii#296 -->
<g id="edge6" class="edge"><title>aii#299-&gt;aii#296</title>
<path fill="none" stroke="black" stroke-dasharray="5,2" d="M157.768,-791C214.709,-791 319.446,-791 381.7,-791"/>
<polygon fill="none" stroke="black" points="382.06,-794.5 392.06,-791 382.06,-787.5 382.06,-794.5"/>
<text text-anchor="middle" x="273" y="-795" font-family="Sans" font-size="10.00">requires</text>
</g>
<!-- aii#280 -->
<g id="node9" class="node"><title>aii#280</title>
<a xlink:href="https://github.com/quattor/aii/pull/280" xlink:title="Support active configuration attribute for plugins" target="_parent">
<polygon fill="#6cc644" stroke="black" points="157,-602 79,-602 79,-548 157,-548 157,-602"/>
<text text-anchor="middle" x="118" y="-579" font-family="Sans" font-size="10.00">pull-request</text>
<text text-anchor="middle" x="118" y="-566" font-family="Sans" font-size="10.00">aii#280</text>
</a>
</g>
<!-- aii#209 -->
<g id="node11" class="node"><title>aii#209</title>
<a xlink:href="https://github.com/quattor/aii/issues/209" xlink:title="support ACTIVE_CONFIG" target="_parent">
<ellipse fill="#6cc644" stroke="black" cx="432" cy="-542" rx="41.2167" ry="38.1838"/>
<text text-anchor="middle" x="432" y="-546" font-family="Sans" font-size="10.00">issue</text>
<text text-anchor="middle" x="432" y="-533" font-family="Sans" font-size="10.00">aii#209</text>
</a>
</g>
<!-- aii#280&#45;&gt;aii#209 -->
<g id="edge8" class="edge"><title>aii#280-&gt;aii#209</title>
<path fill="none" stroke="black" stroke-width="2" d="M157.768,-570.821C214.357,-564.873 318.155,-553.965 380.542,-547.408"/>
<polygon fill="black" stroke="black" points="380.982,-550.881 390.561,-546.355 380.25,-543.919 380.982,-550.881"/>
<text text-anchor="middle" x="273" y="-565" font-family="Sans" font-size="10.00">fixes</text>
</g>
<!-- ncm&#45;ncd#74 -->
<g id="node13" class="node"><title>ncm-ncd#74</title>
<polygon fill="lightgrey" stroke="black" points="473,-214.5 391,-214.5 391,-173.5 473,-173.5 473,-214.5"/>
<text text-anchor="middle" x="432" y="-191.5" font-family="Sans" font-size="10.00">ncm-ncd#74</text>
</g>
<!-- aii#280&#45;&gt;ncm&#45;ncd#74 -->
<g id="edge10" class="edge"><title>aii#280-&gt;ncm-ncd#74</title>
<path fill="none" stroke="black" stroke-dasharray="5,2" d="M157.588,-574.005C184.14,-571.057 217.518,-562.477 236,-539 277.86,-485.826 210.312,-286.682 254,-235 284.48,-198.943 339.712,-190.958 380.596,-190.589"/>
<polygon fill="none" stroke="black" points="380.638,-194.089 390.658,-190.647 380.678,-187.089 380.638,-194.089"/>
<text text-anchor="middle" x="273" y="-239" font-family="Sans" font-size="10.00">requires</text>
</g>
<!-- aii#203 -->
<g id="node15" class="node"><title>aii#203</title>
<polygon fill="lightgrey" stroke="black" points="461,-156.5 403,-156.5 403,-115.5 461,-115.5 461,-156.5"/>
<text text-anchor="middle" x="432" y="-133.5" font-family="Sans" font-size="10.00">aii#203</text>
</g>
<!-- aii#280&#45;&gt;aii#203 -->
<g id="edge12" class="edge"><title>aii#280-&gt;aii#203</title>
<path fill="none" stroke="black" stroke-dasharray="5,2" d="M157.641,-574.047C184.218,-571.119 217.604,-562.544 236,-539 283.54,-478.155 211.254,-256.303 254,-192 283.74,-147.262 349.639,-136.986 392.374,-135.297"/>
<polygon fill="none" stroke="black" points="392.531,-138.794 402.439,-135.04 392.353,-131.797 392.531,-138.794"/>
<text text-anchor="middle" x="273" y="-196" font-family="Sans" font-size="10.00">requires</text>
</g>
<!-- aii#210 -->
<g id="node17" class="node"><title>aii#210</title>
<polygon fill="lightgrey" stroke="black" points="461,-272.5 403,-272.5 403,-231.5 461,-231.5 461,-272.5"/>
<text text-anchor="middle" x="432" y="-249.5" font-family="Sans" font-size="10.00">aii#210</text>
</g>
<!-- aii#280&#45;&gt;aii#210 -->
<g id="edge14" class="edge"><title>aii#280-&gt;aii#210</title>
<path fill="none" stroke="black" stroke-dasharray="1,5" d="M157.523,-573.954C184.045,-570.982 217.414,-562.394 236,-539 272.579,-492.959 213.695,-317.817 254,-275 288.85,-237.978 351.589,-238.807 392.507,-244.276"/>
<polygon fill="black" stroke="black" points="402.409,-245.746 391.857,-248.729 397.463,-245.012 392.517,-244.277 392.517,-244.277 392.517,-244.277 397.463,-245.012 393.178,-239.826 402.409,-245.746 402.409,-245.746"/>
<text text-anchor="middle" x="273" y="-279" font-family="Sans" font-size="10.00">replaces</text>
</g>
<!-- CAF#257 -->
<g id="node18" class="node"><title>CAF#257</title>
<a xlink:href="https://github.com/quattor/CAF/pull/257" xlink:title="Process: run process as another user" target="_parent">
<polygon fill="#6cc644" stroke="black" points="157,-1025 79,-1025 79,-971 157,-971 157,-1025"/>
<text text-anchor="middle" x="118" y="-1002" font-family="Sans" font-size="10.00">pull-request</text>
<text text-anchor="middle" x="118" y="-989" font-family="Sans" font-size="10.00">CAF#257</text>
</a>
</g>
<!-- CAF#253 -->
<g id="node20" class="node"><title>CAF#253</title>
<a xlink:href="https://github.com/quattor/CAF/issues/253" xlink:title="CAF::Process: Include an option to execute the command as an specific user" target="_parent">
<ellipse fill="#6cc644" stroke="black" cx="432" cy="-998" rx="48.9975" ry="38.1838"/>
<text text-anchor="middle" x="432" y="-1002" font-family="Sans" font-size="10.00">issue</text>
<text text-anchor="middle" x="432" y="-989" font-family="Sans" font-size="10.00">CAF#253</text>
</a>
</g>
<!-- CAF#257&#45;&gt;CAF#253 -->
<g id="edge16" class="edge"><title>CAF#257-&gt;CAF#253</title>
<path fill="none" stroke="black" stroke-width="2" d="M157.571,-996.897C184.705,-996.197 221.529,-995.358 254,-995 293.351,-994.566 337.592,-995.306 372.123,-996.159"/>
<polygon fill="black" stroke="black" points="372.425,-999.668 382.512,-996.427 372.605,-992.67 372.425,-999.668"/>
<text text-anchor="middle" x="273" y="-999" font-family="Sans" font-size="10.00">fixes</text>
</g>
<!-- CAF#110 -->
<g id="node21" class="node"><title>CAF#110</title>
<a xlink:href="https://github.com/quattor/CAF/pull/110" xlink:title="CAF::Download class: API proposal" target="_parent">
<polygon fill="#6cc644" stroke="black" points="157,-1130 79,-1130 79,-1076 157,-1076 157,-1130"/>
<text text-anchor="middle" x="118" y="-1107" font-family="Sans" font-size="10.00">pull-request</text>
<text text-anchor="middle" x="118" y="-1094" font-family="Sans" font-size="10.00">CAF#110</text>
</a>
</g>
<!-- CAF#120 -->
<g id="node23" class="node"><title>CAF#120</title>
<polygon fill="lightgrey" stroke="black" points="467,-1123.5 397,-1123.5 397,-1082.5 467,-1082.5 467,-1123.5"/>
<text text-anchor="middle" x="432" y="-1100.5" font-family="Sans" font-size="10.00">CAF#120</text>
</g>
<!-- CAF#110&#45;&gt;CAF#120 -->
<g id="edge18" class="edge"><title>CAF#110-&gt;CAF#120</title>
<path fill="none" stroke="black" stroke-dasharray="5,2" d="M157.768,-1103C216.269,-1103 325.221,-1103 386.719,-1103"/>
<polygon fill="none" stroke="black" points="386.897,-1106.5 396.897,-1103 386.897,-1099.5 386.897,-1106.5"/>
<text text-anchor="middle" x="273" y="-1107" font-family="Sans" font-size="10.00">requires</text>
</g>
<!-- configuration&#45;modules&#45;core#1431 -->
<g id="node24" class="node"><title>configuration-modules-core#1431</title>
<a xlink:href="https://github.com/quattor/configuration-modules-core/pull/1431" xlink:title="ncm-cron: Provide schema validation to match the component code" target="_parent">
<polygon fill="#6cc644" stroke="black" points="204,-1523 32,-1523 32,-1469 204,-1469 204,-1523"/>
<text text-anchor="middle" x="118" y="-1500" font-family="Sans" font-size="10.00">pull-request</text>
<text text-anchor="middle" x="118" y="-1487" font-family="Sans" font-size="10.00">configuration-modules-core#1431</text>
</a>
</g>
<!-- configuration&#45;modules&#45;core#1429 -->
<g id="node26" class="node"><title>configuration-modules-core#1429</title>
<a xlink:href="https://github.com/quattor/configuration-modules-core/issues/1429" xlink:title="ncm-cron: Minutes field should not be optional if smear is used" target="_parent">
<ellipse fill="#6cc644" stroke="black" cx="432" cy="-1496" rx="121.122" ry="38.1838"/>
<text text-anchor="middle" x="432" y="-1500" font-family="Sans" font-size="10.00">issue</text>
<text text-anchor="middle" x="432" y="-1487" font-family="Sans" font-size="10.00">configuration-modules-core#1429</text>
</a>
</g>
<!-- configuration&#45;modules&#45;core#1431&#45;&gt;configuration&#45;modules&#45;core#1429 -->
<g id="edge20" class="edge"><title>configuration-modules-core#1431-&gt;configuration-modules-core#1429</title>
<path fill="none" stroke="black" stroke-width="2" d="M204.329,-1493.81C220.818,-1493.47 237.942,-1493.18 254,-1493 268.958,-1492.84 284.622,-1492.84 300.191,-1492.96"/>
<polygon fill="black" stroke="black" points="300.368,-1496.46 310.399,-1493.05 300.431,-1489.46 300.368,-1496.46"/>
<text text-anchor="middle" x="273" y="-1497" font-family="Sans" font-size="10.00">fixes</text>
</g>
<!-- configuration&#45;modules&#45;core#1417 -->
<g id="node27" class="node"><title>configuration-modules-core#1417</title>
<a xlink:href="https://github.com/quattor/configuration-modules-core/pull/1417" xlink:title="ncm-puppet: Document string quoting behaviour" target="_parent">
<polygon fill="#6e5494" stroke="black" points="204,-1429 32,-1429 32,-1375 204,-1375 204,-1429"/>
<text text-anchor="middle" x="118" y="-1406" font-family="Sans" font-size="10.00">pull-request</text>
<text text-anchor="middle" x="118" y="-1393" font-family="Sans" font-size="10.00">configuration-modules-core#1417</text>
</a>
</g>
<!-- configuration&#45;modules&#45;core#1416 -->
<g id="node29" class="node"><title>configuration-modules-core#1416</title>
<a xlink:href="https://github.com/quattor/configuration-modules-core/issues/1416" xlink:title="ncm-puppet: document behaviour when quoting strings" target="_parent">
<ellipse fill="#bd2c00" stroke="black" cx="432" cy="-1402" rx="121.122" ry="38.1838"/>
<text text-anchor="middle" x="432" y="-1406" font-family="Sans" font-size="10.00">issue</text>
<text text-anchor="middle" x="432" y="-1393" font-family="Sans" font-size="10.00">configuration-modules-core#1416</text>
</a>
</g>
<!-- configuration&#45;modules&#45;core#1417&#45;&gt;configuration&#45;modules&#45;core#1416 -->
<g id="edge22" class="edge"><title>configuration-modules-core#1417-&gt;configuration-modules-core#1416</title>
<path fill="none" stroke="black" stroke-width="2" d="M204.217,-1402C233.916,-1402 267.888,-1402 300.372,-1402"/>
<polygon fill="black" stroke="black" points="300.399,-1405.5 310.399,-1402 300.399,-1398.5 300.399,-1405.5"/>
<text text-anchor="middle" x="273" y="-1406" font-family="Sans" font-size="10.00">fixes</text>
</g>
<!-- configuration&#45;modules&#45;core#1402 -->
<g id="node30" class="node"><title>configuration-modules-core#1402</title>
<a xlink:href="https://github.com/quattor/configuration-modules-core/pull/1402" xlink:title="ncm-network: always enable the network service" target="_parent">
<polygon fill="#6cc644" stroke="black" points="204,-1346 32,-1346 32,-1292 204,-1292 204,-1346"/>
<text text-anchor="middle" x="118" y="-1323" font-family="Sans" font-size="10.00">pull-request</text>
<text text-anchor="middle" x="118" y="-1310" font-family="Sans" font-size="10.00">configuration-modules-core#1402</text>
</a>
</g>
<!-- configuration&#45;modules&#45;core#1372 -->
<g id="node32" class="node"><title>configuration-modules-core#1372</title>
<a xlink:href="https://github.com/quattor/configuration-modules-core/pull/1372" xlink:title="ncm-network: support ethtool channels" target="_parent">
<polygon fill="#6e5494" stroke="black" points="518,-1346 346,-1346 346,-1292 518,-1292 518,-1346"/>
<text text-anchor="middle" x="432" y="-1323" font-family="Sans" font-size="10.00">pull-request</text>
<text text-anchor="middle" x="432" y="-1310" font-family="Sans" font-size="10.00">configuration-modules-core#1372</text>
</a>
</g>
<!-- configuration&#45;modules&#45;core#1402&#45;&gt;configuration&#45;modules&#45;core#1372 -->
<g id="edge24" class="edge"><title>configuration-modules-core#1402-&gt;configuration-modules-core#1372</title>
<path fill="none" stroke="black" stroke-dasharray="5,2" d="M204.217,-1319C244.975,-1319 293.781,-1319 335.743,-1319"/>
<polygon fill="none" stroke="black" points="335.975,-1322.5 345.975,-1319 335.975,-1315.5 335.975,-1322.5"/>
<text text-anchor="middle" x="273" y="-1323" font-family="Sans" font-size="10.00">requires</text>
</g>
<!-- configuration&#45;modules&#45;core#1322 -->
<g id="node40" class="node"><title>configuration-modules-core#1322</title>
<a xlink:href="https://github.com/quattor/configuration-modules-core/pull/1322" xlink:title="ncm-network: support rules and routes using routing tables" target="_parent">
<polygon fill="#6e5494" stroke="black" points="798,-1346 626,-1346 626,-1292 798,-1292 798,-1346"/>
<text text-anchor="middle" x="712" y="-1323" font-family="Sans" font-size="10.00">pull-request</text>
<text text-anchor="middle" x="712" y="-1310" font-family="Sans" font-size="10.00">configuration-modules-core#1322</text>
</a>
</g>
<!-- configuration&#45;modules&#45;core#1372&#45;&gt;configuration&#45;modules&#45;core#1322 -->
<g id="edge30" class="edge"><title>configuration-modules-core#1372-&gt;configuration-modules-core#1322</title>
<path fill="none" stroke="black" stroke-dasharray="5,2" d="M518.294,-1319C549.177,-1319 584.171,-1319 615.836,-1319"/>
<polygon fill="none" stroke="black" points="615.991,-1322.5 625.991,-1319 615.991,-1315.5 615.991,-1322.5"/>
<text text-anchor="middle" x="590" y="-1323" font-family="Sans" font-size="10.00">requires</text>
</g>
<!-- configuration&#45;modules&#45;core#1401 -->
<g id="node33" class="node"><title>configuration-modules-core#1401</title>
<a xlink:href="https://github.com/quattor/configuration-modules-core/pull/1401" xlink:title="ncm-spma: yumdnf: initial dnf/yum4 based on yum" target="_parent">
<polygon fill="#6cc644" stroke="black" points="204,-530 32,-530 32,-476 204,-476 204,-530"/>
<text text-anchor="middle" x="118" y="-507" font-family="Sans" font-size="10.00">pull-request</text>
<text text-anchor="middle" x="118" y="-494" font-family="Sans" font-size="10.00">configuration-modules-core#1401</text>
</a>
</g>
<!-- configuration&#45;modules&#45;core#1405 -->
<g id="node35" class="node"><title>configuration-modules-core#1405</title>
<polygon fill="lightgrey" stroke="black" points="518,-98.5 346,-98.5 346,-57.5 518,-57.5 518,-98.5"/>
<text text-anchor="middle" x="432" y="-75.5" font-family="Sans" font-size="10.00">configuration-modules-core#1405</text>
</g>
<!-- configuration&#45;modules&#45;core#1401&#45;&gt;configuration&#45;modules&#45;core#1405 -->
<g id="edge26" class="edge"><title>configuration-modules-core#1401-&gt;configuration-modules-core#1405</title>
<path fill="none" stroke="black" stroke-dasharray="5,2" d="M204.232,-490.488C216.529,-485.109 227.772,-477.559 236,-467 261.025,-434.883 226.374,-130.91 254,-101 274.609,-78.6868 305.332,-70.0316 335.479,-67.8684"/>
<polygon fill="none" stroke="black" points="335.847,-71.3547 345.665,-67.3733 335.507,-64.363 335.847,-71.3547"/>
<text text-anchor="middle" x="273" y="-105" font-family="Sans" font-size="10.00">requires</text>
</g>
<!-- configuration&#45;modules&#45;core#1394 -->
<g id="node36" class="node"><title>configuration-modules-core#1394</title>
<a xlink:href="https://github.com/quattor/configuration-modules-core/pull/1394" xlink:title="ncm-metaconfig generic templates" target="_parent">
<polygon fill="#6e5494" stroke="black" points="204,-1274 32,-1274 32,-1220 204,-1220 204,-1274"/>
<text text-anchor="middle" x="118" y="-1251" font-family="Sans" font-size="10.00">pull-request</text>
<text text-anchor="middle" x="118" y="-1238" font-family="Sans" font-size="10.00">configuration-modules-core#1394</text>
</a>
</g>
<!-- configuration&#45;modules&#45;core#1387 -->
<g id="node38" class="node"><title>configuration-modules-core#1387</title>
<a xlink:href="https://github.com/quattor/configuration-modules-core/pull/1387" xlink:title="ncm-metaconfig: the content should not only be a dict" target="_parent">
<polygon fill="#6e5494" stroke="black" points="518,-1274 346,-1274 346,-1220 518,-1220 518,-1274"/>
<text text-anchor="middle" x="432" y="-1251" font-family="Sans" font-size="10.00">pull-request</text>
<text text-anchor="middle" x="432" y="-1238" font-family="Sans" font-size="10.00">configuration-modules-core#1387</text>
</a>
</g>
<!-- configuration&#45;modules&#45;core#1394&#45;&gt;configuration&#45;modules&#45;core#1387 -->
<g id="edge28" class="edge"><title>configuration-modules-core#1394-&gt;configuration-modules-core#1387</title>
<path fill="none" stroke="black" stroke-dasharray="5,2" d="M204.217,-1247C244.975,-1247 293.781,-1247 335.743,-1247"/>
<polygon fill="none" stroke="black" points="335.975,-1250.5 345.975,-1247 335.975,-1243.5 335.975,-1250.5"/>
<text text-anchor="middle" x="273" y="-1251" font-family="Sans" font-size="10.00">requires</text>
</g>
<!-- configuration&#45;modules&#45;core#1341 -->
<g id="node41" class="node"><title>configuration-modules-core#1341</title>
<a xlink:href="https://github.com/quattor/configuration-modules-core/pull/1341" xlink:title="ncm-metaconfig: switch to CAF::ServiceActions" target="_parent">
<polygon fill="#6cc644" stroke="black" points="204,-458 32,-458 32,-404 204,-404 204,-458"/>
<text text-anchor="middle" x="118" y="-435" font-family="Sans" font-size="10.00">pull-request</text>
<text text-anchor="middle" x="118" y="-422" font-family="Sans" font-size="10.00">configuration-modules-core#1341</text>
</a>
</g>
<!-- CAF#267 -->
<g id="node43" class="node"><title>CAF#267</title>
<polygon fill="lightgrey" stroke="black" points="467,-40.5 397,-40.5 397,0.5 467,0.5 467,-40.5"/>
<text text-anchor="middle" x="432" y="-17.5" font-family="Sans" font-size="10.00">CAF#267</text>
</g>
<!-- configuration&#45;modules&#45;core#1341&#45;&gt;CAF#267 -->
<g id="edge32" class="edge"><title>configuration-modules-core#1341-&gt;CAF#267</title>
<path fill="none" stroke="black" stroke-dasharray="5,2" d="M123.645,-403.929C140.913,-323.804 195.427,-90.4709 254,-43 291,-13.0137 347.268,-10.6349 386.608,-13.5868"/>
<polygon fill="none" stroke="black" points="386.451,-17.0867 396.723,-14.49 387.074,-10.1144 386.451,-17.0867"/>
<text text-anchor="middle" x="273" y="-47" font-family="Sans" font-size="10.00">requires</text>
</g>
<!-- configuration&#45;modules&#45;core#1336 -->
<g id="node44" class="node"><title>configuration-modules-core#1336</title>
<a xlink:href="https://github.com/quattor/configuration-modules-core/pull/1336" xlink:title="ncm-network: Add support for CAF::Service actions after changes" target="_parent">
<polygon fill="#6cc644" stroke="black" points="204,-746 32,-746 32,-692 204,-692 204,-746"/>
<text text-anchor="middle" x="118" y="-723" font-family="Sans" font-size="10.00">pull-request</text>
<text text-anchor="middle" x="118" y="-710" font-family="Sans" font-size="10.00">configuration-modules-core#1336</text>
</a>
</g>
<!-- configuration&#45;modules&#45;core#1335 -->
<g id="node46" class="node"><title>configuration-modules-core#1335</title>
<a xlink:href="https://github.com/quattor/configuration-modules-core/pull/1335" xlink:title="ncm-metaconfig: Remove caf_service_action type to allow reuse" target="_parent">
<polygon fill="#6cc644" stroke="black" points="518,-652 346,-652 346,-598 518,-598 518,-652"/>
<text text-anchor="middle" x="432" y="-629" font-family="Sans" font-size="10.00">pull-request</text>
<text text-anchor="middle" x="432" y="-616" font-family="Sans" font-size="10.00">configuration-modules-core#1335</text>
</a>
</g>
<!-- configuration&#45;modules&#45;core#1336&#45;&gt;configuration&#45;modules&#45;core#1335 -->
<g id="edge34" class="edge"><title>configuration-modules-core#1336-&gt;configuration-modules-core#1335</title>
<path fill="none" stroke="black" stroke-dasharray="5,2" d="M204.462,-692.752C237.473,-682.765 275.467,-671.311 310,-661 318.547,-658.448 327.434,-655.805 336.34,-653.164"/>
<polygon fill="none" stroke="black" points="337.404,-656.499 345.998,-650.302 335.416,-649.787 337.404,-656.499"/>
<text text-anchor="middle" x="273" y="-681" font-family="Sans" font-size="10.00">requires</text>
</g>
<!-- configuration&#45;modules&#45;core#1071 -->
<g id="node48" class="node"><title>configuration-modules-core#1071</title>
<a xlink:href="https://github.com/quattor/configuration-modules-core/issues/1071" xlink:title="ncm-network: support daemons to restart after network changes" target="_parent">
<ellipse fill="#6cc644" stroke="black" cx="432" cy="-708" rx="121.122" ry="38.1838"/>
<text text-anchor="middle" x="432" y="-712" font-family="Sans" font-size="10.00">issue</text>
<text text-anchor="middle" x="432" y="-699" font-family="Sans" font-size="10.00">configuration-modules-core#1071</text>
</a>
</g>
<!-- configuration&#45;modules&#45;core#1336&#45;&gt;configuration&#45;modules&#45;core#1071 -->
<g id="edge36" class="edge"><title>configuration-modules-core#1336-&gt;configuration-modules-core#1071</title>
<path fill="none" stroke="black" stroke-width="2" d="M204.217,-715.98C234.08,-714.933 268.265,-713.736 300.912,-712.592"/>
<polygon fill="black" stroke="black" points="301.116,-716.087 310.988,-712.239 300.871,-709.092 301.116,-716.087"/>
<text text-anchor="middle" x="273" y="-719" font-family="Sans" font-size="10.00">fixes</text>
</g>
<!-- template&#45;library&#45;core#191 -->
<g id="node50" class="node"><title>template-library-core#191</title>
<a xlink:href="https://github.com/quattor/template-library-core/pull/191" xlink:title="Allow the caf_service_action to be used by multiple components" target="_parent">
<polygon fill="#6cc644" stroke="black" points="781,-652 643,-652 643,-598 781,-598 781,-652"/>
<text text-anchor="middle" x="712" y="-629" font-family="Sans" font-size="10.00">pull-request</text>
<text text-anchor="middle" x="712" y="-616" font-family="Sans" font-size="10.00">template-library-core#191</text>
</a>
</g>
<!-- configuration&#45;modules&#45;core#1335&#45;&gt;template&#45;library&#45;core#191 -->
<g id="edge38" class="edge"><title>configuration-modules-core#1335-&gt;template-library-core#191</title>
<path fill="none" stroke="black" stroke-dasharray="5,2" d="M518.294,-625C554.71,-625 596.84,-625 632.49,-625"/>
<polygon fill="none" stroke="black" points="632.847,-628.5 642.847,-625 632.847,-621.5 632.847,-628.5"/>
<text text-anchor="middle" x="590" y="-629" font-family="Sans" font-size="10.00">requires</text>
</g>
<!-- configuration&#45;modules&#45;core#1148 -->
<g id="node51" class="node"><title>configuration-modules-core#1148</title>
<a xlink:href="https://github.com/quattor/configuration-modules-core/pull/1148" xlink:title="ncm-spma: Remove support from groups from spma yumng backend" target="_parent">
<polygon fill="#6cc644" stroke="black" points="204,-1733 32,-1733 32,-1679 204,-1679 204,-1733"/>
<text text-anchor="middle" x="118" y="-1710" font-family="Sans" font-size="10.00">pull-request</text>
<text text-anchor="middle" x="118" y="-1697" font-family="Sans" font-size="10.00">configuration-modules-core#1148</text>
</a>
</g>
<!-- configuration&#45;modules&#45;core#952 -->
<g id="node53" class="node"><title>configuration-modules-core#952</title>
<a xlink:href="https://github.com/quattor/configuration-modules-core/issues/952" xlink:title="ncm-spma (yumng): Remove support for package groups" target="_parent">
<ellipse fill="#6cc644" stroke="black" cx="432" cy="-1706" rx="118.087" ry="38.1838"/>
<text text-anchor="middle" x="432" y="-1710" font-family="Sans" font-size="10.00">issue</text>
<text text-anchor="middle" x="432" y="-1697" font-family="Sans" font-size="10.00">configuration-modules-core#952</text>
</a>
</g>
<!-- configuration&#45;modules&#45;core#1148&#45;&gt;configuration&#45;modules&#45;core#952 -->
<g id="edge40" class="edge"><title>configuration-modules-core#1148-&gt;configuration-modules-core#952</title>
<path fill="none" stroke="black" stroke-width="2" d="M204.217,-1706C234.903,-1706 270.151,-1706 303.606,-1706"/>
<polygon fill="black" stroke="black" points="303.924,-1709.5 313.924,-1706 303.924,-1702.5 303.924,-1709.5"/>
<text text-anchor="middle" x="273" y="-1710" font-family="Sans" font-size="10.00">fixes</text>
</g>
<!-- configuration&#45;modules&#45;core#950 -->
<g id="node54" class="node"><title>configuration-modules-core#950</title>
<a xlink:href="https://github.com/quattor/configuration-modules-core/issues/950" xlink:title="ncm-spma: Remove support for package groups from yum backends" target="_parent">
<ellipse fill="#6cc644" stroke="black" cx="118" cy="-1617" rx="118.087" ry="38.1838"/>
<text text-anchor="middle" x="118" y="-1621" font-family="Sans" font-size="10.00">issue</text>
<text text-anchor="middle" x="118" y="-1608" font-family="Sans" font-size="10.00">configuration-modules-core#950</text>
</a>
</g>
<!-- configuration&#45;modules&#45;core#950&#45;&gt;configuration&#45;modules&#45;core#952 -->
<g id="edge44" class="edge"><title>configuration-modules-core#950-&gt;configuration-modules-core#952</title>
<path fill="none" stroke="black" stroke-dasharray="5,2" d="M206.721,-1642.15C246.26,-1653.35 292.974,-1666.59 333.584,-1678.11"/>
<polygon fill="none" stroke="black" points="332.651,-1681.48 343.226,-1680.84 334.56,-1674.74 332.651,-1681.48"/>
<text text-anchor="middle" x="273" y="-1669" font-family="Sans" font-size="10.00">requires</text>
</g>
<!-- configuration&#45;modules&#45;core#951 -->
<g id="node56" class="node"><title>configuration-modules-core#951</title>
<a xlink:href="https://github.com/quattor/configuration-modules-core/issues/951" xlink:title="ncm-spma (yum): Remove support for package groups" target="_parent">
<ellipse fill="#6cc644" stroke="black" cx="432" cy="-1612" rx="118.087" ry="38.1838"/>
<text text-anchor="middle" x="432" y="-1616" font-family="Sans" font-size="10.00">issue</text>
<text text-anchor="middle" x="432" y="-1603" font-family="Sans" font-size="10.00">configuration-modules-core#951</text>
</a>
</g>
<!-- configuration&#45;modules&#45;core#950&#45;&gt;configuration&#45;modules&#45;core#951 -->
<g id="edge42" class="edge"><title>configuration-modules-core#950-&gt;configuration-modules-core#951</title>
<path fill="none" stroke="black" stroke-dasharray="5,2" d="M236.263,-1615.12C258.348,-1614.77 281.525,-1614.4 303.892,-1614.04"/>
<polygon fill="none" stroke="black" points="304.162,-1617.54 314.105,-1613.88 304.05,-1610.54 304.162,-1617.54"/>
<text text-anchor="middle" x="273" y="-1619" font-family="Sans" font-size="10.00">requires</text>
</g>
<!-- template&#45;library&#45;core#196 -->
<g id="node58" class="node"><title>template-library-core#196</title>
<a xlink:href="https://github.com/quattor/template-library-core/pull/196" xlink:title="pan/types: Add string type for search paths" target="_parent">
<polygon fill="#6e5494" stroke="black" points="187,-1202 49,-1202 49,-1148 187,-1148 187,-1202"/>
<text text-anchor="middle" x="118" y="-1179" font-family="Sans" font-size="10.00">pull-request</text>
<text text-anchor="middle" x="118" y="-1166" font-family="Sans" font-size="10.00">template-library-core#196</text>
</a>
</g>
<!-- template&#45;library&#45;core#197 -->
<g id="node60" class="node"><title>template-library-core#197</title>
<a xlink:href="https://github.com/quattor/template-library-core/pull/197" xlink:title="pan/types: Cleanup style - lint, indentation, wrapping" target="_parent">
<polygon fill="#6e5494" stroke="black" points="501,-1202 363,-1202 363,-1148 501,-1148 501,-1202"/>
<text text-anchor="middle" x="432" y="-1179" font-family="Sans" font-size="10.00">pull-request</text>
<text text-anchor="middle" x="432" y="-1166" font-family="Sans" font-size="10.00">template-library-core#197</text>
</a>
</g>
<!-- template&#45;library&#45;core#196&#45;&gt;template&#45;library&#45;core#197 -->
<g id="edge46" class="edge"><title>template-library-core#196-&gt;template-library-core#197</title>
<path fill="none" stroke="black" stroke-dasharray="5,2" d="M187.297,-1175C236.128,-1175 301.624,-1175 352.568,-1175"/>
<polygon fill="none" stroke="black" points="352.88,-1178.5 362.88,-1175 352.88,-1171.5 352.88,-1178.5"/>
<text text-anchor="middle" x="273" y="-1179" font-family="Sans" font-size="10.00">requires</text>
</g>
<!-- template&#45;library&#45;grid#232 -->
<g id="node61" class="node"><title>template-library-grid#232</title>
<a xlink:href="https://github.com/quattor/template-library-grid/pull/232" xlink:title="arc-ce: Export arc-ce feature from aquilon at RAL" target="_parent">
<polygon fill="#6cc644" stroke="black" points="185,-931 51,-931 51,-877 185,-877 185,-931"/>
<text text-anchor="middle" x="118" y="-908" font-family="Sans" font-size="10.00">pull-request</text>
<text text-anchor="middle" x="118" y="-895" font-family="Sans" font-size="10.00">template-library-grid#232</text>
</a>
</g>
<!-- template&#45;library&#45;grid#221 -->
<g id="node63" class="node"><title>template-library-grid#221</title>
<a xlink:href="https://github.com/quattor/template-library-grid/issues/221" xlink:title="Support for new CE types (ARC CE, HTCONDOR CE)" target="_parent">
<ellipse fill="#6cc644" stroke="black" cx="432" cy="-904" rx="94.9596" ry="38.1838"/>
<text text-anchor="middle" x="432" y="-908" font-family="Sans" font-size="10.00">issue</text>
<text text-anchor="middle" x="432" y="-895" font-family="Sans" font-size="10.00">template-library-grid#221</text>
</a>
</g>
<!-- template&#45;library&#45;grid#232&#45;&gt;template&#45;library&#45;grid#221 -->
<g id="edge48" class="edge"><title>template-library-grid#232-&gt;template-library-grid#221</title>
<path fill="none" stroke="black" stroke-width="2" d="M185.747,-904C226.73,-904 279.863,-904 326.279,-904"/>
<polygon fill="black" stroke="black" points="326.381,-907.5 336.381,-904 326.381,-900.5 326.381,-907.5"/>
<text text-anchor="middle" x="273" y="-908" font-family="Sans" font-size="10.00">fixes</text>
</g>
<!-- aquilon#115 -->
<g id="node64" class="node"><title>aquilon#115</title>
<a xlink:href="https://github.com/quattor/aquilon/pull/115" xlink:title="services: insert service data early in the object template" target="_parent">
<polygon fill="#6cc644" stroke="black" points="158,-2054 78,-2054 78,-2000 158,-2000 158,-2054"/>
<text text-anchor="middle" x="118" y="-2031" font-family="Sans" font-size="10.00">pull-request</text>
<text text-anchor="middle" x="118" y="-2018" font-family="Sans" font-size="10.00">aquilon#115</text>
</a>
</g>
<!-- aquilon#109 -->
<g id="node66" class="node"><title>aquilon#109</title>
<a xlink:href="https://github.com/quattor/aquilon/issues/109" xlink:title="Why service configuration is included so late in the plenary object?" target="_parent">
<ellipse fill="#6cc644" stroke="black" cx="432" cy="-2016" rx="56.0679" ry="38.1838"/>
<text text-anchor="middle" x="432" y="-2020" font-family="Sans" font-size="10.00">issue</text>
<text text-anchor="middle" x="432" y="-2007" font-family="Sans" font-size="10.00">aquilon#109</text>
</a>
</g>
<!-- aquilon#115&#45;&gt;aquilon#109 -->
<g id="edge50" class="edge"><title>aquilon#115-&gt;aquilon#109</title>
<path fill="none" stroke="black" stroke-width="2" d="M158.087,-2025.6C210.318,-2023.77 302.376,-2020.54 365.228,-2018.34"/>
<polygon fill="black" stroke="black" points="365.57,-2021.83 375.441,-2017.98 365.325,-2014.83 365.57,-2021.83"/>
<text text-anchor="middle" x="273" y="-2026" font-family="Sans" font-size="10.00">fixes</text>
</g>
<!-- aquilon#110 -->
<g id="node67" class="node"><title>aquilon#110</title>
<a xlink:href="https://github.com/quattor/aquilon/pull/110" xlink:title="Change site and machine namespace to use continent name" target="_parent">
<polygon fill="#6cc644" stroke="black" points="158,-1982 78,-1982 78,-1928 158,-1928 158,-1982"/>
<text text-anchor="middle" x="118" y="-1959" font-family="Sans" font-size="10.00">pull-request</text>
<text text-anchor="middle" x="118" y="-1946" font-family="Sans" font-size="10.00">aquilon#110</text>
</a>
</g>
<!-- aquilon#104 -->
<g id="node69" class="node"><title>aquilon#104</title>
<a xlink:href="https://github.com/quattor/aquilon/issues/104" xlink:title="1.12.62: location related templates cannot be used" target="_parent">
<ellipse fill="#6cc644" stroke="black" cx="432" cy="-1909" rx="56.0679" ry="38.1838"/>
<text text-anchor="middle" x="432" y="-1913" font-family="Sans" font-size="10.00">issue</text>
<text text-anchor="middle" x="432" y="-1900" font-family="Sans" font-size="10.00">aquilon#104</text>
</a>
</g>
<!-- aquilon#110&#45;&gt;aquilon#104 -->
<g id="edge52" class="edge"><title>aquilon#110-&gt;aquilon#104</title>
<path fill="none" stroke="black" stroke-width="2" d="M158.087,-1949.13C210.631,-1941.43 303.481,-1927.83 366.355,-1918.62"/>
<polygon fill="black" stroke="black" points="367.178,-1922.03 376.565,-1917.12 366.163,-1915.11 367.178,-1922.03"/>
<text text-anchor="middle" x="273" y="-1938" font-family="Sans" font-size="10.00">fixes</text>
</g>
<!-- aquilon#91 -->
<g id="node70" class="node"><title>aquilon#91</title>
<a xlink:href="https://github.com/quattor/aquilon/issues/91" xlink:title="1.12.58: city timezone is not passed to the object template" target="_parent">
<ellipse fill="#6cc644" stroke="black" cx="118" cy="-1872" rx="53.033" ry="38.1838"/>
<text text-anchor="middle" x="118" y="-1876" font-family="Sans" font-size="10.00">issue</text>
<text text-anchor="middle" x="118" y="-1863" font-family="Sans" font-size="10.00">aquilon#91</text>
</a>
</g>
<!-- aquilon#91&#45;&gt;aquilon#104 -->
<g id="edge54" class="edge"><title>aquilon#91-&gt;aquilon#104</title>
<path fill="none" stroke="black" stroke-dasharray="5,2" d="M170.557,-1878.19C224.248,-1884.52 307.764,-1894.36 365.906,-1901.21"/>
<polygon fill="none" stroke="black" points="365.751,-1904.72 376.092,-1902.41 366.57,-1897.77 365.751,-1904.72"/>
<text text-anchor="middle" x="273" y="-1895" font-family="Sans" font-size="10.00">requires</text>
</g>
<!-- aquilon#89 -->
<g id="node72" class="node"><title>aquilon#89</title>
<a xlink:href="https://github.com/quattor/aquilon/pull/89" xlink:title="Broker: pass archetype to the object profile" target="_parent">
<polygon fill="#6cc644" stroke="black" points="157,-1816 79,-1816 79,-1762 157,-1762 157,-1816"/>
<text text-anchor="middle" x="118" y="-1793" font-family="Sans" font-size="10.00">pull-request</text>
<text text-anchor="middle" x="118" y="-1780" font-family="Sans" font-size="10.00">aquilon#89</text>
</a>
</g>
<!-- aquilon#88 -->
<g id="node74" class="node"><title>aquilon#88</title>
<a xlink:href="https://github.com/quattor/aquilon/issues/88" xlink:title="1.12.58: the broker should pass the archetype to the object template" target="_parent">
<ellipse fill="#6cc644" stroke="black" cx="432" cy="-1800" rx="53.033" ry="38.1838"/>
<text text-anchor="middle" x="432" y="-1804" font-family="Sans" font-size="10.00">issue</text>
<text text-anchor="middle" x="432" y="-1791" font-family="Sans" font-size="10.00">aquilon#88</text>
</a>
</g>
<!-- aquilon#89&#45;&gt;aquilon#88 -->
<g id="edge56" class="edge"><title>aquilon#89-&gt;aquilon#88</title>
<path fill="none" stroke="black" stroke-width="2" d="M157.768,-1790.39C210.918,-1792.26 305.713,-1795.58 368.729,-1797.78"/>
<polygon fill="black" stroke="black" points="368.829,-1801.29 378.945,-1798.14 369.074,-1794.29 368.829,-1801.29"/>
<text text-anchor="middle" x="273" y="-1799" font-family="Sans" font-size="10.00">fixes</text>
</g>
</g>
</svg>
