<?xml version="1.0" encoding="UTF-8" standalone="no"?>
<?xml-stylesheet href="relationships.css" type="text/css"?>
<!-- Generated by graphviz version 2.26.0 (20091210.2329)
 -->
<!-- Title: Dependencies Pages: 1 -->
<svg xmlns="http://www.w3.org/2000/svg" xmlns:xlink="http://www.w3.org/1999/xlink" width="1012pt" height="2014pt" viewBox="0.00 0.00 1012.00 2014.00">
<g id="graph1" class="graph" transform="scale(1 1) rotate(0) translate(4 2010)">
<title>Dependencies</title>
<polygon fill="white" stroke="white" points="-4,5 -4,-2010 1009,-2010 1009,5 -4,5"/>
<g id="graph2" class="cluster"><title>cluster_milestone_18.9</title>
<polygon fill="none" stroke="black" points="332,-251 332,-1169 870,-1169 870,-251 332,-251"/>
<text text-anchor="middle" x="601" y="-1154.2" font-family="Sans" font-size="12.00">18.9</text>
</g>
<g id="graph4" class="cluster"><title>cluster_repo_aquilon</title>
<polygon fill="none" stroke="black" points="57,-1177 57,-1763 491,-1763 491,-1177 57,-1177"/>
<text text-anchor="middle" x="274" y="-1748.2" font-family="Sans" font-size="12.00">aquilon</text>
</g>
<!-- aii#291 -->
<g id="node1" class="node"><title>aii#291</title>
<a xlink:href="https://github.com/quattor/aii/pull/291" xlink:title="aii-installfe: add support for --cdburl" target="_parent">
<polygon fill="#6e5494" stroke="black" points="465,-1134 387,-1134 387,-1080 465,-1080 465,-1134"/>
<text text-anchor="middle" x="426" y="-1111" font-family="Sans" font-size="10.00">pull-request</text>
<text text-anchor="middle" x="426" y="-1098" font-family="Sans" font-size="10.00">aii#291</text>
</a>
</g>
<!-- aii#290 -->
<g id="node3" class="node"><title>aii#290</title>
<a xlink:href="https://github.com/quattor/aii/issues/290" xlink:title="18.6.0: aii-installfe should allow to define cdburl" target="_parent">
<ellipse fill="#bd2c00" stroke="black" cx="740" cy="-1099" rx="41.2167" ry="38.1838"/>
<text text-anchor="middle" x="740" y="-1103" font-family="Sans" font-size="10.00">issue</text>
<text text-anchor="middle" x="740" y="-1090" font-family="Sans" font-size="10.00">aii#290</text>
</a>
</g>
<!-- aii#291&#45;&gt;aii#290 -->
<g id="edge2" class="edge"><title>aii#291-&gt;aii#290</title>
<path fill="none" stroke="black" stroke-width="2" d="M465.768,-1105.99C522.279,-1104.55 625.868,-1101.91 688.284,-1100.32"/>
<polygon fill="black" stroke="black" points="688.402,-1103.82 698.31,-1100.06 688.224,-1096.82 688.402,-1103.82"/>
<text text-anchor="middle" x="581" y="-1108" font-family="Sans" font-size="10.00">fixes</text>
</g>
<!-- aii#280 -->
<g id="node4" class="node"><title>aii#280</title>
<a xlink:href="https://github.com/quattor/aii/pull/280" xlink:title="Support active configuration attribute for plugins" target="_parent">
<polygon fill="#6cc644" stroke="black" points="465,-457 387,-457 387,-403 465,-403 465,-457"/>
<text text-anchor="middle" x="426" y="-434" font-family="Sans" font-size="10.00">pull-request</text>
<text text-anchor="middle" x="426" y="-421" font-family="Sans" font-size="10.00">aii#280</text>
</a>
</g>
<!-- aii#209 -->
<g id="node6" class="node"><title>aii#209</title>
<a xlink:href="https://github.com/quattor/aii/issues/209" xlink:title="support ACTIVE_CONFIG" target="_parent">
<ellipse fill="#6cc644" stroke="black" cx="740" cy="-369" rx="41.2167" ry="38.1838"/>
<text text-anchor="middle" x="740" y="-373" font-family="Sans" font-size="10.00">issue</text>
<text text-anchor="middle" x="740" y="-360" font-family="Sans" font-size="10.00">aii#209</text>
</a>
</g>
<!-- aii#280&#45;&gt;aii#209 -->
<g id="edge4" class="edge"><title>aii#280-&gt;aii#209</title>
<path fill="none" stroke="black" stroke-width="2" d="M465.768,-422.274C522.592,-411.235 627.016,-390.949 689.316,-378.846"/>
<polygon fill="black" stroke="black" points="690.164,-382.247 699.313,-376.904 688.829,-375.375 690.164,-382.247"/>
<text text-anchor="middle" x="581" y="-408" font-family="Sans" font-size="10.00">fixes</text>
</g>
<!-- ncm&#45;ncd#74 -->
<g id="node8" class="node"><title>ncm-ncd#74</title>
<a xlink:href="https://github.com/quattor/ncm-ncd/pull/74" xlink:title="Set the current active config as an attribute to the component" target="_parent">
<polygon fill="#6cc644" stroke="black" points="781,-479 699,-479 699,-425 781,-425 781,-479"/>
<text text-anchor="middle" x="740" y="-456" font-family="Sans" font-size="10.00">pull-request</text>
<text text-anchor="middle" x="740" y="-443" font-family="Sans" font-size="10.00">ncm-ncd#74</text>
</a>
</g>
<!-- aii#280&#45;&gt;ncm&#45;ncd#74 -->
<g id="edge6" class="edge"><title>aii#280-&gt;ncm-ncd#74</title>
<path fill="none" stroke="black" stroke-dasharray="5,2" d="M465.768,-432.786C522.435,-436.757 626.442,-444.044 688.801,-448.413"/>
<polygon fill="none" stroke="black" points="688.592,-451.907 698.813,-449.114 689.082,-444.924 688.592,-451.907"/>
<text text-anchor="middle" x="581" y="-446" font-family="Sans" font-size="10.00">requires</text>
</g>
<!-- aii#203 -->
<g id="node10" class="node"><title>aii#203</title>
<polygon fill="lightgrey" stroke="black" points="769,-241.5 711,-241.5 711,-200.5 769,-200.5 769,-241.5"/>
<text text-anchor="middle" x="740" y="-218.5" font-family="Sans" font-size="10.00">aii#203</text>
</g>
<!-- aii#280&#45;&gt;aii#203 -->
<g id="edge8" class="edge"><title>aii#280-&gt;aii#203</title>
<path fill="none" stroke="black" stroke-dasharray="5,2" d="M465.749,-428.044C491.676,-424.611 524.252,-415.847 544,-394 571.646,-363.415 542.585,-339.37 562,-303 578.576,-271.949 587.072,-263.803 618,-247 643.309,-233.25 675.249,-226.769 700.1,-223.716"/>
<polygon fill="none" stroke="black" points="700.715,-227.17 710.276,-222.606 699.956,-220.211 700.715,-227.17"/>
<text text-anchor="middle" x="581" y="-307" font-family="Sans" font-size="10.00">requires</text>
</g>
<!-- aii#210 -->
<g id="node12" class="node"><title>aii#210</title>
<polygon fill="lightgrey" stroke="black" points="769,-183.5 711,-183.5 711,-142.5 769,-142.5 769,-183.5"/>
<text text-anchor="middle" x="740" y="-160.5" font-family="Sans" font-size="10.00">aii#210</text>
</g>
<!-- aii#280&#45;&gt;aii#210 -->
<g id="edge10" class="edge"><title>aii#280-&gt;aii#210</title>
<path fill="none" stroke="black" stroke-dasharray="1,5" d="M465.732,-428.594C491.997,-425.43 524.974,-416.76 544,-394 587.631,-341.807 530.592,-302.343 562,-242 577.405,-212.403 588.422,-207.441 618,-192 643.668,-178.601 675.595,-171.296 700.349,-167.371"/>
<polygon fill="black" stroke="black" points="710.479,-165.888 701.237,-171.789 705.532,-166.612 700.585,-167.337 700.585,-167.337 700.585,-167.337 705.532,-166.612 699.933,-162.884 710.479,-165.888 710.479,-165.888"/>
<text text-anchor="middle" x="581" y="-246" font-family="Sans" font-size="10.00">replaces</text>
</g>
<!-- CAF#257 -->
<g id="node13" class="node"><title>CAF#257</title>
<a xlink:href="https://github.com/quattor/CAF/pull/257" xlink:title="Process: run process as another user" target="_parent">
<polygon fill="#6cc644" stroke="black" points="465,-1032 387,-1032 387,-978 465,-978 465,-1032"/>
<text text-anchor="middle" x="426" y="-1009" font-family="Sans" font-size="10.00">pull-request</text>
<text text-anchor="middle" x="426" y="-996" font-family="Sans" font-size="10.00">CAF#257</text>
</a>
</g>
<!-- CAF#253 -->
<g id="node15" class="node"><title>CAF#253</title>
<a xlink:href="https://github.com/quattor/CAF/issues/253" xlink:title="CAF::Process: Include an option to execute the command as an specific user" target="_parent">
<ellipse fill="#6cc644" stroke="black" cx="740" cy="-1005" rx="48.9975" ry="38.1838"/>
<text text-anchor="middle" x="740" y="-1009" font-family="Sans" font-size="10.00">issue</text>
<text text-anchor="middle" x="740" y="-996" font-family="Sans" font-size="10.00">CAF#253</text>
</a>
</g>
<!-- CAF#257&#45;&gt;CAF#253 -->
<g id="edge12" class="edge"><title>CAF#257-&gt;CAF#253</title>
<path fill="none" stroke="black" stroke-width="2" d="M465.768,-1005C519.934,-1005 617.353,-1005 680.308,-1005"/>
<polygon fill="black" stroke="black" points="680.488,-1008.5 690.488,-1005 680.488,-1001.5 680.488,-1008.5"/>
<text text-anchor="middle" x="581" y="-1009" font-family="Sans" font-size="10.00">fixes</text>
</g>
<!-- CAF#110 -->
<g id="node16" class="node"><title>CAF#110</title>
<a xlink:href="https://github.com/quattor/CAF/pull/110" xlink:title="CAF::Download class: API proposal" target="_parent">
<polygon fill="#6cc644" stroke="black" points="157,-1825 79,-1825 79,-1771 157,-1771 157,-1825"/>
<text text-anchor="middle" x="118" y="-1802" font-family="Sans" font-size="10.00">pull-request</text>
<text text-anchor="middle" x="118" y="-1789" font-family="Sans" font-size="10.00">CAF#110</text>
</a>
</g>
<!-- CAF#120 -->
<g id="node18" class="node"><title>CAF#120</title>
<polygon fill="lightgrey" stroke="black" points="461,-1818.5 391,-1818.5 391,-1777.5 461,-1777.5 461,-1818.5"/>
<text text-anchor="middle" x="426" y="-1795.5" font-family="Sans" font-size="10.00">CAF#120</text>
</g>
<!-- CAF#110&#45;&gt;CAF#120 -->
<g id="edge14" class="edge"><title>CAF#110-&gt;CAF#120</title>
<path fill="none" stroke="black" stroke-dasharray="5,2" d="M157.635,-1798C214.805,-1798 320.147,-1798 380.447,-1798"/>
<polygon fill="none" stroke="black" points="380.801,-1801.5 390.801,-1798 380.801,-1794.5 380.801,-1801.5"/>
<text text-anchor="middle" x="272" y="-1802" font-family="Sans" font-size="10.00">requires</text>
</g>
<!-- CCM#186 -->
<g id="node19" class="node"><title>CCM#186</title>
<a xlink:href="https://github.com/quattor/CCM/pull/186" xlink:title="TextRender: add support for jsonpretty type" target="_parent">
<polygon fill="#6cc644" stroke="black" points="779,-313 701,-313 701,-259 779,-259 779,-313"/>
<text text-anchor="middle" x="740" y="-290" font-family="Sans" font-size="10.00">pull-request</text>
<text text-anchor="middle" x="740" y="-277" font-family="Sans" font-size="10.00">CCM#186</text>
</a>
</g>
<!-- CAF#265 -->
<g id="node21" class="node"><title>CAF#265</title>
<polygon fill="lightgrey" stroke="black" points="1004,-183.5 934,-183.5 934,-142.5 1004,-142.5 1004,-183.5"/>
<text text-anchor="middle" x="969" y="-160.5" font-family="Sans" font-size="10.00">CAF#265</text>
</g>
<!-- CCM#186&#45;&gt;CAF#265 -->
<g id="edge16" class="edge"><title>CCM#186-&gt;CAF#265</title>
<path fill="none" stroke="black" stroke-dasharray="5,2" d="M779.696,-281.9C806.457,-277.88 841.872,-270.055 870,-255 900.083,-238.899 927.934,-211.403 946.382,-190.654"/>
<polygon fill="none" stroke="black" points="949.056,-192.913 952.977,-183.07 943.774,-188.32 949.056,-192.913"/>
<text text-anchor="middle" x="898" y="-252" font-family="Sans" font-size="10.00">requires</text>
</g>
<!-- configuration&#45;modules&#45;core#1308 -->
<g id="node22" class="node"><title>configuration-modules-core#1308</title>
<a xlink:href="https://github.com/quattor/configuration-modules-core/pull/1308" xlink:title="ncm-network: no error wrt missing (IPv4) ip and netmask in a pure IPv6 config" target="_parent">
<polygon fill="#6e5494" stroke="black" points="512,-938 340,-938 340,-884 512,-884 512,-938"/>
<text text-anchor="middle" x="426" y="-915" font-family="Sans" font-size="10.00">pull-request</text>
<text text-anchor="middle" x="426" y="-902" font-family="Sans" font-size="10.00">configuration-modules-core#1308</text>
</a>
</g>
<!-- configuration&#45;modules&#45;core#1296 -->
<g id="node24" class="node"><title>configuration-modules-core#1296</title>
<a xlink:href="https://github.com/quattor/configuration-modules-core/issues/1296" xlink:title="ncm-network: Returns an error when an interface is configured as IPv6 only" target="_parent">
<ellipse fill="#bd2c00" stroke="black" cx="740" cy="-911" rx="121.122" ry="38.1838"/>
<text text-anchor="middle" x="740" y="-915" font-family="Sans" font-size="10.00">issue</text>
<text text-anchor="middle" x="740" y="-902" font-family="Sans" font-size="10.00">configuration-modules-core#1296</text>
</a>
</g>
<!-- configuration&#45;modules&#45;core#1308&#45;&gt;configuration&#45;modules&#45;core#1296 -->
<g id="edge18" class="edge"><title>configuration-modules-core#1308-&gt;configuration-modules-core#1296</title>
<path fill="none" stroke="black" stroke-width="2" d="M512.217,-911C541.916,-911 575.888,-911 608.372,-911"/>
<polygon fill="black" stroke="black" points="608.399,-914.5 618.399,-911 608.399,-907.5 608.399,-914.5"/>
<text text-anchor="middle" x="581" y="-915" font-family="Sans" font-size="10.00">fixes</text>
</g>
<!-- configuration&#45;modules&#45;core#1299 -->
<g id="node25" class="node"><title>configuration-modules-core#1299</title>
<a xlink:href="https://github.com/quattor/configuration-modules-core/pull/1299" xlink:title="ncm-sysconfig: Quote values" target="_parent">
<polygon fill="#6cc644" stroke="black" points="512,-844 340,-844 340,-790 512,-790 512,-844"/>
<text text-anchor="middle" x="426" y="-821" font-family="Sans" font-size="10.00">pull-request</text>
<text text-anchor="middle" x="426" y="-808" font-family="Sans" font-size="10.00">configuration-modules-core#1299</text>
</a>
</g>
<!-- configuration&#45;modules&#45;core#1191 -->
<g id="node27" class="node"><title>configuration-modules-core#1191</title>
<a xlink:href="https://github.com/quattor/configuration-modules-core/issues/1191" xlink:title="ncm-sysconfig: Values should be quoted" target="_parent">
<ellipse fill="#6cc644" stroke="black" cx="740" cy="-817" rx="121.122" ry="38.1838"/>
<text text-anchor="middle" x="740" y="-821" font-family="Sans" font-size="10.00">issue</text>
<text text-anchor="middle" x="740" y="-808" font-family="Sans" font-size="10.00">configuration-modules-core#1191</text>
</a>
</g>
<!-- configuration&#45;modules&#45;core#1299&#45;&gt;configuration&#45;modules&#45;core#1191 -->
<g id="edge20" class="edge"><title>configuration-modules-core#1299-&gt;configuration-modules-core#1191</title>
<path fill="none" stroke="black" stroke-width="2" d="M512.217,-817C541.916,-817 575.888,-817 608.372,-817"/>
<polygon fill="black" stroke="black" points="608.399,-820.5 618.399,-817 608.399,-813.5 608.399,-820.5"/>
<text text-anchor="middle" x="581" y="-821" font-family="Sans" font-size="10.00">fixes</text>
</g>
<!-- configuration&#45;modules&#45;core#1279 -->
<g id="node28" class="node"><title>configuration-modules-core#1279</title>
<a xlink:href="https://github.com/quattor/configuration-modules-core/pull/1279" xlink:title="ncm-metaconfig: ganeshav2 add include" target="_parent">
<polygon fill="#6e5494" stroke="black" points="512,-750 340,-750 340,-696 512,-696 512,-750"/>
<text text-anchor="middle" x="426" y="-727" font-family="Sans" font-size="10.00">pull-request</text>
<text text-anchor="middle" x="426" y="-714" font-family="Sans" font-size="10.00">configuration-modules-core#1279</text>
</a>
</g>
<!-- configuration&#45;modules&#45;core#1276 -->
<g id="node30" class="node"><title>configuration-modules-core#1276</title>
<a xlink:href="https://github.com/quattor/configuration-modules-core/issues/1276" xlink:title="ncm-metaconfig: Ganesha v2 %include option is missing" target="_parent">
<ellipse fill="#bd2c00" stroke="black" cx="740" cy="-723" rx="121.122" ry="38.1838"/>
<text text-anchor="middle" x="740" y="-727" font-family="Sans" font-size="10.00">issue</text>
<text text-anchor="middle" x="740" y="-714" font-family="Sans" font-size="10.00">configuration-modules-core#1276</text>
</a>
</g>
<!-- configuration&#45;modules&#45;core#1279&#45;&gt;configuration&#45;modules&#45;core#1276 -->
<g id="edge22" class="edge"><title>configuration-modules-core#1279-&gt;configuration-modules-core#1276</title>
<path fill="none" stroke="black" stroke-width="2" d="M512.217,-723C541.916,-723 575.888,-723 608.372,-723"/>
<polygon fill="black" stroke="black" points="608.399,-726.5 618.399,-723 608.399,-719.5 608.399,-726.5"/>
<text text-anchor="middle" x="581" y="-727" font-family="Sans" font-size="10.00">fixes</text>
</g>
<!-- configuration&#45;modules&#45;core#1261 -->
<g id="node31" class="node"><title>configuration-modules-core#1261</title>
<a xlink:href="https://github.com/quattor/configuration-modules-core/pull/1261" xlink:title="[WIP] ncm-openstack: Include ovs and storage support" target="_parent">
<polygon fill="#6cc644" stroke="black" points="512,-313 340,-313 340,-259 512,-259 512,-313"/>
<text text-anchor="middle" x="426" y="-290" font-family="Sans" font-size="10.00">pull-request</text>
<text text-anchor="middle" x="426" y="-277" font-family="Sans" font-size="10.00">configuration-modules-core#1261</text>
</a>
</g>
<!-- configuration&#45;modules&#45;core#1310 -->
<g id="node33" class="node"><title>configuration-modules-core#1310</title>
<a xlink:href="https://github.com/quattor/configuration-modules-core/issues/1310" xlink:title="ncm-openstack: add Heat service support" target="_parent">
<ellipse fill="#6cc644" stroke="black" cx="740" cy="-38" rx="121.122" ry="38.1838"/>
<text text-anchor="middle" x="740" y="-42" font-family="Sans" font-size="10.00">issue</text>
<text text-anchor="middle" x="740" y="-29" font-family="Sans" font-size="10.00">configuration-modules-core#1310</text>
</a>
</g>
<!-- configuration&#45;modules&#45;core#1261&#45;&gt;configuration&#45;modules&#45;core#1310 -->
<g id="edge24" class="edge"><title>configuration-modules-core#1261-&gt;configuration-modules-core#1310</title>
<path fill="none" stroke="black" stroke-width="2" d="M436.759,-258.954C455.483,-215.445 498.256,-130.224 562,-85 579.215,-72.7864 599.395,-63.7464 619.863,-57.0556"/>
<polygon fill="black" stroke="black" points="621.076,-60.3442 629.598,-54.0502 619.011,-53.6556 621.076,-60.3442"/>
<text text-anchor="middle" x="581" y="-89" font-family="Sans" font-size="10.00">fixes</text>
</g>
<!-- configuration&#45;modules&#45;core#1255 -->
<g id="node34" class="node"><title>configuration-modules-core#1255</title>
<a xlink:href="https://github.com/quattor/configuration-modules-core/pull/1255" xlink:title=" ncm-metaconfig: add irods config files" target="_parent">
<polygon fill="#6cc644" stroke="black" points="512,-385 340,-385 340,-331 512,-331 512,-385"/>
<text text-anchor="middle" x="426" y="-362" font-family="Sans" font-size="10.00">pull-request</text>
<text text-anchor="middle" x="426" y="-349" font-family="Sans" font-size="10.00">configuration-modules-core#1255</text>
</a>
</g>
<!-- configuration&#45;modules&#45;core#1255&#45;&gt;CCM#186 -->
<g id="edge28" class="edge"><title>configuration-modules-core#1255-&gt;CCM#186</title>
<path fill="none" stroke="black" stroke-dasharray="5,2" d="M512.217,-338.23C569.508,-325.094 642.703,-308.31 690.436,-297.365"/>
<polygon fill="none" stroke="black" points="691.256,-300.768 700.22,-295.121 689.691,-293.945 691.256,-300.768"/>
<text text-anchor="middle" x="581" y="-331" font-family="Sans" font-size="10.00">requires</text>
</g>
<!-- configuration&#45;modules&#45;core#1255&#45;&gt;CAF#265 -->
<g id="edge26" class="edge"><title>configuration-modules-core#1255-&gt;CAF#265</title>
<path fill="none" stroke="black" stroke-dasharray="5,2" d="M512.28,-344.413C524.335,-339.146 535.489,-331.913 544,-322 580.275,-279.747 541.009,-249.581 562,-198 577.95,-158.805 580.292,-140.202 618,-121 717.805,-70.1769 760.246,-98.6816 870,-121 888.506,-124.763 907.843,-132.109 924.466,-139.62"/>
<polygon fill="none" stroke="black" points="923.371,-142.971 933.913,-144.035 926.335,-136.63 923.371,-142.971"/>
<text text-anchor="middle" x="740" y="-125" font-family="Sans" font-size="10.00">requires</text>
</g>
<!-- configuration&#45;modules&#45;core#1148 -->
<g id="node37" class="node"><title>configuration-modules-core#1148</title>
<a xlink:href="https://github.com/quattor/configuration-modules-core/pull/1148" xlink:title="ncm-spma: Remove support from groups from spma yumng backend" target="_parent">
<polygon fill="#6cc644" stroke="black" points="204,-1995 32,-1995 32,-1941 204,-1941 204,-1995"/>
<text text-anchor="middle" x="118" y="-1972" font-family="Sans" font-size="10.00">pull-request</text>
<text text-anchor="middle" x="118" y="-1959" font-family="Sans" font-size="10.00">configuration-modules-core#1148</text>
</a>
</g>
<!-- configuration&#45;modules&#45;core#952 -->
<g id="node39" class="node"><title>configuration-modules-core#952</title>
<a xlink:href="https://github.com/quattor/configuration-modules-core/issues/952" xlink:title="ncm-spma (yumng): Remove support for package groups" target="_parent">
<ellipse fill="#6cc644" stroke="black" cx="426" cy="-1968" rx="118.087" ry="38.1838"/>
<text text-anchor="middle" x="426" y="-1972" font-family="Sans" font-size="10.00">issue</text>
<text text-anchor="middle" x="426" y="-1959" font-family="Sans" font-size="10.00">configuration-modules-core#952</text>
</a>
</g>
<!-- configuration&#45;modules&#45;core#1148&#45;&gt;configuration&#45;modules&#45;core#952 -->
<g id="edge30" class="edge"><title>configuration-modules-core#1148-&gt;configuration-modules-core#952</title>
<path fill="none" stroke="black" stroke-width="2" d="M204.205,-1968C233.19,-1968 266.179,-1968 297.691,-1968"/>
<polygon fill="black" stroke="black" points="297.863,-1971.5 307.863,-1968 297.863,-1964.5 297.863,-1971.5"/>
<text text-anchor="middle" x="272" y="-1972" font-family="Sans" font-size="10.00">fixes</text>
</g>
<!-- configuration&#45;modules&#45;core#950 -->
<g id="node40" class="node"><title>configuration-modules-core#950</title>
<a xlink:href="https://github.com/quattor/configuration-modules-core/issues/950" xlink:title="ncm-spma: Remove support for package groups from yum backends" target="_parent">
<ellipse fill="#6cc644" stroke="black" cx="118" cy="-1883" rx="118.087" ry="38.1838"/>
<text text-anchor="middle" x="118" y="-1887" font-family="Sans" font-size="10.00">issue</text>
<text text-anchor="middle" x="118" y="-1874" font-family="Sans" font-size="10.00">configuration-modules-core#950</text>
</a>
</g>
<!-- configuration&#45;modules&#45;core#950&#45;&gt;configuration&#45;modules&#45;core#952 -->
<g id="edge34" class="edge"><title>configuration-modules-core#950-&gt;configuration-modules-core#952</title>
<path fill="none" stroke="black" stroke-dasharray="5,2" d="M207.914,-1907.81C244.995,-1918.05 288.11,-1929.95 326.167,-1940.45"/>
<polygon fill="none" stroke="black" points="325.669,-1943.94 336.24,-1943.23 327.532,-1937.19 325.669,-1943.94"/>
<text text-anchor="middle" x="272" y="-1932" font-family="Sans" font-size="10.00">requires</text>
</g>
<!-- configuration&#45;modules&#45;core#951 -->
<g id="node42" class="node"><title>configuration-modules-core#951</title>
<a xlink:href="https://github.com/quattor/configuration-modules-core/issues/951" xlink:title="ncm-spma (yum): Remove support for package groups" target="_parent">
<ellipse fill="#6cc644" stroke="black" cx="426" cy="-1874" rx="118.087" ry="38.1838"/>
<text text-anchor="middle" x="426" y="-1878" font-family="Sans" font-size="10.00">issue</text>
<text text-anchor="middle" x="426" y="-1865" font-family="Sans" font-size="10.00">configuration-modules-core#951</text>
</a>
</g>
<!-- configuration&#45;modules&#45;core#950&#45;&gt;configuration&#45;modules&#45;core#951 -->
<g id="edge32" class="edge"><title>configuration-modules-core#950-&gt;configuration-modules-core#951</title>
<path fill="none" stroke="black" stroke-dasharray="5,2" d="M235.76,-1879.56C256.192,-1878.96 277.526,-1878.34 298.21,-1877.73"/>
<polygon fill="none" stroke="black" points="298.412,-1881.23 308.305,-1877.44 298.207,-1874.23 298.412,-1881.23"/>
<text text-anchor="middle" x="272" y="-1883" font-family="Sans" font-size="10.00">requires</text>
</g>
<!-- ncm&#45;lib&#45;blockdevices#91 -->
<g id="node44" class="node"><title>ncm-lib-blockdevices#91</title>
<a xlink:href="https://github.com/quattor/ncm-lib-blockdevices/pull/91" xlink:title="Filesystem.pm: add option -f to mkfs.xfs" target="_parent">
<polygon fill="#6cc644" stroke="black" points="494,-656 358,-656 358,-602 494,-602 494,-656"/>
<text text-anchor="middle" x="426" y="-633" font-family="Sans" font-size="10.00">pull-request</text>
<text text-anchor="middle" x="426" y="-620" font-family="Sans" font-size="10.00">ncm-lib-blockdevices#91</text>
</a>
</g>
<!-- ncm&#45;lib&#45;blockdevices#90 -->
<g id="node46" class="node"><title>ncm-lib-blockdevices#90</title>
<a xlink:href="https://github.com/quattor/ncm-lib-blockdevices/issues/90" xlink:title="Filesystem: mkfs.xfs should be used with -f" target="_parent">
<ellipse fill="#6cc644" stroke="black" cx="740" cy="-629" rx="96.1665" ry="38.1838"/>
<text text-anchor="middle" x="740" y="-633" font-family="Sans" font-size="10.00">issue</text>
<text text-anchor="middle" x="740" y="-620" font-family="Sans" font-size="10.00">ncm-lib-blockdevices#90</text>
</a>
</g>
<!-- ncm&#45;lib&#45;blockdevices#91&#45;&gt;ncm&#45;lib&#45;blockdevices#90 -->
<g id="edge36" class="edge"><title>ncm-lib-blockdevices#91-&gt;ncm-lib-blockdevices#90</title>
<path fill="none" stroke="black" stroke-width="2" d="M494.133,-629C534.883,-629 587.543,-629 633.667,-629"/>
<polygon fill="black" stroke="black" points="633.708,-632.5 643.708,-629 633.708,-625.5 633.708,-632.5"/>
<text text-anchor="middle" x="581" y="-633" font-family="Sans" font-size="10.00">fixes</text>
</g>
<!-- ncm&#45;ncd#117 -->
<g id="node47" class="node"><title>ncm-ncd#117</title>
<a xlink:href="https://github.com/quattor/ncm-ncd/pull/117" xlink:title="Allow component modules to be loaded from any path" target="_parent">
<polygon fill="#6cc644" stroke="black" points="469,-562 383,-562 383,-508 469,-508 469,-562"/>
<text text-anchor="middle" x="426" y="-539" font-family="Sans" font-size="10.00">pull-request</text>
<text text-anchor="middle" x="426" y="-526" font-family="Sans" font-size="10.00">ncm-ncd#117</text>
</a>
</g>
<!-- ncm&#45;ncd#116 -->
<g id="node49" class="node"><title>ncm-ncd#116</title>
<a xlink:href="https://github.com/quattor/ncm-ncd/issues/116" xlink:title="hasFile() prevents component modules from being relocated" target="_parent">
<ellipse fill="#6cc644" stroke="black" cx="740" cy="-535" rx="61.0181" ry="38.1838"/>
<text text-anchor="middle" x="740" y="-539" font-family="Sans" font-size="10.00">issue</text>
<text text-anchor="middle" x="740" y="-526" font-family="Sans" font-size="10.00">ncm-ncd#116</text>
</a>
</g>
<!-- ncm&#45;ncd#117&#45;&gt;ncm&#45;ncd#116 -->
<g id="edge38" class="edge"><title>ncm-ncd#117-&gt;ncm-ncd#116</title>
<path fill="none" stroke="black" stroke-width="2" d="M469.66,-535C520.954,-535 606.809,-535 668.001,-535"/>
<polygon fill="black" stroke="black" points="668.362,-538.5 678.362,-535 668.362,-531.5 668.362,-538.5"/>
<text text-anchor="middle" x="581" y="-539" font-family="Sans" font-size="10.00">fixes</text>
</g>
<!-- aquilon#115 -->
<g id="node50" class="node"><title>aquilon#115</title>
<a xlink:href="https://github.com/quattor/aquilon/pull/115" xlink:title="services: insert service data early in the object template" target="_parent">
<polygon fill="#6cc644" stroke="black" points="158,-1723 78,-1723 78,-1669 158,-1669 158,-1723"/>
<text text-anchor="middle" x="118" y="-1700" font-family="Sans" font-size="10.00">pull-request</text>
<text text-anchor="middle" x="118" y="-1687" font-family="Sans" font-size="10.00">aquilon#115</text>
</a>
</g>
<!-- aquilon#109 -->
<g id="node52" class="node"><title>aquilon#109</title>
<a xlink:href="https://github.com/quattor/aquilon/issues/109" xlink:title="Why service configuration is included so late in the plenary object?" target="_parent">
<ellipse fill="#6cc644" stroke="black" cx="426" cy="-1693" rx="56.0679" ry="38.1838"/>
<text text-anchor="middle" x="426" y="-1697" font-family="Sans" font-size="10.00">issue</text>
<text text-anchor="middle" x="426" y="-1684" font-family="Sans" font-size="10.00">aquilon#109</text>
</a>
</g>
<!-- aquilon#115&#45;&gt;aquilon#109 -->
<g id="edge40" class="edge"><title>aquilon#115-&gt;aquilon#109</title>
<path fill="none" stroke="black" stroke-width="2" d="M158.158,-1694.14C185.23,-1692.97 221.755,-1691.59 254,-1691 288.756,-1690.36 327.465,-1690.72 359.348,-1691.29"/>
<polygon fill="black" stroke="black" points="359.38,-1694.8 369.446,-1691.49 359.515,-1687.8 359.38,-1694.8"/>
<text text-anchor="middle" x="272" y="-1695" font-family="Sans" font-size="10.00">fixes</text>
</g>
<!-- aquilon#114 -->
<g id="node53" class="node"><title>aquilon#114</title>
<a xlink:href="https://github.com/quattor/aquilon/pull/114" xlink:title="aq pxeswitch: allow to configure aii-installfe cdburl" target="_parent">
<polygon fill="#6cc644" stroke="black" points="158,-1242 78,-1242 78,-1188 158,-1188 158,-1242"/>
<text text-anchor="middle" x="118" y="-1219" font-family="Sans" font-size="10.00">pull-request</text>
<text text-anchor="middle" x="118" y="-1206" font-family="Sans" font-size="10.00">aquilon#114</text>
</a>
</g>
<!-- aquilon#114&#45;&gt;aii#291 -->
<g id="edge44" class="edge"><title>aquilon#114-&gt;aii#291</title>
<path fill="none" stroke="black" stroke-dasharray="5,2" d="M158.266,-1200.88C214.335,-1181.22 315.852,-1145.62 376.482,-1124.36"/>
<polygon fill="none" stroke="black" points="377.934,-1127.56 386.213,-1120.95 375.618,-1120.96 377.934,-1127.56"/>
<text text-anchor="middle" x="272" y="-1169" font-family="Sans" font-size="10.00">requires</text>
</g>
<!-- aquilon#113 -->
<g id="node55" class="node"><title>aquilon#113</title>
<a xlink:href="https://github.com/quattor/aquilon/issues/113" xlink:title="1.12.62: aq pxeswitch should allow to define aii-installfe cdburl" target="_parent">
<ellipse fill="#6cc644" stroke="black" cx="426" cy="-1223" rx="56.0679" ry="38.1838"/>
<text text-anchor="middle" x="426" y="-1227" font-family="Sans" font-size="10.00">issue</text>
<text text-anchor="middle" x="426" y="-1214" font-family="Sans" font-size="10.00">aquilon#113</text>
</a>
</g>
<!-- aquilon#114&#45;&gt;aquilon#113 -->
<g id="edge42" class="edge"><title>aquilon#114-&gt;aquilon#113</title>
<path fill="none" stroke="black" stroke-width="2" d="M158.266,-1216.05C209.287,-1217.37 297.94,-1219.67 359.174,-1221.26"/>
<polygon fill="black" stroke="black" points="359.426,-1224.77 369.514,-1221.53 359.608,-1217.77 359.426,-1224.77"/>
<text text-anchor="middle" x="272" y="-1224" font-family="Sans" font-size="10.00">fixes</text>
</g>
<!-- aquilon#110 -->
<g id="node57" class="node"><title>aquilon#110</title>
<a xlink:href="https://github.com/quattor/aquilon/pull/110" xlink:title="Change site and machine namespace to use continent name" target="_parent">
<polygon fill="#6cc644" stroke="black" points="158,-1579 78,-1579 78,-1525 158,-1525 158,-1579"/>
<text text-anchor="middle" x="118" y="-1556" font-family="Sans" font-size="10.00">pull-request</text>
<text text-anchor="middle" x="118" y="-1543" font-family="Sans" font-size="10.00">aquilon#110</text>
</a>
</g>
<!-- aquilon#104 -->
<g id="node59" class="node"><title>aquilon#104</title>
<a xlink:href="https://github.com/quattor/aquilon/issues/104" xlink:title="1.12.62: location related templates cannot be used" target="_parent">
<ellipse fill="#6cc644" stroke="black" cx="426" cy="-1505" rx="56.0679" ry="38.1838"/>
<text text-anchor="middle" x="426" y="-1509" font-family="Sans" font-size="10.00">issue</text>
<text text-anchor="middle" x="426" y="-1496" font-family="Sans" font-size="10.00">aquilon#104</text>
</a>
</g>
<!-- aquilon#110&#45;&gt;aquilon#104 -->
<g id="edge46" class="edge"><title>aquilon#110-&gt;aquilon#104</title>
<path fill="none" stroke="black" stroke-width="2" d="M158.266,-1545.86C209.779,-1537.99 299.652,-1524.28 360.936,-1514.93"/>
<polygon fill="black" stroke="black" points="361.537,-1518.38 370.894,-1513.41 360.481,-1511.46 361.537,-1518.38"/>
<text text-anchor="middle" x="272" y="-1534" font-family="Sans" font-size="10.00">fixes</text>
</g>
<!-- aquilon#106 -->
<g id="node60" class="node"><title>aquilon#106</title>
<a xlink:href="https://github.com/quattor/aquilon/pull/106" xlink:title="machine plenary templates: allow to use the rack fullname" target="_parent">
<polygon fill="#6cc644" stroke="black" points="158,-1651 78,-1651 78,-1597 158,-1597 158,-1651"/>
<text text-anchor="middle" x="118" y="-1628" font-family="Sans" font-size="10.00">pull-request</text>
<text text-anchor="middle" x="118" y="-1615" font-family="Sans" font-size="10.00">aquilon#106</text>
</a>
</g>
<!-- aquilon#105 -->
<g id="node62" class="node"><title>aquilon#105</title>
<a xlink:href="https://github.com/quattor/aquilon/issues/105" xlink:title="1.12.62: allow to use rack fullname rather than name in machine template namespace" target="_parent">
<ellipse fill="#6cc644" stroke="black" cx="426" cy="-1599" rx="56.0679" ry="38.1838"/>
<text text-anchor="middle" x="426" y="-1603" font-family="Sans" font-size="10.00">issue</text>
<text text-anchor="middle" x="426" y="-1590" font-family="Sans" font-size="10.00">aquilon#105</text>
</a>
</g>
<!-- aquilon#106&#45;&gt;aquilon#105 -->
<g id="edge48" class="edge"><title>aquilon#106-&gt;aquilon#105</title>
<path fill="none" stroke="black" stroke-width="2" d="M158.266,-1620.73C209.364,-1616.58 298.208,-1609.37 359.451,-1604.4"/>
<polygon fill="black" stroke="black" points="360.107,-1607.86 369.791,-1603.56 359.54,-1600.88 360.107,-1607.86"/>
<text text-anchor="middle" x="272" y="-1617" font-family="Sans" font-size="10.00">fixes</text>
</g>
<!-- aquilon#102 -->
<g id="node63" class="node"><title>aquilon#102</title>
<a xlink:href="https://github.com/quattor/aquilon/pull/102" xlink:title="Use new include syntax" target="_parent">
<polygon fill="#6cc644" stroke="black" points="158,-1413 78,-1413 78,-1359 158,-1359 158,-1413"/>
<text text-anchor="middle" x="118" y="-1390" font-family="Sans" font-size="10.00">pull-request</text>
<text text-anchor="middle" x="118" y="-1377" font-family="Sans" font-size="10.00">aquilon#102</text>
</a>
</g>
<!-- aquilon#84 -->
<g id="node65" class="node"><title>aquilon#84</title>
<a xlink:href="https://github.com/quattor/aquilon/issues/84" xlink:title="1.12.58: generated templates should adopt the " target="_parent">
<ellipse fill="#6cc644" stroke="black" cx="426" cy="-1411" rx="53.033" ry="38.1838"/>
<text text-anchor="middle" x="426" y="-1415" font-family="Sans" font-size="10.00">issue</text>
<text text-anchor="middle" x="426" y="-1402" font-family="Sans" font-size="10.00">aquilon#84</text>
</a>
</g>
<!-- aquilon#102&#45;&gt;aquilon#84 -->
<g id="edge50" class="edge"><title>aquilon#102-&gt;aquilon#84</title>
<path fill="none" stroke="black" stroke-width="2" d="M158.266,-1389.27C210.289,-1393.49 301.437,-1400.89 362.749,-1405.87"/>
<polygon fill="black" stroke="black" points="362.827,-1409.38 373.078,-1406.7 363.394,-1402.41 362.827,-1409.38"/>
<text text-anchor="middle" x="272" y="-1404" font-family="Sans" font-size="10.00">fixes</text>
</g>
<!-- aquilon#91 -->
<g id="node66" class="node"><title>aquilon#91</title>
<a xlink:href="https://github.com/quattor/aquilon/issues/91" xlink:title="1.12.58: city timezone is not passed to the object template" target="_parent">
<ellipse fill="#6cc644" stroke="black" cx="118" cy="-1469" rx="53.033" ry="38.1838"/>
<text text-anchor="middle" x="118" y="-1473" font-family="Sans" font-size="10.00">issue</text>
<text text-anchor="middle" x="118" y="-1460" font-family="Sans" font-size="10.00">aquilon#91</text>
</a>
</g>
<!-- aquilon#91&#45;&gt;aquilon#104 -->
<g id="edge52" class="edge"><title>aquilon#91-&gt;aquilon#104</title>
<path fill="none" stroke="black" stroke-dasharray="5,2" d="M171.295,-1466.91C205.379,-1466.32 250.454,-1466.92 290,-1472 314.671,-1475.17 341.359,-1481.08 364.506,-1487.03"/>
<polygon fill="none" stroke="black" points="363.632,-1490.42 374.193,-1489.58 365.411,-1483.65 363.632,-1490.42"/>
<text text-anchor="middle" x="272" y="-1476" font-family="Sans" font-size="10.00">requires</text>
</g>
<!-- aquilon#89 -->
<g id="node68" class="node"><title>aquilon#89</title>
<a xlink:href="https://github.com/quattor/aquilon/pull/89" xlink:title="Broker: pass archetype to the object profile" target="_parent">
<polygon fill="#6cc644" stroke="black" points="157,-1341 79,-1341 79,-1287 157,-1287 157,-1341"/>
<text text-anchor="middle" x="118" y="-1318" font-family="Sans" font-size="10.00">pull-request</text>
<text text-anchor="middle" x="118" y="-1305" font-family="Sans" font-size="10.00">aquilon#89</text>
</a>
</g>
<!-- aquilon#88 -->
<g id="node70" class="node"><title>aquilon#88</title>
<a xlink:href="https://github.com/quattor/aquilon/issues/88" xlink:title="1.12.58: the broker should pass the archetype to the object template" target="_parent">
<ellipse fill="#6cc644" stroke="black" cx="426" cy="-1317" rx="53.033" ry="38.1838"/>
<text text-anchor="middle" x="426" y="-1321" font-family="Sans" font-size="10.00">issue</text>
<text text-anchor="middle" x="426" y="-1308" font-family="Sans" font-size="10.00">aquilon#88</text>
</a>
</g>
<!-- aquilon#89&#45;&gt;aquilon#88 -->
<g id="edge54" class="edge"><title>aquilon#89-&gt;aquilon#88</title>
<path fill="none" stroke="black" stroke-width="2" d="M157.635,-1314.39C209.471,-1314.89 300.91,-1315.78 362.468,-1316.38"/>
<polygon fill="black" stroke="black" points="362.805,-1319.88 372.839,-1316.48 362.873,-1312.88 362.805,-1319.88"/>
<text text-anchor="middle" x="272" y="-1320" font-family="Sans" font-size="10.00">fixes</text>
</g>
</g>
</svg>
