<?xml version="1.0" encoding="UTF-8" standalone="no"?>
<?xml-stylesheet href="relationships.css" type="text/css"?>
<!-- Generated by graphviz version 2.26.0 (20091210.2329)
 -->
<!-- Title: Dependencies Pages: 1 -->
<svg xmlns="http://www.w3.org/2000/svg" xmlns:xlink="http://www.w3.org/1999/xlink" width="896pt" height="1813pt" viewBox="0.00 0.00 896.00 1813.00">
<g id="graph1" class="graph" transform="scale(1 1) rotate(0) translate(4 1809)">
<title>Dependencies</title>
<polygon fill="white" stroke="white" points="-4,5 -4,-1809 893,-1809 893,5 -4,5"/>
<g id="graph3" class="cluster"><title>cluster_18.3</title>
<polygon fill="none" stroke="black" points="302,-8 302,-506 880,-506 880,-8 302,-8"/>
<text text-anchor="middle" x="591" y="-491.2" font-family="Sans" font-size="12.00">18.3</text>
</g>
<g id="graph4" class="cluster"><title>cluster_18.6</title>
<polygon fill="none" stroke="black" points="24,-622 24,-1562 562,-1562 562,-622 24,-622"/>
<text text-anchor="middle" x="293" y="-1547.2" font-family="Sans" font-size="12.00">18.6</text>
</g>
<!-- aii#210 -->
<g id="node1" class="node"><title>aii#210</title>
<a xlink:href="https://github.com/quattor/aii/pull/210" xlink:title="Shellfe: support active config for plugins" target="_parent">
<polygon fill="#6cc644" stroke="black" points="157,-1447 79,-1447 79,-1393 157,-1393 157,-1447"/>
<text text-anchor="middle" x="118" y="-1424" font-family="Sans" font-size="10.00">pull-request</text>
<text text-anchor="middle" x="118" y="-1411" font-family="Sans" font-size="10.00">aii#210</text>
</a>
</g>
<!-- aii#209 -->
<g id="node3" class="node"><title>aii#209</title>
<a xlink:href="https://github.com/quattor/aii/issues/209" xlink:title="support ACTIVE_CONFIG" target="_parent">
<ellipse fill="#6cc644" stroke="black" cx="432" cy="-1420" rx="41.2167" ry="38.1838"/>
<text text-anchor="middle" x="432" y="-1424" font-family="Sans" font-size="10.00">issue</text>
<text text-anchor="middle" x="432" y="-1411" font-family="Sans" font-size="10.00">aii#209</text>
</a>
</g>
<!-- aii#210&#45;&gt;aii#209 -->
<g id="edge2" class="edge"><title>aii#210-&gt;aii#209</title>
<path fill="none" stroke="black" stroke-width="2" d="M157.768,-1420C214.279,-1420 317.868,-1420 380.284,-1420"/>
<polygon fill="black" stroke="black" points="380.31,-1423.5 390.31,-1420 380.31,-1416.5 380.31,-1423.5"/>
<text text-anchor="middle" x="273" y="-1424" font-family="Sans" font-size="10.00">fixes</text>
</g>
<!-- ncm&#45;ncd#74 -->
<g id="node5" class="node"><title>ncm-ncd#74</title>
<a xlink:href="https://github.com/quattor/ncm-ncd/pull/74" xlink:title="Set the current active config as an attribute to the component" target="_parent">
<polygon fill="#6cc644" stroke="black" points="473,-1530 391,-1530 391,-1476 473,-1476 473,-1530"/>
<text text-anchor="middle" x="432" y="-1507" font-family="Sans" font-size="10.00">pull-request</text>
<text text-anchor="middle" x="432" y="-1494" font-family="Sans" font-size="10.00">ncm-ncd#74</text>
</a>
</g>
<!-- aii#210&#45;&gt;ncm&#45;ncd#74 -->
<g id="edge4" class="edge"><title>aii#210-&gt;ncm-ncd#74</title>
<path fill="none" stroke="black" stroke-dasharray="5,2" d="M157.609,-1430.38C180.517,-1436.39 209.889,-1444.11 236,-1451 285.266,-1464.01 341.475,-1478.93 381.028,-1489.44"/>
<polygon fill="none" stroke="black" points="380.148,-1492.83 390.711,-1492.01 381.946,-1486.06 380.148,-1492.83"/>
<text text-anchor="middle" x="273" y="-1470" font-family="Sans" font-size="10.00">requires</text>
</g>
<!-- aii#203 -->
<g id="node7" class="node"><title>aii#203</title>
<polygon fill="lightgrey" stroke="black" points="461,-612.5 403,-612.5 403,-571.5 461,-571.5 461,-612.5"/>
<text text-anchor="middle" x="432" y="-589.5" font-family="Sans" font-size="10.00">aii#203</text>
</g>
<!-- aii#210&#45;&gt;aii#203 -->
<g id="edge6" class="edge"><title>aii#210-&gt;aii#203</title>
<path fill="none" stroke="black" stroke-dasharray="5,2" d="M157.536,-1411.81C184.61,-1403.95 218.644,-1389.11 236,-1362 278.972,-1294.89 212.908,-713.28 254,-645 281.647,-599.06 348.482,-590.44 391.929,-590.039"/>
<polygon fill="none" stroke="black" points="392.146,-593.54 402.164,-590.092 392.182,-586.541 392.146,-593.54"/>
<text text-anchor="middle" x="273" y="-649" font-family="Sans" font-size="10.00">requires</text>
</g>
<!-- CAF#257 -->
<g id="node8" class="node"><title>CAF#257</title>
<a xlink:href="https://github.com/quattor/CAF/pull/257" xlink:title="Process: run process as another user" target="_parent">
<polygon fill="#6cc644" stroke="black" points="157,-1353 79,-1353 79,-1299 157,-1299 157,-1353"/>
<text text-anchor="middle" x="118" y="-1330" font-family="Sans" font-size="10.00">pull-request</text>
<text text-anchor="middle" x="118" y="-1317" font-family="Sans" font-size="10.00">CAF#257</text>
</a>
</g>
<!-- CAF#253 -->
<g id="node10" class="node"><title>CAF#253</title>
<a xlink:href="https://github.com/quattor/CAF/issues/253" xlink:title="CAF::Process: Include an option to execute the command as an specific user" target="_parent">
<ellipse fill="#6cc644" stroke="black" cx="432" cy="-1326" rx="48.9975" ry="38.1838"/>
<text text-anchor="middle" x="432" y="-1330" font-family="Sans" font-size="10.00">issue</text>
<text text-anchor="middle" x="432" y="-1317" font-family="Sans" font-size="10.00">CAF#253</text>
</a>
</g>
<!-- CAF#257&#45;&gt;CAF#253 -->
<g id="edge8" class="edge"><title>CAF#257-&gt;CAF#253</title>
<path fill="none" stroke="black" stroke-width="2" d="M157.768,-1326C211.934,-1326 309.353,-1326 372.308,-1326"/>
<polygon fill="black" stroke="black" points="372.488,-1329.5 382.488,-1326 372.488,-1322.5 372.488,-1329.5"/>
<text text-anchor="middle" x="273" y="-1330" font-family="Sans" font-size="10.00">fixes</text>
</g>
<!-- CAF#110 -->
<g id="node11" class="node"><title>CAF#110</title>
<a xlink:href="https://github.com/quattor/CAF/pull/110" xlink:title="Download: API proposal" target="_parent">
<polygon fill="#6cc644" stroke="black" points="157,-1624 79,-1624 79,-1570 157,-1570 157,-1624"/>
<text text-anchor="middle" x="118" y="-1601" font-family="Sans" font-size="10.00">pull-request</text>
<text text-anchor="middle" x="118" y="-1588" font-family="Sans" font-size="10.00">CAF#110</text>
</a>
</g>
<!-- CAF#120 -->
<g id="node13" class="node"><title>CAF#120</title>
<polygon fill="lightgrey" stroke="black" points="467,-1617.5 397,-1617.5 397,-1576.5 467,-1576.5 467,-1617.5"/>
<text text-anchor="middle" x="432" y="-1594.5" font-family="Sans" font-size="10.00">CAF#120</text>
</g>
<!-- CAF#110&#45;&gt;CAF#120 -->
<g id="edge10" class="edge"><title>CAF#110-&gt;CAF#120</title>
<path fill="none" stroke="black" stroke-dasharray="5,2" d="M157.768,-1597C216.269,-1597 325.221,-1597 386.719,-1597"/>
<polygon fill="none" stroke="black" points="386.897,-1600.5 396.897,-1597 386.897,-1593.5 386.897,-1600.5"/>
<text text-anchor="middle" x="273" y="-1601" font-family="Sans" font-size="10.00">requires</text>
</g>
<!-- configuration&#45;modules&#45;core#1236 -->
<g id="node14" class="node"><title>configuration-modules-core#1236</title>
<a xlink:href="https://github.com/quattor/configuration-modules-core/pull/1236" xlink:title="ncm-spma: yum: Expose support for multiple reposdirs" target="_parent">
<polygon fill="#6e5494" stroke="black" points="518,-474 346,-474 346,-420 518,-420 518,-474"/>
<text text-anchor="middle" x="432" y="-451" font-family="Sans" font-size="10.00">pull-request</text>
<text text-anchor="middle" x="432" y="-438" font-family="Sans" font-size="10.00">configuration-modules-core#1236</text>
</a>
</g>
<!-- configuration&#45;modules&#45;core#1075 -->
<g id="node16" class="node"><title>configuration-modules-core#1075</title>
<a xlink:href="https://github.com/quattor/configuration-modules-core/pull/1075" xlink:title="ncm-spma (yum): Allow unmanaged repositories to be controlled seperately from packages" target="_parent">
<polygon fill="#6e5494" stroke="black" points="836,-474 664,-474 664,-420 836,-420 836,-474"/>
<text text-anchor="middle" x="750" y="-451" font-family="Sans" font-size="10.00">pull-request</text>
<text text-anchor="middle" x="750" y="-438" font-family="Sans" font-size="10.00">configuration-modules-core#1075</text>
</a>
</g>
<!-- configuration&#45;modules&#45;core#1236&#45;&gt;configuration&#45;modules&#45;core#1075 -->
<g id="edge12" class="edge"><title>configuration-modules-core#1236-&gt;configuration-modules-core#1075</title>
<path fill="none" stroke="black" stroke-dasharray="1,5" d="M518.055,-447C559.946,-447 610.462,-447 653.641,-447"/>
<polygon fill="black" stroke="black" points="663.876,-447 653.876,-451.5 658.876,-447 653.876,-447 653.876,-447 653.876,-447 658.876,-447 653.876,-442.5 663.876,-447 663.876,-447"/>
<text text-anchor="middle" x="591" y="-451" font-family="Sans" font-size="10.00">replaces</text>
</g>
<!-- configuration&#45;modules&#45;core#1235 -->
<g id="node17" class="node"><title>configuration-modules-core#1235</title>
<a xlink:href="https://github.com/quattor/configuration-modules-core/pull/1235" xlink:title="ncm-ofed: import CAF::Service and enable NoActionSupported" target="_parent">
<polygon fill="#6e5494" stroke="black" points="518,-402 346,-402 346,-348 518,-348 518,-402"/>
<text text-anchor="middle" x="432" y="-379" font-family="Sans" font-size="10.00">pull-request</text>
<text text-anchor="middle" x="432" y="-366" font-family="Sans" font-size="10.00">configuration-modules-core#1235</text>
</a>
</g>
<!-- configuration&#45;modules&#45;core#1234 -->
<g id="node19" class="node"><title>configuration-modules-core#1234</title>
<a xlink:href="https://github.com/quattor/configuration-modules-core/issues/1234" xlink:title="ncm-ofed: no loading of CAF::Service" target="_parent">
<ellipse fill="#bd2c00" stroke="black" cx="750" cy="-364" rx="121.122" ry="38.1838"/>
<text text-anchor="middle" x="750" y="-368" font-family="Sans" font-size="10.00">issue</text>
<text text-anchor="middle" x="750" y="-355" font-family="Sans" font-size="10.00">configuration-modules-core#1234</text>
</a>
</g>
<!-- configuration&#45;modules&#45;core#1235&#45;&gt;configuration&#45;modules&#45;core#1234 -->
<g id="edge14" class="edge"><title>configuration-modules-core#1235-&gt;configuration-modules-core#1234</title>
<path fill="none" stroke="black" stroke-width="2" d="M518.055,-372.023C549.111,-370.949 584.906,-369.711 618.938,-368.534"/>
<polygon fill="black" stroke="black" points="619.085,-372.031 628.958,-368.187 618.843,-365.035 619.085,-372.031"/>
<text text-anchor="middle" x="591" y="-374" font-family="Sans" font-size="10.00">fixes</text>
</g>
<!-- configuration&#45;modules&#45;core#1230 -->
<g id="node20" class="node"><title>configuration-modules-core#1230</title>
<a xlink:href="https://github.com/quattor/configuration-modules-core/pull/1230" xlink:title="ncm-ceph: support for luminous, bluestore, ceph-volume and per host osd deployment" target="_parent">
<polygon fill="#6cc644" stroke="black" points="204,-1010 32,-1010 32,-956 204,-956 204,-1010"/>
<text text-anchor="middle" x="118" y="-987" font-family="Sans" font-size="10.00">pull-request</text>
<text text-anchor="middle" x="118" y="-974" font-family="Sans" font-size="10.00">configuration-modules-core#1230</text>
</a>
</g>
<!-- configuration&#45;modules&#45;core#1224 -->
<g id="node22" class="node"><title>configuration-modules-core#1224</title>
<polygon fill="lightgrey" stroke="black" points="518,-554.5 346,-554.5 346,-513.5 518,-513.5 518,-554.5"/>
<text text-anchor="middle" x="432" y="-531.5" font-family="Sans" font-size="10.00">configuration-modules-core#1224</text>
</g>
<!-- configuration&#45;modules&#45;core#1230&#45;&gt;configuration&#45;modules&#45;core#1224 -->
<g id="edge16" class="edge"><title>configuration-modules-core#1230-&gt;configuration-modules-core#1224</title>
<path fill="none" stroke="black" stroke-dasharray="1,5" d="M141.587,-955.801C169.695,-921.591 215.436,-859.812 236,-798 252.953,-747.041 217.063,-595.985 254,-557 274.891,-534.95 305.681,-526.358 335.803,-524.172"/>
<polygon fill="black" stroke="black" points="345.977,-523.666 336.213,-528.657 340.983,-523.914 335.99,-524.162 335.99,-524.162 335.99,-524.162 340.983,-523.914 335.766,-519.668 345.977,-523.666 345.977,-523.666"/>
<text text-anchor="middle" x="273" y="-561" font-family="Sans" font-size="10.00">replaces</text>
</g>
<!-- configuration&#45;modules&#45;core#740 -->
<g id="node24" class="node"><title>configuration-modules-core#740</title>
<a xlink:href="https://github.com/quattor/configuration-modules-core/issues/740" xlink:title="ncm-ceph: add boolean to disable osd features" target="_parent">
<ellipse fill="#6cc644" stroke="black" cx="432" cy="-856" rx="118.087" ry="38.1838"/>
<text text-anchor="middle" x="432" y="-860" font-family="Sans" font-size="10.00">issue</text>
<text text-anchor="middle" x="432" y="-847" font-family="Sans" font-size="10.00">configuration-modules-core#740</text>
</a>
</g>
<!-- configuration&#45;modules&#45;core#1230&#45;&gt;configuration&#45;modules&#45;core#740 -->
<g id="edge18" class="edge"><title>configuration-modules-core#1230-&gt;configuration-modules-core#740</title>
<path fill="none" stroke="black" stroke-width="2" d="M177.679,-955.914C213.491,-939.946 260.084,-919.67 302,-903 315.046,-897.812 328.918,-892.54 342.557,-887.495"/>
<polygon fill="black" stroke="black" points="343.771,-890.777 351.949,-884.042 341.356,-884.207 343.771,-890.777"/>
<text text-anchor="middle" x="273" y="-926" font-family="Sans" font-size="10.00">fixes</text>
</g>
<!-- configuration&#45;modules&#45;core#741 -->
<g id="node26" class="node"><title>configuration-modules-core#741</title>
<a xlink:href="https://github.com/quattor/configuration-modules-core/issues/741" xlink:title="ncm-ceph: check possibilities to rescale ceph in Jewel" target="_parent">
<ellipse fill="#6cc644" stroke="black" cx="432" cy="-950" rx="118.087" ry="38.1838"/>
<text text-anchor="middle" x="432" y="-954" font-family="Sans" font-size="10.00">issue</text>
<text text-anchor="middle" x="432" y="-941" font-family="Sans" font-size="10.00">configuration-modules-core#741</text>
</a>
</g>
<!-- configuration&#45;modules&#45;core#1230&#45;&gt;configuration&#45;modules&#45;core#741 -->
<g id="edge20" class="edge"><title>configuration-modules-core#1230-&gt;configuration-modules-core#741</title>
<path fill="none" stroke="black" stroke-width="2" d="M204.217,-973.939C236.688,-970.526 274.267,-966.577 309.424,-962.882"/>
<polygon fill="black" stroke="black" points="310.178,-966.322 319.757,-961.796 309.446,-959.361 310.178,-966.322"/>
<text text-anchor="middle" x="273" y="-973" font-family="Sans" font-size="10.00">fixes</text>
</g>
<!-- configuration&#45;modules&#45;core#742 -->
<g id="node28" class="node"><title>configuration-modules-core#742</title>
<a xlink:href="https://github.com/quattor/configuration-modules-core/issues/742" xlink:title="ncm-ceph: allow control over deploying admin keyrings along with ceph.conf" target="_parent">
<ellipse fill="#6cc644" stroke="black" cx="432" cy="-1044" rx="118.087" ry="38.1838"/>
<text text-anchor="middle" x="432" y="-1048" font-family="Sans" font-size="10.00">issue</text>
<text text-anchor="middle" x="432" y="-1035" font-family="Sans" font-size="10.00">configuration-modules-core#742</text>
</a>
</g>
<!-- configuration&#45;modules&#45;core#1230&#45;&gt;configuration&#45;modules&#45;core#742 -->
<g id="edge22" class="edge"><title>configuration-modules-core#1230-&gt;configuration-modules-core#742</title>
<path fill="none" stroke="black" stroke-width="2" d="M204.217,-999.749C240.216,-1006.74 282.495,-1014.96 320.79,-1022.4"/>
<polygon fill="black" stroke="black" points="320.47,-1025.9 330.954,-1024.37 321.805,-1019.03 320.47,-1025.9"/>
<text text-anchor="middle" x="273" y="-1020" font-family="Sans" font-size="10.00">fixes</text>
</g>
<!-- configuration&#45;modules&#45;core#743 -->
<g id="node30" class="node"><title>configuration-modules-core#743</title>
<a xlink:href="https://github.com/quattor/configuration-modules-core/issues/743" xlink:title="ncm-ceph: check admin keyring is current before running ceph-deploy admin" target="_parent">
<ellipse fill="#6cc644" stroke="black" cx="432" cy="-1138" rx="118.087" ry="38.1838"/>
<text text-anchor="middle" x="432" y="-1142" font-family="Sans" font-size="10.00">issue</text>
<text text-anchor="middle" x="432" y="-1129" font-family="Sans" font-size="10.00">configuration-modules-core#743</text>
</a>
</g>
<!-- configuration&#45;modules&#45;core#1230&#45;&gt;configuration&#45;modules&#45;core#743 -->
<g id="edge24" class="edge"><title>configuration-modules-core#1230-&gt;configuration-modules-core#743</title>
<path fill="none" stroke="black" stroke-width="2" d="M159.194,-1010.15C195.722,-1033.49 251.033,-1067.08 302,-1091 314.15,-1096.7 327.196,-1102.16 340.166,-1107.2"/>
<polygon fill="black" stroke="black" points="338.992,-1110.5 349.583,-1110.8 341.489,-1103.96 338.992,-1110.5"/>
<text text-anchor="middle" x="273" y="-1091" font-family="Sans" font-size="10.00">fixes</text>
</g>
<!-- configuration&#45;modules&#45;core#776 -->
<g id="node32" class="node"><title>configuration-modules-core#776</title>
<a xlink:href="https://github.com/quattor/configuration-modules-core/issues/776" xlink:title="ncm-ceph: ceph mds stat output redesigned on Jewel" target="_parent">
<ellipse fill="#6cc644" stroke="black" cx="432" cy="-1232" rx="118.087" ry="38.1838"/>
<text text-anchor="middle" x="432" y="-1236" font-family="Sans" font-size="10.00">issue</text>
<text text-anchor="middle" x="432" y="-1223" font-family="Sans" font-size="10.00">configuration-modules-core#776</text>
</a>
</g>
<!-- configuration&#45;modules&#45;core#1230&#45;&gt;configuration&#45;modules&#45;core#776 -->
<g id="edge26" class="edge"><title>configuration-modules-core#1230-&gt;configuration-modules-core#776</title>
<path fill="none" stroke="black" stroke-width="2" d="M136.017,-1010.08C165.789,-1052.9 229.248,-1136.35 302,-1185 311.897,-1191.62 322.84,-1197.44 334.052,-1202.52"/>
<polygon fill="black" stroke="black" points="332.948,-1205.85 343.516,-1206.61 335.728,-1199.43 332.948,-1205.85"/>
<text text-anchor="middle" x="273" y="-1181" font-family="Sans" font-size="10.00">fixes</text>
</g>
<!-- configuration&#45;modules&#45;core#1220 -->
<g id="node33" class="node"><title>configuration-modules-core#1220</title>
<a xlink:href="https://github.com/quattor/configuration-modules-core/pull/1220" xlink:title="ncm-cups: Stop daemon if server not enabled" target="_parent">
<polygon fill="#6e5494" stroke="black" points="518,-330 346,-330 346,-276 518,-276 518,-330"/>
<text text-anchor="middle" x="432" y="-307" font-family="Sans" font-size="10.00">pull-request</text>
<text text-anchor="middle" x="432" y="-294" font-family="Sans" font-size="10.00">configuration-modules-core#1220</text>
</a>
</g>
<!-- configuration&#45;modules&#45;core#1189 -->
<g id="node35" class="node"><title>configuration-modules-core#1189</title>
<a xlink:href="https://github.com/quattor/configuration-modules-core/issues/1189" xlink:title="ncm-cups: Nodetype of client should stop running cups daemon" target="_parent">
<ellipse fill="#bd2c00" stroke="black" cx="750" cy="-270" rx="121.122" ry="38.1838"/>
<text text-anchor="middle" x="750" y="-274" font-family="Sans" font-size="10.00">issue</text>
<text text-anchor="middle" x="750" y="-261" font-family="Sans" font-size="10.00">configuration-modules-core#1189</text>
</a>
</g>
<!-- configuration&#45;modules&#45;core#1220&#45;&gt;configuration&#45;modules&#45;core#1189 -->
<g id="edge28" class="edge"><title>configuration-modules-core#1220-&gt;configuration-modules-core#1189</title>
<path fill="none" stroke="black" stroke-width="2" d="M518.055,-294.07C550.841,-290.667 588.91,-286.717 624.61,-283.012"/>
<polygon fill="black" stroke="black" points="625.024,-286.488 634.61,-281.974 624.302,-279.525 625.024,-286.488"/>
<text text-anchor="middle" x="591" y="-292" font-family="Sans" font-size="10.00">fixes</text>
</g>
<!-- configuration&#45;modules&#45;core#1105 -->
<g id="node36" class="node"><title>configuration-modules-core#1105</title>
<a xlink:href="https://github.com/quattor/configuration-modules-core/pull/1105" xlink:title="ncm-authconfig: fix krb5_realm, user_object_class and newline between ldap_krb5_canonicalize and ldap_krb5_realm" target="_parent">
<polygon fill="#6cc644" stroke="black" points="204,-684 32,-684 32,-630 204,-630 204,-684"/>
<text text-anchor="middle" x="118" y="-661" font-family="Sans" font-size="10.00">pull-request</text>
<text text-anchor="middle" x="118" y="-648" font-family="Sans" font-size="10.00">configuration-modules-core#1105</text>
</a>
</g>
<!-- configuration&#45;modules&#45;core#1100 -->
<g id="node38" class="node"><title>configuration-modules-core#1100</title>
<a xlink:href="https://github.com/quattor/configuration-modules-core/issues/1100" xlink:title="ncm-authconfig : no newline after krb5_canonicalize option" target="_parent">
<ellipse fill="#6cc644" stroke="black" cx="432" cy="-220" rx="121.122" ry="38.1838"/>
<text text-anchor="middle" x="432" y="-224" font-family="Sans" font-size="10.00">issue</text>
<text text-anchor="middle" x="432" y="-211" font-family="Sans" font-size="10.00">configuration-modules-core#1100</text>
</a>
</g>
<!-- configuration&#45;modules&#45;core#1105&#45;&gt;configuration&#45;modules&#45;core#1100 -->
<g id="edge30" class="edge"><title>configuration-modules-core#1105-&gt;configuration-modules-core#1100</title>
<path fill="none" stroke="black" stroke-width="2" d="M127.323,-629.983C146.657,-575.714 194.336,-450.572 254,-356 267.967,-333.861 280.323,-334.428 292,-311 300.946,-293.051 288.721,-282.028 302,-267 308.674,-259.447 316.658,-253.107 325.341,-247.785"/>
<polygon fill="black" stroke="black" points="327.226,-250.741 334.235,-242.796 323.801,-244.636 327.226,-250.741"/>
<text text-anchor="middle" x="273" y="-360" font-family="Sans" font-size="10.00">fixes</text>
</g>
<!-- configuration&#45;modules&#45;core#1102 -->
<g id="node40" class="node"><title>configuration-modules-core#1102</title>
<a xlink:href="https://github.com/quattor/configuration-modules-core/issues/1102" xlink:title="ncm-authconfig: There is no " target="_parent">
<ellipse fill="#6cc644" stroke="black" cx="432" cy="-126" rx="121.122" ry="38.1838"/>
<text text-anchor="middle" x="432" y="-130" font-family="Sans" font-size="10.00">issue</text>
<text text-anchor="middle" x="432" y="-117" font-family="Sans" font-size="10.00">configuration-modules-core#1102</text>
</a>
</g>
<!-- configuration&#45;modules&#45;core#1105&#45;&gt;configuration&#45;modules&#45;core#1102 -->
<g id="edge32" class="edge"><title>configuration-modules-core#1105-&gt;configuration-modules-core#1102</title>
<path fill="none" stroke="black" stroke-width="2" d="M120.404,-629.921C129.044,-548.798 165.67,-305.202 302,-173 309.507,-165.72 318.225,-159.557 327.524,-154.341"/>
<polygon fill="black" stroke="black" points="329.339,-157.342 336.597,-149.624 326.11,-151.131 329.339,-157.342"/>
<text text-anchor="middle" x="273" y="-230" font-family="Sans" font-size="10.00">fixes</text>
</g>
<!-- configuration&#45;modules&#45;core#1103 -->
<g id="node42" class="node"><title>configuration-modules-core#1103</title>
<a xlink:href="https://github.com/quattor/configuration-modules-core/issues/1103" xlink:title="ncm-authconfig: krb5_realm = ARRAY(0x39a5830)" target="_parent">
<ellipse fill="#6cc644" stroke="black" cx="432" cy="-668" rx="121.122" ry="38.1838"/>
<text text-anchor="middle" x="432" y="-672" font-family="Sans" font-size="10.00">issue</text>
<text text-anchor="middle" x="432" y="-659" font-family="Sans" font-size="10.00">configuration-modules-core#1103</text>
</a>
</g>
<!-- configuration&#45;modules&#45;core#1105&#45;&gt;configuration&#45;modules&#45;core#1103 -->
<g id="edge34" class="edge"><title>configuration-modules-core#1105-&gt;configuration-modules-core#1103</title>
<path fill="none" stroke="black" stroke-width="2" d="M204.217,-660.02C234.08,-661.067 268.265,-662.264 300.912,-663.408"/>
<polygon fill="black" stroke="black" points="300.871,-666.908 310.988,-663.761 301.116,-659.913 300.871,-666.908"/>
<text text-anchor="middle" x="273" y="-667" font-family="Sans" font-size="10.00">fixes</text>
</g>
<!-- configuration&#45;modules&#45;core#1148 -->
<g id="node43" class="node"><title>configuration-modules-core#1148</title>
<a xlink:href="https://github.com/quattor/configuration-modules-core/pull/1148" xlink:title="ncm-spma: Remove support from groups from spma yumng backend" target="_parent">
<polygon fill="#6cc644" stroke="black" points="204,-1794 32,-1794 32,-1740 204,-1740 204,-1794"/>
<text text-anchor="middle" x="118" y="-1771" font-family="Sans" font-size="10.00">pull-request</text>
<text text-anchor="middle" x="118" y="-1758" font-family="Sans" font-size="10.00">configuration-modules-core#1148</text>
</a>
</g>
<!-- configuration&#45;modules&#45;core#952 -->
<g id="node45" class="node"><title>configuration-modules-core#952</title>
<a xlink:href="https://github.com/quattor/configuration-modules-core/issues/952" xlink:title="ncm-spma (yumng): Remove support for package groups" target="_parent">
<ellipse fill="#6cc644" stroke="black" cx="432" cy="-1767" rx="118.087" ry="38.1838"/>
<text text-anchor="middle" x="432" y="-1771" font-family="Sans" font-size="10.00">issue</text>
<text text-anchor="middle" x="432" y="-1758" font-family="Sans" font-size="10.00">configuration-modules-core#952</text>
</a>
</g>
<!-- configuration&#45;modules&#45;core#1148&#45;&gt;configuration&#45;modules&#45;core#952 -->
<g id="edge36" class="edge"><title>configuration-modules-core#1148-&gt;configuration-modules-core#952</title>
<path fill="none" stroke="black" stroke-width="2" d="M204.217,-1767C234.903,-1767 270.151,-1767 303.606,-1767"/>
<polygon fill="black" stroke="black" points="303.924,-1770.5 313.924,-1767 303.924,-1763.5 303.924,-1770.5"/>
<text text-anchor="middle" x="273" y="-1771" font-family="Sans" font-size="10.00">fixes</text>
</g>
<!-- configuration&#45;modules&#45;core#950 -->
<g id="node46" class="node"><title>configuration-modules-core#950</title>
<a xlink:href="https://github.com/quattor/configuration-modules-core/issues/950" xlink:title="ncm-spma: Remove support for package groups from yum backends" target="_parent">
<ellipse fill="#6cc644" stroke="black" cx="118" cy="-1682" rx="118.087" ry="38.1838"/>
<text text-anchor="middle" x="118" y="-1686" font-family="Sans" font-size="10.00">issue</text>
<text text-anchor="middle" x="118" y="-1673" font-family="Sans" font-size="10.00">configuration-modules-core#950</text>
</a>
</g>
<!-- configuration&#45;modules&#45;core#950&#45;&gt;configuration&#45;modules&#45;core#952 -->
<g id="edge40" class="edge"><title>configuration-modules-core#950-&gt;configuration-modules-core#952</title>
<path fill="none" stroke="black" stroke-dasharray="5,2" d="M208.401,-1706.47C246.98,-1716.92 292.147,-1729.14 331.747,-1739.86"/>
<polygon fill="none" stroke="black" points="330.855,-1743.25 341.422,-1742.48 332.684,-1736.49 330.855,-1743.25"/>
<text text-anchor="middle" x="273" y="-1731" font-family="Sans" font-size="10.00">requires</text>
</g>
<!-- configuration&#45;modules&#45;core#951 -->
<g id="node48" class="node"><title>configuration-modules-core#951</title>
<a xlink:href="https://github.com/quattor/configuration-modules-core/issues/951" xlink:title="ncm-spma (yum): Remove support for package groups" target="_parent">
<ellipse fill="#6cc644" stroke="black" cx="432" cy="-1673" rx="118.087" ry="38.1838"/>
<text text-anchor="middle" x="432" y="-1677" font-family="Sans" font-size="10.00">issue</text>
<text text-anchor="middle" x="432" y="-1664" font-family="Sans" font-size="10.00">configuration-modules-core#951</text>
</a>
</g>
<!-- configuration&#45;modules&#45;core#950&#45;&gt;configuration&#45;modules&#45;core#951 -->
<g id="edge38" class="edge"><title>configuration-modules-core#950-&gt;configuration-modules-core#951</title>
<path fill="none" stroke="black" stroke-dasharray="5,2" d="M235.815,-1678.62C258.074,-1677.99 281.456,-1677.31 304.01,-1676.67"/>
<polygon fill="none" stroke="black" points="304.412,-1680.16 314.308,-1676.37 304.212,-1673.16 304.412,-1680.16"/>
<text text-anchor="middle" x="273" y="-1683" font-family="Sans" font-size="10.00">requires</text>
</g>
<!-- ncm&#45;ncd#117 -->
<g id="node50" class="node"><title>ncm-ncd#117</title>
<a xlink:href="https://github.com/quattor/ncm-ncd/pull/117" xlink:title="Allow component modules to be loaded from any path" target="_parent">
<polygon fill="#6cc644" stroke="black" points="161,-789 75,-789 75,-735 161,-735 161,-789"/>
<text text-anchor="middle" x="118" y="-766" font-family="Sans" font-size="10.00">pull-request</text>
<text text-anchor="middle" x="118" y="-753" font-family="Sans" font-size="10.00">ncm-ncd#117</text>
</a>
</g>
<!-- ncm&#45;ncd#116 -->
<g id="node52" class="node"><title>ncm-ncd#116</title>
<a xlink:href="https://github.com/quattor/ncm-ncd/issues/116" xlink:title="hasFile() prevents component modules from being relocated" target="_parent">
<ellipse fill="#6cc644" stroke="black" cx="432" cy="-762" rx="61.0181" ry="38.1838"/>
<text text-anchor="middle" x="432" y="-766" font-family="Sans" font-size="10.00">issue</text>
<text text-anchor="middle" x="432" y="-753" font-family="Sans" font-size="10.00">ncm-ncd#116</text>
</a>
</g>
<!-- ncm&#45;ncd#117&#45;&gt;ncm&#45;ncd#116 -->
<g id="edge42" class="edge"><title>ncm-ncd#117-&gt;ncm-ncd#116</title>
<path fill="none" stroke="black" stroke-width="2" d="M161.66,-762C212.954,-762 298.809,-762 360.001,-762"/>
<polygon fill="black" stroke="black" points="360.362,-765.5 370.362,-762 360.362,-758.5 360.362,-765.5"/>
<text text-anchor="middle" x="273" y="-766" font-family="Sans" font-size="10.00">fixes</text>
</g>
<!-- template&#45;library&#45;standard#109 -->
<g id="node53" class="node"><title>template-library-standard#109</title>
<a xlink:href="https://github.com/quattor/template-library-standard/pull/109" xlink:title="Add sample of nvidia workstation and compute GPUs" target="_parent">
<polygon fill="#6e5494" stroke="black" points="510,-70 354,-70 354,-16 510,-16 510,-70"/>
<text text-anchor="middle" x="432" y="-47" font-family="Sans" font-size="10.00">pull-request</text>
<text text-anchor="middle" x="432" y="-34" font-family="Sans" font-size="10.00">template-library-standard#109</text>
</a>
</g>
<!-- template&#45;library&#45;core#172 -->
<g id="node55" class="node"><title>template-library-core#172</title>
<a xlink:href="https://github.com/quattor/template-library-core/pull/172" xlink:title="Allow RAM to be modelled on GPU cards" target="_parent">
<polygon fill="#6e5494" stroke="black" points="819,-70 681,-70 681,-16 819,-16 819,-70"/>
<text text-anchor="middle" x="750" y="-47" font-family="Sans" font-size="10.00">pull-request</text>
<text text-anchor="middle" x="750" y="-34" font-family="Sans" font-size="10.00">template-library-core#172</text>
</a>
</g>
<!-- template&#45;library&#45;standard#109&#45;&gt;template&#45;library&#45;core#172 -->
<g id="edge44" class="edge"><title>template-library-standard#109-&gt;template-library-core#172</title>
<path fill="none" stroke="black" stroke-dasharray="5,2" d="M510.607,-43C559.372,-43 621.83,-43 670.72,-43"/>
<polygon fill="none" stroke="black" points="670.938,-46.5001 680.937,-43 670.937,-39.5001 670.938,-46.5001"/>
<text text-anchor="middle" x="591" y="-47" font-family="Sans" font-size="10.00">requires</text>
</g>
</g>
</svg>
