<?xml version="1.0" encoding="UTF-8" standalone="no"?>
<?xml-stylesheet href="relationships.css" type="text/css"?>
<!-- Generated by graphviz version 2.26.0 (20091210.2329)
 -->
<!-- Title: Dependencies Pages: 1 -->
<svg xmlns="http://www.w3.org/2000/svg" xmlns:xlink="http://www.w3.org/1999/xlink" width="1160pt" height="2107pt" viewBox="0.00 0.00 1160.00 2107.00">
<g id="graph1" class="graph" transform="scale(1 1) rotate(0) translate(4 2103)">
<title>Dependencies</title>
<polygon fill="white" stroke="white" points="-4,5 -4,-2103 1157,-2103 1157,5 -4,5"/>
<g id="graph4" class="cluster"><title>cluster_18.6</title>
<polygon fill="none" stroke="black" points="302,-108 302,-1335 1144,-1335 1144,-108 302,-108"/>
<text text-anchor="middle" x="723" y="-1320.2" font-family="Sans" font-size="12.00">18.6</text>
</g>
<!-- aii#284 -->
<g id="node1" class="node"><title>aii#284</title>
<a xlink:href="https://github.com/quattor/aii/pull/284" xlink:title=" pxelinux/ks: support ipdev: use ip configuration from ipdev device" target="_parent">
<polygon fill="#6cc644" stroke="black" points="471,-1303 393,-1303 393,-1249 471,-1249 471,-1303"/>
<text text-anchor="middle" x="432" y="-1280" font-family="Sans" font-size="10.00">pull-request</text>
<text text-anchor="middle" x="432" y="-1267" font-family="Sans" font-size="10.00">aii#284</text>
</a>
</g>
<!-- aii#283 -->
<g id="node3" class="node"><title>aii#283</title>
<a xlink:href="https://github.com/quattor/aii/pull/283" xlink:title="ks: support leavebootorder option" target="_parent">
<polygon fill="#6e5494" stroke="black" points="789,-1303 711,-1303 711,-1249 789,-1249 789,-1303"/>
<text text-anchor="middle" x="750" y="-1280" font-family="Sans" font-size="10.00">pull-request</text>
<text text-anchor="middle" x="750" y="-1267" font-family="Sans" font-size="10.00">aii#283</text>
</a>
</g>
<!-- aii#284&#45;&gt;aii#283 -->
<g id="edge2" class="edge"><title>aii#284-&gt;aii#283</title>
<path fill="none" stroke="black" stroke-dasharray="5,2" d="M471.632,-1276C529.513,-1276 637.13,-1276 700.256,-1276"/>
<polygon fill="none" stroke="black" points="700.369,-1279.5 710.369,-1276 700.369,-1272.5 700.369,-1279.5"/>
<text text-anchor="middle" x="591" y="-1280" font-family="Sans" font-size="10.00">requires</text>
</g>
<!-- aii#281 -->
<g id="node4" class="node"><title>aii#281</title>
<a xlink:href="https://github.com/quattor/aii/pull/281" xlink:title="ks: set useexisting_lv flag for el7" target="_parent">
<polygon fill="#6e5494" stroke="black" points="471,-1231 393,-1231 393,-1177 471,-1177 471,-1231"/>
<text text-anchor="middle" x="432" y="-1208" font-family="Sans" font-size="10.00">pull-request</text>
<text text-anchor="middle" x="432" y="-1195" font-family="Sans" font-size="10.00">aii#281</text>
</a>
</g>
<!-- ncm&#45;lib&#45;blockdevices#88 -->
<g id="node6" class="node"><title>ncm-lib-blockdevices#88</title>
<a xlink:href="https://github.com/quattor/ncm-lib-blockdevices/pull/88" xlink:title="LV: add useexisting_lv flag and support useexisting option in ks" target="_parent">
<polygon fill="#6e5494" stroke="black" points="818,-1231 682,-1231 682,-1177 818,-1177 818,-1231"/>
<text text-anchor="middle" x="750" y="-1208" font-family="Sans" font-size="10.00">pull-request</text>
<text text-anchor="middle" x="750" y="-1195" font-family="Sans" font-size="10.00">ncm-lib-blockdevices#88</text>
</a>
</g>
<!-- aii#281&#45;&gt;ncm&#45;lib&#45;blockdevices#88 -->
<g id="edge4" class="edge"><title>aii#281-&gt;ncm-lib-blockdevices#88</title>
<path fill="none" stroke="black" stroke-dasharray="5,2" d="M471.632,-1204C521.47,-1204 608.181,-1204 671.615,-1204"/>
<polygon fill="none" stroke="black" points="671.982,-1207.5 681.982,-1204 671.982,-1200.5 671.982,-1207.5"/>
<text text-anchor="middle" x="591" y="-1208" font-family="Sans" font-size="10.00">requires</text>
</g>
<!-- ncm&#45;lib&#45;blockdevices#82 -->
<g id="node60" class="node"><title>ncm-lib-blockdevices#82</title>
<a xlink:href="https://github.com/quattor/ncm-lib-blockdevices/issues/82" xlink:title="kickstart configuration of logvol is incomplete on SL7" target="_parent">
<ellipse fill="#bd2c00" stroke="black" cx="1040" cy="-1204" rx="96.1665" ry="38.1838"/>
<text text-anchor="middle" x="1040" y="-1208" font-family="Sans" font-size="10.00">issue</text>
<text text-anchor="middle" x="1040" y="-1195" font-family="Sans" font-size="10.00">ncm-lib-blockdevices#82</text>
</a>
</g>
<!-- ncm&#45;lib&#45;blockdevices#88&#45;&gt;ncm&#45;lib&#45;blockdevices#82 -->
<g id="edge52" class="edge"><title>ncm-lib-blockdevices#88-&gt;ncm-lib-blockdevices#82</title>
<path fill="none" stroke="black" stroke-width="2" d="M818.359,-1204C852.715,-1204 895.126,-1204 933.621,-1204"/>
<polygon fill="black" stroke="black" points="933.838,-1207.5 943.838,-1204 933.838,-1200.5 933.838,-1207.5"/>
<text text-anchor="middle" x="908" y="-1208" font-family="Sans" font-size="10.00">fixes</text>
</g>
<!-- CAF#257 -->
<g id="node7" class="node"><title>CAF#257</title>
<a xlink:href="https://github.com/quattor/CAF/pull/257" xlink:title="Process: run process as another user" target="_parent">
<polygon fill="#6cc644" stroke="black" points="471,-1148 393,-1148 393,-1094 471,-1094 471,-1148"/>
<text text-anchor="middle" x="432" y="-1125" font-family="Sans" font-size="10.00">pull-request</text>
<text text-anchor="middle" x="432" y="-1112" font-family="Sans" font-size="10.00">CAF#257</text>
</a>
</g>
<!-- CAF#253 -->
<g id="node9" class="node"><title>CAF#253</title>
<a xlink:href="https://github.com/quattor/CAF/issues/253" xlink:title="CAF::Process: Include an option to execute the command as an specific user" target="_parent">
<ellipse fill="#6cc644" stroke="black" cx="750" cy="-1121" rx="48.9975" ry="38.1838"/>
<text text-anchor="middle" x="750" y="-1125" font-family="Sans" font-size="10.00">issue</text>
<text text-anchor="middle" x="750" y="-1112" font-family="Sans" font-size="10.00">CAF#253</text>
</a>
</g>
<!-- CAF#257&#45;&gt;CAF#253 -->
<g id="edge6" class="edge"><title>CAF#257-&gt;CAF#253</title>
<path fill="none" stroke="black" stroke-width="2" d="M471.829,-1111.02C507.829,-1103.15 562.328,-1094.11 610,-1098 637.079,-1100.21 666.814,-1104.78 691.889,-1109.28"/>
<polygon fill="black" stroke="black" points="691.502,-1112.76 701.968,-1111.12 692.762,-1105.88 691.502,-1112.76"/>
<text text-anchor="middle" x="591" y="-1102" font-family="Sans" font-size="10.00">fixes</text>
</g>
<!-- CAF#257&#45;&gt;CAF#253 -->
<g id="edge8" class="edge"><title>CAF#257-&gt;CAF#253</title>
<path fill="none" stroke="black" stroke-width="2" d="M471.632,-1121C526.517,-1121 626.121,-1121 690.107,-1121"/>
<polygon fill="black" stroke="black" points="690.449,-1124.5 700.449,-1121 690.449,-1117.5 690.449,-1124.5"/>
<text text-anchor="middle" x="591" y="-1125" font-family="Sans" font-size="10.00">fixes</text>
</g>
<!-- CAF#110 -->
<g id="node11" class="node"><title>CAF#110</title>
<a xlink:href="https://github.com/quattor/CAF/pull/110" xlink:title="CAF::Download class: API proposal" target="_parent">
<polygon fill="#6cc644" stroke="black" points="157,-1390 79,-1390 79,-1336 157,-1336 157,-1390"/>
<text text-anchor="middle" x="118" y="-1367" font-family="Sans" font-size="10.00">pull-request</text>
<text text-anchor="middle" x="118" y="-1354" font-family="Sans" font-size="10.00">CAF#110</text>
</a>
</g>
<!-- CAF#120 -->
<g id="node13" class="node"><title>CAF#120</title>
<polygon fill="lightgrey" stroke="black" points="467,-1383.5 397,-1383.5 397,-1342.5 467,-1342.5 467,-1383.5"/>
<text text-anchor="middle" x="432" y="-1360.5" font-family="Sans" font-size="10.00">CAF#120</text>
</g>
<!-- CAF#110&#45;&gt;CAF#120 -->
<g id="edge10" class="edge"><title>CAF#110-&gt;CAF#120</title>
<path fill="none" stroke="black" stroke-dasharray="5,2" d="M157.768,-1363C216.269,-1363 325.221,-1363 386.719,-1363"/>
<polygon fill="none" stroke="black" points="386.897,-1366.5 396.897,-1363 386.897,-1359.5 386.897,-1366.5"/>
<text text-anchor="middle" x="273" y="-1367" font-family="Sans" font-size="10.00">requires</text>
</g>
<!-- CCM#186 -->
<g id="node14" class="node"><title>CCM#186</title>
<a xlink:href="https://github.com/quattor/CCM/pull/186" xlink:title="TextRender: add support for jsonpretty type" target="_parent">
<polygon fill="#6cc644" stroke="black" points="789,-828 711,-828 711,-774 789,-774 789,-828"/>
<text text-anchor="middle" x="750" y="-805" font-family="Sans" font-size="10.00">pull-request</text>
<text text-anchor="middle" x="750" y="-792" font-family="Sans" font-size="10.00">CCM#186</text>
</a>
</g>
<!-- CAF#265 -->
<g id="node16" class="node"><title>CAF#265</title>
<a xlink:href="https://github.com/quattor/CAF/pull/265" xlink:title="TextRender: add jsonpretty module" target="_parent">
<polygon fill="#6e5494" stroke="black" points="1079,-864 1001,-864 1001,-810 1079,-810 1079,-864"/>
<text text-anchor="middle" x="1040" y="-841" font-family="Sans" font-size="10.00">pull-request</text>
<text text-anchor="middle" x="1040" y="-828" font-family="Sans" font-size="10.00">CAF#265</text>
</a>
</g>
<!-- CCM#186&#45;&gt;CAF#265 -->
<g id="edge12" class="edge"><title>CCM#186-&gt;CAF#265</title>
<path fill="none" stroke="black" stroke-dasharray="5,2" d="M789.753,-797.942C825.595,-795.961 879.636,-794.908 926,-802 947.622,-805.307 970.813,-811.846 990.597,-818.385"/>
<polygon fill="none" stroke="black" points="989.713,-821.782 1000.31,-821.684 991.965,-815.154 989.713,-821.782"/>
<text text-anchor="middle" x="908" y="-806" font-family="Sans" font-size="10.00">requires</text>
</g>
<!-- CCM#186&#45;&gt;CAF#265 -->
<g id="edge14" class="edge"><title>CCM#186-&gt;CAF#265</title>
<path fill="none" stroke="black" stroke-dasharray="5,2" d="M789.715,-805.93C841.85,-812.402 933.382,-823.765 990.127,-830.809"/>
<polygon fill="none" stroke="black" points="989.945,-834.313 1000.3,-832.072 990.808,-827.366 989.945,-834.313"/>
<text text-anchor="middle" x="908" y="-826" font-family="Sans" font-size="10.00">requires</text>
</g>
<!-- configuration&#45;modules&#45;core#1282 -->
<g id="node18" class="node"><title>configuration-modules-core#1282</title>
<a xlink:href="https://github.com/quattor/configuration-modules-core/pull/1282" xlink:title="ncm-cron: fix test of /system/archetype/os" target="_parent">
<polygon fill="#6e5494" stroke="black" points="518,-1054 346,-1054 346,-1000 518,-1000 518,-1054"/>
<text text-anchor="middle" x="432" y="-1031" font-family="Sans" font-size="10.00">pull-request</text>
<text text-anchor="middle" x="432" y="-1018" font-family="Sans" font-size="10.00">configuration-modules-core#1282</text>
</a>
</g>
<!-- configuration&#45;modules&#45;core#1281 -->
<g id="node20" class="node"><title>configuration-modules-core#1281</title>
<a xlink:href="https://github.com/quattor/configuration-modules-core/issues/1281" xlink:title="ncm-cron 18.3.0: invalid /system/archetype/os test" target="_parent">
<ellipse fill="#bd2c00" stroke="black" cx="750" cy="-1027" rx="121.122" ry="38.1838"/>
<text text-anchor="middle" x="750" y="-1031" font-family="Sans" font-size="10.00">issue</text>
<text text-anchor="middle" x="750" y="-1018" font-family="Sans" font-size="10.00">configuration-modules-core#1281</text>
</a>
</g>
<!-- configuration&#45;modules&#45;core#1282&#45;&gt;configuration&#45;modules&#45;core#1281 -->
<g id="edge16" class="edge"><title>configuration-modules-core#1282-&gt;configuration-modules-core#1281</title>
<path fill="none" stroke="black" stroke-width="2" d="M518.055,-1027C548.811,-1027 584.215,-1027 617.951,-1027"/>
<polygon fill="black" stroke="black" points="618.361,-1030.5 628.361,-1027 618.361,-1023.5 618.361,-1030.5"/>
<text text-anchor="middle" x="591" y="-1031" font-family="Sans" font-size="10.00">fixes</text>
</g>
<!-- configuration&#45;modules&#45;core#1278 -->
<g id="node21" class="node"><title>configuration-modules-core#1278</title>
<a xlink:href="https://github.com/quattor/configuration-modules-core/pull/1278" xlink:title="ncm-ssh: schema update for changed AuthorizedKeysCommand* " target="_parent">
<polygon fill="#6cc644" stroke="black" points="518,-960 346,-960 346,-906 518,-906 518,-960"/>
<text text-anchor="middle" x="432" y="-937" font-family="Sans" font-size="10.00">pull-request</text>
<text text-anchor="middle" x="432" y="-924" font-family="Sans" font-size="10.00">configuration-modules-core#1278</text>
</a>
</g>
<!-- configuration&#45;modules&#45;core#1237 -->
<g id="node23" class="node"><title>configuration-modules-core#1237</title>
<a xlink:href="https://github.com/quattor/configuration-modules-core/issues/1237" xlink:title="ncm-ssh: config option renamed between RHEL6 and RHEL7" target="_parent">
<ellipse fill="#6cc644" stroke="black" cx="750" cy="-933" rx="121.122" ry="38.1838"/>
<text text-anchor="middle" x="750" y="-937" font-family="Sans" font-size="10.00">issue</text>
<text text-anchor="middle" x="750" y="-924" font-family="Sans" font-size="10.00">configuration-modules-core#1237</text>
</a>
</g>
<!-- configuration&#45;modules&#45;core#1278&#45;&gt;configuration&#45;modules&#45;core#1237 -->
<g id="edge18" class="edge"><title>configuration-modules-core#1278-&gt;configuration-modules-core#1237</title>
<path fill="none" stroke="black" stroke-width="2" d="M518.055,-933C548.811,-933 584.215,-933 617.951,-933"/>
<polygon fill="black" stroke="black" points="618.361,-936.5 628.361,-933 618.361,-929.5 618.361,-936.5"/>
<text text-anchor="middle" x="591" y="-937" font-family="Sans" font-size="10.00">fixes</text>
</g>
<!-- configuration&#45;modules&#45;core#1255 -->
<g id="node24" class="node"><title>configuration-modules-core#1255</title>
<a xlink:href="https://github.com/quattor/configuration-modules-core/pull/1255" xlink:title=" ncm-metaconfig: add irods config files" target="_parent">
<polygon fill="#6cc644" stroke="black" points="518,-858 346,-858 346,-804 518,-804 518,-858"/>
<text text-anchor="middle" x="432" y="-835" font-family="Sans" font-size="10.00">pull-request</text>
<text text-anchor="middle" x="432" y="-822" font-family="Sans" font-size="10.00">configuration-modules-core#1255</text>
</a>
</g>
<!-- configuration&#45;modules&#45;core#1255&#45;&gt;CCM#186 -->
<g id="edge22" class="edge"><title>configuration-modules-core#1255-&gt;CCM#186</title>
<path fill="none" stroke="black" stroke-dasharray="5,2" d="M518.055,-822.882C576.442,-817.373 651.583,-810.285 700.262,-805.692"/>
<polygon fill="none" stroke="black" points="700.606,-809.175 710.233,-804.752 699.948,-802.206 700.606,-809.175"/>
<text text-anchor="middle" x="591" y="-820" font-family="Sans" font-size="10.00">requires</text>
</g>
<!-- configuration&#45;modules&#45;core#1255&#45;&gt;CAF#265 -->
<g id="edge20" class="edge"><title>configuration-modules-core#1255-&gt;CAF#265</title>
<path fill="none" stroke="black" stroke-dasharray="5,2" d="M518.341,-834.071C552.491,-835.174 592.09,-836.313 628,-837 760.423,-839.532 793.558,-840.162 926,-839 947.07,-838.815 970.327,-838.438 990.311,-838.061"/>
<polygon fill="none" stroke="black" points="990.503,-841.558 1000.43,-837.865 990.367,-834.559 990.503,-841.558"/>
<text text-anchor="middle" x="750" y="-843" font-family="Sans" font-size="10.00">requires</text>
</g>
<!-- configuration&#45;modules&#45;core#1230 -->
<g id="node27" class="node"><title>configuration-modules-core#1230</title>
<a xlink:href="https://github.com/quattor/configuration-modules-core/pull/1230" xlink:title="ncm-ceph: support for luminous, bluestore, ceph-volume and per host osd deployment" target="_parent">
<polygon fill="#6cc644" stroke="black" points="518,-596 346,-596 346,-542 518,-542 518,-596"/>
<text text-anchor="middle" x="432" y="-573" font-family="Sans" font-size="10.00">pull-request</text>
<text text-anchor="middle" x="432" y="-560" font-family="Sans" font-size="10.00">configuration-modules-core#1230</text>
</a>
</g>
<!-- configuration&#45;modules&#45;core#1224 -->
<g id="node29" class="node"><title>configuration-modules-core#1224</title>
<polygon fill="lightgrey" stroke="black" points="836,-98.5 664,-98.5 664,-57.5 836,-57.5 836,-98.5"/>
<text text-anchor="middle" x="750" y="-75.5" font-family="Sans" font-size="10.00">configuration-modules-core#1224</text>
</g>
<!-- configuration&#45;modules&#45;core#1230&#45;&gt;configuration&#45;modules&#45;core#1224 -->
<g id="edge24" class="edge"><title>configuration-modules-core#1230-&gt;configuration-modules-core#1224</title>
<path fill="none" stroke="black" stroke-dasharray="1,5" d="M518.079,-558.278C531.984,-552.786 544.809,-544.736 554,-533 581.499,-497.886 547.707,-169.404 572,-132 589.933,-104.388 621.814,-90.2047 653.689,-83.1331"/>
<polygon fill="black" stroke="black" points="663.566,-81.1598 654.642,-87.5319 658.663,-82.1395 653.76,-83.1191 653.76,-83.1191 653.76,-83.1191 658.663,-82.1395 652.878,-78.7063 663.566,-81.1598 663.566,-81.1598"/>
<text text-anchor="middle" x="591" y="-136" font-family="Sans" font-size="10.00">replaces</text>
</g>
<!-- configuration&#45;modules&#45;core#740 -->
<g id="node31" class="node"><title>configuration-modules-core#740</title>
<a xlink:href="https://github.com/quattor/configuration-modules-core/issues/740" xlink:title="ncm-ceph: add boolean to disable osd features" target="_parent">
<ellipse fill="#6cc644" stroke="black" cx="750" cy="-436" rx="118.087" ry="38.1838"/>
<text text-anchor="middle" x="750" y="-440" font-family="Sans" font-size="10.00">issue</text>
<text text-anchor="middle" x="750" y="-427" font-family="Sans" font-size="10.00">configuration-modules-core#740</text>
</a>
</g>
<!-- configuration&#45;modules&#45;core#1230&#45;&gt;configuration&#45;modules&#45;core#740 -->
<g id="edge26" class="edge"><title>configuration-modules-core#1230-&gt;configuration-modules-core#740</title>
<path fill="none" stroke="black" stroke-width="2" d="M518.234,-547.181C530.468,-543.047 542.714,-538.321 554,-533 589.902,-516.073 592.811,-501.363 628,-483 638.297,-477.626 649.352,-472.523 660.451,-467.797"/>
<polygon fill="black" stroke="black" points="661.882,-470.993 669.769,-463.918 659.192,-464.53 661.882,-470.993"/>
<text text-anchor="middle" x="591" y="-528" font-family="Sans" font-size="10.00">fixes</text>
</g>
<!-- configuration&#45;modules&#45;core#741 -->
<g id="node33" class="node"><title>configuration-modules-core#741</title>
<a xlink:href="https://github.com/quattor/configuration-modules-core/issues/741" xlink:title="ncm-ceph: check possibilities to rescale ceph in Jewel" target="_parent">
<ellipse fill="#6cc644" stroke="black" cx="750" cy="-530" rx="118.087" ry="38.1838"/>
<text text-anchor="middle" x="750" y="-534" font-family="Sans" font-size="10.00">issue</text>
<text text-anchor="middle" x="750" y="-521" font-family="Sans" font-size="10.00">configuration-modules-core#741</text>
</a>
</g>
<!-- configuration&#45;modules&#45;core#1230&#45;&gt;configuration&#45;modules&#45;core#741 -->
<g id="edge28" class="edge"><title>configuration-modules-core#1230-&gt;configuration-modules-core#741</title>
<path fill="none" stroke="black" stroke-width="2" d="M518.055,-558.446C552.27,-554.25 592.239,-549.348 629.264,-544.807"/>
<polygon fill="black" stroke="black" points="630.122,-548.228 639.622,-543.537 629.27,-541.28 630.122,-548.228"/>
<text text-anchor="middle" x="591" y="-555" font-family="Sans" font-size="10.00">fixes</text>
</g>
<!-- configuration&#45;modules&#45;core#742 -->
<g id="node35" class="node"><title>configuration-modules-core#742</title>
<a xlink:href="https://github.com/quattor/configuration-modules-core/issues/742" xlink:title="ncm-ceph: allow control over deploying admin keyrings along with ceph.conf" target="_parent">
<ellipse fill="#6cc644" stroke="black" cx="750" cy="-624" rx="118.087" ry="38.1838"/>
<text text-anchor="middle" x="750" y="-628" font-family="Sans" font-size="10.00">issue</text>
<text text-anchor="middle" x="750" y="-615" font-family="Sans" font-size="10.00">configuration-modules-core#742</text>
</a>
</g>
<!-- configuration&#45;modules&#45;core#1230&#45;&gt;configuration&#45;modules&#45;core#742 -->
<g id="edge30" class="edge"><title>configuration-modules-core#1230-&gt;configuration-modules-core#742</title>
<path fill="none" stroke="black" stroke-width="2" d="M518.055,-583.884C554.274,-590.148 596.939,-597.527 635.737,-604.237"/>
<polygon fill="black" stroke="black" points="635.587,-607.764 646.037,-606.019 636.78,-600.866 635.587,-607.764"/>
<text text-anchor="middle" x="591" y="-603" font-family="Sans" font-size="10.00">fixes</text>
</g>
<!-- configuration&#45;modules&#45;core#743 -->
<g id="node37" class="node"><title>configuration-modules-core#743</title>
<a xlink:href="https://github.com/quattor/configuration-modules-core/issues/743" xlink:title="ncm-ceph: check admin keyring is current before running ceph-deploy admin" target="_parent">
<ellipse fill="#6cc644" stroke="black" cx="750" cy="-718" rx="118.087" ry="38.1838"/>
<text text-anchor="middle" x="750" y="-722" font-family="Sans" font-size="10.00">issue</text>
<text text-anchor="middle" x="750" y="-709" font-family="Sans" font-size="10.00">configuration-modules-core#743</text>
</a>
</g>
<!-- configuration&#45;modules&#45;core#1230&#45;&gt;configuration&#45;modules&#45;core#743 -->
<g id="edge32" class="edge"><title>configuration-modules-core#1230-&gt;configuration-modules-core#743</title>
<path fill="none" stroke="black" stroke-width="2" d="M480.385,-596.117C519.603,-617.622 576.599,-647.812 628,-671 639.102,-676.008 650.909,-680.982 662.638,-685.715"/>
<polygon fill="black" stroke="black" points="661.429,-689 672.014,-689.456 664.023,-682.499 661.429,-689"/>
<text text-anchor="middle" x="591" y="-664" font-family="Sans" font-size="10.00">fixes</text>
</g>
<!-- configuration&#45;modules&#45;core#776 -->
<g id="node39" class="node"><title>configuration-modules-core#776</title>
<a xlink:href="https://github.com/quattor/configuration-modules-core/issues/776" xlink:title="ncm-ceph: ceph mds stat output redesigned on Jewel" target="_parent">
<ellipse fill="#6cc644" stroke="black" cx="750" cy="-342" rx="118.087" ry="38.1838"/>
<text text-anchor="middle" x="750" y="-346" font-family="Sans" font-size="10.00">issue</text>
<text text-anchor="middle" x="750" y="-333" font-family="Sans" font-size="10.00">configuration-modules-core#776</text>
</a>
</g>
<!-- configuration&#45;modules&#45;core#1230&#45;&gt;configuration&#45;modules&#45;core#776 -->
<g id="edge34" class="edge"><title>configuration-modules-core#1230-&gt;configuration-modules-core#776</title>
<path fill="none" stroke="black" stroke-width="2" d="M518.14,-555.118C531.364,-549.907 543.94,-542.769 554,-533 572.452,-515.082 561.069,-501.282 572,-478 591.862,-435.696 591.91,-418.692 628,-389 635.69,-382.673 644.328,-377.134 653.363,-372.299"/>
<polygon fill="black" stroke="black" points="655.151,-375.317 662.51,-367.695 652.004,-369.065 655.151,-375.317"/>
<text text-anchor="middle" x="591" y="-482" font-family="Sans" font-size="10.00">fixes</text>
</g>
<!-- configuration&#45;modules&#45;core#1285 -->
<g id="node40" class="node"><title>configuration-modules-core#1285</title>
<a xlink:href="https://github.com/quattor/configuration-modules-core/pull/1285" xlink:title="ncm-authconfig: fix krb5_realm, user_object_class and newline between ldap_krb5_canonicalize and ldap_krb5_realm" target="_parent">
<polygon fill="#6cc644" stroke="black" points="204,-360 32,-360 32,-306 204,-306 204,-360"/>
<text text-anchor="middle" x="118" y="-337" font-family="Sans" font-size="10.00">pull-request</text>
<text text-anchor="middle" x="118" y="-324" font-family="Sans" font-size="10.00">configuration-modules-core#1285</text>
</a>
</g>
<!-- configuration&#45;modules&#45;core#1100 -->
<g id="node42" class="node"><title>configuration-modules-core#1100</title>
<a xlink:href="https://github.com/quattor/configuration-modules-core/issues/1100" xlink:title="ncm-authconfig : no newline after krb5_canonicalize option" target="_parent">
<ellipse fill="#6cc644" stroke="black" cx="432" cy="-298" rx="121.122" ry="38.1838"/>
<text text-anchor="middle" x="432" y="-302" font-family="Sans" font-size="10.00">issue</text>
<text text-anchor="middle" x="432" y="-289" font-family="Sans" font-size="10.00">configuration-modules-core#1100</text>
</a>
</g>
<!-- configuration&#45;modules&#45;core#1285&#45;&gt;configuration&#45;modules&#45;core#1100 -->
<g id="edge36" class="edge"><title>configuration-modules-core#1285-&gt;configuration-modules-core#1100</title>
<path fill="none" stroke="black" stroke-width="2" d="M204.217,-323.39C236.027,-319.844 272.739,-315.752 307.274,-311.903"/>
<polygon fill="black" stroke="black" points="307.88,-315.357 317.431,-310.77 307.104,-308.4 307.88,-315.357"/>
<text text-anchor="middle" x="273" y="-322" font-family="Sans" font-size="10.00">fixes</text>
</g>
<!-- configuration&#45;modules&#45;core#1102 -->
<g id="node44" class="node"><title>configuration-modules-core#1102</title>
<a xlink:href="https://github.com/quattor/configuration-modules-core/issues/1102" xlink:title="ncm-authconfig: There is no " target="_parent">
<ellipse fill="#6cc644" stroke="black" cx="432" cy="-486" rx="121.122" ry="38.1838"/>
<text text-anchor="middle" x="432" y="-490" font-family="Sans" font-size="10.00">issue</text>
<text text-anchor="middle" x="432" y="-477" font-family="Sans" font-size="10.00">configuration-modules-core#1102</text>
</a>
</g>
<!-- configuration&#45;modules&#45;core#1285&#45;&gt;configuration&#45;modules&#45;core#1102 -->
<g id="edge38" class="edge"><title>configuration-modules-core#1285-&gt;configuration-modules-core#1102</title>
<path fill="none" stroke="black" stroke-width="2" d="M159.989,-360.035C196.567,-382.886 251.511,-415.552 302,-439 313.795,-444.478 326.421,-449.742 338.998,-454.639"/>
<polygon fill="black" stroke="black" points="338.001,-458.004 348.591,-458.308 340.502,-451.466 338.001,-458.004"/>
<text text-anchor="middle" x="273" y="-439" font-family="Sans" font-size="10.00">fixes</text>
</g>
<!-- configuration&#45;modules&#45;core#1103 -->
<g id="node46" class="node"><title>configuration-modules-core#1103</title>
<a xlink:href="https://github.com/quattor/configuration-modules-core/issues/1103" xlink:title="ncm-authconfig: krb5_realm = ARRAY(0x39a5830)" target="_parent">
<ellipse fill="#6cc644" stroke="black" cx="432" cy="-392" rx="121.122" ry="38.1838"/>
<text text-anchor="middle" x="432" y="-396" font-family="Sans" font-size="10.00">issue</text>
<text text-anchor="middle" x="432" y="-383" font-family="Sans" font-size="10.00">configuration-modules-core#1103</text>
</a>
</g>
<!-- configuration&#45;modules&#45;core#1285&#45;&gt;configuration&#45;modules&#45;core#1103 -->
<g id="edge40" class="edge"><title>configuration-modules-core#1285-&gt;configuration-modules-core#1103</title>
<path fill="none" stroke="black" stroke-width="2" d="M204.217,-349.2C239.3,-355.792 280.346,-363.504 317.857,-370.553"/>
<polygon fill="black" stroke="black" points="317.348,-374.018 327.822,-372.425 318.64,-367.139 317.348,-374.018"/>
<text text-anchor="middle" x="273" y="-369" font-family="Sans" font-size="10.00">fixes</text>
</g>
<!-- configuration&#45;modules&#45;core#1105 -->
<g id="node48" class="node"><title>configuration-modules-core#1105</title>
<polygon fill="lightgrey" stroke="black" points="518,-98.5 346,-98.5 346,-57.5 518,-57.5 518,-98.5"/>
<text text-anchor="middle" x="432" y="-75.5" font-family="Sans" font-size="10.00">configuration-modules-core#1105</text>
</g>
<!-- configuration&#45;modules&#45;core#1285&#45;&gt;configuration&#45;modules&#45;core#1105 -->
<g id="edge42" class="edge"><title>configuration-modules-core#1285-&gt;configuration-modules-core#1105</title>
<path fill="none" stroke="black" stroke-dasharray="1,5" d="M131.459,-305.985C157.292,-257.147 218.735,-154.555 302,-104 312.479,-97.6378 324.224,-92.7975 336.256,-89.1213"/>
<polygon fill="black" stroke="black" points="345.948,-86.4157 337.526,-93.4388 341.132,-87.7601 336.316,-89.1045 336.316,-89.1045 336.316,-89.1045 341.132,-87.7601 335.106,-84.7703 345.948,-86.4157 345.948,-86.4157"/>
<text text-anchor="middle" x="273" y="-142" font-family="Sans" font-size="10.00">replaces</text>
</g>
<!-- configuration&#45;modules&#45;core#1279 -->
<g id="node49" class="node"><title>configuration-modules-core#1279</title>
<a xlink:href="https://github.com/quattor/configuration-modules-core/pull/1279" xlink:title="ncm-metaconfig: ganeshav2 add include" target="_parent">
<polygon fill="#6cc644" stroke="black" points="204,-1466 32,-1466 32,-1412 204,-1412 204,-1466"/>
<text text-anchor="middle" x="118" y="-1443" font-family="Sans" font-size="10.00">pull-request</text>
<text text-anchor="middle" x="118" y="-1430" font-family="Sans" font-size="10.00">configuration-modules-core#1279</text>
</a>
</g>
<!-- configuration&#45;modules&#45;core#1276 -->
<g id="node51" class="node"><title>configuration-modules-core#1276</title>
<a xlink:href="https://github.com/quattor/configuration-modules-core/issues/1276" xlink:title="ncm-metaconfig: Ganesha v2 %include option is missing" target="_parent">
<ellipse fill="#6cc644" stroke="black" cx="432" cy="-1439" rx="121.122" ry="38.1838"/>
<text text-anchor="middle" x="432" y="-1443" font-family="Sans" font-size="10.00">issue</text>
<text text-anchor="middle" x="432" y="-1430" font-family="Sans" font-size="10.00">configuration-modules-core#1276</text>
</a>
</g>
<!-- configuration&#45;modules&#45;core#1279&#45;&gt;configuration&#45;modules&#45;core#1276 -->
<g id="edge44" class="edge"><title>configuration-modules-core#1279-&gt;configuration-modules-core#1276</title>
<path fill="none" stroke="black" stroke-width="2" d="M204.217,-1439C233.916,-1439 267.888,-1439 300.372,-1439"/>
<polygon fill="black" stroke="black" points="300.399,-1442.5 310.399,-1439 300.399,-1435.5 300.399,-1442.5"/>
<text text-anchor="middle" x="273" y="-1443" font-family="Sans" font-size="10.00">fixes</text>
</g>
<!-- configuration&#45;modules&#45;core#1148 -->
<g id="node52" class="node"><title>configuration-modules-core#1148</title>
<a xlink:href="https://github.com/quattor/configuration-modules-core/pull/1148" xlink:title="ncm-spma: Remove support from groups from spma yumng backend" target="_parent">
<polygon fill="#6cc644" stroke="black" points="204,-1654 32,-1654 32,-1600 204,-1600 204,-1654"/>
<text text-anchor="middle" x="118" y="-1631" font-family="Sans" font-size="10.00">pull-request</text>
<text text-anchor="middle" x="118" y="-1618" font-family="Sans" font-size="10.00">configuration-modules-core#1148</text>
</a>
</g>
<!-- configuration&#45;modules&#45;core#952 -->
<g id="node54" class="node"><title>configuration-modules-core#952</title>
<a xlink:href="https://github.com/quattor/configuration-modules-core/issues/952" xlink:title="ncm-spma (yumng): Remove support for package groups" target="_parent">
<ellipse fill="#6cc644" stroke="black" cx="432" cy="-1627" rx="118.087" ry="38.1838"/>
<text text-anchor="middle" x="432" y="-1631" font-family="Sans" font-size="10.00">issue</text>
<text text-anchor="middle" x="432" y="-1618" font-family="Sans" font-size="10.00">configuration-modules-core#952</text>
</a>
</g>
<!-- configuration&#45;modules&#45;core#1148&#45;&gt;configuration&#45;modules&#45;core#952 -->
<g id="edge46" class="edge"><title>configuration-modules-core#1148-&gt;configuration-modules-core#952</title>
<path fill="none" stroke="black" stroke-width="2" d="M204.217,-1627C234.903,-1627 270.151,-1627 303.606,-1627"/>
<polygon fill="black" stroke="black" points="303.924,-1630.5 313.924,-1627 303.924,-1623.5 303.924,-1630.5"/>
<text text-anchor="middle" x="273" y="-1631" font-family="Sans" font-size="10.00">fixes</text>
</g>
<!-- configuration&#45;modules&#45;core#950 -->
<g id="node55" class="node"><title>configuration-modules-core#950</title>
<a xlink:href="https://github.com/quattor/configuration-modules-core/issues/950" xlink:title="ncm-spma: Remove support for package groups from yum backends" target="_parent">
<ellipse fill="#6cc644" stroke="black" cx="118" cy="-1539" rx="118.087" ry="38.1838"/>
<text text-anchor="middle" x="118" y="-1543" font-family="Sans" font-size="10.00">issue</text>
<text text-anchor="middle" x="118" y="-1530" font-family="Sans" font-size="10.00">configuration-modules-core#950</text>
</a>
</g>
<!-- configuration&#45;modules&#45;core#950&#45;&gt;configuration&#45;modules&#45;core#952 -->
<g id="edge50" class="edge"><title>configuration-modules-core#950-&gt;configuration-modules-core#952</title>
<path fill="none" stroke="black" stroke-dasharray="5,2" d="M207.14,-1563.98C246.419,-1574.99 292.716,-1587.96 333.059,-1599.27"/>
<polygon fill="none" stroke="black" points="332.336,-1602.7 342.909,-1602.03 334.225,-1595.96 332.336,-1602.7"/>
<text text-anchor="middle" x="273" y="-1589" font-family="Sans" font-size="10.00">requires</text>
</g>
<!-- configuration&#45;modules&#45;core#951 -->
<g id="node57" class="node"><title>configuration-modules-core#951</title>
<a xlink:href="https://github.com/quattor/configuration-modules-core/issues/951" xlink:title="ncm-spma (yum): Remove support for package groups" target="_parent">
<ellipse fill="#6cc644" stroke="black" cx="432" cy="-1533" rx="118.087" ry="38.1838"/>
<text text-anchor="middle" x="432" y="-1537" font-family="Sans" font-size="10.00">issue</text>
<text text-anchor="middle" x="432" y="-1524" font-family="Sans" font-size="10.00">configuration-modules-core#951</text>
</a>
</g>
<!-- configuration&#45;modules&#45;core#950&#45;&gt;configuration&#45;modules&#45;core#951 -->
<g id="edge48" class="edge"><title>configuration-modules-core#950-&gt;configuration-modules-core#951</title>
<path fill="none" stroke="black" stroke-dasharray="5,2" d="M235.815,-1536.75C257.999,-1536.32 281.298,-1535.88 303.781,-1535.45"/>
<polygon fill="none" stroke="black" points="304.115,-1538.94 314.047,-1535.25 303.982,-1531.95 304.115,-1538.94"/>
<text text-anchor="middle" x="273" y="-1540" font-family="Sans" font-size="10.00">requires</text>
</g>
<!-- ncm&#45;ncd#117 -->
<g id="node61" class="node"><title>ncm-ncd#117</title>
<a xlink:href="https://github.com/quattor/ncm-ncd/pull/117" xlink:title="Allow component modules to be loaded from any path" target="_parent">
<polygon fill="#6cc644" stroke="black" points="475,-242 389,-242 389,-188 475,-188 475,-242"/>
<text text-anchor="middle" x="432" y="-219" font-family="Sans" font-size="10.00">pull-request</text>
<text text-anchor="middle" x="432" y="-206" font-family="Sans" font-size="10.00">ncm-ncd#117</text>
</a>
</g>
<!-- ncm&#45;ncd#116 -->
<g id="node63" class="node"><title>ncm-ncd#116</title>
<a xlink:href="https://github.com/quattor/ncm-ncd/issues/116" xlink:title="hasFile() prevents component modules from being relocated" target="_parent">
<ellipse fill="#6cc644" stroke="black" cx="750" cy="-248" rx="61.0181" ry="38.1838"/>
<text text-anchor="middle" x="750" y="-252" font-family="Sans" font-size="10.00">issue</text>
<text text-anchor="middle" x="750" y="-239" font-family="Sans" font-size="10.00">ncm-ncd#116</text>
</a>
</g>
<!-- ncm&#45;ncd#117&#45;&gt;ncm&#45;ncd#116 -->
<g id="edge54" class="edge"><title>ncm-ncd#117-&gt;ncm-ncd#116</title>
<path fill="none" stroke="black" stroke-width="2" d="M475.55,-219.519C527.998,-224.962 616.809,-234.178 679.166,-240.649"/>
<polygon fill="black" stroke="black" points="679.015,-244.152 689.323,-241.703 679.738,-237.19 679.015,-244.152"/>
<text text-anchor="middle" x="591" y="-237" font-family="Sans" font-size="10.00">fixes</text>
</g>
<!-- template&#45;library&#45;core#181 -->
<g id="node64" class="node"><title>template-library-core#181</title>
<a xlink:href="https://github.com/quattor/template-library-core/pull/181" xlink:title="Revert /system/archetype/os changes" target="_parent">
<polygon fill="#6e5494" stroke="black" points="501,-170 363,-170 363,-116 501,-116 501,-170"/>
<text text-anchor="middle" x="432" y="-147" font-family="Sans" font-size="10.00">pull-request</text>
<text text-anchor="middle" x="432" y="-134" font-family="Sans" font-size="10.00">template-library-core#181</text>
</a>
</g>
<!-- template&#45;library&#45;core#179 -->
<g id="node66" class="node"><title>template-library-core#179</title>
<a xlink:href="https://github.com/quattor/template-library-core/issues/179" xlink:title="Revert os and model fields structure archetype to Aquilon standard" target="_parent">
<ellipse fill="#bd2c00" stroke="black" cx="750" cy="-154" rx="97.0803" ry="38.1838"/>
<text text-anchor="middle" x="750" y="-158" font-family="Sans" font-size="10.00">issue</text>
<text text-anchor="middle" x="750" y="-145" font-family="Sans" font-size="10.00">template-library-core#179</text>
</a>
</g>
<!-- template&#45;library&#45;core#181&#45;&gt;template&#45;library&#45;core#179 -->
<g id="edge56" class="edge"><title>template-library-core#181-&gt;template-library-core#179</title>
<path fill="none" stroke="black" stroke-width="2" d="M501.001,-145.387C542.355,-146.817 595.821,-148.667 642.602,-150.285"/>
<polygon fill="black" stroke="black" points="642.669,-153.789 652.784,-150.637 642.911,-146.793 642.669,-153.789"/>
<text text-anchor="middle" x="591" y="-153" font-family="Sans" font-size="10.00">fixes</text>
</g>
<!-- aquilon#93 -->
<g id="node68" class="node"><title>aquilon#93</title>
<polygon fill="lightgrey" stroke="black" points="787,-40.5 713,-40.5 713,0.5 787,0.5 787,-40.5"/>
<text text-anchor="middle" x="750" y="-17.5" font-family="Sans" font-size="10.00">aquilon#93</text>
</g>
<!-- template&#45;library&#45;core#181&#45;&gt;aquilon#93 -->
<g id="edge58" class="edge"><title>template-library-core#181-&gt;aquilon#93</title>
<path fill="none" stroke="black" stroke-width="2" d="M501.132,-138.436C520.4,-133.986 539.893,-126.017 554,-112 576.481,-89.661 548.216,-63.9468 572,-43 607.278,-11.9298 662.796,-9.49253 702.446,-12.7308"/>
<polygon fill="black" stroke="black" points="702.126,-16.2161 712.415,-13.6903 702.797,-9.24828 702.126,-16.2161"/>
<text text-anchor="middle" x="591" y="-47" font-family="Sans" font-size="10.00">fixes</text>
</g>
<!-- aquilon#97 -->
<g id="node69" class="node"><title>aquilon#97</title>
<a xlink:href="https://github.com/quattor/aquilon/pull/97" xlink:title="aq.py: fix aqhost/aqservice options ignored" target="_parent">
<polygon fill="#6cc644" stroke="black" points="157,-1748 79,-1748 79,-1694 157,-1694 157,-1748"/>
<text text-anchor="middle" x="118" y="-1725" font-family="Sans" font-size="10.00">pull-request</text>
<text text-anchor="middle" x="118" y="-1712" font-family="Sans" font-size="10.00">aquilon#97</text>
</a>
</g>
<!-- aquilon#96 -->
<g id="node71" class="node"><title>aquilon#96</title>
<a xlink:href="https://github.com/quattor/aquilon/issues/96" xlink:title="aq.py ignores aqhost/aqservice in config file outside MS" target="_parent">
<ellipse fill="#6cc644" stroke="black" cx="432" cy="-1721" rx="53.033" ry="38.1838"/>
<text text-anchor="middle" x="432" y="-1725" font-family="Sans" font-size="10.00">issue</text>
<text text-anchor="middle" x="432" y="-1712" font-family="Sans" font-size="10.00">aquilon#96</text>
</a>
</g>
<!-- aquilon#97&#45;&gt;aquilon#96 -->
<g id="edge60" class="edge"><title>aquilon#97-&gt;aquilon#96</title>
<path fill="none" stroke="black" stroke-width="2" d="M157.768,-1721C210.918,-1721 305.713,-1721 368.729,-1721"/>
<polygon fill="black" stroke="black" points="368.945,-1724.5 378.945,-1721 368.945,-1717.5 368.945,-1724.5"/>
<text text-anchor="middle" x="273" y="-1725" font-family="Sans" font-size="10.00">fixes</text>
</g>
<!-- aquilon#89 -->
<g id="node72" class="node"><title>aquilon#89</title>
<a xlink:href="https://github.com/quattor/aquilon/pull/89" xlink:title="Broker: pass archetype to the object profile" target="_parent">
<polygon fill="#6cc644" stroke="black" points="157,-1842 79,-1842 79,-1788 157,-1788 157,-1842"/>
<text text-anchor="middle" x="118" y="-1819" font-family="Sans" font-size="10.00">pull-request</text>
<text text-anchor="middle" x="118" y="-1806" font-family="Sans" font-size="10.00">aquilon#89</text>
</a>
</g>
<!-- aquilon#88 -->
<g id="node74" class="node"><title>aquilon#88</title>
<a xlink:href="https://github.com/quattor/aquilon/issues/88" xlink:title="1.12.58: the broker should pass the archetype to the object template" target="_parent">
<ellipse fill="#6cc644" stroke="black" cx="432" cy="-1815" rx="53.033" ry="38.1838"/>
<text text-anchor="middle" x="432" y="-1819" font-family="Sans" font-size="10.00">issue</text>
<text text-anchor="middle" x="432" y="-1806" font-family="Sans" font-size="10.00">aquilon#88</text>
</a>
</g>
<!-- aquilon#89&#45;&gt;aquilon#88 -->
<g id="edge62" class="edge"><title>aquilon#89-&gt;aquilon#88</title>
<path fill="none" stroke="black" stroke-width="2" d="M157.768,-1815C210.918,-1815 305.713,-1815 368.729,-1815"/>
<polygon fill="black" stroke="black" points="368.945,-1818.5 378.945,-1815 368.945,-1811.5 368.945,-1818.5"/>
<text text-anchor="middle" x="273" y="-1819" font-family="Sans" font-size="10.00">fixes</text>
</g>
<!-- aquilon#87 -->
<g id="node75" class="node"><title>aquilon#87</title>
<a xlink:href="https://github.com/quattor/aquilon/pull/87" xlink:title="Plenary template adjustment to fix the template library support" target="_parent">
<polygon fill="#6cc644" stroke="black" points="157,-1936 79,-1936 79,-1882 157,-1882 157,-1936"/>
<text text-anchor="middle" x="118" y="-1913" font-family="Sans" font-size="10.00">pull-request</text>
<text text-anchor="middle" x="118" y="-1900" font-family="Sans" font-size="10.00">aquilon#87</text>
</a>
</g>
<!-- aquilon#86 -->
<g id="node77" class="node"><title>aquilon#86</title>
<a xlink:href="https://github.com/quattor/aquilon/issues/86" xlink:title="1.12.58: profile prolog template needed to define the LOADPATH" target="_parent">
<ellipse fill="#6cc644" stroke="black" cx="432" cy="-1909" rx="53.033" ry="38.1838"/>
<text text-anchor="middle" x="432" y="-1913" font-family="Sans" font-size="10.00">issue</text>
<text text-anchor="middle" x="432" y="-1900" font-family="Sans" font-size="10.00">aquilon#86</text>
</a>
</g>
<!-- aquilon#87&#45;&gt;aquilon#86 -->
<g id="edge64" class="edge"><title>aquilon#87-&gt;aquilon#86</title>
<path fill="none" stroke="black" stroke-width="2" d="M157.768,-1909C210.918,-1909 305.713,-1909 368.729,-1909"/>
<polygon fill="black" stroke="black" points="368.945,-1912.5 378.945,-1909 368.945,-1905.5 368.945,-1912.5"/>
<text text-anchor="middle" x="273" y="-1913" font-family="Sans" font-size="10.00">fixes</text>
</g>
<!-- aquilon#79 -->
<g id="node78" class="node"><title>aquilon#79</title>
<a xlink:href="https://github.com/quattor/aquilon/pull/79" xlink:title="aqd.conf.noms: update inappropriate defaults" target="_parent">
<polygon fill="#6cc644" stroke="black" points="157,-2050 79,-2050 79,-1996 157,-1996 157,-2050"/>
<text text-anchor="middle" x="118" y="-2027" font-family="Sans" font-size="10.00">pull-request</text>
<text text-anchor="middle" x="118" y="-2014" font-family="Sans" font-size="10.00">aquilon#79</text>
</a>
</g>
<!-- aquilon#78 -->
<g id="node80" class="node"><title>aquilon#78</title>
<a xlink:href="https://github.com/quattor/aquilon/issues/78" xlink:title="Wrong ant_home provided in aqd.conf.noms" target="_parent">
<ellipse fill="#6cc644" stroke="black" cx="432" cy="-2061" rx="53.033" ry="38.1838"/>
<text text-anchor="middle" x="432" y="-2065" font-family="Sans" font-size="10.00">issue</text>
<text text-anchor="middle" x="432" y="-2052" font-family="Sans" font-size="10.00">aquilon#78</text>
</a>
</g>
<!-- aquilon#79&#45;&gt;aquilon#78 -->
<g id="edge66" class="edge"><title>aquilon#79-&gt;aquilon#78</title>
<path fill="none" stroke="black" stroke-width="2" d="M157.768,-2027.81C211.074,-2034.26 306.271,-2045.78 369.284,-2053.41"/>
<polygon fill="black" stroke="black" points="369.148,-2056.92 379.496,-2054.65 369.989,-2049.97 369.148,-2056.92"/>
<text text-anchor="middle" x="273" y="-2047" font-family="Sans" font-size="10.00">fixes</text>
</g>
<!-- aquilon#82 -->
<g id="node82" class="node"><title>aquilon#82</title>
<polygon fill="lightgrey" stroke="black" points="469,-2005.5 395,-2005.5 395,-1964.5 469,-1964.5 469,-2005.5"/>
<text text-anchor="middle" x="432" y="-1982.5" font-family="Sans" font-size="10.00">aquilon#82</text>
</g>
<!-- aquilon#79&#45;&gt;aquilon#82 -->
<g id="edge68" class="edge"><title>aquilon#79-&gt;aquilon#82</title>
<path fill="none" stroke="black" stroke-width="2" d="M157.768,-2018.19C215.333,-2011.22 321.747,-1998.34 383.731,-1990.84"/>
<polygon fill="black" stroke="black" points="384.517,-1994.27 394.024,-1989.6 383.676,-1987.32 384.517,-1994.27"/>
<text text-anchor="middle" x="273" y="-2010" font-family="Sans" font-size="10.00">fixes</text>
</g>
</g>
</svg>
