<?xml version="1.0" encoding="UTF-8" standalone="no"?>
<?xml-stylesheet href="relationships.css" type="text/css"?>
<!-- Generated by graphviz version 2.30.1 (20200930.0103)
 -->
<!-- Title: Dependencies Pages: 1 -->
<svg xmlns="http://www.w3.org/2000/svg" xmlns:xlink="http://www.w3.org/1999/xlink" width="1118pt" height="1502pt" viewBox="0.00 0.00 1118.00 1502.00">
<g id="graph0" class="graph" transform="scale(1 1) rotate(0) translate(4 1498)">
<title>Dependencies</title>
<polygon fill="white" stroke="white" points="-4,5 -4,-1498 1115,-1498 1115,5 -4,5"/>
<g id="clust4" class="cluster"><title>cluster_repo_aquilon</title>
<polygon fill="none" stroke="black" points="8,-1195 8,-1486 530,-1486 530,-1195 8,-1195"/>
<text text-anchor="middle" x="269" y="-1472.4" font-family="Sans" font-size="12.00">aquilon</text>
</g>
<g id="clust3" class="cluster"><title>cluster_milestone_22.12</title>
<polygon fill="none" stroke="black" points="15,-824 15,-991 529,-991 529,-824 15,-824"/>
<text text-anchor="middle" x="272" y="-977.4" font-family="Sans" font-size="12.00">22.12</text>
</g>
<g id="clust2" class="cluster"><title>cluster_milestone_22.4</title>
<polygon fill="none" stroke="black" points="326,-218 326,-816 850,-816 850,-218 326,-218"/>
<text text-anchor="middle" x="588" y="-802.4" font-family="Sans" font-size="12.00">22.4</text>
</g>
<!-- aii#328 -->
<g id="node1" class="node"><title>aii#328</title>
<g id="a_node1"><a xlink:href="https://github.com/quattor/aii/pull/328" xlink:title="aii#328 (pull-request)" target="_parent">
<polygon fill="#6cc644" stroke="black" points="522,-719 340,-719 340,-669 522,-669 522,-719"/>
<text text-anchor="middle" x="431" y="-697" font-family="Sans" font-size="10.00">aii-ks: generate ks post section</text>
<text text-anchor="middle" x="431" y="-686" font-family="Sans" font-size="10.00">as standalone script</text>
</a>
</g>
</g>
<!-- aii#280 -->
<g id="node2" class="node"><title>aii#280</title>
<polygon fill="lightgrey" stroke="black" points="1063.5,-786.5 996.5,-786.5 996.5,-747.5 1063.5,-747.5 1063.5,-786.5"/>
<text text-anchor="middle" x="1030" y="-764.5" font-family="Sans" font-size="10.00">aii#280</text>
</g>
<!-- aii#328&#45;&gt;aii#280 -->
<g id="edge1" class="edge"><title>aii#328-&gt;aii#280</title>
<path fill="none" stroke="black" stroke-dasharray="5,2" d="M522.159,-711.716C526.933,-713.971 531.579,-716.401 536,-719 592.393,-752.153 583.093,-795.132 644,-819 762.251,-865.339 914.034,-810.953 986.633,-782.166"/>
<polygon fill="none" stroke="black" points="988.352,-785.248 996.34,-778.287 985.755,-778.748 988.352,-785.248"/>
<text text-anchor="middle" x="742.746" y="-828.736" font-family="Sans" font-size="10.00">requires</text>
</g>
<!-- aii#316 -->
<g id="node3" class="node"><title>aii#316</title>
<g id="a_node3"><a xlink:href="https://github.com/quattor/aii/pull/316" xlink:title="aii#316 (pull-request)" target="_parent">
<polygon fill="#6cc644" stroke="black" points="831,-729.5 655,-729.5 655,-668.5 831,-668.5 831,-729.5"/>
<text text-anchor="middle" x="743" y="-707.5" font-family="Sans" font-size="10.00">aii-ks: generate kickstart repo</text>
<text text-anchor="middle" x="743" y="-696.5" font-family="Sans" font-size="10.00">entries based on SPMA</text>
<text text-anchor="middle" x="743" y="-685.5" font-family="Sans" font-size="10.00">configuration</text>
</a>
</g>
</g>
<!-- aii#328&#45;&gt;aii#316 -->
<g id="edge2" class="edge"><title>aii#328-&gt;aii#316</title>
<path fill="none" stroke="black" stroke-dasharray="5,2" d="M522.081,-689.259C560.563,-689.181 605.56,-689.866 644.792,-691.118"/>
<polygon fill="none" stroke="black" points="644.787,-694.619 654.899,-691.457 645.022,-687.623 644.787,-694.619"/>
<text text-anchor="middle" x="568.561" y="-681.775" font-family="Sans" font-size="10.00">requires</text>
</g>
<!-- aii#328&#45;&gt;aii#280 -->
<g id="edge7" class="edge"><title>aii#328-&gt;aii#280</title>
<path fill="none" stroke="black" stroke-dasharray="5,2" d="M496.306,-719C509.893,-723.951 523.8,-729.828 536,-737 592.393,-770.153 583.093,-813.132 644,-837 764.603,-884.261 920.086,-826.749 990.871,-790.956"/>
<polygon fill="none" stroke="black" points="992.619,-793.991 999.882,-786.277 989.394,-787.779 992.619,-793.991"/>
<text text-anchor="middle" x="729.077" y="-846.849" font-family="Sans" font-size="10.00">requires</text>
</g>
<!-- aii#328&#45;&gt;aii#316 -->
<g id="edge8" class="edge"><title>aii#328-&gt;aii#316</title>
<path fill="none" stroke="black" stroke-dasharray="5,2" d="M522.081,-701.647C560.563,-702.966 605.56,-703.732 644.792,-703.747"/>
<polygon fill="none" stroke="black" points="644.903,-707.246 654.899,-703.733 644.894,-700.246 644.903,-707.246"/>
<text text-anchor="middle" x="568.561" y="-695.275" font-family="Sans" font-size="10.00">requires</text>
</g>
<!-- aii#316&#45;&gt;aii#280 -->
<g id="edge3" class="edge"><title>aii#316-&gt;aii#280</title>
<path fill="none" stroke="black" stroke-dasharray="5,2" d="M831.058,-713.498C882.627,-724.871 945.673,-740.347 986.549,-751.898"/>
<polygon fill="none" stroke="black" points="985.612,-755.271 996.19,-754.671 987.547,-748.543 985.612,-755.271"/>
<text text-anchor="middle" x="894.093" y="-724.947" font-family="Sans" font-size="10.00">requires</text>
</g>
<!-- aii#314 -->
<g id="node4" class="node"><title>aii#314</title>
<polygon fill="lightgrey" stroke="black" points="1063.5,-723.5 996.5,-723.5 996.5,-684.5 1063.5,-684.5 1063.5,-723.5"/>
<text text-anchor="middle" x="1030" y="-701.5" font-family="Sans" font-size="10.00">aii#314</text>
</g>
<!-- aii#316&#45;&gt;aii#314 -->
<g id="edge4" class="edge"><title>aii#316-&gt;aii#314</title>
<path fill="none" stroke="black" stroke-dasharray="5,2" d="M831.058,-694.254C882.409,-694.228 945.14,-695.754 986.03,-698.25"/>
<polygon fill="none" stroke="black" points="985.98,-701.755 996.19,-698.924 986.443,-694.77 985.98,-701.755"/>
<text text-anchor="middle" x="893.741" y="-687.339" font-family="Sans" font-size="10.00">requires</text>
</g>
<!-- aii#315 -->
<g id="node5" class="node"><title>aii#315</title>
<polygon fill="lightgrey" stroke="black" points="1063.5,-666.5 996.5,-666.5 996.5,-627.5 1063.5,-627.5 1063.5,-666.5"/>
<text text-anchor="middle" x="1030" y="-644.5" font-family="Sans" font-size="10.00">aii#315</text>
</g>
<!-- aii#316&#45;&gt;aii#315 -->
<g id="edge5" class="edge"><title>aii#316-&gt;aii#315</title>
<path fill="none" stroke="black" stroke-dasharray="5,2" d="M831.058,-676.842C882.409,-666.546 945.14,-655.526 986.03,-649.845"/>
<polygon fill="none" stroke="black" points="986.742,-653.281 996.19,-648.486 985.814,-646.342 986.742,-653.281"/>
<text text-anchor="middle" x="893.104" y="-653.502" font-family="Sans" font-size="10.00">requires</text>
</g>
<!-- aii#316&#45;&gt;aii#280 -->
<g id="edge9" class="edge"><title>aii#316-&gt;aii#280</title>
<path fill="none" stroke="black" stroke-dasharray="5,2" d="M831.058,-726.045C882.518,-739.252 945.406,-753.828 986.29,-761.794"/>
<polygon fill="none" stroke="black" points="985.712,-765.247 996.19,-763.672 987.017,-758.369 985.712,-765.247"/>
<text text-anchor="middle" x="893.279" y="-738.032" font-family="Sans" font-size="10.00">requires</text>
</g>
<!-- aii#316&#45;&gt;aii#314 -->
<g id="edge10" class="edge"><title>aii#316-&gt;aii#314</title>
<path fill="none" stroke="black" stroke-dasharray="5,2" d="M831.058,-706.801C882.409,-708.629 945.14,-709.303 986.03,-708.242"/>
<polygon fill="none" stroke="black" points="986.304,-711.735 996.19,-707.925 986.085,-704.738 986.304,-711.735"/>
<text text-anchor="middle" x="893.741" y="-700.617" font-family="Sans" font-size="10.00">requires</text>
</g>
<!-- aii#316&#45;&gt;aii#315 -->
<g id="edge11" class="edge"><title>aii#316-&gt;aii#315</title>
<path fill="none" stroke="black" stroke-dasharray="5,2" d="M831.058,-689.389C882.518,-680.929 945.406,-669.025 986.29,-659.777"/>
<polygon fill="none" stroke="black" points="987.236,-663.151 996.19,-657.487 985.658,-656.331 987.236,-663.151"/>
<text text-anchor="middle" x="893.917" y="-666.635" font-family="Sans" font-size="10.00">requires</text>
</g>
<!-- aii#299 -->
<g id="node6" class="node"><title>aii#299</title>
<g id="a_node6"><a xlink:href="https://github.com/quattor/aii/pull/299" xlink:title="aii#299 (pull-request)" target="_parent">
<polygon fill="#6cc644" stroke="black" points="507.5,-787 354.5,-787 354.5,-737 507.5,-737 507.5,-787"/>
<text text-anchor="middle" x="431" y="-765" font-family="Sans" font-size="10.00">aii-dhcp: support optional</text>
<text text-anchor="middle" x="431" y="-754" font-family="Sans" font-size="10.00">hostname ip verification</text>
</a>
</g>
</g>
<!-- aii#299&#45;&gt;aii#280 -->
<g id="edge6" class="edge"><title>aii#299-&gt;aii#280</title>
<path fill="none" stroke="black" stroke-dasharray="5,2" d="M507.61,-757.96C634.43,-755.959 885.958,-758.391 986.256,-762.946"/>
<polygon fill="none" stroke="black" points="986.165,-766.446 996.324,-763.438 986.507,-759.454 986.165,-766.446"/>
<text text-anchor="middle" x="736.912" y="-749.995" font-family="Sans" font-size="10.00">requires</text>
</g>
<!-- aii#299&#45;&gt;aii#280 -->
<g id="edge12" class="edge"><title>aii#299-&gt;aii#280</title>
<path fill="none" stroke="black" stroke-dasharray="5,2" d="M507.61,-767.306C634.43,-771.432 885.958,-773.213 986.256,-770.338"/>
<polygon fill="none" stroke="black" points="986.441,-773.834 996.324,-770.015 986.217,-766.837 986.441,-773.834"/>
<text text-anchor="middle" x="736.912" y="-763.448" font-family="Sans" font-size="10.00">requires</text>
</g>
<!-- aii#331 -->
<g id="node7" class="node"><title>aii#331</title>
<g id="a_node7"><a xlink:href="https://github.com/quattor/aii/pull/331" xlink:title="aii#331 (pull-request)" target="_parent">
<polygon fill="#6cc644" stroke="black" points="186,-724.5 44,-724.5 44,-663.5 186,-663.5 186,-724.5"/>
<text text-anchor="middle" x="115" y="-702.5" font-family="Sans" font-size="10.00">let aii generate ansible</text>
<text text-anchor="middle" x="115" y="-691.5" font-family="Sans" font-size="10.00">playbook for supported</text>
<text text-anchor="middle" x="115" y="-680.5" font-family="Sans" font-size="10.00">components</text>
</a>
</g>
</g>
<!-- aii#331&#45;&gt;aii#328 -->
<g id="edge13" class="edge"><title>aii#331-&gt;aii#328</title>
<path fill="none" stroke="black" stroke-dasharray="5,2" d="M186.077,-694C228.343,-694 282.883,-694 329.668,-694"/>
<polygon fill="none" stroke="black" points="329.834,-697.5 339.834,-694 329.834,-690.5 329.834,-697.5"/>
<text text-anchor="middle" x="242.574" y="-686" font-family="Sans" font-size="10.00">requires</text>
</g>
<!-- CAF#257 -->
<g id="node8" class="node"><title>CAF#257</title>
<g id="a_node8"><a xlink:href="https://github.com/quattor/CAF/pull/257" xlink:title="CAF#257 (pull-request)" target="_parent">
<polygon fill="#6cc644" stroke="black" points="206.5,-956 23.5,-956 23.5,-906 206.5,-906 206.5,-956"/>
<text text-anchor="middle" x="115" y="-934" font-family="Sans" font-size="10.00">Process: run process as another</text>
<text text-anchor="middle" x="115" y="-923" font-family="Sans" font-size="10.00">user</text>
</a>
</g>
</g>
<!-- CAF#253 -->
<g id="node9" class="node"><title>CAF#253</title>
<g id="a_node9"><a xlink:href="https://github.com/quattor/CAF/issues/253" xlink:title="CAF#253 (issue)" target="_parent">
<path fill="#6cc644" stroke="black" d="M509,-961.5C509,-961.5 353,-961.5 353,-961.5 347,-961.5 341,-955.5 341,-949.5 341,-949.5 341,-912.5 341,-912.5 341,-906.5 347,-900.5 353,-900.5 353,-900.5 509,-900.5 509,-900.5 515,-900.5 521,-906.5 521,-912.5 521,-912.5 521,-949.5 521,-949.5 521,-955.5 515,-961.5 509,-961.5"/>
<text text-anchor="middle" x="431" y="-939.5" font-family="Sans" font-size="10.00">CAF::Process: Include an option</text>
<text text-anchor="middle" x="431" y="-928.5" font-family="Sans" font-size="10.00">to execute the command as an</text>
<text text-anchor="middle" x="431" y="-917.5" font-family="Sans" font-size="10.00">specific user</text>
</a>
</g>
</g>
<!-- CAF#257&#45;&gt;CAF#253 -->
<g id="edge14" class="edge"><title>CAF#257-&gt;CAF#253</title>
<path fill="none" stroke="black" stroke-width="2" d="M206.822,-931C245.561,-931 290.88,-931 330.522,-931"/>
<polygon fill="black" stroke="black" points="330.737,-934.5 340.737,-931 330.737,-927.5 330.737,-934.5"/>
<text text-anchor="middle" x="261.782" y="-923" font-family="Sans" font-size="10.00">fixes</text>
</g>
<!-- CAF#110 -->
<g id="node10" class="node"><title>CAF#110</title>
<g id="a_node10"><a xlink:href="https://github.com/quattor/CAF/pull/110" xlink:title="CAF#110 (pull-request)" target="_parent">
<polygon fill="#6cc644" stroke="black" points="506.5,-424 355.5,-424 355.5,-374 506.5,-374 506.5,-424"/>
<text text-anchor="middle" x="431" y="-402" font-family="Sans" font-size="10.00">CAF::Download class: API</text>
<text text-anchor="middle" x="431" y="-391" font-family="Sans" font-size="10.00">proposal</text>
</a>
</g>
</g>
<!-- CAF#120 -->
<g id="node11" class="node"><title>CAF#120</title>
<polygon fill="lightgrey" stroke="black" points="780,-209.5 706,-209.5 706,-170.5 780,-170.5 780,-209.5"/>
<text text-anchor="middle" x="743" y="-187.5" font-family="Sans" font-size="10.00">CAF#120</text>
</g>
<!-- CAF#110&#45;&gt;CAF#120 -->
<g id="edge15" class="edge"><title>CAF#110-&gt;CAF#120</title>
<path fill="none" stroke="black" stroke-dasharray="5,2" d="M506.719,-380.235C517.084,-375.852 527.186,-370.504 536,-364 602.102,-315.225 575.898,-259.941 644,-214 659.174,-203.764 678.288,-197.885 695.597,-194.513"/>
<polygon fill="none" stroke="black" points="696.275,-197.948 705.537,-192.802 695.088,-191.049 696.275,-197.948"/>
<text text-anchor="middle" x="572.151" y="-272.731" font-family="Sans" font-size="10.00">requires</text>
</g>
<!-- configuration&#45;modules&#45;core#1490 -->
<g id="node12" class="node"><title>configuration-modules-core#1490</title>
<g id="a_node12"><a xlink:href="https://github.com/quattor/configuration-modules-core/pull/1490" xlink:title="configuration-modules-core#1490 (pull-request)" target="_parent">
<polygon fill="#6cc644" stroke="black" points="514.5,-355.5 347.5,-355.5 347.5,-294.5 514.5,-294.5 514.5,-355.5"/>
<text text-anchor="middle" x="431" y="-333.5" font-family="Sans" font-size="10.00">ncm-ceph: Add support for</text>
<text text-anchor="middle" x="431" y="-322.5" font-family="Sans" font-size="10.00">orchestrator/cephadm under</text>
<text text-anchor="middle" x="431" y="-311.5" font-family="Sans" font-size="10.00">octopus</text>
</a>
</g>
</g>
<!-- configuration&#45;modules&#45;core#1463 -->
<g id="node13" class="node"><title>configuration-modules-core#1463</title>
<polygon fill="lightgrey" stroke="black" points="840.5,-152.5 645.5,-152.5 645.5,-113.5 840.5,-113.5 840.5,-152.5"/>
<text text-anchor="middle" x="743" y="-130.5" font-family="Sans" font-size="10.00">configuration-modules-core#1463</text>
</g>
<!-- configuration&#45;modules&#45;core#1490&#45;&gt;configuration&#45;modules&#45;core#1463 -->
<g id="edge16" class="edge"><title>configuration-modules-core#1490-&gt;configuration-modules-core#1463</title>
<path fill="none" stroke="black" stroke-dasharray="1,5" d="M481.285,-294.741C499.458,-287.218 519.597,-278.482 536,-267 593.066,-227.054 583.433,-186.227 636.979,-147.805"/>
<polygon fill="black" stroke="black" points="645.353,-142.154 639.581,-151.478 641.208,-144.951 637.063,-147.748 637.063,-147.748 637.063,-147.748 641.208,-144.951 634.546,-144.018 645.353,-142.154 645.353,-142.154"/>
<text text-anchor="middle" x="554.538" y="-219.039" font-family="Sans" font-size="10.00">replaces</text>
</g>
<!-- configuration&#45;modules&#45;core#1490&#45;&gt;configuration&#45;modules&#45;core#1463 -->
<g id="edge17" class="edge"><title>configuration-modules-core#1490-&gt;configuration-modules-core#1463</title>
<path fill="none" stroke="black" stroke-dasharray="1,5" d="M514.567,-297.644C522.072,-293.866 529.344,-289.659 536,-285 595.873,-243.09 582.324,-200.209 644,-161 646.301,-159.537 648.679,-158.15 651.118,-156.833"/>
<polygon fill="black" stroke="black" points="660.181,-152.368 653.199,-160.824 655.696,-154.577 651.21,-156.787 651.21,-156.787 651.21,-156.787 655.696,-154.577 649.222,-152.75 660.181,-152.368 660.181,-152.368"/>
<text text-anchor="middle" x="608.663" y="-227.923" font-family="Sans" font-size="10.00">replaces</text>
</g>
<!-- configuration&#45;modules&#45;core#1490&#45;&gt;configuration&#45;modules&#45;core#1463 -->
<g id="edge25" class="edge"><title>configuration-modules-core#1490-&gt;configuration-modules-core#1463</title>
<path fill="none" stroke="black" stroke-dasharray="1,5" d="M514.567,-315.565C522.072,-311.866 529.344,-307.659 536,-303 595.873,-261.09 582.324,-218.209 644,-179 661.341,-167.976 683.116,-161.192 701.733,-155.389"/>
<polygon fill="black" stroke="black" points="711.421,-152.336 703.236,-159.634 706.652,-153.839 701.883,-155.342 701.883,-155.342 701.883,-155.342 706.652,-153.839 700.531,-151.05 711.421,-152.336 711.421,-152.336"/>
<text text-anchor="middle" x="619.206" y="-216.899" font-family="Sans" font-size="10.00">replaces</text>
</g>
<!-- configuration&#45;modules&#45;core#1464 -->
<g id="node14" class="node"><title>configuration-modules-core#1464</title>
<g id="a_node14"><a xlink:href="https://github.com/quattor/configuration-modules-core/pull/1464" xlink:title="configuration-modules-core#1464 (pull-request)" target="_parent">
<polygon fill="#6cc644" stroke="black" points="523,-650.5 339,-650.5 339,-589.5 523,-589.5 523,-650.5"/>
<text text-anchor="middle" x="431" y="-628.5" font-family="Sans" font-size="10.00">ncm-systemd: all pre and post</text>
<text text-anchor="middle" x="431" y="-617.5" font-family="Sans" font-size="10.00">exec commands now take a list</text>
<text text-anchor="middle" x="431" y="-606.5" font-family="Sans" font-size="10.00">instead of a string</text>
</a>
</g>
</g>
<!-- template&#45;library&#45;core#212 -->
<g id="node15" class="node"><title>template-library-core#212</title>
<g id="a_node15"><a xlink:href="https://github.com/quattor/template-library-core/pull/212" xlink:title="template-library-core#212 (pull-request)" target="_parent">
<polygon fill="#6e5494" stroke="black" points="830.5,-650.5 655.5,-650.5 655.5,-589.5 830.5,-589.5 830.5,-650.5"/>
<text text-anchor="middle" x="743" y="-628.5" font-family="Sans" font-size="10.00">Add a transitional type for</text>
<text text-anchor="middle" x="743" y="-617.5" font-family="Sans" font-size="10.00">strings being migrated to lists</text>
<text text-anchor="middle" x="743" y="-606.5" font-family="Sans" font-size="10.00">of strings</text>
</a>
</g>
</g>
<!-- configuration&#45;modules&#45;core#1464&#45;&gt;template&#45;library&#45;core#212 -->
<g id="edge18" class="edge"><title>configuration-modules-core#1464-&gt;template-library-core#212</title>
<path fill="none" stroke="black" stroke-dasharray="5,2" d="M523.334,-613.784C561.615,-613.105 606.168,-613.074 645.032,-613.689"/>
<polygon fill="none" stroke="black" points="645.246,-617.194 655.306,-613.87 645.369,-610.195 645.246,-617.194"/>
<text text-anchor="middle" x="569.323" y="-605.251" font-family="Sans" font-size="10.00">requires</text>
</g>
<!-- configuration&#45;modules&#45;core#1464&#45;&gt;template&#45;library&#45;core#212 -->
<g id="edge26" class="edge"><title>configuration-modules-core#1464-&gt;template-library-core#212</title>
<path fill="none" stroke="black" stroke-dasharray="5,2" d="M523.334,-626.216C561.615,-626.895 606.168,-626.926 645.032,-626.311"/>
<polygon fill="none" stroke="black" points="645.369,-629.805 655.306,-626.13 645.246,-622.806 645.369,-629.805"/>
<text text-anchor="middle" x="569.323" y="-618.749" font-family="Sans" font-size="10.00">requires</text>
</g>
<!-- configuration&#45;modules&#45;core#1452 -->
<g id="node16" class="node"><title>configuration-modules-core#1452</title>
<g id="a_node16"><a xlink:href="https://github.com/quattor/configuration-modules-core/pull/1452" xlink:title="configuration-modules-core#1452 (pull-request)" target="_parent">
<polygon fill="#6cc644" stroke="black" points="517.5,-276 344.5,-276 344.5,-226 517.5,-226 517.5,-276"/>
<text text-anchor="middle" x="431" y="-254" font-family="Sans" font-size="10.00">ncm-metaconfig: ssh daemon</text>
<text text-anchor="middle" x="431" y="-243" font-family="Sans" font-size="10.00">configuration support</text>
</a>
</g>
</g>
<!-- configuration&#45;modules&#45;core#1377 -->
<g id="node17" class="node"><title>configuration-modules-core#1377</title>
<polygon fill="lightgrey" stroke="black" points="840.5,-95.5 645.5,-95.5 645.5,-56.5 840.5,-56.5 840.5,-95.5"/>
<text text-anchor="middle" x="743" y="-73.5" font-family="Sans" font-size="10.00">configuration-modules-core#1377</text>
</g>
<!-- configuration&#45;modules&#45;core#1452&#45;&gt;configuration&#45;modules&#45;core#1377 -->
<g id="edge19" class="edge"><title>configuration-modules-core#1452-&gt;configuration-modules-core#1377</title>
<path fill="none" stroke="black" stroke-dasharray="1,5" d="M454.595,-225.931C490.225,-192.854 562.837,-135.421 636.051,-98.8917"/>
<polygon fill="black" stroke="black" points="645.446,-94.3228 638.421,-102.743 640.949,-96.5096 636.453,-98.6964 636.453,-98.6964 636.453,-98.6964 640.949,-96.5096 634.485,-94.6496 645.446,-94.3228 645.446,-94.3228"/>
<text text-anchor="middle" x="524.667" y="-145.428" font-family="Sans" font-size="10.00">replaces</text>
</g>
<!-- configuration&#45;modules&#45;core#1451 -->
<g id="node18" class="node"><title>configuration-modules-core#1451</title>
<polygon fill="lightgrey" stroke="black" points="840.5,-38.5 645.5,-38.5 645.5,0.5 840.5,0.5 840.5,-38.5"/>
<text text-anchor="middle" x="743" y="-16.5" font-family="Sans" font-size="10.00">configuration-modules-core#1451</text>
</g>
<!-- configuration&#45;modules&#45;core#1452&#45;&gt;configuration&#45;modules&#45;core#1451 -->
<g id="edge20" class="edge"><title>configuration-modules-core#1452-&gt;configuration-modules-core#1451</title>
<path fill="none" stroke="black" stroke-dasharray="5,2" d="M447.179,-225.903C477.998,-182.481 552.091,-94.0645 636.641,-42.4021"/>
<polygon fill="none" stroke="black" points="638.574,-45.3253 645.388,-37.2127 635.002,-39.3051 638.574,-45.3253"/>
<text text-anchor="middle" x="516.862" y="-114.072" font-family="Sans" font-size="10.00">requires</text>
</g>
<!-- configuration&#45;modules&#45;core#1452&#45;&gt;configuration&#45;modules&#45;core#1377 -->
<g id="edge27" class="edge"><title>configuration-modules-core#1452-&gt;configuration-modules-core#1377</title>
<path fill="none" stroke="black" stroke-dasharray="1,5" d="M469.484,-225.943C510.115,-195.298 578.021,-144.247 644,-113 656.106,-107.267 669.623,-102.476 682.656,-98.3382"/>
<polygon fill="black" stroke="black" points="692.497,-95.297 684.272,-102.549 687.72,-96.7733 682.943,-98.2496 682.943,-98.2496 682.943,-98.2496 687.72,-96.7733 681.615,-93.9502 692.497,-95.297 692.497,-95.297"/>
<text text-anchor="middle" x="596.34" y="-143.316" font-family="Sans" font-size="10.00">replaces</text>
</g>
<!-- configuration&#45;modules&#45;core#1452&#45;&gt;configuration&#45;modules&#45;core#1451 -->
<g id="edge28" class="edge"><title>configuration-modules-core#1452-&gt;configuration-modules-core#1451</title>
<path fill="none" stroke="black" stroke-dasharray="5,2" d="M455.89,-225.734C491.877,-184.085 564.314,-101.862 644,-56 654.304,-50.0697 665.95,-45.3236 677.523,-41.3859"/>
<polygon fill="none" stroke="black" points="678.757,-44.6653 687.197,-38.26 676.605,-38.0044 678.757,-44.6653"/>
<text text-anchor="middle" x="579.363" y="-110.512" font-family="Sans" font-size="10.00">requires</text>
</g>
<!-- configuration&#45;modules&#45;core#1336 -->
<g id="node19" class="node"><title>configuration-modules-core#1336</title>
<g id="a_node19"><a xlink:href="https://github.com/quattor/configuration-modules-core/pull/1336" xlink:title="configuration-modules-core#1336 (pull-request)" target="_parent">
<polygon fill="#6cc644" stroke="black" points="518,-571.5 344,-571.5 344,-510.5 518,-510.5 518,-571.5"/>
<text text-anchor="middle" x="431" y="-549.5" font-family="Sans" font-size="10.00">ncm-network: Add support for</text>
<text text-anchor="middle" x="431" y="-538.5" font-family="Sans" font-size="10.00">CAF::Service actions after</text>
<text text-anchor="middle" x="431" y="-527.5" font-family="Sans" font-size="10.00">changes</text>
</a>
</g>
</g>
<!-- configuration&#45;modules&#45;core#1335 -->
<g id="node20" class="node"><title>configuration-modules-core#1335</title>
<g id="a_node20"><a xlink:href="https://github.com/quattor/configuration-modules-core/pull/1335" xlink:title="configuration-modules-core#1335 (pull-request)" target="_parent">
<polygon fill="#6cc644" stroke="black" points="836,-571.5 650,-571.5 650,-510.5 836,-510.5 836,-571.5"/>
<text text-anchor="middle" x="743" y="-549.5" font-family="Sans" font-size="10.00">ncm-metaconfig: Remove</text>
<text text-anchor="middle" x="743" y="-538.5" font-family="Sans" font-size="10.00">caf_service_action type to allow</text>
<text text-anchor="middle" x="743" y="-527.5" font-family="Sans" font-size="10.00">reuse</text>
</a>
</g>
</g>
<!-- configuration&#45;modules&#45;core#1336&#45;&gt;configuration&#45;modules&#45;core#1335 -->
<g id="edge21" class="edge"><title>configuration-modules-core#1336-&gt;configuration-modules-core#1335</title>
<path fill="none" stroke="black" stroke-dasharray="5,2" d="M518.352,-541C556.011,-541 600.444,-541 639.742,-541"/>
<polygon fill="none" stroke="black" points="639.88,-544.5 649.88,-541 639.88,-537.5 639.88,-544.5"/>
<text text-anchor="middle" x="563.78" y="-533" font-family="Sans" font-size="10.00">requires</text>
</g>
<!-- configuration&#45;modules&#45;core#1071 -->
<g id="node21" class="node"><title>configuration-modules-core#1071</title>
<g id="a_node21"><a xlink:href="https://github.com/quattor/configuration-modules-core/issues/1071" xlink:title="configuration-modules-core#1071 (issue)" target="_parent">
<path fill="#6cc644" stroke="black" d="M829.5,-492C829.5,-492 656.5,-492 656.5,-492 650.5,-492 644.5,-486 644.5,-480 644.5,-480 644.5,-454 644.5,-454 644.5,-448 650.5,-442 656.5,-442 656.5,-442 829.5,-442 829.5,-442 835.5,-442 841.5,-448 841.5,-454 841.5,-454 841.5,-480 841.5,-480 841.5,-486 835.5,-492 829.5,-492"/>
<text text-anchor="middle" x="743" y="-470" font-family="Sans" font-size="10.00">ncm-network: support daemons to</text>
<text text-anchor="middle" x="743" y="-459" font-family="Sans" font-size="10.00">restart after network changes</text>
</a>
</g>
</g>
<!-- configuration&#45;modules&#45;core#1336&#45;&gt;configuration&#45;modules&#45;core#1071 -->
<g id="edge22" class="edge"><title>configuration-modules-core#1336-&gt;configuration-modules-core#1071</title>
<path fill="none" stroke="black" stroke-width="2" d="M518.352,-520.387C554.286,-511.809 596.389,-501.759 634.312,-492.706"/>
<polygon fill="black" stroke="black" points="635.457,-496.031 644.371,-490.305 633.832,-489.223 635.457,-496.031"/>
<text text-anchor="middle" x="569.612" y="-497.286" font-family="Sans" font-size="10.00">fixes</text>
</g>
<!-- configuration&#45;modules&#45;core#1336&#45;&gt;configuration&#45;modules&#45;core#1335 -->
<g id="edge29" class="edge"><title>configuration-modules-core#1336-&gt;configuration-modules-core#1335</title>
<path fill="none" stroke="black" stroke-dasharray="5,2" d="M518.352,-541C556.011,-541 600.444,-541 639.742,-541"/>
<polygon fill="none" stroke="black" points="639.88,-544.5 649.88,-541 639.88,-537.5 639.88,-544.5"/>
<text text-anchor="middle" x="603.78" y="-533" font-family="Sans" font-size="10.00">requires</text>
</g>
<!-- configuration&#45;modules&#45;core#1336&#45;&gt;configuration&#45;modules&#45;core#1071 -->
<g id="edge30" class="edge"><title>configuration-modules-core#1336-&gt;configuration-modules-core#1071</title>
<path fill="none" stroke="black" stroke-width="2" d="M518.352,-520.387C554.286,-511.809 596.389,-501.759 634.312,-492.706"/>
<polygon fill="black" stroke="black" points="635.457,-496.031 644.371,-490.305 633.832,-489.223 635.457,-496.031"/>
<text text-anchor="middle" x="593.612" y="-497.286" font-family="Sans" font-size="10.00">fixes</text>
</g>
<!-- template&#45;library&#45;core#191 -->
<g id="node22" class="node"><title>template-library-core#191</title>
<polygon fill="lightgrey" stroke="black" points="1109.5,-560.5 950.5,-560.5 950.5,-521.5 1109.5,-521.5 1109.5,-560.5"/>
<text text-anchor="middle" x="1030" y="-538.5" font-family="Sans" font-size="10.00">template-library-core#191</text>
</g>
<!-- configuration&#45;modules&#45;core#1335&#45;&gt;template&#45;library&#45;core#191 -->
<g id="edge23" class="edge"><title>configuration-modules-core#1335-&gt;template-library-core#191</title>
<path fill="none" stroke="black" stroke-dasharray="5,2" d="M836.138,-534.64C869.447,-534.103 906.968,-534.121 940.003,-534.692"/>
<polygon fill="none" stroke="black" points="940.035,-538.193 950.101,-534.887 940.17,-531.194 940.035,-538.193"/>
<text text-anchor="middle" x="873.142" y="-526.257" font-family="Sans" font-size="10.00">requires</text>
</g>
<!-- configuration&#45;modules&#45;core#1335&#45;&gt;template&#45;library&#45;core#191 -->
<g id="edge31" class="edge"><title>configuration-modules-core#1335-&gt;template-library-core#191</title>
<path fill="none" stroke="black" stroke-dasharray="5,2" d="M836.138,-547.36C869.447,-547.897 906.968,-547.879 940.003,-547.308"/>
<polygon fill="none" stroke="black" points="940.17,-550.806 950.101,-547.113 940.035,-543.807 940.17,-550.806"/>
<text text-anchor="middle" x="873.142" y="-539.743" font-family="Sans" font-size="10.00">requires</text>
</g>
<!-- configuration&#45;modules&#45;core#1507 -->
<g id="node23" class="node"><title>configuration-modules-core#1507</title>
<g id="a_node23"><a xlink:href="https://github.com/quattor/configuration-modules-core/pull/1507" xlink:title="configuration-modules-core#1507 (pull-request)" target="_parent">
<polygon fill="#6cc644" stroke="black" points="203,-1049 27,-1049 27,-999 203,-999 203,-1049"/>
<text text-anchor="middle" x="115" y="-1027" font-family="Sans" font-size="10.00">[WIP] ncm-spma: yumdnf: use</text>
<text text-anchor="middle" x="115" y="-1016" font-family="Sans" font-size="10.00">spmaleaves dnf plugin</text>
</a>
</g>
</g>
<!-- configuration&#45;modules&#45;core#1401 -->
<g id="node24" class="node"><title>configuration-modules-core#1401</title>
<polygon fill="lightgrey" stroke="black" points="528.5,-1043.5 333.5,-1043.5 333.5,-1004.5 528.5,-1004.5 528.5,-1043.5"/>
<text text-anchor="middle" x="431" y="-1021.5" font-family="Sans" font-size="10.00">configuration-modules-core#1401</text>
</g>
<!-- configuration&#45;modules&#45;core#1507&#45;&gt;configuration&#45;modules&#45;core#1401 -->
<g id="edge24" class="edge"><title>configuration-modules-core#1507-&gt;configuration-modules-core#1401</title>
<path fill="none" stroke="black" stroke-dasharray="5,2" d="M203.05,-1017.88C240.203,-1017.16 283.927,-1017.06 323.027,-1017.56"/>
<polygon fill="none" stroke="black" points="323.341,-1021.07 333.391,-1017.71 323.443,-1014.07 323.341,-1021.07"/>
<text text-anchor="middle" x="248.549" y="-1009.25" font-family="Sans" font-size="10.00">requires</text>
</g>
<!-- configuration&#45;modules&#45;core#1507&#45;&gt;configuration&#45;modules&#45;core#1401 -->
<g id="edge32" class="edge"><title>configuration-modules-core#1507-&gt;configuration-modules-core#1401</title>
<path fill="none" stroke="black" stroke-dasharray="5,2" d="M203.05,-1030.12C240.203,-1030.84 283.927,-1030.94 323.027,-1030.44"/>
<polygon fill="none" stroke="black" points="323.443,-1033.93 333.391,-1030.29 323.341,-1026.93 323.443,-1033.93"/>
<text text-anchor="middle" x="248.549" y="-1022.75" font-family="Sans" font-size="10.00">requires</text>
</g>
<!-- configuration&#45;modules&#45;core#1148 -->
<g id="node25" class="node"><title>configuration-modules-core#1148</title>
<g id="a_node25"><a xlink:href="https://github.com/quattor/configuration-modules-core/pull/1148" xlink:title="configuration-modules-core#1148 (pull-request)" target="_parent">
<polygon fill="#6cc644" stroke="black" points="214.5,-1185 15.5,-1185 15.5,-1135 214.5,-1135 214.5,-1185"/>
<text text-anchor="middle" x="115" y="-1163" font-family="Sans" font-size="10.00">ncm-spma: Remove support from</text>
<text text-anchor="middle" x="115" y="-1152" font-family="Sans" font-size="10.00">groups from spma yumng backend</text>
</a>
</g>
</g>
<!-- configuration&#45;modules&#45;core#952 -->
<g id="node26" class="node"><title>configuration-modules-core#952</title>
<g id="a_node26"><a xlink:href="https://github.com/quattor/configuration-modules-core/issues/952" xlink:title="configuration-modules-core#952 (issue)" target="_parent">
<path fill="#6cc644" stroke="black" d="M524,-1185C524,-1185 338,-1185 338,-1185 332,-1185 326,-1179 326,-1173 326,-1173 326,-1147 326,-1147 326,-1141 332,-1135 338,-1135 338,-1135 524,-1135 524,-1135 530,-1135 536,-1141 536,-1147 536,-1147 536,-1173 536,-1173 536,-1179 530,-1185 524,-1185"/>
<text text-anchor="middle" x="431" y="-1163" font-family="Sans" font-size="10.00">ncm-spma (yumng): Remove support</text>
<text text-anchor="middle" x="431" y="-1152" font-family="Sans" font-size="10.00">for package groups</text>
</a>
</g>
</g>
<!-- configuration&#45;modules&#45;core#1148&#45;&gt;configuration&#45;modules&#45;core#952 -->
<g id="edge33" class="edge"><title>configuration-modules-core#1148-&gt;configuration-modules-core#952</title>
<path fill="none" stroke="black" stroke-width="2" d="M214.921,-1160C246.933,-1160 282.695,-1160 315.726,-1160"/>
<polygon fill="black" stroke="black" points="315.883,-1163.5 325.883,-1160 315.882,-1156.5 315.883,-1163.5"/>
<text text-anchor="middle" x="258.546" y="-1152" font-family="Sans" font-size="10.00">fixes</text>
</g>
<!-- configuration&#45;modules&#45;core#950 -->
<g id="node27" class="node"><title>configuration-modules-core#950</title>
<g id="a_node27"><a xlink:href="https://github.com/quattor/configuration-modules-core/issues/950" xlink:title="configuration-modules-core#950 (issue)" target="_parent">
<path fill="#6cc644" stroke="black" d="M206,-1117C206,-1117 24,-1117 24,-1117 18,-1117 12,-1111 12,-1105 12,-1105 12,-1079 12,-1079 12,-1073 18,-1067 24,-1067 24,-1067 206,-1067 206,-1067 212,-1067 218,-1073 218,-1079 218,-1079 218,-1105 218,-1105 218,-1111 212,-1117 206,-1117"/>
<text text-anchor="middle" x="115" y="-1095" font-family="Sans" font-size="10.00">ncm-spma: Remove support for</text>
<text text-anchor="middle" x="115" y="-1084" font-family="Sans" font-size="10.00">package groups from yum backends</text>
</a>
</g>
</g>
<!-- configuration&#45;modules&#45;core#951 -->
<g id="node28" class="node"><title>configuration-modules-core#951</title>
<g id="a_node28"><a xlink:href="https://github.com/quattor/configuration-modules-core/issues/951" xlink:title="configuration-modules-core#951 (issue)" target="_parent">
<path fill="#6cc644" stroke="black" d="M518,-1117C518,-1117 344,-1117 344,-1117 338,-1117 332,-1111 332,-1105 332,-1105 332,-1079 332,-1079 332,-1073 338,-1067 344,-1067 344,-1067 518,-1067 518,-1067 524,-1067 530,-1073 530,-1079 530,-1079 530,-1105 530,-1105 530,-1111 524,-1117 518,-1117"/>
<text text-anchor="middle" x="431" y="-1095" font-family="Sans" font-size="10.00">ncm-spma (yum): Remove support</text>
<text text-anchor="middle" x="431" y="-1084" font-family="Sans" font-size="10.00">for package groups</text>
</a>
</g>
</g>
<!-- configuration&#45;modules&#45;core#950&#45;&gt;configuration&#45;modules&#45;core#951 -->
<g id="edge34" class="edge"><title>configuration-modules-core#950-&gt;configuration-modules-core#951</title>
<path fill="none" stroke="black" stroke-dasharray="5,2" d="M218.381,-1092C251.386,-1092 288.071,-1092 321.502,-1092"/>
<polygon fill="none" stroke="black" points="321.765,-1095.5 331.765,-1092 321.765,-1088.5 321.765,-1095.5"/>
<text text-anchor="middle" x="255.107" y="-1084" font-family="Sans" font-size="10.00">requires</text>
</g>
<!-- configuration&#45;modules&#45;core#950&#45;&gt;configuration&#45;modules&#45;core#952 -->
<g id="edge35" class="edge"><title>configuration-modules-core#950-&gt;configuration-modules-core#952</title>
<path fill="none" stroke="black" stroke-dasharray="5,2" d="M218.381,-1114.17C249.602,-1120.93 284.116,-1128.41 316.053,-1135.32"/>
<polygon fill="none" stroke="black" points="315.361,-1138.75 325.876,-1137.45 316.843,-1131.91 315.361,-1138.75"/>
<text text-anchor="middle" x="252.372" y="-1117.86" font-family="Sans" font-size="10.00">requires</text>
</g>
<!-- template&#45;library&#45;grid#241 -->
<g id="node29" class="node"><title>template-library-grid#241</title>
<g id="a_node29"><a xlink:href="https://github.com/quattor/template-library-grid/pull/241" xlink:title="template-library-grid#241 (pull-request)" target="_parent">
<polygon fill="#6cc644" stroke="black" points="528,-492 334,-492 334,-442 528,-442 528,-492"/>
<text text-anchor="middle" x="431" y="-470" font-family="Sans" font-size="10.00">machines-types update based on</text>
<text text-anchor="middle" x="431" y="-459" font-family="Sans" font-size="10.00">new standard/machine-types/core</text>
</a>
</g>
</g>
<!-- template&#45;library&#45;standard#140 -->
<g id="node30" class="node"><title>template-library-standard#140</title>
<g id="a_node30"><a xlink:href="https://github.com/quattor/template-library-standard/pull/140" xlink:title="template-library-standard#140 (pull-request)" target="_parent">
<polygon fill="#6cc644" stroke="black" points="834,-424 652,-424 652,-374 834,-374 834,-424"/>
<text text-anchor="middle" x="743" y="-402" font-family="Sans" font-size="10.00">machine-types/core refactoring</text>
<text text-anchor="middle" x="743" y="-391" font-family="Sans" font-size="10.00">to make it more flexible</text>
</a>
</g>
</g>
<!-- template&#45;library&#45;grid#241&#45;&gt;template&#45;library&#45;standard#140 -->
<g id="edge36" class="edge"><title>template-library-grid#241-&gt;template-library-standard#140</title>
<path fill="none" stroke="black" stroke-dasharray="5,2" d="M528.387,-445.857C564.372,-437.964 605.301,-428.986 641.636,-421.015"/>
<polygon fill="none" stroke="black" points="642.736,-424.357 651.754,-418.796 641.237,-417.52 642.736,-424.357"/>
<text text-anchor="middle" x="569.849" y="-424.375" font-family="Sans" font-size="10.00">requires</text>
</g>
<!-- template&#45;library&#45;grid#232 -->
<g id="node31" class="node"><title>template-library-grid#232</title>
<g id="a_node31"><a xlink:href="https://github.com/quattor/template-library-grid/pull/232" xlink:title="template-library-grid#232 (pull-request)" target="_parent">
<polygon fill="#6cc644" stroke="black" points="198.5,-882 31.5,-882 31.5,-832 198.5,-832 198.5,-882"/>
<text text-anchor="middle" x="115" y="-860" font-family="Sans" font-size="10.00">arc-ce: Export arc-ce feature</text>
<text text-anchor="middle" x="115" y="-849" font-family="Sans" font-size="10.00">from aquilon at RAL</text>
</a>
</g>
</g>
<!-- template&#45;library&#45;grid#221 -->
<g id="node32" class="node"><title>template-library-grid#221</title>
<g id="a_node32"><a xlink:href="https://github.com/quattor/template-library-grid/issues/221" xlink:title="template-library-grid#221 (issue)" target="_parent">
<path fill="#6cc644" stroke="black" d="M508,-882C508,-882 354,-882 354,-882 348,-882 342,-876 342,-870 342,-870 342,-844 342,-844 342,-838 348,-832 354,-832 354,-832 508,-832 508,-832 514,-832 520,-838 520,-844 520,-844 520,-870 520,-870 520,-876 514,-882 508,-882"/>
<text text-anchor="middle" x="431" y="-860" font-family="Sans" font-size="10.00">Support for new CE types (ARC</text>
<text text-anchor="middle" x="431" y="-849" font-family="Sans" font-size="10.00">CE, HTCONDOR CE)</text>
</a>
</g>
</g>
<!-- template&#45;library&#45;grid#232&#45;&gt;template&#45;library&#45;grid#221 -->
<g id="edge37" class="edge"><title>template-library-grid#232-&gt;template-library-grid#221</title>
<path fill="none" stroke="black" stroke-width="2" d="M198.911,-857C239.702,-857 289.151,-857 331.823,-857"/>
<polygon fill="black" stroke="black" points="331.947,-860.5 341.947,-857 331.947,-853.5 331.947,-860.5"/>
<text text-anchor="middle" x="258.543" y="-849" font-family="Sans" font-size="10.00">fixes</text>
</g>
<!-- aquilon#115 -->
<g id="node33" class="node"><title>aquilon#115</title>
<g id="a_node33"><a xlink:href="https://github.com/quattor/aquilon/pull/115" xlink:title="aquilon#115 (pull-request)" target="_parent">
<polygon fill="#6cc644" stroke="black" points="198,-1457 32,-1457 32,-1407 198,-1407 198,-1457"/>
<text text-anchor="middle" x="115" y="-1435" font-family="Sans" font-size="10.00">services: insert service data</text>
<text text-anchor="middle" x="115" y="-1424" font-family="Sans" font-size="10.00">early in the object template</text>
</a>
</g>
</g>
<!-- aquilon#109 -->
<g id="node34" class="node"><title>aquilon#109</title>
<g id="a_node34"><a xlink:href="https://github.com/quattor/aquilon/issues/109" xlink:title="aquilon#109 (issue)" target="_parent">
<path fill="#6cc644" stroke="black" d="M507,-1456.5C507,-1456.5 355,-1456.5 355,-1456.5 349,-1456.5 343,-1450.5 343,-1444.5 343,-1444.5 343,-1407.5 343,-1407.5 343,-1401.5 349,-1395.5 355,-1395.5 355,-1395.5 507,-1395.5 507,-1395.5 513,-1395.5 519,-1401.5 519,-1407.5 519,-1407.5 519,-1444.5 519,-1444.5 519,-1450.5 513,-1456.5 507,-1456.5"/>
<text text-anchor="middle" x="431" y="-1434.5" font-family="Sans" font-size="10.00">Why service configuration is</text>
<text text-anchor="middle" x="431" y="-1423.5" font-family="Sans" font-size="10.00">included so late in the plenary</text>
<text text-anchor="middle" x="431" y="-1412.5" font-family="Sans" font-size="10.00">object?</text>
</a>
</g>
</g>
<!-- aquilon#115&#45;&gt;aquilon#109 -->
<g id="edge38" class="edge"><title>aquilon#115-&gt;aquilon#109</title>
<path fill="none" stroke="black" stroke-width="2" d="M198.09,-1430.43C239.304,-1429.64 289.515,-1428.68 332.663,-1427.86"/>
<polygon fill="black" stroke="black" points="332.965,-1431.35 342.896,-1427.66 332.831,-1424.36 332.965,-1431.35"/>
<text text-anchor="middle" x="258.61" y="-1421.05" font-family="Sans" font-size="10.00">fixes</text>
</g>
<!-- aquilon#110 -->
<g id="node35" class="node"><title>aquilon#110</title>
<g id="a_node35"><a xlink:href="https://github.com/quattor/aquilon/pull/110" xlink:title="aquilon#110 (pull-request)" target="_parent">
<polygon fill="#6cc644" stroke="black" points="213.5,-1389 16.5,-1389 16.5,-1339 213.5,-1339 213.5,-1389"/>
<text text-anchor="middle" x="115" y="-1367" font-family="Sans" font-size="10.00">Change site and machine</text>
<text text-anchor="middle" x="115" y="-1356" font-family="Sans" font-size="10.00">namespace to use continent name</text>
</a>
</g>
</g>
<!-- aquilon#104 -->
<g id="node36" class="node"><title>aquilon#104</title>
<g id="a_node36"><a xlink:href="https://github.com/quattor/aquilon/issues/104" xlink:title="aquilon#104 (issue)" target="_parent">
<path fill="#6cc644" stroke="black" d="M496.5,-1355C496.5,-1355 365.5,-1355 365.5,-1355 359.5,-1355 353.5,-1349 353.5,-1343 353.5,-1343 353.5,-1317 353.5,-1317 353.5,-1311 359.5,-1305 365.5,-1305 365.5,-1305 496.5,-1305 496.5,-1305 502.5,-1305 508.5,-1311 508.5,-1317 508.5,-1317 508.5,-1343 508.5,-1343 508.5,-1349 502.5,-1355 496.5,-1355"/>
<text text-anchor="middle" x="431" y="-1333" font-family="Sans" font-size="10.00">1.12.62: location related</text>
<text text-anchor="middle" x="431" y="-1322" font-family="Sans" font-size="10.00">templates cannot be used</text>
</a>
</g>
</g>
<!-- aquilon#110&#45;&gt;aquilon#104 -->
<g id="edge39" class="edge"><title>aquilon#110-&gt;aquilon#104</title>
<path fill="none" stroke="black" stroke-width="2" d="M213.63,-1353.43C255.122,-1348.94 303.101,-1343.74 343.32,-1339.39"/>
<polygon fill="black" stroke="black" points="343.804,-1342.85 353.369,-1338.3 343.05,-1335.89 343.804,-1342.85"/>
<text text-anchor="middle" x="271.634" y="-1337.85" font-family="Sans" font-size="10.00">fixes</text>
</g>
<!-- aquilon#91 -->
<g id="node37" class="node"><title>aquilon#91</title>
<g id="a_node37"><a xlink:href="https://github.com/quattor/aquilon/issues/91" xlink:title="aquilon#91 (issue)" target="_parent">
<path fill="#6cc644" stroke="black" d="M190.5,-1321C190.5,-1321 39.5,-1321 39.5,-1321 33.5,-1321 27.5,-1315 27.5,-1309 27.5,-1309 27.5,-1283 27.5,-1283 27.5,-1277 33.5,-1271 39.5,-1271 39.5,-1271 190.5,-1271 190.5,-1271 196.5,-1271 202.5,-1277 202.5,-1283 202.5,-1283 202.5,-1309 202.5,-1309 202.5,-1315 196.5,-1321 190.5,-1321"/>
<text text-anchor="middle" x="115" y="-1299" font-family="Sans" font-size="10.00">1.12.58: city timezone is not</text>
<text text-anchor="middle" x="115" y="-1288" font-family="Sans" font-size="10.00">passed to the object template</text>
</a>
</g>
</g>
<!-- aquilon#91&#45;&gt;aquilon#104 -->
<g id="edge40" class="edge"><title>aquilon#91-&gt;aquilon#104</title>
<path fill="none" stroke="black" stroke-dasharray="5,2" d="M202.633,-1305.38C246.42,-1310.12 299.413,-1315.86 343.22,-1320.6"/>
<polygon fill="none" stroke="black" points="342.962,-1324.1 353.281,-1321.69 343.716,-1317.14 342.962,-1324.1"/>
<text text-anchor="middle" x="258.022" y="-1305.54" font-family="Sans" font-size="10.00">requires</text>
</g>
<!-- aquilon#89 -->
<g id="node38" class="node"><title>aquilon#89</title>
<g id="a_node38"><a xlink:href="https://github.com/quattor/aquilon/pull/89" xlink:title="aquilon#89 (pull-request)" target="_parent">
<polygon fill="#6cc644" stroke="black" points="201.5,-1253 28.5,-1253 28.5,-1203 201.5,-1203 201.5,-1253"/>
<text text-anchor="middle" x="115" y="-1231" font-family="Sans" font-size="10.00">Broker: pass archetype to the</text>
<text text-anchor="middle" x="115" y="-1220" font-family="Sans" font-size="10.00">object profile</text>
</a>
</g>
</g>
<!-- aquilon#88 -->
<g id="node39" class="node"><title>aquilon#88</title>
<g id="a_node39"><a xlink:href="https://github.com/quattor/aquilon/issues/88" xlink:title="aquilon#88 (issue)" target="_parent">
<path fill="#6cc644" stroke="black" d="M510,-1264.5C510,-1264.5 352,-1264.5 352,-1264.5 346,-1264.5 340,-1258.5 340,-1252.5 340,-1252.5 340,-1215.5 340,-1215.5 340,-1209.5 346,-1203.5 352,-1203.5 352,-1203.5 510,-1203.5 510,-1203.5 516,-1203.5 522,-1209.5 522,-1215.5 522,-1215.5 522,-1252.5 522,-1252.5 522,-1258.5 516,-1264.5 510,-1264.5"/>
<text text-anchor="middle" x="431" y="-1242.5" font-family="Sans" font-size="10.00">1.12.58: the broker should pass</text>
<text text-anchor="middle" x="431" y="-1231.5" font-family="Sans" font-size="10.00">the archetype to the object</text>
<text text-anchor="middle" x="431" y="-1220.5" font-family="Sans" font-size="10.00">template</text>
</a>
</g>
</g>
<!-- aquilon#89&#45;&gt;aquilon#88 -->
<g id="edge41" class="edge"><title>aquilon#89-&gt;aquilon#88</title>
<path fill="none" stroke="black" stroke-width="2" d="M201.802,-1229.64C241.391,-1230.4 288.643,-1231.3 329.852,-1232.09"/>
<polygon fill="black" stroke="black" points="329.85,-1235.59 339.915,-1232.28 329.984,-1228.59 329.85,-1235.59"/>
<text text-anchor="middle" x="258.872" y="-1222.96" font-family="Sans" font-size="10.00">fixes</text>
</g>
</g>
</svg>
