<?xml version="1.0" encoding="UTF-8" standalone="no"?>
<?xml-stylesheet href="relationships.css" type="text/css"?>
<!-- Generated by graphviz version 2.26.0 (20091210.2329)
 -->
<!-- Title: Dependencies Pages: 1 -->
<svg xmlns="http://www.w3.org/2000/svg" xmlns:xlink="http://www.w3.org/1999/xlink" width="578pt" height="1188pt" viewBox="0.00 0.00 578.00 1188.00">
<g id="graph1" class="graph" transform="scale(1 1) rotate(0) translate(4 1184)">
<title>Dependencies</title>
<polygon fill="white" stroke="white" points="-4,5 -4,-1184 575,-1184 575,5 -4,5"/>
<g id="graph3" class="cluster"><title>cluster_18.3</title>
<polygon fill="none" stroke="black" points="24,-108 24,-838 562,-838 562,-108 24,-108"/>
<text text-anchor="middle" x="293" y="-823.2" font-family="Sans" font-size="12.00">18.3</text>
</g>
<!-- aii#210 -->
<g id="node1" class="node"><title>aii#210</title>
<a xlink:href="https://github.com/quattor/aii/pull/210" xlink:title="Shellfe: support active config for plugins" target="_parent">
<polygon fill="#6cc644" stroke="black" points="157,-723 79,-723 79,-669 157,-669 157,-723"/>
<text text-anchor="middle" x="118" y="-700" font-family="Sans" font-size="10.00">pull-request</text>
<text text-anchor="middle" x="118" y="-687" font-family="Sans" font-size="10.00">aii#210</text>
</a>
</g>
<!-- aii#209 -->
<g id="node3" class="node"><title>aii#209</title>
<a xlink:href="https://github.com/quattor/aii/issues/209" xlink:title="support ACTIVE_CONFIG" target="_parent">
<ellipse fill="#6cc644" stroke="black" cx="432" cy="-696" rx="41.2167" ry="38.1838"/>
<text text-anchor="middle" x="432" y="-700" font-family="Sans" font-size="10.00">issue</text>
<text text-anchor="middle" x="432" y="-687" font-family="Sans" font-size="10.00">aii#209</text>
</a>
</g>
<!-- aii#210&#45;&gt;aii#209 -->
<g id="edge2" class="edge"><title>aii#210-&gt;aii#209</title>
<path fill="none" stroke="black" stroke-width="2" d="M157.768,-696C214.279,-696 317.868,-696 380.284,-696"/>
<polygon fill="black" stroke="black" points="380.31,-699.5 390.31,-696 380.31,-692.5 380.31,-699.5"/>
<text text-anchor="middle" x="273" y="-700" font-family="Sans" font-size="10.00">fixes</text>
</g>
<!-- ncm&#45;ncd#74 -->
<g id="node5" class="node"><title>ncm-ncd#74</title>
<a xlink:href="https://github.com/quattor/ncm-ncd/pull/74" xlink:title="Set the current active config as an attribute to the component" target="_parent">
<polygon fill="#6cc644" stroke="black" points="473,-806 391,-806 391,-752 473,-752 473,-806"/>
<text text-anchor="middle" x="432" y="-783" font-family="Sans" font-size="10.00">pull-request</text>
<text text-anchor="middle" x="432" y="-770" font-family="Sans" font-size="10.00">ncm-ncd#74</text>
</a>
</g>
<!-- aii#210&#45;&gt;ncm&#45;ncd#74 -->
<g id="edge4" class="edge"><title>aii#210-&gt;ncm-ncd#74</title>
<path fill="none" stroke="black" stroke-dasharray="5,2" d="M157.609,-706.38C180.517,-712.39 209.889,-720.106 236,-727 285.266,-740.007 341.475,-754.927 381.028,-765.441"/>
<polygon fill="none" stroke="black" points="380.148,-768.828 390.711,-768.015 381.946,-762.063 380.148,-768.828"/>
<text text-anchor="middle" x="273" y="-746" font-family="Sans" font-size="10.00">requires</text>
</g>
<!-- aii#203 -->
<g id="node7" class="node"><title>aii#203</title>
<polygon fill="lightgrey" stroke="black" points="461,-98.5 403,-98.5 403,-57.5 461,-57.5 461,-98.5"/>
<text text-anchor="middle" x="432" y="-75.5" font-family="Sans" font-size="10.00">aii#203</text>
</g>
<!-- aii#210&#45;&gt;aii#203 -->
<g id="edge6" class="edge"><title>aii#210-&gt;aii#203</title>
<path fill="none" stroke="black" stroke-dasharray="5,2" d="M157.721,-687.662C184.699,-679.744 218.537,-664.901 236,-638 264.94,-593.421 232.74,-208.712 254,-160 268.079,-127.74 279.072,-120.803 310,-104 335.309,-90.2498 367.249,-83.7691 392.1,-80.7159"/>
<polygon fill="none" stroke="black" points="392.715,-84.1697 402.276,-79.606 391.956,-77.211 392.715,-84.1697"/>
<text text-anchor="middle" x="273" y="-164" font-family="Sans" font-size="10.00">requires</text>
</g>
<!-- CAF#257 -->
<g id="node8" class="node"><title>CAF#257</title>
<a xlink:href="https://github.com/quattor/CAF/pull/257" xlink:title="Process: run process as another user" target="_parent">
<polygon fill="#6cc644" stroke="black" points="157,-629 79,-629 79,-575 157,-575 157,-629"/>
<text text-anchor="middle" x="118" y="-606" font-family="Sans" font-size="10.00">pull-request</text>
<text text-anchor="middle" x="118" y="-593" font-family="Sans" font-size="10.00">CAF#257</text>
</a>
</g>
<!-- CAF#253 -->
<g id="node10" class="node"><title>CAF#253</title>
<a xlink:href="https://github.com/quattor/CAF/issues/253" xlink:title="CAF::Process: Include an option to execute the command as an specific user" target="_parent">
<ellipse fill="#6cc644" stroke="black" cx="432" cy="-602" rx="48.9975" ry="38.1838"/>
<text text-anchor="middle" x="432" y="-606" font-family="Sans" font-size="10.00">issue</text>
<text text-anchor="middle" x="432" y="-593" font-family="Sans" font-size="10.00">CAF#253</text>
</a>
</g>
<!-- CAF#257&#45;&gt;CAF#253 -->
<g id="edge8" class="edge"><title>CAF#257-&gt;CAF#253</title>
<path fill="none" stroke="black" stroke-width="2" d="M157.768,-602C211.934,-602 309.353,-602 372.308,-602"/>
<polygon fill="black" stroke="black" points="372.488,-605.5 382.488,-602 372.488,-598.5 372.488,-605.5"/>
<text text-anchor="middle" x="273" y="-606" font-family="Sans" font-size="10.00">fixes</text>
</g>
<!-- CAF#110 -->
<g id="node11" class="node"><title>CAF#110</title>
<a xlink:href="https://github.com/quattor/CAF/pull/110" xlink:title="Download: API proposal" target="_parent">
<polygon fill="#6cc644" stroke="black" points="157,-900 79,-900 79,-846 157,-846 157,-900"/>
<text text-anchor="middle" x="118" y="-877" font-family="Sans" font-size="10.00">pull-request</text>
<text text-anchor="middle" x="118" y="-864" font-family="Sans" font-size="10.00">CAF#110</text>
</a>
</g>
<!-- CAF#120 -->
<g id="node13" class="node"><title>CAF#120</title>
<polygon fill="lightgrey" stroke="black" points="467,-893.5 397,-893.5 397,-852.5 467,-852.5 467,-893.5"/>
<text text-anchor="middle" x="432" y="-870.5" font-family="Sans" font-size="10.00">CAF#120</text>
</g>
<!-- CAF#110&#45;&gt;CAF#120 -->
<g id="edge10" class="edge"><title>CAF#110-&gt;CAF#120</title>
<path fill="none" stroke="black" stroke-dasharray="5,2" d="M157.768,-873C216.269,-873 325.221,-873 386.719,-873"/>
<polygon fill="none" stroke="black" points="386.897,-876.5 396.897,-873 386.897,-869.5 386.897,-876.5"/>
<text text-anchor="middle" x="273" y="-877" font-family="Sans" font-size="10.00">requires</text>
</g>
<!-- configuration&#45;modules&#45;core#1230 -->
<g id="node14" class="node"><title>configuration-modules-core#1230</title>
<a xlink:href="https://github.com/quattor/configuration-modules-core/pull/1230" xlink:title="ncm-ceph: support for luminous, bluestore, ceph-volume and per host osd deployment" target="_parent">
<polygon fill="#6cc644" stroke="black" points="204,-170 32,-170 32,-116 204,-116 204,-170"/>
<text text-anchor="middle" x="118" y="-147" font-family="Sans" font-size="10.00">pull-request</text>
<text text-anchor="middle" x="118" y="-134" font-family="Sans" font-size="10.00">configuration-modules-core#1230</text>
</a>
</g>
<!-- configuration&#45;modules&#45;core#1224 -->
<g id="node16" class="node"><title>configuration-modules-core#1224</title>
<polygon fill="lightgrey" stroke="black" points="518,-40.5 346,-40.5 346,0.5 518,0.5 518,-40.5"/>
<text text-anchor="middle" x="432" y="-17.5" font-family="Sans" font-size="10.00">configuration-modules-core#1224</text>
</g>
<!-- configuration&#45;modules&#45;core#1230&#45;&gt;configuration&#45;modules&#45;core#1224 -->
<g id="edge24" class="edge"><title>configuration-modules-core#1230-&gt;configuration-modules-core#1224</title>
<path fill="none" stroke="black" stroke-dasharray="1,5" d="M153.011,-115.877C179.404,-96.7094 217.226,-71.8762 254,-57 279.799,-46.5635 308.942,-38.9269 336.065,-33.3996"/>
<polygon fill="black" stroke="black" points="345.956,-31.4574 337.011,-37.7999 341.05,-32.4208 336.144,-33.3842 336.144,-33.3842 336.144,-33.3842 341.05,-32.4208 335.277,-28.9685 345.956,-31.4574 345.956,-31.4574"/>
<text text-anchor="middle" x="273" y="-61" font-family="Sans" font-size="10.00">replaces</text>
</g>
<!-- configuration&#45;modules&#45;core#1230&#45;&gt;configuration&#45;modules&#45;core#1224 -->
<g id="edge12" class="edge"><title>configuration-modules-core#1230-&gt;configuration-modules-core#1224</title>
<path fill="none" stroke="black" stroke-dasharray="1,5" d="M137.965,-115.933C161.765,-86.1813 204.583,-40.0762 254,-21 279.436,-11.181 308.482,-8.0113 335.628,-8.07394"/>
<polygon fill="black" stroke="black" points="345.928,-8.24909 335.853,-12.5783 340.929,-8.16403 335.929,-8.07896 335.929,-8.07896 335.929,-8.07896 340.929,-8.16403 336.006,-3.57962 345.928,-8.24909 345.928,-8.24909"/>
<text text-anchor="middle" x="273" y="-25" font-family="Sans" font-size="10.00">replaces</text>
</g>
<!-- configuration&#45;modules&#45;core#1220 -->
<g id="node17" class="node"><title>configuration-modules-core#1220</title>
<a xlink:href="https://github.com/quattor/configuration-modules-core/pull/1220" xlink:title="ncm-cups: Stop daemon if server not enabled" target="_parent">
<polygon fill="#6cc644" stroke="black" points="204,-535 32,-535 32,-481 204,-481 204,-535"/>
<text text-anchor="middle" x="118" y="-512" font-family="Sans" font-size="10.00">pull-request</text>
<text text-anchor="middle" x="118" y="-499" font-family="Sans" font-size="10.00">configuration-modules-core#1220</text>
</a>
</g>
<!-- configuration&#45;modules&#45;core#1189 -->
<g id="node19" class="node"><title>configuration-modules-core#1189</title>
<a xlink:href="https://github.com/quattor/configuration-modules-core/issues/1189" xlink:title="ncm-cups: Nodetype of client should stop running cups daemon" target="_parent">
<ellipse fill="#6cc644" stroke="black" cx="432" cy="-508" rx="121.122" ry="38.1838"/>
<text text-anchor="middle" x="432" y="-512" font-family="Sans" font-size="10.00">issue</text>
<text text-anchor="middle" x="432" y="-499" font-family="Sans" font-size="10.00">configuration-modules-core#1189</text>
</a>
</g>
<!-- configuration&#45;modules&#45;core#1220&#45;&gt;configuration&#45;modules&#45;core#1189 -->
<g id="edge26" class="edge"><title>configuration-modules-core#1220-&gt;configuration-modules-core#1189</title>
<path fill="none" stroke="black" stroke-width="2" d="M204.182,-495.588C220.685,-493.676 237.851,-492.005 254,-491 272.601,-489.842 292.267,-490.162 311.475,-491.331"/>
<polygon fill="black" stroke="black" points="311.254,-494.824 321.47,-492.016 311.733,-487.84 311.254,-494.824"/>
<text text-anchor="middle" x="273" y="-495" font-family="Sans" font-size="10.00">fixes</text>
</g>
<!-- configuration&#45;modules&#45;core#1220&#45;&gt;configuration&#45;modules&#45;core#1189 -->
<g id="edge14" class="edge"><title>configuration-modules-core#1220-&gt;configuration-modules-core#1189</title>
<path fill="none" stroke="black" stroke-width="2" d="M204.217,-508C233.916,-508 267.888,-508 300.372,-508"/>
<polygon fill="black" stroke="black" points="300.399,-511.5 310.399,-508 300.399,-504.5 300.399,-511.5"/>
<text text-anchor="middle" x="273" y="-512" font-family="Sans" font-size="10.00">fixes</text>
</g>
<!-- configuration&#45;modules&#45;core#1105 -->
<g id="node20" class="node"><title>configuration-modules-core#1105</title>
<a xlink:href="https://github.com/quattor/configuration-modules-core/pull/1105" xlink:title="ncm-authconfig: fix krb5_realm, user_object_class and newline between ldap_krb5_canonicalize and ldap_krb5_realm" target="_parent">
<polygon fill="#6cc644" stroke="black" points="204,-346 32,-346 32,-292 204,-292 204,-346"/>
<text text-anchor="middle" x="118" y="-323" font-family="Sans" font-size="10.00">pull-request</text>
<text text-anchor="middle" x="118" y="-310" font-family="Sans" font-size="10.00">configuration-modules-core#1105</text>
</a>
</g>
<!-- configuration&#45;modules&#45;core#1100 -->
<g id="node22" class="node"><title>configuration-modules-core#1100</title>
<a xlink:href="https://github.com/quattor/configuration-modules-core/issues/1100" xlink:title="ncm-authconfig : no newline after krb5_canonicalize option" target="_parent">
<ellipse fill="#6cc644" stroke="black" cx="432" cy="-226" rx="121.122" ry="38.1838"/>
<text text-anchor="middle" x="432" y="-230" font-family="Sans" font-size="10.00">issue</text>
<text text-anchor="middle" x="432" y="-217" font-family="Sans" font-size="10.00">configuration-modules-core#1100</text>
</a>
</g>
<!-- configuration&#45;modules&#45;core#1105&#45;&gt;configuration&#45;modules&#45;core#1100 -->
<g id="edge28" class="edge"><title>configuration-modules-core#1105-&gt;configuration-modules-core#1100</title>
<path fill="none" stroke="black" stroke-width="2" d="M164.709,-291.988C190.307,-278.313 223.047,-262.615 254,-253 270.874,-247.758 288.976,-243.515 306.94,-240.085"/>
<polygon fill="black" stroke="black" points="307.691,-243.506 316.897,-238.262 306.43,-236.62 307.691,-243.506"/>
<text text-anchor="middle" x="273" y="-257" font-family="Sans" font-size="10.00">fixes</text>
</g>
<!-- configuration&#45;modules&#45;core#1105&#45;&gt;configuration&#45;modules&#45;core#1100 -->
<g id="edge16" class="edge"><title>configuration-modules-core#1105-&gt;configuration-modules-core#1100</title>
<path fill="none" stroke="black" stroke-width="2" d="M204.217,-293.464C244.304,-281.591 292.178,-267.412 333.668,-255.124"/>
<polygon fill="black" stroke="black" points="334.922,-258.403 343.516,-252.207 332.934,-251.691 334.922,-258.403"/>
<text text-anchor="middle" x="273" y="-283" font-family="Sans" font-size="10.00">fixes</text>
</g>
<!-- configuration&#45;modules&#45;core#1102 -->
<g id="node24" class="node"><title>configuration-modules-core#1102</title>
<a xlink:href="https://github.com/quattor/configuration-modules-core/issues/1102" xlink:title="ncm-authconfig: There is no " target="_parent">
<ellipse fill="#6cc644" stroke="black" cx="432" cy="-320" rx="121.122" ry="38.1838"/>
<text text-anchor="middle" x="432" y="-324" font-family="Sans" font-size="10.00">issue</text>
<text text-anchor="middle" x="432" y="-311" font-family="Sans" font-size="10.00">configuration-modules-core#1102</text>
</a>
</g>
<!-- configuration&#45;modules&#45;core#1105&#45;&gt;configuration&#45;modules&#45;core#1102 -->
<g id="edge30" class="edge"><title>configuration-modules-core#1105-&gt;configuration-modules-core#1102</title>
<path fill="none" stroke="black" stroke-width="2" d="M204.2,-307.318C220.701,-305.518 237.861,-303.946 254,-303 272.605,-301.909 292.273,-302.265 311.482,-303.449"/>
<polygon fill="black" stroke="black" points="311.26,-306.942 321.478,-304.14 311.743,-299.959 311.26,-306.942"/>
<text text-anchor="middle" x="273" y="-307" font-family="Sans" font-size="10.00">fixes</text>
</g>
<!-- configuration&#45;modules&#45;core#1105&#45;&gt;configuration&#45;modules&#45;core#1102 -->
<g id="edge18" class="edge"><title>configuration-modules-core#1105-&gt;configuration-modules-core#1102</title>
<path fill="none" stroke="black" stroke-width="2" d="M204.217,-319.275C233.916,-319.369 267.888,-319.477 300.372,-319.581"/>
<polygon fill="black" stroke="black" points="300.388,-323.081 310.399,-319.613 300.41,-316.081 300.388,-323.081"/>
<text text-anchor="middle" x="273" y="-324" font-family="Sans" font-size="10.00">fixes</text>
</g>
<!-- configuration&#45;modules&#45;core#1103 -->
<g id="node26" class="node"><title>configuration-modules-core#1103</title>
<a xlink:href="https://github.com/quattor/configuration-modules-core/issues/1103" xlink:title="ncm-authconfig: krb5_realm = ARRAY(0x39a5830)" target="_parent">
<ellipse fill="#6cc644" stroke="black" cx="432" cy="-414" rx="121.122" ry="38.1838"/>
<text text-anchor="middle" x="432" y="-418" font-family="Sans" font-size="10.00">issue</text>
<text text-anchor="middle" x="432" y="-405" font-family="Sans" font-size="10.00">configuration-modules-core#1103</text>
</a>
</g>
<!-- configuration&#45;modules&#45;core#1105&#45;&gt;configuration&#45;modules&#45;core#1103 -->
<g id="edge32" class="edge"><title>configuration-modules-core#1105-&gt;configuration-modules-core#1103</title>
<path fill="none" stroke="black" stroke-width="2" d="M204.33,-344.659C232.313,-353.013 263.486,-362.36 292,-371 306.172,-375.294 321.143,-379.86 335.814,-384.352"/>
<polygon fill="black" stroke="black" points="334.814,-387.706 345.401,-387.289 336.865,-381.013 334.814,-387.706"/>
<text text-anchor="middle" x="273" y="-375" font-family="Sans" font-size="10.00">fixes</text>
</g>
<!-- configuration&#45;modules&#45;core#1105&#45;&gt;configuration&#45;modules&#45;core#1103 -->
<g id="edge20" class="edge"><title>configuration-modules-core#1105-&gt;configuration-modules-core#1103</title>
<path fill="none" stroke="black" stroke-width="2" d="M162.383,-346.157C188.229,-360.769 221.95,-377.83 254,-388 270.423,-393.212 288.035,-397.385 305.561,-400.724"/>
<polygon fill="black" stroke="black" points="305.395,-404.251 315.86,-402.596 306.647,-397.364 305.395,-404.251"/>
<text text-anchor="middle" x="273" y="-401" font-family="Sans" font-size="10.00">fixes</text>
</g>
<!-- configuration&#45;modules&#45;core#1148 -->
<g id="node27" class="node"><title>configuration-modules-core#1148</title>
<a xlink:href="https://github.com/quattor/configuration-modules-core/pull/1148" xlink:title="ncm-spma: Remove support from groups from spma yumng backend" target="_parent">
<polygon fill="#6cc644" stroke="black" points="204,-1091 32,-1091 32,-1037 204,-1037 204,-1091"/>
<text text-anchor="middle" x="118" y="-1068" font-family="Sans" font-size="10.00">pull-request</text>
<text text-anchor="middle" x="118" y="-1055" font-family="Sans" font-size="10.00">configuration-modules-core#1148</text>
</a>
</g>
<!-- configuration&#45;modules&#45;core#952 -->
<g id="node29" class="node"><title>configuration-modules-core#952</title>
<a xlink:href="https://github.com/quattor/configuration-modules-core/issues/952" xlink:title="ncm-spma (yumng): Remove support for package groups" target="_parent">
<ellipse fill="#6cc644" stroke="black" cx="432" cy="-1043" rx="118.087" ry="38.1838"/>
<text text-anchor="middle" x="432" y="-1047" font-family="Sans" font-size="10.00">issue</text>
<text text-anchor="middle" x="432" y="-1034" font-family="Sans" font-size="10.00">configuration-modules-core#952</text>
</a>
</g>
<!-- configuration&#45;modules&#45;core#1148&#45;&gt;configuration&#45;modules&#45;core#952 -->
<g id="edge22" class="edge"><title>configuration-modules-core#1148-&gt;configuration-modules-core#952</title>
<path fill="none" stroke="black" stroke-width="2" d="M204.217,-1058.23C235.696,-1056.13 271.977,-1053.7 306.197,-1051.41"/>
<polygon fill="black" stroke="black" points="306.52,-1054.9 316.264,-1050.74 306.053,-1047.92 306.52,-1054.9"/>
<text text-anchor="middle" x="273" y="-1058" font-family="Sans" font-size="10.00">fixes</text>
</g>
<!-- configuration&#45;modules&#45;core#1148&#45;&gt;configuration&#45;modules&#45;core#952 -->
<g id="edge34" class="edge"><title>configuration-modules-core#1148-&gt;configuration-modules-core#952</title>
<path fill="none" stroke="black" stroke-width="2" d="M204.261,-1042.76C220.679,-1039.53 237.794,-1036.71 254,-1035 271.391,-1033.17 289.781,-1032.53 307.881,-1032.66"/>
<polygon fill="black" stroke="black" points="307.849,-1036.16 317.899,-1032.8 307.951,-1029.16 307.849,-1036.16"/>
<text text-anchor="middle" x="273" y="-1039" font-family="Sans" font-size="10.00">fixes</text>
</g>
<!-- configuration&#45;modules&#45;core#950 -->
<g id="node36" class="node"><title>configuration-modules-core#950</title>
<a xlink:href="https://github.com/quattor/configuration-modules-core/issues/950" xlink:title="ncm-spma: Remove support for package groups from yum backends" target="_parent">
<ellipse fill="#6cc644" stroke="black" cx="118" cy="-968" rx="118.087" ry="38.1838"/>
<text text-anchor="middle" x="118" y="-972" font-family="Sans" font-size="10.00">issue</text>
<text text-anchor="middle" x="118" y="-959" font-family="Sans" font-size="10.00">configuration-modules-core#950</text>
</a>
</g>
<!-- configuration&#45;modules&#45;core#950&#45;&gt;configuration&#45;modules&#45;core#952 -->
<g id="edge38" class="edge"><title>configuration-modules-core#950-&gt;configuration-modules-core#952</title>
<path fill="none" stroke="black" stroke-dasharray="5,2" d="M213.062,-990.706C249.102,-999.314 290.327,-1009.16 327.212,-1017.97"/>
<polygon fill="none" stroke="black" points="326.45,-1021.39 336.99,-1020.31 328.077,-1014.58 326.45,-1021.39"/>
<text text-anchor="middle" x="273" y="-1012" font-family="Sans" font-size="10.00">requires</text>
</g>
<!-- configuration&#45;modules&#45;core#951 -->
<g id="node38" class="node"><title>configuration-modules-core#951</title>
<a xlink:href="https://github.com/quattor/configuration-modules-core/issues/951" xlink:title="ncm-spma (yum): Remove support for package groups" target="_parent">
<ellipse fill="#6cc644" stroke="black" cx="432" cy="-949" rx="118.087" ry="38.1838"/>
<text text-anchor="middle" x="432" y="-953" font-family="Sans" font-size="10.00">issue</text>
<text text-anchor="middle" x="432" y="-940" font-family="Sans" font-size="10.00">configuration-modules-core#951</text>
</a>
</g>
<!-- configuration&#45;modules&#45;core#950&#45;&gt;configuration&#45;modules&#45;core#951 -->
<g id="edge36" class="edge"><title>configuration-modules-core#950-&gt;configuration-modules-core#951</title>
<path fill="none" stroke="black" stroke-dasharray="5,2" d="M231.506,-957.568C239.116,-956.998 246.667,-956.467 254,-956 270.102,-954.974 287.034,-954.075 303.789,-953.294"/>
<polygon fill="none" stroke="black" points="304.358,-956.772 314.189,-952.823 304.041,-949.779 304.358,-956.772"/>
<text text-anchor="middle" x="273" y="-960" font-family="Sans" font-size="10.00">requires</text>
</g>
<!-- ncm&#45;ncd#117 -->
<g id="node40" class="node"><title>ncm-ncd#117</title>
<a xlink:href="https://github.com/quattor/ncm-ncd/pull/117" xlink:title="Allow component modules to be loaded from any path" target="_parent">
<polygon fill="#6cc644" stroke="black" points="161,-1169 75,-1169 75,-1115 161,-1115 161,-1169"/>
<text text-anchor="middle" x="118" y="-1146" font-family="Sans" font-size="10.00">pull-request</text>
<text text-anchor="middle" x="118" y="-1133" font-family="Sans" font-size="10.00">ncm-ncd#117</text>
</a>
</g>
<!-- ncm&#45;ncd#116 -->
<g id="node42" class="node"><title>ncm-ncd#116</title>
<a xlink:href="https://github.com/quattor/ncm-ncd/issues/116" xlink:title="hasFile() prevents component modules from being relocated" target="_parent">
<ellipse fill="#6cc644" stroke="black" cx="432" cy="-1142" rx="61.0181" ry="38.1838"/>
<text text-anchor="middle" x="432" y="-1146" font-family="Sans" font-size="10.00">issue</text>
<text text-anchor="middle" x="432" y="-1133" font-family="Sans" font-size="10.00">ncm-ncd#116</text>
</a>
</g>
<!-- ncm&#45;ncd#117&#45;&gt;ncm&#45;ncd#116 -->
<g id="edge40" class="edge"><title>ncm-ncd#117-&gt;ncm-ncd#116</title>
<path fill="none" stroke="black" stroke-width="2" d="M161.66,-1142C212.954,-1142 298.809,-1142 360.001,-1142"/>
<polygon fill="black" stroke="black" points="360.362,-1145.5 370.362,-1142 360.362,-1138.5 360.362,-1145.5"/>
<text text-anchor="middle" x="273" y="-1146" font-family="Sans" font-size="10.00">fixes</text>
</g>
<!-- template&#45;library&#45;standard#109 -->
<g id="node43" class="node"><title>template-library-standard#109</title>
<a xlink:href="https://github.com/quattor/template-library-standard/pull/109" xlink:title="Add sample of nVidia workstation and compute GPUs" target="_parent">
<polygon fill="#6cc644" stroke="black" points="196,-242 40,-242 40,-188 196,-188 196,-242"/>
<text text-anchor="middle" x="118" y="-219" font-family="Sans" font-size="10.00">pull-request</text>
<text text-anchor="middle" x="118" y="-206" font-family="Sans" font-size="10.00">template-library-standard#109</text>
</a>
</g>
<!-- template&#45;library&#45;core#172 -->
<g id="node45" class="node"><title>template-library-core#172</title>
<a xlink:href="https://github.com/quattor/template-library-core/pull/172" xlink:title="Allow RAM to be modelled on GPU cards" target="_parent">
<polygon fill="#6cc644" stroke="black" points="501,-170 363,-170 363,-116 501,-116 501,-170"/>
<text text-anchor="middle" x="432" y="-147" font-family="Sans" font-size="10.00">pull-request</text>
<text text-anchor="middle" x="432" y="-134" font-family="Sans" font-size="10.00">template-library-core#172</text>
</a>
</g>
<!-- template&#45;library&#45;standard#109&#45;&gt;template&#45;library&#45;core#172 -->
<g id="edge42" class="edge"><title>template-library-standard#109-&gt;template-library-core#172</title>
<path fill="none" stroke="black" stroke-dasharray="5,2" d="M196.83,-196.924C244.488,-185.996 305.049,-172.11 352.777,-161.166"/>
<polygon fill="none" stroke="black" points="353.793,-164.524 362.758,-158.877 352.229,-157.701 353.793,-164.524"/>
<text text-anchor="middle" x="273" y="-188" font-family="Sans" font-size="10.00">requires</text>
</g>
</g>
</svg>
