<?xml version="1.0" encoding="UTF-8" standalone="no"?>
<?xml-stylesheet href="relationships.css" type="text/css"?>
<!-- Generated by graphviz version 2.26.0 (20091210.2329)
 -->
<!-- Title: Dependencies Pages: 1 -->
<svg xmlns="http://www.w3.org/2000/svg" xmlns:xlink="http://www.w3.org/1999/xlink" width="888pt" height="1270pt" viewBox="0.00 0.00 888.00 1270.00">
<g id="graph1" class="graph" transform="scale(1 1) rotate(0) translate(4 1266)">
<title>Dependencies</title>
<polygon fill="white" stroke="white" points="-4,5 -4,-1266 885,-1266 885,5 -4,5"/>
<g id="graph3" class="cluster"><title>cluster_18.3</title>
<polygon fill="none" stroke="black" points="334,-202 334,-1026 872,-1026 872,-202 334,-202"/>
<text text-anchor="middle" x="603" y="-1011.2" font-family="Sans" font-size="12.00">18.3</text>
</g>
<!-- aii#210 -->
<g id="node1" class="node"><title>aii#210</title>
<a xlink:href="https://github.com/quattor/aii/pull/210" xlink:title="Shellfe: support active config for plugins" target="_parent">
<polygon fill="#6cc644" stroke="black" points="467,-900 389,-900 389,-846 467,-846 467,-900"/>
<text text-anchor="middle" x="428" y="-877" font-family="Sans" font-size="10.00">pull-request</text>
<text text-anchor="middle" x="428" y="-864" font-family="Sans" font-size="10.00">aii#210</text>
</a>
</g>
<!-- aii#209 -->
<g id="node3" class="node"><title>aii#209</title>
<a xlink:href="https://github.com/quattor/aii/issues/209" xlink:title="support ACTIVE_CONFIG" target="_parent">
<ellipse fill="#6cc644" stroke="black" cx="742" cy="-956" rx="41.2167" ry="38.1838"/>
<text text-anchor="middle" x="742" y="-960" font-family="Sans" font-size="10.00">issue</text>
<text text-anchor="middle" x="742" y="-947" font-family="Sans" font-size="10.00">aii#209</text>
</a>
</g>
<!-- aii#210&#45;&gt;aii#209 -->
<g id="edge2" class="edge"><title>aii#210-&gt;aii#209</title>
<path fill="none" stroke="black" stroke-width="2" d="M467.609,-883.38C490.517,-889.39 519.889,-897.106 546,-904 595.736,-917.131 652.549,-932.213 692.158,-942.741"/>
<polygon fill="black" stroke="black" points="691.278,-946.129 701.842,-945.315 693.077,-939.364 691.278,-946.129"/>
<text text-anchor="middle" x="583" y="-922" font-family="Sans" font-size="10.00">fixes</text>
</g>
<!-- ncm&#45;ncd#74 -->
<g id="node5" class="node"><title>ncm-ncd#74</title>
<a xlink:href="https://github.com/quattor/ncm-ncd/pull/74" xlink:title="Set the current active config as an attribute to the component" target="_parent">
<polygon fill="#6cc644" stroke="black" points="783,-900 701,-900 701,-846 783,-846 783,-900"/>
<text text-anchor="middle" x="742" y="-877" font-family="Sans" font-size="10.00">pull-request</text>
<text text-anchor="middle" x="742" y="-864" font-family="Sans" font-size="10.00">ncm-ncd#74</text>
</a>
</g>
<!-- aii#210&#45;&gt;ncm&#45;ncd#74 -->
<g id="edge4" class="edge"><title>aii#210-&gt;ncm-ncd#74</title>
<path fill="none" stroke="black" stroke-dasharray="5,2" d="M467.768,-873C524.435,-873 628.442,-873 690.801,-873"/>
<polygon fill="none" stroke="black" points="690.813,-876.5 700.813,-873 690.813,-869.5 690.813,-876.5"/>
<text text-anchor="middle" x="583" y="-877" font-family="Sans" font-size="10.00">requires</text>
</g>
<!-- aii#203 -->
<g id="node7" class="node"><title>aii#203</title>
<polygon fill="lightgrey" stroke="black" points="771,-192.5 713,-192.5 713,-151.5 771,-151.5 771,-192.5"/>
<text text-anchor="middle" x="742" y="-169.5" font-family="Sans" font-size="10.00">aii#203</text>
</g>
<!-- aii#210&#45;&gt;aii#203 -->
<g id="edge6" class="edge"><title>aii#210-&gt;aii#203</title>
<path fill="none" stroke="black" stroke-dasharray="5,2" d="M467.512,-868.415C494.39,-863.036 528.195,-851.355 546,-826 581.139,-775.962 544.32,-333.89 564,-276 577.736,-235.595 584.281,-221.353 620,-198 644.454,-182.012 677.016,-175.654 702.349,-173.217"/>
<polygon fill="none" stroke="black" points="702.679,-176.702 712.369,-172.418 702.122,-169.724 702.679,-176.702"/>
<text text-anchor="middle" x="583" y="-280" font-family="Sans" font-size="10.00">requires</text>
</g>
<!-- CAF#257 -->
<g id="node8" class="node"><title>CAF#257</title>
<a xlink:href="https://github.com/quattor/CAF/pull/257" xlink:title="Process: run process as another user" target="_parent">
<polygon fill="#6cc644" stroke="black" points="467,-817 389,-817 389,-763 467,-763 467,-817"/>
<text text-anchor="middle" x="428" y="-794" font-family="Sans" font-size="10.00">pull-request</text>
<text text-anchor="middle" x="428" y="-781" font-family="Sans" font-size="10.00">CAF#257</text>
</a>
</g>
<!-- CAF#253 -->
<g id="node10" class="node"><title>CAF#253</title>
<a xlink:href="https://github.com/quattor/CAF/issues/253" xlink:title="CAF::Process: Include an option to execute the command as an specific user" target="_parent">
<ellipse fill="#6cc644" stroke="black" cx="742" cy="-790" rx="48.9975" ry="38.1838"/>
<text text-anchor="middle" x="742" y="-794" font-family="Sans" font-size="10.00">issue</text>
<text text-anchor="middle" x="742" y="-781" font-family="Sans" font-size="10.00">CAF#253</text>
</a>
</g>
<!-- CAF#257&#45;&gt;CAF#253 -->
<g id="edge8" class="edge"><title>CAF#257-&gt;CAF#253</title>
<path fill="none" stroke="black" stroke-width="2" d="M467.768,-790C521.934,-790 619.353,-790 682.308,-790"/>
<polygon fill="black" stroke="black" points="682.488,-793.5 692.488,-790 682.488,-786.5 682.488,-793.5"/>
<text text-anchor="middle" x="583" y="-794" font-family="Sans" font-size="10.00">fixes</text>
</g>
<!-- CAF#110 -->
<g id="node11" class="node"><title>CAF#110</title>
<a xlink:href="https://github.com/quattor/CAF/pull/110" xlink:title="Download: API proposal" target="_parent">
<polygon fill="#6cc644" stroke="black" points="157,-1081 79,-1081 79,-1027 157,-1027 157,-1081"/>
<text text-anchor="middle" x="118" y="-1058" font-family="Sans" font-size="10.00">pull-request</text>
<text text-anchor="middle" x="118" y="-1045" font-family="Sans" font-size="10.00">CAF#110</text>
</a>
</g>
<!-- CAF#120 -->
<g id="node13" class="node"><title>CAF#120</title>
<polygon fill="lightgrey" stroke="black" points="463,-1074.5 393,-1074.5 393,-1033.5 463,-1033.5 463,-1074.5"/>
<text text-anchor="middle" x="428" y="-1051.5" font-family="Sans" font-size="10.00">CAF#120</text>
</g>
<!-- CAF#110&#45;&gt;CAF#120 -->
<g id="edge10" class="edge"><title>CAF#110-&gt;CAF#120</title>
<path fill="none" stroke="black" stroke-dasharray="5,2" d="M157.577,-1054C215.285,-1054 322.239,-1054 382.912,-1054"/>
<polygon fill="none" stroke="black" points="382.958,-1057.5 392.958,-1054 382.958,-1050.5 382.958,-1057.5"/>
<text text-anchor="middle" x="273" y="-1058" font-family="Sans" font-size="10.00">requires</text>
</g>
<!-- configuration&#45;modules&#45;core#1235 -->
<g id="node14" class="node"><title>configuration-modules-core#1235</title>
<a xlink:href="https://github.com/quattor/configuration-modules-core/pull/1235" xlink:title="ncm-ofed: import CAF::Service and enable NoActionSupported" target="_parent">
<polygon fill="#6cc644" stroke="black" points="514,-336 342,-336 342,-282 514,-282 514,-336"/>
<text text-anchor="middle" x="428" y="-313" font-family="Sans" font-size="10.00">pull-request</text>
<text text-anchor="middle" x="428" y="-300" font-family="Sans" font-size="10.00">configuration-modules-core#1235</text>
</a>
</g>
<!-- configuration&#45;modules&#45;core#1234 -->
<g id="node16" class="node"><title>configuration-modules-core#1234</title>
<a xlink:href="https://github.com/quattor/configuration-modules-core/issues/1234" xlink:title="ncm-ofed: no loading of CAF::Service" target="_parent">
<ellipse fill="#6cc644" stroke="black" cx="742" cy="-96" rx="121.122" ry="38.1838"/>
<text text-anchor="middle" x="742" y="-100" font-family="Sans" font-size="10.00">issue</text>
<text text-anchor="middle" x="742" y="-87" font-family="Sans" font-size="10.00">configuration-modules-core#1234</text>
</a>
</g>
<!-- configuration&#45;modules&#45;core#1235&#45;&gt;configuration&#45;modules&#45;core#1234 -->
<g id="edge12" class="edge"><title>configuration-modules-core#1235-&gt;configuration-modules-core#1234</title>
<path fill="none" stroke="black" stroke-width="2" d="M514.092,-295.635C526.248,-290.346 537.483,-283.048 546,-273 585.425,-226.49 522.978,-182.108 564,-137 577.082,-122.615 594.107,-112.769 612.438,-106.113"/>
<polygon fill="black" stroke="black" points="613.728,-109.373 622.128,-102.916 611.535,-102.725 613.728,-109.373"/>
<text text-anchor="middle" x="583" y="-141" font-family="Sans" font-size="10.00">fixes</text>
</g>
<!-- configuration&#45;modules&#45;core#1230 -->
<g id="node17" class="node"><title>configuration-modules-core#1230</title>
<a xlink:href="https://github.com/quattor/configuration-modules-core/pull/1230" xlink:title="ncm-ceph: support for luminous, bluestore, ceph-volume and per host osd deployment" target="_parent">
<polygon fill="#6cc644" stroke="black" points="514,-264 342,-264 342,-210 514,-210 514,-264"/>
<text text-anchor="middle" x="428" y="-241" font-family="Sans" font-size="10.00">pull-request</text>
<text text-anchor="middle" x="428" y="-228" font-family="Sans" font-size="10.00">configuration-modules-core#1230</text>
</a>
</g>
<!-- configuration&#45;modules&#45;core#1224 -->
<g id="node19" class="node"><title>configuration-modules-core#1224</title>
<polygon fill="lightgrey" stroke="black" points="828,-40.5 656,-40.5 656,0.5 828,0.5 828,-40.5"/>
<text text-anchor="middle" x="742" y="-17.5" font-family="Sans" font-size="10.00">configuration-modules-core#1224</text>
</g>
<!-- configuration&#45;modules&#45;core#1230&#45;&gt;configuration&#45;modules&#45;core#1224 -->
<g id="edge14" class="edge"><title>configuration-modules-core#1230-&gt;configuration-modules-core#1224</title>
<path fill="none" stroke="black" stroke-dasharray="1,5" d="M446.772,-209.805C477.558,-167.58 543.103,-87.1485 620,-49 628.323,-44.871 637.261,-41.3127 646.379,-38.2497"/>
<polygon fill="black" stroke="black" points="655.926,-35.2337 647.746,-42.5369 651.158,-36.7398 646.391,-38.2459 646.391,-38.2459 646.391,-38.2459 651.158,-36.7398 645.035,-33.9549 655.926,-35.2337 655.926,-35.2337"/>
<text text-anchor="middle" x="583" y="-89" font-family="Sans" font-size="10.00">replaces</text>
</g>
<!-- configuration&#45;modules&#45;core#1220 -->
<g id="node20" class="node"><title>configuration-modules-core#1220</title>
<a xlink:href="https://github.com/quattor/configuration-modules-core/pull/1220" xlink:title="ncm-cups: Stop daemon if server not enabled" target="_parent">
<polygon fill="#6cc644" stroke="black" points="514,-723 342,-723 342,-669 514,-669 514,-723"/>
<text text-anchor="middle" x="428" y="-700" font-family="Sans" font-size="10.00">pull-request</text>
<text text-anchor="middle" x="428" y="-687" font-family="Sans" font-size="10.00">configuration-modules-core#1220</text>
</a>
</g>
<!-- configuration&#45;modules&#45;core#1189 -->
<g id="node22" class="node"><title>configuration-modules-core#1189</title>
<a xlink:href="https://github.com/quattor/configuration-modules-core/issues/1189" xlink:title="ncm-cups: Nodetype of client should stop running cups daemon" target="_parent">
<ellipse fill="#6cc644" stroke="black" cx="742" cy="-696" rx="121.122" ry="38.1838"/>
<text text-anchor="middle" x="742" y="-700" font-family="Sans" font-size="10.00">issue</text>
<text text-anchor="middle" x="742" y="-687" font-family="Sans" font-size="10.00">configuration-modules-core#1189</text>
</a>
</g>
<!-- configuration&#45;modules&#45;core#1220&#45;&gt;configuration&#45;modules&#45;core#1189 -->
<g id="edge16" class="edge"><title>configuration-modules-core#1220-&gt;configuration-modules-core#1189</title>
<path fill="none" stroke="black" stroke-width="2" d="M514.217,-696C543.916,-696 577.888,-696 610.372,-696"/>
<polygon fill="black" stroke="black" points="610.399,-699.5 620.399,-696 610.399,-692.5 610.399,-699.5"/>
<text text-anchor="middle" x="583" y="-700" font-family="Sans" font-size="10.00">fixes</text>
</g>
<!-- configuration&#45;modules&#45;core#1105 -->
<g id="node23" class="node"><title>configuration-modules-core#1105</title>
<a xlink:href="https://github.com/quattor/configuration-modules-core/pull/1105" xlink:title="ncm-authconfig: fix krb5_realm, user_object_class and newline between ldap_krb5_canonicalize and ldap_krb5_realm" target="_parent">
<polygon fill="#6cc644" stroke="black" points="514,-624 342,-624 342,-570 514,-570 514,-624"/>
<text text-anchor="middle" x="428" y="-601" font-family="Sans" font-size="10.00">pull-request</text>
<text text-anchor="middle" x="428" y="-588" font-family="Sans" font-size="10.00">configuration-modules-core#1105</text>
</a>
</g>
<!-- configuration&#45;modules&#45;core#1100 -->
<g id="node25" class="node"><title>configuration-modules-core#1100</title>
<a xlink:href="https://github.com/quattor/configuration-modules-core/issues/1100" xlink:title="ncm-authconfig : no newline after krb5_canonicalize option" target="_parent">
<ellipse fill="#6cc644" stroke="black" cx="742" cy="-414" rx="121.122" ry="38.1838"/>
<text text-anchor="middle" x="742" y="-418" font-family="Sans" font-size="10.00">issue</text>
<text text-anchor="middle" x="742" y="-405" font-family="Sans" font-size="10.00">configuration-modules-core#1100</text>
</a>
</g>
<!-- configuration&#45;modules&#45;core#1105&#45;&gt;configuration&#45;modules&#45;core#1100 -->
<g id="edge18" class="edge"><title>configuration-modules-core#1105-&gt;configuration-modules-core#1100</title>
<path fill="none" stroke="black" stroke-width="2" d="M514.123,-578.805C525.499,-574.149 536.493,-568.313 546,-561 558.024,-551.751 555.289,-544.419 564,-532 587.078,-499.097 587.653,-484.851 620,-461 628.015,-455.09 636.867,-449.825 646.033,-445.158"/>
<polygon fill="black" stroke="black" points="647.802,-448.19 655.283,-440.688 644.757,-441.887 647.802,-448.19"/>
<text text-anchor="middle" x="583" y="-536" font-family="Sans" font-size="10.00">fixes</text>
</g>
<!-- configuration&#45;modules&#45;core#1102 -->
<g id="node27" class="node"><title>configuration-modules-core#1102</title>
<a xlink:href="https://github.com/quattor/configuration-modules-core/issues/1102" xlink:title="ncm-authconfig: There is no " target="_parent">
<ellipse fill="#6cc644" stroke="black" cx="742" cy="-508" rx="121.122" ry="38.1838"/>
<text text-anchor="middle" x="742" y="-512" font-family="Sans" font-size="10.00">issue</text>
<text text-anchor="middle" x="742" y="-499" font-family="Sans" font-size="10.00">configuration-modules-core#1102</text>
</a>
</g>
<!-- configuration&#45;modules&#45;core#1105&#45;&gt;configuration&#45;modules&#45;core#1102 -->
<g id="edge20" class="edge"><title>configuration-modules-core#1105-&gt;configuration-modules-core#1102</title>
<path fill="none" stroke="black" stroke-width="2" d="M514.217,-572.563C553.8,-561.343 600.975,-547.972 642.099,-536.316"/>
<polygon fill="black" stroke="black" points="643.2,-539.642 651.866,-533.547 641.291,-532.907 643.2,-539.642"/>
<text text-anchor="middle" x="583" y="-561" font-family="Sans" font-size="10.00">fixes</text>
</g>
<!-- configuration&#45;modules&#45;core#1103 -->
<g id="node29" class="node"><title>configuration-modules-core#1103</title>
<a xlink:href="https://github.com/quattor/configuration-modules-core/issues/1103" xlink:title="ncm-authconfig: krb5_realm = ARRAY(0x39a5830)" target="_parent">
<ellipse fill="#6cc644" stroke="black" cx="742" cy="-602" rx="121.122" ry="38.1838"/>
<text text-anchor="middle" x="742" y="-606" font-family="Sans" font-size="10.00">issue</text>
<text text-anchor="middle" x="742" y="-593" font-family="Sans" font-size="10.00">configuration-modules-core#1103</text>
</a>
</g>
<!-- configuration&#45;modules&#45;core#1105&#45;&gt;configuration&#45;modules&#45;core#1103 -->
<g id="edge22" class="edge"><title>configuration-modules-core#1105-&gt;configuration-modules-core#1103</title>
<path fill="none" stroke="black" stroke-width="2" d="M514.217,-598.373C543.916,-598.846 577.888,-599.387 610.372,-599.904"/>
<polygon fill="black" stroke="black" points="610.344,-603.404 620.399,-600.064 610.456,-596.405 610.344,-603.404"/>
<text text-anchor="middle" x="583" y="-603" font-family="Sans" font-size="10.00">fixes</text>
</g>
<!-- configuration&#45;modules&#45;core#1236 -->
<g id="node30" class="node"><title>configuration-modules-core#1236</title>
<a xlink:href="https://github.com/quattor/configuration-modules-core/pull/1236" xlink:title="ncm-spma: yum: Expose support for multiple reposdirs" target="_parent">
<polygon fill="#6cc644" stroke="black" points="204,-408 32,-408 32,-354 204,-354 204,-408"/>
<text text-anchor="middle" x="118" y="-385" font-family="Sans" font-size="10.00">pull-request</text>
<text text-anchor="middle" x="118" y="-372" font-family="Sans" font-size="10.00">configuration-modules-core#1236</text>
</a>
</g>
<!-- configuration&#45;modules&#45;core#1075 -->
<g id="node32" class="node"><title>configuration-modules-core#1075</title>
<a xlink:href="https://github.com/quattor/configuration-modules-core/pull/1075" xlink:title="ncm-spma (yum): Allow unmanaged repositories to be controlled seperately from packages" target="_parent">
<polygon fill="#6cc644" stroke="black" points="514,-408 342,-408 342,-354 514,-354 514,-408"/>
<text text-anchor="middle" x="428" y="-385" font-family="Sans" font-size="10.00">pull-request</text>
<text text-anchor="middle" x="428" y="-372" font-family="Sans" font-size="10.00">configuration-modules-core#1075</text>
</a>
</g>
<!-- configuration&#45;modules&#45;core#1236&#45;&gt;configuration&#45;modules&#45;core#1075 -->
<g id="edge24" class="edge"><title>configuration-modules-core#1236-&gt;configuration-modules-core#1075</title>
<path fill="none" stroke="black" stroke-dasharray="1,5" d="M204.352,-381C243.907,-381 290.937,-381 331.639,-381"/>
<polygon fill="black" stroke="black" points="341.842,-381 331.842,-385.5 336.842,-381 331.842,-381 331.842,-381 331.842,-381 336.842,-381 331.842,-376.5 341.842,-381 341.842,-381"/>
<text text-anchor="middle" x="273" y="-385" font-family="Sans" font-size="10.00">replaces</text>
</g>
<!-- configuration&#45;modules&#45;core#1148 -->
<g id="node33" class="node"><title>configuration-modules-core#1148</title>
<a xlink:href="https://github.com/quattor/configuration-modules-core/pull/1148" xlink:title="ncm-spma: Remove support from groups from spma yumng backend" target="_parent">
<polygon fill="#6cc644" stroke="black" points="204,-1251 32,-1251 32,-1197 204,-1197 204,-1251"/>
<text text-anchor="middle" x="118" y="-1228" font-family="Sans" font-size="10.00">pull-request</text>
<text text-anchor="middle" x="118" y="-1215" font-family="Sans" font-size="10.00">configuration-modules-core#1148</text>
</a>
</g>
<!-- configuration&#45;modules&#45;core#952 -->
<g id="node35" class="node"><title>configuration-modules-core#952</title>
<a xlink:href="https://github.com/quattor/configuration-modules-core/issues/952" xlink:title="ncm-spma (yumng): Remove support for package groups" target="_parent">
<ellipse fill="#6cc644" stroke="black" cx="428" cy="-1224" rx="118.087" ry="38.1838"/>
<text text-anchor="middle" x="428" y="-1228" font-family="Sans" font-size="10.00">issue</text>
<text text-anchor="middle" x="428" y="-1215" font-family="Sans" font-size="10.00">configuration-modules-core#952</text>
</a>
</g>
<!-- configuration&#45;modules&#45;core#1148&#45;&gt;configuration&#45;modules&#45;core#952 -->
<g id="edge26" class="edge"><title>configuration-modules-core#1148-&gt;configuration-modules-core#952</title>
<path fill="none" stroke="black" stroke-width="2" d="M204.352,-1224C233.855,-1224 267.516,-1224 299.608,-1224"/>
<polygon fill="black" stroke="black" points="299.965,-1227.5 309.965,-1224 299.965,-1220.5 299.965,-1227.5"/>
<text text-anchor="middle" x="273" y="-1228" font-family="Sans" font-size="10.00">fixes</text>
</g>
<!-- configuration&#45;modules&#45;core#950 -->
<g id="node36" class="node"><title>configuration-modules-core#950</title>
<a xlink:href="https://github.com/quattor/configuration-modules-core/issues/950" xlink:title="ncm-spma: Remove support for package groups from yum backends" target="_parent">
<ellipse fill="#6cc644" stroke="black" cx="118" cy="-1139" rx="118.087" ry="38.1838"/>
<text text-anchor="middle" x="118" y="-1143" font-family="Sans" font-size="10.00">issue</text>
<text text-anchor="middle" x="118" y="-1130" font-family="Sans" font-size="10.00">configuration-modules-core#950</text>
</a>
</g>
<!-- configuration&#45;modules&#45;core#950&#45;&gt;configuration&#45;modules&#45;core#952 -->
<g id="edge30" class="edge"><title>configuration-modules-core#950-&gt;configuration-modules-core#952</title>
<path fill="none" stroke="black" stroke-dasharray="5,2" d="M208.081,-1163.7C245.738,-1174.02 289.635,-1186.06 328.262,-1196.65"/>
<polygon fill="none" stroke="black" points="327.393,-1200.04 337.962,-1199.31 329.244,-1193.29 327.393,-1200.04"/>
<text text-anchor="middle" x="273" y="-1190" font-family="Sans" font-size="10.00">requires</text>
</g>
<!-- configuration&#45;modules&#45;core#951 -->
<g id="node38" class="node"><title>configuration-modules-core#951</title>
<a xlink:href="https://github.com/quattor/configuration-modules-core/issues/951" xlink:title="ncm-spma (yum): Remove support for package groups" target="_parent">
<ellipse fill="#6cc644" stroke="black" cx="428" cy="-1130" rx="118.087" ry="38.1838"/>
<text text-anchor="middle" x="428" y="-1134" font-family="Sans" font-size="10.00">issue</text>
<text text-anchor="middle" x="428" y="-1121" font-family="Sans" font-size="10.00">configuration-modules-core#951</text>
</a>
</g>
<!-- configuration&#45;modules&#45;core#950&#45;&gt;configuration&#45;modules&#45;core#951 -->
<g id="edge28" class="edge"><title>configuration-modules-core#950-&gt;configuration-modules-core#951</title>
<path fill="none" stroke="black" stroke-dasharray="5,2" d="M235.64,-1135.58C256.784,-1134.97 278.915,-1134.33 300.328,-1133.71"/>
<polygon fill="none" stroke="black" points="300.546,-1137.2 310.441,-1133.41 300.343,-1130.2 300.546,-1137.2"/>
<text text-anchor="middle" x="273" y="-1139" font-family="Sans" font-size="10.00">requires</text>
</g>
<!-- ncm&#45;ncd#117 -->
<g id="node40" class="node"><title>ncm-ncd#117</title>
<a xlink:href="https://github.com/quattor/ncm-ncd/pull/117" xlink:title="Allow component modules to be loaded from any path" target="_parent">
<polygon fill="#6cc644" stroke="black" points="471,-552 385,-552 385,-498 471,-498 471,-552"/>
<text text-anchor="middle" x="428" y="-529" font-family="Sans" font-size="10.00">pull-request</text>
<text text-anchor="middle" x="428" y="-516" font-family="Sans" font-size="10.00">ncm-ncd#117</text>
</a>
</g>
<!-- ncm&#45;ncd#116 -->
<g id="node42" class="node"><title>ncm-ncd#116</title>
<a xlink:href="https://github.com/quattor/ncm-ncd/issues/116" xlink:title="hasFile() prevents component modules from being relocated" target="_parent">
<ellipse fill="#6cc644" stroke="black" cx="742" cy="-320" rx="61.0181" ry="38.1838"/>
<text text-anchor="middle" x="742" y="-324" font-family="Sans" font-size="10.00">issue</text>
<text text-anchor="middle" x="742" y="-311" font-family="Sans" font-size="10.00">ncm-ncd#116</text>
</a>
</g>
<!-- ncm&#45;ncd#117&#45;&gt;ncm&#45;ncd#116 -->
<g id="edge32" class="edge"><title>ncm-ncd#117-&gt;ncm-ncd#116</title>
<path fill="none" stroke="black" stroke-width="2" d="M471.616,-519.45C495.547,-514.615 524.61,-505.63 546,-489 547.565,-487.784 618.48,-368.272 620,-367 635.787,-353.793 655.697,-344.046 674.829,-336.963"/>
<polygon fill="black" stroke="black" points="676.155,-340.208 684.435,-333.598 673.84,-333.601 676.155,-340.208"/>
<text text-anchor="middle" x="583" y="-464" font-family="Sans" font-size="10.00">fixes</text>
</g>
<!-- template&#45;library&#45;standard#109 -->
<g id="node43" class="node"><title>template-library-standard#109</title>
<a xlink:href="https://github.com/quattor/template-library-standard/pull/109" xlink:title="Add sample of nVidia workstation and compute GPUs" target="_parent">
<polygon fill="#6cc644" stroke="black" points="506,-480 350,-480 350,-426 506,-426 506,-480"/>
<text text-anchor="middle" x="428" y="-457" font-family="Sans" font-size="10.00">pull-request</text>
<text text-anchor="middle" x="428" y="-444" font-family="Sans" font-size="10.00">template-library-standard#109</text>
</a>
</g>
<!-- template&#45;library&#45;core#172 -->
<g id="node45" class="node"><title>template-library-core#172</title>
<a xlink:href="https://github.com/quattor/template-library-core/pull/172" xlink:title="Allow RAM to be modelled on GPU cards" target="_parent">
<polygon fill="#6cc644" stroke="black" points="811,-264 673,-264 673,-210 811,-210 811,-264"/>
<text text-anchor="middle" x="742" y="-241" font-family="Sans" font-size="10.00">pull-request</text>
<text text-anchor="middle" x="742" y="-228" font-family="Sans" font-size="10.00">template-library-core#172</text>
</a>
</g>
<!-- template&#45;library&#45;standard#109&#45;&gt;template&#45;library&#45;core#172 -->
<g id="edge34" class="edge"><title>template-library-standard#109-&gt;template-library-core#172</title>
<path fill="none" stroke="black" stroke-dasharray="5,2" d="M506.612,-438.916C520.813,-433.743 534.683,-426.67 546,-417 559.903,-405.121 555.759,-396.325 564,-380 588.188,-332.084 578.528,-307.074 620,-273 632.435,-262.784 647.676,-255.466 663.119,-250.226"/>
<polygon fill="none" stroke="black" points="664.234,-253.544 672.737,-247.224 662.148,-246.862 664.234,-253.544"/>
<text text-anchor="middle" x="583" y="-384" font-family="Sans" font-size="10.00">requires</text>
</g>
</g>
</svg>
