<?xml version="1.0" encoding="UTF-8" standalone="no"?>
<?xml-stylesheet href="relationships.css" type="text/css"?>
<!-- Generated by graphviz version 2.30.1 (20200930.0103)
 -->
<!-- Title: Dependencies Pages: 1 -->
<svg xmlns="http://www.w3.org/2000/svg" xmlns:xlink="http://www.w3.org/1999/xlink" width="1428pt" height="1355pt" viewBox="0.00 0.00 1428.00 1355.00">
<g id="graph0" class="graph" transform="scale(1 1) rotate(0) translate(4 1351)">
<title>Dependencies</title>
<polygon fill="white" stroke="white" points="-4,5 -4,-1351 1425,-1351 1425,5 -4,5"/>
<g id="clust4" class="cluster"><title>cluster_repo_aquilon</title>
<polygon fill="none" stroke="black" points="8,-1048 8,-1339 530,-1339 530,-1048 8,-1048"/>
<text text-anchor="middle" x="269" y="-1325.4" font-family="Sans" font-size="12.00">aquilon</text>
</g>
<g id="clust2" class="cluster"><title>cluster_milestone_22.6</title>
<polygon fill="none" stroke="black" points="15,-745 15,-912 529,-912 529,-745 15,-745"/>
<text text-anchor="middle" x="272" y="-898.4" font-family="Sans" font-size="12.00">22.6</text>
</g>
<g id="clust1" class="cluster"><title>cluster_milestone_22.2</title>
<polygon fill="none" stroke="black" points="326,-218 326,-737 850,-737 850,-218 326,-218"/>
<text text-anchor="middle" x="588" y="-723.4" font-family="Sans" font-size="12.00">22.2</text>
</g>
<g id="clust5" class="cluster"><title>cluster_milestone_21.12</title>
<polygon fill="none" stroke="black" points="942,-706 942,-987 1403,-987 1403,-706 942,-706"/>
<text text-anchor="middle" x="1172.5" y="-973.4" font-family="Sans" font-size="12.00">21.12</text>
</g>
<!-- aii#328 -->
<g id="node1" class="node"><title>aii#328</title>
<g id="a_node1"><a xlink:href="https://github.com/quattor/aii/pull/328" xlink:title="aii#328 (pull-request)" target="_parent">
<polygon fill="#6cc644" stroke="black" points="522,-640 340,-640 340,-590 522,-590 522,-640"/>
<text text-anchor="middle" x="431" y="-618" font-family="Sans" font-size="10.00">aii-ks: generate ks post section</text>
<text text-anchor="middle" x="431" y="-607" font-family="Sans" font-size="10.00">as standalone script</text>
</a>
</g>
</g>
<!-- aii#280 -->
<g id="node2" class="node"><title>aii#280</title>
<g id="a_node2"><a xlink:href="https://github.com/quattor/aii/pull/280" xlink:title="aii#280 (pull-request)" target="_parent">
<polygon fill="#6e5494" stroke="black" points="1116,-890 950,-890 950,-840 1116,-840 1116,-890"/>
<text text-anchor="middle" x="1033" y="-868" font-family="Sans" font-size="10.00">Support active configuration</text>
<text text-anchor="middle" x="1033" y="-857" font-family="Sans" font-size="10.00">attribute for plugins</text>
</a>
</g>
</g>
<!-- aii#328&#45;&gt;aii#280 -->
<g id="edge1" class="edge"><title>aii#328-&gt;aii#280</title>
<path fill="none" stroke="black" stroke-dasharray="5,2" d="M521.869,-640.039C526.824,-642.736 531.578,-645.714 536,-649 603.391,-699.082 572.822,-759.465 644,-804 650.278,-807.928 826.777,-834.625 939.536,-851.374"/>
<polygon fill="none" stroke="black" points="939.159,-854.856 949.565,-852.862 940.187,-847.932 939.159,-854.856"/>
<text text-anchor="middle" x="704" y="-810.469" font-family="Sans" font-size="10.00">requires</text>
</g>
<!-- aii#316 -->
<g id="node3" class="node"><title>aii#316</title>
<g id="a_node3"><a xlink:href="https://github.com/quattor/aii/pull/316" xlink:title="aii#316 (pull-request)" target="_parent">
<polygon fill="#6cc644" stroke="black" points="831,-706.5 655,-706.5 655,-645.5 831,-645.5 831,-706.5"/>
<text text-anchor="middle" x="743" y="-684.5" font-family="Sans" font-size="10.00">aii-ks: generate kickstart repo</text>
<text text-anchor="middle" x="743" y="-673.5" font-family="Sans" font-size="10.00">entries based on SPMA</text>
<text text-anchor="middle" x="743" y="-662.5" font-family="Sans" font-size="10.00">configuration</text>
</a>
</g>
</g>
<!-- aii#328&#45;&gt;aii#316 -->
<g id="edge2" class="edge"><title>aii#328-&gt;aii#316</title>
<path fill="none" stroke="black" stroke-dasharray="5,2" d="M522.081,-632.726C560.644,-640.314 605.751,-649.19 645.042,-656.921"/>
<polygon fill="none" stroke="black" points="644.411,-660.364 654.899,-658.861 645.763,-653.496 644.411,-660.364"/>
<text text-anchor="middle" x="568.706" y="-637.836" font-family="Sans" font-size="10.00">requires</text>
</g>
<!-- aii#209 -->
<g id="node9" class="node"><title>aii#209</title>
<g id="a_node9"><a xlink:href="https://github.com/quattor/aii/issues/209" xlink:title="aii#209 (issue)" target="_parent">
<path fill="#bd2c00" stroke="black" d="M1383,-884.5C1383,-884.5 1261,-884.5 1261,-884.5 1255,-884.5 1249,-878.5 1249,-872.5 1249,-872.5 1249,-857.5 1249,-857.5 1249,-851.5 1255,-845.5 1261,-845.5 1261,-845.5 1383,-845.5 1383,-845.5 1389,-845.5 1395,-851.5 1395,-857.5 1395,-857.5 1395,-872.5 1395,-872.5 1395,-878.5 1389,-884.5 1383,-884.5"/>
<text text-anchor="middle" x="1322" y="-862.5" font-family="Sans" font-size="10.00">support ACTIVE_CONFIG</text>
</a>
</g>
</g>
<!-- aii#280&#45;&gt;aii#209 -->
<g id="edge8" class="edge"><title>aii#280-&gt;aii#209</title>
<path fill="none" stroke="black" stroke-width="2" d="M1116.24,-865C1154.71,-865 1200.41,-865 1238.87,-865"/>
<polygon fill="black" stroke="black" points="1238.99,-868.5 1248.99,-865 1238.99,-861.5 1238.99,-868.5"/>
<text text-anchor="middle" x="1170.49" y="-857" font-family="Sans" font-size="10.00">fixes</text>
</g>
<!-- ncm&#45;ncd#74 -->
<g id="node10" class="node"><title>ncm-ncd#74</title>
<polygon fill="lightgrey" stroke="black" points="1367.5,-697.5 1276.5,-697.5 1276.5,-658.5 1367.5,-658.5 1367.5,-697.5"/>
<text text-anchor="middle" x="1322" y="-675.5" font-family="Sans" font-size="10.00">ncm-ncd#74</text>
</g>
<!-- aii#280&#45;&gt;ncm&#45;ncd#74 -->
<g id="edge9" class="edge"><title>aii#280-&gt;ncm-ncd#74</title>
<path fill="none" stroke="black" stroke-dasharray="5,2" d="M1100.41,-839.926C1105.87,-836.897 1111.15,-833.589 1116,-830 1175.85,-785.747 1160.79,-741.301 1224,-702 1236.69,-694.111 1251.82,-688.814 1266.31,-685.257"/>
<polygon fill="none" stroke="black" points="1267.2,-688.645 1276.2,-683.063 1265.68,-681.812 1267.2,-688.645"/>
<text text-anchor="middle" x="1154.58" y="-745.587" font-family="Sans" font-size="10.00">requires</text>
</g>
<!-- aii#203 -->
<g id="node11" class="node"><title>aii#203</title>
<polygon fill="lightgrey" stroke="black" points="1355.5,-640.5 1288.5,-640.5 1288.5,-601.5 1355.5,-601.5 1355.5,-640.5"/>
<text text-anchor="middle" x="1322" y="-618.5" font-family="Sans" font-size="10.00">aii#203</text>
</g>
<!-- aii#280&#45;&gt;aii#203 -->
<g id="edge10" class="edge"><title>aii#280-&gt;aii#203</title>
<path fill="none" stroke="black" stroke-dasharray="5,2" d="M1102.7,-839.753C1107.42,-836.809 1111.92,-833.565 1116,-830 1186.54,-768.364 1149.82,-706.206 1224,-649 1239.5,-637.044 1259.94,-630.191 1278.06,-626.263"/>
<polygon fill="none" stroke="black" points="1278.97,-629.653 1288.13,-624.321 1277.64,-622.78 1278.97,-629.653"/>
<text text-anchor="middle" x="1152.61" y="-716.697" font-family="Sans" font-size="10.00">requires</text>
</g>
<!-- aii#210 -->
<g id="node12" class="node"><title>aii#210</title>
<polygon fill="lightgrey" stroke="black" points="1355.5,-583.5 1288.5,-583.5 1288.5,-544.5 1355.5,-544.5 1355.5,-583.5"/>
<text text-anchor="middle" x="1322" y="-561.5" font-family="Sans" font-size="10.00">aii#210</text>
</g>
<!-- aii#280&#45;&gt;aii#210 -->
<g id="edge11" class="edge"><title>aii#280-&gt;aii#210</title>
<path fill="none" stroke="black" stroke-dasharray="1,5" d="M1103.56,-839.988C1108.03,-836.998 1112.24,-833.679 1116,-830 1199.06,-748.795 1136.13,-667.973 1224,-592 1239.1,-578.942 1259.97,-571.961 1278.48,-568.234"/>
<polygon fill="black" stroke="black" points="1288.47,-566.48 1279.4,-572.642 1283.55,-567.345 1278.62,-568.209 1278.62,-568.209 1278.62,-568.209 1283.55,-567.345 1277.84,-563.777 1288.47,-566.48 1288.47,-566.48"/>
<text text-anchor="middle" x="1148.61" y="-691.244" font-family="Sans" font-size="10.00">replaces</text>
</g>
<!-- aii#316&#45;&gt;aii#280 -->
<g id="edge4" class="edge"><title>aii#316-&gt;aii#280</title>
<path fill="none" stroke="black" stroke-dasharray="5,2" d="M804.46,-706.351C819.86,-715.11 836.004,-725.235 850,-736 896.338,-771.638 893.216,-797.792 942,-830 944.728,-831.801 947.563,-833.531 950.472,-835.19"/>
<polygon fill="none" stroke="black" points="948.922,-838.33 959.392,-839.955 952.22,-832.156 948.922,-838.33"/>
<text text-anchor="middle" x="864.937" y="-762.746" font-family="Sans" font-size="10.00">requires</text>
</g>
<!-- aii#314 -->
<g id="node6" class="node"><title>aii#314</title>
<polygon fill="lightgrey" stroke="black" points="1066.5,-638.5 999.5,-638.5 999.5,-599.5 1066.5,-599.5 1066.5,-638.5"/>
<text text-anchor="middle" x="1033" y="-616.5" font-family="Sans" font-size="10.00">aii#314</text>
</g>
<!-- aii#316&#45;&gt;aii#314 -->
<g id="edge5" class="edge"><title>aii#316-&gt;aii#314</title>
<path fill="none" stroke="black" stroke-dasharray="5,2" d="M831.191,-658.743C883.541,-648.382 947.821,-635.661 989.328,-627.446"/>
<polygon fill="none" stroke="black" points="990.239,-630.833 999.369,-625.458 988.88,-623.966 990.239,-630.833"/>
<text text-anchor="middle" x="894.977" y="-634.161" font-family="Sans" font-size="10.00">requires</text>
</g>
<!-- aii#315 -->
<g id="node7" class="node"><title>aii#315</title>
<polygon fill="lightgrey" stroke="black" points="1066.5,-695.5 999.5,-695.5 999.5,-656.5 1066.5,-656.5 1066.5,-695.5"/>
<text text-anchor="middle" x="1033" y="-673.5" font-family="Sans" font-size="10.00">aii#315</text>
</g>
<!-- aii#316&#45;&gt;aii#315 -->
<g id="edge6" class="edge"><title>aii#316-&gt;aii#315</title>
<path fill="none" stroke="black" stroke-dasharray="5,2" d="M831.191,-676C883.541,-676 947.821,-676 989.328,-676"/>
<polygon fill="none" stroke="black" points="989.369,-679.5 999.369,-676 989.369,-672.5 989.369,-679.5"/>
<text text-anchor="middle" x="894.977" y="-668" font-family="Sans" font-size="10.00">requires</text>
</g>
<!-- aii#325 -->
<g id="node4" class="node"><title>aii#325</title>
<g id="a_node4"><a xlink:href="https://github.com/quattor/aii/pull/325" xlink:title="aii#325 (pull-request)" target="_parent">
<polygon fill="#6e5494" stroke="black" points="1104,-821.5 962,-821.5 962,-782.5 1104,-782.5 1104,-821.5"/>
<text text-anchor="middle" x="1033" y="-799.5" font-family="Sans" font-size="10.00">Use wipefs for RHEL6+</text>
</a>
</g>
</g>
<!-- ncm&#45;lib&#45;blockdevices#93 -->
<g id="node5" class="node"><title>ncm-lib-blockdevices#93</title>
<polygon fill="lightgrey" stroke="black" points="1398.5,-526.5 1245.5,-526.5 1245.5,-487.5 1398.5,-487.5 1398.5,-526.5"/>
<text text-anchor="middle" x="1322" y="-504.5" font-family="Sans" font-size="10.00">ncm-lib-blockdevices#93</text>
</g>
<!-- aii#325&#45;&gt;ncm&#45;lib&#45;blockdevices#93 -->
<g id="edge3" class="edge"><title>aii#325-&gt;ncm-lib-blockdevices#93</title>
<path fill="none" stroke="black" stroke-dasharray="5,2" d="M1102.72,-782.701C1107.49,-779.89 1111.99,-776.675 1116,-773 1201.59,-694.473 1136.13,-610.973 1224,-535 1227.7,-531.801 1231.75,-528.966 1236.02,-526.455"/>
<polygon fill="none" stroke="black" points="1237.82,-529.465 1245.07,-521.742 1234.58,-523.257 1237.82,-529.465"/>
<text text-anchor="middle" x="1149.33" y="-643.629" font-family="Sans" font-size="10.00">requires</text>
</g>
<!-- aii#299 -->
<g id="node8" class="node"><title>aii#299</title>
<g id="a_node8"><a xlink:href="https://github.com/quattor/aii/pull/299" xlink:title="aii#299 (pull-request)" target="_parent">
<polygon fill="#6cc644" stroke="black" points="507.5,-708 354.5,-708 354.5,-658 507.5,-658 507.5,-708"/>
<text text-anchor="middle" x="431" y="-686" font-family="Sans" font-size="10.00">aii-dhcp: support optional</text>
<text text-anchor="middle" x="431" y="-675" font-family="Sans" font-size="10.00">hostname ip verification</text>
</a>
</g>
</g>
<!-- aii#299&#45;&gt;aii#280 -->
<g id="edge7" class="edge"><title>aii#299-&gt;aii#280</title>
<path fill="none" stroke="black" stroke-dasharray="5,2" d="M482.348,-708.073C499.861,-717.567 519.292,-729.001 536,-741 588.646,-778.808 584.349,-813.646 644,-839 738.739,-879.268 858.269,-880.791 939.448,-875.438"/>
<polygon fill="none" stroke="black" points="939.921,-878.913 949.649,-874.716 939.427,-871.931 939.921,-878.913"/>
<text text-anchor="middle" x="678.297" y="-849.458" font-family="Sans" font-size="10.00">requires</text>
</g>
<!-- aii#331 -->
<g id="node13" class="node"><title>aii#331</title>
<g id="a_node13"><a xlink:href="https://github.com/quattor/aii/pull/331" xlink:title="aii#331 (pull-request)" target="_parent">
<polygon fill="#6cc644" stroke="black" points="186,-645.5 44,-645.5 44,-584.5 186,-584.5 186,-645.5"/>
<text text-anchor="middle" x="115" y="-623.5" font-family="Sans" font-size="10.00">let aii generate ansible</text>
<text text-anchor="middle" x="115" y="-612.5" font-family="Sans" font-size="10.00">playbook for supported</text>
<text text-anchor="middle" x="115" y="-601.5" font-family="Sans" font-size="10.00">components</text>
</a>
</g>
</g>
<!-- aii#331&#45;&gt;aii#328 -->
<g id="edge12" class="edge"><title>aii#331-&gt;aii#328</title>
<path fill="none" stroke="black" stroke-dasharray="5,2" d="M186.077,-615C228.343,-615 282.883,-615 329.668,-615"/>
<polygon fill="none" stroke="black" points="329.834,-618.5 339.834,-615 329.834,-611.5 329.834,-618.5"/>
<text text-anchor="middle" x="242.574" y="-607" font-family="Sans" font-size="10.00">requires</text>
</g>
<!-- CAF#257 -->
<g id="node14" class="node"><title>CAF#257</title>
<g id="a_node14"><a xlink:href="https://github.com/quattor/CAF/pull/257" xlink:title="CAF#257 (pull-request)" target="_parent">
<polygon fill="#6cc644" stroke="black" points="206.5,-877 23.5,-877 23.5,-827 206.5,-827 206.5,-877"/>
<text text-anchor="middle" x="115" y="-855" font-family="Sans" font-size="10.00">Process: run process as another</text>
<text text-anchor="middle" x="115" y="-844" font-family="Sans" font-size="10.00">user</text>
</a>
</g>
</g>
<!-- CAF#253 -->
<g id="node15" class="node"><title>CAF#253</title>
<g id="a_node15"><a xlink:href="https://github.com/quattor/CAF/issues/253" xlink:title="CAF#253 (issue)" target="_parent">
<path fill="#6cc644" stroke="black" d="M509,-882.5C509,-882.5 353,-882.5 353,-882.5 347,-882.5 341,-876.5 341,-870.5 341,-870.5 341,-833.5 341,-833.5 341,-827.5 347,-821.5 353,-821.5 353,-821.5 509,-821.5 509,-821.5 515,-821.5 521,-827.5 521,-833.5 521,-833.5 521,-870.5 521,-870.5 521,-876.5 515,-882.5 509,-882.5"/>
<text text-anchor="middle" x="431" y="-860.5" font-family="Sans" font-size="10.00">CAF::Process: Include an option</text>
<text text-anchor="middle" x="431" y="-849.5" font-family="Sans" font-size="10.00">to execute the command as an</text>
<text text-anchor="middle" x="431" y="-838.5" font-family="Sans" font-size="10.00">specific user</text>
</a>
</g>
</g>
<!-- CAF#257&#45;&gt;CAF#253 -->
<g id="edge13" class="edge"><title>CAF#257-&gt;CAF#253</title>
<path fill="none" stroke="black" stroke-width="2" d="M206.822,-852C245.561,-852 290.88,-852 330.522,-852"/>
<polygon fill="black" stroke="black" points="330.737,-855.5 340.737,-852 330.737,-848.5 330.737,-855.5"/>
<text text-anchor="middle" x="261.782" y="-844" font-family="Sans" font-size="10.00">fixes</text>
</g>
<!-- CAF#110 -->
<g id="node16" class="node"><title>CAF#110</title>
<g id="a_node16"><a xlink:href="https://github.com/quattor/CAF/pull/110" xlink:title="CAF#110 (pull-request)" target="_parent">
<polygon fill="#6cc644" stroke="black" points="506.5,-424 355.5,-424 355.5,-374 506.5,-374 506.5,-424"/>
<text text-anchor="middle" x="431" y="-402" font-family="Sans" font-size="10.00">CAF::Download class: API</text>
<text text-anchor="middle" x="431" y="-391" font-family="Sans" font-size="10.00">proposal</text>
</a>
</g>
</g>
<!-- CAF#120 -->
<g id="node17" class="node"><title>CAF#120</title>
<polygon fill="lightgrey" stroke="black" points="780,-209.5 706,-209.5 706,-170.5 780,-170.5 780,-209.5"/>
<text text-anchor="middle" x="743" y="-187.5" font-family="Sans" font-size="10.00">CAF#120</text>
</g>
<!-- CAF#110&#45;&gt;CAF#120 -->
<g id="edge14" class="edge"><title>CAF#110-&gt;CAF#120</title>
<path fill="none" stroke="black" stroke-dasharray="5,2" d="M506.719,-380.235C517.084,-375.852 527.186,-370.504 536,-364 602.102,-315.225 575.898,-259.941 644,-214 659.174,-203.764 678.288,-197.885 695.597,-194.513"/>
<polygon fill="none" stroke="black" points="696.275,-197.948 705.537,-192.802 695.088,-191.049 696.275,-197.948"/>
<text text-anchor="middle" x="572.151" y="-272.731" font-family="Sans" font-size="10.00">requires</text>
</g>
<!-- configuration&#45;modules&#45;core#1490 -->
<g id="node18" class="node"><title>configuration-modules-core#1490</title>
<g id="a_node18"><a xlink:href="https://github.com/quattor/configuration-modules-core/pull/1490" xlink:title="configuration-modules-core#1490 (pull-request)" target="_parent">
<polygon fill="#6cc644" stroke="black" points="514.5,-355.5 347.5,-355.5 347.5,-294.5 514.5,-294.5 514.5,-355.5"/>
<text text-anchor="middle" x="431" y="-333.5" font-family="Sans" font-size="10.00">ncm-ceph: Add support for</text>
<text text-anchor="middle" x="431" y="-322.5" font-family="Sans" font-size="10.00">orchestrator/cephadm under</text>
<text text-anchor="middle" x="431" y="-311.5" font-family="Sans" font-size="10.00">octopus</text>
</a>
</g>
</g>
<!-- configuration&#45;modules&#45;core#1463 -->
<g id="node19" class="node"><title>configuration-modules-core#1463</title>
<polygon fill="lightgrey" stroke="black" points="840.5,-152.5 645.5,-152.5 645.5,-113.5 840.5,-113.5 840.5,-152.5"/>
<text text-anchor="middle" x="743" y="-130.5" font-family="Sans" font-size="10.00">configuration-modules-core#1463</text>
</g>
<!-- configuration&#45;modules&#45;core#1490&#45;&gt;configuration&#45;modules&#45;core#1463 -->
<g id="edge15" class="edge"><title>configuration-modules-core#1490-&gt;configuration-modules-core#1463</title>
<path fill="none" stroke="black" stroke-dasharray="1,5" d="M514.567,-297.644C522.072,-293.866 529.344,-289.659 536,-285 595.873,-243.09 582.324,-200.209 644,-161 646.301,-159.537 648.679,-158.15 651.118,-156.833"/>
<polygon fill="black" stroke="black" points="660.181,-152.368 653.199,-160.824 655.696,-154.577 651.21,-156.787 651.21,-156.787 651.21,-156.787 655.696,-154.577 649.222,-152.75 660.181,-152.368 660.181,-152.368"/>
<text text-anchor="middle" x="566.663" y="-216.923" font-family="Sans" font-size="10.00">replaces</text>
</g>
<!-- configuration&#45;modules&#45;core#1452 -->
<g id="node20" class="node"><title>configuration-modules-core#1452</title>
<g id="a_node20"><a xlink:href="https://github.com/quattor/configuration-modules-core/pull/1452" xlink:title="configuration-modules-core#1452 (pull-request)" target="_parent">
<polygon fill="#6cc644" stroke="black" points="517.5,-276 344.5,-276 344.5,-226 517.5,-226 517.5,-276"/>
<text text-anchor="middle" x="431" y="-254" font-family="Sans" font-size="10.00">ncm-metaconfig: ssh daemon</text>
<text text-anchor="middle" x="431" y="-243" font-family="Sans" font-size="10.00">configuration support</text>
</a>
</g>
</g>
<!-- configuration&#45;modules&#45;core#1377 -->
<g id="node21" class="node"><title>configuration-modules-core#1377</title>
<polygon fill="lightgrey" stroke="black" points="840.5,-38.5 645.5,-38.5 645.5,0.5 840.5,0.5 840.5,-38.5"/>
<text text-anchor="middle" x="743" y="-16.5" font-family="Sans" font-size="10.00">configuration-modules-core#1377</text>
</g>
<!-- configuration&#45;modules&#45;core#1452&#45;&gt;configuration&#45;modules&#45;core#1377 -->
<g id="edge16" class="edge"><title>configuration-modules-core#1452-&gt;configuration-modules-core#1377</title>
<path fill="none" stroke="black" stroke-dasharray="1,5" d="M451.039,-225.948C485.052,-182.932 560.551,-95.0275 644,-47 646.711,-45.4395 649.516,-43.961 652.387,-42.5606"/>
<polygon fill="black" stroke="black" points="661.754,-38.3493 654.479,-46.5541 657.194,-40.3996 652.634,-42.4498 652.634,-42.4498 652.634,-42.4498 657.194,-40.3996 650.788,-38.3456 661.754,-38.3493 661.754,-38.3493"/>
<text text-anchor="middle" x="525.394" y="-113.542" font-family="Sans" font-size="10.00">replaces</text>
</g>
<!-- configuration&#45;modules&#45;core#1451 -->
<g id="node22" class="node"><title>configuration-modules-core#1451</title>
<polygon fill="lightgrey" stroke="black" points="840.5,-95.5 645.5,-95.5 645.5,-56.5 840.5,-56.5 840.5,-95.5"/>
<text text-anchor="middle" x="743" y="-73.5" font-family="Sans" font-size="10.00">configuration-modules-core#1451</text>
</g>
<!-- configuration&#45;modules&#45;core#1452&#45;&gt;configuration&#45;modules&#45;core#1451 -->
<g id="edge17" class="edge"><title>configuration-modules-core#1452-&gt;configuration-modules-core#1451</title>
<path fill="none" stroke="black" stroke-dasharray="5,2" d="M461.302,-225.961C500.523,-193.6 573.366,-137.451 644,-104 647.778,-102.211 651.694,-100.513 655.689,-98.9059"/>
<polygon fill="none" stroke="black" points="657.024,-102.143 665.129,-95.318 654.537,-95.5993 657.024,-102.143"/>
<text text-anchor="middle" x="538.444" y="-145.408" font-family="Sans" font-size="10.00">requires</text>
</g>
<!-- configuration&#45;modules&#45;core#1401 -->
<g id="node23" class="node"><title>configuration-modules-core#1401</title>
<g id="a_node23"><a xlink:href="https://github.com/quattor/configuration-modules-core/pull/1401" xlink:title="configuration-modules-core#1401 (pull-request)" target="_parent">
<polygon fill="#6e5494" stroke="black" points="1112,-764 954,-764 954,-714 1112,-714 1112,-764"/>
<text text-anchor="middle" x="1033" y="-742" font-family="Sans" font-size="10.00">ncm-spma: yumdnf: initial</text>
<text text-anchor="middle" x="1033" y="-731" font-family="Sans" font-size="10.00">dnf/yum4 based on yum</text>
</a>
</g>
</g>
<!-- configuration&#45;modules&#45;core#1405 -->
<g id="node24" class="node"><title>configuration-modules-core#1405</title>
<polygon fill="lightgrey" stroke="black" points="1419.5,-469.5 1224.5,-469.5 1224.5,-430.5 1419.5,-430.5 1419.5,-469.5"/>
<text text-anchor="middle" x="1322" y="-447.5" font-family="Sans" font-size="10.00">configuration-modules-core#1405</text>
</g>
<!-- configuration&#45;modules&#45;core#1401&#45;&gt;configuration&#45;modules&#45;core#1405 -->
<g id="edge18" class="edge"><title>configuration-modules-core#1401-&gt;configuration-modules-core#1405</title>
<path fill="none" stroke="black" stroke-dasharray="5,2" d="M1103.47,-713.904C1107.96,-710.933 1112.2,-707.642 1116,-704 1196.37,-626.967 1139.07,-549.973 1224,-478 1225.33,-476.87 1226.71,-475.786 1228.12,-474.746"/>
<polygon fill="none" stroke="black" points="1230.11,-477.628 1236.6,-469.252 1226.3,-471.754 1230.11,-477.628"/>
<text text-anchor="middle" x="1147.92" y="-583.323" font-family="Sans" font-size="10.00">requires</text>
</g>
<!-- configuration&#45;modules&#45;core#1336 -->
<g id="node25" class="node"><title>configuration-modules-core#1336</title>
<g id="a_node25"><a xlink:href="https://github.com/quattor/configuration-modules-core/pull/1336" xlink:title="configuration-modules-core#1336 (pull-request)" target="_parent">
<polygon fill="#6cc644" stroke="black" points="518,-571.5 344,-571.5 344,-510.5 518,-510.5 518,-571.5"/>
<text text-anchor="middle" x="431" y="-549.5" font-family="Sans" font-size="10.00">ncm-network: Add support for</text>
<text text-anchor="middle" x="431" y="-538.5" font-family="Sans" font-size="10.00">CAF::Service actions after</text>
<text text-anchor="middle" x="431" y="-527.5" font-family="Sans" font-size="10.00">changes</text>
</a>
</g>
</g>
<!-- configuration&#45;modules&#45;core#1335 -->
<g id="node26" class="node"><title>configuration-modules-core#1335</title>
<g id="a_node26"><a xlink:href="https://github.com/quattor/configuration-modules-core/pull/1335" xlink:title="configuration-modules-core#1335 (pull-request)" target="_parent">
<polygon fill="#6cc644" stroke="black" points="836,-627.5 650,-627.5 650,-566.5 836,-566.5 836,-627.5"/>
<text text-anchor="middle" x="743" y="-605.5" font-family="Sans" font-size="10.00">ncm-metaconfig: Remove</text>
<text text-anchor="middle" x="743" y="-594.5" font-family="Sans" font-size="10.00">caf_service_action type to allow</text>
<text text-anchor="middle" x="743" y="-583.5" font-family="Sans" font-size="10.00">reuse</text>
</a>
</g>
</g>
<!-- configuration&#45;modules&#45;core#1336&#45;&gt;configuration&#45;modules&#45;core#1335 -->
<g id="edge19" class="edge"><title>configuration-modules-core#1336-&gt;configuration-modules-core#1335</title>
<path fill="none" stroke="black" stroke-dasharray="5,2" d="M518.352,-556.599C556.091,-563.416 600.633,-571.463 639.992,-578.573"/>
<polygon fill="none" stroke="black" points="639.417,-582.025 649.88,-580.359 640.661,-575.137 639.417,-582.025"/>
<text text-anchor="middle" x="563.923" y="-560.444" font-family="Sans" font-size="10.00">requires</text>
</g>
<!-- configuration&#45;modules&#45;core#1071 -->
<g id="node27" class="node"><title>configuration-modules-core#1071</title>
<g id="a_node27"><a xlink:href="https://github.com/quattor/configuration-modules-core/issues/1071" xlink:title="configuration-modules-core#1071 (issue)" target="_parent">
<path fill="#6cc644" stroke="black" d="M829.5,-548C829.5,-548 656.5,-548 656.5,-548 650.5,-548 644.5,-542 644.5,-536 644.5,-536 644.5,-510 644.5,-510 644.5,-504 650.5,-498 656.5,-498 656.5,-498 829.5,-498 829.5,-498 835.5,-498 841.5,-504 841.5,-510 841.5,-510 841.5,-536 841.5,-536 841.5,-542 835.5,-548 829.5,-548"/>
<text text-anchor="middle" x="743" y="-526" font-family="Sans" font-size="10.00">ncm-network: support daemons to</text>
<text text-anchor="middle" x="743" y="-515" font-family="Sans" font-size="10.00">restart after network changes</text>
</a>
</g>
</g>
<!-- configuration&#45;modules&#45;core#1336&#45;&gt;configuration&#45;modules&#45;core#1071 -->
<g id="edge20" class="edge"><title>configuration-modules-core#1336-&gt;configuration-modules-core#1071</title>
<path fill="none" stroke="black" stroke-width="2" d="M518.352,-535.986C554.286,-533.9 596.389,-531.455 634.312,-529.253"/>
<polygon fill="black" stroke="black" points="634.591,-532.743 644.371,-528.669 634.185,-525.754 634.591,-532.743"/>
<text text-anchor="middle" x="569.612" y="-524.313" font-family="Sans" font-size="10.00">fixes</text>
</g>
<!-- template&#45;library&#45;core#191 -->
<g id="node28" class="node"><title>template-library-core#191</title>
<polygon fill="lightgrey" stroke="black" points="1112.5,-581.5 953.5,-581.5 953.5,-542.5 1112.5,-542.5 1112.5,-581.5"/>
<text text-anchor="middle" x="1033" y="-559.5" font-family="Sans" font-size="10.00">template-library-core#191</text>
</g>
<!-- configuration&#45;modules&#45;core#1335&#45;&gt;template&#45;library&#45;core#191 -->
<g id="edge21" class="edge"><title>configuration-modules-core#1335-&gt;template-library-core#191</title>
<path fill="none" stroke="black" stroke-dasharray="5,2" d="M836.313,-585.781C870.458,-581.632 909.074,-576.939 942.925,-572.825"/>
<polygon fill="none" stroke="black" points="943.763,-576.249 953.268,-571.568 942.919,-569.3 943.763,-576.249"/>
<text text-anchor="middle" x="874.833" y="-570.67" font-family="Sans" font-size="10.00">requires</text>
</g>
<!-- configuration&#45;modules&#45;core#1507 -->
<g id="node29" class="node"><title>configuration-modules-core#1507</title>
<g id="a_node29"><a xlink:href="https://github.com/quattor/configuration-modules-core/pull/1507" xlink:title="configuration-modules-core#1507 (pull-request)" target="_parent">
<polygon fill="#6cc644" stroke="black" points="831,-795 655,-795 655,-745 831,-745 831,-795"/>
<text text-anchor="middle" x="743" y="-773" font-family="Sans" font-size="10.00">[WIP] ncm-spma: yumdnf: use</text>
<text text-anchor="middle" x="743" y="-762" font-family="Sans" font-size="10.00">spmaleaves dnf plugin</text>
</a>
</g>
</g>
<!-- configuration&#45;modules&#45;core#1507&#45;&gt;configuration&#45;modules&#45;core#1401 -->
<g id="edge22" class="edge"><title>configuration-modules-core#1507-&gt;configuration-modules-core#1401</title>
<path fill="none" stroke="black" stroke-dasharray="5,2" d="M831.191,-760.615C866.905,-756.771 908.171,-752.329 943.971,-748.475"/>
<polygon fill="none" stroke="black" points="944.347,-751.955 953.915,-747.405 943.598,-744.995 944.347,-751.955"/>
<text text-anchor="middle" x="872.513" y="-746.014" font-family="Sans" font-size="10.00">requires</text>
</g>
<!-- configuration&#45;modules&#45;core#1148 -->
<g id="node30" class="node"><title>configuration-modules-core#1148</title>
<g id="a_node30"><a xlink:href="https://github.com/quattor/configuration-modules-core/pull/1148" xlink:title="configuration-modules-core#1148 (pull-request)" target="_parent">
<polygon fill="#6cc644" stroke="black" points="214.5,-1038 15.5,-1038 15.5,-988 214.5,-988 214.5,-1038"/>
<text text-anchor="middle" x="115" y="-1016" font-family="Sans" font-size="10.00">ncm-spma: Remove support from</text>
<text text-anchor="middle" x="115" y="-1005" font-family="Sans" font-size="10.00">groups from spma yumng backend</text>
</a>
</g>
</g>
<!-- configuration&#45;modules&#45;core#952 -->
<g id="node31" class="node"><title>configuration-modules-core#952</title>
<g id="a_node31"><a xlink:href="https://github.com/quattor/configuration-modules-core/issues/952" xlink:title="configuration-modules-core#952 (issue)" target="_parent">
<path fill="#6cc644" stroke="black" d="M524,-1038C524,-1038 338,-1038 338,-1038 332,-1038 326,-1032 326,-1026 326,-1026 326,-1000 326,-1000 326,-994 332,-988 338,-988 338,-988 524,-988 524,-988 530,-988 536,-994 536,-1000 536,-1000 536,-1026 536,-1026 536,-1032 530,-1038 524,-1038"/>
<text text-anchor="middle" x="431" y="-1016" font-family="Sans" font-size="10.00">ncm-spma (yumng): Remove support</text>
<text text-anchor="middle" x="431" y="-1005" font-family="Sans" font-size="10.00">for package groups</text>
</a>
</g>
</g>
<!-- configuration&#45;modules&#45;core#1148&#45;&gt;configuration&#45;modules&#45;core#952 -->
<g id="edge23" class="edge"><title>configuration-modules-core#1148-&gt;configuration-modules-core#952</title>
<path fill="none" stroke="black" stroke-width="2" d="M214.921,-1013C246.933,-1013 282.695,-1013 315.726,-1013"/>
<polygon fill="black" stroke="black" points="315.883,-1016.5 325.883,-1013 315.882,-1009.5 315.883,-1016.5"/>
<text text-anchor="middle" x="258.546" y="-1005" font-family="Sans" font-size="10.00">fixes</text>
</g>
<!-- configuration&#45;modules&#45;core#950 -->
<g id="node32" class="node"><title>configuration-modules-core#950</title>
<g id="a_node32"><a xlink:href="https://github.com/quattor/configuration-modules-core/issues/950" xlink:title="configuration-modules-core#950 (issue)" target="_parent">
<path fill="#6cc644" stroke="black" d="M206,-970C206,-970 24,-970 24,-970 18,-970 12,-964 12,-958 12,-958 12,-932 12,-932 12,-926 18,-920 24,-920 24,-920 206,-920 206,-920 212,-920 218,-926 218,-932 218,-932 218,-958 218,-958 218,-964 212,-970 206,-970"/>
<text text-anchor="middle" x="115" y="-948" font-family="Sans" font-size="10.00">ncm-spma: Remove support for</text>
<text text-anchor="middle" x="115" y="-937" font-family="Sans" font-size="10.00">package groups from yum backends</text>
</a>
</g>
</g>
<!-- configuration&#45;modules&#45;core#951 -->
<g id="node33" class="node"><title>configuration-modules-core#951</title>
<g id="a_node33"><a xlink:href="https://github.com/quattor/configuration-modules-core/issues/951" xlink:title="configuration-modules-core#951 (issue)" target="_parent">
<path fill="#6cc644" stroke="black" d="M518,-970C518,-970 344,-970 344,-970 338,-970 332,-964 332,-958 332,-958 332,-932 332,-932 332,-926 338,-920 344,-920 344,-920 518,-920 518,-920 524,-920 530,-926 530,-932 530,-932 530,-958 530,-958 530,-964 524,-970 518,-970"/>
<text text-anchor="middle" x="431" y="-948" font-family="Sans" font-size="10.00">ncm-spma (yum): Remove support</text>
<text text-anchor="middle" x="431" y="-937" font-family="Sans" font-size="10.00">for package groups</text>
</a>
</g>
</g>
<!-- configuration&#45;modules&#45;core#950&#45;&gt;configuration&#45;modules&#45;core#951 -->
<g id="edge24" class="edge"><title>configuration-modules-core#950-&gt;configuration-modules-core#951</title>
<path fill="none" stroke="black" stroke-dasharray="5,2" d="M218.381,-945C251.386,-945 288.071,-945 321.502,-945"/>
<polygon fill="none" stroke="black" points="321.765,-948.5 331.765,-945 321.765,-941.5 321.765,-948.5"/>
<text text-anchor="middle" x="255.107" y="-937" font-family="Sans" font-size="10.00">requires</text>
</g>
<!-- configuration&#45;modules&#45;core#950&#45;&gt;configuration&#45;modules&#45;core#952 -->
<g id="edge25" class="edge"><title>configuration-modules-core#950-&gt;configuration-modules-core#952</title>
<path fill="none" stroke="black" stroke-dasharray="5,2" d="M218.381,-967.172C249.602,-973.933 284.116,-981.407 316.053,-988.324"/>
<polygon fill="none" stroke="black" points="315.361,-991.755 325.876,-990.451 316.843,-984.913 315.361,-991.755"/>
<text text-anchor="middle" x="252.372" y="-970.864" font-family="Sans" font-size="10.00">requires</text>
</g>
<!-- template&#45;library&#45;grid#241 -->
<g id="node34" class="node"><title>template-library-grid#241</title>
<g id="a_node34"><a xlink:href="https://github.com/quattor/template-library-grid/pull/241" xlink:title="template-library-grid#241 (pull-request)" target="_parent">
<polygon fill="#6cc644" stroke="black" points="528,-492 334,-492 334,-442 528,-442 528,-492"/>
<text text-anchor="middle" x="431" y="-470" font-family="Sans" font-size="10.00">machines-types update based on</text>
<text text-anchor="middle" x="431" y="-459" font-family="Sans" font-size="10.00">new standard/machine-types/core</text>
</a>
</g>
</g>
<!-- template&#45;library&#45;standard#140 -->
<g id="node35" class="node"><title>template-library-standard#140</title>
<g id="a_node35"><a xlink:href="https://github.com/quattor/template-library-standard/pull/140" xlink:title="template-library-standard#140 (pull-request)" target="_parent">
<polygon fill="#6cc644" stroke="black" points="834,-480 652,-480 652,-430 834,-430 834,-480"/>
<text text-anchor="middle" x="743" y="-458" font-family="Sans" font-size="10.00">machine-types/core refactoring</text>
<text text-anchor="middle" x="743" y="-447" font-family="Sans" font-size="10.00">to make it more flexible</text>
</a>
</g>
</g>
<!-- template&#45;library&#45;grid#241&#45;&gt;template&#45;library&#45;standard#140 -->
<g id="edge26" class="edge"><title>template-library-grid#241-&gt;template-library-standard#140</title>
<path fill="none" stroke="black" stroke-dasharray="5,2" d="M528.387,-456.968C564.372,-454.998 605.301,-453.393 641.636,-452.522"/>
<polygon fill="none" stroke="black" points="641.835,-456.019 651.754,-452.297 641.679,-449.021 641.835,-456.019"/>
<text text-anchor="middle" x="569.849" y="-446.141" font-family="Sans" font-size="10.00">requires</text>
</g>
<!-- template&#45;library&#45;grid#241&#45;&gt;template&#45;library&#45;standard#140 -->
<g id="edge29" class="edge"><title>template-library-grid#241-&gt;template-library-standard#140</title>
<path fill="none" stroke="black" stroke-dasharray="5,2" d="M528.387,-469.57C564.372,-468.754 605.301,-467.19 641.636,-465.248"/>
<polygon fill="none" stroke="black" points="641.962,-468.735 651.754,-464.69 641.577,-461.746 641.962,-468.735"/>
<text text-anchor="middle" x="569.849" y="-459.639" font-family="Sans" font-size="10.00">requires</text>
</g>
<!-- template&#45;library&#45;grid#237 -->
<g id="node36" class="node"><title>template-library-grid#237</title>
<g id="a_node36"><a xlink:href="https://github.com/quattor/template-library-grid/pull/237" xlink:title="template-library-grid#237 (pull-request)" target="_parent">
<polygon fill="#6e5494" stroke="black" points="1107.5,-958 958.5,-958 958.5,-908 1107.5,-908 1107.5,-958"/>
<text text-anchor="middle" x="1033" y="-936" font-family="Sans" font-size="10.00">users: Fix collisions with</text>
<text text-anchor="middle" x="1033" y="-925" font-family="Sans" font-size="10.00">system managed groups</text>
</a>
</g>
</g>
<!-- template&#45;library&#45;grid#226 -->
<g id="node37" class="node"><title>template-library-grid#226</title>
<g id="a_node37"><a xlink:href="https://github.com/quattor/template-library-grid/issues/226" xlink:title="template-library-grid#226 (issue)" target="_parent">
<path fill="#bd2c00" stroke="black" d="M1368.5,-952.5C1368.5,-952.5 1275.5,-952.5 1275.5,-952.5 1269.5,-952.5 1263.5,-946.5 1263.5,-940.5 1263.5,-940.5 1263.5,-925.5 1263.5,-925.5 1263.5,-919.5 1269.5,-913.5 1275.5,-913.5 1275.5,-913.5 1368.5,-913.5 1368.5,-913.5 1374.5,-913.5 1380.5,-919.5 1380.5,-925.5 1380.5,-925.5 1380.5,-940.5 1380.5,-940.5 1380.5,-946.5 1374.5,-952.5 1368.5,-952.5"/>
<text text-anchor="middle" x="1322" y="-930.5" font-family="Sans" font-size="10.00">collisions group id</text>
</a>
</g>
</g>
<!-- template&#45;library&#45;grid#237&#45;&gt;template&#45;library&#45;grid#226 -->
<g id="edge27" class="edge"><title>template-library-grid#237-&gt;template-library-grid#226</title>
<path fill="none" stroke="black" stroke-width="2" d="M1107.54,-927.021C1152.43,-925.947 1209.43,-925.995 1253.23,-927.167"/>
<polygon fill="black" stroke="black" points="1253.4,-930.673 1263.5,-927.47 1253.6,-923.676 1253.4,-930.673"/>
<text text-anchor="middle" x="1173.54" y="-918.259" font-family="Sans" font-size="10.00">fixes</text>
</g>
<!-- template&#45;library&#45;grid#237&#45;&gt;template&#45;library&#45;grid#226 -->
<g id="edge30" class="edge"><title>template-library-grid#237-&gt;template-library-grid#226</title>
<path fill="none" stroke="black" stroke-width="2" d="M1107.54,-938.979C1152.43,-940.053 1209.43,-940.005 1253.23,-938.833"/>
<polygon fill="black" stroke="black" points="1253.6,-942.324 1263.5,-938.53 1253.4,-935.327 1253.6,-942.324"/>
<text text-anchor="middle" x="1173.54" y="-931.741" font-family="Sans" font-size="10.00">fixes</text>
</g>
<!-- template&#45;library&#45;grid#232 -->
<g id="node38" class="node"><title>template-library-grid#232</title>
<g id="a_node38"><a xlink:href="https://github.com/quattor/template-library-grid/pull/232" xlink:title="template-library-grid#232 (pull-request)" target="_parent">
<polygon fill="#6cc644" stroke="black" points="198.5,-803 31.5,-803 31.5,-753 198.5,-753 198.5,-803"/>
<text text-anchor="middle" x="115" y="-781" font-family="Sans" font-size="10.00">arc-ce: Export arc-ce feature</text>
<text text-anchor="middle" x="115" y="-770" font-family="Sans" font-size="10.00">from aquilon at RAL</text>
</a>
</g>
</g>
<!-- template&#45;library&#45;grid#221 -->
<g id="node39" class="node"><title>template-library-grid#221</title>
<g id="a_node39"><a xlink:href="https://github.com/quattor/template-library-grid/issues/221" xlink:title="template-library-grid#221 (issue)" target="_parent">
<path fill="#6cc644" stroke="black" d="M508,-803C508,-803 354,-803 354,-803 348,-803 342,-797 342,-791 342,-791 342,-765 342,-765 342,-759 348,-753 354,-753 354,-753 508,-753 508,-753 514,-753 520,-759 520,-765 520,-765 520,-791 520,-791 520,-797 514,-803 508,-803"/>
<text text-anchor="middle" x="431" y="-781" font-family="Sans" font-size="10.00">Support for new CE types (ARC</text>
<text text-anchor="middle" x="431" y="-770" font-family="Sans" font-size="10.00">CE, HTCONDOR CE)</text>
</a>
</g>
</g>
<!-- template&#45;library&#45;grid#232&#45;&gt;template&#45;library&#45;grid#221 -->
<g id="edge28" class="edge"><title>template-library-grid#232-&gt;template-library-grid#221</title>
<path fill="none" stroke="black" stroke-width="2" d="M198.911,-771.968C239.702,-771.115 289.151,-771.022 331.823,-771.69"/>
<polygon fill="black" stroke="black" points="331.888,-775.192 341.947,-771.865 332.01,-768.193 331.888,-775.192"/>
<text text-anchor="middle" x="258.543" y="-763.251" font-family="Sans" font-size="10.00">fixes</text>
</g>
<!-- template&#45;library&#45;grid#232&#45;&gt;template&#45;library&#45;grid#221 -->
<g id="edge31" class="edge"><title>template-library-grid#232-&gt;template-library-grid#221</title>
<path fill="none" stroke="black" stroke-width="2" d="M198.911,-784.032C239.702,-784.885 289.151,-784.978 331.823,-784.31"/>
<polygon fill="black" stroke="black" points="332.01,-787.807 341.947,-784.135 331.888,-780.808 332.01,-787.807"/>
<text text-anchor="middle" x="258.543" y="-776.749" font-family="Sans" font-size="10.00">fixes</text>
</g>
<!-- aquilon#115 -->
<g id="node40" class="node"><title>aquilon#115</title>
<g id="a_node40"><a xlink:href="https://github.com/quattor/aquilon/pull/115" xlink:title="aquilon#115 (pull-request)" target="_parent">
<polygon fill="#6cc644" stroke="black" points="198,-1310 32,-1310 32,-1260 198,-1260 198,-1310"/>
<text text-anchor="middle" x="115" y="-1288" font-family="Sans" font-size="10.00">services: insert service data</text>
<text text-anchor="middle" x="115" y="-1277" font-family="Sans" font-size="10.00">early in the object template</text>
</a>
</g>
</g>
<!-- aquilon#109 -->
<g id="node41" class="node"><title>aquilon#109</title>
<g id="a_node41"><a xlink:href="https://github.com/quattor/aquilon/issues/109" xlink:title="aquilon#109 (issue)" target="_parent">
<path fill="#6cc644" stroke="black" d="M507,-1309.5C507,-1309.5 355,-1309.5 355,-1309.5 349,-1309.5 343,-1303.5 343,-1297.5 343,-1297.5 343,-1260.5 343,-1260.5 343,-1254.5 349,-1248.5 355,-1248.5 355,-1248.5 507,-1248.5 507,-1248.5 513,-1248.5 519,-1254.5 519,-1260.5 519,-1260.5 519,-1297.5 519,-1297.5 519,-1303.5 513,-1309.5 507,-1309.5"/>
<text text-anchor="middle" x="431" y="-1287.5" font-family="Sans" font-size="10.00">Why service configuration is</text>
<text text-anchor="middle" x="431" y="-1276.5" font-family="Sans" font-size="10.00">included so late in the plenary</text>
<text text-anchor="middle" x="431" y="-1265.5" font-family="Sans" font-size="10.00">object?</text>
</a>
</g>
</g>
<!-- aquilon#115&#45;&gt;aquilon#109 -->
<g id="edge32" class="edge"><title>aquilon#115-&gt;aquilon#109</title>
<path fill="none" stroke="black" stroke-width="2" d="M198.09,-1283.43C239.304,-1282.64 289.515,-1281.68 332.663,-1280.86"/>
<polygon fill="black" stroke="black" points="332.965,-1284.35 342.896,-1280.66 332.831,-1277.36 332.965,-1284.35"/>
<text text-anchor="middle" x="258.61" y="-1274.05" font-family="Sans" font-size="10.00">fixes</text>
</g>
<!-- aquilon#110 -->
<g id="node42" class="node"><title>aquilon#110</title>
<g id="a_node42"><a xlink:href="https://github.com/quattor/aquilon/pull/110" xlink:title="aquilon#110 (pull-request)" target="_parent">
<polygon fill="#6cc644" stroke="black" points="213.5,-1174 16.5,-1174 16.5,-1124 213.5,-1124 213.5,-1174"/>
<text text-anchor="middle" x="115" y="-1152" font-family="Sans" font-size="10.00">Change site and machine</text>
<text text-anchor="middle" x="115" y="-1141" font-family="Sans" font-size="10.00">namespace to use continent name</text>
</a>
</g>
</g>
<!-- aquilon#104 -->
<g id="node43" class="node"><title>aquilon#104</title>
<g id="a_node43"><a xlink:href="https://github.com/quattor/aquilon/issues/104" xlink:title="aquilon#104 (issue)" target="_parent">
<path fill="#6cc644" stroke="black" d="M496.5,-1208C496.5,-1208 365.5,-1208 365.5,-1208 359.5,-1208 353.5,-1202 353.5,-1196 353.5,-1196 353.5,-1170 353.5,-1170 353.5,-1164 359.5,-1158 365.5,-1158 365.5,-1158 496.5,-1158 496.5,-1158 502.5,-1158 508.5,-1164 508.5,-1170 508.5,-1170 508.5,-1196 508.5,-1196 508.5,-1202 502.5,-1208 496.5,-1208"/>
<text text-anchor="middle" x="431" y="-1186" font-family="Sans" font-size="10.00">1.12.62: location related</text>
<text text-anchor="middle" x="431" y="-1175" font-family="Sans" font-size="10.00">templates cannot be used</text>
</a>
</g>
</g>
<!-- aquilon#110&#45;&gt;aquilon#104 -->
<g id="edge33" class="edge"><title>aquilon#110-&gt;aquilon#104</title>
<path fill="none" stroke="black" stroke-width="2" d="M213.63,-1159.57C255.122,-1164.06 303.101,-1169.26 343.32,-1173.61"/>
<polygon fill="black" stroke="black" points="343.05,-1177.11 353.369,-1174.7 343.804,-1170.15 343.05,-1177.11"/>
<text text-anchor="middle" x="271.634" y="-1159.15" font-family="Sans" font-size="10.00">fixes</text>
</g>
<!-- aquilon#91 -->
<g id="node44" class="node"><title>aquilon#91</title>
<g id="a_node44"><a xlink:href="https://github.com/quattor/aquilon/issues/91" xlink:title="aquilon#91 (issue)" target="_parent">
<path fill="#6cc644" stroke="black" d="M190.5,-1242C190.5,-1242 39.5,-1242 39.5,-1242 33.5,-1242 27.5,-1236 27.5,-1230 27.5,-1230 27.5,-1204 27.5,-1204 27.5,-1198 33.5,-1192 39.5,-1192 39.5,-1192 190.5,-1192 190.5,-1192 196.5,-1192 202.5,-1198 202.5,-1204 202.5,-1204 202.5,-1230 202.5,-1230 202.5,-1236 196.5,-1242 190.5,-1242"/>
<text text-anchor="middle" x="115" y="-1220" font-family="Sans" font-size="10.00">1.12.58: city timezone is not</text>
<text text-anchor="middle" x="115" y="-1209" font-family="Sans" font-size="10.00">passed to the object template</text>
</a>
</g>
</g>
<!-- aquilon#91&#45;&gt;aquilon#104 -->
<g id="edge34" class="edge"><title>aquilon#91-&gt;aquilon#104</title>
<path fill="none" stroke="black" stroke-dasharray="5,2" d="M202.633,-1207.62C246.42,-1202.88 299.413,-1197.14 343.22,-1192.4"/>
<polygon fill="none" stroke="black" points="343.716,-1195.86 353.281,-1191.31 342.962,-1188.9 343.716,-1195.86"/>
<text text-anchor="middle" x="258.022" y="-1191.46" font-family="Sans" font-size="10.00">requires</text>
</g>
<!-- aquilon#89 -->
<g id="node45" class="node"><title>aquilon#89</title>
<g id="a_node45"><a xlink:href="https://github.com/quattor/aquilon/pull/89" xlink:title="aquilon#89 (pull-request)" target="_parent">
<polygon fill="#6cc644" stroke="black" points="201.5,-1106 28.5,-1106 28.5,-1056 201.5,-1056 201.5,-1106"/>
<text text-anchor="middle" x="115" y="-1084" font-family="Sans" font-size="10.00">Broker: pass archetype to the</text>
<text text-anchor="middle" x="115" y="-1073" font-family="Sans" font-size="10.00">object profile</text>
</a>
</g>
</g>
<!-- aquilon#88 -->
<g id="node46" class="node"><title>aquilon#88</title>
<g id="a_node46"><a xlink:href="https://github.com/quattor/aquilon/issues/88" xlink:title="aquilon#88 (issue)" target="_parent">
<path fill="#6cc644" stroke="black" d="M510,-1117.5C510,-1117.5 352,-1117.5 352,-1117.5 346,-1117.5 340,-1111.5 340,-1105.5 340,-1105.5 340,-1068.5 340,-1068.5 340,-1062.5 346,-1056.5 352,-1056.5 352,-1056.5 510,-1056.5 510,-1056.5 516,-1056.5 522,-1062.5 522,-1068.5 522,-1068.5 522,-1105.5 522,-1105.5 522,-1111.5 516,-1117.5 510,-1117.5"/>
<text text-anchor="middle" x="431" y="-1095.5" font-family="Sans" font-size="10.00">1.12.58: the broker should pass</text>
<text text-anchor="middle" x="431" y="-1084.5" font-family="Sans" font-size="10.00">the archetype to the object</text>
<text text-anchor="middle" x="431" y="-1073.5" font-family="Sans" font-size="10.00">template</text>
</a>
</g>
</g>
<!-- aquilon#89&#45;&gt;aquilon#88 -->
<g id="edge35" class="edge"><title>aquilon#89-&gt;aquilon#88</title>
<path fill="none" stroke="black" stroke-width="2" d="M201.802,-1082.64C241.391,-1083.4 288.643,-1084.3 329.852,-1085.09"/>
<polygon fill="black" stroke="black" points="329.85,-1088.59 339.915,-1085.28 329.984,-1081.59 329.85,-1088.59"/>
<text text-anchor="middle" x="258.872" y="-1075.96" font-family="Sans" font-size="10.00">fixes</text>
</g>
</g>
</svg>
