<?xml version="1.0" encoding="UTF-8" standalone="no"?>
<?xml-stylesheet href="relationships.css" type="text/css"?>
<!-- Generated by graphviz version 2.26.0 (20091210.2329)
 -->
<!-- Title: Dependencies Pages: 1 -->
<svg xmlns="http://www.w3.org/2000/svg" xmlns:xlink="http://www.w3.org/1999/xlink" width="880pt" height="2226pt" viewBox="0.00 0.00 880.00 2226.00">
<g id="graph1" class="graph" transform="scale(1 1) rotate(0) translate(4 2222)">
<title>Dependencies</title>
<polygon fill="white" stroke="white" points="-4,5 -4,-2222 877,-2222 877,5 -4,5"/>
<g id="graph2" class="cluster"><title>cluster_17.10</title>
<polygon fill="none" stroke="black" points="302,-282 302,-470 864,-470 864,-282 302,-282"/>
<text text-anchor="middle" x="583" y="-455.2" font-family="Sans" font-size="12.00">17.10</text>
</g>
<g id="graph3" class="cluster"><title>cluster_17.8</title>
<polygon fill="none" stroke="black" points="24,-478 24,-1700 562,-1700 562,-478 24,-478"/>
<text text-anchor="middle" x="293" y="-1685.2" font-family="Sans" font-size="12.00">17.8</text>
</g>
<g id="graph5" class="cluster"><title>cluster_17.12</title>
<polygon fill="none" stroke="black" points="70,-1758 70,-1946 482,-1946 482,-1758 70,-1758"/>
<text text-anchor="middle" x="276" y="-1931.2" font-family="Sans" font-size="12.00">17.12</text>
</g>
<!-- aii#275 -->
<g id="node1" class="node"><title>aii#275</title>
<a xlink:href="https://github.com/quattor/aii/pull/275" xlink:title="remove aii-freeipa, deprecated by ncm-freeipa AII support" target="_parent">
<polygon fill="#6e5494" stroke="black" points="157,-1657 79,-1657 79,-1603 157,-1603 157,-1657"/>
<text text-anchor="middle" x="118" y="-1634" font-family="Sans" font-size="10.00">pull-request</text>
<text text-anchor="middle" x="118" y="-1621" font-family="Sans" font-size="10.00">aii#275</text>
</a>
</g>
<!-- aii#134 -->
<g id="node3" class="node"><title>aii#134</title>
<a xlink:href="https://github.com/quattor/aii/issues/134" xlink:title="Missing freeipa.pm in AII RPM" target="_parent">
<ellipse fill="#bd2c00" stroke="black" cx="432" cy="-1630" rx="41.2167" ry="38.1838"/>
<text text-anchor="middle" x="432" y="-1634" font-family="Sans" font-size="10.00">issue</text>
<text text-anchor="middle" x="432" y="-1621" font-family="Sans" font-size="10.00">aii#134</text>
</a>
</g>
<!-- aii#275&#45;&gt;aii#134 -->
<g id="edge2" class="edge"><title>aii#275-&gt;aii#134</title>
<path fill="none" stroke="black" stroke-width="2" d="M157.571,-1628.9C184.705,-1628.2 221.529,-1627.36 254,-1627 296.474,-1626.53 344.645,-1627.43 380.154,-1628.36"/>
<polygon fill="black" stroke="black" points="380.191,-1631.87 390.282,-1628.64 380.381,-1624.87 380.191,-1631.87"/>
<text text-anchor="middle" x="273" y="-1631" font-family="Sans" font-size="10.00">fixes</text>
</g>
<!-- aii#210 -->
<g id="node4" class="node"><title>aii#210</title>
<a xlink:href="https://github.com/quattor/aii/pull/210" xlink:title="Shellfe: support active config for plugins" target="_parent">
<polygon fill="#6cc644" stroke="black" points="157,-1820 79,-1820 79,-1766 157,-1766 157,-1820"/>
<text text-anchor="middle" x="118" y="-1797" font-family="Sans" font-size="10.00">pull-request</text>
<text text-anchor="middle" x="118" y="-1784" font-family="Sans" font-size="10.00">aii#210</text>
</a>
</g>
<!-- aii#209 -->
<g id="node6" class="node"><title>aii#209</title>
<a xlink:href="https://github.com/quattor/aii/issues/209" xlink:title="support ACTIVE_CONFIG" target="_parent">
<ellipse fill="#6cc644" stroke="black" cx="432" cy="-1876" rx="41.2167" ry="38.1838"/>
<text text-anchor="middle" x="432" y="-1880" font-family="Sans" font-size="10.00">issue</text>
<text text-anchor="middle" x="432" y="-1867" font-family="Sans" font-size="10.00">aii#209</text>
</a>
</g>
<!-- aii#210&#45;&gt;aii#209 -->
<g id="edge4" class="edge"><title>aii#210-&gt;aii#209</title>
<path fill="none" stroke="black" stroke-width="2" d="M157.609,-1803.38C180.517,-1809.39 209.889,-1817.11 236,-1824 285.736,-1837.13 342.549,-1852.21 382.158,-1862.74"/>
<polygon fill="black" stroke="black" points="381.278,-1866.13 391.842,-1865.32 383.077,-1859.36 381.278,-1866.13"/>
<text text-anchor="middle" x="273" y="-1843" font-family="Sans" font-size="10.00">fixes</text>
</g>
<!-- ncm&#45;ncd#74 -->
<g id="node8" class="node"><title>ncm-ncd#74</title>
<a xlink:href="https://github.com/quattor/ncm-ncd/pull/74" xlink:title="Set the current active config as an attribute to the component" target="_parent">
<polygon fill="#6cc644" stroke="black" points="473,-1820 391,-1820 391,-1766 473,-1766 473,-1820"/>
<text text-anchor="middle" x="432" y="-1797" font-family="Sans" font-size="10.00">pull-request</text>
<text text-anchor="middle" x="432" y="-1784" font-family="Sans" font-size="10.00">ncm-ncd#74</text>
</a>
</g>
<!-- aii#210&#45;&gt;ncm&#45;ncd#74 -->
<g id="edge6" class="edge"><title>aii#210-&gt;ncm-ncd#74</title>
<path fill="none" stroke="black" stroke-dasharray="5,2" d="M157.768,-1793C214.435,-1793 318.442,-1793 380.801,-1793"/>
<polygon fill="none" stroke="black" points="380.813,-1796.5 390.813,-1793 380.813,-1789.5 380.813,-1796.5"/>
<text text-anchor="middle" x="273" y="-1797" font-family="Sans" font-size="10.00">requires</text>
</g>
<!-- aii#203 -->
<g id="node10" class="node"><title>aii#203</title>
<polygon fill="lightgrey" stroke="black" points="461,-1748.5 403,-1748.5 403,-1707.5 461,-1707.5 461,-1748.5"/>
<text text-anchor="middle" x="432" y="-1725.5" font-family="Sans" font-size="10.00">aii#203</text>
</g>
<!-- aii#210&#45;&gt;aii#203 -->
<g id="edge8" class="edge"><title>aii#210-&gt;aii#203</title>
<path fill="none" stroke="black" stroke-dasharray="5,2" d="M157.813,-1784.42C195.063,-1776.43 252.267,-1764.24 302,-1754 332.215,-1747.78 366.427,-1740.94 392.168,-1735.84"/>
<polygon fill="none" stroke="black" points="393.162,-1739.21 402.292,-1733.84 391.803,-1732.35 393.162,-1739.21"/>
<text text-anchor="middle" x="273" y="-1768" font-family="Sans" font-size="10.00">requires</text>
</g>
<!-- configuration&#45;modules&#45;core#1169 -->
<g id="node11" class="node"><title>configuration-modules-core#1169</title>
<a xlink:href="https://github.com/quattor/configuration-modules-core/pull/1169" xlink:title="ncm-accounts: is_user_or_group function can be used without component" target="_parent">
<polygon fill="#6e5494" stroke="black" points="204,-1563 32,-1563 32,-1509 204,-1509 204,-1563"/>
<text text-anchor="middle" x="118" y="-1540" font-family="Sans" font-size="10.00">pull-request</text>
<text text-anchor="middle" x="118" y="-1527" font-family="Sans" font-size="10.00">configuration-modules-core#1169</text>
</a>
</g>
<!-- configuration&#45;modules&#45;core#1166 -->
<g id="node13" class="node"><title>configuration-modules-core#1166</title>
<a xlink:href="https://github.com/quattor/configuration-modules-core/issues/1166" xlink:title="ncm-systemd: schema depends on components/accounts/functions" target="_parent">
<ellipse fill="#bd2c00" stroke="black" cx="432" cy="-1536" rx="121.122" ry="38.1838"/>
<text text-anchor="middle" x="432" y="-1540" font-family="Sans" font-size="10.00">issue</text>
<text text-anchor="middle" x="432" y="-1527" font-family="Sans" font-size="10.00">configuration-modules-core#1166</text>
</a>
</g>
<!-- configuration&#45;modules&#45;core#1169&#45;&gt;configuration&#45;modules&#45;core#1166 -->
<g id="edge10" class="edge"><title>configuration-modules-core#1169-&gt;configuration-modules-core#1166</title>
<path fill="none" stroke="black" stroke-width="2" d="M204.217,-1536C233.916,-1536 267.888,-1536 300.372,-1536"/>
<polygon fill="black" stroke="black" points="300.399,-1539.5 310.399,-1536 300.399,-1532.5 300.399,-1539.5"/>
<text text-anchor="middle" x="273" y="-1540" font-family="Sans" font-size="10.00">fixes</text>
</g>
<!-- configuration&#45;modules&#45;core#1167 -->
<g id="node14" class="node"><title>configuration-modules-core#1167</title>
<a xlink:href="https://github.com/quattor/configuration-modules-core/pull/1167" xlink:title="ncm-cups: fix compatibility with EL7" target="_parent">
<polygon fill="#6e5494" stroke="black" points="204,-756 32,-756 32,-702 204,-702 204,-756"/>
<text text-anchor="middle" x="118" y="-733" font-family="Sans" font-size="10.00">pull-request</text>
<text text-anchor="middle" x="118" y="-720" font-family="Sans" font-size="10.00">configuration-modules-core#1167</text>
</a>
</g>
<!-- configuration&#45;modules&#45;core#1161 -->
<g id="node16" class="node"><title>configuration-modules-core#1161</title>
<a xlink:href="https://github.com/quattor/configuration-modules-core/issues/1161" xlink:title="ncm-cups 17.7.0 broken on EL7 (pre-EL7 chkconfig dependency)" target="_parent">
<ellipse fill="#bd2c00" stroke="black" cx="432" cy="-400" rx="121.122" ry="38.1838"/>
<text text-anchor="middle" x="432" y="-404" font-family="Sans" font-size="10.00">issue</text>
<text text-anchor="middle" x="432" y="-391" font-family="Sans" font-size="10.00">configuration-modules-core#1161</text>
</a>
</g>
<!-- configuration&#45;modules&#45;core#1167&#45;&gt;configuration&#45;modules&#45;core#1161 -->
<g id="edge12" class="edge"><title>configuration-modules-core#1167-&gt;configuration-modules-core#1161</title>
<path fill="none" stroke="black" stroke-width="2" d="M204.031,-715.583C216.194,-710.3 227.447,-703.018 236,-693 273.587,-648.974 236.104,-619.053 254,-564 268.015,-520.887 270.389,-506.494 302,-474 316.395,-459.203 334.385,-446.46 352.349,-435.923"/>
<polygon fill="black" stroke="black" points="354.181,-438.908 361.15,-430.928 350.726,-432.82 354.181,-438.908"/>
<text text-anchor="middle" x="273" y="-568" font-family="Sans" font-size="10.00">fixes</text>
</g>
<!-- configuration&#45;modules&#45;core#1163 -->
<g id="node17" class="node"><title>configuration-modules-core#1163</title>
<a xlink:href="https://github.com/quattor/configuration-modules-core/pull/1163" xlink:title="ncm-directoryservices: remove unsupported component" target="_parent">
<polygon fill="#6cc644" stroke="black" points="204,-1469 32,-1469 32,-1415 204,-1415 204,-1469"/>
<text text-anchor="middle" x="118" y="-1446" font-family="Sans" font-size="10.00">pull-request</text>
<text text-anchor="middle" x="118" y="-1433" font-family="Sans" font-size="10.00">configuration-modules-core#1163</text>
</a>
</g>
<!-- configuration&#45;modules&#45;core#1052 -->
<g id="node19" class="node"><title>configuration-modules-core#1052</title>
<a xlink:href="https://github.com/quattor/configuration-modules-core/issues/1052" xlink:title="ncm-directoryservices: Archive and remove from repository" target="_parent">
<ellipse fill="#6cc644" stroke="black" cx="432" cy="-1442" rx="121.122" ry="38.1838"/>
<text text-anchor="middle" x="432" y="-1446" font-family="Sans" font-size="10.00">issue</text>
<text text-anchor="middle" x="432" y="-1433" font-family="Sans" font-size="10.00">configuration-modules-core#1052</text>
</a>
</g>
<!-- configuration&#45;modules&#45;core#1163&#45;&gt;configuration&#45;modules&#45;core#1052 -->
<g id="edge14" class="edge"><title>configuration-modules-core#1163-&gt;configuration-modules-core#1052</title>
<path fill="none" stroke="black" stroke-width="2" d="M204.217,-1442C233.916,-1442 267.888,-1442 300.372,-1442"/>
<polygon fill="black" stroke="black" points="300.399,-1445.5 310.399,-1442 300.399,-1438.5 300.399,-1445.5"/>
<text text-anchor="middle" x="273" y="-1446" font-family="Sans" font-size="10.00">fixes</text>
</g>
<!-- configuration&#45;modules&#45;core#1162 -->
<g id="node20" class="node"><title>configuration-modules-core#1162</title>
<a xlink:href="https://github.com/quattor/configuration-modules-core/pull/1162" xlink:title="ncm-mcx: remove unsupported component" target="_parent">
<polygon fill="#6e5494" stroke="black" points="204,-1375 32,-1375 32,-1321 204,-1321 204,-1375"/>
<text text-anchor="middle" x="118" y="-1352" font-family="Sans" font-size="10.00">pull-request</text>
<text text-anchor="middle" x="118" y="-1339" font-family="Sans" font-size="10.00">configuration-modules-core#1162</text>
</a>
</g>
<!-- configuration&#45;modules&#45;core#1054 -->
<g id="node22" class="node"><title>configuration-modules-core#1054</title>
<a xlink:href="https://github.com/quattor/configuration-modules-core/issues/1054" xlink:title="ncm-mcx: Archive and remove from repository" target="_parent">
<ellipse fill="#bd2c00" stroke="black" cx="432" cy="-1348" rx="121.122" ry="38.1838"/>
<text text-anchor="middle" x="432" y="-1352" font-family="Sans" font-size="10.00">issue</text>
<text text-anchor="middle" x="432" y="-1339" font-family="Sans" font-size="10.00">configuration-modules-core#1054</text>
</a>
</g>
<!-- configuration&#45;modules&#45;core#1162&#45;&gt;configuration&#45;modules&#45;core#1054 -->
<g id="edge16" class="edge"><title>configuration-modules-core#1162-&gt;configuration-modules-core#1054</title>
<path fill="none" stroke="black" stroke-width="2" d="M204.217,-1348C233.916,-1348 267.888,-1348 300.372,-1348"/>
<polygon fill="black" stroke="black" points="300.399,-1351.5 310.399,-1348 300.399,-1344.5 300.399,-1351.5"/>
<text text-anchor="middle" x="273" y="-1352" font-family="Sans" font-size="10.00">fixes</text>
</g>
<!-- configuration&#45;modules&#45;core#1159 -->
<g id="node23" class="node"><title>configuration-modules-core#1159</title>
<a xlink:href="https://github.com/quattor/configuration-modules-core/pull/1159" xlink:title="ncm-authconfig: Remove deprecated startstop property" target="_parent">
<polygon fill="#6e5494" stroke="black" points="204,-1220 32,-1220 32,-1166 204,-1166 204,-1220"/>
<text text-anchor="middle" x="118" y="-1197" font-family="Sans" font-size="10.00">pull-request</text>
<text text-anchor="middle" x="118" y="-1184" font-family="Sans" font-size="10.00">configuration-modules-core#1159</text>
</a>
</g>
<!-- configuration&#45;modules&#45;core#1145 -->
<g id="node25" class="node"><title>configuration-modules-core#1145</title>
<a xlink:href="https://github.com/quattor/configuration-modules-core/issues/1145" xlink:title="ncm-authconfig: Remove startstop property" target="_parent">
<ellipse fill="#bd2c00" stroke="black" cx="432" cy="-1160" rx="121.122" ry="38.1838"/>
<text text-anchor="middle" x="432" y="-1164" font-family="Sans" font-size="10.00">issue</text>
<text text-anchor="middle" x="432" y="-1151" font-family="Sans" font-size="10.00">configuration-modules-core#1145</text>
</a>
</g>
<!-- configuration&#45;modules&#45;core#1159&#45;&gt;configuration&#45;modules&#45;core#1145 -->
<g id="edge18" class="edge"><title>configuration-modules-core#1159-&gt;configuration-modules-core#1145</title>
<path fill="none" stroke="black" stroke-width="2" d="M204.217,-1183.94C235.779,-1180.62 272.167,-1176.8 306.466,-1173.19"/>
<polygon fill="black" stroke="black" points="306.976,-1176.66 316.556,-1172.13 306.245,-1169.7 306.976,-1176.66"/>
<text text-anchor="middle" x="273" y="-1183" font-family="Sans" font-size="10.00">fixes</text>
</g>
<!-- configuration&#45;modules&#45;core#1143 -->
<g id="node27" class="node"><title>configuration-modules-core#1143</title>
<a xlink:href="https://github.com/quattor/configuration-modules-core/issues/1143" xlink:title="ncm-authconfig: What is startstop supposed to do?" target="_parent">
<ellipse fill="#bd2c00" stroke="black" cx="432" cy="-1254" rx="121.122" ry="38.1838"/>
<text text-anchor="middle" x="432" y="-1258" font-family="Sans" font-size="10.00">issue</text>
<text text-anchor="middle" x="432" y="-1245" font-family="Sans" font-size="10.00">configuration-modules-core#1143</text>
</a>
</g>
<!-- configuration&#45;modules&#45;core#1159&#45;&gt;configuration&#45;modules&#45;core#1143 -->
<g id="edge20" class="edge"><title>configuration-modules-core#1159-&gt;configuration-modules-core#1143</title>
<path fill="none" stroke="black" stroke-width="2" d="M204.217,-1209.75C239.55,-1216.61 280.931,-1224.65 318.659,-1231.98"/>
<polygon fill="black" stroke="black" points="318.194,-1235.46 328.678,-1233.93 319.529,-1228.59 318.194,-1235.46"/>
<text text-anchor="middle" x="273" y="-1230" font-family="Sans" font-size="10.00">fixes</text>
</g>
<!-- configuration&#45;modules&#45;core#1151 -->
<g id="node28" class="node"><title>configuration-modules-core#1151</title>
<a xlink:href="https://github.com/quattor/configuration-modules-core/pull/1151" xlink:title="Escape / unescape functions from CCM::Path" target="_parent">
<polygon fill="#6e5494" stroke="black" points="204,-1116 32,-1116 32,-1062 204,-1062 204,-1116"/>
<text text-anchor="middle" x="118" y="-1093" font-family="Sans" font-size="10.00">pull-request</text>
<text text-anchor="middle" x="118" y="-1080" font-family="Sans" font-size="10.00">configuration-modules-core#1151</text>
</a>
</g>
<!-- configuration&#45;modules&#45;core#1083 -->
<g id="node30" class="node"><title>configuration-modules-core#1083</title>
<a xlink:href="https://github.com/quattor/configuration-modules-core/issues/1083" xlink:title="warnings due to deprecated CCM modules" target="_parent">
<ellipse fill="#bd2c00" stroke="black" cx="432" cy="-1066" rx="121.122" ry="38.1838"/>
<text text-anchor="middle" x="432" y="-1070" font-family="Sans" font-size="10.00">issue</text>
<text text-anchor="middle" x="432" y="-1057" font-family="Sans" font-size="10.00">configuration-modules-core#1083</text>
</a>
</g>
<!-- configuration&#45;modules&#45;core#1151&#45;&gt;configuration&#45;modules&#45;core#1083 -->
<g id="edge22" class="edge"><title>configuration-modules-core#1151-&gt;configuration-modules-core#1083</title>
<path fill="none" stroke="black" stroke-width="2" d="M204.217,-1082.68C234.821,-1080.44 269.962,-1077.87 303.337,-1075.42"/>
<polygon fill="black" stroke="black" points="303.913,-1078.89 313.631,-1074.67 303.402,-1071.91 303.913,-1078.89"/>
<text text-anchor="middle" x="273" y="-1083" font-family="Sans" font-size="10.00">fixes</text>
</g>
<!-- configuration&#45;modules&#45;core#1149 -->
<g id="node31" class="node"><title>configuration-modules-core#1149</title>
<a xlink:href="https://github.com/quattor/configuration-modules-core/pull/1149" xlink:title="ncm-metaconfig: rsyslog: rainer script configuration" target="_parent">
<polygon fill="#6cc644" stroke="black" points="204,-1044 32,-1044 32,-990 204,-990 204,-1044"/>
<text text-anchor="middle" x="118" y="-1021" font-family="Sans" font-size="10.00">pull-request</text>
<text text-anchor="middle" x="118" y="-1008" font-family="Sans" font-size="10.00">configuration-modules-core#1149</text>
</a>
</g>
<!-- configuration&#45;modules&#45;core#1126 -->
<g id="node33" class="node"><title>configuration-modules-core#1126</title>
<a xlink:href="https://github.com/quattor/configuration-modules-core/pull/1126" xlink:title="ncm-metaconfig: cleanup and switch to 00-tqu" target="_parent">
<polygon fill="#6cc644" stroke="black" points="518,-1010 346,-1010 346,-956 518,-956 518,-1010"/>
<text text-anchor="middle" x="432" y="-987" font-family="Sans" font-size="10.00">pull-request</text>
<text text-anchor="middle" x="432" y="-974" font-family="Sans" font-size="10.00">configuration-modules-core#1126</text>
</a>
</g>
<!-- configuration&#45;modules&#45;core#1149&#45;&gt;configuration&#45;modules&#45;core#1126 -->
<g id="edge24" class="edge"><title>configuration-modules-core#1149-&gt;configuration-modules-core#1126</title>
<path fill="none" stroke="black" stroke-dasharray="5,2" d="M204.217,-1007.66C245.061,-1003.24 293.988,-997.944 336.009,-993.394"/>
<polygon fill="none" stroke="black" points="336.41,-996.871 345.975,-992.315 335.656,-989.912 336.41,-996.871"/>
<text text-anchor="middle" x="273" y="-1007" font-family="Sans" font-size="10.00">requires</text>
</g>
<!-- configuration&#45;modules&#45;core#1136 -->
<g id="node34" class="node"><title>configuration-modules-core#1136</title>
<a xlink:href="https://github.com/quattor/configuration-modules-core/pull/1136" xlink:title="ncm-gmond: cleanup and support new configuration options" target="_parent">
<polygon fill="#6e5494" stroke="black" points="204,-972 32,-972 32,-918 204,-918 204,-972"/>
<text text-anchor="middle" x="118" y="-949" font-family="Sans" font-size="10.00">pull-request</text>
<text text-anchor="middle" x="118" y="-936" font-family="Sans" font-size="10.00">configuration-modules-core#1136</text>
</a>
</g>
<!-- configuration&#45;modules&#45;core#1116 -->
<g id="node36" class="node"><title>configuration-modules-core#1116</title>
<a xlink:href="https://github.com/quattor/configuration-modules-core/issues/1116" xlink:title="ncm-gmond: configuration options missing from schema" target="_parent">
<ellipse fill="#bd2c00" stroke="black" cx="432" cy="-900" rx="121.122" ry="38.1838"/>
<text text-anchor="middle" x="432" y="-904" font-family="Sans" font-size="10.00">issue</text>
<text text-anchor="middle" x="432" y="-891" font-family="Sans" font-size="10.00">configuration-modules-core#1116</text>
</a>
</g>
<!-- configuration&#45;modules&#45;core#1136&#45;&gt;configuration&#45;modules&#45;core#1116 -->
<g id="edge26" class="edge"><title>configuration-modules-core#1136-&gt;configuration-modules-core#1116</title>
<path fill="none" stroke="black" stroke-width="2" d="M204.217,-932.644C237.325,-927.899 275.744,-922.393 311.491,-917.27"/>
<polygon fill="black" stroke="black" points="312.094,-920.72 321.496,-915.837 311.1,-913.791 312.094,-920.72"/>
<text text-anchor="middle" x="273" y="-930" font-family="Sans" font-size="10.00">fixes</text>
</g>
<!-- configuration&#45;modules&#45;core#1132 -->
<g id="node37" class="node"><title>configuration-modules-core#1132</title>
<a xlink:href="https://github.com/quattor/configuration-modules-core/pull/1132" xlink:title="ncm-metaconfig: hnormalise" target="_parent">
<polygon fill="#6cc644" stroke="black" points="204,-612 32,-612 32,-558 204,-558 204,-612"/>
<text text-anchor="middle" x="118" y="-589" font-family="Sans" font-size="10.00">pull-request</text>
<text text-anchor="middle" x="118" y="-576" font-family="Sans" font-size="10.00">configuration-modules-core#1132</text>
</a>
</g>
<!-- configuration&#45;modules&#45;core#1028 -->
<g id="node39" class="node"><title>configuration-modules-core#1028</title>
<polygon fill="lightgrey" stroke="black" points="518,-98.5 346,-98.5 346,-57.5 518,-57.5 518,-98.5"/>
<text text-anchor="middle" x="432" y="-75.5" font-family="Sans" font-size="10.00">configuration-modules-core#1028</text>
</g>
<!-- configuration&#45;modules&#45;core#1132&#45;&gt;configuration&#45;modules&#45;core#1028 -->
<g id="edge28" class="edge"><title>configuration-modules-core#1132-&gt;configuration-modules-core#1028</title>
<path fill="none" stroke="black" stroke-dasharray="5,2" d="M204.019,-572.68C216.421,-567.285 227.754,-559.681 236,-549 266.443,-509.566 220.363,-137.748 254,-101 274.509,-78.5944 305.208,-69.9173 335.363,-67.7622"/>
<polygon fill="none" stroke="black" points="335.734,-71.2485 345.553,-67.2709 335.396,-64.2566 335.734,-71.2485"/>
<text text-anchor="middle" x="273" y="-105" font-family="Sans" font-size="10.00">requires</text>
</g>
<!-- configuration&#45;modules&#45;core#1124 -->
<g id="node40" class="node"><title>configuration-modules-core#1124</title>
<a xlink:href="https://github.com/quattor/configuration-modules-core/pull/1124" xlink:title="ncm-cron: cleanup and switch to 00-tqu" target="_parent">
<polygon fill="#6e5494" stroke="black" points="204,-684 32,-684 32,-630 204,-630 204,-684"/>
<text text-anchor="middle" x="118" y="-661" font-family="Sans" font-size="10.00">pull-request</text>
<text text-anchor="middle" x="118" y="-648" font-family="Sans" font-size="10.00">configuration-modules-core#1124</text>
</a>
</g>
<!-- CAF#230 -->
<g id="node42" class="node"><title>CAF#230</title>
<polygon fill="lightgrey" stroke="black" points="467,-156.5 397,-156.5 397,-115.5 467,-115.5 467,-156.5"/>
<text text-anchor="middle" x="432" y="-133.5" font-family="Sans" font-size="10.00">CAF#230</text>
</g>
<!-- configuration&#45;modules&#45;core#1124&#45;&gt;CAF#230 -->
<g id="edge30" class="edge"><title>configuration-modules-core#1124-&gt;CAF#230</title>
<path fill="none" stroke="black" stroke-dasharray="5,2" d="M204.046,-644.701C216.445,-639.304 227.77,-631.693 236,-621 268.821,-578.353 215.351,-174.448 254,-137 288.475,-103.596 346.649,-110.362 387.069,-120.847"/>
<polygon fill="none" stroke="black" points="386.366,-124.284 396.937,-123.571 388.229,-117.537 386.366,-124.284"/>
<text text-anchor="middle" x="273" y="-141" font-family="Sans" font-size="10.00">requires</text>
</g>
<!-- configuration&#45;modules&#45;core#1119 -->
<g id="node43" class="node"><title>configuration-modules-core#1119</title>
<a xlink:href="https://github.com/quattor/configuration-modules-core/pull/1119" xlink:title="ncm-systemd: cleanup, restarting modified unitfiles and initial handling of unconfigured units" target="_parent">
<polygon fill="#6cc644" stroke="black" points="518,-344 346,-344 346,-290 518,-290 518,-344"/>
<text text-anchor="middle" x="432" y="-321" font-family="Sans" font-size="10.00">pull-request</text>
<text text-anchor="middle" x="432" y="-308" font-family="Sans" font-size="10.00">configuration-modules-core#1119</text>
</a>
</g>
<!-- configuration&#45;modules&#45;core#1095 -->
<g id="node45" class="node"><title>configuration-modules-core#1095</title>
<a xlink:href="https://github.com/quattor/configuration-modules-core/issues/1095" xlink:title="Manual intervention required in order for drop-in unit files to have any affect" target="_parent">
<ellipse fill="#6cc644" stroke="black" cx="734" cy="-328" rx="121.122" ry="38.1838"/>
<text text-anchor="middle" x="734" y="-332" font-family="Sans" font-size="10.00">issue</text>
<text text-anchor="middle" x="734" y="-319" font-family="Sans" font-size="10.00">configuration-modules-core#1095</text>
</a>
</g>
<!-- configuration&#45;modules&#45;core#1119&#45;&gt;configuration&#45;modules&#45;core#1095 -->
<g id="edge32" class="edge"><title>configuration-modules-core#1119-&gt;configuration-modules-core#1095</title>
<path fill="none" stroke="black" stroke-width="2" d="M518.137,-320.137C544.571,-321.1 574.28,-322.182 603.005,-323.229"/>
<polygon fill="black" stroke="black" points="602.997,-326.731 613.118,-323.597 603.252,-319.735 602.997,-326.731"/>
<text text-anchor="middle" x="583" y="-327" font-family="Sans" font-size="10.00">fixes</text>
</g>
<!-- configuration&#45;modules&#45;core#1087 -->
<g id="node46" class="node"><title>configuration-modules-core#1087</title>
<a xlink:href="https://github.com/quattor/configuration-modules-core/pull/1087" xlink:title="ncm-network: cleanup, fixes and new features" target="_parent">
<polygon fill="#6cc644" stroke="black" points="204,-828 32,-828 32,-774 204,-774 204,-828"/>
<text text-anchor="middle" x="118" y="-805" font-family="Sans" font-size="10.00">pull-request</text>
<text text-anchor="middle" x="118" y="-792" font-family="Sans" font-size="10.00">configuration-modules-core#1087</text>
</a>
</g>
<!-- configuration&#45;modules&#45;core#1087&#45;&gt;CAF#230 -->
<g id="edge44" class="edge"><title>configuration-modules-core#1087-&gt;CAF#230</title>
<path fill="none" stroke="black" stroke-dasharray="5,2" d="M204.087,-788.733C216.481,-783.332 227.795,-775.712 236,-765 273.249,-716.372 229.928,-270.327 254,-214 275.527,-163.63 341.341,-145.777 386.611,-139.456"/>
<polygon fill="none" stroke="black" points="387.299,-142.897 396.785,-138.178 386.427,-135.951 387.299,-142.897"/>
<text text-anchor="middle" x="273" y="-218" font-family="Sans" font-size="10.00">requires</text>
</g>
<!-- configuration&#45;modules&#45;core#1082 -->
<g id="node48" class="node"><title>configuration-modules-core#1082</title>
<a xlink:href="https://github.com/quattor/configuration-modules-core/issues/1082" xlink:title="ncm-network: Allow extra routing options for the default route" target="_parent">
<ellipse fill="#6cc644" stroke="black" cx="432" cy="-524" rx="121.122" ry="38.1838"/>
<text text-anchor="middle" x="432" y="-528" font-family="Sans" font-size="10.00">issue</text>
<text text-anchor="middle" x="432" y="-515" font-family="Sans" font-size="10.00">configuration-modules-core#1082</text>
</a>
</g>
<!-- configuration&#45;modules&#45;core#1087&#45;&gt;configuration&#45;modules&#45;core#1082 -->
<g id="edge34" class="edge"><title>configuration-modules-core#1087-&gt;configuration-modules-core#1082</title>
<path fill="none" stroke="black" stroke-width="2" d="M204.086,-787.245C216.166,-781.999 227.378,-774.817 236,-765 267.822,-728.766 238.127,-703.536 254,-658 268.536,-616.3 268.417,-599.678 302,-571 310.174,-564.02 319.467,-558.043 329.238,-552.933"/>
<polygon fill="black" stroke="black" points="330.887,-556.023 338.327,-548.48 327.807,-549.737 330.887,-556.023"/>
<text text-anchor="middle" x="273" y="-662" font-family="Sans" font-size="10.00">fixes</text>
</g>
<!-- configuration&#45;modules&#45;core#870 -->
<g id="node50" class="node"><title>configuration-modules-core#870</title>
<a xlink:href="https://github.com/quattor/configuration-modules-core/issues/870" xlink:title="ncm-network: hostname is not set in el7" target="_parent">
<ellipse fill="#6cc644" stroke="black" cx="432" cy="-618" rx="118.087" ry="38.1838"/>
<text text-anchor="middle" x="432" y="-622" font-family="Sans" font-size="10.00">issue</text>
<text text-anchor="middle" x="432" y="-609" font-family="Sans" font-size="10.00">configuration-modules-core#870</text>
</a>
</g>
<!-- configuration&#45;modules&#45;core#1087&#45;&gt;configuration&#45;modules&#45;core#870 -->
<g id="edge36" class="edge"><title>configuration-modules-core#1087-&gt;configuration-modules-core#870</title>
<path fill="none" stroke="black" stroke-width="2" d="M204.018,-782.667C215.409,-778.031 226.436,-772.238 236,-765 247.797,-756.073 245.897,-749.377 254,-737 275.066,-704.823 271.732,-688.727 302,-665 310.984,-657.957 321.118,-651.909 331.664,-646.729"/>
<polygon fill="black" stroke="black" points="333.415,-649.775 341.019,-642.397 330.474,-643.423 333.415,-649.775"/>
<text text-anchor="middle" x="273" y="-741" font-family="Sans" font-size="10.00">fixes</text>
</g>
<!-- configuration&#45;modules&#45;core#1109 -->
<g id="node52" class="node"><title>configuration-modules-core#1109</title>
<a xlink:href="https://github.com/quattor/configuration-modules-core/issues/1109" xlink:title="ncm-network: systemd rpm scripts remove HOSTNAME from /etc/sysconfig/network" target="_parent">
<ellipse fill="#6cc644" stroke="black" cx="432" cy="-712" rx="121.122" ry="38.1838"/>
<text text-anchor="middle" x="432" y="-716" font-family="Sans" font-size="10.00">issue</text>
<text text-anchor="middle" x="432" y="-703" font-family="Sans" font-size="10.00">configuration-modules-core#1109</text>
</a>
</g>
<!-- configuration&#45;modules&#45;core#1087&#45;&gt;configuration&#45;modules&#45;core#1109 -->
<g id="edge38" class="edge"><title>configuration-modules-core#1087-&gt;configuration-modules-core#1109</title>
<path fill="none" stroke="black" stroke-width="2" d="M204.217,-776.563C243.8,-765.343 290.975,-751.972 332.099,-740.316"/>
<polygon fill="black" stroke="black" points="333.2,-743.642 341.866,-737.547 331.291,-736.907 333.2,-743.642"/>
<text text-anchor="middle" x="273" y="-766" font-family="Sans" font-size="10.00">fixes</text>
</g>
<!-- configuration&#45;modules&#45;core#1085 -->
<g id="node54" class="node"><title>configuration-modules-core#1085</title>
<polygon fill="lightgrey" stroke="black" points="518,-272.5 346,-272.5 346,-231.5 518,-231.5 518,-272.5"/>
<text text-anchor="middle" x="432" y="-249.5" font-family="Sans" font-size="10.00">configuration-modules-core#1085</text>
</g>
<!-- configuration&#45;modules&#45;core#1087&#45;&gt;configuration&#45;modules&#45;core#1085 -->
<g id="edge40" class="edge"><title>configuration-modules-core#1087-&gt;configuration-modules-core#1085</title>
<path fill="none" stroke="black" stroke-dasharray="1,5" d="M204.129,-788.408C216.438,-783.038 227.712,-775.512 236,-765 256.468,-739.037 248.929,-500.669 254,-468 267.359,-381.933 238.891,-338.027 302,-278 311.569,-268.899 323.378,-262.571 335.943,-258.231"/>
<polygon fill="black" stroke="black" points="345.675,-255.286 337.407,-262.49 340.889,-256.735 336.103,-258.183 336.103,-258.183 336.103,-258.183 340.889,-256.735 334.8,-253.876 345.675,-255.286 345.675,-255.286"/>
<text text-anchor="middle" x="273" y="-472" font-family="Sans" font-size="10.00">replaces</text>
</g>
<!-- configuration&#45;modules&#45;core#1070 -->
<g id="node56" class="node"><title>configuration-modules-core#1070</title>
<polygon fill="lightgrey" stroke="black" points="518,-214.5 346,-214.5 346,-173.5 518,-173.5 518,-214.5"/>
<text text-anchor="middle" x="432" y="-191.5" font-family="Sans" font-size="10.00">configuration-modules-core#1070</text>
</g>
<!-- configuration&#45;modules&#45;core#1087&#45;&gt;configuration&#45;modules&#45;core#1070 -->
<g id="edge42" class="edge"><title>configuration-modules-core#1087-&gt;configuration-modules-core#1070</title>
<path fill="none" stroke="black" stroke-dasharray="1,5" d="M204.052,-788.706C216.45,-783.308 227.774,-775.696 236,-765 269.416,-721.549 232.362,-322.363 254,-272 268.304,-238.706 301.937,-219.619 336.162,-208.679"/>
<polygon fill="black" stroke="black" points="345.815,-205.804 337.515,-212.971 341.023,-207.231 336.231,-208.658 336.231,-208.658 336.231,-208.658 341.023,-207.231 334.947,-204.345 345.815,-205.804 345.815,-205.804"/>
<text text-anchor="middle" x="273" y="-276" font-family="Sans" font-size="10.00">replaces</text>
</g>
<!-- configuration&#45;modules&#45;core#1058 -->
<g id="node58" class="node"><title>configuration-modules-core#1058</title>
<a xlink:href="https://github.com/quattor/configuration-modules-core/pull/1058" xlink:title="ncm-ssh: disable insecure ssh ciphersuites and macs" target="_parent">
<polygon fill="#6cc644" stroke="black" points="204,-540 32,-540 32,-486 204,-486 204,-540"/>
<text text-anchor="middle" x="118" y="-517" font-family="Sans" font-size="10.00">pull-request</text>
<text text-anchor="middle" x="118" y="-504" font-family="Sans" font-size="10.00">configuration-modules-core#1058</text>
</a>
</g>
<!-- configuration&#45;modules&#45;core#983 -->
<g id="node60" class="node"><title>configuration-modules-core#983</title>
<polygon fill="lightgrey" stroke="black" points="515,-40.5 349,-40.5 349,0.5 515,0.5 515,-40.5"/>
<text text-anchor="middle" x="432" y="-17.5" font-family="Sans" font-size="10.00">configuration-modules-core#983</text>
</g>
<!-- configuration&#45;modules&#45;core#1058&#45;&gt;configuration&#45;modules&#45;core#983 -->
<g id="edge46" class="edge"><title>configuration-modules-core#1058-&gt;configuration-modules-core#983</title>
<path fill="none" stroke="black" stroke-dasharray="1,5" d="M121.917,-485.906C135.643,-394.903 184.518,-102.579 254,-43 277.058,-23.2281 308.366,-15.1789 338.296,-12.7917"/>
<polygon fill="black" stroke="black" points="348.38,-12.1904 338.665,-17.2777 343.389,-12.4881 338.398,-12.7857 338.398,-12.7857 338.398,-12.7857 343.389,-12.4881 338.13,-8.2937 348.38,-12.1904 348.38,-12.1904"/>
<text text-anchor="middle" x="273" y="-47" font-family="Sans" font-size="10.00">replaces</text>
</g>
<!-- configuration&#45;modules&#45;core#1171 -->
<g id="node61" class="node"><title>configuration-modules-core#1171</title>
<a xlink:href="https://github.com/quattor/configuration-modules-core/pull/1171" xlink:title="[WIP] ncm-cups enhancements and cleanups" target="_parent">
<polygon fill="#6cc644" stroke="black" points="204,-2019 32,-2019 32,-1965 204,-1965 204,-2019"/>
<text text-anchor="middle" x="118" y="-1996" font-family="Sans" font-size="10.00">pull-request</text>
<text text-anchor="middle" x="118" y="-1983" font-family="Sans" font-size="10.00">configuration-modules-core#1171</text>
</a>
</g>
<!-- configuration&#45;modules&#45;core#1164 -->
<g id="node63" class="node"><title>configuration-modules-core#1164</title>
<a xlink:href="https://github.com/quattor/configuration-modules-core/issues/1164" xlink:title="ncm-cups 17.7.0: configuration of ServerAlias + miscellanous enhancements" target="_parent">
<ellipse fill="#6cc644" stroke="black" cx="432" cy="-1992" rx="121.122" ry="38.1838"/>
<text text-anchor="middle" x="432" y="-1996" font-family="Sans" font-size="10.00">issue</text>
<text text-anchor="middle" x="432" y="-1983" font-family="Sans" font-size="10.00">configuration-modules-core#1164</text>
</a>
</g>
<!-- configuration&#45;modules&#45;core#1171&#45;&gt;configuration&#45;modules&#45;core#1164 -->
<g id="edge48" class="edge"><title>configuration-modules-core#1171-&gt;configuration-modules-core#1164</title>
<path fill="none" stroke="black" stroke-width="2" d="M204.217,-1992C233.916,-1992 267.888,-1992 300.372,-1992"/>
<polygon fill="black" stroke="black" points="300.399,-1995.5 310.399,-1992 300.399,-1988.5 300.399,-1995.5"/>
<text text-anchor="middle" x="273" y="-1996" font-family="Sans" font-size="10.00">fixes</text>
</g>
<!-- configuration&#45;modules&#45;core#1148 -->
<g id="node64" class="node"><title>configuration-modules-core#1148</title>
<a xlink:href="https://github.com/quattor/configuration-modules-core/pull/1148" xlink:title="ncm-spma: Remove support from groups from spma yumng backend" target="_parent">
<polygon fill="#6cc644" stroke="black" points="204,-2207 32,-2207 32,-2153 204,-2153 204,-2207"/>
<text text-anchor="middle" x="118" y="-2184" font-family="Sans" font-size="10.00">pull-request</text>
<text text-anchor="middle" x="118" y="-2171" font-family="Sans" font-size="10.00">configuration-modules-core#1148</text>
</a>
</g>
<!-- configuration&#45;modules&#45;core#952 -->
<g id="node66" class="node"><title>configuration-modules-core#952</title>
<a xlink:href="https://github.com/quattor/configuration-modules-core/issues/952" xlink:title="ncm-spma (yumng): Remove support for package groups" target="_parent">
<ellipse fill="#6cc644" stroke="black" cx="432" cy="-2180" rx="118.087" ry="38.1838"/>
<text text-anchor="middle" x="432" y="-2184" font-family="Sans" font-size="10.00">issue</text>
<text text-anchor="middle" x="432" y="-2171" font-family="Sans" font-size="10.00">configuration-modules-core#952</text>
</a>
</g>
<!-- configuration&#45;modules&#45;core#1148&#45;&gt;configuration&#45;modules&#45;core#952 -->
<g id="edge50" class="edge"><title>configuration-modules-core#1148-&gt;configuration-modules-core#952</title>
<path fill="none" stroke="black" stroke-width="2" d="M204.217,-2180C234.903,-2180 270.151,-2180 303.606,-2180"/>
<polygon fill="black" stroke="black" points="303.924,-2183.5 313.924,-2180 303.924,-2176.5 303.924,-2183.5"/>
<text text-anchor="middle" x="273" y="-2184" font-family="Sans" font-size="10.00">fixes</text>
</g>
<!-- configuration&#45;modules&#45;core#950 -->
<g id="node67" class="node"><title>configuration-modules-core#950</title>
<a xlink:href="https://github.com/quattor/configuration-modules-core/issues/950" xlink:title="ncm-spma: Remove support for package groups from yum backends" target="_parent">
<ellipse fill="#6cc644" stroke="black" cx="118" cy="-2091" rx="118.087" ry="38.1838"/>
<text text-anchor="middle" x="118" y="-2095" font-family="Sans" font-size="10.00">issue</text>
<text text-anchor="middle" x="118" y="-2082" font-family="Sans" font-size="10.00">configuration-modules-core#950</text>
</a>
</g>
<!-- configuration&#45;modules&#45;core#950&#45;&gt;configuration&#45;modules&#45;core#952 -->
<g id="edge54" class="edge"><title>configuration-modules-core#950-&gt;configuration-modules-core#952</title>
<path fill="none" stroke="black" stroke-dasharray="5,2" d="M206.721,-2116.15C246.26,-2127.35 292.974,-2140.59 333.584,-2152.11"/>
<polygon fill="none" stroke="black" points="332.651,-2155.48 343.226,-2154.84 334.56,-2148.74 332.651,-2155.48"/>
<text text-anchor="middle" x="273" y="-2142" font-family="Sans" font-size="10.00">requires</text>
</g>
<!-- configuration&#45;modules&#45;core#951 -->
<g id="node69" class="node"><title>configuration-modules-core#951</title>
<a xlink:href="https://github.com/quattor/configuration-modules-core/issues/951" xlink:title="ncm-spma (yum): Remove support for package groups" target="_parent">
<ellipse fill="#6cc644" stroke="black" cx="432" cy="-2086" rx="118.087" ry="38.1838"/>
<text text-anchor="middle" x="432" y="-2090" font-family="Sans" font-size="10.00">issue</text>
<text text-anchor="middle" x="432" y="-2077" font-family="Sans" font-size="10.00">configuration-modules-core#951</text>
</a>
</g>
<!-- configuration&#45;modules&#45;core#950&#45;&gt;configuration&#45;modules&#45;core#951 -->
<g id="edge52" class="edge"><title>configuration-modules-core#950-&gt;configuration-modules-core#951</title>
<path fill="none" stroke="black" stroke-dasharray="5,2" d="M236.263,-2089.12C258.348,-2088.77 281.525,-2088.4 303.892,-2088.04"/>
<polygon fill="none" stroke="black" points="304.162,-2091.54 314.105,-2087.88 304.05,-2084.54 304.162,-2091.54"/>
<text text-anchor="middle" x="273" y="-2092" font-family="Sans" font-size="10.00">requires</text>
</g>
<!-- template&#45;library&#45;standard#104 -->
<g id="node71" class="node"><title>template-library-standard#104</title>
<a xlink:href="https://github.com/quattor/template-library-standard/pull/104" xlink:title="Add CPUs used in Mellanox SN2100 and SN2700 switches" target="_parent">
<polygon fill="#6cc644" stroke="black" points="196,-900 40,-900 40,-846 196,-846 196,-900"/>
<text text-anchor="middle" x="118" y="-877" font-family="Sans" font-size="10.00">pull-request</text>
<text text-anchor="middle" x="118" y="-864" font-family="Sans" font-size="10.00">template-library-standard#104</text>
</a>
</g>
<!-- template&#45;library&#45;standard#103 -->
<g id="node73" class="node"><title>template-library-standard#103</title>
<a xlink:href="https://github.com/quattor/template-library-standard/issues/103" xlink:title="hardware/cpu/intel add embedded cpus" target="_parent">
<ellipse fill="#6cc644" stroke="black" cx="432" cy="-806" rx="111.016" ry="38.1838"/>
<text text-anchor="middle" x="432" y="-810" font-family="Sans" font-size="10.00">issue</text>
<text text-anchor="middle" x="432" y="-797" font-family="Sans" font-size="10.00">template-library-standard#103</text>
</a>
</g>
<!-- template&#45;library&#45;standard#104&#45;&gt;template&#45;library&#45;standard#103 -->
<g id="edge56" class="edge"><title>template-library-standard#104-&gt;template-library-standard#103</title>
<path fill="none" stroke="black" stroke-width="2" d="M196.83,-856.18C236.521,-847.711 285.16,-837.332 327.884,-828.216"/>
<polygon fill="black" stroke="black" points="328.703,-831.62 337.753,-826.11 327.242,-824.774 328.703,-831.62"/>
<text text-anchor="middle" x="273" y="-848" font-family="Sans" font-size="10.00">fixes</text>
</g>
</g>
</svg>
