<?xml version="1.0" encoding="UTF-8" standalone="no"?>
<?xml-stylesheet href="relationships.css" type="text/css"?>
<!-- Generated by graphviz version 2.26.0 (20091210.2329)
 -->
<!-- Title: Dependencies Pages: 1 -->
<svg xmlns="http://www.w3.org/2000/svg" xmlns:xlink="http://www.w3.org/1999/xlink" width="1130pt" height="1970pt" viewBox="0.00 0.00 1130.00 1970.00">
<g id="graph1" class="graph" transform="scale(1 1) rotate(0) translate(4 1966)">
<title>Dependencies</title>
<polygon fill="white" stroke="white" points="-4,5 -4,-1966 1127,-1966 1127,5 -4,5"/>
<g id="graph3" class="cluster"><title>cluster_milestone_20.3</title>
<polygon fill="none" stroke="black" points="322,-396 322,-1376 1114,-1376 1114,-396 322,-396"/>
<text text-anchor="middle" x="718" y="-1361.2" font-family="Sans" font-size="12.00">20.3</text>
</g>
<g id="graph4" class="cluster"><title>cluster_repo_aquilon</title>
<polygon fill="none" stroke="black" points="57,-1622 57,-1954 491,-1954 491,-1622 57,-1622"/>
<text text-anchor="middle" x="274" y="-1939.2" font-family="Sans" font-size="12.00">aquilon</text>
</g>
<!-- aii#316 -->
<g id="node1" class="node"><title>aii#316</title>
<a xlink:href="https://github.com/quattor/aii/pull/316" xlink:title="aii-ks: generate kickstart repo entries based on SPMA configuration" target="_parent">
<polygon fill="#6cc644" stroke="black" points="465,-768 387,-768 387,-714 465,-714 465,-768"/>
<text text-anchor="middle" x="426" y="-745" font-family="Sans" font-size="10.00">pull-request</text>
<text text-anchor="middle" x="426" y="-732" font-family="Sans" font-size="10.00">aii#316</text>
</a>
</g>
<!-- aii#314 -->
<g id="node3" class="node"><title>aii#314</title>
<polygon fill="lightgrey" stroke="black" points="769,-388.5 711,-388.5 711,-347.5 769,-347.5 769,-388.5"/>
<text text-anchor="middle" x="740" y="-365.5" font-family="Sans" font-size="10.00">aii#314</text>
</g>
<!-- aii#316&#45;&gt;aii#314 -->
<g id="edge2" class="edge"><title>aii#316-&gt;aii#314</title>
<path fill="none" stroke="black" stroke-dasharray="5,2" d="M465.657,-739.251C491.714,-735.92 524.478,-727.193 544,-705 575.561,-669.12 551.749,-645.673 562,-599 582.446,-505.912 548.292,-456.994 618,-392 639.883,-371.597 673.832,-366.252 700.367,-365.64"/>
<polygon fill="none" stroke="black" points="700.503,-369.14 710.497,-365.623 700.491,-362.14 700.503,-369.14"/>
<text text-anchor="middle" x="581" y="-603" font-family="Sans" font-size="10.00">requires</text>
</g>
<!-- aii#315 -->
<g id="node5" class="node"><title>aii#315</title>
<polygon fill="lightgrey" stroke="black" points="769,-330.5 711,-330.5 711,-289.5 769,-289.5 769,-330.5"/>
<text text-anchor="middle" x="740" y="-307.5" font-family="Sans" font-size="10.00">aii#315</text>
</g>
<!-- aii#316&#45;&gt;aii#315 -->
<g id="edge4" class="edge"><title>aii#316-&gt;aii#315</title>
<path fill="none" stroke="black" stroke-dasharray="5,2" d="M465.592,-740.008C492.146,-737.062 525.525,-728.482 544,-705 586.257,-651.291 534.826,-460.704 562,-398 576.376,-364.828 586.669,-357.04 618,-339 643.175,-324.504 675.252,-317.241 700.196,-313.609"/>
<polygon fill="none" stroke="black" points="700.951,-317.04 710.409,-312.264 700.037,-310.1 700.951,-317.04"/>
<text text-anchor="middle" x="581" y="-402" font-family="Sans" font-size="10.00">requires</text>
</g>
<!-- aii#299 -->
<g id="node6" class="node"><title>aii#299</title>
<a xlink:href="https://github.com/quattor/aii/pull/299" xlink:title="aii-dhcp: support optional hostname ip verification" target="_parent">
<polygon fill="#6cc644" stroke="black" points="465,-1344 387,-1344 387,-1290 465,-1290 465,-1344"/>
<text text-anchor="middle" x="426" y="-1321" font-family="Sans" font-size="10.00">pull-request</text>
<text text-anchor="middle" x="426" y="-1308" font-family="Sans" font-size="10.00">aii#299</text>
</a>
</g>
<!-- aii#296 -->
<g id="node8" class="node"><title>aii#296</title>
<a xlink:href="https://github.com/quattor/aii/pull/296" xlink:title="DHCP plugin updates" target="_parent">
<polygon fill="#6cc644" stroke="black" points="779,-1344 701,-1344 701,-1290 779,-1290 779,-1344"/>
<text text-anchor="middle" x="740" y="-1321" font-family="Sans" font-size="10.00">pull-request</text>
<text text-anchor="middle" x="740" y="-1308" font-family="Sans" font-size="10.00">aii#296</text>
</a>
</g>
<!-- aii#299&#45;&gt;aii#296 -->
<g id="edge6" class="edge"><title>aii#299-&gt;aii#296</title>
<path fill="none" stroke="black" stroke-dasharray="5,2" d="M465.768,-1317C522.709,-1317 627.446,-1317 689.7,-1317"/>
<polygon fill="none" stroke="black" points="690.06,-1320.5 700.06,-1317 690.06,-1313.5 690.06,-1320.5"/>
<text text-anchor="middle" x="581" y="-1321" font-family="Sans" font-size="10.00">requires</text>
</g>
<!-- aii#280 -->
<g id="node9" class="node"><title>aii#280</title>
<a xlink:href="https://github.com/quattor/aii/pull/280" xlink:title="Support active configuration attribute for plugins" target="_parent">
<polygon fill="#6cc644" stroke="black" points="465,-696 387,-696 387,-642 465,-642 465,-696"/>
<text text-anchor="middle" x="426" y="-673" font-family="Sans" font-size="10.00">pull-request</text>
<text text-anchor="middle" x="426" y="-660" font-family="Sans" font-size="10.00">aii#280</text>
</a>
</g>
<!-- aii#209 -->
<g id="node11" class="node"><title>aii#209</title>
<a xlink:href="https://github.com/quattor/aii/issues/209" xlink:title="support ACTIVE_CONFIG" target="_parent">
<ellipse fill="#6cc644" stroke="black" cx="740" cy="-570" rx="41.2167" ry="38.1838"/>
<text text-anchor="middle" x="740" y="-574" font-family="Sans" font-size="10.00">issue</text>
<text text-anchor="middle" x="740" y="-561" font-family="Sans" font-size="10.00">aii#209</text>
</a>
</g>
<!-- aii#280&#45;&gt;aii#209 -->
<g id="edge8" class="edge"><title>aii#280-&gt;aii#209</title>
<path fill="none" stroke="black" stroke-width="2" d="M465.648,-657.065C488.568,-650.125 517.94,-641.163 544,-633 594.152,-617.29 651.353,-598.843 690.961,-585.986"/>
<polygon fill="black" stroke="black" points="692.207,-589.261 700.636,-582.843 690.044,-582.604 692.207,-589.261"/>
<text text-anchor="middle" x="581" y="-631" font-family="Sans" font-size="10.00">fixes</text>
</g>
<!-- ncm&#45;ncd#74 -->
<g id="node13" class="node"><title>ncm-ncd#74</title>
<polygon fill="lightgrey" stroke="black" points="781,-214.5 699,-214.5 699,-173.5 781,-173.5 781,-214.5"/>
<text text-anchor="middle" x="740" y="-191.5" font-family="Sans" font-size="10.00">ncm-ncd#74</text>
</g>
<!-- aii#280&#45;&gt;ncm&#45;ncd#74 -->
<g id="edge10" class="edge"><title>aii#280-&gt;ncm-ncd#74</title>
<path fill="none" stroke="black" stroke-dasharray="5,2" d="M465.69,-668.085C492.289,-665.174 525.682,-656.605 544,-633 571.139,-598.027 533.659,-269.005 562,-235 592.321,-198.619 647.843,-190.732 688.844,-190.475"/>
<polygon fill="none" stroke="black" points="688.901,-193.976 698.931,-190.562 688.961,-186.976 688.901,-193.976"/>
<text text-anchor="middle" x="581" y="-239" font-family="Sans" font-size="10.00">requires</text>
</g>
<!-- aii#203 -->
<g id="node15" class="node"><title>aii#203</title>
<polygon fill="lightgrey" stroke="black" points="769,-156.5 711,-156.5 711,-115.5 769,-115.5 769,-156.5"/>
<text text-anchor="middle" x="740" y="-133.5" font-family="Sans" font-size="10.00">aii#203</text>
</g>
<!-- aii#280&#45;&gt;aii#203 -->
<g id="edge12" class="edge"><title>aii#280-&gt;aii#203</title>
<path fill="none" stroke="black" stroke-dasharray="5,2" d="M465.722,-668.11C492.337,-665.211 525.734,-656.645 544,-633 573.98,-594.19 535.077,-232.989 562,-192 591.493,-147.098 657.465,-136.871 700.282,-135.236"/>
<polygon fill="none" stroke="black" points="700.454,-138.733 710.367,-134.993 700.285,-131.735 700.454,-138.733"/>
<text text-anchor="middle" x="581" y="-196" font-family="Sans" font-size="10.00">requires</text>
</g>
<!-- aii#210 -->
<g id="node17" class="node"><title>aii#210</title>
<polygon fill="lightgrey" stroke="black" points="769,-272.5 711,-272.5 711,-231.5 769,-231.5 769,-272.5"/>
<text text-anchor="middle" x="740" y="-249.5" font-family="Sans" font-size="10.00">aii#210</text>
</g>
<!-- aii#280&#45;&gt;aii#210 -->
<g id="edge14" class="edge"><title>aii#280-&gt;aii#210</title>
<path fill="none" stroke="black" stroke-dasharray="1,5" d="M465.653,-668.056C492.235,-665.132 525.623,-656.559 544,-633 568.497,-601.596 534.961,-304.243 562,-275 596.518,-237.669 659.349,-238.583 700.376,-244.154"/>
<polygon fill="black" stroke="black" points="710.306,-245.65 699.747,-248.61 705.362,-244.905 700.418,-244.16 700.418,-244.16 700.418,-244.16 705.362,-244.905 701.088,-239.71 710.306,-245.65 710.306,-245.65"/>
<text text-anchor="middle" x="581" y="-279" font-family="Sans" font-size="10.00">replaces</text>
</g>
<!-- CAF#257 -->
<g id="node18" class="node"><title>CAF#257</title>
<a xlink:href="https://github.com/quattor/CAF/pull/257" xlink:title="Process: run process as another user" target="_parent">
<polygon fill="#6cc644" stroke="black" points="465,-1272 387,-1272 387,-1218 465,-1218 465,-1272"/>
<text text-anchor="middle" x="426" y="-1249" font-family="Sans" font-size="10.00">pull-request</text>
<text text-anchor="middle" x="426" y="-1236" font-family="Sans" font-size="10.00">CAF#257</text>
</a>
</g>
<!-- CAF#253 -->
<g id="node20" class="node"><title>CAF#253</title>
<a xlink:href="https://github.com/quattor/CAF/issues/253" xlink:title="CAF::Process: Include an option to execute the command as an specific user" target="_parent">
<ellipse fill="#6cc644" stroke="black" cx="740" cy="-1234" rx="48.9975" ry="38.1838"/>
<text text-anchor="middle" x="740" y="-1238" font-family="Sans" font-size="10.00">issue</text>
<text text-anchor="middle" x="740" y="-1225" font-family="Sans" font-size="10.00">CAF#253</text>
</a>
</g>
<!-- CAF#257&#45;&gt;CAF#253 -->
<g id="edge16" class="edge"><title>CAF#257-&gt;CAF#253</title>
<path fill="none" stroke="black" stroke-width="2" d="M465.768,-1243.61C519.934,-1241.71 617.353,-1238.3 680.308,-1236.09"/>
<polygon fill="black" stroke="black" points="680.617,-1239.58 690.488,-1235.73 680.372,-1232.59 680.617,-1239.58"/>
<text text-anchor="middle" x="581" y="-1245" font-family="Sans" font-size="10.00">fixes</text>
</g>
<!-- CAF#110 -->
<g id="node21" class="node"><title>CAF#110</title>
<a xlink:href="https://github.com/quattor/CAF/pull/110" xlink:title="CAF::Download class: API proposal" target="_parent">
<polygon fill="#6cc644" stroke="black" points="157,-1431 79,-1431 79,-1377 157,-1377 157,-1431"/>
<text text-anchor="middle" x="118" y="-1408" font-family="Sans" font-size="10.00">pull-request</text>
<text text-anchor="middle" x="118" y="-1395" font-family="Sans" font-size="10.00">CAF#110</text>
</a>
</g>
<!-- CAF#120 -->
<g id="node23" class="node"><title>CAF#120</title>
<polygon fill="lightgrey" stroke="black" points="461,-1424.5 391,-1424.5 391,-1383.5 461,-1383.5 461,-1424.5"/>
<text text-anchor="middle" x="426" y="-1401.5" font-family="Sans" font-size="10.00">CAF#120</text>
</g>
<!-- CAF#110&#45;&gt;CAF#120 -->
<g id="edge18" class="edge"><title>CAF#110-&gt;CAF#120</title>
<path fill="none" stroke="black" stroke-dasharray="5,2" d="M157.635,-1404C214.805,-1404 320.147,-1404 380.447,-1404"/>
<polygon fill="none" stroke="black" points="380.801,-1407.5 390.801,-1404 380.801,-1400.5 380.801,-1407.5"/>
<text text-anchor="middle" x="272" y="-1408" font-family="Sans" font-size="10.00">requires</text>
</g>
<!-- configuration&#45;modules&#45;core#1431 -->
<g id="node24" class="node"><title>configuration-modules-core#1431</title>
<a xlink:href="https://github.com/quattor/configuration-modules-core/pull/1431" xlink:title="ncm-cron: Provide schema validation to match the component code" target="_parent">
<polygon fill="#6cc644" stroke="black" points="512,-1200 340,-1200 340,-1146 512,-1146 512,-1200"/>
<text text-anchor="middle" x="426" y="-1177" font-family="Sans" font-size="10.00">pull-request</text>
<text text-anchor="middle" x="426" y="-1164" font-family="Sans" font-size="10.00">configuration-modules-core#1431</text>
</a>
</g>
<!-- configuration&#45;modules&#45;core#1429 -->
<g id="node26" class="node"><title>configuration-modules-core#1429</title>
<a xlink:href="https://github.com/quattor/configuration-modules-core/issues/1429" xlink:title="ncm-cron: Minutes field should not be optional if smear is used" target="_parent">
<ellipse fill="#6cc644" stroke="black" cx="740" cy="-1140" rx="121.122" ry="38.1838"/>
<text text-anchor="middle" x="740" y="-1144" font-family="Sans" font-size="10.00">issue</text>
<text text-anchor="middle" x="740" y="-1131" font-family="Sans" font-size="10.00">configuration-modules-core#1429</text>
</a>
</g>
<!-- configuration&#45;modules&#45;core#1431&#45;&gt;configuration&#45;modules&#45;core#1429 -->
<g id="edge20" class="edge"><title>configuration-modules-core#1431-&gt;configuration-modules-core#1429</title>
<path fill="none" stroke="black" stroke-width="2" d="M512.217,-1163.94C543.779,-1160.62 580.167,-1156.8 614.466,-1153.19"/>
<polygon fill="black" stroke="black" points="614.976,-1156.66 624.556,-1152.13 614.245,-1149.7 614.976,-1156.66"/>
<text text-anchor="middle" x="581" y="-1163" font-family="Sans" font-size="10.00">fixes</text>
</g>
<!-- configuration&#45;modules&#45;core#1417 -->
<g id="node27" class="node"><title>configuration-modules-core#1417</title>
<a xlink:href="https://github.com/quattor/configuration-modules-core/pull/1417" xlink:title="ncm-puppet: Document string quoting behaviour" target="_parent">
<polygon fill="#6cc644" stroke="black" points="512,-1128 340,-1128 340,-1074 512,-1074 512,-1128"/>
<text text-anchor="middle" x="426" y="-1105" font-family="Sans" font-size="10.00">pull-request</text>
<text text-anchor="middle" x="426" y="-1092" font-family="Sans" font-size="10.00">configuration-modules-core#1417</text>
</a>
</g>
<!-- configuration&#45;modules&#45;core#1416 -->
<g id="node29" class="node"><title>configuration-modules-core#1416</title>
<a xlink:href="https://github.com/quattor/configuration-modules-core/issues/1416" xlink:title="ncm-puppet: document behaviour when quoting strings" target="_parent">
<ellipse fill="#6cc644" stroke="black" cx="740" cy="-1046" rx="121.122" ry="38.1838"/>
<text text-anchor="middle" x="740" y="-1050" font-family="Sans" font-size="10.00">issue</text>
<text text-anchor="middle" x="740" y="-1037" font-family="Sans" font-size="10.00">configuration-modules-core#1416</text>
</a>
</g>
<!-- configuration&#45;modules&#45;core#1417&#45;&gt;configuration&#45;modules&#45;core#1416 -->
<g id="edge22" class="edge"><title>configuration-modules-core#1417-&gt;configuration-modules-core#1416</title>
<path fill="none" stroke="black" stroke-width="2" d="M512.217,-1085.9C546.57,-1079.88 586.64,-1072.86 623.511,-1066.4"/>
<polygon fill="black" stroke="black" points="624.572,-1069.77 633.818,-1064.6 623.364,-1062.88 624.572,-1069.77"/>
<text text-anchor="middle" x="581" y="-1081" font-family="Sans" font-size="10.00">fixes</text>
</g>
<!-- configuration&#45;modules&#45;core#1402 -->
<g id="node30" class="node"><title>configuration-modules-core#1402</title>
<a xlink:href="https://github.com/quattor/configuration-modules-core/pull/1402" xlink:title="ncm-network: always enable the network service" target="_parent">
<polygon fill="#6cc644" stroke="black" points="512,-1056 340,-1056 340,-1002 512,-1002 512,-1056"/>
<text text-anchor="middle" x="426" y="-1033" font-family="Sans" font-size="10.00">pull-request</text>
<text text-anchor="middle" x="426" y="-1020" font-family="Sans" font-size="10.00">configuration-modules-core#1402</text>
</a>
</g>
<!-- configuration&#45;modules&#45;core#1372 -->
<g id="node32" class="node"><title>configuration-modules-core#1372</title>
<a xlink:href="https://github.com/quattor/configuration-modules-core/pull/1372" xlink:title="ncm-network: support ethtool channels" target="_parent">
<polygon fill="#6cc644" stroke="black" points="826,-990 654,-990 654,-936 826,-936 826,-990"/>
<text text-anchor="middle" x="740" y="-967" font-family="Sans" font-size="10.00">pull-request</text>
<text text-anchor="middle" x="740" y="-954" font-family="Sans" font-size="10.00">configuration-modules-core#1372</text>
</a>
</g>
<!-- configuration&#45;modules&#45;core#1402&#45;&gt;configuration&#45;modules&#45;core#1372 -->
<g id="edge24" class="edge"><title>configuration-modules-core#1402-&gt;configuration-modules-core#1372</title>
<path fill="none" stroke="black" stroke-dasharray="5,2" d="M512.217,-1010.88C553.061,-1002.29 601.988,-992.009 644.009,-983.176"/>
<polygon fill="none" stroke="black" points="644.909,-986.564 653.975,-981.082 643.469,-979.714 644.909,-986.564"/>
<text text-anchor="middle" x="581" y="-1004" font-family="Sans" font-size="10.00">requires</text>
</g>
<!-- configuration&#45;modules&#45;core#1322 -->
<g id="node40" class="node"><title>configuration-modules-core#1322</title>
<a xlink:href="https://github.com/quattor/configuration-modules-core/pull/1322" xlink:title="ncm-network: support rules and routes using routing tables" target="_parent">
<polygon fill="#6e5494" stroke="black" points="1106,-990 934,-990 934,-936 1106,-936 1106,-990"/>
<text text-anchor="middle" x="1020" y="-967" font-family="Sans" font-size="10.00">pull-request</text>
<text text-anchor="middle" x="1020" y="-954" font-family="Sans" font-size="10.00">configuration-modules-core#1322</text>
</a>
</g>
<!-- configuration&#45;modules&#45;core#1372&#45;&gt;configuration&#45;modules&#45;core#1322 -->
<g id="edge30" class="edge"><title>configuration-modules-core#1372-&gt;configuration-modules-core#1322</title>
<path fill="none" stroke="black" stroke-dasharray="5,2" d="M826.294,-963C857.177,-963 892.171,-963 923.836,-963"/>
<polygon fill="none" stroke="black" points="923.991,-966.5 933.991,-963 923.991,-959.5 923.991,-966.5"/>
<text text-anchor="middle" x="898" y="-967" font-family="Sans" font-size="10.00">requires</text>
</g>
<!-- configuration&#45;modules&#45;core#1401 -->
<g id="node33" class="node"><title>configuration-modules-core#1401</title>
<a xlink:href="https://github.com/quattor/configuration-modules-core/pull/1401" xlink:title="ncm-spma: yumdnf: initial dnf/yum4 based on yum" target="_parent">
<polygon fill="#6cc644" stroke="black" points="512,-624 340,-624 340,-570 512,-570 512,-624"/>
<text text-anchor="middle" x="426" y="-601" font-family="Sans" font-size="10.00">pull-request</text>
<text text-anchor="middle" x="426" y="-588" font-family="Sans" font-size="10.00">configuration-modules-core#1401</text>
</a>
</g>
<!-- configuration&#45;modules&#45;core#1405 -->
<g id="node35" class="node"><title>configuration-modules-core#1405</title>
<polygon fill="lightgrey" stroke="black" points="826,-98.5 654,-98.5 654,-57.5 826,-57.5 826,-98.5"/>
<text text-anchor="middle" x="740" y="-75.5" font-family="Sans" font-size="10.00">configuration-modules-core#1405</text>
</g>
<!-- configuration&#45;modules&#45;core#1401&#45;&gt;configuration&#45;modules&#45;core#1405 -->
<g id="edge26" class="edge"><title>configuration-modules-core#1401-&gt;configuration-modules-core#1405</title>
<path fill="none" stroke="black" stroke-dasharray="5,2" d="M512.028,-584.688C524.429,-579.292 535.76,-571.685 544,-561 575.235,-520.495 527.483,-138.749 562,-101 582.497,-78.5837 613.193,-69.904 643.35,-67.7498"/>
<polygon fill="none" stroke="black" points="643.72,-71.2361 653.54,-67.259 643.384,-64.2442 643.72,-71.2361"/>
<text text-anchor="middle" x="581" y="-105" font-family="Sans" font-size="10.00">requires</text>
</g>
<!-- configuration&#45;modules&#45;core#1394 -->
<g id="node36" class="node"><title>configuration-modules-core#1394</title>
<a xlink:href="https://github.com/quattor/configuration-modules-core/pull/1394" xlink:title="ncm-metaconfig generic templates" target="_parent">
<polygon fill="#6e5494" stroke="black" points="512,-984 340,-984 340,-930 512,-930 512,-984"/>
<text text-anchor="middle" x="426" y="-961" font-family="Sans" font-size="10.00">pull-request</text>
<text text-anchor="middle" x="426" y="-948" font-family="Sans" font-size="10.00">configuration-modules-core#1394</text>
</a>
</g>
<!-- configuration&#45;modules&#45;core#1387 -->
<g id="node38" class="node"><title>configuration-modules-core#1387</title>
<a xlink:href="https://github.com/quattor/configuration-modules-core/pull/1387" xlink:title="ncm-metaconfig: the content should not only be a dict" target="_parent">
<polygon fill="#6cc644" stroke="black" points="826,-918 654,-918 654,-864 826,-864 826,-918"/>
<text text-anchor="middle" x="740" y="-895" font-family="Sans" font-size="10.00">pull-request</text>
<text text-anchor="middle" x="740" y="-882" font-family="Sans" font-size="10.00">configuration-modules-core#1387</text>
</a>
</g>
<!-- configuration&#45;modules&#45;core#1394&#45;&gt;configuration&#45;modules&#45;core#1387 -->
<g id="edge28" class="edge"><title>configuration-modules-core#1394-&gt;configuration-modules-core#1387</title>
<path fill="none" stroke="black" stroke-dasharray="5,2" d="M512.217,-938.878C553.061,-930.293 601.988,-920.009 644.009,-911.176"/>
<polygon fill="none" stroke="black" points="644.909,-914.564 653.975,-909.082 643.469,-907.714 644.909,-914.564"/>
<text text-anchor="middle" x="581" y="-932" font-family="Sans" font-size="10.00">requires</text>
</g>
<!-- configuration&#45;modules&#45;core#1341 -->
<g id="node41" class="node"><title>configuration-modules-core#1341</title>
<a xlink:href="https://github.com/quattor/configuration-modules-core/pull/1341" xlink:title="ncm-metaconfig: switch to CAF::ServiceActions" target="_parent">
<polygon fill="#6cc644" stroke="black" points="512,-552 340,-552 340,-498 512,-498 512,-552"/>
<text text-anchor="middle" x="426" y="-529" font-family="Sans" font-size="10.00">pull-request</text>
<text text-anchor="middle" x="426" y="-516" font-family="Sans" font-size="10.00">configuration-modules-core#1341</text>
</a>
</g>
<!-- CAF#267 -->
<g id="node43" class="node"><title>CAF#267</title>
<polygon fill="lightgrey" stroke="black" points="775,-40.5 705,-40.5 705,0.5 775,0.5 775,-40.5"/>
<text text-anchor="middle" x="740" y="-17.5" font-family="Sans" font-size="10.00">CAF#267</text>
</g>
<!-- configuration&#45;modules&#45;core#1341&#45;&gt;CAF#267 -->
<g id="edge32" class="edge"><title>configuration-modules-core#1341-&gt;CAF#267</title>
<path fill="none" stroke="black" stroke-dasharray="5,2" d="M512.017,-512.679C524.419,-507.284 535.753,-499.68 544,-489 574.31,-449.744 528.51,-79.581 562,-43 594.878,-7.08761 653.937,-6.44675 694.966,-11.399"/>
<polygon fill="none" stroke="black" points="694.602,-14.8815 704.982,-12.7604 695.545,-7.94531 694.602,-14.8815"/>
<text text-anchor="middle" x="581" y="-47" font-family="Sans" font-size="10.00">requires</text>
</g>
<!-- configuration&#45;modules&#45;core#1336 -->
<g id="node44" class="node"><title>configuration-modules-core#1336</title>
<a xlink:href="https://github.com/quattor/configuration-modules-core/pull/1336" xlink:title="ncm-network: Add support for CAF::Service actions after changes" target="_parent">
<polygon fill="#6cc644" stroke="black" points="512,-912 340,-912 340,-858 512,-858 512,-912"/>
<text text-anchor="middle" x="426" y="-889" font-family="Sans" font-size="10.00">pull-request</text>
<text text-anchor="middle" x="426" y="-876" font-family="Sans" font-size="10.00">configuration-modules-core#1336</text>
</a>
</g>
<!-- configuration&#45;modules&#45;core#1335 -->
<g id="node46" class="node"><title>configuration-modules-core#1335</title>
<a xlink:href="https://github.com/quattor/configuration-modules-core/pull/1335" xlink:title="ncm-metaconfig: Remove caf_service_action type to allow reuse" target="_parent">
<polygon fill="#6cc644" stroke="black" points="826,-752 654,-752 654,-698 826,-698 826,-752"/>
<text text-anchor="middle" x="740" y="-729" font-family="Sans" font-size="10.00">pull-request</text>
<text text-anchor="middle" x="740" y="-716" font-family="Sans" font-size="10.00">configuration-modules-core#1335</text>
</a>
</g>
<!-- configuration&#45;modules&#45;core#1336&#45;&gt;configuration&#45;modules&#45;core#1335 -->
<g id="edge34" class="edge"><title>configuration-modules-core#1336-&gt;configuration-modules-core#1335</title>
<path fill="none" stroke="black" stroke-dasharray="5,2" d="M512.131,-865.16C523.32,-860.761 534.261,-855.435 544,-849 546.665,-847.239 615.327,-762.748 618,-761 626.178,-755.651 635.174,-751.075 644.46,-747.166"/>
<polygon fill="none" stroke="black" points="645.805,-750.398 653.824,-743.474 643.237,-743.885 645.805,-750.398"/>
<text text-anchor="middle" x="581" y="-832" font-family="Sans" font-size="10.00">requires</text>
</g>
<!-- configuration&#45;modules&#45;core#1071 -->
<g id="node48" class="node"><title>configuration-modules-core#1071</title>
<a xlink:href="https://github.com/quattor/configuration-modules-core/issues/1071" xlink:title="ncm-network: support daemons to restart after network changes" target="_parent">
<ellipse fill="#6cc644" stroke="black" cx="740" cy="-808" rx="121.122" ry="38.1838"/>
<text text-anchor="middle" x="740" y="-812" font-family="Sans" font-size="10.00">issue</text>
<text text-anchor="middle" x="740" y="-799" font-family="Sans" font-size="10.00">configuration-modules-core#1071</text>
</a>
</g>
<!-- configuration&#45;modules&#45;core#1336&#45;&gt;configuration&#45;modules&#45;core#1071 -->
<g id="edge36" class="edge"><title>configuration-modules-core#1336-&gt;configuration-modules-core#1071</title>
<path fill="none" stroke="black" stroke-width="2" d="M512.217,-863.858C550.039,-854.583 594.793,-843.608 634.577,-833.852"/>
<polygon fill="black" stroke="black" points="635.431,-837.247 644.309,-831.466 633.763,-830.448 635.431,-837.247"/>
<text text-anchor="middle" x="581" y="-856" font-family="Sans" font-size="10.00">fixes</text>
</g>
<!-- template&#45;library&#45;core#191 -->
<g id="node50" class="node"><title>template-library-core#191</title>
<a xlink:href="https://github.com/quattor/template-library-core/pull/191" xlink:title="Allow the caf_service_action to be used by multiple components" target="_parent">
<polygon fill="#6cc644" stroke="black" points="1089,-752 951,-752 951,-698 1089,-698 1089,-752"/>
<text text-anchor="middle" x="1020" y="-729" font-family="Sans" font-size="10.00">pull-request</text>
<text text-anchor="middle" x="1020" y="-716" font-family="Sans" font-size="10.00">template-library-core#191</text>
</a>
</g>
<!-- configuration&#45;modules&#45;core#1335&#45;&gt;template&#45;library&#45;core#191 -->
<g id="edge38" class="edge"><title>configuration-modules-core#1335-&gt;template-library-core#191</title>
<path fill="none" stroke="black" stroke-dasharray="5,2" d="M826.294,-725C862.71,-725 904.84,-725 940.49,-725"/>
<polygon fill="none" stroke="black" points="940.847,-728.5 950.847,-725 940.847,-721.5 940.847,-728.5"/>
<text text-anchor="middle" x="898" y="-729" font-family="Sans" font-size="10.00">requires</text>
</g>
<!-- configuration&#45;modules&#45;core#1148 -->
<g id="node51" class="node"><title>configuration-modules-core#1148</title>
<a xlink:href="https://github.com/quattor/configuration-modules-core/pull/1148" xlink:title="ncm-spma: Remove support from groups from spma yumng backend" target="_parent">
<polygon fill="#6cc644" stroke="black" points="204,-1601 32,-1601 32,-1547 204,-1547 204,-1601"/>
<text text-anchor="middle" x="118" y="-1578" font-family="Sans" font-size="10.00">pull-request</text>
<text text-anchor="middle" x="118" y="-1565" font-family="Sans" font-size="10.00">configuration-modules-core#1148</text>
</a>
</g>
<!-- configuration&#45;modules&#45;core#952 -->
<g id="node53" class="node"><title>configuration-modules-core#952</title>
<a xlink:href="https://github.com/quattor/configuration-modules-core/issues/952" xlink:title="ncm-spma (yumng): Remove support for package groups" target="_parent">
<ellipse fill="#6cc644" stroke="black" cx="426" cy="-1574" rx="118.087" ry="38.1838"/>
<text text-anchor="middle" x="426" y="-1578" font-family="Sans" font-size="10.00">issue</text>
<text text-anchor="middle" x="426" y="-1565" font-family="Sans" font-size="10.00">configuration-modules-core#952</text>
</a>
</g>
<!-- configuration&#45;modules&#45;core#1148&#45;&gt;configuration&#45;modules&#45;core#952 -->
<g id="edge40" class="edge"><title>configuration-modules-core#1148-&gt;configuration-modules-core#952</title>
<path fill="none" stroke="black" stroke-width="2" d="M204.205,-1574C233.19,-1574 266.179,-1574 297.691,-1574"/>
<polygon fill="black" stroke="black" points="297.863,-1577.5 307.863,-1574 297.863,-1570.5 297.863,-1577.5"/>
<text text-anchor="middle" x="272" y="-1578" font-family="Sans" font-size="10.00">fixes</text>
</g>
<!-- configuration&#45;modules&#45;core#950 -->
<g id="node54" class="node"><title>configuration-modules-core#950</title>
<a xlink:href="https://github.com/quattor/configuration-modules-core/issues/950" xlink:title="ncm-spma: Remove support for package groups from yum backends" target="_parent">
<ellipse fill="#6cc644" stroke="black" cx="118" cy="-1489" rx="118.087" ry="38.1838"/>
<text text-anchor="middle" x="118" y="-1493" font-family="Sans" font-size="10.00">issue</text>
<text text-anchor="middle" x="118" y="-1480" font-family="Sans" font-size="10.00">configuration-modules-core#950</text>
</a>
</g>
<!-- configuration&#45;modules&#45;core#950&#45;&gt;configuration&#45;modules&#45;core#952 -->
<g id="edge44" class="edge"><title>configuration-modules-core#950-&gt;configuration-modules-core#952</title>
<path fill="none" stroke="black" stroke-dasharray="5,2" d="M207.914,-1513.81C244.995,-1524.05 288.11,-1535.95 326.167,-1546.45"/>
<polygon fill="none" stroke="black" points="325.669,-1549.94 336.24,-1549.23 327.532,-1543.19 325.669,-1549.94"/>
<text text-anchor="middle" x="272" y="-1539" font-family="Sans" font-size="10.00">requires</text>
</g>
<!-- configuration&#45;modules&#45;core#951 -->
<g id="node56" class="node"><title>configuration-modules-core#951</title>
<a xlink:href="https://github.com/quattor/configuration-modules-core/issues/951" xlink:title="ncm-spma (yum): Remove support for package groups" target="_parent">
<ellipse fill="#6cc644" stroke="black" cx="426" cy="-1480" rx="118.087" ry="38.1838"/>
<text text-anchor="middle" x="426" y="-1484" font-family="Sans" font-size="10.00">issue</text>
<text text-anchor="middle" x="426" y="-1471" font-family="Sans" font-size="10.00">configuration-modules-core#951</text>
</a>
</g>
<!-- configuration&#45;modules&#45;core#950&#45;&gt;configuration&#45;modules&#45;core#951 -->
<g id="edge42" class="edge"><title>configuration-modules-core#950-&gt;configuration-modules-core#951</title>
<path fill="none" stroke="black" stroke-dasharray="5,2" d="M235.76,-1485.56C256.192,-1484.96 277.526,-1484.34 298.21,-1483.73"/>
<polygon fill="none" stroke="black" points="298.412,-1487.23 308.305,-1483.44 298.207,-1480.23 298.412,-1487.23"/>
<text text-anchor="middle" x="272" y="-1489" font-family="Sans" font-size="10.00">requires</text>
</g>
<!-- template&#45;library&#45;core#196 -->
<g id="node58" class="node"><title>template-library-core#196</title>
<a xlink:href="https://github.com/quattor/template-library-core/pull/196" xlink:title="pan/types: Add string type for search paths" target="_parent">
<polygon fill="#6cc644" stroke="black" points="495,-840 357,-840 357,-786 495,-786 495,-840"/>
<text text-anchor="middle" x="426" y="-817" font-family="Sans" font-size="10.00">pull-request</text>
<text text-anchor="middle" x="426" y="-804" font-family="Sans" font-size="10.00">template-library-core#196</text>
</a>
</g>
<!-- template&#45;library&#45;core#197 -->
<g id="node60" class="node"><title>template-library-core#197</title>
<a xlink:href="https://github.com/quattor/template-library-core/pull/197" xlink:title="pan/types: Cleanup style - lint, indentation, wrapping" target="_parent">
<polygon fill="#6cc644" stroke="black" points="809,-680 671,-680 671,-626 809,-626 809,-680"/>
<text text-anchor="middle" x="740" y="-657" font-family="Sans" font-size="10.00">pull-request</text>
<text text-anchor="middle" x="740" y="-644" font-family="Sans" font-size="10.00">template-library-core#197</text>
</a>
</g>
<!-- template&#45;library&#45;core#196&#45;&gt;template&#45;library&#45;core#197 -->
<g id="edge46" class="edge"><title>template-library-core#196-&gt;template-library-core#197</title>
<path fill="none" stroke="black" stroke-dasharray="5,2" d="M495.127,-799.133C511.974,-793.854 529.346,-786.682 544,-777 586.636,-748.83 575.235,-716.974 618,-689 630.962,-680.521 645.979,-673.986 660.952,-668.966"/>
<polygon fill="none" stroke="black" points="662.273,-672.22 670.763,-665.881 660.173,-665.542 662.273,-672.22"/>
<text text-anchor="middle" x="581" y="-766" font-family="Sans" font-size="10.00">requires</text>
</g>
<!-- template&#45;library&#45;grid#232 -->
<g id="node61" class="node"><title>template-library-grid#232</title>
<a xlink:href="https://github.com/quattor/template-library-grid/pull/232" xlink:title="arc-ce: Export arc-ce feature from aquilon at RAL" target="_parent">
<polygon fill="#6cc644" stroke="black" points="185,-469 51,-469 51,-415 185,-415 185,-469"/>
<text text-anchor="middle" x="118" y="-446" font-family="Sans" font-size="10.00">pull-request</text>
<text text-anchor="middle" x="118" y="-433" font-family="Sans" font-size="10.00">template-library-grid#232</text>
</a>
</g>
<!-- template&#45;library&#45;grid#221 -->
<g id="node63" class="node"><title>template-library-grid#221</title>
<a xlink:href="https://github.com/quattor/template-library-grid/issues/221" xlink:title="Support for new CE types (ARC CE, HTCONDOR CE)" target="_parent">
<ellipse fill="#6cc644" stroke="black" cx="426" cy="-442" rx="94.9596" ry="38.1838"/>
<text text-anchor="middle" x="426" y="-446" font-family="Sans" font-size="10.00">issue</text>
<text text-anchor="middle" x="426" y="-433" font-family="Sans" font-size="10.00">template-library-grid#221</text>
</a>
</g>
<!-- template&#45;library&#45;grid#232&#45;&gt;template&#45;library&#45;grid#221 -->
<g id="edge48" class="edge"><title>template-library-grid#232-&gt;template-library-grid#221</title>
<path fill="none" stroke="black" stroke-width="2" d="M185.592,-442C225.021,-442 275.622,-442 320.222,-442"/>
<polygon fill="black" stroke="black" points="320.231,-445.5 330.231,-442 320.231,-438.5 320.231,-445.5"/>
<text text-anchor="middle" x="272" y="-446" font-family="Sans" font-size="10.00">fixes</text>
</g>
<!-- aquilon#115 -->
<g id="node64" class="node"><title>aquilon#115</title>
<a xlink:href="https://github.com/quattor/aquilon/pull/115" xlink:title="services: insert service data early in the object template" target="_parent">
<polygon fill="#6cc644" stroke="black" points="158,-1922 78,-1922 78,-1868 158,-1868 158,-1922"/>
<text text-anchor="middle" x="118" y="-1899" font-family="Sans" font-size="10.00">pull-request</text>
<text text-anchor="middle" x="118" y="-1886" font-family="Sans" font-size="10.00">aquilon#115</text>
</a>
</g>
<!-- aquilon#109 -->
<g id="node66" class="node"><title>aquilon#109</title>
<a xlink:href="https://github.com/quattor/aquilon/issues/109" xlink:title="Why service configuration is included so late in the plenary object?" target="_parent">
<ellipse fill="#6cc644" stroke="black" cx="426" cy="-1884" rx="56.0679" ry="38.1838"/>
<text text-anchor="middle" x="426" y="-1888" font-family="Sans" font-size="10.00">issue</text>
<text text-anchor="middle" x="426" y="-1875" font-family="Sans" font-size="10.00">aquilon#109</text>
</a>
</g>
<!-- aquilon#115&#45;&gt;aquilon#109 -->
<g id="edge50" class="edge"><title>aquilon#115-&gt;aquilon#109</title>
<path fill="none" stroke="black" stroke-width="2" d="M158.266,-1893.56C209.287,-1891.74 297.94,-1888.57 359.174,-1886.39"/>
<polygon fill="black" stroke="black" points="359.645,-1889.87 369.514,-1886.02 359.395,-1882.88 359.645,-1889.87"/>
<text text-anchor="middle" x="272" y="-1893" font-family="Sans" font-size="10.00">fixes</text>
</g>
<!-- aquilon#110 -->
<g id="node67" class="node"><title>aquilon#110</title>
<a xlink:href="https://github.com/quattor/aquilon/pull/110" xlink:title="Change site and machine namespace to use continent name" target="_parent">
<polygon fill="#6cc644" stroke="black" points="158,-1850 78,-1850 78,-1796 158,-1796 158,-1850"/>
<text text-anchor="middle" x="118" y="-1827" font-family="Sans" font-size="10.00">pull-request</text>
<text text-anchor="middle" x="118" y="-1814" font-family="Sans" font-size="10.00">aquilon#110</text>
</a>
</g>
<!-- aquilon#104 -->
<g id="node69" class="node"><title>aquilon#104</title>
<a xlink:href="https://github.com/quattor/aquilon/issues/104" xlink:title="1.12.62: location related templates cannot be used" target="_parent">
<ellipse fill="#6cc644" stroke="black" cx="426" cy="-1777" rx="56.0679" ry="38.1838"/>
<text text-anchor="middle" x="426" y="-1781" font-family="Sans" font-size="10.00">issue</text>
<text text-anchor="middle" x="426" y="-1768" font-family="Sans" font-size="10.00">aquilon#104</text>
</a>
</g>
<!-- aquilon#110&#45;&gt;aquilon#104 -->
<g id="edge52" class="edge"><title>aquilon#110-&gt;aquilon#104</title>
<path fill="none" stroke="black" stroke-width="2" d="M158.266,-1816.99C209.701,-1809.3 299.383,-1795.91 360.661,-1786.76"/>
<polygon fill="black" stroke="black" points="361.246,-1790.21 370.619,-1785.27 360.212,-1783.29 361.246,-1790.21"/>
<text text-anchor="middle" x="272" y="-1805" font-family="Sans" font-size="10.00">fixes</text>
</g>
<!-- aquilon#91 -->
<g id="node70" class="node"><title>aquilon#91</title>
<a xlink:href="https://github.com/quattor/aquilon/issues/91" xlink:title="1.12.58: city timezone is not passed to the object template" target="_parent">
<ellipse fill="#6cc644" stroke="black" cx="118" cy="-1740" rx="53.033" ry="38.1838"/>
<text text-anchor="middle" x="118" y="-1744" font-family="Sans" font-size="10.00">issue</text>
<text text-anchor="middle" x="118" y="-1731" font-family="Sans" font-size="10.00">aquilon#91</text>
</a>
</g>
<!-- aquilon#91&#45;&gt;aquilon#104 -->
<g id="edge54" class="edge"><title>aquilon#91-&gt;aquilon#104</title>
<path fill="none" stroke="black" stroke-dasharray="5,2" d="M170.597,-1746.32C222.922,-1752.6 303.362,-1762.27 359.958,-1769.07"/>
<polygon fill="none" stroke="black" points="359.89,-1772.58 370.236,-1770.3 360.725,-1765.63 359.89,-1772.58"/>
<text text-anchor="middle" x="272" y="-1763" font-family="Sans" font-size="10.00">requires</text>
</g>
<!-- aquilon#89 -->
<g id="node72" class="node"><title>aquilon#89</title>
<a xlink:href="https://github.com/quattor/aquilon/pull/89" xlink:title="Broker: pass archetype to the object profile" target="_parent">
<polygon fill="#6cc644" stroke="black" points="157,-1684 79,-1684 79,-1630 157,-1630 157,-1684"/>
<text text-anchor="middle" x="118" y="-1661" font-family="Sans" font-size="10.00">pull-request</text>
<text text-anchor="middle" x="118" y="-1648" font-family="Sans" font-size="10.00">aquilon#89</text>
</a>
</g>
<!-- aquilon#88 -->
<g id="node74" class="node"><title>aquilon#88</title>
<a xlink:href="https://github.com/quattor/aquilon/issues/88" xlink:title="1.12.58: the broker should pass the archetype to the object template" target="_parent">
<ellipse fill="#6cc644" stroke="black" cx="426" cy="-1668" rx="53.033" ry="38.1838"/>
<text text-anchor="middle" x="426" y="-1672" font-family="Sans" font-size="10.00">issue</text>
<text text-anchor="middle" x="426" y="-1659" font-family="Sans" font-size="10.00">aquilon#88</text>
</a>
</g>
<!-- aquilon#89&#45;&gt;aquilon#88 -->
<g id="edge56" class="edge"><title>aquilon#89-&gt;aquilon#88</title>
<path fill="none" stroke="black" stroke-width="2" d="M157.635,-1658.42C209.471,-1660.27 300.91,-1663.53 362.468,-1665.73"/>
<polygon fill="black" stroke="black" points="362.72,-1669.24 372.839,-1666.1 362.97,-1662.25 362.72,-1669.24"/>
<text text-anchor="middle" x="272" y="-1667" font-family="Sans" font-size="10.00">fixes</text>
</g>
</g>
</svg>
