<?xml version="1.0" encoding="UTF-8" standalone="no"?>
<?xml-stylesheet href="relationships.css" type="text/css"?>
<!-- Generated by graphviz version 2.30.1 (20200930.0103)
 -->
<!-- Title: Dependencies Pages: 1 -->
<svg xmlns="http://www.w3.org/2000/svg" xmlns:xlink="http://www.w3.org/1999/xlink" width="1118pt" height="1864pt" viewBox="0.00 0.00 1118.00 1864.00">
<g id="graph0" class="graph" transform="scale(1 1) rotate(0) translate(4 1860)">
<title>Dependencies</title>
<polygon fill="white" stroke="white" points="-4,5 -4,-1860 1115,-1860 1115,5 -4,5"/>
<g id="clust3" class="cluster"><title>cluster_milestone_21.9</title>
<polygon fill="none" stroke="black" points="16,-795 16,-1246 538,-1246 538,-795 16,-795"/>
<text text-anchor="middle" x="277" y="-1232.4" font-family="Sans" font-size="12.00">21.9</text>
</g>
<g id="clust2" class="cluster"><title>cluster_milestone_21.7</title>
<polygon fill="none" stroke="black" points="335,-218 335,-511 1102,-511 1102,-218 335,-218"/>
<text text-anchor="middle" x="718.5" y="-497.4" font-family="Sans" font-size="12.00">21.7</text>
</g>
<g id="clust1" class="cluster"><title>cluster_milestone_22.2</title>
<polygon fill="none" stroke="black" points="15,-1254 15,-1421 529,-1421 529,-1254 15,-1254"/>
<text text-anchor="middle" x="272" y="-1407.4" font-family="Sans" font-size="12.00">22.2</text>
</g>
<g id="clust4" class="cluster"><title>cluster_repo_aquilon</title>
<polygon fill="none" stroke="black" points="8,-1557 8,-1848 530,-1848 530,-1557 8,-1557"/>
<text text-anchor="middle" x="269" y="-1834.4" font-family="Sans" font-size="12.00">aquilon</text>
</g>
<!-- aii#328 -->
<g id="node1" class="node"><title>aii#328</title>
<g id="a_node1"><a xlink:href="https://github.com/quattor/aii/pull/328" xlink:title="aii#328 (pull-request)" target="_parent">
<polygon fill="#6cc644" stroke="black" points="206,-853 24,-853 24,-803 206,-803 206,-853"/>
<text text-anchor="middle" x="115" y="-831" font-family="Sans" font-size="10.00">aii-ks: generate ks post section</text>
<text text-anchor="middle" x="115" y="-820" font-family="Sans" font-size="10.00">as standalone script</text>
</a>
</g>
</g>
<!-- aii#280 -->
<g id="node2" class="node"><title>aii#280</title>
<g id="a_node2"><a xlink:href="https://github.com/quattor/aii/pull/280" xlink:title="aii#280 (pull-request)" target="_parent">
<polygon fill="#6cc644" stroke="black" points="825,-476 659,-476 659,-426 825,-426 825,-476"/>
<text text-anchor="middle" x="742" y="-454" font-family="Sans" font-size="10.00">Support active configuration</text>
<text text-anchor="middle" x="742" y="-443" font-family="Sans" font-size="10.00">attribute for plugins</text>
</a>
</g>
</g>
<!-- aii#328&#45;&gt;aii#280 -->
<g id="edge1" class="edge"><title>aii#328-&gt;aii#280</title>
<path fill="none" stroke="black" stroke-dasharray="5,2" d="M126.254,-802.599C151.048,-744.657 220.126,-602.457 326,-534 329.423,-531.787 527.631,-492.737 648.851,-468.999"/>
<polygon fill="none" stroke="black" points="649.745,-472.39 658.886,-467.034 648.4,-465.521 649.745,-472.39"/>
<text text-anchor="middle" x="340.827" y="-518.251" font-family="Sans" font-size="10.00">requires</text>
</g>
<!-- aii#316 -->
<g id="node3" class="node"><title>aii#316</title>
<g id="a_node3"><a xlink:href="https://github.com/quattor/aii/pull/316" xlink:title="aii#316 (pull-request)" target="_parent">
<polygon fill="#6cc644" stroke="black" points="519,-481.5 343,-481.5 343,-420.5 519,-420.5 519,-481.5"/>
<text text-anchor="middle" x="431" y="-459.5" font-family="Sans" font-size="10.00">aii-ks: generate kickstart repo</text>
<text text-anchor="middle" x="431" y="-448.5" font-family="Sans" font-size="10.00">entries based on SPMA</text>
<text text-anchor="middle" x="431" y="-437.5" font-family="Sans" font-size="10.00">configuration</text>
</a>
</g>
</g>
<!-- aii#328&#45;&gt;aii#316 -->
<g id="edge2" class="edge"><title>aii#328-&gt;aii#316</title>
<path fill="none" stroke="black" stroke-dasharray="5,2" d="M124.01,-802.914C146.941,-740.75 218.196,-579.208 326,-487 328.698,-484.692 331.533,-482.486 334.471,-480.382"/>
<polygon fill="none" stroke="black" points="336.602,-483.169 342.999,-474.723 332.732,-477.336 336.602,-483.169"/>
<text text-anchor="middle" x="191.722" y="-617.224" font-family="Sans" font-size="10.00">requires</text>
</g>
<!-- aii#328&#45;&gt;aii#280 -->
<g id="edge12" class="edge"><title>aii#328-&gt;aii#280</title>
<path fill="none" stroke="black" stroke-dasharray="5,2" d="M128.243,-802.994C155.619,-749.953 227.224,-626.192 326,-567 408.247,-517.713 445.65,-552.793 538,-527 583.776,-514.215 633.794,-495.547 672.726,-479.913"/>
<polygon fill="none" stroke="black" points="674.419,-483.004 682.376,-476.009 671.793,-476.514 674.419,-483.004"/>
<text text-anchor="middle" x="363.151" y="-535.035" font-family="Sans" font-size="10.00">requires</text>
</g>
<!-- aii#328&#45;&gt;aii#316 -->
<g id="edge13" class="edge"><title>aii#328-&gt;aii#316</title>
<path fill="none" stroke="black" stroke-dasharray="5,2" d="M127.651,-802.949C153.877,-743.377 223.379,-592.775 326,-505 334.557,-497.681 344.486,-491.385 354.746,-485.921"/>
<polygon fill="none" stroke="black" points="356.479,-488.966 363.821,-481.328 353.318,-482.721 356.479,-488.966"/>
<text text-anchor="middle" x="242.169" y="-618.455" font-family="Sans" font-size="10.00">requires</text>
</g>
<!-- aii#209 -->
<g id="node9" class="node"><title>aii#209</title>
<g id="a_node9"><a xlink:href="https://github.com/quattor/aii/issues/209" xlink:title="aii#209 (issue)" target="_parent">
<path fill="#6cc644" stroke="black" d="M1082,-470.5C1082,-470.5 960,-470.5 960,-470.5 954,-470.5 948,-464.5 948,-458.5 948,-458.5 948,-443.5 948,-443.5 948,-437.5 954,-431.5 960,-431.5 960,-431.5 1082,-431.5 1082,-431.5 1088,-431.5 1094,-437.5 1094,-443.5 1094,-443.5 1094,-458.5 1094,-458.5 1094,-464.5 1088,-470.5 1082,-470.5"/>
<text text-anchor="middle" x="1021" y="-448.5" font-family="Sans" font-size="10.00">support ACTIVE_CONFIG</text>
</a>
</g>
</g>
<!-- aii#280&#45;&gt;aii#209 -->
<g id="edge8" class="edge"><title>aii#280-&gt;aii#209</title>
<path fill="none" stroke="black" stroke-width="2" d="M825.359,-444.769C860.775,-444.078 902.087,-444.077 937.517,-444.767"/>
<polygon fill="black" stroke="black" points="937.752,-448.273 947.826,-444.991 937.905,-441.274 937.752,-448.273"/>
<text text-anchor="middle" x="874.378" y="-436.254" font-family="Sans" font-size="10.00">fixes</text>
</g>
<!-- ncm&#45;ncd#74 -->
<g id="node10" class="node"><title>ncm-ncd#74</title>
<polygon fill="lightgrey" stroke="black" points="1066.5,-209.5 975.5,-209.5 975.5,-170.5 1066.5,-170.5 1066.5,-209.5"/>
<text text-anchor="middle" x="1021" y="-187.5" font-family="Sans" font-size="10.00">ncm-ncd#74</text>
</g>
<!-- aii#280&#45;&gt;ncm&#45;ncd#74 -->
<g id="edge9" class="edge"><title>aii#280-&gt;ncm-ncd#74</title>
<path fill="none" stroke="black" stroke-dasharray="5,2" d="M792.959,-425.787C809.281,-418.101 826.629,-408.444 840,-396 911.388,-329.563 872.724,-266.997 948,-205 953.33,-200.61 959.495,-197.012 965.93,-194.142"/>
<polygon fill="none" stroke="black" points="967.418,-197.32 975.485,-190.452 964.896,-190.79 967.418,-197.32"/>
<text text-anchor="middle" x="869.574" y="-301.628" font-family="Sans" font-size="10.00">requires</text>
</g>
<!-- aii#203 -->
<g id="node11" class="node"><title>aii#203</title>
<polygon fill="lightgrey" stroke="black" points="1054.5,-152.5 987.5,-152.5 987.5,-113.5 1054.5,-113.5 1054.5,-152.5"/>
<text text-anchor="middle" x="1021" y="-130.5" font-family="Sans" font-size="10.00">aii#203</text>
</g>
<!-- aii#280&#45;&gt;aii#203 -->
<g id="edge10" class="edge"><title>aii#280-&gt;aii#203</title>
<path fill="none" stroke="black" stroke-dasharray="5,2" d="M794.928,-425.93C810.927,-418.388 827.579,-408.749 840,-396 922.756,-311.055 862.244,-233.915 948,-152 956.242,-144.127 966.947,-138.396 977.57,-134.581"/>
<polygon fill="none" stroke="black" points="978.702,-137.894 987.231,-131.609 976.644,-131.204 978.702,-137.894"/>
<text text-anchor="middle" x="871.969" y="-270.982" font-family="Sans" font-size="10.00">requires</text>
</g>
<!-- aii#210 -->
<g id="node12" class="node"><title>aii#210</title>
<polygon fill="lightgrey" stroke="black" points="1054.5,-95.5 987.5,-95.5 987.5,-56.5 1054.5,-56.5 1054.5,-95.5"/>
<text text-anchor="middle" x="1021" y="-73.5" font-family="Sans" font-size="10.00">aii#210</text>
</g>
<!-- aii#280&#45;&gt;aii#210 -->
<g id="edge11" class="edge"><title>aii#280-&gt;aii#210</title>
<path fill="none" stroke="black" stroke-dasharray="1,5" d="M796.488,-425.974C812.205,-418.53 828.298,-408.913 840,-396 935.44,-290.683 848.835,-196.818 948,-95 956.024,-86.7611 966.751,-80.9001 977.47,-77.0866"/>
<polygon fill="black" stroke="black" points="987.234,-74.1505 978.953,-81.3397 982.445,-75.5904 977.657,-77.0303 977.657,-77.0303 977.657,-77.0303 982.445,-75.5904 976.361,-72.7209 987.234,-74.1505 987.234,-74.1505"/>
<text text-anchor="middle" x="871.289" y="-241.974" font-family="Sans" font-size="10.00">replaces</text>
</g>
<!-- aii#280&#45;&gt;aii#209 -->
<g id="edge19" class="edge"><title>aii#280-&gt;aii#209</title>
<path fill="none" stroke="black" stroke-width="2" d="M825.359,-457.231C860.775,-457.922 902.087,-457.923 937.517,-457.233"/>
<polygon fill="black" stroke="black" points="937.905,-460.726 947.826,-457.009 937.752,-453.727 937.905,-460.726"/>
<text text-anchor="middle" x="874.378" y="-449.746" font-family="Sans" font-size="10.00">fixes</text>
</g>
<!-- aii#280&#45;&gt;ncm&#45;ncd#74 -->
<g id="edge20" class="edge"><title>aii#280-&gt;ncm-ncd#74</title>
<path fill="none" stroke="black" stroke-dasharray="5,2" d="M824.856,-425.937C830.244,-422.299 835.361,-418.317 840,-414 911.388,-347.563 872.724,-284.997 948,-223 953.33,-218.61 959.495,-215.012 965.93,-211.988"/>
<polygon fill="none" stroke="black" points="967.641,-215.064 975.485,-207.943 964.912,-208.618 967.641,-215.064"/>
<text text-anchor="middle" x="913.05" y="-306.978" font-family="Sans" font-size="10.00">requires</text>
</g>
<!-- aii#280&#45;&gt;aii#203 -->
<g id="edge21" class="edge"><title>aii#280-&gt;aii#203</title>
<path fill="none" stroke="black" stroke-dasharray="5,2" d="M825.345,-426.438C830.62,-422.684 835.578,-418.539 840,-414 922.756,-329.055 862.244,-251.915 948,-170 956.326,-162.047 967.165,-156.279 977.896,-151.786"/>
<polygon fill="none" stroke="black" points="979.188,-155.038 987.231,-148.142 976.643,-148.517 979.188,-155.038"/>
<text text-anchor="middle" x="913.645" y="-277.691" font-family="Sans" font-size="10.00">requires</text>
</g>
<!-- aii#280&#45;&gt;aii#210 -->
<g id="edge22" class="edge"><title>aii#280-&gt;aii#210</title>
<path fill="none" stroke="black" stroke-dasharray="1,5" d="M825.263,-427.129C830.624,-423.206 835.62,-418.834 840,-414 935.44,-308.683 848.835,-214.818 948,-113 956.106,-104.677 966.97,-98.7807 977.798,-94.2731"/>
<polygon fill="black" stroke="black" points="987.234,-90.6431 979.516,-98.4337 982.567,-92.4384 977.9,-94.2337 977.9,-94.2337 977.9,-94.2337 982.567,-92.4384 976.285,-90.0338 987.234,-90.6431 987.234,-90.6431"/>
<text text-anchor="middle" x="913.824" y="-250.14" font-family="Sans" font-size="10.00">replaces</text>
</g>
<!-- aii#316&#45;&gt;aii#280 -->
<g id="edge4" class="edge"><title>aii#316-&gt;aii#280</title>
<path fill="none" stroke="black" stroke-dasharray="5,2" d="M519.308,-444.853C559.784,-444.079 607.902,-444.05 648.948,-444.766"/>
<polygon fill="none" stroke="black" points="648.884,-448.265 658.949,-444.958 649.018,-441.267 648.884,-448.265"/>
<text text-anchor="middle" x="569.122" y="-436.251" font-family="Sans" font-size="10.00">requires</text>
</g>
<!-- aii#314 -->
<g id="node6" class="node"><title>aii#314</title>
<polygon fill="lightgrey" stroke="black" points="775.5,-152.5 708.5,-152.5 708.5,-113.5 775.5,-113.5 775.5,-152.5"/>
<text text-anchor="middle" x="742" y="-130.5" font-family="Sans" font-size="10.00">aii#314</text>
</g>
<!-- aii#316&#45;&gt;aii#314 -->
<g id="edge5" class="edge"><title>aii#316-&gt;aii#314</title>
<path fill="none" stroke="black" stroke-dasharray="5,2" d="M510.995,-420.695C520.856,-415.615 530.198,-409.494 538,-402 625.035,-318.394 553.698,-232.067 644,-152 658.939,-138.754 679.787,-131.753 698.329,-128.853"/>
<polygon fill="none" stroke="black" points="698.829,-132.319 708.341,-127.651 697.995,-125.368 698.829,-132.319"/>
<text text-anchor="middle" x="570.132" y="-264.225" font-family="Sans" font-size="10.00">requires</text>
</g>
<!-- aii#315 -->
<g id="node7" class="node"><title>aii#315</title>
<polygon fill="lightgrey" stroke="black" points="775.5,-209.5 708.5,-209.5 708.5,-170.5 775.5,-170.5 775.5,-209.5"/>
<text text-anchor="middle" x="742" y="-187.5" font-family="Sans" font-size="10.00">aii#315</text>
</g>
<!-- aii#316&#45;&gt;aii#315 -->
<g id="edge6" class="edge"><title>aii#316-&gt;aii#315</title>
<path fill="none" stroke="black" stroke-dasharray="5,2" d="M509.009,-420.685C519.455,-415.57 529.49,-409.449 538,-402 612.814,-336.515 565.446,-265.948 644,-205 659.425,-193.032 680.034,-186.948 698.288,-184.653"/>
<polygon fill="none" stroke="black" points="698.777,-188.123 708.421,-183.738 698.147,-181.152 698.777,-188.123"/>
<text text-anchor="middle" x="570.46" y="-289.882" font-family="Sans" font-size="10.00">requires</text>
</g>
<!-- aii#316&#45;&gt;aii#280 -->
<g id="edge15" class="edge"><title>aii#316-&gt;aii#280</title>
<path fill="none" stroke="black" stroke-dasharray="5,2" d="M519.308,-457.147C559.784,-457.921 607.902,-457.95 648.948,-457.234"/>
<polygon fill="none" stroke="black" points="649.018,-460.733 658.949,-457.042 648.884,-453.735 649.018,-460.733"/>
<text text-anchor="middle" x="569.122" y="-449.749" font-family="Sans" font-size="10.00">requires</text>
</g>
<!-- aii#316&#45;&gt;aii#314 -->
<g id="edge16" class="edge"><title>aii#316-&gt;aii#314</title>
<path fill="none" stroke="black" stroke-dasharray="5,2" d="M519.186,-434.079C525.999,-430.056 532.397,-425.382 538,-420 625.035,-336.394 553.698,-250.067 644,-170 658.939,-156.754 679.787,-149.753 698.329,-145.268"/>
<polygon fill="none" stroke="black" points="699.355,-148.624 708.341,-143.012 697.816,-141.796 699.355,-148.624"/>
<text text-anchor="middle" x="570.549" y="-278.288" font-family="Sans" font-size="10.00">requires</text>
</g>
<!-- aii#316&#45;&gt;aii#315 -->
<g id="edge17" class="edge"><title>aii#316-&gt;aii#315</title>
<path fill="none" stroke="black" stroke-dasharray="5,2" d="M519.189,-433.212C525.92,-429.38 532.302,-424.988 538,-420 612.814,-354.515 565.446,-283.948 644,-223 659.497,-210.976 680.226,-204.892 698.542,-201.071"/>
<polygon fill="none" stroke="black" points="699.27,-204.495 708.421,-199.157 697.938,-197.623 699.27,-204.495"/>
<text text-anchor="middle" x="571.517" y="-303.19" font-family="Sans" font-size="10.00">requires</text>
</g>
<!-- aii#325 -->
<g id="node4" class="node"><title>aii#325</title>
<g id="a_node4"><a xlink:href="https://github.com/quattor/aii/pull/325" xlink:title="aii#325 (pull-request)" target="_parent">
<polygon fill="#6e5494" stroke="black" points="502,-333.5 360,-333.5 360,-294.5 502,-294.5 502,-333.5"/>
<text text-anchor="middle" x="431" y="-311.5" font-family="Sans" font-size="10.00">Use wipefs for RHEL6+</text>
</a>
</g>
</g>
<!-- ncm&#45;lib&#45;blockdevices#93 -->
<g id="node5" class="node"><title>ncm-lib-blockdevices#93</title>
<polygon fill="lightgrey" stroke="black" points="818.5,-95.5 665.5,-95.5 665.5,-56.5 818.5,-56.5 818.5,-95.5"/>
<text text-anchor="middle" x="742" y="-73.5" font-family="Sans" font-size="10.00">ncm-lib-blockdevices#93</text>
</g>
<!-- aii#325&#45;&gt;ncm&#45;lib&#45;blockdevices#93 -->
<g id="edge3" class="edge"><title>aii#325-&gt;ncm-lib-blockdevices#93</title>
<path fill="none" stroke="black" stroke-dasharray="5,2" d="M500.666,-294.744C513.943,-290.308 527.098,-284.357 538,-276 611.986,-219.283 570.412,-152.232 644,-95 647.779,-92.061 651.856,-89.4304 656.124,-87.0868"/>
<polygon fill="none" stroke="black" points="657.683,-90.2202 665.119,-82.6724 654.599,-83.9361 657.683,-90.2202"/>
<text text-anchor="middle" x="569.823" y="-182.779" font-family="Sans" font-size="10.00">requires</text>
</g>
<!-- aii#325&#45;&gt;ncm&#45;lib&#45;blockdevices#93 -->
<g id="edge14" class="edge"><title>aii#325-&gt;ncm-lib-blockdevices#93</title>
<path fill="none" stroke="black" stroke-dasharray="5,2" d="M502.048,-311.916C514.854,-307.892 527.476,-302.067 538,-294 611.986,-237.283 570.412,-170.232 644,-113 651.445,-107.21 660.046,-102.617 668.987,-98.8897"/>
<polygon fill="none" stroke="black" points="670.296,-102.136 678.395,-95.3053 667.804,-95.5952 670.296,-102.136"/>
<text text-anchor="middle" x="571.055" y="-196.057" font-family="Sans" font-size="10.00">requires</text>
</g>
<!-- aii#299 -->
<g id="node8" class="node"><title>aii#299</title>
<g id="a_node8"><a xlink:href="https://github.com/quattor/aii/pull/299" xlink:title="aii#299 (pull-request)" target="_parent">
<polygon fill="#6cc644" stroke="black" points="191.5,-1137 38.5,-1137 38.5,-1087 191.5,-1087 191.5,-1137"/>
<text text-anchor="middle" x="115" y="-1115" font-family="Sans" font-size="10.00">aii-dhcp: support optional</text>
<text text-anchor="middle" x="115" y="-1104" font-family="Sans" font-size="10.00">hostname ip verification</text>
</a>
</g>
</g>
<!-- aii#299&#45;&gt;aii#280 -->
<g id="edge7" class="edge"><title>aii#299-&gt;aii#280</title>
<path fill="none" stroke="black" stroke-dasharray="5,2" d="M178.14,-1086.95C191.727,-1081.96 205.71,-1076.08 218,-1069 382.488,-974.179 417.161,-932.442 538,-786 620.492,-686.03 690.737,-548.669 722.647,-485.306"/>
<polygon fill="none" stroke="black" points="725.886,-486.654 727.254,-476.148 719.633,-483.508 725.886,-486.654"/>
<text text-anchor="middle" x="518.002" y="-777.998" font-family="Sans" font-size="10.00">requires</text>
</g>
<!-- aii#299&#45;&gt;aii#280 -->
<g id="edge18" class="edge"><title>aii#299-&gt;aii#280</title>
<path fill="none" stroke="black" stroke-dasharray="5,2" d="M191.602,-1099.59C200.743,-1095.96 209.752,-1091.75 218,-1087 382.488,-992.179 417.161,-950.442 538,-804 624.9,-698.688 698.21,-551.882 727.43,-485.61"/>
<polygon fill="none" stroke="black" points="730.805,-486.624 731.577,-476.057 724.384,-483.836 730.805,-486.624"/>
<text text-anchor="middle" x="518.004" y="-795.995" font-family="Sans" font-size="10.00">requires</text>
</g>
<!-- CAF#257 -->
<g id="node13" class="node"><title>CAF#257</title>
<g id="a_node13"><a xlink:href="https://github.com/quattor/CAF/pull/257" xlink:title="CAF#257 (pull-request)" target="_parent">
<polygon fill="#6cc644" stroke="black" points="206.5,-1386 23.5,-1386 23.5,-1336 206.5,-1336 206.5,-1386"/>
<text text-anchor="middle" x="115" y="-1364" font-family="Sans" font-size="10.00">Process: run process as another</text>
<text text-anchor="middle" x="115" y="-1353" font-family="Sans" font-size="10.00">user</text>
</a>
</g>
</g>
<!-- CAF#253 -->
<g id="node14" class="node"><title>CAF#253</title>
<g id="a_node14"><a xlink:href="https://github.com/quattor/CAF/issues/253" xlink:title="CAF#253 (issue)" target="_parent">
<path fill="#6cc644" stroke="black" d="M509,-1391.5C509,-1391.5 353,-1391.5 353,-1391.5 347,-1391.5 341,-1385.5 341,-1379.5 341,-1379.5 341,-1342.5 341,-1342.5 341,-1336.5 347,-1330.5 353,-1330.5 353,-1330.5 509,-1330.5 509,-1330.5 515,-1330.5 521,-1336.5 521,-1342.5 521,-1342.5 521,-1379.5 521,-1379.5 521,-1385.5 515,-1391.5 509,-1391.5"/>
<text text-anchor="middle" x="431" y="-1369.5" font-family="Sans" font-size="10.00">CAF::Process: Include an option</text>
<text text-anchor="middle" x="431" y="-1358.5" font-family="Sans" font-size="10.00">to execute the command as an</text>
<text text-anchor="middle" x="431" y="-1347.5" font-family="Sans" font-size="10.00">specific user</text>
</a>
</g>
</g>
<!-- CAF#257&#45;&gt;CAF#253 -->
<g id="edge23" class="edge"><title>CAF#257-&gt;CAF#253</title>
<path fill="none" stroke="black" stroke-width="2" d="M206.822,-1361C245.561,-1361 290.88,-1361 330.522,-1361"/>
<polygon fill="black" stroke="black" points="330.737,-1364.5 340.737,-1361 330.737,-1357.5 330.737,-1364.5"/>
<text text-anchor="middle" x="261.782" y="-1353" font-family="Sans" font-size="10.00">fixes</text>
</g>
<!-- CAF#110 -->
<g id="node15" class="node"><title>CAF#110</title>
<g id="a_node15"><a xlink:href="https://github.com/quattor/CAF/pull/110" xlink:title="CAF#110 (pull-request)" target="_parent">
<polygon fill="#6cc644" stroke="black" points="190.5,-1069 39.5,-1069 39.5,-1019 190.5,-1019 190.5,-1069"/>
<text text-anchor="middle" x="115" y="-1047" font-family="Sans" font-size="10.00">CAF::Download class: API</text>
<text text-anchor="middle" x="115" y="-1036" font-family="Sans" font-size="10.00">proposal</text>
</a>
</g>
</g>
<!-- CAF#120 -->
<g id="node16" class="node"><title>CAF#120</title>
<polygon fill="lightgrey" stroke="black" points="468,-786.5 394,-786.5 394,-747.5 468,-747.5 468,-786.5"/>
<text text-anchor="middle" x="431" y="-764.5" font-family="Sans" font-size="10.00">CAF#120</text>
</g>
<!-- CAF#110&#45;&gt;CAF#120 -->
<g id="edge24" class="edge"><title>CAF#110-&gt;CAF#120</title>
<path fill="none" stroke="black" stroke-dasharray="5,2" d="M190.547,-1026.2C200.478,-1021.68 209.982,-1016.04 218,-1009 299.242,-937.647 241.168,-858.045 326,-791 342.342,-778.085 364.383,-771.884 383.969,-768.992"/>
<polygon fill="none" stroke="black" points="384.447,-772.46 393.944,-767.763 383.591,-765.512 384.447,-772.46"/>
<text text-anchor="middle" x="251.463" y="-885.592" font-family="Sans" font-size="10.00">requires</text>
</g>
<!-- configuration&#45;modules&#45;core#1490 -->
<g id="node17" class="node"><title>configuration-modules-core#1490</title>
<g id="a_node17"><a xlink:href="https://github.com/quattor/configuration-modules-core/pull/1490" xlink:title="configuration-modules-core#1490 (pull-request)" target="_parent">
<polygon fill="#6cc644" stroke="black" points="198.5,-1000.5 31.5,-1000.5 31.5,-939.5 198.5,-939.5 198.5,-1000.5"/>
<text text-anchor="middle" x="115" y="-978.5" font-family="Sans" font-size="10.00">ncm-ceph: Add support for</text>
<text text-anchor="middle" x="115" y="-967.5" font-family="Sans" font-size="10.00">orchestrator/cephadm under</text>
<text text-anchor="middle" x="115" y="-956.5" font-family="Sans" font-size="10.00">octopus</text>
</a>
</g>
</g>
<!-- configuration&#45;modules&#45;core#1463 -->
<g id="node18" class="node"><title>configuration-modules-core#1463</title>
<polygon fill="lightgrey" stroke="black" points="528.5,-729.5 333.5,-729.5 333.5,-690.5 528.5,-690.5 528.5,-729.5"/>
<text text-anchor="middle" x="431" y="-707.5" font-family="Sans" font-size="10.00">configuration-modules-core#1463</text>
</g>
<!-- configuration&#45;modules&#45;core#1490&#45;&gt;configuration&#45;modules&#45;core#1463 -->
<g id="edge25" class="edge"><title>configuration-modules-core#1490-&gt;configuration-modules-core#1463</title>
<path fill="none" stroke="black" stroke-dasharray="1,5" d="M198.54,-943.582C205.502,-939.625 212.117,-935.119 218,-930 291.86,-865.732 248.696,-798.083 326,-738 327.578,-736.774 329.205,-735.601 330.875,-734.479"/>
<polygon fill="black" stroke="black" points="339.549,-729.288 333.279,-738.285 335.258,-731.856 330.968,-734.424 330.968,-734.424 330.968,-734.424 335.258,-731.856 328.657,-730.563 339.549,-729.288 339.549,-729.288"/>
<text text-anchor="middle" x="248.664" y="-828.617" font-family="Sans" font-size="10.00">replaces</text>
</g>
<!-- configuration&#45;modules&#45;core#1452 -->
<g id="node19" class="node"><title>configuration-modules-core#1452</title>
<g id="a_node19"><a xlink:href="https://github.com/quattor/configuration-modules-core/pull/1452" xlink:title="configuration-modules-core#1452 (pull-request)" target="_parent">
<polygon fill="#6cc644" stroke="black" points="201.5,-921 28.5,-921 28.5,-871 201.5,-871 201.5,-921"/>
<text text-anchor="middle" x="115" y="-899" font-family="Sans" font-size="10.00">ncm-metaconfig: ssh daemon</text>
<text text-anchor="middle" x="115" y="-888" font-family="Sans" font-size="10.00">configuration support</text>
</a>
</g>
</g>
<!-- configuration&#45;modules&#45;core#1377 -->
<g id="node20" class="node"><title>configuration-modules-core#1377</title>
<polygon fill="lightgrey" stroke="black" points="528.5,-672.5 333.5,-672.5 333.5,-633.5 528.5,-633.5 528.5,-672.5"/>
<text text-anchor="middle" x="431" y="-650.5" font-family="Sans" font-size="10.00">configuration-modules-core#1377</text>
</g>
<!-- configuration&#45;modules&#45;core#1452&#45;&gt;configuration&#45;modules&#45;core#1377 -->
<g id="edge26" class="edge"><title>configuration-modules-core#1452-&gt;configuration-modules-core#1377</title>
<path fill="none" stroke="black" stroke-dasharray="1,5" d="M201.671,-872.75C207.463,-869.601 212.982,-866.036 218,-862 291,-803.295 251.307,-737.536 326,-681 327.621,-679.773 329.293,-678.599 331.007,-677.477"/>
<polygon fill="black" stroke="black" points="339.9,-672.284 333.534,-681.213 335.582,-674.805 331.265,-677.327 331.265,-677.327 331.265,-677.327 335.582,-674.805 328.995,-673.441 339.9,-672.284 339.9,-672.284"/>
<text text-anchor="middle" x="249.765" y="-764.856" font-family="Sans" font-size="10.00">replaces</text>
</g>
<!-- configuration&#45;modules&#45;core#1451 -->
<g id="node21" class="node"><title>configuration-modules-core#1451</title>
<polygon fill="lightgrey" stroke="black" points="528.5,-615.5 333.5,-615.5 333.5,-576.5 528.5,-576.5 528.5,-615.5"/>
<text text-anchor="middle" x="431" y="-593.5" font-family="Sans" font-size="10.00">configuration-modules-core#1451</text>
</g>
<!-- configuration&#45;modules&#45;core#1452&#45;&gt;configuration&#45;modules&#45;core#1451 -->
<g id="edge27" class="edge"><title>configuration-modules-core#1452-&gt;configuration-modules-core#1451</title>
<path fill="none" stroke="black" stroke-dasharray="5,2" d="M201.949,-873.509C207.713,-870.185 213.146,-866.373 218,-862 304.305,-784.254 237.449,-699.178 326,-624 327.323,-622.877 328.687,-621.798 330.087,-620.763"/>
<polygon fill="none" stroke="black" points="332.009,-623.688 338.466,-615.288 328.18,-617.828 332.009,-623.688"/>
<text text-anchor="middle" x="250.856" y="-736.403" font-family="Sans" font-size="10.00">requires</text>
</g>
<!-- configuration&#45;modules&#45;core#1401 -->
<g id="node22" class="node"><title>configuration-modules-core#1401</title>
<g id="a_node22"><a xlink:href="https://github.com/quattor/configuration-modules-core/pull/1401" xlink:title="configuration-modules-core#1401 (pull-request)" target="_parent">
<polygon fill="#6e5494" stroke="black" points="510,-276 352,-276 352,-226 510,-226 510,-276"/>
<text text-anchor="middle" x="431" y="-254" font-family="Sans" font-size="10.00">ncm-spma: yumdnf: initial</text>
<text text-anchor="middle" x="431" y="-243" font-family="Sans" font-size="10.00">dnf/yum4 based on yum</text>
</a>
</g>
</g>
<!-- configuration&#45;modules&#45;core#1405 -->
<g id="node23" class="node"><title>configuration-modules-core#1405</title>
<polygon fill="lightgrey" stroke="black" points="839.5,-38.5 644.5,-38.5 644.5,0.5 839.5,0.5 839.5,-38.5"/>
<text text-anchor="middle" x="742" y="-16.5" font-family="Sans" font-size="10.00">configuration-modules-core#1405</text>
</g>
<!-- configuration&#45;modules&#45;core#1401&#45;&gt;configuration&#45;modules&#45;core#1405 -->
<g id="edge28" class="edge"><title>configuration-modules-core#1401-&gt;configuration-modules-core#1405</title>
<path fill="none" stroke="black" stroke-dasharray="5,2" d="M451.053,-225.972C485.086,-182.991 560.617,-95.141 644,-47 646.808,-45.3787 649.717,-43.8455 652.698,-42.3961"/>
<polygon fill="none" stroke="black" points="654.137,-45.5865 661.824,-38.2952 651.268,-39.2015 654.137,-45.5865"/>
<text text-anchor="middle" x="526.433" y="-113.61" font-family="Sans" font-size="10.00">requires</text>
</g>
<!-- configuration&#45;modules&#45;core#1336 -->
<g id="node24" class="node"><title>configuration-modules-core#1336</title>
<g id="a_node24"><a xlink:href="https://github.com/quattor/configuration-modules-core/pull/1336" xlink:title="configuration-modules-core#1336 (pull-request)" target="_parent">
<polygon fill="#6cc644" stroke="black" points="202,-1216.5 28,-1216.5 28,-1155.5 202,-1155.5 202,-1216.5"/>
<text text-anchor="middle" x="115" y="-1194.5" font-family="Sans" font-size="10.00">ncm-network: Add support for</text>
<text text-anchor="middle" x="115" y="-1183.5" font-family="Sans" font-size="10.00">CAF::Service actions after</text>
<text text-anchor="middle" x="115" y="-1172.5" font-family="Sans" font-size="10.00">changes</text>
</a>
</g>
</g>
<!-- configuration&#45;modules&#45;core#1335 -->
<g id="node25" class="node"><title>configuration-modules-core#1335</title>
<g id="a_node25"><a xlink:href="https://github.com/quattor/configuration-modules-core/pull/1335" xlink:title="configuration-modules-core#1335 (pull-request)" target="_parent">
<polygon fill="#6cc644" stroke="black" points="524,-1148.5 338,-1148.5 338,-1087.5 524,-1087.5 524,-1148.5"/>
<text text-anchor="middle" x="431" y="-1126.5" font-family="Sans" font-size="10.00">ncm-metaconfig: Remove</text>
<text text-anchor="middle" x="431" y="-1115.5" font-family="Sans" font-size="10.00">caf_service_action type to allow</text>
<text text-anchor="middle" x="431" y="-1104.5" font-family="Sans" font-size="10.00">reuse</text>
</a>
</g>
</g>
<!-- configuration&#45;modules&#45;core#1336&#45;&gt;configuration&#45;modules&#45;core#1335 -->
<g id="edge29" class="edge"><title>configuration-modules-core#1336-&gt;configuration-modules-core#1335</title>
<path fill="none" stroke="black" stroke-dasharray="5,2" d="M202.217,-1167.33C241.13,-1158.9 287.379,-1148.89 328.004,-1140.09"/>
<polygon fill="none" stroke="black" points="328.898,-1143.48 337.931,-1137.94 327.417,-1136.63 328.898,-1143.48"/>
<text text-anchor="middle" x="250.016" y="-1144.65" font-family="Sans" font-size="10.00">requires</text>
</g>
<!-- configuration&#45;modules&#45;core#1071 -->
<g id="node26" class="node"><title>configuration-modules-core#1071</title>
<g id="a_node26"><a xlink:href="https://github.com/quattor/configuration-modules-core/issues/1071" xlink:title="configuration-modules-core#1071 (issue)" target="_parent">
<path fill="#6cc644" stroke="black" d="M517.5,-1217C517.5,-1217 344.5,-1217 344.5,-1217 338.5,-1217 332.5,-1211 332.5,-1205 332.5,-1205 332.5,-1179 332.5,-1179 332.5,-1173 338.5,-1167 344.5,-1167 344.5,-1167 517.5,-1167 517.5,-1167 523.5,-1167 529.5,-1173 529.5,-1179 529.5,-1179 529.5,-1205 529.5,-1205 529.5,-1211 523.5,-1217 517.5,-1217"/>
<text text-anchor="middle" x="431" y="-1195" font-family="Sans" font-size="10.00">ncm-network: support daemons to</text>
<text text-anchor="middle" x="431" y="-1184" font-family="Sans" font-size="10.00">restart after network changes</text>
</a>
</g>
</g>
<!-- configuration&#45;modules&#45;core#1336&#45;&gt;configuration&#45;modules&#45;core#1071 -->
<g id="edge30" class="edge"><title>configuration-modules-core#1336-&gt;configuration-modules-core#1071</title>
<path fill="none" stroke="black" stroke-width="2" d="M202.217,-1187.65C239.216,-1188.35 282.848,-1189.19 321.972,-1189.94"/>
<polygon fill="black" stroke="black" points="322.279,-1193.44 332.344,-1190.13 322.413,-1186.44 322.279,-1193.44"/>
<text text-anchor="middle" x="255.527" y="-1180.9" font-family="Sans" font-size="10.00">fixes</text>
</g>
<!-- template&#45;library&#45;core#191 -->
<g id="node27" class="node"><title>template-library-core#191</title>
<polygon fill="lightgrey" stroke="black" points="821.5,-1137.5 662.5,-1137.5 662.5,-1098.5 821.5,-1098.5 821.5,-1137.5"/>
<text text-anchor="middle" x="742" y="-1115.5" font-family="Sans" font-size="10.00">template-library-core#191</text>
</g>
<!-- configuration&#45;modules&#45;core#1335&#45;&gt;template&#45;library&#45;core#191 -->
<g id="edge31" class="edge"><title>configuration-modules-core#1335-&gt;template-library-core#191</title>
<path fill="none" stroke="black" stroke-dasharray="5,2" d="M524.292,-1118C564.867,-1118 612.315,-1118 652.452,-1118"/>
<polygon fill="none" stroke="black" points="652.491,-1121.5 662.491,-1118 652.49,-1114.5 652.491,-1121.5"/>
<text text-anchor="middle" x="573.165" y="-1110" font-family="Sans" font-size="10.00">requires</text>
</g>
<!-- configuration&#45;modules&#45;core#1507 -->
<g id="node28" class="node"><title>configuration-modules-core#1507</title>
<g id="a_node28"><a xlink:href="https://github.com/quattor/configuration-modules-core/pull/1507" xlink:title="configuration-modules-core#1507 (pull-request)" target="_parent">
<polygon fill="#6cc644" stroke="black" points="203,-276 27,-276 27,-226 203,-226 203,-276"/>
<text text-anchor="middle" x="115" y="-254" font-family="Sans" font-size="10.00">[WIP] ncm-spma: yumdnf: use</text>
<text text-anchor="middle" x="115" y="-243" font-family="Sans" font-size="10.00">spmaleaves dnf plugin</text>
</a>
</g>
</g>
<!-- configuration&#45;modules&#45;core#1507&#45;&gt;configuration&#45;modules&#45;core#1401 -->
<g id="edge32" class="edge"><title>configuration-modules-core#1507-&gt;configuration-modules-core#1401</title>
<path fill="none" stroke="black" stroke-dasharray="5,2" d="M203.05,-251C246.232,-251 298.29,-251 341.649,-251"/>
<polygon fill="none" stroke="black" points="341.901,-254.5 351.9,-251 341.9,-247.5 341.901,-254.5"/>
<text text-anchor="middle" x="257.31" y="-243" font-family="Sans" font-size="10.00">requires</text>
</g>
<!-- configuration&#45;modules&#45;core#1148 -->
<g id="node29" class="node"><title>configuration-modules-core#1148</title>
<g id="a_node29"><a xlink:href="https://github.com/quattor/configuration-modules-core/pull/1148" xlink:title="configuration-modules-core#1148 (pull-request)" target="_parent">
<polygon fill="#6cc644" stroke="black" points="214.5,-1547 15.5,-1547 15.5,-1497 214.5,-1497 214.5,-1547"/>
<text text-anchor="middle" x="115" y="-1525" font-family="Sans" font-size="10.00">ncm-spma: Remove support from</text>
<text text-anchor="middle" x="115" y="-1514" font-family="Sans" font-size="10.00">groups from spma yumng backend</text>
</a>
</g>
</g>
<!-- configuration&#45;modules&#45;core#952 -->
<g id="node30" class="node"><title>configuration-modules-core#952</title>
<g id="a_node30"><a xlink:href="https://github.com/quattor/configuration-modules-core/issues/952" xlink:title="configuration-modules-core#952 (issue)" target="_parent">
<path fill="#6cc644" stroke="black" d="M524,-1547C524,-1547 338,-1547 338,-1547 332,-1547 326,-1541 326,-1535 326,-1535 326,-1509 326,-1509 326,-1503 332,-1497 338,-1497 338,-1497 524,-1497 524,-1497 530,-1497 536,-1503 536,-1509 536,-1509 536,-1535 536,-1535 536,-1541 530,-1547 524,-1547"/>
<text text-anchor="middle" x="431" y="-1525" font-family="Sans" font-size="10.00">ncm-spma (yumng): Remove support</text>
<text text-anchor="middle" x="431" y="-1514" font-family="Sans" font-size="10.00">for package groups</text>
</a>
</g>
</g>
<!-- configuration&#45;modules&#45;core#1148&#45;&gt;configuration&#45;modules&#45;core#952 -->
<g id="edge33" class="edge"><title>configuration-modules-core#1148-&gt;configuration-modules-core#952</title>
<path fill="none" stroke="black" stroke-width="2" d="M214.921,-1522C246.933,-1522 282.695,-1522 315.726,-1522"/>
<polygon fill="black" stroke="black" points="315.883,-1525.5 325.883,-1522 315.882,-1518.5 315.883,-1525.5"/>
<text text-anchor="middle" x="258.546" y="-1514" font-family="Sans" font-size="10.00">fixes</text>
</g>
<!-- configuration&#45;modules&#45;core#950 -->
<g id="node31" class="node"><title>configuration-modules-core#950</title>
<g id="a_node31"><a xlink:href="https://github.com/quattor/configuration-modules-core/issues/950" xlink:title="configuration-modules-core#950 (issue)" target="_parent">
<path fill="#6cc644" stroke="black" d="M206,-1479C206,-1479 24,-1479 24,-1479 18,-1479 12,-1473 12,-1467 12,-1467 12,-1441 12,-1441 12,-1435 18,-1429 24,-1429 24,-1429 206,-1429 206,-1429 212,-1429 218,-1435 218,-1441 218,-1441 218,-1467 218,-1467 218,-1473 212,-1479 206,-1479"/>
<text text-anchor="middle" x="115" y="-1457" font-family="Sans" font-size="10.00">ncm-spma: Remove support for</text>
<text text-anchor="middle" x="115" y="-1446" font-family="Sans" font-size="10.00">package groups from yum backends</text>
</a>
</g>
</g>
<!-- configuration&#45;modules&#45;core#951 -->
<g id="node32" class="node"><title>configuration-modules-core#951</title>
<g id="a_node32"><a xlink:href="https://github.com/quattor/configuration-modules-core/issues/951" xlink:title="configuration-modules-core#951 (issue)" target="_parent">
<path fill="#6cc644" stroke="black" d="M518,-1479C518,-1479 344,-1479 344,-1479 338,-1479 332,-1473 332,-1467 332,-1467 332,-1441 332,-1441 332,-1435 338,-1429 344,-1429 344,-1429 518,-1429 518,-1429 524,-1429 530,-1435 530,-1441 530,-1441 530,-1467 530,-1467 530,-1473 524,-1479 518,-1479"/>
<text text-anchor="middle" x="431" y="-1457" font-family="Sans" font-size="10.00">ncm-spma (yum): Remove support</text>
<text text-anchor="middle" x="431" y="-1446" font-family="Sans" font-size="10.00">for package groups</text>
</a>
</g>
</g>
<!-- configuration&#45;modules&#45;core#950&#45;&gt;configuration&#45;modules&#45;core#951 -->
<g id="edge34" class="edge"><title>configuration-modules-core#950-&gt;configuration-modules-core#951</title>
<path fill="none" stroke="black" stroke-dasharray="5,2" d="M218.381,-1454C251.386,-1454 288.071,-1454 321.502,-1454"/>
<polygon fill="none" stroke="black" points="321.765,-1457.5 331.765,-1454 321.765,-1450.5 321.765,-1457.5"/>
<text text-anchor="middle" x="255.107" y="-1446" font-family="Sans" font-size="10.00">requires</text>
</g>
<!-- configuration&#45;modules&#45;core#950&#45;&gt;configuration&#45;modules&#45;core#952 -->
<g id="edge35" class="edge"><title>configuration-modules-core#950-&gt;configuration-modules-core#952</title>
<path fill="none" stroke="black" stroke-dasharray="5,2" d="M218.381,-1476.17C249.602,-1482.93 284.116,-1490.41 316.053,-1497.32"/>
<polygon fill="none" stroke="black" points="315.361,-1500.75 325.876,-1499.45 316.843,-1493.91 315.361,-1500.75"/>
<text text-anchor="middle" x="252.372" y="-1479.86" font-family="Sans" font-size="10.00">requires</text>
</g>
<!-- template&#45;library&#45;grid#237 -->
<g id="node33" class="node"><title>template-library-grid#237</title>
<g id="a_node33"><a xlink:href="https://github.com/quattor/template-library-grid/pull/237" xlink:title="template-library-grid#237 (pull-request)" target="_parent">
<polygon fill="#6e5494" stroke="black" points="505.5,-402 356.5,-402 356.5,-352 505.5,-352 505.5,-402"/>
<text text-anchor="middle" x="431" y="-380" font-family="Sans" font-size="10.00">users: Fix collisions with</text>
<text text-anchor="middle" x="431" y="-369" font-family="Sans" font-size="10.00">system managed groups</text>
</a>
</g>
</g>
<!-- template&#45;library&#45;grid#226 -->
<g id="node34" class="node"><title>template-library-grid#226</title>
<g id="a_node34"><a xlink:href="https://github.com/quattor/template-library-grid/issues/226" xlink:title="template-library-grid#226 (issue)" target="_parent">
<path fill="#bd2c00" stroke="black" d="M788.5,-396.5C788.5,-396.5 695.5,-396.5 695.5,-396.5 689.5,-396.5 683.5,-390.5 683.5,-384.5 683.5,-384.5 683.5,-369.5 683.5,-369.5 683.5,-363.5 689.5,-357.5 695.5,-357.5 695.5,-357.5 788.5,-357.5 788.5,-357.5 794.5,-357.5 800.5,-363.5 800.5,-369.5 800.5,-369.5 800.5,-384.5 800.5,-384.5 800.5,-390.5 794.5,-396.5 788.5,-396.5"/>
<text text-anchor="middle" x="742" y="-374.5" font-family="Sans" font-size="10.00">collisions group id</text>
</a>
</g>
</g>
<!-- template&#45;library&#45;grid#237&#45;&gt;template&#45;library&#45;grid#226 -->
<g id="edge36" class="edge"><title>template-library-grid#237-&gt;template-library-grid#226</title>
<path fill="none" stroke="black" stroke-width="2" d="M505.621,-377C556.45,-377 623.544,-377 673.091,-377"/>
<polygon fill="black" stroke="black" points="673.385,-380.5 683.385,-377 673.385,-373.5 673.385,-380.5"/>
<text text-anchor="middle" x="582.645" y="-369" font-family="Sans" font-size="10.00">fixes</text>
</g>
<!-- template&#45;library&#45;grid#232 -->
<g id="node35" class="node"><title>template-library-grid#232</title>
<g id="a_node35"><a xlink:href="https://github.com/quattor/template-library-grid/pull/232" xlink:title="template-library-grid#232 (pull-request)" target="_parent">
<polygon fill="#6cc644" stroke="black" points="198.5,-1312 31.5,-1312 31.5,-1262 198.5,-1262 198.5,-1312"/>
<text text-anchor="middle" x="115" y="-1290" font-family="Sans" font-size="10.00">arc-ce: Export arc-ce feature</text>
<text text-anchor="middle" x="115" y="-1279" font-family="Sans" font-size="10.00">from aquilon at RAL</text>
</a>
</g>
</g>
<!-- template&#45;library&#45;grid#221 -->
<g id="node36" class="node"><title>template-library-grid#221</title>
<g id="a_node36"><a xlink:href="https://github.com/quattor/template-library-grid/issues/221" xlink:title="template-library-grid#221 (issue)" target="_parent">
<path fill="#6cc644" stroke="black" d="M508,-1312C508,-1312 354,-1312 354,-1312 348,-1312 342,-1306 342,-1300 342,-1300 342,-1274 342,-1274 342,-1268 348,-1262 354,-1262 354,-1262 508,-1262 508,-1262 514,-1262 520,-1268 520,-1274 520,-1274 520,-1300 520,-1300 520,-1306 514,-1312 508,-1312"/>
<text text-anchor="middle" x="431" y="-1290" font-family="Sans" font-size="10.00">Support for new CE types (ARC</text>
<text text-anchor="middle" x="431" y="-1279" font-family="Sans" font-size="10.00">CE, HTCONDOR CE)</text>
</a>
</g>
</g>
<!-- template&#45;library&#45;grid#232&#45;&gt;template&#45;library&#45;grid#221 -->
<g id="edge37" class="edge"><title>template-library-grid#232-&gt;template-library-grid#221</title>
<path fill="none" stroke="black" stroke-width="2" d="M198.911,-1287C239.702,-1287 289.151,-1287 331.823,-1287"/>
<polygon fill="black" stroke="black" points="331.947,-1290.5 341.947,-1287 331.947,-1283.5 331.947,-1290.5"/>
<text text-anchor="middle" x="258.543" y="-1279" font-family="Sans" font-size="10.00">fixes</text>
</g>
<!-- aquilon#115 -->
<g id="node37" class="node"><title>aquilon#115</title>
<g id="a_node37"><a xlink:href="https://github.com/quattor/aquilon/pull/115" xlink:title="aquilon#115 (pull-request)" target="_parent">
<polygon fill="#6cc644" stroke="black" points="198,-1819 32,-1819 32,-1769 198,-1769 198,-1819"/>
<text text-anchor="middle" x="115" y="-1797" font-family="Sans" font-size="10.00">services: insert service data</text>
<text text-anchor="middle" x="115" y="-1786" font-family="Sans" font-size="10.00">early in the object template</text>
</a>
</g>
</g>
<!-- aquilon#109 -->
<g id="node38" class="node"><title>aquilon#109</title>
<g id="a_node38"><a xlink:href="https://github.com/quattor/aquilon/issues/109" xlink:title="aquilon#109 (issue)" target="_parent">
<path fill="#6cc644" stroke="black" d="M507,-1818.5C507,-1818.5 355,-1818.5 355,-1818.5 349,-1818.5 343,-1812.5 343,-1806.5 343,-1806.5 343,-1769.5 343,-1769.5 343,-1763.5 349,-1757.5 355,-1757.5 355,-1757.5 507,-1757.5 507,-1757.5 513,-1757.5 519,-1763.5 519,-1769.5 519,-1769.5 519,-1806.5 519,-1806.5 519,-1812.5 513,-1818.5 507,-1818.5"/>
<text text-anchor="middle" x="431" y="-1796.5" font-family="Sans" font-size="10.00">Why service configuration is</text>
<text text-anchor="middle" x="431" y="-1785.5" font-family="Sans" font-size="10.00">included so late in the plenary</text>
<text text-anchor="middle" x="431" y="-1774.5" font-family="Sans" font-size="10.00">object?</text>
</a>
</g>
</g>
<!-- aquilon#115&#45;&gt;aquilon#109 -->
<g id="edge38" class="edge"><title>aquilon#115-&gt;aquilon#109</title>
<path fill="none" stroke="black" stroke-width="2" d="M198.09,-1792.43C239.304,-1791.64 289.515,-1790.68 332.663,-1789.86"/>
<polygon fill="black" stroke="black" points="332.965,-1793.35 342.896,-1789.66 332.831,-1786.36 332.965,-1793.35"/>
<text text-anchor="middle" x="258.61" y="-1783.05" font-family="Sans" font-size="10.00">fixes</text>
</g>
<!-- aquilon#110 -->
<g id="node39" class="node"><title>aquilon#110</title>
<g id="a_node39"><a xlink:href="https://github.com/quattor/aquilon/pull/110" xlink:title="aquilon#110 (pull-request)" target="_parent">
<polygon fill="#6cc644" stroke="black" points="213.5,-1683 16.5,-1683 16.5,-1633 213.5,-1633 213.5,-1683"/>
<text text-anchor="middle" x="115" y="-1661" font-family="Sans" font-size="10.00">Change site and machine</text>
<text text-anchor="middle" x="115" y="-1650" font-family="Sans" font-size="10.00">namespace to use continent name</text>
</a>
</g>
</g>
<!-- aquilon#104 -->
<g id="node40" class="node"><title>aquilon#104</title>
<g id="a_node40"><a xlink:href="https://github.com/quattor/aquilon/issues/104" xlink:title="aquilon#104 (issue)" target="_parent">
<path fill="#6cc644" stroke="black" d="M496.5,-1717C496.5,-1717 365.5,-1717 365.5,-1717 359.5,-1717 353.5,-1711 353.5,-1705 353.5,-1705 353.5,-1679 353.5,-1679 353.5,-1673 359.5,-1667 365.5,-1667 365.5,-1667 496.5,-1667 496.5,-1667 502.5,-1667 508.5,-1673 508.5,-1679 508.5,-1679 508.5,-1705 508.5,-1705 508.5,-1711 502.5,-1717 496.5,-1717"/>
<text text-anchor="middle" x="431" y="-1695" font-family="Sans" font-size="10.00">1.12.62: location related</text>
<text text-anchor="middle" x="431" y="-1684" font-family="Sans" font-size="10.00">templates cannot be used</text>
</a>
</g>
</g>
<!-- aquilon#110&#45;&gt;aquilon#104 -->
<g id="edge39" class="edge"><title>aquilon#110-&gt;aquilon#104</title>
<path fill="none" stroke="black" stroke-width="2" d="M213.63,-1668.57C255.122,-1673.06 303.101,-1678.26 343.32,-1682.61"/>
<polygon fill="black" stroke="black" points="343.05,-1686.11 353.369,-1683.7 343.804,-1679.15 343.05,-1686.11"/>
<text text-anchor="middle" x="271.634" y="-1668.15" font-family="Sans" font-size="10.00">fixes</text>
</g>
<!-- aquilon#91 -->
<g id="node41" class="node"><title>aquilon#91</title>
<g id="a_node41"><a xlink:href="https://github.com/quattor/aquilon/issues/91" xlink:title="aquilon#91 (issue)" target="_parent">
<path fill="#6cc644" stroke="black" d="M190.5,-1751C190.5,-1751 39.5,-1751 39.5,-1751 33.5,-1751 27.5,-1745 27.5,-1739 27.5,-1739 27.5,-1713 27.5,-1713 27.5,-1707 33.5,-1701 39.5,-1701 39.5,-1701 190.5,-1701 190.5,-1701 196.5,-1701 202.5,-1707 202.5,-1713 202.5,-1713 202.5,-1739 202.5,-1739 202.5,-1745 196.5,-1751 190.5,-1751"/>
<text text-anchor="middle" x="115" y="-1729" font-family="Sans" font-size="10.00">1.12.58: city timezone is not</text>
<text text-anchor="middle" x="115" y="-1718" font-family="Sans" font-size="10.00">passed to the object template</text>
</a>
</g>
</g>
<!-- aquilon#91&#45;&gt;aquilon#104 -->
<g id="edge40" class="edge"><title>aquilon#91-&gt;aquilon#104</title>
<path fill="none" stroke="black" stroke-dasharray="5,2" d="M202.633,-1716.62C246.42,-1711.88 299.413,-1706.14 343.22,-1701.4"/>
<polygon fill="none" stroke="black" points="343.716,-1704.86 353.281,-1700.31 342.962,-1697.9 343.716,-1704.86"/>
<text text-anchor="middle" x="258.022" y="-1700.46" font-family="Sans" font-size="10.00">requires</text>
</g>
<!-- aquilon#89 -->
<g id="node42" class="node"><title>aquilon#89</title>
<g id="a_node42"><a xlink:href="https://github.com/quattor/aquilon/pull/89" xlink:title="aquilon#89 (pull-request)" target="_parent">
<polygon fill="#6cc644" stroke="black" points="201.5,-1615 28.5,-1615 28.5,-1565 201.5,-1565 201.5,-1615"/>
<text text-anchor="middle" x="115" y="-1593" font-family="Sans" font-size="10.00">Broker: pass archetype to the</text>
<text text-anchor="middle" x="115" y="-1582" font-family="Sans" font-size="10.00">object profile</text>
</a>
</g>
</g>
<!-- aquilon#88 -->
<g id="node43" class="node"><title>aquilon#88</title>
<g id="a_node43"><a xlink:href="https://github.com/quattor/aquilon/issues/88" xlink:title="aquilon#88 (issue)" target="_parent">
<path fill="#6cc644" stroke="black" d="M510,-1626.5C510,-1626.5 352,-1626.5 352,-1626.5 346,-1626.5 340,-1620.5 340,-1614.5 340,-1614.5 340,-1577.5 340,-1577.5 340,-1571.5 346,-1565.5 352,-1565.5 352,-1565.5 510,-1565.5 510,-1565.5 516,-1565.5 522,-1571.5 522,-1577.5 522,-1577.5 522,-1614.5 522,-1614.5 522,-1620.5 516,-1626.5 510,-1626.5"/>
<text text-anchor="middle" x="431" y="-1604.5" font-family="Sans" font-size="10.00">1.12.58: the broker should pass</text>
<text text-anchor="middle" x="431" y="-1593.5" font-family="Sans" font-size="10.00">the archetype to the object</text>
<text text-anchor="middle" x="431" y="-1582.5" font-family="Sans" font-size="10.00">template</text>
</a>
</g>
</g>
<!-- aquilon#89&#45;&gt;aquilon#88 -->
<g id="edge41" class="edge"><title>aquilon#89-&gt;aquilon#88</title>
<path fill="none" stroke="black" stroke-width="2" d="M201.802,-1591.64C241.391,-1592.4 288.643,-1593.3 329.852,-1594.09"/>
<polygon fill="black" stroke="black" points="329.85,-1597.59 339.915,-1594.28 329.984,-1590.59 329.85,-1597.59"/>
<text text-anchor="middle" x="258.872" y="-1584.96" font-family="Sans" font-size="10.00">fixes</text>
</g>
</g>
</svg>
