<?xml version="1.0" encoding="UTF-8" standalone="no"?>
<?xml-stylesheet href="relationships.css" type="text/css"?>
<!-- Generated by graphviz version 2.26.0 (20091210.2329)
 -->
<!-- Title: Dependencies Pages: 1 -->
<svg xmlns="http://www.w3.org/2000/svg" xmlns:xlink="http://www.w3.org/1999/xlink" width="692pt" height="1812pt" viewBox="0.00 0.00 692.00 1812.00">
<g id="graph1" class="graph" transform="scale(1 1) rotate(0) translate(4 1808)">
<title>Dependencies</title>
<polygon fill="white" stroke="white" points="-4,5 -4,-1808 689,-1808 689,5 -4,5"/>
<g id="graph3" class="cluster"><title>cluster_18.3</title>
<polygon fill="none" stroke="black" points="8,-50 8,-708 514,-708 514,-50 8,-50"/>
<text text-anchor="middle" x="261" y="-693.2" font-family="Sans" font-size="12.00">18.3</text>
</g>
<g id="graph4" class="cluster"><title>cluster_17.12</title>
<polygon fill="none" stroke="black" points="8,-824 8,-1720 676,-1720 676,-824 8,-824"/>
<text text-anchor="middle" x="342" y="-1705.2" font-family="Sans" font-size="12.00">17.12</text>
</g>
<!-- aii#210 -->
<g id="node1" class="node"><title>aii#210</title>
<a xlink:href="https://github.com/quattor/aii/pull/210" xlink:title="Shellfe: support active config for plugins" target="_parent">
<polygon fill="#6cc644" stroke="black" points="141,-593 63,-593 63,-539 141,-539 141,-593"/>
<text text-anchor="middle" x="102" y="-570" font-family="Sans" font-size="10.00">pull-request</text>
<text text-anchor="middle" x="102" y="-557" font-family="Sans" font-size="10.00">aii#210</text>
</a>
</g>
<!-- aii#209 -->
<g id="node3" class="node"><title>aii#209</title>
<a xlink:href="https://github.com/quattor/aii/issues/209" xlink:title="support ACTIVE_CONFIG" target="_parent">
<ellipse fill="#6cc644" stroke="black" cx="384" cy="-566" rx="41.2167" ry="38.1838"/>
<text text-anchor="middle" x="384" y="-570" font-family="Sans" font-size="10.00">issue</text>
<text text-anchor="middle" x="384" y="-557" font-family="Sans" font-size="10.00">aii#209</text>
</a>
</g>
<!-- aii#210&#45;&gt;aii#209 -->
<g id="edge2" class="edge"><title>aii#210-&gt;aii#209</title>
<path fill="none" stroke="black" stroke-width="2" d="M141.508,-566C191.35,-566 277.184,-566 332.226,-566"/>
<polygon fill="black" stroke="black" points="332.467,-569.5 342.467,-566 332.467,-562.5 332.467,-569.5"/>
<text text-anchor="middle" x="225" y="-570" font-family="Sans" font-size="10.00">fixes</text>
</g>
<!-- ncm&#45;ncd#74 -->
<g id="node5" class="node"><title>ncm-ncd#74</title>
<a xlink:href="https://github.com/quattor/ncm-ncd/pull/74" xlink:title="Set the current active config as an attribute to the component" target="_parent">
<polygon fill="#6cc644" stroke="black" points="425,-676 343,-676 343,-622 425,-622 425,-676"/>
<text text-anchor="middle" x="384" y="-653" font-family="Sans" font-size="10.00">pull-request</text>
<text text-anchor="middle" x="384" y="-640" font-family="Sans" font-size="10.00">ncm-ncd#74</text>
</a>
</g>
<!-- aii#210&#45;&gt;ncm&#45;ncd#74 -->
<g id="edge4" class="edge"><title>aii#210-&gt;ncm-ncd#74</title>
<path fill="none" stroke="black" stroke-dasharray="5,2" d="M141.508,-577.628C191.596,-592.37 278.034,-617.811 333.04,-634.001"/>
<polygon fill="none" stroke="black" points="332.348,-637.446 342.929,-636.912 334.325,-630.731 332.348,-637.446"/>
<text text-anchor="middle" x="225" y="-612" font-family="Sans" font-size="10.00">requires</text>
</g>
<!-- aii#203 -->
<g id="node7" class="node"><title>aii#203</title>
<polygon fill="lightgrey" stroke="black" points="413,-40.5 355,-40.5 355,0.5 413,0.5 413,-40.5"/>
<text text-anchor="middle" x="384" y="-17.5" font-family="Sans" font-size="10.00">aii#203</text>
</g>
<!-- aii#210&#45;&gt;aii#203 -->
<g id="edge6" class="edge"><title>aii#210-&gt;aii#203</title>
<path fill="none" stroke="black" stroke-dasharray="5,2" d="M141.842,-549.271C159.143,-539.824 177.761,-526.209 188,-508 229.655,-433.926 178.55,-206.428 206,-126 220.019,-84.9254 225.817,-69.9668 262,-46 286.358,-29.8659 318.926,-23.5162 344.285,-21.1191"/>
<polygon fill="none" stroke="black" points="344.618,-24.6038 354.316,-20.3381 344.075,-17.6249 344.618,-24.6038"/>
<text text-anchor="middle" x="225" y="-130" font-family="Sans" font-size="10.00">requires</text>
</g>
<!-- CAF#262 -->
<g id="node8" class="node"><title>CAF#262</title>
<a xlink:href="https://github.com/quattor/CAF/pull/262" xlink:title="FileWriter: set file status when no content was modified" target="_parent">
<polygon fill="#6e5494" stroke="black" points="141,-1678 63,-1678 63,-1624 141,-1624 141,-1678"/>
<text text-anchor="middle" x="102" y="-1655" font-family="Sans" font-size="10.00">pull-request</text>
<text text-anchor="middle" x="102" y="-1642" font-family="Sans" font-size="10.00">CAF#262</text>
</a>
</g>
<!-- CAF#259 -->
<g id="node10" class="node"><title>CAF#259</title>
<a xlink:href="https://github.com/quattor/CAF/issues/259" xlink:title="Filewriter: modify permissions when content is unmodified" target="_parent">
<ellipse fill="#bd2c00" stroke="black" cx="384" cy="-1650" rx="48.9975" ry="38.1838"/>
<text text-anchor="middle" x="384" y="-1654" font-family="Sans" font-size="10.00">issue</text>
<text text-anchor="middle" x="384" y="-1641" font-family="Sans" font-size="10.00">CAF#259</text>
</a>
</g>
<!-- CAF#262&#45;&gt;CAF#259 -->
<g id="edge8" class="edge"><title>CAF#262-&gt;CAF#259</title>
<path fill="none" stroke="black" stroke-width="2" d="M141.992,-1649.1C161.324,-1648.28 184.863,-1647.41 206,-1647 245.346,-1646.24 289.587,-1646.98 324.12,-1647.91"/>
<polygon fill="black" stroke="black" points="324.414,-1651.42 334.509,-1648.21 324.612,-1644.43 324.414,-1651.42"/>
<text text-anchor="middle" x="225" y="-1651" font-family="Sans" font-size="10.00">fixes</text>
</g>
<!-- CAF#257 -->
<g id="node11" class="node"><title>CAF#257</title>
<a xlink:href="https://github.com/quattor/CAF/pull/257" xlink:title="Process: run process as another user" target="_parent">
<polygon fill="#6cc644" stroke="black" points="141,-499 63,-499 63,-445 141,-445 141,-499"/>
<text text-anchor="middle" x="102" y="-476" font-family="Sans" font-size="10.00">pull-request</text>
<text text-anchor="middle" x="102" y="-463" font-family="Sans" font-size="10.00">CAF#257</text>
</a>
</g>
<!-- CAF#253 -->
<g id="node13" class="node"><title>CAF#253</title>
<a xlink:href="https://github.com/quattor/CAF/issues/253" xlink:title="CAF::Process: Include an option to execute the command as an specific user" target="_parent">
<ellipse fill="#6cc644" stroke="black" cx="384" cy="-472" rx="48.9975" ry="38.1838"/>
<text text-anchor="middle" x="384" y="-476" font-family="Sans" font-size="10.00">issue</text>
<text text-anchor="middle" x="384" y="-463" font-family="Sans" font-size="10.00">CAF#253</text>
</a>
</g>
<!-- CAF#257&#45;&gt;CAF#253 -->
<g id="edge10" class="edge"><title>CAF#257-&gt;CAF#253</title>
<path fill="none" stroke="black" stroke-width="2" d="M141.508,-472C188.929,-472 268.931,-472 323.996,-472"/>
<polygon fill="black" stroke="black" points="324.316,-475.5 334.316,-472 324.316,-468.5 324.316,-475.5"/>
<text text-anchor="middle" x="225" y="-476" font-family="Sans" font-size="10.00">fixes</text>
</g>
<!-- CAF#256 -->
<g id="node14" class="node"><title>CAF#256</title>
<a xlink:href="https://github.com/quattor/CAF/pull/256" xlink:title="Process: add sensitive option to prevent verbose reporting of the command" target="_parent">
<polygon fill="#6e5494" stroke="black" points="141,-1606 63,-1606 63,-1552 141,-1552 141,-1606"/>
<text text-anchor="middle" x="102" y="-1583" font-family="Sans" font-size="10.00">pull-request</text>
<text text-anchor="middle" x="102" y="-1570" font-family="Sans" font-size="10.00">CAF#256</text>
</a>
</g>
<!-- CAF#254 -->
<g id="node16" class="node"><title>CAF#254</title>
<a xlink:href="https://github.com/quattor/CAF/issues/254" xlink:title="CAF::Process: Include sensitive option" target="_parent">
<ellipse fill="#bd2c00" stroke="black" cx="384" cy="-1556" rx="48.9975" ry="38.1838"/>
<text text-anchor="middle" x="384" y="-1560" font-family="Sans" font-size="10.00">issue</text>
<text text-anchor="middle" x="384" y="-1547" font-family="Sans" font-size="10.00">CAF#254</text>
</a>
</g>
<!-- CAF#256&#45;&gt;CAF#254 -->
<g id="edge12" class="edge"><title>CAF#256-&gt;CAF#254</title>
<path fill="none" stroke="black" stroke-width="2" d="M141.508,-1575.78C189.027,-1571.9 269.264,-1565.36 324.339,-1560.87"/>
<polygon fill="black" stroke="black" points="324.634,-1564.35 334.316,-1560.05 324.065,-1557.38 324.634,-1564.35"/>
<text text-anchor="middle" x="225" y="-1575" font-family="Sans" font-size="10.00">fixes</text>
</g>
<!-- CCM#179 -->
<g id="node17" class="node"><title>CCM#179</title>
<a xlink:href="https://github.com/quattor/CCM/pull/179" xlink:title="TextRender: support unescape keys" target="_parent">
<polygon fill="#6e5494" stroke="black" points="423,-1406 345,-1406 345,-1352 423,-1352 423,-1406"/>
<text text-anchor="middle" x="384" y="-1383" font-family="Sans" font-size="10.00">pull-request</text>
<text text-anchor="middle" x="384" y="-1370" font-family="Sans" font-size="10.00">CCM#179</text>
</a>
</g>
<!-- CCM#178 -->
<g id="node19" class="node"><title>CCM#178</title>
<a xlink:href="https://github.com/quattor/CCM/issues/178" xlink:title="TextRender or getTree should support a way to unescape keys" target="_parent">
<ellipse fill="#bd2c00" stroke="black" cx="616" cy="-1379" rx="51.1176" ry="38.1838"/>
<text text-anchor="middle" x="616" y="-1383" font-family="Sans" font-size="10.00">issue</text>
<text text-anchor="middle" x="616" y="-1370" font-family="Sans" font-size="10.00">CCM#178</text>
</a>
</g>
<!-- CCM#179&#45;&gt;CCM#178 -->
<g id="edge14" class="edge"><title>CCM#179-&gt;CCM#178</title>
<path fill="none" stroke="black" stroke-width="2" d="M423.619,-1379C459.411,-1379 512.668,-1379 554.079,-1379"/>
<polygon fill="black" stroke="black" points="554.334,-1382.5 564.334,-1379 554.334,-1375.5 554.334,-1382.5"/>
<text text-anchor="middle" x="535" y="-1383" font-family="Sans" font-size="10.00">fixes</text>
</g>
<!-- configuration&#45;modules&#45;core#1220 -->
<g id="node20" class="node"><title>configuration-modules-core#1220</title>
<a xlink:href="https://github.com/quattor/configuration-modules-core/pull/1220" xlink:title="ncm-cups: Stop daemon if server not enabled" target="_parent">
<polygon fill="#6cc644" stroke="black" points="188,-405 16,-405 16,-351 188,-351 188,-405"/>
<text text-anchor="middle" x="102" y="-382" font-family="Sans" font-size="10.00">pull-request</text>
<text text-anchor="middle" x="102" y="-369" font-family="Sans" font-size="10.00">configuration-modules-core#1220</text>
</a>
</g>
<!-- configuration&#45;modules&#45;core#1189 -->
<g id="node22" class="node"><title>configuration-modules-core#1189</title>
<a xlink:href="https://github.com/quattor/configuration-modules-core/issues/1189" xlink:title="ncm-cups: Nodetype of client should stop running cups daemon" target="_parent">
<ellipse fill="#6cc644" stroke="black" cx="384" cy="-378" rx="121.122" ry="38.1838"/>
<text text-anchor="middle" x="384" y="-382" font-family="Sans" font-size="10.00">issue</text>
<text text-anchor="middle" x="384" y="-369" font-family="Sans" font-size="10.00">configuration-modules-core#1189</text>
</a>
</g>
<!-- configuration&#45;modules&#45;core#1220&#45;&gt;configuration&#45;modules&#45;core#1189 -->
<g id="edge16" class="edge"><title>configuration-modules-core#1220-&gt;configuration-modules-core#1189</title>
<path fill="none" stroke="black" stroke-width="2" d="M188.142,-378C208.347,-378 230.333,-378 252.033,-378"/>
<polygon fill="black" stroke="black" points="252.313,-381.5 262.313,-378 252.312,-374.5 252.313,-381.5"/>
<text text-anchor="middle" x="225" y="-382" font-family="Sans" font-size="10.00">fixes</text>
</g>
<!-- configuration&#45;modules&#45;core#1212 -->
<g id="node23" class="node"><title>configuration-modules-core#1212</title>
<a xlink:href="https://github.com/quattor/configuration-modules-core/pull/1212" xlink:title="ncm-systemd: add support for AmbientCapabilities and CapabilityBoundingSet" target="_parent">
<polygon fill="#6e5494" stroke="black" points="188,-1534 16,-1534 16,-1480 188,-1480 188,-1534"/>
<text text-anchor="middle" x="102" y="-1511" font-family="Sans" font-size="10.00">pull-request</text>
<text text-anchor="middle" x="102" y="-1498" font-family="Sans" font-size="10.00">configuration-modules-core#1212</text>
</a>
</g>
<!-- configuration&#45;modules&#45;core#1211 -->
<g id="node25" class="node"><title>configuration-modules-core#1211</title>
<a xlink:href="https://github.com/quattor/configuration-modules-core/issues/1211" xlink:title="ncm-systemd 17.7: AmbientCapabilities service attribute not supported" target="_parent">
<ellipse fill="#bd2c00" stroke="black" cx="384" cy="-1462" rx="121.122" ry="38.1838"/>
<text text-anchor="middle" x="384" y="-1466" font-family="Sans" font-size="10.00">issue</text>
<text text-anchor="middle" x="384" y="-1453" font-family="Sans" font-size="10.00">configuration-modules-core#1211</text>
</a>
</g>
<!-- configuration&#45;modules&#45;core#1212&#45;&gt;configuration&#45;modules&#45;core#1211 -->
<g id="edge18" class="edge"><title>configuration-modules-core#1212-&gt;configuration-modules-core#1211</title>
<path fill="none" stroke="black" stroke-width="2" d="M188.142,-1493.25C212.63,-1489.35 239.734,-1485.02 265.773,-1480.87"/>
<polygon fill="black" stroke="black" points="266.369,-1484.32 275.693,-1479.28 265.266,-1477.4 266.369,-1484.32"/>
<text text-anchor="middle" x="225" y="-1494" font-family="Sans" font-size="10.00">fixes</text>
</g>
<!-- configuration&#45;modules&#45;core#1202 -->
<g id="node26" class="node"><title>configuration-modules-core#1202</title>
<a xlink:href="https://github.com/quattor/configuration-modules-core/pull/1202" xlink:title="ncm-metaconfig: support new key conversion options from CCM::TextRender" target="_parent">
<polygon fill="#6e5494" stroke="black" points="188,-1462 16,-1462 16,-1408 188,-1408 188,-1462"/>
<text text-anchor="middle" x="102" y="-1439" font-family="Sans" font-size="10.00">pull-request</text>
<text text-anchor="middle" x="102" y="-1426" font-family="Sans" font-size="10.00">configuration-modules-core#1202</text>
</a>
</g>
<!-- configuration&#45;modules&#45;core#1202&#45;&gt;CCM#179 -->
<g id="edge20" class="edge"><title>configuration-modules-core#1202-&gt;CCM#179</title>
<path fill="none" stroke="black" stroke-dasharray="5,2" d="M188.142,-1417.89C236.073,-1408.38 294.026,-1396.87 334.403,-1388.85"/>
<polygon fill="none" stroke="black" points="335.147,-1392.27 344.274,-1386.89 333.783,-1385.4 335.147,-1392.27"/>
<text text-anchor="middle" x="225" y="-1418" font-family="Sans" font-size="10.00">requires</text>
</g>
<!-- configuration&#45;modules&#45;core#1182 -->
<g id="node28" class="node"><title>configuration-modules-core#1182</title>
<a xlink:href="https://github.com/quattor/configuration-modules-core/pull/1182" xlink:title="ncm-opennebula: Include 5.4.x configuration" target="_parent">
<polygon fill="#6e5494" stroke="black" points="188,-1390 16,-1390 16,-1336 188,-1336 188,-1390"/>
<text text-anchor="middle" x="102" y="-1367" font-family="Sans" font-size="10.00">pull-request</text>
<text text-anchor="middle" x="102" y="-1354" font-family="Sans" font-size="10.00">configuration-modules-core#1182</text>
</a>
</g>
<!-- configuration&#45;modules&#45;core#1139 -->
<g id="node30" class="node"><title>configuration-modules-core#1139</title>
<a xlink:href="https://github.com/quattor/configuration-modules-core/pull/1139" xlink:title="ncm-opennebula: include hugepages options" target="_parent">
<polygon fill="#6e5494" stroke="black" points="470,-1334 298,-1334 298,-1280 470,-1280 470,-1334"/>
<text text-anchor="middle" x="384" y="-1311" font-family="Sans" font-size="10.00">pull-request</text>
<text text-anchor="middle" x="384" y="-1298" font-family="Sans" font-size="10.00">configuration-modules-core#1139</text>
</a>
</g>
<!-- configuration&#45;modules&#45;core#1182&#45;&gt;configuration&#45;modules&#45;core#1139 -->
<g id="edge22" class="edge"><title>configuration-modules-core#1182-&gt;configuration-modules-core#1139</title>
<path fill="none" stroke="black" stroke-dasharray="5,2" d="M188.142,-1345.89C219.701,-1339.63 255.605,-1332.5 287.976,-1326.07"/>
<polygon fill="none" stroke="black" points="288.774,-1329.48 297.9,-1324.1 287.41,-1322.61 288.774,-1329.48"/>
<text text-anchor="middle" x="225" y="-1346" font-family="Sans" font-size="10.00">requires</text>
</g>
<!-- configuration&#45;modules&#45;core#1171 -->
<g id="node31" class="node"><title>configuration-modules-core#1171</title>
<a xlink:href="https://github.com/quattor/configuration-modules-core/pull/1171" xlink:title="ncm-cups enhancements and cleanups" target="_parent">
<polygon fill="#6e5494" stroke="black" points="188,-1318 16,-1318 16,-1264 188,-1264 188,-1318"/>
<text text-anchor="middle" x="102" y="-1295" font-family="Sans" font-size="10.00">pull-request</text>
<text text-anchor="middle" x="102" y="-1282" font-family="Sans" font-size="10.00">configuration-modules-core#1171</text>
</a>
</g>
<!-- configuration&#45;modules&#45;core#1164 -->
<g id="node33" class="node"><title>configuration-modules-core#1164</title>
<a xlink:href="https://github.com/quattor/configuration-modules-core/issues/1164" xlink:title="ncm-cups 17.7.0: configuration of ServerAlias + miscellanous enhancements" target="_parent">
<ellipse fill="#bd2c00" stroke="black" cx="384" cy="-1224" rx="121.122" ry="38.1838"/>
<text text-anchor="middle" x="384" y="-1228" font-family="Sans" font-size="10.00">issue</text>
<text text-anchor="middle" x="384" y="-1215" font-family="Sans" font-size="10.00">configuration-modules-core#1164</text>
</a>
</g>
<!-- configuration&#45;modules&#45;core#1171&#45;&gt;configuration&#45;modules&#45;core#1164 -->
<g id="edge24" class="edge"><title>configuration-modules-core#1171-&gt;configuration-modules-core#1164</title>
<path fill="none" stroke="black" stroke-width="2" d="M188.142,-1270.53C216.228,-1263.86 247.754,-1256.37 277.17,-1249.38"/>
<polygon fill="black" stroke="black" points="278.136,-1252.75 287.056,-1247.03 276.518,-1245.94 278.136,-1252.75"/>
<text text-anchor="middle" x="225" y="-1270" font-family="Sans" font-size="10.00">fixes</text>
</g>
<!-- configuration&#45;modules&#45;core#1149 -->
<g id="node34" class="node"><title>configuration-modules-core#1149</title>
<a xlink:href="https://github.com/quattor/configuration-modules-core/pull/1149" xlink:title="ncm-metaconfig: rsyslog: rainer script configuration" target="_parent">
<polygon fill="#6e5494" stroke="black" points="188,-958 16,-958 16,-904 188,-904 188,-958"/>
<text text-anchor="middle" x="102" y="-935" font-family="Sans" font-size="10.00">pull-request</text>
<text text-anchor="middle" x="102" y="-922" font-family="Sans" font-size="10.00">configuration-modules-core#1149</text>
</a>
</g>
<!-- configuration&#45;modules&#45;core#1126 -->
<g id="node36" class="node"><title>configuration-modules-core#1126</title>
<polygon fill="lightgrey" stroke="black" points="470,-814.5 298,-814.5 298,-773.5 470,-773.5 470,-814.5"/>
<text text-anchor="middle" x="384" y="-791.5" font-family="Sans" font-size="10.00">configuration-modules-core#1126</text>
</g>
<!-- configuration&#45;modules&#45;core#1149&#45;&gt;configuration&#45;modules&#45;core#1126 -->
<g id="edge26" class="edge"><title>configuration-modules-core#1149-&gt;configuration-modules-core#1126</title>
<path fill="none" stroke="black" stroke-dasharray="5,2" d="M173.123,-903.926C178.288,-901.149 183.306,-898.172 188,-895 226.799,-868.781 220.929,-842.493 262,-820 270.176,-815.522 279.053,-811.815 288.162,-808.746"/>
<polygon fill="none" stroke="black" points="289.211,-812.085 297.72,-805.773 287.132,-805.401 289.211,-812.085"/>
<text text-anchor="middle" x="225" y="-884" font-family="Sans" font-size="10.00">requires</text>
</g>
<!-- configuration&#45;modules&#45;core#1119 -->
<g id="node37" class="node"><title>configuration-modules-core#1119</title>
<a xlink:href="https://github.com/quattor/configuration-modules-core/pull/1119" xlink:title="ncm-systemd: cleanup, restarting modified unitfiles and initial handling of unconfigured units" target="_parent">
<polygon fill="#6e5494" stroke="black" points="188,-1246 16,-1246 16,-1192 188,-1192 188,-1246"/>
<text text-anchor="middle" x="102" y="-1223" font-family="Sans" font-size="10.00">pull-request</text>
<text text-anchor="middle" x="102" y="-1210" font-family="Sans" font-size="10.00">configuration-modules-core#1119</text>
</a>
</g>
<!-- configuration&#45;modules&#45;core#1095 -->
<g id="node39" class="node"><title>configuration-modules-core#1095</title>
<a xlink:href="https://github.com/quattor/configuration-modules-core/issues/1095" xlink:title="ncm-systemd: Manual intervention required in order for drop-in unit files to have any affect" target="_parent">
<ellipse fill="#bd2c00" stroke="black" cx="384" cy="-1130" rx="121.122" ry="38.1838"/>
<text text-anchor="middle" x="384" y="-1134" font-family="Sans" font-size="10.00">issue</text>
<text text-anchor="middle" x="384" y="-1121" font-family="Sans" font-size="10.00">configuration-modules-core#1095</text>
</a>
</g>
<!-- configuration&#45;modules&#45;core#1119&#45;&gt;configuration&#45;modules&#45;core#1095 -->
<g id="edge28" class="edge"><title>configuration-modules-core#1119-&gt;configuration-modules-core#1095</title>
<path fill="none" stroke="black" stroke-width="2" d="M187.758,-1191.93C219.614,-1181.88 255.94,-1170.42 288.606,-1160.11"/>
<polygon fill="black" stroke="black" points="289.681,-1163.44 298.164,-1157.09 287.574,-1156.76 289.681,-1163.44"/>
<text text-anchor="middle" x="225" y="-1190" font-family="Sans" font-size="10.00">fixes</text>
</g>
<!-- configuration&#45;modules&#45;core#1105 -->
<g id="node40" class="node"><title>configuration-modules-core#1105</title>
<a xlink:href="https://github.com/quattor/configuration-modules-core/pull/1105" xlink:title="ncm-authconfig: fix krb5_realm, user_object_class and newline between ldap_krb5_canonicalize and ldap_krb5_realm" target="_parent">
<polygon fill="#6cc644" stroke="black" points="188,-217 16,-217 16,-163 188,-163 188,-217"/>
<text text-anchor="middle" x="102" y="-194" font-family="Sans" font-size="10.00">pull-request</text>
<text text-anchor="middle" x="102" y="-181" font-family="Sans" font-size="10.00">configuration-modules-core#1105</text>
</a>
</g>
<!-- configuration&#45;modules&#45;core#1100 -->
<g id="node42" class="node"><title>configuration-modules-core#1100</title>
<a xlink:href="https://github.com/quattor/configuration-modules-core/issues/1100" xlink:title="ncm-authconfig : no newline after krb5_canonicalize option" target="_parent">
<ellipse fill="#6cc644" stroke="black" cx="384" cy="-190" rx="121.122" ry="38.1838"/>
<text text-anchor="middle" x="384" y="-194" font-family="Sans" font-size="10.00">issue</text>
<text text-anchor="middle" x="384" y="-181" font-family="Sans" font-size="10.00">configuration-modules-core#1100</text>
</a>
</g>
<!-- configuration&#45;modules&#45;core#1105&#45;&gt;configuration&#45;modules&#45;core#1100 -->
<g id="edge30" class="edge"><title>configuration-modules-core#1105-&gt;configuration-modules-core#1100</title>
<path fill="none" stroke="black" stroke-width="2" d="M188.142,-190C208.347,-190 230.333,-190 252.033,-190"/>
<polygon fill="black" stroke="black" points="252.313,-193.5 262.313,-190 252.312,-186.5 252.313,-193.5"/>
<text text-anchor="middle" x="225" y="-194" font-family="Sans" font-size="10.00">fixes</text>
</g>
<!-- configuration&#45;modules&#45;core#1102 -->
<g id="node44" class="node"><title>configuration-modules-core#1102</title>
<a xlink:href="https://github.com/quattor/configuration-modules-core/issues/1102" xlink:title="ncm-authconfig: There is no " target="_parent">
<ellipse fill="#6cc644" stroke="black" cx="384" cy="-284" rx="121.122" ry="38.1838"/>
<text text-anchor="middle" x="384" y="-288" font-family="Sans" font-size="10.00">issue</text>
<text text-anchor="middle" x="384" y="-275" font-family="Sans" font-size="10.00">configuration-modules-core#1102</text>
</a>
</g>
<!-- configuration&#45;modules&#45;core#1105&#45;&gt;configuration&#45;modules&#45;core#1102 -->
<g id="edge32" class="edge"><title>configuration-modules-core#1105-&gt;configuration-modules-core#1102</title>
<path fill="none" stroke="black" stroke-width="2" d="M183.188,-217.063C216.8,-228.267 255.98,-241.327 290.762,-252.921"/>
<polygon fill="black" stroke="black" points="289.854,-256.307 300.448,-256.149 292.067,-249.666 289.854,-256.307"/>
<text text-anchor="middle" x="225" y="-241" font-family="Sans" font-size="10.00">fixes</text>
</g>
<!-- configuration&#45;modules&#45;core#1103 -->
<g id="node46" class="node"><title>configuration-modules-core#1103</title>
<a xlink:href="https://github.com/quattor/configuration-modules-core/issues/1103" xlink:title="ncm-authconfig: krb5_realm = ARRAY(0x39a5830)" target="_parent">
<ellipse fill="#6cc644" stroke="black" cx="384" cy="-96" rx="121.122" ry="38.1838"/>
<text text-anchor="middle" x="384" y="-100" font-family="Sans" font-size="10.00">issue</text>
<text text-anchor="middle" x="384" y="-87" font-family="Sans" font-size="10.00">configuration-modules-core#1103</text>
</a>
</g>
<!-- configuration&#45;modules&#45;core#1105&#45;&gt;configuration&#45;modules&#45;core#1103 -->
<g id="edge34" class="edge"><title>configuration-modules-core#1105-&gt;configuration-modules-core#1103</title>
<path fill="none" stroke="black" stroke-width="2" d="M183.188,-162.937C216.8,-151.733 255.98,-138.673 290.762,-127.079"/>
<polygon fill="black" stroke="black" points="292.067,-130.334 300.448,-123.851 289.854,-123.693 292.067,-130.334"/>
<text text-anchor="middle" x="225" y="-159" font-family="Sans" font-size="10.00">fixes</text>
</g>
<!-- configuration&#45;modules&#45;core#1058 -->
<g id="node47" class="node"><title>configuration-modules-core#1058</title>
<a xlink:href="https://github.com/quattor/configuration-modules-core/pull/1058" xlink:title="ncm-ssh: disable insecure ssh ciphersuites and macs" target="_parent">
<polygon fill="#6e5494" stroke="black" points="188,-886 16,-886 16,-832 188,-832 188,-886"/>
<text text-anchor="middle" x="102" y="-863" font-family="Sans" font-size="10.00">pull-request</text>
<text text-anchor="middle" x="102" y="-850" font-family="Sans" font-size="10.00">configuration-modules-core#1058</text>
</a>
</g>
<!-- configuration&#45;modules&#45;core#983 -->
<g id="node49" class="node"><title>configuration-modules-core#983</title>
<polygon fill="lightgrey" stroke="black" points="467,-756.5 301,-756.5 301,-715.5 467,-715.5 467,-756.5"/>
<text text-anchor="middle" x="384" y="-733.5" font-family="Sans" font-size="10.00">configuration-modules-core#983</text>
</g>
<!-- configuration&#45;modules&#45;core#1058&#45;&gt;configuration&#45;modules&#45;core#983 -->
<g id="edge36" class="edge"><title>configuration-modules-core#1058-&gt;configuration-modules-core#983</title>
<path fill="none" stroke="black" stroke-dasharray="1,5" d="M121.809,-831.968C140.648,-808.479 171.218,-775.679 206,-759 231.774,-746.64 261.932,-740.185 290.024,-736.99"/>
<polygon fill="black" stroke="black" points="300.268,-735.955 290.771,-741.438 295.293,-736.458 290.318,-736.96 290.318,-736.96 290.318,-736.96 295.293,-736.458 289.866,-732.483 300.268,-735.955 300.268,-735.955"/>
<text text-anchor="middle" x="225" y="-763" font-family="Sans" font-size="10.00">replaces</text>
</g>
<!-- ncm&#45;ncd#123 -->
<g id="node50" class="node"><title>ncm-ncd#123</title>
<a xlink:href="https://github.com/quattor/ncm-ncd/pull/123" xlink:title="ncm-ncd: run from temporary directory" target="_parent">
<polygon fill="#6e5494" stroke="black" points="145,-1174 59,-1174 59,-1120 145,-1120 145,-1174"/>
<text text-anchor="middle" x="102" y="-1151" font-family="Sans" font-size="10.00">pull-request</text>
<text text-anchor="middle" x="102" y="-1138" font-family="Sans" font-size="10.00">ncm-ncd#123</text>
</a>
</g>
<!-- ncm&#45;ncd#121 -->
<g id="node52" class="node"><title>ncm-ncd#121</title>
<a xlink:href="https://github.com/quattor/ncm-ncd/pull/121" xlink:title="rework chdir handling use mktemp instead of '/tmp'" target="_parent">
<polygon fill="#6e5494" stroke="black" points="427,-1074 341,-1074 341,-1020 427,-1020 427,-1074"/>
<text text-anchor="middle" x="384" y="-1051" font-family="Sans" font-size="10.00">pull-request</text>
<text text-anchor="middle" x="384" y="-1038" font-family="Sans" font-size="10.00">ncm-ncd#121</text>
</a>
</g>
<!-- ncm&#45;ncd#123&#45;&gt;ncm&#45;ncd#121 -->
<g id="edge38" class="edge"><title>ncm-ncd#123-&gt;ncm-ncd#121</title>
<path fill="none" stroke="black" stroke-dasharray="1,5" d="M145.699,-1128.99C185.01,-1112.88 239.881,-1090.67 262,-1083 284.346,-1075.25 309.347,-1067.69 330.871,-1061.51"/>
<polygon fill="black" stroke="black" points="340.494,-1058.77 332.107,-1065.83 335.684,-1060.14 330.875,-1061.51 330.875,-1061.51 330.875,-1061.51 335.684,-1060.14 329.644,-1057.18 340.494,-1058.77 340.494,-1058.77"/>
<text text-anchor="middle" x="225" y="-1109" font-family="Sans" font-size="10.00">replaces</text>
</g>
<!-- template&#45;library&#45;core#167 -->
<g id="node53" class="node"><title>template-library-core#167</title>
<a xlink:href="https://github.com/quattor/template-library-core/pull/167" xlink:title="schema: Add support for aquilon clusters" target="_parent">
<polygon fill="#6e5494" stroke="black" points="171,-1102 33,-1102 33,-1048 171,-1048 171,-1102"/>
<text text-anchor="middle" x="102" y="-1079" font-family="Sans" font-size="10.00">pull-request</text>
<text text-anchor="middle" x="102" y="-1066" font-family="Sans" font-size="10.00">template-library-core#167</text>
</a>
</g>
<!-- template&#45;library&#45;core#71 -->
<g id="node55" class="node"><title>template-library-core#71</title>
<a xlink:href="https://github.com/quattor/template-library-core/issues/71" xlink:title="Schema for aquilon cluster archetypes needed" target="_parent">
<ellipse fill="#bd2c00" stroke="black" cx="384" cy="-964" rx="94.0452" ry="38.1838"/>
<text text-anchor="middle" x="384" y="-968" font-family="Sans" font-size="10.00">issue</text>
<text text-anchor="middle" x="384" y="-955" font-family="Sans" font-size="10.00">template-library-core#71</text>
</a>
</g>
<!-- template&#45;library&#45;core#167&#45;&gt;template&#45;library&#45;core#71 -->
<g id="edge40" class="edge"><title>template-library-core#167-&gt;template-library-core#71</title>
<path fill="none" stroke="black" stroke-width="2" d="M169.264,-1047.87C197.826,-1036.41 231.506,-1022.97 262,-1011 276.212,-1005.42 291.378,-999.528 306.016,-993.872"/>
<polygon fill="black" stroke="black" points="307.474,-997.061 315.544,-990.196 304.954,-990.531 307.474,-997.061"/>
<text text-anchor="middle" x="225" y="-1036" font-family="Sans" font-size="10.00">fixes</text>
</g>
<!-- template&#45;library&#45;grid#205 -->
<g id="node56" class="node"><title>template-library-grid#205</title>
<a xlink:href="https://github.com/quattor/template-library-grid/pull/205" xlink:title="repository/config/htcondor: Cleanup and make use of repository name" target="_parent">
<polygon fill="#6e5494" stroke="black" points="169,-1030 35,-1030 35,-976 169,-976 169,-1030"/>
<text text-anchor="middle" x="102" y="-1007" font-family="Sans" font-size="10.00">pull-request</text>
<text text-anchor="middle" x="102" y="-994" font-family="Sans" font-size="10.00">template-library-grid#205</text>
</a>
</g>
<!-- template&#45;library&#45;grid#204 -->
<g id="node58" class="node"><title>template-library-grid#204</title>
<a xlink:href="https://github.com/quattor/template-library-grid/issues/204" xlink:title="htcondor repo" target="_parent">
<ellipse fill="#bd2c00" stroke="black" cx="384" cy="-870" rx="94.9596" ry="38.1838"/>
<text text-anchor="middle" x="384" y="-874" font-family="Sans" font-size="10.00">issue</text>
<text text-anchor="middle" x="384" y="-861" font-family="Sans" font-size="10.00">template-library-grid#204</text>
</a>
</g>
<!-- template&#45;library&#45;grid#205&#45;&gt;template&#45;library&#45;grid#204 -->
<g id="edge42" class="edge"><title>template-library-grid#205-&gt;template-library-grid#204</title>
<path fill="none" stroke="black" stroke-width="2" d="M169.734,-976.149C175.987,-973.222 182.161,-970.154 188,-967 222.922,-948.133 226.811,-935.363 262,-917 274.671,-910.388 288.49,-904.185 302.125,-898.59"/>
<polygon fill="black" stroke="black" points="303.545,-901.791 311.52,-894.816 300.936,-895.296 303.545,-901.791"/>
<text text-anchor="middle" x="225" y="-960" font-family="Sans" font-size="10.00">fixes</text>
</g>
<!-- template&#45;library&#45;standard#108 -->
<g id="node59" class="node"><title>template-library-standard#108</title>
<a xlink:href="https://github.com/quattor/template-library-standard/pull/108" xlink:title="The space after the semi-colon is not correctly supported." target="_parent">
<polygon fill="#6cc644" stroke="black" points="180,-1793 24,-1793 24,-1739 180,-1739 180,-1793"/>
<text text-anchor="middle" x="102" y="-1770" font-family="Sans" font-size="10.00">pull-request</text>
<text text-anchor="middle" x="102" y="-1757" font-family="Sans" font-size="10.00">template-library-standard#108</text>
</a>
</g>
<!-- template&#45;library&#45;standard#107 -->
<g id="node61" class="node"><title>template-library-standard#107</title>
<a xlink:href="https://github.com/quattor/template-library-standard/issues/107" xlink:title="cvmfs client is not configured correctly" target="_parent">
<ellipse fill="#6cc644" stroke="black" cx="384" cy="-1766" rx="111.016" ry="38.1838"/>
<text text-anchor="middle" x="384" y="-1770" font-family="Sans" font-size="10.00">issue</text>
<text text-anchor="middle" x="384" y="-1757" font-family="Sans" font-size="10.00">template-library-standard#107</text>
</a>
</g>
<!-- template&#45;library&#45;standard#108&#45;&gt;template&#45;library&#45;standard#107 -->
<g id="edge44" class="edge"><title>template-library-standard#108-&gt;template-library-standard#107</title>
<path fill="none" stroke="black" stroke-width="2" d="M180.553,-1766C206.026,-1766 234.907,-1766 262.741,-1766"/>
<polygon fill="black" stroke="black" points="262.94,-1769.5 272.94,-1766 262.94,-1762.5 262.94,-1769.5"/>
<text text-anchor="middle" x="225" y="-1770" font-family="Sans" font-size="10.00">fixes</text>
</g>
</g>
</svg>
