<?xml version="1.0" encoding="UTF-8" standalone="no"?>
<?xml-stylesheet href="relationships.css" type="text/css"?>
<!-- Generated by graphviz version 2.30.1 (20200930.0103)
 -->
<!-- Title: Dependencies Pages: 1 -->
<svg xmlns="http://www.w3.org/2000/svg" xmlns:xlink="http://www.w3.org/1999/xlink" width="812pt" height="1717pt" viewBox="0.00 0.00 812.00 1717.00">
<g id="graph0" class="graph" transform="scale(1 1) rotate(0) translate(4 1713)">
<title>Dependencies</title>
<polygon fill="white" stroke="white" points="-4,5 -4,-1713 809,-1713 809,5 -4,5"/>
<g id="clust4" class="cluster"><title>cluster_milestone_23.12</title>
<polygon fill="none" stroke="black" points="15,-971 15,-1138 529,-1138 529,-971 15,-971"/>
<text text-anchor="middle" x="272" y="-1124.4" font-family="Sans" font-size="12.00">23.12</text>
</g>
<g id="clust3" class="cluster"><title>cluster_repo_aquilon</title>
<polygon fill="none" stroke="black" points="8,-1410 8,-1701 530,-1701 530,-1410 8,-1410"/>
<text text-anchor="middle" x="269" y="-1687.4" font-family="Sans" font-size="12.00">aquilon</text>
</g>
<g id="clust2" class="cluster"><title>cluster_milestone_22.12</title>
<polygon fill="none" stroke="black" points="10,-297 10,-963 538,-963 538,-297 10,-297"/>
<text text-anchor="middle" x="274" y="-949.4" font-family="Sans" font-size="12.00">22.12</text>
</g>
<!-- aii#328 -->
<g id="node1" class="node"><title>aii#328</title>
<g id="a_node1"><a xlink:href="https://github.com/quattor/aii/pull/328" xlink:title="aii#328 (pull-request)" target="_parent">
<polygon fill="#6cc644" stroke="black" points="206,-866 24,-866 24,-816 206,-816 206,-866"/>
<text text-anchor="middle" x="115" y="-844" font-family="Sans" font-size="10.00">aii-ks: generate ks post section</text>
<text text-anchor="middle" x="115" y="-833" font-family="Sans" font-size="10.00">as standalone script</text>
</a>
</g>
</g>
<!-- aii#280 -->
<g id="node2" class="node"><title>aii#280</title>
<polygon fill="lightgrey" stroke="black" points="757.5,-919.5 690.5,-919.5 690.5,-880.5 757.5,-880.5 757.5,-919.5"/>
<text text-anchor="middle" x="724" y="-897.5" font-family="Sans" font-size="10.00">aii#280</text>
</g>
<!-- aii#328&#45;&gt;aii#280 -->
<g id="edge1" class="edge"><title>aii#328-&gt;aii#280</title>
<path fill="none" stroke="black" stroke-dasharray="5,2" d="M206.044,-860.448C243.039,-867.725 286.41,-875.348 326,-880 454.367,-895.085 607.396,-898.802 680.296,-899.711"/>
<polygon fill="none" stroke="black" points="680.419,-903.213 690.457,-899.826 680.498,-896.213 680.419,-903.213"/>
<text text-anchor="middle" x="427.631" y="-882.891" font-family="Sans" font-size="10.00">requires</text>
</g>
<!-- aii#316 -->
<g id="node3" class="node"><title>aii#316</title>
<g id="a_node3"><a xlink:href="https://github.com/quattor/aii/pull/316" xlink:title="aii#316 (pull-request)" target="_parent">
<polygon fill="#6cc644" stroke="black" points="519,-871.5 343,-871.5 343,-810.5 519,-810.5 519,-871.5"/>
<text text-anchor="middle" x="431" y="-849.5" font-family="Sans" font-size="10.00">aii-ks: generate kickstart repo</text>
<text text-anchor="middle" x="431" y="-838.5" font-family="Sans" font-size="10.00">entries based on SPMA</text>
<text text-anchor="middle" x="431" y="-827.5" font-family="Sans" font-size="10.00">configuration</text>
</a>
</g>
</g>
<!-- aii#328&#45;&gt;aii#316 -->
<g id="edge2" class="edge"><title>aii#328-&gt;aii#316</title>
<path fill="none" stroke="black" stroke-dasharray="5,2" d="M206.401,-841C245.985,-841 292.502,-841 332.827,-841"/>
<polygon fill="none" stroke="black" points="332.938,-844.5 342.938,-841 332.938,-837.5 332.938,-844.5"/>
<text text-anchor="middle" x="254.91" y="-833" font-family="Sans" font-size="10.00">requires</text>
</g>
<!-- aii#316&#45;&gt;aii#280 -->
<g id="edge3" class="edge"><title>aii#316-&gt;aii#280</title>
<path fill="none" stroke="black" stroke-dasharray="5,2" d="M519.31,-858.702C572.513,-869.489 638.145,-882.796 680.279,-891.338"/>
<polygon fill="none" stroke="black" points="679.706,-894.793 690.202,-893.35 681.097,-887.933 679.706,-894.793"/>
<text text-anchor="middle" x="584.609" y="-867.996" font-family="Sans" font-size="10.00">requires</text>
</g>
<!-- aii#314 -->
<g id="node4" class="node"><title>aii#314</title>
<polygon fill="lightgrey" stroke="black" points="757.5,-861.5 690.5,-861.5 690.5,-822.5 757.5,-822.5 757.5,-861.5"/>
<text text-anchor="middle" x="724" y="-839.5" font-family="Sans" font-size="10.00">aii#314</text>
</g>
<!-- aii#316&#45;&gt;aii#314 -->
<g id="edge4" class="edge"><title>aii#316-&gt;aii#314</title>
<path fill="none" stroke="black" stroke-dasharray="5,2" d="M519.31,-841.3C572.401,-841.482 637.867,-841.707 680.012,-841.852"/>
<polygon fill="none" stroke="black" points="680.19,-845.353 690.202,-841.887 680.214,-838.353 680.19,-845.353"/>
<text text-anchor="middle" x="584.428" y="-833.593" font-family="Sans" font-size="10.00">requires</text>
</g>
<!-- aii#315 -->
<g id="node5" class="node"><title>aii#315</title>
<polygon fill="lightgrey" stroke="black" points="757.5,-804.5 690.5,-804.5 690.5,-765.5 757.5,-765.5 757.5,-804.5"/>
<text text-anchor="middle" x="724" y="-782.5" font-family="Sans" font-size="10.00">aii#315</text>
</g>
<!-- aii#316&#45;&gt;aii#315 -->
<g id="edge5" class="edge"><title>aii#316-&gt;aii#315</title>
<path fill="none" stroke="black" stroke-dasharray="5,2" d="M519.31,-824.198C572.513,-813.96 638.145,-801.33 680.279,-793.221"/>
<polygon fill="none" stroke="black" points="681.043,-796.638 690.202,-791.312 679.721,-789.765 681.043,-796.638"/>
<text text-anchor="middle" x="584.609" y="-799.783" font-family="Sans" font-size="10.00">requires</text>
</g>
<!-- aii#299 -->
<g id="node6" class="node"><title>aii#299</title>
<g id="a_node6"><a xlink:href="https://github.com/quattor/aii/pull/299" xlink:title="aii#299 (pull-request)" target="_parent">
<polygon fill="#6cc644" stroke="black" points="191.5,-934 38.5,-934 38.5,-884 191.5,-884 191.5,-934"/>
<text text-anchor="middle" x="115" y="-912" font-family="Sans" font-size="10.00">aii-dhcp: support optional</text>
<text text-anchor="middle" x="115" y="-901" font-family="Sans" font-size="10.00">hostname ip verification</text>
</a>
</g>
</g>
<!-- aii#299&#45;&gt;aii#280 -->
<g id="edge6" class="edge"><title>aii#299-&gt;aii#280</title>
<path fill="none" stroke="black" stroke-dasharray="5,2" d="M191.881,-912.163C276.38,-915.158 417.009,-918.571 538,-914 586.839,-912.155 642.775,-907.579 680.237,-904.157"/>
<polygon fill="none" stroke="black" points="680.658,-907.633 690.293,-903.226 680.012,-900.663 680.658,-907.633"/>
<text text-anchor="middle" x="421.065" y="-908.093" font-family="Sans" font-size="10.00">requires</text>
</g>
<!-- CAF#257 -->
<g id="node7" class="node"><title>CAF#257</title>
<g id="a_node7"><a xlink:href="https://github.com/quattor/CAF/pull/257" xlink:title="CAF#257 (pull-request)" target="_parent">
<polygon fill="#6cc644" stroke="black" points="206.5,-1103 23.5,-1103 23.5,-1053 206.5,-1053 206.5,-1103"/>
<text text-anchor="middle" x="115" y="-1081" font-family="Sans" font-size="10.00">Process: run process as another</text>
<text text-anchor="middle" x="115" y="-1070" font-family="Sans" font-size="10.00">user</text>
</a>
</g>
</g>
<!-- CAF#253 -->
<g id="node8" class="node"><title>CAF#253</title>
<g id="a_node8"><a xlink:href="https://github.com/quattor/CAF/issues/253" xlink:title="CAF#253 (issue)" target="_parent">
<path fill="#6cc644" stroke="black" d="M509,-1108.5C509,-1108.5 353,-1108.5 353,-1108.5 347,-1108.5 341,-1102.5 341,-1096.5 341,-1096.5 341,-1059.5 341,-1059.5 341,-1053.5 347,-1047.5 353,-1047.5 353,-1047.5 509,-1047.5 509,-1047.5 515,-1047.5 521,-1053.5 521,-1059.5 521,-1059.5 521,-1096.5 521,-1096.5 521,-1102.5 515,-1108.5 509,-1108.5"/>
<text text-anchor="middle" x="431" y="-1086.5" font-family="Sans" font-size="10.00">CAF::Process: Include an option</text>
<text text-anchor="middle" x="431" y="-1075.5" font-family="Sans" font-size="10.00">to execute the command as an</text>
<text text-anchor="middle" x="431" y="-1064.5" font-family="Sans" font-size="10.00">specific user</text>
</a>
</g>
</g>
<!-- CAF#257&#45;&gt;CAF#253 -->
<g id="edge7" class="edge"><title>CAF#257-&gt;CAF#253</title>
<path fill="none" stroke="black" stroke-width="2" d="M206.822,-1078C245.561,-1078 290.88,-1078 330.522,-1078"/>
<polygon fill="black" stroke="black" points="330.737,-1081.5 340.737,-1078 330.737,-1074.5 330.737,-1081.5"/>
<text text-anchor="middle" x="261.782" y="-1070" font-family="Sans" font-size="10.00">fixes</text>
</g>
<!-- CAF#110 -->
<g id="node9" class="node"><title>CAF#110</title>
<g id="a_node9"><a xlink:href="https://github.com/quattor/CAF/pull/110" xlink:title="CAF#110 (pull-request)" target="_parent">
<polygon fill="#6cc644" stroke="black" points="190.5,-571 39.5,-571 39.5,-521 190.5,-521 190.5,-571"/>
<text text-anchor="middle" x="115" y="-549" font-family="Sans" font-size="10.00">CAF::Download class: API</text>
<text text-anchor="middle" x="115" y="-538" font-family="Sans" font-size="10.00">proposal</text>
</a>
</g>
</g>
<!-- CAF#120 -->
<g id="node10" class="node"><title>CAF#120</title>
<polygon fill="lightgrey" stroke="black" points="468,-288.5 394,-288.5 394,-249.5 468,-249.5 468,-288.5"/>
<text text-anchor="middle" x="431" y="-266.5" font-family="Sans" font-size="10.00">CAF#120</text>
</g>
<!-- CAF#110&#45;&gt;CAF#120 -->
<g id="edge8" class="edge"><title>CAF#110-&gt;CAF#120</title>
<path fill="none" stroke="black" stroke-dasharray="5,2" d="M190.545,-528.983C200.477,-524.558 209.981,-518.993 218,-512 299.79,-440.669 240.917,-360.369 326,-293 342.33,-280.07 364.37,-273.868 383.958,-270.978"/>
<polygon fill="none" stroke="black" points="384.436,-274.445 393.934,-269.75 383.582,-267.498 384.436,-274.445"/>
<text text-anchor="middle" x="251.562" y="-388.195" font-family="Sans" font-size="10.00">requires</text>
</g>
<!-- configuration&#45;modules&#45;core#1554 -->
<g id="node11" class="node"><title>configuration-modules-core#1554</title>
<g id="a_node11"><a xlink:href="https://github.com/quattor/configuration-modules-core/pull/1554" xlink:title="configuration-modules-core#1554 (pull-request)" target="_parent">
<polygon fill="#6cc644" stroke="black" points="200,-503 30,-503 30,-453 200,-453 200,-503"/>
<text text-anchor="middle" x="115" y="-481" font-family="Sans" font-size="10.00">avoid removing empty list of</text>
<text text-anchor="middle" x="115" y="-470" font-family="Sans" font-size="10.00">packages</text>
</a>
</g>
</g>
<!-- configuration&#45;modules&#45;core#1553 -->
<g id="node12" class="node"><title>configuration-modules-core#1553</title>
<g id="a_node12"><a xlink:href="https://github.com/quattor/configuration-modules-core/issues/1553" xlink:title="configuration-modules-core#1553 (issue)" target="_parent">
<path fill="#6cc644" stroke="black" d="M511.5,-231.5C511.5,-231.5 350.5,-231.5 350.5,-231.5 344.5,-231.5 338.5,-225.5 338.5,-219.5 338.5,-219.5 338.5,-182.5 338.5,-182.5 338.5,-176.5 344.5,-170.5 350.5,-170.5 350.5,-170.5 511.5,-170.5 511.5,-170.5 517.5,-170.5 523.5,-176.5 523.5,-182.5 523.5,-182.5 523.5,-219.5 523.5,-219.5 523.5,-225.5 517.5,-231.5 511.5,-231.5"/>
<text text-anchor="middle" x="431" y="-209.5" font-family="Sans" font-size="10.00">ncm-spma: update_pkgs in yum</text>
<text text-anchor="middle" x="431" y="-198.5" font-family="Sans" font-size="10.00">plugin tries to remove empty</text>
<text text-anchor="middle" x="431" y="-187.5" font-family="Sans" font-size="10.00">list of packages</text>
</a>
</g>
</g>
<!-- configuration&#45;modules&#45;core#1554&#45;&gt;configuration&#45;modules&#45;core#1553 -->
<g id="edge9" class="edge"><title>configuration-modules-core#1554-&gt;configuration-modules-core#1553</title>
<path fill="none" stroke="black" stroke-width="2" d="M200.15,-455.128C206.534,-451.634 212.587,-447.617 218,-443 295.754,-376.68 249.19,-307.411 326,-240 327.295,-238.863 328.627,-237.758 329.991,-236.684"/>
<polygon fill="black" stroke="black" points="332.028,-239.531 338.125,-230.866 327.956,-233.837 332.028,-239.531"/>
<text text-anchor="middle" x="259.994" y="-335.504" font-family="Sans" font-size="10.00">fixes</text>
</g>
<!-- configuration&#45;modules&#45;core#1490 -->
<g id="node13" class="node"><title>configuration-modules-core#1490</title>
<g id="a_node13"><a xlink:href="https://github.com/quattor/configuration-modules-core/pull/1490" xlink:title="configuration-modules-core#1490 (pull-request)" target="_parent">
<polygon fill="#6cc644" stroke="black" points="198.5,-434.5 31.5,-434.5 31.5,-373.5 198.5,-373.5 198.5,-434.5"/>
<text text-anchor="middle" x="115" y="-412.5" font-family="Sans" font-size="10.00">ncm-ceph: Add support for</text>
<text text-anchor="middle" x="115" y="-401.5" font-family="Sans" font-size="10.00">orchestrator/cephadm under</text>
<text text-anchor="middle" x="115" y="-390.5" font-family="Sans" font-size="10.00">octopus</text>
</a>
</g>
</g>
<!-- configuration&#45;modules&#45;core#1463 -->
<g id="node14" class="node"><title>configuration-modules-core#1463</title>
<polygon fill="lightgrey" stroke="black" points="528.5,-152.5 333.5,-152.5 333.5,-113.5 528.5,-113.5 528.5,-152.5"/>
<text text-anchor="middle" x="431" y="-130.5" font-family="Sans" font-size="10.00">configuration-modules-core#1463</text>
</g>
<!-- configuration&#45;modules&#45;core#1490&#45;&gt;configuration&#45;modules&#45;core#1463 -->
<g id="edge10" class="edge"><title>configuration-modules-core#1490-&gt;configuration-modules-core#1463</title>
<path fill="none" stroke="black" stroke-dasharray="1,5" d="M198.668,-377.727C205.603,-373.74 212.177,-369.188 218,-364 294.304,-296.017 246.051,-224.657 326,-161 327.408,-159.879 328.857,-158.803 330.342,-157.769"/>
<polygon fill="black" stroke="black" points="339.207,-152.308 333.053,-161.385 334.95,-154.931 330.693,-157.553 330.693,-157.553 330.693,-157.553 334.95,-154.931 328.333,-153.722 339.207,-152.308 339.207,-152.308"/>
<text text-anchor="middle" x="248.758" y="-256.899" font-family="Sans" font-size="10.00">replaces</text>
</g>
<!-- configuration&#45;modules&#45;core#1464 -->
<g id="node15" class="node"><title>configuration-modules-core#1464</title>
<g id="a_node15"><a xlink:href="https://github.com/quattor/configuration-modules-core/pull/1464" xlink:title="configuration-modules-core#1464 (pull-request)" target="_parent">
<polygon fill="#6e5494" stroke="black" points="207,-797.5 23,-797.5 23,-736.5 207,-736.5 207,-797.5"/>
<text text-anchor="middle" x="115" y="-775.5" font-family="Sans" font-size="10.00">ncm-systemd: all pre and post</text>
<text text-anchor="middle" x="115" y="-764.5" font-family="Sans" font-size="10.00">exec commands now take a list</text>
<text text-anchor="middle" x="115" y="-753.5" font-family="Sans" font-size="10.00">instead of a string</text>
</a>
</g>
</g>
<!-- template&#45;library&#45;core#212 -->
<g id="node16" class="node"><title>template-library-core#212</title>
<g id="a_node16"><a xlink:href="https://github.com/quattor/template-library-core/pull/212" xlink:title="template-library-core#212 (pull-request)" target="_parent">
<polygon fill="#6e5494" stroke="black" points="518.5,-792.5 343.5,-792.5 343.5,-731.5 518.5,-731.5 518.5,-792.5"/>
<text text-anchor="middle" x="431" y="-770.5" font-family="Sans" font-size="10.00">Add a transitional type for</text>
<text text-anchor="middle" x="431" y="-759.5" font-family="Sans" font-size="10.00">strings being migrated to lists</text>
<text text-anchor="middle" x="431" y="-748.5" font-family="Sans" font-size="10.00">of strings</text>
</a>
</g>
</g>
<!-- configuration&#45;modules&#45;core#1464&#45;&gt;template&#45;library&#45;core#212 -->
<g id="edge11" class="edge"><title>configuration-modules-core#1464-&gt;template-library-core#212</title>
<path fill="none" stroke="black" stroke-dasharray="5,2" d="M207.244,-765.547C246.805,-764.917 293.166,-764.179 333.319,-763.54"/>
<polygon fill="none" stroke="black" points="333.443,-767.038 343.386,-763.379 333.331,-760.039 333.443,-767.038"/>
<text text-anchor="middle" x="255.112" y="-756.466" font-family="Sans" font-size="10.00">requires</text>
</g>
<!-- configuration&#45;modules&#45;core#1452 -->
<g id="node17" class="node"><title>configuration-modules-core#1452</title>
<g id="a_node17"><a xlink:href="https://github.com/quattor/configuration-modules-core/pull/1452" xlink:title="configuration-modules-core#1452 (pull-request)" target="_parent">
<polygon fill="#6cc644" stroke="black" points="201.5,-355 28.5,-355 28.5,-305 201.5,-305 201.5,-355"/>
<text text-anchor="middle" x="115" y="-333" font-family="Sans" font-size="10.00">ncm-metaconfig: ssh daemon</text>
<text text-anchor="middle" x="115" y="-322" font-family="Sans" font-size="10.00">configuration support</text>
</a>
</g>
</g>
<!-- configuration&#45;modules&#45;core#1377 -->
<g id="node18" class="node"><title>configuration-modules-core#1377</title>
<polygon fill="lightgrey" stroke="black" points="528.5,-38.5 333.5,-38.5 333.5,0.5 528.5,0.5 528.5,-38.5"/>
<text text-anchor="middle" x="431" y="-16.5" font-family="Sans" font-size="10.00">configuration-modules-core#1377</text>
</g>
<!-- configuration&#45;modules&#45;core#1452&#45;&gt;configuration&#45;modules&#45;core#1377 -->
<g id="edge12" class="edge"><title>configuration-modules-core#1452-&gt;configuration-modules-core#1377</title>
<path fill="none" stroke="black" stroke-dasharray="1,5" d="M127.428,-304.767C153.93,-249.186 225.104,-115.686 326,-47 327.947,-45.6748 329.953,-44.4123 332.01,-43.2094"/>
<polygon fill="black" stroke="black" points="341.31,-38.3084 334.561,-46.9515 336.887,-40.6394 332.463,-42.9705 332.463,-42.9705 332.463,-42.9705 336.887,-40.6394 330.365,-38.9894 341.31,-38.3084 341.31,-38.3084"/>
<text text-anchor="middle" x="194.725" y="-149.246" font-family="Sans" font-size="10.00">replaces</text>
</g>
<!-- configuration&#45;modules&#45;core#1451 -->
<g id="node19" class="node"><title>configuration-modules-core#1451</title>
<polygon fill="lightgrey" stroke="black" points="528.5,-95.5 333.5,-95.5 333.5,-56.5 528.5,-56.5 528.5,-95.5"/>
<text text-anchor="middle" x="431" y="-73.5" font-family="Sans" font-size="10.00">configuration-modules-core#1451</text>
</g>
<!-- configuration&#45;modules&#45;core#1452&#45;&gt;configuration&#45;modules&#45;core#1451 -->
<g id="edge13" class="edge"><title>configuration-modules-core#1452-&gt;configuration-modules-core#1451</title>
<path fill="none" stroke="black" stroke-dasharray="5,2" d="M132.3,-304.643C163.841,-257.672 237.932,-157.095 326,-104 328.515,-102.484 331.112,-101.049 333.773,-99.6897"/>
<polygon fill="none" stroke="black" points="335.459,-102.765 343.034,-95.3577 332.493,-96.4244 335.459,-102.765"/>
<text text-anchor="middle" x="204.982" y="-180.08" font-family="Sans" font-size="10.00">requires</text>
</g>
<!-- configuration&#45;modules&#45;core#1336 -->
<g id="node20" class="node"><title>configuration-modules-core#1336</title>
<g id="a_node20"><a xlink:href="https://github.com/quattor/configuration-modules-core/pull/1336" xlink:title="configuration-modules-core#1336 (pull-request)" target="_parent">
<polygon fill="#6cc644" stroke="black" points="202,-718.5 28,-718.5 28,-657.5 202,-657.5 202,-718.5"/>
<text text-anchor="middle" x="115" y="-696.5" font-family="Sans" font-size="10.00">ncm-network: Add support for</text>
<text text-anchor="middle" x="115" y="-685.5" font-family="Sans" font-size="10.00">CAF::Service actions after</text>
<text text-anchor="middle" x="115" y="-674.5" font-family="Sans" font-size="10.00">changes</text>
</a>
</g>
</g>
<!-- configuration&#45;modules&#45;core#1335 -->
<g id="node21" class="node"><title>configuration-modules-core#1335</title>
<g id="a_node21"><a xlink:href="https://github.com/quattor/configuration-modules-core/pull/1335" xlink:title="configuration-modules-core#1335 (pull-request)" target="_parent">
<polygon fill="#6cc644" stroke="black" points="524,-644.5 338,-644.5 338,-583.5 524,-583.5 524,-644.5"/>
<text text-anchor="middle" x="431" y="-622.5" font-family="Sans" font-size="10.00">ncm-metaconfig: Remove</text>
<text text-anchor="middle" x="431" y="-611.5" font-family="Sans" font-size="10.00">caf_service_action type to allow</text>
<text text-anchor="middle" x="431" y="-600.5" font-family="Sans" font-size="10.00">reuse</text>
</a>
</g>
</g>
<!-- configuration&#45;modules&#45;core#1336&#45;&gt;configuration&#45;modules&#45;core#1335 -->
<g id="edge14" class="edge"><title>configuration-modules-core#1336-&gt;configuration-modules-core#1335</title>
<path fill="none" stroke="black" stroke-dasharray="5,2" d="M202.217,-667.681C241.13,-658.511 287.379,-647.611 328.004,-638.037"/>
<polygon fill="none" stroke="black" points="329.001,-641.398 337.931,-635.698 327.395,-634.585 329.001,-641.398"/>
<text text-anchor="middle" x="250.016" y="-643.703" font-family="Sans" font-size="10.00">requires</text>
</g>
<!-- configuration&#45;modules&#45;core#1071 -->
<g id="node22" class="node"><title>configuration-modules-core#1071</title>
<g id="a_node22"><a xlink:href="https://github.com/quattor/configuration-modules-core/issues/1071" xlink:title="configuration-modules-core#1071 (issue)" target="_parent">
<path fill="#6cc644" stroke="black" d="M517.5,-713C517.5,-713 344.5,-713 344.5,-713 338.5,-713 332.5,-707 332.5,-701 332.5,-701 332.5,-675 332.5,-675 332.5,-669 338.5,-663 344.5,-663 344.5,-663 517.5,-663 517.5,-663 523.5,-663 529.5,-669 529.5,-675 529.5,-675 529.5,-701 529.5,-701 529.5,-707 523.5,-713 517.5,-713"/>
<text text-anchor="middle" x="431" y="-691" font-family="Sans" font-size="10.00">ncm-network: support daemons to</text>
<text text-anchor="middle" x="431" y="-680" font-family="Sans" font-size="10.00">restart after network changes</text>
</a>
</g>
</g>
<!-- configuration&#45;modules&#45;core#1336&#45;&gt;configuration&#45;modules&#45;core#1071 -->
<g id="edge15" class="edge"><title>configuration-modules-core#1336-&gt;configuration-modules-core#1071</title>
<path fill="none" stroke="black" stroke-width="2" d="M202.217,-688C239.216,-688 282.848,-688 321.972,-688"/>
<polygon fill="black" stroke="black" points="322.345,-691.5 332.344,-688 322.344,-684.5 322.345,-691.5"/>
<text text-anchor="middle" x="255.527" y="-680" font-family="Sans" font-size="10.00">fixes</text>
</g>
<!-- template&#45;library&#45;core#191 -->
<g id="node23" class="node"><title>template-library-core#191</title>
<polygon fill="lightgrey" stroke="black" points="803.5,-633.5 644.5,-633.5 644.5,-594.5 803.5,-594.5 803.5,-633.5"/>
<text text-anchor="middle" x="724" y="-611.5" font-family="Sans" font-size="10.00">template-library-core#191</text>
</g>
<!-- configuration&#45;modules&#45;core#1335&#45;&gt;template&#45;library&#45;core#191 -->
<g id="edge16" class="edge"><title>configuration-modules-core#1335-&gt;template-library-core#191</title>
<path fill="none" stroke="black" stroke-dasharray="5,2" d="M524.074,-614C559.234,-614 599.228,-614 634.088,-614"/>
<polygon fill="none" stroke="black" points="634.251,-617.5 644.251,-614 634.251,-610.5 634.251,-617.5"/>
<text text-anchor="middle" x="564.026" y="-606" font-family="Sans" font-size="10.00">requires</text>
</g>
<!-- configuration&#45;modules&#45;core#1507 -->
<g id="node24" class="node"><title>configuration-modules-core#1507</title>
<g id="a_node24"><a xlink:href="https://github.com/quattor/configuration-modules-core/pull/1507" xlink:title="configuration-modules-core#1507 (pull-request)" target="_parent">
<polygon fill="#6cc644" stroke="black" points="203,-1196 27,-1196 27,-1146 203,-1146 203,-1196"/>
<text text-anchor="middle" x="115" y="-1174" font-family="Sans" font-size="10.00">[WIP] ncm-spma: yumdnf: use</text>
<text text-anchor="middle" x="115" y="-1163" font-family="Sans" font-size="10.00">spmaleaves dnf plugin</text>
</a>
</g>
</g>
<!-- configuration&#45;modules&#45;core#1401 -->
<g id="node25" class="node"><title>configuration-modules-core#1401</title>
<polygon fill="lightgrey" stroke="black" points="528.5,-1190.5 333.5,-1190.5 333.5,-1151.5 528.5,-1151.5 528.5,-1190.5"/>
<text text-anchor="middle" x="431" y="-1168.5" font-family="Sans" font-size="10.00">configuration-modules-core#1401</text>
</g>
<!-- configuration&#45;modules&#45;core#1507&#45;&gt;configuration&#45;modules&#45;core#1401 -->
<g id="edge17" class="edge"><title>configuration-modules-core#1507-&gt;configuration-modules-core#1401</title>
<path fill="none" stroke="black" stroke-dasharray="5,2" d="M203.05,-1171C240.203,-1171 283.927,-1171 323.027,-1171"/>
<polygon fill="none" stroke="black" points="323.391,-1174.5 333.391,-1171 323.391,-1167.5 323.391,-1174.5"/>
<text text-anchor="middle" x="248.549" y="-1163" font-family="Sans" font-size="10.00">requires</text>
</g>
<!-- configuration&#45;modules&#45;core#1148 -->
<g id="node26" class="node"><title>configuration-modules-core#1148</title>
<g id="a_node26"><a xlink:href="https://github.com/quattor/configuration-modules-core/pull/1148" xlink:title="configuration-modules-core#1148 (pull-request)" target="_parent">
<polygon fill="#6cc644" stroke="black" points="214.5,-1332 15.5,-1332 15.5,-1282 214.5,-1282 214.5,-1332"/>
<text text-anchor="middle" x="115" y="-1310" font-family="Sans" font-size="10.00">ncm-spma: Remove support from</text>
<text text-anchor="middle" x="115" y="-1299" font-family="Sans" font-size="10.00">groups from spma yumng backend</text>
</a>
</g>
</g>
<!-- configuration&#45;modules&#45;core#952 -->
<g id="node27" class="node"><title>configuration-modules-core#952</title>
<g id="a_node27"><a xlink:href="https://github.com/quattor/configuration-modules-core/issues/952" xlink:title="configuration-modules-core#952 (issue)" target="_parent">
<path fill="#6cc644" stroke="black" d="M524,-1332C524,-1332 338,-1332 338,-1332 332,-1332 326,-1326 326,-1320 326,-1320 326,-1294 326,-1294 326,-1288 332,-1282 338,-1282 338,-1282 524,-1282 524,-1282 530,-1282 536,-1288 536,-1294 536,-1294 536,-1320 536,-1320 536,-1326 530,-1332 524,-1332"/>
<text text-anchor="middle" x="431" y="-1310" font-family="Sans" font-size="10.00">ncm-spma (yumng): Remove support</text>
<text text-anchor="middle" x="431" y="-1299" font-family="Sans" font-size="10.00">for package groups</text>
</a>
</g>
</g>
<!-- configuration&#45;modules&#45;core#1148&#45;&gt;configuration&#45;modules&#45;core#952 -->
<g id="edge18" class="edge"><title>configuration-modules-core#1148-&gt;configuration-modules-core#952</title>
<path fill="none" stroke="black" stroke-width="2" d="M214.921,-1307C246.933,-1307 282.695,-1307 315.726,-1307"/>
<polygon fill="black" stroke="black" points="315.883,-1310.5 325.883,-1307 315.882,-1303.5 315.883,-1310.5"/>
<text text-anchor="middle" x="258.546" y="-1299" font-family="Sans" font-size="10.00">fixes</text>
</g>
<!-- configuration&#45;modules&#45;core#950 -->
<g id="node28" class="node"><title>configuration-modules-core#950</title>
<g id="a_node28"><a xlink:href="https://github.com/quattor/configuration-modules-core/issues/950" xlink:title="configuration-modules-core#950 (issue)" target="_parent">
<path fill="#6cc644" stroke="black" d="M206,-1264C206,-1264 24,-1264 24,-1264 18,-1264 12,-1258 12,-1252 12,-1252 12,-1226 12,-1226 12,-1220 18,-1214 24,-1214 24,-1214 206,-1214 206,-1214 212,-1214 218,-1220 218,-1226 218,-1226 218,-1252 218,-1252 218,-1258 212,-1264 206,-1264"/>
<text text-anchor="middle" x="115" y="-1242" font-family="Sans" font-size="10.00">ncm-spma: Remove support for</text>
<text text-anchor="middle" x="115" y="-1231" font-family="Sans" font-size="10.00">package groups from yum backends</text>
</a>
</g>
</g>
<!-- configuration&#45;modules&#45;core#951 -->
<g id="node29" class="node"><title>configuration-modules-core#951</title>
<g id="a_node29"><a xlink:href="https://github.com/quattor/configuration-modules-core/issues/951" xlink:title="configuration-modules-core#951 (issue)" target="_parent">
<path fill="#6cc644" stroke="black" d="M518,-1264C518,-1264 344,-1264 344,-1264 338,-1264 332,-1258 332,-1252 332,-1252 332,-1226 332,-1226 332,-1220 338,-1214 344,-1214 344,-1214 518,-1214 518,-1214 524,-1214 530,-1220 530,-1226 530,-1226 530,-1252 530,-1252 530,-1258 524,-1264 518,-1264"/>
<text text-anchor="middle" x="431" y="-1242" font-family="Sans" font-size="10.00">ncm-spma (yum): Remove support</text>
<text text-anchor="middle" x="431" y="-1231" font-family="Sans" font-size="10.00">for package groups</text>
</a>
</g>
</g>
<!-- configuration&#45;modules&#45;core#950&#45;&gt;configuration&#45;modules&#45;core#951 -->
<g id="edge19" class="edge"><title>configuration-modules-core#950-&gt;configuration-modules-core#951</title>
<path fill="none" stroke="black" stroke-dasharray="5,2" d="M218.381,-1239C251.386,-1239 288.071,-1239 321.502,-1239"/>
<polygon fill="none" stroke="black" points="321.765,-1242.5 331.765,-1239 321.765,-1235.5 321.765,-1242.5"/>
<text text-anchor="middle" x="255.107" y="-1231" font-family="Sans" font-size="10.00">requires</text>
</g>
<!-- configuration&#45;modules&#45;core#950&#45;&gt;configuration&#45;modules&#45;core#952 -->
<g id="edge20" class="edge"><title>configuration-modules-core#950-&gt;configuration-modules-core#952</title>
<path fill="none" stroke="black" stroke-dasharray="5,2" d="M218.381,-1261.17C249.602,-1267.93 284.116,-1275.41 316.053,-1282.32"/>
<polygon fill="none" stroke="black" points="315.361,-1285.75 325.876,-1284.45 316.843,-1278.91 315.361,-1285.75"/>
<text text-anchor="middle" x="252.372" y="-1264.86" font-family="Sans" font-size="10.00">requires</text>
</g>
<!-- template&#45;library&#45;grid#241 -->
<g id="node30" class="node"><title>template-library-grid#241</title>
<g id="a_node30"><a xlink:href="https://github.com/quattor/template-library-grid/pull/241" xlink:title="template-library-grid#241 (pull-request)" target="_parent">
<polygon fill="#6cc644" stroke="black" points="212,-639 18,-639 18,-589 212,-589 212,-639"/>
<text text-anchor="middle" x="115" y="-617" font-family="Sans" font-size="10.00">machines-types update based on</text>
<text text-anchor="middle" x="115" y="-606" font-family="Sans" font-size="10.00">new standard/machine-types/core</text>
</a>
</g>
</g>
<!-- template&#45;library&#45;standard#140 -->
<g id="node31" class="node"><title>template-library-standard#140</title>
<g id="a_node31"><a xlink:href="https://github.com/quattor/template-library-standard/pull/140" xlink:title="template-library-standard#140 (pull-request)" target="_parent">
<polygon fill="#6cc644" stroke="black" points="522,-565 340,-565 340,-515 522,-515 522,-565"/>
<text text-anchor="middle" x="431" y="-543" font-family="Sans" font-size="10.00">machine-types/core refactoring</text>
<text text-anchor="middle" x="431" y="-532" font-family="Sans" font-size="10.00">to make it more flexible</text>
</a>
</g>
</g>
<!-- template&#45;library&#45;grid#241&#45;&gt;template&#45;library&#45;standard#140 -->
<g id="edge21" class="edge"><title>template-library-grid#241-&gt;template-library-standard#140</title>
<path fill="none" stroke="black" stroke-dasharray="5,2" d="M212.344,-591.295C249.579,-582.52 292.193,-572.477 329.786,-563.617"/>
<polygon fill="none" stroke="black" points="330.806,-566.973 339.737,-561.272 329.201,-560.159 330.806,-566.973"/>
<text text-anchor="middle" x="256.089" y="-568.272" font-family="Sans" font-size="10.00">requires</text>
</g>
<!-- template&#45;library&#45;grid#232 -->
<g id="node32" class="node"><title>template-library-grid#232</title>
<g id="a_node32"><a xlink:href="https://github.com/quattor/template-library-grid/pull/232" xlink:title="template-library-grid#232 (pull-request)" target="_parent">
<polygon fill="#6cc644" stroke="black" points="198.5,-1029 31.5,-1029 31.5,-979 198.5,-979 198.5,-1029"/>
<text text-anchor="middle" x="115" y="-1007" font-family="Sans" font-size="10.00">arc-ce: Export arc-ce feature</text>
<text text-anchor="middle" x="115" y="-996" font-family="Sans" font-size="10.00">from aquilon at RAL</text>
</a>
</g>
</g>
<!-- template&#45;library&#45;grid#221 -->
<g id="node33" class="node"><title>template-library-grid#221</title>
<g id="a_node33"><a xlink:href="https://github.com/quattor/template-library-grid/issues/221" xlink:title="template-library-grid#221 (issue)" target="_parent">
<path fill="#6cc644" stroke="black" d="M508,-1029C508,-1029 354,-1029 354,-1029 348,-1029 342,-1023 342,-1017 342,-1017 342,-991 342,-991 342,-985 348,-979 354,-979 354,-979 508,-979 508,-979 514,-979 520,-985 520,-991 520,-991 520,-1017 520,-1017 520,-1023 514,-1029 508,-1029"/>
<text text-anchor="middle" x="431" y="-1007" font-family="Sans" font-size="10.00">Support for new CE types (ARC</text>
<text text-anchor="middle" x="431" y="-996" font-family="Sans" font-size="10.00">CE, HTCONDOR CE)</text>
</a>
</g>
</g>
<!-- template&#45;library&#45;grid#232&#45;&gt;template&#45;library&#45;grid#221 -->
<g id="edge22" class="edge"><title>template-library-grid#232-&gt;template-library-grid#221</title>
<path fill="none" stroke="black" stroke-width="2" d="M198.911,-1004C239.702,-1004 289.151,-1004 331.823,-1004"/>
<polygon fill="black" stroke="black" points="331.947,-1007.5 341.947,-1004 331.947,-1000.5 331.947,-1007.5"/>
<text text-anchor="middle" x="258.543" y="-996" font-family="Sans" font-size="10.00">fixes</text>
</g>
<!-- template&#45;library&#45;standard#151 -->
<g id="node34" class="node"><title>template-library-standard#151</title>
<g id="a_node34"><a xlink:href="https://github.com/quattor/template-library-standard/pull/151" xlink:title="template-library-standard#151 (pull-request)" target="_parent">
<polygon fill="#6cc644" stroke="black" points="197,-1400 33,-1400 33,-1350 197,-1350 197,-1400"/>
<text text-anchor="middle" x="115" y="-1378" font-family="Sans" font-size="10.00">support for muti options</text>
<text text-anchor="middle" x="115" y="-1367" font-family="Sans" font-size="10.00">settings for logical volumes</text>
</a>
</g>
</g>
<!-- template&#45;library&#45;standard#150 -->
<g id="node35" class="node"><title>template-library-standard#150</title>
<g id="a_node35"><a xlink:href="https://github.com/quattor/template-library-standard/issues/150" xlink:title="template-library-standard#150 (issue)" target="_parent">
<path fill="#6cc644" stroke="black" d="M507.5,-1400C507.5,-1400 354.5,-1400 354.5,-1400 348.5,-1400 342.5,-1394 342.5,-1388 342.5,-1388 342.5,-1362 342.5,-1362 342.5,-1356 348.5,-1350 354.5,-1350 354.5,-1350 507.5,-1350 507.5,-1350 513.5,-1350 519.5,-1356 519.5,-1362 519.5,-1362 519.5,-1388 519.5,-1388 519.5,-1394 513.5,-1400 507.5,-1400"/>
<text text-anchor="middle" x="431" y="-1378" font-family="Sans" font-size="10.00">way to set lvm raid type when</text>
<text text-anchor="middle" x="431" y="-1367" font-family="Sans" font-size="10.00">vol type = lvm</text>
</a>
</g>
</g>
<!-- template&#45;library&#45;standard#151&#45;&gt;template&#45;library&#45;standard#150 -->
<g id="edge23" class="edge"><title>template-library-standard#151-&gt;template-library-standard#150</title>
<path fill="none" stroke="black" stroke-width="2" d="M197.271,-1375C238.574,-1375 289.071,-1375 332.459,-1375"/>
<polygon fill="black" stroke="black" points="332.461,-1378.5 342.461,-1375 332.461,-1371.5 332.461,-1378.5"/>
<text text-anchor="middle" x="258.071" y="-1367" font-family="Sans" font-size="10.00">fixes</text>
</g>
<!-- aquilon#115 -->
<g id="node36" class="node"><title>aquilon#115</title>
<g id="a_node36"><a xlink:href="https://github.com/quattor/aquilon/pull/115" xlink:title="aquilon#115 (pull-request)" target="_parent">
<polygon fill="#6cc644" stroke="black" points="198,-1672 32,-1672 32,-1622 198,-1622 198,-1672"/>
<text text-anchor="middle" x="115" y="-1650" font-family="Sans" font-size="10.00">services: insert service data</text>
<text text-anchor="middle" x="115" y="-1639" font-family="Sans" font-size="10.00">early in the object template</text>
</a>
</g>
</g>
<!-- aquilon#109 -->
<g id="node37" class="node"><title>aquilon#109</title>
<g id="a_node37"><a xlink:href="https://github.com/quattor/aquilon/issues/109" xlink:title="aquilon#109 (issue)" target="_parent">
<path fill="#6cc644" stroke="black" d="M507,-1671.5C507,-1671.5 355,-1671.5 355,-1671.5 349,-1671.5 343,-1665.5 343,-1659.5 343,-1659.5 343,-1622.5 343,-1622.5 343,-1616.5 349,-1610.5 355,-1610.5 355,-1610.5 507,-1610.5 507,-1610.5 513,-1610.5 519,-1616.5 519,-1622.5 519,-1622.5 519,-1659.5 519,-1659.5 519,-1665.5 513,-1671.5 507,-1671.5"/>
<text text-anchor="middle" x="431" y="-1649.5" font-family="Sans" font-size="10.00">Why service configuration is</text>
<text text-anchor="middle" x="431" y="-1638.5" font-family="Sans" font-size="10.00">included so late in the plenary</text>
<text text-anchor="middle" x="431" y="-1627.5" font-family="Sans" font-size="10.00">object?</text>
</a>
</g>
</g>
<!-- aquilon#115&#45;&gt;aquilon#109 -->
<g id="edge24" class="edge"><title>aquilon#115-&gt;aquilon#109</title>
<path fill="none" stroke="black" stroke-width="2" d="M198.09,-1645.43C239.304,-1644.64 289.515,-1643.68 332.663,-1642.86"/>
<polygon fill="black" stroke="black" points="332.965,-1646.35 342.896,-1642.66 332.831,-1639.36 332.965,-1646.35"/>
<text text-anchor="middle" x="258.61" y="-1636.05" font-family="Sans" font-size="10.00">fixes</text>
</g>
<!-- aquilon#110 -->
<g id="node38" class="node"><title>aquilon#110</title>
<g id="a_node38"><a xlink:href="https://github.com/quattor/aquilon/pull/110" xlink:title="aquilon#110 (pull-request)" target="_parent">
<polygon fill="#6cc644" stroke="black" points="213.5,-1536 16.5,-1536 16.5,-1486 213.5,-1486 213.5,-1536"/>
<text text-anchor="middle" x="115" y="-1514" font-family="Sans" font-size="10.00">Change site and machine</text>
<text text-anchor="middle" x="115" y="-1503" font-family="Sans" font-size="10.00">namespace to use continent name</text>
</a>
</g>
</g>
<!-- aquilon#104 -->
<g id="node39" class="node"><title>aquilon#104</title>
<g id="a_node39"><a xlink:href="https://github.com/quattor/aquilon/issues/104" xlink:title="aquilon#104 (issue)" target="_parent">
<path fill="#6cc644" stroke="black" d="M496.5,-1570C496.5,-1570 365.5,-1570 365.5,-1570 359.5,-1570 353.5,-1564 353.5,-1558 353.5,-1558 353.5,-1532 353.5,-1532 353.5,-1526 359.5,-1520 365.5,-1520 365.5,-1520 496.5,-1520 496.5,-1520 502.5,-1520 508.5,-1526 508.5,-1532 508.5,-1532 508.5,-1558 508.5,-1558 508.5,-1564 502.5,-1570 496.5,-1570"/>
<text text-anchor="middle" x="431" y="-1548" font-family="Sans" font-size="10.00">1.12.62: location related</text>
<text text-anchor="middle" x="431" y="-1537" font-family="Sans" font-size="10.00">templates cannot be used</text>
</a>
</g>
</g>
<!-- aquilon#110&#45;&gt;aquilon#104 -->
<g id="edge25" class="edge"><title>aquilon#110-&gt;aquilon#104</title>
<path fill="none" stroke="black" stroke-width="2" d="M213.63,-1521.57C255.122,-1526.06 303.101,-1531.26 343.32,-1535.61"/>
<polygon fill="black" stroke="black" points="343.05,-1539.11 353.369,-1536.7 343.804,-1532.15 343.05,-1539.11"/>
<text text-anchor="middle" x="271.634" y="-1521.15" font-family="Sans" font-size="10.00">fixes</text>
</g>
<!-- aquilon#91 -->
<g id="node40" class="node"><title>aquilon#91</title>
<g id="a_node40"><a xlink:href="https://github.com/quattor/aquilon/issues/91" xlink:title="aquilon#91 (issue)" target="_parent">
<path fill="#6cc644" stroke="black" d="M190.5,-1604C190.5,-1604 39.5,-1604 39.5,-1604 33.5,-1604 27.5,-1598 27.5,-1592 27.5,-1592 27.5,-1566 27.5,-1566 27.5,-1560 33.5,-1554 39.5,-1554 39.5,-1554 190.5,-1554 190.5,-1554 196.5,-1554 202.5,-1560 202.5,-1566 202.5,-1566 202.5,-1592 202.5,-1592 202.5,-1598 196.5,-1604 190.5,-1604"/>
<text text-anchor="middle" x="115" y="-1582" font-family="Sans" font-size="10.00">1.12.58: city timezone is not</text>
<text text-anchor="middle" x="115" y="-1571" font-family="Sans" font-size="10.00">passed to the object template</text>
</a>
</g>
</g>
<!-- aquilon#91&#45;&gt;aquilon#104 -->
<g id="edge26" class="edge"><title>aquilon#91-&gt;aquilon#104</title>
<path fill="none" stroke="black" stroke-dasharray="5,2" d="M202.633,-1569.62C246.42,-1564.88 299.413,-1559.14 343.22,-1554.4"/>
<polygon fill="none" stroke="black" points="343.716,-1557.86 353.281,-1553.31 342.962,-1550.9 343.716,-1557.86"/>
<text text-anchor="middle" x="258.022" y="-1553.46" font-family="Sans" font-size="10.00">requires</text>
</g>
<!-- aquilon#89 -->
<g id="node41" class="node"><title>aquilon#89</title>
<g id="a_node41"><a xlink:href="https://github.com/quattor/aquilon/pull/89" xlink:title="aquilon#89 (pull-request)" target="_parent">
<polygon fill="#6cc644" stroke="black" points="201.5,-1468 28.5,-1468 28.5,-1418 201.5,-1418 201.5,-1468"/>
<text text-anchor="middle" x="115" y="-1446" font-family="Sans" font-size="10.00">Broker: pass archetype to the</text>
<text text-anchor="middle" x="115" y="-1435" font-family="Sans" font-size="10.00">object profile</text>
</a>
</g>
</g>
<!-- aquilon#88 -->
<g id="node42" class="node"><title>aquilon#88</title>
<g id="a_node42"><a xlink:href="https://github.com/quattor/aquilon/issues/88" xlink:title="aquilon#88 (issue)" target="_parent">
<path fill="#6cc644" stroke="black" d="M510,-1479.5C510,-1479.5 352,-1479.5 352,-1479.5 346,-1479.5 340,-1473.5 340,-1467.5 340,-1467.5 340,-1430.5 340,-1430.5 340,-1424.5 346,-1418.5 352,-1418.5 352,-1418.5 510,-1418.5 510,-1418.5 516,-1418.5 522,-1424.5 522,-1430.5 522,-1430.5 522,-1467.5 522,-1467.5 522,-1473.5 516,-1479.5 510,-1479.5"/>
<text text-anchor="middle" x="431" y="-1457.5" font-family="Sans" font-size="10.00">1.12.58: the broker should pass</text>
<text text-anchor="middle" x="431" y="-1446.5" font-family="Sans" font-size="10.00">the archetype to the object</text>
<text text-anchor="middle" x="431" y="-1435.5" font-family="Sans" font-size="10.00">template</text>
</a>
</g>
</g>
<!-- aquilon#89&#45;&gt;aquilon#88 -->
<g id="edge27" class="edge"><title>aquilon#89-&gt;aquilon#88</title>
<path fill="none" stroke="black" stroke-width="2" d="M201.802,-1444.64C241.391,-1445.4 288.643,-1446.3 329.852,-1447.09"/>
<polygon fill="black" stroke="black" points="329.85,-1450.59 339.915,-1447.28 329.984,-1443.59 329.85,-1450.59"/>
<text text-anchor="middle" x="258.872" y="-1437.96" font-family="Sans" font-size="10.00">fixes</text>
</g>
</g>
</svg>
