<?xml version="1.0" encoding="UTF-8" standalone="no"?>
<?xml-stylesheet href="relationships.css" type="text/css"?>
<!-- Generated by graphviz version 2.26.0 (20091210.2329)
 -->
<!-- Title: Dependencies Pages: 1 -->
<svg xmlns="http://www.w3.org/2000/svg" xmlns:xlink="http://www.w3.org/1999/xlink" width="896pt" height="1813pt" viewBox="0.00 0.00 896.00 1813.00">
<g id="graph1" class="graph" transform="scale(1 1) rotate(0) translate(4 1809)">
<title>Dependencies</title>
<polygon fill="white" stroke="white" points="-4,5 -4,-1809 893,-1809 893,5 -4,5"/>
<g id="graph3" class="cluster"><title>cluster_18.3</title>
<polygon fill="none" stroke="black" points="302,-8 302,-600 880,-600 880,-8 302,-8"/>
<text text-anchor="middle" x="591" y="-585.2" font-family="Sans" font-size="12.00">18.3</text>
</g>
<g id="graph4" class="cluster"><title>cluster_18.6</title>
<polygon fill="none" stroke="black" points="24,-716 24,-1562 558,-1562 558,-716 24,-716"/>
<text text-anchor="middle" x="291" y="-1547.2" font-family="Sans" font-size="12.00">18.6</text>
</g>
<!-- aii#210 -->
<g id="node1" class="node"><title>aii#210</title>
<a xlink:href="https://github.com/quattor/aii/pull/210" xlink:title="Shellfe: support active config for plugins" target="_parent">
<polygon fill="#6cc644" stroke="black" points="157,-1436 79,-1436 79,-1382 157,-1382 157,-1436"/>
<text text-anchor="middle" x="118" y="-1413" font-family="Sans" font-size="10.00">pull-request</text>
<text text-anchor="middle" x="118" y="-1400" font-family="Sans" font-size="10.00">aii#210</text>
</a>
</g>
<!-- aii#209 -->
<g id="node3" class="node"><title>aii#209</title>
<a xlink:href="https://github.com/quattor/aii/issues/209" xlink:title="support ACTIVE_CONFIG" target="_parent">
<ellipse fill="#6cc644" stroke="black" cx="432" cy="-1492" rx="41.2167" ry="38.1838"/>
<text text-anchor="middle" x="432" y="-1496" font-family="Sans" font-size="10.00">issue</text>
<text text-anchor="middle" x="432" y="-1483" font-family="Sans" font-size="10.00">aii#209</text>
</a>
</g>
<!-- aii#210&#45;&gt;aii#209 -->
<g id="edge2" class="edge"><title>aii#210-&gt;aii#209</title>
<path fill="none" stroke="black" stroke-width="2" d="M157.609,-1419.38C180.517,-1425.39 209.889,-1433.11 236,-1440 285.736,-1453.13 342.549,-1468.21 382.158,-1478.74"/>
<polygon fill="black" stroke="black" points="381.278,-1482.13 391.842,-1481.32 383.077,-1475.36 381.278,-1482.13"/>
<text text-anchor="middle" x="273" y="-1459" font-family="Sans" font-size="10.00">fixes</text>
</g>
<!-- ncm&#45;ncd#74 -->
<g id="node5" class="node"><title>ncm-ncd#74</title>
<a xlink:href="https://github.com/quattor/ncm-ncd/pull/74" xlink:title="Set the current active config as an attribute to the component" target="_parent">
<polygon fill="#6cc644" stroke="black" points="473,-1436 391,-1436 391,-1382 473,-1382 473,-1436"/>
<text text-anchor="middle" x="432" y="-1413" font-family="Sans" font-size="10.00">pull-request</text>
<text text-anchor="middle" x="432" y="-1400" font-family="Sans" font-size="10.00">ncm-ncd#74</text>
</a>
</g>
<!-- aii#210&#45;&gt;ncm&#45;ncd#74 -->
<g id="edge4" class="edge"><title>aii#210-&gt;ncm-ncd#74</title>
<path fill="none" stroke="black" stroke-dasharray="5,2" d="M157.768,-1409C214.435,-1409 318.442,-1409 380.801,-1409"/>
<polygon fill="none" stroke="black" points="380.813,-1412.5 390.813,-1409 380.813,-1405.5 380.813,-1412.5"/>
<text text-anchor="middle" x="273" y="-1413" font-family="Sans" font-size="10.00">requires</text>
</g>
<!-- aii#203 -->
<g id="node7" class="node"><title>aii#203</title>
<polygon fill="lightgrey" stroke="black" points="461,-706.5 403,-706.5 403,-665.5 461,-665.5 461,-706.5"/>
<text text-anchor="middle" x="432" y="-683.5" font-family="Sans" font-size="10.00">aii#203</text>
</g>
<!-- aii#210&#45;&gt;aii#203 -->
<g id="edge6" class="edge"><title>aii#210-&gt;aii#203</title>
<path fill="none" stroke="black" stroke-dasharray="5,2" d="M157.528,-1404.43C184.415,-1399.05 218.221,-1387.37 236,-1362 273.508,-1308.47 231.912,-835.519 254,-774 265.776,-741.201 272.377,-730.354 302,-712 329.118,-695.198 364.978,-688.969 392.166,-686.788"/>
<polygon fill="none" stroke="black" points="392.741,-690.258 402.493,-686.119 392.288,-683.273 392.741,-690.258"/>
<text text-anchor="middle" x="273" y="-778" font-family="Sans" font-size="10.00">requires</text>
</g>
<!-- CAF#257 -->
<g id="node8" class="node"><title>CAF#257</title>
<a xlink:href="https://github.com/quattor/CAF/pull/257" xlink:title="Process: run process as another user" target="_parent">
<polygon fill="#6cc644" stroke="black" points="157,-1353 79,-1353 79,-1299 157,-1299 157,-1353"/>
<text text-anchor="middle" x="118" y="-1330" font-family="Sans" font-size="10.00">pull-request</text>
<text text-anchor="middle" x="118" y="-1317" font-family="Sans" font-size="10.00">CAF#257</text>
</a>
</g>
<!-- CAF#253 -->
<g id="node10" class="node"><title>CAF#253</title>
<a xlink:href="https://github.com/quattor/CAF/issues/253" xlink:title="CAF::Process: Include an option to execute the command as an specific user" target="_parent">
<ellipse fill="#6cc644" stroke="black" cx="432" cy="-1326" rx="48.9975" ry="38.1838"/>
<text text-anchor="middle" x="432" y="-1330" font-family="Sans" font-size="10.00">issue</text>
<text text-anchor="middle" x="432" y="-1317" font-family="Sans" font-size="10.00">CAF#253</text>
</a>
</g>
<!-- CAF#257&#45;&gt;CAF#253 -->
<g id="edge8" class="edge"><title>CAF#257-&gt;CAF#253</title>
<path fill="none" stroke="black" stroke-width="2" d="M157.768,-1326C211.934,-1326 309.353,-1326 372.308,-1326"/>
<polygon fill="black" stroke="black" points="372.488,-1329.5 382.488,-1326 372.488,-1322.5 372.488,-1329.5"/>
<text text-anchor="middle" x="273" y="-1330" font-family="Sans" font-size="10.00">fixes</text>
</g>
<!-- CAF#110 -->
<g id="node11" class="node"><title>CAF#110</title>
<a xlink:href="https://github.com/quattor/CAF/pull/110" xlink:title="Download: API proposal" target="_parent">
<polygon fill="#6cc644" stroke="black" points="157,-1624 79,-1624 79,-1570 157,-1570 157,-1624"/>
<text text-anchor="middle" x="118" y="-1601" font-family="Sans" font-size="10.00">pull-request</text>
<text text-anchor="middle" x="118" y="-1588" font-family="Sans" font-size="10.00">CAF#110</text>
</a>
</g>
<!-- CAF#120 -->
<g id="node13" class="node"><title>CAF#120</title>
<polygon fill="lightgrey" stroke="black" points="467,-1617.5 397,-1617.5 397,-1576.5 467,-1576.5 467,-1617.5"/>
<text text-anchor="middle" x="432" y="-1594.5" font-family="Sans" font-size="10.00">CAF#120</text>
</g>
<!-- CAF#110&#45;&gt;CAF#120 -->
<g id="edge10" class="edge"><title>CAF#110-&gt;CAF#120</title>
<path fill="none" stroke="black" stroke-dasharray="5,2" d="M157.768,-1597C216.269,-1597 325.221,-1597 386.719,-1597"/>
<polygon fill="none" stroke="black" points="386.897,-1600.5 396.897,-1597 386.897,-1593.5 386.897,-1600.5"/>
<text text-anchor="middle" x="273" y="-1601" font-family="Sans" font-size="10.00">requires</text>
</g>
<!-- configuration&#45;modules&#45;core#1236 -->
<g id="node14" class="node"><title>configuration-modules-core#1236</title>
<a xlink:href="https://github.com/quattor/configuration-modules-core/pull/1236" xlink:title="ncm-spma: yum: Expose support for multiple reposdirs" target="_parent">
<polygon fill="#6e5494" stroke="black" points="518,-568 346,-568 346,-514 518,-514 518,-568"/>
<text text-anchor="middle" x="432" y="-545" font-family="Sans" font-size="10.00">pull-request</text>
<text text-anchor="middle" x="432" y="-532" font-family="Sans" font-size="10.00">configuration-modules-core#1236</text>
</a>
</g>
<!-- configuration&#45;modules&#45;core#1075 -->
<g id="node16" class="node"><title>configuration-modules-core#1075</title>
<a xlink:href="https://github.com/quattor/configuration-modules-core/pull/1075" xlink:title="ncm-spma (yum): Allow unmanaged repositories to be controlled seperately from packages" target="_parent">
<polygon fill="#6e5494" stroke="black" points="836,-568 664,-568 664,-514 836,-514 836,-568"/>
<text text-anchor="middle" x="750" y="-545" font-family="Sans" font-size="10.00">pull-request</text>
<text text-anchor="middle" x="750" y="-532" font-family="Sans" font-size="10.00">configuration-modules-core#1075</text>
</a>
</g>
<!-- configuration&#45;modules&#45;core#1236&#45;&gt;configuration&#45;modules&#45;core#1075 -->
<g id="edge12" class="edge"><title>configuration-modules-core#1236-&gt;configuration-modules-core#1075</title>
<path fill="none" stroke="black" stroke-dasharray="1,5" d="M518.055,-541C559.946,-541 610.462,-541 653.641,-541"/>
<polygon fill="black" stroke="black" points="663.876,-541 653.876,-545.5 658.876,-541 653.876,-541 653.876,-541 653.876,-541 658.876,-541 653.876,-536.5 663.876,-541 663.876,-541"/>
<text text-anchor="middle" x="591" y="-545" font-family="Sans" font-size="10.00">replaces</text>
</g>
<!-- configuration&#45;modules&#45;core#1235 -->
<g id="node17" class="node"><title>configuration-modules-core#1235</title>
<a xlink:href="https://github.com/quattor/configuration-modules-core/pull/1235" xlink:title="ncm-ofed: import CAF::Service and enable NoActionSupported" target="_parent">
<polygon fill="#6e5494" stroke="black" points="518,-496 346,-496 346,-442 518,-442 518,-496"/>
<text text-anchor="middle" x="432" y="-473" font-family="Sans" font-size="10.00">pull-request</text>
<text text-anchor="middle" x="432" y="-460" font-family="Sans" font-size="10.00">configuration-modules-core#1235</text>
</a>
</g>
<!-- configuration&#45;modules&#45;core#1234 -->
<g id="node19" class="node"><title>configuration-modules-core#1234</title>
<a xlink:href="https://github.com/quattor/configuration-modules-core/issues/1234" xlink:title="ncm-ofed: no loading of CAF::Service" target="_parent">
<ellipse fill="#bd2c00" stroke="black" cx="750" cy="-458" rx="121.122" ry="38.1838"/>
<text text-anchor="middle" x="750" y="-462" font-family="Sans" font-size="10.00">issue</text>
<text text-anchor="middle" x="750" y="-449" font-family="Sans" font-size="10.00">configuration-modules-core#1234</text>
</a>
</g>
<!-- configuration&#45;modules&#45;core#1235&#45;&gt;configuration&#45;modules&#45;core#1234 -->
<g id="edge14" class="edge"><title>configuration-modules-core#1235-&gt;configuration-modules-core#1234</title>
<path fill="none" stroke="black" stroke-width="2" d="M518.055,-466.023C549.111,-464.949 584.906,-463.711 618.938,-462.534"/>
<polygon fill="black" stroke="black" points="619.085,-466.031 628.958,-462.187 618.843,-459.035 619.085,-466.031"/>
<text text-anchor="middle" x="591" y="-468" font-family="Sans" font-size="10.00">fixes</text>
</g>
<!-- configuration&#45;modules&#45;core#1230 -->
<g id="node20" class="node"><title>configuration-modules-core#1230</title>
<a xlink:href="https://github.com/quattor/configuration-modules-core/pull/1230" xlink:title="ncm-ceph: support for luminous, bluestore, ceph-volume and per host osd deployment" target="_parent">
<polygon fill="#6cc644" stroke="black" points="204,-1010 32,-1010 32,-956 204,-956 204,-1010"/>
<text text-anchor="middle" x="118" y="-987" font-family="Sans" font-size="10.00">pull-request</text>
<text text-anchor="middle" x="118" y="-974" font-family="Sans" font-size="10.00">configuration-modules-core#1230</text>
</a>
</g>
<!-- configuration&#45;modules&#45;core#1224 -->
<g id="node22" class="node"><title>configuration-modules-core#1224</title>
<polygon fill="lightgrey" stroke="black" points="518,-648.5 346,-648.5 346,-607.5 518,-607.5 518,-648.5"/>
<text text-anchor="middle" x="432" y="-625.5" font-family="Sans" font-size="10.00">configuration-modules-core#1224</text>
</g>
<!-- configuration&#45;modules&#45;core#1230&#45;&gt;configuration&#45;modules&#45;core#1224 -->
<g id="edge16" class="edge"><title>configuration-modules-core#1230-&gt;configuration-modules-core#1224</title>
<path fill="none" stroke="black" stroke-dasharray="1,5" d="M154.761,-955.901C182.298,-933.324 218.171,-898.555 236,-859 255.065,-816.703 221.893,-684.491 254,-651 274.924,-629.175 305.558,-620.59 335.535,-618.344"/>
<polygon fill="black" stroke="black" points="345.662,-617.816 335.91,-622.831 340.669,-618.076 335.675,-618.337 335.675,-618.337 335.675,-618.337 340.669,-618.076 335.441,-613.843 345.662,-617.816 345.662,-617.816"/>
<text text-anchor="middle" x="273" y="-655" font-family="Sans" font-size="10.00">replaces</text>
</g>
<!-- configuration&#45;modules&#45;core#740 -->
<g id="node24" class="node"><title>configuration-modules-core#740</title>
<a xlink:href="https://github.com/quattor/configuration-modules-core/issues/740" xlink:title="ncm-ceph: add boolean to disable osd features" target="_parent">
<ellipse fill="#6cc644" stroke="black" cx="432" cy="-1138" rx="118.087" ry="38.1838"/>
<text text-anchor="middle" x="432" y="-1142" font-family="Sans" font-size="10.00">issue</text>
<text text-anchor="middle" x="432" y="-1129" font-family="Sans" font-size="10.00">configuration-modules-core#740</text>
</a>
</g>
<!-- configuration&#45;modules&#45;core#1230&#45;&gt;configuration&#45;modules&#45;core#740 -->
<g id="edge18" class="edge"><title>configuration-modules-core#1230-&gt;configuration-modules-core#740</title>
<path fill="none" stroke="black" stroke-width="2" d="M159.194,-1010.15C195.722,-1033.49 251.033,-1067.08 302,-1091 314.15,-1096.7 327.196,-1102.16 340.166,-1107.2"/>
<polygon fill="black" stroke="black" points="338.992,-1110.5 349.583,-1110.8 341.489,-1103.96 338.992,-1110.5"/>
<text text-anchor="middle" x="273" y="-1091" font-family="Sans" font-size="10.00">fixes</text>
</g>
<!-- configuration&#45;modules&#45;core#741 -->
<g id="node26" class="node"><title>configuration-modules-core#741</title>
<a xlink:href="https://github.com/quattor/configuration-modules-core/issues/741" xlink:title="ncm-ceph: check possibilities to rescale ceph in Jewel" target="_parent">
<ellipse fill="#6cc644" stroke="black" cx="432" cy="-1232" rx="118.087" ry="38.1838"/>
<text text-anchor="middle" x="432" y="-1236" font-family="Sans" font-size="10.00">issue</text>
<text text-anchor="middle" x="432" y="-1223" font-family="Sans" font-size="10.00">configuration-modules-core#741</text>
</a>
</g>
<!-- configuration&#45;modules&#45;core#1230&#45;&gt;configuration&#45;modules&#45;core#741 -->
<g id="edge20" class="edge"><title>configuration-modules-core#1230-&gt;configuration-modules-core#741</title>
<path fill="none" stroke="black" stroke-width="2" d="M136.017,-1010.08C165.789,-1052.9 229.248,-1136.35 302,-1185 311.897,-1191.62 322.84,-1197.44 334.052,-1202.52"/>
<polygon fill="black" stroke="black" points="332.948,-1205.85 343.516,-1206.61 335.728,-1199.43 332.948,-1205.85"/>
<text text-anchor="middle" x="273" y="-1181" font-family="Sans" font-size="10.00">fixes</text>
</g>
<!-- configuration&#45;modules&#45;core#742 -->
<g id="node28" class="node"><title>configuration-modules-core#742</title>
<a xlink:href="https://github.com/quattor/configuration-modules-core/issues/742" xlink:title="ncm-ceph: allow control over deploying admin keyrings along with ceph.conf" target="_parent">
<ellipse fill="#6cc644" stroke="black" cx="432" cy="-856" rx="118.087" ry="38.1838"/>
<text text-anchor="middle" x="432" y="-860" font-family="Sans" font-size="10.00">issue</text>
<text text-anchor="middle" x="432" y="-847" font-family="Sans" font-size="10.00">configuration-modules-core#742</text>
</a>
</g>
<!-- configuration&#45;modules&#45;core#1230&#45;&gt;configuration&#45;modules&#45;core#742 -->
<g id="edge22" class="edge"><title>configuration-modules-core#1230-&gt;configuration-modules-core#742</title>
<path fill="none" stroke="black" stroke-width="2" d="M177.679,-955.914C213.491,-939.946 260.084,-919.67 302,-903 315.046,-897.812 328.918,-892.54 342.557,-887.495"/>
<polygon fill="black" stroke="black" points="343.771,-890.777 351.949,-884.042 341.356,-884.207 343.771,-890.777"/>
<text text-anchor="middle" x="273" y="-926" font-family="Sans" font-size="10.00">fixes</text>
</g>
<!-- configuration&#45;modules&#45;core#743 -->
<g id="node30" class="node"><title>configuration-modules-core#743</title>
<a xlink:href="https://github.com/quattor/configuration-modules-core/issues/743" xlink:title="ncm-ceph: check admin keyring is current before running ceph-deploy admin" target="_parent">
<ellipse fill="#6cc644" stroke="black" cx="432" cy="-950" rx="118.087" ry="38.1838"/>
<text text-anchor="middle" x="432" y="-954" font-family="Sans" font-size="10.00">issue</text>
<text text-anchor="middle" x="432" y="-941" font-family="Sans" font-size="10.00">configuration-modules-core#743</text>
</a>
</g>
<!-- configuration&#45;modules&#45;core#1230&#45;&gt;configuration&#45;modules&#45;core#743 -->
<g id="edge24" class="edge"><title>configuration-modules-core#1230-&gt;configuration-modules-core#743</title>
<path fill="none" stroke="black" stroke-width="2" d="M204.217,-973.939C236.688,-970.526 274.267,-966.577 309.424,-962.882"/>
<polygon fill="black" stroke="black" points="310.178,-966.322 319.757,-961.796 309.446,-959.361 310.178,-966.322"/>
<text text-anchor="middle" x="273" y="-973" font-family="Sans" font-size="10.00">fixes</text>
</g>
<!-- configuration&#45;modules&#45;core#776 -->
<g id="node32" class="node"><title>configuration-modules-core#776</title>
<a xlink:href="https://github.com/quattor/configuration-modules-core/issues/776" xlink:title="ncm-ceph: ceph mds stat output redesigned on Jewel" target="_parent">
<ellipse fill="#6cc644" stroke="black" cx="432" cy="-1044" rx="118.087" ry="38.1838"/>
<text text-anchor="middle" x="432" y="-1048" font-family="Sans" font-size="10.00">issue</text>
<text text-anchor="middle" x="432" y="-1035" font-family="Sans" font-size="10.00">configuration-modules-core#776</text>
</a>
</g>
<!-- configuration&#45;modules&#45;core#1230&#45;&gt;configuration&#45;modules&#45;core#776 -->
<g id="edge26" class="edge"><title>configuration-modules-core#1230-&gt;configuration-modules-core#776</title>
<path fill="none" stroke="black" stroke-width="2" d="M204.217,-999.749C240.216,-1006.74 282.495,-1014.96 320.79,-1022.4"/>
<polygon fill="black" stroke="black" points="320.47,-1025.9 330.954,-1024.37 321.805,-1019.03 320.47,-1025.9"/>
<text text-anchor="middle" x="273" y="-1020" font-family="Sans" font-size="10.00">fixes</text>
</g>
<!-- configuration&#45;modules&#45;core#1220 -->
<g id="node33" class="node"><title>configuration-modules-core#1220</title>
<a xlink:href="https://github.com/quattor/configuration-modules-core/pull/1220" xlink:title="ncm-cups: Stop daemon if server not enabled" target="_parent">
<polygon fill="#6e5494" stroke="black" points="518,-424 346,-424 346,-370 518,-370 518,-424"/>
<text text-anchor="middle" x="432" y="-401" font-family="Sans" font-size="10.00">pull-request</text>
<text text-anchor="middle" x="432" y="-388" font-family="Sans" font-size="10.00">configuration-modules-core#1220</text>
</a>
</g>
<!-- configuration&#45;modules&#45;core#1189 -->
<g id="node35" class="node"><title>configuration-modules-core#1189</title>
<a xlink:href="https://github.com/quattor/configuration-modules-core/issues/1189" xlink:title="ncm-cups: Nodetype of client should stop running cups daemon" target="_parent">
<ellipse fill="#bd2c00" stroke="black" cx="750" cy="-364" rx="121.122" ry="38.1838"/>
<text text-anchor="middle" x="750" y="-368" font-family="Sans" font-size="10.00">issue</text>
<text text-anchor="middle" x="750" y="-355" font-family="Sans" font-size="10.00">configuration-modules-core#1189</text>
</a>
</g>
<!-- configuration&#45;modules&#45;core#1220&#45;&gt;configuration&#45;modules&#45;core#1189 -->
<g id="edge28" class="edge"><title>configuration-modules-core#1220-&gt;configuration-modules-core#1189</title>
<path fill="none" stroke="black" stroke-width="2" d="M518.055,-388.07C550.841,-384.667 588.91,-380.717 624.61,-377.012"/>
<polygon fill="black" stroke="black" points="625.024,-380.488 634.61,-375.974 624.302,-373.525 625.024,-380.488"/>
<text text-anchor="middle" x="591" y="-386" font-family="Sans" font-size="10.00">fixes</text>
</g>
<!-- configuration&#45;modules&#45;core#1105 -->
<g id="node36" class="node"><title>configuration-modules-core#1105</title>
<a xlink:href="https://github.com/quattor/configuration-modules-core/pull/1105" xlink:title="ncm-authconfig: fix krb5_realm, user_object_class and newline between ldap_krb5_canonicalize and ldap_krb5_realm" target="_parent">
<polygon fill="#6cc644" stroke="black" points="204,-778 32,-778 32,-724 204,-724 204,-778"/>
<text text-anchor="middle" x="118" y="-755" font-family="Sans" font-size="10.00">pull-request</text>
<text text-anchor="middle" x="118" y="-742" font-family="Sans" font-size="10.00">configuration-modules-core#1105</text>
</a>
</g>
<!-- configuration&#45;modules&#45;core#1100 -->
<g id="node38" class="node"><title>configuration-modules-core#1100</title>
<a xlink:href="https://github.com/quattor/configuration-modules-core/issues/1100" xlink:title="ncm-authconfig : no newline after krb5_canonicalize option" target="_parent">
<ellipse fill="#6cc644" stroke="black" cx="432" cy="-314" rx="121.122" ry="38.1838"/>
<text text-anchor="middle" x="432" y="-318" font-family="Sans" font-size="10.00">issue</text>
<text text-anchor="middle" x="432" y="-305" font-family="Sans" font-size="10.00">configuration-modules-core#1100</text>
</a>
</g>
<!-- configuration&#45;modules&#45;core#1105&#45;&gt;configuration&#45;modules&#45;core#1100 -->
<g id="edge30" class="edge"><title>configuration-modules-core#1105-&gt;configuration-modules-core#1100</title>
<path fill="none" stroke="black" stroke-width="2" d="M122.897,-723.962C137.114,-653.337 185.057,-461.831 302,-361 310.141,-353.981 319.412,-347.979 329.17,-342.854"/>
<polygon fill="black" stroke="black" points="330.82,-345.943 338.249,-338.389 327.73,-339.661 330.82,-345.943"/>
<text text-anchor="middle" x="273" y="-416" font-family="Sans" font-size="10.00">fixes</text>
</g>
<!-- configuration&#45;modules&#45;core#1102 -->
<g id="node40" class="node"><title>configuration-modules-core#1102</title>
<a xlink:href="https://github.com/quattor/configuration-modules-core/issues/1102" xlink:title="ncm-authconfig: There is no " target="_parent">
<ellipse fill="#6cc644" stroke="black" cx="432" cy="-220" rx="121.122" ry="38.1838"/>
<text text-anchor="middle" x="432" y="-224" font-family="Sans" font-size="10.00">issue</text>
<text text-anchor="middle" x="432" y="-211" font-family="Sans" font-size="10.00">configuration-modules-core#1102</text>
</a>
</g>
<!-- configuration&#45;modules&#45;core#1105&#45;&gt;configuration&#45;modules&#45;core#1102 -->
<g id="edge32" class="edge"><title>configuration-modules-core#1105-&gt;configuration-modules-core#1102</title>
<path fill="none" stroke="black" stroke-width="2" d="M119.772,-723.875C126.666,-641.562 158.97,-392.605 302,-267 310.077,-259.907 319.307,-253.858 329.039,-248.703"/>
<polygon fill="black" stroke="black" points="330.691,-251.791 338.099,-244.217 327.585,-245.518 330.691,-251.791"/>
<text text-anchor="middle" x="273" y="-322" font-family="Sans" font-size="10.00">fixes</text>
</g>
<!-- configuration&#45;modules&#45;core#1103 -->
<g id="node42" class="node"><title>configuration-modules-core#1103</title>
<a xlink:href="https://github.com/quattor/configuration-modules-core/issues/1103" xlink:title="ncm-authconfig: krb5_realm = ARRAY(0x39a5830)" target="_parent">
<ellipse fill="#6cc644" stroke="black" cx="432" cy="-126" rx="121.122" ry="38.1838"/>
<text text-anchor="middle" x="432" y="-130" font-family="Sans" font-size="10.00">issue</text>
<text text-anchor="middle" x="432" y="-117" font-family="Sans" font-size="10.00">configuration-modules-core#1103</text>
</a>
</g>
<!-- configuration&#45;modules&#45;core#1105&#45;&gt;configuration&#45;modules&#45;core#1103 -->
<g id="edge34" class="edge"><title>configuration-modules-core#1105-&gt;configuration-modules-core#1103</title>
<path fill="none" stroke="black" stroke-width="2" d="M123.17,-723.928C138.056,-648.546 184.448,-430.567 254,-260 270.675,-219.108 268.417,-201.678 302,-173 310.174,-166.02 319.467,-160.043 329.238,-154.933"/>
<polygon fill="black" stroke="black" points="330.887,-158.023 338.327,-150.48 327.807,-151.737 330.887,-158.023"/>
<text text-anchor="middle" x="273" y="-264" font-family="Sans" font-size="10.00">fixes</text>
</g>
<!-- configuration&#45;modules&#45;core#1148 -->
<g id="node43" class="node"><title>configuration-modules-core#1148</title>
<a xlink:href="https://github.com/quattor/configuration-modules-core/pull/1148" xlink:title="ncm-spma: Remove support from groups from spma yumng backend" target="_parent">
<polygon fill="#6cc644" stroke="black" points="204,-1794 32,-1794 32,-1740 204,-1740 204,-1794"/>
<text text-anchor="middle" x="118" y="-1771" font-family="Sans" font-size="10.00">pull-request</text>
<text text-anchor="middle" x="118" y="-1758" font-family="Sans" font-size="10.00">configuration-modules-core#1148</text>
</a>
</g>
<!-- configuration&#45;modules&#45;core#952 -->
<g id="node45" class="node"><title>configuration-modules-core#952</title>
<a xlink:href="https://github.com/quattor/configuration-modules-core/issues/952" xlink:title="ncm-spma (yumng): Remove support for package groups" target="_parent">
<ellipse fill="#6cc644" stroke="black" cx="432" cy="-1767" rx="118.087" ry="38.1838"/>
<text text-anchor="middle" x="432" y="-1771" font-family="Sans" font-size="10.00">issue</text>
<text text-anchor="middle" x="432" y="-1758" font-family="Sans" font-size="10.00">configuration-modules-core#952</text>
</a>
</g>
<!-- configuration&#45;modules&#45;core#1148&#45;&gt;configuration&#45;modules&#45;core#952 -->
<g id="edge36" class="edge"><title>configuration-modules-core#1148-&gt;configuration-modules-core#952</title>
<path fill="none" stroke="black" stroke-width="2" d="M204.217,-1767C234.903,-1767 270.151,-1767 303.606,-1767"/>
<polygon fill="black" stroke="black" points="303.924,-1770.5 313.924,-1767 303.924,-1763.5 303.924,-1770.5"/>
<text text-anchor="middle" x="273" y="-1771" font-family="Sans" font-size="10.00">fixes</text>
</g>
<!-- configuration&#45;modules&#45;core#950 -->
<g id="node46" class="node"><title>configuration-modules-core#950</title>
<a xlink:href="https://github.com/quattor/configuration-modules-core/issues/950" xlink:title="ncm-spma: Remove support for package groups from yum backends" target="_parent">
<ellipse fill="#6cc644" stroke="black" cx="118" cy="-1682" rx="118.087" ry="38.1838"/>
<text text-anchor="middle" x="118" y="-1686" font-family="Sans" font-size="10.00">issue</text>
<text text-anchor="middle" x="118" y="-1673" font-family="Sans" font-size="10.00">configuration-modules-core#950</text>
</a>
</g>
<!-- configuration&#45;modules&#45;core#950&#45;&gt;configuration&#45;modules&#45;core#952 -->
<g id="edge40" class="edge"><title>configuration-modules-core#950-&gt;configuration-modules-core#952</title>
<path fill="none" stroke="black" stroke-dasharray="5,2" d="M208.401,-1706.47C246.98,-1716.92 292.147,-1729.14 331.747,-1739.86"/>
<polygon fill="none" stroke="black" points="330.855,-1743.25 341.422,-1742.48 332.684,-1736.49 330.855,-1743.25"/>
<text text-anchor="middle" x="273" y="-1731" font-family="Sans" font-size="10.00">requires</text>
</g>
<!-- configuration&#45;modules&#45;core#951 -->
<g id="node48" class="node"><title>configuration-modules-core#951</title>
<a xlink:href="https://github.com/quattor/configuration-modules-core/issues/951" xlink:title="ncm-spma (yum): Remove support for package groups" target="_parent">
<ellipse fill="#6cc644" stroke="black" cx="432" cy="-1673" rx="118.087" ry="38.1838"/>
<text text-anchor="middle" x="432" y="-1677" font-family="Sans" font-size="10.00">issue</text>
<text text-anchor="middle" x="432" y="-1664" font-family="Sans" font-size="10.00">configuration-modules-core#951</text>
</a>
</g>
<!-- configuration&#45;modules&#45;core#950&#45;&gt;configuration&#45;modules&#45;core#951 -->
<g id="edge38" class="edge"><title>configuration-modules-core#950-&gt;configuration-modules-core#951</title>
<path fill="none" stroke="black" stroke-dasharray="5,2" d="M235.815,-1678.62C258.074,-1677.99 281.456,-1677.31 304.01,-1676.67"/>
<polygon fill="none" stroke="black" points="304.412,-1680.16 314.308,-1676.37 304.212,-1673.16 304.412,-1680.16"/>
<text text-anchor="middle" x="273" y="-1683" font-family="Sans" font-size="10.00">requires</text>
</g>
<!-- ncm&#45;ncd#117 -->
<g id="node50" class="node"><title>ncm-ncd#117</title>
<a xlink:href="https://github.com/quattor/ncm-ncd/pull/117" xlink:title="Allow component modules to be loaded from any path" target="_parent">
<polygon fill="#6cc644" stroke="black" points="161,-850 75,-850 75,-796 161,-796 161,-850"/>
<text text-anchor="middle" x="118" y="-827" font-family="Sans" font-size="10.00">pull-request</text>
<text text-anchor="middle" x="118" y="-814" font-family="Sans" font-size="10.00">ncm-ncd#117</text>
</a>
</g>
<!-- ncm&#45;ncd#116 -->
<g id="node52" class="node"><title>ncm-ncd#116</title>
<a xlink:href="https://github.com/quattor/ncm-ncd/issues/116" xlink:title="hasFile() prevents component modules from being relocated" target="_parent">
<ellipse fill="#6cc644" stroke="black" cx="432" cy="-762" rx="61.0181" ry="38.1838"/>
<text text-anchor="middle" x="432" y="-766" font-family="Sans" font-size="10.00">issue</text>
<text text-anchor="middle" x="432" y="-753" font-family="Sans" font-size="10.00">ncm-ncd#116</text>
</a>
</g>
<!-- ncm&#45;ncd#117&#45;&gt;ncm&#45;ncd#116 -->
<g id="edge42" class="edge"><title>ncm-ncd#117-&gt;ncm-ncd#116</title>
<path fill="none" stroke="black" stroke-width="2" d="M161.66,-814.518C213.858,-804.378 301.846,-787.285 363.213,-775.363"/>
<polygon fill="black" stroke="black" points="364.055,-778.765 373.204,-773.422 362.72,-771.894 364.055,-778.765"/>
<text text-anchor="middle" x="273" y="-801" font-family="Sans" font-size="10.00">fixes</text>
</g>
<!-- template&#45;library&#45;standard#109 -->
<g id="node53" class="node"><title>template-library-standard#109</title>
<a xlink:href="https://github.com/quattor/template-library-standard/pull/109" xlink:title="Add sample of nvidia workstation and compute GPUs" target="_parent">
<polygon fill="#6e5494" stroke="black" points="510,-70 354,-70 354,-16 510,-16 510,-70"/>
<text text-anchor="middle" x="432" y="-47" font-family="Sans" font-size="10.00">pull-request</text>
<text text-anchor="middle" x="432" y="-34" font-family="Sans" font-size="10.00">template-library-standard#109</text>
</a>
</g>
<!-- template&#45;library&#45;core#172 -->
<g id="node55" class="node"><title>template-library-core#172</title>
<a xlink:href="https://github.com/quattor/template-library-core/pull/172" xlink:title="Allow RAM to be modelled on GPU cards" target="_parent">
<polygon fill="#6e5494" stroke="black" points="819,-70 681,-70 681,-16 819,-16 819,-70"/>
<text text-anchor="middle" x="750" y="-47" font-family="Sans" font-size="10.00">pull-request</text>
<text text-anchor="middle" x="750" y="-34" font-family="Sans" font-size="10.00">template-library-core#172</text>
</a>
</g>
<!-- template&#45;library&#45;standard#109&#45;&gt;template&#45;library&#45;core#172 -->
<g id="edge44" class="edge"><title>template-library-standard#109-&gt;template-library-core#172</title>
<path fill="none" stroke="black" stroke-dasharray="5,2" d="M510.607,-43C559.372,-43 621.83,-43 670.72,-43"/>
<polygon fill="none" stroke="black" points="670.938,-46.5001 680.937,-43 670.937,-39.5001 670.938,-46.5001"/>
<text text-anchor="middle" x="591" y="-47" font-family="Sans" font-size="10.00">requires</text>
</g>
</g>
</svg>
