<?xml version="1.0" encoding="UTF-8" standalone="no"?>
<?xml-stylesheet href="relationships.css" type="text/css"?>
<!-- Generated by graphviz version 2.26.0 (20091210.2329)
 -->
<!-- Title: Dependencies Pages: 1 -->
<svg xmlns="http://www.w3.org/2000/svg" xmlns:xlink="http://www.w3.org/1999/xlink" width="578pt" height="2146pt" viewBox="0.00 0.00 578.00 2146.00">
<g id="graph1" class="graph" transform="scale(1 1) rotate(0) translate(4 2142)">
<title>Dependencies</title>
<polygon fill="white" stroke="white" points="-4,5 -4,-2142 575,-2142 575,5 -4,5"/>
<g id="graph2" class="cluster"><title>cluster_17.10</title>
<polygon fill="none" stroke="black" points="302,-282 302,-398 562,-398 562,-282 302,-282"/>
<text text-anchor="middle" x="432" y="-383.2" font-family="Sans" font-size="12.00">17.10</text>
</g>
<g id="graph3" class="cluster"><title>cluster_17.8</title>
<polygon fill="none" stroke="black" points="24,-492 24,-1620 562,-1620 562,-492 24,-492"/>
<text text-anchor="middle" x="293" y="-1605.2" font-family="Sans" font-size="12.00">17.8</text>
</g>
<g id="graph5" class="cluster"><title>cluster_17.12</title>
<polygon fill="none" stroke="black" points="70,-1678 70,-1866 482,-1866 482,-1678 70,-1678"/>
<text text-anchor="middle" x="276" y="-1851.2" font-family="Sans" font-size="12.00">17.12</text>
</g>
<!-- aii#275 -->
<g id="node1" class="node"><title>aii#275</title>
<a xlink:href="https://github.com/quattor/aii/pull/275" xlink:title="remove aii-freeipa, deprecated by ncm-freeipa AII support" target="_parent">
<polygon fill="#6e5494" stroke="black" points="157,-1577 79,-1577 79,-1523 157,-1523 157,-1577"/>
<text text-anchor="middle" x="118" y="-1554" font-family="Sans" font-size="10.00">pull-request</text>
<text text-anchor="middle" x="118" y="-1541" font-family="Sans" font-size="10.00">aii#275</text>
</a>
</g>
<!-- aii#134 -->
<g id="node3" class="node"><title>aii#134</title>
<a xlink:href="https://github.com/quattor/aii/issues/134" xlink:title="Missing freeipa.pm in AII RPM" target="_parent">
<ellipse fill="#bd2c00" stroke="black" cx="432" cy="-1550" rx="41.2167" ry="38.1838"/>
<text text-anchor="middle" x="432" y="-1554" font-family="Sans" font-size="10.00">issue</text>
<text text-anchor="middle" x="432" y="-1541" font-family="Sans" font-size="10.00">aii#134</text>
</a>
</g>
<!-- aii#275&#45;&gt;aii#134 -->
<g id="edge2" class="edge"><title>aii#275-&gt;aii#134</title>
<path fill="none" stroke="black" stroke-width="2" d="M157.571,-1548.9C184.705,-1548.2 221.529,-1547.36 254,-1547 296.474,-1546.53 344.645,-1547.43 380.154,-1548.36"/>
<polygon fill="black" stroke="black" points="380.191,-1551.87 390.282,-1548.64 380.381,-1544.87 380.191,-1551.87"/>
<text text-anchor="middle" x="273" y="-1551" font-family="Sans" font-size="10.00">fixes</text>
</g>
<!-- aii#210 -->
<g id="node4" class="node"><title>aii#210</title>
<a xlink:href="https://github.com/quattor/aii/pull/210" xlink:title="Shellfe: support active config for plugins" target="_parent">
<polygon fill="#6cc644" stroke="black" points="157,-1740 79,-1740 79,-1686 157,-1686 157,-1740"/>
<text text-anchor="middle" x="118" y="-1717" font-family="Sans" font-size="10.00">pull-request</text>
<text text-anchor="middle" x="118" y="-1704" font-family="Sans" font-size="10.00">aii#210</text>
</a>
</g>
<!-- aii#209 -->
<g id="node6" class="node"><title>aii#209</title>
<a xlink:href="https://github.com/quattor/aii/issues/209" xlink:title="support ACTIVE_CONFIG" target="_parent">
<ellipse fill="#6cc644" stroke="black" cx="432" cy="-1796" rx="41.2167" ry="38.1838"/>
<text text-anchor="middle" x="432" y="-1800" font-family="Sans" font-size="10.00">issue</text>
<text text-anchor="middle" x="432" y="-1787" font-family="Sans" font-size="10.00">aii#209</text>
</a>
</g>
<!-- aii#210&#45;&gt;aii#209 -->
<g id="edge4" class="edge"><title>aii#210-&gt;aii#209</title>
<path fill="none" stroke="black" stroke-width="2" d="M157.609,-1723.38C180.517,-1729.39 209.889,-1737.11 236,-1744 285.736,-1757.13 342.549,-1772.21 382.158,-1782.74"/>
<polygon fill="black" stroke="black" points="381.278,-1786.13 391.842,-1785.32 383.077,-1779.36 381.278,-1786.13"/>
<text text-anchor="middle" x="273" y="-1763" font-family="Sans" font-size="10.00">fixes</text>
</g>
<!-- ncm&#45;ncd#74 -->
<g id="node8" class="node"><title>ncm-ncd#74</title>
<a xlink:href="https://github.com/quattor/ncm-ncd/pull/74" xlink:title="Set the current active config as an attribute to the component" target="_parent">
<polygon fill="#6cc644" stroke="black" points="473,-1740 391,-1740 391,-1686 473,-1686 473,-1740"/>
<text text-anchor="middle" x="432" y="-1717" font-family="Sans" font-size="10.00">pull-request</text>
<text text-anchor="middle" x="432" y="-1704" font-family="Sans" font-size="10.00">ncm-ncd#74</text>
</a>
</g>
<!-- aii#210&#45;&gt;ncm&#45;ncd#74 -->
<g id="edge6" class="edge"><title>aii#210-&gt;ncm-ncd#74</title>
<path fill="none" stroke="black" stroke-dasharray="5,2" d="M157.768,-1713C214.435,-1713 318.442,-1713 380.801,-1713"/>
<polygon fill="none" stroke="black" points="380.813,-1716.5 390.813,-1713 380.813,-1709.5 380.813,-1716.5"/>
<text text-anchor="middle" x="273" y="-1717" font-family="Sans" font-size="10.00">requires</text>
</g>
<!-- aii#203 -->
<g id="node10" class="node"><title>aii#203</title>
<polygon fill="lightgrey" stroke="black" points="461,-1668.5 403,-1668.5 403,-1627.5 461,-1627.5 461,-1668.5"/>
<text text-anchor="middle" x="432" y="-1645.5" font-family="Sans" font-size="10.00">aii#203</text>
</g>
<!-- aii#210&#45;&gt;aii#203 -->
<g id="edge8" class="edge"><title>aii#210-&gt;aii#203</title>
<path fill="none" stroke="black" stroke-dasharray="5,2" d="M157.813,-1704.42C195.063,-1696.43 252.267,-1684.24 302,-1674 332.215,-1667.78 366.427,-1660.94 392.168,-1655.84"/>
<polygon fill="none" stroke="black" points="393.162,-1659.21 402.292,-1653.84 391.803,-1652.35 393.162,-1659.21"/>
<text text-anchor="middle" x="273" y="-1688" font-family="Sans" font-size="10.00">requires</text>
</g>
<!-- configuration&#45;modules&#45;core#1169 -->
<g id="node11" class="node"><title>configuration-modules-core#1169</title>
<a xlink:href="https://github.com/quattor/configuration-modules-core/pull/1169" xlink:title="ncm-accounts: is_user_or_group function can be used without component" target="_parent">
<polygon fill="#6cc644" stroke="black" points="204,-842 32,-842 32,-788 204,-788 204,-842"/>
<text text-anchor="middle" x="118" y="-819" font-family="Sans" font-size="10.00">pull-request</text>
<text text-anchor="middle" x="118" y="-806" font-family="Sans" font-size="10.00">configuration-modules-core#1169</text>
</a>
</g>
<!-- configuration&#45;modules&#45;core#1166 -->
<g id="node13" class="node"><title>configuration-modules-core#1166</title>
<a xlink:href="https://github.com/quattor/configuration-modules-core/issues/1166" xlink:title="ncm-systemd: schema depends on components/accounts/functions" target="_parent">
<ellipse fill="#6cc644" stroke="black" cx="432" cy="-444" rx="121.122" ry="38.1838"/>
<text text-anchor="middle" x="432" y="-448" font-family="Sans" font-size="10.00">issue</text>
<text text-anchor="middle" x="432" y="-435" font-family="Sans" font-size="10.00">configuration-modules-core#1166</text>
</a>
</g>
<!-- configuration&#45;modules&#45;core#1169&#45;&gt;configuration&#45;modules&#45;core#1166 -->
<g id="edge10" class="edge"><title>configuration-modules-core#1169-&gt;configuration-modules-core#1166</title>
<path fill="none" stroke="black" stroke-width="2" d="M204.19,-802.455C216.491,-797.079 227.748,-789.54 236,-779 258.911,-749.737 227.094,-470.638 254,-445 273.144,-426.758 299.377,-420.599 325.821,-420.484"/>
<polygon fill="black" stroke="black" points="325.872,-423.986 335.952,-420.723 326.037,-416.988 325.872,-423.986"/>
<text text-anchor="middle" x="273" y="-449" font-family="Sans" font-size="10.00">fixes</text>
</g>
<!-- configuration&#45;modules&#45;core#1167 -->
<g id="node14" class="node"><title>configuration-modules-core#1167</title>
<a xlink:href="https://github.com/quattor/configuration-modules-core/pull/1167" xlink:title="ncm-cups: fix compatibility with EL7" target="_parent">
<polygon fill="#6cc644" stroke="black" points="204,-770 32,-770 32,-716 204,-716 204,-770"/>
<text text-anchor="middle" x="118" y="-747" font-family="Sans" font-size="10.00">pull-request</text>
<text text-anchor="middle" x="118" y="-734" font-family="Sans" font-size="10.00">configuration-modules-core#1167</text>
</a>
</g>
<!-- configuration&#45;modules&#45;core#1161 -->
<g id="node16" class="node"><title>configuration-modules-core#1161</title>
<a xlink:href="https://github.com/quattor/configuration-modules-core/issues/1161" xlink:title="ncm-cups 17.7.0 broken on EL7 (pre-EL7 chkconfig dependency)" target="_parent">
<ellipse fill="#6cc644" stroke="black" cx="432" cy="-328" rx="121.122" ry="38.1838"/>
<text text-anchor="middle" x="432" y="-332" font-family="Sans" font-size="10.00">issue</text>
<text text-anchor="middle" x="432" y="-319" font-family="Sans" font-size="10.00">configuration-modules-core#1161</text>
</a>
</g>
<!-- configuration&#45;modules&#45;core#1167&#45;&gt;configuration&#45;modules&#45;core#1161 -->
<g id="edge12" class="edge"><title>configuration-modules-core#1167-&gt;configuration-modules-core#1161</title>
<path fill="none" stroke="black" stroke-width="2" d="M204.201,-730.464C216.501,-725.087 227.754,-717.545 236,-707 282.879,-647.047 204.437,-422.754 254,-365 262.257,-355.379 282.86,-348.152 307.249,-342.765"/>
<polygon fill="black" stroke="black" points="308.059,-346.172 317.141,-340.716 306.639,-339.317 308.059,-346.172"/>
<text text-anchor="middle" x="273" y="-369" font-family="Sans" font-size="10.00">fixes</text>
</g>
<!-- configuration&#45;modules&#45;core#1163 -->
<g id="node17" class="node"><title>configuration-modules-core#1163</title>
<a xlink:href="https://github.com/quattor/configuration-modules-core/pull/1163" xlink:title="ncm-directoryservices: remove unsupported component" target="_parent">
<polygon fill="#6cc644" stroke="black" points="204,-1483 32,-1483 32,-1429 204,-1429 204,-1483"/>
<text text-anchor="middle" x="118" y="-1460" font-family="Sans" font-size="10.00">pull-request</text>
<text text-anchor="middle" x="118" y="-1447" font-family="Sans" font-size="10.00">configuration-modules-core#1163</text>
</a>
</g>
<!-- configuration&#45;modules&#45;core#1052 -->
<g id="node19" class="node"><title>configuration-modules-core#1052</title>
<a xlink:href="https://github.com/quattor/configuration-modules-core/issues/1052" xlink:title="ncm-directoryservices: Archive and remove from repository" target="_parent">
<ellipse fill="#6cc644" stroke="black" cx="432" cy="-1456" rx="121.122" ry="38.1838"/>
<text text-anchor="middle" x="432" y="-1460" font-family="Sans" font-size="10.00">issue</text>
<text text-anchor="middle" x="432" y="-1447" font-family="Sans" font-size="10.00">configuration-modules-core#1052</text>
</a>
</g>
<!-- configuration&#45;modules&#45;core#1163&#45;&gt;configuration&#45;modules&#45;core#1052 -->
<g id="edge14" class="edge"><title>configuration-modules-core#1163-&gt;configuration-modules-core#1052</title>
<path fill="none" stroke="black" stroke-width="2" d="M204.217,-1456C233.916,-1456 267.888,-1456 300.372,-1456"/>
<polygon fill="black" stroke="black" points="300.399,-1459.5 310.399,-1456 300.399,-1452.5 300.399,-1459.5"/>
<text text-anchor="middle" x="273" y="-1460" font-family="Sans" font-size="10.00">fixes</text>
</g>
<!-- configuration&#45;modules&#45;core#1162 -->
<g id="node20" class="node"><title>configuration-modules-core#1162</title>
<a xlink:href="https://github.com/quattor/configuration-modules-core/pull/1162" xlink:title="ncm-mcx: remove unsupported component" target="_parent">
<polygon fill="#6e5494" stroke="black" points="204,-1389 32,-1389 32,-1335 204,-1335 204,-1389"/>
<text text-anchor="middle" x="118" y="-1366" font-family="Sans" font-size="10.00">pull-request</text>
<text text-anchor="middle" x="118" y="-1353" font-family="Sans" font-size="10.00">configuration-modules-core#1162</text>
</a>
</g>
<!-- configuration&#45;modules&#45;core#1054 -->
<g id="node22" class="node"><title>configuration-modules-core#1054</title>
<a xlink:href="https://github.com/quattor/configuration-modules-core/issues/1054" xlink:title="ncm-mcx: Archive and remove from repository" target="_parent">
<ellipse fill="#bd2c00" stroke="black" cx="432" cy="-1362" rx="121.122" ry="38.1838"/>
<text text-anchor="middle" x="432" y="-1366" font-family="Sans" font-size="10.00">issue</text>
<text text-anchor="middle" x="432" y="-1353" font-family="Sans" font-size="10.00">configuration-modules-core#1054</text>
</a>
</g>
<!-- configuration&#45;modules&#45;core#1162&#45;&gt;configuration&#45;modules&#45;core#1054 -->
<g id="edge16" class="edge"><title>configuration-modules-core#1162-&gt;configuration-modules-core#1054</title>
<path fill="none" stroke="black" stroke-width="2" d="M204.217,-1362C233.916,-1362 267.888,-1362 300.372,-1362"/>
<polygon fill="black" stroke="black" points="300.399,-1365.5 310.399,-1362 300.399,-1358.5 300.399,-1365.5"/>
<text text-anchor="middle" x="273" y="-1366" font-family="Sans" font-size="10.00">fixes</text>
</g>
<!-- configuration&#45;modules&#45;core#1159 -->
<g id="node23" class="node"><title>configuration-modules-core#1159</title>
<a xlink:href="https://github.com/quattor/configuration-modules-core/pull/1159" xlink:title="ncm-authconfig: Remove deprecated startstop property" target="_parent">
<polygon fill="#6e5494" stroke="black" points="204,-1280 32,-1280 32,-1226 204,-1226 204,-1280"/>
<text text-anchor="middle" x="118" y="-1257" font-family="Sans" font-size="10.00">pull-request</text>
<text text-anchor="middle" x="118" y="-1244" font-family="Sans" font-size="10.00">configuration-modules-core#1159</text>
</a>
</g>
<!-- configuration&#45;modules&#45;core#1145 -->
<g id="node25" class="node"><title>configuration-modules-core#1145</title>
<a xlink:href="https://github.com/quattor/configuration-modules-core/issues/1145" xlink:title="ncm-authconfig: Remove startstop property" target="_parent">
<ellipse fill="#bd2c00" stroke="black" cx="432" cy="-1268" rx="121.122" ry="38.1838"/>
<text text-anchor="middle" x="432" y="-1272" font-family="Sans" font-size="10.00">issue</text>
<text text-anchor="middle" x="432" y="-1259" font-family="Sans" font-size="10.00">configuration-modules-core#1145</text>
</a>
</g>
<!-- configuration&#45;modules&#45;core#1159&#45;&gt;configuration&#45;modules&#45;core#1145 -->
<g id="edge18" class="edge"><title>configuration-modules-core#1159-&gt;configuration-modules-core#1145</title>
<path fill="none" stroke="black" stroke-width="2" d="M204.217,-1257.12C234.327,-1258.56 268.83,-1260.21 301.721,-1261.78"/>
<polygon fill="black" stroke="black" points="301.714,-1265.28 311.87,-1262.26 302.048,-1258.29 301.714,-1265.28"/>
<text text-anchor="middle" x="273" y="-1265" font-family="Sans" font-size="10.00">fixes</text>
</g>
<!-- configuration&#45;modules&#45;core#1143 -->
<g id="node27" class="node"><title>configuration-modules-core#1143</title>
<a xlink:href="https://github.com/quattor/configuration-modules-core/issues/1143" xlink:title="ncm-authconfig: What is startstop supposed to do?" target="_parent">
<ellipse fill="#bd2c00" stroke="black" cx="432" cy="-1174" rx="121.122" ry="38.1838"/>
<text text-anchor="middle" x="432" y="-1178" font-family="Sans" font-size="10.00">issue</text>
<text text-anchor="middle" x="432" y="-1165" font-family="Sans" font-size="10.00">configuration-modules-core#1143</text>
</a>
</g>
<!-- configuration&#45;modules&#45;core#1159&#45;&gt;configuration&#45;modules&#45;core#1143 -->
<g id="edge20" class="edge"><title>configuration-modules-core#1159-&gt;configuration-modules-core#1143</title>
<path fill="none" stroke="black" stroke-width="2" d="M204.217,-1231.31C242.291,-1221.73 287.389,-1210.38 327.37,-1200.32"/>
<polygon fill="black" stroke="black" points="328.304,-1203.7 337.148,-1197.86 326.596,-1196.91 328.304,-1203.7"/>
<text text-anchor="middle" x="273" y="-1223" font-family="Sans" font-size="10.00">fixes</text>
</g>
<!-- configuration&#45;modules&#45;core#1151 -->
<g id="node28" class="node"><title>configuration-modules-core#1151</title>
<a xlink:href="https://github.com/quattor/configuration-modules-core/pull/1151" xlink:title="Escape / unescape functions from CCM::Path" target="_parent">
<polygon fill="#6e5494" stroke="black" points="204,-1202 32,-1202 32,-1148 204,-1148 204,-1202"/>
<text text-anchor="middle" x="118" y="-1179" font-family="Sans" font-size="10.00">pull-request</text>
<text text-anchor="middle" x="118" y="-1166" font-family="Sans" font-size="10.00">configuration-modules-core#1151</text>
</a>
</g>
<!-- configuration&#45;modules&#45;core#1083 -->
<g id="node30" class="node"><title>configuration-modules-core#1083</title>
<a xlink:href="https://github.com/quattor/configuration-modules-core/issues/1083" xlink:title="warnings due to deprecated CCM modules" target="_parent">
<ellipse fill="#bd2c00" stroke="black" cx="432" cy="-1080" rx="121.122" ry="38.1838"/>
<text text-anchor="middle" x="432" y="-1084" font-family="Sans" font-size="10.00">issue</text>
<text text-anchor="middle" x="432" y="-1071" font-family="Sans" font-size="10.00">configuration-modules-core#1083</text>
</a>
</g>
<!-- configuration&#45;modules&#45;core#1151&#45;&gt;configuration&#45;modules&#45;core#1083 -->
<g id="edge22" class="edge"><title>configuration-modules-core#1151-&gt;configuration-modules-core#1083</title>
<path fill="none" stroke="black" stroke-width="2" d="M204.217,-1148.92C244.726,-1136.66 293.186,-1122 334.974,-1109.35"/>
<polygon fill="black" stroke="black" points="336.053,-1112.69 344.611,-1106.44 334.026,-1105.99 336.053,-1112.69"/>
<text text-anchor="middle" x="273" y="-1138" font-family="Sans" font-size="10.00">fixes</text>
</g>
<!-- configuration&#45;modules&#45;core#1149 -->
<g id="node31" class="node"><title>configuration-modules-core#1149</title>
<a xlink:href="https://github.com/quattor/configuration-modules-core/pull/1149" xlink:title="ncm-metaconfig: rsyslog: rainer script configuration" target="_parent">
<polygon fill="#6cc644" stroke="black" points="204,-1130 32,-1130 32,-1076 204,-1076 204,-1130"/>
<text text-anchor="middle" x="118" y="-1107" font-family="Sans" font-size="10.00">pull-request</text>
<text text-anchor="middle" x="118" y="-1094" font-family="Sans" font-size="10.00">configuration-modules-core#1149</text>
</a>
</g>
<!-- configuration&#45;modules&#45;core#1126 -->
<g id="node33" class="node"><title>configuration-modules-core#1126</title>
<a xlink:href="https://github.com/quattor/configuration-modules-core/pull/1126" xlink:title="ncm-metaconfig: cleanup and switch to 00-tqu" target="_parent">
<polygon fill="#6cc644" stroke="black" points="518,-1024 346,-1024 346,-970 518,-970 518,-1024"/>
<text text-anchor="middle" x="432" y="-1001" font-family="Sans" font-size="10.00">pull-request</text>
<text text-anchor="middle" x="432" y="-988" font-family="Sans" font-size="10.00">configuration-modules-core#1126</text>
</a>
</g>
<!-- configuration&#45;modules&#45;core#1149&#45;&gt;configuration&#45;modules&#45;core#1126 -->
<g id="edge24" class="edge"><title>configuration-modules-core#1149-&gt;configuration-modules-core#1126</title>
<path fill="none" stroke="black" stroke-dasharray="5,2" d="M204.031,-1078.73C214.898,-1075.09 225.781,-1071.15 236,-1067 266.57,-1054.58 271.271,-1045.02 302,-1033 312.905,-1028.73 324.509,-1024.76 336.123,-1021.13"/>
<polygon fill="none" stroke="black" points="337.321,-1024.42 345.866,-1018.16 335.28,-1017.73 337.321,-1024.42"/>
<text text-anchor="middle" x="273" y="-1063" font-family="Sans" font-size="10.00">requires</text>
</g>
<!-- configuration&#45;modules&#45;core#1136 -->
<g id="node34" class="node"><title>configuration-modules-core#1136</title>
<a xlink:href="https://github.com/quattor/configuration-modules-core/pull/1136" xlink:title="ncm-gmond: cleanup and support new configuration options" target="_parent">
<polygon fill="#6cc644" stroke="black" points="204,-1058 32,-1058 32,-1004 204,-1004 204,-1058"/>
<text text-anchor="middle" x="118" y="-1035" font-family="Sans" font-size="10.00">pull-request</text>
<text text-anchor="middle" x="118" y="-1022" font-family="Sans" font-size="10.00">configuration-modules-core#1136</text>
</a>
</g>
<!-- configuration&#45;modules&#45;core#1116 -->
<g id="node36" class="node"><title>configuration-modules-core#1116</title>
<a xlink:href="https://github.com/quattor/configuration-modules-core/issues/1116" xlink:title="ncm-gmond: configuration options missing from schema" target="_parent">
<ellipse fill="#6cc644" stroke="black" cx="432" cy="-914" rx="121.122" ry="38.1838"/>
<text text-anchor="middle" x="432" y="-918" font-family="Sans" font-size="10.00">issue</text>
<text text-anchor="middle" x="432" y="-905" font-family="Sans" font-size="10.00">configuration-modules-core#1116</text>
</a>
</g>
<!-- configuration&#45;modules&#45;core#1136&#45;&gt;configuration&#45;modules&#45;core#1116 -->
<g id="edge26" class="edge"><title>configuration-modules-core#1136-&gt;configuration-modules-core#1116</title>
<path fill="none" stroke="black" stroke-width="2" d="M204.031,-1006.73C214.898,-1003.09 225.781,-999.152 236,-995 266.57,-982.58 271.755,-974.192 302,-961 314.214,-955.673 327.245,-950.445 340.164,-945.525"/>
<polygon fill="black" stroke="black" points="341.41,-948.796 349.538,-941.999 338.946,-942.244 341.41,-948.796"/>
<text text-anchor="middle" x="273" y="-991" font-family="Sans" font-size="10.00">fixes</text>
</g>
<!-- configuration&#45;modules&#45;core#1132 -->
<g id="node37" class="node"><title>configuration-modules-core#1132</title>
<a xlink:href="https://github.com/quattor/configuration-modules-core/pull/1132" xlink:title="ncm-metaconfig: hnormalise" target="_parent">
<polygon fill="#6cc644" stroke="black" points="204,-626 32,-626 32,-572 204,-572 204,-626"/>
<text text-anchor="middle" x="118" y="-603" font-family="Sans" font-size="10.00">pull-request</text>
<text text-anchor="middle" x="118" y="-590" font-family="Sans" font-size="10.00">configuration-modules-core#1132</text>
</a>
</g>
<!-- configuration&#45;modules&#45;core#1028 -->
<g id="node39" class="node"><title>configuration-modules-core#1028</title>
<polygon fill="lightgrey" stroke="black" points="518,-98.5 346,-98.5 346,-57.5 518,-57.5 518,-98.5"/>
<text text-anchor="middle" x="432" y="-75.5" font-family="Sans" font-size="10.00">configuration-modules-core#1028</text>
</g>
<!-- configuration&#45;modules&#45;core#1132&#45;&gt;configuration&#45;modules&#45;core#1028 -->
<g id="edge28" class="edge"><title>configuration-modules-core#1132-&gt;configuration-modules-core#1028</title>
<path fill="none" stroke="black" stroke-dasharray="5,2" d="M204.03,-586.689C216.431,-581.293 227.761,-573.686 236,-563 267.368,-522.316 219.337,-138.915 254,-101 274.59,-78.4787 305.474,-69.8221 335.764,-67.7185"/>
<polygon fill="none" stroke="black" points="336.17,-71.2035 345.998,-67.2457 335.847,-64.211 336.17,-71.2035"/>
<text text-anchor="middle" x="273" y="-105" font-family="Sans" font-size="10.00">requires</text>
</g>
<!-- configuration&#45;modules&#45;core#1124 -->
<g id="node40" class="node"><title>configuration-modules-core#1124</title>
<a xlink:href="https://github.com/quattor/configuration-modules-core/pull/1124" xlink:title="ncm-cron: cleanup and switch to 00-tqu" target="_parent">
<polygon fill="#6e5494" stroke="black" points="204,-698 32,-698 32,-644 204,-644 204,-698"/>
<text text-anchor="middle" x="118" y="-675" font-family="Sans" font-size="10.00">pull-request</text>
<text text-anchor="middle" x="118" y="-662" font-family="Sans" font-size="10.00">configuration-modules-core#1124</text>
</a>
</g>
<!-- CAF#230 -->
<g id="node42" class="node"><title>CAF#230</title>
<polygon fill="lightgrey" stroke="black" points="467,-156.5 397,-156.5 397,-115.5 467,-115.5 467,-156.5"/>
<text text-anchor="middle" x="432" y="-133.5" font-family="Sans" font-size="10.00">CAF#230</text>
</g>
<!-- configuration&#45;modules&#45;core#1124&#45;&gt;CAF#230 -->
<g id="edge30" class="edge"><title>configuration-modules-core#1124-&gt;CAF#230</title>
<path fill="none" stroke="black" stroke-dasharray="5,2" d="M204.055,-658.708C216.453,-653.31 227.776,-645.698 236,-635 269.747,-591.103 214.255,-175.55 254,-137 288.458,-103.578 346.635,-110.347 387.061,-120.839"/>
<polygon fill="none" stroke="black" points="386.36,-124.276 396.931,-123.564 388.223,-117.529 386.36,-124.276"/>
<text text-anchor="middle" x="273" y="-141" font-family="Sans" font-size="10.00">requires</text>
</g>
<!-- configuration&#45;modules&#45;core#1119 -->
<g id="node43" class="node"><title>configuration-modules-core#1119</title>
<a xlink:href="https://github.com/quattor/configuration-modules-core/pull/1119" xlink:title="ncm-systemd: cleanup, restarting modified unitfiles and initial handling of unconfigured units" target="_parent">
<polygon fill="#6cc644" stroke="black" points="204,-986 32,-986 32,-932 204,-932 204,-986"/>
<text text-anchor="middle" x="118" y="-963" font-family="Sans" font-size="10.00">pull-request</text>
<text text-anchor="middle" x="118" y="-950" font-family="Sans" font-size="10.00">configuration-modules-core#1119</text>
</a>
</g>
<!-- configuration&#45;modules&#45;core#1095 -->
<g id="node45" class="node"><title>configuration-modules-core#1095</title>
<a xlink:href="https://github.com/quattor/configuration-modules-core/issues/1095" xlink:title="Manual intervention required in order for drop-in unit files to have any affect" target="_parent">
<ellipse fill="#6cc644" stroke="black" cx="432" cy="-820" rx="121.122" ry="38.1838"/>
<text text-anchor="middle" x="432" y="-824" font-family="Sans" font-size="10.00">issue</text>
<text text-anchor="middle" x="432" y="-811" font-family="Sans" font-size="10.00">configuration-modules-core#1095</text>
</a>
</g>
<!-- configuration&#45;modules&#45;core#1119&#45;&gt;configuration&#45;modules&#45;core#1095 -->
<g id="edge32" class="edge"><title>configuration-modules-core#1119-&gt;configuration-modules-core#1095</title>
<path fill="none" stroke="black" stroke-width="2" d="M204.127,-937.254C215.142,-933.172 226.037,-928.441 236,-923 269.763,-904.561 268.717,-886.29 302,-867 312.486,-860.923 323.893,-855.414 335.451,-850.486"/>
<polygon fill="black" stroke="black" points="336.826,-853.706 344.737,-846.659 334.158,-847.234 336.826,-853.706"/>
<text text-anchor="middle" x="273" y="-914" font-family="Sans" font-size="10.00">fixes</text>
</g>
<!-- configuration&#45;modules&#45;core#1087 -->
<g id="node46" class="node"><title>configuration-modules-core#1087</title>
<a xlink:href="https://github.com/quattor/configuration-modules-core/pull/1087" xlink:title="ncm-network: cleanup, fixes and new features" target="_parent">
<polygon fill="#6cc644" stroke="black" points="204,-914 32,-914 32,-860 204,-860 204,-914"/>
<text text-anchor="middle" x="118" y="-891" font-family="Sans" font-size="10.00">pull-request</text>
<text text-anchor="middle" x="118" y="-878" font-family="Sans" font-size="10.00">configuration-modules-core#1087</text>
</a>
</g>
<!-- configuration&#45;modules&#45;core#1087&#45;&gt;CAF#230 -->
<g id="edge44" class="edge"><title>configuration-modules-core#1087-&gt;CAF#230</title>
<path fill="none" stroke="black" stroke-dasharray="5,2" d="M204.126,-874.763C216.516,-869.359 227.818,-861.73 236,-851 278.801,-794.874 227.052,-281.237 254,-216 265.884,-187.231 274.95,-180.401 302,-165 327.901,-150.253 360.675,-143.004 386.835,-139.442"/>
<polygon fill="none" stroke="black" points="387.373,-142.902 396.871,-138.209 386.519,-135.954 387.373,-142.902"/>
<text text-anchor="middle" x="273" y="-220" font-family="Sans" font-size="10.00">requires</text>
</g>
<!-- configuration&#45;modules&#45;core#1082 -->
<g id="node48" class="node"><title>configuration-modules-core#1082</title>
<a xlink:href="https://github.com/quattor/configuration-modules-core/issues/1082" xlink:title="ncm-network: Allow extra routing options for the default route" target="_parent">
<ellipse fill="#6cc644" stroke="black" cx="432" cy="-538" rx="121.122" ry="38.1838"/>
<text text-anchor="middle" x="432" y="-542" font-family="Sans" font-size="10.00">issue</text>
<text text-anchor="middle" x="432" y="-529" font-family="Sans" font-size="10.00">configuration-modules-core#1082</text>
</a>
</g>
<!-- configuration&#45;modules&#45;core#1087&#45;&gt;configuration&#45;modules&#45;core#1082 -->
<g id="edge34" class="edge"><title>configuration-modules-core#1087-&gt;configuration-modules-core#1082</title>
<path fill="none" stroke="black" stroke-width="2" d="M204.071,-873.994C216.307,-868.667 227.573,-861.263 236,-851 261.369,-820.102 242.102,-710.167 254,-672 267.143,-629.84 268.417,-613.678 302,-585 310.174,-578.02 319.467,-572.043 329.238,-566.933"/>
<polygon fill="black" stroke="black" points="330.887,-570.023 338.327,-562.48 327.807,-563.737 330.887,-570.023"/>
<text text-anchor="middle" x="273" y="-676" font-family="Sans" font-size="10.00">fixes</text>
</g>
<!-- configuration&#45;modules&#45;core#870 -->
<g id="node50" class="node"><title>configuration-modules-core#870</title>
<a xlink:href="https://github.com/quattor/configuration-modules-core/issues/870" xlink:title="ncm-network: hostname is not set in el7" target="_parent">
<ellipse fill="#6cc644" stroke="black" cx="432" cy="-632" rx="118.087" ry="38.1838"/>
<text text-anchor="middle" x="432" y="-636" font-family="Sans" font-size="10.00">issue</text>
<text text-anchor="middle" x="432" y="-623" font-family="Sans" font-size="10.00">configuration-modules-core#870</text>
</a>
</g>
<!-- configuration&#45;modules&#45;core#1087&#45;&gt;configuration&#45;modules&#45;core#870 -->
<g id="edge36" class="edge"><title>configuration-modules-core#1087-&gt;configuration-modules-core#870</title>
<path fill="none" stroke="black" stroke-width="2" d="M204.029,-872.798C216.04,-867.604 227.246,-860.554 236,-851 262.086,-822.527 240.526,-802.189 254,-766 269.409,-724.614 268.417,-707.678 302,-679 310.54,-671.707 320.301,-665.511 330.552,-660.252"/>
<polygon fill="black" stroke="black" points="332.172,-663.357 339.668,-655.869 329.139,-657.048 332.172,-663.357"/>
<text text-anchor="middle" x="273" y="-770" font-family="Sans" font-size="10.00">fixes</text>
</g>
<!-- configuration&#45;modules&#45;core#1109 -->
<g id="node52" class="node"><title>configuration-modules-core#1109</title>
<a xlink:href="https://github.com/quattor/configuration-modules-core/issues/1109" xlink:title="ncm-network: systemd rpm scripts remove HOSTNAME from /etc/sysconfig/network" target="_parent">
<ellipse fill="#6cc644" stroke="black" cx="432" cy="-726" rx="121.122" ry="38.1838"/>
<text text-anchor="middle" x="432" y="-730" font-family="Sans" font-size="10.00">issue</text>
<text text-anchor="middle" x="432" y="-717" font-family="Sans" font-size="10.00">configuration-modules-core#1109</text>
</a>
</g>
<!-- configuration&#45;modules&#45;core#1087&#45;&gt;configuration&#45;modules&#45;core#1109 -->
<g id="edge38" class="edge"><title>configuration-modules-core#1087-&gt;configuration-modules-core#1109</title>
<path fill="none" stroke="black" stroke-width="2" d="M204.113,-867.132C215.305,-862.738 226.251,-857.42 236,-851 273.927,-826.025 264.719,-798.93 302,-773 311.372,-766.482 321.749,-760.763 332.434,-755.772"/>
<polygon fill="black" stroke="black" points="334.169,-758.831 341.886,-751.571 331.326,-752.434 334.169,-758.831"/>
<text text-anchor="middle" x="273" y="-839" font-family="Sans" font-size="10.00">fixes</text>
</g>
<!-- configuration&#45;modules&#45;core#1085 -->
<g id="node54" class="node"><title>configuration-modules-core#1085</title>
<polygon fill="lightgrey" stroke="black" points="518,-272.5 346,-272.5 346,-231.5 518,-231.5 518,-272.5"/>
<text text-anchor="middle" x="432" y="-249.5" font-family="Sans" font-size="10.00">configuration-modules-core#1085</text>
</g>
<!-- configuration&#45;modules&#45;core#1087&#45;&gt;configuration&#45;modules&#45;core#1085 -->
<g id="edge40" class="edge"><title>configuration-modules-core#1087-&gt;configuration-modules-core#1085</title>
<path fill="none" stroke="black" stroke-dasharray="1,5" d="M204.082,-874.37C216.396,-869.004 227.684,-861.49 236,-851 254.884,-827.177 248.371,-607.873 254,-578 264.36,-523.024 281.925,-513.029 292,-458 295.608,-438.297 288.876,-293.132 302,-278 311.101,-267.506 323.136,-260.515 336.216,-255.959"/>
<polygon fill="black" stroke="black" points="345.898,-253.056 337.612,-260.238 341.109,-254.492 336.319,-255.928 336.319,-255.928 336.319,-255.928 341.109,-254.492 335.027,-251.617 345.898,-253.056 345.898,-253.056"/>
<text text-anchor="middle" x="273" y="-582" font-family="Sans" font-size="10.00">replaces</text>
</g>
<!-- configuration&#45;modules&#45;core#1070 -->
<g id="node56" class="node"><title>configuration-modules-core#1070</title>
<polygon fill="lightgrey" stroke="black" points="518,-214.5 346,-214.5 346,-173.5 518,-173.5 518,-214.5"/>
<text text-anchor="middle" x="432" y="-191.5" font-family="Sans" font-size="10.00">configuration-modules-core#1070</text>
</g>
<!-- configuration&#45;modules&#45;core#1087&#45;&gt;configuration&#45;modules&#45;core#1070 -->
<g id="edge42" class="edge"><title>configuration-modules-core#1087-&gt;configuration-modules-core#1070</title>
<path fill="none" stroke="black" stroke-dasharray="1,5" d="M204.07,-874.72C216.466,-869.32 227.784,-861.704 236,-851 271.267,-805.05 240.901,-386.423 254,-330 265.787,-279.229 261.613,-255.947 302,-223 311.995,-214.846 323.806,-208.869 336.168,-204.507"/>
<polygon fill="black" stroke="black" points="345.708,-201.476 337.539,-208.793 340.942,-202.99 336.177,-204.504 336.177,-204.504 336.177,-204.504 340.942,-202.99 334.814,-200.215 345.708,-201.476 345.708,-201.476"/>
<text text-anchor="middle" x="273" y="-334" font-family="Sans" font-size="10.00">replaces</text>
</g>
<!-- configuration&#45;modules&#45;core#1058 -->
<g id="node58" class="node"><title>configuration-modules-core#1058</title>
<a xlink:href="https://github.com/quattor/configuration-modules-core/pull/1058" xlink:title="ncm-ssh: disable insecure ssh ciphersuites and macs" target="_parent">
<polygon fill="#6cc644" stroke="black" points="204,-554 32,-554 32,-500 204,-500 204,-554"/>
<text text-anchor="middle" x="118" y="-531" font-family="Sans" font-size="10.00">pull-request</text>
<text text-anchor="middle" x="118" y="-518" font-family="Sans" font-size="10.00">configuration-modules-core#1058</text>
</a>
</g>
<!-- configuration&#45;modules&#45;core#983 -->
<g id="node60" class="node"><title>configuration-modules-core#983</title>
<polygon fill="lightgrey" stroke="black" points="515,-40.5 349,-40.5 349,0.5 515,0.5 515,-40.5"/>
<text text-anchor="middle" x="432" y="-17.5" font-family="Sans" font-size="10.00">configuration-modules-core#983</text>
</g>
<!-- configuration&#45;modules&#45;core#1058&#45;&gt;configuration&#45;modules&#45;core#983 -->
<g id="edge46" class="edge"><title>configuration-modules-core#1058-&gt;configuration-modules-core#983</title>
<path fill="none" stroke="black" stroke-dasharray="1,5" d="M121.7,-499.758C134.892,-406.828 182.679,-104.637 254,-43 276.982,-23.139 308.271,-15.0686 338.208,-12.6892"/>
<polygon fill="black" stroke="black" points="348.295,-12.0916 338.578,-17.1752 343.304,-12.3874 338.312,-12.6831 338.312,-12.6831 338.312,-12.6831 343.304,-12.3874 338.046,-8.19097 348.295,-12.0916 348.295,-12.0916"/>
<text text-anchor="middle" x="273" y="-47" font-family="Sans" font-size="10.00">replaces</text>
</g>
<!-- configuration&#45;modules&#45;core#1171 -->
<g id="node61" class="node"><title>configuration-modules-core#1171</title>
<a xlink:href="https://github.com/quattor/configuration-modules-core/pull/1171" xlink:title="[WIP] ncm-cups enhancements and cleanups" target="_parent">
<polygon fill="#6cc644" stroke="black" points="204,-1939 32,-1939 32,-1885 204,-1885 204,-1939"/>
<text text-anchor="middle" x="118" y="-1916" font-family="Sans" font-size="10.00">pull-request</text>
<text text-anchor="middle" x="118" y="-1903" font-family="Sans" font-size="10.00">configuration-modules-core#1171</text>
</a>
</g>
<!-- configuration&#45;modules&#45;core#1164 -->
<g id="node63" class="node"><title>configuration-modules-core#1164</title>
<a xlink:href="https://github.com/quattor/configuration-modules-core/issues/1164" xlink:title="ncm-cups 17.7.0: configuration of ServerAlias + miscellanous enhancements" target="_parent">
<ellipse fill="#6cc644" stroke="black" cx="432" cy="-1912" rx="121.122" ry="38.1838"/>
<text text-anchor="middle" x="432" y="-1916" font-family="Sans" font-size="10.00">issue</text>
<text text-anchor="middle" x="432" y="-1903" font-family="Sans" font-size="10.00">configuration-modules-core#1164</text>
</a>
</g>
<!-- configuration&#45;modules&#45;core#1171&#45;&gt;configuration&#45;modules&#45;core#1164 -->
<g id="edge48" class="edge"><title>configuration-modules-core#1171-&gt;configuration-modules-core#1164</title>
<path fill="none" stroke="black" stroke-width="2" d="M204.217,-1912C233.916,-1912 267.888,-1912 300.372,-1912"/>
<polygon fill="black" stroke="black" points="300.399,-1915.5 310.399,-1912 300.399,-1908.5 300.399,-1915.5"/>
<text text-anchor="middle" x="273" y="-1916" font-family="Sans" font-size="10.00">fixes</text>
</g>
<!-- configuration&#45;modules&#45;core#1148 -->
<g id="node64" class="node"><title>configuration-modules-core#1148</title>
<a xlink:href="https://github.com/quattor/configuration-modules-core/pull/1148" xlink:title="ncm-spma: Remove support from groups from spma yumng backend" target="_parent">
<polygon fill="#6cc644" stroke="black" points="204,-2033 32,-2033 32,-1979 204,-1979 204,-2033"/>
<text text-anchor="middle" x="118" y="-2010" font-family="Sans" font-size="10.00">pull-request</text>
<text text-anchor="middle" x="118" y="-1997" font-family="Sans" font-size="10.00">configuration-modules-core#1148</text>
</a>
</g>
<!-- configuration&#45;modules&#45;core#952 -->
<g id="node66" class="node"><title>configuration-modules-core#952</title>
<a xlink:href="https://github.com/quattor/configuration-modules-core/issues/952" xlink:title="ncm-spma (yumng): Remove support for package groups" target="_parent">
<ellipse fill="#6cc644" stroke="black" cx="432" cy="-2006" rx="118.087" ry="38.1838"/>
<text text-anchor="middle" x="432" y="-2010" font-family="Sans" font-size="10.00">issue</text>
<text text-anchor="middle" x="432" y="-1997" font-family="Sans" font-size="10.00">configuration-modules-core#952</text>
</a>
</g>
<!-- configuration&#45;modules&#45;core#1148&#45;&gt;configuration&#45;modules&#45;core#952 -->
<g id="edge50" class="edge"><title>configuration-modules-core#1148-&gt;configuration-modules-core#952</title>
<path fill="none" stroke="black" stroke-width="2" d="M204.217,-2006C234.903,-2006 270.151,-2006 303.606,-2006"/>
<polygon fill="black" stroke="black" points="303.924,-2009.5 313.924,-2006 303.924,-2002.5 303.924,-2009.5"/>
<text text-anchor="middle" x="273" y="-2010" font-family="Sans" font-size="10.00">fixes</text>
</g>
<!-- configuration&#45;modules&#45;core#950 -->
<g id="node67" class="node"><title>configuration-modules-core#950</title>
<a xlink:href="https://github.com/quattor/configuration-modules-core/issues/950" xlink:title="ncm-spma: Remove support for package groups from yum backends" target="_parent">
<ellipse fill="#6cc644" stroke="black" cx="118" cy="-2095" rx="118.087" ry="38.1838"/>
<text text-anchor="middle" x="118" y="-2099" font-family="Sans" font-size="10.00">issue</text>
<text text-anchor="middle" x="118" y="-2086" font-family="Sans" font-size="10.00">configuration-modules-core#950</text>
</a>
</g>
<!-- configuration&#45;modules&#45;core#950&#45;&gt;configuration&#45;modules&#45;core#952 -->
<g id="edge54" class="edge"><title>configuration-modules-core#950-&gt;configuration-modules-core#952</title>
<path fill="none" stroke="black" stroke-dasharray="5,2" d="M206.721,-2069.85C246.26,-2058.65 292.974,-2045.41 333.584,-2033.89"/>
<polygon fill="none" stroke="black" points="334.56,-2037.26 343.226,-2031.16 332.651,-2030.52 334.56,-2037.26"/>
<text text-anchor="middle" x="273" y="-2059" font-family="Sans" font-size="10.00">requires</text>
</g>
<!-- configuration&#45;modules&#45;core#951 -->
<g id="node69" class="node"><title>configuration-modules-core#951</title>
<a xlink:href="https://github.com/quattor/configuration-modules-core/issues/951" xlink:title="ncm-spma (yum): Remove support for package groups" target="_parent">
<ellipse fill="#6cc644" stroke="black" cx="432" cy="-2100" rx="118.087" ry="38.1838"/>
<text text-anchor="middle" x="432" y="-2104" font-family="Sans" font-size="10.00">issue</text>
<text text-anchor="middle" x="432" y="-2091" font-family="Sans" font-size="10.00">configuration-modules-core#951</text>
</a>
</g>
<!-- configuration&#45;modules&#45;core#950&#45;&gt;configuration&#45;modules&#45;core#951 -->
<g id="edge52" class="edge"><title>configuration-modules-core#950-&gt;configuration-modules-core#951</title>
<path fill="none" stroke="black" stroke-dasharray="5,2" d="M236.263,-2096.88C258.348,-2097.23 281.525,-2097.6 303.892,-2097.96"/>
<polygon fill="none" stroke="black" points="304.05,-2101.46 314.105,-2098.12 304.162,-2094.46 304.05,-2101.46"/>
<text text-anchor="middle" x="273" y="-2101" font-family="Sans" font-size="10.00">requires</text>
</g>
</g>
</svg>
