<?xml version="1.0" encoding="UTF-8" standalone="no"?>
<?xml-stylesheet href="relationships.css" type="text/css"?>
<!-- Generated by graphviz version 2.26.0 (20091210.2329)
 -->
<!-- Title: Dependencies Pages: 1 -->
<svg xmlns="http://www.w3.org/2000/svg" xmlns:xlink="http://www.w3.org/1999/xlink" width="704pt" height="2328pt" viewBox="0.00 0.00 704.00 2328.00">
<g id="graph1" class="graph" transform="scale(1 1) rotate(0) translate(4 2324)">
<title>Dependencies</title>
<polygon fill="white" stroke="white" points="-4,5 -4,-2324 701,-2324 701,5 -4,5"/>
<g id="graph2" class="cluster"><title>cluster_milestone_18.9</title>
<polygon fill="none" stroke="black" points="24,-361 24,-1655 562,-1655 562,-361 24,-361"/>
<text text-anchor="middle" x="293" y="-1640.2" font-family="Sans" font-size="12.00">18.9</text>
</g>
<g id="graph3" class="cluster"><title>cluster_milestone_18.12</title>
<polygon fill="none" stroke="black" points="70,-8 70,-196 490,-196 490,-8 70,-8"/>
<text text-anchor="middle" x="280" y="-181.2" font-family="Sans" font-size="12.00">18.12</text>
</g>
<g id="graph4" class="cluster"><title>cluster_repo_aquilon</title>
<polygon fill="none" stroke="black" points="57,-1908 57,-2312 497,-2312 497,-1908 57,-1908"/>
<text text-anchor="middle" x="277" y="-2297.2" font-family="Sans" font-size="12.00">aquilon</text>
</g>
<!-- aii#299 -->
<g id="node1" class="node"><title>aii#299</title>
<a xlink:href="https://github.com/quattor/aii/pull/299" xlink:title="aii-dhcp: support optional hostname ip verification" target="_parent">
<polygon fill="#6cc644" stroke="black" points="157,-164 79,-164 79,-110 157,-110 157,-164"/>
<text text-anchor="middle" x="118" y="-141" font-family="Sans" font-size="10.00">pull-request</text>
<text text-anchor="middle" x="118" y="-128" font-family="Sans" font-size="10.00">aii#299</text>
</a>
</g>
<!-- aii#296 -->
<g id="node3" class="node"><title>aii#296</title>
<a xlink:href="https://github.com/quattor/aii/pull/296" xlink:title="DHCP plugin updates" target="_parent">
<polygon fill="#6cc644" stroke="black" points="471,-164 393,-164 393,-110 471,-110 471,-164"/>
<text text-anchor="middle" x="432" y="-141" font-family="Sans" font-size="10.00">pull-request</text>
<text text-anchor="middle" x="432" y="-128" font-family="Sans" font-size="10.00">aii#296</text>
</a>
</g>
<!-- aii#299&#45;&gt;aii#296 -->
<g id="edge2" class="edge"><title>aii#299-&gt;aii#296</title>
<path fill="none" stroke="black" stroke-dasharray="5,2" d="M157.571,-135.897C184.705,-135.197 221.529,-134.358 254,-134 297.318,-133.522 346.561,-134.467 382.256,-135.42"/>
<polygon fill="none" stroke="black" points="382.318,-138.923 392.411,-135.701 382.512,-131.925 382.318,-138.923"/>
<text text-anchor="middle" x="273" y="-138" font-family="Sans" font-size="10.00">requires</text>
</g>
<!-- aii#294 -->
<g id="node4" class="node"><title>aii#294</title>
<a xlink:href="https://github.com/quattor/aii/pull/294" xlink:title="aii: ks: disable selinux with kernel param" target="_parent">
<polygon fill="#6e5494" stroke="black" points="157,-1612 79,-1612 79,-1558 157,-1558 157,-1612"/>
<text text-anchor="middle" x="118" y="-1589" font-family="Sans" font-size="10.00">pull-request</text>
<text text-anchor="middle" x="118" y="-1576" font-family="Sans" font-size="10.00">aii#294</text>
</a>
</g>
<!-- aii#293 -->
<g id="node6" class="node"><title>aii#293</title>
<a xlink:href="https://github.com/quattor/aii/issues/293" xlink:title="Disabling selinux during OS installation does not work with CentOS 7.5" target="_parent">
<ellipse fill="#bd2c00" stroke="black" cx="432" cy="-1585" rx="41.2167" ry="38.1838"/>
<text text-anchor="middle" x="432" y="-1589" font-family="Sans" font-size="10.00">issue</text>
<text text-anchor="middle" x="432" y="-1576" font-family="Sans" font-size="10.00">aii#293</text>
</a>
</g>
<!-- aii#294&#45;&gt;aii#293 -->
<g id="edge4" class="edge"><title>aii#294-&gt;aii#293</title>
<path fill="none" stroke="black" stroke-width="2" d="M157.571,-1583.9C184.705,-1583.2 221.529,-1582.36 254,-1582 296.474,-1581.53 344.645,-1582.43 380.154,-1583.36"/>
<polygon fill="black" stroke="black" points="380.191,-1586.87 390.282,-1583.64 380.381,-1579.87 380.191,-1586.87"/>
<text text-anchor="middle" x="273" y="-1586" font-family="Sans" font-size="10.00">fixes</text>
</g>
<!-- aii#291 -->
<g id="node7" class="node"><title>aii#291</title>
<a xlink:href="https://github.com/quattor/aii/pull/291" xlink:title="aii-installfe: add support for --cdburl" target="_parent">
<polygon fill="#6e5494" stroke="black" points="157,-1518 79,-1518 79,-1464 157,-1464 157,-1518"/>
<text text-anchor="middle" x="118" y="-1495" font-family="Sans" font-size="10.00">pull-request</text>
<text text-anchor="middle" x="118" y="-1482" font-family="Sans" font-size="10.00">aii#291</text>
</a>
</g>
<!-- aii#290 -->
<g id="node9" class="node"><title>aii#290</title>
<a xlink:href="https://github.com/quattor/aii/issues/290" xlink:title="18.6.0: aii-installfe should allow to define cdburl" target="_parent">
<ellipse fill="#bd2c00" stroke="black" cx="432" cy="-1491" rx="41.2167" ry="38.1838"/>
<text text-anchor="middle" x="432" y="-1495" font-family="Sans" font-size="10.00">issue</text>
<text text-anchor="middle" x="432" y="-1482" font-family="Sans" font-size="10.00">aii#290</text>
</a>
</g>
<!-- aii#291&#45;&gt;aii#290 -->
<g id="edge6" class="edge"><title>aii#291-&gt;aii#290</title>
<path fill="none" stroke="black" stroke-width="2" d="M157.768,-1491C214.279,-1491 317.868,-1491 380.284,-1491"/>
<polygon fill="black" stroke="black" points="380.31,-1494.5 390.31,-1491 380.31,-1487.5 380.31,-1494.5"/>
<text text-anchor="middle" x="273" y="-1495" font-family="Sans" font-size="10.00">fixes</text>
</g>
<!-- aii#280 -->
<g id="node10" class="node"><title>aii#280</title>
<a xlink:href="https://github.com/quattor/aii/pull/280" xlink:title="Support active configuration attribute for plugins" target="_parent">
<polygon fill="#6cc644" stroke="black" points="157,-498 79,-498 79,-444 157,-444 157,-498"/>
<text text-anchor="middle" x="118" y="-475" font-family="Sans" font-size="10.00">pull-request</text>
<text text-anchor="middle" x="118" y="-462" font-family="Sans" font-size="10.00">aii#280</text>
</a>
</g>
<!-- aii#209 -->
<g id="node12" class="node"><title>aii#209</title>
<a xlink:href="https://github.com/quattor/aii/issues/209" xlink:title="support ACTIVE_CONFIG" target="_parent">
<ellipse fill="#6cc644" stroke="black" cx="432" cy="-479" rx="41.2167" ry="38.1838"/>
<text text-anchor="middle" x="432" y="-483" font-family="Sans" font-size="10.00">issue</text>
<text text-anchor="middle" x="432" y="-470" font-family="Sans" font-size="10.00">aii#209</text>
</a>
</g>
<!-- aii#280&#45;&gt;aii#209 -->
<g id="edge8" class="edge"><title>aii#280-&gt;aii#209</title>
<path fill="none" stroke="black" stroke-width="2" d="M157.768,-472.013C214.279,-473.453 317.868,-476.092 380.284,-477.682"/>
<polygon fill="black" stroke="black" points="380.224,-481.182 390.31,-477.938 380.402,-474.184 380.224,-481.182"/>
<text text-anchor="middle" x="273" y="-480" font-family="Sans" font-size="10.00">fixes</text>
</g>
<!-- ncm&#45;ncd#74 -->
<g id="node14" class="node"><title>ncm-ncd#74</title>
<a xlink:href="https://github.com/quattor/ncm-ncd/pull/74" xlink:title="Set the current active config as an attribute to the component" target="_parent">
<polygon fill="#6e5494" stroke="black" points="473,-589 391,-589 391,-535 473,-535 473,-589"/>
<text text-anchor="middle" x="432" y="-566" font-family="Sans" font-size="10.00">pull-request</text>
<text text-anchor="middle" x="432" y="-553" font-family="Sans" font-size="10.00">ncm-ncd#74</text>
</a>
</g>
<!-- aii#280&#45;&gt;ncm&#45;ncd#74 -->
<g id="edge10" class="edge"><title>aii#280-&gt;ncm-ncd#74</title>
<path fill="none" stroke="black" stroke-dasharray="5,2" d="M157.768,-482.525C214.552,-498.982 318.871,-529.214 381.186,-547.274"/>
<polygon fill="none" stroke="black" points="380.234,-550.642 390.813,-550.064 382.182,-543.918 380.234,-550.642"/>
<text text-anchor="middle" x="273" y="-524" font-family="Sans" font-size="10.00">requires</text>
</g>
<!-- aii#203 -->
<g id="node16" class="node"><title>aii#203</title>
<polygon fill="lightgrey" stroke="black" points="461,-351.5 403,-351.5 403,-310.5 461,-310.5 461,-351.5"/>
<text text-anchor="middle" x="432" y="-328.5" font-family="Sans" font-size="10.00">aii#203</text>
</g>
<!-- aii#280&#45;&gt;aii#203 -->
<g id="edge12" class="edge"><title>aii#280-&gt;aii#203</title>
<path fill="none" stroke="black" stroke-dasharray="5,2" d="M157.743,-466.947C183.166,-462.379 215.166,-452.664 236,-432 253.663,-414.482 236.827,-396.999 254,-379 272.46,-359.653 284.392,-364.702 310,-357 337.129,-348.841 368.388,-342.231 392.472,-337.718"/>
<polygon fill="none" stroke="black" points="393.116,-341.159 402.322,-335.914 391.855,-334.273 393.116,-341.159"/>
<text text-anchor="middle" x="273" y="-383" font-family="Sans" font-size="10.00">requires</text>
</g>
<!-- aii#210 -->
<g id="node18" class="node"><title>aii#210</title>
<polygon fill="lightgrey" stroke="black" points="461,-293.5 403,-293.5 403,-252.5 461,-252.5 461,-293.5"/>
<text text-anchor="middle" x="432" y="-270.5" font-family="Sans" font-size="10.00">aii#210</text>
</g>
<!-- aii#280&#45;&gt;aii#210 -->
<g id="edge14" class="edge"><title>aii#280-&gt;aii#210</title>
<path fill="none" stroke="black" stroke-dasharray="1,5" d="M157.758,-467.905C183.688,-463.757 216.265,-454.151 236,-432 262.267,-402.519 233.026,-378.455 254,-345 270.668,-318.413 281.664,-315.482 310,-302 336.06,-289.6 367.844,-282.266 392.437,-278.077"/>
<polygon fill="black" stroke="black" points="402.498,-276.468 393.334,-282.49 397.561,-277.257 392.624,-278.047 392.624,-278.047 392.624,-278.047 397.561,-277.257 391.913,-273.603 402.498,-276.468 402.498,-276.468"/>
<text text-anchor="middle" x="273" y="-349" font-family="Sans" font-size="10.00">replaces</text>
</g>
<!-- CAF#257 -->
<g id="node19" class="node"><title>CAF#257</title>
<a xlink:href="https://github.com/quattor/CAF/pull/257" xlink:title="Process: run process as another user" target="_parent">
<polygon fill="#6cc644" stroke="black" points="157,-81 79,-81 79,-27 157,-27 157,-81"/>
<text text-anchor="middle" x="118" y="-58" font-family="Sans" font-size="10.00">pull-request</text>
<text text-anchor="middle" x="118" y="-45" font-family="Sans" font-size="10.00">CAF#257</text>
</a>
</g>
<!-- CAF#253 -->
<g id="node21" class="node"><title>CAF#253</title>
<a xlink:href="https://github.com/quattor/CAF/issues/253" xlink:title="CAF::Process: Include an option to execute the command as an specific user" target="_parent">
<ellipse fill="#6cc644" stroke="black" cx="432" cy="-54" rx="48.9975" ry="38.1838"/>
<text text-anchor="middle" x="432" y="-58" font-family="Sans" font-size="10.00">issue</text>
<text text-anchor="middle" x="432" y="-45" font-family="Sans" font-size="10.00">CAF#253</text>
</a>
</g>
<!-- CAF#257&#45;&gt;CAF#253 -->
<g id="edge16" class="edge"><title>CAF#257-&gt;CAF#253</title>
<path fill="none" stroke="black" stroke-width="2" d="M157.768,-54C211.934,-54 309.353,-54 372.308,-54"/>
<polygon fill="black" stroke="black" points="372.488,-57.5001 382.488,-54 372.488,-50.5001 372.488,-57.5001"/>
<text text-anchor="middle" x="273" y="-58" font-family="Sans" font-size="10.00">fixes</text>
</g>
<!-- CAF#110 -->
<g id="node22" class="node"><title>CAF#110</title>
<a xlink:href="https://github.com/quattor/CAF/pull/110" xlink:title="CAF::Download class: API proposal" target="_parent">
<polygon fill="#6cc644" stroke="black" points="157,-1717 79,-1717 79,-1663 157,-1663 157,-1717"/>
<text text-anchor="middle" x="118" y="-1694" font-family="Sans" font-size="10.00">pull-request</text>
<text text-anchor="middle" x="118" y="-1681" font-family="Sans" font-size="10.00">CAF#110</text>
</a>
</g>
<!-- CAF#120 -->
<g id="node24" class="node"><title>CAF#120</title>
<polygon fill="lightgrey" stroke="black" points="467,-1710.5 397,-1710.5 397,-1669.5 467,-1669.5 467,-1710.5"/>
<text text-anchor="middle" x="432" y="-1687.5" font-family="Sans" font-size="10.00">CAF#120</text>
</g>
<!-- CAF#110&#45;&gt;CAF#120 -->
<g id="edge18" class="edge"><title>CAF#110-&gt;CAF#120</title>
<path fill="none" stroke="black" stroke-dasharray="5,2" d="M157.768,-1690C216.269,-1690 325.221,-1690 386.719,-1690"/>
<polygon fill="none" stroke="black" points="386.897,-1693.5 396.897,-1690 386.897,-1686.5 386.897,-1693.5"/>
<text text-anchor="middle" x="273" y="-1694" font-family="Sans" font-size="10.00">requires</text>
</g>
<!-- CCM#186 -->
<g id="node25" class="node"><title>CCM#186</title>
<a xlink:href="https://github.com/quattor/CCM/pull/186" xlink:title="TextRender: add support for jsonpretty type" target="_parent">
<polygon fill="#6e5494" stroke="black" points="471,-423 393,-423 393,-369 471,-369 471,-423"/>
<text text-anchor="middle" x="432" y="-400" font-family="Sans" font-size="10.00">pull-request</text>
<text text-anchor="middle" x="432" y="-387" font-family="Sans" font-size="10.00">CCM#186</text>
</a>
</g>
<!-- CAF#265 -->
<g id="node27" class="node"><title>CAF#265</title>
<polygon fill="lightgrey" stroke="black" points="696,-293.5 626,-293.5 626,-252.5 696,-252.5 696,-293.5"/>
<text text-anchor="middle" x="661" y="-270.5" font-family="Sans" font-size="10.00">CAF#265</text>
</g>
<!-- CCM#186&#45;&gt;CAF#265 -->
<g id="edge20" class="edge"><title>CCM#186-&gt;CAF#265</title>
<path fill="none" stroke="black" stroke-dasharray="5,2" d="M471.696,-391.9C498.457,-387.88 533.872,-380.055 562,-365 592.083,-348.899 619.934,-321.403 638.382,-300.654"/>
<polygon fill="none" stroke="black" points="641.056,-302.913 644.977,-293.07 635.774,-298.32 641.056,-302.913"/>
<text text-anchor="middle" x="590" y="-362" font-family="Sans" font-size="10.00">requires</text>
</g>
<!-- configuration&#45;modules&#45;core#1308 -->
<g id="node28" class="node"><title>configuration-modules-core#1308</title>
<a xlink:href="https://github.com/quattor/configuration-modules-core/pull/1308" xlink:title="ncm-network: no error wrt missing (IPv4) ip and netmask in a pure IPv6 config" target="_parent">
<polygon fill="#6e5494" stroke="black" points="204,-1424 32,-1424 32,-1370 204,-1370 204,-1424"/>
<text text-anchor="middle" x="118" y="-1401" font-family="Sans" font-size="10.00">pull-request</text>
<text text-anchor="middle" x="118" y="-1388" font-family="Sans" font-size="10.00">configuration-modules-core#1308</text>
</a>
</g>
<!-- configuration&#45;modules&#45;core#1296 -->
<g id="node30" class="node"><title>configuration-modules-core#1296</title>
<a xlink:href="https://github.com/quattor/configuration-modules-core/issues/1296" xlink:title="ncm-network: Returns an error when an interface is configured as IPv6 only" target="_parent">
<ellipse fill="#bd2c00" stroke="black" cx="432" cy="-1397" rx="121.122" ry="38.1838"/>
<text text-anchor="middle" x="432" y="-1401" font-family="Sans" font-size="10.00">issue</text>
<text text-anchor="middle" x="432" y="-1388" font-family="Sans" font-size="10.00">configuration-modules-core#1296</text>
</a>
</g>
<!-- configuration&#45;modules&#45;core#1308&#45;&gt;configuration&#45;modules&#45;core#1296 -->
<g id="edge22" class="edge"><title>configuration-modules-core#1308-&gt;configuration-modules-core#1296</title>
<path fill="none" stroke="black" stroke-width="2" d="M204.217,-1397C233.916,-1397 267.888,-1397 300.372,-1397"/>
<polygon fill="black" stroke="black" points="300.399,-1400.5 310.399,-1397 300.399,-1393.5 300.399,-1400.5"/>
<text text-anchor="middle" x="273" y="-1401" font-family="Sans" font-size="10.00">fixes</text>
</g>
<!-- configuration&#45;modules&#45;core#1299 -->
<g id="node31" class="node"><title>configuration-modules-core#1299</title>
<a xlink:href="https://github.com/quattor/configuration-modules-core/pull/1299" xlink:title="ncm-sysconfig: Quote values" target="_parent">
<polygon fill="#6cc644" stroke="black" points="204,-1330 32,-1330 32,-1276 204,-1276 204,-1330"/>
<text text-anchor="middle" x="118" y="-1307" font-family="Sans" font-size="10.00">pull-request</text>
<text text-anchor="middle" x="118" y="-1294" font-family="Sans" font-size="10.00">configuration-modules-core#1299</text>
</a>
</g>
<!-- configuration&#45;modules&#45;core#1191 -->
<g id="node33" class="node"><title>configuration-modules-core#1191</title>
<a xlink:href="https://github.com/quattor/configuration-modules-core/issues/1191" xlink:title="ncm-sysconfig: Values should be quoted" target="_parent">
<ellipse fill="#6cc644" stroke="black" cx="432" cy="-1303" rx="121.122" ry="38.1838"/>
<text text-anchor="middle" x="432" y="-1307" font-family="Sans" font-size="10.00">issue</text>
<text text-anchor="middle" x="432" y="-1294" font-family="Sans" font-size="10.00">configuration-modules-core#1191</text>
</a>
</g>
<!-- configuration&#45;modules&#45;core#1299&#45;&gt;configuration&#45;modules&#45;core#1191 -->
<g id="edge24" class="edge"><title>configuration-modules-core#1299-&gt;configuration-modules-core#1191</title>
<path fill="none" stroke="black" stroke-width="2" d="M204.217,-1303C233.916,-1303 267.888,-1303 300.372,-1303"/>
<polygon fill="black" stroke="black" points="300.399,-1306.5 310.399,-1303 300.399,-1299.5 300.399,-1306.5"/>
<text text-anchor="middle" x="273" y="-1307" font-family="Sans" font-size="10.00">fixes</text>
</g>
<!-- configuration&#45;modules&#45;core#1279 -->
<g id="node34" class="node"><title>configuration-modules-core#1279</title>
<a xlink:href="https://github.com/quattor/configuration-modules-core/pull/1279" xlink:title="ncm-metaconfig: ganeshav2 add include" target="_parent">
<polygon fill="#6e5494" stroke="black" points="204,-1236 32,-1236 32,-1182 204,-1182 204,-1236"/>
<text text-anchor="middle" x="118" y="-1213" font-family="Sans" font-size="10.00">pull-request</text>
<text text-anchor="middle" x="118" y="-1200" font-family="Sans" font-size="10.00">configuration-modules-core#1279</text>
</a>
</g>
<!-- configuration&#45;modules&#45;core#1276 -->
<g id="node36" class="node"><title>configuration-modules-core#1276</title>
<a xlink:href="https://github.com/quattor/configuration-modules-core/issues/1276" xlink:title="ncm-metaconfig: Ganesha v2 %include option is missing" target="_parent">
<ellipse fill="#bd2c00" stroke="black" cx="432" cy="-1209" rx="121.122" ry="38.1838"/>
<text text-anchor="middle" x="432" y="-1213" font-family="Sans" font-size="10.00">issue</text>
<text text-anchor="middle" x="432" y="-1200" font-family="Sans" font-size="10.00">configuration-modules-core#1276</text>
</a>
</g>
<!-- configuration&#45;modules&#45;core#1279&#45;&gt;configuration&#45;modules&#45;core#1276 -->
<g id="edge26" class="edge"><title>configuration-modules-core#1279-&gt;configuration-modules-core#1276</title>
<path fill="none" stroke="black" stroke-width="2" d="M204.217,-1209C233.916,-1209 267.888,-1209 300.372,-1209"/>
<polygon fill="black" stroke="black" points="300.399,-1212.5 310.399,-1209 300.399,-1205.5 300.399,-1212.5"/>
<text text-anchor="middle" x="273" y="-1213" font-family="Sans" font-size="10.00">fixes</text>
</g>
<!-- configuration&#45;modules&#45;core#1261 -->
<g id="node37" class="node"><title>configuration-modules-core#1261</title>
<a xlink:href="https://github.com/quattor/configuration-modules-core/pull/1261" xlink:title="[WIP] ncm-openstack: Include ovs and storage support" target="_parent">
<polygon fill="#6cc644" stroke="black" points="204,-1094 32,-1094 32,-1040 204,-1040 204,-1094"/>
<text text-anchor="middle" x="118" y="-1071" font-family="Sans" font-size="10.00">pull-request</text>
<text text-anchor="middle" x="118" y="-1058" font-family="Sans" font-size="10.00">configuration-modules-core#1261</text>
</a>
</g>
<!-- configuration&#45;modules&#45;core#1310 -->
<g id="node39" class="node"><title>configuration-modules-core#1310</title>
<a xlink:href="https://github.com/quattor/configuration-modules-core/issues/1310" xlink:title="ncm-openstack: add Heat service support" target="_parent">
<ellipse fill="#6cc644" stroke="black" cx="432" cy="-1021" rx="121.122" ry="38.1838"/>
<text text-anchor="middle" x="432" y="-1025" font-family="Sans" font-size="10.00">issue</text>
<text text-anchor="middle" x="432" y="-1012" font-family="Sans" font-size="10.00">configuration-modules-core#1310</text>
</a>
</g>
<!-- configuration&#45;modules&#45;core#1261&#45;&gt;configuration&#45;modules&#45;core#1310 -->
<g id="edge28" class="edge"><title>configuration-modules-core#1261-&gt;configuration-modules-core#1310</title>
<path fill="none" stroke="black" stroke-width="2" d="M204.217,-1054.37C237.408,-1049.51 275.936,-1043.86 311.76,-1038.61"/>
<polygon fill="black" stroke="black" points="312.398,-1042.06 321.785,-1037.15 311.383,-1035.13 312.398,-1042.06"/>
<text text-anchor="middle" x="273" y="-1051" font-family="Sans" font-size="10.00">fixes</text>
</g>
<!-- configuration&#45;modules&#45;core#1315 -->
<g id="node41" class="node"><title>configuration-modules-core#1315</title>
<a xlink:href="https://github.com/quattor/configuration-modules-core/issues/1315" xlink:title="ncm-openstack: add murano service support" target="_parent">
<ellipse fill="#6cc644" stroke="black" cx="432" cy="-1115" rx="121.122" ry="38.1838"/>
<text text-anchor="middle" x="432" y="-1119" font-family="Sans" font-size="10.00">issue</text>
<text text-anchor="middle" x="432" y="-1106" font-family="Sans" font-size="10.00">configuration-modules-core#1315</text>
</a>
</g>
<!-- configuration&#45;modules&#45;core#1261&#45;&gt;configuration&#45;modules&#45;core#1315 -->
<g id="edge30" class="edge"><title>configuration-modules-core#1261-&gt;configuration-modules-core#1315</title>
<path fill="none" stroke="black" stroke-width="2" d="M204.217,-1080.18C237.657,-1085.29 276.515,-1091.23 312.565,-1096.74"/>
<polygon fill="black" stroke="black" points="312.238,-1100.23 322.652,-1098.28 313.296,-1093.31 312.238,-1100.23"/>
<text text-anchor="middle" x="273" y="-1097" font-family="Sans" font-size="10.00">fixes</text>
</g>
<!-- configuration&#45;modules&#45;core#1255 -->
<g id="node42" class="node"><title>configuration-modules-core#1255</title>
<a xlink:href="https://github.com/quattor/configuration-modules-core/pull/1255" xlink:title=" ncm-metaconfig: add irods config files" target="_parent">
<polygon fill="#6cc644" stroke="black" points="204,-423 32,-423 32,-369 204,-369 204,-423"/>
<text text-anchor="middle" x="118" y="-400" font-family="Sans" font-size="10.00">pull-request</text>
<text text-anchor="middle" x="118" y="-387" font-family="Sans" font-size="10.00">configuration-modules-core#1255</text>
</a>
</g>
<!-- configuration&#45;modules&#45;core#1255&#45;&gt;CCM#186 -->
<g id="edge34" class="edge"><title>configuration-modules-core#1255-&gt;CCM#186</title>
<path fill="none" stroke="black" stroke-dasharray="5,2" d="M204.217,-396C261.388,-396 334.397,-396 382.136,-396"/>
<polygon fill="none" stroke="black" points="382.221,-399.5 392.22,-396 382.22,-392.5 382.221,-399.5"/>
<text text-anchor="middle" x="273" y="-400" font-family="Sans" font-size="10.00">requires</text>
</g>
<!-- configuration&#45;modules&#45;core#1255&#45;&gt;CAF#265 -->
<g id="edge32" class="edge"><title>configuration-modules-core#1255-&gt;CAF#265</title>
<path fill="none" stroke="black" stroke-dasharray="5,2" d="M138.576,-368.931C170.314,-329.682 235.408,-258.648 310,-231 415.018,-192.075 452.246,-208.682 562,-231 580.506,-234.763 599.843,-242.109 616.466,-249.62"/>
<polygon fill="none" stroke="black" points="615.371,-252.971 625.913,-254.035 618.335,-246.63 615.371,-252.971"/>
<text text-anchor="middle" x="432" y="-235" font-family="Sans" font-size="10.00">requires</text>
</g>
<!-- configuration&#45;modules&#45;core#1148 -->
<g id="node45" class="node"><title>configuration-modules-core#1148</title>
<a xlink:href="https://github.com/quattor/configuration-modules-core/pull/1148" xlink:title="ncm-spma: Remove support from groups from spma yumng backend" target="_parent">
<polygon fill="#6cc644" stroke="black" points="204,-1887 32,-1887 32,-1833 204,-1833 204,-1887"/>
<text text-anchor="middle" x="118" y="-1864" font-family="Sans" font-size="10.00">pull-request</text>
<text text-anchor="middle" x="118" y="-1851" font-family="Sans" font-size="10.00">configuration-modules-core#1148</text>
</a>
</g>
<!-- configuration&#45;modules&#45;core#952 -->
<g id="node47" class="node"><title>configuration-modules-core#952</title>
<a xlink:href="https://github.com/quattor/configuration-modules-core/issues/952" xlink:title="ncm-spma (yumng): Remove support for package groups" target="_parent">
<ellipse fill="#6cc644" stroke="black" cx="432" cy="-1860" rx="118.087" ry="38.1838"/>
<text text-anchor="middle" x="432" y="-1864" font-family="Sans" font-size="10.00">issue</text>
<text text-anchor="middle" x="432" y="-1851" font-family="Sans" font-size="10.00">configuration-modules-core#952</text>
</a>
</g>
<!-- configuration&#45;modules&#45;core#1148&#45;&gt;configuration&#45;modules&#45;core#952 -->
<g id="edge36" class="edge"><title>configuration-modules-core#1148-&gt;configuration-modules-core#952</title>
<path fill="none" stroke="black" stroke-width="2" d="M204.217,-1860C234.903,-1860 270.151,-1860 303.606,-1860"/>
<polygon fill="black" stroke="black" points="303.924,-1863.5 313.924,-1860 303.924,-1856.5 303.924,-1863.5"/>
<text text-anchor="middle" x="273" y="-1864" font-family="Sans" font-size="10.00">fixes</text>
</g>
<!-- configuration&#45;modules&#45;core#950 -->
<g id="node48" class="node"><title>configuration-modules-core#950</title>
<a xlink:href="https://github.com/quattor/configuration-modules-core/issues/950" xlink:title="ncm-spma: Remove support for package groups from yum backends" target="_parent">
<ellipse fill="#6cc644" stroke="black" cx="118" cy="-1775" rx="118.087" ry="38.1838"/>
<text text-anchor="middle" x="118" y="-1779" font-family="Sans" font-size="10.00">issue</text>
<text text-anchor="middle" x="118" y="-1766" font-family="Sans" font-size="10.00">configuration-modules-core#950</text>
</a>
</g>
<!-- configuration&#45;modules&#45;core#950&#45;&gt;configuration&#45;modules&#45;core#952 -->
<g id="edge40" class="edge"><title>configuration-modules-core#950-&gt;configuration-modules-core#952</title>
<path fill="none" stroke="black" stroke-dasharray="5,2" d="M208.401,-1799.47C246.98,-1809.92 292.147,-1822.14 331.747,-1832.86"/>
<polygon fill="none" stroke="black" points="330.855,-1836.25 341.422,-1835.48 332.684,-1829.49 330.855,-1836.25"/>
<text text-anchor="middle" x="273" y="-1825" font-family="Sans" font-size="10.00">requires</text>
</g>
<!-- configuration&#45;modules&#45;core#951 -->
<g id="node50" class="node"><title>configuration-modules-core#951</title>
<a xlink:href="https://github.com/quattor/configuration-modules-core/issues/951" xlink:title="ncm-spma (yum): Remove support for package groups" target="_parent">
<ellipse fill="#6cc644" stroke="black" cx="432" cy="-1766" rx="118.087" ry="38.1838"/>
<text text-anchor="middle" x="432" y="-1770" font-family="Sans" font-size="10.00">issue</text>
<text text-anchor="middle" x="432" y="-1757" font-family="Sans" font-size="10.00">configuration-modules-core#951</text>
</a>
</g>
<!-- configuration&#45;modules&#45;core#950&#45;&gt;configuration&#45;modules&#45;core#951 -->
<g id="edge38" class="edge"><title>configuration-modules-core#950-&gt;configuration-modules-core#951</title>
<path fill="none" stroke="black" stroke-dasharray="5,2" d="M235.815,-1771.62C258.074,-1770.99 281.456,-1770.31 304.01,-1769.67"/>
<polygon fill="none" stroke="black" points="304.412,-1773.16 314.308,-1769.37 304.212,-1766.16 304.412,-1773.16"/>
<text text-anchor="middle" x="273" y="-1776" font-family="Sans" font-size="10.00">requires</text>
</g>
<!-- ncm&#45;lib&#45;blockdevices#91 -->
<g id="node52" class="node"><title>ncm-lib-blockdevices#91</title>
<a xlink:href="https://github.com/quattor/ncm-lib-blockdevices/pull/91" xlink:title="Filesystem.pm: add option -f to mkfs.xfs" target="_parent">
<polygon fill="#6e5494" stroke="black" points="186,-954 50,-954 50,-900 186,-900 186,-954"/>
<text text-anchor="middle" x="118" y="-931" font-family="Sans" font-size="10.00">pull-request</text>
<text text-anchor="middle" x="118" y="-918" font-family="Sans" font-size="10.00">ncm-lib-blockdevices#91</text>
</a>
</g>
<!-- ncm&#45;lib&#45;blockdevices#90 -->
<g id="node54" class="node"><title>ncm-lib-blockdevices#90</title>
<a xlink:href="https://github.com/quattor/ncm-lib-blockdevices/issues/90" xlink:title="Filesystem: mkfs.xfs should be used with -f" target="_parent">
<ellipse fill="#bd2c00" stroke="black" cx="432" cy="-927" rx="96.1665" ry="38.1838"/>
<text text-anchor="middle" x="432" y="-931" font-family="Sans" font-size="10.00">issue</text>
<text text-anchor="middle" x="432" y="-918" font-family="Sans" font-size="10.00">ncm-lib-blockdevices#90</text>
</a>
</g>
<!-- ncm&#45;lib&#45;blockdevices#91&#45;&gt;ncm&#45;lib&#45;blockdevices#90 -->
<g id="edge42" class="edge"><title>ncm-lib-blockdevices#91-&gt;ncm-lib-blockdevices#90</title>
<path fill="none" stroke="black" stroke-width="2" d="M186.133,-927C226.883,-927 279.543,-927 325.667,-927"/>
<polygon fill="black" stroke="black" points="325.708,-930.5 335.708,-927 325.708,-923.5 325.708,-930.5"/>
<text text-anchor="middle" x="273" y="-931" font-family="Sans" font-size="10.00">fixes</text>
</g>
<!-- ncm&#45;ncd#117 -->
<g id="node55" class="node"><title>ncm-ncd#117</title>
<a xlink:href="https://github.com/quattor/ncm-ncd/pull/117" xlink:title="Allow component modules to be loaded from any path" target="_parent">
<polygon fill="#6cc644" stroke="black" points="161,-860 75,-860 75,-806 161,-806 161,-860"/>
<text text-anchor="middle" x="118" y="-837" font-family="Sans" font-size="10.00">pull-request</text>
<text text-anchor="middle" x="118" y="-824" font-family="Sans" font-size="10.00">ncm-ncd#117</text>
</a>
</g>
<!-- ncm&#45;ncd#116 -->
<g id="node57" class="node"><title>ncm-ncd#116</title>
<a xlink:href="https://github.com/quattor/ncm-ncd/issues/116" xlink:title="hasFile() prevents component modules from being relocated" target="_parent">
<ellipse fill="#6cc644" stroke="black" cx="432" cy="-833" rx="61.0181" ry="38.1838"/>
<text text-anchor="middle" x="432" y="-837" font-family="Sans" font-size="10.00">issue</text>
<text text-anchor="middle" x="432" y="-824" font-family="Sans" font-size="10.00">ncm-ncd#116</text>
</a>
</g>
<!-- ncm&#45;ncd#117&#45;&gt;ncm&#45;ncd#116 -->
<g id="edge44" class="edge"><title>ncm-ncd#117-&gt;ncm-ncd#116</title>
<path fill="none" stroke="black" stroke-width="2" d="M161.66,-833C212.954,-833 298.809,-833 360.001,-833"/>
<polygon fill="black" stroke="black" points="360.362,-836.5 370.362,-833 360.362,-829.5 360.362,-836.5"/>
<text text-anchor="middle" x="273" y="-837" font-family="Sans" font-size="10.00">fixes</text>
</g>
<!-- template&#45;library&#45;core#187 -->
<g id="node58" class="node"><title>template-library-core#187</title>
<a xlink:href="https://github.com/quattor/template-library-core/pull/187" xlink:title="pan/types: fix incorrect regexp for linux_capability" target="_parent">
<polygon fill="#6e5494" stroke="black" points="187,-766 49,-766 49,-712 187,-712 187,-766"/>
<text text-anchor="middle" x="118" y="-743" font-family="Sans" font-size="10.00">pull-request</text>
<text text-anchor="middle" x="118" y="-730" font-family="Sans" font-size="10.00">template-library-core#187</text>
</a>
</g>
<!-- template&#45;library&#45;core#186 -->
<g id="node60" class="node"><title>template-library-core#186</title>
<a xlink:href="https://github.com/quattor/template-library-core/issues/186" xlink:title="18.6.0: linux_capability type regexp incorrect" target="_parent">
<ellipse fill="#bd2c00" stroke="black" cx="432" cy="-739" rx="97.0803" ry="38.1838"/>
<text text-anchor="middle" x="432" y="-743" font-family="Sans" font-size="10.00">issue</text>
<text text-anchor="middle" x="432" y="-730" font-family="Sans" font-size="10.00">template-library-core#186</text>
</a>
</g>
<!-- template&#45;library&#45;core#187&#45;&gt;template&#45;library&#45;core#186 -->
<g id="edge46" class="edge"><title>template-library-core#187-&gt;template-library-core#186</title>
<path fill="none" stroke="black" stroke-width="2" d="M187.297,-739C227.427,-739 278.812,-739 324.125,-739"/>
<polygon fill="black" stroke="black" points="324.295,-742.5 334.295,-739 324.295,-735.5 324.295,-742.5"/>
<text text-anchor="middle" x="273" y="-743" font-family="Sans" font-size="10.00">fixes</text>
</g>
<!-- template&#45;library&#45;grid#215 -->
<g id="node61" class="node"><title>template-library-grid#215</title>
<a xlink:href="https://github.com/quattor/template-library-grid/pull/215" xlink:title="Committing changes running in production at GRIF" target="_parent">
<polygon fill="#6e5494" stroke="black" points="185,-672 51,-672 51,-618 185,-618 185,-672"/>
<text text-anchor="middle" x="118" y="-649" font-family="Sans" font-size="10.00">pull-request</text>
<text text-anchor="middle" x="118" y="-636" font-family="Sans" font-size="10.00">template-library-grid#215</text>
</a>
</g>
<!-- template&#45;library&#45;grid#214 -->
<g id="node63" class="node"><title>template-library-grid#214</title>
<a xlink:href="https://github.com/quattor/template-library-grid/issues/214" xlink:title="features/htcondor/server/groups: voms-clients package renamed" target="_parent">
<ellipse fill="#bd2c00" stroke="black" cx="432" cy="-645" rx="94.9596" ry="38.1838"/>
<text text-anchor="middle" x="432" y="-649" font-family="Sans" font-size="10.00">issue</text>
<text text-anchor="middle" x="432" y="-636" font-family="Sans" font-size="10.00">template-library-grid#214</text>
</a>
</g>
<!-- template&#45;library&#45;grid#215&#45;&gt;template&#45;library&#45;grid#214 -->
<g id="edge48" class="edge"><title>template-library-grid#215-&gt;template-library-grid#214</title>
<path fill="none" stroke="black" stroke-width="2" d="M185.747,-645C226.73,-645 279.863,-645 326.279,-645"/>
<polygon fill="black" stroke="black" points="326.381,-648.5 336.381,-645 326.381,-641.5 326.381,-648.5"/>
<text text-anchor="middle" x="273" y="-649" font-family="Sans" font-size="10.00">fixes</text>
</g>
<!-- aquilon#115 -->
<g id="node64" class="node"><title>aquilon#115</title>
<a xlink:href="https://github.com/quattor/aquilon/pull/115" xlink:title="services: insert service data early in the object template" target="_parent">
<polygon fill="#6cc644" stroke="black" points="158,-2280 78,-2280 78,-2226 158,-2226 158,-2280"/>
<text text-anchor="middle" x="118" y="-2257" font-family="Sans" font-size="10.00">pull-request</text>
<text text-anchor="middle" x="118" y="-2244" font-family="Sans" font-size="10.00">aquilon#115</text>
</a>
</g>
<!-- aquilon#109 -->
<g id="node66" class="node"><title>aquilon#109</title>
<a xlink:href="https://github.com/quattor/aquilon/issues/109" xlink:title="Why service configuration is included so late in the plenary object?" target="_parent">
<ellipse fill="#6cc644" stroke="black" cx="432" cy="-2242" rx="56.0679" ry="38.1838"/>
<text text-anchor="middle" x="432" y="-2246" font-family="Sans" font-size="10.00">issue</text>
<text text-anchor="middle" x="432" y="-2233" font-family="Sans" font-size="10.00">aquilon#109</text>
</a>
</g>
<!-- aquilon#115&#45;&gt;aquilon#109 -->
<g id="edge50" class="edge"><title>aquilon#115-&gt;aquilon#109</title>
<path fill="none" stroke="black" stroke-width="2" d="M158.087,-2251.6C210.318,-2249.77 302.376,-2246.54 365.228,-2244.34"/>
<polygon fill="black" stroke="black" points="365.57,-2247.83 375.441,-2243.98 365.325,-2240.83 365.57,-2247.83"/>
<text text-anchor="middle" x="273" y="-2252" font-family="Sans" font-size="10.00">fixes</text>
</g>
<!-- aquilon#110 -->
<g id="node67" class="node"><title>aquilon#110</title>
<a xlink:href="https://github.com/quattor/aquilon/pull/110" xlink:title="Change site and machine namespace to use continent name" target="_parent">
<polygon fill="#6cc644" stroke="black" points="158,-2136 78,-2136 78,-2082 158,-2082 158,-2136"/>
<text text-anchor="middle" x="118" y="-2113" font-family="Sans" font-size="10.00">pull-request</text>
<text text-anchor="middle" x="118" y="-2100" font-family="Sans" font-size="10.00">aquilon#110</text>
</a>
</g>
<!-- aquilon#104 -->
<g id="node69" class="node"><title>aquilon#104</title>
<a xlink:href="https://github.com/quattor/aquilon/issues/104" xlink:title="1.12.62: location related templates cannot be used" target="_parent">
<ellipse fill="#6cc644" stroke="black" cx="432" cy="-2051" rx="56.0679" ry="38.1838"/>
<text text-anchor="middle" x="432" y="-2055" font-family="Sans" font-size="10.00">issue</text>
<text text-anchor="middle" x="432" y="-2042" font-family="Sans" font-size="10.00">aquilon#104</text>
</a>
</g>
<!-- aquilon#110&#45;&gt;aquilon#104 -->
<g id="edge52" class="edge"><title>aquilon#110-&gt;aquilon#104</title>
<path fill="none" stroke="black" stroke-width="2" d="M158.087,-2101.6C210.866,-2091.85 304.312,-2074.59 367.197,-2062.97"/>
<polygon fill="black" stroke="black" points="368.205,-2066.34 377.403,-2061.08 366.933,-2059.46 368.205,-2066.34"/>
<text text-anchor="middle" x="273" y="-2087" font-family="Sans" font-size="10.00">fixes</text>
</g>
<!-- aquilon#106 -->
<g id="node70" class="node"><title>aquilon#106</title>
<a xlink:href="https://github.com/quattor/aquilon/pull/106" xlink:title="machine plenary templates: allow to use the rack fullname" target="_parent">
<polygon fill="#6cc644" stroke="black" points="158,-2208 78,-2208 78,-2154 158,-2154 158,-2208"/>
<text text-anchor="middle" x="118" y="-2185" font-family="Sans" font-size="10.00">pull-request</text>
<text text-anchor="middle" x="118" y="-2172" font-family="Sans" font-size="10.00">aquilon#106</text>
</a>
</g>
<!-- aquilon#105 -->
<g id="node72" class="node"><title>aquilon#105</title>
<a xlink:href="https://github.com/quattor/aquilon/issues/105" xlink:title="1.12.62: allow to use rack fullname rather than name in machine template namespace" target="_parent">
<ellipse fill="#6cc644" stroke="black" cx="432" cy="-2148" rx="56.0679" ry="38.1838"/>
<text text-anchor="middle" x="432" y="-2152" font-family="Sans" font-size="10.00">issue</text>
<text text-anchor="middle" x="432" y="-2139" font-family="Sans" font-size="10.00">aquilon#105</text>
</a>
</g>
<!-- aquilon#106&#45;&gt;aquilon#105 -->
<g id="edge54" class="edge"><title>aquilon#106-&gt;aquilon#105</title>
<path fill="none" stroke="black" stroke-width="2" d="M158.087,-2176.79C210.475,-2171.28 302.928,-2161.56 365.792,-2154.96"/>
<polygon fill="black" stroke="black" points="366.425,-2158.41 376.004,-2153.88 365.693,-2151.45 366.425,-2158.41"/>
<text text-anchor="middle" x="273" y="-2170" font-family="Sans" font-size="10.00">fixes</text>
</g>
<!-- aquilon#91 -->
<g id="node73" class="node"><title>aquilon#91</title>
<a xlink:href="https://github.com/quattor/aquilon/issues/91" xlink:title="1.12.58: city timezone is not passed to the object template" target="_parent">
<ellipse fill="#6cc644" stroke="black" cx="118" cy="-2026" rx="53.033" ry="38.1838"/>
<text text-anchor="middle" x="118" y="-2030" font-family="Sans" font-size="10.00">issue</text>
<text text-anchor="middle" x="118" y="-2017" font-family="Sans" font-size="10.00">aquilon#91</text>
</a>
</g>
<!-- aquilon#91&#45;&gt;aquilon#104 -->
<g id="edge56" class="edge"><title>aquilon#91-&gt;aquilon#104</title>
<path fill="none" stroke="black" stroke-dasharray="5,2" d="M170.911,-2030.21C224.497,-2034.48 307.527,-2041.09 365.524,-2045.71"/>
<polygon fill="none" stroke="black" points="365.442,-2049.21 375.688,-2046.52 365.998,-2042.23 365.442,-2049.21"/>
<text text-anchor="middle" x="273" y="-2044" font-family="Sans" font-size="10.00">requires</text>
</g>
<!-- aquilon#89 -->
<g id="node75" class="node"><title>aquilon#89</title>
<a xlink:href="https://github.com/quattor/aquilon/pull/89" xlink:title="Broker: pass archetype to the object profile" target="_parent">
<polygon fill="#6cc644" stroke="black" points="157,-1970 79,-1970 79,-1916 157,-1916 157,-1970"/>
<text text-anchor="middle" x="118" y="-1947" font-family="Sans" font-size="10.00">pull-request</text>
<text text-anchor="middle" x="118" y="-1934" font-family="Sans" font-size="10.00">aquilon#89</text>
</a>
</g>
<!-- aquilon#88 -->
<g id="node77" class="node"><title>aquilon#88</title>
<a xlink:href="https://github.com/quattor/aquilon/issues/88" xlink:title="1.12.58: the broker should pass the archetype to the object template" target="_parent">
<ellipse fill="#6cc644" stroke="black" cx="432" cy="-1954" rx="53.033" ry="38.1838"/>
<text text-anchor="middle" x="432" y="-1958" font-family="Sans" font-size="10.00">issue</text>
<text text-anchor="middle" x="432" y="-1945" font-family="Sans" font-size="10.00">aquilon#88</text>
</a>
</g>
<!-- aquilon#89&#45;&gt;aquilon#88 -->
<g id="edge58" class="edge"><title>aquilon#89-&gt;aquilon#88</title>
<path fill="none" stroke="black" stroke-width="2" d="M157.768,-1944.39C210.918,-1946.26 305.713,-1949.58 368.729,-1951.78"/>
<polygon fill="black" stroke="black" points="368.829,-1955.29 378.945,-1952.14 369.074,-1948.29 368.829,-1955.29"/>
<text text-anchor="middle" x="273" y="-1953" font-family="Sans" font-size="10.00">fixes</text>
</g>
</g>
</svg>
