<?xml version="1.0" encoding="UTF-8" standalone="no"?>
<?xml-stylesheet href="relationships.css" type="text/css"?>
<!-- Generated by graphviz version 2.26.0 (20091210.2329)
 -->
<!-- Title: Dependencies Pages: 1 -->
<svg xmlns="http://www.w3.org/2000/svg" xmlns:xlink="http://www.w3.org/1999/xlink" width="1046pt" height="2505pt" viewBox="0.00 0.00 1046.00 2505.00">
<g id="graph1" class="graph" transform="scale(1 1) rotate(0) translate(4 2501)">
<title>Dependencies</title>
<polygon fill="white" stroke="white" points="-4,5 -4,-2501 1043,-2501 1043,5 -4,5"/>
<g id="graph4" class="cluster"><title>cluster_18.6</title>
<polygon fill="none" stroke="black" points="300,-224 300,-1733 1030,-1733 1030,-224 300,-224"/>
<text text-anchor="middle" x="665" y="-1718.2" font-family="Sans" font-size="12.00">18.6</text>
</g>
<!-- aii#284 -->
<g id="node1" class="node"><title>aii#284</title>
<a xlink:href="https://github.com/quattor/aii/pull/284" xlink:title=" pxelinux/ks: support ipdev: use ip configuration from ipdev device" target="_parent">
<polygon fill="#6cc644" stroke="black" points="469,-1701 391,-1701 391,-1647 469,-1647 469,-1701"/>
<text text-anchor="middle" x="430" y="-1678" font-family="Sans" font-size="10.00">pull-request</text>
<text text-anchor="middle" x="430" y="-1665" font-family="Sans" font-size="10.00">aii#284</text>
</a>
</g>
<!-- aii#283 -->
<g id="node3" class="node"><title>aii#283</title>
<a xlink:href="https://github.com/quattor/aii/pull/283" xlink:title="ks: support leavebootorder option" target="_parent">
<polygon fill="#6e5494" stroke="black" points="787,-1701 709,-1701 709,-1647 787,-1647 787,-1701"/>
<text text-anchor="middle" x="748" y="-1678" font-family="Sans" font-size="10.00">pull-request</text>
<text text-anchor="middle" x="748" y="-1665" font-family="Sans" font-size="10.00">aii#283</text>
</a>
</g>
<!-- aii#284&#45;&gt;aii#283 -->
<g id="edge2" class="edge"><title>aii#284-&gt;aii#283</title>
<path fill="none" stroke="black" stroke-dasharray="5,2" d="M469.632,-1674C527.513,-1674 635.13,-1674 698.256,-1674"/>
<polygon fill="none" stroke="black" points="698.369,-1677.5 708.369,-1674 698.369,-1670.5 698.369,-1677.5"/>
<text text-anchor="middle" x="589" y="-1678" font-family="Sans" font-size="10.00">requires</text>
</g>
<!-- aii#281 -->
<g id="node4" class="node"><title>aii#281</title>
<a xlink:href="https://github.com/quattor/aii/pull/281" xlink:title="ks: set useexisting_lv flag for el7" target="_parent">
<polygon fill="#6cc644" stroke="black" points="469,-286 391,-286 391,-232 469,-232 469,-286"/>
<text text-anchor="middle" x="430" y="-263" font-family="Sans" font-size="10.00">pull-request</text>
<text text-anchor="middle" x="430" y="-250" font-family="Sans" font-size="10.00">aii#281</text>
</a>
</g>
<!-- aii#88 -->
<g id="node6" class="node"><title>aii#88</title>
<polygon fill="lightgrey" stroke="black" points="775,-40.5 721,-40.5 721,0.5 775,0.5 775,-40.5"/>
<text text-anchor="middle" x="748" y="-17.5" font-family="Sans" font-size="10.00">aii#88</text>
</g>
<!-- aii#281&#45;&gt;aii#88 -->
<g id="edge4" class="edge"><title>aii#281-&gt;aii#88</title>
<path fill="none" stroke="black" stroke-dasharray="5,2" d="M438.928,-231.983C456.061,-184.805 498.347,-88.1342 570,-43 612.656,-16.1311 672.491,-14.0375 710.753,-16.1354"/>
<polygon fill="none" stroke="black" points="710.729,-19.6416 720.941,-16.8212 711.199,-12.6574 710.729,-19.6416"/>
<text text-anchor="middle" x="589" y="-47" font-family="Sans" font-size="10.00">requires</text>
</g>
<!-- aii#280 -->
<g id="node7" class="node"><title>aii#280</title>
<a xlink:href="https://github.com/quattor/aii/pull/280" xlink:title="Support active configuration attribute for plugins" target="_parent">
<polygon fill="#6cc644" stroke="black" points="469,-358 391,-358 391,-304 469,-304 469,-358"/>
<text text-anchor="middle" x="430" y="-335" font-family="Sans" font-size="10.00">pull-request</text>
<text text-anchor="middle" x="430" y="-322" font-family="Sans" font-size="10.00">aii#280</text>
</a>
</g>
<!-- aii#209 -->
<g id="node9" class="node"><title>aii#209</title>
<a xlink:href="https://github.com/quattor/aii/issues/209" xlink:title="support ACTIVE_CONFIG" target="_parent">
<ellipse fill="#6cc644" stroke="black" cx="748" cy="-342" rx="41.2167" ry="38.1838"/>
<text text-anchor="middle" x="748" y="-346" font-family="Sans" font-size="10.00">issue</text>
<text text-anchor="middle" x="748" y="-333" font-family="Sans" font-size="10.00">aii#209</text>
</a>
</g>
<!-- aii#280&#45;&gt;aii#209 -->
<g id="edge6" class="edge"><title>aii#280-&gt;aii#209</title>
<path fill="none" stroke="black" stroke-width="2" d="M469.632,-332.371C526.883,-334.351 632.79,-338.015 696.177,-340.207"/>
<polygon fill="black" stroke="black" points="696.237,-343.711 706.352,-340.559 696.479,-336.716 696.237,-343.711"/>
<text text-anchor="middle" x="589" y="-341" font-family="Sans" font-size="10.00">fixes</text>
</g>
<!-- ncm&#45;ncd#74 -->
<g id="node11" class="node"><title>ncm-ncd#74</title>
<a xlink:href="https://github.com/quattor/ncm-ncd/pull/74" xlink:title="Set the current active config as an attribute to the component" target="_parent">
<polygon fill="#6cc644" stroke="black" points="789,-286 707,-286 707,-232 789,-232 789,-286"/>
<text text-anchor="middle" x="748" y="-263" font-family="Sans" font-size="10.00">pull-request</text>
<text text-anchor="middle" x="748" y="-250" font-family="Sans" font-size="10.00">ncm-ncd#74</text>
</a>
</g>
<!-- aii#280&#45;&gt;ncm&#45;ncd#74 -->
<g id="edge8" class="edge"><title>aii#280-&gt;ncm-ncd#74</title>
<path fill="none" stroke="black" stroke-dasharray="5,2" d="M469.632,-322.027C527.159,-309.002 633.813,-284.854 697.091,-270.527"/>
<polygon fill="none" stroke="black" points="697.88,-273.937 706.86,-268.315 696.334,-267.109 697.88,-273.937"/>
<text text-anchor="middle" x="589" y="-302" font-family="Sans" font-size="10.00">requires</text>
</g>
<!-- aii#203 -->
<g id="node13" class="node"><title>aii#203</title>
<polygon fill="lightgrey" stroke="black" points="777,-156.5 719,-156.5 719,-115.5 777,-115.5 777,-156.5"/>
<text text-anchor="middle" x="748" y="-133.5" font-family="Sans" font-size="10.00">aii#203</text>
</g>
<!-- aii#280&#45;&gt;aii#203 -->
<g id="edge10" class="edge"><title>aii#280-&gt;aii#203</title>
<path fill="none" stroke="black" stroke-dasharray="5,2" d="M469.775,-330.025C497.051,-327.117 531.829,-318.576 552,-295 591.638,-248.671 526.82,-202.047 570,-159 605.83,-123.281 667.813,-123.619 708.361,-128.645"/>
<polygon fill="none" stroke="black" points="708.045,-132.134 718.432,-130.043 709.008,-125.201 708.045,-132.134"/>
<text text-anchor="middle" x="589" y="-163" font-family="Sans" font-size="10.00">requires</text>
</g>
<!-- aii#210 -->
<g id="node15" class="node"><title>aii#210</title>
<polygon fill="lightgrey" stroke="black" points="777,-98.5 719,-98.5 719,-57.5 777,-57.5 777,-98.5"/>
<text text-anchor="middle" x="748" y="-75.5" font-family="Sans" font-size="10.00">aii#210</text>
</g>
<!-- aii#280&#45;&gt;aii#210 -->
<g id="edge12" class="edge"><title>aii#280-&gt;aii#210</title>
<path fill="none" stroke="black" stroke-dasharray="1,5" d="M469.694,-330.233C497.114,-327.44 532.104,-318.952 552,-295 601.961,-234.856 518.398,-178.742 570,-120 604.121,-81.1589 666.846,-74.7358 707.986,-75.2055"/>
<polygon fill="black" stroke="black" points="718.205,-75.468 708.093,-79.7096 713.207,-75.3395 708.209,-75.2111 708.209,-75.2111 708.209,-75.2111 713.207,-75.3395 708.324,-70.7126 718.205,-75.468 718.205,-75.468"/>
<text text-anchor="middle" x="589" y="-124" font-family="Sans" font-size="10.00">replaces</text>
</g>
<!-- CAF#257 -->
<g id="node16" class="node"><title>CAF#257</title>
<a xlink:href="https://github.com/quattor/CAF/pull/257" xlink:title="Process: run process as another user" target="_parent">
<polygon fill="#6cc644" stroke="black" points="469,-1618 391,-1618 391,-1564 469,-1564 469,-1618"/>
<text text-anchor="middle" x="430" y="-1595" font-family="Sans" font-size="10.00">pull-request</text>
<text text-anchor="middle" x="430" y="-1582" font-family="Sans" font-size="10.00">CAF#257</text>
</a>
</g>
<!-- CAF#253 -->
<g id="node18" class="node"><title>CAF#253</title>
<a xlink:href="https://github.com/quattor/CAF/issues/253" xlink:title="CAF::Process: Include an option to execute the command as an specific user" target="_parent">
<ellipse fill="#6cc644" stroke="black" cx="748" cy="-1591" rx="48.9975" ry="38.1838"/>
<text text-anchor="middle" x="748" y="-1595" font-family="Sans" font-size="10.00">issue</text>
<text text-anchor="middle" x="748" y="-1582" font-family="Sans" font-size="10.00">CAF#253</text>
</a>
</g>
<!-- CAF#257&#45;&gt;CAF#253 -->
<g id="edge14" class="edge"><title>CAF#257-&gt;CAF#253</title>
<path fill="none" stroke="black" stroke-width="2" d="M469.632,-1591C524.517,-1591 624.121,-1591 688.107,-1591"/>
<polygon fill="black" stroke="black" points="688.449,-1594.5 698.449,-1591 688.449,-1587.5 688.449,-1594.5"/>
<text text-anchor="middle" x="589" y="-1595" font-family="Sans" font-size="10.00">fixes</text>
</g>
<!-- CAF#110 -->
<g id="node19" class="node"><title>CAF#110</title>
<a xlink:href="https://github.com/quattor/CAF/pull/110" xlink:title="CAF::Download class: API proposal" target="_parent">
<polygon fill="#6cc644" stroke="black" points="157,-1788 79,-1788 79,-1734 157,-1734 157,-1788"/>
<text text-anchor="middle" x="118" y="-1765" font-family="Sans" font-size="10.00">pull-request</text>
<text text-anchor="middle" x="118" y="-1752" font-family="Sans" font-size="10.00">CAF#110</text>
</a>
</g>
<!-- CAF#120 -->
<g id="node21" class="node"><title>CAF#120</title>
<polygon fill="lightgrey" stroke="black" points="465,-1781.5 395,-1781.5 395,-1740.5 465,-1740.5 465,-1781.5"/>
<text text-anchor="middle" x="430" y="-1758.5" font-family="Sans" font-size="10.00">CAF#120</text>
</g>
<!-- CAF#110&#45;&gt;CAF#120 -->
<g id="edge16" class="edge"><title>CAF#110-&gt;CAF#120</title>
<path fill="none" stroke="black" stroke-dasharray="5,2" d="M157.515,-1761C215.488,-1761 323.324,-1761 384.517,-1761"/>
<polygon fill="none" stroke="black" points="384.651,-1764.5 394.651,-1761 384.651,-1757.5 384.651,-1764.5"/>
<text text-anchor="middle" x="272" y="-1765" font-family="Sans" font-size="10.00">requires</text>
</g>
<!-- CCM#186 -->
<g id="node22" class="node"><title>CCM#186</title>
<a xlink:href="https://github.com/quattor/CCM/pull/186" xlink:title="TextRender: add support for jsonpretty type" target="_parent">
<polygon fill="#6cc644" stroke="black" points="787,-1441 709,-1441 709,-1387 787,-1387 787,-1441"/>
<text text-anchor="middle" x="748" y="-1418" font-family="Sans" font-size="10.00">pull-request</text>
<text text-anchor="middle" x="748" y="-1405" font-family="Sans" font-size="10.00">CCM#186</text>
</a>
</g>
<!-- CAF#265 -->
<g id="node24" class="node"><title>CAF#265</title>
<a xlink:href="https://github.com/quattor/CAF/pull/265" xlink:title="TextRender: add jsonpretty module" target="_parent">
<polygon fill="#6cc644" stroke="black" points="1021,-1403 943,-1403 943,-1349 1021,-1349 1021,-1403"/>
<text text-anchor="middle" x="982" y="-1380" font-family="Sans" font-size="10.00">pull-request</text>
<text text-anchor="middle" x="982" y="-1367" font-family="Sans" font-size="10.00">CAF#265</text>
</a>
</g>
<!-- CCM#186&#45;&gt;CAF#265 -->
<g id="edge18" class="edge"><title>CCM#186-&gt;CAF#265</title>
<path fill="none" stroke="black" stroke-dasharray="5,2" d="M787.695,-1407.55C827.531,-1401.08 889.008,-1391.1 932.117,-1384.1"/>
<polygon fill="none" stroke="black" points="932.801,-1387.54 942.11,-1382.48 931.679,-1380.63 932.801,-1387.54"/>
<text text-anchor="middle" x="906" y="-1394" font-family="Sans" font-size="10.00">requires</text>
</g>
<!-- configuration&#45;modules&#45;core#1282 -->
<g id="node25" class="node"><title>configuration-modules-core#1282</title>
<a xlink:href="https://github.com/quattor/configuration-modules-core/pull/1282" xlink:title="ncm-cron: fix test of /system/archetype/os" target="_parent">
<polygon fill="#6e5494" stroke="black" points="516,-1524 344,-1524 344,-1470 516,-1470 516,-1524"/>
<text text-anchor="middle" x="430" y="-1501" font-family="Sans" font-size="10.00">pull-request</text>
<text text-anchor="middle" x="430" y="-1488" font-family="Sans" font-size="10.00">configuration-modules-core#1282</text>
</a>
</g>
<!-- configuration&#45;modules&#45;core#1281 -->
<g id="node27" class="node"><title>configuration-modules-core#1281</title>
<a xlink:href="https://github.com/quattor/configuration-modules-core/issues/1281" xlink:title="ncm-cron 18.3.0: invalid /system/archetype/os test" target="_parent">
<ellipse fill="#bd2c00" stroke="black" cx="748" cy="-1497" rx="121.122" ry="38.1838"/>
<text text-anchor="middle" x="748" y="-1501" font-family="Sans" font-size="10.00">issue</text>
<text text-anchor="middle" x="748" y="-1488" font-family="Sans" font-size="10.00">configuration-modules-core#1281</text>
</a>
</g>
<!-- configuration&#45;modules&#45;core#1282&#45;&gt;configuration&#45;modules&#45;core#1281 -->
<g id="edge20" class="edge"><title>configuration-modules-core#1282-&gt;configuration-modules-core#1281</title>
<path fill="none" stroke="black" stroke-width="2" d="M516.055,-1497C546.811,-1497 582.215,-1497 615.951,-1497"/>
<polygon fill="black" stroke="black" points="616.361,-1500.5 626.361,-1497 616.361,-1493.5 616.361,-1500.5"/>
<text text-anchor="middle" x="589" y="-1501" font-family="Sans" font-size="10.00">fixes</text>
</g>
<!-- configuration&#45;modules&#45;core#1255 -->
<g id="node28" class="node"><title>configuration-modules-core#1255</title>
<a xlink:href="https://github.com/quattor/configuration-modules-core/pull/1255" xlink:title=" ncm-metaconfig: add irods config files" target="_parent">
<polygon fill="#6cc644" stroke="black" points="516,-1403 344,-1403 344,-1349 516,-1349 516,-1403"/>
<text text-anchor="middle" x="430" y="-1380" font-family="Sans" font-size="10.00">pull-request</text>
<text text-anchor="middle" x="430" y="-1367" font-family="Sans" font-size="10.00">configuration-modules-core#1255</text>
</a>
</g>
<!-- configuration&#45;modules&#45;core#1255&#45;&gt;CCM#186 -->
<g id="edge24" class="edge"><title>configuration-modules-core#1255-&gt;CCM#186</title>
<path fill="none" stroke="black" stroke-dasharray="5,2" d="M516.055,-1386.28C574.442,-1393.26 649.583,-1402.24 698.262,-1408.06"/>
<polygon fill="none" stroke="black" points="697.888,-1411.54 708.233,-1409.25 698.719,-1404.59 697.888,-1411.54"/>
<text text-anchor="middle" x="589" y="-1400" font-family="Sans" font-size="10.00">requires</text>
</g>
<!-- configuration&#45;modules&#45;core#1255&#45;&gt;CAF#265 -->
<g id="edge22" class="edge"><title>configuration-modules-core#1255-&gt;CAF#265</title>
<path fill="none" stroke="black" stroke-dasharray="5,2" d="M516.042,-1370.09C604.772,-1364.88 747.123,-1358.98 870,-1365 890.429,-1366 912.879,-1368.02 932.281,-1370.06"/>
<polygon fill="none" stroke="black" points="932.098,-1373.56 942.417,-1371.16 932.851,-1366.6 932.098,-1373.56"/>
<text text-anchor="middle" x="748" y="-1369" font-family="Sans" font-size="10.00">requires</text>
</g>
<!-- configuration&#45;modules&#45;core#1230 -->
<g id="node31" class="node"><title>configuration-modules-core#1230</title>
<a xlink:href="https://github.com/quattor/configuration-modules-core/pull/1230" xlink:title="ncm-ceph: support for luminous, bluestore, ceph-volume and per host osd deployment" target="_parent">
<polygon fill="#6cc644" stroke="black" points="516,-1060 344,-1060 344,-1006 516,-1006 516,-1060"/>
<text text-anchor="middle" x="430" y="-1037" font-family="Sans" font-size="10.00">pull-request</text>
<text text-anchor="middle" x="430" y="-1024" font-family="Sans" font-size="10.00">configuration-modules-core#1230</text>
</a>
</g>
<!-- configuration&#45;modules&#45;core#1224 -->
<g id="node33" class="node"><title>configuration-modules-core#1224</title>
<polygon fill="lightgrey" stroke="black" points="834,-214.5 662,-214.5 662,-173.5 834,-173.5 834,-214.5"/>
<text text-anchor="middle" x="748" y="-191.5" font-family="Sans" font-size="10.00">configuration-modules-core#1224</text>
</g>
<!-- configuration&#45;modules&#45;core#1230&#45;&gt;configuration&#45;modules&#45;core#1224 -->
<g id="edge26" class="edge"><title>configuration-modules-core#1230-&gt;configuration-modules-core#1224</title>
<path fill="none" stroke="black" stroke-dasharray="1,5" d="M446.116,-1005.69C473.838,-957.054 529.715,-851.4 552,-754 563.854,-702.19 548.74,-324.712 570,-276 584.079,-243.74 595.072,-236.803 626,-220 634.191,-215.55 643.078,-211.861 652.193,-208.803"/>
<polygon fill="black" stroke="black" points="661.756,-205.84 653.536,-213.098 656.98,-207.32 652.204,-208.8 652.204,-208.8 652.204,-208.8 656.98,-207.32 650.872,-204.501 661.756,-205.84 661.756,-205.84"/>
<text text-anchor="middle" x="589" y="-280" font-family="Sans" font-size="10.00">replaces</text>
</g>
<!-- configuration&#45;modules&#45;core#740 -->
<g id="node35" class="node"><title>configuration-modules-core#740</title>
<a xlink:href="https://github.com/quattor/configuration-modules-core/issues/740" xlink:title="ncm-ceph: add boolean to disable osd features" target="_parent">
<ellipse fill="#6cc644" stroke="black" cx="748" cy="-1282" rx="118.087" ry="38.1838"/>
<text text-anchor="middle" x="748" y="-1286" font-family="Sans" font-size="10.00">issue</text>
<text text-anchor="middle" x="748" y="-1273" font-family="Sans" font-size="10.00">configuration-modules-core#740</text>
</a>
</g>
<!-- configuration&#45;modules&#45;core#1230&#45;&gt;configuration&#45;modules&#45;core#740 -->
<g id="edge28" class="edge"><title>configuration-modules-core#1230-&gt;configuration-modules-core#740</title>
<path fill="none" stroke="black" stroke-width="2" d="M449.992,-1060.18C482.556,-1102.76 550.995,-1185.42 626,-1235 634.916,-1240.89 644.679,-1246.21 654.676,-1250.96"/>
<polygon fill="black" stroke="black" points="653.355,-1254.2 663.906,-1255.16 656.257,-1247.83 653.355,-1254.2"/>
<text text-anchor="middle" x="589" y="-1225" font-family="Sans" font-size="10.00">fixes</text>
</g>
<!-- configuration&#45;modules&#45;core#741 -->
<g id="node37" class="node"><title>configuration-modules-core#741</title>
<a xlink:href="https://github.com/quattor/configuration-modules-core/issues/741" xlink:title="ncm-ceph: check possibilities to rescale ceph in Jewel" target="_parent">
<ellipse fill="#6cc644" stroke="black" cx="748" cy="-906" rx="118.087" ry="38.1838"/>
<text text-anchor="middle" x="748" y="-910" font-family="Sans" font-size="10.00">issue</text>
<text text-anchor="middle" x="748" y="-897" font-family="Sans" font-size="10.00">configuration-modules-core#741</text>
</a>
</g>
<!-- configuration&#45;modules&#45;core#1230&#45;&gt;configuration&#45;modules&#45;core#741 -->
<g id="edge30" class="edge"><title>configuration-modules-core#1230-&gt;configuration-modules-core#741</title>
<path fill="none" stroke="black" stroke-width="2" d="M495.65,-1005.83C533.653,-990.189 582.441,-970.278 626,-953 637.654,-948.377 649.958,-943.562 662.09,-938.851"/>
<polygon fill="black" stroke="black" points="663.706,-941.978 671.766,-935.102 661.177,-935.451 663.706,-941.978"/>
<text text-anchor="middle" x="589" y="-978" font-family="Sans" font-size="10.00">fixes</text>
</g>
<!-- configuration&#45;modules&#45;core#742 -->
<g id="node39" class="node"><title>configuration-modules-core#742</title>
<a xlink:href="https://github.com/quattor/configuration-modules-core/issues/742" xlink:title="ncm-ceph: allow control over deploying admin keyrings along with ceph.conf" target="_parent">
<ellipse fill="#6cc644" stroke="black" cx="748" cy="-1000" rx="118.087" ry="38.1838"/>
<text text-anchor="middle" x="748" y="-1004" font-family="Sans" font-size="10.00">issue</text>
<text text-anchor="middle" x="748" y="-991" font-family="Sans" font-size="10.00">configuration-modules-core#742</text>
</a>
</g>
<!-- configuration&#45;modules&#45;core#1230&#45;&gt;configuration&#45;modules&#45;core#742 -->
<g id="edge32" class="edge"><title>configuration-modules-core#1230-&gt;configuration-modules-core#742</title>
<path fill="none" stroke="black" stroke-width="2" d="M516.055,-1024.07C549.682,-1020.58 588.866,-1016.51 625.351,-1012.73"/>
<polygon fill="black" stroke="black" points="625.978,-1016.18 635.563,-1011.67 625.256,-1009.22 625.978,-1016.18"/>
<text text-anchor="middle" x="589" y="-1021" font-family="Sans" font-size="10.00">fixes</text>
</g>
<!-- configuration&#45;modules&#45;core#743 -->
<g id="node41" class="node"><title>configuration-modules-core#743</title>
<a xlink:href="https://github.com/quattor/configuration-modules-core/issues/743" xlink:title="ncm-ceph: check admin keyring is current before running ceph-deploy admin" target="_parent">
<ellipse fill="#6cc644" stroke="black" cx="748" cy="-1094" rx="118.087" ry="38.1838"/>
<text text-anchor="middle" x="748" y="-1098" font-family="Sans" font-size="10.00">issue</text>
<text text-anchor="middle" x="748" y="-1085" font-family="Sans" font-size="10.00">configuration-modules-core#743</text>
</a>
</g>
<!-- configuration&#45;modules&#45;core#1230&#45;&gt;configuration&#45;modules&#45;core#743 -->
<g id="edge34" class="edge"><title>configuration-modules-core#1230-&gt;configuration-modules-core#743</title>
<path fill="none" stroke="black" stroke-width="2" d="M516.055,-1049.51C553.106,-1056.61 596.904,-1065.02 636.405,-1072.59"/>
<polygon fill="black" stroke="black" points="635.868,-1076.05 646.349,-1074.5 637.187,-1069.18 635.868,-1076.05"/>
<text text-anchor="middle" x="589" y="-1069" font-family="Sans" font-size="10.00">fixes</text>
</g>
<!-- configuration&#45;modules&#45;core#776 -->
<g id="node43" class="node"><title>configuration-modules-core#776</title>
<a xlink:href="https://github.com/quattor/configuration-modules-core/issues/776" xlink:title="ncm-ceph: ceph mds stat output redesigned on Jewel" target="_parent">
<ellipse fill="#6cc644" stroke="black" cx="748" cy="-1188" rx="118.087" ry="38.1838"/>
<text text-anchor="middle" x="748" y="-1192" font-family="Sans" font-size="10.00">issue</text>
<text text-anchor="middle" x="748" y="-1179" font-family="Sans" font-size="10.00">configuration-modules-core#776</text>
</a>
</g>
<!-- configuration&#45;modules&#45;core#1230&#45;&gt;configuration&#45;modules&#45;core#776 -->
<g id="edge36" class="edge"><title>configuration-modules-core#1230-&gt;configuration-modules-core#776</title>
<path fill="none" stroke="black" stroke-width="2" d="M475.028,-1060.11C514.18,-1083.12 572.814,-1116.24 626,-1141 636.96,-1146.1 648.64,-1151.12 660.267,-1155.86"/>
<polygon fill="black" stroke="black" points="658.981,-1159.11 669.565,-1159.6 661.594,-1152.62 658.981,-1159.11"/>
<text text-anchor="middle" x="589" y="-1134" font-family="Sans" font-size="10.00">fixes</text>
</g>
<!-- configuration&#45;modules&#45;core#1105 -->
<g id="node44" class="node"><title>configuration-modules-core#1105</title>
<a xlink:href="https://github.com/quattor/configuration-modules-core/pull/1105" xlink:title="ncm-authconfig: fix krb5_realm, user_object_class and newline between ldap_krb5_canonicalize and ldap_krb5_realm" target="_parent">
<polygon fill="#6cc644" stroke="black" points="516,-745 344,-745 344,-691 516,-691 516,-745"/>
<text text-anchor="middle" x="430" y="-722" font-family="Sans" font-size="10.00">pull-request</text>
<text text-anchor="middle" x="430" y="-709" font-family="Sans" font-size="10.00">configuration-modules-core#1105</text>
</a>
</g>
<!-- configuration&#45;modules&#45;core#1100 -->
<g id="node46" class="node"><title>configuration-modules-core#1100</title>
<a xlink:href="https://github.com/quattor/configuration-modules-core/issues/1100" xlink:title="ncm-authconfig : no newline after krb5_canonicalize option" target="_parent">
<ellipse fill="#6cc644" stroke="black" cx="748" cy="-718" rx="121.122" ry="38.1838"/>
<text text-anchor="middle" x="748" y="-722" font-family="Sans" font-size="10.00">issue</text>
<text text-anchor="middle" x="748" y="-709" font-family="Sans" font-size="10.00">configuration-modules-core#1100</text>
</a>
</g>
<!-- configuration&#45;modules&#45;core#1105&#45;&gt;configuration&#45;modules&#45;core#1100 -->
<g id="edge38" class="edge"><title>configuration-modules-core#1105-&gt;configuration-modules-core#1100</title>
<path fill="none" stroke="black" stroke-width="2" d="M516.055,-718C546.811,-718 582.215,-718 615.951,-718"/>
<polygon fill="black" stroke="black" points="616.361,-721.5 626.361,-718 616.361,-714.5 616.361,-721.5"/>
<text text-anchor="middle" x="589" y="-722" font-family="Sans" font-size="10.00">fixes</text>
</g>
<!-- configuration&#45;modules&#45;core#1102 -->
<g id="node48" class="node"><title>configuration-modules-core#1102</title>
<a xlink:href="https://github.com/quattor/configuration-modules-core/issues/1102" xlink:title="ncm-authconfig: There is no " target="_parent">
<ellipse fill="#6cc644" stroke="black" cx="748" cy="-812" rx="121.122" ry="38.1838"/>
<text text-anchor="middle" x="748" y="-816" font-family="Sans" font-size="10.00">issue</text>
<text text-anchor="middle" x="748" y="-803" font-family="Sans" font-size="10.00">configuration-modules-core#1102</text>
</a>
</g>
<!-- configuration&#45;modules&#45;core#1105&#45;&gt;configuration&#45;modules&#45;core#1102 -->
<g id="edge40" class="edge"><title>configuration-modules-core#1105-&gt;configuration-modules-core#1102</title>
<path fill="none" stroke="black" stroke-width="2" d="M516.055,-743.438C557.439,-755.671 607.239,-770.392 650.069,-783.052"/>
<polygon fill="black" stroke="black" points="649.078,-786.409 659.66,-785.887 651.063,-779.696 649.078,-786.409"/>
<text text-anchor="middle" x="589" y="-772" font-family="Sans" font-size="10.00">fixes</text>
</g>
<!-- configuration&#45;modules&#45;core#1103 -->
<g id="node50" class="node"><title>configuration-modules-core#1103</title>
<a xlink:href="https://github.com/quattor/configuration-modules-core/issues/1103" xlink:title="ncm-authconfig: krb5_realm = ARRAY(0x39a5830)" target="_parent">
<ellipse fill="#6cc644" stroke="black" cx="748" cy="-624" rx="121.122" ry="38.1838"/>
<text text-anchor="middle" x="748" y="-628" font-family="Sans" font-size="10.00">issue</text>
<text text-anchor="middle" x="748" y="-615" font-family="Sans" font-size="10.00">configuration-modules-core#1103</text>
</a>
</g>
<!-- configuration&#45;modules&#45;core#1105&#45;&gt;configuration&#45;modules&#45;core#1103 -->
<g id="edge42" class="edge"><title>configuration-modules-core#1105-&gt;configuration-modules-core#1103</title>
<path fill="none" stroke="black" stroke-width="2" d="M516.055,-692.562C557.439,-680.329 607.239,-665.608 650.069,-652.948"/>
<polygon fill="black" stroke="black" points="651.063,-656.304 659.66,-650.113 649.078,-649.591 651.063,-656.304"/>
<text text-anchor="middle" x="589" y="-678" font-family="Sans" font-size="10.00">fixes</text>
</g>
<!-- configuration&#45;modules&#45;core#1279 -->
<g id="node51" class="node"><title>configuration-modules-core#1279</title>
<a xlink:href="https://github.com/quattor/configuration-modules-core/pull/1279" xlink:title="ncm-metaconfig: ganeshav2 add include" target="_parent">
<polygon fill="#6cc644" stroke="black" points="204,-1864 32,-1864 32,-1810 204,-1810 204,-1864"/>
<text text-anchor="middle" x="118" y="-1841" font-family="Sans" font-size="10.00">pull-request</text>
<text text-anchor="middle" x="118" y="-1828" font-family="Sans" font-size="10.00">configuration-modules-core#1279</text>
</a>
</g>
<!-- configuration&#45;modules&#45;core#1276 -->
<g id="node53" class="node"><title>configuration-modules-core#1276</title>
<a xlink:href="https://github.com/quattor/configuration-modules-core/issues/1276" xlink:title="ncm-metaconfig: Ganesha v2 %include option is missing" target="_parent">
<ellipse fill="#6cc644" stroke="black" cx="430" cy="-1837" rx="121.122" ry="38.1838"/>
<text text-anchor="middle" x="430" y="-1841" font-family="Sans" font-size="10.00">issue</text>
<text text-anchor="middle" x="430" y="-1828" font-family="Sans" font-size="10.00">configuration-modules-core#1276</text>
</a>
</g>
<!-- configuration&#45;modules&#45;core#1279&#45;&gt;configuration&#45;modules&#45;core#1276 -->
<g id="edge44" class="edge"><title>configuration-modules-core#1279-&gt;configuration-modules-core#1276</title>
<path fill="none" stroke="black" stroke-width="2" d="M204.081,-1837C233.133,-1837 266.265,-1837 298.034,-1837"/>
<polygon fill="black" stroke="black" points="298.293,-1840.5 308.293,-1837 298.293,-1833.5 298.293,-1840.5"/>
<text text-anchor="middle" x="272" y="-1841" font-family="Sans" font-size="10.00">fixes</text>
</g>
<!-- configuration&#45;modules&#45;core#1278 -->
<g id="node54" class="node"><title>configuration-modules-core#1278</title>
<a xlink:href="https://github.com/quattor/configuration-modules-core/pull/1278" xlink:title="ncm-ssh: schema update for changed AuthorizedKeysCommand* " target="_parent">
<polygon fill="#6cc644" stroke="black" points="204,-441 32,-441 32,-387 204,-387 204,-441"/>
<text text-anchor="middle" x="118" y="-418" font-family="Sans" font-size="10.00">pull-request</text>
<text text-anchor="middle" x="118" y="-405" font-family="Sans" font-size="10.00">configuration-modules-core#1278</text>
</a>
</g>
<!-- configuration&#45;modules&#45;core#1237 -->
<g id="node56" class="node"><title>configuration-modules-core#1237</title>
<a xlink:href="https://github.com/quattor/configuration-modules-core/issues/1237" xlink:title="ncm-ssh: config option renamed between RHEL6 and RHEL7" target="_parent">
<ellipse fill="#6cc644" stroke="black" cx="430" cy="-414" rx="121.122" ry="38.1838"/>
<text text-anchor="middle" x="430" y="-418" font-family="Sans" font-size="10.00">issue</text>
<text text-anchor="middle" x="430" y="-405" font-family="Sans" font-size="10.00">configuration-modules-core#1237</text>
</a>
</g>
<!-- configuration&#45;modules&#45;core#1278&#45;&gt;configuration&#45;modules&#45;core#1237 -->
<g id="edge46" class="edge"><title>configuration-modules-core#1278-&gt;configuration-modules-core#1237</title>
<path fill="none" stroke="black" stroke-width="2" d="M204.081,-414C233.133,-414 266.265,-414 298.034,-414"/>
<polygon fill="black" stroke="black" points="298.293,-417.5 308.293,-414 298.293,-410.5 298.293,-417.5"/>
<text text-anchor="middle" x="272" y="-418" font-family="Sans" font-size="10.00">fixes</text>
</g>
<!-- configuration&#45;modules&#45;core#1148 -->
<g id="node57" class="node"><title>configuration-modules-core#1148</title>
<a xlink:href="https://github.com/quattor/configuration-modules-core/pull/1148" xlink:title="ncm-spma: Remove support from groups from spma yumng backend" target="_parent">
<polygon fill="#6cc644" stroke="black" points="204,-2052 32,-2052 32,-1998 204,-1998 204,-2052"/>
<text text-anchor="middle" x="118" y="-2029" font-family="Sans" font-size="10.00">pull-request</text>
<text text-anchor="middle" x="118" y="-2016" font-family="Sans" font-size="10.00">configuration-modules-core#1148</text>
</a>
</g>
<!-- configuration&#45;modules&#45;core#952 -->
<g id="node59" class="node"><title>configuration-modules-core#952</title>
<a xlink:href="https://github.com/quattor/configuration-modules-core/issues/952" xlink:title="ncm-spma (yumng): Remove support for package groups" target="_parent">
<ellipse fill="#6cc644" stroke="black" cx="430" cy="-2025" rx="118.087" ry="38.1838"/>
<text text-anchor="middle" x="430" y="-2029" font-family="Sans" font-size="10.00">issue</text>
<text text-anchor="middle" x="430" y="-2016" font-family="Sans" font-size="10.00">configuration-modules-core#952</text>
</a>
</g>
<!-- configuration&#45;modules&#45;core#1148&#45;&gt;configuration&#45;modules&#45;core#952 -->
<g id="edge48" class="edge"><title>configuration-modules-core#1148-&gt;configuration-modules-core#952</title>
<path fill="none" stroke="black" stroke-width="2" d="M204.081,-2025C234.24,-2025 268.794,-2025 301.657,-2025"/>
<polygon fill="black" stroke="black" points="301.795,-2028.5 311.795,-2025 301.795,-2021.5 301.795,-2028.5"/>
<text text-anchor="middle" x="272" y="-2029" font-family="Sans" font-size="10.00">fixes</text>
</g>
<!-- configuration&#45;modules&#45;core#950 -->
<g id="node60" class="node"><title>configuration-modules-core#950</title>
<a xlink:href="https://github.com/quattor/configuration-modules-core/issues/950" xlink:title="ncm-spma: Remove support for package groups from yum backends" target="_parent">
<ellipse fill="#6cc644" stroke="black" cx="118" cy="-1937" rx="118.087" ry="38.1838"/>
<text text-anchor="middle" x="118" y="-1941" font-family="Sans" font-size="10.00">issue</text>
<text text-anchor="middle" x="118" y="-1928" font-family="Sans" font-size="10.00">configuration-modules-core#950</text>
</a>
</g>
<!-- configuration&#45;modules&#45;core#950&#45;&gt;configuration&#45;modules&#45;core#952 -->
<g id="edge52" class="edge"><title>configuration-modules-core#950-&gt;configuration-modules-core#952</title>
<path fill="none" stroke="black" stroke-dasharray="5,2" d="M206.989,-1962.1C245.842,-1973.06 291.543,-1985.95 331.424,-1997.2"/>
<polygon fill="none" stroke="black" points="330.588,-2000.6 341.163,-1999.94 332.488,-1993.86 330.588,-2000.6"/>
<text text-anchor="middle" x="272" y="-1987" font-family="Sans" font-size="10.00">requires</text>
</g>
<!-- configuration&#45;modules&#45;core#951 -->
<g id="node62" class="node"><title>configuration-modules-core#951</title>
<a xlink:href="https://github.com/quattor/configuration-modules-core/issues/951" xlink:title="ncm-spma (yum): Remove support for package groups" target="_parent">
<ellipse fill="#6cc644" stroke="black" cx="430" cy="-1931" rx="118.087" ry="38.1838"/>
<text text-anchor="middle" x="430" y="-1935" font-family="Sans" font-size="10.00">issue</text>
<text text-anchor="middle" x="430" y="-1922" font-family="Sans" font-size="10.00">configuration-modules-core#951</text>
</a>
</g>
<!-- configuration&#45;modules&#45;core#950&#45;&gt;configuration&#45;modules&#45;core#951 -->
<g id="edge50" class="edge"><title>configuration-modules-core#950-&gt;configuration-modules-core#951</title>
<path fill="none" stroke="black" stroke-dasharray="5,2" d="M235.954,-1934.73C257.578,-1934.32 280.24,-1933.88 302.138,-1933.46"/>
<polygon fill="none" stroke="black" points="302.207,-1936.96 312.138,-1933.27 302.073,-1929.96 302.207,-1936.96"/>
<text text-anchor="middle" x="272" y="-1938" font-family="Sans" font-size="10.00">requires</text>
</g>
<!-- ncm&#45;lib&#45;blockdevices#88 -->
<g id="node64" class="node"><title>ncm-lib-blockdevices#88</title>
<a xlink:href="https://github.com/quattor/ncm-lib-blockdevices/pull/88" xlink:title="LV: add useexisting_lv flag and support useexisting option in ks" target="_parent">
<polygon fill="#6cc644" stroke="black" points="498,-596 362,-596 362,-542 498,-542 498,-596"/>
<text text-anchor="middle" x="430" y="-573" font-family="Sans" font-size="10.00">pull-request</text>
<text text-anchor="middle" x="430" y="-560" font-family="Sans" font-size="10.00">ncm-lib-blockdevices#88</text>
</a>
</g>
<!-- ncm&#45;lib&#45;blockdevices#82 -->
<g id="node66" class="node"><title>ncm-lib-blockdevices#82</title>
<a xlink:href="https://github.com/quattor/ncm-lib-blockdevices/issues/82" xlink:title="kickstart configuration of logvol is incomplete on SL7" target="_parent">
<ellipse fill="#6cc644" stroke="black" cx="748" cy="-530" rx="96.1665" ry="38.1838"/>
<text text-anchor="middle" x="748" y="-534" font-family="Sans" font-size="10.00">issue</text>
<text text-anchor="middle" x="748" y="-521" font-family="Sans" font-size="10.00">ncm-lib-blockdevices#82</text>
</a>
</g>
<!-- ncm&#45;lib&#45;blockdevices#88&#45;&gt;ncm&#45;lib&#45;blockdevices#82 -->
<g id="edge54" class="edge"><title>ncm-lib-blockdevices#88-&gt;ncm-lib-blockdevices#82</title>
<path fill="none" stroke="black" stroke-width="2" d="M498.219,-560.634C541.24,-555.357 597.595,-548.446 645.886,-542.523"/>
<polygon fill="black" stroke="black" points="646.561,-545.967 656.06,-541.276 645.709,-539.019 646.561,-545.967"/>
<text text-anchor="middle" x="589" y="-555" font-family="Sans" font-size="10.00">fixes</text>
</g>
<!-- ncm&#45;ncd#117 -->
<g id="node67" class="node"><title>ncm-ncd#117</title>
<a xlink:href="https://github.com/quattor/ncm-ncd/pull/117" xlink:title="Allow component modules to be loaded from any path" target="_parent">
<polygon fill="#6cc644" stroke="black" points="473,-524 387,-524 387,-470 473,-470 473,-524"/>
<text text-anchor="middle" x="430" y="-501" font-family="Sans" font-size="10.00">pull-request</text>
<text text-anchor="middle" x="430" y="-488" font-family="Sans" font-size="10.00">ncm-ncd#117</text>
</a>
</g>
<!-- ncm&#45;ncd#116 -->
<g id="node69" class="node"><title>ncm-ncd#116</title>
<a xlink:href="https://github.com/quattor/ncm-ncd/issues/116" xlink:title="hasFile() prevents component modules from being relocated" target="_parent">
<ellipse fill="#6cc644" stroke="black" cx="748" cy="-436" rx="61.0181" ry="38.1838"/>
<text text-anchor="middle" x="748" y="-440" font-family="Sans" font-size="10.00">issue</text>
<text text-anchor="middle" x="748" y="-427" font-family="Sans" font-size="10.00">ncm-ncd#116</text>
</a>
</g>
<!-- ncm&#45;ncd#117&#45;&gt;ncm&#45;ncd#116 -->
<g id="edge56" class="edge"><title>ncm-ncd#117-&gt;ncm-ncd#116</title>
<path fill="none" stroke="black" stroke-width="2" d="M473.55,-488.646C526.482,-478.493 616.45,-461.235 678.883,-449.258"/>
<polygon fill="black" stroke="black" points="679.881,-452.631 689.043,-447.309 678.563,-445.756 679.881,-452.631"/>
<text text-anchor="middle" x="589" y="-473" font-family="Sans" font-size="10.00">fixes</text>
</g>
<!-- aquilon#94 -->
<g id="node70" class="node"><title>aquilon#94</title>
<a xlink:href="https://github.com/quattor/aquilon/pull/94" xlink:title="Export archetype/os as a dict in hostdata template" target="_parent">
<polygon fill="#6cc644" stroke="black" points="157,-2146 79,-2146 79,-2092 157,-2092 157,-2146"/>
<text text-anchor="middle" x="118" y="-2123" font-family="Sans" font-size="10.00">pull-request</text>
<text text-anchor="middle" x="118" y="-2110" font-family="Sans" font-size="10.00">aquilon#94</text>
</a>
</g>
<!-- aquilon#93 -->
<g id="node72" class="node"><title>aquilon#93</title>
<a xlink:href="https://github.com/quattor/aquilon/issues/93" xlink:title="Aquilon 1.12.58: /system/archetype/os in object template has the wrong type" target="_parent">
<ellipse fill="#6cc644" stroke="black" cx="430" cy="-2119" rx="53.033" ry="38.1838"/>
<text text-anchor="middle" x="430" y="-2123" font-family="Sans" font-size="10.00">issue</text>
<text text-anchor="middle" x="430" y="-2110" font-family="Sans" font-size="10.00">aquilon#93</text>
</a>
</g>
<!-- aquilon#94&#45;&gt;aquilon#93 -->
<g id="edge58" class="edge"><title>aquilon#94-&gt;aquilon#93</title>
<path fill="none" stroke="black" stroke-width="2" d="M157.515,-2119C210.171,-2119 303.964,-2119 366.579,-2119"/>
<polygon fill="black" stroke="black" points="366.734,-2122.5 376.734,-2119 366.734,-2115.5 366.734,-2122.5"/>
<text text-anchor="middle" x="272" y="-2123" font-family="Sans" font-size="10.00">fixes</text>
</g>
<!-- aquilon#89 -->
<g id="node73" class="node"><title>aquilon#89</title>
<a xlink:href="https://github.com/quattor/aquilon/pull/89" xlink:title="Broker: pass archetype to the object profile" target="_parent">
<polygon fill="#6cc644" stroke="black" points="157,-2240 79,-2240 79,-2186 157,-2186 157,-2240"/>
<text text-anchor="middle" x="118" y="-2217" font-family="Sans" font-size="10.00">pull-request</text>
<text text-anchor="middle" x="118" y="-2204" font-family="Sans" font-size="10.00">aquilon#89</text>
</a>
</g>
<!-- aquilon#88 -->
<g id="node75" class="node"><title>aquilon#88</title>
<a xlink:href="https://github.com/quattor/aquilon/issues/88" xlink:title="1.12.58: the broker should pass the archetype to the object template" target="_parent">
<ellipse fill="#6cc644" stroke="black" cx="430" cy="-2213" rx="53.033" ry="38.1838"/>
<text text-anchor="middle" x="430" y="-2217" font-family="Sans" font-size="10.00">issue</text>
<text text-anchor="middle" x="430" y="-2204" font-family="Sans" font-size="10.00">aquilon#88</text>
</a>
</g>
<!-- aquilon#89&#45;&gt;aquilon#88 -->
<g id="edge60" class="edge"><title>aquilon#89-&gt;aquilon#88</title>
<path fill="none" stroke="black" stroke-width="2" d="M157.515,-2213C210.171,-2213 303.964,-2213 366.579,-2213"/>
<polygon fill="black" stroke="black" points="366.734,-2216.5 376.734,-2213 366.734,-2209.5 366.734,-2216.5"/>
<text text-anchor="middle" x="272" y="-2217" font-family="Sans" font-size="10.00">fixes</text>
</g>
<!-- aquilon#87 -->
<g id="node76" class="node"><title>aquilon#87</title>
<a xlink:href="https://github.com/quattor/aquilon/pull/87" xlink:title="Plenary template adjustment to fix the template library support" target="_parent">
<polygon fill="#6cc644" stroke="black" points="157,-2334 79,-2334 79,-2280 157,-2280 157,-2334"/>
<text text-anchor="middle" x="118" y="-2311" font-family="Sans" font-size="10.00">pull-request</text>
<text text-anchor="middle" x="118" y="-2298" font-family="Sans" font-size="10.00">aquilon#87</text>
</a>
</g>
<!-- aquilon#86 -->
<g id="node78" class="node"><title>aquilon#86</title>
<a xlink:href="https://github.com/quattor/aquilon/issues/86" xlink:title="1.12.58: profile prolog template needed to define the LOADPATH" target="_parent">
<ellipse fill="#6cc644" stroke="black" cx="430" cy="-2307" rx="53.033" ry="38.1838"/>
<text text-anchor="middle" x="430" y="-2311" font-family="Sans" font-size="10.00">issue</text>
<text text-anchor="middle" x="430" y="-2298" font-family="Sans" font-size="10.00">aquilon#86</text>
</a>
</g>
<!-- aquilon#87&#45;&gt;aquilon#86 -->
<g id="edge62" class="edge"><title>aquilon#87-&gt;aquilon#86</title>
<path fill="none" stroke="black" stroke-width="2" d="M157.515,-2307C210.171,-2307 303.964,-2307 366.579,-2307"/>
<polygon fill="black" stroke="black" points="366.734,-2310.5 376.734,-2307 366.734,-2303.5 366.734,-2310.5"/>
<text text-anchor="middle" x="272" y="-2311" font-family="Sans" font-size="10.00">fixes</text>
</g>
<!-- aquilon#79 -->
<g id="node79" class="node"><title>aquilon#79</title>
<a xlink:href="https://github.com/quattor/aquilon/pull/79" xlink:title="aqd.conf.noms: update inappropriate defaults" target="_parent">
<polygon fill="#6cc644" stroke="black" points="157,-2448 79,-2448 79,-2394 157,-2394 157,-2448"/>
<text text-anchor="middle" x="118" y="-2425" font-family="Sans" font-size="10.00">pull-request</text>
<text text-anchor="middle" x="118" y="-2412" font-family="Sans" font-size="10.00">aquilon#79</text>
</a>
</g>
<!-- aquilon#78 -->
<g id="node81" class="node"><title>aquilon#78</title>
<a xlink:href="https://github.com/quattor/aquilon/issues/78" xlink:title="Wrong ant_home provided in aqd.conf.noms" target="_parent">
<ellipse fill="#6cc644" stroke="black" cx="430" cy="-2459" rx="53.033" ry="38.1838"/>
<text text-anchor="middle" x="430" y="-2463" font-family="Sans" font-size="10.00">issue</text>
<text text-anchor="middle" x="430" y="-2450" font-family="Sans" font-size="10.00">aquilon#78</text>
</a>
</g>
<!-- aquilon#79&#45;&gt;aquilon#78 -->
<g id="edge64" class="edge"><title>aquilon#79-&gt;aquilon#78</title>
<path fill="none" stroke="black" stroke-width="2" d="M157.515,-2425.81C210.404,-2432.25 304.795,-2443.75 367.408,-2451.38"/>
<polygon fill="black" stroke="black" points="367.207,-2454.88 377.557,-2452.61 368.054,-2447.93 367.207,-2454.88"/>
<text text-anchor="middle" x="272" y="-2445" font-family="Sans" font-size="10.00">fixes</text>
</g>
<!-- aquilon#82 -->
<g id="node83" class="node"><title>aquilon#82</title>
<polygon fill="lightgrey" stroke="black" points="467,-2403.5 393,-2403.5 393,-2362.5 467,-2362.5 467,-2403.5"/>
<text text-anchor="middle" x="430" y="-2380.5" font-family="Sans" font-size="10.00">aquilon#82</text>
</g>
<!-- aquilon#79&#45;&gt;aquilon#82 -->
<g id="edge66" class="edge"><title>aquilon#79-&gt;aquilon#82</title>
<path fill="none" stroke="black" stroke-width="2" d="M157.515,-2416.19C214.713,-2409.22 320.449,-2396.34 382.038,-2388.84"/>
<polygon fill="black" stroke="black" points="382.763,-2392.28 392.266,-2387.6 381.916,-2385.33 382.763,-2392.28"/>
<text text-anchor="middle" x="272" y="-2408" font-family="Sans" font-size="10.00">fixes</text>
</g>
</g>
</svg>
