<?xml version="1.0" encoding="UTF-8" standalone="no"?>
<?xml-stylesheet href="relationships.css" type="text/css"?>
<!-- Generated by graphviz version 2.26.0 (20091210.2329)
 -->
<!-- Title: Dependencies Pages: 1 -->
<svg xmlns="http://www.w3.org/2000/svg" xmlns:xlink="http://www.w3.org/1999/xlink" width="1020pt" height="2307pt" viewBox="0.00 0.00 1020.00 2307.00">
<g id="graph1" class="graph" transform="scale(1 1) rotate(0) translate(4 2303)">
<title>Dependencies</title>
<polygon fill="white" stroke="white" points="-4,5 -4,-2303 1017,-2303 1017,5 -4,5"/>
<g id="graph3" class="cluster"><title>cluster_milestone_18.12</title>
<polygon fill="none" stroke="black" points="300,-325 300,-1713 878,-1713 878,-325 300,-325"/>
<text text-anchor="middle" x="589" y="-1698.2" font-family="Sans" font-size="12.00">18.12</text>
</g>
<g id="graph4" class="cluster"><title>cluster_milestone_19.2</title>
<polygon fill="none" stroke="black" points="70,-8 70,-196 488,-196 488,-8 70,-8"/>
<text text-anchor="middle" x="279" y="-181.2" font-family="Sans" font-size="12.00">19.2</text>
</g>
<g id="graph5" class="cluster"><title>cluster_repo_aquilon</title>
<polygon fill="none" stroke="black" points="57,-1959 57,-2291 495,-2291 495,-1959 57,-1959"/>
<text text-anchor="middle" x="276" y="-2276.2" font-family="Sans" font-size="12.00">aquilon</text>
</g>
<!-- aii#299 -->
<g id="node1" class="node"><title>aii#299</title>
<a xlink:href="https://github.com/quattor/aii/pull/299" xlink:title="aii-dhcp: support optional hostname ip verification" target="_parent">
<polygon fill="#6cc644" stroke="black" points="157,-164 79,-164 79,-110 157,-110 157,-164"/>
<text text-anchor="middle" x="118" y="-141" font-family="Sans" font-size="10.00">pull-request</text>
<text text-anchor="middle" x="118" y="-128" font-family="Sans" font-size="10.00">aii#299</text>
</a>
</g>
<!-- aii#296 -->
<g id="node3" class="node"><title>aii#296</title>
<a xlink:href="https://github.com/quattor/aii/pull/296" xlink:title="DHCP plugin updates" target="_parent">
<polygon fill="#6cc644" stroke="black" points="469,-164 391,-164 391,-110 469,-110 469,-164"/>
<text text-anchor="middle" x="430" y="-141" font-family="Sans" font-size="10.00">pull-request</text>
<text text-anchor="middle" x="430" y="-128" font-family="Sans" font-size="10.00">aii#296</text>
</a>
</g>
<!-- aii#299&#45;&gt;aii#296 -->
<g id="edge2" class="edge"><title>aii#299-&gt;aii#296</title>
<path fill="none" stroke="black" stroke-dasharray="5,2" d="M157.571,-135.897C184.705,-135.197 221.529,-134.358 254,-134 296.553,-133.531 344.889,-134.46 380.125,-135.405"/>
<polygon fill="none" stroke="black" points="380.066,-138.904 390.159,-135.683 380.26,-131.907 380.066,-138.904"/>
<text text-anchor="middle" x="272" y="-138" font-family="Sans" font-size="10.00">requires</text>
</g>
<!-- aii#294 -->
<g id="node4" class="node"><title>aii#294</title>
<a xlink:href="https://github.com/quattor/aii/pull/294" xlink:title="aii: ks: disable selinux with kernel param" target="_parent">
<polygon fill="#6e5494" stroke="black" points="469,-1598 391,-1598 391,-1544 469,-1544 469,-1598"/>
<text text-anchor="middle" x="430" y="-1575" font-family="Sans" font-size="10.00">pull-request</text>
<text text-anchor="middle" x="430" y="-1562" font-family="Sans" font-size="10.00">aii#294</text>
</a>
</g>
<!-- aii#293 -->
<g id="node6" class="node"><title>aii#293</title>
<a xlink:href="https://github.com/quattor/aii/issues/293" xlink:title="Disabling selinux during OS installation does not work with CentOS 7.5" target="_parent">
<ellipse fill="#bd2c00" stroke="black" cx="748" cy="-1571" rx="41.2167" ry="38.1838"/>
<text text-anchor="middle" x="748" y="-1575" font-family="Sans" font-size="10.00">issue</text>
<text text-anchor="middle" x="748" y="-1562" font-family="Sans" font-size="10.00">aii#293</text>
</a>
</g>
<!-- aii#294&#45;&gt;aii#293 -->
<g id="edge4" class="edge"><title>aii#294-&gt;aii#293</title>
<path fill="none" stroke="black" stroke-width="2" d="M469.632,-1571C526.883,-1571 632.79,-1571 696.177,-1571"/>
<polygon fill="black" stroke="black" points="696.352,-1574.5 706.352,-1571 696.352,-1567.5 696.352,-1574.5"/>
<text text-anchor="middle" x="589" y="-1575" font-family="Sans" font-size="10.00">fixes</text>
</g>
<!-- aii#291 -->
<g id="node7" class="node"><title>aii#291</title>
<a xlink:href="https://github.com/quattor/aii/pull/291" xlink:title="aii-installfe: add support for --cdburl" target="_parent">
<polygon fill="#6e5494" stroke="black" points="469,-1504 391,-1504 391,-1450 469,-1450 469,-1504"/>
<text text-anchor="middle" x="430" y="-1481" font-family="Sans" font-size="10.00">pull-request</text>
<text text-anchor="middle" x="430" y="-1468" font-family="Sans" font-size="10.00">aii#291</text>
</a>
</g>
<!-- aii#290 -->
<g id="node9" class="node"><title>aii#290</title>
<a xlink:href="https://github.com/quattor/aii/issues/290" xlink:title="18.6.0: aii-installfe should allow to define cdburl" target="_parent">
<ellipse fill="#bd2c00" stroke="black" cx="748" cy="-1477" rx="41.2167" ry="38.1838"/>
<text text-anchor="middle" x="748" y="-1481" font-family="Sans" font-size="10.00">issue</text>
<text text-anchor="middle" x="748" y="-1468" font-family="Sans" font-size="10.00">aii#290</text>
</a>
</g>
<!-- aii#291&#45;&gt;aii#290 -->
<g id="edge6" class="edge"><title>aii#291-&gt;aii#290</title>
<path fill="none" stroke="black" stroke-width="2" d="M469.632,-1477C526.883,-1477 632.79,-1477 696.177,-1477"/>
<polygon fill="black" stroke="black" points="696.352,-1480.5 706.352,-1477 696.352,-1473.5 696.352,-1480.5"/>
<text text-anchor="middle" x="589" y="-1481" font-family="Sans" font-size="10.00">fixes</text>
</g>
<!-- aii#280 -->
<g id="node10" class="node"><title>aii#280</title>
<a xlink:href="https://github.com/quattor/aii/pull/280" xlink:title="Support active configuration attribute for plugins" target="_parent">
<polygon fill="#6cc644" stroke="black" points="469,-391 391,-391 391,-337 469,-337 469,-391"/>
<text text-anchor="middle" x="430" y="-368" font-family="Sans" font-size="10.00">pull-request</text>
<text text-anchor="middle" x="430" y="-355" font-family="Sans" font-size="10.00">aii#280</text>
</a>
</g>
<!-- aii#209 -->
<g id="node12" class="node"><title>aii#209</title>
<a xlink:href="https://github.com/quattor/aii/issues/209" xlink:title="support ACTIVE_CONFIG" target="_parent">
<ellipse fill="#6cc644" stroke="black" cx="748" cy="-371" rx="41.2167" ry="38.1838"/>
<text text-anchor="middle" x="748" y="-375" font-family="Sans" font-size="10.00">issue</text>
<text text-anchor="middle" x="748" y="-362" font-family="Sans" font-size="10.00">aii#209</text>
</a>
</g>
<!-- aii#280&#45;&gt;aii#209 -->
<g id="edge8" class="edge"><title>aii#280-&gt;aii#209</title>
<path fill="none" stroke="black" stroke-width="2" d="M469.632,-364.872C526.883,-366.133 632.79,-368.464 696.177,-369.859"/>
<polygon fill="black" stroke="black" points="696.277,-373.362 706.352,-370.083 696.431,-366.364 696.277,-373.362"/>
<text text-anchor="middle" x="589" y="-372" font-family="Sans" font-size="10.00">fixes</text>
</g>
<!-- ncm&#45;ncd#74 -->
<g id="node14" class="node"><title>ncm-ncd#74</title>
<a xlink:href="https://github.com/quattor/ncm-ncd/pull/74" xlink:title="Set the current active config as an attribute to the component" target="_parent">
<polygon fill="#6e5494" stroke="black" points="789,-481 707,-481 707,-427 789,-427 789,-481"/>
<text text-anchor="middle" x="748" y="-458" font-family="Sans" font-size="10.00">pull-request</text>
<text text-anchor="middle" x="748" y="-445" font-family="Sans" font-size="10.00">ncm-ncd#74</text>
</a>
</g>
<!-- aii#280&#45;&gt;ncm&#45;ncd#74 -->
<g id="edge10" class="edge"><title>aii#280-&gt;ncm-ncd#74</title>
<path fill="none" stroke="black" stroke-dasharray="5,2" d="M469.632,-375.217C527.159,-391.498 633.813,-421.683 697.091,-439.592"/>
<polygon fill="none" stroke="black" points="696.285,-443.001 706.86,-442.357 698.191,-436.266 696.285,-443.001"/>
<text text-anchor="middle" x="589" y="-416" font-family="Sans" font-size="10.00">requires</text>
</g>
<!-- aii#203 -->
<g id="node16" class="node"><title>aii#203</title>
<polygon fill="lightgrey" stroke="black" points="777,-315.5 719,-315.5 719,-274.5 777,-274.5 777,-315.5"/>
<text text-anchor="middle" x="748" y="-292.5" font-family="Sans" font-size="10.00">aii#203</text>
</g>
<!-- aii#280&#45;&gt;aii#203 -->
<g id="edge12" class="edge"><title>aii#280-&gt;aii#203</title>
<path fill="none" stroke="black" stroke-dasharray="5,2" d="M469.776,-355.2C509.364,-346.46 571.861,-332.708 626,-321 653.473,-315.059 684.449,-308.459 708.313,-303.395"/>
<polygon fill="none" stroke="black" points="709.35,-306.753 718.406,-301.255 707.898,-299.905 709.35,-306.753"/>
<text text-anchor="middle" x="589" y="-337" font-family="Sans" font-size="10.00">requires</text>
</g>
<!-- aii#210 -->
<g id="node18" class="node"><title>aii#210</title>
<polygon fill="lightgrey" stroke="black" points="777,-257.5 719,-257.5 719,-216.5 777,-216.5 777,-257.5"/>
<text text-anchor="middle" x="748" y="-234.5" font-family="Sans" font-size="10.00">aii#210</text>
</g>
<!-- aii#280&#45;&gt;aii#210 -->
<g id="edge14" class="edge"><title>aii#280-&gt;aii#210</title>
<path fill="none" stroke="black" stroke-dasharray="1,5" d="M469.55,-360.739C494.869,-357.092 527.454,-349.366 552,-333 563.094,-325.603 560.625,-318.481 570,-309 592.063,-286.686 597.664,-279.482 626,-266 652.06,-253.6 683.844,-246.266 708.437,-242.077"/>
<polygon fill="black" stroke="black" points="718.498,-240.468 709.334,-246.49 713.561,-241.257 708.624,-242.047 708.624,-242.047 708.624,-242.047 713.561,-241.257 707.913,-237.603 718.498,-240.468 718.498,-240.468"/>
<text text-anchor="middle" x="589" y="-313" font-family="Sans" font-size="10.00">replaces</text>
</g>
<!-- CAF#257 -->
<g id="node19" class="node"><title>CAF#257</title>
<a xlink:href="https://github.com/quattor/CAF/pull/257" xlink:title="Process: run process as another user" target="_parent">
<polygon fill="#6cc644" stroke="black" points="157,-81 79,-81 79,-27 157,-27 157,-81"/>
<text text-anchor="middle" x="118" y="-58" font-family="Sans" font-size="10.00">pull-request</text>
<text text-anchor="middle" x="118" y="-45" font-family="Sans" font-size="10.00">CAF#257</text>
</a>
</g>
<!-- CAF#253 -->
<g id="node21" class="node"><title>CAF#253</title>
<a xlink:href="https://github.com/quattor/CAF/issues/253" xlink:title="CAF::Process: Include an option to execute the command as an specific user" target="_parent">
<ellipse fill="#6cc644" stroke="black" cx="430" cy="-54" rx="48.9975" ry="38.1838"/>
<text text-anchor="middle" x="430" y="-58" font-family="Sans" font-size="10.00">issue</text>
<text text-anchor="middle" x="430" y="-45" font-family="Sans" font-size="10.00">CAF#253</text>
</a>
</g>
<!-- CAF#257&#45;&gt;CAF#253 -->
<g id="edge16" class="edge"><title>CAF#257-&gt;CAF#253</title>
<path fill="none" stroke="black" stroke-width="2" d="M157.515,-54C211.181,-54 307.576,-54 370.145,-54"/>
<polygon fill="black" stroke="black" points="370.268,-57.5001 380.268,-54 370.268,-50.5001 370.268,-57.5001"/>
<text text-anchor="middle" x="272" y="-58" font-family="Sans" font-size="10.00">fixes</text>
</g>
<!-- CAF#110 -->
<g id="node22" class="node"><title>CAF#110</title>
<a xlink:href="https://github.com/quattor/CAF/pull/110" xlink:title="CAF::Download class: API proposal" target="_parent">
<polygon fill="#6cc644" stroke="black" points="157,-1768 79,-1768 79,-1714 157,-1714 157,-1768"/>
<text text-anchor="middle" x="118" y="-1745" font-family="Sans" font-size="10.00">pull-request</text>
<text text-anchor="middle" x="118" y="-1732" font-family="Sans" font-size="10.00">CAF#110</text>
</a>
</g>
<!-- CAF#120 -->
<g id="node24" class="node"><title>CAF#120</title>
<polygon fill="lightgrey" stroke="black" points="465,-1761.5 395,-1761.5 395,-1720.5 465,-1720.5 465,-1761.5"/>
<text text-anchor="middle" x="430" y="-1738.5" font-family="Sans" font-size="10.00">CAF#120</text>
</g>
<!-- CAF#110&#45;&gt;CAF#120 -->
<g id="edge18" class="edge"><title>CAF#110-&gt;CAF#120</title>
<path fill="none" stroke="black" stroke-dasharray="5,2" d="M157.515,-1741C215.488,-1741 323.324,-1741 384.517,-1741"/>
<polygon fill="none" stroke="black" points="384.651,-1744.5 394.651,-1741 384.651,-1737.5 384.651,-1744.5"/>
<text text-anchor="middle" x="272" y="-1745" font-family="Sans" font-size="10.00">requires</text>
</g>
<!-- CCM#186 -->
<g id="node25" class="node"><title>CCM#186</title>
<a xlink:href="https://github.com/quattor/CCM/pull/186" xlink:title="TextRender: add support for jsonpretty type" target="_parent">
<polygon fill="#6e5494" stroke="black" points="787,-1681 709,-1681 709,-1627 787,-1627 787,-1681"/>
<text text-anchor="middle" x="748" y="-1658" font-family="Sans" font-size="10.00">pull-request</text>
<text text-anchor="middle" x="748" y="-1645" font-family="Sans" font-size="10.00">CCM#186</text>
</a>
</g>
<!-- CAF#265 -->
<g id="node27" class="node"><title>CAF#265</title>
<polygon fill="lightgrey" stroke="black" points="1012,-1714.5 942,-1714.5 942,-1673.5 1012,-1673.5 1012,-1714.5"/>
<text text-anchor="middle" x="977" y="-1691.5" font-family="Sans" font-size="10.00">CAF#265</text>
</g>
<!-- CCM#186&#45;&gt;CAF#265 -->
<g id="edge20" class="edge"><title>CCM#186-&gt;CAF#265</title>
<path fill="none" stroke="black" stroke-dasharray="5,2" d="M787.627,-1660.92C827.836,-1667.95 889.982,-1678.8 932.017,-1686.14"/>
<polygon fill="none" stroke="black" points="931.527,-1689.61 941.98,-1687.88 932.732,-1682.71 931.527,-1689.61"/>
<text text-anchor="middle" x="906" y="-1689" font-family="Sans" font-size="10.00">requires</text>
</g>
<!-- configuration&#45;modules&#45;core#1331 -->
<g id="node28" class="node"><title>configuration-modules-core#1331</title>
<a xlink:href="https://github.com/quattor/configuration-modules-core/pull/1331" xlink:title="ncm-cron: Throw an error if multiple cron jobs are defined with the same name" target="_parent">
<polygon fill="#6cc644" stroke="black" points="516,-1410 344,-1410 344,-1356 516,-1356 516,-1410"/>
<text text-anchor="middle" x="430" y="-1387" font-family="Sans" font-size="10.00">pull-request</text>
<text text-anchor="middle" x="430" y="-1374" font-family="Sans" font-size="10.00">configuration-modules-core#1331</text>
</a>
</g>
<!-- configuration&#45;modules&#45;core#1228 -->
<g id="node30" class="node"><title>configuration-modules-core#1228</title>
<a xlink:href="https://github.com/quattor/configuration-modules-core/issues/1228" xlink:title="ncm-cron: Catch cron entries with duplicate names at build time" target="_parent">
<ellipse fill="#6cc644" stroke="black" cx="748" cy="-1383" rx="121.122" ry="38.1838"/>
<text text-anchor="middle" x="748" y="-1387" font-family="Sans" font-size="10.00">issue</text>
<text text-anchor="middle" x="748" y="-1374" font-family="Sans" font-size="10.00">configuration-modules-core#1228</text>
</a>
</g>
<!-- configuration&#45;modules&#45;core#1331&#45;&gt;configuration&#45;modules&#45;core#1228 -->
<g id="edge22" class="edge"><title>configuration-modules-core#1331-&gt;configuration-modules-core#1228</title>
<path fill="none" stroke="black" stroke-width="2" d="M516.055,-1383C546.811,-1383 582.215,-1383 615.951,-1383"/>
<polygon fill="black" stroke="black" points="616.361,-1386.5 626.361,-1383 616.361,-1379.5 616.361,-1386.5"/>
<text text-anchor="middle" x="589" y="-1387" font-family="Sans" font-size="10.00">fixes</text>
</g>
<!-- configuration&#45;modules&#45;core#1308 -->
<g id="node31" class="node"><title>configuration-modules-core#1308</title>
<a xlink:href="https://github.com/quattor/configuration-modules-core/pull/1308" xlink:title="ncm-network: no error wrt missing (IPv4) ip and netmask in a pure IPv6 config" target="_parent">
<polygon fill="#6e5494" stroke="black" points="516,-1316 344,-1316 344,-1262 516,-1262 516,-1316"/>
<text text-anchor="middle" x="430" y="-1293" font-family="Sans" font-size="10.00">pull-request</text>
<text text-anchor="middle" x="430" y="-1280" font-family="Sans" font-size="10.00">configuration-modules-core#1308</text>
</a>
</g>
<!-- configuration&#45;modules&#45;core#1296 -->
<g id="node33" class="node"><title>configuration-modules-core#1296</title>
<a xlink:href="https://github.com/quattor/configuration-modules-core/issues/1296" xlink:title="ncm-network: Returns an error when an interface is configured as IPv6 only" target="_parent">
<ellipse fill="#bd2c00" stroke="black" cx="748" cy="-1289" rx="121.122" ry="38.1838"/>
<text text-anchor="middle" x="748" y="-1293" font-family="Sans" font-size="10.00">issue</text>
<text text-anchor="middle" x="748" y="-1280" font-family="Sans" font-size="10.00">configuration-modules-core#1296</text>
</a>
</g>
<!-- configuration&#45;modules&#45;core#1308&#45;&gt;configuration&#45;modules&#45;core#1296 -->
<g id="edge24" class="edge"><title>configuration-modules-core#1308-&gt;configuration-modules-core#1296</title>
<path fill="none" stroke="black" stroke-width="2" d="M516.055,-1289C546.811,-1289 582.215,-1289 615.951,-1289"/>
<polygon fill="black" stroke="black" points="616.361,-1292.5 626.361,-1289 616.361,-1285.5 616.361,-1292.5"/>
<text text-anchor="middle" x="589" y="-1293" font-family="Sans" font-size="10.00">fixes</text>
</g>
<!-- configuration&#45;modules&#45;core#1299 -->
<g id="node34" class="node"><title>configuration-modules-core#1299</title>
<a xlink:href="https://github.com/quattor/configuration-modules-core/pull/1299" xlink:title="ncm-sysconfig: Automatically quote values containing whitespace" target="_parent">
<polygon fill="#6cc644" stroke="black" points="516,-1222 344,-1222 344,-1168 516,-1168 516,-1222"/>
<text text-anchor="middle" x="430" y="-1199" font-family="Sans" font-size="10.00">pull-request</text>
<text text-anchor="middle" x="430" y="-1186" font-family="Sans" font-size="10.00">configuration-modules-core#1299</text>
</a>
</g>
<!-- configuration&#45;modules&#45;core#1191 -->
<g id="node36" class="node"><title>configuration-modules-core#1191</title>
<a xlink:href="https://github.com/quattor/configuration-modules-core/issues/1191" xlink:title="ncm-sysconfig: Values should be quoted" target="_parent">
<ellipse fill="#6cc644" stroke="black" cx="748" cy="-1195" rx="121.122" ry="38.1838"/>
<text text-anchor="middle" x="748" y="-1199" font-family="Sans" font-size="10.00">issue</text>
<text text-anchor="middle" x="748" y="-1186" font-family="Sans" font-size="10.00">configuration-modules-core#1191</text>
</a>
</g>
<!-- configuration&#45;modules&#45;core#1299&#45;&gt;configuration&#45;modules&#45;core#1191 -->
<g id="edge26" class="edge"><title>configuration-modules-core#1299-&gt;configuration-modules-core#1191</title>
<path fill="none" stroke="black" stroke-width="2" d="M516.055,-1195C546.811,-1195 582.215,-1195 615.951,-1195"/>
<polygon fill="black" stroke="black" points="616.361,-1198.5 626.361,-1195 616.361,-1191.5 616.361,-1198.5"/>
<text text-anchor="middle" x="589" y="-1199" font-family="Sans" font-size="10.00">fixes</text>
</g>
<!-- configuration&#45;modules&#45;core#1279 -->
<g id="node37" class="node"><title>configuration-modules-core#1279</title>
<a xlink:href="https://github.com/quattor/configuration-modules-core/pull/1279" xlink:title="ncm-metaconfig: ganeshav2 add include" target="_parent">
<polygon fill="#6e5494" stroke="black" points="516,-1128 344,-1128 344,-1074 516,-1074 516,-1128"/>
<text text-anchor="middle" x="430" y="-1105" font-family="Sans" font-size="10.00">pull-request</text>
<text text-anchor="middle" x="430" y="-1092" font-family="Sans" font-size="10.00">configuration-modules-core#1279</text>
</a>
</g>
<!-- configuration&#45;modules&#45;core#1276 -->
<g id="node39" class="node"><title>configuration-modules-core#1276</title>
<a xlink:href="https://github.com/quattor/configuration-modules-core/issues/1276" xlink:title="ncm-metaconfig: Ganesha v2 %include option is missing" target="_parent">
<ellipse fill="#bd2c00" stroke="black" cx="748" cy="-1101" rx="121.122" ry="38.1838"/>
<text text-anchor="middle" x="748" y="-1105" font-family="Sans" font-size="10.00">issue</text>
<text text-anchor="middle" x="748" y="-1092" font-family="Sans" font-size="10.00">configuration-modules-core#1276</text>
</a>
</g>
<!-- configuration&#45;modules&#45;core#1279&#45;&gt;configuration&#45;modules&#45;core#1276 -->
<g id="edge28" class="edge"><title>configuration-modules-core#1279-&gt;configuration-modules-core#1276</title>
<path fill="none" stroke="black" stroke-width="2" d="M516.055,-1101C546.811,-1101 582.215,-1101 615.951,-1101"/>
<polygon fill="black" stroke="black" points="616.361,-1104.5 626.361,-1101 616.361,-1097.5 616.361,-1104.5"/>
<text text-anchor="middle" x="589" y="-1105" font-family="Sans" font-size="10.00">fixes</text>
</g>
<!-- configuration&#45;modules&#45;core#1261 -->
<g id="node40" class="node"><title>configuration-modules-core#1261</title>
<a xlink:href="https://github.com/quattor/configuration-modules-core/pull/1261" xlink:title="ncm-openstack: Include ovs and storage support" target="_parent">
<polygon fill="#6cc644" stroke="black" points="516,-982 344,-982 344,-928 516,-928 516,-982"/>
<text text-anchor="middle" x="430" y="-959" font-family="Sans" font-size="10.00">pull-request</text>
<text text-anchor="middle" x="430" y="-946" font-family="Sans" font-size="10.00">configuration-modules-core#1261</text>
</a>
</g>
<!-- configuration&#45;modules&#45;core#1310 -->
<g id="node42" class="node"><title>configuration-modules-core#1310</title>
<a xlink:href="https://github.com/quattor/configuration-modules-core/issues/1310" xlink:title="ncm-openstack: add Heat service support" target="_parent">
<ellipse fill="#6cc644" stroke="black" cx="748" cy="-913" rx="121.122" ry="38.1838"/>
<text text-anchor="middle" x="748" y="-917" font-family="Sans" font-size="10.00">issue</text>
<text text-anchor="middle" x="748" y="-904" font-family="Sans" font-size="10.00">configuration-modules-core#1310</text>
</a>
</g>
<!-- configuration&#45;modules&#45;core#1261&#45;&gt;configuration&#45;modules&#45;core#1310 -->
<g id="edge30" class="edge"><title>configuration-modules-core#1261-&gt;configuration-modules-core#1310</title>
<path fill="none" stroke="black" stroke-width="2" d="M516.055,-943.634C549.766,-939.182 589.062,-933.992 625.625,-929.163"/>
<polygon fill="black" stroke="black" points="626.402,-932.591 635.858,-927.811 625.486,-925.651 626.402,-932.591"/>
<text text-anchor="middle" x="589" y="-940" font-family="Sans" font-size="10.00">fixes</text>
</g>
<!-- configuration&#45;modules&#45;core#1315 -->
<g id="node44" class="node"><title>configuration-modules-core#1315</title>
<a xlink:href="https://github.com/quattor/configuration-modules-core/issues/1315" xlink:title="ncm-openstack: add murano service support" target="_parent">
<ellipse fill="#6cc644" stroke="black" cx="748" cy="-1007" rx="121.122" ry="38.1838"/>
<text text-anchor="middle" x="748" y="-1011" font-family="Sans" font-size="10.00">issue</text>
<text text-anchor="middle" x="748" y="-998" font-family="Sans" font-size="10.00">configuration-modules-core#1315</text>
</a>
</g>
<!-- configuration&#45;modules&#45;core#1261&#45;&gt;configuration&#45;modules&#45;core#1315 -->
<g id="edge32" class="edge"><title>configuration-modules-core#1261-&gt;configuration-modules-core#1315</title>
<path fill="none" stroke="black" stroke-width="2" d="M516.055,-969.072C551.176,-974.815 592.36,-981.549 630.199,-987.737"/>
<polygon fill="black" stroke="black" points="629.823,-991.222 640.257,-989.382 630.952,-984.314 629.823,-991.222"/>
<text text-anchor="middle" x="589" y="-987" font-family="Sans" font-size="10.00">fixes</text>
</g>
<!-- configuration&#45;modules&#45;core#1255 -->
<g id="node45" class="node"><title>configuration-modules-core#1255</title>
<a xlink:href="https://github.com/quattor/configuration-modules-core/pull/1255" xlink:title=" ncm-metaconfig: add irods config files" target="_parent">
<polygon fill="#6cc644" stroke="black" points="516,-1681 344,-1681 344,-1627 516,-1627 516,-1681"/>
<text text-anchor="middle" x="430" y="-1658" font-family="Sans" font-size="10.00">pull-request</text>
<text text-anchor="middle" x="430" y="-1645" font-family="Sans" font-size="10.00">configuration-modules-core#1255</text>
</a>
</g>
<!-- configuration&#45;modules&#45;core#1255&#45;&gt;CCM#186 -->
<g id="edge36" class="edge"><title>configuration-modules-core#1255-&gt;CCM#186</title>
<path fill="none" stroke="black" stroke-dasharray="5,2" d="M516.007,-1651.59C545.206,-1651.03 578.022,-1650.68 608,-1651 637.938,-1651.32 671.471,-1652.03 698.212,-1652.67"/>
<polygon fill="none" stroke="black" points="698.394,-1656.18 708.477,-1652.93 698.567,-1649.18 698.394,-1656.18"/>
<text text-anchor="middle" x="589" y="-1655" font-family="Sans" font-size="10.00">requires</text>
</g>
<!-- configuration&#45;modules&#45;core#1255&#45;&gt;CAF#265 -->
<g id="edge34" class="edge"><title>configuration-modules-core#1255-&gt;CAF#265</title>
<path fill="none" stroke="black" stroke-dasharray="5,2" d="M516.459,-1672.5C550.45,-1679.08 589.908,-1685.88 626,-1690 741.814,-1703.23 771.464,-1699.33 888,-1702 903.996,-1702.37 908.045,-1703.2 924,-1702 926.517,-1701.81 929.096,-1701.57 931.695,-1701.3"/>
<polygon fill="none" stroke="black" points="932.228,-1704.76 941.732,-1700.08 931.383,-1697.81 932.228,-1704.76"/>
<text text-anchor="middle" x="748" y="-1706" font-family="Sans" font-size="10.00">requires</text>
</g>
<!-- configuration&#45;modules&#45;core#1336 -->
<g id="node48" class="node"><title>configuration-modules-core#1336</title>
<a xlink:href="https://github.com/quattor/configuration-modules-core/pull/1336" xlink:title="ncm-network: Add support for CAF::Service actions after changes" target="_parent">
<polygon fill="#6cc644" stroke="black" points="204,-402 32,-402 32,-348 204,-348 204,-402"/>
<text text-anchor="middle" x="118" y="-379" font-family="Sans" font-size="10.00">pull-request</text>
<text text-anchor="middle" x="118" y="-366" font-family="Sans" font-size="10.00">configuration-modules-core#1336</text>
</a>
</g>
<!-- configuration&#45;modules&#45;core#1335 -->
<g id="node50" class="node"><title>configuration-modules-core#1335</title>
<a xlink:href="https://github.com/quattor/configuration-modules-core/pull/1335" xlink:title="ncm-metaconfig: Remove caf_service_action type to allow reuse" target="_parent">
<polygon fill="#6cc644" stroke="black" points="516,-258 344,-258 344,-204 516,-204 516,-258"/>
<text text-anchor="middle" x="430" y="-235" font-family="Sans" font-size="10.00">pull-request</text>
<text text-anchor="middle" x="430" y="-222" font-family="Sans" font-size="10.00">configuration-modules-core#1335</text>
</a>
</g>
<!-- configuration&#45;modules&#45;core#1336&#45;&gt;configuration&#45;modules&#45;core#1335 -->
<g id="edge38" class="edge"><title>configuration-modules-core#1336-&gt;configuration-modules-core#1335</title>
<path fill="none" stroke="black" stroke-dasharray="5,2" d="M176.685,-347.915C229.332,-323.616 306.599,-287.955 361.938,-262.413"/>
<polygon fill="none" stroke="black" points="363.701,-265.454 371.314,-258.086 360.767,-259.099 363.701,-265.454"/>
<text text-anchor="middle" x="272" y="-316" font-family="Sans" font-size="10.00">requires</text>
</g>
<!-- configuration&#45;modules&#45;core#1071 -->
<g id="node52" class="node"><title>configuration-modules-core#1071</title>
<a xlink:href="https://github.com/quattor/configuration-modules-core/issues/1071" xlink:title="ncm-network: support daemons to restart after network changes" target="_parent">
<ellipse fill="#6cc644" stroke="black" cx="430" cy="-770" rx="121.122" ry="38.1838"/>
<text text-anchor="middle" x="430" y="-774" font-family="Sans" font-size="10.00">issue</text>
<text text-anchor="middle" x="430" y="-761" font-family="Sans" font-size="10.00">configuration-modules-core#1071</text>
</a>
</g>
<!-- configuration&#45;modules&#45;core#1336&#45;&gt;configuration&#45;modules&#45;core#1071 -->
<g id="edge40" class="edge"><title>configuration-modules-core#1336-&gt;configuration-modules-core#1071</title>
<path fill="none" stroke="black" stroke-width="2" d="M124.899,-402.344C142.658,-467.294 196.013,-632.178 300,-723 308.096,-730.071 317.338,-736.106 327.078,-741.252"/>
<polygon fill="black" stroke="black" points="325.628,-744.44 336.144,-745.732 328.729,-738.164 325.628,-744.44"/>
<text text-anchor="middle" x="272" y="-713" font-family="Sans" font-size="10.00">fixes</text>
</g>
<!-- template&#45;library&#45;core#191 -->
<g id="node54" class="node"><title>template-library-core#191</title>
<a xlink:href="https://github.com/quattor/template-library-core/pull/191" xlink:title="Allow the caf_service_action to be used by multiple components" target="_parent">
<polygon fill="#6cc644" stroke="black" points="817,-199 679,-199 679,-145 817,-145 817,-199"/>
<text text-anchor="middle" x="748" y="-176" font-family="Sans" font-size="10.00">pull-request</text>
<text text-anchor="middle" x="748" y="-163" font-family="Sans" font-size="10.00">template-library-core#191</text>
</a>
</g>
<!-- configuration&#45;modules&#45;core#1335&#45;&gt;template&#45;library&#45;core#191 -->
<g id="edge42" class="edge"><title>configuration-modules-core#1335-&gt;template-library-core#191</title>
<path fill="none" stroke="black" stroke-dasharray="5,2" d="M516.158,-212.627C533.937,-208.983 552.557,-205.275 570,-202 602.1,-195.973 637.564,-189.881 668.334,-184.776"/>
<polygon fill="none" stroke="black" points="669.281,-188.167 678.577,-183.084 668.14,-181.26 669.281,-188.167"/>
<text text-anchor="middle" x="589" y="-206" font-family="Sans" font-size="10.00">requires</text>
</g>
<!-- configuration&#45;modules&#45;core#1148 -->
<g id="node55" class="node"><title>configuration-modules-core#1148</title>
<a xlink:href="https://github.com/quattor/configuration-modules-core/pull/1148" xlink:title="ncm-spma: Remove support from groups from spma yumng backend" target="_parent">
<polygon fill="#6cc644" stroke="black" points="204,-1938 32,-1938 32,-1884 204,-1884 204,-1938"/>
<text text-anchor="middle" x="118" y="-1915" font-family="Sans" font-size="10.00">pull-request</text>
<text text-anchor="middle" x="118" y="-1902" font-family="Sans" font-size="10.00">configuration-modules-core#1148</text>
</a>
</g>
<!-- configuration&#45;modules&#45;core#952 -->
<g id="node57" class="node"><title>configuration-modules-core#952</title>
<a xlink:href="https://github.com/quattor/configuration-modules-core/issues/952" xlink:title="ncm-spma (yumng): Remove support for package groups" target="_parent">
<ellipse fill="#6cc644" stroke="black" cx="430" cy="-1911" rx="118.087" ry="38.1838"/>
<text text-anchor="middle" x="430" y="-1915" font-family="Sans" font-size="10.00">issue</text>
<text text-anchor="middle" x="430" y="-1902" font-family="Sans" font-size="10.00">configuration-modules-core#952</text>
</a>
</g>
<!-- configuration&#45;modules&#45;core#1148&#45;&gt;configuration&#45;modules&#45;core#952 -->
<g id="edge44" class="edge"><title>configuration-modules-core#1148-&gt;configuration-modules-core#952</title>
<path fill="none" stroke="black" stroke-width="2" d="M204.081,-1911C234.24,-1911 268.794,-1911 301.657,-1911"/>
<polygon fill="black" stroke="black" points="301.795,-1914.5 311.795,-1911 301.795,-1907.5 301.795,-1914.5"/>
<text text-anchor="middle" x="272" y="-1915" font-family="Sans" font-size="10.00">fixes</text>
</g>
<!-- configuration&#45;modules&#45;core#950 -->
<g id="node58" class="node"><title>configuration-modules-core#950</title>
<a xlink:href="https://github.com/quattor/configuration-modules-core/issues/950" xlink:title="ncm-spma: Remove support for package groups from yum backends" target="_parent">
<ellipse fill="#6cc644" stroke="black" cx="118" cy="-1826" rx="118.087" ry="38.1838"/>
<text text-anchor="middle" x="118" y="-1830" font-family="Sans" font-size="10.00">issue</text>
<text text-anchor="middle" x="118" y="-1817" font-family="Sans" font-size="10.00">configuration-modules-core#950</text>
</a>
</g>
<!-- configuration&#45;modules&#45;core#950&#45;&gt;configuration&#45;modules&#45;core#952 -->
<g id="edge48" class="edge"><title>configuration-modules-core#950-&gt;configuration-modules-core#952</title>
<path fill="none" stroke="black" stroke-dasharray="5,2" d="M208.243,-1850.59C246.32,-1860.96 290.794,-1873.08 329.877,-1883.72"/>
<polygon fill="none" stroke="black" points="329.121,-1887.14 339.69,-1886.4 330.961,-1880.39 329.121,-1887.14"/>
<text text-anchor="middle" x="272" y="-1876" font-family="Sans" font-size="10.00">requires</text>
</g>
<!-- configuration&#45;modules&#45;core#951 -->
<g id="node60" class="node"><title>configuration-modules-core#951</title>
<a xlink:href="https://github.com/quattor/configuration-modules-core/issues/951" xlink:title="ncm-spma (yum): Remove support for package groups" target="_parent">
<ellipse fill="#6cc644" stroke="black" cx="430" cy="-1817" rx="118.087" ry="38.1838"/>
<text text-anchor="middle" x="430" y="-1821" font-family="Sans" font-size="10.00">issue</text>
<text text-anchor="middle" x="430" y="-1808" font-family="Sans" font-size="10.00">configuration-modules-core#951</text>
</a>
</g>
<!-- configuration&#45;modules&#45;core#950&#45;&gt;configuration&#45;modules&#45;core#951 -->
<g id="edge46" class="edge"><title>configuration-modules-core#950-&gt;configuration-modules-core#951</title>
<path fill="none" stroke="black" stroke-dasharray="5,2" d="M235.954,-1822.6C257.652,-1821.97 280.397,-1821.32 302.365,-1820.68"/>
<polygon fill="none" stroke="black" points="302.502,-1824.18 312.397,-1820.39 302.3,-1817.18 302.502,-1824.18"/>
<text text-anchor="middle" x="272" y="-1827" font-family="Sans" font-size="10.00">requires</text>
</g>
<!-- ncm&#45;lib&#45;blockdevices#91 -->
<g id="node62" class="node"><title>ncm-lib-blockdevices#91</title>
<a xlink:href="https://github.com/quattor/ncm-lib-blockdevices/pull/91" xlink:title="Filesystem.pm: add option -f to mkfs.xfs" target="_parent">
<polygon fill="#6e5494" stroke="black" points="498,-880 362,-880 362,-826 498,-826 498,-880"/>
<text text-anchor="middle" x="430" y="-857" font-family="Sans" font-size="10.00">pull-request</text>
<text text-anchor="middle" x="430" y="-844" font-family="Sans" font-size="10.00">ncm-lib-blockdevices#91</text>
</a>
</g>
<!-- ncm&#45;lib&#45;blockdevices#90 -->
<g id="node64" class="node"><title>ncm-lib-blockdevices#90</title>
<a xlink:href="https://github.com/quattor/ncm-lib-blockdevices/issues/90" xlink:title="Filesystem: mkfs.xfs should be used with -f" target="_parent">
<ellipse fill="#bd2c00" stroke="black" cx="748" cy="-819" rx="96.1665" ry="38.1838"/>
<text text-anchor="middle" x="748" y="-823" font-family="Sans" font-size="10.00">issue</text>
<text text-anchor="middle" x="748" y="-810" font-family="Sans" font-size="10.00">ncm-lib-blockdevices#90</text>
</a>
</g>
<!-- ncm&#45;lib&#45;blockdevices#91&#45;&gt;ncm&#45;lib&#45;blockdevices#90 -->
<g id="edge50" class="edge"><title>ncm-lib-blockdevices#91-&gt;ncm-lib-blockdevices#90</title>
<path fill="none" stroke="black" stroke-width="2" d="M498.219,-845.706C540.984,-841.134 596.926,-835.153 645.024,-830.01"/>
<polygon fill="black" stroke="black" points="645.59,-833.47 655.161,-828.926 644.846,-826.509 645.59,-833.47"/>
<text text-anchor="middle" x="589" y="-842" font-family="Sans" font-size="10.00">fixes</text>
</g>
<!-- ncm&#45;ncd#117 -->
<g id="node65" class="node"><title>ncm-ncd#117</title>
<a xlink:href="https://github.com/quattor/ncm-ncd/pull/117" xlink:title="Allow component modules to be loaded from any path" target="_parent">
<polygon fill="#6e5494" stroke="black" points="473,-714 387,-714 387,-660 473,-660 473,-714"/>
<text text-anchor="middle" x="430" y="-691" font-family="Sans" font-size="10.00">pull-request</text>
<text text-anchor="middle" x="430" y="-678" font-family="Sans" font-size="10.00">ncm-ncd#117</text>
</a>
</g>
<!-- ncm&#45;ncd#116 -->
<g id="node67" class="node"><title>ncm-ncd#116</title>
<a xlink:href="https://github.com/quattor/ncm-ncd/issues/116" xlink:title="hasFile() prevents component modules from being relocated" target="_parent">
<ellipse fill="#bd2c00" stroke="black" cx="748" cy="-725" rx="61.0181" ry="38.1838"/>
<text text-anchor="middle" x="748" y="-729" font-family="Sans" font-size="10.00">issue</text>
<text text-anchor="middle" x="748" y="-716" font-family="Sans" font-size="10.00">ncm-ncd#116</text>
</a>
</g>
<!-- ncm&#45;ncd#117&#45;&gt;ncm&#45;ncd#116 -->
<g id="edge52" class="edge"><title>ncm-ncd#117-&gt;ncm-ncd#116</title>
<path fill="none" stroke="black" stroke-width="2" d="M473.55,-692.204C526.079,-698.481 615.082,-709.117 677.453,-716.57"/>
<polygon fill="black" stroke="black" points="677.266,-720.072 687.611,-717.784 678.097,-713.122 677.266,-720.072"/>
<text text-anchor="middle" x="589" y="-712" font-family="Sans" font-size="10.00">fixes</text>
</g>
<!-- template&#45;library&#45;core#187 -->
<g id="node68" class="node"><title>template-library-core#187</title>
<a xlink:href="https://github.com/quattor/template-library-core/pull/187" xlink:title="pan/types: fix incorrect regexp for linux_capability" target="_parent">
<polygon fill="#6e5494" stroke="black" points="499,-642 361,-642 361,-588 499,-588 499,-642"/>
<text text-anchor="middle" x="430" y="-619" font-family="Sans" font-size="10.00">pull-request</text>
<text text-anchor="middle" x="430" y="-606" font-family="Sans" font-size="10.00">template-library-core#187</text>
</a>
</g>
<!-- template&#45;library&#45;core#186 -->
<g id="node70" class="node"><title>template-library-core#186</title>
<a xlink:href="https://github.com/quattor/template-library-core/issues/186" xlink:title="18.6.0: linux_capability type regexp incorrect" target="_parent">
<ellipse fill="#bd2c00" stroke="black" cx="748" cy="-631" rx="97.0803" ry="38.1838"/>
<text text-anchor="middle" x="748" y="-635" font-family="Sans" font-size="10.00">issue</text>
<text text-anchor="middle" x="748" y="-622" font-family="Sans" font-size="10.00">template-library-core#186</text>
</a>
</g>
<!-- template&#45;library&#45;core#187&#45;&gt;template&#45;library&#45;core#186 -->
<g id="edge54" class="edge"><title>template-library-core#187-&gt;template-library-core#186</title>
<path fill="none" stroke="black" stroke-width="2" d="M499.001,-618.472C540.44,-620.557 594.041,-623.254 640.89,-625.611"/>
<polygon fill="black" stroke="black" points="640.923,-629.117 651.086,-626.124 641.275,-622.126 640.923,-629.117"/>
<text text-anchor="middle" x="589" y="-628" font-family="Sans" font-size="10.00">fixes</text>
</g>
<!-- template&#45;library&#45;grid#215 -->
<g id="node71" class="node"><title>template-library-grid#215</title>
<a xlink:href="https://github.com/quattor/template-library-grid/pull/215" xlink:title="Committing changes running in production at GRIF" target="_parent">
<polygon fill="#6e5494" stroke="black" points="497,-564 363,-564 363,-510 497,-510 497,-564"/>
<text text-anchor="middle" x="430" y="-541" font-family="Sans" font-size="10.00">pull-request</text>
<text text-anchor="middle" x="430" y="-528" font-family="Sans" font-size="10.00">template-library-grid#215</text>
</a>
</g>
<!-- template&#45;library&#45;grid#214 -->
<g id="node73" class="node"><title>template-library-grid#214</title>
<a xlink:href="https://github.com/quattor/template-library-grid/issues/214" xlink:title="features/htcondor/server/groups: voms-clients package renamed" target="_parent">
<ellipse fill="#bd2c00" stroke="black" cx="748" cy="-537" rx="94.9596" ry="38.1838"/>
<text text-anchor="middle" x="748" y="-541" font-family="Sans" font-size="10.00">issue</text>
<text text-anchor="middle" x="748" y="-528" font-family="Sans" font-size="10.00">template-library-grid#214</text>
</a>
</g>
<!-- template&#45;library&#45;grid#215&#45;&gt;template&#45;library&#45;grid#214 -->
<g id="edge56" class="edge"><title>template-library-grid#215-&gt;template-library-grid#214</title>
<path fill="none" stroke="black" stroke-width="2" d="M497.829,-537C539.807,-537 594.59,-537 642.187,-537"/>
<polygon fill="black" stroke="black" points="642.227,-540.5 652.227,-537 642.227,-533.5 642.227,-540.5"/>
<text text-anchor="middle" x="589" y="-541" font-family="Sans" font-size="10.00">fixes</text>
</g>
<!-- aquilon#115 -->
<g id="node74" class="node"><title>aquilon#115</title>
<a xlink:href="https://github.com/quattor/aquilon/pull/115" xlink:title="services: insert service data early in the object template" target="_parent">
<polygon fill="#6cc644" stroke="black" points="158,-2259 78,-2259 78,-2205 158,-2205 158,-2259"/>
<text text-anchor="middle" x="118" y="-2236" font-family="Sans" font-size="10.00">pull-request</text>
<text text-anchor="middle" x="118" y="-2223" font-family="Sans" font-size="10.00">aquilon#115</text>
</a>
</g>
<!-- aquilon#109 -->
<g id="node76" class="node"><title>aquilon#109</title>
<a xlink:href="https://github.com/quattor/aquilon/issues/109" xlink:title="Why service configuration is included so late in the plenary object?" target="_parent">
<ellipse fill="#6cc644" stroke="black" cx="430" cy="-2221" rx="56.0679" ry="38.1838"/>
<text text-anchor="middle" x="430" y="-2225" font-family="Sans" font-size="10.00">issue</text>
<text text-anchor="middle" x="430" y="-2212" font-family="Sans" font-size="10.00">aquilon#109</text>
</a>
</g>
<!-- aquilon#115&#45;&gt;aquilon#109 -->
<g id="edge58" class="edge"><title>aquilon#115-&gt;aquilon#109</title>
<path fill="none" stroke="black" stroke-width="2" d="M158.15,-2230.58C209.988,-2228.76 300.924,-2225.55 363.238,-2223.35"/>
<polygon fill="black" stroke="black" points="363.497,-2226.85 373.367,-2223 363.25,-2219.85 363.497,-2226.85"/>
<text text-anchor="middle" x="272" y="-2231" font-family="Sans" font-size="10.00">fixes</text>
</g>
<!-- aquilon#110 -->
<g id="node77" class="node"><title>aquilon#110</title>
<a xlink:href="https://github.com/quattor/aquilon/pull/110" xlink:title="Change site and machine namespace to use continent name" target="_parent">
<polygon fill="#6cc644" stroke="black" points="158,-2187 78,-2187 78,-2133 158,-2133 158,-2187"/>
<text text-anchor="middle" x="118" y="-2164" font-family="Sans" font-size="10.00">pull-request</text>
<text text-anchor="middle" x="118" y="-2151" font-family="Sans" font-size="10.00">aquilon#110</text>
</a>
</g>
<!-- aquilon#104 -->
<g id="node79" class="node"><title>aquilon#104</title>
<a xlink:href="https://github.com/quattor/aquilon/issues/104" xlink:title="1.12.62: location related templates cannot be used" target="_parent">
<ellipse fill="#6cc644" stroke="black" cx="430" cy="-2114" rx="56.0679" ry="38.1838"/>
<text text-anchor="middle" x="430" y="-2118" font-family="Sans" font-size="10.00">issue</text>
<text text-anchor="middle" x="430" y="-2105" font-family="Sans" font-size="10.00">aquilon#104</text>
</a>
</g>
<!-- aquilon#110&#45;&gt;aquilon#104 -->
<g id="edge60" class="edge"><title>aquilon#110-&gt;aquilon#104</title>
<path fill="none" stroke="black" stroke-width="2" d="M158.15,-2154.08C210.377,-2146.38 302.294,-2132.83 364.639,-2123.64"/>
<polygon fill="black" stroke="black" points="365.381,-2127.07 374.764,-2122.14 364.36,-2120.14 365.381,-2127.07"/>
<text text-anchor="middle" x="272" y="-2143" font-family="Sans" font-size="10.00">fixes</text>
</g>
<!-- aquilon#91 -->
<g id="node80" class="node"><title>aquilon#91</title>
<a xlink:href="https://github.com/quattor/aquilon/issues/91" xlink:title="1.12.58: city timezone is not passed to the object template" target="_parent">
<ellipse fill="#6cc644" stroke="black" cx="118" cy="-2077" rx="53.033" ry="38.1838"/>
<text text-anchor="middle" x="118" y="-2081" font-family="Sans" font-size="10.00">issue</text>
<text text-anchor="middle" x="118" y="-2068" font-family="Sans" font-size="10.00">aquilon#91</text>
</a>
</g>
<!-- aquilon#91&#45;&gt;aquilon#104 -->
<g id="edge62" class="edge"><title>aquilon#91-&gt;aquilon#104</title>
<path fill="none" stroke="black" stroke-dasharray="5,2" d="M170.574,-2083.23C223.901,-2089.56 306.574,-2099.36 364.213,-2106.2"/>
<polygon fill="none" stroke="black" points="363.97,-2109.69 374.313,-2107.4 364.795,-2102.74 363.97,-2109.69"/>
<text text-anchor="middle" x="272" y="-2100" font-family="Sans" font-size="10.00">requires</text>
</g>
<!-- aquilon#89 -->
<g id="node82" class="node"><title>aquilon#89</title>
<a xlink:href="https://github.com/quattor/aquilon/pull/89" xlink:title="Broker: pass archetype to the object profile" target="_parent">
<polygon fill="#6cc644" stroke="black" points="157,-2021 79,-2021 79,-1967 157,-1967 157,-2021"/>
<text text-anchor="middle" x="118" y="-1998" font-family="Sans" font-size="10.00">pull-request</text>
<text text-anchor="middle" x="118" y="-1985" font-family="Sans" font-size="10.00">aquilon#89</text>
</a>
</g>
<!-- aquilon#88 -->
<g id="node84" class="node"><title>aquilon#88</title>
<a xlink:href="https://github.com/quattor/aquilon/issues/88" xlink:title="1.12.58: the broker should pass the archetype to the object template" target="_parent">
<ellipse fill="#6cc644" stroke="black" cx="430" cy="-2005" rx="53.033" ry="38.1838"/>
<text text-anchor="middle" x="430" y="-2009" font-family="Sans" font-size="10.00">issue</text>
<text text-anchor="middle" x="430" y="-1996" font-family="Sans" font-size="10.00">aquilon#88</text>
</a>
</g>
<!-- aquilon#89&#45;&gt;aquilon#88 -->
<g id="edge64" class="edge"><title>aquilon#89-&gt;aquilon#88</title>
<path fill="none" stroke="black" stroke-width="2" d="M157.515,-1995.39C210.249,-1997.25 304.241,-2000.57 366.856,-2002.77"/>
<polygon fill="black" stroke="black" points="366.891,-2006.28 377.009,-2003.13 367.138,-1999.28 366.891,-2006.28"/>
<text text-anchor="middle" x="272" y="-2004" font-family="Sans" font-size="10.00">fixes</text>
</g>
</g>
</svg>
