<?xml version="1.0" encoding="UTF-8" standalone="no"?>
<?xml-stylesheet href="relationships.css" type="text/css"?>
<!-- Generated by graphviz version 2.30.1 (20200930.0103)
 -->
<!-- Title: Dependencies Pages: 1 -->
<svg xmlns="http://www.w3.org/2000/svg" xmlns:xlink="http://www.w3.org/1999/xlink" width="840pt" height="1417pt" viewBox="0.00 0.00 840.00 1417.00">
<g id="graph0" class="graph" transform="scale(1 1) rotate(0) translate(4 1413)">
<title>Dependencies</title>
<polygon fill="white" stroke="white" points="-4,5 -4,-1413 837,-1413 837,5 -4,5"/>
<g id="clust2" class="cluster"><title>cluster_milestone_23.10</title>
<polygon fill="none" stroke="black" points="8,-576 8,-1003 529,-1003 529,-576 8,-576"/>
<text text-anchor="middle" x="268.5" y="-989.4" font-family="Sans" font-size="12.00">23.10</text>
</g>
<g id="clust1" class="cluster"><title>cluster_milestone_23.next</title>
<polygon fill="none" stroke="black" points="322,-47 322,-338 824,-338 824,-47 322,-47"/>
<text text-anchor="middle" x="573" y="-324.4" font-family="Sans" font-size="12.00">23.next</text>
</g>
<!-- aii#328 -->
<g id="node1" class="node"><title>aii#328</title>
<g id="a_node1"><a xlink:href="https://github.com/quattor/aii/pull/328" xlink:title="aii#328 (pull-request)" target="_parent">
<polygon fill="#6cc644" stroke="black" points="514,-105 332,-105 332,-55 514,-55 514,-105"/>
<text text-anchor="middle" x="423" y="-83" font-family="Sans" font-size="10.00">aii-ks: generate ks post section</text>
<text text-anchor="middle" x="423" y="-72" font-family="Sans" font-size="10.00">as standalone script</text>
</a>
</g>
</g>
<!-- aii#280 -->
<g id="node2" class="node"><title>aii#280</title>
<polygon fill="lightgrey" stroke="black" points="756.5,-388.5 689.5,-388.5 689.5,-349.5 756.5,-349.5 756.5,-388.5"/>
<text text-anchor="middle" x="723" y="-366.5" font-family="Sans" font-size="10.00">aii#280</text>
</g>
<!-- aii#328&#45;&gt;aii#280 -->
<g id="edge1" class="edge"><title>aii#328-&gt;aii#280</title>
<path fill="none" stroke="black" stroke-dasharray="5,2" d="M514.026,-103.111C519.388,-106.285 524.445,-109.895 529,-114 611.331,-188.196 546.65,-268.951 630,-342 643.581,-353.902 662.172,-360.566 679.09,-364.293"/>
<polygon fill="none" stroke="black" points="678.867,-367.814 689.347,-366.255 680.182,-360.938 678.867,-367.814"/>
<text text-anchor="middle" x="560.202" y="-229.472" font-family="Sans" font-size="10.00">requires</text>
</g>
<!-- aii#316 -->
<g id="node3" class="node"><title>aii#316</title>
<polygon fill="lightgrey" stroke="black" points="756.5,-38.5 689.5,-38.5 689.5,0.5 756.5,0.5 756.5,-38.5"/>
<text text-anchor="middle" x="723" y="-16.5" font-family="Sans" font-size="10.00">aii#316</text>
</g>
<!-- aii#328&#45;&gt;aii#316 -->
<g id="edge2" class="edge"><title>aii#328-&gt;aii#316</title>
<path fill="none" stroke="black" stroke-dasharray="5,2" d="M514.219,-61.5324C569.092,-50.3 636.632,-36.4747 679.512,-27.6973"/>
<polygon fill="none" stroke="black" points="680.235,-31.1219 689.33,-25.6875 678.831,-24.2641 680.235,-31.1219"/>
<text text-anchor="middle" x="582.044" y="-35.5547" font-family="Sans" font-size="10.00">requires</text>
</g>
<!-- aii#331 -->
<g id="node4" class="node"><title>aii#331</title>
<g id="a_node4"><a xlink:href="https://github.com/quattor/aii/pull/331" xlink:title="aii#331 (pull-request)" target="_parent">
<polygon fill="#6cc644" stroke="black" points="187,-110.5 45,-110.5 45,-49.5 187,-49.5 187,-110.5"/>
<text text-anchor="middle" x="116" y="-88.5" font-family="Sans" font-size="10.00">let aii generate ansible</text>
<text text-anchor="middle" x="116" y="-77.5" font-family="Sans" font-size="10.00">playbook for supported</text>
<text text-anchor="middle" x="116" y="-66.5" font-family="Sans" font-size="10.00">components</text>
</a>
</g>
</g>
<!-- aii#331&#45;&gt;aii#328 -->
<g id="edge3" class="edge"><title>aii#331-&gt;aii#328</title>
<path fill="none" stroke="black" stroke-dasharray="5,2" d="M187.356,-80C227.18,-80 277.656,-80 321.581,-80"/>
<polygon fill="none" stroke="black" points="321.718,-83.5001 331.718,-80 321.718,-76.5001 321.718,-83.5001"/>
<text text-anchor="middle" x="239.436" y="-72" font-family="Sans" font-size="10.00">requires</text>
</g>
<!-- aii#299 -->
<g id="node5" class="node"><title>aii#299</title>
<g id="a_node5"><a xlink:href="https://github.com/quattor/aii/pull/299" xlink:title="aii#299 (pull-request)" target="_parent">
<polygon fill="#6cc644" stroke="black" points="499.5,-396 346.5,-396 346.5,-346 499.5,-346 499.5,-396"/>
<text text-anchor="middle" x="423" y="-374" font-family="Sans" font-size="10.00">aii-dhcp: support optional</text>
<text text-anchor="middle" x="423" y="-363" font-family="Sans" font-size="10.00">hostname ip verification</text>
</a>
</g>
</g>
<!-- aii#299&#45;&gt;aii#280 -->
<g id="edge4" class="edge"><title>aii#299-&gt;aii#280</title>
<path fill="none" stroke="black" stroke-dasharray="5,2" d="M499.583,-370.493C556.493,-370.111 632.452,-369.601 679.255,-369.287"/>
<polygon fill="none" stroke="black" points="679.377,-372.786 689.353,-369.219 679.33,-365.786 679.377,-372.786"/>
<text text-anchor="middle" x="574.332" y="-361.857" font-family="Sans" font-size="10.00">requires</text>
</g>
<!-- CAF#277 -->
<g id="node6" class="node"><title>CAF#277</title>
<g id="a_node6"><a xlink:href="https://github.com/quattor/CAF/pull/277" xlink:title="CAF#277 (pull-request)" target="_parent">
<polygon fill="#6cc644" stroke="black" points="515.5,-309 330.5,-309 330.5,-259 515.5,-259 515.5,-309"/>
<text text-anchor="middle" x="423" y="-287" font-family="Sans" font-size="10.00">Replace four instances of while-</text>
<text text-anchor="middle" x="423" y="-276" font-family="Sans" font-size="10.00">each with foreach</text>
</a>
</g>
</g>
<!-- CAF#109 -->
<g id="node7" class="node"><title>CAF#109</title>
<g id="a_node7"><a xlink:href="https://github.com/quattor/CAF/issues/109" xlink:title="CAF#109 (issue)" target="_parent">
<path fill="#6cc644" stroke="black" d="M792.5,-309C792.5,-309 653.5,-309 653.5,-309 647.5,-309 641.5,-303 641.5,-297 641.5,-297 641.5,-271 641.5,-271 641.5,-265 647.5,-259 653.5,-259 653.5,-259 792.5,-259 792.5,-259 798.5,-259 804.5,-265 804.5,-271 804.5,-271 804.5,-297 804.5,-297 804.5,-303 798.5,-309 792.5,-309"/>
<text text-anchor="middle" x="723" y="-287" font-family="Sans" font-size="10.00">review the current usage of</text>
<text text-anchor="middle" x="723" y="-276" font-family="Sans" font-size="10.00">`each`</text>
</a>
</g>
</g>
<!-- CAF#277&#45;&gt;CAF#109 -->
<g id="edge5" class="edge"><title>CAF#277-&gt;CAF#109</title>
<path fill="none" stroke="black" stroke-width="2" d="M515.841,-284C552.42,-284 594.415,-284 630.918,-284"/>
<polygon fill="black" stroke="black" points="631.059,-287.5 641.059,-284 631.059,-280.5 631.059,-287.5"/>
<text text-anchor="middle" x="566.469" y="-276" font-family="Sans" font-size="10.00">fixes</text>
</g>
<!-- CAF#257 -->
<g id="node8" class="node"><title>CAF#257</title>
<g id="a_node8"><a xlink:href="https://github.com/quattor/CAF/pull/257" xlink:title="CAF#257 (pull-request)" target="_parent">
<polygon fill="#6cc644" stroke="black" points="514.5,-241 331.5,-241 331.5,-191 514.5,-191 514.5,-241"/>
<text text-anchor="middle" x="423" y="-219" font-family="Sans" font-size="10.00">Process: run process as another</text>
<text text-anchor="middle" x="423" y="-208" font-family="Sans" font-size="10.00">user</text>
</a>
</g>
</g>
<!-- CAF#253 -->
<g id="node9" class="node"><title>CAF#253</title>
<g id="a_node9"><a xlink:href="https://github.com/quattor/CAF/issues/253" xlink:title="CAF#253 (issue)" target="_parent">
<path fill="#6cc644" stroke="black" d="M801,-240.5C801,-240.5 645,-240.5 645,-240.5 639,-240.5 633,-234.5 633,-228.5 633,-228.5 633,-191.5 633,-191.5 633,-185.5 639,-179.5 645,-179.5 645,-179.5 801,-179.5 801,-179.5 807,-179.5 813,-185.5 813,-191.5 813,-191.5 813,-228.5 813,-228.5 813,-234.5 807,-240.5 801,-240.5"/>
<text text-anchor="middle" x="723" y="-218.5" font-family="Sans" font-size="10.00">CAF::Process: Include an option</text>
<text text-anchor="middle" x="723" y="-207.5" font-family="Sans" font-size="10.00">to execute the command as an</text>
<text text-anchor="middle" x="723" y="-196.5" font-family="Sans" font-size="10.00">specific user</text>
</a>
</g>
</g>
<!-- CAF#257&#45;&gt;CAF#253 -->
<g id="edge6" class="edge"><title>CAF#257-&gt;CAF#253</title>
<path fill="none" stroke="black" stroke-width="2" d="M514.624,-214.175C548.755,-213.488 587.741,-212.703 622.629,-212.001"/>
<polygon fill="black" stroke="black" points="622.905,-215.496 632.832,-211.795 622.764,-208.497 622.905,-215.496"/>
<text text-anchor="middle" x="561.943" y="-204.981" font-family="Sans" font-size="10.00">fixes</text>
</g>
<!-- CAF#110 -->
<g id="node10" class="node"><title>CAF#110</title>
<g id="a_node10"><a xlink:href="https://github.com/quattor/CAF/pull/110" xlink:title="CAF#110 (pull-request)" target="_parent">
<polygon fill="#6cc644" stroke="black" points="191.5,-459 40.5,-459 40.5,-409 191.5,-409 191.5,-459"/>
<text text-anchor="middle" x="116" y="-437" font-family="Sans" font-size="10.00">CAF::Download class: API</text>
<text text-anchor="middle" x="116" y="-426" font-family="Sans" font-size="10.00">proposal</text>
</a>
</g>
</g>
<!-- CAF#120 -->
<g id="node11" class="node"><title>CAF#120</title>
<polygon fill="lightgrey" stroke="black" points="460,-453.5 386,-453.5 386,-414.5 460,-414.5 460,-453.5"/>
<text text-anchor="middle" x="423" y="-431.5" font-family="Sans" font-size="10.00">CAF#120</text>
</g>
<!-- CAF#110&#45;&gt;CAF#120 -->
<g id="edge7" class="edge"><title>CAF#110-&gt;CAF#120</title>
<path fill="none" stroke="black" stroke-dasharray="5,2" d="M191.611,-434C249.117,-434 326.821,-434 375.672,-434"/>
<polygon fill="none" stroke="black" points="375.94,-437.5 385.94,-434 375.939,-430.5 375.94,-437.5"/>
<text text-anchor="middle" x="268.803" y="-426" font-family="Sans" font-size="10.00">requires</text>
</g>
<!-- CCM#210 -->
<g id="node12" class="node"><title>CCM#210</title>
<g id="a_node12"><a xlink:href="https://github.com/quattor/CCM/pull/210" xlink:title="CCM#210 (pull-request)" target="_parent">
<polygon fill="#6e5494" stroke="black" points="194,-974 38,-974 38,-924 194,-924 194,-974"/>
<text text-anchor="middle" x="116" y="-952" font-family="Sans" font-size="10.00">Fetch: Remove suffix from</text>
<text text-anchor="middle" x="116" y="-941" font-family="Sans" font-size="10.00">downloaded profile</text>
</a>
</g>
</g>
<!-- CCM#204 -->
<g id="node13" class="node"><title>CCM#204</title>
<g id="a_node13"><a xlink:href="https://github.com/quattor/CCM/issues/204" xlink:title="CCM#204 (issue)" target="_parent">
<path fill="#6e5494" stroke="black" d="M502.5,-973.5C502.5,-973.5 343.5,-973.5 343.5,-973.5 337.5,-973.5 331.5,-967.5 331.5,-961.5 331.5,-961.5 331.5,-924.5 331.5,-924.5 331.5,-918.5 337.5,-912.5 343.5,-912.5 343.5,-912.5 502.5,-912.5 502.5,-912.5 508.5,-912.5 514.5,-918.5 514.5,-924.5 514.5,-924.5 514.5,-961.5 514.5,-961.5 514.5,-967.5 508.5,-973.5 502.5,-973.5"/>
<text text-anchor="middle" x="423" y="-951.5" font-family="Sans" font-size="10.00">Cached profiles always have an</text>
<text text-anchor="middle" x="423" y="-940.5" font-family="Sans" font-size="10.00">xml extension regardless of</text>
<text text-anchor="middle" x="423" y="-929.5" font-family="Sans" font-size="10.00">their content</text>
</a>
</g>
</g>
<!-- CCM#210&#45;&gt;CCM#204 -->
<g id="edge8" class="edge"><title>CCM#210-&gt;CCM#204</title>
<path fill="none" stroke="black" stroke-width="2" d="M194.359,-947.478C232.918,-946.72 280.021,-945.793 321.355,-944.98"/>
<polygon fill="black" stroke="black" points="321.525,-948.477 331.454,-944.781 321.387,-941.479 321.525,-948.477"/>
<text text-anchor="middle" x="250.945" y="-938.129" font-family="Sans" font-size="10.00">fixes</text>
</g>
<!-- configuration&#45;modules&#45;core#1630 -->
<g id="node14" class="node"><title>configuration-modules-core#1630</title>
<g id="a_node14"><a xlink:href="https://github.com/quattor/configuration-modules-core/pull/1630" xlink:title="configuration-modules-core#1630 (pull-request)" target="_parent">
<polygon fill="#6e5494" stroke="black" points="215.5,-906 16.5,-906 16.5,-856 215.5,-856 215.5,-906"/>
<text text-anchor="middle" x="116" y="-884" font-family="Sans" font-size="10.00">ncm-network: fix nmstate package</text>
<text text-anchor="middle" x="116" y="-873" font-family="Sans" font-size="10.00">definition in Kickstart config</text>
</a>
</g>
</g>
<!-- configuration&#45;modules&#45;core#1629 -->
<g id="node15" class="node"><title>configuration-modules-core#1629</title>
<g id="a_node15"><a xlink:href="https://github.com/quattor/configuration-modules-core/issues/1629" xlink:title="configuration-modules-core#1629 (issue)" target="_parent">
<path fill="#6e5494" stroke="black" d="M499.5,-894.5C499.5,-894.5 346.5,-894.5 346.5,-894.5 340.5,-894.5 334.5,-888.5 334.5,-882.5 334.5,-882.5 334.5,-845.5 334.5,-845.5 334.5,-839.5 340.5,-833.5 346.5,-833.5 346.5,-833.5 499.5,-833.5 499.5,-833.5 505.5,-833.5 511.5,-839.5 511.5,-845.5 511.5,-845.5 511.5,-882.5 511.5,-882.5 511.5,-888.5 505.5,-894.5 499.5,-894.5"/>
<text text-anchor="middle" x="423" y="-872.5" font-family="Sans" font-size="10.00">ncm-network nmstate: invalid</text>
<text text-anchor="middle" x="423" y="-861.5" font-family="Sans" font-size="10.00">package definition in Kickstart</text>
<text text-anchor="middle" x="423" y="-850.5" font-family="Sans" font-size="10.00">configuration</text>
</a>
</g>
</g>
<!-- configuration&#45;modules&#45;core#1630&#45;&gt;configuration&#45;modules&#45;core#1629 -->
<g id="edge9" class="edge"><title>configuration-modules-core#1630-&gt;configuration-modules-core#1629</title>
<path fill="none" stroke="black" stroke-width="2" d="M215.604,-869.144C250.374,-866.682 289.434,-864.509 324.142,-863.105"/>
<polygon fill="black" stroke="black" points="324.428,-866.597 334.285,-862.712 324.157,-859.602 324.428,-866.597"/>
<text text-anchor="middle" x="262.652" y="-857.466" font-family="Sans" font-size="10.00">fixes</text>
</g>
<!-- configuration&#45;modules&#45;core#1630&#45;&gt;configuration&#45;modules&#45;core#1629 -->
<g id="edge21" class="edge"><title>configuration-modules-core#1630-&gt;configuration-modules-core#1629</title>
<path fill="none" stroke="black" stroke-width="2" d="M215.604,-881.865C250.374,-880.45 289.434,-878.269 324.142,-875.803"/>
<polygon fill="black" stroke="black" points="324.566,-879.282 334.285,-875.066 324.058,-872.3 324.566,-879.282"/>
<text text-anchor="middle" x="263.084" y="-870.935" font-family="Sans" font-size="10.00">fixes</text>
</g>
<!-- configuration&#45;modules&#45;core#1622 -->
<g id="node16" class="node"><title>configuration-modules-core#1622</title>
<g id="a_node16"><a xlink:href="https://github.com/quattor/configuration-modules-core/pull/1622" xlink:title="configuration-modules-core#1622 (pull-request)" target="_parent">
<polygon fill="#6e5494" stroke="black" points="204.5,-838 27.5,-838 27.5,-788 204.5,-788 204.5,-838"/>
<text text-anchor="middle" x="116" y="-816" font-family="Sans" font-size="10.00">ncm-authconfig: sssd: Schema</text>
<text text-anchor="middle" x="116" y="-805" font-family="Sans" font-size="10.00">improvements</text>
</a>
</g>
</g>
<!-- configuration&#45;modules&#45;core#1471 -->
<g id="node17" class="node"><title>configuration-modules-core#1471</title>
<g id="a_node17"><a xlink:href="https://github.com/quattor/configuration-modules-core/issues/1471" xlink:title="configuration-modules-core#1471 (issue)" target="_parent">
<path fill="#6e5494" stroke="black" d="M497.5,-815C497.5,-815 348.5,-815 348.5,-815 342.5,-815 336.5,-809 336.5,-803 336.5,-803 336.5,-777 336.5,-777 336.5,-771 342.5,-765 348.5,-765 348.5,-765 497.5,-765 497.5,-765 503.5,-765 509.5,-771 509.5,-777 509.5,-777 509.5,-803 509.5,-803 509.5,-809 503.5,-815 497.5,-815"/>
<text text-anchor="middle" x="423" y="-793" font-family="Sans" font-size="10.00">ncm-authconfig: sssd: tighten</text>
<text text-anchor="middle" x="423" y="-782" font-family="Sans" font-size="10.00">types</text>
</a>
</g>
</g>
<!-- configuration&#45;modules&#45;core#1622&#45;&gt;configuration&#45;modules&#45;core#1471 -->
<g id="edge10" class="edge"><title>configuration-modules-core#1622-&gt;configuration-modules-core#1471</title>
<path fill="none" stroke="black" stroke-width="2" d="M204.809,-800.2C242.773,-796.625 287.302,-793.22 326.124,-790.912"/>
<polygon fill="black" stroke="black" points="326.605,-794.39 336.387,-790.32 326.202,-787.402 326.605,-794.39"/>
<text text-anchor="middle" x="258.491" y="-786.675" font-family="Sans" font-size="10.00">fixes</text>
</g>
<!-- configuration&#45;modules&#45;core#1622&#45;&gt;configuration&#45;modules&#45;core#1471 -->
<g id="edge22" class="edge"><title>configuration-modules-core#1622-&gt;configuration-modules-core#1471</title>
<path fill="none" stroke="black" stroke-width="2" d="M204.809,-812.557C242.773,-810.406 287.302,-807.095 326.124,-803.548"/>
<polygon fill="black" stroke="black" points="326.754,-807.005 336.387,-802.592 326.105,-800.035 326.754,-807.005"/>
<text text-anchor="middle" x="258.491" y="-800.175" font-family="Sans" font-size="10.00">fixes</text>
</g>
<!-- configuration&#45;modules&#45;core#1621 -->
<g id="node18" class="node"><title>configuration-modules-core#1621</title>
<g id="a_node18"><a xlink:href="https://github.com/quattor/configuration-modules-core/pull/1621" xlink:title="configuration-modules-core#1621 (pull-request)" target="_parent">
<polygon fill="#6e5494" stroke="black" points="211.5,-770 20.5,-770 20.5,-720 211.5,-720 211.5,-770"/>
<text text-anchor="middle" x="116" y="-748" font-family="Sans" font-size="10.00">ncm-nfs: Allow daemon to reload</text>
<text text-anchor="middle" x="116" y="-737" font-family="Sans" font-size="10.00">to be specified</text>
</a>
</g>
</g>
<!-- configuration&#45;modules&#45;core#1618 -->
<g id="node19" class="node"><title>configuration-modules-core#1618</title>
<g id="a_node19"><a xlink:href="https://github.com/quattor/configuration-modules-core/issues/1618" xlink:title="configuration-modules-core#1618 (issue)" target="_parent">
<path fill="#6e5494" stroke="black" d="M489.5,-747C489.5,-747 356.5,-747 356.5,-747 350.5,-747 344.5,-741 344.5,-735 344.5,-735 344.5,-709 344.5,-709 344.5,-703 350.5,-697 356.5,-697 356.5,-697 489.5,-697 489.5,-697 495.5,-697 501.5,-703 501.5,-709 501.5,-709 501.5,-735 501.5,-735 501.5,-741 495.5,-747 489.5,-747"/>
<text text-anchor="middle" x="423" y="-725" font-family="Sans" font-size="10.00">ncm-nfs: start service nfs-</text>
<text text-anchor="middle" x="423" y="-714" font-family="Sans" font-size="10.00">server instead of nfs</text>
</a>
</g>
</g>
<!-- configuration&#45;modules&#45;core#1621&#45;&gt;configuration&#45;modules&#45;core#1618 -->
<g id="edge11" class="edge"><title>configuration-modules-core#1621-&gt;configuration-modules-core#1618</title>
<path fill="none" stroke="black" stroke-width="2" d="M211.832,-731.547C250.84,-727.97 295.751,-724.623 334.017,-722.453"/>
<polygon fill="black" stroke="black" points="334.314,-725.942 344.107,-721.9 333.931,-718.953 334.314,-725.942"/>
<text text-anchor="middle" x="266.095" y="-718.111" font-family="Sans" font-size="10.00">fixes</text>
</g>
<!-- configuration&#45;modules&#45;core#1621&#45;&gt;configuration&#45;modules&#45;core#1618 -->
<g id="edge23" class="edge"><title>configuration-modules-core#1621-&gt;configuration-modules-core#1618</title>
<path fill="none" stroke="black" stroke-width="2" d="M211.832,-744.15C250.84,-741.844 295.751,-738.418 334.017,-734.816"/>
<polygon fill="black" stroke="black" points="334.488,-738.287 344.107,-733.847 333.819,-731.319 334.488,-738.287"/>
<text text-anchor="middle" x="266.095" y="-731.592" font-family="Sans" font-size="10.00">fixes</text>
</g>
<!-- configuration&#45;modules&#45;core#1620 -->
<g id="node20" class="node"><title>configuration-modules-core#1620</title>
<g id="a_node20"><a xlink:href="https://github.com/quattor/configuration-modules-core/pull/1620" xlink:title="configuration-modules-core#1620 (pull-request)" target="_parent">
<polygon fill="#6e5494" stroke="black" points="215,-702 17,-702 17,-652 215,-652 215,-702"/>
<text text-anchor="middle" x="116" y="-680" font-family="Sans" font-size="10.00">ncm-spma: yumdnf: Don't attempt</text>
<text text-anchor="middle" x="116" y="-669" font-family="Sans" font-size="10.00">to expand groups with repoquery</text>
</a>
</g>
</g>
<!-- configuration&#45;modules&#45;core#1524 -->
<g id="node21" class="node"><title>configuration-modules-core#1524</title>
<g id="a_node21"><a xlink:href="https://github.com/quattor/configuration-modules-core/issues/1524" xlink:title="configuration-modules-core#1524 (issue)" target="_parent">
<path fill="#6e5494" stroke="black" d="M508.5,-679C508.5,-679 337.5,-679 337.5,-679 331.5,-679 325.5,-673 325.5,-667 325.5,-667 325.5,-641 325.5,-641 325.5,-635 331.5,-629 337.5,-629 337.5,-629 508.5,-629 508.5,-629 514.5,-629 520.5,-635 520.5,-641 520.5,-641 520.5,-667 520.5,-667 520.5,-673 514.5,-679 508.5,-679"/>
<text text-anchor="middle" x="423" y="-657" font-family="Sans" font-size="10.00">ncm-spma: yumdnf backend: fails</text>
<text text-anchor="middle" x="423" y="-646" font-family="Sans" font-size="10.00">while trying to expand groups</text>
</a>
</g>
</g>
<!-- configuration&#45;modules&#45;core#1620&#45;&gt;configuration&#45;modules&#45;core#1524 -->
<g id="edge12" class="edge"><title>configuration-modules-core#1620-&gt;configuration-modules-core#1524</title>
<path fill="none" stroke="black" stroke-width="2" d="M215.183,-663.242C247.141,-660.347 282.759,-657.622 315.309,-655.574"/>
<polygon fill="black" stroke="black" points="315.538,-659.066 325.305,-654.961 315.109,-652.08 315.538,-659.066"/>
<text text-anchor="middle" x="258.195" y="-650.698" font-family="Sans" font-size="10.00">fixes</text>
</g>
<!-- configuration&#45;modules&#45;core#1620&#45;&gt;configuration&#45;modules&#45;core#1524 -->
<g id="edge24" class="edge"><title>configuration-modules-core#1620-&gt;configuration-modules-core#1524</title>
<path fill="none" stroke="black" stroke-width="2" d="M215.183,-675.95C247.141,-674.025 282.759,-671.379 315.309,-668.517"/>
<polygon fill="black" stroke="black" points="315.656,-672 325.305,-667.623 315.032,-665.028 315.656,-672"/>
<text text-anchor="middle" x="258.195" y="-664.197" font-family="Sans" font-size="10.00">fixes</text>
</g>
<!-- configuration&#45;modules&#45;core#1554 -->
<g id="node22" class="node"><title>configuration-modules-core#1554</title>
<g id="a_node22"><a xlink:href="https://github.com/quattor/configuration-modules-core/pull/1554" xlink:title="configuration-modules-core#1554 (pull-request)" target="_parent">
<polygon fill="#6cc644" stroke="black" points="508,-173 338,-173 338,-123 508,-123 508,-173"/>
<text text-anchor="middle" x="423" y="-151" font-family="Sans" font-size="10.00">avoid removing empty list of</text>
<text text-anchor="middle" x="423" y="-140" font-family="Sans" font-size="10.00">packages</text>
</a>
</g>
</g>
<!-- configuration&#45;modules&#45;core#1553 -->
<g id="node23" class="node"><title>configuration-modules-core#1553</title>
<g id="a_node23"><a xlink:href="https://github.com/quattor/configuration-modules-core/issues/1553" xlink:title="configuration-modules-core#1553 (issue)" target="_parent">
<path fill="#6cc644" stroke="black" d="M803.5,-161.5C803.5,-161.5 642.5,-161.5 642.5,-161.5 636.5,-161.5 630.5,-155.5 630.5,-149.5 630.5,-149.5 630.5,-112.5 630.5,-112.5 630.5,-106.5 636.5,-100.5 642.5,-100.5 642.5,-100.5 803.5,-100.5 803.5,-100.5 809.5,-100.5 815.5,-106.5 815.5,-112.5 815.5,-112.5 815.5,-149.5 815.5,-149.5 815.5,-155.5 809.5,-161.5 803.5,-161.5"/>
<text text-anchor="middle" x="723" y="-139.5" font-family="Sans" font-size="10.00">ncm-spma: update_pkgs in yum</text>
<text text-anchor="middle" x="723" y="-128.5" font-family="Sans" font-size="10.00">plugin tries to remove empty</text>
<text text-anchor="middle" x="723" y="-117.5" font-family="Sans" font-size="10.00">list of packages</text>
</a>
</g>
</g>
<!-- configuration&#45;modules&#45;core#1554&#45;&gt;configuration&#45;modules&#45;core#1553 -->
<g id="edge13" class="edge"><title>configuration-modules-core#1554-&gt;configuration-modules-core#1553</title>
<path fill="none" stroke="black" stroke-width="2" d="M508.2,-137.049C543.047,-134.371 583.766,-131.951 620.265,-130.365"/>
<polygon fill="black" stroke="black" points="620.594,-133.854 630.439,-129.94 620.302,-126.861 620.594,-133.854"/>
<text text-anchor="middle" x="557.437" y="-124.955" font-family="Sans" font-size="10.00">fixes</text>
</g>
<!-- configuration&#45;modules&#45;core#1554&#45;&gt;configuration&#45;modules&#45;core#1553 -->
<g id="edge25" class="edge"><title>configuration-modules-core#1554-&gt;configuration-modules-core#1553</title>
<path fill="none" stroke="black" stroke-width="2" d="M508.2,-149.344C543.047,-148.047 583.766,-145.821 620.265,-143.242"/>
<polygon fill="black" stroke="black" points="620.718,-146.719 630.439,-142.506 620.213,-139.737 620.718,-146.719"/>
<text text-anchor="middle" x="557.437" y="-138.452" font-family="Sans" font-size="10.00">fixes</text>
</g>
<!-- configuration&#45;modules&#45;core#1452 -->
<g id="node24" class="node"><title>configuration-modules-core#1452</title>
<g id="a_node24"><a xlink:href="https://github.com/quattor/configuration-modules-core/pull/1452" xlink:title="configuration-modules-core#1452 (pull-request)" target="_parent">
<polygon fill="#6e5494" stroke="black" points="202.5,-634 29.5,-634 29.5,-584 202.5,-584 202.5,-634"/>
<text text-anchor="middle" x="116" y="-612" font-family="Sans" font-size="10.00">ncm-metaconfig: ssh daemon</text>
<text text-anchor="middle" x="116" y="-601" font-family="Sans" font-size="10.00">configuration support</text>
</a>
</g>
</g>
<!-- configuration&#45;modules&#45;core#1377 -->
<g id="node25" class="node"><title>configuration-modules-core#1377</title>
<polygon fill="lightgrey" stroke="black" points="520.5,-567.5 325.5,-567.5 325.5,-528.5 520.5,-528.5 520.5,-567.5"/>
<text text-anchor="middle" x="423" y="-545.5" font-family="Sans" font-size="10.00">configuration-modules-core#1377</text>
</g>
<!-- configuration&#45;modules&#45;core#1452&#45;&gt;configuration&#45;modules&#45;core#1377 -->
<g id="edge14" class="edge"><title>configuration-modules-core#1452-&gt;configuration-modules-core#1377</title>
<path fill="none" stroke="black" stroke-dasharray="1,5" d="M202.771,-585.706C237.639,-578.052 278.304,-569.808 315.076,-562.91"/>
<polygon fill="black" stroke="black" points="325.337,-561.002 316.328,-567.255 320.421,-561.916 315.505,-562.83 315.505,-562.83 315.505,-562.83 320.421,-561.916 314.682,-558.406 325.337,-561.002 325.337,-561.002"/>
<text text-anchor="middle" x="243.042" y="-564.845" font-family="Sans" font-size="10.00">replaces</text>
</g>
<!-- configuration&#45;modules&#45;core#1451 -->
<g id="node26" class="node"><title>configuration-modules-core#1451</title>
<polygon fill="lightgrey" stroke="black" points="520.5,-510.5 325.5,-510.5 325.5,-471.5 520.5,-471.5 520.5,-510.5"/>
<text text-anchor="middle" x="423" y="-488.5" font-family="Sans" font-size="10.00">configuration-modules-core#1451</text>
</g>
<!-- configuration&#45;modules&#45;core#1452&#45;&gt;configuration&#45;modules&#45;core#1451 -->
<g id="edge15" class="edge"><title>configuration-modules-core#1452-&gt;configuration-modules-core#1451</title>
<path fill="none" stroke="black" stroke-dasharray="5,2" d="M154.513,-583.965C193.072,-563.278 255.419,-534.497 315.684,-512.323"/>
<polygon fill="none" stroke="black" points="317.127,-515.522 325.335,-508.823 314.74,-508.942 317.127,-515.522"/>
<text text-anchor="middle" x="218.563" y="-535.547" font-family="Sans" font-size="10.00">requires</text>
</g>
<!-- configuration&#45;modules&#45;core#1452&#45;&gt;configuration&#45;modules&#45;core#1377 -->
<g id="edge26" class="edge"><title>configuration-modules-core#1452-&gt;configuration-modules-core#1377</title>
<path fill="none" stroke="black" stroke-dasharray="1,5" d="M202.771,-597.985C247.233,-589.961 301.121,-579.126 344.343,-569.5"/>
<polygon fill="black" stroke="black" points="354.24,-567.274 345.471,-573.859 349.361,-568.371 344.483,-569.468 344.483,-569.468 344.483,-569.468 349.361,-568.371 343.496,-565.078 354.24,-567.274 354.24,-567.274"/>
<text text-anchor="middle" x="299.886" y="-575.361" font-family="Sans" font-size="10.00">replaces</text>
</g>
<!-- configuration&#45;modules&#45;core#1452&#45;&gt;configuration&#45;modules&#45;core#1451 -->
<g id="edge27" class="edge"><title>configuration-modules-core#1452-&gt;configuration-modules-core#1451</title>
<path fill="none" stroke="black" stroke-dasharray="5,2" d="M185.758,-583.83C225.102,-566.722 275.7,-544.553 322,-528 336.762,-522.723 353.032,-517.8 368.084,-513.247"/>
<polygon fill="none" stroke="black" points="369.217,-516.561 377.771,-510.309 367.185,-509.862 369.217,-516.561"/>
<text text-anchor="middle" x="260.591" y="-535.726" font-family="Sans" font-size="10.00">requires</text>
</g>
<!-- configuration&#45;modules&#45;core#1507 -->
<g id="node27" class="node"><title>configuration-modules-core#1507</title>
<g id="a_node27"><a xlink:href="https://github.com/quattor/configuration-modules-core/pull/1507" xlink:title="configuration-modules-core#1507 (pull-request)" target="_parent">
<polygon fill="#6cc644" stroke="black" points="204,-1061 28,-1061 28,-1011 204,-1011 204,-1061"/>
<text text-anchor="middle" x="116" y="-1039" font-family="Sans" font-size="10.00">[WIP] ncm-spma: yumdnf: use</text>
<text text-anchor="middle" x="116" y="-1028" font-family="Sans" font-size="10.00">spmaleaves dnf plugin</text>
</a>
</g>
</g>
<!-- configuration&#45;modules&#45;core#1401 -->
<g id="node28" class="node"><title>configuration-modules-core#1401</title>
<polygon fill="lightgrey" stroke="black" points="520.5,-1055.5 325.5,-1055.5 325.5,-1016.5 520.5,-1016.5 520.5,-1055.5"/>
<text text-anchor="middle" x="423" y="-1033.5" font-family="Sans" font-size="10.00">configuration-modules-core#1401</text>
</g>
<!-- configuration&#45;modules&#45;core#1507&#45;&gt;configuration&#45;modules&#45;core#1401 -->
<g id="edge16" class="edge"><title>configuration-modules-core#1507-&gt;configuration-modules-core#1401</title>
<path fill="none" stroke="black" stroke-dasharray="5,2" d="M204.401,-1029.83C238.995,-1029.18 279.091,-1029.07 315.368,-1029.53"/>
<polygon fill="none" stroke="black" points="315.443,-1033.03 325.491,-1029.67 315.542,-1026.03 315.443,-1033.03"/>
<text text-anchor="middle" x="245.012" y="-1021.25" font-family="Sans" font-size="10.00">requires</text>
</g>
<!-- configuration&#45;modules&#45;core#1507&#45;&gt;configuration&#45;modules&#45;core#1401 -->
<g id="edge28" class="edge"><title>configuration-modules-core#1507-&gt;configuration-modules-core#1401</title>
<path fill="none" stroke="black" stroke-dasharray="5,2" d="M204.401,-1042.17C238.995,-1042.82 279.091,-1042.93 315.368,-1042.47"/>
<polygon fill="none" stroke="black" points="315.542,-1045.97 325.491,-1042.33 315.443,-1038.97 315.542,-1045.97"/>
<text text-anchor="middle" x="245.012" y="-1034.75" font-family="Sans" font-size="10.00">requires</text>
</g>
<!-- configuration&#45;modules&#45;core#1336 -->
<g id="node29" class="node"><title>configuration-modules-core#1336</title>
<g id="a_node29"><a xlink:href="https://github.com/quattor/configuration-modules-core/pull/1336" xlink:title="configuration-modules-core#1336 (pull-request)" target="_parent">
<polygon fill="#6cc644" stroke="black" points="203,-1186.5 29,-1186.5 29,-1125.5 203,-1125.5 203,-1186.5"/>
<text text-anchor="middle" x="116" y="-1164.5" font-family="Sans" font-size="10.00">ncm-network: Add support for</text>
<text text-anchor="middle" x="116" y="-1153.5" font-family="Sans" font-size="10.00">CAF::Service actions after</text>
<text text-anchor="middle" x="116" y="-1142.5" font-family="Sans" font-size="10.00">changes</text>
</a>
</g>
</g>
<!-- configuration&#45;modules&#45;core#1335 -->
<g id="node30" class="node"><title>configuration-modules-core#1335</title>
<g id="a_node30"><a xlink:href="https://github.com/quattor/configuration-modules-core/pull/1335" xlink:title="configuration-modules-core#1335 (pull-request)" target="_parent">
<polygon fill="#6cc644" stroke="black" points="516,-1203.5 330,-1203.5 330,-1142.5 516,-1142.5 516,-1203.5"/>
<text text-anchor="middle" x="423" y="-1181.5" font-family="Sans" font-size="10.00">ncm-metaconfig: Remove</text>
<text text-anchor="middle" x="423" y="-1170.5" font-family="Sans" font-size="10.00">caf_service_action type to allow</text>
<text text-anchor="middle" x="423" y="-1159.5" font-family="Sans" font-size="10.00">reuse</text>
</a>
</g>
</g>
<!-- configuration&#45;modules&#45;core#1336&#45;&gt;configuration&#45;modules&#45;core#1335 -->
<g id="edge17" class="edge"><title>configuration-modules-core#1336-&gt;configuration-modules-core#1335</title>
<path fill="none" stroke="black" stroke-dasharray="5,2" d="M203.178,-1160.8C239.481,-1162.83 282.011,-1165.2 319.874,-1167.31"/>
<polygon fill="none" stroke="black" points="319.726,-1170.8 329.905,-1167.87 320.116,-1163.82 319.726,-1170.8"/>
<text text-anchor="middle" x="246.543" y="-1156.34" font-family="Sans" font-size="10.00">requires</text>
</g>
<!-- configuration&#45;modules&#45;core#1071 -->
<g id="node31" class="node"><title>configuration-modules-core#1071</title>
<g id="a_node31"><a xlink:href="https://github.com/quattor/configuration-modules-core/issues/1071" xlink:title="configuration-modules-core#1071 (issue)" target="_parent">
<path fill="#6cc644" stroke="black" d="M509.5,-1124C509.5,-1124 336.5,-1124 336.5,-1124 330.5,-1124 324.5,-1118 324.5,-1112 324.5,-1112 324.5,-1086 324.5,-1086 324.5,-1080 330.5,-1074 336.5,-1074 336.5,-1074 509.5,-1074 509.5,-1074 515.5,-1074 521.5,-1080 521.5,-1086 521.5,-1086 521.5,-1112 521.5,-1112 521.5,-1118 515.5,-1124 509.5,-1124"/>
<text text-anchor="middle" x="423" y="-1102" font-family="Sans" font-size="10.00">ncm-network: support daemons to</text>
<text text-anchor="middle" x="423" y="-1091" font-family="Sans" font-size="10.00">restart after network changes</text>
</a>
</g>
</g>
<!-- configuration&#45;modules&#45;core#1336&#45;&gt;configuration&#45;modules&#45;core#1071 -->
<g id="edge18" class="edge"><title>configuration-modules-core#1336-&gt;configuration-modules-core#1071</title>
<path fill="none" stroke="black" stroke-width="2" d="M203.178,-1139.89C237.716,-1133.44 277.891,-1125.93 314.321,-1119.12"/>
<polygon fill="black" stroke="black" points="315.302,-1122.5 324.489,-1117.22 314.016,-1115.62 315.302,-1122.5"/>
<text text-anchor="middle" x="251.809" y="-1120.56" font-family="Sans" font-size="10.00">fixes</text>
</g>
<!-- configuration&#45;modules&#45;core#1336&#45;&gt;configuration&#45;modules&#45;core#1335 -->
<g id="edge29" class="edge"><title>configuration-modules-core#1336-&gt;configuration-modules-core#1335</title>
<path fill="none" stroke="black" stroke-dasharray="5,2" d="M203.178,-1160.8C239.481,-1162.83 282.011,-1165.2 319.874,-1167.31"/>
<polygon fill="none" stroke="black" points="319.726,-1170.8 329.905,-1167.87 320.116,-1163.82 319.726,-1170.8"/>
<text text-anchor="middle" x="286.543" y="-1156.34" font-family="Sans" font-size="10.00">requires</text>
</g>
<!-- configuration&#45;modules&#45;core#1336&#45;&gt;configuration&#45;modules&#45;core#1071 -->
<g id="edge30" class="edge"><title>configuration-modules-core#1336-&gt;configuration-modules-core#1071</title>
<path fill="none" stroke="black" stroke-width="2" d="M203.178,-1139.89C237.716,-1133.44 277.891,-1125.93 314.321,-1119.12"/>
<polygon fill="black" stroke="black" points="315.302,-1122.5 324.489,-1117.22 314.016,-1115.62 315.302,-1122.5"/>
<text text-anchor="middle" x="275.809" y="-1120.56" font-family="Sans" font-size="10.00">fixes</text>
</g>
<!-- template&#45;library&#45;core#191 -->
<g id="node32" class="node"><title>template-library-core#191</title>
<polygon fill="lightgrey" stroke="black" points="802.5,-1192.5 643.5,-1192.5 643.5,-1153.5 802.5,-1153.5 802.5,-1192.5"/>
<text text-anchor="middle" x="723" y="-1170.5" font-family="Sans" font-size="10.00">template-library-core#191</text>
</g>
<!-- configuration&#45;modules&#45;core#1335&#45;&gt;template&#45;library&#45;core#191 -->
<g id="edge19" class="edge"><title>configuration-modules-core#1335-&gt;template-library-core#191</title>
<path fill="none" stroke="black" stroke-dasharray="5,2" d="M516.248,-1166.71C553.435,-1166.08 596.166,-1166.1 633.017,-1166.76"/>
<polygon fill="none" stroke="black" points="633.178,-1170.27 643.246,-1166.97 633.318,-1163.27 633.178,-1170.27"/>
<text text-anchor="middle" x="559.897" y="-1158.26" font-family="Sans" font-size="10.00">requires</text>
</g>
<!-- configuration&#45;modules&#45;core#1335&#45;&gt;template&#45;library&#45;core#191 -->
<g id="edge31" class="edge"><title>configuration-modules-core#1335-&gt;template-library-core#191</title>
<path fill="none" stroke="black" stroke-dasharray="5,2" d="M516.248,-1179.29C553.435,-1179.92 596.166,-1179.9 633.017,-1179.24"/>
<polygon fill="none" stroke="black" points="633.318,-1182.73 643.246,-1179.03 633.178,-1175.73 633.318,-1182.73"/>
<text text-anchor="middle" x="559.897" y="-1171.74" font-family="Sans" font-size="10.00">requires</text>
</g>
<!-- configuration&#45;modules&#45;core#1148 -->
<g id="node33" class="node"><title>configuration-modules-core#1148</title>
<g id="a_node33"><a xlink:href="https://github.com/quattor/configuration-modules-core/pull/1148" xlink:title="configuration-modules-core#1148 (pull-request)" target="_parent">
<polygon fill="#6cc644" stroke="black" points="215.5,-1283 16.5,-1283 16.5,-1233 215.5,-1233 215.5,-1283"/>
<text text-anchor="middle" x="116" y="-1261" font-family="Sans" font-size="10.00">ncm-spma: Remove support from</text>
<text text-anchor="middle" x="116" y="-1250" font-family="Sans" font-size="10.00">groups from spma yumng backend</text>
</a>
</g>
</g>
<!-- configuration&#45;modules&#45;core#952 -->
<g id="node34" class="node"><title>configuration-modules-core#952</title>
<polygon fill="lightgrey" stroke="black" points="517.5,-1277.5 328.5,-1277.5 328.5,-1238.5 517.5,-1238.5 517.5,-1277.5"/>
<text text-anchor="middle" x="423" y="-1255.5" font-family="Sans" font-size="10.00">configuration-modules-core#952</text>
</g>
<!-- configuration&#45;modules&#45;core#1148&#45;&gt;configuration&#45;modules&#45;core#952 -->
<g id="edge20" class="edge"><title>configuration-modules-core#1148-&gt;configuration-modules-core#952</title>
<path fill="none" stroke="black" stroke-width="2" d="M215.604,-1258C248.411,-1258 285.037,-1258 318.223,-1258"/>
<polygon fill="black" stroke="black" points="318.404,-1261.5 328.404,-1258 318.404,-1254.5 318.404,-1261.5"/>
<text text-anchor="middle" x="260.075" y="-1250" font-family="Sans" font-size="10.00">fixes</text>
</g>
<!-- quattor.github.com#278 -->
<g id="node35" class="node"><title>quattor.github.com#278</title>
<g id="a_node35"><a xlink:href="https://github.com/quattor/quattor.github.com/pull/278" xlink:title="quattor.github.com#278 (pull-request)" target="_parent">
<polygon fill="#6cc644" stroke="black" points="190,-1340.5 42,-1340.5 42,-1301.5 190,-1301.5 190,-1340.5"/>
<text text-anchor="middle" x="116" y="-1318.5" font-family="Sans" font-size="10.00">Update Perl coding style</text>
</a>
</g>
</g>
<!-- quattor.github.com#215 -->
<g id="node36" class="node"><title>quattor.github.com#215</title>
<g id="a_node36"><a xlink:href="https://github.com/quattor/quattor.github.com/issues/215" xlink:title="quattor.github.com#215 (issue)" target="_parent">
<path fill="#6cc644" stroke="black" d="M484,-1340.5C484,-1340.5 362,-1340.5 362,-1340.5 356,-1340.5 350,-1334.5 350,-1328.5 350,-1328.5 350,-1313.5 350,-1313.5 350,-1307.5 356,-1301.5 362,-1301.5 362,-1301.5 484,-1301.5 484,-1301.5 490,-1301.5 496,-1307.5 496,-1313.5 496,-1313.5 496,-1328.5 496,-1328.5 496,-1334.5 490,-1340.5 484,-1340.5"/>
<text text-anchor="middle" x="423" y="-1318.5" font-family="Sans" font-size="10.00">Update coding style doc</text>
</a>
</g>
</g>
<!-- quattor.github.com#278&#45;&gt;quattor.github.com#215 -->
<g id="edge32" class="edge"><title>quattor.github.com#278-&gt;quattor.github.com#215</title>
<path fill="none" stroke="black" stroke-width="2" d="M190.055,-1321C235.124,-1321 293.037,-1321 339.719,-1321"/>
<polygon fill="black" stroke="black" points="339.805,-1324.5 349.805,-1321 339.805,-1317.5 339.805,-1324.5"/>
<text text-anchor="middle" x="257.758" y="-1313" font-family="Sans" font-size="10.00">fixes</text>
</g>
<!-- template&#45;library&#45;grid#232 -->
<g id="node37" class="node"><title>template-library-grid#232</title>
<g id="a_node37"><a xlink:href="https://github.com/quattor/template-library-grid/pull/232" xlink:title="template-library-grid#232 (pull-request)" target="_parent">
<polygon fill="#6cc644" stroke="black" points="199.5,-1409 32.5,-1409 32.5,-1359 199.5,-1359 199.5,-1409"/>
<text text-anchor="middle" x="116" y="-1387" font-family="Sans" font-size="10.00">arc-ce: Export arc-ce feature</text>
<text text-anchor="middle" x="116" y="-1376" font-family="Sans" font-size="10.00">from aquilon at RAL</text>
</a>
</g>
</g>
<!-- template&#45;library&#45;grid#221 -->
<g id="node38" class="node"><title>template-library-grid#221</title>
<g id="a_node38"><a xlink:href="https://github.com/quattor/template-library-grid/issues/221" xlink:title="template-library-grid#221 (issue)" target="_parent">
<path fill="#6cc644" stroke="black" d="M500,-1409C500,-1409 346,-1409 346,-1409 340,-1409 334,-1403 334,-1397 334,-1397 334,-1371 334,-1371 334,-1365 340,-1359 346,-1359 346,-1359 500,-1359 500,-1359 506,-1359 512,-1365 512,-1371 512,-1371 512,-1397 512,-1397 512,-1403 506,-1409 500,-1409"/>
<text text-anchor="middle" x="423" y="-1387" font-family="Sans" font-size="10.00">Support for new CE types (ARC</text>
<text text-anchor="middle" x="423" y="-1376" font-family="Sans" font-size="10.00">CE, HTCONDOR CE)</text>
</a>
</g>
</g>
<!-- template&#45;library&#45;grid#232&#45;&gt;template&#45;library&#45;grid#221 -->
<g id="edge33" class="edge"><title>template-library-grid#232-&gt;template-library-grid#221</title>
<path fill="none" stroke="black" stroke-width="2" d="M199.537,-1384C237.838,-1384 283.657,-1384 323.731,-1384"/>
<polygon fill="black" stroke="black" points="323.787,-1387.5 333.787,-1384 323.787,-1380.5 323.787,-1387.5"/>
<text text-anchor="middle" x="254.452" y="-1376" font-family="Sans" font-size="10.00">fixes</text>
</g>
</g>
</svg>
