<?xml version="1.0" encoding="UTF-8" standalone="no"?>
<?xml-stylesheet href="relationships.css" type="text/css"?>
<!-- Generated by graphviz version 2.26.0 (20091210.2329)
 -->
<!-- Title: Dependencies Pages: 1 -->
<svg xmlns="http://www.w3.org/2000/svg" xmlns:xlink="http://www.w3.org/1999/xlink" width="594pt" height="1506pt" viewBox="0.00 0.00 594.00 1506.00">
<g id="graph1" class="graph" transform="scale(1 1) rotate(0) translate(4 1502)">
<title>Dependencies</title>
<polygon fill="white" stroke="white" points="-4,5 -4,-1502 591,-1502 591,5 -4,5"/>
<g id="graph3" class="cluster"><title>cluster_17.8</title>
<polygon fill="none" stroke="black" points="8,-304 8,-1244 578,-1244 578,-304 8,-304"/>
<text text-anchor="middle" x="293" y="-1229.2" font-family="Sans" font-size="12.00">17.8</text>
</g>
<g id="graph5" class="cluster"><title>cluster_17.12</title>
<polygon fill="none" stroke="black" points="86,-1302 86,-1490 498,-1490 498,-1302 86,-1302"/>
<text text-anchor="middle" x="292" y="-1475.2" font-family="Sans" font-size="12.00">17.12</text>
</g>
<!-- aii#275 -->
<g id="node1" class="node"><title>aii#275</title>
<a xlink:href="https://github.com/quattor/aii/pull/275" xlink:title="remove aii-freeipa, deprecated by ncm-freeipa AII support" target="_parent">
<polygon fill="#6e5494" stroke="black" points="173,-1201 95,-1201 95,-1147 173,-1147 173,-1201"/>
<text text-anchor="middle" x="134" y="-1178" font-family="Sans" font-size="10.00">pull-request</text>
<text text-anchor="middle" x="134" y="-1165" font-family="Sans" font-size="10.00">aii#275</text>
</a>
</g>
<!-- aii#134 -->
<g id="node3" class="node"><title>aii#134</title>
<a xlink:href="https://github.com/quattor/aii/issues/134" xlink:title="Missing freeipa.pm in AII RPM" target="_parent">
<ellipse fill="#bd2c00" stroke="black" cx="448" cy="-1174" rx="41.2167" ry="38.1838"/>
<text text-anchor="middle" x="448" y="-1178" font-family="Sans" font-size="10.00">issue</text>
<text text-anchor="middle" x="448" y="-1165" font-family="Sans" font-size="10.00">aii#134</text>
</a>
</g>
<!-- aii#275&#45;&gt;aii#134 -->
<g id="edge2" class="edge"><title>aii#275-&gt;aii#134</title>
<path fill="none" stroke="black" stroke-width="2" d="M173.571,-1172.9C200.705,-1172.2 237.529,-1171.36 270,-1171 312.474,-1170.53 360.645,-1171.43 396.154,-1172.36"/>
<polygon fill="black" stroke="black" points="396.191,-1175.87 406.282,-1172.64 396.381,-1168.87 396.191,-1175.87"/>
<text text-anchor="middle" x="289" y="-1175" font-family="Sans" font-size="10.00">fixes</text>
</g>
<!-- aii#210 -->
<g id="node4" class="node"><title>aii#210</title>
<a xlink:href="https://github.com/quattor/aii/pull/210" xlink:title="Shellfe: support active config for plugins" target="_parent">
<polygon fill="#6cc644" stroke="black" points="173,-1375 95,-1375 95,-1321 173,-1321 173,-1375"/>
<text text-anchor="middle" x="134" y="-1352" font-family="Sans" font-size="10.00">pull-request</text>
<text text-anchor="middle" x="134" y="-1339" font-family="Sans" font-size="10.00">aii#210</text>
</a>
</g>
<!-- aii#209 -->
<g id="node6" class="node"><title>aii#209</title>
<a xlink:href="https://github.com/quattor/aii/issues/209" xlink:title="support ACTIVE_CONFIG" target="_parent">
<ellipse fill="#6cc644" stroke="black" cx="448" cy="-1348" rx="41.2167" ry="38.1838"/>
<text text-anchor="middle" x="448" y="-1352" font-family="Sans" font-size="10.00">issue</text>
<text text-anchor="middle" x="448" y="-1339" font-family="Sans" font-size="10.00">aii#209</text>
</a>
</g>
<!-- aii#210&#45;&gt;aii#209 -->
<g id="edge4" class="edge"><title>aii#210-&gt;aii#209</title>
<path fill="none" stroke="black" stroke-width="2" d="M173.768,-1348C230.279,-1348 333.868,-1348 396.284,-1348"/>
<polygon fill="black" stroke="black" points="396.31,-1351.5 406.31,-1348 396.31,-1344.5 396.31,-1351.5"/>
<text text-anchor="middle" x="289" y="-1352" font-family="Sans" font-size="10.00">fixes</text>
</g>
<!-- ncm&#45;ncd#74 -->
<g id="node8" class="node"><title>ncm-ncd#74</title>
<a xlink:href="https://github.com/quattor/ncm-ncd/pull/74" xlink:title="Set the current active config as an attribute to the component" target="_parent">
<polygon fill="#6cc644" stroke="black" points="489,-1458 407,-1458 407,-1404 489,-1404 489,-1458"/>
<text text-anchor="middle" x="448" y="-1435" font-family="Sans" font-size="10.00">pull-request</text>
<text text-anchor="middle" x="448" y="-1422" font-family="Sans" font-size="10.00">ncm-ncd#74</text>
</a>
</g>
<!-- aii#210&#45;&gt;ncm&#45;ncd#74 -->
<g id="edge6" class="edge"><title>aii#210-&gt;ncm-ncd#74</title>
<path fill="none" stroke="black" stroke-dasharray="5,2" d="M173.768,-1358.51C230.435,-1373.49 334.442,-1400.98 396.801,-1417.47"/>
<polygon fill="none" stroke="black" points="396.25,-1420.94 406.813,-1420.11 398.039,-1414.17 396.25,-1420.94"/>
<text text-anchor="middle" x="289" y="-1395" font-family="Sans" font-size="10.00">requires</text>
</g>
<!-- aii#203 -->
<g id="node10" class="node"><title>aii#203</title>
<polygon fill="lightgrey" stroke="black" points="477,-1292.5 419,-1292.5 419,-1251.5 477,-1251.5 477,-1292.5"/>
<text text-anchor="middle" x="448" y="-1269.5" font-family="Sans" font-size="10.00">aii#203</text>
</g>
<!-- aii#210&#45;&gt;aii#203 -->
<g id="edge8" class="edge"><title>aii#210-&gt;aii#203</title>
<path fill="none" stroke="black" stroke-dasharray="5,2" d="M173.585,-1337.14C212.315,-1326.64 273.039,-1310.53 326,-1298 353.353,-1291.53 384.33,-1284.93 408.226,-1280.01"/>
<polygon fill="none" stroke="black" points="409.24,-1283.37 418.334,-1277.94 407.835,-1276.51 409.24,-1283.37"/>
<text text-anchor="middle" x="289" y="-1315" font-family="Sans" font-size="10.00">requires</text>
</g>
<!-- configuration&#45;modules&#45;core#1151 -->
<g id="node11" class="node"><title>configuration-modules-core#1151</title>
<a xlink:href="https://github.com/quattor/configuration-modules-core/pull/1151" xlink:title="Escape / unescape functions from CCM::Path" target="_parent">
<polygon fill="#6cc644" stroke="black" points="220,-1092 48,-1092 48,-1038 220,-1038 220,-1092"/>
<text text-anchor="middle" x="134" y="-1069" font-family="Sans" font-size="10.00">pull-request</text>
<text text-anchor="middle" x="134" y="-1056" font-family="Sans" font-size="10.00">configuration-modules-core#1151</text>
</a>
</g>
<!-- configuration&#45;modules&#45;core#1083 -->
<g id="node13" class="node"><title>configuration-modules-core#1083</title>
<a xlink:href="https://github.com/quattor/configuration-modules-core/issues/1083" xlink:title="warnings due to deprecated CCM modules" target="_parent">
<ellipse fill="#6cc644" stroke="black" cx="448" cy="-1080" rx="121.122" ry="38.1838"/>
<text text-anchor="middle" x="448" y="-1084" font-family="Sans" font-size="10.00">issue</text>
<text text-anchor="middle" x="448" y="-1071" font-family="Sans" font-size="10.00">configuration-modules-core#1083</text>
</a>
</g>
<!-- configuration&#45;modules&#45;core#1151&#45;&gt;configuration&#45;modules&#45;core#1083 -->
<g id="edge36" class="edge"><title>configuration-modules-core#1151-&gt;configuration-modules-core#1083</title>
<path fill="none" stroke="black" stroke-width="2" d="M220.217,-1069.12C250.327,-1070.56 284.83,-1072.21 317.721,-1073.78"/>
<polygon fill="black" stroke="black" points="317.714,-1077.28 327.87,-1074.26 318.048,-1070.29 317.714,-1077.28"/>
<text text-anchor="middle" x="289" y="-1077" font-family="Sans" font-size="10.00">fixes</text>
</g>
<!-- configuration&#45;modules&#45;core#1151&#45;&gt;configuration&#45;modules&#45;core#1083 -->
<g id="edge10" class="edge"><title>configuration-modules-core#1151-&gt;configuration-modules-core#1083</title>
<path fill="none" stroke="black" stroke-width="2" d="M220.362,-1052.64C248.347,-1050.21 279.513,-1049.18 308,-1052 318.187,-1053.01 328.732,-1054.42 339.252,-1056.08"/>
<polygon fill="black" stroke="black" points="338.883,-1059.57 349.319,-1057.74 340.023,-1052.66 338.883,-1059.57"/>
<text text-anchor="middle" x="289" y="-1056" font-family="Sans" font-size="10.00">fixes</text>
</g>
<!-- configuration&#45;modules&#45;core#1149 -->
<g id="node14" class="node"><title>configuration-modules-core#1149</title>
<a xlink:href="https://github.com/quattor/configuration-modules-core/pull/1149" xlink:title="ncm-metaconfig: rsyslog: rainer script configuration" target="_parent">
<polygon fill="#6cc644" stroke="black" points="220,-1017 48,-1017 48,-963 220,-963 220,-1017"/>
<text text-anchor="middle" x="134" y="-994" font-family="Sans" font-size="10.00">pull-request</text>
<text text-anchor="middle" x="134" y="-981" font-family="Sans" font-size="10.00">configuration-modules-core#1149</text>
</a>
</g>
<!-- configuration&#45;modules&#45;core#1126 -->
<g id="node16" class="node"><title>configuration-modules-core#1126</title>
<a xlink:href="https://github.com/quattor/configuration-modules-core/pull/1126" xlink:title="ncm-metaconfig: cleanup and switch to 00-tqu" target="_parent">
<polygon fill="#6cc644" stroke="black" points="534,-1024 362,-1024 362,-970 534,-970 534,-1024"/>
<text text-anchor="middle" x="448" y="-1001" font-family="Sans" font-size="10.00">pull-request</text>
<text text-anchor="middle" x="448" y="-988" font-family="Sans" font-size="10.00">configuration-modules-core#1126</text>
</a>
</g>
<!-- configuration&#45;modules&#45;core#1149&#45;&gt;configuration&#45;modules&#45;core#1126 -->
<g id="edge38" class="edge"><title>configuration-modules-core#1149-&gt;configuration-modules-core#1126</title>
<path fill="none" stroke="black" stroke-dasharray="5,2" d="M220.217,-991.922C260.975,-992.831 309.781,-993.919 351.743,-994.854"/>
<polygon fill="none" stroke="black" points="351.9,-998.358 361.975,-995.082 352.056,-991.36 351.9,-998.358"/>
<text text-anchor="middle" x="289" y="-998" font-family="Sans" font-size="10.00">requires</text>
</g>
<!-- configuration&#45;modules&#45;core#1149&#45;&gt;configuration&#45;modules&#45;core#1126 -->
<g id="edge12" class="edge"><title>configuration-modules-core#1149-&gt;configuration-modules-core#1126</title>
<path fill="none" stroke="black" stroke-dasharray="5,2" d="M220.145,-976.128C236.651,-973.992 253.828,-972.124 270,-971 296.659,-969.147 325.384,-971.437 351.814,-975.308"/>
<polygon fill="none" stroke="black" points="351.403,-978.787 361.822,-976.864 352.479,-971.87 351.403,-978.787"/>
<text text-anchor="middle" x="289" y="-975" font-family="Sans" font-size="10.00">requires</text>
</g>
<!-- configuration&#45;modules&#45;core#1148 -->
<g id="node17" class="node"><title>configuration-modules-core#1148</title>
<a xlink:href="https://github.com/quattor/configuration-modules-core/pull/1148" xlink:title="ncm-spma: Remove support from groups from spma yumng backend" target="_parent">
<polygon fill="#6cc644" stroke="black" points="220,-835 48,-835 48,-781 220,-781 220,-835"/>
<text text-anchor="middle" x="134" y="-812" font-family="Sans" font-size="10.00">pull-request</text>
<text text-anchor="middle" x="134" y="-799" font-family="Sans" font-size="10.00">configuration-modules-core#1148</text>
</a>
</g>
<!-- configuration&#45;modules&#45;core#952 -->
<g id="node19" class="node"><title>configuration-modules-core#952</title>
<a xlink:href="https://github.com/quattor/configuration-modules-core/issues/952" xlink:title="ncm-spma (yumng): Remove support for package groups" target="_parent">
<ellipse fill="#6cc644" stroke="black" cx="448" cy="-820" rx="118.087" ry="38.1838"/>
<text text-anchor="middle" x="448" y="-824" font-family="Sans" font-size="10.00">issue</text>
<text text-anchor="middle" x="448" y="-811" font-family="Sans" font-size="10.00">configuration-modules-core#952</text>
</a>
</g>
<!-- configuration&#45;modules&#45;core#1148&#45;&gt;configuration&#45;modules&#45;core#952 -->
<g id="edge40" class="edge"><title>configuration-modules-core#1148-&gt;configuration-modules-core#952</title>
<path fill="none" stroke="black" stroke-width="2" d="M220.217,-811.295C251.15,-812.477 286.719,-813.836 320.413,-815.124"/>
<polygon fill="black" stroke="black" points="320.676,-818.637 330.802,-815.521 320.943,-811.642 320.676,-818.637"/>
<text text-anchor="middle" x="289" y="-819" font-family="Sans" font-size="10.00">fixes</text>
</g>
<!-- configuration&#45;modules&#45;core#1148&#45;&gt;configuration&#45;modules&#45;core#952 -->
<g id="edge14" class="edge"><title>configuration-modules-core#1148-&gt;configuration-modules-core#952</title>
<path fill="none" stroke="black" stroke-width="2" d="M220.292,-791.127C248.273,-787.649 279.454,-785.877 308,-789 320.107,-790.324 332.699,-792.275 345.149,-794.563"/>
<polygon fill="black" stroke="black" points="344.611,-798.024 355.091,-796.466 345.927,-791.149 344.611,-798.024"/>
<text text-anchor="middle" x="289" y="-793" font-family="Sans" font-size="10.00">fixes</text>
</g>
<!-- configuration&#45;modules&#45;core#1136 -->
<g id="node20" class="node"><title>configuration-modules-core#1136</title>
<a xlink:href="https://github.com/quattor/configuration-modules-core/pull/1136" xlink:title="ncm-gmond: cleanup and support new configuration options" target="_parent">
<polygon fill="#6cc644" stroke="black" points="220,-745 48,-745 48,-691 220,-691 220,-745"/>
<text text-anchor="middle" x="134" y="-722" font-family="Sans" font-size="10.00">pull-request</text>
<text text-anchor="middle" x="134" y="-709" font-family="Sans" font-size="10.00">configuration-modules-core#1136</text>
</a>
</g>
<!-- configuration&#45;modules&#45;core#1116 -->
<g id="node22" class="node"><title>configuration-modules-core#1116</title>
<a xlink:href="https://github.com/quattor/configuration-modules-core/issues/1116" xlink:title="ncm-gmond: configuration options missing from schema" target="_parent">
<ellipse fill="#6cc644" stroke="black" cx="448" cy="-726" rx="121.122" ry="38.1838"/>
<text text-anchor="middle" x="448" y="-730" font-family="Sans" font-size="10.00">issue</text>
<text text-anchor="middle" x="448" y="-717" font-family="Sans" font-size="10.00">configuration-modules-core#1116</text>
</a>
</g>
<!-- configuration&#45;modules&#45;core#1136&#45;&gt;configuration&#45;modules&#45;core#1116 -->
<g id="edge42" class="edge"><title>configuration-modules-core#1136-&gt;configuration-modules-core#1116</title>
<path fill="none" stroke="black" stroke-width="2" d="M220.319,-722.236C236.809,-722.924 253.935,-723.555 270,-724 284.952,-724.414 300.612,-724.742 316.179,-725.004"/>
<polygon fill="black" stroke="black" points="316.332,-728.506 326.386,-725.166 316.443,-721.507 316.332,-728.506"/>
<text text-anchor="middle" x="289" y="-729" font-family="Sans" font-size="10.00">fixes</text>
</g>
<!-- configuration&#45;modules&#45;core#1136&#45;&gt;configuration&#45;modules&#45;core#1116 -->
<g id="edge16" class="edge"><title>configuration-modules-core#1136-&gt;configuration-modules-core#1116</title>
<path fill="none" stroke="black" stroke-width="2" d="M220.308,-712.888C236.799,-712.101 253.929,-711.413 270,-711 286.883,-710.566 291.135,-710.099 308,-711 313.132,-711.274 318.365,-711.604 323.648,-711.98"/>
<polygon fill="black" stroke="black" points="323.62,-715.488 333.856,-712.754 324.15,-708.508 323.62,-715.488"/>
<text text-anchor="middle" x="289" y="-715" font-family="Sans" font-size="10.00">fixes</text>
</g>
<!-- configuration&#45;modules&#45;core#1132 -->
<g id="node23" class="node"><title>configuration-modules-core#1132</title>
<a xlink:href="https://github.com/quattor/configuration-modules-core/pull/1132" xlink:title="ncm-metaconfig: hnormalise" target="_parent">
<polygon fill="#6cc644" stroke="black" points="220,-438 48,-438 48,-384 220,-384 220,-438"/>
<text text-anchor="middle" x="134" y="-415" font-family="Sans" font-size="10.00">pull-request</text>
<text text-anchor="middle" x="134" y="-402" font-family="Sans" font-size="10.00">configuration-modules-core#1132</text>
</a>
</g>
<!-- configuration&#45;modules&#45;core#1028 -->
<g id="node25" class="node"><title>configuration-modules-core#1028</title>
<polygon fill="lightgrey" stroke="black" points="534,-105.5 362,-105.5 362,-64.5 534,-64.5 534,-105.5"/>
<text text-anchor="middle" x="448" y="-82.5" font-family="Sans" font-size="10.00">configuration-modules-core#1028</text>
</g>
<!-- configuration&#45;modules&#45;core#1132&#45;&gt;configuration&#45;modules&#45;core#1028 -->
<g id="edge44" class="edge"><title>configuration-modules-core#1132-&gt;configuration-modules-core#1028</title>
<path fill="none" stroke="black" stroke-dasharray="5,2" d="M220.152,-398.426C232.458,-393.053 243.726,-385.523 252,-375 273.326,-347.878 244.906,-88.6793 270,-65 283.392,-52.3635 322.481,-55.6969 360.629,-62.9298"/>
<polygon fill="none" stroke="black" points="360.323,-66.4375 370.814,-64.9536 361.688,-59.5717 360.323,-66.4375"/>
<text text-anchor="middle" x="289" y="-69" font-family="Sans" font-size="10.00">requires</text>
</g>
<!-- configuration&#45;modules&#45;core#1132&#45;&gt;configuration&#45;modules&#45;core#1028 -->
<g id="edge18" class="edge"><title>configuration-modules-core#1132-&gt;configuration-modules-core#1028</title>
<path fill="none" stroke="black" stroke-dasharray="5,2" d="M220.077,-398.366C232.392,-393.001 243.682,-385.488 252,-375 289.503,-327.711 228.185,-147.523 270,-104 290.892,-82.2544 321.519,-74.2636 351.5,-72.7247"/>
<polygon fill="none" stroke="black" points="351.729,-76.2197 361.627,-72.4396 351.532,-69.2225 351.729,-76.2197"/>
<text text-anchor="middle" x="289" y="-108" font-family="Sans" font-size="10.00">requires</text>
</g>
<!-- configuration&#45;modules&#45;core#1124 -->
<g id="node26" class="node"><title>configuration-modules-core#1124</title>
<a xlink:href="https://github.com/quattor/configuration-modules-core/pull/1124" xlink:title="ncm-cron: cleanup and switch to 00-tqu" target="_parent">
<polygon fill="#6cc644" stroke="black" points="220,-510 48,-510 48,-456 220,-456 220,-510"/>
<text text-anchor="middle" x="134" y="-487" font-family="Sans" font-size="10.00">pull-request</text>
<text text-anchor="middle" x="134" y="-474" font-family="Sans" font-size="10.00">configuration-modules-core#1124</text>
</a>
</g>
<!-- CAF#230 -->
<g id="node28" class="node"><title>CAF#230</title>
<polygon fill="lightgrey" stroke="black" points="483,-178.5 413,-178.5 413,-137.5 483,-137.5 483,-178.5"/>
<text text-anchor="middle" x="448" y="-155.5" font-family="Sans" font-size="10.00">CAF#230</text>
</g>
<!-- configuration&#45;modules&#45;core#1124&#45;&gt;CAF#230 -->
<g id="edge46" class="edge"><title>configuration-modules-core#1124-&gt;CAF#230</title>
<path fill="none" stroke="black" stroke-dasharray="5,2" d="M220.167,-470.437C232.471,-465.064 243.734,-457.53 252,-447 273.921,-419.075 244.2,-152.386 270,-128 288.765,-110.264 357.12,-127.79 403.452,-142.531"/>
<polygon fill="none" stroke="black" points="402.386,-145.865 412.978,-145.621 404.546,-139.207 402.386,-145.865"/>
<text text-anchor="middle" x="289" y="-132" font-family="Sans" font-size="10.00">requires</text>
</g>
<!-- configuration&#45;modules&#45;core#1124&#45;&gt;CAF#230 -->
<g id="edge20" class="edge"><title>configuration-modules-core#1124-&gt;CAF#230</title>
<path fill="none" stroke="black" stroke-dasharray="5,2" d="M220.101,-470.385C232.413,-465.017 243.695,-457.499 252,-447 290.956,-397.75 225.059,-208.856 270,-165 304.382,-131.448 362.576,-136.036 403.026,-144.832"/>
<polygon fill="none" stroke="black" points="402.368,-148.273 412.902,-147.139 403.96,-141.456 402.368,-148.273"/>
<text text-anchor="middle" x="289" y="-169" font-family="Sans" font-size="10.00">requires</text>
</g>
<!-- configuration&#45;modules&#45;core#1119 -->
<g id="node29" class="node"><title>configuration-modules-core#1119</title>
<a xlink:href="https://github.com/quattor/configuration-modules-core/pull/1119" xlink:title="ncm-systemd: cleanup, restarting modified unitfiles and initial handling of unconfigured units" target="_parent">
<polygon fill="#6cc644" stroke="black" points="220,-667 48,-667 48,-613 220,-613 220,-667"/>
<text text-anchor="middle" x="134" y="-644" font-family="Sans" font-size="10.00">pull-request</text>
<text text-anchor="middle" x="134" y="-631" font-family="Sans" font-size="10.00">configuration-modules-core#1119</text>
</a>
</g>
<!-- configuration&#45;modules&#45;core#1095 -->
<g id="node31" class="node"><title>configuration-modules-core#1095</title>
<a xlink:href="https://github.com/quattor/configuration-modules-core/issues/1095" xlink:title="Manual intervention required in order for drop-in unit files to have any affect" target="_parent">
<ellipse fill="#6cc644" stroke="black" cx="448" cy="-632" rx="121.122" ry="38.1838"/>
<text text-anchor="middle" x="448" y="-636" font-family="Sans" font-size="10.00">issue</text>
<text text-anchor="middle" x="448" y="-623" font-family="Sans" font-size="10.00">configuration-modules-core#1095</text>
</a>
</g>
<!-- configuration&#45;modules&#45;core#1119&#45;&gt;configuration&#45;modules&#45;core#1095 -->
<g id="edge22" class="edge"><title>configuration-modules-core#1119-&gt;configuration-modules-core#1095</title>
<path fill="none" stroke="black" stroke-width="2" d="M220.315,-644.382C236.805,-645.056 253.933,-645.646 270,-646 286.885,-646.372 291.132,-646.841 308,-646 312.853,-645.758 317.796,-645.469 322.788,-645.142"/>
<polygon fill="black" stroke="black" points="323.355,-648.611 333.086,-644.42 322.866,-641.628 323.355,-648.611"/>
<text text-anchor="middle" x="289" y="-651" font-family="Sans" font-size="10.00">fixes</text>
</g>
<!-- configuration&#45;modules&#45;core#1119&#45;&gt;configuration&#45;modules&#45;core#1095 -->
<g id="edge48" class="edge"><title>configuration-modules-core#1119-&gt;configuration-modules-core#1095</title>
<path fill="none" stroke="black" stroke-width="2" d="M220.27,-631.967C236.765,-630.731 253.905,-629.65 270,-629 285.073,-628.391 300.869,-628.124 316.564,-628.09"/>
<polygon fill="black" stroke="black" points="316.851,-631.59 326.855,-628.1 316.858,-624.59 316.851,-631.59"/>
<text text-anchor="middle" x="289" y="-633" font-family="Sans" font-size="10.00">fixes</text>
</g>
<!-- configuration&#45;modules&#45;core#1087 -->
<g id="node32" class="node"><title>configuration-modules-core#1087</title>
<a xlink:href="https://github.com/quattor/configuration-modules-core/pull/1087" xlink:title="ncm-network: cleanup, fixes and new features" target="_parent">
<polygon fill="#6cc644" stroke="black" points="220,-582 48,-582 48,-528 220,-528 220,-582"/>
<text text-anchor="middle" x="134" y="-559" font-family="Sans" font-size="10.00">pull-request</text>
<text text-anchor="middle" x="134" y="-546" font-family="Sans" font-size="10.00">configuration-modules-core#1087</text>
</a>
</g>
<!-- configuration&#45;modules&#45;core#1087&#45;&gt;CAF#230 -->
<g id="edge34" class="edge"><title>configuration-modules-core#1087-&gt;CAF#230</title>
<path fill="none" stroke="black" stroke-dasharray="5,2" d="M220.107,-542.39C232.418,-537.022 243.699,-529.502 252,-519 291.352,-469.215 235.505,-287.265 270,-234 280.374,-217.981 293.825,-226.779 308,-214 318.712,-204.343 314.163,-195.239 326,-187 348.436,-171.383 378.212,-164.109 402.732,-160.751"/>
<polygon fill="none" stroke="black" points="403.367,-164.2 412.881,-159.539 402.537,-157.25 403.367,-164.2"/>
<text text-anchor="middle" x="289" y="-238" font-family="Sans" font-size="10.00">requires</text>
</g>
<!-- configuration&#45;modules&#45;core#1087&#45;&gt;CAF#230 -->
<g id="edge60" class="edge"><title>configuration-modules-core#1087-&gt;CAF#230</title>
<path fill="none" stroke="black" stroke-dasharray="5,2" d="M220.172,-542.441C232.475,-537.067 243.737,-529.532 252,-519 296.238,-462.615 223.531,-251.561 270,-197 286.913,-177.142 355.893,-166.685 402.845,-161.757"/>
<polygon fill="none" stroke="black" points="403.194,-165.24 412.795,-160.76 402.496,-158.275 403.194,-165.24"/>
<text text-anchor="middle" x="289" y="-201" font-family="Sans" font-size="10.00">requires</text>
</g>
<!-- configuration&#45;modules&#45;core#1082 -->
<g id="node34" class="node"><title>configuration-modules-core#1082</title>
<a xlink:href="https://github.com/quattor/configuration-modules-core/issues/1082" xlink:title="ncm-network: Allow extra routing options for the default route" target="_parent">
<ellipse fill="#6cc644" stroke="black" cx="448" cy="-350" rx="121.122" ry="38.1838"/>
<text text-anchor="middle" x="448" y="-354" font-family="Sans" font-size="10.00">issue</text>
<text text-anchor="middle" x="448" y="-341" font-family="Sans" font-size="10.00">configuration-modules-core#1082</text>
</a>
</g>
<!-- configuration&#45;modules&#45;core#1087&#45;&gt;configuration&#45;modules&#45;core#1082 -->
<g id="edge24" class="edge"><title>configuration-modules-core#1087-&gt;configuration-modules-core#1082</title>
<path fill="none" stroke="black" stroke-width="2" d="M220.018,-541.185C232.106,-535.946 243.339,-528.782 252,-519 282.516,-484.534 240.601,-452.423 270,-417 276.235,-409.487 314.7,-394.616 354.284,-380.789"/>
<polygon fill="black" stroke="black" points="355.507,-384.07 363.81,-377.488 353.215,-377.456 355.507,-384.07"/>
<text text-anchor="middle" x="289" y="-421" font-family="Sans" font-size="10.00">fixes</text>
</g>
<!-- configuration&#45;modules&#45;core#1087&#45;&gt;configuration&#45;modules&#45;core#1082 -->
<g id="edge50" class="edge"><title>configuration-modules-core#1087-&gt;configuration-modules-core#1082</title>
<path fill="none" stroke="black" stroke-width="2" d="M220.152,-540.094C232,-534.983 243.124,-528.145 252,-519 273.176,-497.182 251.687,-477.271 270,-453 281.89,-437.241 294.358,-444.269 308,-430 319.545,-417.924 313.435,-408.011 326,-397 333.095,-390.782 341.102,-385.345 349.538,-380.598"/>
<polygon fill="black" stroke="black" points="351.246,-383.654 358.464,-375.897 347.985,-377.46 351.246,-383.654"/>
<text text-anchor="middle" x="289" y="-457" font-family="Sans" font-size="10.00">fixes</text>
</g>
<!-- configuration&#45;modules&#45;core#870 -->
<g id="node36" class="node"><title>configuration-modules-core#870</title>
<a xlink:href="https://github.com/quattor/configuration-modules-core/issues/870" xlink:title="ncm-network: hostname is not set in el7" target="_parent">
<ellipse fill="#6cc644" stroke="black" cx="448" cy="-444" rx="118.087" ry="38.1838"/>
<text text-anchor="middle" x="448" y="-448" font-family="Sans" font-size="10.00">issue</text>
<text text-anchor="middle" x="448" y="-435" font-family="Sans" font-size="10.00">configuration-modules-core#870</text>
</a>
</g>
<!-- configuration&#45;modules&#45;core#1087&#45;&gt;configuration&#45;modules&#45;core#870 -->
<g id="edge26" class="edge"><title>configuration-modules-core#1087-&gt;configuration-modules-core#870</title>
<path fill="none" stroke="black" stroke-width="2" d="M220.225,-536.936C231.586,-532.261 242.549,-526.385 252,-519 264.253,-509.427 257.519,-498.273 270,-489 287.008,-476.364 307.184,-467.255 327.737,-460.695"/>
<polygon fill="black" stroke="black" points="328.944,-463.988 337.519,-457.766 326.936,-457.282 328.944,-463.988"/>
<text text-anchor="middle" x="289" y="-493" font-family="Sans" font-size="10.00">fixes</text>
</g>
<!-- configuration&#45;modules&#45;core#1087&#45;&gt;configuration&#45;modules&#45;core#870 -->
<g id="edge52" class="edge"><title>configuration-modules-core#1087-&gt;configuration-modules-core#870</title>
<path fill="none" stroke="black" stroke-width="2" d="M220.094,-533.454C248.636,-525.088 280.201,-514.485 308,-502 316.553,-498.159 317.591,-495.147 326,-491 336.576,-485.785 347.884,-480.75 359.192,-476.038"/>
<polygon fill="black" stroke="black" points="360.744,-479.185 368.674,-472.159 358.093,-472.706 360.744,-479.185"/>
<text text-anchor="middle" x="289" y="-521" font-family="Sans" font-size="10.00">fixes</text>
</g>
<!-- configuration&#45;modules&#45;core#1109 -->
<g id="node38" class="node"><title>configuration-modules-core#1109</title>
<a xlink:href="https://github.com/quattor/configuration-modules-core/issues/1109" xlink:title="ncm-network: systemd rpm scripts remove HOSTNAME from /etc/sysconfig/network" target="_parent">
<ellipse fill="#6cc644" stroke="black" cx="448" cy="-538" rx="121.122" ry="38.1838"/>
<text text-anchor="middle" x="448" y="-542" font-family="Sans" font-size="10.00">issue</text>
<text text-anchor="middle" x="448" y="-529" font-family="Sans" font-size="10.00">configuration-modules-core#1109</text>
</a>
</g>
<!-- configuration&#45;modules&#45;core#1087&#45;&gt;configuration&#45;modules&#45;core#1109 -->
<g id="edge28" class="edge"><title>configuration-modules-core#1087-&gt;configuration-modules-core#1109</title>
<path fill="none" stroke="black" stroke-width="2" d="M220.217,-550.332C250.409,-548.698 285.018,-546.824 317.99,-545.039"/>
<polygon fill="black" stroke="black" points="318.368,-548.524 328.164,-544.488 317.989,-541.534 318.368,-548.524"/>
<text text-anchor="middle" x="289" y="-552" font-family="Sans" font-size="10.00">fixes</text>
</g>
<!-- configuration&#45;modules&#45;core#1087&#45;&gt;configuration&#45;modules&#45;core#1109 -->
<g id="edge54" class="edge"><title>configuration-modules-core#1087-&gt;configuration-modules-core#1109</title>
<path fill="none" stroke="black" stroke-width="2" d="M220.389,-565.165C248.376,-567.069 279.536,-567.72 308,-565 317.795,-564.064 327.923,-562.768 338.046,-561.246"/>
<polygon fill="black" stroke="black" points="338.82,-564.667 348.153,-559.653 337.731,-557.752 338.82,-564.667"/>
<text text-anchor="middle" x="289" y="-571" font-family="Sans" font-size="10.00">fixes</text>
</g>
<!-- configuration&#45;modules&#45;core#1085 -->
<g id="node40" class="node"><title>configuration-modules-core#1085</title>
<polygon fill="lightgrey" stroke="black" points="534,-294.5 362,-294.5 362,-253.5 534,-253.5 534,-294.5"/>
<text text-anchor="middle" x="448" y="-271.5" font-family="Sans" font-size="10.00">configuration-modules-core#1085</text>
</g>
<!-- configuration&#45;modules&#45;core#1087&#45;&gt;configuration&#45;modules&#45;core#1085 -->
<g id="edge30" class="edge"><title>configuration-modules-core#1087-&gt;configuration-modules-core#1085</title>
<path fill="none" stroke="black" stroke-dasharray="1,5" d="M220.1,-541.642C232.255,-536.352 243.487,-529.052 252,-519 291.688,-472.135 236.909,-433.734 270,-382 280.763,-365.173 295.845,-373.851 308,-358 324.424,-336.582 306.067,-318.198 326,-300 333.636,-293.029 342.666,-287.754 352.306,-283.784"/>
<polygon fill="black" stroke="black" points="361.71,-280.366 353.849,-288.012 357.011,-282.074 352.312,-283.783 352.312,-283.783 352.312,-283.783 357.011,-282.074 350.774,-279.553 361.71,-280.366 361.71,-280.366"/>
<text text-anchor="middle" x="289" y="-386" font-family="Sans" font-size="10.00">replaces</text>
</g>
<!-- configuration&#45;modules&#45;core#1087&#45;&gt;configuration&#45;modules&#45;core#1085 -->
<g id="edge56" class="edge"><title>configuration-modules-core#1087-&gt;configuration-modules-core#1085</title>
<path fill="none" stroke="black" stroke-dasharray="1,5" d="M220.066,-541.99C232.303,-536.663 243.57,-529.261 252,-519 302.475,-457.56 224.843,-406.448 270,-341 280.723,-325.458 293.251,-333.79 308,-322 317.868,-314.112 315.213,-306.577 326,-300 334.097,-295.063 342.993,-291.055 352.179,-287.801"/>
<polygon fill="black" stroke="black" points="361.834,-284.677 353.705,-292.037 357.077,-286.216 352.32,-287.756 352.32,-287.756 352.32,-287.756 357.077,-286.216 350.935,-283.474 361.834,-284.677 361.834,-284.677"/>
<text text-anchor="middle" x="289" y="-345" font-family="Sans" font-size="10.00">replaces</text>
</g>
<!-- configuration&#45;modules&#45;core#1070 -->
<g id="node42" class="node"><title>configuration-modules-core#1070</title>
<polygon fill="lightgrey" stroke="black" points="534,-236.5 362,-236.5 362,-195.5 534,-195.5 534,-236.5"/>
<text text-anchor="middle" x="448" y="-213.5" font-family="Sans" font-size="10.00">configuration-modules-core#1070</text>
</g>
<!-- configuration&#45;modules&#45;core#1087&#45;&gt;configuration&#45;modules&#45;core#1070 -->
<g id="edge32" class="edge"><title>configuration-modules-core#1087-&gt;configuration-modules-core#1070</title>
<path fill="none" stroke="black" stroke-dasharray="1,5" d="M220.017,-542.318C232.339,-536.959 243.647,-529.46 252,-519 286.204,-476.168 239.5,-318.543 270,-273 285.484,-249.879 299.846,-254.503 326,-245 334.415,-241.942 343.275,-239.119 352.219,-236.533"/>
<polygon fill="black" stroke="black" points="361.941,-233.821 353.518,-240.843 357.125,-235.164 352.309,-236.508 352.309,-236.508 352.309,-236.508 357.125,-235.164 351.1,-232.174 361.941,-233.821 361.941,-233.821"/>
<text text-anchor="middle" x="289" y="-277" font-family="Sans" font-size="10.00">replaces</text>
</g>
<!-- configuration&#45;modules&#45;core#1087&#45;&gt;configuration&#45;modules&#45;core#1070 -->
<g id="edge58" class="edge"><title>configuration-modules-core#1087-&gt;configuration-modules-core#1070</title>
<path fill="none" stroke="black" stroke-dasharray="1,5" d="M220.216,-542.111C232.434,-536.77 243.657,-529.332 252,-519 281.982,-481.87 243.23,-344.508 270,-305 280.592,-289.368 294.986,-299.681 308,-286 321.716,-271.581 310.718,-257.748 326,-245 333.774,-238.515 342.749,-233.43 352.232,-229.448"/>
<polygon fill="black" stroke="black" points="361.859,-225.825 354.085,-233.559 357.179,-227.586 352.5,-229.348 352.5,-229.348 352.5,-229.348 357.179,-227.586 350.914,-225.136 361.859,-225.825 361.859,-225.825"/>
<text text-anchor="middle" x="289" y="-309" font-family="Sans" font-size="10.00">replaces</text>
</g>
<!-- configuration&#45;modules&#45;core#1058 -->
<g id="node57" class="node"><title>configuration-modules-core#1058</title>
<a xlink:href="https://github.com/quattor/configuration-modules-core/pull/1058" xlink:title="ncm-ssh: disable insecure ssh ciphersuites and macs" target="_parent">
<polygon fill="#6cc644" stroke="black" points="220,-366 48,-366 48,-312 220,-312 220,-366"/>
<text text-anchor="middle" x="134" y="-343" font-family="Sans" font-size="10.00">pull-request</text>
<text text-anchor="middle" x="134" y="-330" font-family="Sans" font-size="10.00">configuration-modules-core#1058</text>
</a>
</g>
<!-- configuration&#45;modules&#45;core#983 -->
<g id="node59" class="node"><title>configuration-modules-core#983</title>
<polygon fill="lightgrey" stroke="black" points="531,-40.5 365,-40.5 365,0.5 531,0.5 531,-40.5"/>
<text text-anchor="middle" x="448" y="-17.5" font-family="Sans" font-size="10.00">configuration-modules-core#983</text>
</g>
<!-- configuration&#45;modules&#45;core#1058&#45;&gt;configuration&#45;modules&#45;core#983 -->
<g id="edge62" class="edge"><title>configuration-modules-core#1058-&gt;configuration-modules-core#983</title>
<path fill="none" stroke="black" stroke-dasharray="1,5" d="M136.064,-311.952C142.565,-248.086 168.704,-88.2586 270,-21 294.411,-4.79128 325.159,-0.452521 354.2,-1.41433"/>
<polygon fill="black" stroke="black" points="364.388,-1.96482 354.16,-5.91862 359.395,-1.695 354.403,-1.42518 354.403,-1.42518 354.403,-1.42518 359.395,-1.695 354.645,3.06827 364.388,-1.96482 364.388,-1.96482"/>
<text text-anchor="middle" x="289" y="-25" font-family="Sans" font-size="10.00">replaces</text>
</g>
<!-- configuration&#45;modules&#45;core#950 -->
<g id="node60" class="node"><title>configuration-modules-core#950</title>
<a xlink:href="https://github.com/quattor/configuration-modules-core/issues/950" xlink:title="ncm-spma: Remove support for package groups from yum backends" target="_parent">
<ellipse fill="#6cc644" stroke="black" cx="134" cy="-902" rx="118.087" ry="38.1838"/>
<text text-anchor="middle" x="134" y="-906" font-family="Sans" font-size="10.00">issue</text>
<text text-anchor="middle" x="134" y="-893" font-family="Sans" font-size="10.00">configuration-modules-core#950</text>
</a>
</g>
<!-- configuration&#45;modules&#45;core#950&#45;&gt;configuration&#45;modules&#45;core#952 -->
<g id="edge66" class="edge"><title>configuration-modules-core#950-&gt;configuration-modules-core#952</title>
<path fill="none" stroke="black" stroke-dasharray="5,2" d="M225.666,-878.062C263.547,-868.169 307.604,-856.664 346.46,-846.517"/>
<polygon fill="none" stroke="black" points="347.429,-849.881 356.22,-843.968 345.66,-843.108 347.429,-849.881"/>
<text text-anchor="middle" x="289" y="-870" font-family="Sans" font-size="10.00">requires</text>
</g>
<!-- configuration&#45;modules&#45;core#951 -->
<g id="node62" class="node"><title>configuration-modules-core#951</title>
<a xlink:href="https://github.com/quattor/configuration-modules-core/issues/951" xlink:title="ncm-spma (yum): Remove support for package groups" target="_parent">
<ellipse fill="#6cc644" stroke="black" cx="448" cy="-914" rx="118.087" ry="38.1838"/>
<text text-anchor="middle" x="448" y="-918" font-family="Sans" font-size="10.00">issue</text>
<text text-anchor="middle" x="448" y="-905" font-family="Sans" font-size="10.00">configuration-modules-core#951</text>
</a>
</g>
<!-- configuration&#45;modules&#45;core#950&#45;&gt;configuration&#45;modules&#45;core#951 -->
<g id="edge64" class="edge"><title>configuration-modules-core#950-&gt;configuration-modules-core#951</title>
<path fill="none" stroke="black" stroke-dasharray="5,2" d="M251.369,-906.485C273.978,-907.349 297.76,-908.258 320.668,-909.134"/>
<polygon fill="none" stroke="black" points="320.647,-912.635 330.774,-909.52 320.915,-905.641 320.647,-912.635"/>
<text text-anchor="middle" x="289" y="-913" font-family="Sans" font-size="10.00">requires</text>
</g>
</g>
</svg>
