<?xml version="1.0" encoding="UTF-8" standalone="no"?>
<?xml-stylesheet href="relationships.css" type="text/css"?>
<!-- Generated by graphviz version 2.30.1 (20200930.0103)
 -->
<!-- Title: Dependencies Pages: 1 -->
<svg xmlns="http://www.w3.org/2000/svg" xmlns:xlink="http://www.w3.org/1999/xlink" width="1174pt" height="2073pt" viewBox="0.00 0.00 1174.00 2073.00">
<g id="graph0" class="graph" transform="scale(1 1) rotate(0) translate(4 2069)">
<title>Dependencies</title>
<polygon fill="white" stroke="white" points="-4,5 -4,-2069 1171,-2069 1171,5 -4,5"/>
<g id="clust3" class="cluster"><title>cluster_milestone_21.3</title>
<polygon fill="none" stroke="black" points="28,-602 28,-1301 630,-1301 630,-602 28,-602"/>
<text text-anchor="middle" x="329" y="-1287.4" font-family="Sans" font-size="12.00">21.3</text>
</g>
<g id="clust2" class="cluster"><title>cluster_milestone_21.1</title>
<polygon fill="none" stroke="black" points="378,-104 378,-204 902,-204 902,-104 378,-104"/>
<text text-anchor="middle" x="640" y="-190.4" font-family="Sans" font-size="12.00">21.1</text>
</g>
<g id="clust1" class="cluster"><title>cluster_milestone_21.6</title>
<polygon fill="none" stroke="black" points="47,-1309 47,-1505 603,-1505 603,-1309 47,-1309"/>
<text text-anchor="middle" x="325" y="-1491.4" font-family="Sans" font-size="12.00">21.6</text>
</g>
<g id="clust4" class="cluster"><title>cluster_repo_aquilon</title>
<polygon fill="none" stroke="black" points="66,-1746 66,-2057 557,-2057 557,-1746 66,-1746"/>
<text text-anchor="middle" x="311.5" y="-2043.4" font-family="Sans" font-size="12.00">aquilon</text>
</g>
<!-- aii#325 -->
<g id="node1" class="node"><title>aii#325</title>
<g id="a_node1"><a xlink:href="https://github.com/quattor/aii/pull/325" xlink:title="Use wipefs for RHEL6+" target="_parent">
<polygon fill="#6cc644" stroke="black" points="177.5,-1068 90.5,-1068 90.5,-1018 177.5,-1018 177.5,-1068"/>
<text text-anchor="middle" x="134" y="-1046" font-family="Sans" font-size="10.00">pull-request</text>
<text text-anchor="middle" x="134" y="-1035" font-family="Sans" font-size="10.00">aii#325</text>
</a>
</g>
</g>
<!-- ncm&#45;lib&#45;blockdevices#93 -->
<g id="node2" class="node"><title>ncm-lib-blockdevices#93</title>
<polygon fill="lightgrey" stroke="black" points="560.5,-593.5 407.5,-593.5 407.5,-554.5 560.5,-554.5 560.5,-593.5"/>
<text text-anchor="middle" x="484" y="-571.5" font-family="Sans" font-size="10.00">ncm-lib-blockdevices#93</text>
</g>
<!-- aii#325&#45;&gt;ncm&#45;lib&#45;blockdevices#93 -->
<g id="edge1" class="edge"><title>aii#325-&gt;ncm-lib-blockdevices#93</title>
<path fill="none" stroke="black" stroke-dasharray="5,2" d="M177.607,-1044.13C207.578,-1042.44 246.104,-1034.8 268,-1009 297.874,-973.793 277.443,-847.374 286,-802 303.514,-709.13 275.518,-660.959 346,-598 360.196,-585.319 378.641,-578.172 397.371,-574.353"/>
<polygon fill="none" stroke="black" points="398.217,-577.759 407.474,-572.604 397.023,-570.861 398.217,-577.759"/>
<text text-anchor="middle" x="307" y="-805" font-family="Sans" font-size="10.00">requires</text>
</g>
<!-- aii#316 -->
<g id="node3" class="node"><title>aii#316</title>
<g id="a_node3"><a xlink:href="https://github.com/quattor/aii/pull/316" xlink:title="aii-ks: generate kickstart repo entries based on SPMA configuration" target="_parent">
<polygon fill="#6cc644" stroke="black" points="177.5,-1000 90.5,-1000 90.5,-950 177.5,-950 177.5,-1000"/>
<text text-anchor="middle" x="134" y="-978" font-family="Sans" font-size="10.00">pull-request</text>
<text text-anchor="middle" x="134" y="-967" font-family="Sans" font-size="10.00">aii#316</text>
</a>
</g>
</g>
<!-- aii#314 -->
<g id="node4" class="node"><title>aii#314</title>
<polygon fill="lightgrey" stroke="black" points="517.5,-536.5 450.5,-536.5 450.5,-497.5 517.5,-497.5 517.5,-536.5"/>
<text text-anchor="middle" x="484" y="-514.5" font-family="Sans" font-size="10.00">aii#314</text>
</g>
<!-- aii#316&#45;&gt;aii#314 -->
<g id="edge2" class="edge"><title>aii#316-&gt;aii#314</title>
<path fill="none" stroke="black" stroke-dasharray="5,2" d="M177.613,-976.414C207.79,-974.899 246.573,-967.349 268,-941 296.069,-906.483 255.763,-573.635 286,-541 324.452,-499.498 394.63,-501.363 440.012,-508.037"/>
<polygon fill="none" stroke="black" points="439.71,-511.533 450.139,-509.666 440.821,-504.622 439.71,-511.533"/>
<text text-anchor="middle" x="307" y="-544" font-family="Sans" font-size="10.00">requires</text>
</g>
<!-- aii#315 -->
<g id="node5" class="node"><title>aii#315</title>
<polygon fill="lightgrey" stroke="black" points="517.5,-479.5 450.5,-479.5 450.5,-440.5 517.5,-440.5 517.5,-479.5"/>
<text text-anchor="middle" x="484" y="-457.5" font-family="Sans" font-size="10.00">aii#315</text>
</g>
<!-- aii#316&#45;&gt;aii#315 -->
<g id="edge3" class="edge"><title>aii#316-&gt;aii#315</title>
<path fill="none" stroke="black" stroke-dasharray="5,2" d="M177.645,-976.44C207.838,-974.938 246.627,-967.393 268,-941 298.793,-902.975 254.51,-538.45 286,-501 323.127,-456.845 394.329,-452.596 440.196,-455.141"/>
<polygon fill="none" stroke="black" points="440.208,-458.65 450.425,-455.844 440.688,-451.667 440.208,-458.65"/>
<text text-anchor="middle" x="307" y="-504" font-family="Sans" font-size="10.00">requires</text>
</g>
<!-- aii#299 -->
<g id="node6" class="node"><title>aii#299</title>
<g id="a_node6"><a xlink:href="https://github.com/quattor/aii/pull/299" xlink:title="aii-dhcp: support optional hostname ip verification" target="_parent">
<polygon fill="#6cc644" stroke="black" points="177.5,-1272 90.5,-1272 90.5,-1222 177.5,-1222 177.5,-1272"/>
<text text-anchor="middle" x="134" y="-1250" font-family="Sans" font-size="10.00">pull-request</text>
<text text-anchor="middle" x="134" y="-1239" font-family="Sans" font-size="10.00">aii#299</text>
</a>
</g>
</g>
<!-- aii#296 -->
<g id="node7" class="node"><title>aii#296</title>
<g id="a_node7"><a xlink:href="https://github.com/quattor/aii/pull/296" xlink:title="DHCP plugin updates" target="_parent">
<polygon fill="#6cc644" stroke="black" points="527.5,-1272 440.5,-1272 440.5,-1222 527.5,-1222 527.5,-1272"/>
<text text-anchor="middle" x="484" y="-1250" font-family="Sans" font-size="10.00">pull-request</text>
<text text-anchor="middle" x="484" y="-1239" font-family="Sans" font-size="10.00">aii#296</text>
</a>
</g>
</g>
<!-- aii#299&#45;&gt;aii#296 -->
<g id="edge4" class="edge"><title>aii#299-&gt;aii#296</title>
<path fill="none" stroke="black" stroke-dasharray="5,2" d="M177.672,-1247C241.287,-1247 360.896,-1247 430.02,-1247"/>
<polygon fill="none" stroke="black" points="430.252,-1250.5 440.252,-1247 430.252,-1243.5 430.252,-1250.5"/>
<text text-anchor="middle" x="307" y="-1250" font-family="Sans" font-size="10.00">requires</text>
</g>
<!-- aii#280 -->
<g id="node8" class="node"><title>aii#280</title>
<g id="a_node8"><a xlink:href="https://github.com/quattor/aii/pull/280" xlink:title="Support active configuration attribute for plugins" target="_parent">
<polygon fill="#6cc644" stroke="black" points="177.5,-932 90.5,-932 90.5,-882 177.5,-882 177.5,-932"/>
<text text-anchor="middle" x="134" y="-910" font-family="Sans" font-size="10.00">pull-request</text>
<text text-anchor="middle" x="134" y="-899" font-family="Sans" font-size="10.00">aii#280</text>
</a>
</g>
</g>
<!-- aii#209 -->
<g id="node9" class="node"><title>aii#209</title>
<g id="a_node9"><a xlink:href="https://github.com/quattor/aii/issues/209" xlink:title="support ACTIVE_CONFIG" target="_parent">
<ellipse fill="#6cc644" stroke="black" cx="484" cy="-907" rx="47.2526" ry="35.2113"/>
<text text-anchor="middle" x="484" y="-910" font-family="Sans" font-size="10.00">issue</text>
<text text-anchor="middle" x="484" y="-899" font-family="Sans" font-size="10.00">aii#209</text>
</a>
</g>
</g>
<!-- aii#280&#45;&gt;aii#209 -->
<g id="edge5" class="edge"><title>aii#280-&gt;aii#209</title>
<path fill="none" stroke="black" stroke-width="2" d="M177.672,-907C240.079,-907 356.372,-907 426.027,-907"/>
<polygon fill="black" stroke="black" points="426.372,-910.5 436.372,-907 426.372,-903.5 426.372,-910.5"/>
<text text-anchor="middle" x="307" y="-910" font-family="Sans" font-size="10.00">fixes</text>
</g>
<!-- ncm&#45;ncd#74 -->
<g id="node10" class="node"><title>ncm-ncd#74</title>
<polygon fill="lightgrey" stroke="black" points="529.5,-422.5 438.5,-422.5 438.5,-383.5 529.5,-383.5 529.5,-422.5"/>
<text text-anchor="middle" x="484" y="-400.5" font-family="Sans" font-size="10.00">ncm-ncd#74</text>
</g>
<!-- aii#280&#45;&gt;ncm&#45;ncd#74 -->
<g id="edge6" class="edge"><title>aii#280-&gt;ncm-ncd#74</title>
<path fill="none" stroke="black" stroke-dasharray="5,2" d="M177.649,-908.444C207.844,-906.943 246.634,-899.399 268,-873 299.202,-834.449 252.377,-463.459 286,-427 321.105,-388.934 382.89,-387.292 427.929,-392.426"/>
<polygon fill="none" stroke="black" points="427.764,-395.933 438.128,-393.735 428.655,-388.99 427.764,-395.933"/>
<text text-anchor="middle" x="307" y="-430" font-family="Sans" font-size="10.00">requires</text>
</g>
<!-- aii#203 -->
<g id="node11" class="node"><title>aii#203</title>
<polygon fill="lightgrey" stroke="black" points="517.5,-365.5 450.5,-365.5 450.5,-326.5 517.5,-326.5 517.5,-365.5"/>
<text text-anchor="middle" x="484" y="-343.5" font-family="Sans" font-size="10.00">aii#203</text>
</g>
<!-- aii#280&#45;&gt;aii#203 -->
<g id="edge7" class="edge"><title>aii#280-&gt;aii#203</title>
<path fill="none" stroke="black" stroke-dasharray="5,2" d="M177.675,-908.465C207.883,-906.974 246.678,-899.434 268,-873 301.926,-830.94 251.303,-428.426 286,-387 323.042,-342.774 394.268,-338.545 440.163,-341.114"/>
<polygon fill="none" stroke="black" points="440.181,-344.624 450.399,-341.823 440.665,-337.64 440.181,-344.624"/>
<text text-anchor="middle" x="307" y="-390" font-family="Sans" font-size="10.00">requires</text>
</g>
<!-- aii#210 -->
<g id="node12" class="node"><title>aii#210</title>
<polygon fill="lightgrey" stroke="black" points="517.5,-308.5 450.5,-308.5 450.5,-269.5 517.5,-269.5 517.5,-308.5"/>
<text text-anchor="middle" x="484" y="-286.5" font-family="Sans" font-size="10.00">aii#210</text>
</g>
<!-- aii#280&#45;&gt;aii#210 -->
<g id="edge8" class="edge"><title>aii#280-&gt;aii#210</title>
<path fill="none" stroke="black" stroke-dasharray="1,5" d="M177.698,-908.483C207.918,-907.003 246.717,-899.466 268,-873 304.855,-827.169 253.232,-392.837 286,-344 303.157,-318.429 387.488,-302.262 440.099,-294.493"/>
<polygon fill="black" stroke="black" points="450.169,-293.051 440.908,-298.923 445.219,-293.76 440.27,-294.469 440.27,-294.469 440.27,-294.469 445.219,-293.76 439.632,-290.014 450.169,-293.051 450.169,-293.051"/>
<text text-anchor="middle" x="307" y="-347" font-family="Sans" font-size="10.00">replaces</text>
</g>
<!-- CAF#257 -->
<g id="node13" class="node"><title>CAF#257</title>
<g id="a_node13"><a xlink:href="https://github.com/quattor/CAF/pull/257" xlink:title="Process: run process as another user" target="_parent">
<polygon fill="#6cc644" stroke="black" points="177.5,-1466 90.5,-1466 90.5,-1416 177.5,-1416 177.5,-1466"/>
<text text-anchor="middle" x="134" y="-1444" font-family="Sans" font-size="10.00">pull-request</text>
<text text-anchor="middle" x="134" y="-1433" font-family="Sans" font-size="10.00">CAF#257</text>
</a>
</g>
</g>
<!-- CAF#253 -->
<g id="node14" class="node"><title>CAF#253</title>
<g id="a_node14"><a xlink:href="https://github.com/quattor/CAF/issues/253" xlink:title="CAF::Process: Include an option to execute the command as an specific user" target="_parent">
<ellipse fill="#6cc644" stroke="black" cx="484" cy="-1441" rx="52.1524" ry="35.2113"/>
<text text-anchor="middle" x="484" y="-1444" font-family="Sans" font-size="10.00">issue</text>
<text text-anchor="middle" x="484" y="-1433" font-family="Sans" font-size="10.00">CAF#253</text>
</a>
</g>
</g>
<!-- CAF#257&#45;&gt;CAF#253 -->
<g id="edge9" class="edge"><title>CAF#257-&gt;CAF#253</title>
<path fill="none" stroke="black" stroke-width="2" d="M177.672,-1441C238.737,-1441 351.395,-1441 421.469,-1441"/>
<polygon fill="black" stroke="black" points="421.488,-1444.5 431.488,-1441 421.488,-1437.5 421.488,-1444.5"/>
<text text-anchor="middle" x="307" y="-1444" font-family="Sans" font-size="10.00">fixes</text>
</g>
<!-- CAF#110 -->
<g id="node15" class="node"><title>CAF#110</title>
<g id="a_node15"><a xlink:href="https://github.com/quattor/CAF/pull/110" xlink:title="CAF::Download class: API proposal" target="_parent">
<polygon fill="#6cc644" stroke="black" points="177.5,-1563 90.5,-1563 90.5,-1513 177.5,-1513 177.5,-1563"/>
<text text-anchor="middle" x="134" y="-1541" font-family="Sans" font-size="10.00">pull-request</text>
<text text-anchor="middle" x="134" y="-1530" font-family="Sans" font-size="10.00">CAF#110</text>
</a>
</g>
</g>
<!-- CAF#120 -->
<g id="node16" class="node"><title>CAF#120</title>
<polygon fill="lightgrey" stroke="black" points="521,-1557.5 447,-1557.5 447,-1518.5 521,-1518.5 521,-1557.5"/>
<text text-anchor="middle" x="484" y="-1535.5" font-family="Sans" font-size="10.00">CAF#120</text>
</g>
<!-- CAF#110&#45;&gt;CAF#120 -->
<g id="edge10" class="edge"><title>CAF#110-&gt;CAF#120</title>
<path fill="none" stroke="black" stroke-dasharray="5,2" d="M177.672,-1538C243.31,-1538 368.559,-1538 436.458,-1538"/>
<polygon fill="none" stroke="black" points="436.845,-1541.5 446.845,-1538 436.845,-1534.5 436.845,-1541.5"/>
<text text-anchor="middle" x="307" y="-1541" font-family="Sans" font-size="10.00">requires</text>
</g>
<!-- configuration&#45;modules&#45;core#1463 -->
<g id="node17" class="node"><title>configuration-modules-core#1463</title>
<g id="a_node17"><a xlink:href="https://github.com/quattor/configuration-modules-core/pull/1463" xlink:title="ncm-ceph: add support for centralized configuration management" target="_parent">
<polygon fill="#6cc644" stroke="black" points="231.5,-796 36.5,-796 36.5,-746 231.5,-746 231.5,-796"/>
<text text-anchor="middle" x="134" y="-774" font-family="Sans" font-size="10.00">pull-request</text>
<text text-anchor="middle" x="134" y="-763" font-family="Sans" font-size="10.00">configuration-modules-core#1463</text>
</a>
</g>
</g>
<!-- configuration&#45;modules&#45;core#1462 -->
<g id="node18" class="node"><title>configuration-modules-core#1462</title>
<polygon fill="lightgrey" stroke="black" points="581.5,-251.5 386.5,-251.5 386.5,-212.5 581.5,-212.5 581.5,-251.5"/>
<text text-anchor="middle" x="484" y="-229.5" font-family="Sans" font-size="10.00">configuration-modules-core#1462</text>
</g>
<!-- configuration&#45;modules&#45;core#1463&#45;&gt;configuration&#45;modules&#45;core#1462 -->
<g id="edge11" class="edge"><title>configuration-modules-core#1463-&gt;configuration-modules-core#1462</title>
<path fill="none" stroke="black" stroke-dasharray="5,2" d="M231.739,-762.101C245.742,-756.689 258.581,-748.693 268,-737 303.084,-693.449 245.952,-273.035 286,-234 299.35,-220.988 337.05,-218.695 375.943,-220.351"/>
<polygon fill="none" stroke="black" points="376.216,-223.87 386.382,-220.885 376.574,-216.879 376.216,-223.87"/>
<text text-anchor="middle" x="307" y="-237" font-family="Sans" font-size="10.00">requires</text>
</g>
<!-- configuration&#45;modules&#45;core#1463&#45;&gt;configuration&#45;modules&#45;core#1462 -->
<g id="edge22" class="edge"><title>configuration-modules-core#1463-&gt;configuration-modules-core#1462</title>
<path fill="none" stroke="black" stroke-dasharray="5,2" d="M231.713,-762.08C245.72,-756.671 258.565,-748.68 268,-737 300.768,-696.432 251.841,-307.405 286,-268 298.544,-253.529 336.773,-244.846 376.258,-239.65"/>
<polygon fill="none" stroke="black" points="376.816,-243.107 386.309,-238.402 375.954,-236.161 376.816,-243.107"/>
<text text-anchor="middle" x="307" y="-271" font-family="Sans" font-size="10.00">requires</text>
</g>
<!-- configuration&#45;modules&#45;core#1456 -->
<g id="node19" class="node"><title>configuration-modules-core#1456</title>
<g id="a_node19"><a xlink:href="https://github.com/quattor/configuration-modules-core/pull/1456" xlink:title="ncm-opennebula: include 5.12.x support" target="_parent">
<polygon fill="#6cc644" stroke="black" points="231.5,-728 36.5,-728 36.5,-678 231.5,-678 231.5,-728"/>
<text text-anchor="middle" x="134" y="-706" font-family="Sans" font-size="10.00">pull-request</text>
<text text-anchor="middle" x="134" y="-695" font-family="Sans" font-size="10.00">configuration-modules-core#1456</text>
</a>
</g>
</g>
<!-- configuration&#45;modules&#45;core#1427 -->
<g id="node20" class="node"><title>configuration-modules-core#1427</title>
<g id="a_node20"><a xlink:href="https://github.com/quattor/configuration-modules-core/pull/1427" xlink:title="ncm-opennebula: RDM datastore support" target="_parent">
<polygon fill="#6cc644" stroke="black" points="581.5,-170 386.5,-170 386.5,-120 581.5,-120 581.5,-170"/>
<text text-anchor="middle" x="484" y="-148" font-family="Sans" font-size="10.00">pull-request</text>
<text text-anchor="middle" x="484" y="-137" font-family="Sans" font-size="10.00">configuration-modules-core#1427</text>
</a>
</g>
</g>
<!-- configuration&#45;modules&#45;core#1456&#45;&gt;configuration&#45;modules&#45;core#1427 -->
<g id="edge12" class="edge"><title>configuration-modules-core#1456-&gt;configuration-modules-core#1427</title>
<path fill="none" stroke="black" stroke-dasharray="5,2" d="M231.739,-694.101C245.742,-688.689 258.581,-680.693 268,-669 303.084,-625.449 247.872,-206.912 286,-166 298.89,-152.169 337.037,-146.344 376.373,-144.2"/>
<polygon fill="none" stroke="black" points="376.559,-147.695 386.385,-143.732 376.232,-140.703 376.559,-147.695"/>
<text text-anchor="middle" x="307" y="-169" font-family="Sans" font-size="10.00">requires</text>
</g>
<!-- configuration&#45;modules&#45;core#1456&#45;&gt;configuration&#45;modules&#45;core#1427 -->
<g id="edge23" class="edge"><title>configuration-modules-core#1456-&gt;configuration-modules-core#1427</title>
<path fill="none" stroke="black" stroke-dasharray="5,2" d="M231.76,-694.118C245.761,-688.704 258.593,-680.702 268,-669 305.196,-622.73 243.32,-176.266 286,-135 317.681,-104.368 367.29,-107.059 408.797,-117.311"/>
<polygon fill="none" stroke="black" points="408.047,-120.733 418.61,-119.909 409.839,-113.966 408.047,-120.733"/>
<text text-anchor="middle" x="307" y="-138" font-family="Sans" font-size="10.00">requires</text>
</g>
<!-- configuration&#45;modules&#45;core#1391 -->
<g id="node24" class="node"><title>configuration-modules-core#1391</title>
<g id="a_node24"><a xlink:href="https://github.com/quattor/configuration-modules-core/pull/1391" xlink:title="ncm-opennebula: include OpenNebula 5.8.x and vmgroups support" target="_parent">
<polygon fill="#6cc644" stroke="black" points="893.5,-168 698.5,-168 698.5,-118 893.5,-118 893.5,-168"/>
<text text-anchor="middle" x="796" y="-146" font-family="Sans" font-size="10.00">pull-request</text>
<text text-anchor="middle" x="796" y="-135" font-family="Sans" font-size="10.00">configuration-modules-core#1391</text>
</a>
</g>
</g>
<!-- configuration&#45;modules&#45;core#1427&#45;&gt;configuration&#45;modules&#45;core#1391 -->
<g id="edge15" class="edge"><title>configuration-modules-core#1427-&gt;configuration-modules-core#1391</title>
<path fill="none" stroke="black" stroke-dasharray="5,2" d="M581.659,-133.325C613.014,-130.805 647.969,-129.333 680,-131 682.725,-131.142 685.485,-131.302 688.268,-131.479"/>
<polygon fill="none" stroke="black" points="688.21,-134.984 698.429,-132.187 688.696,-128.001 688.21,-134.984"/>
<text text-anchor="middle" x="660" y="-134" font-family="Sans" font-size="10.00">requires</text>
</g>
<!-- configuration&#45;modules&#45;core#1427&#45;&gt;configuration&#45;modules&#45;core#1391 -->
<g id="edge26" class="edge"><title>configuration-modules-core#1427-&gt;configuration-modules-core#1391</title>
<path fill="none" stroke="black" stroke-dasharray="5,2" d="M581.811,-144.375C615.604,-144.157 653.714,-143.912 688.269,-143.689"/>
<polygon fill="none" stroke="black" points="688.413,-147.188 698.391,-143.623 688.368,-140.188 688.413,-147.188"/>
<text text-anchor="middle" x="660" y="-147" font-family="Sans" font-size="10.00">requires</text>
</g>
<!-- configuration&#45;modules&#45;core#1452 -->
<g id="node21" class="node"><title>configuration-modules-core#1452</title>
<g id="a_node21"><a xlink:href="https://github.com/quattor/configuration-modules-core/pull/1452" xlink:title="ncm-metaconfig: ssh daemon configuration support" target="_parent">
<polygon fill="#6cc644" stroke="black" points="231.5,-864 36.5,-864 36.5,-814 231.5,-814 231.5,-864"/>
<text text-anchor="middle" x="134" y="-842" font-family="Sans" font-size="10.00">pull-request</text>
<text text-anchor="middle" x="134" y="-831" font-family="Sans" font-size="10.00">configuration-modules-core#1452</text>
</a>
</g>
</g>
<!-- configuration&#45;modules&#45;core#1377 -->
<g id="node22" class="node"><title>configuration-modules-core#1377</title>
<polygon fill="lightgrey" stroke="black" points="581.5,-95.5 386.5,-95.5 386.5,-56.5 581.5,-56.5 581.5,-95.5"/>
<text text-anchor="middle" x="484" y="-73.5" font-family="Sans" font-size="10.00">configuration-modules-core#1377</text>
</g>
<!-- configuration&#45;modules&#45;core#1452&#45;&gt;configuration&#45;modules&#45;core#1377 -->
<g id="edge13" class="edge"><title>configuration-modules-core#1452-&gt;configuration-modules-core#1377</title>
<path fill="none" stroke="black" stroke-dasharray="1,5" d="M231.736,-830.099C245.74,-824.687 258.579,-816.691 268,-805 302.812,-761.8 258.541,-354.209 286,-306 296.983,-286.717 316.404,-297.92 328,-279 348.891,-244.914 318.784,-129.284 346,-100 354.412,-90.9488 364.935,-84.5572 376.389,-80.1235"/>
<polygon fill="black" stroke="black" points="386.203,-76.8443 378.144,-84.2814 381.461,-78.4288 376.718,-80.0134 376.718,-80.0134 376.718,-80.0134 381.461,-78.4288 375.292,-75.7453 386.203,-76.8443 386.203,-76.8443"/>
<text text-anchor="middle" x="307" y="-309" font-family="Sans" font-size="10.00">replaces</text>
</g>
<!-- configuration&#45;modules&#45;core#1451 -->
<g id="node23" class="node"><title>configuration-modules-core#1451</title>
<g id="a_node23"><a xlink:href="https://github.com/quattor/configuration-modules-core/pull/1451" xlink:title="ncm-metaconfig: support running arbitrary commands in various steps" target="_parent">
<polygon fill="#6cc644" stroke="black" points="581.5,-848 386.5,-848 386.5,-798 581.5,-798 581.5,-848"/>
<text text-anchor="middle" x="484" y="-826" font-family="Sans" font-size="10.00">pull-request</text>
<text text-anchor="middle" x="484" y="-815" font-family="Sans" font-size="10.00">configuration-modules-core#1451</text>
</a>
</g>
</g>
<!-- configuration&#45;modules&#45;core#1452&#45;&gt;configuration&#45;modules&#45;core#1451 -->
<g id="edge14" class="edge"><title>configuration-modules-core#1452-&gt;configuration-modules-core#1451</title>
<path fill="none" stroke="black" stroke-dasharray="5,2" d="M231.862,-823.512C249.815,-821.216 268.441,-819.215 286,-818 315.233,-815.977 346.958,-815.867 376.234,-816.617"/>
<polygon fill="none" stroke="black" points="376.381,-820.123 386.479,-816.917 376.585,-813.126 376.381,-820.123"/>
<text text-anchor="middle" x="307" y="-821" font-family="Sans" font-size="10.00">requires</text>
</g>
<!-- configuration&#45;modules&#45;core#1452&#45;&gt;configuration&#45;modules&#45;core#1377 -->
<g id="edge24" class="edge"><title>configuration-modules-core#1452-&gt;configuration-modules-core#1377</title>
<path fill="none" stroke="black" stroke-dasharray="1,5" d="M231.796,-830.147C245.793,-824.729 258.614,-816.719 268,-805 309.556,-753.116 254.697,-265.643 286,-207 296.802,-186.763 315.236,-196.06 328,-177 347.556,-147.799 320.46,-124.143 346,-100 354.774,-91.7061 365.346,-85.7365 376.681,-81.4996"/>
<polygon fill="black" stroke="black" points="386.358,-78.3352 378.252,-85.7204 381.605,-79.8892 376.853,-81.4433 376.853,-81.4433 376.853,-81.4433 381.605,-79.8892 375.454,-77.1662 386.358,-78.3352 386.358,-78.3352"/>
<text text-anchor="middle" x="307" y="-210" font-family="Sans" font-size="10.00">replaces</text>
</g>
<!-- configuration&#45;modules&#45;core#1452&#45;&gt;configuration&#45;modules&#45;core#1451 -->
<g id="edge25" class="edge"><title>configuration-modules-core#1452-&gt;configuration-modules-core#1451</title>
<path fill="none" stroke="black" stroke-dasharray="5,2" d="M231.937,-834.543C276.812,-832.48 330.255,-830.023 376.277,-827.907"/>
<polygon fill="none" stroke="black" points="376.452,-831.403 386.281,-827.447 376.131,-824.41 376.452,-831.403"/>
<text text-anchor="middle" x="307" y="-835" font-family="Sans" font-size="10.00">requires</text>
</g>
<!-- configuration&#45;modules&#45;core#1378 -->
<g id="node27" class="node"><title>configuration-modules-core#1378</title>
<polygon fill="lightgrey" stroke="black" points="1165.5,-193.5 970.5,-193.5 970.5,-154.5 1165.5,-154.5 1165.5,-193.5"/>
<text text-anchor="middle" x="1068" y="-171.5" font-family="Sans" font-size="10.00">configuration-modules-core#1378</text>
</g>
<!-- configuration&#45;modules&#45;core#1391&#45;&gt;configuration&#45;modules&#45;core#1378 -->
<g id="edge17" class="edge"><title>configuration-modules-core#1391-&gt;configuration-modules-core#1378</title>
<path fill="none" stroke="black" stroke-dasharray="5,2" d="M887.958,-168.005C896.042,-169.598 904.14,-170.973 912,-172 927.579,-174.036 944.114,-175.248 960.359,-175.905"/>
<polygon fill="none" stroke="black" points="960.312,-179.405 970.425,-176.245 960.549,-172.409 960.312,-179.405"/>
<text text-anchor="middle" x="932" y="-179" font-family="Sans" font-size="10.00">requires</text>
</g>
<!-- configuration&#45;modules&#45;core#1371 -->
<g id="node28" class="node"><title>configuration-modules-core#1371</title>
<polygon fill="lightgrey" stroke="black" points="1165.5,-131.5 970.5,-131.5 970.5,-92.5 1165.5,-92.5 1165.5,-131.5"/>
<text text-anchor="middle" x="1068" y="-109.5" font-family="Sans" font-size="10.00">configuration-modules-core#1371</text>
</g>
<!-- configuration&#45;modules&#45;core#1391&#45;&gt;configuration&#45;modules&#45;core#1371 -->
<g id="edge18" class="edge"><title>configuration-modules-core#1391-&gt;configuration-modules-core#1371</title>
<path fill="none" stroke="black" stroke-dasharray="5,2" d="M893.591,-129.263C899.817,-128.47 905.994,-127.708 912,-127 927.564,-125.165 944.027,-123.392 960.184,-121.747"/>
<polygon fill="none" stroke="black" points="960.595,-125.223 970.194,-120.74 959.894,-118.258 960.595,-125.223"/>
<text text-anchor="middle" x="932" y="-130" font-family="Sans" font-size="10.00">requires</text>
</g>
<!-- configuration&#45;modules&#45;core#1391&#45;&gt;configuration&#45;modules&#45;core#1378 -->
<g id="edge28" class="edge"><title>configuration-modules-core#1391-&gt;configuration-modules-core#1378</title>
<path fill="none" stroke="black" stroke-dasharray="5,2" d="M893.783,-152.586C913.079,-154.611 933.191,-156.803 952,-159 954.719,-159.318 957.473,-159.644 960.251,-159.977"/>
<polygon fill="none" stroke="black" points="960.046,-163.477 970.395,-161.208 960.89,-156.528 960.046,-163.477"/>
<text text-anchor="middle" x="932" y="-162" font-family="Sans" font-size="10.00">requires</text>
</g>
<!-- configuration&#45;modules&#45;core#1391&#45;&gt;configuration&#45;modules&#45;core#1371 -->
<g id="edge29" class="edge"><title>configuration-modules-core#1391-&gt;configuration-modules-core#1371</title>
<path fill="none" stroke="black" stroke-dasharray="5,2" d="M867.408,-118C881.972,-113.844 897.344,-110.181 912,-108 927.545,-105.687 944.061,-104.637 960.297,-104.394"/>
<polygon fill="none" stroke="black" points="960.377,-107.894 970.359,-104.343 960.341,-100.894 960.377,-107.894"/>
<text text-anchor="middle" x="932" y="-111" font-family="Sans" font-size="10.00">requires</text>
</g>
<!-- configuration&#45;modules&#45;core#1401 -->
<g id="node25" class="node"><title>configuration-modules-core#1401</title>
<g id="a_node25"><a xlink:href="https://github.com/quattor/configuration-modules-core/pull/1401" xlink:title="ncm-spma: yumdnf: initial dnf/yum4 based on yum" target="_parent">
<polygon fill="#6cc644" stroke="black" points="231.5,-660 36.5,-660 36.5,-610 231.5,-610 231.5,-660"/>
<text text-anchor="middle" x="134" y="-638" font-family="Sans" font-size="10.00">pull-request</text>
<text text-anchor="middle" x="134" y="-627" font-family="Sans" font-size="10.00">configuration-modules-core#1401</text>
</a>
</g>
</g>
<!-- configuration&#45;modules&#45;core#1405 -->
<g id="node26" class="node"><title>configuration-modules-core#1405</title>
<polygon fill="lightgrey" stroke="black" points="581.5,-38.5 386.5,-38.5 386.5,0.5 581.5,0.5 581.5,-38.5"/>
<text text-anchor="middle" x="484" y="-16.5" font-family="Sans" font-size="10.00">configuration-modules-core#1405</text>
</g>
<!-- configuration&#45;modules&#45;core#1401&#45;&gt;configuration&#45;modules&#45;core#1405 -->
<g id="edge16" class="edge"><title>configuration-modules-core#1401-&gt;configuration-modules-core#1405</title>
<path fill="none" stroke="black" stroke-dasharray="5,2" d="M136.956,-609.995C144.243,-529.663 175.373,-273.257 286,-99 304.913,-69.2086 314.347,-62.5979 346,-47 355.587,-42.276 365.927,-38.3487 376.48,-35.0839"/>
<polygon fill="none" stroke="black" points="377.581,-38.4089 386.214,-32.2679 375.636,-31.6846 377.581,-38.4089"/>
<text text-anchor="middle" x="307" y="-102" font-family="Sans" font-size="10.00">requires</text>
</g>
<!-- configuration&#45;modules&#45;core#1401&#45;&gt;configuration&#45;modules&#45;core#1405 -->
<g id="edge27" class="edge"><title>configuration-modules-core#1401-&gt;configuration-modules-core#1405</title>
<path fill="none" stroke="black" stroke-dasharray="5,2" d="M137.664,-609.814C149.091,-506.821 197.455,-119.479 286,-42 310.6,-20.4747 344.044,-11.7507 376.391,-9.29395"/>
<polygon fill="none" stroke="black" points="376.599,-12.7879 386.384,-8.72549 376.201,-5.7992 376.599,-12.7879"/>
<text text-anchor="middle" x="307" y="-45" font-family="Sans" font-size="10.00">requires</text>
</g>
<!-- configuration&#45;modules&#45;core#1336 -->
<g id="node29" class="node"><title>configuration-modules-core#1336</title>
<g id="a_node29"><a xlink:href="https://github.com/quattor/configuration-modules-core/pull/1336" xlink:title="ncm-network: Add support for CAF::Service actions after changes" target="_parent">
<polygon fill="#6cc644" stroke="black" points="231.5,-1204 36.5,-1204 36.5,-1154 231.5,-1154 231.5,-1204"/>
<text text-anchor="middle" x="134" y="-1182" font-family="Sans" font-size="10.00">pull-request</text>
<text text-anchor="middle" x="134" y="-1171" font-family="Sans" font-size="10.00">configuration-modules-core#1336</text>
</a>
</g>
</g>
<!-- configuration&#45;modules&#45;core#1335 -->
<g id="node30" class="node"><title>configuration-modules-core#1335</title>
<g id="a_node30"><a xlink:href="https://github.com/quattor/configuration-modules-core/pull/1335" xlink:title="ncm-metaconfig: Remove caf_service_action type to allow reuse" target="_parent">
<polygon fill="#6cc644" stroke="black" points="581.5,-1204 386.5,-1204 386.5,-1154 581.5,-1154 581.5,-1204"/>
<text text-anchor="middle" x="484" y="-1182" font-family="Sans" font-size="10.00">pull-request</text>
<text text-anchor="middle" x="484" y="-1171" font-family="Sans" font-size="10.00">configuration-modules-core#1335</text>
</a>
</g>
</g>
<!-- configuration&#45;modules&#45;core#1336&#45;&gt;configuration&#45;modules&#45;core#1335 -->
<g id="edge19" class="edge"><title>configuration-modules-core#1336-&gt;configuration-modules-core#1335</title>
<path fill="none" stroke="black" stroke-dasharray="5,2" d="M231.664,-1178.26C249.722,-1178.15 268.435,-1178.06 286,-1178 315.218,-1177.9 346.873,-1177.98 376.085,-1178.13"/>
<polygon fill="none" stroke="black" points="376.289,-1181.63 386.308,-1178.19 376.327,-1174.63 376.289,-1181.63"/>
<text text-anchor="middle" x="307" y="-1181" font-family="Sans" font-size="10.00">requires</text>
</g>
<!-- configuration&#45;modules&#45;core#1071 -->
<g id="node31" class="node"><title>configuration-modules-core#1071</title>
<g id="a_node31"><a xlink:href="https://github.com/quattor/configuration-modules-core/issues/1071" xlink:title="ncm-network: support daemons to restart after network changes" target="_parent">
<ellipse fill="#6cc644" stroke="black" cx="484" cy="-1101" rx="137.772" ry="35.2113"/>
<text text-anchor="middle" x="484" y="-1104" font-family="Sans" font-size="10.00">issue</text>
<text text-anchor="middle" x="484" y="-1093" font-family="Sans" font-size="10.00">configuration-modules-core#1071</text>
</a>
</g>
</g>
<!-- configuration&#45;modules&#45;core#1336&#45;&gt;configuration&#45;modules&#45;core#1071 -->
<g id="edge20" class="edge"><title>configuration-modules-core#1336-&gt;configuration-modules-core#1071</title>
<path fill="none" stroke="black" stroke-width="2" d="M231.937,-1157.27C274.754,-1147.68 325.373,-1136.33 369.902,-1126.35"/>
<polygon fill="black" stroke="black" points="370.902,-1129.71 379.895,-1124.11 369.371,-1122.88 370.902,-1129.71"/>
<text text-anchor="middle" x="307" y="-1148" font-family="Sans" font-size="10.00">fixes</text>
</g>
<!-- configuration&#45;modules&#45;core#1336&#45;&gt;configuration&#45;modules&#45;core#1335 -->
<g id="edge30" class="edge"><title>configuration-modules-core#1336-&gt;configuration-modules-core#1335</title>
<path fill="none" stroke="black" stroke-dasharray="5,2" d="M231.617,-1186.35C249.68,-1187.46 268.407,-1188.42 286,-1189 315.239,-1189.97 346.901,-1189.18 376.113,-1187.69"/>
<polygon fill="none" stroke="black" points="376.539,-1191.17 386.336,-1187.14 376.162,-1184.18 376.539,-1191.17"/>
<text text-anchor="middle" x="307" y="-1193" font-family="Sans" font-size="10.00">requires</text>
</g>
<!-- configuration&#45;modules&#45;core#1336&#45;&gt;configuration&#45;modules&#45;core#1071 -->
<g id="edge31" class="edge"><title>configuration-modules-core#1336-&gt;configuration-modules-core#1071</title>
<path fill="none" stroke="black" stroke-width="2" d="M231.781,-1162.07C244.506,-1157.64 256.948,-1152.05 268,-1145 278.652,-1138.21 274.902,-1129.04 286,-1123 301.496,-1114.57 318.685,-1108.64 336.267,-1104.53"/>
<polygon fill="black" stroke="black" points="337.019,-1107.95 346.066,-1102.44 335.556,-1101.11 337.019,-1107.95"/>
<text text-anchor="middle" x="307" y="-1126" font-family="Sans" font-size="10.00">fixes</text>
</g>
<!-- template&#45;library&#45;core#191 -->
<g id="node32" class="node"><title>template-library-core#191</title>
<polygon fill="lightgrey" stroke="black" points="875.5,-1198.5 716.5,-1198.5 716.5,-1159.5 875.5,-1159.5 875.5,-1198.5"/>
<text text-anchor="middle" x="796" y="-1176.5" font-family="Sans" font-size="10.00">template-library-core#191</text>
</g>
<!-- configuration&#45;modules&#45;core#1335&#45;&gt;template&#45;library&#45;core#191 -->
<g id="edge21" class="edge"><title>configuration-modules-core#1335-&gt;template-library-core#191</title>
<path fill="none" stroke="black" stroke-dasharray="5,2" d="M581.811,-1179C621.52,-1179 667.191,-1179 706.049,-1179"/>
<polygon fill="none" stroke="black" points="706.294,-1182.5 716.294,-1179 706.294,-1175.5 706.294,-1182.5"/>
<text text-anchor="middle" x="660" y="-1182" font-family="Sans" font-size="10.00">requires</text>
</g>
<!-- configuration&#45;modules&#45;core#1335&#45;&gt;template&#45;library&#45;core#191 -->
<g id="edge32" class="edge"><title>configuration-modules-core#1335-&gt;template-library-core#191</title>
<path fill="none" stroke="black" stroke-dasharray="5,2" d="M581.673,-1166.14C613.029,-1163.42 647.981,-1161.92 680,-1164 688.54,-1164.55 697.414,-1165.34 706.276,-1166.26"/>
<polygon fill="none" stroke="black" points="705.936,-1169.74 716.258,-1167.35 706.699,-1162.79 705.936,-1169.74"/>
<text text-anchor="middle" x="660" y="-1167" font-family="Sans" font-size="10.00">requires</text>
</g>
<!-- configuration&#45;modules&#45;core#1148 -->
<g id="node33" class="node"><title>configuration-modules-core#1148</title>
<g id="a_node33"><a xlink:href="https://github.com/quattor/configuration-modules-core/pull/1148" xlink:title="ncm-spma: Remove support from groups from spma yumng backend" target="_parent">
<polygon fill="#6cc644" stroke="black" points="231.5,-1725 36.5,-1725 36.5,-1675 231.5,-1675 231.5,-1725"/>
<text text-anchor="middle" x="134" y="-1703" font-family="Sans" font-size="10.00">pull-request</text>
<text text-anchor="middle" x="134" y="-1692" font-family="Sans" font-size="10.00">configuration-modules-core#1148</text>
</a>
</g>
</g>
<!-- configuration&#45;modules&#45;core#952 -->
<g id="node34" class="node"><title>configuration-modules-core#952</title>
<g id="a_node34"><a xlink:href="https://github.com/quattor/configuration-modules-core/issues/952" xlink:title="ncm-spma (yumng): Remove support for package groups" target="_parent">
<ellipse fill="#6cc644" stroke="black" cx="484" cy="-1700" rx="133.787" ry="35.2113"/>
<text text-anchor="middle" x="484" y="-1703" font-family="Sans" font-size="10.00">issue</text>
<text text-anchor="middle" x="484" y="-1692" font-family="Sans" font-size="10.00">configuration-modules-core#952</text>
</a>
</g>
</g>
<!-- configuration&#45;modules&#45;core#1148&#45;&gt;configuration&#45;modules&#45;core#952 -->
<g id="edge33" class="edge"><title>configuration-modules-core#1148-&gt;configuration-modules-core#952</title>
<path fill="none" stroke="black" stroke-width="2" d="M231.937,-1700C265.395,-1700 303.615,-1700 339.972,-1700"/>
<polygon fill="black" stroke="black" points="340.172,-1703.5 350.172,-1700 340.172,-1696.5 340.172,-1703.5"/>
<text text-anchor="middle" x="307" y="-1703" font-family="Sans" font-size="10.00">fixes</text>
</g>
<!-- configuration&#45;modules&#45;core#950 -->
<g id="node35" class="node"><title>configuration-modules-core#950</title>
<g id="a_node35"><a xlink:href="https://github.com/quattor/configuration-modules-core/issues/950" xlink:title="ncm-spma: Remove support for package groups from yum backends" target="_parent">
<ellipse fill="#6cc644" stroke="black" cx="134" cy="-1619" rx="133.787" ry="35.2113"/>
<text text-anchor="middle" x="134" y="-1622" font-family="Sans" font-size="10.00">issue</text>
<text text-anchor="middle" x="134" y="-1611" font-family="Sans" font-size="10.00">configuration-modules-core#950</text>
</a>
</g>
</g>
<!-- configuration&#45;modules&#45;core#951 -->
<g id="node36" class="node"><title>configuration-modules-core#951</title>
<g id="a_node36"><a xlink:href="https://github.com/quattor/configuration-modules-core/issues/951" xlink:title="ncm-spma (yum): Remove support for package groups" target="_parent">
<ellipse fill="#6cc644" stroke="black" cx="484" cy="-1611" rx="133.787" ry="35.2113"/>
<text text-anchor="middle" x="484" y="-1614" font-family="Sans" font-size="10.00">issue</text>
<text text-anchor="middle" x="484" y="-1603" font-family="Sans" font-size="10.00">configuration-modules-core#951</text>
</a>
</g>
</g>
<!-- configuration&#45;modules&#45;core#950&#45;&gt;configuration&#45;modules&#45;core#951 -->
<g id="edge34" class="edge"><title>configuration-modules-core#950-&gt;configuration-modules-core#951</title>
<path fill="none" stroke="black" stroke-dasharray="5,2" d="M267.557,-1615.95C291.422,-1615.4 316.393,-1614.83 340.526,-1614.28"/>
<polygon fill="none" stroke="black" points="340.895,-1617.77 350.812,-1614.04 340.734,-1610.77 340.895,-1617.77"/>
<text text-anchor="middle" x="307" y="-1619" font-family="Sans" font-size="10.00">requires</text>
</g>
<!-- configuration&#45;modules&#45;core#950&#45;&gt;configuration&#45;modules&#45;core#952 -->
<g id="edge35" class="edge"><title>configuration-modules-core#950-&gt;configuration-modules-core#952</title>
<path fill="none" stroke="black" stroke-dasharray="5,2" d="M234.723,-1642.21C278.043,-1652.29 328.925,-1664.14 373.31,-1674.47"/>
<polygon fill="none" stroke="black" points="372.729,-1677.93 383.263,-1676.79 374.316,-1671.11 372.729,-1677.93"/>
<text text-anchor="middle" x="307" y="-1665" font-family="Sans" font-size="10.00">requires</text>
</g>
<!-- template&#45;library&#45;grid#237 -->
<g id="node37" class="node"><title>template-library-grid#237</title>
<g id="a_node37"><a xlink:href="https://github.com/quattor/template-library-grid/pull/237" xlink:title="users: Fix collisions with system managed groups" target="_parent">
<polygon fill="#6cc644" stroke="black" points="212.5,-1136 55.5,-1136 55.5,-1086 212.5,-1086 212.5,-1136"/>
<text text-anchor="middle" x="134" y="-1114" font-family="Sans" font-size="10.00">pull-request</text>
<text text-anchor="middle" x="134" y="-1103" font-family="Sans" font-size="10.00">template-library-grid#237</text>
</a>
</g>
</g>
<!-- template&#45;library&#45;grid#226 -->
<g id="node38" class="node"><title>template-library-grid#226</title>
<g id="a_node38"><a xlink:href="https://github.com/quattor/template-library-grid/issues/226" xlink:title="collisions group id" target="_parent">
<ellipse fill="#6cc644" stroke="black" cx="484" cy="-1012" rx="111.032" ry="35.2113"/>
<text text-anchor="middle" x="484" y="-1015" font-family="Sans" font-size="10.00">issue</text>
<text text-anchor="middle" x="484" y="-1004" font-family="Sans" font-size="10.00">template-library-grid#226</text>
</a>
</g>
</g>
<!-- template&#45;library&#45;grid#237&#45;&gt;template&#45;library&#45;grid#226 -->
<g id="edge36" class="edge"><title>template-library-grid#237-&gt;template-library-grid#226</title>
<path fill="none" stroke="black" stroke-width="2" d="M212.512,-1091.79C230.752,-1087.1 250.094,-1081.99 268,-1077 309.899,-1065.32 356.105,-1051.47 394.909,-1039.57"/>
<polygon fill="black" stroke="black" points="396.078,-1042.87 404.608,-1036.59 394.021,-1036.18 396.078,-1042.87"/>
<text text-anchor="middle" x="307" y="-1074" font-family="Sans" font-size="10.00">fixes</text>
</g>
<!-- template&#45;library&#45;grid#232 -->
<g id="node39" class="node"><title>template-library-grid#232</title>
<g id="a_node39"><a xlink:href="https://github.com/quattor/template-library-grid/pull/232" xlink:title="arc-ce: Export arc-ce feature from aquilon at RAL" target="_parent">
<polygon fill="#6cc644" stroke="black" points="212.5,-1377 55.5,-1377 55.5,-1327 212.5,-1327 212.5,-1377"/>
<text text-anchor="middle" x="134" y="-1355" font-family="Sans" font-size="10.00">pull-request</text>
<text text-anchor="middle" x="134" y="-1344" font-family="Sans" font-size="10.00">template-library-grid#232</text>
</a>
</g>
</g>
<!-- template&#45;library&#45;grid#221 -->
<g id="node40" class="node"><title>template-library-grid#221</title>
<g id="a_node40"><a xlink:href="https://github.com/quattor/template-library-grid/issues/221" xlink:title="Support for new CE types (ARC CE, HTCONDOR CE)" target="_parent">
<ellipse fill="#6cc644" stroke="black" cx="484" cy="-1352" rx="111.032" ry="35.2113"/>
<text text-anchor="middle" x="484" y="-1355" font-family="Sans" font-size="10.00">issue</text>
<text text-anchor="middle" x="484" y="-1344" font-family="Sans" font-size="10.00">template-library-grid#221</text>
</a>
</g>
</g>
<!-- template&#45;library&#45;grid#232&#45;&gt;template&#45;library&#45;grid#221 -->
<g id="edge37" class="edge"><title>template-library-grid#232-&gt;template-library-grid#221</title>
<path fill="none" stroke="black" stroke-width="2" d="M212.665,-1352C256.799,-1352 313.009,-1352 362.728,-1352"/>
<polygon fill="black" stroke="black" points="362.906,-1355.5 372.906,-1352 362.906,-1348.5 362.906,-1355.5"/>
<text text-anchor="middle" x="307" y="-1355" font-family="Sans" font-size="10.00">fixes</text>
</g>
<!-- aquilon#115 -->
<g id="node41" class="node"><title>aquilon#115</title>
<g id="a_node41"><a xlink:href="https://github.com/quattor/aquilon/pull/115" xlink:title="services: insert service data early in the object template" target="_parent">
<polygon fill="#6cc644" stroke="black" points="179.5,-2028 88.5,-2028 88.5,-1978 179.5,-1978 179.5,-2028"/>
<text text-anchor="middle" x="134" y="-2006" font-family="Sans" font-size="10.00">pull-request</text>
<text text-anchor="middle" x="134" y="-1995" font-family="Sans" font-size="10.00">aquilon#115</text>
</a>
</g>
</g>
<!-- aquilon#109 -->
<g id="node42" class="node"><title>aquilon#109</title>
<g id="a_node42"><a xlink:href="https://github.com/quattor/aquilon/issues/109" xlink:title="Why service configuration is included so late in the plenary object?" target="_parent">
<ellipse fill="#6cc644" stroke="black" cx="484" cy="-1993" rx="64.1938" ry="35.2113"/>
<text text-anchor="middle" x="484" y="-1996" font-family="Sans" font-size="10.00">issue</text>
<text text-anchor="middle" x="484" y="-1985" font-family="Sans" font-size="10.00">aquilon#109</text>
</a>
</g>
</g>
<!-- aquilon#115&#45;&gt;aquilon#109 -->
<g id="edge38" class="edge"><title>aquilon#115-&gt;aquilon#109</title>
<path fill="none" stroke="black" stroke-width="2" d="M179.782,-2001.71C237.872,-2000.04 339.98,-1997.11 409.507,-1995.11"/>
<polygon fill="black" stroke="black" points="409.624,-1998.61 419.519,-1994.82 409.423,-1991.61 409.624,-1998.61"/>
<text text-anchor="middle" x="307" y="-2001" font-family="Sans" font-size="10.00">fixes</text>
</g>
<!-- aquilon#110 -->
<g id="node43" class="node"><title>aquilon#110</title>
<g id="a_node43"><a xlink:href="https://github.com/quattor/aquilon/pull/110" xlink:title="Change site and machine namespace to use continent name" target="_parent">
<polygon fill="#6cc644" stroke="black" points="179.5,-1960 88.5,-1960 88.5,-1910 179.5,-1910 179.5,-1960"/>
<text text-anchor="middle" x="134" y="-1938" font-family="Sans" font-size="10.00">pull-request</text>
<text text-anchor="middle" x="134" y="-1927" font-family="Sans" font-size="10.00">aquilon#110</text>
</a>
</g>
</g>
<!-- aquilon#104 -->
<g id="node44" class="node"><title>aquilon#104</title>
<g id="a_node44"><a xlink:href="https://github.com/quattor/aquilon/issues/104" xlink:title="1.12.62: location related templates cannot be used" target="_parent">
<ellipse fill="#6cc644" stroke="black" cx="484" cy="-1891" rx="64.1938" ry="35.2113"/>
<text text-anchor="middle" x="484" y="-1894" font-family="Sans" font-size="10.00">issue</text>
<text text-anchor="middle" x="484" y="-1883" font-family="Sans" font-size="10.00">aquilon#104</text>
</a>
</g>
</g>
<!-- aquilon#110&#45;&gt;aquilon#104 -->
<g id="edge39" class="edge"><title>aquilon#110-&gt;aquilon#104</title>
<path fill="none" stroke="black" stroke-width="2" d="M179.782,-1929.34C238.309,-1921.94 341.52,-1908.89 411.072,-1900.09"/>
<polygon fill="black" stroke="black" points="411.598,-1903.56 421.08,-1898.83 410.72,-1896.61 411.598,-1903.56"/>
<text text-anchor="middle" x="307" y="-1918" font-family="Sans" font-size="10.00">fixes</text>
</g>
<!-- aquilon#91 -->
<g id="node45" class="node"><title>aquilon#91</title>
<g id="a_node45"><a xlink:href="https://github.com/quattor/aquilon/issues/91" xlink:title="1.12.58: city timezone is not passed to the object template" target="_parent">
<ellipse fill="#6cc644" stroke="black" cx="134" cy="-1857" rx="60.2083" ry="35.2113"/>
<text text-anchor="middle" x="134" y="-1860" font-family="Sans" font-size="10.00">issue</text>
<text text-anchor="middle" x="134" y="-1849" font-family="Sans" font-size="10.00">aquilon#91</text>
</a>
</g>
</g>
<!-- aquilon#91&#45;&gt;aquilon#104 -->
<g id="edge40" class="edge"><title>aquilon#91-&gt;aquilon#104</title>
<path fill="none" stroke="black" stroke-dasharray="5,2" d="M193.64,-1862.73C253.397,-1868.57 346.194,-1877.63 410.521,-1883.92"/>
<polygon fill="none" stroke="black" points="410.298,-1887.41 420.591,-1884.9 410.979,-1880.45 410.298,-1887.41"/>
<text text-anchor="middle" x="307" y="-1878" font-family="Sans" font-size="10.00">requires</text>
</g>
<!-- aquilon#89 -->
<g id="node46" class="node"><title>aquilon#89</title>
<g id="a_node46"><a xlink:href="https://github.com/quattor/aquilon/pull/89" xlink:title="Broker: pass archetype to the object profile" target="_parent">
<polygon fill="#6cc644" stroke="black" points="177.5,-1804 90.5,-1804 90.5,-1754 177.5,-1754 177.5,-1804"/>
<text text-anchor="middle" x="134" y="-1782" font-family="Sans" font-size="10.00">pull-request</text>
<text text-anchor="middle" x="134" y="-1771" font-family="Sans" font-size="10.00">aquilon#89</text>
</a>
</g>
</g>
<!-- aquilon#88 -->
<g id="node47" class="node"><title>aquilon#88</title>
<g id="a_node47"><a xlink:href="https://github.com/quattor/aquilon/issues/88" xlink:title="1.12.58: the broker should pass the archetype to the object template" target="_parent">
<ellipse fill="#6cc644" stroke="black" cx="484" cy="-1789" rx="60.2083" ry="35.2113"/>
<text text-anchor="middle" x="484" y="-1792" font-family="Sans" font-size="10.00">issue</text>
<text text-anchor="middle" x="484" y="-1781" font-family="Sans" font-size="10.00">aquilon#88</text>
</a>
</g>
</g>
<!-- aquilon#89&#45;&gt;aquilon#88 -->
<g id="edge41" class="edge"><title>aquilon#89-&gt;aquilon#88</title>
<path fill="none" stroke="black" stroke-width="2" d="M177.672,-1780.23C236.488,-1781.92 343.167,-1784.98 413.558,-1787"/>
<polygon fill="black" stroke="black" points="413.574,-1790.51 423.671,-1787.3 413.775,-1783.51 413.574,-1790.51"/>
<text text-anchor="middle" x="307" y="-1788" font-family="Sans" font-size="10.00">fixes</text>
</g>
</g>
</svg>
