<?xml version="1.0" encoding="UTF-8" standalone="no"?>
<?xml-stylesheet href="relationships.css" type="text/css"?>
<!-- Generated by graphviz version 2.26.0 (20091210.2329)
 -->
<!-- Title: Dependencies Pages: 1 -->
<svg xmlns="http://www.w3.org/2000/svg" xmlns:xlink="http://www.w3.org/1999/xlink" width="692pt" height="1276pt" viewBox="0.00 0.00 692.00 1276.00">
<g id="graph1" class="graph" transform="scale(1 1) rotate(0) translate(4 1272)">
<title>Dependencies</title>
<polygon fill="white" stroke="white" points="-4,5 -4,-1272 689,-1272 689,5 -4,5"/>
<g id="graph3" class="cluster"><title>cluster_17.12</title>
<polygon fill="none" stroke="black" points="8,-446 8,-1260 676,-1260 676,-446 8,-446"/>
<text text-anchor="middle" x="342" y="-1245.2" font-family="Sans" font-size="12.00">17.12</text>
</g>
<g id="graph4" class="cluster"><title>cluster_18.3</title>
<polygon fill="none" stroke="black" points="54,-50 54,-238 434,-238 434,-50 54,-50"/>
<text text-anchor="middle" x="244" y="-223.2" font-family="Sans" font-size="12.00">18.3</text>
</g>
<!-- aii#210 -->
<g id="node1" class="node"><title>aii#210</title>
<a xlink:href="https://github.com/quattor/aii/pull/210" xlink:title="Shellfe: support active config for plugins" target="_parent">
<polygon fill="#6cc644" stroke="black" points="141,-123 63,-123 63,-69 141,-69 141,-123"/>
<text text-anchor="middle" x="102" y="-100" font-family="Sans" font-size="10.00">pull-request</text>
<text text-anchor="middle" x="102" y="-87" font-family="Sans" font-size="10.00">aii#210</text>
</a>
</g>
<!-- aii#209 -->
<g id="node3" class="node"><title>aii#209</title>
<a xlink:href="https://github.com/quattor/aii/issues/209" xlink:title="support ACTIVE_CONFIG" target="_parent">
<ellipse fill="#6cc644" stroke="black" cx="384" cy="-96" rx="41.2167" ry="38.1838"/>
<text text-anchor="middle" x="384" y="-100" font-family="Sans" font-size="10.00">issue</text>
<text text-anchor="middle" x="384" y="-87" font-family="Sans" font-size="10.00">aii#209</text>
</a>
</g>
<!-- aii#210&#45;&gt;aii#209 -->
<g id="edge2" class="edge"><title>aii#210-&gt;aii#209</title>
<path fill="none" stroke="black" stroke-width="2" d="M141.508,-96C191.35,-96 277.184,-96 332.226,-96"/>
<polygon fill="black" stroke="black" points="332.467,-99.5001 342.467,-96 332.467,-92.5001 332.467,-99.5001"/>
<text text-anchor="middle" x="225" y="-100" font-family="Sans" font-size="10.00">fixes</text>
</g>
<!-- ncm&#45;ncd#74 -->
<g id="node5" class="node"><title>ncm-ncd#74</title>
<a xlink:href="https://github.com/quattor/ncm-ncd/pull/74" xlink:title="Set the current active config as an attribute to the component" target="_parent">
<polygon fill="#6cc644" stroke="black" points="425,-206 343,-206 343,-152 425,-152 425,-206"/>
<text text-anchor="middle" x="384" y="-183" font-family="Sans" font-size="10.00">pull-request</text>
<text text-anchor="middle" x="384" y="-170" font-family="Sans" font-size="10.00">ncm-ncd#74</text>
</a>
</g>
<!-- aii#210&#45;&gt;ncm&#45;ncd#74 -->
<g id="edge4" class="edge"><title>aii#210-&gt;ncm-ncd#74</title>
<path fill="none" stroke="black" stroke-dasharray="5,2" d="M141.508,-107.628C191.596,-122.37 278.034,-147.811 333.04,-164.001"/>
<polygon fill="none" stroke="black" points="332.348,-167.446 342.929,-166.912 334.325,-160.731 332.348,-167.446"/>
<text text-anchor="middle" x="225" y="-142" font-family="Sans" font-size="10.00">requires</text>
</g>
<!-- aii#203 -->
<g id="node7" class="node"><title>aii#203</title>
<polygon fill="lightgrey" stroke="black" points="413,-40.5 355,-40.5 355,0.5 413,0.5 413,-40.5"/>
<text text-anchor="middle" x="384" y="-17.5" font-family="Sans" font-size="10.00">aii#203</text>
</g>
<!-- aii#210&#45;&gt;aii#203 -->
<g id="edge6" class="edge"><title>aii#210-&gt;aii#203</title>
<path fill="none" stroke="black" stroke-dasharray="5,2" d="M141.812,-82.4267C174.004,-71.7261 220.618,-56.8504 262,-46 289.189,-38.871 320.169,-32.2874 344.106,-27.5288"/>
<polygon fill="none" stroke="black" points="345.097,-30.9012 354.235,-25.5403 343.748,-24.0323 345.097,-30.9012"/>
<text text-anchor="middle" x="225" y="-66" font-family="Sans" font-size="10.00">requires</text>
</g>
<!-- CAF#262 -->
<g id="node8" class="node"><title>CAF#262</title>
<a xlink:href="https://github.com/quattor/CAF/pull/262" xlink:title="FileWriter: set file status when no content was modified" target="_parent">
<polygon fill="#6e5494" stroke="black" points="141,-1228 63,-1228 63,-1174 141,-1174 141,-1228"/>
<text text-anchor="middle" x="102" y="-1205" font-family="Sans" font-size="10.00">pull-request</text>
<text text-anchor="middle" x="102" y="-1192" font-family="Sans" font-size="10.00">CAF#262</text>
</a>
</g>
<!-- CAF#259 -->
<g id="node10" class="node"><title>CAF#259</title>
<a xlink:href="https://github.com/quattor/CAF/issues/259" xlink:title="Filewriter: modify permissions when content is unmodified" target="_parent">
<ellipse fill="#bd2c00" stroke="black" cx="384" cy="-1190" rx="48.9975" ry="38.1838"/>
<text text-anchor="middle" x="384" y="-1194" font-family="Sans" font-size="10.00">issue</text>
<text text-anchor="middle" x="384" y="-1181" font-family="Sans" font-size="10.00">CAF#259</text>
</a>
</g>
<!-- CAF#262&#45;&gt;CAF#259 -->
<g id="edge8" class="edge"><title>CAF#262-&gt;CAF#259</title>
<path fill="none" stroke="black" stroke-width="2" d="M141.508,-1199.46C188.929,-1197.61 268.931,-1194.49 323.996,-1192.34"/>
<polygon fill="black" stroke="black" points="324.46,-1195.83 334.316,-1191.94 324.187,-1188.83 324.46,-1195.83"/>
<text text-anchor="middle" x="225" y="-1200" font-family="Sans" font-size="10.00">fixes</text>
</g>
<!-- CAF#257 -->
<g id="node11" class="node"><title>CAF#257</title>
<a xlink:href="https://github.com/quattor/CAF/pull/257" xlink:title="Process: run process as another user" target="_parent">
<polygon fill="#6cc644" stroke="black" points="141,-1156 63,-1156 63,-1102 141,-1102 141,-1156"/>
<text text-anchor="middle" x="102" y="-1133" font-family="Sans" font-size="10.00">pull-request</text>
<text text-anchor="middle" x="102" y="-1120" font-family="Sans" font-size="10.00">CAF#257</text>
</a>
</g>
<!-- CAF#253 -->
<g id="node13" class="node"><title>CAF#253</title>
<a xlink:href="https://github.com/quattor/CAF/issues/253" xlink:title="CAF::Process: Include an option to execute the command as an specific user" target="_parent">
<ellipse fill="#6cc644" stroke="black" cx="384" cy="-1096" rx="48.9975" ry="38.1838"/>
<text text-anchor="middle" x="384" y="-1100" font-family="Sans" font-size="10.00">issue</text>
<text text-anchor="middle" x="384" y="-1087" font-family="Sans" font-size="10.00">CAF#253</text>
</a>
</g>
<!-- CAF#257&#45;&gt;CAF#253 -->
<g id="edge10" class="edge"><title>CAF#257-&gt;CAF#253</title>
<path fill="none" stroke="black" stroke-width="2" d="M141.508,-1124.38C189.17,-1118.8 269.746,-1109.37 324.834,-1102.92"/>
<polygon fill="black" stroke="black" points="325.285,-1106.39 334.81,-1101.76 324.471,-1099.44 325.285,-1106.39"/>
<text text-anchor="middle" x="225" y="-1120" font-family="Sans" font-size="10.00">fixes</text>
</g>
<!-- CAF#256 -->
<g id="node14" class="node"><title>CAF#256</title>
<a xlink:href="https://github.com/quattor/CAF/pull/256" xlink:title="Process: add sensitive option to prevent verbose reporting of the command" target="_parent">
<polygon fill="#6e5494" stroke="black" points="141,-1084 63,-1084 63,-1030 141,-1030 141,-1084"/>
<text text-anchor="middle" x="102" y="-1061" font-family="Sans" font-size="10.00">pull-request</text>
<text text-anchor="middle" x="102" y="-1048" font-family="Sans" font-size="10.00">CAF#256</text>
</a>
</g>
<!-- CAF#254 -->
<g id="node16" class="node"><title>CAF#254</title>
<a xlink:href="https://github.com/quattor/CAF/issues/254" xlink:title="CAF::Process: Include sensitive option" target="_parent">
<ellipse fill="#bd2c00" stroke="black" cx="384" cy="-1002" rx="48.9975" ry="38.1838"/>
<text text-anchor="middle" x="384" y="-1006" font-family="Sans" font-size="10.00">issue</text>
<text text-anchor="middle" x="384" y="-993" font-family="Sans" font-size="10.00">CAF#254</text>
</a>
</g>
<!-- CAF#256&#45;&gt;CAF#254 -->
<g id="edge12" class="edge"><title>CAF#256-&gt;CAF#254</title>
<path fill="none" stroke="black" stroke-width="2" d="M141.508,-1049.29C189.455,-1039.94 270.712,-1024.1 325.821,-1013.35"/>
<polygon fill="black" stroke="black" points="326.648,-1016.75 335.793,-1011.4 325.308,-1009.88 326.648,-1016.75"/>
<text text-anchor="middle" x="225" y="-1040" font-family="Sans" font-size="10.00">fixes</text>
</g>
<!-- CCM#179 -->
<g id="node17" class="node"><title>CCM#179</title>
<a xlink:href="https://github.com/quattor/CCM/pull/179" xlink:title="TextRender: support unescape keys" target="_parent">
<polygon fill="#6e5494" stroke="black" points="423,-946 345,-946 345,-892 423,-892 423,-946"/>
<text text-anchor="middle" x="384" y="-923" font-family="Sans" font-size="10.00">pull-request</text>
<text text-anchor="middle" x="384" y="-910" font-family="Sans" font-size="10.00">CCM#179</text>
</a>
</g>
<!-- CCM#178 -->
<g id="node19" class="node"><title>CCM#178</title>
<a xlink:href="https://github.com/quattor/CCM/issues/178" xlink:title="TextRender or getTree should support a way to unescape keys" target="_parent">
<ellipse fill="#bd2c00" stroke="black" cx="616" cy="-919" rx="51.1176" ry="38.1838"/>
<text text-anchor="middle" x="616" y="-923" font-family="Sans" font-size="10.00">issue</text>
<text text-anchor="middle" x="616" y="-910" font-family="Sans" font-size="10.00">CCM#178</text>
</a>
</g>
<!-- CCM#179&#45;&gt;CCM#178 -->
<g id="edge14" class="edge"><title>CCM#179-&gt;CCM#178</title>
<path fill="none" stroke="black" stroke-width="2" d="M423.619,-919C459.411,-919 512.668,-919 554.079,-919"/>
<polygon fill="black" stroke="black" points="554.334,-922.5 564.334,-919 554.334,-915.5 554.334,-922.5"/>
<text text-anchor="middle" x="535" y="-923" font-family="Sans" font-size="10.00">fixes</text>
</g>
<!-- configuration&#45;modules&#45;core#1212 -->
<g id="node20" class="node"><title>configuration-modules-core#1212</title>
<a xlink:href="https://github.com/quattor/configuration-modules-core/pull/1212" xlink:title="ncm-systemd: add support for AmbientCapabilities and CapabilityBoundingSet" target="_parent">
<polygon fill="#6cc644" stroke="black" points="188,-652 16,-652 16,-598 188,-598 188,-652"/>
<text text-anchor="middle" x="102" y="-629" font-family="Sans" font-size="10.00">pull-request</text>
<text text-anchor="middle" x="102" y="-616" font-family="Sans" font-size="10.00">configuration-modules-core#1212</text>
</a>
</g>
<!-- configuration&#45;modules&#45;core#1211 -->
<g id="node22" class="node"><title>configuration-modules-core#1211</title>
<a xlink:href="https://github.com/quattor/configuration-modules-core/issues/1211" xlink:title="ncm-systemd 17.7: AmbientCapabilities service attribute not supported" target="_parent">
<ellipse fill="#6cc644" stroke="black" cx="384" cy="-400" rx="121.122" ry="38.1838"/>
<text text-anchor="middle" x="384" y="-404" font-family="Sans" font-size="10.00">issue</text>
<text text-anchor="middle" x="384" y="-391" font-family="Sans" font-size="10.00">configuration-modules-core#1211</text>
</a>
</g>
<!-- configuration&#45;modules&#45;core#1212&#45;&gt;configuration&#45;modules&#45;core#1211 -->
<g id="edge16" class="edge"><title>configuration-modules-core#1212-&gt;configuration-modules-core#1211</title>
<path fill="none" stroke="black" stroke-width="2" d="M176.841,-597.832C180.808,-595.139 184.567,-592.201 188,-589 241.497,-539.119 206.913,-490.12 262,-442 267.625,-437.086 273.855,-432.74 280.436,-428.897"/>
<polygon fill="black" stroke="black" points="282.458,-431.783 289.604,-423.962 279.14,-425.62 282.458,-431.783"/>
<text text-anchor="middle" x="225" y="-570" font-family="Sans" font-size="10.00">fixes</text>
</g>
<!-- configuration&#45;modules&#45;core#1202 -->
<g id="node23" class="node"><title>configuration-modules-core#1202</title>
<a xlink:href="https://github.com/quattor/configuration-modules-core/pull/1202" xlink:title="ncm-metaconfig: support new key conversion options from CCM::TextRender" target="_parent">
<polygon fill="#6cc644" stroke="black" points="188,-1012 16,-1012 16,-958 188,-958 188,-1012"/>
<text text-anchor="middle" x="102" y="-989" font-family="Sans" font-size="10.00">pull-request</text>
<text text-anchor="middle" x="102" y="-976" font-family="Sans" font-size="10.00">configuration-modules-core#1202</text>
</a>
</g>
<!-- configuration&#45;modules&#45;core#1202&#45;&gt;CCM#179 -->
<g id="edge18" class="edge"><title>configuration-modules-core#1202-&gt;CCM#179</title>
<path fill="none" stroke="black" stroke-dasharray="5,2" d="M188.142,-964.839C236.073,-953.621 294.026,-940.058 334.403,-930.608"/>
<polygon fill="none" stroke="black" points="335.334,-933.985 344.274,-928.298 333.739,-927.169 335.334,-933.985"/>
<text text-anchor="middle" x="225" y="-963" font-family="Sans" font-size="10.00">requires</text>
</g>
<!-- configuration&#45;modules&#45;core#1182 -->
<g id="node25" class="node"><title>configuration-modules-core#1182</title>
<a xlink:href="https://github.com/quattor/configuration-modules-core/pull/1182" xlink:title="ncm-opennebula: Include 5.4.x configuration" target="_parent">
<polygon fill="#6e5494" stroke="black" points="188,-940 16,-940 16,-886 188,-886 188,-940"/>
<text text-anchor="middle" x="102" y="-917" font-family="Sans" font-size="10.00">pull-request</text>
<text text-anchor="middle" x="102" y="-904" font-family="Sans" font-size="10.00">configuration-modules-core#1182</text>
</a>
</g>
<!-- configuration&#45;modules&#45;core#1139 -->
<g id="node27" class="node"><title>configuration-modules-core#1139</title>
<a xlink:href="https://github.com/quattor/configuration-modules-core/pull/1139" xlink:title="ncm-opennebula: include hugepages options" target="_parent">
<polygon fill="#6e5494" stroke="black" points="470,-874 298,-874 298,-820 470,-820 470,-874"/>
<text text-anchor="middle" x="384" y="-851" font-family="Sans" font-size="10.00">pull-request</text>
<text text-anchor="middle" x="384" y="-838" font-family="Sans" font-size="10.00">configuration-modules-core#1139</text>
</a>
</g>
<!-- configuration&#45;modules&#45;core#1182&#45;&gt;configuration&#45;modules&#45;core#1139 -->
<g id="edge20" class="edge"><title>configuration-modules-core#1182-&gt;configuration-modules-core#1139</title>
<path fill="none" stroke="black" stroke-dasharray="5,2" d="M188.142,-892.839C219.701,-885.453 255.605,-877.05 287.976,-869.474"/>
<polygon fill="none" stroke="black" points="288.961,-872.838 297.9,-867.151 287.366,-866.022 288.961,-872.838"/>
<text text-anchor="middle" x="225" y="-891" font-family="Sans" font-size="10.00">requires</text>
</g>
<!-- configuration&#45;modules&#45;core#1171 -->
<g id="node28" class="node"><title>configuration-modules-core#1171</title>
<a xlink:href="https://github.com/quattor/configuration-modules-core/pull/1171" xlink:title="ncm-cups enhancements and cleanups" target="_parent">
<polygon fill="#6e5494" stroke="black" points="188,-868 16,-868 16,-814 188,-814 188,-868"/>
<text text-anchor="middle" x="102" y="-845" font-family="Sans" font-size="10.00">pull-request</text>
<text text-anchor="middle" x="102" y="-832" font-family="Sans" font-size="10.00">configuration-modules-core#1171</text>
</a>
</g>
<!-- configuration&#45;modules&#45;core#1164 -->
<g id="node30" class="node"><title>configuration-modules-core#1164</title>
<a xlink:href="https://github.com/quattor/configuration-modules-core/issues/1164" xlink:title="ncm-cups 17.7.0: configuration of ServerAlias + miscellanous enhancements" target="_parent">
<ellipse fill="#bd2c00" stroke="black" cx="384" cy="-764" rx="121.122" ry="38.1838"/>
<text text-anchor="middle" x="384" y="-768" font-family="Sans" font-size="10.00">issue</text>
<text text-anchor="middle" x="384" y="-755" font-family="Sans" font-size="10.00">configuration-modules-core#1164</text>
</a>
</g>
<!-- configuration&#45;modules&#45;core#1171&#45;&gt;configuration&#45;modules&#45;core#1164 -->
<g id="edge22" class="edge"><title>configuration-modules-core#1171-&gt;configuration-modules-core#1164</title>
<path fill="none" stroke="black" stroke-width="2" d="M188.142,-817.479C217.811,-809.378 251.321,-800.228 282.125,-791.817"/>
<polygon fill="black" stroke="black" points="283.297,-795.125 292.022,-789.114 281.454,-788.372 283.297,-795.125"/>
<text text-anchor="middle" x="225" y="-815" font-family="Sans" font-size="10.00">fixes</text>
</g>
<!-- configuration&#45;modules&#45;core#1149 -->
<g id="node31" class="node"><title>configuration-modules-core#1149</title>
<a xlink:href="https://github.com/quattor/configuration-modules-core/pull/1149" xlink:title="ncm-metaconfig: rsyslog: rainer script configuration" target="_parent">
<polygon fill="#6e5494" stroke="black" points="188,-580 16,-580 16,-526 188,-526 188,-580"/>
<text text-anchor="middle" x="102" y="-557" font-family="Sans" font-size="10.00">pull-request</text>
<text text-anchor="middle" x="102" y="-544" font-family="Sans" font-size="10.00">configuration-modules-core#1149</text>
</a>
</g>
<!-- configuration&#45;modules&#45;core#1126 -->
<g id="node33" class="node"><title>configuration-modules-core#1126</title>
<polygon fill="lightgrey" stroke="black" points="470,-344.5 298,-344.5 298,-303.5 470,-303.5 470,-344.5"/>
<text text-anchor="middle" x="384" y="-321.5" font-family="Sans" font-size="10.00">configuration-modules-core#1126</text>
</g>
<!-- configuration&#45;modules&#45;core#1149&#45;&gt;configuration&#45;modules&#45;core#1126 -->
<g id="edge24" class="edge"><title>configuration-modules-core#1149-&gt;configuration-modules-core#1126</title>
<path fill="none" stroke="black" stroke-dasharray="5,2" d="M178.866,-525.758C182.176,-523.099 185.253,-520.188 188,-517 209.252,-492.34 193.469,-476.045 206,-446 224.573,-401.47 223.045,-381.468 262,-353 269.976,-347.171 278.957,-342.498 288.337,-338.753"/>
<polygon fill="none" stroke="black" points="289.62,-342.011 297.827,-335.31 287.232,-335.431 289.62,-342.011"/>
<text text-anchor="middle" x="225" y="-450" font-family="Sans" font-size="10.00">requires</text>
</g>
<!-- configuration&#45;modules&#45;core#1119 -->
<g id="node34" class="node"><title>configuration-modules-core#1119</title>
<a xlink:href="https://github.com/quattor/configuration-modules-core/pull/1119" xlink:title="ncm-systemd: cleanup, restarting modified unitfiles and initial handling of unconfigured units" target="_parent">
<polygon fill="#6e5494" stroke="black" points="188,-796 16,-796 16,-742 188,-742 188,-796"/>
<text text-anchor="middle" x="102" y="-773" font-family="Sans" font-size="10.00">pull-request</text>
<text text-anchor="middle" x="102" y="-760" font-family="Sans" font-size="10.00">configuration-modules-core#1119</text>
</a>
</g>
<!-- configuration&#45;modules&#45;core#1095 -->
<g id="node36" class="node"><title>configuration-modules-core#1095</title>
<a xlink:href="https://github.com/quattor/configuration-modules-core/issues/1095" xlink:title="ncm-systemd: Manual intervention required in order for drop-in unit files to have any affect" target="_parent">
<ellipse fill="#bd2c00" stroke="black" cx="384" cy="-670" rx="121.122" ry="38.1838"/>
<text text-anchor="middle" x="384" y="-674" font-family="Sans" font-size="10.00">issue</text>
<text text-anchor="middle" x="384" y="-661" font-family="Sans" font-size="10.00">configuration-modules-core#1095</text>
</a>
</g>
<!-- configuration&#45;modules&#45;core#1119&#45;&gt;configuration&#45;modules&#45;core#1095 -->
<g id="edge26" class="edge"><title>configuration-modules-core#1119-&gt;configuration-modules-core#1095</title>
<path fill="none" stroke="black" stroke-width="2" d="M179.058,-741.948C214.387,-729.545 256.51,-714.757 293.354,-701.823"/>
<polygon fill="black" stroke="black" points="294.82,-705.017 303.096,-698.403 292.501,-698.413 294.82,-705.017"/>
<text text-anchor="middle" x="225" y="-735" font-family="Sans" font-size="10.00">fixes</text>
</g>
<!-- configuration&#45;modules&#45;core#1058 -->
<g id="node37" class="node"><title>configuration-modules-core#1058</title>
<a xlink:href="https://github.com/quattor/configuration-modules-core/pull/1058" xlink:title="ncm-ssh: disable insecure ssh ciphersuites and macs" target="_parent">
<polygon fill="#6cc644" stroke="black" points="188,-508 16,-508 16,-454 188,-454 188,-508"/>
<text text-anchor="middle" x="102" y="-485" font-family="Sans" font-size="10.00">pull-request</text>
<text text-anchor="middle" x="102" y="-472" font-family="Sans" font-size="10.00">configuration-modules-core#1058</text>
</a>
</g>
<!-- configuration&#45;modules&#45;core#983 -->
<g id="node39" class="node"><title>configuration-modules-core#983</title>
<polygon fill="lightgrey" stroke="black" points="467,-286.5 301,-286.5 301,-245.5 467,-245.5 467,-286.5"/>
<text text-anchor="middle" x="384" y="-263.5" font-family="Sans" font-size="10.00">configuration-modules-core#983</text>
</g>
<!-- configuration&#45;modules&#45;core#1058&#45;&gt;configuration&#45;modules&#45;core#983 -->
<g id="edge28" class="edge"><title>configuration-modules-core#1058-&gt;configuration-modules-core#983</title>
<path fill="none" stroke="black" stroke-dasharray="1,5" d="M108.311,-453.696C119.767,-410.834 148.331,-328.576 206,-289 230.361,-272.282 261.096,-264.793 290.14,-261.99"/>
<polygon fill="black" stroke="black" points="300.33,-261.187 290.715,-266.459 295.346,-261.58 290.361,-261.973 290.361,-261.973 290.361,-261.973 295.346,-261.58 290.007,-257.487 300.33,-261.187 300.33,-261.187"/>
<text text-anchor="middle" x="225" y="-293" font-family="Sans" font-size="10.00">replaces</text>
</g>
<!-- template&#45;library&#45;core#167 -->
<g id="node40" class="node"><title>template-library-core#167</title>
<a xlink:href="https://github.com/quattor/template-library-core/pull/167" xlink:title="schema: Add support for aquilon clusters" target="_parent">
<polygon fill="#6cc644" stroke="black" points="171,-724 33,-724 33,-670 171,-670 171,-724"/>
<text text-anchor="middle" x="102" y="-701" font-family="Sans" font-size="10.00">pull-request</text>
<text text-anchor="middle" x="102" y="-688" font-family="Sans" font-size="10.00">template-library-core#167</text>
</a>
</g>
<!-- template&#45;library&#45;core#71 -->
<g id="node42" class="node"><title>template-library-core#71</title>
<a xlink:href="https://github.com/quattor/template-library-core/issues/71" xlink:title="Schema for aquilon cluster archetypes needed" target="_parent">
<ellipse fill="#6cc644" stroke="black" cx="384" cy="-576" rx="94.0452" ry="38.1838"/>
<text text-anchor="middle" x="384" y="-580" font-family="Sans" font-size="10.00">issue</text>
<text text-anchor="middle" x="384" y="-567" font-family="Sans" font-size="10.00">template-library-core#71</text>
</a>
</g>
<!-- template&#45;library&#45;core#167&#45;&gt;template&#45;library&#45;core#71 -->
<g id="edge30" class="edge"><title>template-library-core#167-&gt;template-library-core#71</title>
<path fill="none" stroke="black" stroke-width="2" d="M168.43,-669.803C175.073,-666.901 181.689,-663.936 188,-661 221.522,-645.406 228.257,-638.111 262,-623 275.679,-616.874 290.419,-610.781 304.762,-605.111"/>
<polygon fill="black" stroke="black" points="306.079,-608.355 314.115,-601.451 303.528,-601.836 306.079,-608.355"/>
<text text-anchor="middle" x="225" y="-656" font-family="Sans" font-size="10.00">fixes</text>
</g>
</g>
</svg>
