<?xml version="1.0" encoding="UTF-8" standalone="no"?>
<!-- Generated by graphviz version 2.26.0 (20091210.2329)
 -->
<!-- Title: Dependencies Pages: 1 -->
<svg xmlns="http://www.w3.org/2000/svg" xmlns:xlink="http://www.w3.org/1999/xlink" width="1118pt" height="2286pt" viewBox="0.00 0.00 1118.00 2286.00">
<g id="graph1" class="graph" transform="scale(1 1) rotate(0) translate(4 2282)">
<title>Dependencies</title>
<polygon fill="white" stroke="white" points="-4,5 -4,-2282 1115,-2282 1115,5 -4,5"/>
<g id="graph2" class="cluster"><title>cluster_17.2</title>
<polygon fill="none" stroke="black" points="86,-2154 86,-2270 492,-2270 492,-2154 86,-2154"/>
<text text-anchor="middle" x="289" y="-2255.2" font-family="Sans" font-size="12.00">17.2</text>
</g>
<g id="graph3" class="cluster"><title>cluster_16.12</title>
<polygon fill="none" stroke="black" points="8,-166 8,-2146 1102,-2146 1102,-166 8,-166"/>
<text text-anchor="middle" x="555" y="-2131.2" font-family="Sans" font-size="12.00">16.12</text>
</g>
<!-- aii#226 -->
<g id="node1" class="node"><title>aii#226</title>
<a xlink:href="https://github.com/quattor/aii/pull/226" xlink:title="aii-opennebula: Include ONE labels support" target="_parent">
<polygon fill="#6cc644" stroke="black" points="173,-2009 95,-2009 95,-1955 173,-1955 173,-2009"/>
<text text-anchor="middle" x="134" y="-1986" font-family="Sans" font-size="10.00">pull-request</text>
<text text-anchor="middle" x="134" y="-1973" font-family="Sans" font-size="10.00">aii#226</text>
</a>
</g>
<!-- aii#223 -->
<g id="node3" class="node"><title>aii#223</title>
<a xlink:href="https://github.com/quattor/aii/issues/223" xlink:title="aii opennebula handle missing template" target="_parent">
<ellipse fill="#6cc644" stroke="black" cx="442" cy="-2076" rx="41.2167" ry="38.1838"/>
<text text-anchor="middle" x="442" y="-2080" font-family="Sans" font-size="10.00">issue</text>
<text text-anchor="middle" x="442" y="-2067" font-family="Sans" font-size="10.00">aii#223</text>
</a>
</g>
<!-- aii#226&#45;&gt;aii#223 -->
<g id="edge2" class="edge"><title>aii#226-&gt;aii#223</title>
<path fill="none" stroke="black" d="M173.635,-1994.1C229.656,-2011.19 331.935,-2042.41 392.759,-2060.97"/>
<polygon fill="black" stroke="black" points="391.931,-2064.38 402.517,-2063.95 393.974,-2057.68 391.931,-2064.38"/>
<text text-anchor="middle" x="288" y="-2036" font-family="Sans" font-size="10.00">fix</text>
</g>
<!-- aii#224 -->
<g id="node5" class="node"><title>aii#224</title>
<a xlink:href="https://github.com/quattor/aii/issues/224" xlink:title="aii-opennebula: Include labels feature" target="_parent">
<ellipse fill="#6cc644" stroke="black" cx="442" cy="-1888" rx="41.2167" ry="38.1838"/>
<text text-anchor="middle" x="442" y="-1892" font-family="Sans" font-size="10.00">issue</text>
<text text-anchor="middle" x="442" y="-1879" font-family="Sans" font-size="10.00">aii#224</text>
</a>
</g>
<!-- aii#226&#45;&gt;aii#224 -->
<g id="edge4" class="edge"><title>aii#226-&gt;aii#224</title>
<path fill="none" stroke="black" d="M173.635,-1969.9C229.656,-1952.81 331.935,-1921.59 392.759,-1903.03"/>
<polygon fill="black" stroke="black" points="393.974,-1906.32 402.517,-1900.05 391.931,-1899.62 393.974,-1906.32"/>
<text text-anchor="middle" x="288" y="-1942" font-family="Sans" font-size="10.00">fix</text>
</g>
<!-- aii#228 -->
<g id="node7" class="node"><title>aii#228</title>
<a xlink:href="https://github.com/quattor/aii/issues/228" xlink:title="aii-opennebula: Include random passwords for SPICE/VNC connections" target="_parent">
<ellipse fill="#6cc644" stroke="black" cx="442" cy="-1982" rx="41.2167" ry="38.1838"/>
<text text-anchor="middle" x="442" y="-1986" font-family="Sans" font-size="10.00">issue</text>
<text text-anchor="middle" x="442" y="-1973" font-family="Sans" font-size="10.00">aii#228</text>
</a>
</g>
<!-- aii#226&#45;&gt;aii#228 -->
<g id="edge6" class="edge"><title>aii#226-&gt;aii#228</title>
<path fill="none" stroke="black" d="M173.635,-1982C228.773,-1982 328.72,-1982 389.851,-1982"/>
<polygon fill="black" stroke="black" points="390.055,-1985.5 400.055,-1982 390.055,-1978.5 390.055,-1985.5"/>
<text text-anchor="middle" x="288" y="-1986" font-family="Sans" font-size="10.00">fix</text>
</g>
<!-- aii#225 -->
<g id="node8" class="node"><title>aii#225</title>
<a xlink:href="https://github.com/quattor/aii/pull/225" xlink:title="[WIP] Add UEFI support through Grub-based PXE loader" target="_parent">
<polygon fill="#6cc644" stroke="black" points="173,-2227 95,-2227 95,-2173 173,-2173 173,-2227"/>
<text text-anchor="middle" x="134" y="-2204" font-family="Sans" font-size="10.00">pull-request</text>
<text text-anchor="middle" x="134" y="-2191" font-family="Sans" font-size="10.00">aii#225</text>
</a>
</g>
<!-- aii#216 -->
<g id="node10" class="node"><title>aii#216</title>
<a xlink:href="https://github.com/quattor/aii/issues/216" xlink:title="aii-pxelinux: add support for Grub-based UEFI PXE boot loader" target="_parent">
<ellipse fill="#6cc644" stroke="black" cx="442" cy="-2200" rx="41.2167" ry="38.1838"/>
<text text-anchor="middle" x="442" y="-2204" font-family="Sans" font-size="10.00">issue</text>
<text text-anchor="middle" x="442" y="-2191" font-family="Sans" font-size="10.00">aii#216</text>
</a>
</g>
<!-- aii#225&#45;&gt;aii#216 -->
<g id="edge8" class="edge"><title>aii#225-&gt;aii#216</title>
<path fill="none" stroke="black" d="M173.635,-2200C228.773,-2200 328.72,-2200 389.851,-2200"/>
<polygon fill="black" stroke="black" points="390.055,-2203.5 400.055,-2200 390.055,-2196.5 390.055,-2203.5"/>
<text text-anchor="middle" x="288" y="-2204" font-family="Sans" font-size="10.00">fixes</text>
</g>
<!-- aii#210 -->
<g id="node11" class="node"><title>aii#210</title>
<a xlink:href="https://github.com/quattor/aii/pull/210" xlink:title="Shellfe: support active config for plugins" target="_parent">
<polygon fill="#6cc644" stroke="black" points="173,-1749 95,-1749 95,-1695 173,-1695 173,-1749"/>
<text text-anchor="middle" x="134" y="-1726" font-family="Sans" font-size="10.00">pull-request</text>
<text text-anchor="middle" x="134" y="-1713" font-family="Sans" font-size="10.00">aii#210</text>
</a>
</g>
<!-- aii#209 -->
<g id="node13" class="node"><title>aii#209</title>
<a xlink:href="https://github.com/quattor/aii/issues/209" xlink:title="support ACTIVE_CONFIG" target="_parent">
<ellipse fill="#6cc644" stroke="black" cx="442" cy="-1722" rx="41.2167" ry="38.1838"/>
<text text-anchor="middle" x="442" y="-1726" font-family="Sans" font-size="10.00">issue</text>
<text text-anchor="middle" x="442" y="-1713" font-family="Sans" font-size="10.00">aii#209</text>
</a>
</g>
<!-- aii#210&#45;&gt;aii#209 -->
<g id="edge10" class="edge"><title>aii#210-&gt;aii#209</title>
<path fill="none" stroke="black" d="M173.635,-1722C228.773,-1722 328.72,-1722 389.851,-1722"/>
<polygon fill="black" stroke="black" points="390.055,-1725.5 400.055,-1722 390.055,-1718.5 390.055,-1725.5"/>
<text text-anchor="middle" x="288" y="-1726" font-family="Sans" font-size="10.00">fixes</text>
</g>
<!-- ncm&#45;ncd#74 -->
<g id="node15" class="node"><title>ncm-ncd#74</title>
<a xlink:href="https://github.com/quattor/ncm-ncd/pull/74" xlink:title="Set the current active config as an attribute to the component" target="_parent">
<polygon fill="#6cc644" stroke="black" points="483,-1832 401,-1832 401,-1778 483,-1778 483,-1832"/>
<text text-anchor="middle" x="442" y="-1809" font-family="Sans" font-size="10.00">pull-request</text>
<text text-anchor="middle" x="442" y="-1796" font-family="Sans" font-size="10.00">ncm-ncd#74</text>
</a>
</g>
<!-- aii#210&#45;&gt;ncm&#45;ncd#74 -->
<g id="edge12" class="edge"><title>aii#210-&gt;ncm-ncd#74</title>
<path fill="none" stroke="black" d="M173.635,-1732.68C229.041,-1747.61 329.692,-1774.74 390.739,-1791.19"/>
<polygon fill="none" stroke="black" points="389.985,-1794.61 400.552,-1793.83 391.807,-1787.85 389.985,-1794.61"/>
<text text-anchor="middle" x="288" y="-1770" font-family="Sans" font-size="10.00">requires</text>
</g>
<!-- aii#203 -->
<g id="node17" class="node"><title>aii#203</title>
<polygon fill="lightgrey" stroke="black" points="471,-156.5 413,-156.5 413,-115.5 471,-115.5 471,-156.5"/>
<text text-anchor="middle" x="442" y="-133.5" font-family="Sans" font-size="10.00">aii#203</text>
</g>
<!-- aii#210&#45;&gt;aii#203 -->
<g id="edge14" class="edge"><title>aii#210-&gt;aii#203</title>
<path fill="none" stroke="black" d="M173.562,-1695.11C201.219,-1673.77 235.965,-1641.23 252,-1603 281.633,-1532.34 242.666,-295.576 270,-224 283.037,-189.863 292.575,-180.648 324,-162 347.729,-147.919 378.226,-141.444 402.271,-138.476"/>
<polygon fill="none" stroke="black" points="402.912,-141.927 412.479,-137.376 402.162,-134.967 402.912,-141.927"/>
<text text-anchor="middle" x="288" y="-228" font-family="Sans" font-size="10.00">requires</text>
</g>
<!-- CAF#202 -->
<g id="node18" class="node"><title>CAF#202</title>
<a xlink:href="https://github.com/quattor/CAF/pull/202" xlink:title="FileWriter: use atomic write" target="_parent">
<polygon fill="#6cc644" stroke="black" points="173,-1594 95,-1594 95,-1540 173,-1540 173,-1594"/>
<text text-anchor="middle" x="134" y="-1571" font-family="Sans" font-size="10.00">pull-request</text>
<text text-anchor="middle" x="134" y="-1558" font-family="Sans" font-size="10.00">CAF#202</text>
</a>
</g>
<!-- CAF#148 -->
<g id="node20" class="node"><title>CAF#148</title>
<a xlink:href="https://github.com/quattor/CAF/issues/148" xlink:title="CAF::FileWriter updates files in-place" target="_parent">
<ellipse fill="#6cc644" stroke="black" cx="442" cy="-1534" rx="48.9975" ry="38.1838"/>
<text text-anchor="middle" x="442" y="-1538" font-family="Sans" font-size="10.00">issue</text>
<text text-anchor="middle" x="442" y="-1525" font-family="Sans" font-size="10.00">CAF#148</text>
</a>
</g>
<!-- CAF#202&#45;&gt;CAF#148 -->
<g id="edge16" class="edge"><title>CAF#202-&gt;CAF#148</title>
<path fill="none" stroke="black" d="M173.635,-1562.75C226.732,-1557.06 321.383,-1546.92 382.908,-1540.33"/>
<polygon fill="black" stroke="black" points="383.292,-1543.81 392.863,-1539.26 382.547,-1536.85 383.292,-1543.81"/>
<text text-anchor="middle" x="288" y="-1556" font-family="Sans" font-size="10.00">fixes</text>
</g>
<!-- CAF#189 -->
<g id="node22" class="node"><title>CAF#189</title>
<a xlink:href="https://github.com/quattor/CAF/issues/189" xlink:title="FileWriter: add diff to history" target="_parent">
<ellipse fill="#6cc644" stroke="black" cx="442" cy="-1628" rx="48.9975" ry="38.1838"/>
<text text-anchor="middle" x="442" y="-1632" font-family="Sans" font-size="10.00">issue</text>
<text text-anchor="middle" x="442" y="-1619" font-family="Sans" font-size="10.00">CAF#189</text>
</a>
</g>
<!-- CAF#202&#45;&gt;CAF#189 -->
<g id="edge18" class="edge"><title>CAF#202-&gt;CAF#189</title>
<path fill="none" stroke="black" d="M173.635,-1574.85C227.04,-1585.43 322.482,-1604.33 383.975,-1616.51"/>
<polygon fill="black" stroke="black" points="383.427,-1619.97 393.916,-1618.48 384.787,-1613.1 383.427,-1619.97"/>
<text text-anchor="middle" x="288" y="-1604" font-family="Sans" font-size="10.00">fixes</text>
</g>
<!-- CAF#199 -->
<g id="node23" class="node"><title>CAF#199</title>
<a xlink:href="https://github.com/quattor/CAF/pull/199" xlink:title="Remove add_files to track files" target="_parent">
<polygon fill="#6e5494" stroke="black" points="173,-1414 95,-1414 95,-1360 173,-1360 173,-1414"/>
<text text-anchor="middle" x="134" y="-1391" font-family="Sans" font-size="10.00">pull-request</text>
<text text-anchor="middle" x="134" y="-1378" font-family="Sans" font-size="10.00">CAF#199</text>
</a>
</g>
<!-- ncm&#45;ncd#96 -->
<g id="node25" class="node"><title>ncm-ncd#96</title>
<a xlink:href="https://github.com/quattor/ncm-ncd/pull/96" xlink:title="Remove support for add_files / get_files and FILES attribute" target="_parent">
<polygon fill="#6e5494" stroke="black" points="483,-1384 401,-1384 401,-1330 483,-1330 483,-1384"/>
<text text-anchor="middle" x="442" y="-1361" font-family="Sans" font-size="10.00">pull-request</text>
<text text-anchor="middle" x="442" y="-1348" font-family="Sans" font-size="10.00">ncm-ncd#96</text>
</a>
</g>
<!-- CAF#199&#45;&gt;ncm&#45;ncd#96 -->
<g id="edge20" class="edge"><title>CAF#199-&gt;ncm-ncd#96</title>
<path fill="none" stroke="black" d="M173.635,-1383.14C228.926,-1377.75 329.277,-1367.98 390.361,-1362.03"/>
<polygon fill="none" stroke="black" points="390.938,-1365.49 400.552,-1361.04 390.259,-1358.52 390.938,-1365.49"/>
<text text-anchor="middle" x="288" y="-1377" font-family="Sans" font-size="10.00">requires</text>
</g>
<!-- CAF#153 -->
<g id="node27" class="node"><title>CAF#153</title>
<a xlink:href="https://github.com/quattor/CAF/issues/153" xlink:title="remove add_files" target="_parent">
<ellipse fill="#bd2c00" stroke="black" cx="442" cy="-1440" rx="48.9975" ry="38.1838"/>
<text text-anchor="middle" x="442" y="-1444" font-family="Sans" font-size="10.00">issue</text>
<text text-anchor="middle" x="442" y="-1431" font-family="Sans" font-size="10.00">CAF#153</text>
</a>
</g>
<!-- CAF#199&#45;&gt;CAF#153 -->
<g id="edge22" class="edge"><title>CAF#199-&gt;CAF#153</title>
<path fill="none" stroke="black" d="M173.635,-1393.82C226.963,-1403 322.207,-1419.39 383.709,-1429.97"/>
<polygon fill="black" stroke="black" points="383.205,-1433.43 393.653,-1431.68 384.392,-1426.54 383.205,-1433.43"/>
<text text-anchor="middle" x="288" y="-1420" font-family="Sans" font-size="10.00">fixes</text>
</g>
<!-- CAF#98 -->
<g id="node28" class="node"><title>CAF#98</title>
<a xlink:href="https://github.com/quattor/CAF/pull/98" xlink:title="FileWriter: disable chatty LC::Check by default unless NoAction" target="_parent">
<polygon fill="#6cc644" stroke="black" points="173,-228 95,-228 95,-174 173,-174 173,-228"/>
<text text-anchor="middle" x="134" y="-205" font-family="Sans" font-size="10.00">pull-request</text>
<text text-anchor="middle" x="134" y="-192" font-family="Sans" font-size="10.00">CAF#98</text>
</a>
</g>
<!-- ncm&#45;ncd#88 -->
<g id="node30" class="node"><title>ncm-ncd#88</title>
<polygon fill="lightgrey" stroke="black" points="483,-98.5 401,-98.5 401,-57.5 483,-57.5 483,-98.5"/>
<text text-anchor="middle" x="442" y="-75.5" font-family="Sans" font-size="10.00">ncm-ncd#88</text>
</g>
<!-- CAF#98&#45;&gt;ncm&#45;ncd#88 -->
<g id="edge24" class="edge"><title>CAF#98-&gt;ncm-ncd#88</title>
<path fill="none" stroke="black" d="M161.884,-173.839C187.696,-150.431 228.281,-117.831 270,-101 308.652,-85.406 355.759,-79.9493 390.895,-78.2274"/>
<polygon fill="none" stroke="black" points="391.08,-81.7229 400.93,-77.8205 390.797,-74.7286 391.08,-81.7229"/>
<text text-anchor="middle" x="288" y="-105" font-family="Sans" font-size="10.00">requires</text>
</g>
<!-- ncm&#45;cdispd#42 -->
<g id="node32" class="node"><title>ncm-cdispd#42</title>
<polygon fill="lightgrey" stroke="black" points="489,-40.5 395,-40.5 395,0.5 489,0.5 489,-40.5"/>
<text text-anchor="middle" x="442" y="-17.5" font-family="Sans" font-size="10.00">ncm-cdispd#42</text>
</g>
<!-- CAF#98&#45;&gt;ncm&#45;cdispd#42 -->
<g id="edge26" class="edge"><title>CAF#98-&gt;ncm-cdispd#42</title>
<path fill="none" stroke="black" d="M158.22,-173.768C183.919,-146.05 226.717,-103.13 270,-74 291.941,-59.2334 299.043,-57.7521 324,-49 343.325,-42.2229 364.963,-36.4154 384.379,-31.8168"/>
<polygon fill="none" stroke="black" points="385.351,-35.1846 394.306,-29.5235 383.775,-28.3642 385.351,-35.1846"/>
<text text-anchor="middle" x="288" y="-78" font-family="Sans" font-size="10.00">requires</text>
</g>
<!-- CCM#153 -->
<g id="node33" class="node"><title>CCM#153</title>
<a xlink:href="https://github.com/quattor/CCM/pull/153" xlink:title="TextRender: cast_double and cast_long fail on non-numeric argument" target="_parent">
<polygon fill="#6cc644" stroke="black" points="173,-1301 95,-1301 95,-1247 173,-1247 173,-1301"/>
<text text-anchor="middle" x="134" y="-1278" font-family="Sans" font-size="10.00">pull-request</text>
<text text-anchor="middle" x="134" y="-1265" font-family="Sans" font-size="10.00">CCM#153</text>
</a>
</g>
<!-- CCM#95 -->
<g id="node35" class="node"><title>CCM#95</title>
<a xlink:href="https://github.com/quattor/CCM/issues/95" xlink:title="TextRender: cast_double and friends do not fail on impossible conversion" target="_parent">
<ellipse fill="#6cc644" stroke="black" cx="442" cy="-1274" rx="48.0833" ry="38.1838"/>
<text text-anchor="middle" x="442" y="-1278" font-family="Sans" font-size="10.00">issue</text>
<text text-anchor="middle" x="442" y="-1265" font-family="Sans" font-size="10.00">CCM#95</text>
</a>
</g>
<!-- CCM#153&#45;&gt;CCM#95 -->
<g id="edge28" class="edge"><title>CCM#153-&gt;CCM#95</title>
<path fill="none" stroke="black" d="M173.635,-1274C226.93,-1274 322.089,-1274 383.594,-1274"/>
<polygon fill="black" stroke="black" points="383.916,-1277.5 393.916,-1274 383.916,-1270.5 383.916,-1277.5"/>
<text text-anchor="middle" x="288" y="-1278" font-family="Sans" font-size="10.00">fixes</text>
</g>
<!-- CCM#152 -->
<g id="node36" class="node"><title>CCM#152</title>
<a xlink:href="https://github.com/quattor/CCM/pull/152" xlink:title="Remove unused syncfile" target="_parent">
<polygon fill="#6cc644" stroke="black" points="173,-1177 95,-1177 95,-1123 173,-1123 173,-1177"/>
<text text-anchor="middle" x="134" y="-1154" font-family="Sans" font-size="10.00">pull-request</text>
<text text-anchor="middle" x="134" y="-1141" font-family="Sans" font-size="10.00">CCM#152</text>
</a>
</g>
<!-- CCM#143 -->
<g id="node38" class="node"><title>CCM#143</title>
<a xlink:href="https://github.com/quattor/CCM/issues/143" xlink:title="Remove SyncFile" target="_parent">
<ellipse fill="#6cc644" stroke="black" cx="442" cy="-1108" rx="51.1176" ry="38.1838"/>
<text text-anchor="middle" x="442" y="-1112" font-family="Sans" font-size="10.00">issue</text>
<text text-anchor="middle" x="442" y="-1099" font-family="Sans" font-size="10.00">CCM#143</text>
</a>
</g>
<!-- CCM#152&#45;&gt;CCM#143 -->
<g id="edge30" class="edge"><title>CCM#152-&gt;CCM#143</title>
<path fill="none" stroke="black" d="M173.635,-1144.6C226.27,-1137.42 319.74,-1124.67 381.296,-1116.28"/>
<polygon fill="black" stroke="black" points="381.831,-1119.74 391.267,-1114.92 380.886,-1112.8 381.831,-1119.74"/>
<text text-anchor="middle" x="288" y="-1135" font-family="Sans" font-size="10.00">fixes</text>
</g>
<!-- CCM#150 -->
<g id="node40" class="node"><title>CCM#150</title>
<a xlink:href="https://github.com/quattor/CCM/pull/150" xlink:title="Remove Property class" target="_parent">
<polygon fill="#6cc644" stroke="black" points="481,-1218 403,-1218 403,-1164 481,-1164 481,-1218"/>
<text text-anchor="middle" x="442" y="-1195" font-family="Sans" font-size="10.00">pull-request</text>
<text text-anchor="middle" x="442" y="-1182" font-family="Sans" font-size="10.00">CCM#150</text>
</a>
</g>
<!-- CCM#152&#45;&gt;CCM#150 -->
<g id="edge32" class="edge"><title>CCM#152-&gt;CCM#150</title>
<path fill="none" stroke="black" d="M173.635,-1155.28C229.387,-1162.7 330.953,-1176.22 391.88,-1184.33"/>
<polygon fill="none" stroke="black" points="391.655,-1187.83 402.029,-1185.68 392.579,-1180.89 391.655,-1187.83"/>
<text text-anchor="middle" x="288" y="-1176" font-family="Sans" font-size="10.00">requires</text>
</g>
<!-- CCM#107 -->
<g id="node45" class="node"><title>CCM#107</title>
<a xlink:href="https://github.com/quattor/CCM/issues/107" xlink:title="remove CCM::Property class" target="_parent">
<ellipse fill="#6cc644" stroke="black" cx="716" cy="-1191" rx="51.1176" ry="38.1838"/>
<text text-anchor="middle" x="716" y="-1195" font-family="Sans" font-size="10.00">issue</text>
<text text-anchor="middle" x="716" y="-1182" font-family="Sans" font-size="10.00">CCM#107</text>
</a>
</g>
<!-- CCM#150&#45;&gt;CCM#107 -->
<g id="edge36" class="edge"><title>CCM#150-&gt;CCM#107</title>
<path fill="none" stroke="black" d="M481.549,-1191C526.704,-1191 601.144,-1191 654.023,-1191"/>
<polygon fill="black" stroke="black" points="654.296,-1194.5 664.296,-1191 654.296,-1187.5 654.296,-1194.5"/>
<text text-anchor="middle" x="596" y="-1195" font-family="Sans" font-size="10.00">fixes</text>
</g>
<!-- configuration&#45;modules&#45;core#972 -->
<g id="node47" class="node"><title>configuration-modules-core#972</title>
<a xlink:href="https://github.com/quattor/configuration-modules-core/pull/972" xlink:title="Round of cleanup to prepare for removal of CCM::Property module" target="_parent">
<polygon fill="#6cc644" stroke="black" points="799,-1301 633,-1301 633,-1247 799,-1247 799,-1301"/>
<text text-anchor="middle" x="716" y="-1278" font-family="Sans" font-size="10.00">pull-request</text>
<text text-anchor="middle" x="716" y="-1265" font-family="Sans" font-size="10.00">configuration-modules-core#972</text>
</a>
</g>
<!-- CCM#150&#45;&gt;configuration&#45;modules&#45;core#972 -->
<g id="edge38" class="edge"><title>CCM#150-&gt;configuration-modules-core#972</title>
<path fill="none" stroke="black" d="M481.549,-1202.98C518.291,-1214.11 574.422,-1231.11 622.55,-1245.69"/>
<polygon fill="none" stroke="black" points="621.789,-1249.12 632.374,-1248.67 623.818,-1242.42 621.789,-1249.12"/>
<text text-anchor="middle" x="596" y="-1247" font-family="Sans" font-size="10.00">requires</text>
</g>
<!-- aii#232 -->
<g id="node49" class="node"><title>aii#232</title>
<a xlink:href="https://github.com/quattor/aii/pull/232" xlink:title="Round of cleanup to prepare for removal of CCM::Property module" target="_parent">
<polygon fill="#6e5494" stroke="black" points="755,-1135 677,-1135 677,-1081 755,-1081 755,-1135"/>
<text text-anchor="middle" x="716" y="-1112" font-family="Sans" font-size="10.00">pull-request</text>
<text text-anchor="middle" x="716" y="-1099" font-family="Sans" font-size="10.00">aii#232</text>
</a>
</g>
<!-- CCM#150&#45;&gt;aii#232 -->
<g id="edge40" class="edge"><title>CCM#150-&gt;aii#232</title>
<path fill="none" stroke="black" d="M481.549,-1179.02C530.418,-1164.22 613.587,-1139.02 666.605,-1122.96"/>
<polygon fill="none" stroke="black" points="667.907,-1126.23 676.463,-1119.98 665.877,-1119.53 667.907,-1126.23"/>
<text text-anchor="middle" x="596" y="-1154" font-family="Sans" font-size="10.00">requires</text>
</g>
<!-- CCM#151 -->
<g id="node41" class="node"><title>CCM#151</title>
<a xlink:href="https://github.com/quattor/CCM/pull/151" xlink:title="Path: add /software/components/download/files/ to safe unescape paths" target="_parent">
<polygon fill="#6cc644" stroke="black" points="173,-1041 95,-1041 95,-987 173,-987 173,-1041"/>
<text text-anchor="middle" x="134" y="-1018" font-family="Sans" font-size="10.00">pull-request</text>
<text text-anchor="middle" x="134" y="-1005" font-family="Sans" font-size="10.00">CCM#151</text>
</a>
</g>
<!-- CCM#149 -->
<g id="node43" class="node"><title>CCM#149</title>
<a xlink:href="https://github.com/quattor/CCM/issues/149" xlink:title="Add ncm-download files to safe unescape paths" target="_parent">
<ellipse fill="#6cc644" stroke="black" cx="442" cy="-1014" rx="51.1176" ry="38.1838"/>
<text text-anchor="middle" x="442" y="-1018" font-family="Sans" font-size="10.00">issue</text>
<text text-anchor="middle" x="442" y="-1005" font-family="Sans" font-size="10.00">CCM#149</text>
</a>
</g>
<!-- CCM#151&#45;&gt;CCM#149 -->
<g id="edge34" class="edge"><title>CCM#151-&gt;CCM#149</title>
<path fill="none" stroke="black" d="M173.635,-1014C225.932,-1014 318.538,-1014 380.103,-1014"/>
<polygon fill="black" stroke="black" points="380.462,-1017.5 390.462,-1014 380.462,-1010.5 380.462,-1017.5"/>
<text text-anchor="middle" x="288" y="-1018" font-family="Sans" font-size="10.00">fixes</text>
</g>
<!-- configuration&#45;modules&#45;core#973 -->
<g id="node54" class="node"><title>configuration-modules-core#973</title>
<a xlink:href="https://github.com/quattor/configuration-modules-core/issues/973" xlink:title="ncm-interactivelimits: bugs in comment and missing trailing newline" target="_parent">
<ellipse fill="#6cc644" stroke="black" cx="976" cy="-1274" rx="118.087" ry="38.1838"/>
<text text-anchor="middle" x="976" y="-1278" font-family="Sans" font-size="10.00">issue</text>
<text text-anchor="middle" x="976" y="-1265" font-family="Sans" font-size="10.00">configuration-modules-core#973</text>
</a>
</g>
<!-- configuration&#45;modules&#45;core#972&#45;&gt;configuration&#45;modules&#45;core#973 -->
<g id="edge44" class="edge"><title>configuration-modules-core#972-&gt;configuration-modules-core#973</title>
<path fill="none" stroke="black" d="M799.697,-1274C815.064,-1274 831.423,-1274 847.747,-1274"/>
<polygon fill="black" stroke="black" points="847.896,-1277.5 857.896,-1274 847.896,-1270.5 847.896,-1277.5"/>
<text text-anchor="middle" x="829" y="-1278" font-family="Sans" font-size="10.00">fixes</text>
</g>
<!-- cdp&#45;listend#16 -->
<g id="node50" class="node"><title>cdp-listend#16</title>
<a xlink:href="https://github.com/quattor/cdp-listend/pull/16" xlink:title="Add hostname configuration option to choose the hostname/IP to listen on" target="_parent">
<polygon fill="#6cc644" stroke="black" points="488,-416 396,-416 396,-362 488,-362 488,-416"/>
<text text-anchor="middle" x="442" y="-393" font-family="Sans" font-size="10.00">pull-request</text>
<text text-anchor="middle" x="442" y="-380" font-family="Sans" font-size="10.00">cdp-listend#16</text>
</a>
</g>
<!-- cdp&#45;listend#15 -->
<g id="node52" class="node"><title>cdp-listend#15</title>
<a xlink:href="https://github.com/quattor/cdp-listend/issues/15" xlink:title="Issue with binding on a specific IP" target="_parent">
<ellipse fill="#6cc644" stroke="black" cx="716" cy="-389" rx="65.0538" ry="38.1838"/>
<text text-anchor="middle" x="716" y="-393" font-family="Sans" font-size="10.00">issue</text>
<text text-anchor="middle" x="716" y="-380" font-family="Sans" font-size="10.00">cdp-listend#15</text>
</a>
</g>
<!-- cdp&#45;listend#16&#45;&gt;cdp&#45;listend#15 -->
<g id="edge42" class="edge"><title>cdp-listend#16-&gt;cdp-listend#15</title>
<path fill="none" stroke="black" d="M488.171,-389C529.819,-389 591.85,-389 640.674,-389"/>
<polygon fill="black" stroke="black" points="640.88,-392.5 650.88,-389 640.88,-385.5 640.88,-392.5"/>
<text text-anchor="middle" x="596" y="-393" font-family="Sans" font-size="10.00">fixes</text>
</g>
<!-- configuration&#45;modules&#45;core#967 -->
<g id="node55" class="node"><title>configuration-modules-core#967</title>
<a xlink:href="https://github.com/quattor/configuration-modules-core/pull/967" xlink:title="ncm-opennebula: Include OpenNebula labels support" target="_parent">
<polygon fill="#6cc644" stroke="black" points="217,-899 51,-899 51,-845 217,-845 217,-899"/>
<text text-anchor="middle" x="134" y="-876" font-family="Sans" font-size="10.00">pull-request</text>
<text text-anchor="middle" x="134" y="-863" font-family="Sans" font-size="10.00">configuration-modules-core#967</text>
</a>
</g>
<!-- configuration&#45;modules&#45;core#959 -->
<g id="node57" class="node"><title>configuration-modules-core#959</title>
<a xlink:href="https://github.com/quattor/configuration-modules-core/issues/959" xlink:title="ncm-opennebula: Include Labels support" target="_parent">
<ellipse fill="#6cc644" stroke="black" cx="442" cy="-826" rx="118.087" ry="38.1838"/>
<text text-anchor="middle" x="442" y="-830" font-family="Sans" font-size="10.00">issue</text>
<text text-anchor="middle" x="442" y="-817" font-family="Sans" font-size="10.00">configuration-modules-core#959</text>
</a>
</g>
<!-- configuration&#45;modules&#45;core#967&#45;&gt;configuration&#45;modules&#45;core#959 -->
<g id="edge46" class="edge"><title>configuration-modules-core#967-&gt;configuration-modules-core#959</title>
<path fill="none" stroke="black" d="M217.756,-859.491C250.728,-854.567 289.168,-848.826 324.813,-843.502"/>
<polygon fill="black" stroke="black" points="325.412,-846.951 334.785,-842.013 324.378,-840.028 325.412,-846.951"/>
<text text-anchor="middle" x="288" y="-855" font-family="Sans" font-size="10.00">fix</text>
</g>
<!-- configuration&#45;modules&#45;core#966 -->
<g id="node59" class="node"><title>configuration-modules-core#966</title>
<a xlink:href="https://github.com/quattor/configuration-modules-core/issues/966" xlink:title="ncm-opennebula: src/test/perl/host.t fails with Net::OpenNebula 0.309.0" target="_parent">
<ellipse fill="#6cc644" stroke="black" cx="442" cy="-920" rx="118.087" ry="38.1838"/>
<text text-anchor="middle" x="442" y="-924" font-family="Sans" font-size="10.00">issue</text>
<text text-anchor="middle" x="442" y="-911" font-family="Sans" font-size="10.00">configuration-modules-core#966</text>
</a>
</g>
<!-- configuration&#45;modules&#45;core#967&#45;&gt;configuration&#45;modules&#45;core#966 -->
<g id="edge48" class="edge"><title>configuration-modules-core#967-&gt;configuration-modules-core#966</title>
<path fill="none" stroke="black" d="M217.756,-885.053C250.972,-890.229 289.737,-896.271 325.604,-901.86"/>
<polygon fill="black" stroke="black" points="325.217,-905.342 335.637,-903.424 326.295,-898.426 325.217,-905.342"/>
<text text-anchor="middle" x="288" y="-902" font-family="Sans" font-size="10.00">fix</text>
</g>
<!-- configuration&#45;modules&#45;core#957 -->
<g id="node60" class="node"><title>configuration-modules-core#957</title>
<a xlink:href="https://github.com/quattor/configuration-modules-core/pull/957" xlink:title="ncm-gpfs: allow to run mmsdrfrestore after each configfetch" target="_parent">
<polygon fill="#6cc644" stroke="black" points="217,-770 51,-770 51,-716 217,-716 217,-770"/>
<text text-anchor="middle" x="134" y="-747" font-family="Sans" font-size="10.00">pull-request</text>
<text text-anchor="middle" x="134" y="-734" font-family="Sans" font-size="10.00">configuration-modules-core#957</text>
</a>
</g>
<!-- configuration&#45;modules&#45;core#911 -->
<g id="node62" class="node"><title>configuration-modules-core#911</title>
<a xlink:href="https://github.com/quattor/configuration-modules-core/pull/911" xlink:title="ncm-gpfs: add ccr support" target="_parent">
<polygon fill="#6cc644" stroke="black" points="525,-770 359,-770 359,-716 525,-716 525,-770"/>
<text text-anchor="middle" x="442" y="-747" font-family="Sans" font-size="10.00">pull-request</text>
<text text-anchor="middle" x="442" y="-734" font-family="Sans" font-size="10.00">configuration-modules-core#911</text>
</a>
</g>
<!-- configuration&#45;modules&#45;core#957&#45;&gt;configuration&#45;modules&#45;core#911 -->
<g id="edge50" class="edge"><title>configuration-modules-core#957-&gt;configuration-modules-core#911</title>
<path fill="none" stroke="black" d="M217.756,-743C258.074,-743 306.568,-743 348.13,-743"/>
<polygon fill="none" stroke="black" points="348.261,-746.5 358.261,-743 348.261,-739.5 348.261,-746.5"/>
<text text-anchor="middle" x="288" y="-747" font-family="Sans" font-size="10.00">requires</text>
</g>
<!-- configuration&#45;modules&#45;core#950 -->
<g id="node63" class="node"><title>configuration-modules-core#950</title>
<a xlink:href="https://github.com/quattor/configuration-modules-core/issues/950" xlink:title="ncm-spma: Remove support for package groups from yum backends" target="_parent">
<ellipse fill="#6cc644" stroke="black" cx="134" cy="-612" rx="118.087" ry="38.1838"/>
<text text-anchor="middle" x="134" y="-616" font-family="Sans" font-size="10.00">issue</text>
<text text-anchor="middle" x="134" y="-603" font-family="Sans" font-size="10.00">configuration-modules-core#950</text>
</a>
</g>
<!-- configuration&#45;modules&#45;core#951 -->
<g id="node65" class="node"><title>configuration-modules-core#951</title>
<a xlink:href="https://github.com/quattor/configuration-modules-core/issues/951" xlink:title="ncm-spma (yum): Remove support for package groups" target="_parent">
<ellipse fill="#6cc644" stroke="black" cx="442" cy="-566" rx="118.087" ry="38.1838"/>
<text text-anchor="middle" x="442" y="-570" font-family="Sans" font-size="10.00">issue</text>
<text text-anchor="middle" x="442" y="-557" font-family="Sans" font-size="10.00">configuration-modules-core#951</text>
</a>
</g>
<!-- configuration&#45;modules&#45;core#950&#45;&gt;configuration&#45;modules&#45;core#951 -->
<g id="edge52" class="edge"><title>configuration-modules-core#950-&gt;configuration-modules-core#951</title>
<path fill="none" stroke="black" d="M241.291,-595.976C268.273,-591.946 297.367,-587.601 324.806,-583.503"/>
<polygon fill="none" stroke="black" points="325.459,-586.944 334.833,-582.006 324.425,-580.021 325.459,-586.944"/>
<text text-anchor="middle" x="288" y="-595" font-family="Sans" font-size="10.00">requires</text>
</g>
<!-- configuration&#45;modules&#45;core#952 -->
<g id="node67" class="node"><title>configuration-modules-core#952</title>
<a xlink:href="https://github.com/quattor/configuration-modules-core/issues/952" xlink:title="ncm-spma (yumng): Remove support for package groups" target="_parent">
<ellipse fill="#6cc644" stroke="black" cx="442" cy="-660" rx="118.087" ry="38.1838"/>
<text text-anchor="middle" x="442" y="-664" font-family="Sans" font-size="10.00">issue</text>
<text text-anchor="middle" x="442" y="-651" font-family="Sans" font-size="10.00">configuration-modules-core#952</text>
</a>
</g>
<!-- configuration&#45;modules&#45;core#950&#45;&gt;configuration&#45;modules&#45;core#952 -->
<g id="edge54" class="edge"><title>configuration-modules-core#950-&gt;configuration-modules-core#952</title>
<path fill="none" stroke="black" d="M240.427,-628.586C267.838,-632.858 297.478,-637.477 325.376,-641.825"/>
<polygon fill="none" stroke="black" points="325.149,-645.332 335.568,-643.413 326.227,-638.415 325.149,-645.332"/>
<text text-anchor="middle" x="288" y="-642" font-family="Sans" font-size="10.00">requires</text>
</g>
<!-- configuration&#45;modules&#45;core#945 -->
<g id="node68" class="node"><title>configuration-modules-core#945</title>
<a xlink:href="https://github.com/quattor/configuration-modules-core/pull/945" xlink:title="ncm-cdp : Update ncm-cdp schema to support hostname" target="_parent">
<polygon fill="#6cc644" stroke="black" points="217,-472 51,-472 51,-418 217,-418 217,-472"/>
<text text-anchor="middle" x="134" y="-449" font-family="Sans" font-size="10.00">pull-request</text>
<text text-anchor="middle" x="134" y="-436" font-family="Sans" font-size="10.00">configuration-modules-core#945</text>
</a>
</g>
<!-- configuration&#45;modules&#45;core#945&#45;&gt;cdp&#45;listend#16 -->
<g id="edge58" class="edge"><title>configuration-modules-core#945-&gt;cdp-listend#16</title>
<path fill="none" stroke="black" d="M217.756,-429.772C271.194,-420.056 338.994,-407.728 385.981,-399.185"/>
<polygon fill="none" stroke="black" points="386.761,-402.601 395.974,-397.368 385.509,-395.714 386.761,-402.601"/>
<text text-anchor="middle" x="288" y="-423" font-family="Sans" font-size="10.00">requires</text>
</g>
<!-- configuration&#45;modules&#45;core#944 -->
<g id="node70" class="node"><title>configuration-modules-core#944</title>
<a xlink:href="https://github.com/quattor/configuration-modules-core/issues/944" xlink:title="cdp: suport hostname config" target="_parent">
<ellipse fill="#6cc644" stroke="black" cx="442" cy="-472" rx="118.087" ry="38.1838"/>
<text text-anchor="middle" x="442" y="-476" font-family="Sans" font-size="10.00">issue</text>
<text text-anchor="middle" x="442" y="-463" font-family="Sans" font-size="10.00">configuration-modules-core#944</text>
</a>
</g>
<!-- configuration&#45;modules&#45;core#945&#45;&gt;configuration&#45;modules&#45;core#944 -->
<g id="edge56" class="edge"><title>configuration-modules-core#945-&gt;configuration-modules-core#944</title>
<path fill="none" stroke="black" d="M217.756,-452.342C248.509,-455.038 284.018,-458.151 317.58,-461.093"/>
<polygon fill="black" stroke="black" points="317.659,-464.613 327.926,-462 318.27,-457.64 317.659,-464.613"/>
<text text-anchor="middle" x="288" y="-464" font-family="Sans" font-size="10.00">fixes</text>
</g>
<!-- maven&#45;tools#113 -->
<g id="node72" class="node"><title>maven-tools#113</title>
<a xlink:href="https://github.com/quattor/maven-tools/pull/113" xlink:title="maven-tools: add component config.pan and schema.pan header templates" target="_parent">
<polygon fill="#6cc644" stroke="black" points="185,-372 83,-372 83,-318 185,-318 185,-372"/>
<text text-anchor="middle" x="134" y="-349" font-family="Sans" font-size="10.00">pull-request</text>
<text text-anchor="middle" x="134" y="-336" font-family="Sans" font-size="10.00">maven-tools#113</text>
</a>
</g>
<!-- maven&#45;tools#109 -->
<g id="node74" class="node"><title>maven-tools#109</title>
<a xlink:href="https://github.com/quattor/maven-tools/issues/109" xlink:title="Add support for site specific component configuration to component configs" target="_parent">
<ellipse fill="#6cc644" stroke="black" cx="442" cy="-306" rx="72.832" ry="38.1838"/>
<text text-anchor="middle" x="442" y="-310" font-family="Sans" font-size="10.00">issue</text>
<text text-anchor="middle" x="442" y="-297" font-family="Sans" font-size="10.00">maven-tools#109</text>
</a>
</g>
<!-- maven&#45;tools#113&#45;&gt;maven&#45;tools#109 -->
<g id="edge60" class="edge"><title>maven-tools#113-&gt;maven-tools#109</title>
<path fill="none" stroke="black" d="M185.552,-338.472C233.353,-332.42 305.253,-323.315 360.77,-316.286"/>
<polygon fill="black" stroke="black" points="361.455,-319.727 370.936,-314.998 360.575,-312.782 361.455,-319.727"/>
<text text-anchor="middle" x="288" y="-331" font-family="Sans" font-size="10.00">fixes</text>
</g>
<!-- ncm&#45;ncd#100 -->
<g id="node75" class="node"><title>ncm-ncd#100</title>
<a xlink:href="https://github.com/quattor/ncm-ncd/pull/100" xlink:title="Set check-noquattor to true by default" target="_parent">
<polygon fill="#6cc644" stroke="black" points="177,-300 91,-300 91,-246 177,-246 177,-300"/>
<text text-anchor="middle" x="134" y="-277" font-family="Sans" font-size="10.00">pull-request</text>
<text text-anchor="middle" x="134" y="-264" font-family="Sans" font-size="10.00">ncm-ncd#100</text>
</a>
</g>
<!-- ncm&#45;ncd#99 -->
<g id="node77" class="node"><title>ncm-ncd#99</title>
<a xlink:href="https://github.com/quattor/ncm-ncd/issues/99" xlink:title="enable check-noquattor by default" target="_parent">
<ellipse fill="#6cc644" stroke="black" cx="442" cy="-212" rx="57.9828" ry="38.1838"/>
<text text-anchor="middle" x="442" y="-216" font-family="Sans" font-size="10.00">issue</text>
<text text-anchor="middle" x="442" y="-203" font-family="Sans" font-size="10.00">ncm-ncd#99</text>
</a>
</g>
<!-- ncm&#45;ncd#100&#45;&gt;ncm&#45;ncd#99 -->
<g id="edge62" class="edge"><title>ncm-ncd#100-&gt;ncm-ncd#99</title>
<path fill="none" stroke="black" d="M177.802,-264.325C229.611,-254.064 316.365,-236.882 376.248,-225.022"/>
<polygon fill="black" stroke="black" points="377.229,-228.396 386.359,-223.02 375.869,-221.529 377.229,-228.396"/>
<text text-anchor="middle" x="288" y="-249" font-family="Sans" font-size="10.00">fixes</text>
</g>
</g>
</svg>
