<?xml version="1.0" encoding="UTF-8" standalone="no"?>
<?xml-stylesheet href="relationships.css" type="text/css"?>
<!-- Generated by graphviz version 2.30.1 (20200930.0103)
 -->
<!-- Title: Dependencies Pages: 1 -->
<svg xmlns="http://www.w3.org/2000/svg" xmlns:xlink="http://www.w3.org/1999/xlink" width="844pt" height="1482pt" viewBox="0.00 0.00 844.00 1482.00">
<g id="graph0" class="graph" transform="scale(1 1) rotate(0) translate(4 1478)">
<title>Dependencies</title>
<polygon fill="white" stroke="white" points="-4,5 -4,-1478 841,-1478 841,5 -4,5"/>
<g id="clust2" class="cluster"><title>cluster_milestone_23.10</title>
<polygon fill="none" stroke="black" points="8,-576 8,-1003 531,-1003 531,-576 8,-576"/>
<text text-anchor="middle" x="269.5" y="-989.4" font-family="Sans" font-size="12.00">23.10</text>
</g>
<g id="clust1" class="cluster"><title>cluster_milestone_23.next</title>
<polygon fill="none" stroke="black" points="324,-47 324,-338 828,-338 828,-47 324,-47"/>
<text text-anchor="middle" x="576" y="-324.4" font-family="Sans" font-size="12.00">23.next</text>
</g>
<!-- aii#328 -->
<g id="node1" class="node"><title>aii#328</title>
<g id="a_node1"><a xlink:href="https://github.com/quattor/aii/pull/328" xlink:title="aii#328 (pull-request)" target="_parent">
<polygon fill="#6cc644" stroke="black" points="516,-105 334,-105 334,-55 516,-55 516,-105"/>
<text text-anchor="middle" x="425" y="-83" font-family="Sans" font-size="10.00">aii-ks: generate ks post section</text>
<text text-anchor="middle" x="425" y="-72" font-family="Sans" font-size="10.00">as standalone script</text>
</a>
</g>
</g>
<!-- aii#280 -->
<g id="node2" class="node"><title>aii#280</title>
<polygon fill="lightgrey" stroke="black" points="760.5,-388.5 693.5,-388.5 693.5,-349.5 760.5,-349.5 760.5,-388.5"/>
<text text-anchor="middle" x="727" y="-366.5" font-family="Sans" font-size="10.00">aii#280</text>
</g>
<!-- aii#328&#45;&gt;aii#280 -->
<g id="edge1" class="edge"><title>aii#328-&gt;aii#280</title>
<path fill="none" stroke="black" stroke-dasharray="5,2" d="M516.244,-103.298C521.52,-106.427 526.502,-109.976 531,-114 613.872,-188.137 550.109,-269.018 634,-342 647.624,-353.853 666.222,-360.508 683.133,-364.243"/>
<polygon fill="none" stroke="black" points="682.903,-367.763 693.384,-366.212 684.223,-360.889 682.903,-367.763"/>
<text text-anchor="middle" x="563.348" y="-229.931" font-family="Sans" font-size="10.00">requires</text>
</g>
<!-- aii#316 -->
<g id="node3" class="node"><title>aii#316</title>
<polygon fill="lightgrey" stroke="black" points="760.5,-38.5 693.5,-38.5 693.5,0.5 760.5,0.5 760.5,-38.5"/>
<text text-anchor="middle" x="727" y="-16.5" font-family="Sans" font-size="10.00">aii#316</text>
</g>
<!-- aii#328&#45;&gt;aii#316 -->
<g id="edge2" class="edge"><title>aii#328-&gt;aii#316</title>
<path fill="none" stroke="black" stroke-dasharray="5,2" d="M516.01,-61.698C571.454,-50.4243 639.991,-36.4885 683.364,-27.6694"/>
<polygon fill="none" stroke="black" points="684.188,-31.0735 693.29,-25.651 682.793,-24.2138 684.188,-31.0735"/>
<text text-anchor="middle" x="584.904" y="-35.6228" font-family="Sans" font-size="10.00">requires</text>
</g>
<!-- aii#331 -->
<g id="node4" class="node"><title>aii#331</title>
<g id="a_node4"><a xlink:href="https://github.com/quattor/aii/pull/331" xlink:title="aii#331 (pull-request)" target="_parent">
<polygon fill="#6cc644" stroke="black" points="187,-110.5 45,-110.5 45,-49.5 187,-49.5 187,-110.5"/>
<text text-anchor="middle" x="116" y="-88.5" font-family="Sans" font-size="10.00">let aii generate ansible</text>
<text text-anchor="middle" x="116" y="-77.5" font-family="Sans" font-size="10.00">playbook for supported</text>
<text text-anchor="middle" x="116" y="-66.5" font-family="Sans" font-size="10.00">components</text>
</a>
</g>
</g>
<!-- aii#331&#45;&gt;aii#328 -->
<g id="edge3" class="edge"><title>aii#331-&gt;aii#328</title>
<path fill="none" stroke="black" stroke-dasharray="5,2" d="M187.047,-80C227.521,-80 279.115,-80 323.819,-80"/>
<polygon fill="none" stroke="black" points="323.837,-83.5001 333.837,-80 323.837,-76.5001 323.837,-83.5001"/>
<text text-anchor="middle" x="240.481" y="-72" font-family="Sans" font-size="10.00">requires</text>
</g>
<!-- aii#299 -->
<g id="node5" class="node"><title>aii#299</title>
<g id="a_node5"><a xlink:href="https://github.com/quattor/aii/pull/299" xlink:title="aii#299 (pull-request)" target="_parent">
<polygon fill="#6cc644" stroke="black" points="501.5,-396 348.5,-396 348.5,-346 501.5,-346 501.5,-396"/>
<text text-anchor="middle" x="425" y="-374" font-family="Sans" font-size="10.00">aii-dhcp: support optional</text>
<text text-anchor="middle" x="425" y="-363" font-family="Sans" font-size="10.00">hostname ip verification</text>
</a>
</g>
</g>
<!-- aii#299&#45;&gt;aii#280 -->
<g id="edge4" class="edge"><title>aii#299-&gt;aii#280</title>
<path fill="none" stroke="black" stroke-dasharray="5,2" d="M501.703,-370.495C559.152,-370.112 636.054,-369.6 683.253,-369.285"/>
<polygon fill="none" stroke="black" points="683.455,-372.784 693.431,-369.217 683.408,-365.784 683.455,-372.784"/>
<text text-anchor="middle" x="577.457" y="-361.857" font-family="Sans" font-size="10.00">requires</text>
</g>
<!-- CAF#277 -->
<g id="node6" class="node"><title>CAF#277</title>
<g id="a_node6"><a xlink:href="https://github.com/quattor/CAF/pull/277" xlink:title="CAF#277 (pull-request)" target="_parent">
<polygon fill="#6cc644" stroke="black" points="517.5,-309 332.5,-309 332.5,-259 517.5,-259 517.5,-309"/>
<text text-anchor="middle" x="425" y="-287" font-family="Sans" font-size="10.00">Replace four instances of while-</text>
<text text-anchor="middle" x="425" y="-276" font-family="Sans" font-size="10.00">each with foreach</text>
</a>
</g>
</g>
<!-- CAF#109 -->
<g id="node7" class="node"><title>CAF#109</title>
<g id="a_node7"><a xlink:href="https://github.com/quattor/CAF/issues/109" xlink:title="CAF#109 (issue)" target="_parent">
<path fill="#6cc644" stroke="black" d="M796.5,-309C796.5,-309 657.5,-309 657.5,-309 651.5,-309 645.5,-303 645.5,-297 645.5,-297 645.5,-271 645.5,-271 645.5,-265 651.5,-259 657.5,-259 657.5,-259 796.5,-259 796.5,-259 802.5,-259 808.5,-265 808.5,-271 808.5,-271 808.5,-297 808.5,-297 808.5,-303 802.5,-309 796.5,-309"/>
<text text-anchor="middle" x="727" y="-287" font-family="Sans" font-size="10.00">review the current usage of</text>
<text text-anchor="middle" x="727" y="-276" font-family="Sans" font-size="10.00">`each`</text>
</a>
</g>
</g>
<!-- CAF#277&#45;&gt;CAF#109 -->
<g id="edge5" class="edge"><title>CAF#277-&gt;CAF#109</title>
<path fill="none" stroke="black" stroke-width="2" d="M517.64,-284C554.811,-284 597.647,-284 634.776,-284"/>
<polygon fill="black" stroke="black" points="635.087,-287.5 645.087,-284 635.087,-280.5 635.087,-287.5"/>
<text text-anchor="middle" x="569.378" y="-276" font-family="Sans" font-size="10.00">fixes</text>
</g>
<!-- CAF#257 -->
<g id="node8" class="node"><title>CAF#257</title>
<g id="a_node8"><a xlink:href="https://github.com/quattor/CAF/pull/257" xlink:title="CAF#257 (pull-request)" target="_parent">
<polygon fill="#6cc644" stroke="black" points="516.5,-241 333.5,-241 333.5,-191 516.5,-191 516.5,-241"/>
<text text-anchor="middle" x="425" y="-219" font-family="Sans" font-size="10.00">Process: run process as another</text>
<text text-anchor="middle" x="425" y="-208" font-family="Sans" font-size="10.00">user</text>
</a>
</g>
</g>
<!-- CAF#253 -->
<g id="node9" class="node"><title>CAF#253</title>
<g id="a_node9"><a xlink:href="https://github.com/quattor/CAF/issues/253" xlink:title="CAF#253 (issue)" target="_parent">
<path fill="#6cc644" stroke="black" d="M805,-240.5C805,-240.5 649,-240.5 649,-240.5 643,-240.5 637,-234.5 637,-228.5 637,-228.5 637,-191.5 637,-191.5 637,-185.5 643,-179.5 649,-179.5 649,-179.5 805,-179.5 805,-179.5 811,-179.5 817,-185.5 817,-191.5 817,-191.5 817,-228.5 817,-228.5 817,-234.5 811,-240.5 805,-240.5"/>
<text text-anchor="middle" x="727" y="-218.5" font-family="Sans" font-size="10.00">CAF::Process: Include an option</text>
<text text-anchor="middle" x="727" y="-207.5" font-family="Sans" font-size="10.00">to execute the command as an</text>
<text text-anchor="middle" x="727" y="-196.5" font-family="Sans" font-size="10.00">specific user</text>
</a>
</g>
</g>
<!-- CAF#257&#45;&gt;CAF#253 -->
<g id="edge6" class="edge"><title>CAF#257-&gt;CAF#253</title>
<path fill="none" stroke="black" stroke-width="2" d="M516.824,-214.184C551.434,-213.491 591.05,-212.699 626.43,-211.991"/>
<polygon fill="black" stroke="black" points="626.847,-215.484 636.775,-211.785 626.707,-208.485 626.847,-215.484"/>
<text text-anchor="middle" x="565.023" y="-204.98" font-family="Sans" font-size="10.00">fixes</text>
</g>
<!-- CAF#110 -->
<g id="node10" class="node"><title>CAF#110</title>
<g id="a_node10"><a xlink:href="https://github.com/quattor/CAF/pull/110" xlink:title="CAF#110 (pull-request)" target="_parent">
<polygon fill="#6cc644" stroke="black" points="191.5,-459 40.5,-459 40.5,-409 191.5,-409 191.5,-459"/>
<text text-anchor="middle" x="116" y="-437" font-family="Sans" font-size="10.00">CAF::Download class: API</text>
<text text-anchor="middle" x="116" y="-426" font-family="Sans" font-size="10.00">proposal</text>
</a>
</g>
</g>
<!-- CAF#120 -->
<g id="node11" class="node"><title>CAF#120</title>
<polygon fill="lightgrey" stroke="black" points="462,-453.5 388,-453.5 388,-414.5 462,-414.5 462,-453.5"/>
<text text-anchor="middle" x="425" y="-431.5" font-family="Sans" font-size="10.00">CAF#120</text>
</g>
<!-- CAF#110&#45;&gt;CAF#120 -->
<g id="edge7" class="edge"><title>CAF#110-&gt;CAF#120</title>
<path fill="none" stroke="black" stroke-dasharray="5,2" d="M191.708,-434C249.703,-434 328.285,-434 377.556,-434"/>
<polygon fill="none" stroke="black" points="377.607,-437.5 387.607,-434 377.607,-430.5 377.607,-437.5"/>
<text text-anchor="middle" x="269.839" y="-426" font-family="Sans" font-size="10.00">requires</text>
</g>
<!-- CCM#210 -->
<g id="node12" class="node"><title>CCM#210</title>
<g id="a_node12"><a xlink:href="https://github.com/quattor/CCM/pull/210" xlink:title="CCM#210 (pull-request)" target="_parent">
<polygon fill="#6e5494" stroke="black" points="194,-974 38,-974 38,-924 194,-924 194,-974"/>
<text text-anchor="middle" x="116" y="-952" font-family="Sans" font-size="10.00">Fetch: Remove suffix from</text>
<text text-anchor="middle" x="116" y="-941" font-family="Sans" font-size="10.00">downloaded profile</text>
</a>
</g>
</g>
<!-- CCM#204 -->
<g id="node13" class="node"><title>CCM#204</title>
<g id="a_node13"><a xlink:href="https://github.com/quattor/CCM/issues/204" xlink:title="CCM#204 (issue)" target="_parent">
<path fill="#6e5494" stroke="black" d="M504.5,-973.5C504.5,-973.5 345.5,-973.5 345.5,-973.5 339.5,-973.5 333.5,-967.5 333.5,-961.5 333.5,-961.5 333.5,-924.5 333.5,-924.5 333.5,-918.5 339.5,-912.5 345.5,-912.5 345.5,-912.5 504.5,-912.5 504.5,-912.5 510.5,-912.5 516.5,-918.5 516.5,-924.5 516.5,-924.5 516.5,-961.5 516.5,-961.5 516.5,-967.5 510.5,-973.5 504.5,-973.5"/>
<text text-anchor="middle" x="425" y="-951.5" font-family="Sans" font-size="10.00">Cached profiles always have an</text>
<text text-anchor="middle" x="425" y="-940.5" font-family="Sans" font-size="10.00">xml extension regardless of</text>
<text text-anchor="middle" x="425" y="-929.5" font-family="Sans" font-size="10.00">their content</text>
</a>
</g>
</g>
<!-- CCM#210&#45;&gt;CCM#204 -->
<g id="edge8" class="edge"><title>CCM#210-&gt;CCM#204</title>
<path fill="none" stroke="black" stroke-width="2" d="M194.073,-947.494C233.125,-946.73 281.039,-945.794 323.001,-944.974"/>
<polygon fill="black" stroke="black" points="323.321,-948.468 333.251,-944.774 323.184,-941.47 323.321,-948.468"/>
<text text-anchor="middle" x="251.671" y="-938.133" font-family="Sans" font-size="10.00">fixes</text>
</g>
<!-- configuration&#45;modules&#45;core#1630 -->
<g id="node14" class="node"><title>configuration-modules-core#1630</title>
<g id="a_node14"><a xlink:href="https://github.com/quattor/configuration-modules-core/pull/1630" xlink:title="configuration-modules-core#1630 (pull-request)" target="_parent">
<polygon fill="#6e5494" stroke="black" points="215.5,-906 16.5,-906 16.5,-856 215.5,-856 215.5,-906"/>
<text text-anchor="middle" x="116" y="-884" font-family="Sans" font-size="10.00">ncm-network: fix nmstate package</text>
<text text-anchor="middle" x="116" y="-873" font-family="Sans" font-size="10.00">definition in Kickstart config</text>
</a>
</g>
</g>
<!-- configuration&#45;modules&#45;core#1629 -->
<g id="node15" class="node"><title>configuration-modules-core#1629</title>
<g id="a_node15"><a xlink:href="https://github.com/quattor/configuration-modules-core/issues/1629" xlink:title="configuration-modules-core#1629 (issue)" target="_parent">
<path fill="#6e5494" stroke="black" d="M501.5,-894.5C501.5,-894.5 348.5,-894.5 348.5,-894.5 342.5,-894.5 336.5,-888.5 336.5,-882.5 336.5,-882.5 336.5,-845.5 336.5,-845.5 336.5,-839.5 342.5,-833.5 348.5,-833.5 348.5,-833.5 501.5,-833.5 501.5,-833.5 507.5,-833.5 513.5,-839.5 513.5,-845.5 513.5,-845.5 513.5,-882.5 513.5,-882.5 513.5,-888.5 507.5,-894.5 501.5,-894.5"/>
<text text-anchor="middle" x="425" y="-872.5" font-family="Sans" font-size="10.00">ncm-network nmstate: invalid</text>
<text text-anchor="middle" x="425" y="-861.5" font-family="Sans" font-size="10.00">package definition in Kickstart</text>
<text text-anchor="middle" x="425" y="-850.5" font-family="Sans" font-size="10.00">configuration</text>
</a>
</g>
</g>
<!-- configuration&#45;modules&#45;core#1630&#45;&gt;configuration&#45;modules&#45;core#1629 -->
<g id="edge9" class="edge"><title>configuration-modules-core#1630-&gt;configuration-modules-core#1629</title>
<path fill="none" stroke="black" stroke-width="2" d="M215.827,-862.819C251.164,-859.796 290.948,-857.604 326.199,-856.739"/>
<polygon fill="black" stroke="black" points="326.572,-860.232 336.496,-856.522 326.425,-853.233 326.572,-860.232"/>
<text text-anchor="middle" x="263.883" y="-850.709" font-family="Sans" font-size="10.00">fixes</text>
</g>
<!-- configuration&#45;modules&#45;core#1630&#45;&gt;configuration&#45;modules&#45;core#1629 -->
<g id="edge21" class="edge"><title>configuration-modules-core#1630-&gt;configuration-modules-core#1629</title>
<path fill="none" stroke="black" stroke-width="2" d="M215.827,-875.528C251.164,-873.571 290.948,-871.368 326.199,-869.416"/>
<polygon fill="black" stroke="black" points="326.705,-872.893 336.496,-868.845 326.318,-865.904 326.705,-872.893"/>
<text text-anchor="middle" x="263.883" y="-864.202" font-family="Sans" font-size="10.00">fixes</text>
</g>
<!-- configuration&#45;modules&#45;core#1630&#45;&gt;configuration&#45;modules&#45;core#1629 -->
<g id="edge28" class="edge"><title>configuration-modules-core#1630-&gt;configuration-modules-core#1629</title>
<path fill="none" stroke="black" stroke-width="2" d="M215.827,-888.236C251.164,-887.345 290.948,-885.132 326.199,-882.093"/>
<polygon fill="black" stroke="black" points="326.849,-885.548 336.496,-881.169 326.224,-878.576 326.849,-885.548"/>
<text text-anchor="middle" x="264.323" y="-877.669" font-family="Sans" font-size="10.00">fixes</text>
</g>
<!-- configuration&#45;modules&#45;core#1622 -->
<g id="node16" class="node"><title>configuration-modules-core#1622</title>
<g id="a_node16"><a xlink:href="https://github.com/quattor/configuration-modules-core/pull/1622" xlink:title="configuration-modules-core#1622 (pull-request)" target="_parent">
<polygon fill="#6e5494" stroke="black" points="204.5,-838 27.5,-838 27.5,-788 204.5,-788 204.5,-838"/>
<text text-anchor="middle" x="116" y="-816" font-family="Sans" font-size="10.00">ncm-authconfig: sssd: Schema</text>
<text text-anchor="middle" x="116" y="-805" font-family="Sans" font-size="10.00">improvements</text>
</a>
</g>
</g>
<!-- configuration&#45;modules&#45;core#1471 -->
<g id="node17" class="node"><title>configuration-modules-core#1471</title>
<g id="a_node17"><a xlink:href="https://github.com/quattor/configuration-modules-core/issues/1471" xlink:title="configuration-modules-core#1471 (issue)" target="_parent">
<path fill="#6e5494" stroke="black" d="M499.5,-815C499.5,-815 350.5,-815 350.5,-815 344.5,-815 338.5,-809 338.5,-803 338.5,-803 338.5,-777 338.5,-777 338.5,-771 344.5,-765 350.5,-765 350.5,-765 499.5,-765 499.5,-765 505.5,-765 511.5,-771 511.5,-777 511.5,-777 511.5,-803 511.5,-803 511.5,-809 505.5,-815 499.5,-815"/>
<text text-anchor="middle" x="425" y="-793" font-family="Sans" font-size="10.00">ncm-authconfig: sssd: tighten</text>
<text text-anchor="middle" x="425" y="-782" font-family="Sans" font-size="10.00">types</text>
</a>
</g>
</g>
<!-- configuration&#45;modules&#45;core#1622&#45;&gt;configuration&#45;modules&#45;core#1471 -->
<g id="edge10" class="edge"><title>configuration-modules-core#1622-&gt;configuration-modules-core#1471</title>
<path fill="none" stroke="black" stroke-width="2" d="M204.563,-794.114C243.203,-789.756 288.724,-786.25 328.261,-784.561"/>
<polygon fill="black" stroke="black" points="328.586,-788.051 338.441,-784.162 328.312,-781.056 328.586,-788.051"/>
<text text-anchor="middle" x="259.53" y="-779.923" font-family="Sans" font-size="10.00">fixes</text>
</g>
<!-- configuration&#45;modules&#45;core#1622&#45;&gt;configuration&#45;modules&#45;core#1471 -->
<g id="edge22" class="edge"><title>configuration-modules-core#1622-&gt;configuration-modules-core#1471</title>
<path fill="none" stroke="black" stroke-width="2" d="M204.563,-806.44C243.203,-803.545 288.724,-800.135 328.261,-797.173"/>
<polygon fill="black" stroke="black" points="328.731,-800.647 338.441,-796.41 328.208,-793.667 328.731,-800.647"/>
<text text-anchor="middle" x="259.53" y="-793.423" font-family="Sans" font-size="10.00">fixes</text>
</g>
<!-- configuration&#45;modules&#45;core#1622&#45;&gt;configuration&#45;modules&#45;core#1471 -->
<g id="edge29" class="edge"><title>configuration-modules-core#1622-&gt;configuration-modules-core#1471</title>
<path fill="none" stroke="black" stroke-width="2" d="M204.563,-818.766C243.203,-817.334 288.724,-814.019 328.261,-809.785"/>
<polygon fill="black" stroke="black" points="328.887,-813.237 338.441,-808.658 328.117,-806.279 328.887,-813.237"/>
<text text-anchor="middle" x="259.53" y="-806.923" font-family="Sans" font-size="10.00">fixes</text>
</g>
<!-- configuration&#45;modules&#45;core#1621 -->
<g id="node18" class="node"><title>configuration-modules-core#1621</title>
<g id="a_node18"><a xlink:href="https://github.com/quattor/configuration-modules-core/pull/1621" xlink:title="configuration-modules-core#1621 (pull-request)" target="_parent">
<polygon fill="#6e5494" stroke="black" points="211.5,-770 20.5,-770 20.5,-720 211.5,-720 211.5,-770"/>
<text text-anchor="middle" x="116" y="-748" font-family="Sans" font-size="10.00">ncm-nfs: Allow daemon to reload</text>
<text text-anchor="middle" x="116" y="-737" font-family="Sans" font-size="10.00">to be specified</text>
</a>
</g>
</g>
<!-- configuration&#45;modules&#45;core#1618 -->
<g id="node19" class="node"><title>configuration-modules-core#1618</title>
<g id="a_node19"><a xlink:href="https://github.com/quattor/configuration-modules-core/issues/1618" xlink:title="configuration-modules-core#1618 (issue)" target="_parent">
<path fill="#6e5494" stroke="black" d="M491.5,-747C491.5,-747 358.5,-747 358.5,-747 352.5,-747 346.5,-741 346.5,-735 346.5,-735 346.5,-709 346.5,-709 346.5,-703 352.5,-697 358.5,-697 358.5,-697 491.5,-697 491.5,-697 497.5,-697 503.5,-703 503.5,-709 503.5,-709 503.5,-735 503.5,-735 503.5,-741 497.5,-747 491.5,-747"/>
<text text-anchor="middle" x="425" y="-725" font-family="Sans" font-size="10.00">ncm-nfs: start service nfs-</text>
<text text-anchor="middle" x="425" y="-714" font-family="Sans" font-size="10.00">server instead of nfs</text>
</a>
</g>
</g>
<!-- configuration&#45;modules&#45;core#1621&#45;&gt;configuration&#45;modules&#45;core#1618 -->
<g id="edge11" class="edge"><title>configuration-modules-core#1621-&gt;configuration-modules-core#1618</title>
<path fill="none" stroke="black" stroke-width="2" d="M211.615,-725.336C251.319,-721.054 297.218,-717.695 336.167,-716.244"/>
<polygon fill="black" stroke="black" points="336.555,-719.733 346.433,-715.902 336.321,-712.737 336.555,-719.733"/>
<text text-anchor="middle" x="267.166" y="-711.37" font-family="Sans" font-size="10.00">fixes</text>
</g>
<!-- configuration&#45;modules&#45;core#1621&#45;&gt;configuration&#45;modules&#45;core#1618 -->
<g id="edge23" class="edge"><title>configuration-modules-core#1621-&gt;configuration-modules-core#1618</title>
<path fill="none" stroke="black" stroke-width="2" d="M211.615,-737.912C251.319,-734.937 297.218,-731.498 336.167,-728.58"/>
<polygon fill="black" stroke="black" points="336.722,-732.049 346.433,-727.811 336.199,-725.068 336.722,-732.049"/>
<text text-anchor="middle" x="267.166" y="-724.851" font-family="Sans" font-size="10.00">fixes</text>
</g>
<!-- configuration&#45;modules&#45;core#1621&#45;&gt;configuration&#45;modules&#45;core#1618 -->
<g id="edge30" class="edge"><title>configuration-modules-core#1621-&gt;configuration-modules-core#1618</title>
<path fill="none" stroke="black" stroke-width="2" d="M211.615,-750.487C251.319,-748.82 297.218,-745.302 336.167,-740.916"/>
<polygon fill="black" stroke="black" points="336.905,-744.354 346.433,-739.721 336.095,-737.401 336.905,-744.354"/>
<text text-anchor="middle" x="267.166" y="-738.332" font-family="Sans" font-size="10.00">fixes</text>
</g>
<!-- configuration&#45;modules&#45;core#1620 -->
<g id="node20" class="node"><title>configuration-modules-core#1620</title>
<g id="a_node20"><a xlink:href="https://github.com/quattor/configuration-modules-core/pull/1620" xlink:title="configuration-modules-core#1620 (pull-request)" target="_parent">
<polygon fill="#6e5494" stroke="black" points="215,-702 17,-702 17,-652 215,-652 215,-702"/>
<text text-anchor="middle" x="116" y="-680" font-family="Sans" font-size="10.00">ncm-spma: yumdnf: Don't attempt</text>
<text text-anchor="middle" x="116" y="-669" font-family="Sans" font-size="10.00">to expand groups with repoquery</text>
</a>
</g>
</g>
<!-- configuration&#45;modules&#45;core#1524 -->
<g id="node21" class="node"><title>configuration-modules-core#1524</title>
<g id="a_node21"><a xlink:href="https://github.com/quattor/configuration-modules-core/issues/1524" xlink:title="configuration-modules-core#1524 (issue)" target="_parent">
<path fill="#6e5494" stroke="black" d="M510.5,-679C510.5,-679 339.5,-679 339.5,-679 333.5,-679 327.5,-673 327.5,-667 327.5,-667 327.5,-641 327.5,-641 327.5,-635 333.5,-629 339.5,-629 339.5,-629 510.5,-629 510.5,-629 516.5,-629 522.5,-635 522.5,-641 522.5,-641 522.5,-667 522.5,-667 522.5,-673 516.5,-679 510.5,-679"/>
<text text-anchor="middle" x="425" y="-657" font-family="Sans" font-size="10.00">ncm-spma: yumdnf backend: fails</text>
<text text-anchor="middle" x="425" y="-646" font-family="Sans" font-size="10.00">while trying to expand groups</text>
</a>
</g>
</g>
<!-- configuration&#45;modules&#45;core#1620&#45;&gt;configuration&#45;modules&#45;core#1524 -->
<g id="edge12" class="edge"><title>configuration-modules-core#1620-&gt;configuration-modules-core#1524</title>
<path fill="none" stroke="black" stroke-width="2" d="M215.403,-656.932C247.907,-653.508 284.211,-650.711 317.305,-649.067"/>
<polygon fill="black" stroke="black" points="317.638,-652.556 327.464,-648.595 317.313,-645.563 317.638,-652.556"/>
<text text-anchor="middle" x="259.398" y="-643.933" font-family="Sans" font-size="10.00">fixes</text>
</g>
<!-- configuration&#45;modules&#45;core#1620&#45;&gt;configuration&#45;modules&#45;core#1524 -->
<g id="edge24" class="edge"><title>configuration-modules-core#1620-&gt;configuration-modules-core#1524</title>
<path fill="none" stroke="black" stroke-width="2" d="M215.403,-669.628C247.907,-667.193 284.211,-664.473 317.305,-661.993"/>
<polygon fill="black" stroke="black" points="317.754,-665.47 327.464,-661.232 317.231,-658.489 317.754,-665.47"/>
<text text-anchor="middle" x="259.398" y="-657.433" font-family="Sans" font-size="10.00">fixes</text>
</g>
<!-- configuration&#45;modules&#45;core#1620&#45;&gt;configuration&#45;modules&#45;core#1524 -->
<g id="edge31" class="edge"><title>configuration-modules-core#1620-&gt;configuration-modules-core#1524</title>
<path fill="none" stroke="black" stroke-width="2" d="M215.403,-682.323C247.907,-680.877 284.211,-678.235 317.305,-674.919"/>
<polygon fill="black" stroke="black" points="317.877,-678.379 327.464,-673.87 317.158,-671.416 317.877,-678.379"/>
<text text-anchor="middle" x="259.803" y="-670.902" font-family="Sans" font-size="10.00">fixes</text>
</g>
<!-- configuration&#45;modules&#45;core#1554 -->
<g id="node22" class="node"><title>configuration-modules-core#1554</title>
<g id="a_node22"><a xlink:href="https://github.com/quattor/configuration-modules-core/pull/1554" xlink:title="configuration-modules-core#1554 (pull-request)" target="_parent">
<polygon fill="#6cc644" stroke="black" points="510,-173 340,-173 340,-123 510,-123 510,-173"/>
<text text-anchor="middle" x="425" y="-151" font-family="Sans" font-size="10.00">avoid removing empty list of</text>
<text text-anchor="middle" x="425" y="-140" font-family="Sans" font-size="10.00">packages</text>
</a>
</g>
</g>
<!-- configuration&#45;modules&#45;core#1553 -->
<g id="node23" class="node"><title>configuration-modules-core#1553</title>
<g id="a_node23"><a xlink:href="https://github.com/quattor/configuration-modules-core/issues/1553" xlink:title="configuration-modules-core#1553 (issue)" target="_parent">
<path fill="#6cc644" stroke="black" d="M807.5,-161.5C807.5,-161.5 646.5,-161.5 646.5,-161.5 640.5,-161.5 634.5,-155.5 634.5,-149.5 634.5,-149.5 634.5,-112.5 634.5,-112.5 634.5,-106.5 640.5,-100.5 646.5,-100.5 646.5,-100.5 807.5,-100.5 807.5,-100.5 813.5,-100.5 819.5,-106.5 819.5,-112.5 819.5,-112.5 819.5,-149.5 819.5,-149.5 819.5,-155.5 813.5,-161.5 807.5,-161.5"/>
<text text-anchor="middle" x="727" y="-139.5" font-family="Sans" font-size="10.00">ncm-spma: update_pkgs in yum</text>
<text text-anchor="middle" x="727" y="-128.5" font-family="Sans" font-size="10.00">plugin tries to remove empty</text>
<text text-anchor="middle" x="727" y="-117.5" font-family="Sans" font-size="10.00">list of packages</text>
</a>
</g>
</g>
<!-- configuration&#45;modules&#45;core#1554&#45;&gt;configuration&#45;modules&#45;core#1553 -->
<g id="edge13" class="edge"><title>configuration-modules-core#1554-&gt;configuration-modules-core#1553</title>
<path fill="none" stroke="black" stroke-width="2" d="M510.365,-130.941C545.691,-127.537 587.067,-124.997 624.076,-123.912"/>
<polygon fill="black" stroke="black" points="624.484,-127.403 634.39,-123.645 624.303,-120.405 624.484,-127.403"/>
<text text-anchor="middle" x="560.501" y="-118.202" font-family="Sans" font-size="10.00">fixes</text>
</g>
<!-- configuration&#45;modules&#45;core#1554&#45;&gt;configuration&#45;modules&#45;core#1553 -->
<g id="edge25" class="edge"><title>configuration-modules-core#1554-&gt;configuration-modules-core#1553</title>
<path fill="none" stroke="black" stroke-width="2" d="M510.365,-143.219C545.691,-141.218 587.067,-138.873 624.076,-136.776"/>
<polygon fill="black" stroke="black" points="624.604,-140.251 634.39,-136.191 624.208,-133.263 624.604,-140.251"/>
<text text-anchor="middle" x="560.501" y="-131.698" font-family="Sans" font-size="10.00">fixes</text>
</g>
<!-- configuration&#45;modules&#45;core#1554&#45;&gt;configuration&#45;modules&#45;core#1553 -->
<g id="edge32" class="edge"><title>configuration-modules-core#1554-&gt;configuration-modules-core#1553</title>
<path fill="none" stroke="black" stroke-width="2" d="M510.365,-155.498C545.691,-154.898 587.067,-152.748 624.076,-149.64"/>
<polygon fill="black" stroke="black" points="624.733,-153.095 634.39,-148.738 624.123,-146.122 624.733,-153.095"/>
<text text-anchor="middle" x="560.501" y="-145.195" font-family="Sans" font-size="10.00">fixes</text>
</g>
<!-- configuration&#45;modules&#45;core#1452 -->
<g id="node24" class="node"><title>configuration-modules-core#1452</title>
<g id="a_node24"><a xlink:href="https://github.com/quattor/configuration-modules-core/pull/1452" xlink:title="configuration-modules-core#1452 (pull-request)" target="_parent">
<polygon fill="#6e5494" stroke="black" points="202.5,-634 29.5,-634 29.5,-584 202.5,-584 202.5,-634"/>
<text text-anchor="middle" x="116" y="-612" font-family="Sans" font-size="10.00">ncm-metaconfig: ssh daemon</text>
<text text-anchor="middle" x="116" y="-601" font-family="Sans" font-size="10.00">configuration support</text>
</a>
</g>
</g>
<!-- configuration&#45;modules&#45;core#1377 -->
<g id="node25" class="node"><title>configuration-modules-core#1377</title>
<polygon fill="lightgrey" stroke="black" points="522.5,-567.5 327.5,-567.5 327.5,-528.5 522.5,-528.5 522.5,-567.5"/>
<text text-anchor="middle" x="425" y="-545.5" font-family="Sans" font-size="10.00">configuration-modules-core#1377</text>
</g>
<!-- configuration&#45;modules&#45;core#1452&#45;&gt;configuration&#45;modules&#45;core#1377 -->
<g id="edge14" class="edge"><title>configuration-modules-core#1452-&gt;configuration-modules-core#1377</title>
<path fill="none" stroke="black" stroke-dasharray="1,5" d="M185.515,-583.926C224.288,-574.14 273.626,-563.849 317.353,-556.266"/>
<polygon fill="black" stroke="black" points="327.462,-554.544 318.359,-560.659 322.533,-555.384 317.604,-556.223 317.604,-556.223 317.604,-556.223 322.533,-555.384 316.848,-551.787 327.462,-554.544 327.462,-554.544"/>
<text text-anchor="middle" x="235.494" y="-559.833" font-family="Sans" font-size="10.00">replaces</text>
</g>
<!-- configuration&#45;modules&#45;core#1451 -->
<g id="node26" class="node"><title>configuration-modules-core#1451</title>
<polygon fill="lightgrey" stroke="black" points="522.5,-510.5 327.5,-510.5 327.5,-471.5 522.5,-471.5 522.5,-510.5"/>
<text text-anchor="middle" x="425" y="-488.5" font-family="Sans" font-size="10.00">configuration-modules-core#1451</text>
</g>
<!-- configuration&#45;modules&#45;core#1452&#45;&gt;configuration&#45;modules&#45;core#1451 -->
<g id="edge15" class="edge"><title>configuration-modules-core#1452-&gt;configuration-modules-core#1451</title>
<path fill="none" stroke="black" stroke-dasharray="5,2" d="M144.306,-583.793C181.62,-560.107 251.172,-527.645 317.568,-503.351"/>
<polygon fill="none" stroke="black" points="319.117,-506.513 327.337,-499.828 316.742,-499.929 319.117,-506.513"/>
<text text-anchor="middle" x="213.773" y="-529.517" font-family="Sans" font-size="10.00">requires</text>
</g>
<!-- configuration&#45;modules&#45;core#1452&#45;&gt;configuration&#45;modules&#45;core#1377 -->
<g id="edge26" class="edge"><title>configuration-modules-core#1452-&gt;configuration-modules-core#1377</title>
<path fill="none" stroke="black" stroke-dasharray="1,5" d="M202.517,-592.008C238.103,-584.937 279.798,-576.653 317.354,-569.19"/>
<polygon fill="black" stroke="black" points="327.316,-567.211 318.385,-573.574 322.412,-568.185 317.508,-569.16 317.508,-569.16 317.508,-569.16 322.412,-568.185 316.631,-564.746 327.316,-567.211 327.316,-567.211"/>
<text text-anchor="middle" x="244.165" y="-571.56" font-family="Sans" font-size="10.00">replaces</text>
</g>
<!-- configuration&#45;modules&#45;core#1452&#45;&gt;configuration&#45;modules&#45;core#1451 -->
<g id="edge27" class="edge"><title>configuration-modules-core#1452-&gt;configuration-modules-core#1451</title>
<path fill="none" stroke="black" stroke-dasharray="5,2" d="M169.378,-583.846C210.754,-564.561 270.276,-538.099 324,-519 329.496,-517.046 335.199,-515.139 340.971,-513.298"/>
<polygon fill="none" stroke="black" points="342.213,-516.577 350.723,-510.266 340.134,-509.893 342.213,-516.577"/>
<text text-anchor="middle" x="279.176" y="-536.151" font-family="Sans" font-size="10.00">requires</text>
</g>
<!-- configuration&#45;modules&#45;core#1452&#45;&gt;configuration&#45;modules&#45;core#1377 -->
<g id="edge33" class="edge"><title>configuration-modules-core#1452-&gt;configuration-modules-core#1377</title>
<path fill="none" stroke="black" stroke-dasharray="1,5" d="M202.517,-604.255C255.245,-595.855 321.384,-582.209 367.6,-569.941"/>
<polygon fill="black" stroke="black" points="377.438,-567.265 368.97,-574.232 372.614,-568.577 367.789,-569.889 367.789,-569.889 367.789,-569.889 372.614,-568.577 366.608,-565.547 377.438,-567.265 377.438,-567.265"/>
<text text-anchor="middle" x="311.545" y="-579.914" font-family="Sans" font-size="10.00">replaces</text>
</g>
<!-- configuration&#45;modules&#45;core#1452&#45;&gt;configuration&#45;modules&#45;core#1451 -->
<g id="edge34" class="edge"><title>configuration-modules-core#1452-&gt;configuration-modules-core#1451</title>
<path fill="none" stroke="black" stroke-dasharray="5,2" d="M202.556,-585.232C239.454,-570.086 283.384,-551.439 324,-537 346.525,-528.992 372.544,-521.768 392.395,-514.163"/>
<polygon fill="none" stroke="black" points="393.959,-517.304 401.881,-510.27 391.301,-510.828 393.959,-517.304"/>
<text text-anchor="middle" x="281.358" y="-548.331" font-family="Sans" font-size="10.00">requires</text>
</g>
<!-- configuration&#45;modules&#45;core#1637 -->
<g id="node27" class="node"><title>configuration-modules-core#1637</title>
<g id="a_node27"><a xlink:href="https://github.com/quattor/configuration-modules-core/pull/1637" xlink:title="configuration-modules-core#1637 (pull-request)" target="_parent">
<polygon fill="#6cc644" stroke="black" points="205.5,-1072.5 26.5,-1072.5 26.5,-1011.5 205.5,-1011.5 205.5,-1072.5"/>
<text text-anchor="middle" x="116" y="-1050.5" font-family="Sans" font-size="10.00">ncm-network: set profile-name</text>
<text text-anchor="middle" x="116" y="-1039.5" font-family="Sans" font-size="10.00">and set dhcp to disable for</text>
<text text-anchor="middle" x="116" y="-1028.5" font-family="Sans" font-size="10.00">static config</text>
</a>
</g>
</g>
<!-- configuration&#45;modules&#45;core#16736 -->
<g id="node28" class="node"><title>configuration-modules-core#16736</title>
<polygon fill="lightgrey" stroke="black" points="525.5,-1061.5 324.5,-1061.5 324.5,-1022.5 525.5,-1022.5 525.5,-1061.5"/>
<text text-anchor="middle" x="425" y="-1039.5" font-family="Sans" font-size="10.00">configuration-modules-core#16736</text>
</g>
<!-- configuration&#45;modules&#45;core#1637&#45;&gt;configuration&#45;modules&#45;core#16736 -->
<g id="edge16" class="edge"><title>configuration-modules-core#1637-&gt;configuration-modules-core#16736</title>
<path fill="none" stroke="black" stroke-width="2" d="M205.797,-1035.81C239.564,-1035.19 278.443,-1035.08 313.944,-1035.5"/>
<polygon fill="black" stroke="black" points="314.305,-1039 324.351,-1035.63 314.398,-1032 314.305,-1039"/>
<text text-anchor="middle" x="253.257" y="-1027.25" font-family="Sans" font-size="10.00">fixes</text>
</g>
<!-- configuration&#45;modules&#45;core#1637&#45;&gt;configuration&#45;modules&#45;core#16736 -->
<g id="edge35" class="edge"><title>configuration-modules-core#1637-&gt;configuration-modules-core#16736</title>
<path fill="none" stroke="black" stroke-width="2" d="M205.797,-1048.19C239.564,-1048.81 278.443,-1048.92 313.944,-1048.5"/>
<polygon fill="black" stroke="black" points="314.398,-1052 324.351,-1048.37 314.305,-1045 314.398,-1052"/>
<text text-anchor="middle" x="253.257" y="-1040.75" font-family="Sans" font-size="10.00">fixes</text>
</g>
<!-- configuration&#45;modules&#45;core#1507 -->
<g id="node29" class="node"><title>configuration-modules-core#1507</title>
<g id="a_node29"><a xlink:href="https://github.com/quattor/configuration-modules-core/pull/1507" xlink:title="configuration-modules-core#1507 (pull-request)" target="_parent">
<polygon fill="#6cc644" stroke="black" points="204,-1141 28,-1141 28,-1091 204,-1091 204,-1141"/>
<text text-anchor="middle" x="116" y="-1119" font-family="Sans" font-size="10.00">[WIP] ncm-spma: yumdnf: use</text>
<text text-anchor="middle" x="116" y="-1108" font-family="Sans" font-size="10.00">spmaleaves dnf plugin</text>
</a>
</g>
</g>
<!-- configuration&#45;modules&#45;core#1401 -->
<g id="node30" class="node"><title>configuration-modules-core#1401</title>
<polygon fill="lightgrey" stroke="black" points="522.5,-1135.5 327.5,-1135.5 327.5,-1096.5 522.5,-1096.5 522.5,-1135.5"/>
<text text-anchor="middle" x="425" y="-1113.5" font-family="Sans" font-size="10.00">configuration-modules-core#1401</text>
</g>
<!-- configuration&#45;modules&#45;core#1507&#45;&gt;configuration&#45;modules&#45;core#1401 -->
<g id="edge17" class="edge"><title>configuration-modules-core#1507-&gt;configuration-modules-core#1401</title>
<path fill="none" stroke="black" stroke-dasharray="5,2" d="M204.153,-1109.84C239.315,-1109.17 280.228,-1109.07 317.159,-1109.54"/>
<polygon fill="none" stroke="black" points="317.414,-1113.04 327.462,-1109.68 317.513,-1106.04 317.414,-1113.04"/>
<text text-anchor="middle" x="245.86" y="-1101.25" font-family="Sans" font-size="10.00">requires</text>
</g>
<!-- configuration&#45;modules&#45;core#1507&#45;&gt;configuration&#45;modules&#45;core#1401 -->
<g id="edge36" class="edge"><title>configuration-modules-core#1507-&gt;configuration-modules-core#1401</title>
<path fill="none" stroke="black" stroke-dasharray="5,2" d="M204.153,-1122.16C239.315,-1122.83 280.228,-1122.93 317.159,-1122.46"/>
<polygon fill="none" stroke="black" points="317.513,-1125.96 327.462,-1122.32 317.414,-1118.96 317.513,-1125.96"/>
<text text-anchor="middle" x="245.86" y="-1114.75" font-family="Sans" font-size="10.00">requires</text>
</g>
<!-- configuration&#45;modules&#45;core#1336 -->
<g id="node31" class="node"><title>configuration-modules-core#1336</title>
<g id="a_node31"><a xlink:href="https://github.com/quattor/configuration-modules-core/pull/1336" xlink:title="configuration-modules-core#1336 (pull-request)" target="_parent">
<polygon fill="#6cc644" stroke="black" points="203,-1257.5 29,-1257.5 29,-1196.5 203,-1196.5 203,-1257.5"/>
<text text-anchor="middle" x="116" y="-1235.5" font-family="Sans" font-size="10.00">ncm-network: Add support for</text>
<text text-anchor="middle" x="116" y="-1224.5" font-family="Sans" font-size="10.00">CAF::Service actions after</text>
<text text-anchor="middle" x="116" y="-1213.5" font-family="Sans" font-size="10.00">changes</text>
</a>
</g>
</g>
<!-- configuration&#45;modules&#45;core#1335 -->
<g id="node32" class="node"><title>configuration-modules-core#1335</title>
<g id="a_node32"><a xlink:href="https://github.com/quattor/configuration-modules-core/pull/1335" xlink:title="configuration-modules-core#1335 (pull-request)" target="_parent">
<polygon fill="#6cc644" stroke="black" points="518,-1271.5 332,-1271.5 332,-1210.5 518,-1210.5 518,-1271.5"/>
<text text-anchor="middle" x="425" y="-1249.5" font-family="Sans" font-size="10.00">ncm-metaconfig: Remove</text>
<text text-anchor="middle" x="425" y="-1238.5" font-family="Sans" font-size="10.00">caf_service_action type to allow</text>
<text text-anchor="middle" x="425" y="-1227.5" font-family="Sans" font-size="10.00">reuse</text>
</a>
</g>
</g>
<!-- configuration&#45;modules&#45;core#1336&#45;&gt;configuration&#45;modules&#45;core#1335 -->
<g id="edge18" class="edge"><title>configuration-modules-core#1336-&gt;configuration-modules-core#1335</title>
<path fill="none" stroke="black" stroke-dasharray="5,2" d="M203.334,-1230.94C240.127,-1232.61 283.333,-1234.59 321.714,-1236.34"/>
<polygon fill="none" stroke="black" points="321.731,-1239.84 331.88,-1236.8 322.05,-1232.85 321.731,-1239.84"/>
<text text-anchor="middle" x="247.613" y="-1225.87" font-family="Sans" font-size="10.00">requires</text>
</g>
<!-- configuration&#45;modules&#45;core#1071 -->
<g id="node33" class="node"><title>configuration-modules-core#1071</title>
<polygon fill="lightgrey" stroke="black" points="522.5,-1192.5 327.5,-1192.5 327.5,-1153.5 522.5,-1153.5 522.5,-1192.5"/>
<text text-anchor="middle" x="425" y="-1170.5" font-family="Sans" font-size="10.00">configuration-modules-core#1071</text>
</g>
<!-- configuration&#45;modules&#45;core#1336&#45;&gt;configuration&#45;modules&#45;core#1071 -->
<g id="edge19" class="edge"><title>configuration-modules-core#1336-&gt;configuration-modules-core#1071</title>
<path fill="none" stroke="black" stroke-width="2" d="M203.334,-1211.81C238.743,-1205.59 280.092,-1198.31 317.364,-1191.76"/>
<polygon fill="black" stroke="black" points="318.008,-1195.2 327.251,-1190.02 316.796,-1188.3 318.008,-1195.2"/>
<text text-anchor="middle" x="253.574" y="-1192.87" font-family="Sans" font-size="10.00">fixes</text>
</g>
<!-- configuration&#45;modules&#45;core#1336&#45;&gt;configuration&#45;modules&#45;core#1335 -->
<g id="edge37" class="edge"><title>configuration-modules-core#1336-&gt;configuration-modules-core#1335</title>
<path fill="none" stroke="black" stroke-dasharray="5,2" d="M203.334,-1230.94C240.127,-1232.61 283.333,-1234.59 321.714,-1236.34"/>
<polygon fill="none" stroke="black" points="321.731,-1239.84 331.88,-1236.8 322.05,-1232.85 321.731,-1239.84"/>
<text text-anchor="middle" x="287.613" y="-1225.87" font-family="Sans" font-size="10.00">requires</text>
</g>
<!-- configuration&#45;modules&#45;core#1336&#45;&gt;configuration&#45;modules&#45;core#1071 -->
<g id="edge38" class="edge"><title>configuration-modules-core#1336-&gt;configuration-modules-core#1071</title>
<path fill="none" stroke="black" stroke-width="2" d="M203.334,-1211.81C238.743,-1205.59 280.092,-1198.31 317.364,-1191.76"/>
<polygon fill="black" stroke="black" points="318.008,-1195.2 327.251,-1190.02 316.796,-1188.3 318.008,-1195.2"/>
<text text-anchor="middle" x="277.574" y="-1192.87" font-family="Sans" font-size="10.00">fixes</text>
</g>
<!-- template&#45;library&#45;core#191 -->
<g id="node34" class="node"><title>template-library-core#191</title>
<polygon fill="lightgrey" stroke="black" points="806.5,-1260.5 647.5,-1260.5 647.5,-1221.5 806.5,-1221.5 806.5,-1260.5"/>
<text text-anchor="middle" x="727" y="-1238.5" font-family="Sans" font-size="10.00">template-library-core#191</text>
</g>
<!-- configuration&#45;modules&#45;core#1335&#45;&gt;template&#45;library&#45;core#191 -->
<g id="edge20" class="edge"><title>configuration-modules-core#1335-&gt;template-library-core#191</title>
<path fill="none" stroke="black" stroke-dasharray="5,2" d="M518.049,-1234.72C555.834,-1234.08 599.416,-1234.09 636.891,-1234.77"/>
<polygon fill="none" stroke="black" points="637.221,-1238.28 647.289,-1234.98 637.361,-1231.28 637.221,-1238.28"/>
<text text-anchor="middle" x="562.819" y="-1226.26" font-family="Sans" font-size="10.00">requires</text>
</g>
<!-- configuration&#45;modules&#45;core#1335&#45;&gt;template&#45;library&#45;core#191 -->
<g id="edge39" class="edge"><title>configuration-modules-core#1335-&gt;template-library-core#191</title>
<path fill="none" stroke="black" stroke-dasharray="5,2" d="M518.049,-1247.28C555.834,-1247.92 599.416,-1247.91 636.891,-1247.23"/>
<polygon fill="none" stroke="black" points="637.361,-1250.72 647.289,-1247.02 637.221,-1243.72 637.361,-1250.72"/>
<text text-anchor="middle" x="562.819" y="-1239.74" font-family="Sans" font-size="10.00">requires</text>
</g>
<!-- configuration&#45;modules&#45;core#1148 -->
<g id="node35" class="node"><title>configuration-modules-core#1148</title>
<g id="a_node35"><a xlink:href="https://github.com/quattor/configuration-modules-core/pull/1148" xlink:title="configuration-modules-core#1148 (pull-request)" target="_parent">
<polygon fill="#6cc644" stroke="black" points="215.5,-1348 16.5,-1348 16.5,-1298 215.5,-1298 215.5,-1348"/>
<text text-anchor="middle" x="116" y="-1326" font-family="Sans" font-size="10.00">ncm-spma: Remove support from</text>
<text text-anchor="middle" x="116" y="-1315" font-family="Sans" font-size="10.00">groups from spma yumng backend</text>
</a>
</g>
</g>
<!-- configuration&#45;modules&#45;core#952 -->
<g id="node36" class="node"><title>configuration-modules-core#952</title>
<polygon fill="lightgrey" stroke="black" points="519.5,-1342.5 330.5,-1342.5 330.5,-1303.5 519.5,-1303.5 519.5,-1342.5"/>
<text text-anchor="middle" x="425" y="-1320.5" font-family="Sans" font-size="10.00">configuration-modules-core#952</text>
</g>
<!-- configuration&#45;modules&#45;core#1148&#45;&gt;configuration&#45;modules&#45;core#952 -->
<g id="edge40" class="edge"><title>configuration-modules-core#1148-&gt;configuration-modules-core#952</title>
<path fill="none" stroke="black" stroke-width="2" d="M215.827,-1323C249.106,-1323 286.329,-1323 319.996,-1323"/>
<polygon fill="black" stroke="black" points="320.321,-1326.5 330.321,-1323 320.321,-1319.5 320.321,-1326.5"/>
<text text-anchor="middle" x="261.152" y="-1315" font-family="Sans" font-size="10.00">fixes</text>
</g>
<!-- quattor.github.com#278 -->
<g id="node37" class="node"><title>quattor.github.com#278</title>
<g id="a_node37"><a xlink:href="https://github.com/quattor/quattor.github.com/pull/278" xlink:title="quattor.github.com#278 (pull-request)" target="_parent">
<polygon fill="#6cc644" stroke="black" points="190,-1405.5 42,-1405.5 42,-1366.5 190,-1366.5 190,-1405.5"/>
<text text-anchor="middle" x="116" y="-1383.5" font-family="Sans" font-size="10.00">Update Perl coding style</text>
</a>
</g>
</g>
<!-- quattor.github.com#215 -->
<g id="node38" class="node"><title>quattor.github.com#215</title>
<g id="a_node38"><a xlink:href="https://github.com/quattor/quattor.github.com/issues/215" xlink:title="quattor.github.com#215 (issue)" target="_parent">
<path fill="#6cc644" stroke="black" d="M486,-1405.5C486,-1405.5 364,-1405.5 364,-1405.5 358,-1405.5 352,-1399.5 352,-1393.5 352,-1393.5 352,-1378.5 352,-1378.5 352,-1372.5 358,-1366.5 364,-1366.5 364,-1366.5 486,-1366.5 486,-1366.5 492,-1366.5 498,-1372.5 498,-1378.5 498,-1378.5 498,-1393.5 498,-1393.5 498,-1399.5 492,-1405.5 486,-1405.5"/>
<text text-anchor="middle" x="425" y="-1383.5" font-family="Sans" font-size="10.00">Update coding style doc</text>
</a>
</g>
</g>
<!-- quattor.github.com#278&#45;&gt;quattor.github.com#215 -->
<g id="edge41" class="edge"><title>quattor.github.com#278-&gt;quattor.github.com#215</title>
<path fill="none" stroke="black" stroke-width="2" d="M190.144,-1386C235.747,-1386 294.528,-1386 341.748,-1386"/>
<polygon fill="black" stroke="black" points="341.946,-1389.5 351.946,-1386 341.946,-1382.5 341.946,-1389.5"/>
<text text-anchor="middle" x="258.889" y="-1378" font-family="Sans" font-size="10.00">fixes</text>
</g>
<!-- template&#45;library&#45;grid#232 -->
<g id="node39" class="node"><title>template-library-grid#232</title>
<g id="a_node39"><a xlink:href="https://github.com/quattor/template-library-grid/pull/232" xlink:title="template-library-grid#232 (pull-request)" target="_parent">
<polygon fill="#6cc644" stroke="black" points="199.5,-1474 32.5,-1474 32.5,-1424 199.5,-1424 199.5,-1474"/>
<text text-anchor="middle" x="116" y="-1452" font-family="Sans" font-size="10.00">arc-ce: Export arc-ce feature</text>
<text text-anchor="middle" x="116" y="-1441" font-family="Sans" font-size="10.00">from aquilon at RAL</text>
</a>
</g>
</g>
<!-- template&#45;library&#45;grid#221 -->
<g id="node40" class="node"><title>template-library-grid#221</title>
<g id="a_node40"><a xlink:href="https://github.com/quattor/template-library-grid/issues/221" xlink:title="template-library-grid#221 (issue)" target="_parent">
<path fill="#6cc644" stroke="black" d="M502,-1474C502,-1474 348,-1474 348,-1474 342,-1474 336,-1468 336,-1462 336,-1462 336,-1436 336,-1436 336,-1430 342,-1424 348,-1424 348,-1424 502,-1424 502,-1424 508,-1424 514,-1430 514,-1436 514,-1436 514,-1462 514,-1462 514,-1468 508,-1474 502,-1474"/>
<text text-anchor="middle" x="425" y="-1452" font-family="Sans" font-size="10.00">Support for new CE types (ARC</text>
<text text-anchor="middle" x="425" y="-1441" font-family="Sans" font-size="10.00">CE, HTCONDOR CE)</text>
</a>
</g>
</g>
<!-- template&#45;library&#45;grid#232&#45;&gt;template&#45;library&#45;grid#221 -->
<g id="edge42" class="edge"><title>template-library-grid#232-&gt;template-library-grid#221</title>
<path fill="none" stroke="black" stroke-width="2" d="M199.674,-1449C238.476,-1449 285.011,-1449 325.614,-1449"/>
<polygon fill="black" stroke="black" points="325.8,-1452.5 335.8,-1449 325.8,-1445.5 325.8,-1452.5"/>
<text text-anchor="middle" x="255.531" y="-1441" font-family="Sans" font-size="10.00">fixes</text>
</g>
</g>
</svg>
