<?xml version="1.0" encoding="UTF-8" standalone="no"?>
<?xml-stylesheet href="relationships.css" type="text/css"?>
<!-- Generated by graphviz version 2.26.0 (20091210.2329)
 -->
<!-- Title: Dependencies Pages: 1 -->
<svg xmlns="http://www.w3.org/2000/svg" xmlns:xlink="http://www.w3.org/1999/xlink" width="822pt" height="2166pt" viewBox="0.00 0.00 822.00 2166.00">
<g id="graph1" class="graph" transform="scale(1 1) rotate(0) translate(4 2162)">
<title>Dependencies</title>
<polygon fill="white" stroke="white" points="-4,5 -4,-2162 819,-2162 819,5 -4,5"/>
<g id="graph2" class="cluster"><title>cluster_milestone_20.12</title>
<polygon fill="none" stroke="black" points="42,-922 42,-1132 536,-1132 536,-922 42,-922"/>
<text text-anchor="middle" x="289" y="-1117.2" font-family="Sans" font-size="12.00">20.12</text>
</g>
<g id="graph3" class="cluster"><title>cluster_milestone_20.3</title>
<polygon fill="none" stroke="black" points="24,-1204 24,-1630 806,-1630 806,-1204 24,-1204"/>
<text text-anchor="middle" x="415" y="-1615.2" font-family="Sans" font-size="12.00">20.3</text>
</g>
<g id="graph4" class="cluster"><title>cluster_milestone_20.4</title>
<polygon fill="none" stroke="black" points="24,-396 24,-850 789,-850 789,-396 24,-396"/>
<text text-anchor="middle" x="406.5" y="-835.2" font-family="Sans" font-size="12.00">20.4</text>
</g>
<g id="graph5" class="cluster"><title>cluster_repo_aquilon</title>
<polygon fill="none" stroke="black" points="57,-1818 57,-2150 497,-2150 497,-1818 57,-1818"/>
<text text-anchor="middle" x="277" y="-2135.2" font-family="Sans" font-size="12.00">aquilon</text>
</g>
<!-- aii#316 -->
<g id="node1" class="node"><title>aii#316</title>
<a xlink:href="https://github.com/quattor/aii/pull/316" xlink:title="aii-ks: generate kickstart repo entries based on SPMA configuration" target="_parent">
<polygon fill="#6cc644" stroke="black" points="157,-674 79,-674 79,-620 157,-620 157,-674"/>
<text text-anchor="middle" x="118" y="-651" font-family="Sans" font-size="10.00">pull-request</text>
<text text-anchor="middle" x="118" y="-638" font-family="Sans" font-size="10.00">aii#316</text>
</a>
</g>
<!-- aii#314 -->
<g id="node3" class="node"><title>aii#314</title>
<polygon fill="lightgrey" stroke="black" points="461,-388.5 403,-388.5 403,-347.5 461,-347.5 461,-388.5"/>
<text text-anchor="middle" x="432" y="-365.5" font-family="Sans" font-size="10.00">aii#314</text>
</g>
<!-- aii#316&#45;&gt;aii#314 -->
<g id="edge2" class="edge"><title>aii#316-&gt;aii#314</title>
<path fill="none" stroke="black" stroke-dasharray="5,2" d="M157.64,-644.641C183.349,-641.024 215.717,-632.204 236,-611 258.204,-587.787 244.335,-571.635 254,-541 275.285,-473.533 256.018,-437.725 310,-392 332.584,-372.87 365.973,-367.347 392.114,-366.343"/>
<polygon fill="none" stroke="black" points="392.522,-369.837 402.459,-366.162 392.399,-362.838 392.522,-369.837"/>
<text text-anchor="middle" x="273" y="-545" font-family="Sans" font-size="10.00">requires</text>
</g>
<!-- aii#315 -->
<g id="node5" class="node"><title>aii#315</title>
<polygon fill="lightgrey" stroke="black" points="461,-330.5 403,-330.5 403,-289.5 461,-289.5 461,-330.5"/>
<text text-anchor="middle" x="432" y="-307.5" font-family="Sans" font-size="10.00">aii#315</text>
</g>
<!-- aii#316&#45;&gt;aii#315 -->
<g id="edge4" class="edge"><title>aii#316-&gt;aii#315</title>
<path fill="none" stroke="black" stroke-dasharray="5,2" d="M157.701,-645.836C184.128,-642.795 217.31,-634.173 236,-611 266.378,-573.336 233.452,-437.808 254,-394 268.814,-362.416 279.467,-355.874 310,-339 335.342,-324.994 367.282,-317.714 392.123,-313.951"/>
<polygon fill="none" stroke="black" points="392.869,-317.381 402.295,-312.545 391.91,-310.447 392.869,-317.381"/>
<text text-anchor="middle" x="273" y="-398" font-family="Sans" font-size="10.00">requires</text>
</g>
<!-- aii#299 -->
<g id="node6" class="node"><title>aii#299</title>
<a xlink:href="https://github.com/quattor/aii/pull/299" xlink:title="aii-dhcp: support optional hostname ip verification" target="_parent">
<polygon fill="#6cc644" stroke="black" points="157,-818 79,-818 79,-764 157,-764 157,-818"/>
<text text-anchor="middle" x="118" y="-795" font-family="Sans" font-size="10.00">pull-request</text>
<text text-anchor="middle" x="118" y="-782" font-family="Sans" font-size="10.00">aii#299</text>
</a>
</g>
<!-- aii#296 -->
<g id="node8" class="node"><title>aii#296</title>
<a xlink:href="https://github.com/quattor/aii/pull/296" xlink:title="DHCP plugin updates" target="_parent">
<polygon fill="#6cc644" stroke="black" points="471,-818 393,-818 393,-764 471,-764 471,-818"/>
<text text-anchor="middle" x="432" y="-795" font-family="Sans" font-size="10.00">pull-request</text>
<text text-anchor="middle" x="432" y="-782" font-family="Sans" font-size="10.00">aii#296</text>
</a>
</g>
<!-- aii#299&#45;&gt;aii#296 -->
<g id="edge6" class="edge"><title>aii#299-&gt;aii#296</title>
<path fill="none" stroke="black" stroke-dasharray="5,2" d="M157.571,-789.897C184.705,-789.197 221.529,-788.358 254,-788 297.318,-787.522 346.561,-788.467 382.256,-789.42"/>
<polygon fill="none" stroke="black" points="382.318,-792.923 392.411,-789.701 382.512,-785.925 382.318,-792.923"/>
<text text-anchor="middle" x="273" y="-792" font-family="Sans" font-size="10.00">requires</text>
</g>
<!-- aii#280 -->
<g id="node9" class="node"><title>aii#280</title>
<a xlink:href="https://github.com/quattor/aii/pull/280" xlink:title="Support active configuration attribute for plugins" target="_parent">
<polygon fill="#6cc644" stroke="black" points="157,-602 79,-602 79,-548 157,-548 157,-602"/>
<text text-anchor="middle" x="118" y="-579" font-family="Sans" font-size="10.00">pull-request</text>
<text text-anchor="middle" x="118" y="-566" font-family="Sans" font-size="10.00">aii#280</text>
</a>
</g>
<!-- aii#209 -->
<g id="node11" class="node"><title>aii#209</title>
<a xlink:href="https://github.com/quattor/aii/issues/209" xlink:title="support ACTIVE_CONFIG" target="_parent">
<ellipse fill="#6cc644" stroke="black" cx="432" cy="-542" rx="41.2167" ry="38.1838"/>
<text text-anchor="middle" x="432" y="-546" font-family="Sans" font-size="10.00">issue</text>
<text text-anchor="middle" x="432" y="-533" font-family="Sans" font-size="10.00">aii#209</text>
</a>
</g>
<!-- aii#280&#45;&gt;aii#209 -->
<g id="edge8" class="edge"><title>aii#280-&gt;aii#209</title>
<path fill="none" stroke="black" stroke-width="2" d="M157.768,-570.821C214.357,-564.873 318.155,-553.965 380.542,-547.408"/>
<polygon fill="black" stroke="black" points="380.982,-550.881 390.561,-546.355 380.25,-543.919 380.982,-550.881"/>
<text text-anchor="middle" x="273" y="-565" font-family="Sans" font-size="10.00">fixes</text>
</g>
<!-- ncm&#45;ncd#74 -->
<g id="node13" class="node"><title>ncm-ncd#74</title>
<polygon fill="lightgrey" stroke="black" points="473,-272.5 391,-272.5 391,-231.5 473,-231.5 473,-272.5"/>
<text text-anchor="middle" x="432" y="-249.5" font-family="Sans" font-size="10.00">ncm-ncd#74</text>
</g>
<!-- aii#280&#45;&gt;ncm&#45;ncd#74 -->
<g id="edge10" class="edge"><title>aii#280-&gt;ncm-ncd#74</title>
<path fill="none" stroke="black" stroke-dasharray="5,2" d="M157.523,-573.954C184.045,-570.982 217.414,-562.394 236,-539 272.579,-492.959 213.695,-317.817 254,-275 285.699,-241.325 340.474,-238.967 380.912,-242.931"/>
<polygon fill="none" stroke="black" points="380.53,-246.41 390.861,-244.06 381.32,-239.455 380.53,-246.41"/>
<text text-anchor="middle" x="273" y="-279" font-family="Sans" font-size="10.00">requires</text>
</g>
<!-- aii#203 -->
<g id="node15" class="node"><title>aii#203</title>
<polygon fill="lightgrey" stroke="black" points="461,-214.5 403,-214.5 403,-173.5 461,-173.5 461,-214.5"/>
<text text-anchor="middle" x="432" y="-191.5" font-family="Sans" font-size="10.00">aii#203</text>
</g>
<!-- aii#280&#45;&gt;aii#203 -->
<g id="edge12" class="edge"><title>aii#280-&gt;aii#203</title>
<path fill="none" stroke="black" stroke-dasharray="5,2" d="M157.588,-574.005C184.14,-571.057 217.518,-562.477 236,-539 277.86,-485.826 210.312,-286.682 254,-235 287.5,-195.371 350.898,-189.652 392.287,-190.684"/>
<polygon fill="none" stroke="black" points="392.175,-194.182 402.304,-191.075 392.448,-187.187 392.175,-194.182"/>
<text text-anchor="middle" x="273" y="-239" font-family="Sans" font-size="10.00">requires</text>
</g>
<!-- aii#210 -->
<g id="node17" class="node"><title>aii#210</title>
<polygon fill="lightgrey" stroke="black" points="461,-156.5 403,-156.5 403,-115.5 461,-115.5 461,-156.5"/>
<text text-anchor="middle" x="432" y="-133.5" font-family="Sans" font-size="10.00">aii#210</text>
</g>
<!-- aii#280&#45;&gt;aii#210 -->
<g id="edge14" class="edge"><title>aii#280-&gt;aii#210</title>
<path fill="none" stroke="black" stroke-dasharray="1,5" d="M157.641,-574.047C184.218,-571.119 217.604,-562.544 236,-539 283.54,-478.155 211.254,-256.303 254,-192 283.74,-147.262 349.639,-136.986 392.374,-135.297"/>
<polygon fill="black" stroke="black" points="402.439,-135.04 392.557,-139.794 397.44,-135.168 392.442,-135.295 392.442,-135.295 392.442,-135.295 397.44,-135.168 392.327,-130.797 402.439,-135.04 402.439,-135.04"/>
<text text-anchor="middle" x="273" y="-196" font-family="Sans" font-size="10.00">replaces</text>
</g>
<!-- aii#325 -->
<g id="node18" class="node"><title>aii#325</title>
<a xlink:href="https://github.com/quattor/aii/pull/325" xlink:title="Use wipefs for RHEL6+" target="_parent">
<polygon fill="#6cc644" stroke="black" points="157,-912 79,-912 79,-858 157,-858 157,-912"/>
<text text-anchor="middle" x="118" y="-889" font-family="Sans" font-size="10.00">pull-request</text>
<text text-anchor="middle" x="118" y="-876" font-family="Sans" font-size="10.00">aii#325</text>
</a>
</g>
<!-- ncm&#45;lib&#45;blockdevices#93 -->
<g id="node20" class="node"><title>ncm-lib-blockdevices#93</title>
<a xlink:href="https://github.com/quattor/ncm-lib-blockdevices/pull/93" xlink:title="Accumulated changes" target="_parent">
<polygon fill="#6cc644" stroke="black" points="500,-912 364,-912 364,-858 500,-858 500,-912"/>
<text text-anchor="middle" x="432" y="-889" font-family="Sans" font-size="10.00">pull-request</text>
<text text-anchor="middle" x="432" y="-876" font-family="Sans" font-size="10.00">ncm-lib-blockdevices#93</text>
</a>
</g>
<!-- aii#325&#45;&gt;ncm&#45;lib&#45;blockdevices#93 -->
<g id="edge16" class="edge"><title>aii#325-&gt;ncm-lib-blockdevices#93</title>
<path fill="none" stroke="black" stroke-dasharray="5,2" d="M157.768,-885C206.854,-885 291.459,-885 353.748,-885"/>
<polygon fill="none" stroke="black" points="353.933,-888.5 363.933,-885 353.933,-881.5 353.933,-888.5"/>
<text text-anchor="middle" x="273" y="-889" font-family="Sans" font-size="10.00">requires</text>
</g>
<!-- CAF#257 -->
<g id="node21" class="node"><title>CAF#257</title>
<a xlink:href="https://github.com/quattor/CAF/pull/257" xlink:title="Process: run process as another user" target="_parent">
<polygon fill="#6cc644" stroke="black" points="157,-1089 79,-1089 79,-1035 157,-1035 157,-1089"/>
<text text-anchor="middle" x="118" y="-1066" font-family="Sans" font-size="10.00">pull-request</text>
<text text-anchor="middle" x="118" y="-1053" font-family="Sans" font-size="10.00">CAF#257</text>
</a>
</g>
<!-- CAF#253 -->
<g id="node23" class="node"><title>CAF#253</title>
<a xlink:href="https://github.com/quattor/CAF/issues/253" xlink:title="CAF::Process: Include an option to execute the command as an specific user" target="_parent">
<ellipse fill="#6cc644" stroke="black" cx="432" cy="-1062" rx="48.9975" ry="38.1838"/>
<text text-anchor="middle" x="432" y="-1066" font-family="Sans" font-size="10.00">issue</text>
<text text-anchor="middle" x="432" y="-1053" font-family="Sans" font-size="10.00">CAF#253</text>
</a>
</g>
<!-- CAF#257&#45;&gt;CAF#253 -->
<g id="edge18" class="edge"><title>CAF#257-&gt;CAF#253</title>
<path fill="none" stroke="black" stroke-width="2" d="M157.571,-1060.9C184.705,-1060.2 221.529,-1059.36 254,-1059 293.351,-1058.57 337.592,-1059.31 372.123,-1060.16"/>
<polygon fill="black" stroke="black" points="372.425,-1063.67 382.512,-1060.43 372.605,-1056.67 372.425,-1063.67"/>
<text text-anchor="middle" x="273" y="-1063" font-family="Sans" font-size="10.00">fixes</text>
</g>
<!-- CAF#110 -->
<g id="node24" class="node"><title>CAF#110</title>
<a xlink:href="https://github.com/quattor/CAF/pull/110" xlink:title="CAF::Download class: API proposal" target="_parent">
<polygon fill="#6cc644" stroke="black" points="157,-1194 79,-1194 79,-1140 157,-1140 157,-1194"/>
<text text-anchor="middle" x="118" y="-1171" font-family="Sans" font-size="10.00">pull-request</text>
<text text-anchor="middle" x="118" y="-1158" font-family="Sans" font-size="10.00">CAF#110</text>
</a>
</g>
<!-- CAF#120 -->
<g id="node26" class="node"><title>CAF#120</title>
<polygon fill="lightgrey" stroke="black" points="467,-1187.5 397,-1187.5 397,-1146.5 467,-1146.5 467,-1187.5"/>
<text text-anchor="middle" x="432" y="-1164.5" font-family="Sans" font-size="10.00">CAF#120</text>
</g>
<!-- CAF#110&#45;&gt;CAF#120 -->
<g id="edge20" class="edge"><title>CAF#110-&gt;CAF#120</title>
<path fill="none" stroke="black" stroke-dasharray="5,2" d="M157.768,-1167C216.269,-1167 325.221,-1167 386.719,-1167"/>
<polygon fill="none" stroke="black" points="386.897,-1170.5 396.897,-1167 386.897,-1163.5 386.897,-1170.5"/>
<text text-anchor="middle" x="273" y="-1171" font-family="Sans" font-size="10.00">requires</text>
</g>
<!-- configuration&#45;modules&#45;core#1431 -->
<g id="node27" class="node"><title>configuration-modules-core#1431</title>
<a xlink:href="https://github.com/quattor/configuration-modules-core/pull/1431" xlink:title="ncm-cron: Provide schema validation to match the component code" target="_parent">
<polygon fill="#6cc644" stroke="black" points="204,-1587 32,-1587 32,-1533 204,-1533 204,-1587"/>
<text text-anchor="middle" x="118" y="-1564" font-family="Sans" font-size="10.00">pull-request</text>
<text text-anchor="middle" x="118" y="-1551" font-family="Sans" font-size="10.00">configuration-modules-core#1431</text>
</a>
</g>
<!-- configuration&#45;modules&#45;core#1429 -->
<g id="node29" class="node"><title>configuration-modules-core#1429</title>
<a xlink:href="https://github.com/quattor/configuration-modules-core/issues/1429" xlink:title="ncm-cron: Minutes field should not be optional if smear is used" target="_parent">
<ellipse fill="#6cc644" stroke="black" cx="432" cy="-1560" rx="121.122" ry="38.1838"/>
<text text-anchor="middle" x="432" y="-1564" font-family="Sans" font-size="10.00">issue</text>
<text text-anchor="middle" x="432" y="-1551" font-family="Sans" font-size="10.00">configuration-modules-core#1429</text>
</a>
</g>
<!-- configuration&#45;modules&#45;core#1431&#45;&gt;configuration&#45;modules&#45;core#1429 -->
<g id="edge22" class="edge"><title>configuration-modules-core#1431-&gt;configuration-modules-core#1429</title>
<path fill="none" stroke="black" stroke-width="2" d="M204.329,-1557.81C220.818,-1557.47 237.942,-1557.18 254,-1557 268.958,-1556.84 284.622,-1556.84 300.191,-1556.96"/>
<polygon fill="black" stroke="black" points="300.368,-1560.46 310.399,-1557.05 300.431,-1553.46 300.368,-1560.46"/>
<text text-anchor="middle" x="273" y="-1561" font-family="Sans" font-size="10.00">fixes</text>
</g>
<!-- configuration&#45;modules&#45;core#1417 -->
<g id="node30" class="node"><title>configuration-modules-core#1417</title>
<a xlink:href="https://github.com/quattor/configuration-modules-core/pull/1417" xlink:title="ncm-puppet: Document string quoting behaviour" target="_parent">
<polygon fill="#6e5494" stroke="black" points="204,-1493 32,-1493 32,-1439 204,-1439 204,-1493"/>
<text text-anchor="middle" x="118" y="-1470" font-family="Sans" font-size="10.00">pull-request</text>
<text text-anchor="middle" x="118" y="-1457" font-family="Sans" font-size="10.00">configuration-modules-core#1417</text>
</a>
</g>
<!-- configuration&#45;modules&#45;core#1416 -->
<g id="node32" class="node"><title>configuration-modules-core#1416</title>
<a xlink:href="https://github.com/quattor/configuration-modules-core/issues/1416" xlink:title="ncm-puppet: document behaviour when quoting strings" target="_parent">
<ellipse fill="#bd2c00" stroke="black" cx="432" cy="-1466" rx="121.122" ry="38.1838"/>
<text text-anchor="middle" x="432" y="-1470" font-family="Sans" font-size="10.00">issue</text>
<text text-anchor="middle" x="432" y="-1457" font-family="Sans" font-size="10.00">configuration-modules-core#1416</text>
</a>
</g>
<!-- configuration&#45;modules&#45;core#1417&#45;&gt;configuration&#45;modules&#45;core#1416 -->
<g id="edge24" class="edge"><title>configuration-modules-core#1417-&gt;configuration-modules-core#1416</title>
<path fill="none" stroke="black" stroke-width="2" d="M204.217,-1466C233.916,-1466 267.888,-1466 300.372,-1466"/>
<polygon fill="black" stroke="black" points="300.399,-1469.5 310.399,-1466 300.399,-1462.5 300.399,-1469.5"/>
<text text-anchor="middle" x="273" y="-1470" font-family="Sans" font-size="10.00">fixes</text>
</g>
<!-- configuration&#45;modules&#45;core#1402 -->
<g id="node33" class="node"><title>configuration-modules-core#1402</title>
<a xlink:href="https://github.com/quattor/configuration-modules-core/pull/1402" xlink:title="ncm-network: always enable the network service" target="_parent">
<polygon fill="#6cc644" stroke="black" points="204,-1410 32,-1410 32,-1356 204,-1356 204,-1410"/>
<text text-anchor="middle" x="118" y="-1387" font-family="Sans" font-size="10.00">pull-request</text>
<text text-anchor="middle" x="118" y="-1374" font-family="Sans" font-size="10.00">configuration-modules-core#1402</text>
</a>
</g>
<!-- configuration&#45;modules&#45;core#1372 -->
<g id="node35" class="node"><title>configuration-modules-core#1372</title>
<a xlink:href="https://github.com/quattor/configuration-modules-core/pull/1372" xlink:title="ncm-network: support ethtool channels" target="_parent">
<polygon fill="#6e5494" stroke="black" points="518,-1410 346,-1410 346,-1356 518,-1356 518,-1410"/>
<text text-anchor="middle" x="432" y="-1387" font-family="Sans" font-size="10.00">pull-request</text>
<text text-anchor="middle" x="432" y="-1374" font-family="Sans" font-size="10.00">configuration-modules-core#1372</text>
</a>
</g>
<!-- configuration&#45;modules&#45;core#1402&#45;&gt;configuration&#45;modules&#45;core#1372 -->
<g id="edge26" class="edge"><title>configuration-modules-core#1402-&gt;configuration-modules-core#1372</title>
<path fill="none" stroke="black" stroke-dasharray="5,2" d="M204.217,-1383C244.975,-1383 293.781,-1383 335.743,-1383"/>
<polygon fill="none" stroke="black" points="335.975,-1386.5 345.975,-1383 335.975,-1379.5 335.975,-1386.5"/>
<text text-anchor="middle" x="273" y="-1387" font-family="Sans" font-size="10.00">requires</text>
</g>
<!-- configuration&#45;modules&#45;core#1322 -->
<g id="node43" class="node"><title>configuration-modules-core#1322</title>
<a xlink:href="https://github.com/quattor/configuration-modules-core/pull/1322" xlink:title="ncm-network: support rules and routes using routing tables" target="_parent">
<polygon fill="#6e5494" stroke="black" points="798,-1410 626,-1410 626,-1356 798,-1356 798,-1410"/>
<text text-anchor="middle" x="712" y="-1387" font-family="Sans" font-size="10.00">pull-request</text>
<text text-anchor="middle" x="712" y="-1374" font-family="Sans" font-size="10.00">configuration-modules-core#1322</text>
</a>
</g>
<!-- configuration&#45;modules&#45;core#1372&#45;&gt;configuration&#45;modules&#45;core#1322 -->
<g id="edge32" class="edge"><title>configuration-modules-core#1372-&gt;configuration-modules-core#1322</title>
<path fill="none" stroke="black" stroke-dasharray="5,2" d="M518.294,-1383C549.177,-1383 584.171,-1383 615.836,-1383"/>
<polygon fill="none" stroke="black" points="615.991,-1386.5 625.991,-1383 615.991,-1379.5 615.991,-1386.5"/>
<text text-anchor="middle" x="590" y="-1387" font-family="Sans" font-size="10.00">requires</text>
</g>
<!-- configuration&#45;modules&#45;core#1401 -->
<g id="node36" class="node"><title>configuration-modules-core#1401</title>
<a xlink:href="https://github.com/quattor/configuration-modules-core/pull/1401" xlink:title="ncm-spma: yumdnf: initial dnf/yum4 based on yum" target="_parent">
<polygon fill="#6cc644" stroke="black" points="204,-530 32,-530 32,-476 204,-476 204,-530"/>
<text text-anchor="middle" x="118" y="-507" font-family="Sans" font-size="10.00">pull-request</text>
<text text-anchor="middle" x="118" y="-494" font-family="Sans" font-size="10.00">configuration-modules-core#1401</text>
</a>
</g>
<!-- configuration&#45;modules&#45;core#1405 -->
<g id="node38" class="node"><title>configuration-modules-core#1405</title>
<polygon fill="lightgrey" stroke="black" points="518,-98.5 346,-98.5 346,-57.5 518,-57.5 518,-98.5"/>
<text text-anchor="middle" x="432" y="-75.5" font-family="Sans" font-size="10.00">configuration-modules-core#1405</text>
</g>
<!-- configuration&#45;modules&#45;core#1401&#45;&gt;configuration&#45;modules&#45;core#1405 -->
<g id="edge28" class="edge"><title>configuration-modules-core#1401-&gt;configuration-modules-core#1405</title>
<path fill="none" stroke="black" stroke-dasharray="5,2" d="M204.232,-490.488C216.529,-485.109 227.772,-477.559 236,-467 261.025,-434.883 226.374,-130.91 254,-101 274.609,-78.6868 305.332,-70.0316 335.479,-67.8684"/>
<polygon fill="none" stroke="black" points="335.847,-71.3547 345.665,-67.3733 335.507,-64.363 335.847,-71.3547"/>
<text text-anchor="middle" x="273" y="-105" font-family="Sans" font-size="10.00">requires</text>
</g>
<!-- configuration&#45;modules&#45;core#1394 -->
<g id="node39" class="node"><title>configuration-modules-core#1394</title>
<a xlink:href="https://github.com/quattor/configuration-modules-core/pull/1394" xlink:title="ncm-metaconfig generic templates" target="_parent">
<polygon fill="#6e5494" stroke="black" points="204,-1338 32,-1338 32,-1284 204,-1284 204,-1338"/>
<text text-anchor="middle" x="118" y="-1315" font-family="Sans" font-size="10.00">pull-request</text>
<text text-anchor="middle" x="118" y="-1302" font-family="Sans" font-size="10.00">configuration-modules-core#1394</text>
</a>
</g>
<!-- configuration&#45;modules&#45;core#1387 -->
<g id="node41" class="node"><title>configuration-modules-core#1387</title>
<a xlink:href="https://github.com/quattor/configuration-modules-core/pull/1387" xlink:title="ncm-metaconfig: the content should not only be a dict" target="_parent">
<polygon fill="#6e5494" stroke="black" points="518,-1338 346,-1338 346,-1284 518,-1284 518,-1338"/>
<text text-anchor="middle" x="432" y="-1315" font-family="Sans" font-size="10.00">pull-request</text>
<text text-anchor="middle" x="432" y="-1302" font-family="Sans" font-size="10.00">configuration-modules-core#1387</text>
</a>
</g>
<!-- configuration&#45;modules&#45;core#1394&#45;&gt;configuration&#45;modules&#45;core#1387 -->
<g id="edge30" class="edge"><title>configuration-modules-core#1394-&gt;configuration-modules-core#1387</title>
<path fill="none" stroke="black" stroke-dasharray="5,2" d="M204.217,-1311C244.975,-1311 293.781,-1311 335.743,-1311"/>
<polygon fill="none" stroke="black" points="335.975,-1314.5 345.975,-1311 335.975,-1307.5 335.975,-1314.5"/>
<text text-anchor="middle" x="273" y="-1315" font-family="Sans" font-size="10.00">requires</text>
</g>
<!-- configuration&#45;modules&#45;core#1341 -->
<g id="node44" class="node"><title>configuration-modules-core#1341</title>
<a xlink:href="https://github.com/quattor/configuration-modules-core/pull/1341" xlink:title="ncm-metaconfig: switch to CAF::ServiceActions" target="_parent">
<polygon fill="#6cc644" stroke="black" points="204,-458 32,-458 32,-404 204,-404 204,-458"/>
<text text-anchor="middle" x="118" y="-435" font-family="Sans" font-size="10.00">pull-request</text>
<text text-anchor="middle" x="118" y="-422" font-family="Sans" font-size="10.00">configuration-modules-core#1341</text>
</a>
</g>
<!-- CAF#267 -->
<g id="node46" class="node"><title>CAF#267</title>
<polygon fill="lightgrey" stroke="black" points="467,-40.5 397,-40.5 397,0.5 467,0.5 467,-40.5"/>
<text text-anchor="middle" x="432" y="-17.5" font-family="Sans" font-size="10.00">CAF#267</text>
</g>
<!-- configuration&#45;modules&#45;core#1341&#45;&gt;CAF#267 -->
<g id="edge34" class="edge"><title>configuration-modules-core#1341-&gt;CAF#267</title>
<path fill="none" stroke="black" stroke-dasharray="5,2" d="M123.645,-403.929C140.913,-323.804 195.427,-90.4709 254,-43 291,-13.0137 347.268,-10.6349 386.608,-13.5868"/>
<polygon fill="none" stroke="black" points="386.451,-17.0867 396.723,-14.49 387.074,-10.1144 386.451,-17.0867"/>
<text text-anchor="middle" x="273" y="-47" font-family="Sans" font-size="10.00">requires</text>
</g>
<!-- configuration&#45;modules&#45;core#1336 -->
<g id="node47" class="node"><title>configuration-modules-core#1336</title>
<a xlink:href="https://github.com/quattor/configuration-modules-core/pull/1336" xlink:title="ncm-network: Add support for CAF::Service actions after changes" target="_parent">
<polygon fill="#6cc644" stroke="black" points="204,-746 32,-746 32,-692 204,-692 204,-746"/>
<text text-anchor="middle" x="118" y="-723" font-family="Sans" font-size="10.00">pull-request</text>
<text text-anchor="middle" x="118" y="-710" font-family="Sans" font-size="10.00">configuration-modules-core#1336</text>
</a>
</g>
<!-- configuration&#45;modules&#45;core#1335 -->
<g id="node49" class="node"><title>configuration-modules-core#1335</title>
<a xlink:href="https://github.com/quattor/configuration-modules-core/pull/1335" xlink:title="ncm-metaconfig: Remove caf_service_action type to allow reuse" target="_parent">
<polygon fill="#6cc644" stroke="black" points="518,-652 346,-652 346,-598 518,-598 518,-652"/>
<text text-anchor="middle" x="432" y="-629" font-family="Sans" font-size="10.00">pull-request</text>
<text text-anchor="middle" x="432" y="-616" font-family="Sans" font-size="10.00">configuration-modules-core#1335</text>
</a>
</g>
<!-- configuration&#45;modules&#45;core#1336&#45;&gt;configuration&#45;modules&#45;core#1335 -->
<g id="edge36" class="edge"><title>configuration-modules-core#1336-&gt;configuration-modules-core#1335</title>
<path fill="none" stroke="black" stroke-dasharray="5,2" d="M204.462,-692.752C237.473,-682.765 275.467,-671.311 310,-661 318.547,-658.448 327.434,-655.805 336.34,-653.164"/>
<polygon fill="none" stroke="black" points="337.404,-656.499 345.998,-650.302 335.416,-649.787 337.404,-656.499"/>
<text text-anchor="middle" x="273" y="-681" font-family="Sans" font-size="10.00">requires</text>
</g>
<!-- configuration&#45;modules&#45;core#1071 -->
<g id="node51" class="node"><title>configuration-modules-core#1071</title>
<a xlink:href="https://github.com/quattor/configuration-modules-core/issues/1071" xlink:title="ncm-network: support daemons to restart after network changes" target="_parent">
<ellipse fill="#6cc644" stroke="black" cx="432" cy="-708" rx="121.122" ry="38.1838"/>
<text text-anchor="middle" x="432" y="-712" font-family="Sans" font-size="10.00">issue</text>
<text text-anchor="middle" x="432" y="-699" font-family="Sans" font-size="10.00">configuration-modules-core#1071</text>
</a>
</g>
<!-- configuration&#45;modules&#45;core#1336&#45;&gt;configuration&#45;modules&#45;core#1071 -->
<g id="edge38" class="edge"><title>configuration-modules-core#1336-&gt;configuration-modules-core#1071</title>
<path fill="none" stroke="black" stroke-width="2" d="M204.217,-715.98C234.08,-714.933 268.265,-713.736 300.912,-712.592"/>
<polygon fill="black" stroke="black" points="301.116,-716.087 310.988,-712.239 300.871,-709.092 301.116,-716.087"/>
<text text-anchor="middle" x="273" y="-719" font-family="Sans" font-size="10.00">fixes</text>
</g>
<!-- template&#45;library&#45;core#191 -->
<g id="node53" class="node"><title>template-library-core#191</title>
<a xlink:href="https://github.com/quattor/template-library-core/pull/191" xlink:title="Allow the caf_service_action to be used by multiple components" target="_parent">
<polygon fill="#6cc644" stroke="black" points="781,-652 643,-652 643,-598 781,-598 781,-652"/>
<text text-anchor="middle" x="712" y="-629" font-family="Sans" font-size="10.00">pull-request</text>
<text text-anchor="middle" x="712" y="-616" font-family="Sans" font-size="10.00">template-library-core#191</text>
</a>
</g>
<!-- configuration&#45;modules&#45;core#1335&#45;&gt;template&#45;library&#45;core#191 -->
<g id="edge40" class="edge"><title>configuration-modules-core#1335-&gt;template-library-core#191</title>
<path fill="none" stroke="black" stroke-dasharray="5,2" d="M518.294,-625C554.71,-625 596.84,-625 632.49,-625"/>
<polygon fill="none" stroke="black" points="632.847,-628.5 642.847,-625 632.847,-621.5 632.847,-628.5"/>
<text text-anchor="middle" x="590" y="-629" font-family="Sans" font-size="10.00">requires</text>
</g>
<!-- configuration&#45;modules&#45;core#1148 -->
<g id="node54" class="node"><title>configuration-modules-core#1148</title>
<a xlink:href="https://github.com/quattor/configuration-modules-core/pull/1148" xlink:title="ncm-spma: Remove support from groups from spma yumng backend" target="_parent">
<polygon fill="#6cc644" stroke="black" points="204,-1797 32,-1797 32,-1743 204,-1743 204,-1797"/>
<text text-anchor="middle" x="118" y="-1774" font-family="Sans" font-size="10.00">pull-request</text>
<text text-anchor="middle" x="118" y="-1761" font-family="Sans" font-size="10.00">configuration-modules-core#1148</text>
</a>
</g>
<!-- configuration&#45;modules&#45;core#952 -->
<g id="node56" class="node"><title>configuration-modules-core#952</title>
<a xlink:href="https://github.com/quattor/configuration-modules-core/issues/952" xlink:title="ncm-spma (yumng): Remove support for package groups" target="_parent">
<ellipse fill="#6cc644" stroke="black" cx="432" cy="-1770" rx="118.087" ry="38.1838"/>
<text text-anchor="middle" x="432" y="-1774" font-family="Sans" font-size="10.00">issue</text>
<text text-anchor="middle" x="432" y="-1761" font-family="Sans" font-size="10.00">configuration-modules-core#952</text>
</a>
</g>
<!-- configuration&#45;modules&#45;core#1148&#45;&gt;configuration&#45;modules&#45;core#952 -->
<g id="edge42" class="edge"><title>configuration-modules-core#1148-&gt;configuration-modules-core#952</title>
<path fill="none" stroke="black" stroke-width="2" d="M204.217,-1770C234.903,-1770 270.151,-1770 303.606,-1770"/>
<polygon fill="black" stroke="black" points="303.924,-1773.5 313.924,-1770 303.924,-1766.5 303.924,-1773.5"/>
<text text-anchor="middle" x="273" y="-1774" font-family="Sans" font-size="10.00">fixes</text>
</g>
<!-- configuration&#45;modules&#45;core#950 -->
<g id="node57" class="node"><title>configuration-modules-core#950</title>
<a xlink:href="https://github.com/quattor/configuration-modules-core/issues/950" xlink:title="ncm-spma: Remove support for package groups from yum backends" target="_parent">
<ellipse fill="#6cc644" stroke="black" cx="118" cy="-1681" rx="118.087" ry="38.1838"/>
<text text-anchor="middle" x="118" y="-1685" font-family="Sans" font-size="10.00">issue</text>
<text text-anchor="middle" x="118" y="-1672" font-family="Sans" font-size="10.00">configuration-modules-core#950</text>
</a>
</g>
<!-- configuration&#45;modules&#45;core#950&#45;&gt;configuration&#45;modules&#45;core#952 -->
<g id="edge46" class="edge"><title>configuration-modules-core#950-&gt;configuration-modules-core#952</title>
<path fill="none" stroke="black" stroke-dasharray="5,2" d="M206.721,-1706.15C246.26,-1717.35 292.974,-1730.59 333.584,-1742.11"/>
<polygon fill="none" stroke="black" points="332.651,-1745.48 343.226,-1744.84 334.56,-1738.74 332.651,-1745.48"/>
<text text-anchor="middle" x="273" y="-1733" font-family="Sans" font-size="10.00">requires</text>
</g>
<!-- configuration&#45;modules&#45;core#951 -->
<g id="node59" class="node"><title>configuration-modules-core#951</title>
<a xlink:href="https://github.com/quattor/configuration-modules-core/issues/951" xlink:title="ncm-spma (yum): Remove support for package groups" target="_parent">
<ellipse fill="#6cc644" stroke="black" cx="432" cy="-1676" rx="118.087" ry="38.1838"/>
<text text-anchor="middle" x="432" y="-1680" font-family="Sans" font-size="10.00">issue</text>
<text text-anchor="middle" x="432" y="-1667" font-family="Sans" font-size="10.00">configuration-modules-core#951</text>
</a>
</g>
<!-- configuration&#45;modules&#45;core#950&#45;&gt;configuration&#45;modules&#45;core#951 -->
<g id="edge44" class="edge"><title>configuration-modules-core#950-&gt;configuration-modules-core#951</title>
<path fill="none" stroke="black" stroke-dasharray="5,2" d="M236.263,-1679.12C258.348,-1678.77 281.525,-1678.4 303.892,-1678.04"/>
<polygon fill="none" stroke="black" points="304.162,-1681.54 314.105,-1677.88 304.05,-1674.54 304.162,-1681.54"/>
<text text-anchor="middle" x="273" y="-1683" font-family="Sans" font-size="10.00">requires</text>
</g>
<!-- template&#45;library&#45;core#196 -->
<g id="node61" class="node"><title>template-library-core#196</title>
<a xlink:href="https://github.com/quattor/template-library-core/pull/196" xlink:title="pan/types: Add string type for search paths" target="_parent">
<polygon fill="#6e5494" stroke="black" points="187,-1266 49,-1266 49,-1212 187,-1212 187,-1266"/>
<text text-anchor="middle" x="118" y="-1243" font-family="Sans" font-size="10.00">pull-request</text>
<text text-anchor="middle" x="118" y="-1230" font-family="Sans" font-size="10.00">template-library-core#196</text>
</a>
</g>
<!-- template&#45;library&#45;core#197 -->
<g id="node63" class="node"><title>template-library-core#197</title>
<a xlink:href="https://github.com/quattor/template-library-core/pull/197" xlink:title="pan/types: Cleanup style - lint, indentation, wrapping" target="_parent">
<polygon fill="#6e5494" stroke="black" points="501,-1266 363,-1266 363,-1212 501,-1212 501,-1266"/>
<text text-anchor="middle" x="432" y="-1243" font-family="Sans" font-size="10.00">pull-request</text>
<text text-anchor="middle" x="432" y="-1230" font-family="Sans" font-size="10.00">template-library-core#197</text>
</a>
</g>
<!-- template&#45;library&#45;core#196&#45;&gt;template&#45;library&#45;core#197 -->
<g id="edge48" class="edge"><title>template-library-core#196-&gt;template-library-core#197</title>
<path fill="none" stroke="black" stroke-dasharray="5,2" d="M187.297,-1239C236.128,-1239 301.624,-1239 352.568,-1239"/>
<polygon fill="none" stroke="black" points="352.88,-1242.5 362.88,-1239 352.88,-1235.5 352.88,-1242.5"/>
<text text-anchor="middle" x="273" y="-1243" font-family="Sans" font-size="10.00">requires</text>
</g>
<!-- template&#45;library&#45;grid#232 -->
<g id="node64" class="node"><title>template-library-grid#232</title>
<a xlink:href="https://github.com/quattor/template-library-grid/pull/232" xlink:title="arc-ce: Export arc-ce feature from aquilon at RAL" target="_parent">
<polygon fill="#6cc644" stroke="black" points="185,-995 51,-995 51,-941 185,-941 185,-995"/>
<text text-anchor="middle" x="118" y="-972" font-family="Sans" font-size="10.00">pull-request</text>
<text text-anchor="middle" x="118" y="-959" font-family="Sans" font-size="10.00">template-library-grid#232</text>
</a>
</g>
<!-- template&#45;library&#45;grid#221 -->
<g id="node66" class="node"><title>template-library-grid#221</title>
<a xlink:href="https://github.com/quattor/template-library-grid/issues/221" xlink:title="Support for new CE types (ARC CE, HTCONDOR CE)" target="_parent">
<ellipse fill="#6cc644" stroke="black" cx="432" cy="-968" rx="94.9596" ry="38.1838"/>
<text text-anchor="middle" x="432" y="-972" font-family="Sans" font-size="10.00">issue</text>
<text text-anchor="middle" x="432" y="-959" font-family="Sans" font-size="10.00">template-library-grid#221</text>
</a>
</g>
<!-- template&#45;library&#45;grid#232&#45;&gt;template&#45;library&#45;grid#221 -->
<g id="edge50" class="edge"><title>template-library-grid#232-&gt;template-library-grid#221</title>
<path fill="none" stroke="black" stroke-width="2" d="M185.747,-968C226.73,-968 279.863,-968 326.279,-968"/>
<polygon fill="black" stroke="black" points="326.381,-971.5 336.381,-968 326.381,-964.5 326.381,-971.5"/>
<text text-anchor="middle" x="273" y="-972" font-family="Sans" font-size="10.00">fixes</text>
</g>
<!-- aquilon#115 -->
<g id="node67" class="node"><title>aquilon#115</title>
<a xlink:href="https://github.com/quattor/aquilon/pull/115" xlink:title="services: insert service data early in the object template" target="_parent">
<polygon fill="#6cc644" stroke="black" points="158,-2118 78,-2118 78,-2064 158,-2064 158,-2118"/>
<text text-anchor="middle" x="118" y="-2095" font-family="Sans" font-size="10.00">pull-request</text>
<text text-anchor="middle" x="118" y="-2082" font-family="Sans" font-size="10.00">aquilon#115</text>
</a>
</g>
<!-- aquilon#109 -->
<g id="node69" class="node"><title>aquilon#109</title>
<a xlink:href="https://github.com/quattor/aquilon/issues/109" xlink:title="Why service configuration is included so late in the plenary object?" target="_parent">
<ellipse fill="#6cc644" stroke="black" cx="432" cy="-2080" rx="56.0679" ry="38.1838"/>
<text text-anchor="middle" x="432" y="-2084" font-family="Sans" font-size="10.00">issue</text>
<text text-anchor="middle" x="432" y="-2071" font-family="Sans" font-size="10.00">aquilon#109</text>
</a>
</g>
<!-- aquilon#115&#45;&gt;aquilon#109 -->
<g id="edge52" class="edge"><title>aquilon#115-&gt;aquilon#109</title>
<path fill="none" stroke="black" stroke-width="2" d="M158.087,-2089.6C210.318,-2087.77 302.376,-2084.54 365.228,-2082.34"/>
<polygon fill="black" stroke="black" points="365.57,-2085.83 375.441,-2081.98 365.325,-2078.83 365.57,-2085.83"/>
<text text-anchor="middle" x="273" y="-2090" font-family="Sans" font-size="10.00">fixes</text>
</g>
<!-- aquilon#110 -->
<g id="node70" class="node"><title>aquilon#110</title>
<a xlink:href="https://github.com/quattor/aquilon/pull/110" xlink:title="Change site and machine namespace to use continent name" target="_parent">
<polygon fill="#6cc644" stroke="black" points="158,-2046 78,-2046 78,-1992 158,-1992 158,-2046"/>
<text text-anchor="middle" x="118" y="-2023" font-family="Sans" font-size="10.00">pull-request</text>
<text text-anchor="middle" x="118" y="-2010" font-family="Sans" font-size="10.00">aquilon#110</text>
</a>
</g>
<!-- aquilon#104 -->
<g id="node72" class="node"><title>aquilon#104</title>
<a xlink:href="https://github.com/quattor/aquilon/issues/104" xlink:title="1.12.62: location related templates cannot be used" target="_parent">
<ellipse fill="#6cc644" stroke="black" cx="432" cy="-1973" rx="56.0679" ry="38.1838"/>
<text text-anchor="middle" x="432" y="-1977" font-family="Sans" font-size="10.00">issue</text>
<text text-anchor="middle" x="432" y="-1964" font-family="Sans" font-size="10.00">aquilon#104</text>
</a>
</g>
<!-- aquilon#110&#45;&gt;aquilon#104 -->
<g id="edge54" class="edge"><title>aquilon#110-&gt;aquilon#104</title>
<path fill="none" stroke="black" stroke-width="2" d="M158.087,-2013.13C210.631,-2005.43 303.481,-1991.83 366.355,-1982.62"/>
<polygon fill="black" stroke="black" points="367.178,-1986.03 376.565,-1981.12 366.163,-1979.11 367.178,-1986.03"/>
<text text-anchor="middle" x="273" y="-2002" font-family="Sans" font-size="10.00">fixes</text>
</g>
<!-- aquilon#91 -->
<g id="node73" class="node"><title>aquilon#91</title>
<a xlink:href="https://github.com/quattor/aquilon/issues/91" xlink:title="1.12.58: city timezone is not passed to the object template" target="_parent">
<ellipse fill="#6cc644" stroke="black" cx="118" cy="-1936" rx="53.033" ry="38.1838"/>
<text text-anchor="middle" x="118" y="-1940" font-family="Sans" font-size="10.00">issue</text>
<text text-anchor="middle" x="118" y="-1927" font-family="Sans" font-size="10.00">aquilon#91</text>
</a>
</g>
<!-- aquilon#91&#45;&gt;aquilon#104 -->
<g id="edge56" class="edge"><title>aquilon#91-&gt;aquilon#104</title>
<path fill="none" stroke="black" stroke-dasharray="5,2" d="M170.557,-1942.19C224.248,-1948.52 307.764,-1958.36 365.906,-1965.21"/>
<polygon fill="none" stroke="black" points="365.751,-1968.72 376.092,-1966.41 366.57,-1961.77 365.751,-1968.72"/>
<text text-anchor="middle" x="273" y="-1959" font-family="Sans" font-size="10.00">requires</text>
</g>
<!-- aquilon#89 -->
<g id="node75" class="node"><title>aquilon#89</title>
<a xlink:href="https://github.com/quattor/aquilon/pull/89" xlink:title="Broker: pass archetype to the object profile" target="_parent">
<polygon fill="#6cc644" stroke="black" points="157,-1880 79,-1880 79,-1826 157,-1826 157,-1880"/>
<text text-anchor="middle" x="118" y="-1857" font-family="Sans" font-size="10.00">pull-request</text>
<text text-anchor="middle" x="118" y="-1844" font-family="Sans" font-size="10.00">aquilon#89</text>
</a>
</g>
<!-- aquilon#88 -->
<g id="node77" class="node"><title>aquilon#88</title>
<a xlink:href="https://github.com/quattor/aquilon/issues/88" xlink:title="1.12.58: the broker should pass the archetype to the object template" target="_parent">
<ellipse fill="#6cc644" stroke="black" cx="432" cy="-1864" rx="53.033" ry="38.1838"/>
<text text-anchor="middle" x="432" y="-1868" font-family="Sans" font-size="10.00">issue</text>
<text text-anchor="middle" x="432" y="-1855" font-family="Sans" font-size="10.00">aquilon#88</text>
</a>
</g>
<!-- aquilon#89&#45;&gt;aquilon#88 -->
<g id="edge58" class="edge"><title>aquilon#89-&gt;aquilon#88</title>
<path fill="none" stroke="black" stroke-width="2" d="M157.768,-1854.39C210.918,-1856.26 305.713,-1859.58 368.729,-1861.78"/>
<polygon fill="black" stroke="black" points="368.829,-1865.29 378.945,-1862.14 369.074,-1858.29 368.829,-1865.29"/>
<text text-anchor="middle" x="273" y="-1863" font-family="Sans" font-size="10.00">fixes</text>
</g>
</g>
</svg>
