<?xml version="1.0" encoding="UTF-8" standalone="no"?>
<!-- Generated by graphviz version 2.26.0 (20091210.2329)
 -->
<!-- Title: Dependencies Pages: 1 -->
<svg xmlns="http://www.w3.org/2000/svg" xmlns:xlink="http://www.w3.org/1999/xlink" width="1058pt" height="2252pt" viewBox="0.00 0.00 1058.00 2252.00">
<g id="graph1" class="graph" transform="scale(1 1) rotate(0) translate(4 2248)">
<title>Dependencies</title>
<polygon fill="white" stroke="white" points="-4,5 -4,-2248 1055,-2248 1055,5 -4,5"/>
<g id="graph3" class="cluster"><title>cluster_17.3</title>
<polygon fill="none" stroke="black" points="40,-700 40,-1802 1042,-1802 1042,-700 40,-700"/>
<text text-anchor="middle" x="541" y="-1787.2" font-family="Sans" font-size="12.00">17.3</text>
</g>
<g id="graph5" class="cluster"><title>cluster_17.4</title>
<polygon fill="none" stroke="black" points="8,-1860 8,-2236 574,-2236 574,-1860 8,-1860"/>
<text text-anchor="middle" x="291" y="-2221.2" font-family="Sans" font-size="12.00">17.4</text>
</g>
<!-- aii#225 -->
<g id="node1" class="node"><title>aii#225</title>
<a xlink:href="https://github.com/quattor/aii/pull/225" xlink:title="Add UEFI support through Grub-based PXE loader" target="_parent">
<polygon fill="#6cc644" stroke="black" points="173,-1770 95,-1770 95,-1716 173,-1716 173,-1770"/>
<text text-anchor="middle" x="134" y="-1747" font-family="Sans" font-size="10.00">pull-request</text>
<text text-anchor="middle" x="134" y="-1734" font-family="Sans" font-size="10.00">aii#225</text>
</a>
</g>
<!-- aii#216 -->
<g id="node3" class="node"><title>aii#216</title>
<a xlink:href="https://github.com/quattor/aii/issues/216" xlink:title="aii-pxelinux: add support for Grub-based UEFI PXE boot loader" target="_parent">
<ellipse fill="#6cc644" stroke="black" cx="448" cy="-1732" rx="41.2167" ry="38.1838"/>
<text text-anchor="middle" x="448" y="-1736" font-family="Sans" font-size="10.00">issue</text>
<text text-anchor="middle" x="448" y="-1723" font-family="Sans" font-size="10.00">aii#216</text>
</a>
</g>
<!-- aii#225&#45;&gt;aii#216 -->
<g id="edge2" class="edge"><title>aii#225-&gt;aii#216</title>
<path fill="none" stroke="black" stroke-width="2" d="M173.545,-1739.81C200.667,-1737.76 237.488,-1735.26 270,-1734 312.442,-1732.36 360.615,-1731.9 396.133,-1731.83"/>
<polygon fill="black" stroke="black" points="396.268,-1735.33 406.264,-1731.82 396.261,-1728.33 396.268,-1735.33"/>
<text text-anchor="middle" x="289" y="-1738" font-family="Sans" font-size="10.00">fixes</text>
</g>
<!-- aii#210 -->
<g id="node4" class="node"><title>aii#210</title>
<a xlink:href="https://github.com/quattor/aii/pull/210" xlink:title="Shellfe: support active config for plugins" target="_parent">
<polygon fill="#6cc644" stroke="black" points="173,-2121 95,-2121 95,-2067 173,-2067 173,-2121"/>
<text text-anchor="middle" x="134" y="-2098" font-family="Sans" font-size="10.00">pull-request</text>
<text text-anchor="middle" x="134" y="-2085" font-family="Sans" font-size="10.00">aii#210</text>
</a>
</g>
<!-- aii#209 -->
<g id="node6" class="node"><title>aii#209</title>
<a xlink:href="https://github.com/quattor/aii/issues/209" xlink:title="support ACTIVE_CONFIG" target="_parent">
<ellipse fill="#6cc644" stroke="black" cx="448" cy="-2094" rx="41.2167" ry="38.1838"/>
<text text-anchor="middle" x="448" y="-2098" font-family="Sans" font-size="10.00">issue</text>
<text text-anchor="middle" x="448" y="-2085" font-family="Sans" font-size="10.00">aii#209</text>
</a>
</g>
<!-- aii#210&#45;&gt;aii#209 -->
<g id="edge4" class="edge"><title>aii#210-&gt;aii#209</title>
<path fill="none" stroke="black" stroke-width="2" d="M173.768,-2094C230.279,-2094 333.868,-2094 396.284,-2094"/>
<polygon fill="black" stroke="black" points="396.31,-2097.5 406.31,-2094 396.31,-2090.5 396.31,-2097.5"/>
<text text-anchor="middle" x="289" y="-2098" font-family="Sans" font-size="10.00">fixes</text>
</g>
<!-- ncm&#45;ncd#74 -->
<g id="node8" class="node"><title>ncm-ncd#74</title>
<a xlink:href="https://github.com/quattor/ncm-ncd/pull/74" xlink:title="Set the current active config as an attribute to the component" target="_parent">
<polygon fill="#6cc644" stroke="black" points="489,-2204 407,-2204 407,-2150 489,-2150 489,-2204"/>
<text text-anchor="middle" x="448" y="-2181" font-family="Sans" font-size="10.00">pull-request</text>
<text text-anchor="middle" x="448" y="-2168" font-family="Sans" font-size="10.00">ncm-ncd#74</text>
</a>
</g>
<!-- aii#210&#45;&gt;ncm&#45;ncd#74 -->
<g id="edge6" class="edge"><title>aii#210-&gt;ncm-ncd#74</title>
<path fill="none" stroke="black" stroke-dasharray="5,2" d="M173.768,-2104.51C230.435,-2119.49 334.442,-2146.98 396.801,-2163.47"/>
<polygon fill="none" stroke="black" points="396.25,-2166.94 406.813,-2166.11 398.039,-2160.17 396.25,-2166.94"/>
<text text-anchor="middle" x="289" y="-2141" font-family="Sans" font-size="10.00">requires</text>
</g>
<!-- aii#203 -->
<g id="node10" class="node"><title>aii#203</title>
<polygon fill="lightgrey" stroke="black" points="477,-1850.5 419,-1850.5 419,-1809.5 477,-1809.5 477,-1850.5"/>
<text text-anchor="middle" x="448" y="-1827.5" font-family="Sans" font-size="10.00">aii#203</text>
</g>
<!-- aii#210&#45;&gt;aii#203 -->
<g id="edge8" class="edge"><title>aii#210-&gt;aii#203</title>
<path fill="none" stroke="black" stroke-dasharray="5,2" d="M173.591,-2067.67C199.791,-2048.18 232.75,-2019.3 252,-1986 270.456,-1954.07 251.188,-1936.72 270,-1905 286.87,-1876.55 296.431,-1870.81 326,-1856 351.668,-1843.14 383.466,-1836.63 408.163,-1833.34"/>
<polygon fill="none" stroke="black" points="408.766,-1836.79 418.274,-1832.11 407.926,-1829.84 408.766,-1836.79"/>
<text text-anchor="middle" x="289" y="-1909" font-family="Sans" font-size="10.00">requires</text>
</g>
<!-- CAF#224 -->
<g id="node11" class="node"><title>CAF#224</title>
<a xlink:href="https://github.com/quattor/CAF/pull/224" xlink:title="CAF::Application: add methods option_exists() and set_options()" target="_parent">
<polygon fill="#6cc644" stroke="black" points="173,-1194 95,-1194 95,-1140 173,-1140 173,-1194"/>
<text text-anchor="middle" x="134" y="-1171" font-family="Sans" font-size="10.00">pull-request</text>
<text text-anchor="middle" x="134" y="-1158" font-family="Sans" font-size="10.00">CAF#224</text>
</a>
</g>
<!-- CAF#210 -->
<g id="node13" class="node"><title>CAF#210</title>
<a xlink:href="https://github.com/quattor/CAF/issues/210" xlink:title="Application.pm: no possibility to test if an option exists" target="_parent">
<ellipse fill="#6cc644" stroke="black" cx="448" cy="-422" rx="48.9975" ry="38.1838"/>
<text text-anchor="middle" x="448" y="-426" font-family="Sans" font-size="10.00">issue</text>
<text text-anchor="middle" x="448" y="-413" font-family="Sans" font-size="10.00">CAF#210</text>
</a>
</g>
<!-- CAF#224&#45;&gt;CAF#210 -->
<g id="edge10" class="edge"><title>CAF#224-&gt;CAF#210</title>
<path fill="none" stroke="black" stroke-width="2" d="M173.532,-1166.21C200.238,-1163.38 233.825,-1154.85 252,-1131 295.793,-1073.53 226.899,-538.985 270,-481 297.215,-444.387 347.967,-430.179 388.335,-424.817"/>
<polygon fill="black" stroke="black" points="388.833,-428.283 398.354,-423.637 388.013,-421.331 388.833,-428.283"/>
<text text-anchor="middle" x="289" y="-485" font-family="Sans" font-size="10.00">fixes</text>
</g>
<!-- CAF#202 -->
<g id="node14" class="node"><title>CAF#202</title>
<a xlink:href="https://github.com/quattor/CAF/pull/202" xlink:title="FileWriter: use atomic write" target="_parent">
<polygon fill="#6cc644" stroke="black" points="173,-1410 95,-1410 95,-1356 173,-1356 173,-1410"/>
<text text-anchor="middle" x="134" y="-1387" font-family="Sans" font-size="10.00">pull-request</text>
<text text-anchor="middle" x="134" y="-1374" font-family="Sans" font-size="10.00">CAF#202</text>
</a>
</g>
<!-- CAF#204 -->
<g id="node16" class="node"><title>CAF#204</title>
<polygon fill="lightgrey" stroke="black" points="483,-692.5 413,-692.5 413,-651.5 483,-651.5 483,-692.5"/>
<text text-anchor="middle" x="448" y="-669.5" font-family="Sans" font-size="10.00">CAF#204</text>
</g>
<!-- CAF#202&#45;&gt;CAF#204 -->
<g id="edge12" class="edge"><title>CAF#202-&gt;CAF#204</title>
<path fill="none" stroke="black" stroke-dasharray="5,2" d="M173.578,-1382C200.125,-1379.05 233.502,-1370.46 252,-1347 272.468,-1321.04 266.413,-1082.87 270,-1050 287.283,-891.651 215.488,-810.719 326,-696 345.501,-675.756 376.729,-669.897 402.707,-669.027"/>
<polygon fill="none" stroke="black" points="402.773,-672.526 412.736,-668.922 402.7,-665.527 402.773,-672.526"/>
<text text-anchor="middle" x="289" y="-1054" font-family="Sans" font-size="10.00">requires</text>
</g>
<!-- CAF#206 -->
<g id="node18" class="node"><title>CAF#206</title>
<polygon fill="lightgrey" stroke="black" points="483,-634.5 413,-634.5 413,-593.5 483,-593.5 483,-634.5"/>
<text text-anchor="middle" x="448" y="-611.5" font-family="Sans" font-size="10.00">CAF#206</text>
</g>
<!-- CAF#202&#45;&gt;CAF#206 -->
<g id="edge14" class="edge"><title>CAF#202-&gt;CAF#206</title>
<path fill="none" stroke="black" stroke-dasharray="5,2" d="M173.529,-1382.21C200.234,-1379.38 233.82,-1370.85 252,-1347 273.599,-1318.67 256.873,-739.119 270,-706 283.804,-671.173 293.844,-662.221 326,-643 349.218,-629.121 378.638,-621.883 402.769,-618.109"/>
<polygon fill="none" stroke="black" points="403.344,-621.563 412.754,-616.694 402.362,-614.632 403.344,-621.563"/>
<text text-anchor="middle" x="289" y="-710" font-family="Sans" font-size="10.00">requires</text>
</g>
<!-- CAF#148 -->
<g id="node20" class="node"><title>CAF#148</title>
<a xlink:href="https://github.com/quattor/CAF/issues/148" xlink:title="CAF::FileWriter updates files in-place" target="_parent">
<ellipse fill="#6cc644" stroke="black" cx="448" cy="-1190" rx="48.9975" ry="38.1838"/>
<text text-anchor="middle" x="448" y="-1194" font-family="Sans" font-size="10.00">issue</text>
<text text-anchor="middle" x="448" y="-1181" font-family="Sans" font-size="10.00">CAF#148</text>
</a>
</g>
<!-- CAF#202&#45;&gt;CAF#148 -->
<g id="edge16" class="edge"><title>CAF#202-&gt;CAF#148</title>
<path fill="none" stroke="black" stroke-width="2" d="M173.69,-1377.79C198.151,-1373.01 229.106,-1363.95 252,-1347 299.354,-1311.94 279.932,-1273.74 326,-1237 344.86,-1221.96 369.086,-1211.31 390.972,-1203.99"/>
<polygon fill="black" stroke="black" points="392.04,-1207.33 400.51,-1200.96 389.92,-1200.65 392.04,-1207.33"/>
<text text-anchor="middle" x="289" y="-1334" font-family="Sans" font-size="10.00">fixes</text>
</g>
<!-- CAF#189 -->
<g id="node22" class="node"><title>CAF#189</title>
<a xlink:href="https://github.com/quattor/CAF/issues/189" xlink:title="FileWriter: add diff to history" target="_parent">
<ellipse fill="#6cc644" stroke="black" cx="448" cy="-1096" rx="48.9975" ry="38.1838"/>
<text text-anchor="middle" x="448" y="-1100" font-family="Sans" font-size="10.00">issue</text>
<text text-anchor="middle" x="448" y="-1087" font-family="Sans" font-size="10.00">CAF#189</text>
</a>
</g>
<!-- CAF#202&#45;&gt;CAF#189 -->
<g id="edge18" class="edge"><title>CAF#202-&gt;CAF#189</title>
<path fill="none" stroke="black" stroke-width="2" d="M173.668,-1381.26C199.73,-1377.93 232.495,-1369.21 252,-1347 283.822,-1310.77 253.685,-1285.38 270,-1240 286.841,-1193.16 288.167,-1175.35 326,-1143 344.408,-1127.26 368.667,-1116.47 390.701,-1109.25"/>
<polygon fill="black" stroke="black" points="391.795,-1112.57 400.311,-1106.27 389.723,-1105.89 391.795,-1112.57"/>
<text text-anchor="middle" x="289" y="-1244" font-family="Sans" font-size="10.00">fixes</text>
</g>
<!-- CCM#162 -->
<g id="node23" class="node"><title>CCM#162</title>
<a xlink:href="https://github.com/quattor/CCM/pull/162" xlink:title="Cleanup: move internal modules in subdirectories and remove/integrate util scripts" target="_parent">
<polygon fill="#6cc644" stroke="black" points="173,-1122 95,-1122 95,-1068 173,-1068 173,-1122"/>
<text text-anchor="middle" x="134" y="-1099" font-family="Sans" font-size="10.00">pull-request</text>
<text text-anchor="middle" x="134" y="-1086" font-family="Sans" font-size="10.00">CCM#162</text>
</a>
</g>
<!-- CCM#160 -->
<g id="node25" class="node"><title>CCM#160</title>
<polygon fill="lightgrey" stroke="black" points="484,-366.5 412,-366.5 412,-325.5 484,-325.5 484,-366.5"/>
<text text-anchor="middle" x="448" y="-343.5" font-family="Sans" font-size="10.00">CCM#160</text>
</g>
<!-- CCM#162&#45;&gt;CCM#160 -->
<g id="edge20" class="edge"><title>CCM#162-&gt;CCM#160</title>
<path fill="none" stroke="black" stroke-dasharray="5,2" d="M173.524,-1094.21C200.227,-1091.37 233.812,-1082.84 252,-1059 294.206,-1003.68 243.012,-497.137 270,-433 283.898,-399.973 294.871,-392.747 326,-375 348.9,-361.944 377.43,-354.751 401.141,-350.795"/>
<polygon fill="none" stroke="black" points="401.959,-354.211 411.317,-349.244 400.904,-347.291 401.959,-354.211"/>
<text text-anchor="middle" x="289" y="-437" font-family="Sans" font-size="10.00">requires</text>
</g>
<!-- CCM#156 -->
<g id="node27" class="node"><title>CCM#156</title>
<polygon fill="lightgrey" stroke="black" points="484,-308.5 412,-308.5 412,-267.5 484,-267.5 484,-308.5"/>
<text text-anchor="middle" x="448" y="-285.5" font-family="Sans" font-size="10.00">CCM#156</text>
</g>
<!-- CCM#162&#45;&gt;CCM#156 -->
<g id="edge22" class="edge"><title>CCM#162-&gt;CCM#156</title>
<path fill="none" stroke="black" stroke-dasharray="5,2" d="M173.544,-1094.22C200.255,-1091.39 233.844,-1082.86 252,-1059 275.185,-1028.53 254.403,-404.97 270,-370 292.179,-320.271 356.189,-300.672 401.063,-292.966"/>
<polygon fill="none" stroke="black" points="401.839,-296.387 411.172,-291.373 400.749,-289.472 401.839,-296.387"/>
<text text-anchor="middle" x="289" y="-374" font-family="Sans" font-size="10.00">requires</text>
</g>
<!-- configuration&#45;modules&#45;core#1061 -->
<g id="node28" class="node"><title>configuration-modules-core#1061</title>
<a xlink:href="https://github.com/quattor/configuration-modules-core/pull/1061" xlink:title="ncm-aiiserver: add support for AII Grub-2 related options" target="_parent">
<polygon fill="#6cc644" stroke="black" points="220,-1698 48,-1698 48,-1644 220,-1644 220,-1698"/>
<text text-anchor="middle" x="134" y="-1675" font-family="Sans" font-size="10.00">pull-request</text>
<text text-anchor="middle" x="134" y="-1662" font-family="Sans" font-size="10.00">configuration-modules-core#1061</text>
</a>
</g>
<!-- configuration&#45;modules&#45;core#960 -->
<g id="node30" class="node"><title>configuration-modules-core#960</title>
<a xlink:href="https://github.com/quattor/configuration-modules-core/issues/960" xlink:title="aii-server: add support for new options introduced for Grub-based PXE" target="_parent">
<ellipse fill="#6cc644" stroke="black" cx="448" cy="-1638" rx="118.087" ry="38.1838"/>
<text text-anchor="middle" x="448" y="-1642" font-family="Sans" font-size="10.00">issue</text>
<text text-anchor="middle" x="448" y="-1629" font-family="Sans" font-size="10.00">configuration-modules-core#960</text>
</a>
</g>
<!-- configuration&#45;modules&#45;core#1061&#45;&gt;configuration&#45;modules&#45;core#960 -->
<g id="edge24" class="edge"><title>configuration-modules-core#1061-&gt;configuration-modules-core#960</title>
<path fill="none" stroke="black" stroke-width="2" d="M220.217,-1661.94C252.688,-1658.53 290.267,-1654.58 325.424,-1650.88"/>
<polygon fill="black" stroke="black" points="326.178,-1654.32 335.757,-1649.8 325.446,-1647.36 326.178,-1654.32"/>
<text text-anchor="middle" x="289" y="-1661" font-family="Sans" font-size="10.00">fixes</text>
</g>
<!-- configuration&#45;modules&#45;core#1059 -->
<g id="node31" class="node"><title>configuration-modules-core#1059</title>
<a xlink:href="https://github.com/quattor/configuration-modules-core/pull/1059" xlink:title="ncm-metaconfig: don't allow specific turning on of SEED and CAMELLIA" target="_parent">
<polygon fill="#6cc644" stroke="black" points="220,-1050 48,-1050 48,-996 220,-996 220,-1050"/>
<text text-anchor="middle" x="134" y="-1027" font-family="Sans" font-size="10.00">pull-request</text>
<text text-anchor="middle" x="134" y="-1014" font-family="Sans" font-size="10.00">configuration-modules-core#1059</text>
</a>
</g>
<!-- configuration&#45;modules&#45;core#983 -->
<g id="node33" class="node"><title>configuration-modules-core#983</title>
<polygon fill="lightgrey" stroke="black" points="531,-250.5 365,-250.5 365,-209.5 531,-209.5 531,-250.5"/>
<text text-anchor="middle" x="448" y="-227.5" font-family="Sans" font-size="10.00">configuration-modules-core#983</text>
</g>
<!-- configuration&#45;modules&#45;core#1059&#45;&gt;configuration&#45;modules&#45;core#983 -->
<g id="edge26" class="edge"><title>configuration-modules-core#1059-&gt;configuration-modules-core#983</title>
<path fill="none" stroke="black" stroke-dasharray="1,5" d="M220.157,-1010.79C232.543,-1005.38 243.836,-997.743 252,-987 300.42,-923.286 218.727,-328.442 270,-267 281.415,-253.322 317.374,-244.512 354.012,-238.937"/>
<polygon fill="black" stroke="black" points="364.344,-237.449 355.088,-243.329 359.395,-238.162 354.447,-238.874 354.447,-238.874 354.447,-238.874 359.395,-238.162 353.805,-234.42 364.344,-237.449 364.344,-237.449"/>
<text text-anchor="middle" x="289" y="-271" font-family="Sans" font-size="10.00">replaces</text>
</g>
<!-- configuration&#45;modules&#45;core#1058 -->
<g id="node34" class="node"><title>configuration-modules-core#1058</title>
<a xlink:href="https://github.com/quattor/configuration-modules-core/pull/1058" xlink:title="ncm-ssh: dissable insecure ssh ciphersuites and mac's" target="_parent">
<polygon fill="#6cc644" stroke="black" points="220,-978 48,-978 48,-924 220,-924 220,-978"/>
<text text-anchor="middle" x="134" y="-955" font-family="Sans" font-size="10.00">pull-request</text>
<text text-anchor="middle" x="134" y="-942" font-family="Sans" font-size="10.00">configuration-modules-core#1058</text>
</a>
</g>
<!-- configuration&#45;modules&#45;core#1058&#45;&gt;configuration&#45;modules&#45;core#983 -->
<g id="edge28" class="edge"><title>configuration-modules-core#1058-&gt;configuration-modules-core#983</title>
<path fill="none" stroke="black" stroke-dasharray="1,5" d="M220.145,-938.777C232.533,-933.371 243.829,-925.738 252,-915 275.02,-884.75 242.844,-257.6 270,-231 296.133,-205.403 336.155,-203.263 371.635,-208.361"/>
<polygon fill="black" stroke="black" points="381.507,-209.978 370.911,-212.803 376.573,-209.17 371.638,-208.362 371.638,-208.362 371.638,-208.362 376.573,-209.17 372.365,-203.921 381.507,-209.978 381.507,-209.978"/>
<text text-anchor="middle" x="289" y="-235" font-family="Sans" font-size="10.00">replaces</text>
</g>
<!-- configuration&#45;modules&#45;core#1043 -->
<g id="node36" class="node"><title>configuration-modules-core#1043</title>
<a xlink:href="https://github.com/quattor/configuration-modules-core/pull/1043" xlink:title="ncm-network: core-schema: add additional checks to make sure gateway and broadcast are in network range" target="_parent">
<polygon fill="#6cc644" stroke="black" points="220,-1626 48,-1626 48,-1572 220,-1572 220,-1626"/>
<text text-anchor="middle" x="134" y="-1603" font-family="Sans" font-size="10.00">pull-request</text>
<text text-anchor="middle" x="134" y="-1590" font-family="Sans" font-size="10.00">configuration-modules-core#1043</text>
</a>
</g>
<!-- template&#45;library&#45;core#151 -->
<g id="node38" class="node"><title>template-library-core#151</title>
<a xlink:href="https://github.com/quattor/template-library-core/pull/151" xlink:title="quattor/functions/network: add ip_in_network function" target="_parent">
<polygon fill="#6cc644" stroke="black" points="517,-1582 379,-1582 379,-1528 517,-1528 517,-1582"/>
<text text-anchor="middle" x="448" y="-1559" font-family="Sans" font-size="10.00">pull-request</text>
<text text-anchor="middle" x="448" y="-1546" font-family="Sans" font-size="10.00">template-library-core#151</text>
</a>
</g>
<!-- configuration&#45;modules&#45;core#1043&#45;&gt;template&#45;library&#45;core#151 -->
<g id="edge30" class="edge"><title>configuration-modules-core#1043-&gt;template-library-core#151</title>
<path fill="none" stroke="black" stroke-dasharray="5,2" d="M220.217,-1586.92C266.634,-1580.41 323.492,-1572.45 368.789,-1566.1"/>
<polygon fill="none" stroke="black" points="369.441,-1569.54 378.858,-1564.69 368.469,-1562.61 369.441,-1569.54"/>
<text text-anchor="middle" x="289" y="-1584" font-family="Sans" font-size="10.00">requires</text>
</g>
<!-- template&#45;library&#45;core#150 -->
<g id="node71" class="node"><title>template-library-core#150</title>
<a xlink:href="https://github.com/quattor/template-library-core/pull/150" xlink:title="quattor/functions/network: cleanup and removal of get_subnet_params function" target="_parent">
<polygon fill="#6cc644" stroke="black" points="780,-1582 642,-1582 642,-1528 780,-1528 780,-1582"/>
<text text-anchor="middle" x="711" y="-1559" font-family="Sans" font-size="10.00">pull-request</text>
<text text-anchor="middle" x="711" y="-1546" font-family="Sans" font-size="10.00">template-library-core#150</text>
</a>
</g>
<!-- template&#45;library&#45;core#151&#45;&gt;template&#45;library&#45;core#150 -->
<g id="edge56" class="edge"><title>template-library-core#151-&gt;template-library-core#150</title>
<path fill="none" stroke="black" stroke-dasharray="5,2" d="M517.1,-1555C552.296,-1555 595.255,-1555 631.784,-1555"/>
<polygon fill="none" stroke="black" points="631.905,-1558.5 641.905,-1555 631.905,-1551.5 631.905,-1558.5"/>
<text text-anchor="middle" x="606" y="-1559" font-family="Sans" font-size="10.00">requires</text>
</g>
<!-- configuration&#45;modules&#45;core#1035 -->
<g id="node39" class="node"><title>configuration-modules-core#1035</title>
<a xlink:href="https://github.com/quattor/configuration-modules-core/pull/1035" xlink:title="ncm-freeipa: CLI: support location based discovery" target="_parent">
<polygon fill="#6cc644" stroke="black" points="220,-1554 48,-1554 48,-1500 220,-1500 220,-1554"/>
<text text-anchor="middle" x="134" y="-1531" font-family="Sans" font-size="10.00">pull-request</text>
<text text-anchor="middle" x="134" y="-1518" font-family="Sans" font-size="10.00">configuration-modules-core#1035</text>
</a>
</g>
<!-- configuration&#45;modules&#45;core#1032 -->
<g id="node41" class="node"><title>configuration-modules-core#1032</title>
<a xlink:href="https://github.com/quattor/configuration-modules-core/issues/1032" xlink:title="freeipa: documentation issue" target="_parent">
<ellipse fill="#6cc644" stroke="black" cx="448" cy="-1472" rx="121.122" ry="38.1838"/>
<text text-anchor="middle" x="448" y="-1476" font-family="Sans" font-size="10.00">issue</text>
<text text-anchor="middle" x="448" y="-1463" font-family="Sans" font-size="10.00">configuration-modules-core#1032</text>
</a>
</g>
<!-- configuration&#45;modules&#45;core#1035&#45;&gt;configuration&#45;modules&#45;core#1032 -->
<g id="edge32" class="edge"><title>configuration-modules-core#1035-&gt;configuration-modules-core#1032</title>
<path fill="none" stroke="black" stroke-width="2" d="M220.217,-1511.9C254.57,-1505.88 294.64,-1498.86 331.511,-1492.4"/>
<polygon fill="black" stroke="black" points="332.572,-1495.77 341.818,-1490.6 331.364,-1488.88 332.572,-1495.77"/>
<text text-anchor="middle" x="289" y="-1507" font-family="Sans" font-size="10.00">fixes</text>
</g>
<!-- configuration&#45;modules&#45;core#1033 -->
<g id="node43" class="node"><title>configuration-modules-core#1033</title>
<a xlink:href="https://github.com/quattor/configuration-modules-core/issues/1033" xlink:title="freeipa: certutil doesn't initialise quattor/nssdb if directory exists but db doesn't" target="_parent">
<ellipse fill="#6cc644" stroke="black" cx="448" cy="-1378" rx="121.122" ry="38.1838"/>
<text text-anchor="middle" x="448" y="-1382" font-family="Sans" font-size="10.00">issue</text>
<text text-anchor="middle" x="448" y="-1369" font-family="Sans" font-size="10.00">configuration-modules-core#1033</text>
</a>
</g>
<!-- configuration&#45;modules&#45;core#1035&#45;&gt;configuration&#45;modules&#45;core#1033 -->
<g id="edge34" class="edge"><title>configuration-modules-core#1035-&gt;configuration-modules-core#1033</title>
<path fill="none" stroke="black" stroke-width="2" d="M220.256,-1505.49C231.25,-1501.37 242.105,-1496.56 252,-1491 290.414,-1469.4 288.384,-1447.96 326,-1425 335.122,-1419.43 345.016,-1414.32 355.089,-1409.69"/>
<polygon fill="black" stroke="black" points="356.652,-1412.83 364.373,-1405.57 353.813,-1406.43 356.652,-1412.83"/>
<text text-anchor="middle" x="289" y="-1483" font-family="Sans" font-size="10.00">fixes</text>
</g>
<!-- configuration&#45;modules&#45;core#1028 -->
<g id="node44" class="node"><title>configuration-modules-core#1028</title>
<a xlink:href="https://github.com/quattor/configuration-modules-core/pull/1028" xlink:title="Split logstash versions: keep legacy versions 1.2 and 2.0 and add 5.0" target="_parent">
<polygon fill="#6cc644" stroke="black" points="220,-906 48,-906 48,-852 220,-852 220,-906"/>
<text text-anchor="middle" x="134" y="-883" font-family="Sans" font-size="10.00">pull-request</text>
<text text-anchor="middle" x="134" y="-870" font-family="Sans" font-size="10.00">configuration-modules-core#1028</text>
</a>
</g>
<!-- configuration&#45;modules&#45;core#1026 -->
<g id="node46" class="node"><title>configuration-modules-core#1026</title>
<polygon fill="lightgrey" stroke="black" points="534,-192.5 362,-192.5 362,-151.5 534,-151.5 534,-192.5"/>
<text text-anchor="middle" x="448" y="-169.5" font-family="Sans" font-size="10.00">configuration-modules-core#1026</text>
</g>
<!-- configuration&#45;modules&#45;core#1028&#45;&gt;configuration&#45;modules&#45;core#1026 -->
<g id="edge36" class="edge"><title>configuration-modules-core#1028-&gt;configuration-modules-core#1026</title>
<path fill="none" stroke="black" stroke-dasharray="1,5" d="M220.132,-866.767C232.521,-861.362 243.821,-853.732 252,-843 295.66,-785.713 221.697,-248.431 270,-195 290.463,-172.364 321.318,-163.681 351.62,-161.587"/>
<polygon fill="black" stroke="black" points="361.859,-161.119 352.075,-166.071 356.865,-161.348 351.87,-161.576 351.87,-161.576 351.87,-161.576 356.865,-161.348 351.664,-157.081 361.859,-161.119 361.859,-161.119"/>
<text text-anchor="middle" x="289" y="-199" font-family="Sans" font-size="10.00">replaces</text>
</g>
<!-- configuration&#45;modules&#45;core#1024 -->
<g id="node47" class="node"><title>configuration-modules-core#1024</title>
<a xlink:href="https://github.com/quattor/configuration-modules-core/pull/1024" xlink:title="ncm-syslog: cleanup and refactor" target="_parent">
<polygon fill="#6cc644" stroke="black" points="220,-1266 48,-1266 48,-1212 220,-1212 220,-1266"/>
<text text-anchor="middle" x="134" y="-1243" font-family="Sans" font-size="10.00">pull-request</text>
<text text-anchor="middle" x="134" y="-1230" font-family="Sans" font-size="10.00">configuration-modules-core#1024</text>
</a>
</g>
<!-- configuration&#45;modules&#45;core#1024&#45;&gt;CAF#206 -->
<g id="edge40" class="edge"><title>configuration-modules-core#1024-&gt;CAF#206</title>
<path fill="none" stroke="black" stroke-dasharray="5,2" d="M220.106,-1226.75C232.498,-1221.34 243.806,-1213.72 252,-1203 291.695,-1151.07 223.207,-660.638 270,-615 304.365,-581.483 362.563,-588.273 403.018,-598.795"/>
<polygon fill="none" stroke="black" points="402.324,-602.234 412.895,-601.528 404.191,-595.488 402.324,-602.234"/>
<text text-anchor="middle" x="289" y="-619" font-family="Sans" font-size="10.00">requires</text>
</g>
<!-- CAF#211 -->
<g id="node49" class="node"><title>CAF#211</title>
<polygon fill="lightgrey" stroke="black" points="483,-518.5 413,-518.5 413,-477.5 483,-477.5 483,-518.5"/>
<text text-anchor="middle" x="448" y="-495.5" font-family="Sans" font-size="10.00">CAF#211</text>
</g>
<!-- configuration&#45;modules&#45;core#1024&#45;&gt;CAF#211 -->
<g id="edge38" class="edge"><title>configuration-modules-core#1024-&gt;CAF#211</title>
<path fill="none" stroke="black" stroke-dasharray="5,2" d="M220.144,-1226.78C232.532,-1221.37 243.828,-1213.74 252,-1203 297.908,-1142.68 219.204,-577.267 270,-521 302.627,-484.859 361.741,-484.269 402.852,-489.295"/>
<polygon fill="none" stroke="black" points="402.505,-492.78 412.889,-490.676 403.459,-485.845 402.505,-492.78"/>
<text text-anchor="middle" x="289" y="-525" font-family="Sans" font-size="10.00">requires</text>
</g>
<!-- configuration&#45;modules&#45;core#950 -->
<g id="node51" class="node"><title>configuration-modules-core#950</title>
<a xlink:href="https://github.com/quattor/configuration-modules-core/issues/950" xlink:title="ncm-spma: Remove support for package groups from yum backends" target="_parent">
<ellipse fill="#6cc644" stroke="black" cx="134" cy="-1939" rx="118.087" ry="38.1838"/>
<text text-anchor="middle" x="134" y="-1943" font-family="Sans" font-size="10.00">issue</text>
<text text-anchor="middle" x="134" y="-1930" font-family="Sans" font-size="10.00">configuration-modules-core#950</text>
</a>
</g>
<!-- configuration&#45;modules&#45;core#951 -->
<g id="node53" class="node"><title>configuration-modules-core#951</title>
<a xlink:href="https://github.com/quattor/configuration-modules-core/issues/951" xlink:title="ncm-spma (yum): Remove support for package groups" target="_parent">
<ellipse fill="#6cc644" stroke="black" cx="448" cy="-1906" rx="118.087" ry="38.1838"/>
<text text-anchor="middle" x="448" y="-1910" font-family="Sans" font-size="10.00">issue</text>
<text text-anchor="middle" x="448" y="-1897" font-family="Sans" font-size="10.00">configuration-modules-core#951</text>
</a>
</g>
<!-- configuration&#45;modules&#45;core#950&#45;&gt;configuration&#45;modules&#45;core#951 -->
<g id="edge42" class="edge"><title>configuration-modules-core#950-&gt;configuration-modules-core#951</title>
<path fill="none" stroke="black" stroke-dasharray="5,2" d="M246.474,-1927.18C272.107,-1924.49 299.467,-1921.61 325.496,-1918.87"/>
<polygon fill="none" stroke="black" points="326.204,-1922.32 335.784,-1917.79 325.472,-1915.36 326.204,-1922.32"/>
<text text-anchor="middle" x="289" y="-1929" font-family="Sans" font-size="10.00">requires</text>
</g>
<!-- configuration&#45;modules&#45;core#952 -->
<g id="node55" class="node"><title>configuration-modules-core#952</title>
<a xlink:href="https://github.com/quattor/configuration-modules-core/issues/952" xlink:title="ncm-spma (yumng): Remove support for package groups" target="_parent">
<ellipse fill="#6cc644" stroke="black" cx="448" cy="-2000" rx="118.087" ry="38.1838"/>
<text text-anchor="middle" x="448" y="-2004" font-family="Sans" font-size="10.00">issue</text>
<text text-anchor="middle" x="448" y="-1991" font-family="Sans" font-size="10.00">configuration-modules-core#952</text>
</a>
</g>
<!-- configuration&#45;modules&#45;core#950&#45;&gt;configuration&#45;modules&#45;core#952 -->
<g id="edge44" class="edge"><title>configuration-modules-core#950-&gt;configuration-modules-core#952</title>
<path fill="none" stroke="black" stroke-dasharray="5,2" d="M235.08,-1958.64C267.494,-1964.93 303.565,-1971.94 336.669,-1978.37"/>
<polygon fill="none" stroke="black" points="336.357,-1981.88 346.841,-1980.35 337.692,-1975.01 336.357,-1981.88"/>
<text text-anchor="middle" x="289" y="-1976" font-family="Sans" font-size="10.00">requires</text>
</g>
<!-- configuration&#45;modules&#45;core#821 -->
<g id="node56" class="node"><title>configuration-modules-core#821</title>
<a xlink:href="https://github.com/quattor/configuration-modules-core/pull/821" xlink:title="ncm-spma: Add backend for apt" target="_parent">
<polygon fill="#6cc644" stroke="black" points="217,-834 51,-834 51,-780 217,-780 217,-834"/>
<text text-anchor="middle" x="134" y="-811" font-family="Sans" font-size="10.00">pull-request</text>
<text text-anchor="middle" x="134" y="-798" font-family="Sans" font-size="10.00">configuration-modules-core#821</text>
</a>
</g>
<!-- configuration&#45;modules&#45;core#716 -->
<g id="node58" class="node"><title>configuration-modules-core#716</title>
<polygon fill="lightgrey" stroke="black" points="531,-134.5 365,-134.5 365,-93.5 531,-93.5 531,-134.5"/>
<text text-anchor="middle" x="448" y="-111.5" font-family="Sans" font-size="10.00">configuration-modules-core#716</text>
</g>
<!-- configuration&#45;modules&#45;core#821&#45;&gt;configuration&#45;modules&#45;core#716 -->
<g id="edge46" class="edge"><title>configuration-modules-core#821-&gt;configuration-modules-core#716</title>
<path fill="none" stroke="black" stroke-dasharray="5,2" d="M217.753,-795.765C231.068,-790.314 243.298,-782.411 252,-771 294.735,-714.963 222.724,-189.263 270,-137 291.031,-113.751 323.025,-105.223 354.116,-103.437"/>
<polygon fill="none" stroke="black" points="354.293,-106.933 364.164,-103.084 354.047,-99.9375 354.293,-106.933"/>
<text text-anchor="middle" x="289" y="-141" font-family="Sans" font-size="10.00">requires</text>
</g>
<!-- maven&#45;tools#137 -->
<g id="node59" class="node"><title>maven-tools#137</title>
<a xlink:href="https://github.com/quattor/maven-tools/pull/137" xlink:title="mvnprove: trace the tests, not prove (and include tracing compiletime)" target="_parent">
<polygon fill="#6cc644" stroke="black" points="185,-1338 83,-1338 83,-1284 185,-1284 185,-1338"/>
<text text-anchor="middle" x="134" y="-1315" font-family="Sans" font-size="10.00">pull-request</text>
<text text-anchor="middle" x="134" y="-1302" font-family="Sans" font-size="10.00">maven-tools#137</text>
</a>
</g>
<!-- maven&#45;tools#133 -->
<g id="node61" class="node"><title>maven-tools#133</title>
<polygon fill="lightgrey" stroke="black" points="499,-576.5 397,-576.5 397,-535.5 499,-535.5 499,-576.5"/>
<text text-anchor="middle" x="448" y="-553.5" font-family="Sans" font-size="10.00">maven-tools#133</text>
</g>
<!-- maven&#45;tools#137&#45;&gt;maven&#45;tools#133 -->
<g id="edge48" class="edge"><title>maven-tools#137-&gt;maven-tools#133</title>
<path fill="none" stroke="black" stroke-dasharray="1,5" d="M185.653,-1308.59C209.764,-1304.57 236.505,-1295.37 252,-1275 275.45,-1244.17 243.972,-606.688 270,-578 298.486,-546.603 347.019,-542.379 386.218,-545.306"/>
<polygon fill="black" stroke="black" points="396.223,-546.219 385.855,-549.791 391.244,-545.765 386.265,-545.31 386.265,-545.31 386.265,-545.31 391.244,-545.765 386.674,-540.829 396.223,-546.219 396.223,-546.219"/>
<text text-anchor="middle" x="289" y="-582" font-family="Sans" font-size="10.00">replaces</text>
</g>
<!-- maven&#45;tools#134 -->
<g id="node63" class="node"><title>maven-tools#134</title>
<a xlink:href="https://github.com/quattor/maven-tools/issues/134" xlink:title="tracing guideline" target="_parent">
<ellipse fill="#6cc644" stroke="black" cx="448" cy="-1002" rx="72.832" ry="38.1838"/>
<text text-anchor="middle" x="448" y="-1006" font-family="Sans" font-size="10.00">issue</text>
<text text-anchor="middle" x="448" y="-993" font-family="Sans" font-size="10.00">maven-tools#134</text>
</a>
</g>
<!-- maven&#45;tools#137&#45;&gt;maven&#45;tools#134 -->
<g id="edge50" class="edge"><title>maven-tools#137-&gt;maven-tools#134</title>
<path fill="none" stroke="black" stroke-width="2" d="M185.603,-1307.66C209.248,-1303.38 235.6,-1294.23 252,-1275 289.85,-1230.62 250.943,-1200.13 270,-1145 286.138,-1098.32 288.387,-1081.02 326,-1049 339.365,-1037.62 355.786,-1028.83 372.198,-1022.1"/>
<polygon fill="black" stroke="black" points="373.774,-1025.24 381.838,-1018.37 371.248,-1018.72 373.774,-1025.24"/>
<text text-anchor="middle" x="289" y="-1149" font-family="Sans" font-size="10.00">fixes</text>
</g>
<!-- maven&#45;tools#136 -->
<g id="node64" class="node"><title>maven-tools#136</title>
<a xlink:href="https://github.com/quattor/maven-tools/pull/136" xlink:title="Test/Quattor/Panc: refine valid annotation" target="_parent">
<polygon fill="#6cc644" stroke="black" points="185,-762 83,-762 83,-708 185,-708 185,-762"/>
<text text-anchor="middle" x="134" y="-739" font-family="Sans" font-size="10.00">pull-request</text>
<text text-anchor="middle" x="134" y="-726" font-family="Sans" font-size="10.00">maven-tools#136</text>
</a>
</g>
<!-- maven&#45;tools#140 -->
<g id="node66" class="node"><title>maven-tools#140</title>
<a xlink:href="https://github.com/quattor/maven-tools/issues/140" xlink:title="/Test/Quattor/Panc.pm: annotation regexp is incorrect" target="_parent">
<ellipse fill="#6cc644" stroke="black" cx="448" cy="-38" rx="72.832" ry="38.1838"/>
<text text-anchor="middle" x="448" y="-42" font-family="Sans" font-size="10.00">issue</text>
<text text-anchor="middle" x="448" y="-29" font-family="Sans" font-size="10.00">maven-tools#140</text>
</a>
</g>
<!-- maven&#45;tools#136&#45;&gt;maven&#45;tools#140 -->
<g id="edge52" class="edge"><title>maven-tools#136-&gt;maven-tools#140</title>
<path fill="none" stroke="black" stroke-width="2" d="M136.249,-707.712C145.816,-597.963 186.51,-190.223 270,-97 294.414,-69.7399 331.705,-55.0439 365.859,-47.1341"/>
<polygon fill="black" stroke="black" points="366.824,-50.5067 375.866,-44.9846 365.354,-43.6629 366.824,-50.5067"/>
<text text-anchor="middle" x="289" y="-101" font-family="Sans" font-size="10.00">fixes</text>
</g>
<!-- template&#45;library&#45;core#153 -->
<g id="node67" class="node"><title>template-library-core#153</title>
<a xlink:href="https://github.com/quattor/template-library-core/pull/153" xlink:title="blockdevices schema: add support for esp partition flag" target="_parent">
<polygon fill="#6e5494" stroke="black" points="203,-1482 65,-1482 65,-1428 203,-1428 203,-1482"/>
<text text-anchor="middle" x="134" y="-1459" font-family="Sans" font-size="10.00">pull-request</text>
<text text-anchor="middle" x="134" y="-1446" font-family="Sans" font-size="10.00">template-library-core#153</text>
</a>
</g>
<!-- template&#45;library&#45;core#152 -->
<g id="node69" class="node"><title>template-library-core#152</title>
<a xlink:href="https://github.com/quattor/template-library-core/issues/152" xlink:title="update partition flags" target="_parent">
<ellipse fill="#bd2c00" stroke="black" cx="448" cy="-1284" rx="97.0803" ry="38.1838"/>
<text text-anchor="middle" x="448" y="-1288" font-family="Sans" font-size="10.00">issue</text>
<text text-anchor="middle" x="448" y="-1275" font-family="Sans" font-size="10.00">template-library-core#152</text>
</a>
</g>
<!-- template&#45;library&#45;core#153&#45;&gt;template&#45;library&#45;core#152 -->
<g id="edge54" class="edge"><title>template-library-core#153-&gt;template-library-core#152</title>
<path fill="none" stroke="black" stroke-width="2" d="M203.127,-1441.13C219.974,-1435.85 237.346,-1428.68 252,-1419 294.636,-1390.83 284.4,-1360.68 326,-1331 336.675,-1323.38 348.746,-1316.81 361.038,-1311.2"/>
<polygon fill="black" stroke="black" points="362.692,-1314.3 370.462,-1307.1 359.896,-1307.88 362.692,-1314.3"/>
<text text-anchor="middle" x="289" y="-1408" font-family="Sans" font-size="10.00">fixes</text>
</g>
<!-- template&#45;library&#45;core#148 -->
<g id="node73" class="node"><title>template-library-core#148</title>
<a xlink:href="https://github.com/quattor/template-library-core/issues/148" xlink:title="quattor/functions/network: boot_nic returns last, not first boot device" target="_parent">
<ellipse fill="#6cc644" stroke="black" cx="936" cy="-1531" rx="97.0803" ry="38.1838"/>
<text text-anchor="middle" x="936" y="-1535" font-family="Sans" font-size="10.00">issue</text>
<text text-anchor="middle" x="936" y="-1522" font-family="Sans" font-size="10.00">template-library-core#148</text>
</a>
</g>
<!-- template&#45;library&#45;core#150&#45;&gt;template&#45;library&#45;core#148 -->
<g id="edge58" class="edge"><title>template-library-core#150-&gt;template-library-core#148</title>
<path fill="none" stroke="black" stroke-width="2" d="M780.037,-1547.64C796.342,-1545.9 814.088,-1544 831.572,-1542.14"/>
<polygon fill="black" stroke="black" points="832.251,-1545.59 841.823,-1541.05 831.508,-1538.63 832.251,-1545.59"/>
<text text-anchor="middle" x="809" y="-1550" font-family="Sans" font-size="10.00">fixes</text>
</g>
<!-- template&#45;library&#45;core#149 -->
<g id="node75" class="node"><title>template-library-core#149</title>
<a xlink:href="https://github.com/quattor/template-library-core/issues/149" xlink:title="remove get_subnet_params from quattor/functions/network" target="_parent">
<ellipse fill="#6cc644" stroke="black" cx="936" cy="-1625" rx="97.0803" ry="38.1838"/>
<text text-anchor="middle" x="936" y="-1629" font-family="Sans" font-size="10.00">issue</text>
<text text-anchor="middle" x="936" y="-1616" font-family="Sans" font-size="10.00">template-library-core#149</text>
</a>
</g>
<!-- template&#45;library&#45;core#150&#45;&gt;template&#45;library&#45;core#149 -->
<g id="edge60" class="edge"><title>template-library-core#150-&gt;template-library-core#149</title>
<path fill="none" stroke="black" stroke-width="2" d="M780.037,-1576.48C802.078,-1583.34 826.749,-1591.01 849.85,-1598.2"/>
<polygon fill="black" stroke="black" points="849.054,-1601.62 859.642,-1601.24 851.133,-1594.93 849.054,-1601.62"/>
<text text-anchor="middle" x="809" y="-1592" font-family="Sans" font-size="10.00">fixes</text>
</g>
</g>
</svg>
