<?xml version="1.0" encoding="UTF-8" standalone="no"?>
<?xml-stylesheet href="relationships.css" type="text/css"?>
<!-- Generated by graphviz version 2.26.0 (20091210.2329)
 -->
<!-- Title: Dependencies Pages: 1 -->
<svg xmlns="http://www.w3.org/2000/svg" xmlns:xlink="http://www.w3.org/1999/xlink" width="788pt" height="2682pt" viewBox="0.00 0.00 788.00 2682.00">
<g id="graph1" class="graph" transform="scale(1 1) rotate(0) translate(4 2678)">
<title>Dependencies</title>
<polygon fill="white" stroke="white" points="-4,5 -4,-2678 785,-2678 785,5 -4,5"/>
<g id="graph3" class="cluster"><title>cluster_milestone_18.12</title>
<polygon fill="none" stroke="black" points="24,-361 24,-2081 772,-2081 772,-361 24,-361"/>
<text text-anchor="middle" x="398" y="-2066.2" font-family="Sans" font-size="12.00">18.12</text>
</g>
<g id="graph4" class="cluster"><title>cluster_milestone_19.2</title>
<polygon fill="none" stroke="black" points="70,-8 70,-196 490,-196 490,-8 70,-8"/>
<text text-anchor="middle" x="280" y="-181.2" font-family="Sans" font-size="12.00">19.2</text>
</g>
<g id="graph5" class="cluster"><title>cluster_repo_aquilon</title>
<polygon fill="none" stroke="black" points="57,-2334 57,-2666 497,-2666 497,-2334 57,-2334"/>
<text text-anchor="middle" x="277" y="-2651.2" font-family="Sans" font-size="12.00">aquilon</text>
</g>
<!-- aii#299 -->
<g id="node1" class="node"><title>aii#299</title>
<a xlink:href="https://github.com/quattor/aii/pull/299" xlink:title="aii-dhcp: support optional hostname ip verification" target="_parent">
<polygon fill="#6cc644" stroke="black" points="157,-164 79,-164 79,-110 157,-110 157,-164"/>
<text text-anchor="middle" x="118" y="-141" font-family="Sans" font-size="10.00">pull-request</text>
<text text-anchor="middle" x="118" y="-128" font-family="Sans" font-size="10.00">aii#299</text>
</a>
</g>
<!-- aii#296 -->
<g id="node3" class="node"><title>aii#296</title>
<a xlink:href="https://github.com/quattor/aii/pull/296" xlink:title="DHCP plugin updates" target="_parent">
<polygon fill="#6cc644" stroke="black" points="471,-164 393,-164 393,-110 471,-110 471,-164"/>
<text text-anchor="middle" x="432" y="-141" font-family="Sans" font-size="10.00">pull-request</text>
<text text-anchor="middle" x="432" y="-128" font-family="Sans" font-size="10.00">aii#296</text>
</a>
</g>
<!-- aii#299&#45;&gt;aii#296 -->
<g id="edge2" class="edge"><title>aii#299-&gt;aii#296</title>
<path fill="none" stroke="black" stroke-dasharray="5,2" d="M157.571,-135.897C184.705,-135.197 221.529,-134.358 254,-134 297.318,-133.522 346.561,-134.467 382.256,-135.42"/>
<polygon fill="none" stroke="black" points="382.318,-138.923 392.411,-135.701 382.512,-131.925 382.318,-138.923"/>
<text text-anchor="middle" x="273" y="-138" font-family="Sans" font-size="10.00">requires</text>
</g>
<!-- aii#294 -->
<g id="node4" class="node"><title>aii#294</title>
<a xlink:href="https://github.com/quattor/aii/pull/294" xlink:title="aii: ks: disable selinux with kernel param" target="_parent">
<polygon fill="#6e5494" stroke="black" points="157,-2038 79,-2038 79,-1984 157,-1984 157,-2038"/>
<text text-anchor="middle" x="118" y="-2015" font-family="Sans" font-size="10.00">pull-request</text>
<text text-anchor="middle" x="118" y="-2002" font-family="Sans" font-size="10.00">aii#294</text>
</a>
</g>
<!-- aii#293 -->
<g id="node6" class="node"><title>aii#293</title>
<a xlink:href="https://github.com/quattor/aii/issues/293" xlink:title="Disabling selinux during OS installation does not work with CentOS 7.5" target="_parent">
<ellipse fill="#bd2c00" stroke="black" cx="432" cy="-2011" rx="41.2167" ry="38.1838"/>
<text text-anchor="middle" x="432" y="-2015" font-family="Sans" font-size="10.00">issue</text>
<text text-anchor="middle" x="432" y="-2002" font-family="Sans" font-size="10.00">aii#293</text>
</a>
</g>
<!-- aii#294&#45;&gt;aii#293 -->
<g id="edge4" class="edge"><title>aii#294-&gt;aii#293</title>
<path fill="none" stroke="black" stroke-width="2" d="M157.571,-2009.9C184.705,-2009.2 221.529,-2008.36 254,-2008 296.474,-2007.53 344.645,-2008.43 380.154,-2009.36"/>
<polygon fill="black" stroke="black" points="380.191,-2012.87 390.282,-2009.64 380.381,-2005.87 380.191,-2012.87"/>
<text text-anchor="middle" x="273" y="-2012" font-family="Sans" font-size="10.00">fixes</text>
</g>
<!-- aii#291 -->
<g id="node7" class="node"><title>aii#291</title>
<a xlink:href="https://github.com/quattor/aii/pull/291" xlink:title="aii-installfe: add support for --cdburl" target="_parent">
<polygon fill="#6e5494" stroke="black" points="157,-1944 79,-1944 79,-1890 157,-1890 157,-1944"/>
<text text-anchor="middle" x="118" y="-1921" font-family="Sans" font-size="10.00">pull-request</text>
<text text-anchor="middle" x="118" y="-1908" font-family="Sans" font-size="10.00">aii#291</text>
</a>
</g>
<!-- aii#290 -->
<g id="node9" class="node"><title>aii#290</title>
<a xlink:href="https://github.com/quattor/aii/issues/290" xlink:title="18.6.0: aii-installfe should allow to define cdburl" target="_parent">
<ellipse fill="#bd2c00" stroke="black" cx="432" cy="-1917" rx="41.2167" ry="38.1838"/>
<text text-anchor="middle" x="432" y="-1921" font-family="Sans" font-size="10.00">issue</text>
<text text-anchor="middle" x="432" y="-1908" font-family="Sans" font-size="10.00">aii#290</text>
</a>
</g>
<!-- aii#291&#45;&gt;aii#290 -->
<g id="edge6" class="edge"><title>aii#291-&gt;aii#290</title>
<path fill="none" stroke="black" stroke-width="2" d="M157.768,-1917C214.279,-1917 317.868,-1917 380.284,-1917"/>
<polygon fill="black" stroke="black" points="380.31,-1920.5 390.31,-1917 380.31,-1913.5 380.31,-1920.5"/>
<text text-anchor="middle" x="273" y="-1921" font-family="Sans" font-size="10.00">fixes</text>
</g>
<!-- aii#280 -->
<g id="node10" class="node"><title>aii#280</title>
<a xlink:href="https://github.com/quattor/aii/pull/280" xlink:title="Support active configuration attribute for plugins" target="_parent">
<polygon fill="#6cc644" stroke="black" points="157,-500 79,-500 79,-446 157,-446 157,-500"/>
<text text-anchor="middle" x="118" y="-477" font-family="Sans" font-size="10.00">pull-request</text>
<text text-anchor="middle" x="118" y="-464" font-family="Sans" font-size="10.00">aii#280</text>
</a>
</g>
<!-- aii#209 -->
<g id="node12" class="node"><title>aii#209</title>
<a xlink:href="https://github.com/quattor/aii/issues/209" xlink:title="support ACTIVE_CONFIG" target="_parent">
<ellipse fill="#6cc644" stroke="black" cx="432" cy="-479" rx="41.2167" ry="38.1838"/>
<text text-anchor="middle" x="432" y="-483" font-family="Sans" font-size="10.00">issue</text>
<text text-anchor="middle" x="432" y="-470" font-family="Sans" font-size="10.00">aii#209</text>
</a>
</g>
<!-- aii#280&#45;&gt;aii#209 -->
<g id="edge8" class="edge"><title>aii#280-&gt;aii#209</title>
<path fill="none" stroke="black" stroke-width="2" d="M157.768,-473.76C214.279,-474.84 317.868,-476.819 380.284,-478.012"/>
<polygon fill="black" stroke="black" points="380.244,-481.512 390.31,-478.203 380.378,-474.513 380.244,-481.512"/>
<text text-anchor="middle" x="273" y="-481" font-family="Sans" font-size="10.00">fixes</text>
</g>
<!-- ncm&#45;ncd#74 -->
<g id="node14" class="node"><title>ncm-ncd#74</title>
<a xlink:href="https://github.com/quattor/ncm-ncd/pull/74" xlink:title="Set the current active config as an attribute to the component" target="_parent">
<polygon fill="#6e5494" stroke="black" points="473,-589 391,-589 391,-535 473,-535 473,-589"/>
<text text-anchor="middle" x="432" y="-566" font-family="Sans" font-size="10.00">pull-request</text>
<text text-anchor="middle" x="432" y="-553" font-family="Sans" font-size="10.00">ncm-ncd#74</text>
</a>
</g>
<!-- aii#280&#45;&gt;ncm&#45;ncd#74 -->
<g id="edge10" class="edge"><title>aii#280-&gt;ncm-ncd#74</title>
<path fill="none" stroke="black" stroke-dasharray="5,2" d="M157.768,-484.272C214.552,-500.367 318.871,-529.935 381.186,-547.597"/>
<polygon fill="none" stroke="black" points="380.237,-550.966 390.813,-550.326 382.146,-544.231 380.237,-550.966"/>
<text text-anchor="middle" x="273" y="-525" font-family="Sans" font-size="10.00">requires</text>
</g>
<!-- aii#203 -->
<g id="node16" class="node"><title>aii#203</title>
<polygon fill="lightgrey" stroke="black" points="461,-351.5 403,-351.5 403,-310.5 461,-310.5 461,-351.5"/>
<text text-anchor="middle" x="432" y="-328.5" font-family="Sans" font-size="10.00">aii#203</text>
</g>
<!-- aii#280&#45;&gt;aii#203 -->
<g id="edge12" class="edge"><title>aii#280-&gt;aii#203</title>
<path fill="none" stroke="black" stroke-dasharray="5,2" d="M157.776,-468.215C183.213,-463.192 215.217,-452.929 236,-432 253.529,-414.348 236.827,-396.999 254,-379 272.46,-359.653 284.392,-364.702 310,-357 337.129,-348.841 368.388,-342.231 392.472,-337.718"/>
<polygon fill="none" stroke="black" points="393.116,-341.159 402.322,-335.914 391.855,-334.273 393.116,-341.159"/>
<text text-anchor="middle" x="273" y="-383" font-family="Sans" font-size="10.00">requires</text>
</g>
<!-- aii#210 -->
<g id="node18" class="node"><title>aii#210</title>
<polygon fill="lightgrey" stroke="black" points="461,-293.5 403,-293.5 403,-252.5 461,-252.5 461,-293.5"/>
<text text-anchor="middle" x="432" y="-270.5" font-family="Sans" font-size="10.00">aii#210</text>
</g>
<!-- aii#280&#45;&gt;aii#210 -->
<g id="edge14" class="edge"><title>aii#280-&gt;aii#210</title>
<path fill="none" stroke="black" stroke-dasharray="1,5" d="M157.518,-469.237C183.514,-464.653 216.261,-454.497 236,-432 262.042,-402.32 233.026,-378.455 254,-345 270.668,-318.413 281.664,-315.482 310,-302 336.06,-289.6 367.844,-282.266 392.437,-278.077"/>
<polygon fill="black" stroke="black" points="402.498,-276.468 393.334,-282.49 397.561,-277.257 392.624,-278.047 392.624,-278.047 392.624,-278.047 397.561,-277.257 391.913,-273.603 402.498,-276.468 402.498,-276.468"/>
<text text-anchor="middle" x="273" y="-349" font-family="Sans" font-size="10.00">replaces</text>
</g>
<!-- CAF#257 -->
<g id="node19" class="node"><title>CAF#257</title>
<a xlink:href="https://github.com/quattor/CAF/pull/257" xlink:title="Process: run process as another user" target="_parent">
<polygon fill="#6cc644" stroke="black" points="157,-81 79,-81 79,-27 157,-27 157,-81"/>
<text text-anchor="middle" x="118" y="-58" font-family="Sans" font-size="10.00">pull-request</text>
<text text-anchor="middle" x="118" y="-45" font-family="Sans" font-size="10.00">CAF#257</text>
</a>
</g>
<!-- CAF#253 -->
<g id="node21" class="node"><title>CAF#253</title>
<a xlink:href="https://github.com/quattor/CAF/issues/253" xlink:title="CAF::Process: Include an option to execute the command as an specific user" target="_parent">
<ellipse fill="#6cc644" stroke="black" cx="432" cy="-54" rx="48.9975" ry="38.1838"/>
<text text-anchor="middle" x="432" y="-58" font-family="Sans" font-size="10.00">issue</text>
<text text-anchor="middle" x="432" y="-45" font-family="Sans" font-size="10.00">CAF#253</text>
</a>
</g>
<!-- CAF#257&#45;&gt;CAF#253 -->
<g id="edge16" class="edge"><title>CAF#257-&gt;CAF#253</title>
<path fill="none" stroke="black" stroke-width="2" d="M157.768,-54C211.934,-54 309.353,-54 372.308,-54"/>
<polygon fill="black" stroke="black" points="372.488,-57.5001 382.488,-54 372.488,-50.5001 372.488,-57.5001"/>
<text text-anchor="middle" x="273" y="-58" font-family="Sans" font-size="10.00">fixes</text>
</g>
<!-- CAF#110 -->
<g id="node22" class="node"><title>CAF#110</title>
<a xlink:href="https://github.com/quattor/CAF/pull/110" xlink:title="CAF::Download class: API proposal" target="_parent">
<polygon fill="#6cc644" stroke="black" points="157,-2143 79,-2143 79,-2089 157,-2089 157,-2143"/>
<text text-anchor="middle" x="118" y="-2120" font-family="Sans" font-size="10.00">pull-request</text>
<text text-anchor="middle" x="118" y="-2107" font-family="Sans" font-size="10.00">CAF#110</text>
</a>
</g>
<!-- CAF#120 -->
<g id="node24" class="node"><title>CAF#120</title>
<polygon fill="lightgrey" stroke="black" points="467,-2136.5 397,-2136.5 397,-2095.5 467,-2095.5 467,-2136.5"/>
<text text-anchor="middle" x="432" y="-2113.5" font-family="Sans" font-size="10.00">CAF#120</text>
</g>
<!-- CAF#110&#45;&gt;CAF#120 -->
<g id="edge18" class="edge"><title>CAF#110-&gt;CAF#120</title>
<path fill="none" stroke="black" stroke-dasharray="5,2" d="M157.768,-2116C216.269,-2116 325.221,-2116 386.719,-2116"/>
<polygon fill="none" stroke="black" points="386.897,-2119.5 396.897,-2116 386.897,-2112.5 386.897,-2119.5"/>
<text text-anchor="middle" x="273" y="-2120" font-family="Sans" font-size="10.00">requires</text>
</g>
<!-- CCM#186 -->
<g id="node25" class="node"><title>CCM#186</title>
<a xlink:href="https://github.com/quattor/CCM/pull/186" xlink:title="TextRender: add support for jsonpretty type" target="_parent">
<polygon fill="#6e5494" stroke="black" points="471,-423 393,-423 393,-369 471,-369 471,-423"/>
<text text-anchor="middle" x="432" y="-400" font-family="Sans" font-size="10.00">pull-request</text>
<text text-anchor="middle" x="432" y="-387" font-family="Sans" font-size="10.00">CCM#186</text>
</a>
</g>
<!-- CAF#265 -->
<g id="node27" class="node"><title>CAF#265</title>
<polygon fill="lightgrey" stroke="black" points="730,-293.5 660,-293.5 660,-252.5 730,-252.5 730,-293.5"/>
<text text-anchor="middle" x="695" y="-270.5" font-family="Sans" font-size="10.00">CAF#265</text>
</g>
<!-- CCM#186&#45;&gt;CAF#265 -->
<g id="edge20" class="edge"><title>CCM#186-&gt;CAF#265</title>
<path fill="none" stroke="black" stroke-dasharray="5,2" d="M471.549,-389.384C495.974,-384.47 527.584,-376.59 554,-365 593.538,-347.652 634.395,-319.692 661.883,-299.143"/>
<polygon fill="none" stroke="black" points="664.107,-301.85 669.969,-293.024 659.883,-296.268 664.107,-301.85"/>
<text text-anchor="middle" x="590" y="-360" font-family="Sans" font-size="10.00">requires</text>
</g>
<!-- configuration&#45;modules&#45;core#1345 -->
<g id="node28" class="node"><title>configuration-modules-core#1345</title>
<a xlink:href="https://github.com/quattor/configuration-modules-core/pull/1345" xlink:title="ncm-metaconfig: add libvirt guests setup" target="_parent">
<polygon fill="#6e5494" stroke="black" points="204,-1850 32,-1850 32,-1796 204,-1796 204,-1850"/>
<text text-anchor="middle" x="118" y="-1827" font-family="Sans" font-size="10.00">pull-request</text>
<text text-anchor="middle" x="118" y="-1814" font-family="Sans" font-size="10.00">configuration-modules-core#1345</text>
</a>
</g>
<!-- configuration&#45;modules&#45;core#1287 -->
<g id="node30" class="node"><title>configuration-modules-core#1287</title>
<a xlink:href="https://github.com/quattor/configuration-modules-core/issues/1287" xlink:title="ncm-metaconfig: add libvirtd libvirt-guests configuration" target="_parent">
<ellipse fill="#bd2c00" stroke="black" cx="432" cy="-1823" rx="121.122" ry="38.1838"/>
<text text-anchor="middle" x="432" y="-1827" font-family="Sans" font-size="10.00">issue</text>
<text text-anchor="middle" x="432" y="-1814" font-family="Sans" font-size="10.00">configuration-modules-core#1287</text>
</a>
</g>
<!-- configuration&#45;modules&#45;core#1345&#45;&gt;configuration&#45;modules&#45;core#1287 -->
<g id="edge22" class="edge"><title>configuration-modules-core#1345-&gt;configuration-modules-core#1287</title>
<path fill="none" stroke="black" stroke-width="2" d="M204.217,-1823C233.916,-1823 267.888,-1823 300.372,-1823"/>
<polygon fill="black" stroke="black" points="300.399,-1826.5 310.399,-1823 300.399,-1819.5 300.399,-1826.5"/>
<text text-anchor="middle" x="273" y="-1827" font-family="Sans" font-size="10.00">fixes</text>
</g>
<!-- configuration&#45;modules&#45;core#1341 -->
<g id="node31" class="node"><title>configuration-modules-core#1341</title>
<a xlink:href="https://github.com/quattor/configuration-modules-core/pull/1341" xlink:title="ncm-metaconfig: switch to CAF::ServiceActions" target="_parent">
<polygon fill="#6cc644" stroke="black" points="204,-1767 32,-1767 32,-1713 204,-1713 204,-1767"/>
<text text-anchor="middle" x="118" y="-1744" font-family="Sans" font-size="10.00">pull-request</text>
<text text-anchor="middle" x="118" y="-1731" font-family="Sans" font-size="10.00">configuration-modules-core#1341</text>
</a>
</g>
<!-- CAF#267 -->
<g id="node33" class="node"><title>CAF#267</title>
<a xlink:href="https://github.com/quattor/CAF/pull/267" xlink:title="ServiceActions: handle multiple service actions" target="_parent">
<polygon fill="#6cc644" stroke="black" points="471,-1767 393,-1767 393,-1713 471,-1713 471,-1767"/>
<text text-anchor="middle" x="432" y="-1744" font-family="Sans" font-size="10.00">pull-request</text>
<text text-anchor="middle" x="432" y="-1731" font-family="Sans" font-size="10.00">CAF#267</text>
</a>
</g>
<!-- configuration&#45;modules&#45;core#1341&#45;&gt;CAF#267 -->
<g id="edge24" class="edge"><title>configuration-modules-core#1341-&gt;CAF#267</title>
<path fill="none" stroke="black" stroke-dasharray="5,2" d="M204.217,-1740C261.388,-1740 334.397,-1740 382.136,-1740"/>
<polygon fill="none" stroke="black" points="382.221,-1743.5 392.22,-1740 382.22,-1736.5 382.221,-1743.5"/>
<text text-anchor="middle" x="273" y="-1744" font-family="Sans" font-size="10.00">requires</text>
</g>
<!-- configuration&#45;modules&#45;core#1336 -->
<g id="node34" class="node"><title>configuration-modules-core#1336</title>
<a xlink:href="https://github.com/quattor/configuration-modules-core/pull/1336" xlink:title="ncm-network: Add support for CAF::Service actions after changes" target="_parent">
<polygon fill="#6cc644" stroke="black" points="204,-1643 32,-1643 32,-1589 204,-1589 204,-1643"/>
<text text-anchor="middle" x="118" y="-1620" font-family="Sans" font-size="10.00">pull-request</text>
<text text-anchor="middle" x="118" y="-1607" font-family="Sans" font-size="10.00">configuration-modules-core#1336</text>
</a>
</g>
<!-- configuration&#45;modules&#45;core#1335 -->
<g id="node36" class="node"><title>configuration-modules-core#1335</title>
<a xlink:href="https://github.com/quattor/configuration-modules-core/pull/1335" xlink:title="ncm-metaconfig: Remove caf_service_action type to allow reuse" target="_parent">
<polygon fill="#6cc644" stroke="black" points="518,-1601 346,-1601 346,-1547 518,-1547 518,-1601"/>
<text text-anchor="middle" x="432" y="-1578" font-family="Sans" font-size="10.00">pull-request</text>
<text text-anchor="middle" x="432" y="-1565" font-family="Sans" font-size="10.00">configuration-modules-core#1335</text>
</a>
</g>
<!-- configuration&#45;modules&#45;core#1336&#45;&gt;configuration&#45;modules&#45;core#1335 -->
<g id="edge26" class="edge"><title>configuration-modules-core#1336-&gt;configuration-modules-core#1335</title>
<path fill="none" stroke="black" stroke-dasharray="5,2" d="M204.217,-1604.47C245.061,-1599 293.988,-1592.46 336.009,-1586.84"/>
<polygon fill="none" stroke="black" points="336.527,-1590.3 345.975,-1585.51 335.599,-1583.36 336.527,-1590.3"/>
<text text-anchor="middle" x="273" y="-1602" font-family="Sans" font-size="10.00">requires</text>
</g>
<!-- configuration&#45;modules&#45;core#1071 -->
<g id="node38" class="node"><title>configuration-modules-core#1071</title>
<a xlink:href="https://github.com/quattor/configuration-modules-core/issues/1071" xlink:title="ncm-network: support daemons to restart after network changes" target="_parent">
<ellipse fill="#6cc644" stroke="black" cx="432" cy="-1657" rx="121.122" ry="38.1838"/>
<text text-anchor="middle" x="432" y="-1661" font-family="Sans" font-size="10.00">issue</text>
<text text-anchor="middle" x="432" y="-1648" font-family="Sans" font-size="10.00">configuration-modules-core#1071</text>
</a>
</g>
<!-- configuration&#45;modules&#45;core#1336&#45;&gt;configuration&#45;modules&#45;core#1071 -->
<g id="edge28" class="edge"><title>configuration-modules-core#1336-&gt;configuration-modules-core#1071</title>
<path fill="none" stroke="black" stroke-width="2" d="M204.217,-1627.26C236.688,-1631.5 274.267,-1636.4 309.424,-1640.99"/>
<polygon fill="black" stroke="black" points="309.388,-1644.52 319.757,-1642.34 310.295,-1637.58 309.388,-1644.52"/>
<text text-anchor="middle" x="273" y="-1642" font-family="Sans" font-size="10.00">fixes</text>
</g>
<!-- template&#45;library&#45;core#191 -->
<g id="node40" class="node"><title>template-library-core#191</title>
<a xlink:href="https://github.com/quattor/template-library-core/pull/191" xlink:title="Allow the caf_service_action to be used by multiple components" target="_parent">
<polygon fill="#6cc644" stroke="black" points="764,-1601 626,-1601 626,-1547 764,-1547 764,-1601"/>
<text text-anchor="middle" x="695" y="-1578" font-family="Sans" font-size="10.00">pull-request</text>
<text text-anchor="middle" x="695" y="-1565" font-family="Sans" font-size="10.00">template-library-core#191</text>
</a>
</g>
<!-- configuration&#45;modules&#45;core#1335&#45;&gt;template&#45;library&#45;core#191 -->
<g id="edge30" class="edge"><title>configuration-modules-core#1335-&gt;template-library-core#191</title>
<path fill="none" stroke="black" stroke-dasharray="5,2" d="M518.116,-1574C549.476,-1574 584.762,-1574 615.52,-1574"/>
<polygon fill="none" stroke="black" points="615.766,-1577.5 625.766,-1574 615.765,-1570.5 615.766,-1577.5"/>
<text text-anchor="middle" x="590" y="-1578" font-family="Sans" font-size="10.00">requires</text>
</g>
<!-- configuration&#45;modules&#45;core#1331 -->
<g id="node41" class="node"><title>configuration-modules-core#1331</title>
<a xlink:href="https://github.com/quattor/configuration-modules-core/pull/1331" xlink:title="ncm-cron: Throw an error if multiple cron jobs are defined with the same name" target="_parent">
<polygon fill="#6cc644" stroke="black" points="204,-1518 32,-1518 32,-1464 204,-1464 204,-1518"/>
<text text-anchor="middle" x="118" y="-1495" font-family="Sans" font-size="10.00">pull-request</text>
<text text-anchor="middle" x="118" y="-1482" font-family="Sans" font-size="10.00">configuration-modules-core#1331</text>
</a>
</g>
<!-- configuration&#45;modules&#45;core#1228 -->
<g id="node43" class="node"><title>configuration-modules-core#1228</title>
<a xlink:href="https://github.com/quattor/configuration-modules-core/issues/1228" xlink:title="ncm-cron: Catch cron entries with duplicate names at build time" target="_parent">
<ellipse fill="#6cc644" stroke="black" cx="432" cy="-1491" rx="121.122" ry="38.1838"/>
<text text-anchor="middle" x="432" y="-1495" font-family="Sans" font-size="10.00">issue</text>
<text text-anchor="middle" x="432" y="-1482" font-family="Sans" font-size="10.00">configuration-modules-core#1228</text>
</a>
</g>
<!-- configuration&#45;modules&#45;core#1331&#45;&gt;configuration&#45;modules&#45;core#1228 -->
<g id="edge32" class="edge"><title>configuration-modules-core#1331-&gt;configuration-modules-core#1228</title>
<path fill="none" stroke="black" stroke-width="2" d="M204.217,-1491C233.916,-1491 267.888,-1491 300.372,-1491"/>
<polygon fill="black" stroke="black" points="300.399,-1494.5 310.399,-1491 300.399,-1487.5 300.399,-1494.5"/>
<text text-anchor="middle" x="273" y="-1495" font-family="Sans" font-size="10.00">fixes</text>
</g>
<!-- configuration&#45;modules&#45;core#1308 -->
<g id="node44" class="node"><title>configuration-modules-core#1308</title>
<a xlink:href="https://github.com/quattor/configuration-modules-core/pull/1308" xlink:title="ncm-network: no error wrt missing (IPv4) ip and netmask in a pure IPv6 config" target="_parent">
<polygon fill="#6e5494" stroke="black" points="204,-1424 32,-1424 32,-1370 204,-1370 204,-1424"/>
<text text-anchor="middle" x="118" y="-1401" font-family="Sans" font-size="10.00">pull-request</text>
<text text-anchor="middle" x="118" y="-1388" font-family="Sans" font-size="10.00">configuration-modules-core#1308</text>
</a>
</g>
<!-- configuration&#45;modules&#45;core#1296 -->
<g id="node46" class="node"><title>configuration-modules-core#1296</title>
<a xlink:href="https://github.com/quattor/configuration-modules-core/issues/1296" xlink:title="ncm-network: Returns an error when an interface is configured as IPv6 only" target="_parent">
<ellipse fill="#bd2c00" stroke="black" cx="432" cy="-1397" rx="121.122" ry="38.1838"/>
<text text-anchor="middle" x="432" y="-1401" font-family="Sans" font-size="10.00">issue</text>
<text text-anchor="middle" x="432" y="-1388" font-family="Sans" font-size="10.00">configuration-modules-core#1296</text>
</a>
</g>
<!-- configuration&#45;modules&#45;core#1308&#45;&gt;configuration&#45;modules&#45;core#1296 -->
<g id="edge34" class="edge"><title>configuration-modules-core#1308-&gt;configuration-modules-core#1296</title>
<path fill="none" stroke="black" stroke-width="2" d="M204.217,-1397C233.916,-1397 267.888,-1397 300.372,-1397"/>
<polygon fill="black" stroke="black" points="300.399,-1400.5 310.399,-1397 300.399,-1393.5 300.399,-1400.5"/>
<text text-anchor="middle" x="273" y="-1401" font-family="Sans" font-size="10.00">fixes</text>
</g>
<!-- configuration&#45;modules&#45;core#1299 -->
<g id="node47" class="node"><title>configuration-modules-core#1299</title>
<a xlink:href="https://github.com/quattor/configuration-modules-core/pull/1299" xlink:title="ncm-sysconfig: Automatically quote values containing whitespace" target="_parent">
<polygon fill="#6cc644" stroke="black" points="204,-1330 32,-1330 32,-1276 204,-1276 204,-1330"/>
<text text-anchor="middle" x="118" y="-1307" font-family="Sans" font-size="10.00">pull-request</text>
<text text-anchor="middle" x="118" y="-1294" font-family="Sans" font-size="10.00">configuration-modules-core#1299</text>
</a>
</g>
<!-- configuration&#45;modules&#45;core#1191 -->
<g id="node49" class="node"><title>configuration-modules-core#1191</title>
<a xlink:href="https://github.com/quattor/configuration-modules-core/issues/1191" xlink:title="ncm-sysconfig: Values should be quoted" target="_parent">
<ellipse fill="#6cc644" stroke="black" cx="432" cy="-1303" rx="121.122" ry="38.1838"/>
<text text-anchor="middle" x="432" y="-1307" font-family="Sans" font-size="10.00">issue</text>
<text text-anchor="middle" x="432" y="-1294" font-family="Sans" font-size="10.00">configuration-modules-core#1191</text>
</a>
</g>
<!-- configuration&#45;modules&#45;core#1299&#45;&gt;configuration&#45;modules&#45;core#1191 -->
<g id="edge36" class="edge"><title>configuration-modules-core#1299-&gt;configuration-modules-core#1191</title>
<path fill="none" stroke="black" stroke-width="2" d="M204.217,-1303C233.916,-1303 267.888,-1303 300.372,-1303"/>
<polygon fill="black" stroke="black" points="300.399,-1306.5 310.399,-1303 300.399,-1299.5 300.399,-1306.5"/>
<text text-anchor="middle" x="273" y="-1307" font-family="Sans" font-size="10.00">fixes</text>
</g>
<!-- configuration&#45;modules&#45;core#1279 -->
<g id="node50" class="node"><title>configuration-modules-core#1279</title>
<a xlink:href="https://github.com/quattor/configuration-modules-core/pull/1279" xlink:title="ncm-metaconfig: ganeshav2 add include" target="_parent">
<polygon fill="#6e5494" stroke="black" points="204,-1236 32,-1236 32,-1182 204,-1182 204,-1236"/>
<text text-anchor="middle" x="118" y="-1213" font-family="Sans" font-size="10.00">pull-request</text>
<text text-anchor="middle" x="118" y="-1200" font-family="Sans" font-size="10.00">configuration-modules-core#1279</text>
</a>
</g>
<!-- configuration&#45;modules&#45;core#1276 -->
<g id="node52" class="node"><title>configuration-modules-core#1276</title>
<a xlink:href="https://github.com/quattor/configuration-modules-core/issues/1276" xlink:title="ncm-metaconfig: Ganesha v2 %include option is missing" target="_parent">
<ellipse fill="#bd2c00" stroke="black" cx="432" cy="-1209" rx="121.122" ry="38.1838"/>
<text text-anchor="middle" x="432" y="-1213" font-family="Sans" font-size="10.00">issue</text>
<text text-anchor="middle" x="432" y="-1200" font-family="Sans" font-size="10.00">configuration-modules-core#1276</text>
</a>
</g>
<!-- configuration&#45;modules&#45;core#1279&#45;&gt;configuration&#45;modules&#45;core#1276 -->
<g id="edge38" class="edge"><title>configuration-modules-core#1279-&gt;configuration-modules-core#1276</title>
<path fill="none" stroke="black" stroke-width="2" d="M204.217,-1209C233.916,-1209 267.888,-1209 300.372,-1209"/>
<polygon fill="black" stroke="black" points="300.399,-1212.5 310.399,-1209 300.399,-1205.5 300.399,-1212.5"/>
<text text-anchor="middle" x="273" y="-1213" font-family="Sans" font-size="10.00">fixes</text>
</g>
<!-- configuration&#45;modules&#45;core#1261 -->
<g id="node53" class="node"><title>configuration-modules-core#1261</title>
<a xlink:href="https://github.com/quattor/configuration-modules-core/pull/1261" xlink:title="ncm-openstack: Include ovs and storage support" target="_parent">
<polygon fill="#6cc644" stroke="black" points="204,-1094 32,-1094 32,-1040 204,-1040 204,-1094"/>
<text text-anchor="middle" x="118" y="-1071" font-family="Sans" font-size="10.00">pull-request</text>
<text text-anchor="middle" x="118" y="-1058" font-family="Sans" font-size="10.00">configuration-modules-core#1261</text>
</a>
</g>
<!-- configuration&#45;modules&#45;core#1310 -->
<g id="node55" class="node"><title>configuration-modules-core#1310</title>
<a xlink:href="https://github.com/quattor/configuration-modules-core/issues/1310" xlink:title="ncm-openstack: add Heat service support" target="_parent">
<ellipse fill="#6cc644" stroke="black" cx="432" cy="-1021" rx="121.122" ry="38.1838"/>
<text text-anchor="middle" x="432" y="-1025" font-family="Sans" font-size="10.00">issue</text>
<text text-anchor="middle" x="432" y="-1012" font-family="Sans" font-size="10.00">configuration-modules-core#1310</text>
</a>
</g>
<!-- configuration&#45;modules&#45;core#1261&#45;&gt;configuration&#45;modules&#45;core#1310 -->
<g id="edge40" class="edge"><title>configuration-modules-core#1261-&gt;configuration-modules-core#1310</title>
<path fill="none" stroke="black" stroke-width="2" d="M204.217,-1054.37C237.408,-1049.51 275.936,-1043.86 311.76,-1038.61"/>
<polygon fill="black" stroke="black" points="312.398,-1042.06 321.785,-1037.15 311.383,-1035.13 312.398,-1042.06"/>
<text text-anchor="middle" x="273" y="-1051" font-family="Sans" font-size="10.00">fixes</text>
</g>
<!-- configuration&#45;modules&#45;core#1315 -->
<g id="node57" class="node"><title>configuration-modules-core#1315</title>
<a xlink:href="https://github.com/quattor/configuration-modules-core/issues/1315" xlink:title="ncm-openstack: add murano service support" target="_parent">
<ellipse fill="#6cc644" stroke="black" cx="432" cy="-1115" rx="121.122" ry="38.1838"/>
<text text-anchor="middle" x="432" y="-1119" font-family="Sans" font-size="10.00">issue</text>
<text text-anchor="middle" x="432" y="-1106" font-family="Sans" font-size="10.00">configuration-modules-core#1315</text>
</a>
</g>
<!-- configuration&#45;modules&#45;core#1261&#45;&gt;configuration&#45;modules&#45;core#1315 -->
<g id="edge42" class="edge"><title>configuration-modules-core#1261-&gt;configuration-modules-core#1315</title>
<path fill="none" stroke="black" stroke-width="2" d="M204.217,-1080.18C237.657,-1085.29 276.515,-1091.23 312.565,-1096.74"/>
<polygon fill="black" stroke="black" points="312.238,-1100.23 322.652,-1098.28 313.296,-1093.31 312.238,-1100.23"/>
<text text-anchor="middle" x="273" y="-1097" font-family="Sans" font-size="10.00">fixes</text>
</g>
<!-- configuration&#45;modules&#45;core#1255 -->
<g id="node58" class="node"><title>configuration-modules-core#1255</title>
<a xlink:href="https://github.com/quattor/configuration-modules-core/pull/1255" xlink:title=" ncm-metaconfig: add irods config files" target="_parent">
<polygon fill="#6cc644" stroke="black" points="204,-423 32,-423 32,-369 204,-369 204,-423"/>
<text text-anchor="middle" x="118" y="-400" font-family="Sans" font-size="10.00">pull-request</text>
<text text-anchor="middle" x="118" y="-387" font-family="Sans" font-size="10.00">configuration-modules-core#1255</text>
</a>
</g>
<!-- configuration&#45;modules&#45;core#1255&#45;&gt;CCM#186 -->
<g id="edge46" class="edge"><title>configuration-modules-core#1255-&gt;CCM#186</title>
<path fill="none" stroke="black" stroke-dasharray="5,2" d="M204.217,-396C261.388,-396 334.397,-396 382.136,-396"/>
<polygon fill="none" stroke="black" points="382.221,-399.5 392.22,-396 382.22,-392.5 382.221,-399.5"/>
<text text-anchor="middle" x="273" y="-400" font-family="Sans" font-size="10.00">requires</text>
</g>
<!-- configuration&#45;modules&#45;core#1255&#45;&gt;CAF#265 -->
<g id="edge44" class="edge"><title>configuration-modules-core#1255-&gt;CAF#265</title>
<path fill="none" stroke="black" stroke-dasharray="5,2" d="M138.576,-368.931C170.314,-329.682 235.408,-258.648 310,-231 427.204,-187.558 577.212,-229.358 650.574,-255.506"/>
<polygon fill="none" stroke="black" points="649.387,-258.799 659.982,-258.925 651.778,-252.22 649.387,-258.799"/>
<text text-anchor="middle" x="432" y="-235" font-family="Sans" font-size="10.00">requires</text>
</g>
<!-- configuration&#45;modules&#45;core#1148 -->
<g id="node61" class="node"><title>configuration-modules-core#1148</title>
<a xlink:href="https://github.com/quattor/configuration-modules-core/pull/1148" xlink:title="ncm-spma: Remove support from groups from spma yumng backend" target="_parent">
<polygon fill="#6cc644" stroke="black" points="204,-2313 32,-2313 32,-2259 204,-2259 204,-2313"/>
<text text-anchor="middle" x="118" y="-2290" font-family="Sans" font-size="10.00">pull-request</text>
<text text-anchor="middle" x="118" y="-2277" font-family="Sans" font-size="10.00">configuration-modules-core#1148</text>
</a>
</g>
<!-- configuration&#45;modules&#45;core#952 -->
<g id="node63" class="node"><title>configuration-modules-core#952</title>
<a xlink:href="https://github.com/quattor/configuration-modules-core/issues/952" xlink:title="ncm-spma (yumng): Remove support for package groups" target="_parent">
<ellipse fill="#6cc644" stroke="black" cx="432" cy="-2286" rx="118.087" ry="38.1838"/>
<text text-anchor="middle" x="432" y="-2290" font-family="Sans" font-size="10.00">issue</text>
<text text-anchor="middle" x="432" y="-2277" font-family="Sans" font-size="10.00">configuration-modules-core#952</text>
</a>
</g>
<!-- configuration&#45;modules&#45;core#1148&#45;&gt;configuration&#45;modules&#45;core#952 -->
<g id="edge48" class="edge"><title>configuration-modules-core#1148-&gt;configuration-modules-core#952</title>
<path fill="none" stroke="black" stroke-width="2" d="M204.217,-2286C234.903,-2286 270.151,-2286 303.606,-2286"/>
<polygon fill="black" stroke="black" points="303.924,-2289.5 313.924,-2286 303.924,-2282.5 303.924,-2289.5"/>
<text text-anchor="middle" x="273" y="-2290" font-family="Sans" font-size="10.00">fixes</text>
</g>
<!-- configuration&#45;modules&#45;core#950 -->
<g id="node64" class="node"><title>configuration-modules-core#950</title>
<a xlink:href="https://github.com/quattor/configuration-modules-core/issues/950" xlink:title="ncm-spma: Remove support for package groups from yum backends" target="_parent">
<ellipse fill="#6cc644" stroke="black" cx="118" cy="-2201" rx="118.087" ry="38.1838"/>
<text text-anchor="middle" x="118" y="-2205" font-family="Sans" font-size="10.00">issue</text>
<text text-anchor="middle" x="118" y="-2192" font-family="Sans" font-size="10.00">configuration-modules-core#950</text>
</a>
</g>
<!-- configuration&#45;modules&#45;core#950&#45;&gt;configuration&#45;modules&#45;core#952 -->
<g id="edge52" class="edge"><title>configuration-modules-core#950-&gt;configuration-modules-core#952</title>
<path fill="none" stroke="black" stroke-dasharray="5,2" d="M208.401,-2225.47C246.98,-2235.92 292.147,-2248.14 331.747,-2258.86"/>
<polygon fill="none" stroke="black" points="330.855,-2262.25 341.422,-2261.48 332.684,-2255.49 330.855,-2262.25"/>
<text text-anchor="middle" x="273" y="-2251" font-family="Sans" font-size="10.00">requires</text>
</g>
<!-- configuration&#45;modules&#45;core#951 -->
<g id="node66" class="node"><title>configuration-modules-core#951</title>
<a xlink:href="https://github.com/quattor/configuration-modules-core/issues/951" xlink:title="ncm-spma (yum): Remove support for package groups" target="_parent">
<ellipse fill="#6cc644" stroke="black" cx="432" cy="-2192" rx="118.087" ry="38.1838"/>
<text text-anchor="middle" x="432" y="-2196" font-family="Sans" font-size="10.00">issue</text>
<text text-anchor="middle" x="432" y="-2183" font-family="Sans" font-size="10.00">configuration-modules-core#951</text>
</a>
</g>
<!-- configuration&#45;modules&#45;core#950&#45;&gt;configuration&#45;modules&#45;core#951 -->
<g id="edge50" class="edge"><title>configuration-modules-core#950-&gt;configuration-modules-core#951</title>
<path fill="none" stroke="black" stroke-dasharray="5,2" d="M235.815,-2197.62C258.074,-2196.99 281.456,-2196.31 304.01,-2195.67"/>
<polygon fill="none" stroke="black" points="304.412,-2199.16 314.308,-2195.37 304.212,-2192.16 304.412,-2199.16"/>
<text text-anchor="middle" x="273" y="-2202" font-family="Sans" font-size="10.00">requires</text>
</g>
<!-- ncm&#45;lib&#45;blockdevices#91 -->
<g id="node68" class="node"><title>ncm-lib-blockdevices#91</title>
<a xlink:href="https://github.com/quattor/ncm-lib-blockdevices/pull/91" xlink:title="Filesystem.pm: add option -f to mkfs.xfs" target="_parent">
<polygon fill="#6e5494" stroke="black" points="186,-954 50,-954 50,-900 186,-900 186,-954"/>
<text text-anchor="middle" x="118" y="-931" font-family="Sans" font-size="10.00">pull-request</text>
<text text-anchor="middle" x="118" y="-918" font-family="Sans" font-size="10.00">ncm-lib-blockdevices#91</text>
</a>
</g>
<!-- ncm&#45;lib&#45;blockdevices#90 -->
<g id="node70" class="node"><title>ncm-lib-blockdevices#90</title>
<a xlink:href="https://github.com/quattor/ncm-lib-blockdevices/issues/90" xlink:title="Filesystem: mkfs.xfs should be used with -f" target="_parent">
<ellipse fill="#bd2c00" stroke="black" cx="432" cy="-927" rx="96.1665" ry="38.1838"/>
<text text-anchor="middle" x="432" y="-931" font-family="Sans" font-size="10.00">issue</text>
<text text-anchor="middle" x="432" y="-918" font-family="Sans" font-size="10.00">ncm-lib-blockdevices#90</text>
</a>
</g>
<!-- ncm&#45;lib&#45;blockdevices#91&#45;&gt;ncm&#45;lib&#45;blockdevices#90 -->
<g id="edge54" class="edge"><title>ncm-lib-blockdevices#91-&gt;ncm-lib-blockdevices#90</title>
<path fill="none" stroke="black" stroke-width="2" d="M186.133,-927C226.883,-927 279.543,-927 325.667,-927"/>
<polygon fill="black" stroke="black" points="325.708,-930.5 335.708,-927 325.708,-923.5 325.708,-930.5"/>
<text text-anchor="middle" x="273" y="-931" font-family="Sans" font-size="10.00">fixes</text>
</g>
<!-- ncm&#45;ncd#117 -->
<g id="node71" class="node"><title>ncm-ncd#117</title>
<a xlink:href="https://github.com/quattor/ncm-ncd/pull/117" xlink:title="Allow component modules to be loaded from any path" target="_parent">
<polygon fill="#6e5494" stroke="black" points="161,-860 75,-860 75,-806 161,-806 161,-860"/>
<text text-anchor="middle" x="118" y="-837" font-family="Sans" font-size="10.00">pull-request</text>
<text text-anchor="middle" x="118" y="-824" font-family="Sans" font-size="10.00">ncm-ncd#117</text>
</a>
</g>
<!-- ncm&#45;ncd#116 -->
<g id="node73" class="node"><title>ncm-ncd#116</title>
<a xlink:href="https://github.com/quattor/ncm-ncd/issues/116" xlink:title="hasFile() prevents component modules from being relocated" target="_parent">
<ellipse fill="#bd2c00" stroke="black" cx="432" cy="-833" rx="61.0181" ry="38.1838"/>
<text text-anchor="middle" x="432" y="-837" font-family="Sans" font-size="10.00">issue</text>
<text text-anchor="middle" x="432" y="-824" font-family="Sans" font-size="10.00">ncm-ncd#116</text>
</a>
</g>
<!-- ncm&#45;ncd#117&#45;&gt;ncm&#45;ncd#116 -->
<g id="edge56" class="edge"><title>ncm-ncd#117-&gt;ncm-ncd#116</title>
<path fill="none" stroke="black" stroke-width="2" d="M161.66,-833C212.954,-833 298.809,-833 360.001,-833"/>
<polygon fill="black" stroke="black" points="360.362,-836.5 370.362,-833 360.362,-829.5 360.362,-836.5"/>
<text text-anchor="middle" x="273" y="-837" font-family="Sans" font-size="10.00">fixes</text>
</g>
<!-- template&#45;library&#45;core#187 -->
<g id="node74" class="node"><title>template-library-core#187</title>
<a xlink:href="https://github.com/quattor/template-library-core/pull/187" xlink:title="pan/types: fix incorrect regexp for linux_capability" target="_parent">
<polygon fill="#6e5494" stroke="black" points="187,-766 49,-766 49,-712 187,-712 187,-766"/>
<text text-anchor="middle" x="118" y="-743" font-family="Sans" font-size="10.00">pull-request</text>
<text text-anchor="middle" x="118" y="-730" font-family="Sans" font-size="10.00">template-library-core#187</text>
</a>
</g>
<!-- template&#45;library&#45;core#186 -->
<g id="node76" class="node"><title>template-library-core#186</title>
<a xlink:href="https://github.com/quattor/template-library-core/issues/186" xlink:title="18.6.0: linux_capability type regexp incorrect" target="_parent">
<ellipse fill="#bd2c00" stroke="black" cx="432" cy="-739" rx="97.0803" ry="38.1838"/>
<text text-anchor="middle" x="432" y="-743" font-family="Sans" font-size="10.00">issue</text>
<text text-anchor="middle" x="432" y="-730" font-family="Sans" font-size="10.00">template-library-core#186</text>
</a>
</g>
<!-- template&#45;library&#45;core#187&#45;&gt;template&#45;library&#45;core#186 -->
<g id="edge58" class="edge"><title>template-library-core#187-&gt;template-library-core#186</title>
<path fill="none" stroke="black" stroke-width="2" d="M187.297,-739C227.427,-739 278.812,-739 324.125,-739"/>
<polygon fill="black" stroke="black" points="324.295,-742.5 334.295,-739 324.295,-735.5 324.295,-742.5"/>
<text text-anchor="middle" x="273" y="-743" font-family="Sans" font-size="10.00">fixes</text>
</g>
<!-- template&#45;library&#45;grid#215 -->
<g id="node77" class="node"><title>template-library-grid#215</title>
<a xlink:href="https://github.com/quattor/template-library-grid/pull/215" xlink:title="Committing changes running in production at GRIF" target="_parent">
<polygon fill="#6e5494" stroke="black" points="185,-672 51,-672 51,-618 185,-618 185,-672"/>
<text text-anchor="middle" x="118" y="-649" font-family="Sans" font-size="10.00">pull-request</text>
<text text-anchor="middle" x="118" y="-636" font-family="Sans" font-size="10.00">template-library-grid#215</text>
</a>
</g>
<!-- template&#45;library&#45;grid#214 -->
<g id="node79" class="node"><title>template-library-grid#214</title>
<a xlink:href="https://github.com/quattor/template-library-grid/issues/214" xlink:title="features/htcondor/server/groups: voms-clients package renamed" target="_parent">
<ellipse fill="#bd2c00" stroke="black" cx="432" cy="-645" rx="94.9596" ry="38.1838"/>
<text text-anchor="middle" x="432" y="-649" font-family="Sans" font-size="10.00">issue</text>
<text text-anchor="middle" x="432" y="-636" font-family="Sans" font-size="10.00">template-library-grid#214</text>
</a>
</g>
<!-- template&#45;library&#45;grid#215&#45;&gt;template&#45;library&#45;grid#214 -->
<g id="edge60" class="edge"><title>template-library-grid#215-&gt;template-library-grid#214</title>
<path fill="none" stroke="black" stroke-width="2" d="M185.747,-645C226.73,-645 279.863,-645 326.279,-645"/>
<polygon fill="black" stroke="black" points="326.381,-648.5 336.381,-645 326.381,-641.5 326.381,-648.5"/>
<text text-anchor="middle" x="273" y="-649" font-family="Sans" font-size="10.00">fixes</text>
</g>
<!-- aquilon#115 -->
<g id="node80" class="node"><title>aquilon#115</title>
<a xlink:href="https://github.com/quattor/aquilon/pull/115" xlink:title="services: insert service data early in the object template" target="_parent">
<polygon fill="#6cc644" stroke="black" points="158,-2634 78,-2634 78,-2580 158,-2580 158,-2634"/>
<text text-anchor="middle" x="118" y="-2611" font-family="Sans" font-size="10.00">pull-request</text>
<text text-anchor="middle" x="118" y="-2598" font-family="Sans" font-size="10.00">aquilon#115</text>
</a>
</g>
<!-- aquilon#109 -->
<g id="node82" class="node"><title>aquilon#109</title>
<a xlink:href="https://github.com/quattor/aquilon/issues/109" xlink:title="Why service configuration is included so late in the plenary object?" target="_parent">
<ellipse fill="#6cc644" stroke="black" cx="432" cy="-2596" rx="56.0679" ry="38.1838"/>
<text text-anchor="middle" x="432" y="-2600" font-family="Sans" font-size="10.00">issue</text>
<text text-anchor="middle" x="432" y="-2587" font-family="Sans" font-size="10.00">aquilon#109</text>
</a>
</g>
<!-- aquilon#115&#45;&gt;aquilon#109 -->
<g id="edge62" class="edge"><title>aquilon#115-&gt;aquilon#109</title>
<path fill="none" stroke="black" stroke-width="2" d="M158.087,-2605.6C210.318,-2603.77 302.376,-2600.54 365.228,-2598.34"/>
<polygon fill="black" stroke="black" points="365.57,-2601.83 375.441,-2597.98 365.325,-2594.83 365.57,-2601.83"/>
<text text-anchor="middle" x="273" y="-2606" font-family="Sans" font-size="10.00">fixes</text>
</g>
<!-- aquilon#110 -->
<g id="node83" class="node"><title>aquilon#110</title>
<a xlink:href="https://github.com/quattor/aquilon/pull/110" xlink:title="Change site and machine namespace to use continent name" target="_parent">
<polygon fill="#6cc644" stroke="black" points="158,-2562 78,-2562 78,-2508 158,-2508 158,-2562"/>
<text text-anchor="middle" x="118" y="-2539" font-family="Sans" font-size="10.00">pull-request</text>
<text text-anchor="middle" x="118" y="-2526" font-family="Sans" font-size="10.00">aquilon#110</text>
</a>
</g>
<!-- aquilon#104 -->
<g id="node85" class="node"><title>aquilon#104</title>
<a xlink:href="https://github.com/quattor/aquilon/issues/104" xlink:title="1.12.62: location related templates cannot be used" target="_parent">
<ellipse fill="#6cc644" stroke="black" cx="432" cy="-2489" rx="56.0679" ry="38.1838"/>
<text text-anchor="middle" x="432" y="-2493" font-family="Sans" font-size="10.00">issue</text>
<text text-anchor="middle" x="432" y="-2480" font-family="Sans" font-size="10.00">aquilon#104</text>
</a>
</g>
<!-- aquilon#110&#45;&gt;aquilon#104 -->
<g id="edge64" class="edge"><title>aquilon#110-&gt;aquilon#104</title>
<path fill="none" stroke="black" stroke-width="2" d="M158.087,-2529.13C210.631,-2521.43 303.481,-2507.83 366.355,-2498.62"/>
<polygon fill="black" stroke="black" points="367.178,-2502.03 376.565,-2497.12 366.163,-2495.11 367.178,-2502.03"/>
<text text-anchor="middle" x="273" y="-2518" font-family="Sans" font-size="10.00">fixes</text>
</g>
<!-- aquilon#91 -->
<g id="node86" class="node"><title>aquilon#91</title>
<a xlink:href="https://github.com/quattor/aquilon/issues/91" xlink:title="1.12.58: city timezone is not passed to the object template" target="_parent">
<ellipse fill="#6cc644" stroke="black" cx="118" cy="-2452" rx="53.033" ry="38.1838"/>
<text text-anchor="middle" x="118" y="-2456" font-family="Sans" font-size="10.00">issue</text>
<text text-anchor="middle" x="118" y="-2443" font-family="Sans" font-size="10.00">aquilon#91</text>
</a>
</g>
<!-- aquilon#91&#45;&gt;aquilon#104 -->
<g id="edge66" class="edge"><title>aquilon#91-&gt;aquilon#104</title>
<path fill="none" stroke="black" stroke-dasharray="5,2" d="M170.557,-2458.19C224.248,-2464.52 307.764,-2474.36 365.906,-2481.21"/>
<polygon fill="none" stroke="black" points="365.751,-2484.72 376.092,-2482.41 366.57,-2477.77 365.751,-2484.72"/>
<text text-anchor="middle" x="273" y="-2475" font-family="Sans" font-size="10.00">requires</text>
</g>
<!-- aquilon#89 -->
<g id="node88" class="node"><title>aquilon#89</title>
<a xlink:href="https://github.com/quattor/aquilon/pull/89" xlink:title="Broker: pass archetype to the object profile" target="_parent">
<polygon fill="#6cc644" stroke="black" points="157,-2396 79,-2396 79,-2342 157,-2342 157,-2396"/>
<text text-anchor="middle" x="118" y="-2373" font-family="Sans" font-size="10.00">pull-request</text>
<text text-anchor="middle" x="118" y="-2360" font-family="Sans" font-size="10.00">aquilon#89</text>
</a>
</g>
<!-- aquilon#88 -->
<g id="node90" class="node"><title>aquilon#88</title>
<a xlink:href="https://github.com/quattor/aquilon/issues/88" xlink:title="1.12.58: the broker should pass the archetype to the object template" target="_parent">
<ellipse fill="#6cc644" stroke="black" cx="432" cy="-2380" rx="53.033" ry="38.1838"/>
<text text-anchor="middle" x="432" y="-2384" font-family="Sans" font-size="10.00">issue</text>
<text text-anchor="middle" x="432" y="-2371" font-family="Sans" font-size="10.00">aquilon#88</text>
</a>
</g>
<!-- aquilon#89&#45;&gt;aquilon#88 -->
<g id="edge68" class="edge"><title>aquilon#89-&gt;aquilon#88</title>
<path fill="none" stroke="black" stroke-width="2" d="M157.768,-2370.39C210.918,-2372.26 305.713,-2375.58 368.729,-2377.78"/>
<polygon fill="black" stroke="black" points="368.829,-2381.29 378.945,-2378.14 369.074,-2374.29 368.829,-2381.29"/>
<text text-anchor="middle" x="273" y="-2379" font-family="Sans" font-size="10.00">fixes</text>
</g>
</g>
</svg>
