<?xml version="1.0" encoding="UTF-8" standalone="no"?>
<?xml-stylesheet href="relationships.css" type="text/css"?>
<!-- Generated by graphviz version 2.26.0 (20091210.2329)
 -->
<!-- Title: Dependencies Pages: 1 -->
<svg xmlns="http://www.w3.org/2000/svg" xmlns:xlink="http://www.w3.org/1999/xlink" width="704pt" height="2287pt" viewBox="0.00 0.00 704.00 2286.53">
<g id="graph1" class="graph" transform="scale(1 1) rotate(0) translate(4 2282.53)">
<title>Dependencies</title>
<polygon fill="white" stroke="white" points="-4,5 -4,-2282.53 701,-2282.53 701,5 -4,5"/>
<g id="graph2" class="cluster"><title>cluster_milestone_18.9</title>
<polygon fill="none" stroke="black" points="24,-153.526 24,-1613.53 562,-1613.53 562,-153.526 24,-153.526"/>
<text text-anchor="middle" x="293" y="-1598.73" font-family="Sans" font-size="12.00">18.9</text>
</g>
<g id="graph4" class="cluster"><title>cluster_repo_aquilon</title>
<polygon fill="none" stroke="black" points="57,-1866.53 57,-2270.53 497,-2270.53 497,-1866.53 57,-1866.53"/>
<text text-anchor="middle" x="277" y="-2255.73" font-family="Sans" font-size="12.00">aquilon</text>
</g>
<!-- aii#299 -->
<g id="node1" class="node"><title>aii#299</title>
<a xlink:href="https://github.com/quattor/aii/pull/299" xlink:title="aii-dhcp: support optional hostname ip verification" target="_parent">
<polygon fill="#6cc644" stroke="black" points="157,-1581.53 79,-1581.53 79,-1527.53 157,-1527.53 157,-1581.53"/>
<text text-anchor="middle" x="118" y="-1558.53" font-family="Sans" font-size="10.00">pull-request</text>
<text text-anchor="middle" x="118" y="-1545.53" font-family="Sans" font-size="10.00">aii#299</text>
</a>
</g>
<!-- aii#296 -->
<g id="node3" class="node"><title>aii#296</title>
<a xlink:href="https://github.com/quattor/aii/pull/296" xlink:title="DHCP plugin updates" target="_parent">
<polygon fill="#6cc644" stroke="black" points="471,-1581.53 393,-1581.53 393,-1527.53 471,-1527.53 471,-1581.53"/>
<text text-anchor="middle" x="432" y="-1558.53" font-family="Sans" font-size="10.00">pull-request</text>
<text text-anchor="middle" x="432" y="-1545.53" font-family="Sans" font-size="10.00">aii#296</text>
</a>
</g>
<!-- aii#299&#45;&gt;aii#296 -->
<g id="edge2" class="edge"><title>aii#299-&gt;aii#296</title>
<path fill="none" stroke="black" stroke-dasharray="5,2" d="M157.571,-1553.42C184.705,-1552.72 221.529,-1551.88 254,-1551.53 297.318,-1551.05 346.561,-1551.99 382.256,-1552.95"/>
<polygon fill="none" stroke="black" points="382.318,-1556.45 392.411,-1553.23 382.512,-1549.45 382.318,-1556.45"/>
<text text-anchor="middle" x="273" y="-1555.53" font-family="Sans" font-size="10.00">requires</text>
</g>
<!-- aii#294 -->
<g id="node4" class="node"><title>aii#294</title>
<a xlink:href="https://github.com/quattor/aii/pull/294" xlink:title="aii: ks: disable selinux with kernel param" target="_parent">
<polygon fill="#6cc644" stroke="black" points="157,-1498.53 79,-1498.53 79,-1444.53 157,-1444.53 157,-1498.53"/>
<text text-anchor="middle" x="118" y="-1475.53" font-family="Sans" font-size="10.00">pull-request</text>
<text text-anchor="middle" x="118" y="-1462.53" font-family="Sans" font-size="10.00">aii#294</text>
</a>
</g>
<!-- aii#293 -->
<g id="node6" class="node"><title>aii#293</title>
<a xlink:href="https://github.com/quattor/aii/issues/293" xlink:title="Disabling selinux during OS installation does not work with CentOS 7.5" target="_parent">
<ellipse fill="#6cc644" stroke="black" cx="432" cy="-1471.53" rx="41.2167" ry="38.1838"/>
<text text-anchor="middle" x="432" y="-1475.53" font-family="Sans" font-size="10.00">issue</text>
<text text-anchor="middle" x="432" y="-1462.53" font-family="Sans" font-size="10.00">aii#293</text>
</a>
</g>
<!-- aii#294&#45;&gt;aii#293 -->
<g id="edge4" class="edge"><title>aii#294-&gt;aii#293</title>
<path fill="none" stroke="black" stroke-width="2" d="M157.768,-1471.53C214.279,-1471.53 317.868,-1471.53 380.284,-1471.53"/>
<polygon fill="black" stroke="black" points="380.31,-1475.03 390.31,-1471.53 380.31,-1468.03 380.31,-1475.03"/>
<text text-anchor="middle" x="273" y="-1475.53" font-family="Sans" font-size="10.00">fixes</text>
</g>
<!-- aii#291 -->
<g id="node7" class="node"><title>aii#291</title>
<a xlink:href="https://github.com/quattor/aii/pull/291" xlink:title="aii-installfe: add support for --cdburl" target="_parent">
<polygon fill="#6e5494" stroke="black" points="157,-1404.53 79,-1404.53 79,-1350.53 157,-1350.53 157,-1404.53"/>
<text text-anchor="middle" x="118" y="-1381.53" font-family="Sans" font-size="10.00">pull-request</text>
<text text-anchor="middle" x="118" y="-1368.53" font-family="Sans" font-size="10.00">aii#291</text>
</a>
</g>
<!-- aii#290 -->
<g id="node9" class="node"><title>aii#290</title>
<a xlink:href="https://github.com/quattor/aii/issues/290" xlink:title="18.6.0: aii-installfe should allow to define cdburl" target="_parent">
<ellipse fill="#bd2c00" stroke="black" cx="432" cy="-1377.53" rx="41.2167" ry="38.1838"/>
<text text-anchor="middle" x="432" y="-1381.53" font-family="Sans" font-size="10.00">issue</text>
<text text-anchor="middle" x="432" y="-1368.53" font-family="Sans" font-size="10.00">aii#290</text>
</a>
</g>
<!-- aii#291&#45;&gt;aii#290 -->
<g id="edge6" class="edge"><title>aii#291-&gt;aii#290</title>
<path fill="none" stroke="black" stroke-width="2" d="M157.768,-1377.53C214.279,-1377.53 317.868,-1377.53 380.284,-1377.53"/>
<polygon fill="black" stroke="black" points="380.31,-1381.03 390.31,-1377.53 380.31,-1374.03 380.31,-1381.03"/>
<text text-anchor="middle" x="273" y="-1381.53" font-family="Sans" font-size="10.00">fixes</text>
</g>
<!-- aii#280 -->
<g id="node10" class="node"><title>aii#280</title>
<a xlink:href="https://github.com/quattor/aii/pull/280" xlink:title="Support active configuration attribute for plugins" target="_parent">
<polygon fill="#6cc644" stroke="black" points="157,-290.526 79,-290.526 79,-236.526 157,-236.526 157,-290.526"/>
<text text-anchor="middle" x="118" y="-267.526" font-family="Sans" font-size="10.00">pull-request</text>
<text text-anchor="middle" x="118" y="-254.526" font-family="Sans" font-size="10.00">aii#280</text>
</a>
</g>
<!-- aii#209 -->
<g id="node12" class="node"><title>aii#209</title>
<a xlink:href="https://github.com/quattor/aii/issues/209" xlink:title="support ACTIVE_CONFIG" target="_parent">
<ellipse fill="#6cc644" stroke="black" cx="432" cy="-271.526" rx="41.2167" ry="38.1838"/>
<text text-anchor="middle" x="432" y="-275.526" font-family="Sans" font-size="10.00">issue</text>
<text text-anchor="middle" x="432" y="-262.526" font-family="Sans" font-size="10.00">aii#209</text>
</a>
</g>
<!-- aii#280&#45;&gt;aii#209 -->
<g id="edge8" class="edge"><title>aii#280-&gt;aii#209</title>
<path fill="none" stroke="black" stroke-width="2" d="M157.768,-264.539C214.279,-265.979 317.868,-268.618 380.284,-270.208"/>
<polygon fill="black" stroke="black" points="380.224,-273.708 390.31,-270.464 380.402,-266.71 380.224,-273.708"/>
<text text-anchor="middle" x="273" y="-272.526" font-family="Sans" font-size="10.00">fixes</text>
</g>
<!-- ncm&#45;ncd#74 -->
<g id="node14" class="node"><title>ncm-ncd#74</title>
<a xlink:href="https://github.com/quattor/ncm-ncd/pull/74" xlink:title="Set the current active config as an attribute to the component" target="_parent">
<polygon fill="#6cc644" stroke="black" points="473,-381.526 391,-381.526 391,-327.526 473,-327.526 473,-381.526"/>
<text text-anchor="middle" x="432" y="-358.526" font-family="Sans" font-size="10.00">pull-request</text>
<text text-anchor="middle" x="432" y="-345.526" font-family="Sans" font-size="10.00">ncm-ncd#74</text>
</a>
</g>
<!-- aii#280&#45;&gt;ncm&#45;ncd#74 -->
<g id="edge10" class="edge"><title>aii#280-&gt;ncm-ncd#74</title>
<path fill="none" stroke="black" stroke-dasharray="5,2" d="M157.768,-275.051C214.552,-291.508 318.871,-321.74 381.186,-339.8"/>
<polygon fill="none" stroke="black" points="380.234,-343.168 390.813,-342.589 382.182,-336.444 380.234,-343.168"/>
<text text-anchor="middle" x="273" y="-316.526" font-family="Sans" font-size="10.00">requires</text>
</g>
<!-- aii#203 -->
<g id="node16" class="node"><title>aii#203</title>
<polygon fill="lightgrey" stroke="black" points="461,-144.026 403,-144.026 403,-103.026 461,-103.026 461,-144.026"/>
<text text-anchor="middle" x="432" y="-121.026" font-family="Sans" font-size="10.00">aii#203</text>
</g>
<!-- aii#280&#45;&gt;aii#203 -->
<g id="edge12" class="edge"><title>aii#280-&gt;aii#203</title>
<path fill="none" stroke="black" stroke-dasharray="5,2" d="M157.743,-259.473C183.166,-254.905 215.166,-245.19 236,-224.526 253.663,-207.007 236.827,-189.525 254,-171.526 272.46,-152.179 284.392,-157.228 310,-149.526 337.129,-141.367 368.388,-134.757 392.472,-130.244"/>
<polygon fill="none" stroke="black" points="393.116,-133.684 402.322,-128.44 391.855,-126.799 393.116,-133.684"/>
<text text-anchor="middle" x="273" y="-175.526" font-family="Sans" font-size="10.00">requires</text>
</g>
<!-- aii#210 -->
<g id="node18" class="node"><title>aii#210</title>
<polygon fill="lightgrey" stroke="black" points="461,-86.0259 403,-86.0259 403,-45.0259 461,-45.0259 461,-86.0259"/>
<text text-anchor="middle" x="432" y="-63.0259" font-family="Sans" font-size="10.00">aii#210</text>
</g>
<!-- aii#280&#45;&gt;aii#210 -->
<g id="edge14" class="edge"><title>aii#280-&gt;aii#210</title>
<path fill="none" stroke="black" stroke-dasharray="1,5" d="M157.758,-260.431C183.688,-256.283 216.265,-246.676 236,-224.526 262.267,-195.045 233.026,-170.98 254,-137.526 270.668,-110.939 281.664,-108.008 310,-94.5259 336.06,-82.1264 367.844,-74.7923 392.437,-70.6025"/>
<polygon fill="black" stroke="black" points="402.498,-68.9937 393.334,-75.0162 397.561,-69.7832 392.624,-70.5726 392.624,-70.5726 392.624,-70.5726 397.561,-69.7832 391.913,-66.1291 402.498,-68.9937 402.498,-68.9937"/>
<text text-anchor="middle" x="273" y="-141.526" font-family="Sans" font-size="10.00">replaces</text>
</g>
<!-- CAF#257 -->
<g id="node19" class="node"><title>CAF#257</title>
<a xlink:href="https://github.com/quattor/CAF/pull/257" xlink:title="Process: run process as another user" target="_parent">
<polygon fill="#6cc644" stroke="black" points="157,-1310.53 79,-1310.53 79,-1256.53 157,-1256.53 157,-1310.53"/>
<text text-anchor="middle" x="118" y="-1287.53" font-family="Sans" font-size="10.00">pull-request</text>
<text text-anchor="middle" x="118" y="-1274.53" font-family="Sans" font-size="10.00">CAF#257</text>
</a>
</g>
<!-- CAF#253 -->
<g id="node21" class="node"><title>CAF#253</title>
<a xlink:href="https://github.com/quattor/CAF/issues/253" xlink:title="CAF::Process: Include an option to execute the command as an specific user" target="_parent">
<ellipse fill="#6cc644" stroke="black" cx="432" cy="-1283.53" rx="48.9975" ry="38.1838"/>
<text text-anchor="middle" x="432" y="-1287.53" font-family="Sans" font-size="10.00">issue</text>
<text text-anchor="middle" x="432" y="-1274.53" font-family="Sans" font-size="10.00">CAF#253</text>
</a>
</g>
<!-- CAF#257&#45;&gt;CAF#253 -->
<g id="edge16" class="edge"><title>CAF#257-&gt;CAF#253</title>
<path fill="none" stroke="black" stroke-width="2" d="M157.768,-1283.53C211.934,-1283.53 309.353,-1283.53 372.308,-1283.53"/>
<polygon fill="black" stroke="black" points="372.488,-1287.03 382.488,-1283.53 372.488,-1280.03 372.488,-1287.03"/>
<text text-anchor="middle" x="273" y="-1287.53" font-family="Sans" font-size="10.00">fixes</text>
</g>
<!-- CAF#110 -->
<g id="node22" class="node"><title>CAF#110</title>
<a xlink:href="https://github.com/quattor/CAF/pull/110" xlink:title="CAF::Download class: API proposal" target="_parent">
<polygon fill="#6cc644" stroke="black" points="157,-1675.53 79,-1675.53 79,-1621.53 157,-1621.53 157,-1675.53"/>
<text text-anchor="middle" x="118" y="-1652.53" font-family="Sans" font-size="10.00">pull-request</text>
<text text-anchor="middle" x="118" y="-1639.53" font-family="Sans" font-size="10.00">CAF#110</text>
</a>
</g>
<!-- CAF#120 -->
<g id="node24" class="node"><title>CAF#120</title>
<polygon fill="lightgrey" stroke="black" points="467,-1669.03 397,-1669.03 397,-1628.03 467,-1628.03 467,-1669.03"/>
<text text-anchor="middle" x="432" y="-1646.03" font-family="Sans" font-size="10.00">CAF#120</text>
</g>
<!-- CAF#110&#45;&gt;CAF#120 -->
<g id="edge18" class="edge"><title>CAF#110-&gt;CAF#120</title>
<path fill="none" stroke="black" stroke-dasharray="5,2" d="M157.768,-1648.53C216.269,-1648.53 325.221,-1648.53 386.719,-1648.53"/>
<polygon fill="none" stroke="black" points="386.897,-1652.03 396.897,-1648.53 386.897,-1645.03 386.897,-1652.03"/>
<text text-anchor="middle" x="273" y="-1652.53" font-family="Sans" font-size="10.00">requires</text>
</g>
<!-- CCM#186 -->
<g id="node25" class="node"><title>CCM#186</title>
<a xlink:href="https://github.com/quattor/CCM/pull/186" xlink:title="TextRender: add support for jsonpretty type" target="_parent">
<polygon fill="#6e5494" stroke="black" points="471,-215.526 393,-215.526 393,-161.526 471,-161.526 471,-215.526"/>
<text text-anchor="middle" x="432" y="-192.526" font-family="Sans" font-size="10.00">pull-request</text>
<text text-anchor="middle" x="432" y="-179.526" font-family="Sans" font-size="10.00">CCM#186</text>
</a>
</g>
<!-- CAF#265 -->
<g id="node27" class="node"><title>CAF#265</title>
<polygon fill="lightgrey" stroke="black" points="696,-86.0259 626,-86.0259 626,-45.0259 696,-45.0259 696,-86.0259"/>
<text text-anchor="middle" x="661" y="-63.0259" font-family="Sans" font-size="10.00">CAF#265</text>
</g>
<!-- CCM#186&#45;&gt;CAF#265 -->
<g id="edge20" class="edge"><title>CCM#186-&gt;CAF#265</title>
<path fill="none" stroke="black" stroke-dasharray="5,2" d="M471.696,-184.425C498.457,-180.406 533.872,-172.581 562,-157.526 592.083,-141.425 619.934,-113.929 638.382,-93.1802"/>
<polygon fill="none" stroke="black" points="641.056,-95.4388 644.977,-85.596 635.774,-90.8455 641.056,-95.4388"/>
<text text-anchor="middle" x="590" y="-154.526" font-family="Sans" font-size="10.00">requires</text>
</g>
<!-- configuration&#45;modules&#45;core#1308 -->
<g id="node28" class="node"><title>configuration-modules-core#1308</title>
<a xlink:href="https://github.com/quattor/configuration-modules-core/pull/1308" xlink:title="ncm-network: no error wrt missing (IPv4) ip and netmask in a pure IPv6 config" target="_parent">
<polygon fill="#6e5494" stroke="black" points="204,-1216.53 32,-1216.53 32,-1162.53 204,-1162.53 204,-1216.53"/>
<text text-anchor="middle" x="118" y="-1193.53" font-family="Sans" font-size="10.00">pull-request</text>
<text text-anchor="middle" x="118" y="-1180.53" font-family="Sans" font-size="10.00">configuration-modules-core#1308</text>
</a>
</g>
<!-- configuration&#45;modules&#45;core#1296 -->
<g id="node30" class="node"><title>configuration-modules-core#1296</title>
<a xlink:href="https://github.com/quattor/configuration-modules-core/issues/1296" xlink:title="ncm-network: Returns an error when an interface is configured as IPv6 only" target="_parent">
<ellipse fill="#bd2c00" stroke="black" cx="432" cy="-1189.53" rx="121.122" ry="38.1838"/>
<text text-anchor="middle" x="432" y="-1193.53" font-family="Sans" font-size="10.00">issue</text>
<text text-anchor="middle" x="432" y="-1180.53" font-family="Sans" font-size="10.00">configuration-modules-core#1296</text>
</a>
</g>
<!-- configuration&#45;modules&#45;core#1308&#45;&gt;configuration&#45;modules&#45;core#1296 -->
<g id="edge22" class="edge"><title>configuration-modules-core#1308-&gt;configuration-modules-core#1296</title>
<path fill="none" stroke="black" stroke-width="2" d="M204.217,-1189.53C233.916,-1189.53 267.888,-1189.53 300.372,-1189.53"/>
<polygon fill="black" stroke="black" points="300.399,-1193.03 310.399,-1189.53 300.399,-1186.03 300.399,-1193.03"/>
<text text-anchor="middle" x="273" y="-1193.53" font-family="Sans" font-size="10.00">fixes</text>
</g>
<!-- configuration&#45;modules&#45;core#1299 -->
<g id="node31" class="node"><title>configuration-modules-core#1299</title>
<a xlink:href="https://github.com/quattor/configuration-modules-core/pull/1299" xlink:title="ncm-sysconfig: Quote values" target="_parent">
<polygon fill="#6cc644" stroke="black" points="204,-1122.53 32,-1122.53 32,-1068.53 204,-1068.53 204,-1122.53"/>
<text text-anchor="middle" x="118" y="-1099.53" font-family="Sans" font-size="10.00">pull-request</text>
<text text-anchor="middle" x="118" y="-1086.53" font-family="Sans" font-size="10.00">configuration-modules-core#1299</text>
</a>
</g>
<!-- configuration&#45;modules&#45;core#1191 -->
<g id="node33" class="node"><title>configuration-modules-core#1191</title>
<a xlink:href="https://github.com/quattor/configuration-modules-core/issues/1191" xlink:title="ncm-sysconfig: Values should be quoted" target="_parent">
<ellipse fill="#6cc644" stroke="black" cx="432" cy="-1095.53" rx="121.122" ry="38.1838"/>
<text text-anchor="middle" x="432" y="-1099.53" font-family="Sans" font-size="10.00">issue</text>
<text text-anchor="middle" x="432" y="-1086.53" font-family="Sans" font-size="10.00">configuration-modules-core#1191</text>
</a>
</g>
<!-- configuration&#45;modules&#45;core#1299&#45;&gt;configuration&#45;modules&#45;core#1191 -->
<g id="edge24" class="edge"><title>configuration-modules-core#1299-&gt;configuration-modules-core#1191</title>
<path fill="none" stroke="black" stroke-width="2" d="M204.217,-1095.53C233.916,-1095.53 267.888,-1095.53 300.372,-1095.53"/>
<polygon fill="black" stroke="black" points="300.399,-1099.03 310.399,-1095.53 300.399,-1092.03 300.399,-1099.03"/>
<text text-anchor="middle" x="273" y="-1099.53" font-family="Sans" font-size="10.00">fixes</text>
</g>
<!-- configuration&#45;modules&#45;core#1279 -->
<g id="node34" class="node"><title>configuration-modules-core#1279</title>
<a xlink:href="https://github.com/quattor/configuration-modules-core/pull/1279" xlink:title="ncm-metaconfig: ganeshav2 add include" target="_parent">
<polygon fill="#6e5494" stroke="black" points="204,-1028.53 32,-1028.53 32,-974.526 204,-974.526 204,-1028.53"/>
<text text-anchor="middle" x="118" y="-1005.53" font-family="Sans" font-size="10.00">pull-request</text>
<text text-anchor="middle" x="118" y="-992.526" font-family="Sans" font-size="10.00">configuration-modules-core#1279</text>
</a>
</g>
<!-- configuration&#45;modules&#45;core#1276 -->
<g id="node36" class="node"><title>configuration-modules-core#1276</title>
<a xlink:href="https://github.com/quattor/configuration-modules-core/issues/1276" xlink:title="ncm-metaconfig: Ganesha v2 %include option is missing" target="_parent">
<ellipse fill="#bd2c00" stroke="black" cx="432" cy="-1001.53" rx="121.122" ry="38.1838"/>
<text text-anchor="middle" x="432" y="-1005.53" font-family="Sans" font-size="10.00">issue</text>
<text text-anchor="middle" x="432" y="-992.526" font-family="Sans" font-size="10.00">configuration-modules-core#1276</text>
</a>
</g>
<!-- configuration&#45;modules&#45;core#1279&#45;&gt;configuration&#45;modules&#45;core#1276 -->
<g id="edge26" class="edge"><title>configuration-modules-core#1279-&gt;configuration-modules-core#1276</title>
<path fill="none" stroke="black" stroke-width="2" d="M204.217,-1001.53C233.916,-1001.53 267.888,-1001.53 300.372,-1001.53"/>
<polygon fill="black" stroke="black" points="300.399,-1005.03 310.399,-1001.53 300.399,-998.026 300.399,-1005.03"/>
<text text-anchor="middle" x="273" y="-1005.53" font-family="Sans" font-size="10.00">fixes</text>
</g>
<!-- configuration&#45;modules&#45;core#1261 -->
<g id="node37" class="node"><title>configuration-modules-core#1261</title>
<a xlink:href="https://github.com/quattor/configuration-modules-core/pull/1261" xlink:title="[WIP] ncm-openstack: Include ovs and storage support" target="_parent">
<polygon fill="#6cc644" stroke="black" points="204,-886.526 32,-886.526 32,-832.526 204,-832.526 204,-886.526"/>
<text text-anchor="middle" x="118" y="-863.526" font-family="Sans" font-size="10.00">pull-request</text>
<text text-anchor="middle" x="118" y="-850.526" font-family="Sans" font-size="10.00">configuration-modules-core#1261</text>
</a>
</g>
<!-- configuration&#45;modules&#45;core#1310 -->
<g id="node39" class="node"><title>configuration-modules-core#1310</title>
<a xlink:href="https://github.com/quattor/configuration-modules-core/issues/1310" xlink:title="ncm-openstack: add Heat service support" target="_parent">
<ellipse fill="#6cc644" stroke="black" cx="432" cy="-813.526" rx="121.122" ry="38.1838"/>
<text text-anchor="middle" x="432" y="-817.526" font-family="Sans" font-size="10.00">issue</text>
<text text-anchor="middle" x="432" y="-804.526" font-family="Sans" font-size="10.00">configuration-modules-core#1310</text>
</a>
</g>
<!-- configuration&#45;modules&#45;core#1261&#45;&gt;configuration&#45;modules&#45;core#1310 -->
<g id="edge28" class="edge"><title>configuration-modules-core#1261-&gt;configuration-modules-core#1310</title>
<path fill="none" stroke="black" stroke-width="2" d="M204.217,-846.895C237.408,-842.033 275.936,-836.389 311.76,-831.141"/>
<polygon fill="black" stroke="black" points="312.398,-834.585 321.785,-829.672 311.383,-827.659 312.398,-834.585"/>
<text text-anchor="middle" x="273" y="-843.526" font-family="Sans" font-size="10.00">fixes</text>
</g>
<!-- configuration&#45;modules&#45;core#1315 -->
<g id="node41" class="node"><title>configuration-modules-core#1315</title>
<a xlink:href="https://github.com/quattor/configuration-modules-core/issues/1315" xlink:title="ncm-openstack: add murano service support" target="_parent">
<ellipse fill="#6cc644" stroke="black" cx="432" cy="-907.526" rx="121.122" ry="38.1838"/>
<text text-anchor="middle" x="432" y="-911.526" font-family="Sans" font-size="10.00">issue</text>
<text text-anchor="middle" x="432" y="-898.526" font-family="Sans" font-size="10.00">configuration-modules-core#1315</text>
</a>
</g>
<!-- configuration&#45;modules&#45;core#1261&#45;&gt;configuration&#45;modules&#45;core#1315 -->
<g id="edge30" class="edge"><title>configuration-modules-core#1261-&gt;configuration-modules-core#1315</title>
<path fill="none" stroke="black" stroke-width="2" d="M204.217,-872.706C237.657,-877.817 276.515,-883.757 312.565,-889.268"/>
<polygon fill="black" stroke="black" points="312.238,-892.759 322.652,-890.81 313.296,-885.839 312.238,-892.759"/>
<text text-anchor="middle" x="273" y="-889.526" font-family="Sans" font-size="10.00">fixes</text>
</g>
<!-- configuration&#45;modules&#45;core#1255 -->
<g id="node42" class="node"><title>configuration-modules-core#1255</title>
<a xlink:href="https://github.com/quattor/configuration-modules-core/pull/1255" xlink:title=" ncm-metaconfig: add irods config files" target="_parent">
<polygon fill="#6cc644" stroke="black" points="204,-215.526 32,-215.526 32,-161.526 204,-161.526 204,-215.526"/>
<text text-anchor="middle" x="118" y="-192.526" font-family="Sans" font-size="10.00">pull-request</text>
<text text-anchor="middle" x="118" y="-179.526" font-family="Sans" font-size="10.00">configuration-modules-core#1255</text>
</a>
</g>
<!-- configuration&#45;modules&#45;core#1255&#45;&gt;CCM#186 -->
<g id="edge34" class="edge"><title>configuration-modules-core#1255-&gt;CCM#186</title>
<path fill="none" stroke="black" stroke-dasharray="5,2" d="M204.217,-188.526C261.388,-188.526 334.397,-188.526 382.136,-188.526"/>
<polygon fill="none" stroke="black" points="382.221,-192.026 392.22,-188.526 382.22,-185.026 382.221,-192.026"/>
<text text-anchor="middle" x="273" y="-192.526" font-family="Sans" font-size="10.00">requires</text>
</g>
<!-- configuration&#45;modules&#45;core#1255&#45;&gt;CAF#265 -->
<g id="edge32" class="edge"><title>configuration-modules-core#1255-&gt;CAF#265</title>
<path fill="none" stroke="black" stroke-dasharray="5,2" d="M138.576,-161.457C170.314,-122.208 235.408,-51.1739 310,-23.5259 415.018,15.3995 452.246,-1.20753 562,-23.5259 580.506,-27.2891 599.843,-34.6353 616.466,-42.1456"/>
<polygon fill="none" stroke="black" points="615.371,-45.4973 625.913,-46.5607 618.335,-39.1558 615.371,-45.4973"/>
<text text-anchor="middle" x="432" y="-27.5259" font-family="Sans" font-size="10.00">requires</text>
</g>
<!-- configuration&#45;modules&#45;core#1148 -->
<g id="node45" class="node"><title>configuration-modules-core#1148</title>
<a xlink:href="https://github.com/quattor/configuration-modules-core/pull/1148" xlink:title="ncm-spma: Remove support from groups from spma yumng backend" target="_parent">
<polygon fill="#6cc644" stroke="black" points="204,-1845.53 32,-1845.53 32,-1791.53 204,-1791.53 204,-1845.53"/>
<text text-anchor="middle" x="118" y="-1822.53" font-family="Sans" font-size="10.00">pull-request</text>
<text text-anchor="middle" x="118" y="-1809.53" font-family="Sans" font-size="10.00">configuration-modules-core#1148</text>
</a>
</g>
<!-- configuration&#45;modules&#45;core#952 -->
<g id="node47" class="node"><title>configuration-modules-core#952</title>
<a xlink:href="https://github.com/quattor/configuration-modules-core/issues/952" xlink:title="ncm-spma (yumng): Remove support for package groups" target="_parent">
<ellipse fill="#6cc644" stroke="black" cx="432" cy="-1818.53" rx="118.087" ry="38.1838"/>
<text text-anchor="middle" x="432" y="-1822.53" font-family="Sans" font-size="10.00">issue</text>
<text text-anchor="middle" x="432" y="-1809.53" font-family="Sans" font-size="10.00">configuration-modules-core#952</text>
</a>
</g>
<!-- configuration&#45;modules&#45;core#1148&#45;&gt;configuration&#45;modules&#45;core#952 -->
<g id="edge36" class="edge"><title>configuration-modules-core#1148-&gt;configuration-modules-core#952</title>
<path fill="none" stroke="black" stroke-width="2" d="M204.217,-1818.53C234.903,-1818.53 270.151,-1818.53 303.606,-1818.53"/>
<polygon fill="black" stroke="black" points="303.924,-1822.03 313.924,-1818.53 303.924,-1815.03 303.924,-1822.03"/>
<text text-anchor="middle" x="273" y="-1822.53" font-family="Sans" font-size="10.00">fixes</text>
</g>
<!-- configuration&#45;modules&#45;core#950 -->
<g id="node48" class="node"><title>configuration-modules-core#950</title>
<a xlink:href="https://github.com/quattor/configuration-modules-core/issues/950" xlink:title="ncm-spma: Remove support for package groups from yum backends" target="_parent">
<ellipse fill="#6cc644" stroke="black" cx="118" cy="-1733.53" rx="118.087" ry="38.1838"/>
<text text-anchor="middle" x="118" y="-1737.53" font-family="Sans" font-size="10.00">issue</text>
<text text-anchor="middle" x="118" y="-1724.53" font-family="Sans" font-size="10.00">configuration-modules-core#950</text>
</a>
</g>
<!-- configuration&#45;modules&#45;core#950&#45;&gt;configuration&#45;modules&#45;core#952 -->
<g id="edge40" class="edge"><title>configuration-modules-core#950-&gt;configuration-modules-core#952</title>
<path fill="none" stroke="black" stroke-dasharray="5,2" d="M208.401,-1758C246.98,-1768.44 292.147,-1780.67 331.747,-1791.39"/>
<polygon fill="none" stroke="black" points="330.855,-1794.77 341.422,-1794.01 332.684,-1788.02 330.855,-1794.77"/>
<text text-anchor="middle" x="273" y="-1783.53" font-family="Sans" font-size="10.00">requires</text>
</g>
<!-- configuration&#45;modules&#45;core#951 -->
<g id="node50" class="node"><title>configuration-modules-core#951</title>
<a xlink:href="https://github.com/quattor/configuration-modules-core/issues/951" xlink:title="ncm-spma (yum): Remove support for package groups" target="_parent">
<ellipse fill="#6cc644" stroke="black" cx="432" cy="-1724.53" rx="118.087" ry="38.1838"/>
<text text-anchor="middle" x="432" y="-1728.53" font-family="Sans" font-size="10.00">issue</text>
<text text-anchor="middle" x="432" y="-1715.53" font-family="Sans" font-size="10.00">configuration-modules-core#951</text>
</a>
</g>
<!-- configuration&#45;modules&#45;core#950&#45;&gt;configuration&#45;modules&#45;core#951 -->
<g id="edge38" class="edge"><title>configuration-modules-core#950-&gt;configuration-modules-core#951</title>
<path fill="none" stroke="black" stroke-dasharray="5,2" d="M235.815,-1730.15C258.074,-1729.51 281.456,-1728.84 304.01,-1728.19"/>
<polygon fill="none" stroke="black" points="304.412,-1731.68 314.308,-1727.9 304.212,-1724.69 304.412,-1731.68"/>
<text text-anchor="middle" x="273" y="-1734.53" font-family="Sans" font-size="10.00">requires</text>
</g>
<!-- ncm&#45;lib&#45;blockdevices#91 -->
<g id="node52" class="node"><title>ncm-lib-blockdevices#91</title>
<a xlink:href="https://github.com/quattor/ncm-lib-blockdevices/pull/91" xlink:title="Filesystem.pm: add option -f to mkfs.xfs" target="_parent">
<polygon fill="#6cc644" stroke="black" points="186,-746.526 50,-746.526 50,-692.526 186,-692.526 186,-746.526"/>
<text text-anchor="middle" x="118" y="-723.526" font-family="Sans" font-size="10.00">pull-request</text>
<text text-anchor="middle" x="118" y="-710.526" font-family="Sans" font-size="10.00">ncm-lib-blockdevices#91</text>
</a>
</g>
<!-- ncm&#45;lib&#45;blockdevices#90 -->
<g id="node54" class="node"><title>ncm-lib-blockdevices#90</title>
<a xlink:href="https://github.com/quattor/ncm-lib-blockdevices/issues/90" xlink:title="Filesystem: mkfs.xfs should be used with -f" target="_parent">
<ellipse fill="#6cc644" stroke="black" cx="432" cy="-719.526" rx="96.1665" ry="38.1838"/>
<text text-anchor="middle" x="432" y="-723.526" font-family="Sans" font-size="10.00">issue</text>
<text text-anchor="middle" x="432" y="-710.526" font-family="Sans" font-size="10.00">ncm-lib-blockdevices#90</text>
</a>
</g>
<!-- ncm&#45;lib&#45;blockdevices#91&#45;&gt;ncm&#45;lib&#45;blockdevices#90 -->
<g id="edge42" class="edge"><title>ncm-lib-blockdevices#91-&gt;ncm-lib-blockdevices#90</title>
<path fill="none" stroke="black" stroke-width="2" d="M186.133,-719.526C226.883,-719.526 279.543,-719.526 325.667,-719.526"/>
<polygon fill="black" stroke="black" points="325.708,-723.026 335.708,-719.526 325.708,-716.026 325.708,-723.026"/>
<text text-anchor="middle" x="273" y="-723.526" font-family="Sans" font-size="10.00">fixes</text>
</g>
<!-- ncm&#45;ncd#117 -->
<g id="node55" class="node"><title>ncm-ncd#117</title>
<a xlink:href="https://github.com/quattor/ncm-ncd/pull/117" xlink:title="Allow component modules to be loaded from any path" target="_parent">
<polygon fill="#6cc644" stroke="black" points="161,-652.526 75,-652.526 75,-598.526 161,-598.526 161,-652.526"/>
<text text-anchor="middle" x="118" y="-629.526" font-family="Sans" font-size="10.00">pull-request</text>
<text text-anchor="middle" x="118" y="-616.526" font-family="Sans" font-size="10.00">ncm-ncd#117</text>
</a>
</g>
<!-- ncm&#45;ncd#116 -->
<g id="node57" class="node"><title>ncm-ncd#116</title>
<a xlink:href="https://github.com/quattor/ncm-ncd/issues/116" xlink:title="hasFile() prevents component modules from being relocated" target="_parent">
<ellipse fill="#6cc644" stroke="black" cx="432" cy="-625.526" rx="61.0181" ry="38.1838"/>
<text text-anchor="middle" x="432" y="-629.526" font-family="Sans" font-size="10.00">issue</text>
<text text-anchor="middle" x="432" y="-616.526" font-family="Sans" font-size="10.00">ncm-ncd#116</text>
</a>
</g>
<!-- ncm&#45;ncd#117&#45;&gt;ncm&#45;ncd#116 -->
<g id="edge44" class="edge"><title>ncm-ncd#117-&gt;ncm-ncd#116</title>
<path fill="none" stroke="black" stroke-width="2" d="M161.66,-625.526C212.954,-625.526 298.809,-625.526 360.001,-625.526"/>
<polygon fill="black" stroke="black" points="360.362,-629.026 370.362,-625.526 360.362,-622.026 360.362,-629.026"/>
<text text-anchor="middle" x="273" y="-629.526" font-family="Sans" font-size="10.00">fixes</text>
</g>
<!-- template&#45;library&#45;core#187 -->
<g id="node58" class="node"><title>template-library-core#187</title>
<a xlink:href="https://github.com/quattor/template-library-core/pull/187" xlink:title="pan/types: fix incorrect regexp for linux_capability" target="_parent">
<polygon fill="#6e5494" stroke="black" points="187,-558.526 49,-558.526 49,-504.526 187,-504.526 187,-558.526"/>
<text text-anchor="middle" x="118" y="-535.526" font-family="Sans" font-size="10.00">pull-request</text>
<text text-anchor="middle" x="118" y="-522.526" font-family="Sans" font-size="10.00">template-library-core#187</text>
</a>
</g>
<!-- template&#45;library&#45;core#186 -->
<g id="node60" class="node"><title>template-library-core#186</title>
<a xlink:href="https://github.com/quattor/template-library-core/issues/186" xlink:title="18.6.0: linux_capability type regexp incorrect" target="_parent">
<ellipse fill="#bd2c00" stroke="black" cx="432" cy="-531.526" rx="97.0803" ry="38.1838"/>
<text text-anchor="middle" x="432" y="-535.526" font-family="Sans" font-size="10.00">issue</text>
<text text-anchor="middle" x="432" y="-522.526" font-family="Sans" font-size="10.00">template-library-core#186</text>
</a>
</g>
<!-- template&#45;library&#45;core#187&#45;&gt;template&#45;library&#45;core#186 -->
<g id="edge46" class="edge"><title>template-library-core#187-&gt;template-library-core#186</title>
<path fill="none" stroke="black" stroke-width="2" d="M187.297,-531.526C227.427,-531.526 278.812,-531.526 324.125,-531.526"/>
<polygon fill="black" stroke="black" points="324.295,-535.026 334.295,-531.526 324.295,-528.026 324.295,-535.026"/>
<text text-anchor="middle" x="273" y="-535.526" font-family="Sans" font-size="10.00">fixes</text>
</g>
<!-- template&#45;library&#45;grid#215 -->
<g id="node61" class="node"><title>template-library-grid#215</title>
<a xlink:href="https://github.com/quattor/template-library-grid/pull/215" xlink:title="Committing changes running in production at GRIF" target="_parent">
<polygon fill="#6cc644" stroke="black" points="185,-464.526 51,-464.526 51,-410.526 185,-410.526 185,-464.526"/>
<text text-anchor="middle" x="118" y="-441.526" font-family="Sans" font-size="10.00">pull-request</text>
<text text-anchor="middle" x="118" y="-428.526" font-family="Sans" font-size="10.00">template-library-grid#215</text>
</a>
</g>
<!-- template&#45;library&#45;grid#214 -->
<g id="node63" class="node"><title>template-library-grid#214</title>
<a xlink:href="https://github.com/quattor/template-library-grid/issues/214" xlink:title="features/htcondor/server/groups: voms-clients package renamed" target="_parent">
<ellipse fill="#6cc644" stroke="black" cx="432" cy="-437.526" rx="94.9596" ry="38.1838"/>
<text text-anchor="middle" x="432" y="-441.526" font-family="Sans" font-size="10.00">issue</text>
<text text-anchor="middle" x="432" y="-428.526" font-family="Sans" font-size="10.00">template-library-grid#214</text>
</a>
</g>
<!-- template&#45;library&#45;grid#215&#45;&gt;template&#45;library&#45;grid#214 -->
<g id="edge48" class="edge"><title>template-library-grid#215-&gt;template-library-grid#214</title>
<path fill="none" stroke="black" stroke-width="2" d="M185.747,-437.526C226.73,-437.526 279.863,-437.526 326.279,-437.526"/>
<polygon fill="black" stroke="black" points="326.381,-441.026 336.381,-437.526 326.381,-434.026 326.381,-441.026"/>
<text text-anchor="middle" x="273" y="-441.526" font-family="Sans" font-size="10.00">fixes</text>
</g>
<!-- aquilon#115 -->
<g id="node64" class="node"><title>aquilon#115</title>
<a xlink:href="https://github.com/quattor/aquilon/pull/115" xlink:title="services: insert service data early in the object template" target="_parent">
<polygon fill="#6cc644" stroke="black" points="158,-2238.53 78,-2238.53 78,-2184.53 158,-2184.53 158,-2238.53"/>
<text text-anchor="middle" x="118" y="-2215.53" font-family="Sans" font-size="10.00">pull-request</text>
<text text-anchor="middle" x="118" y="-2202.53" font-family="Sans" font-size="10.00">aquilon#115</text>
</a>
</g>
<!-- aquilon#109 -->
<g id="node66" class="node"><title>aquilon#109</title>
<a xlink:href="https://github.com/quattor/aquilon/issues/109" xlink:title="Why service configuration is included so late in the plenary object?" target="_parent">
<ellipse fill="#6cc644" stroke="black" cx="432" cy="-2200.53" rx="56.0679" ry="38.1838"/>
<text text-anchor="middle" x="432" y="-2204.53" font-family="Sans" font-size="10.00">issue</text>
<text text-anchor="middle" x="432" y="-2191.53" font-family="Sans" font-size="10.00">aquilon#109</text>
</a>
</g>
<!-- aquilon#115&#45;&gt;aquilon#109 -->
<g id="edge50" class="edge"><title>aquilon#115-&gt;aquilon#109</title>
<path fill="none" stroke="black" stroke-width="2" d="M158.087,-2210.12C210.318,-2208.29 302.376,-2205.07 365.228,-2202.87"/>
<polygon fill="black" stroke="black" points="365.57,-2206.36 375.441,-2202.51 365.325,-2199.36 365.57,-2206.36"/>
<text text-anchor="middle" x="273" y="-2210.53" font-family="Sans" font-size="10.00">fixes</text>
</g>
<!-- aquilon#110 -->
<g id="node67" class="node"><title>aquilon#110</title>
<a xlink:href="https://github.com/quattor/aquilon/pull/110" xlink:title="Change site and machine namespace to use continent name" target="_parent">
<polygon fill="#6cc644" stroke="black" points="158,-2094.53 78,-2094.53 78,-2040.53 158,-2040.53 158,-2094.53"/>
<text text-anchor="middle" x="118" y="-2071.53" font-family="Sans" font-size="10.00">pull-request</text>
<text text-anchor="middle" x="118" y="-2058.53" font-family="Sans" font-size="10.00">aquilon#110</text>
</a>
</g>
<!-- aquilon#104 -->
<g id="node69" class="node"><title>aquilon#104</title>
<a xlink:href="https://github.com/quattor/aquilon/issues/104" xlink:title="1.12.62: location related templates cannot be used" target="_parent">
<ellipse fill="#6cc644" stroke="black" cx="432" cy="-2009.53" rx="56.0679" ry="38.1838"/>
<text text-anchor="middle" x="432" y="-2013.53" font-family="Sans" font-size="10.00">issue</text>
<text text-anchor="middle" x="432" y="-2000.53" font-family="Sans" font-size="10.00">aquilon#104</text>
</a>
</g>
<!-- aquilon#110&#45;&gt;aquilon#104 -->
<g id="edge52" class="edge"><title>aquilon#110-&gt;aquilon#104</title>
<path fill="none" stroke="black" stroke-width="2" d="M158.087,-2060.12C210.866,-2050.37 304.312,-2033.11 367.197,-2021.5"/>
<polygon fill="black" stroke="black" points="368.205,-2024.87 377.403,-2019.61 366.933,-2017.99 368.205,-2024.87"/>
<text text-anchor="middle" x="273" y="-2045.53" font-family="Sans" font-size="10.00">fixes</text>
</g>
<!-- aquilon#106 -->
<g id="node70" class="node"><title>aquilon#106</title>
<a xlink:href="https://github.com/quattor/aquilon/pull/106" xlink:title="machine plenary templates: allow to use the rack fullname" target="_parent">
<polygon fill="#6cc644" stroke="black" points="158,-2166.53 78,-2166.53 78,-2112.53 158,-2112.53 158,-2166.53"/>
<text text-anchor="middle" x="118" y="-2143.53" font-family="Sans" font-size="10.00">pull-request</text>
<text text-anchor="middle" x="118" y="-2130.53" font-family="Sans" font-size="10.00">aquilon#106</text>
</a>
</g>
<!-- aquilon#105 -->
<g id="node72" class="node"><title>aquilon#105</title>
<a xlink:href="https://github.com/quattor/aquilon/issues/105" xlink:title="1.12.62: allow to use rack fullname rather than name in machine template namespace" target="_parent">
<ellipse fill="#6cc644" stroke="black" cx="432" cy="-2106.53" rx="56.0679" ry="38.1838"/>
<text text-anchor="middle" x="432" y="-2110.53" font-family="Sans" font-size="10.00">issue</text>
<text text-anchor="middle" x="432" y="-2097.53" font-family="Sans" font-size="10.00">aquilon#105</text>
</a>
</g>
<!-- aquilon#106&#45;&gt;aquilon#105 -->
<g id="edge54" class="edge"><title>aquilon#106-&gt;aquilon#105</title>
<path fill="none" stroke="black" stroke-width="2" d="M158.087,-2135.31C210.475,-2129.81 302.928,-2120.09 365.792,-2113.48"/>
<polygon fill="black" stroke="black" points="366.425,-2116.94 376.004,-2112.41 365.693,-2109.98 366.425,-2116.94"/>
<text text-anchor="middle" x="273" y="-2128.53" font-family="Sans" font-size="10.00">fixes</text>
</g>
<!-- aquilon#91 -->
<g id="node73" class="node"><title>aquilon#91</title>
<a xlink:href="https://github.com/quattor/aquilon/issues/91" xlink:title="1.12.58: city timezone is not passed to the object template" target="_parent">
<ellipse fill="#6cc644" stroke="black" cx="118" cy="-1984.53" rx="53.033" ry="38.1838"/>
<text text-anchor="middle" x="118" y="-1988.53" font-family="Sans" font-size="10.00">issue</text>
<text text-anchor="middle" x="118" y="-1975.53" font-family="Sans" font-size="10.00">aquilon#91</text>
</a>
</g>
<!-- aquilon#91&#45;&gt;aquilon#104 -->
<g id="edge56" class="edge"><title>aquilon#91-&gt;aquilon#104</title>
<path fill="none" stroke="black" stroke-dasharray="5,2" d="M170.911,-1988.74C224.497,-1993 307.527,-1999.62 365.524,-2004.23"/>
<polygon fill="none" stroke="black" points="365.442,-2007.74 375.688,-2005.04 365.998,-2000.76 365.442,-2007.74"/>
<text text-anchor="middle" x="273" y="-2002.53" font-family="Sans" font-size="10.00">requires</text>
</g>
<!-- aquilon#89 -->
<g id="node75" class="node"><title>aquilon#89</title>
<a xlink:href="https://github.com/quattor/aquilon/pull/89" xlink:title="Broker: pass archetype to the object profile" target="_parent">
<polygon fill="#6cc644" stroke="black" points="157,-1928.53 79,-1928.53 79,-1874.53 157,-1874.53 157,-1928.53"/>
<text text-anchor="middle" x="118" y="-1905.53" font-family="Sans" font-size="10.00">pull-request</text>
<text text-anchor="middle" x="118" y="-1892.53" font-family="Sans" font-size="10.00">aquilon#89</text>
</a>
</g>
<!-- aquilon#88 -->
<g id="node77" class="node"><title>aquilon#88</title>
<a xlink:href="https://github.com/quattor/aquilon/issues/88" xlink:title="1.12.58: the broker should pass the archetype to the object template" target="_parent">
<ellipse fill="#6cc644" stroke="black" cx="432" cy="-1912.53" rx="53.033" ry="38.1838"/>
<text text-anchor="middle" x="432" y="-1916.53" font-family="Sans" font-size="10.00">issue</text>
<text text-anchor="middle" x="432" y="-1903.53" font-family="Sans" font-size="10.00">aquilon#88</text>
</a>
</g>
<!-- aquilon#89&#45;&gt;aquilon#88 -->
<g id="edge58" class="edge"><title>aquilon#89-&gt;aquilon#88</title>
<path fill="none" stroke="black" stroke-width="2" d="M157.768,-1902.92C210.918,-1904.78 305.713,-1908.1 368.729,-1910.31"/>
<polygon fill="black" stroke="black" points="368.829,-1913.81 378.945,-1910.67 369.074,-1906.82 368.829,-1913.81"/>
<text text-anchor="middle" x="273" y="-1911.53" font-family="Sans" font-size="10.00">fixes</text>
</g>
</g>
</svg>
