<?xml version="1.0" encoding="UTF-8" standalone="no"?>
<?xml-stylesheet href="relationships.css" type="text/css"?>
<!-- Generated by graphviz version 2.40.1 (0)
 -->
<!-- Title: Dependencies Pages: 1 -->
<svg xmlns="http://www.w3.org/2000/svg" xmlns:xlink="http://www.w3.org/1999/xlink" width="801pt" height="1800pt" viewBox="0.00 0.00 801.00 1799.50">
<g id="graph0" class="graph" transform="scale(1 1) rotate(0) translate(4 1795.5)">
<title>Dependencies</title>
<polygon fill="#ffffff" stroke="transparent" points="-4,4 -4,-1795.5 797,-1795.5 797,4 -4,4"/>
<g id="clust1" class="cluster">
<title>cluster_milestone_25.next</title>
<polygon fill="none" stroke="#000000" points="8,-401.5 8,-1454.5 785,-1454.5 785,-401.5 8,-401.5"/>
<text text-anchor="middle" x="396.5" y="-1440.9" font-family="Sans" font-size="12.00" fill="#000000">25.next</text>
</g>
<!-- aii#328 -->
<g id="node1" class="node">
<title>aii#328</title>
<g id="a_node1"><a xlink:href="https://github.com/quattor/aii/pull/328" xlink:title="aii#328 (pull-request)" target="_parent">
<polygon fill="#6cc644" stroke="#000000" points="189,-811.5 24,-811.5 24,-761.5 189,-761.5 189,-811.5"/>
<text text-anchor="middle" x="106.5" y="-789.5" font-family="Sans" font-size="10.00" fill="#000000">aii-ks: generate ks post section</text>
<text text-anchor="middle" x="106.5" y="-778.5" font-family="Sans" font-size="10.00" fill="#000000">as standalone script</text>
</a>
</g>
</g>
<!-- aii#280 -->
<g id="node2" class="node">
<title>aii#280</title>
<polygon fill="#d3d3d3" stroke="#000000" points="433,-393 374,-393 374,-354 433,-354 433,-393"/>
<text text-anchor="middle" x="403.5" y="-371" font-family="Sans" font-size="10.00" fill="#000000">aii#280</text>
</g>
<!-- aii#328&#45;&gt;aii#280 -->
<g id="edge1" class="edge">
<title>aii#328-&gt;aii#280</title>
<path fill="none" stroke="#000000" stroke-dasharray="5,2" d="M189.3973,-761.6797C193.22,-758.9334 196.7916,-755.8846 200,-752.5 313.4571,-632.8116 188.5571,-511.2155 308,-397.5 322.7301,-383.4762 344.3942,-377.3036 363.3663,-374.7135"/>
<polygon fill="none" stroke="#000000" points="364,-378.1656 373.5683,-373.6161 363.2513,-371.2058 364,-378.1656"/>
<text text-anchor="middle" x="234.1088" y="-560.5726" font-family="Sans" font-size="10.00" fill="#000000">requires</text>
</g>
<!-- aii#316 -->
<g id="node3" class="node">
<title>aii#316</title>
<polygon fill="#d3d3d3" stroke="#000000" points="433,-336 374,-336 374,-297 433,-297 433,-336"/>
<text text-anchor="middle" x="403.5" y="-314" font-family="Sans" font-size="10.00" fill="#000000">aii#316</text>
</g>
<!-- aii#328&#45;&gt;aii#316 -->
<g id="edge2" class="edge">
<title>aii#328-&gt;aii#316</title>
<path fill="none" stroke="#000000" stroke-dasharray="5,2" d="M189.1255,-762.127C193.0702,-759.2661 196.7375,-756.0702 200,-752.5 326.5372,-614.0294 177.1262,-478.8794 308,-344.5 322.5099,-329.6014 344.4877,-322.5229 363.703,-319.2045"/>
<polygon fill="none" stroke="#000000" points="364.339,-322.649 373.7362,-317.756 363.3387,-315.7208 364.339,-322.649"/>
<text text-anchor="middle" x="234.5116" y="-534.1928" font-family="Sans" font-size="10.00" fill="#000000">requires</text>
</g>
<!-- CAF#257 -->
<g id="node4" class="node">
<title>CAF#257</title>
<g id="a_node4"><a xlink:href="https://github.com/quattor/CAF/pull/257" xlink:title="CAF#257 (pull-request)" target="_parent">
<polygon fill="#6cc644" stroke="#000000" points="191.5,-1425.5 21.5,-1425.5 21.5,-1375.5 191.5,-1375.5 191.5,-1425.5"/>
<text text-anchor="middle" x="106.5" y="-1403.5" font-family="Sans" font-size="10.00" fill="#000000">Process: run process as another</text>
<text text-anchor="middle" x="106.5" y="-1392.5" font-family="Sans" font-size="10.00" fill="#000000">user</text>
</a>
</g>
</g>
<!-- CAF#253 -->
<g id="node5" class="node">
<title>CAF#253</title>
<g id="a_node5"><a xlink:href="https://github.com/quattor/CAF/issues/253" xlink:title="CAF#253 (issue)" target="_parent">
<path fill="#6cc644" stroke="#000000" d="M477,-1425C477,-1425 330,-1425 330,-1425 324,-1425 318,-1419 318,-1413 318,-1413 318,-1376 318,-1376 318,-1370 324,-1364 330,-1364 330,-1364 477,-1364 477,-1364 483,-1364 489,-1370 489,-1376 489,-1376 489,-1413 489,-1413 489,-1419 483,-1425 477,-1425"/>
<text text-anchor="middle" x="403.5" y="-1403" font-family="Sans" font-size="10.00" fill="#000000">CAF::Process: Include an option</text>
<text text-anchor="middle" x="403.5" y="-1392" font-family="Sans" font-size="10.00" fill="#000000">to execute the command as an</text>
<text text-anchor="middle" x="403.5" y="-1381" font-family="Sans" font-size="10.00" fill="#000000">specific user</text>
</a>
</g>
</g>
<!-- CAF#257&#45;&gt;CAF#253 -->
<g id="edge3" class="edge">
<title>CAF#257-&gt;CAF#253</title>
<path fill="none" stroke="#000000" stroke-width="2" d="M191.6083,-1398.7806C227.8017,-1398.0495 270.1799,-1397.1933 307.4862,-1396.4397"/>
<polygon fill="#000000" stroke="#000000" stroke-width="2" points="307.9374,-1399.9314 317.8646,-1396.23 307.7959,-1392.9328 307.9374,-1399.9314"/>
<text text-anchor="middle" x="243.6961" y="-1389.5061" font-family="Sans" font-size="10.00" fill="#000000">fixes</text>
</g>
<!-- CAF#110 -->
<g id="node6" class="node">
<title>CAF#110</title>
<g id="a_node6"><a xlink:href="https://github.com/quattor/CAF/pull/110" xlink:title="CAF#110 (pull-request)" target="_parent">
<polygon fill="#6cc644" stroke="#000000" points="179.5,-743.5 33.5,-743.5 33.5,-693.5 179.5,-693.5 179.5,-743.5"/>
<text text-anchor="middle" x="106.5" y="-721.5" font-family="Sans" font-size="10.00" fill="#000000">CAF::Download class: API</text>
<text text-anchor="middle" x="106.5" y="-710.5" font-family="Sans" font-size="10.00" fill="#000000">proposal</text>
</a>
</g>
</g>
<!-- CAF#120 -->
<g id="node7" class="node">
<title>CAF#120</title>
<polygon fill="#d3d3d3" stroke="#000000" points="438.5,-279 368.5,-279 368.5,-240 438.5,-240 438.5,-279"/>
<text text-anchor="middle" x="403.5" y="-257" font-family="Sans" font-size="10.00" fill="#000000">CAF#120</text>
</g>
<!-- CAF#110&#45;&gt;CAF#120 -->
<g id="edge4" class="edge">
<title>CAF#110-&gt;CAF#120</title>
<path fill="none" stroke="#000000" stroke-dasharray="5,2" d="M179.7942,-699.9766C187.3069,-695.8179 194.2693,-690.7282 200,-684.5 323.813,-549.9378 179.9732,-418.0595 308,-287.5 321.146,-274.0939 340.3402,-267.024 358.0787,-263.3266"/>
<polygon fill="none" stroke="#000000" points="359.0614,-266.7071 368.2979,-261.5169 357.8408,-259.8143 359.0614,-266.7071"/>
<text text-anchor="middle" x="234.7626" y="-474.175" font-family="Sans" font-size="10.00" fill="#000000">requires</text>
</g>
<!-- CCM#216 -->
<g id="node8" class="node">
<title>CCM#216</title>
<g id="a_node8"><a xlink:href="https://github.com/quattor/CCM/pull/216" xlink:title="CCM#216 (pull-request)" target="_parent">
<polygon fill="#6e5494" stroke="#000000" points="184,-1357.5 29,-1357.5 29,-1307.5 184,-1307.5 184,-1357.5"/>
<text text-anchor="middle" x="106.5" y="-1335.5" font-family="Sans" font-size="10.00" fill="#000000">ProfileCache: Include type in</text>
<text text-anchor="middle" x="106.5" y="-1324.5" font-family="Sans" font-size="10.00" fill="#000000">checksum calculation</text>
</a>
</g>
</g>
<!-- CCM#213 -->
<g id="node9" class="node">
<title>CCM#213</title>
<g id="a_node9"><a xlink:href="https://github.com/quattor/CCM/issues/213" xlink:title="CCM#213 (issue)" target="_parent">
<path fill="#6e5494" stroke="#000000" d="M463,-1345.5C463,-1345.5 344,-1345.5 344,-1345.5 338,-1345.5 332,-1339.5 332,-1333.5 332,-1333.5 332,-1307.5 332,-1307.5 332,-1301.5 338,-1295.5 344,-1295.5 344,-1295.5 463,-1295.5 463,-1295.5 469,-1295.5 475,-1301.5 475,-1307.5 475,-1307.5 475,-1333.5 475,-1333.5 475,-1339.5 469,-1345.5 463,-1345.5"/>
<text text-anchor="middle" x="403.5" y="-1323.5" font-family="Sans" font-size="10.00" fill="#000000">Include type information in</text>
<text text-anchor="middle" x="403.5" y="-1312.5" font-family="Sans" font-size="10.00" fill="#000000">checksum computation</text>
</a>
</g>
</g>
<!-- CCM#216&#45;&gt;CCM#213 -->
<g id="edge5" class="edge">
<title>CCM#216-&gt;CCM#213</title>
<path fill="none" stroke="#000000" stroke-width="2" d="M184.1453,-1329.3628C226.4701,-1327.6527 278.8251,-1325.5374 321.7706,-1323.8022"/>
<polygon fill="#000000" stroke="#000000" stroke-width="2" points="322.0573,-1327.2936 331.9078,-1323.3926 321.7746,-1320.2993 322.0573,-1327.2936"/>
<text text-anchor="middle" x="246.7347" y="-1318.3895" font-family="Sans" font-size="10.00" fill="#000000">fixes</text>
</g>
<!-- CCM#215 -->
<g id="node10" class="node">
<title>CCM#215</title>
<g id="a_node10"><a xlink:href="https://github.com/quattor/CCM/pull/215" xlink:title="CCM#215 (pull-request)" target="_parent">
<polygon fill="#6e5494" stroke="#000000" points="175,-1289 38,-1289 38,-1250 175,-1250 175,-1289"/>
<text text-anchor="middle" x="106.5" y="-1267" font-family="Sans" font-size="10.00" fill="#000000">Remove description field</text>
</a>
</g>
</g>
<!-- CCM#214 -->
<g id="node11" class="node">
<title>CCM#214</title>
<g id="a_node11"><a xlink:href="https://github.com/quattor/CCM/pull/214" xlink:title="CCM#214 (pull-request)" target="_parent">
<polygon fill="#6e5494" stroke="#000000" points="472.5,-1277.5 334.5,-1277.5 334.5,-1227.5 472.5,-1227.5 472.5,-1277.5"/>
<text text-anchor="middle" x="403.5" y="-1255.5" font-family="Sans" font-size="10.00" fill="#000000">Strip out all references to</text>
<text text-anchor="middle" x="403.5" y="-1244.5" font-family="Sans" font-size="10.00" fill="#000000">derivation</text>
</a>
</g>
</g>
<!-- CCM#215&#45;&gt;CCM#214 -->
<g id="edge6" class="edge">
<title>CCM#215-&gt;CCM#214</title>
<path fill="none" stroke="#000000" stroke-dasharray="5,2" d="M175.0107,-1265.5785C219.5392,-1263.0297 277.7446,-1259.6981 324.2638,-1257.0354"/>
<polygon fill="none" stroke="#000000" points="324.5215,-1260.5265 334.3052,-1256.4606 324.1215,-1253.5379 324.5215,-1260.5265"/>
<text text-anchor="middle" x="236.8635" y="-1253.0364" font-family="Sans" font-size="10.00" fill="#000000">requires</text>
</g>
<!-- CCM#134 -->
<g id="node12" class="node">
<title>CCM#134</title>
<g id="a_node12"><a xlink:href="https://github.com/quattor/CCM/issues/134" xlink:title="CCM#134 (issue)" target="_parent">
<path fill="#6e5494" stroke="#000000" d="M765,-1272C765,-1272 619,-1272 619,-1272 613,-1272 607,-1266 607,-1260 607,-1260 607,-1245 607,-1245 607,-1239 613,-1233 619,-1233 619,-1233 765,-1233 765,-1233 771,-1233 777,-1239 777,-1245 777,-1245 777,-1260 777,-1260 777,-1266 771,-1272 765,-1272"/>
<text text-anchor="middle" x="692" y="-1250" font-family="Sans" font-size="10.00" fill="#000000">Remove references to derivation</text>
</a>
</g>
</g>
<!-- CCM#214&#45;&gt;CCM#134 -->
<g id="edge7" class="edge">
<title>CCM#214-&gt;CCM#134</title>
<path fill="none" stroke="#000000" stroke-width="2" d="M472.6029,-1252.5C509.7926,-1252.5 556.2278,-1252.5 596.7906,-1252.5"/>
<polygon fill="#000000" stroke="#000000" stroke-width="2" points="596.9675,-1256.0001 606.9674,-1252.5 596.9674,-1249.0001 596.9675,-1256.0001"/>
<text text-anchor="middle" x="528.9412" y="-1244.5" font-family="Sans" font-size="10.00" fill="#000000">fixes</text>
</g>
<!-- configuration&#45;modules&#45;core#1810 -->
<g id="node13" class="node">
<title>configuration-modules-core#1810</title>
<g id="a_node13"><a xlink:href="https://github.com/quattor/configuration-modules-core/pull/1810" xlink:title="configuration-modules-core#1810 (pull-request)" target="_parent">
<polygon fill="#6cc644" stroke="#000000" points="193,-675.5 20,-675.5 20,-625.5 193,-625.5 193,-675.5"/>
<text text-anchor="middle" x="106.5" y="-653.5" font-family="Sans" font-size="10.00" fill="#000000">ncm-metaconfig: updated filebeat</text>
<text text-anchor="middle" x="106.5" y="-642.5" font-family="Sans" font-size="10.00" fill="#000000">7.x schema to fix #1728</text>
</a>
</g>
</g>
<!-- configuration&#45;modules&#45;core#1728 -->
<g id="node14" class="node">
<title>configuration-modules-core#1728</title>
<polygon fill="#d3d3d3" stroke="#000000" points="489.5,-222 317.5,-222 317.5,-183 489.5,-183 489.5,-222"/>
<text text-anchor="middle" x="403.5" y="-200" font-family="Sans" font-size="10.00" fill="#000000">configuration-modules-core#1728</text>
</g>
<!-- configuration&#45;modules&#45;core#1810&#45;&gt;configuration&#45;modules&#45;core#1728 -->
<g id="edge8" class="edge">
<title>configuration-modules-core#1810-&gt;configuration-modules-core#1728</title>
<path fill="none" stroke="#000000" stroke-width="2" d="M189.9103,-625.4571C193.5503,-622.7693 196.9473,-619.7938 200,-616.5 321.0933,-485.8412 182.8155,-357.2445 308,-230.5 308.664,-229.8277 309.3432,-229.1714 310.0366,-228.5307"/>
<polygon fill="#000000" stroke="#000000" stroke-width="2" points="312.3054,-231.1985 317.9687,-222.2443 307.9576,-225.7125 312.3054,-231.1985"/>
<text text-anchor="middle" x="241.5768" y="-415.9168" font-family="Sans" font-size="10.00" fill="#000000">fixes</text>
</g>
<!-- configuration&#45;modules&#45;core#1788 -->
<g id="node15" class="node">
<title>configuration-modules-core#1788</title>
<g id="a_node15"><a xlink:href="https://github.com/quattor/configuration-modules-core/pull/1788" xlink:title="configuration-modules-core#1788 (pull-request)" target="_parent">
<polygon fill="#6e5494" stroke="#000000" points="177.5,-1231.5 35.5,-1231.5 35.5,-1181.5 177.5,-1181.5 177.5,-1231.5"/>
<text text-anchor="middle" x="106.5" y="-1209.5" font-family="Sans" font-size="10.00" fill="#000000">ncm-systemd: ensure unit</text>
<text text-anchor="middle" x="106.5" y="-1198.5" font-family="Sans" font-size="10.00" fill="#000000">property is defined</text>
</a>
</g>
</g>
<!-- configuration&#45;modules&#45;core#1787 -->
<g id="node16" class="node">
<title>configuration-modules-core#1787</title>
<g id="a_node16"><a xlink:href="https://github.com/quattor/configuration-modules-core/issues/1787" xlink:title="configuration-modules-core#1787 (issue)" target="_parent">
<path fill="#6e5494" stroke="#000000" d="M476.5,-1209.5C476.5,-1209.5 330.5,-1209.5 330.5,-1209.5 324.5,-1209.5 318.5,-1203.5 318.5,-1197.5 318.5,-1197.5 318.5,-1171.5 318.5,-1171.5 318.5,-1165.5 324.5,-1159.5 330.5,-1159.5 330.5,-1159.5 476.5,-1159.5 476.5,-1159.5 482.5,-1159.5 488.5,-1165.5 488.5,-1171.5 488.5,-1171.5 488.5,-1197.5 488.5,-1197.5 488.5,-1203.5 482.5,-1209.5 476.5,-1209.5"/>
<text text-anchor="middle" x="403.5" y="-1187.5" font-family="Sans" font-size="10.00" fill="#000000">ncm-systemd 24.10.0: validation</text>
<text text-anchor="middle" x="403.5" y="-1176.5" font-family="Sans" font-size="10.00" fill="#000000">fails if no unit is defined</text>
</a>
</g>
</g>
<!-- configuration&#45;modules&#45;core#1788&#45;&gt;configuration&#45;modules&#45;core#1787 -->
<g id="edge9" class="edge">
<title>configuration-modules-core#1788-&gt;configuration-modules-core#1787</title>
<path fill="none" stroke="#000000" stroke-width="2" d="M177.6389,-1201.2305C216.8014,-1198.3295 265.923,-1194.6909 308.3459,-1191.5485"/>
<polygon fill="#000000" stroke="#000000" stroke-width="2" points="308.697,-1195.0321 318.4111,-1190.8029 308.1799,-1188.0512 308.697,-1195.0321"/>
<text text-anchor="middle" x="237.1009" y="-1188.011" font-family="Sans" font-size="10.00" fill="#000000">fixes</text>
</g>
<!-- configuration&#45;modules&#45;core#1783 -->
<g id="node17" class="node">
<title>configuration-modules-core#1783</title>
<g id="a_node17"><a xlink:href="https://github.com/quattor/configuration-modules-core/pull/1783" xlink:title="configuration-modules-core#1783 (pull-request)" target="_parent">
<polygon fill="#6cc644" stroke="#000000" points="191.5,-1163 21.5,-1163 21.5,-1102 191.5,-1102 191.5,-1163"/>
<text text-anchor="middle" x="106.5" y="-1141" font-family="Sans" font-size="10.00" fill="#000000">metaconfig/named: fix validation</text>
<text text-anchor="middle" x="106.5" y="-1130" font-family="Sans" font-size="10.00" fill="#000000">of logging channels in</text>
<text text-anchor="middle" x="106.5" y="-1119" font-family="Sans" font-size="10.00" fill="#000000">categories</text>
</a>
</g>
</g>
<!-- configuration&#45;modules&#45;core#1784 -->
<g id="node18" class="node">
<title>configuration-modules-core#1784</title>
<g id="a_node18"><a xlink:href="https://github.com/quattor/configuration-modules-core/issues/1784" xlink:title="configuration-modules-core#1784 (issue)" target="_parent">
<path fill="#6cc644" stroke="#000000" d="M475,-1141C475,-1141 332,-1141 332,-1141 326,-1141 320,-1135 320,-1129 320,-1129 320,-1092 320,-1092 320,-1086 326,-1080 332,-1080 332,-1080 475,-1080 475,-1080 481,-1080 487,-1086 487,-1092 487,-1092 487,-1129 487,-1129 487,-1135 481,-1141 475,-1141"/>
<text text-anchor="middle" x="403.5" y="-1119" font-family="Sans" font-size="10.00" fill="#000000">ncm-metaconfig 24.10.0 named</text>
<text text-anchor="middle" x="403.5" y="-1108" font-family="Sans" font-size="10.00" fill="#000000">module: error in logging channel</text>
<text text-anchor="middle" x="403.5" y="-1097" font-family="Sans" font-size="10.00" fill="#000000">name validation</text>
</a>
</g>
</g>
<!-- configuration&#45;modules&#45;core#1783&#45;&gt;configuration&#45;modules&#45;core#1784 -->
<g id="edge10" class="edge">
<title>configuration-modules-core#1783-&gt;configuration-modules-core#1784</title>
<path fill="none" stroke="#000000" stroke-width="2" d="M191.6083,-1126.1957C228.5857,-1123.4566 272.0189,-1120.2393 309.9035,-1117.4331"/>
<polygon fill="#000000" stroke="#000000" stroke-width="2" points="310.2042,-1120.9205 319.9183,-1116.6912 309.687,-1113.9396 310.2042,-1120.9205"/>
<text text-anchor="middle" x="244.6292" y="-1113.4534" font-family="Sans" font-size="10.00" fill="#000000">fixes</text>
</g>
<!-- configuration&#45;modules&#45;core#1739 -->
<g id="node19" class="node">
<title>configuration-modules-core#1739</title>
<g id="a_node19"><a xlink:href="https://github.com/quattor/configuration-modules-core/pull/1739" xlink:title="configuration-modules-core#1739 (pull-request)" target="_parent">
<polygon fill="#6cc644" stroke="#000000" points="190.5,-607 22.5,-607 22.5,-546 190.5,-546 190.5,-607"/>
<text text-anchor="middle" x="106.5" y="-585" font-family="Sans" font-size="10.00" fill="#000000">ncm-network: dropin file support</text>
<text text-anchor="middle" x="106.5" y="-574" font-family="Sans" font-size="10.00" fill="#000000">for main configuration of</text>
<text text-anchor="middle" x="106.5" y="-563" font-family="Sans" font-size="10.00" fill="#000000">NetworkManager</text>
</a>
</g>
</g>
<!-- configuration&#45;modules&#45;core#1740 -->
<g id="node20" class="node">
<title>configuration-modules-core#1740</title>
<polygon fill="#d3d3d3" stroke="#000000" points="489.5,-165 317.5,-165 317.5,-126 489.5,-126 489.5,-165"/>
<text text-anchor="middle" x="403.5" y="-143" font-family="Sans" font-size="10.00" fill="#000000">configuration-modules-core#1740</text>
</g>
<!-- configuration&#45;modules&#45;core#1739&#45;&gt;configuration&#45;modules&#45;core#1740 -->
<g id="edge11" class="edge">
<title>configuration-modules-core#1739-&gt;configuration-modules-core#1740</title>
<path fill="none" stroke="#000000" stroke-width="2" d="M189.9072,-545.9533C193.548,-543.0709 196.9461,-539.9272 200,-536.5 311.9811,-410.8311 188.7415,-292.2849 308,-173.5 308.7957,-172.7075 309.6126,-171.9371 310.449,-171.1884"/>
<polygon fill="#000000" stroke="#000000" stroke-width="2" points="312.6763,-173.8907 318.4625,-165.0155 308.4045,-168.3452 312.6763,-173.8907"/>
<text text-anchor="middle" x="240.3719" y="-347.5935" font-family="Sans" font-size="10.00" fill="#000000">fixes</text>
</g>
<!-- configuration&#45;modules&#45;core#1507 -->
<g id="node21" class="node">
<title>configuration-modules-core#1507</title>
<g id="a_node21"><a xlink:href="https://github.com/quattor/configuration-modules-core/pull/1507" xlink:title="configuration-modules-core#1507 (pull-request)" target="_parent">
<polygon fill="#6cc644" stroke="#000000" points="188,-1512.5 25,-1512.5 25,-1462.5 188,-1462.5 188,-1512.5"/>
<text text-anchor="middle" x="106.5" y="-1490.5" font-family="Sans" font-size="10.00" fill="#000000">[WIP] ncm-spma: yumdnf: use</text>
<text text-anchor="middle" x="106.5" y="-1479.5" font-family="Sans" font-size="10.00" fill="#000000">spmaleaves dnf plugin</text>
</a>
</g>
</g>
<!-- configuration&#45;modules&#45;core#1401 -->
<g id="node22" class="node">
<title>configuration-modules-core#1401</title>
<polygon fill="#d3d3d3" stroke="#000000" points="489.5,-1507 317.5,-1507 317.5,-1468 489.5,-1468 489.5,-1507"/>
<text text-anchor="middle" x="403.5" y="-1485" font-family="Sans" font-size="10.00" fill="#000000">configuration-modules-core#1401</text>
</g>
<!-- configuration&#45;modules&#45;core#1507&#45;&gt;configuration&#45;modules&#45;core#1401 -->
<g id="edge12" class="edge">
<title>configuration-modules-core#1507-&gt;configuration-modules-core#1401</title>
<path fill="none" stroke="#000000" stroke-dasharray="5,2" d="M188.0494,-1487.5C224.937,-1487.5 268.7952,-1487.5 307.2825,-1487.5"/>
<polygon fill="none" stroke="#000000" points="307.4629,-1491.0001 317.4629,-1487.5 307.4628,-1484.0001 307.4629,-1491.0001"/>
<text text-anchor="middle" x="235.3037" y="-1479.5" font-family="Sans" font-size="10.00" fill="#000000">requires</text>
</g>
<!-- configuration&#45;modules&#45;core#1336 -->
<g id="node23" class="node">
<title>configuration-modules-core#1336</title>
<g id="a_node23"><a xlink:href="https://github.com/quattor/configuration-modules-core/pull/1336" xlink:title="configuration-modules-core#1336 (pull-request)" target="_parent">
<polygon fill="#6cc644" stroke="#000000" points="185.5,-1624 27.5,-1624 27.5,-1563 185.5,-1563 185.5,-1624"/>
<text text-anchor="middle" x="106.5" y="-1602" font-family="Sans" font-size="10.00" fill="#000000">ncm-network: Add support for</text>
<text text-anchor="middle" x="106.5" y="-1591" font-family="Sans" font-size="10.00" fill="#000000">CAF::Service actions after</text>
<text text-anchor="middle" x="106.5" y="-1580" font-family="Sans" font-size="10.00" fill="#000000">changes</text>
</a>
</g>
</g>
<!-- configuration&#45;modules&#45;core#1335 -->
<g id="node24" class="node">
<title>configuration-modules-core#1335</title>
<g id="a_node24"><a xlink:href="https://github.com/quattor/configuration-modules-core/pull/1335" xlink:title="configuration-modules-core#1335 (pull-request)" target="_parent">
<polygon fill="#6cc644" stroke="#000000" points="488,-1655 319,-1655 319,-1594 488,-1594 488,-1655"/>
<text text-anchor="middle" x="403.5" y="-1633" font-family="Sans" font-size="10.00" fill="#000000">ncm-metaconfig: Remove</text>
<text text-anchor="middle" x="403.5" y="-1622" font-family="Sans" font-size="10.00" fill="#000000">caf_service_action type to allow</text>
<text text-anchor="middle" x="403.5" y="-1611" font-family="Sans" font-size="10.00" fill="#000000">reuse</text>
</a>
</g>
</g>
<!-- configuration&#45;modules&#45;core#1336&#45;&gt;configuration&#45;modules&#45;core#1335 -->
<g id="edge13" class="edge">
<title>configuration-modules-core#1336-&gt;configuration-modules-core#1335</title>
<path fill="none" stroke="#000000" stroke-dasharray="5,2" d="M185.7004,-1601.7667C223.5615,-1605.7185 269.1699,-1610.479 308.8466,-1614.6203"/>
<polygon fill="none" stroke="#000000" points="308.4884,-1618.1019 318.7977,-1615.659 309.2151,-1611.1397 308.4884,-1618.1019"/>
<text text-anchor="middle" x="234.535" y="-1600.6905" font-family="Sans" font-size="10.00" fill="#000000">requires</text>
</g>
<!-- configuration&#45;modules&#45;core#1071 -->
<g id="node25" class="node">
<title>configuration-modules-core#1071</title>
<g id="a_node25"><a xlink:href="https://github.com/quattor/configuration-modules-core/issues/1071" xlink:title="configuration-modules-core#1071 (issue)" target="_parent">
<path fill="#6cc644" stroke="#000000" d="M480,-1575.5C480,-1575.5 327,-1575.5 327,-1575.5 321,-1575.5 315,-1569.5 315,-1563.5 315,-1563.5 315,-1537.5 315,-1537.5 315,-1531.5 321,-1525.5 327,-1525.5 327,-1525.5 480,-1525.5 480,-1525.5 486,-1525.5 492,-1531.5 492,-1537.5 492,-1537.5 492,-1563.5 492,-1563.5 492,-1569.5 486,-1575.5 480,-1575.5"/>
<text text-anchor="middle" x="403.5" y="-1553.5" font-family="Sans" font-size="10.00" fill="#000000">ncm-network: support daemons to</text>
<text text-anchor="middle" x="403.5" y="-1542.5" font-family="Sans" font-size="10.00" fill="#000000">restart after network changes</text>
</a>
</g>
</g>
<!-- configuration&#45;modules&#45;core#1336&#45;&gt;configuration&#45;modules&#45;core#1071 -->
<g id="edge14" class="edge">
<title>configuration-modules-core#1336-&gt;configuration-modules-core#1071</title>
<path fill="none" stroke="#000000" stroke-width="2" d="M185.7004,-1582.0333C222.218,-1576.7462 265.9428,-1570.4157 304.601,-1564.8187"/>
<polygon fill="#000000" stroke="#000000" stroke-width="2" points="305.4392,-1568.2339 314.8345,-1563.3371 304.4362,-1561.3062 305.4392,-1568.2339"/>
<text text-anchor="middle" x="239.5484" y="-1564.6445" font-family="Sans" font-size="10.00" fill="#000000">fixes</text>
</g>
<!-- template&#45;library&#45;core#191 -->
<g id="node26" class="node">
<title>template-library-core#191</title>
<polygon fill="#d3d3d3" stroke="#000000" points="761,-1644 623,-1644 623,-1605 761,-1605 761,-1644"/>
<text text-anchor="middle" x="692" y="-1622" font-family="Sans" font-size="10.00" fill="#000000">template-library-core#191</text>
</g>
<!-- configuration&#45;modules&#45;core#1335&#45;&gt;template&#45;library&#45;core#191 -->
<g id="edge15" class="edge">
<title>configuration-modules-core#1335-&gt;template-library-core#191</title>
<path fill="none" stroke="#000000" stroke-dasharray="5,2" d="M488.1102,-1624.5C527.4879,-1624.5 574.0622,-1624.5 612.7496,-1624.5"/>
<polygon fill="none" stroke="#000000" points="612.9215,-1628.0001 622.9214,-1624.5 612.9214,-1621.0001 612.9215,-1628.0001"/>
<text text-anchor="middle" x="538.2023" y="-1616.5" font-family="Sans" font-size="10.00" fill="#000000">requires</text>
</g>
<!-- configuration&#45;modules&#45;core#1148 -->
<g id="node27" class="node">
<title>configuration-modules-core#1148</title>
<g id="a_node27"><a xlink:href="https://github.com/quattor/configuration-modules-core/pull/1148" xlink:title="configuration-modules-core#1148 (pull-request)" target="_parent">
<polygon fill="#6cc644" stroke="#000000" points="196,-1791.5 17,-1791.5 17,-1741.5 196,-1741.5 196,-1791.5"/>
<text text-anchor="middle" x="106.5" y="-1769.5" font-family="Sans" font-size="10.00" fill="#000000">ncm-spma: Remove support from</text>
<text text-anchor="middle" x="106.5" y="-1758.5" font-family="Sans" font-size="10.00" fill="#000000">groups from spma yumng backend</text>
</a>
</g>
</g>
<!-- configuration&#45;modules&#45;core#952 -->
<g id="node28" class="node">
<title>configuration-modules-core#952</title>
<g id="a_node28"><a xlink:href="https://github.com/quattor/configuration-modules-core/issues/952" xlink:title="configuration-modules-core#952 (issue)" target="_parent">
<path fill="#6cc644" stroke="#000000" d="M487,-1791.5C487,-1791.5 320,-1791.5 320,-1791.5 314,-1791.5 308,-1785.5 308,-1779.5 308,-1779.5 308,-1753.5 308,-1753.5 308,-1747.5 314,-1741.5 320,-1741.5 320,-1741.5 487,-1741.5 487,-1741.5 493,-1741.5 499,-1747.5 499,-1753.5 499,-1753.5 499,-1779.5 499,-1779.5 499,-1785.5 493,-1791.5 487,-1791.5"/>
<text text-anchor="middle" x="403.5" y="-1769.5" font-family="Sans" font-size="10.00" fill="#000000">ncm-spma (yumng): Remove support</text>
<text text-anchor="middle" x="403.5" y="-1758.5" font-family="Sans" font-size="10.00" fill="#000000">for package groups</text>
</a>
</g>
</g>
<!-- configuration&#45;modules&#45;core#1148&#45;&gt;configuration&#45;modules&#45;core#952 -->
<g id="edge16" class="edge">
<title>configuration-modules-core#1148-&gt;configuration-modules-core#952</title>
<path fill="none" stroke="#000000" stroke-width="2" d="M196.0126,-1766.5C228.0535,-1766.5 264.4693,-1766.5 297.7528,-1766.5"/>
<polygon fill="#000000" stroke="#000000" stroke-width="2" points="297.9733,-1770.0001 307.9733,-1766.5 297.9733,-1763.0001 297.9733,-1770.0001"/>
<text text-anchor="middle" x="241.0876" y="-1758.5" font-family="Sans" font-size="10.00" fill="#000000">fixes</text>
</g>
<!-- configuration&#45;modules&#45;core#950 -->
<g id="node29" class="node">
<title>configuration-modules-core#950</title>
<g id="a_node29"><a xlink:href="https://github.com/quattor/configuration-modules-core/issues/950" xlink:title="configuration-modules-core#950 (issue)" target="_parent">
<path fill="#6cc644" stroke="#000000" d="M188,-1723.5C188,-1723.5 25,-1723.5 25,-1723.5 19,-1723.5 13,-1717.5 13,-1711.5 13,-1711.5 13,-1685.5 13,-1685.5 13,-1679.5 19,-1673.5 25,-1673.5 25,-1673.5 188,-1673.5 188,-1673.5 194,-1673.5 200,-1679.5 200,-1685.5 200,-1685.5 200,-1711.5 200,-1711.5 200,-1717.5 194,-1723.5 188,-1723.5"/>
<text text-anchor="middle" x="106.5" y="-1701.5" font-family="Sans" font-size="10.00" fill="#000000">ncm-spma: Remove support for</text>
<text text-anchor="middle" x="106.5" y="-1690.5" font-family="Sans" font-size="10.00" fill="#000000">package groups from yum backends</text>
</a>
</g>
</g>
<!-- configuration&#45;modules&#45;core#950&#45;&gt;configuration&#45;modules&#45;core#952 -->
<g id="edge18" class="edge">
<title>configuration-modules-core#950-&gt;configuration-modules-core#952</title>
<path fill="none" stroke="#000000" stroke-dasharray="5,2" d="M200.065,-1719.9223C231.1915,-1727.0489 266.0665,-1735.0337 298.0303,-1742.3521"/>
<polygon fill="none" stroke="#000000" points="297.3204,-1745.78 307.8493,-1744.6002 298.8827,-1738.9566 297.3204,-1745.78"/>
<text text-anchor="middle" x="236.6849" y="-1724.3134" font-family="Sans" font-size="10.00" fill="#000000">requires</text>
</g>
<!-- configuration&#45;modules&#45;core#951 -->
<g id="node30" class="node">
<title>configuration-modules-core#951</title>
<g id="a_node30"><a xlink:href="https://github.com/quattor/configuration-modules-core/issues/951" xlink:title="configuration-modules-core#951 (issue)" target="_parent">
<path fill="#6cc644" stroke="#000000" d="M481.5,-1723.5C481.5,-1723.5 325.5,-1723.5 325.5,-1723.5 319.5,-1723.5 313.5,-1717.5 313.5,-1711.5 313.5,-1711.5 313.5,-1685.5 313.5,-1685.5 313.5,-1679.5 319.5,-1673.5 325.5,-1673.5 325.5,-1673.5 481.5,-1673.5 481.5,-1673.5 487.5,-1673.5 493.5,-1679.5 493.5,-1685.5 493.5,-1685.5 493.5,-1711.5 493.5,-1711.5 493.5,-1717.5 487.5,-1723.5 481.5,-1723.5"/>
<text text-anchor="middle" x="403.5" y="-1701.5" font-family="Sans" font-size="10.00" fill="#000000">ncm-spma (yum): Remove support</text>
<text text-anchor="middle" x="403.5" y="-1690.5" font-family="Sans" font-size="10.00" fill="#000000">for package groups</text>
</a>
</g>
</g>
<!-- configuration&#45;modules&#45;core#950&#45;&gt;configuration&#45;modules&#45;core#951 -->
<g id="edge17" class="edge">
<title>configuration-modules-core#950-&gt;configuration-modules-core#951</title>
<path fill="none" stroke="#000000" stroke-dasharray="5,2" d="M200.065,-1698.5C232.8866,-1698.5 269.8759,-1698.5 303.2252,-1698.5"/>
<polygon fill="none" stroke="#000000" points="303.4495,-1702.0001 313.4494,-1698.5 303.4494,-1695.0001 303.4495,-1702.0001"/>
<text text-anchor="middle" x="239.2859" y="-1690.5" font-family="Sans" font-size="10.00" fill="#000000">requires</text>
</g>
<!-- configuration&#45;modules&#45;grid#151 -->
<g id="node31" class="node">
<title>configuration-modules-grid#151</title>
<g id="a_node31"><a xlink:href="https://github.com/quattor/configuration-modules-grid/pull/151" xlink:title="configuration-modules-grid#151 (pull-request)" target="_parent">
<polygon fill="#6cc644" stroke="#000000" points="183.5,-1083.5 29.5,-1083.5 29.5,-1033.5 183.5,-1033.5 183.5,-1083.5"/>
<text text-anchor="middle" x="106.5" y="-1061.5" font-family="Sans" font-size="10.00" fill="#000000">ncm-maui: Remove obsolete</text>
<text text-anchor="middle" x="106.5" y="-1050.5" font-family="Sans" font-size="10.00" fill="#000000">component</text>
</a>
</g>
</g>
<!-- configuration&#45;modules&#45;grid#85 -->
<g id="node32" class="node">
<title>configuration-modules-grid#85</title>
<g id="a_node32"><a xlink:href="https://github.com/quattor/configuration-modules-grid/issues/85" xlink:title="configuration-modules-grid#85 (issue)" target="_parent">
<path fill="#6cc644" stroke="#000000" d="M481.5,-1061.5C481.5,-1061.5 325.5,-1061.5 325.5,-1061.5 319.5,-1061.5 313.5,-1055.5 313.5,-1049.5 313.5,-1049.5 313.5,-1023.5 313.5,-1023.5 313.5,-1017.5 319.5,-1011.5 325.5,-1011.5 325.5,-1011.5 481.5,-1011.5 481.5,-1011.5 487.5,-1011.5 493.5,-1017.5 493.5,-1023.5 493.5,-1023.5 493.5,-1049.5 493.5,-1049.5 493.5,-1055.5 487.5,-1061.5 481.5,-1061.5"/>
<text text-anchor="middle" x="403.5" y="-1039.5" font-family="Sans" font-size="10.00" fill="#000000">deprecate / remove ncm-moab and</text>
<text text-anchor="middle" x="403.5" y="-1028.5" font-family="Sans" font-size="10.00" fill="#000000">ncm-maui</text>
</a>
</g>
</g>
<!-- configuration&#45;modules&#45;grid#151&#45;&gt;configuration&#45;modules&#45;grid#85 -->
<g id="edge19" class="edge">
<title>configuration-modules-grid#151-&gt;configuration-modules-grid#85</title>
<path fill="none" stroke="#000000" stroke-width="2" d="M183.7579,-1052.7772C220.2041,-1050.0775 264.1533,-1046.822 303.1391,-1043.9341"/>
<polygon fill="#000000" stroke="#000000" stroke-width="2" points="303.7488,-1047.3987 313.4629,-1043.1694 303.2316,-1040.4178 303.7488,-1047.3987"/>
<text text-anchor="middle" x="237.7249" y="-1039.9648" font-family="Sans" font-size="10.00" fill="#000000">fixes</text>
</g>
<!-- ncm&#45;lib&#45;blockdevices#111 -->
<g id="node33" class="node">
<title>ncm-lib-blockdevices#111</title>
<g id="a_node33"><a xlink:href="https://github.com/quattor/ncm-lib-blockdevices/pull/111" xlink:title="ncm-lib-blockdevices#111 (pull-request)" target="_parent">
<polygon fill="#6e5494" stroke="#000000" points="192.5,-1015.5 20.5,-1015.5 20.5,-965.5 192.5,-965.5 192.5,-1015.5"/>
<text text-anchor="middle" x="106.5" y="-993.5" font-family="Sans" font-size="10.00" fill="#000000">option to always use device path</text>
<text text-anchor="middle" x="106.5" y="-982.5" font-family="Sans" font-size="10.00" fill="#000000">for mounts instead of uuid</text>
</a>
</g>
</g>
<!-- ncm&#45;lib&#45;blockdevices#110 -->
<g id="node34" class="node">
<title>ncm-lib-blockdevices#110</title>
<g id="a_node34"><a xlink:href="https://github.com/quattor/ncm-lib-blockdevices/issues/110" xlink:title="ncm-lib-blockdevices#110 (issue)" target="_parent">
<path fill="#6e5494" stroke="#000000" d="M473,-993.5C473,-993.5 334,-993.5 334,-993.5 328,-993.5 322,-987.5 322,-981.5 322,-981.5 322,-955.5 322,-955.5 322,-949.5 328,-943.5 334,-943.5 334,-943.5 473,-943.5 473,-943.5 479,-943.5 485,-949.5 485,-955.5 485,-955.5 485,-981.5 485,-981.5 485,-987.5 479,-993.5 473,-993.5"/>
<text text-anchor="middle" x="403.5" y="-971.5" font-family="Sans" font-size="10.00" fill="#000000">Do not set uuid for vxvm vol in</text>
<text text-anchor="middle" x="403.5" y="-960.5" font-family="Sans" font-size="10.00" fill="#000000">fstab</text>
</a>
</g>
</g>
<!-- ncm&#45;lib&#45;blockdevices#111&#45;&gt;ncm&#45;lib&#45;blockdevices#110 -->
<g id="edge20" class="edge">
<title>ncm-lib-blockdevices#111-&gt;ncm-lib-blockdevices#110</title>
<path fill="none" stroke="#000000" stroke-width="2" d="M192.8037,-984.1071C230.1434,-981.3412 273.8867,-978.101 311.8097,-975.2919"/>
<polygon fill="#000000" stroke="#000000" stroke-width="2" points="312.114,-978.779 321.8281,-974.5498 311.5969,-971.7981 312.114,-978.779"/>
<text text-anchor="middle" x="246.3335" y="-971.3271" font-family="Sans" font-size="10.00" fill="#000000">fixes</text>
</g>
<!-- ncm&#45;lib&#45;blockdevices#106 -->
<g id="node35" class="node">
<title>ncm-lib-blockdevices#106</title>
<g id="a_node35"><a xlink:href="https://github.com/quattor/ncm-lib-blockdevices/pull/106" xlink:title="ncm-lib-blockdevices#106 (pull-request)" target="_parent">
<polygon fill="#6cc644" stroke="#000000" points="188.5,-947.5 24.5,-947.5 24.5,-897.5 188.5,-897.5 188.5,-947.5"/>
<text text-anchor="middle" x="106.5" y="-925.5" font-family="Sans" font-size="10.00" fill="#000000">Partition: Mask DM/LVM rules,</text>
<text text-anchor="middle" x="106.5" y="-914.5" font-family="Sans" font-size="10.00" fill="#000000">don't stop udev</text>
</a>
</g>
</g>
<!-- ncm&#45;lib&#45;blockdevices#105 -->
<g id="node36" class="node">
<title>ncm-lib-blockdevices#105</title>
<g id="a_node36"><a xlink:href="https://github.com/quattor/ncm-lib-blockdevices/issues/105" xlink:title="ncm-lib-blockdevices#105 (issue)" target="_parent">
<path fill="#6cc644" stroke="#000000" d="M467,-925C467,-925 340,-925 340,-925 334,-925 328,-919 328,-913 328,-913 328,-876 328,-876 328,-870 334,-864 340,-864 340,-864 467,-864 467,-864 473,-864 479,-870 479,-876 479,-876 479,-913 479,-913 479,-919 473,-925 467,-925"/>
<text text-anchor="middle" x="403.5" y="-903" font-family="Sans" font-size="10.00" fill="#000000">Pausing udev makes</text>
<text text-anchor="middle" x="403.5" y="-892" font-family="Sans" font-size="10.00" fill="#000000">`/dev/disk/by-*` unusable for</text>
<text text-anchor="middle" x="403.5" y="-881" font-family="Sans" font-size="10.00" fill="#000000">installations</text>
</a>
</g>
</g>
<!-- ncm&#45;lib&#45;blockdevices#106&#45;&gt;ncm&#45;lib&#45;blockdevices#105 -->
<g id="edge21" class="edge">
<title>ncm-lib-blockdevices#106-&gt;ncm-lib-blockdevices#105</title>
<path fill="none" stroke="#000000" stroke-width="2" d="M188.8366,-914.7376C228.9554,-910.9554 277.1725,-906.4097 317.7371,-902.5854"/>
<polygon fill="#000000" stroke="#000000" stroke-width="2" points="318.2484,-906.0528 327.8757,-901.6296 317.5913,-899.0837 318.2484,-906.0528"/>
<text text-anchor="middle" x="247.3087" y="-900.1881" font-family="Sans" font-size="10.00" fill="#000000">fixes</text>
</g>
<!-- release#370 -->
<g id="node37" class="node">
<title>release#370</title>
<g id="a_node37"><a xlink:href="https://github.com/quattor/release/pull/370" xlink:title="release#370 (pull-request)" target="_parent">
<polygon fill="#6e5494" stroke="#000000" points="187.5,-879.5 25.5,-879.5 25.5,-829.5 187.5,-829.5 187.5,-879.5"/>
<text text-anchor="middle" x="106.5" y="-857.5" font-family="Sans" font-size="10.00" fill="#000000">Update template library scripts</text>
<text text-anchor="middle" x="106.5" y="-846.5" font-family="Sans" font-size="10.00" fill="#000000">for new repository structure</text>
</a>
</g>
</g>
<!-- release#373 -->
<g id="node38" class="node">
<title>release#373</title>
<g id="a_node38"><a xlink:href="https://github.com/quattor/release/issues/373" xlink:title="release#373 (issue)" target="_parent">
<path fill="#6e5494" stroke="#000000" d="M478,-846C478,-846 329,-846 329,-846 323,-846 317,-840 317,-834 317,-834 317,-797 317,-797 317,-791 323,-785 329,-785 329,-785 478,-785 478,-785 484,-785 490,-791 490,-797 490,-797 490,-834 490,-834 490,-840 484,-846 478,-846"/>
<text text-anchor="middle" x="403.5" y="-824" font-family="Sans" font-size="10.00" fill="#000000">get-template-library: update the</text>
<text text-anchor="middle" x="403.5" y="-813" font-family="Sans" font-size="10.00" fill="#000000">default master branch name after</text>
<text text-anchor="middle" x="403.5" y="-802" font-family="Sans" font-size="10.00" fill="#000000">master -&gt; main rename</text>
</a>
</g>
</g>
<!-- release#370&#45;&gt;release#373 -->
<g id="edge22" class="edge">
<title>release#370-&gt;release#373</title>
<path fill="none" stroke="#000000" stroke-width="2" d="M187.6566,-843.8431C224.4705,-839.0089 268.2899,-833.2549 306.7971,-828.1984"/>
<polygon fill="#000000" stroke="#000000" stroke-width="2" points="307.525,-831.6329 316.9842,-826.8607 306.6136,-824.6925 307.525,-831.6329"/>
<text text-anchor="middle" x="241.3252" y="-827.3512" font-family="Sans" font-size="10.00" fill="#000000">fixes</text>
</g>
<!-- template&#45;library&#45;grid#232 -->
<g id="node39" class="node">
<title>template-library-grid#232</title>
<g id="a_node39"><a xlink:href="https://github.com/quattor/template-library-grid/pull/232" xlink:title="template-library-grid#232 (pull-request)" target="_parent">
<polygon fill="#6cc644" stroke="#000000" points="183,-527.5 30,-527.5 30,-477.5 183,-477.5 183,-527.5"/>
<text text-anchor="middle" x="106.5" y="-505.5" font-family="Sans" font-size="10.00" fill="#000000">arc-ce: Export arc-ce feature</text>
<text text-anchor="middle" x="106.5" y="-494.5" font-family="Sans" font-size="10.00" fill="#000000">from aquilon at RAL</text>
</a>
</g>
</g>
<!-- template&#45;library&#45;grid#221 -->
<g id="node40" class="node">
<title>template-library-grid#221</title>
<g id="a_node40"><a xlink:href="https://github.com/quattor/template-library-grid/issues/221" xlink:title="template-library-grid#221 (issue)" target="_parent">
<path fill="#6cc644" stroke="#000000" d="M476.5,-107.5C476.5,-107.5 330.5,-107.5 330.5,-107.5 324.5,-107.5 318.5,-101.5 318.5,-95.5 318.5,-95.5 318.5,-69.5 318.5,-69.5 318.5,-63.5 324.5,-57.5 330.5,-57.5 330.5,-57.5 476.5,-57.5 476.5,-57.5 482.5,-57.5 488.5,-63.5 488.5,-69.5 488.5,-69.5 488.5,-95.5 488.5,-95.5 488.5,-101.5 482.5,-107.5 476.5,-107.5"/>
<text text-anchor="middle" x="403.5" y="-85.5" font-family="Sans" font-size="10.00" fill="#000000">Support for new CE types (ARC</text>
<text text-anchor="middle" x="403.5" y="-74.5" font-family="Sans" font-size="10.00" fill="#000000">CE, HTCONDOR CE)</text>
</a>
</g>
</g>
<!-- template&#45;library&#45;grid#232&#45;&gt;template&#45;library&#45;grid#221 -->
<g id="edge23" class="edge">
<title>template-library-grid#232-&gt;template-library-grid#221</title>
<path fill="none" stroke="#000000" stroke-width="2" d="M183.2513,-481.7001C189.4081,-477.9952 195.1219,-473.6338 200,-468.5 312.7205,-349.8706 194.8802,-234.7488 308,-116.5 308.7908,-115.6734 309.603,-114.8668 310.4349,-114.0798"/>
<polygon fill="#000000" stroke="#000000" stroke-width="2" points="312.9177,-116.5694 318.4148,-107.5122 308.4694,-111.1646 312.9177,-116.5694"/>
<text text-anchor="middle" x="242.8934" y="-286.41" font-family="Sans" font-size="10.00" fill="#000000">fixes</text>
</g>
<!-- template&#45;library&#45;openstack#63 -->
<g id="node41" class="node">
<title>template-library-openstack#63</title>
<g id="a_node41"><a xlink:href="https://github.com/quattor/template-library-openstack/pull/63" xlink:title="template-library-openstack#63 (pull-request)" target="_parent">
<polygon fill="#6cc644" stroke="#000000" points="197,-459.5 16,-459.5 16,-409.5 197,-409.5 197,-459.5"/>
<text text-anchor="middle" x="106.5" y="-437.5" font-family="Sans" font-size="10.00" fill="#000000">Templates for OpenStack Antelope</text>
<text text-anchor="middle" x="106.5" y="-426.5" font-family="Sans" font-size="10.00" fill="#000000">version</text>
</a>
</g>
</g>
<!-- template&#45;library&#45;openstack#1 -->
<g id="node42" class="node">
<title>template-library-openstack#1</title>
<polygon fill="#d3d3d3" stroke="#000000" points="480.5,-39 326.5,-39 326.5,0 480.5,0 480.5,-39"/>
<text text-anchor="middle" x="403.5" y="-17" font-family="Sans" font-size="10.00" fill="#000000">template-library-openstack#1</text>
</g>
<!-- template&#45;library&#45;openstack#63&#45;&gt;template&#45;library&#45;openstack#1 -->
<g id="edge24" class="edge">
<title>template-library-openstack#63-&gt;template-library-openstack#1</title>
<path fill="none" stroke="#000000" stroke-width="2" d="M112.3291,-409.4629C129.5871,-340.9556 186.9564,-148.8608 308,-48.5 310.9054,-46.0911 314.0077,-43.8821 317.2524,-41.8566"/>
<polygon fill="#000000" stroke="#000000" stroke-width="2" points="319.1009,-44.8334 326.1364,-36.9118 315.6965,-38.717 319.1009,-44.8334"/>
<text text-anchor="middle" x="176.6629" y="-199.1063" font-family="Sans" font-size="10.00" fill="#000000">fixes</text>
</g>
</g>
</svg>
