<?xml version="1.0" encoding="UTF-8" standalone="no"?>
<?xml-stylesheet href="relationships.css" type="text/css"?>
<!-- Generated by graphviz version 2.26.0 (20091210.2329)
 -->
<!-- Title: Dependencies Pages: 1 -->
<svg xmlns="http://www.w3.org/2000/svg" xmlns:xlink="http://www.w3.org/1999/xlink" width="886pt" height="1104pt" viewBox="0.00 0.00 886.00 1104.00">
<g id="graph1" class="graph" transform="scale(1 1) rotate(0) translate(4 1100)">
<title>Dependencies</title>
<polygon fill="white" stroke="white" points="-4,5 -4,-1100 883,-1100 883,5 -4,5"/>
<g id="graph3" class="cluster"><title>cluster_18.3</title>
<polygon fill="none" stroke="black" points="332,-108 332,-766 870,-766 870,-108 332,-108"/>
<text text-anchor="middle" x="601" y="-751.2" font-family="Sans" font-size="12.00">18.3</text>
</g>
<!-- aii#210 -->
<g id="node1" class="node"><title>aii#210</title>
<a xlink:href="https://github.com/quattor/aii/pull/210" xlink:title="Shellfe: support active config for plugins" target="_parent">
<polygon fill="#6cc644" stroke="black" points="465,-640 387,-640 387,-586 465,-586 465,-640"/>
<text text-anchor="middle" x="426" y="-617" font-family="Sans" font-size="10.00">pull-request</text>
<text text-anchor="middle" x="426" y="-604" font-family="Sans" font-size="10.00">aii#210</text>
</a>
</g>
<!-- aii#209 -->
<g id="node3" class="node"><title>aii#209</title>
<a xlink:href="https://github.com/quattor/aii/issues/209" xlink:title="support ACTIVE_CONFIG" target="_parent">
<ellipse fill="#6cc644" stroke="black" cx="740" cy="-696" rx="41.2167" ry="38.1838"/>
<text text-anchor="middle" x="740" y="-700" font-family="Sans" font-size="10.00">issue</text>
<text text-anchor="middle" x="740" y="-687" font-family="Sans" font-size="10.00">aii#209</text>
</a>
</g>
<!-- aii#210&#45;&gt;aii#209 -->
<g id="edge2" class="edge"><title>aii#210-&gt;aii#209</title>
<path fill="none" stroke="black" stroke-width="2" d="M465.609,-623.38C488.517,-629.39 517.889,-637.106 544,-644 593.736,-657.131 650.549,-672.213 690.158,-682.741"/>
<polygon fill="black" stroke="black" points="689.278,-686.129 699.842,-685.315 691.077,-679.364 689.278,-686.129"/>
<text text-anchor="middle" x="581" y="-662" font-family="Sans" font-size="10.00">fixes</text>
</g>
<!-- ncm&#45;ncd#74 -->
<g id="node5" class="node"><title>ncm-ncd#74</title>
<a xlink:href="https://github.com/quattor/ncm-ncd/pull/74" xlink:title="Set the current active config as an attribute to the component" target="_parent">
<polygon fill="#6cc644" stroke="black" points="781,-640 699,-640 699,-586 781,-586 781,-640"/>
<text text-anchor="middle" x="740" y="-617" font-family="Sans" font-size="10.00">pull-request</text>
<text text-anchor="middle" x="740" y="-604" font-family="Sans" font-size="10.00">ncm-ncd#74</text>
</a>
</g>
<!-- aii#210&#45;&gt;ncm&#45;ncd#74 -->
<g id="edge4" class="edge"><title>aii#210-&gt;ncm-ncd#74</title>
<path fill="none" stroke="black" stroke-dasharray="5,2" d="M465.768,-613C522.435,-613 626.442,-613 688.801,-613"/>
<polygon fill="none" stroke="black" points="688.813,-616.5 698.813,-613 688.813,-609.5 688.813,-616.5"/>
<text text-anchor="middle" x="581" y="-617" font-family="Sans" font-size="10.00">requires</text>
</g>
<!-- aii#203 -->
<g id="node7" class="node"><title>aii#203</title>
<polygon fill="lightgrey" stroke="black" points="769,-98.5 711,-98.5 711,-57.5 769,-57.5 769,-98.5"/>
<text text-anchor="middle" x="740" y="-75.5" font-family="Sans" font-size="10.00">aii#203</text>
</g>
<!-- aii#210&#45;&gt;aii#203 -->
<g id="edge6" class="edge"><title>aii#210-&gt;aii#203</title>
<path fill="none" stroke="black" stroke-dasharray="5,2" d="M465.676,-608.27C492.449,-602.824 526.058,-591.123 544,-566 567.921,-532.505 549.927,-235.349 562,-196 576.041,-150.237 578.958,-131.696 618,-104 641.908,-87.0406 674.639,-80.7465 700.18,-78.5808"/>
<polygon fill="none" stroke="black" points="700.542,-82.0645 710.285,-77.9036 700.074,-75.0802 700.542,-82.0645"/>
<text text-anchor="middle" x="581" y="-200" font-family="Sans" font-size="10.00">requires</text>
</g>
<!-- CAF#257 -->
<g id="node8" class="node"><title>CAF#257</title>
<a xlink:href="https://github.com/quattor/CAF/pull/257" xlink:title="Process: run process as another user" target="_parent">
<polygon fill="#6cc644" stroke="black" points="465,-557 387,-557 387,-503 465,-503 465,-557"/>
<text text-anchor="middle" x="426" y="-534" font-family="Sans" font-size="10.00">pull-request</text>
<text text-anchor="middle" x="426" y="-521" font-family="Sans" font-size="10.00">CAF#257</text>
</a>
</g>
<!-- CAF#253 -->
<g id="node10" class="node"><title>CAF#253</title>
<a xlink:href="https://github.com/quattor/CAF/issues/253" xlink:title="CAF::Process: Include an option to execute the command as an specific user" target="_parent">
<ellipse fill="#6cc644" stroke="black" cx="740" cy="-530" rx="48.9975" ry="38.1838"/>
<text text-anchor="middle" x="740" y="-534" font-family="Sans" font-size="10.00">issue</text>
<text text-anchor="middle" x="740" y="-521" font-family="Sans" font-size="10.00">CAF#253</text>
</a>
</g>
<!-- CAF#257&#45;&gt;CAF#253 -->
<g id="edge8" class="edge"><title>CAF#257-&gt;CAF#253</title>
<path fill="none" stroke="black" stroke-width="2" d="M465.768,-530C519.934,-530 617.353,-530 680.308,-530"/>
<polygon fill="black" stroke="black" points="680.488,-533.5 690.488,-530 680.488,-526.5 680.488,-533.5"/>
<text text-anchor="middle" x="581" y="-534" font-family="Sans" font-size="10.00">fixes</text>
</g>
<!-- CAF#110 -->
<g id="node11" class="node"><title>CAF#110</title>
<a xlink:href="https://github.com/quattor/CAF/pull/110" xlink:title="Download: API proposal" target="_parent">
<polygon fill="#6cc644" stroke="black" points="157,-821 79,-821 79,-767 157,-767 157,-821"/>
<text text-anchor="middle" x="118" y="-798" font-family="Sans" font-size="10.00">pull-request</text>
<text text-anchor="middle" x="118" y="-785" font-family="Sans" font-size="10.00">CAF#110</text>
</a>
</g>
<!-- CAF#120 -->
<g id="node13" class="node"><title>CAF#120</title>
<polygon fill="lightgrey" stroke="black" points="461,-814.5 391,-814.5 391,-773.5 461,-773.5 461,-814.5"/>
<text text-anchor="middle" x="426" y="-791.5" font-family="Sans" font-size="10.00">CAF#120</text>
</g>
<!-- CAF#110&#45;&gt;CAF#120 -->
<g id="edge10" class="edge"><title>CAF#110-&gt;CAF#120</title>
<path fill="none" stroke="black" stroke-dasharray="5,2" d="M157.635,-794C214.805,-794 320.147,-794 380.447,-794"/>
<polygon fill="none" stroke="black" points="380.801,-797.5 390.801,-794 380.801,-790.5 380.801,-797.5"/>
<text text-anchor="middle" x="272" y="-798" font-family="Sans" font-size="10.00">requires</text>
</g>
<!-- configuration&#45;modules&#45;core#1230 -->
<g id="node14" class="node"><title>configuration-modules-core#1230</title>
<a xlink:href="https://github.com/quattor/configuration-modules-core/pull/1230" xlink:title="ncm-ceph: support for luminous, bluestore, ceph-volume and per host osd deployment" target="_parent">
<polygon fill="#6cc644" stroke="black" points="512,-242 340,-242 340,-188 512,-188 512,-242"/>
<text text-anchor="middle" x="426" y="-219" font-family="Sans" font-size="10.00">pull-request</text>
<text text-anchor="middle" x="426" y="-206" font-family="Sans" font-size="10.00">configuration-modules-core#1230</text>
</a>
</g>
<!-- configuration&#45;modules&#45;core#1224 -->
<g id="node16" class="node"><title>configuration-modules-core#1224</title>
<polygon fill="lightgrey" stroke="black" points="826,-40.5 654,-40.5 654,0.5 826,0.5 826,-40.5"/>
<text text-anchor="middle" x="740" y="-17.5" font-family="Sans" font-size="10.00">configuration-modules-core#1224</text>
</g>
<!-- configuration&#45;modules&#45;core#1230&#45;&gt;configuration&#45;modules&#45;core#1224 -->
<g id="edge12" class="edge"><title>configuration-modules-core#1230-&gt;configuration-modules-core#1224</title>
<path fill="none" stroke="black" stroke-dasharray="1,5" d="M512.092,-201.635C524.248,-196.346 535.483,-189.048 544,-179 583.425,-132.49 518.82,-86.0468 562,-43 583.313,-21.7527 613.88,-13.2638 643.685,-10.9307"/>
<polygon fill="black" stroke="black" points="653.749,-10.3659 644.017,-15.4193 648.757,-10.6461 643.765,-10.9263 643.765,-10.9263 643.765,-10.9263 648.757,-10.6461 643.512,-6.4334 653.749,-10.3659 653.749,-10.3659"/>
<text text-anchor="middle" x="581" y="-47" font-family="Sans" font-size="10.00">replaces</text>
</g>
<!-- configuration&#45;modules&#45;core#1220 -->
<g id="node17" class="node"><title>configuration-modules-core#1220</title>
<a xlink:href="https://github.com/quattor/configuration-modules-core/pull/1220" xlink:title="ncm-cups: Stop daemon if server not enabled" target="_parent">
<polygon fill="#6cc644" stroke="black" points="512,-463 340,-463 340,-409 512,-409 512,-463"/>
<text text-anchor="middle" x="426" y="-440" font-family="Sans" font-size="10.00">pull-request</text>
<text text-anchor="middle" x="426" y="-427" font-family="Sans" font-size="10.00">configuration-modules-core#1220</text>
</a>
</g>
<!-- configuration&#45;modules&#45;core#1189 -->
<g id="node19" class="node"><title>configuration-modules-core#1189</title>
<a xlink:href="https://github.com/quattor/configuration-modules-core/issues/1189" xlink:title="ncm-cups: Nodetype of client should stop running cups daemon" target="_parent">
<ellipse fill="#6cc644" stroke="black" cx="740" cy="-436" rx="121.122" ry="38.1838"/>
<text text-anchor="middle" x="740" y="-440" font-family="Sans" font-size="10.00">issue</text>
<text text-anchor="middle" x="740" y="-427" font-family="Sans" font-size="10.00">configuration-modules-core#1189</text>
</a>
</g>
<!-- configuration&#45;modules&#45;core#1220&#45;&gt;configuration&#45;modules&#45;core#1189 -->
<g id="edge14" class="edge"><title>configuration-modules-core#1220-&gt;configuration-modules-core#1189</title>
<path fill="none" stroke="black" stroke-width="2" d="M512.217,-436C541.916,-436 575.888,-436 608.372,-436"/>
<polygon fill="black" stroke="black" points="608.399,-439.5 618.399,-436 608.399,-432.5 608.399,-439.5"/>
<text text-anchor="middle" x="581" y="-440" font-family="Sans" font-size="10.00">fixes</text>
</g>
<!-- configuration&#45;modules&#45;core#1105 -->
<g id="node20" class="node"><title>configuration-modules-core#1105</title>
<a xlink:href="https://github.com/quattor/configuration-modules-core/pull/1105" xlink:title="ncm-authconfig: fix krb5_realm, user_object_class and newline between ldap_krb5_canonicalize and ldap_krb5_realm" target="_parent">
<polygon fill="#6cc644" stroke="black" points="512,-314 340,-314 340,-260 512,-260 512,-314"/>
<text text-anchor="middle" x="426" y="-291" font-family="Sans" font-size="10.00">pull-request</text>
<text text-anchor="middle" x="426" y="-278" font-family="Sans" font-size="10.00">configuration-modules-core#1105</text>
</a>
</g>
<!-- configuration&#45;modules&#45;core#1100 -->
<g id="node22" class="node"><title>configuration-modules-core#1100</title>
<a xlink:href="https://github.com/quattor/configuration-modules-core/issues/1100" xlink:title="ncm-authconfig : no newline after krb5_canonicalize option" target="_parent">
<ellipse fill="#6cc644" stroke="black" cx="740" cy="-154" rx="121.122" ry="38.1838"/>
<text text-anchor="middle" x="740" y="-158" font-family="Sans" font-size="10.00">issue</text>
<text text-anchor="middle" x="740" y="-145" font-family="Sans" font-size="10.00">configuration-modules-core#1100</text>
</a>
</g>
<!-- configuration&#45;modules&#45;core#1105&#45;&gt;configuration&#45;modules&#45;core#1100 -->
<g id="edge16" class="edge"><title>configuration-modules-core#1105-&gt;configuration-modules-core#1100</title>
<path fill="none" stroke="black" stroke-width="2" d="M512.222,-263.989C523.111,-260.129 533.948,-255.796 544,-251 579.824,-233.908 582.811,-219.363 618,-201 627.961,-195.802 638.631,-190.857 649.364,-186.261"/>
<polygon fill="black" stroke="black" points="650.921,-189.404 658.795,-182.315 648.219,-182.946 650.921,-189.404"/>
<text text-anchor="middle" x="581" y="-245" font-family="Sans" font-size="10.00">fixes</text>
</g>
<!-- configuration&#45;modules&#45;core#1102 -->
<g id="node24" class="node"><title>configuration-modules-core#1102</title>
<a xlink:href="https://github.com/quattor/configuration-modules-core/issues/1102" xlink:title="ncm-authconfig: There is no " target="_parent">
<ellipse fill="#6cc644" stroke="black" cx="740" cy="-248" rx="121.122" ry="38.1838"/>
<text text-anchor="middle" x="740" y="-252" font-family="Sans" font-size="10.00">issue</text>
<text text-anchor="middle" x="740" y="-239" font-family="Sans" font-size="10.00">configuration-modules-core#1102</text>
</a>
</g>
<!-- configuration&#45;modules&#45;core#1105&#45;&gt;configuration&#45;modules&#45;core#1102 -->
<g id="edge18" class="edge"><title>configuration-modules-core#1105-&gt;configuration-modules-core#1102</title>
<path fill="none" stroke="black" stroke-width="2" d="M512.217,-276.291C544.44,-272.289 581.693,-267.662 616.618,-263.324"/>
<polygon fill="black" stroke="black" points="617.393,-266.755 626.886,-262.049 616.531,-259.809 617.393,-266.755"/>
<text text-anchor="middle" x="581" y="-274" font-family="Sans" font-size="10.00">fixes</text>
</g>
<!-- configuration&#45;modules&#45;core#1103 -->
<g id="node26" class="node"><title>configuration-modules-core#1103</title>
<a xlink:href="https://github.com/quattor/configuration-modules-core/issues/1103" xlink:title="ncm-authconfig: krb5_realm = ARRAY(0x39a5830)" target="_parent">
<ellipse fill="#6cc644" stroke="black" cx="740" cy="-342" rx="121.122" ry="38.1838"/>
<text text-anchor="middle" x="740" y="-346" font-family="Sans" font-size="10.00">issue</text>
<text text-anchor="middle" x="740" y="-333" font-family="Sans" font-size="10.00">configuration-modules-core#1103</text>
</a>
</g>
<!-- configuration&#45;modules&#45;core#1105&#45;&gt;configuration&#45;modules&#45;core#1103 -->
<g id="edge20" class="edge"><title>configuration-modules-core#1105-&gt;configuration-modules-core#1103</title>
<path fill="none" stroke="black" stroke-width="2" d="M512.217,-302.102C546.57,-308.119 586.64,-315.138 623.511,-321.596"/>
<polygon fill="black" stroke="black" points="623.364,-325.123 633.818,-323.401 624.572,-318.228 623.364,-325.123"/>
<text text-anchor="middle" x="581" y="-321" font-family="Sans" font-size="10.00">fixes</text>
</g>
<!-- configuration&#45;modules&#45;core#1148 -->
<g id="node27" class="node"><title>configuration-modules-core#1148</title>
<a xlink:href="https://github.com/quattor/configuration-modules-core/pull/1148" xlink:title="ncm-spma: Remove support from groups from spma yumng backend" target="_parent">
<polygon fill="#6cc644" stroke="black" points="204,-991 32,-991 32,-937 204,-937 204,-991"/>
<text text-anchor="middle" x="118" y="-968" font-family="Sans" font-size="10.00">pull-request</text>
<text text-anchor="middle" x="118" y="-955" font-family="Sans" font-size="10.00">configuration-modules-core#1148</text>
</a>
</g>
<!-- configuration&#45;modules&#45;core#952 -->
<g id="node29" class="node"><title>configuration-modules-core#952</title>
<a xlink:href="https://github.com/quattor/configuration-modules-core/issues/952" xlink:title="ncm-spma (yumng): Remove support for package groups" target="_parent">
<ellipse fill="#6cc644" stroke="black" cx="426" cy="-964" rx="118.087" ry="38.1838"/>
<text text-anchor="middle" x="426" y="-968" font-family="Sans" font-size="10.00">issue</text>
<text text-anchor="middle" x="426" y="-955" font-family="Sans" font-size="10.00">configuration-modules-core#952</text>
</a>
</g>
<!-- configuration&#45;modules&#45;core#1148&#45;&gt;configuration&#45;modules&#45;core#952 -->
<g id="edge22" class="edge"><title>configuration-modules-core#1148-&gt;configuration-modules-core#952</title>
<path fill="none" stroke="black" stroke-width="2" d="M204.205,-964C233.19,-964 266.179,-964 297.691,-964"/>
<polygon fill="black" stroke="black" points="297.863,-967.5 307.863,-964 297.863,-960.5 297.863,-967.5"/>
<text text-anchor="middle" x="272" y="-968" font-family="Sans" font-size="10.00">fixes</text>
</g>
<!-- configuration&#45;modules&#45;core#950 -->
<g id="node30" class="node"><title>configuration-modules-core#950</title>
<a xlink:href="https://github.com/quattor/configuration-modules-core/issues/950" xlink:title="ncm-spma: Remove support for package groups from yum backends" target="_parent">
<ellipse fill="#6cc644" stroke="black" cx="118" cy="-879" rx="118.087" ry="38.1838"/>
<text text-anchor="middle" x="118" y="-883" font-family="Sans" font-size="10.00">issue</text>
<text text-anchor="middle" x="118" y="-870" font-family="Sans" font-size="10.00">configuration-modules-core#950</text>
</a>
</g>
<!-- configuration&#45;modules&#45;core#950&#45;&gt;configuration&#45;modules&#45;core#952 -->
<g id="edge26" class="edge"><title>configuration-modules-core#950-&gt;configuration-modules-core#952</title>
<path fill="none" stroke="black" stroke-dasharray="5,2" d="M207.914,-903.814C244.995,-914.047 288.11,-925.946 326.167,-936.449"/>
<polygon fill="none" stroke="black" points="325.669,-939.942 336.24,-939.229 327.532,-933.194 325.669,-939.942"/>
<text text-anchor="middle" x="272" y="-928" font-family="Sans" font-size="10.00">requires</text>
</g>
<!-- configuration&#45;modules&#45;core#951 -->
<g id="node32" class="node"><title>configuration-modules-core#951</title>
<a xlink:href="https://github.com/quattor/configuration-modules-core/issues/951" xlink:title="ncm-spma (yum): Remove support for package groups" target="_parent">
<ellipse fill="#6cc644" stroke="black" cx="426" cy="-870" rx="118.087" ry="38.1838"/>
<text text-anchor="middle" x="426" y="-874" font-family="Sans" font-size="10.00">issue</text>
<text text-anchor="middle" x="426" y="-861" font-family="Sans" font-size="10.00">configuration-modules-core#951</text>
</a>
</g>
<!-- configuration&#45;modules&#45;core#950&#45;&gt;configuration&#45;modules&#45;core#951 -->
<g id="edge24" class="edge"><title>configuration-modules-core#950-&gt;configuration-modules-core#951</title>
<path fill="none" stroke="black" stroke-dasharray="5,2" d="M235.76,-875.559C256.192,-874.962 277.526,-874.339 298.21,-873.734"/>
<polygon fill="none" stroke="black" points="298.412,-877.23 308.305,-873.439 298.207,-870.233 298.412,-877.23"/>
<text text-anchor="middle" x="272" y="-878" font-family="Sans" font-size="10.00">requires</text>
</g>
<!-- ncm&#45;ncd#117 -->
<g id="node34" class="node"><title>ncm-ncd#117</title>
<a xlink:href="https://github.com/quattor/ncm-ncd/pull/117" xlink:title="Allow component modules to be loaded from any path" target="_parent">
<polygon fill="#6cc644" stroke="black" points="161,-1085 75,-1085 75,-1031 161,-1031 161,-1085"/>
<text text-anchor="middle" x="118" y="-1062" font-family="Sans" font-size="10.00">pull-request</text>
<text text-anchor="middle" x="118" y="-1049" font-family="Sans" font-size="10.00">ncm-ncd#117</text>
</a>
</g>
<!-- ncm&#45;ncd#116 -->
<g id="node36" class="node"><title>ncm-ncd#116</title>
<a xlink:href="https://github.com/quattor/ncm-ncd/issues/116" xlink:title="hasFile() prevents component modules from being relocated" target="_parent">
<ellipse fill="#6cc644" stroke="black" cx="426" cy="-1058" rx="61.0181" ry="38.1838"/>
<text text-anchor="middle" x="426" y="-1062" font-family="Sans" font-size="10.00">issue</text>
<text text-anchor="middle" x="426" y="-1049" font-family="Sans" font-size="10.00">ncm-ncd#116</text>
</a>
</g>
<!-- ncm&#45;ncd#117&#45;&gt;ncm&#45;ncd#116 -->
<g id="edge28" class="edge"><title>ncm-ncd#117-&gt;ncm-ncd#116</title>
<path fill="none" stroke="black" stroke-width="2" d="M161.802,-1058C211.884,-1058 294.62,-1058 354.172,-1058"/>
<polygon fill="black" stroke="black" points="354.264,-1061.5 364.264,-1058 354.264,-1054.5 354.264,-1061.5"/>
<text text-anchor="middle" x="272" y="-1062" font-family="Sans" font-size="10.00">fixes</text>
</g>
<!-- template&#45;library&#45;standard#109 -->
<g id="node37" class="node"><title>template-library-standard#109</title>
<a xlink:href="https://github.com/quattor/template-library-standard/pull/109" xlink:title="Add sample of nVidia workstation and compute GPUs" target="_parent">
<polygon fill="#6cc644" stroke="black" points="196,-170 40,-170 40,-116 196,-116 196,-170"/>
<text text-anchor="middle" x="118" y="-147" font-family="Sans" font-size="10.00">pull-request</text>
<text text-anchor="middle" x="118" y="-134" font-family="Sans" font-size="10.00">template-library-standard#109</text>
</a>
</g>
<!-- template&#45;library&#45;core#172 -->
<g id="node39" class="node"><title>template-library-core#172</title>
<a xlink:href="https://github.com/quattor/template-library-core/pull/172" xlink:title="Allow RAM to be modelled on GPU cards" target="_parent">
<polygon fill="#6cc644" stroke="black" points="495,-170 357,-170 357,-116 495,-116 495,-170"/>
<text text-anchor="middle" x="426" y="-147" font-family="Sans" font-size="10.00">pull-request</text>
<text text-anchor="middle" x="426" y="-134" font-family="Sans" font-size="10.00">template-library-core#172</text>
</a>
</g>
<!-- template&#45;library&#45;standard#109&#45;&gt;template&#45;library&#45;core#172 -->
<g id="edge30" class="edge"><title>template-library-standard#109-&gt;template-library-core#172</title>
<path fill="none" stroke="black" stroke-dasharray="5,2" d="M196.518,-143C242.499,-143 300.407,-143 346.548,-143"/>
<polygon fill="none" stroke="black" points="346.805,-146.5 356.805,-143 346.805,-139.5 346.805,-146.5"/>
<text text-anchor="middle" x="272" y="-147" font-family="Sans" font-size="10.00">requires</text>
</g>
</g>
</svg>
