<?xml version="1.0" encoding="UTF-8" standalone="no"?>
<?xml-stylesheet href="relationships.css" type="text/css"?>
<!-- Generated by graphviz version 2.26.0 (20091210.2329)
 -->
<!-- Title: Dependencies Pages: 1 -->
<svg xmlns="http://www.w3.org/2000/svg" xmlns:xlink="http://www.w3.org/1999/xlink" width="740pt" height="894pt" viewBox="0.00 0.00 740.00 894.00">
<g id="graph1" class="graph" transform="scale(1 1) rotate(0) translate(4 890)">
<title>Dependencies</title>
<polygon fill="white" stroke="white" points="-4,5 -4,-890 737,-890 737,5 -4,5"/>
<g id="graph3" class="cluster"><title>cluster_18.3</title>
<polygon fill="none" stroke="black" points="21,-62 21,-250 354,-250 354,-62 21,-62"/>
<text text-anchor="middle" x="187.5" y="-235.2" font-family="Sans" font-size="12.00">18.3</text>
</g>
<g id="graph4" class="cluster"><title>cluster_17.12</title>
<polygon fill="none" stroke="black" points="202,-258 202,-878 724,-878 724,-258 202,-258"/>
<text text-anchor="middle" x="463" y="-863.2" font-family="Sans" font-size="12.00">17.12</text>
</g>
<!-- aii#210 -->
<g id="node1" class="node"><title>aii#210</title>
<a xlink:href="https://github.com/quattor/aii/pull/210" xlink:title="Shellfe: support active config for plugins" target="_parent">
<polygon fill="#6cc644" stroke="black" points="108,-135 30,-135 30,-81 108,-81 108,-135"/>
<text text-anchor="middle" x="69" y="-112" font-family="Sans" font-size="10.00">pull-request</text>
<text text-anchor="middle" x="69" y="-99" font-family="Sans" font-size="10.00">aii#210</text>
</a>
</g>
<!-- aii#209 -->
<g id="node3" class="node"><title>aii#209</title>
<a xlink:href="https://github.com/quattor/aii/issues/209" xlink:title="support ACTIVE_CONFIG" target="_parent">
<ellipse fill="#6cc644" stroke="black" cx="304" cy="-108" rx="41.2167" ry="38.1838"/>
<text text-anchor="middle" x="304" y="-112" font-family="Sans" font-size="10.00">issue</text>
<text text-anchor="middle" x="304" y="-99" font-family="Sans" font-size="10.00">aii#209</text>
</a>
</g>
<!-- aii#210&#45;&gt;aii#209 -->
<g id="edge2" class="edge"><title>aii#210-&gt;aii#209</title>
<path fill="none" stroke="black" stroke-width="2" d="M108.599,-108C148.077,-108 208.909,-108 252.202,-108"/>
<polygon fill="black" stroke="black" points="252.256,-111.5 262.256,-108 252.256,-104.5 252.256,-111.5"/>
<text text-anchor="middle" x="174" y="-112" font-family="Sans" font-size="10.00">fixes</text>
</g>
<!-- ncm&#45;ncd#74 -->
<g id="node5" class="node"><title>ncm-ncd#74</title>
<a xlink:href="https://github.com/quattor/ncm-ncd/pull/74" xlink:title="Set the current active config as an attribute to the component" target="_parent">
<polygon fill="#6cc644" stroke="black" points="345,-218 263,-218 263,-164 345,-164 345,-218"/>
<text text-anchor="middle" x="304" y="-195" font-family="Sans" font-size="10.00">pull-request</text>
<text text-anchor="middle" x="304" y="-182" font-family="Sans" font-size="10.00">ncm-ncd#74</text>
</a>
</g>
<!-- aii#210&#45;&gt;ncm&#45;ncd#74 -->
<g id="edge4" class="edge"><title>aii#210-&gt;ncm-ncd#74</title>
<path fill="none" stroke="black" stroke-dasharray="5,2" d="M108.572,-121.989C135.022,-131.337 170.595,-143.909 202,-155 218.57,-160.852 236.655,-167.236 252.934,-172.981"/>
<polygon fill="none" stroke="black" points="252.211,-176.438 262.806,-176.465 254.541,-169.837 252.211,-176.438"/>
<text text-anchor="middle" x="174" y="-156" font-family="Sans" font-size="10.00">requires</text>
</g>
<!-- aii#203 -->
<g id="node7" class="node"><title>aii#203</title>
<polygon fill="lightgrey" stroke="black" points="333,-52.5 275,-52.5 275,-11.5 333,-11.5 333,-52.5"/>
<text text-anchor="middle" x="304" y="-29.5" font-family="Sans" font-size="10.00">aii#203</text>
</g>
<!-- aii#210&#45;&gt;aii#203 -->
<g id="edge6" class="edge"><title>aii#210-&gt;aii#203</title>
<path fill="none" stroke="black" stroke-dasharray="5,2" d="M108.758,-91.7424C134.982,-81.3457 170.231,-67.9873 202,-58 222.393,-51.589 245.446,-45.6082 264.471,-41.0031"/>
<polygon fill="none" stroke="black" points="265.384,-44.3836 274.299,-38.6589 263.76,-37.5746 265.384,-44.3836"/>
<text text-anchor="middle" x="174" y="-78" font-family="Sans" font-size="10.00">requires</text>
</g>
<!-- CAF#257 -->
<g id="node8" class="node"><title>CAF#257</title>
<a xlink:href="https://github.com/quattor/CAF/pull/257" xlink:title="Process: run process as another user" target="_parent">
<polygon fill="#6cc644" stroke="black" points="343,-630 265,-630 265,-576 343,-576 343,-630"/>
<text text-anchor="middle" x="304" y="-607" font-family="Sans" font-size="10.00">pull-request</text>
<text text-anchor="middle" x="304" y="-594" font-family="Sans" font-size="10.00">CAF#257</text>
</a>
</g>
<!-- CAF#253 -->
<g id="node10" class="node"><title>CAF#253</title>
<a xlink:href="https://github.com/quattor/CAF/issues/253" xlink:title="CAF::Process: Include an option to execute the command as an specific user" target="_parent">
<ellipse fill="#6cc644" stroke="black" cx="594" cy="-212" rx="48.9975" ry="38.1838"/>
<text text-anchor="middle" x="594" y="-216" font-family="Sans" font-size="10.00">issue</text>
<text text-anchor="middle" x="594" y="-203" font-family="Sans" font-size="10.00">CAF#253</text>
</a>
</g>
<!-- CAF#257&#45;&gt;CAF#253 -->
<g id="edge8" class="edge"><title>CAF#257-&gt;CAF#253</title>
<path fill="none" stroke="black" stroke-width="2" d="M343.712,-596.679C362.677,-591.682 384.194,-582.785 398,-567 492.106,-459.401 376.068,-359.975 472,-254 488.238,-236.062 512.493,-225.784 535.109,-219.896"/>
<polygon fill="black" stroke="black" points="536.081,-223.262 545.01,-217.559 534.473,-216.45 536.081,-223.262"/>
<text text-anchor="middle" x="435" y="-545" font-family="Sans" font-size="10.00">fixes</text>
</g>
<!-- CAF#256 -->
<g id="node11" class="node"><title>CAF#256</title>
<a xlink:href="https://github.com/quattor/CAF/pull/256" xlink:title="Process: add sensitive option to prevent verbose reporting of the command" target="_parent">
<polygon fill="#6e5494" stroke="black" points="343,-558 265,-558 265,-504 343,-504 343,-558"/>
<text text-anchor="middle" x="304" y="-535" font-family="Sans" font-size="10.00">pull-request</text>
<text text-anchor="middle" x="304" y="-522" font-family="Sans" font-size="10.00">CAF#256</text>
</a>
</g>
<!-- CAF#254 -->
<g id="node13" class="node"><title>CAF#254</title>
<polygon fill="lightgrey" stroke="black" points="629,-156.5 559,-156.5 559,-115.5 629,-115.5 629,-156.5"/>
<text text-anchor="middle" x="594" y="-133.5" font-family="Sans" font-size="10.00">CAF#254</text>
</g>
<!-- CAF#256&#45;&gt;CAF#254 -->
<g id="edge10" class="edge"><title>CAF#256-&gt;CAF#254</title>
<path fill="none" stroke="black" stroke-width="2" d="M343.82,-525.778C363.3,-521.062 385.247,-512.085 398,-495 428.933,-453.562 400.803,-312.427 416,-263 430.743,-215.05 431.838,-195.059 472,-165 493.961,-148.563 523.859,-141.281 548.56,-138.124"/>
<polygon fill="black" stroke="black" points="549.228,-141.572 558.79,-137.009 548.47,-134.613 549.228,-141.572"/>
<text text-anchor="middle" x="435" y="-267" font-family="Sans" font-size="10.00">fixes</text>
</g>
<!-- configuration&#45;modules&#45;core#1182 -->
<g id="node14" class="node"><title>configuration-modules-core#1182</title>
<a xlink:href="https://github.com/quattor/configuration-modules-core/pull/1182" xlink:title="ncm-opennebula: Include 5.4.x configuration" target="_parent">
<polygon fill="#6cc644" stroke="black" points="390,-846 218,-846 218,-792 390,-792 390,-846"/>
<text text-anchor="middle" x="304" y="-823" font-family="Sans" font-size="10.00">pull-request</text>
<text text-anchor="middle" x="304" y="-810" font-family="Sans" font-size="10.00">configuration-modules-core#1182</text>
</a>
</g>
<!-- configuration&#45;modules&#45;core#1139 -->
<g id="node16" class="node"><title>configuration-modules-core#1139</title>
<a xlink:href="https://github.com/quattor/configuration-modules-core/pull/1139" xlink:title="ncm-opennebula: include hugepages options" target="_parent">
<polygon fill="#6e5494" stroke="black" points="680,-846 508,-846 508,-792 680,-792 680,-846"/>
<text text-anchor="middle" x="594" y="-823" font-family="Sans" font-size="10.00">pull-request</text>
<text text-anchor="middle" x="594" y="-810" font-family="Sans" font-size="10.00">configuration-modules-core#1139</text>
</a>
</g>
<!-- configuration&#45;modules&#45;core#1182&#45;&gt;configuration&#45;modules&#45;core#1139 -->
<g id="edge12" class="edge"><title>configuration-modules-core#1182-&gt;configuration-modules-core#1139</title>
<path fill="none" stroke="black" stroke-dasharray="5,2" d="M390.224,-819C424.036,-819 462.979,-819 497.706,-819"/>
<polygon fill="none" stroke="black" points="497.858,-822.5 507.858,-819 497.858,-815.5 497.858,-822.5"/>
<text text-anchor="middle" x="435" y="-823" font-family="Sans" font-size="10.00">requires</text>
</g>
<!-- configuration&#45;modules&#45;core#1171 -->
<g id="node17" class="node"><title>configuration-modules-core#1171</title>
<a xlink:href="https://github.com/quattor/configuration-modules-core/pull/1171" xlink:title="ncm-cups enhancements and cleanups" target="_parent">
<polygon fill="#6e5494" stroke="black" points="390,-774 218,-774 218,-720 390,-720 390,-774"/>
<text text-anchor="middle" x="304" y="-751" font-family="Sans" font-size="10.00">pull-request</text>
<text text-anchor="middle" x="304" y="-738" font-family="Sans" font-size="10.00">configuration-modules-core#1171</text>
</a>
</g>
<!-- configuration&#45;modules&#45;core#1164 -->
<g id="node19" class="node"><title>configuration-modules-core#1164</title>
<a xlink:href="https://github.com/quattor/configuration-modules-core/issues/1164" xlink:title="ncm-cups 17.7.0: configuration of ServerAlias + miscellanous enhancements" target="_parent">
<ellipse fill="#bd2c00" stroke="black" cx="594" cy="-736" rx="121.122" ry="38.1838"/>
<text text-anchor="middle" x="594" y="-740" font-family="Sans" font-size="10.00">issue</text>
<text text-anchor="middle" x="594" y="-727" font-family="Sans" font-size="10.00">configuration-modules-core#1164</text>
</a>
</g>
<!-- configuration&#45;modules&#45;core#1171&#45;&gt;configuration&#45;modules&#45;core#1164 -->
<g id="edge14" class="edge"><title>configuration-modules-core#1171-&gt;configuration-modules-core#1164</title>
<path fill="none" stroke="black" stroke-width="2" d="M390.224,-743.729C413.116,-742.861 438.361,-741.904 463.057,-740.967"/>
<polygon fill="black" stroke="black" points="463.365,-744.458 473.225,-740.581 463.1,-737.463 463.365,-744.458"/>
<text text-anchor="middle" x="435" y="-746" font-family="Sans" font-size="10.00">fixes</text>
</g>
<!-- configuration&#45;modules&#45;core#1149 -->
<g id="node20" class="node"><title>configuration-modules-core#1149</title>
<a xlink:href="https://github.com/quattor/configuration-modules-core/pull/1149" xlink:title="ncm-metaconfig: rsyslog: rainer script configuration" target="_parent">
<polygon fill="#6e5494" stroke="black" points="390,-486 218,-486 218,-432 390,-432 390,-486"/>
<text text-anchor="middle" x="304" y="-463" font-family="Sans" font-size="10.00">pull-request</text>
<text text-anchor="middle" x="304" y="-450" font-family="Sans" font-size="10.00">configuration-modules-core#1149</text>
</a>
</g>
<!-- configuration&#45;modules&#45;core#1126 -->
<g id="node22" class="node"><title>configuration-modules-core#1126</title>
<polygon fill="lightgrey" stroke="black" points="680,-98.5 508,-98.5 508,-57.5 680,-57.5 680,-98.5"/>
<text text-anchor="middle" x="594" y="-75.5" font-family="Sans" font-size="10.00">configuration-modules-core#1126</text>
</g>
<!-- configuration&#45;modules&#45;core#1149&#45;&gt;configuration&#45;modules&#45;core#1126 -->
<g id="edge16" class="edge"><title>configuration-modules-core#1149-&gt;configuration-modules-core#1126</title>
<path fill="none" stroke="black" stroke-dasharray="5,2" d="M389.972,-431.888C392.928,-429.201 395.631,-426.247 398,-423 440.248,-365.11 367.198,-153.484 416,-101 436.684,-78.756 467.425,-70.1173 497.565,-67.948"/>
<polygon fill="none" stroke="black" points="497.93,-71.4344 507.748,-67.45 497.588,-64.4427 497.93,-71.4344"/>
<text text-anchor="middle" x="435" y="-105" font-family="Sans" font-size="10.00">requires</text>
</g>
<!-- configuration&#45;modules&#45;core#1119 -->
<g id="node23" class="node"><title>configuration-modules-core#1119</title>
<a xlink:href="https://github.com/quattor/configuration-modules-core/pull/1119" xlink:title="ncm-systemd: cleanup, restarting modified unitfiles and initial handling of unconfigured units" target="_parent">
<polygon fill="#6e5494" stroke="black" points="390,-702 218,-702 218,-648 390,-648 390,-702"/>
<text text-anchor="middle" x="304" y="-679" font-family="Sans" font-size="10.00">pull-request</text>
<text text-anchor="middle" x="304" y="-666" font-family="Sans" font-size="10.00">configuration-modules-core#1119</text>
</a>
</g>
<!-- configuration&#45;modules&#45;core#1095 -->
<g id="node25" class="node"><title>configuration-modules-core#1095</title>
<a xlink:href="https://github.com/quattor/configuration-modules-core/issues/1095" xlink:title="ncm-systemd: Manual intervention required in order for drop-in unit files to have any affect" target="_parent">
<ellipse fill="#6cc644" stroke="black" cx="594" cy="-642" rx="121.122" ry="38.1838"/>
<text text-anchor="middle" x="594" y="-646" font-family="Sans" font-size="10.00">issue</text>
<text text-anchor="middle" x="594" y="-633" font-family="Sans" font-size="10.00">configuration-modules-core#1095</text>
</a>
</g>
<!-- configuration&#45;modules&#45;core#1119&#45;&gt;configuration&#45;modules&#45;core#1095 -->
<g id="edge18" class="edge"><title>configuration-modules-core#1119-&gt;configuration-modules-core#1095</title>
<path fill="none" stroke="black" stroke-width="2" d="M390.224,-665.188C415.096,-662.358 442.746,-659.212 469.451,-656.173"/>
<polygon fill="black" stroke="black" points="470.091,-659.623 479.632,-655.014 469.3,-652.668 470.091,-659.623"/>
<text text-anchor="middle" x="435" y="-665" font-family="Sans" font-size="10.00">fixes</text>
</g>
<!-- configuration&#45;modules&#45;core#1058 -->
<g id="node26" class="node"><title>configuration-modules-core#1058</title>
<a xlink:href="https://github.com/quattor/configuration-modules-core/pull/1058" xlink:title="ncm-ssh: disable insecure ssh ciphersuites and macs" target="_parent">
<polygon fill="#6cc644" stroke="black" points="390,-414 218,-414 218,-360 390,-360 390,-414"/>
<text text-anchor="middle" x="304" y="-391" font-family="Sans" font-size="10.00">pull-request</text>
<text text-anchor="middle" x="304" y="-378" font-family="Sans" font-size="10.00">configuration-modules-core#1058</text>
</a>
</g>
<!-- configuration&#45;modules&#45;core#983 -->
<g id="node28" class="node"><title>configuration-modules-core#983</title>
<polygon fill="lightgrey" stroke="black" points="677,-40.5 511,-40.5 511,0.5 677,0.5 677,-40.5"/>
<text text-anchor="middle" x="594" y="-17.5" font-family="Sans" font-size="10.00">configuration-modules-core#983</text>
</g>
<!-- configuration&#45;modules&#45;core#1058&#45;&gt;configuration&#45;modules&#45;core#983 -->
<g id="edge20" class="edge"><title>configuration-modules-core#1058-&gt;configuration-modules-core#983</title>
<path fill="none" stroke="black" stroke-dasharray="1,5" d="M389.962,-359.881C392.921,-357.195 395.626,-354.244 398,-351 438.487,-295.67 369.249,-93.1498 416,-43 437.189,-20.2702 468.882,-11.7592 499.679,-9.83821"/>
<polygon fill="black" stroke="black" points="510.073,-9.42837 500.258,-14.319 505.077,-9.62543 500.08,-9.82248 500.08,-9.82248 500.08,-9.82248 505.077,-9.62543 499.903,-5.32598 510.073,-9.42837 510.073,-9.42837"/>
<text text-anchor="middle" x="435" y="-47" font-family="Sans" font-size="10.00">replaces</text>
</g>
<!-- template&#45;library&#45;core#167 -->
<g id="node29" class="node"><title>template-library-core#167</title>
<a xlink:href="https://github.com/quattor/template-library-core/pull/167" xlink:title="Update schema to support aquilon clusters" target="_parent">
<polygon fill="#6cc644" stroke="black" points="138,-331 5.68434e-14,-331 0,-277 138,-277 138,-331"/>
<text text-anchor="middle" x="69" y="-308" font-family="Sans" font-size="10.00">pull-request</text>
<text text-anchor="middle" x="69" y="-295" font-family="Sans" font-size="10.00">template-library-core#167</text>
</a>
</g>
<!-- template&#45;library&#45;core#71 -->
<g id="node31" class="node"><title>template-library-core#71</title>
<a xlink:href="https://github.com/quattor/template-library-core/issues/71" xlink:title="Schema for aquilon cluster archetypes needed" target="_parent">
<ellipse fill="#6cc644" stroke="black" cx="304" cy="-304" rx="94.0452" ry="38.1838"/>
<text text-anchor="middle" x="304" y="-308" font-family="Sans" font-size="10.00">issue</text>
<text text-anchor="middle" x="304" y="-295" font-family="Sans" font-size="10.00">template-library-core#71</text>
</a>
</g>
<!-- template&#45;library&#45;core#167&#45;&gt;template&#45;library&#45;core#71 -->
<g id="edge22" class="edge"><title>template-library-core#167-&gt;template-library-core#71</title>
<path fill="none" stroke="black" stroke-width="2" d="M138.237,-304C157.434,-304 178.713,-304 199.447,-304"/>
<polygon fill="black" stroke="black" points="199.57,-307.5 209.57,-304 199.57,-300.5 199.57,-307.5"/>
<text text-anchor="middle" x="174" y="-308" font-family="Sans" font-size="10.00">fixes</text>
</g>
</g>
</svg>
