<?xml version="1.0" encoding="UTF-8" standalone="no"?>
<?xml-stylesheet href="relationships.css" type="text/css"?>
<!-- Generated by graphviz version 2.30.1 (20200930.0103)
 -->
<!-- Title: Dependencies Pages: 1 -->
<svg xmlns="http://www.w3.org/2000/svg" xmlns:xlink="http://www.w3.org/1999/xlink" width="858pt" height="1566pt" viewBox="0.00 0.00 858.00 1566.00">
<g id="graph0" class="graph" transform="scale(1 1) rotate(0) translate(4 1562)">
<title>Dependencies</title>
<polygon fill="white" stroke="white" points="-4,5 -4,-1562 855,-1562 855,5 -4,5"/>
<g id="clust2" class="cluster"><title>cluster_milestone_23.9</title>
<polygon fill="none" stroke="black" points="317,-161 317,-792 842,-792 842,-161 317,-161"/>
<text text-anchor="middle" x="579.5" y="-778.4" font-family="Sans" font-size="12.00">23.9</text>
</g>
<g id="clust1" class="cluster"><title>cluster_milestone_23.next</title>
<polygon fill="none" stroke="black" points="8,-860 8,-1027 523,-1027 523,-860 8,-860"/>
<text text-anchor="middle" x="265.5" y="-1013.4" font-family="Sans" font-size="12.00">23.next</text>
</g>
<!-- aii#328 -->
<g id="node1" class="node"><title>aii#328</title>
<g id="a_node1"><a xlink:href="https://github.com/quattor/aii/pull/328" xlink:title="aii#328 (pull-request)" target="_parent">
<polygon fill="#6cc644" stroke="black" points="516,-423 334,-423 334,-373 516,-373 516,-423"/>
<text text-anchor="middle" x="425" y="-401" font-family="Sans" font-size="10.00">aii-ks: generate ks post section</text>
<text text-anchor="middle" x="425" y="-390" font-family="Sans" font-size="10.00">as standalone script</text>
</a>
</g>
</g>
<!-- aii#280 -->
<g id="node2" class="node"><title>aii#280</title>
<polygon fill="lightgrey" stroke="black" points="769.5,-842.5 702.5,-842.5 702.5,-803.5 769.5,-803.5 769.5,-842.5"/>
<text text-anchor="middle" x="736" y="-820.5" font-family="Sans" font-size="10.00">aii#280</text>
</g>
<!-- aii#328&#45;&gt;aii#280 -->
<g id="edge1" class="edge"><title>aii#328-&gt;aii#280</title>
<path fill="none" stroke="black" stroke-dasharray="5,2" d="M516.278,-420.843C521.257,-424.082 525.894,-427.779 530,-432 647.669,-552.955 517.67,-677.692 638,-796 652.37,-810.128 673.468,-817.007 692.32,-820.301"/>
<polygon fill="none" stroke="black" points="691.814,-823.764 702.216,-821.751 692.829,-816.838 691.814,-823.764"/>
<text text-anchor="middle" x="562.778" y="-612.003" font-family="Sans" font-size="10.00">requires</text>
</g>
<!-- aii#316 -->
<g id="node3" class="node"><title>aii#316</title>
<polygon fill="lightgrey" stroke="black" points="769.5,-152.5 702.5,-152.5 702.5,-113.5 769.5,-113.5 769.5,-152.5"/>
<text text-anchor="middle" x="736" y="-130.5" font-family="Sans" font-size="10.00">aii#316</text>
</g>
<!-- aii#328&#45;&gt;aii#316 -->
<g id="edge2" class="edge"><title>aii#328-&gt;aii#316</title>
<path fill="none" stroke="black" stroke-dasharray="5,2" d="M516.135,-373.758C521.054,-370.862 525.725,-367.623 530,-364 609.17,-296.917 556.421,-221.132 638,-157 653.348,-144.934 673.948,-138.839 692.216,-135.796"/>
<polygon fill="none" stroke="black" points="692.945,-139.228 702.359,-134.368 691.969,-132.296 692.945,-139.228"/>
<text text-anchor="middle" x="565.16" y="-241.05" font-family="Sans" font-size="10.00">requires</text>
</g>
<!-- aii#331 -->
<g id="node4" class="node"><title>aii#331</title>
<g id="a_node4"><a xlink:href="https://github.com/quattor/aii/pull/331" xlink:title="aii#331 (pull-request)" target="_parent">
<polygon fill="#6cc644" stroke="black" points="180,-428.5 38,-428.5 38,-367.5 180,-367.5 180,-428.5"/>
<text text-anchor="middle" x="109" y="-406.5" font-family="Sans" font-size="10.00">let aii generate ansible</text>
<text text-anchor="middle" x="109" y="-395.5" font-family="Sans" font-size="10.00">playbook for supported</text>
<text text-anchor="middle" x="109" y="-384.5" font-family="Sans" font-size="10.00">components</text>
</a>
</g>
</g>
<!-- aii#331&#45;&gt;aii#328 -->
<g id="edge3" class="edge"><title>aii#331-&gt;aii#328</title>
<path fill="none" stroke="black" stroke-dasharray="5,2" d="M180.077,-398C222.343,-398 276.883,-398 323.668,-398"/>
<polygon fill="none" stroke="black" points="323.834,-401.5 333.834,-398 323.834,-394.5 323.834,-401.5"/>
<text text-anchor="middle" x="236.574" y="-390" font-family="Sans" font-size="10.00">requires</text>
</g>
<!-- aii#299 -->
<g id="node5" class="node"><title>aii#299</title>
<g id="a_node5"><a xlink:href="https://github.com/quattor/aii/pull/299" xlink:title="aii#299 (pull-request)" target="_parent">
<polygon fill="#6cc644" stroke="black" points="501.5,-850 348.5,-850 348.5,-800 501.5,-800 501.5,-850"/>
<text text-anchor="middle" x="425" y="-828" font-family="Sans" font-size="10.00">aii-dhcp: support optional</text>
<text text-anchor="middle" x="425" y="-817" font-family="Sans" font-size="10.00">hostname ip verification</text>
</a>
</g>
</g>
<!-- aii#299&#45;&gt;aii#280 -->
<g id="edge4" class="edge"><title>aii#299-&gt;aii#280</title>
<path fill="none" stroke="black" stroke-dasharray="5,2" d="M501.59,-824.511C561.348,-824.124 642.634,-823.598 691.823,-823.279"/>
<polygon fill="none" stroke="black" points="692.134,-826.778 702.111,-823.213 692.089,-819.778 692.134,-826.778"/>
<text text-anchor="middle" x="581.863" y="-815.862" font-family="Sans" font-size="10.00">requires</text>
</g>
<!-- CAF#277 -->
<g id="node6" class="node"><title>CAF#277</title>
<g id="a_node6"><a xlink:href="https://github.com/quattor/CAF/pull/277" xlink:title="CAF#277 (pull-request)" target="_parent">
<polygon fill="#6cc644" stroke="black" points="201.5,-998 16.5,-998 16.5,-948 201.5,-948 201.5,-998"/>
<text text-anchor="middle" x="109" y="-976" font-family="Sans" font-size="10.00">Replace four instances of while-</text>
<text text-anchor="middle" x="109" y="-965" font-family="Sans" font-size="10.00">each with foreach</text>
</a>
</g>
</g>
<!-- CAF#109 -->
<g id="node7" class="node"><title>CAF#109</title>
<g id="a_node7"><a xlink:href="https://github.com/quattor/CAF/issues/109" xlink:title="CAF#109 (issue)" target="_parent">
<path fill="#6cc644" stroke="black" d="M494.5,-998C494.5,-998 355.5,-998 355.5,-998 349.5,-998 343.5,-992 343.5,-986 343.5,-986 343.5,-960 343.5,-960 343.5,-954 349.5,-948 355.5,-948 355.5,-948 494.5,-948 494.5,-948 500.5,-948 506.5,-954 506.5,-960 506.5,-960 506.5,-986 506.5,-986 506.5,-992 500.5,-998 494.5,-998"/>
<text text-anchor="middle" x="425" y="-976" font-family="Sans" font-size="10.00">review the current usage of</text>
<text text-anchor="middle" x="425" y="-965" font-family="Sans" font-size="10.00">`each`</text>
</a>
</g>
</g>
<!-- CAF#277&#45;&gt;CAF#109 -->
<g id="edge5" class="edge"><title>CAF#277-&gt;CAF#109</title>
<path fill="none" stroke="black" stroke-width="2" d="M201.666,-973C243.139,-973 292.015,-973 333.364,-973"/>
<polygon fill="black" stroke="black" points="333.43,-976.5 343.43,-973 333.43,-969.5 333.43,-976.5"/>
<text text-anchor="middle" x="260.322" y="-965" font-family="Sans" font-size="10.00">fixes</text>
</g>
<!-- CAF#257 -->
<g id="node8" class="node"><title>CAF#257</title>
<g id="a_node8"><a xlink:href="https://github.com/quattor/CAF/pull/257" xlink:title="CAF#257 (pull-request)" target="_parent">
<polygon fill="#6cc644" stroke="black" points="200.5,-924 17.5,-924 17.5,-874 200.5,-874 200.5,-924"/>
<text text-anchor="middle" x="109" y="-902" font-family="Sans" font-size="10.00">Process: run process as another</text>
<text text-anchor="middle" x="109" y="-891" font-family="Sans" font-size="10.00">user</text>
</a>
</g>
</g>
<!-- CAF#253 -->
<g id="node9" class="node"><title>CAF#253</title>
<g id="a_node9"><a xlink:href="https://github.com/quattor/CAF/issues/253" xlink:title="CAF#253 (issue)" target="_parent">
<path fill="#6cc644" stroke="black" d="M503,-929.5C503,-929.5 347,-929.5 347,-929.5 341,-929.5 335,-923.5 335,-917.5 335,-917.5 335,-880.5 335,-880.5 335,-874.5 341,-868.5 347,-868.5 347,-868.5 503,-868.5 503,-868.5 509,-868.5 515,-874.5 515,-880.5 515,-880.5 515,-917.5 515,-917.5 515,-923.5 509,-929.5 503,-929.5"/>
<text text-anchor="middle" x="425" y="-907.5" font-family="Sans" font-size="10.00">CAF::Process: Include an option</text>
<text text-anchor="middle" x="425" y="-896.5" font-family="Sans" font-size="10.00">to execute the command as an</text>
<text text-anchor="middle" x="425" y="-885.5" font-family="Sans" font-size="10.00">specific user</text>
</a>
</g>
</g>
<!-- CAF#257&#45;&gt;CAF#253 -->
<g id="edge6" class="edge"><title>CAF#257-&gt;CAF#253</title>
<path fill="none" stroke="black" stroke-width="2" d="M200.822,-899C239.561,-899 284.88,-899 324.522,-899"/>
<polygon fill="black" stroke="black" points="324.737,-902.5 334.737,-899 324.737,-895.5 324.737,-902.5"/>
<text text-anchor="middle" x="255.782" y="-891" font-family="Sans" font-size="10.00">fixes</text>
</g>
<!-- CAF#110 -->
<g id="node10" class="node"><title>CAF#110</title>
<g id="a_node10"><a xlink:href="https://github.com/quattor/CAF/pull/110" xlink:title="CAF#110 (pull-request)" target="_parent">
<polygon fill="#6cc644" stroke="black" points="184.5,-1085 33.5,-1085 33.5,-1035 184.5,-1035 184.5,-1085"/>
<text text-anchor="middle" x="109" y="-1063" font-family="Sans" font-size="10.00">CAF::Download class: API</text>
<text text-anchor="middle" x="109" y="-1052" font-family="Sans" font-size="10.00">proposal</text>
</a>
</g>
</g>
<!-- CAF#120 -->
<g id="node11" class="node"><title>CAF#120</title>
<polygon fill="lightgrey" stroke="black" points="462,-1079.5 388,-1079.5 388,-1040.5 462,-1040.5 462,-1079.5"/>
<text text-anchor="middle" x="425" y="-1057.5" font-family="Sans" font-size="10.00">CAF#120</text>
</g>
<!-- CAF#110&#45;&gt;CAF#120 -->
<g id="edge7" class="edge"><title>CAF#110-&gt;CAF#120</title>
<path fill="none" stroke="black" stroke-dasharray="5,2" d="M184.812,-1060C244.718,-1060 326.856,-1060 377.623,-1060"/>
<polygon fill="none" stroke="black" points="377.651,-1063.5 387.651,-1060 377.651,-1056.5 377.651,-1063.5"/>
<text text-anchor="middle" x="266.255" y="-1052" font-family="Sans" font-size="10.00">requires</text>
</g>
<!-- CCM#210 -->
<g id="node12" class="node"><title>CCM#210</title>
<g id="a_node12"><a xlink:href="https://github.com/quattor/CCM/pull/210" xlink:title="CCM#210 (pull-request)" target="_parent">
<polygon fill="#6e5494" stroke="black" points="503,-763 347,-763 347,-713 503,-713 503,-763"/>
<text text-anchor="middle" x="425" y="-741" font-family="Sans" font-size="10.00">Fetch: Remove suffix from</text>
<text text-anchor="middle" x="425" y="-730" font-family="Sans" font-size="10.00">downloaded profile</text>
</a>
</g>
</g>
<!-- CCM#204 -->
<g id="node13" class="node"><title>CCM#204</title>
<g id="a_node13"><a xlink:href="https://github.com/quattor/CCM/issues/204" xlink:title="CCM#204 (issue)" target="_parent">
<path fill="#6e5494" stroke="black" d="M815.5,-762.5C815.5,-762.5 656.5,-762.5 656.5,-762.5 650.5,-762.5 644.5,-756.5 644.5,-750.5 644.5,-750.5 644.5,-713.5 644.5,-713.5 644.5,-707.5 650.5,-701.5 656.5,-701.5 656.5,-701.5 815.5,-701.5 815.5,-701.5 821.5,-701.5 827.5,-707.5 827.5,-713.5 827.5,-713.5 827.5,-750.5 827.5,-750.5 827.5,-756.5 821.5,-762.5 815.5,-762.5"/>
<text text-anchor="middle" x="736" y="-740.5" font-family="Sans" font-size="10.00">Cached profiles always have an</text>
<text text-anchor="middle" x="736" y="-729.5" font-family="Sans" font-size="10.00">xml extension regardless of</text>
<text text-anchor="middle" x="736" y="-718.5" font-family="Sans" font-size="10.00">their content</text>
</a>
</g>
</g>
<!-- CCM#210&#45;&gt;CCM#204 -->
<g id="edge8" class="edge"><title>CCM#210-&gt;CCM#204</title>
<path fill="none" stroke="black" stroke-width="2" d="M503.177,-736.501C542.812,-735.732 591.594,-734.785 634.168,-733.958"/>
<polygon fill="black" stroke="black" points="634.349,-737.455 644.279,-733.762 634.213,-730.456 634.349,-737.455"/>
<text text-anchor="middle" x="561.37" y="-727.138" font-family="Sans" font-size="10.00">fixes</text>
</g>
<!-- configuration&#45;modules&#45;core#1630 -->
<g id="node14" class="node"><title>configuration-modules-core#1630</title>
<g id="a_node14"><a xlink:href="https://github.com/quattor/configuration-modules-core/pull/1630" xlink:title="configuration-modules-core#1630 (pull-request)" target="_parent">
<polygon fill="#6e5494" stroke="black" points="524.5,-695 325.5,-695 325.5,-645 524.5,-645 524.5,-695"/>
<text text-anchor="middle" x="425" y="-673" font-family="Sans" font-size="10.00">ncm-network: fix nmstate package</text>
<text text-anchor="middle" x="425" y="-662" font-family="Sans" font-size="10.00">definition in Kickstart config</text>
</a>
</g>
</g>
<!-- configuration&#45;modules&#45;core#1629 -->
<g id="node15" class="node"><title>configuration-modules-core#1629</title>
<g id="a_node15"><a xlink:href="https://github.com/quattor/configuration-modules-core/issues/1629" xlink:title="configuration-modules-core#1629 (issue)" target="_parent">
<path fill="#6e5494" stroke="black" d="M812.5,-683.5C812.5,-683.5 659.5,-683.5 659.5,-683.5 653.5,-683.5 647.5,-677.5 647.5,-671.5 647.5,-671.5 647.5,-634.5 647.5,-634.5 647.5,-628.5 653.5,-622.5 659.5,-622.5 659.5,-622.5 812.5,-622.5 812.5,-622.5 818.5,-622.5 824.5,-628.5 824.5,-634.5 824.5,-634.5 824.5,-671.5 824.5,-671.5 824.5,-677.5 818.5,-683.5 812.5,-683.5"/>
<text text-anchor="middle" x="736" y="-661.5" font-family="Sans" font-size="10.00">ncm-network nmstate: invalid</text>
<text text-anchor="middle" x="736" y="-650.5" font-family="Sans" font-size="10.00">package definition in Kickstart</text>
<text text-anchor="middle" x="736" y="-639.5" font-family="Sans" font-size="10.00">configuration</text>
</a>
</g>
</g>
<!-- configuration&#45;modules&#45;core#1630&#45;&gt;configuration&#45;modules&#45;core#1629 -->
<g id="edge9" class="edge"><title>configuration-modules-core#1630-&gt;configuration-modules-core#1629</title>
<path fill="none" stroke="black" stroke-width="2" d="M524.619,-664.574C560.702,-662.589 601.484,-660.346 637.472,-658.366"/>
<polygon fill="black" stroke="black" points="637.694,-661.859 647.487,-657.815 637.309,-654.869 637.694,-661.859"/>
<text text-anchor="middle" x="574.031" y="-653.196" font-family="Sans" font-size="10.00">fixes</text>
</g>
<!-- configuration&#45;modules&#45;core#1622 -->
<g id="node16" class="node"><title>configuration-modules-core#1622</title>
<g id="a_node16"><a xlink:href="https://github.com/quattor/configuration-modules-core/pull/1622" xlink:title="configuration-modules-core#1622 (pull-request)" target="_parent">
<polygon fill="#6cc644" stroke="black" points="513.5,-627 336.5,-627 336.5,-577 513.5,-577 513.5,-627"/>
<text text-anchor="middle" x="425" y="-605" font-family="Sans" font-size="10.00">ncm-authconfig: sssd: Schema</text>
<text text-anchor="middle" x="425" y="-594" font-family="Sans" font-size="10.00">improvements</text>
</a>
</g>
</g>
<!-- configuration&#45;modules&#45;core#1471 -->
<g id="node17" class="node"><title>configuration-modules-core#1471</title>
<g id="a_node17"><a xlink:href="https://github.com/quattor/configuration-modules-core/issues/1471" xlink:title="configuration-modules-core#1471 (issue)" target="_parent">
<path fill="#6cc644" stroke="black" d="M810.5,-604C810.5,-604 661.5,-604 661.5,-604 655.5,-604 649.5,-598 649.5,-592 649.5,-592 649.5,-566 649.5,-566 649.5,-560 655.5,-554 661.5,-554 661.5,-554 810.5,-554 810.5,-554 816.5,-554 822.5,-560 822.5,-566 822.5,-566 822.5,-592 822.5,-592 822.5,-598 816.5,-604 810.5,-604"/>
<text text-anchor="middle" x="736" y="-582" font-family="Sans" font-size="10.00">ncm-authconfig: sssd: tighten</text>
<text text-anchor="middle" x="736" y="-571" font-family="Sans" font-size="10.00">types</text>
</a>
</g>
</g>
<!-- configuration&#45;modules&#45;core#1622&#45;&gt;configuration&#45;modules&#45;core#1471 -->
<g id="edge10" class="edge"><title>configuration-modules-core#1622-&gt;configuration-modules-core#1471</title>
<path fill="none" stroke="black" stroke-width="2" d="M513.72,-595.471C552.95,-592.551 599.293,-589.101 639.406,-586.115"/>
<polygon fill="black" stroke="black" points="639.749,-589.6 649.462,-585.367 639.229,-582.619 639.749,-589.6"/>
<text text-anchor="middle" x="569.777" y="-582.405" font-family="Sans" font-size="10.00">fixes</text>
</g>
<!-- configuration&#45;modules&#45;core#1621 -->
<g id="node18" class="node"><title>configuration-modules-core#1621</title>
<g id="a_node18"><a xlink:href="https://github.com/quattor/configuration-modules-core/pull/1621" xlink:title="configuration-modules-core#1621 (pull-request)" target="_parent">
<polygon fill="#6cc644" stroke="black" points="520.5,-559 329.5,-559 329.5,-509 520.5,-509 520.5,-559"/>
<text text-anchor="middle" x="425" y="-537" font-family="Sans" font-size="10.00">ncm-nfs: Allow daemon to reload</text>
<text text-anchor="middle" x="425" y="-526" font-family="Sans" font-size="10.00">to be specified</text>
</a>
</g>
</g>
<!-- configuration&#45;modules&#45;core#1618 -->
<g id="node19" class="node"><title>configuration-modules-core#1618</title>
<g id="a_node19"><a xlink:href="https://github.com/quattor/configuration-modules-core/issues/1618" xlink:title="configuration-modules-core#1618 (issue)" target="_parent">
<path fill="#6cc644" stroke="black" d="M802.5,-536C802.5,-536 669.5,-536 669.5,-536 663.5,-536 657.5,-530 657.5,-524 657.5,-524 657.5,-498 657.5,-498 657.5,-492 663.5,-486 669.5,-486 669.5,-486 802.5,-486 802.5,-486 808.5,-486 814.5,-492 814.5,-498 814.5,-498 814.5,-524 814.5,-524 814.5,-530 808.5,-536 802.5,-536"/>
<text text-anchor="middle" x="736" y="-514" font-family="Sans" font-size="10.00">ncm-nfs: start service nfs-</text>
<text text-anchor="middle" x="736" y="-503" font-family="Sans" font-size="10.00">server instead of nfs</text>
</a>
</g>
</g>
<!-- configuration&#45;modules&#45;core#1621&#45;&gt;configuration&#45;modules&#45;core#1618 -->
<g id="edge11" class="edge"><title>configuration-modules-core#1621-&gt;configuration-modules-core#1618</title>
<path fill="none" stroke="black" stroke-width="2" d="M520.81,-526.943C561.12,-523.942 607.837,-520.465 647.334,-517.525"/>
<polygon fill="black" stroke="black" points="647.763,-521.003 657.476,-516.77 647.243,-514.022 647.763,-521.003"/>
<text text-anchor="middle" x="576.943" y="-513.872" font-family="Sans" font-size="10.00">fixes</text>
</g>
<!-- configuration&#45;modules&#45;core#1620 -->
<g id="node20" class="node"><title>configuration-modules-core#1620</title>
<g id="a_node20"><a xlink:href="https://github.com/quattor/configuration-modules-core/pull/1620" xlink:title="configuration-modules-core#1620 (pull-request)" target="_parent">
<polygon fill="#6e5494" stroke="black" points="524,-491 326,-491 326,-441 524,-441 524,-491"/>
<text text-anchor="middle" x="425" y="-469" font-family="Sans" font-size="10.00">ncm-spma: yumdnf: Don't attempt</text>
<text text-anchor="middle" x="425" y="-458" font-family="Sans" font-size="10.00">to expand groups with repoquery</text>
</a>
</g>
</g>
<!-- configuration&#45;modules&#45;core#1524 -->
<g id="node21" class="node"><title>configuration-modules-core#1524</title>
<g id="a_node21"><a xlink:href="https://github.com/quattor/configuration-modules-core/issues/1524" xlink:title="configuration-modules-core#1524 (issue)" target="_parent">
<path fill="#6e5494" stroke="black" d="M821.5,-468C821.5,-468 650.5,-468 650.5,-468 644.5,-468 638.5,-462 638.5,-456 638.5,-456 638.5,-430 638.5,-430 638.5,-424 644.5,-418 650.5,-418 650.5,-418 821.5,-418 821.5,-418 827.5,-418 833.5,-424 833.5,-430 833.5,-430 833.5,-456 833.5,-456 833.5,-462 827.5,-468 821.5,-468"/>
<text text-anchor="middle" x="736" y="-446" font-family="Sans" font-size="10.00">ncm-spma: yumdnf backend: fails</text>
<text text-anchor="middle" x="736" y="-435" font-family="Sans" font-size="10.00">while trying to expand groups</text>
</a>
</g>
</g>
<!-- configuration&#45;modules&#45;core#1620&#45;&gt;configuration&#45;modules&#45;core#1524 -->
<g id="edge12" class="edge"><title>configuration-modules-core#1620-&gt;configuration-modules-core#1524</title>
<path fill="none" stroke="black" stroke-width="2" d="M524.194,-458.691C557.265,-456.229 594.324,-453.471 628.037,-450.962"/>
<polygon fill="black" stroke="black" points="628.671,-454.424 638.384,-450.192 628.152,-447.444 628.671,-454.424"/>
<text text-anchor="middle" x="569.243" y="-446.445" font-family="Sans" font-size="10.00">fixes</text>
</g>
<!-- configuration&#45;modules&#45;core#1554 -->
<g id="node22" class="node"><title>configuration-modules-core#1554</title>
<g id="a_node22"><a xlink:href="https://github.com/quattor/configuration-modules-core/pull/1554" xlink:title="configuration-modules-core#1554 (pull-request)" target="_parent">
<polygon fill="#6cc644" stroke="black" points="510,-355 340,-355 340,-305 510,-305 510,-355"/>
<text text-anchor="middle" x="425" y="-333" font-family="Sans" font-size="10.00">avoid removing empty list of</text>
<text text-anchor="middle" x="425" y="-322" font-family="Sans" font-size="10.00">packages</text>
</a>
</g>
</g>
<!-- configuration&#45;modules&#45;core#1553 -->
<g id="node23" class="node"><title>configuration-modules-core#1553</title>
<g id="a_node23"><a xlink:href="https://github.com/quattor/configuration-modules-core/issues/1553" xlink:title="configuration-modules-core#1553 (issue)" target="_parent">
<path fill="#6cc644" stroke="black" d="M816.5,-363.5C816.5,-363.5 655.5,-363.5 655.5,-363.5 649.5,-363.5 643.5,-357.5 643.5,-351.5 643.5,-351.5 643.5,-314.5 643.5,-314.5 643.5,-308.5 649.5,-302.5 655.5,-302.5 655.5,-302.5 816.5,-302.5 816.5,-302.5 822.5,-302.5 828.5,-308.5 828.5,-314.5 828.5,-314.5 828.5,-351.5 828.5,-351.5 828.5,-357.5 822.5,-363.5 816.5,-363.5"/>
<text text-anchor="middle" x="736" y="-341.5" font-family="Sans" font-size="10.00">ncm-spma: update_pkgs in yum</text>
<text text-anchor="middle" x="736" y="-330.5" font-family="Sans" font-size="10.00">plugin tries to remove empty</text>
<text text-anchor="middle" x="736" y="-319.5" font-family="Sans" font-size="10.00">list of packages</text>
</a>
</g>
</g>
<!-- configuration&#45;modules&#45;core#1554&#45;&gt;configuration&#45;modules&#45;core#1553 -->
<g id="edge13" class="edge"><title>configuration-modules-core#1554-&gt;configuration-modules-core#1553</title>
<path fill="none" stroke="black" stroke-width="2" d="M510.027,-330.816C548.085,-331.185 593.403,-331.625 633.358,-332.013"/>
<polygon fill="black" stroke="black" points="633.36,-335.513 643.393,-332.111 633.428,-328.514 633.36,-335.513"/>
<text text-anchor="middle" x="564.42" y="-323.46" font-family="Sans" font-size="10.00">fixes</text>
</g>
<!-- configuration&#45;modules&#45;core#1452 -->
<g id="node24" class="node"><title>configuration-modules-core#1452</title>
<g id="a_node24"><a xlink:href="https://github.com/quattor/configuration-modules-core/pull/1452" xlink:title="configuration-modules-core#1452 (pull-request)" target="_parent">
<polygon fill="#6cc644" stroke="black" points="511.5,-219 338.5,-219 338.5,-169 511.5,-169 511.5,-219"/>
<text text-anchor="middle" x="425" y="-197" font-family="Sans" font-size="10.00">ncm-metaconfig: ssh daemon</text>
<text text-anchor="middle" x="425" y="-186" font-family="Sans" font-size="10.00">configuration support</text>
</a>
</g>
</g>
<!-- configuration&#45;modules&#45;core#1377 -->
<g id="node25" class="node"><title>configuration-modules-core#1377</title>
<polygon fill="lightgrey" stroke="black" points="833.5,-95.5 638.5,-95.5 638.5,-56.5 833.5,-56.5 833.5,-95.5"/>
<text text-anchor="middle" x="736" y="-73.5" font-family="Sans" font-size="10.00">configuration-modules-core#1377</text>
</g>
<!-- configuration&#45;modules&#45;core#1452&#45;&gt;configuration&#45;modules&#45;core#1377 -->
<g id="edge14" class="edge"><title>configuration-modules-core#1452-&gt;configuration-modules-core#1377</title>
<path fill="none" stroke="black" stroke-dasharray="1,5" d="M480.192,-168.856C522.608,-149.699 583.365,-123.403 638,-104 643.449,-102.065 649.105,-100.163 654.824,-98.3189"/>
<polygon fill="black" stroke="black" points="664.482,-95.2732 656.298,-102.573 659.713,-96.777 654.945,-98.2808 654.945,-98.2808 654.945,-98.2808 659.713,-96.777 653.591,-93.9892 664.482,-95.2732 664.482,-95.2732"/>
<text text-anchor="middle" x="550.326" y="-121.588" font-family="Sans" font-size="10.00">replaces</text>
</g>
<!-- configuration&#45;modules&#45;core#1451 -->
<g id="node26" class="node"><title>configuration-modules-core#1451</title>
<polygon fill="lightgrey" stroke="black" points="833.5,-38.5 638.5,-38.5 638.5,0.5 833.5,0.5 833.5,-38.5"/>
<text text-anchor="middle" x="736" y="-16.5" font-family="Sans" font-size="10.00">configuration-modules-core#1451</text>
</g>
<!-- configuration&#45;modules&#45;core#1452&#45;&gt;configuration&#45;modules&#45;core#1451 -->
<g id="edge15" class="edge"><title>configuration-modules-core#1452-&gt;configuration-modules-core#1451</title>
<path fill="none" stroke="black" stroke-dasharray="5,2" d="M455.316,-168.99C494.552,-136.661 567.411,-80.5472 638,-47 641.785,-45.2014 645.708,-43.4945 649.712,-41.8779"/>
<polygon fill="none" stroke="black" points="651.076,-45.1037 659.172,-38.2691 648.581,-38.5635 651.076,-45.1037"/>
<text text-anchor="middle" x="532.474" y="-88.4697" font-family="Sans" font-size="10.00">requires</text>
</g>
<!-- configuration&#45;modules&#45;core#1507 -->
<g id="node27" class="node"><title>configuration-modules-core#1507</title>
<g id="a_node27"><a xlink:href="https://github.com/quattor/configuration-modules-core/pull/1507" xlink:title="configuration-modules-core#1507 (pull-request)" target="_parent">
<polygon fill="#6cc644" stroke="black" points="197,-1153 21,-1153 21,-1103 197,-1103 197,-1153"/>
<text text-anchor="middle" x="109" y="-1131" font-family="Sans" font-size="10.00">[WIP] ncm-spma: yumdnf: use</text>
<text text-anchor="middle" x="109" y="-1120" font-family="Sans" font-size="10.00">spmaleaves dnf plugin</text>
</a>
</g>
</g>
<!-- configuration&#45;modules&#45;core#1401 -->
<g id="node28" class="node"><title>configuration-modules-core#1401</title>
<polygon fill="lightgrey" stroke="black" points="522.5,-1147.5 327.5,-1147.5 327.5,-1108.5 522.5,-1108.5 522.5,-1147.5"/>
<text text-anchor="middle" x="425" y="-1125.5" font-family="Sans" font-size="10.00">configuration-modules-core#1401</text>
</g>
<!-- configuration&#45;modules&#45;core#1507&#45;&gt;configuration&#45;modules&#45;core#1401 -->
<g id="edge16" class="edge"><title>configuration-modules-core#1507-&gt;configuration-modules-core#1401</title>
<path fill="none" stroke="black" stroke-dasharray="5,2" d="M197.05,-1128C234.203,-1128 277.927,-1128 317.027,-1128"/>
<polygon fill="none" stroke="black" points="317.391,-1131.5 327.391,-1128 317.391,-1124.5 317.391,-1131.5"/>
<text text-anchor="middle" x="242.549" y="-1120" font-family="Sans" font-size="10.00">requires</text>
</g>
<!-- configuration&#45;modules&#45;core#1336 -->
<g id="node29" class="node"><title>configuration-modules-core#1336</title>
<g id="a_node29"><a xlink:href="https://github.com/quattor/configuration-modules-core/pull/1336" xlink:title="configuration-modules-core#1336 (pull-request)" target="_parent">
<polygon fill="#6cc644" stroke="black" points="196,-1264.5 22,-1264.5 22,-1203.5 196,-1203.5 196,-1264.5"/>
<text text-anchor="middle" x="109" y="-1242.5" font-family="Sans" font-size="10.00">ncm-network: Add support for</text>
<text text-anchor="middle" x="109" y="-1231.5" font-family="Sans" font-size="10.00">CAF::Service actions after</text>
<text text-anchor="middle" x="109" y="-1220.5" font-family="Sans" font-size="10.00">changes</text>
</a>
</g>
</g>
<!-- configuration&#45;modules&#45;core#1335 -->
<g id="node30" class="node"><title>configuration-modules-core#1335</title>
<g id="a_node30"><a xlink:href="https://github.com/quattor/configuration-modules-core/pull/1335" xlink:title="configuration-modules-core#1335 (pull-request)" target="_parent">
<polygon fill="#6cc644" stroke="black" points="518,-1295.5 332,-1295.5 332,-1234.5 518,-1234.5 518,-1295.5"/>
<text text-anchor="middle" x="425" y="-1273.5" font-family="Sans" font-size="10.00">ncm-metaconfig: Remove</text>
<text text-anchor="middle" x="425" y="-1262.5" font-family="Sans" font-size="10.00">caf_service_action type to allow</text>
<text text-anchor="middle" x="425" y="-1251.5" font-family="Sans" font-size="10.00">reuse</text>
</a>
</g>
</g>
<!-- configuration&#45;modules&#45;core#1336&#45;&gt;configuration&#45;modules&#45;core#1335 -->
<g id="edge17" class="edge"><title>configuration-modules-core#1336-&gt;configuration-modules-core#1335</title>
<path fill="none" stroke="black" stroke-dasharray="5,2" d="M196.217,-1242.51C235.047,-1246.35 281.184,-1250.9 321.746,-1254.9"/>
<polygon fill="none" stroke="black" points="321.636,-1258.41 331.931,-1255.91 322.323,-1251.44 321.636,-1258.41"/>
<text text-anchor="middle" x="243.868" y="-1241.19" font-family="Sans" font-size="10.00">requires</text>
</g>
<!-- configuration&#45;modules&#45;core#1071 -->
<g id="node31" class="node"><title>configuration-modules-core#1071</title>
<g id="a_node31"><a xlink:href="https://github.com/quattor/configuration-modules-core/issues/1071" xlink:title="configuration-modules-core#1071 (issue)" target="_parent">
<path fill="#6cc644" stroke="black" d="M511.5,-1216C511.5,-1216 338.5,-1216 338.5,-1216 332.5,-1216 326.5,-1210 326.5,-1204 326.5,-1204 326.5,-1178 326.5,-1178 326.5,-1172 332.5,-1166 338.5,-1166 338.5,-1166 511.5,-1166 511.5,-1166 517.5,-1166 523.5,-1172 523.5,-1178 523.5,-1178 523.5,-1204 523.5,-1204 523.5,-1210 517.5,-1216 511.5,-1216"/>
<text text-anchor="middle" x="425" y="-1194" font-family="Sans" font-size="10.00">ncm-network: support daemons to</text>
<text text-anchor="middle" x="425" y="-1183" font-family="Sans" font-size="10.00">restart after network changes</text>
</a>
</g>
</g>
<!-- configuration&#45;modules&#45;core#1336&#45;&gt;configuration&#45;modules&#45;core#1071 -->
<g id="edge18" class="edge"><title>configuration-modules-core#1336-&gt;configuration-modules-core#1071</title>
<path fill="none" stroke="black" stroke-width="2" d="M196.217,-1222.19C233.216,-1217.13 276.848,-1211.15 315.972,-1205.79"/>
<polygon fill="black" stroke="black" points="316.912,-1209.2 326.344,-1204.37 315.962,-1202.26 316.912,-1209.2"/>
<text text-anchor="middle" x="249.527" y="-1205.25" font-family="Sans" font-size="10.00">fixes</text>
</g>
<!-- template&#45;library&#45;core#191 -->
<g id="node32" class="node"><title>template-library-core#191</title>
<polygon fill="lightgrey" stroke="black" points="815.5,-1284.5 656.5,-1284.5 656.5,-1245.5 815.5,-1245.5 815.5,-1284.5"/>
<text text-anchor="middle" x="736" y="-1262.5" font-family="Sans" font-size="10.00">template-library-core#191</text>
</g>
<!-- configuration&#45;modules&#45;core#1335&#45;&gt;template&#45;library&#45;core#191 -->
<g id="edge19" class="edge"><title>configuration-modules-core#1335-&gt;template-library-core#191</title>
<path fill="none" stroke="black" stroke-dasharray="5,2" d="M518.292,-1265C558.867,-1265 606.315,-1265 646.452,-1265"/>
<polygon fill="none" stroke="black" points="646.491,-1268.5 656.491,-1265 646.49,-1261.5 646.491,-1268.5"/>
<text text-anchor="middle" x="567.165" y="-1257" font-family="Sans" font-size="10.00">requires</text>
</g>
<!-- configuration&#45;modules&#45;core#1148 -->
<g id="node33" class="node"><title>configuration-modules-core#1148</title>
<g id="a_node33"><a xlink:href="https://github.com/quattor/configuration-modules-core/pull/1148" xlink:title="configuration-modules-core#1148 (pull-request)" target="_parent">
<polygon fill="#6cc644" stroke="black" points="208.5,-1432 9.5,-1432 9.5,-1382 208.5,-1382 208.5,-1432"/>
<text text-anchor="middle" x="109" y="-1410" font-family="Sans" font-size="10.00">ncm-spma: Remove support from</text>
<text text-anchor="middle" x="109" y="-1399" font-family="Sans" font-size="10.00">groups from spma yumng backend</text>
</a>
</g>
</g>
<!-- configuration&#45;modules&#45;core#952 -->
<g id="node34" class="node"><title>configuration-modules-core#952</title>
<g id="a_node34"><a xlink:href="https://github.com/quattor/configuration-modules-core/issues/952" xlink:title="configuration-modules-core#952 (issue)" target="_parent">
<path fill="#6cc644" stroke="black" d="M518,-1432C518,-1432 332,-1432 332,-1432 326,-1432 320,-1426 320,-1420 320,-1420 320,-1394 320,-1394 320,-1388 326,-1382 332,-1382 332,-1382 518,-1382 518,-1382 524,-1382 530,-1388 530,-1394 530,-1394 530,-1420 530,-1420 530,-1426 524,-1432 518,-1432"/>
<text text-anchor="middle" x="425" y="-1410" font-family="Sans" font-size="10.00">ncm-spma (yumng): Remove support</text>
<text text-anchor="middle" x="425" y="-1399" font-family="Sans" font-size="10.00">for package groups</text>
</a>
</g>
</g>
<!-- configuration&#45;modules&#45;core#1148&#45;&gt;configuration&#45;modules&#45;core#952 -->
<g id="edge20" class="edge"><title>configuration-modules-core#1148-&gt;configuration-modules-core#952</title>
<path fill="none" stroke="black" stroke-width="2" d="M208.921,-1407C240.933,-1407 276.695,-1407 309.726,-1407"/>
<polygon fill="black" stroke="black" points="309.883,-1410.5 319.883,-1407 309.882,-1403.5 309.883,-1410.5"/>
<text text-anchor="middle" x="252.546" y="-1399" font-family="Sans" font-size="10.00">fixes</text>
</g>
<!-- configuration&#45;modules&#45;core#950 -->
<g id="node35" class="node"><title>configuration-modules-core#950</title>
<g id="a_node35"><a xlink:href="https://github.com/quattor/configuration-modules-core/issues/950" xlink:title="configuration-modules-core#950 (issue)" target="_parent">
<path fill="#6cc644" stroke="black" d="M200,-1364C200,-1364 18,-1364 18,-1364 12,-1364 6,-1358 6,-1352 6,-1352 6,-1326 6,-1326 6,-1320 12,-1314 18,-1314 18,-1314 200,-1314 200,-1314 206,-1314 212,-1320 212,-1326 212,-1326 212,-1352 212,-1352 212,-1358 206,-1364 200,-1364"/>
<text text-anchor="middle" x="109" y="-1342" font-family="Sans" font-size="10.00">ncm-spma: Remove support for</text>
<text text-anchor="middle" x="109" y="-1331" font-family="Sans" font-size="10.00">package groups from yum backends</text>
</a>
</g>
</g>
<!-- configuration&#45;modules&#45;core#951 -->
<g id="node36" class="node"><title>configuration-modules-core#951</title>
<g id="a_node36"><a xlink:href="https://github.com/quattor/configuration-modules-core/issues/951" xlink:title="configuration-modules-core#951 (issue)" target="_parent">
<path fill="#6cc644" stroke="black" d="M512,-1364C512,-1364 338,-1364 338,-1364 332,-1364 326,-1358 326,-1352 326,-1352 326,-1326 326,-1326 326,-1320 332,-1314 338,-1314 338,-1314 512,-1314 512,-1314 518,-1314 524,-1320 524,-1326 524,-1326 524,-1352 524,-1352 524,-1358 518,-1364 512,-1364"/>
<text text-anchor="middle" x="425" y="-1342" font-family="Sans" font-size="10.00">ncm-spma (yum): Remove support</text>
<text text-anchor="middle" x="425" y="-1331" font-family="Sans" font-size="10.00">for package groups</text>
</a>
</g>
</g>
<!-- configuration&#45;modules&#45;core#950&#45;&gt;configuration&#45;modules&#45;core#951 -->
<g id="edge21" class="edge"><title>configuration-modules-core#950-&gt;configuration-modules-core#951</title>
<path fill="none" stroke="black" stroke-dasharray="5,2" d="M212.381,-1339C245.386,-1339 282.071,-1339 315.502,-1339"/>
<polygon fill="none" stroke="black" points="315.765,-1342.5 325.765,-1339 315.765,-1335.5 315.765,-1342.5"/>
<text text-anchor="middle" x="249.107" y="-1331" font-family="Sans" font-size="10.00">requires</text>
</g>
<!-- configuration&#45;modules&#45;core#950&#45;&gt;configuration&#45;modules&#45;core#952 -->
<g id="edge22" class="edge"><title>configuration-modules-core#950-&gt;configuration-modules-core#952</title>
<path fill="none" stroke="black" stroke-dasharray="5,2" d="M212.381,-1361.17C243.602,-1367.93 278.116,-1375.41 310.053,-1382.32"/>
<polygon fill="none" stroke="black" points="309.361,-1385.75 319.876,-1384.45 310.843,-1378.91 309.361,-1385.75"/>
<text text-anchor="middle" x="246.372" y="-1364.86" font-family="Sans" font-size="10.00">requires</text>
</g>
<!-- quattor.github.com#278 -->
<g id="node37" class="node"><title>quattor.github.com#278</title>
<g id="a_node37"><a xlink:href="https://github.com/quattor/quattor.github.com/pull/278" xlink:title="quattor.github.com#278 (pull-request)" target="_parent">
<polygon fill="#6cc644" stroke="black" points="183,-1489.5 35,-1489.5 35,-1450.5 183,-1450.5 183,-1489.5"/>
<text text-anchor="middle" x="109" y="-1467.5" font-family="Sans" font-size="10.00">Update Perl coding style</text>
</a>
</g>
</g>
<!-- quattor.github.com#215 -->
<g id="node38" class="node"><title>quattor.github.com#215</title>
<g id="a_node38"><a xlink:href="https://github.com/quattor/quattor.github.com/issues/215" xlink:title="quattor.github.com#215 (issue)" target="_parent">
<path fill="#6cc644" stroke="black" d="M486,-1489.5C486,-1489.5 364,-1489.5 364,-1489.5 358,-1489.5 352,-1483.5 352,-1477.5 352,-1477.5 352,-1462.5 352,-1462.5 352,-1456.5 358,-1450.5 364,-1450.5 364,-1450.5 486,-1450.5 486,-1450.5 492,-1450.5 498,-1456.5 498,-1462.5 498,-1462.5 498,-1477.5 498,-1477.5 498,-1483.5 492,-1489.5 486,-1489.5"/>
<text text-anchor="middle" x="425" y="-1467.5" font-family="Sans" font-size="10.00">Update coding style doc</text>
</a>
</g>
</g>
<!-- quattor.github.com#278&#45;&gt;quattor.github.com#215 -->
<g id="edge23" class="edge"><title>quattor.github.com#278-&gt;quattor.github.com#215</title>
<path fill="none" stroke="black" stroke-width="2" d="M183.223,-1470C230.595,-1470 292.358,-1470 341.469,-1470"/>
<polygon fill="black" stroke="black" points="341.747,-1473.5 351.747,-1470 341.746,-1466.5 341.747,-1473.5"/>
<text text-anchor="middle" x="255.497" y="-1462" font-family="Sans" font-size="10.00">fixes</text>
</g>
<!-- template&#45;library&#45;grid#232 -->
<g id="node39" class="node"><title>template-library-grid#232</title>
<g id="a_node39"><a xlink:href="https://github.com/quattor/template-library-grid/pull/232" xlink:title="template-library-grid#232 (pull-request)" target="_parent">
<polygon fill="#6cc644" stroke="black" points="192.5,-1558 25.5,-1558 25.5,-1508 192.5,-1508 192.5,-1558"/>
<text text-anchor="middle" x="109" y="-1536" font-family="Sans" font-size="10.00">arc-ce: Export arc-ce feature</text>
<text text-anchor="middle" x="109" y="-1525" font-family="Sans" font-size="10.00">from aquilon at RAL</text>
</a>
</g>
</g>
<!-- template&#45;library&#45;grid#221 -->
<g id="node40" class="node"><title>template-library-grid#221</title>
<g id="a_node40"><a xlink:href="https://github.com/quattor/template-library-grid/issues/221" xlink:title="template-library-grid#221 (issue)" target="_parent">
<path fill="#6cc644" stroke="black" d="M502,-1558C502,-1558 348,-1558 348,-1558 342,-1558 336,-1552 336,-1546 336,-1546 336,-1520 336,-1520 336,-1514 342,-1508 348,-1508 348,-1508 502,-1508 502,-1508 508,-1508 514,-1514 514,-1520 514,-1520 514,-1546 514,-1546 514,-1552 508,-1558 502,-1558"/>
<text text-anchor="middle" x="425" y="-1536" font-family="Sans" font-size="10.00">Support for new CE types (ARC</text>
<text text-anchor="middle" x="425" y="-1525" font-family="Sans" font-size="10.00">CE, HTCONDOR CE)</text>
</a>
</g>
</g>
<!-- template&#45;library&#45;grid#232&#45;&gt;template&#45;library&#45;grid#221 -->
<g id="edge24" class="edge"><title>template-library-grid#232-&gt;template-library-grid#221</title>
<path fill="none" stroke="black" stroke-width="2" d="M192.911,-1533C233.702,-1533 283.151,-1533 325.823,-1533"/>
<polygon fill="black" stroke="black" points="325.947,-1536.5 335.947,-1533 325.947,-1529.5 325.947,-1536.5"/>
<text text-anchor="middle" x="252.543" y="-1525" font-family="Sans" font-size="10.00">fixes</text>
</g>
<!-- template&#45;library&#45;standard#154 -->
<g id="node41" class="node"><title>template-library-standard#154</title>
<g id="a_node41"><a xlink:href="https://github.com/quattor/template-library-standard/pull/154" xlink:title="template-library-standard#154 (pull-request)" target="_parent">
<polygon fill="#6cc644" stroke="black" points="506.5,-287 343.5,-287 343.5,-237 506.5,-237 506.5,-287"/>
<text text-anchor="middle" x="425" y="-265" font-family="Sans" font-size="10.00">Tell NetworkManager not to</text>
<text text-anchor="middle" x="425" y="-254" font-family="Sans" font-size="10.00">manage resolv.conf</text>
</a>
</g>
</g>
<!-- template&#45;library&#45;standard#153 -->
<g id="node42" class="node"><title>template-library-standard#153</title>
<g id="a_node42"><a xlink:href="https://github.com/quattor/template-library-standard/issues/153" xlink:title="template-library-standard#153 (issue)" target="_parent">
<path fill="#6cc644" stroke="black" d="M810,-284C810,-284 662,-284 662,-284 656,-284 650,-278 650,-272 650,-272 650,-246 650,-246 650,-240 656,-234 662,-234 662,-234 810,-234 810,-234 816,-234 822,-240 822,-246 822,-246 822,-272 822,-272 822,-278 816,-284 810,-284"/>
<text text-anchor="middle" x="736" y="-262" font-family="Sans" font-size="10.00">EL8: NetworkManager rebuild</text>
<text text-anchor="middle" x="736" y="-251" font-family="Sans" font-size="10.00">resolv.conf at each reboot</text>
</a>
</g>
</g>
<!-- template&#45;library&#45;standard#154&#45;&gt;template&#45;library&#45;standard#153 -->
<g id="edge25" class="edge"><title>template-library-standard#154-&gt;template-library-standard#153</title>
<path fill="none" stroke="black" stroke-width="2" d="M506.782,-261.216C547.507,-260.82 597.156,-260.338 639.733,-259.925"/>
<polygon fill="black" stroke="black" points="639.862,-263.424 649.828,-259.827 639.794,-256.424 639.862,-263.424"/>
<text text-anchor="middle" x="566.451" y="-252.52" font-family="Sans" font-size="10.00">fixes</text>
</g>
</g>
</svg>
