<?xml version="1.0" encoding="UTF-8" standalone="no"?>
<?xml-stylesheet href="relationships.css" type="text/css"?>
<!-- Generated by graphviz version 2.26.0 (20091210.2329)
 -->
<!-- Title: Dependencies Pages: 1 -->
<svg xmlns="http://www.w3.org/2000/svg" xmlns:xlink="http://www.w3.org/1999/xlink" width="896pt" height="2500pt" viewBox="0.00 0.00 896.00 2500.00">
<g id="graph1" class="graph" transform="scale(1 1) rotate(0) translate(4 2496)">
<title>Dependencies</title>
<polygon fill="white" stroke="white" points="-4,5 -4,-2496 893,-2496 893,5 -4,5"/>
<g id="graph2" class="cluster"><title>cluster_17.10</title>
<polygon fill="none" stroke="black" points="24,-1664 24,-1902 562,-1902 562,-1664 24,-1664"/>
<text text-anchor="middle" x="293" y="-1887.2" font-family="Sans" font-size="12.00">17.10</text>
</g>
<g id="graph3" class="cluster"><title>cluster_17.8</title>
<polygon fill="none" stroke="black" points="338,-224 338,-1656 880,-1656 880,-224 338,-224"/>
<text text-anchor="middle" x="609" y="-1641.2" font-family="Sans" font-size="12.00">17.8</text>
</g>
<g id="graph5" class="cluster"><title>cluster_17.12</title>
<polygon fill="none" stroke="black" points="70,-1960 70,-2148 482,-2148 482,-1960 70,-1960"/>
<text text-anchor="middle" x="276" y="-2133.2" font-family="Sans" font-size="12.00">17.12</text>
</g>
<!-- aii#275 -->
<g id="node1" class="node"><title>aii#275</title>
<a xlink:href="https://github.com/quattor/aii/pull/275" xlink:title="remove aii-freeipa, deprecated by ncm-freeipa AII support" target="_parent">
<polygon fill="#6e5494" stroke="black" points="471,-1613 393,-1613 393,-1559 471,-1559 471,-1613"/>
<text text-anchor="middle" x="432" y="-1590" font-family="Sans" font-size="10.00">pull-request</text>
<text text-anchor="middle" x="432" y="-1577" font-family="Sans" font-size="10.00">aii#275</text>
</a>
</g>
<!-- aii#134 -->
<g id="node3" class="node"><title>aii#134</title>
<a xlink:href="https://github.com/quattor/aii/issues/134" xlink:title="Missing freeipa.pm in AII RPM" target="_parent">
<ellipse fill="#bd2c00" stroke="black" cx="750" cy="-1586" rx="41.2167" ry="38.1838"/>
<text text-anchor="middle" x="750" y="-1590" font-family="Sans" font-size="10.00">issue</text>
<text text-anchor="middle" x="750" y="-1577" font-family="Sans" font-size="10.00">aii#134</text>
</a>
</g>
<!-- aii#275&#45;&gt;aii#134 -->
<g id="edge2" class="edge"><title>aii#275-&gt;aii#134</title>
<path fill="none" stroke="black" stroke-width="2" d="M471.632,-1586C528.883,-1586 634.79,-1586 698.177,-1586"/>
<polygon fill="black" stroke="black" points="698.352,-1589.5 708.352,-1586 698.352,-1582.5 698.352,-1589.5"/>
<text text-anchor="middle" x="591" y="-1590" font-family="Sans" font-size="10.00">fixes</text>
</g>
<!-- aii#210 -->
<g id="node4" class="node"><title>aii#210</title>
<a xlink:href="https://github.com/quattor/aii/pull/210" xlink:title="Shellfe: support active config for plugins" target="_parent">
<polygon fill="#6cc644" stroke="black" points="157,-2033 79,-2033 79,-1979 157,-1979 157,-2033"/>
<text text-anchor="middle" x="118" y="-2010" font-family="Sans" font-size="10.00">pull-request</text>
<text text-anchor="middle" x="118" y="-1997" font-family="Sans" font-size="10.00">aii#210</text>
</a>
</g>
<!-- aii#209 -->
<g id="node6" class="node"><title>aii#209</title>
<a xlink:href="https://github.com/quattor/aii/issues/209" xlink:title="support ACTIVE_CONFIG" target="_parent">
<ellipse fill="#6cc644" stroke="black" cx="432" cy="-2006" rx="41.2167" ry="38.1838"/>
<text text-anchor="middle" x="432" y="-2010" font-family="Sans" font-size="10.00">issue</text>
<text text-anchor="middle" x="432" y="-1997" font-family="Sans" font-size="10.00">aii#209</text>
</a>
</g>
<!-- aii#210&#45;&gt;aii#209 -->
<g id="edge4" class="edge"><title>aii#210-&gt;aii#209</title>
<path fill="none" stroke="black" stroke-width="2" d="M157.768,-2006C214.279,-2006 317.868,-2006 380.284,-2006"/>
<polygon fill="black" stroke="black" points="380.31,-2009.5 390.31,-2006 380.31,-2002.5 380.31,-2009.5"/>
<text text-anchor="middle" x="273" y="-2010" font-family="Sans" font-size="10.00">fixes</text>
</g>
<!-- ncm&#45;ncd#74 -->
<g id="node8" class="node"><title>ncm-ncd#74</title>
<a xlink:href="https://github.com/quattor/ncm-ncd/pull/74" xlink:title="Set the current active config as an attribute to the component" target="_parent">
<polygon fill="#6cc644" stroke="black" points="473,-2116 391,-2116 391,-2062 473,-2062 473,-2116"/>
<text text-anchor="middle" x="432" y="-2093" font-family="Sans" font-size="10.00">pull-request</text>
<text text-anchor="middle" x="432" y="-2080" font-family="Sans" font-size="10.00">ncm-ncd#74</text>
</a>
</g>
<!-- aii#210&#45;&gt;ncm&#45;ncd#74 -->
<g id="edge6" class="edge"><title>aii#210-&gt;ncm-ncd#74</title>
<path fill="none" stroke="black" stroke-dasharray="5,2" d="M157.609,-2016.38C180.517,-2022.39 209.889,-2030.11 236,-2037 285.266,-2050.01 341.475,-2064.93 381.028,-2075.44"/>
<polygon fill="none" stroke="black" points="380.148,-2078.83 390.711,-2078.01 381.946,-2072.06 380.148,-2078.83"/>
<text text-anchor="middle" x="273" y="-2056" font-family="Sans" font-size="10.00">requires</text>
</g>
<!-- aii#203 -->
<g id="node10" class="node"><title>aii#203</title>
<polygon fill="lightgrey" stroke="black" points="461,-1950.5 403,-1950.5 403,-1909.5 461,-1909.5 461,-1950.5"/>
<text text-anchor="middle" x="432" y="-1927.5" font-family="Sans" font-size="10.00">aii#203</text>
</g>
<!-- aii#210&#45;&gt;aii#203 -->
<g id="edge8" class="edge"><title>aii#210-&gt;aii#203</title>
<path fill="none" stroke="black" stroke-dasharray="5,2" d="M157.585,-1995.14C196.315,-1984.64 257.039,-1968.53 310,-1956 337.353,-1949.53 368.33,-1942.93 392.226,-1938.01"/>
<polygon fill="none" stroke="black" points="393.24,-1941.37 402.334,-1935.94 391.835,-1934.51 393.24,-1941.37"/>
<text text-anchor="middle" x="273" y="-1973" font-family="Sans" font-size="10.00">requires</text>
</g>
<!-- configuration&#45;modules&#45;core#1181 -->
<g id="node11" class="node"><title>configuration-modules-core#1181</title>
<a xlink:href="https://github.com/quattor/configuration-modules-core/pull/1181" xlink:title="ncm-network: NoActionSupported" target="_parent">
<polygon fill="#6e5494" stroke="black" points="518,-1519 346,-1519 346,-1465 518,-1465 518,-1519"/>
<text text-anchor="middle" x="432" y="-1496" font-family="Sans" font-size="10.00">pull-request</text>
<text text-anchor="middle" x="432" y="-1483" font-family="Sans" font-size="10.00">configuration-modules-core#1181</text>
</a>
</g>
<!-- configuration&#45;modules&#45;core#1086 -->
<g id="node13" class="node"><title>configuration-modules-core#1086</title>
<a xlink:href="https://github.com/quattor/configuration-modules-core/issues/1086" xlink:title="ncm-network: declare NoActionSupported" target="_parent">
<ellipse fill="#bd2c00" stroke="black" cx="750" cy="-1492" rx="121.122" ry="38.1838"/>
<text text-anchor="middle" x="750" y="-1496" font-family="Sans" font-size="10.00">issue</text>
<text text-anchor="middle" x="750" y="-1483" font-family="Sans" font-size="10.00">configuration-modules-core#1086</text>
</a>
</g>
<!-- configuration&#45;modules&#45;core#1181&#45;&gt;configuration&#45;modules&#45;core#1086 -->
<g id="edge10" class="edge"><title>configuration-modules-core#1181-&gt;configuration-modules-core#1086</title>
<path fill="none" stroke="black" stroke-width="2" d="M518.055,-1492C548.811,-1492 584.215,-1492 617.951,-1492"/>
<polygon fill="black" stroke="black" points="618.361,-1495.5 628.361,-1492 618.361,-1488.5 618.361,-1495.5"/>
<text text-anchor="middle" x="591" y="-1496" font-family="Sans" font-size="10.00">fixes</text>
</g>
<!-- configuration&#45;modules&#45;core#1169 -->
<g id="node14" class="node"><title>configuration-modules-core#1169</title>
<a xlink:href="https://github.com/quattor/configuration-modules-core/pull/1169" xlink:title="ncm-accounts: is_user_or_group function can be used without component" target="_parent">
<polygon fill="#6e5494" stroke="black" points="518,-1425 346,-1425 346,-1371 518,-1371 518,-1425"/>
<text text-anchor="middle" x="432" y="-1402" font-family="Sans" font-size="10.00">pull-request</text>
<text text-anchor="middle" x="432" y="-1389" font-family="Sans" font-size="10.00">configuration-modules-core#1169</text>
</a>
</g>
<!-- configuration&#45;modules&#45;core#1166 -->
<g id="node16" class="node"><title>configuration-modules-core#1166</title>
<a xlink:href="https://github.com/quattor/configuration-modules-core/issues/1166" xlink:title="ncm-systemd: schema depends on components/accounts/functions" target="_parent">
<ellipse fill="#bd2c00" stroke="black" cx="750" cy="-1398" rx="121.122" ry="38.1838"/>
<text text-anchor="middle" x="750" y="-1402" font-family="Sans" font-size="10.00">issue</text>
<text text-anchor="middle" x="750" y="-1389" font-family="Sans" font-size="10.00">configuration-modules-core#1166</text>
</a>
</g>
<!-- configuration&#45;modules&#45;core#1169&#45;&gt;configuration&#45;modules&#45;core#1166 -->
<g id="edge12" class="edge"><title>configuration-modules-core#1169-&gt;configuration-modules-core#1166</title>
<path fill="none" stroke="black" stroke-width="2" d="M518.055,-1398C548.811,-1398 584.215,-1398 617.951,-1398"/>
<polygon fill="black" stroke="black" points="618.361,-1401.5 628.361,-1398 618.361,-1394.5 618.361,-1401.5"/>
<text text-anchor="middle" x="591" y="-1402" font-family="Sans" font-size="10.00">fixes</text>
</g>
<!-- configuration&#45;modules&#45;core#1167 -->
<g id="node17" class="node"><title>configuration-modules-core#1167</title>
<a xlink:href="https://github.com/quattor/configuration-modules-core/pull/1167" xlink:title="ncm-cups: fix compatibility with EL7" target="_parent">
<polygon fill="#6e5494" stroke="black" points="518,-1331 346,-1331 346,-1277 518,-1277 518,-1331"/>
<text text-anchor="middle" x="432" y="-1308" font-family="Sans" font-size="10.00">pull-request</text>
<text text-anchor="middle" x="432" y="-1295" font-family="Sans" font-size="10.00">configuration-modules-core#1167</text>
</a>
</g>
<!-- configuration&#45;modules&#45;core#1161 -->
<g id="node19" class="node"><title>configuration-modules-core#1161</title>
<a xlink:href="https://github.com/quattor/configuration-modules-core/issues/1161" xlink:title="ncm-cups 17.7.0 broken on EL7 (pre-EL7 chkconfig dependency)" target="_parent">
<ellipse fill="#bd2c00" stroke="black" cx="750" cy="-1304" rx="121.122" ry="38.1838"/>
<text text-anchor="middle" x="750" y="-1308" font-family="Sans" font-size="10.00">issue</text>
<text text-anchor="middle" x="750" y="-1295" font-family="Sans" font-size="10.00">configuration-modules-core#1161</text>
</a>
</g>
<!-- configuration&#45;modules&#45;core#1167&#45;&gt;configuration&#45;modules&#45;core#1161 -->
<g id="edge14" class="edge"><title>configuration-modules-core#1167-&gt;configuration-modules-core#1161</title>
<path fill="none" stroke="black" stroke-width="2" d="M518.055,-1304C548.811,-1304 584.215,-1304 617.951,-1304"/>
<polygon fill="black" stroke="black" points="618.361,-1307.5 628.361,-1304 618.361,-1300.5 618.361,-1307.5"/>
<text text-anchor="middle" x="591" y="-1308" font-family="Sans" font-size="10.00">fixes</text>
</g>
<!-- configuration&#45;modules&#45;core#1163 -->
<g id="node20" class="node"><title>configuration-modules-core#1163</title>
<a xlink:href="https://github.com/quattor/configuration-modules-core/pull/1163" xlink:title="ncm-directoryservices: remove unsupported component" target="_parent">
<polygon fill="#6e5494" stroke="black" points="518,-1237 346,-1237 346,-1183 518,-1183 518,-1237"/>
<text text-anchor="middle" x="432" y="-1214" font-family="Sans" font-size="10.00">pull-request</text>
<text text-anchor="middle" x="432" y="-1201" font-family="Sans" font-size="10.00">configuration-modules-core#1163</text>
</a>
</g>
<!-- configuration&#45;modules&#45;core#1052 -->
<g id="node22" class="node"><title>configuration-modules-core#1052</title>
<a xlink:href="https://github.com/quattor/configuration-modules-core/issues/1052" xlink:title="ncm-directoryservices: Archive and remove from repository" target="_parent">
<ellipse fill="#bd2c00" stroke="black" cx="750" cy="-1210" rx="121.122" ry="38.1838"/>
<text text-anchor="middle" x="750" y="-1214" font-family="Sans" font-size="10.00">issue</text>
<text text-anchor="middle" x="750" y="-1201" font-family="Sans" font-size="10.00">configuration-modules-core#1052</text>
</a>
</g>
<!-- configuration&#45;modules&#45;core#1163&#45;&gt;configuration&#45;modules&#45;core#1052 -->
<g id="edge16" class="edge"><title>configuration-modules-core#1163-&gt;configuration-modules-core#1052</title>
<path fill="none" stroke="black" stroke-width="2" d="M518.055,-1210C548.811,-1210 584.215,-1210 617.951,-1210"/>
<polygon fill="black" stroke="black" points="618.361,-1213.5 628.361,-1210 618.361,-1206.5 618.361,-1213.5"/>
<text text-anchor="middle" x="591" y="-1214" font-family="Sans" font-size="10.00">fixes</text>
</g>
<!-- configuration&#45;modules&#45;core#1162 -->
<g id="node23" class="node"><title>configuration-modules-core#1162</title>
<a xlink:href="https://github.com/quattor/configuration-modules-core/pull/1162" xlink:title="ncm-mcx: remove unsupported component" target="_parent">
<polygon fill="#6e5494" stroke="black" points="518,-1143 346,-1143 346,-1089 518,-1089 518,-1143"/>
<text text-anchor="middle" x="432" y="-1120" font-family="Sans" font-size="10.00">pull-request</text>
<text text-anchor="middle" x="432" y="-1107" font-family="Sans" font-size="10.00">configuration-modules-core#1162</text>
</a>
</g>
<!-- configuration&#45;modules&#45;core#1054 -->
<g id="node25" class="node"><title>configuration-modules-core#1054</title>
<a xlink:href="https://github.com/quattor/configuration-modules-core/issues/1054" xlink:title="ncm-mcx: Archive and remove from repository" target="_parent">
<ellipse fill="#bd2c00" stroke="black" cx="750" cy="-1116" rx="121.122" ry="38.1838"/>
<text text-anchor="middle" x="750" y="-1120" font-family="Sans" font-size="10.00">issue</text>
<text text-anchor="middle" x="750" y="-1107" font-family="Sans" font-size="10.00">configuration-modules-core#1054</text>
</a>
</g>
<!-- configuration&#45;modules&#45;core#1162&#45;&gt;configuration&#45;modules&#45;core#1054 -->
<g id="edge18" class="edge"><title>configuration-modules-core#1162-&gt;configuration-modules-core#1054</title>
<path fill="none" stroke="black" stroke-width="2" d="M518.055,-1116C548.811,-1116 584.215,-1116 617.951,-1116"/>
<polygon fill="black" stroke="black" points="618.361,-1119.5 628.361,-1116 618.361,-1112.5 618.361,-1119.5"/>
<text text-anchor="middle" x="591" y="-1120" font-family="Sans" font-size="10.00">fixes</text>
</g>
<!-- configuration&#45;modules&#45;core#1159 -->
<g id="node26" class="node"><title>configuration-modules-core#1159</title>
<a xlink:href="https://github.com/quattor/configuration-modules-core/pull/1159" xlink:title="ncm-authconfig: Remove deprecated startstop property" target="_parent">
<polygon fill="#6e5494" stroke="black" points="518,-1025 346,-1025 346,-971 518,-971 518,-1025"/>
<text text-anchor="middle" x="432" y="-1002" font-family="Sans" font-size="10.00">pull-request</text>
<text text-anchor="middle" x="432" y="-989" font-family="Sans" font-size="10.00">configuration-modules-core#1159</text>
</a>
</g>
<!-- configuration&#45;modules&#45;core#1145 -->
<g id="node28" class="node"><title>configuration-modules-core#1145</title>
<a xlink:href="https://github.com/quattor/configuration-modules-core/issues/1145" xlink:title="ncm-authconfig: Remove startstop property" target="_parent">
<ellipse fill="#bd2c00" stroke="black" cx="750" cy="-1022" rx="121.122" ry="38.1838"/>
<text text-anchor="middle" x="750" y="-1026" font-family="Sans" font-size="10.00">issue</text>
<text text-anchor="middle" x="750" y="-1013" font-family="Sans" font-size="10.00">configuration-modules-core#1145</text>
</a>
</g>
<!-- configuration&#45;modules&#45;core#1159&#45;&gt;configuration&#45;modules&#45;core#1145 -->
<g id="edge20" class="edge"><title>configuration-modules-core#1159-&gt;configuration-modules-core#1145</title>
<path fill="none" stroke="black" stroke-width="2" d="M518.055,-1004.49C549.864,-1006.9 586.645,-1009.67 621.412,-1012.3"/>
<polygon fill="black" stroke="black" points="621.406,-1015.8 631.642,-1013.07 621.933,-1008.82 621.406,-1015.8"/>
<text text-anchor="middle" x="591" y="-1015" font-family="Sans" font-size="10.00">fixes</text>
</g>
<!-- configuration&#45;modules&#45;core#1143 -->
<g id="node30" class="node"><title>configuration-modules-core#1143</title>
<a xlink:href="https://github.com/quattor/configuration-modules-core/issues/1143" xlink:title="ncm-authconfig: What is startstop supposed to do?" target="_parent">
<ellipse fill="#bd2c00" stroke="black" cx="750" cy="-928" rx="121.122" ry="38.1838"/>
<text text-anchor="middle" x="750" y="-932" font-family="Sans" font-size="10.00">issue</text>
<text text-anchor="middle" x="750" y="-919" font-family="Sans" font-size="10.00">configuration-modules-core#1143</text>
</a>
</g>
<!-- configuration&#45;modules&#45;core#1159&#45;&gt;configuration&#45;modules&#45;core#1143 -->
<g id="edge22" class="edge"><title>configuration-modules-core#1159-&gt;configuration-modules-core#1143</title>
<path fill="none" stroke="black" stroke-width="2" d="M518.055,-979.057C555.78,-970.753 600.498,-960.909 640.554,-952.092"/>
<polygon fill="black" stroke="black" points="641.347,-955.501 650.361,-949.933 639.842,-948.665 641.347,-955.501"/>
<text text-anchor="middle" x="591" y="-970" font-family="Sans" font-size="10.00">fixes</text>
</g>
<!-- configuration&#45;modules&#45;core#1151 -->
<g id="node31" class="node"><title>configuration-modules-core#1151</title>
<a xlink:href="https://github.com/quattor/configuration-modules-core/pull/1151" xlink:title="Escape / unescape functions from CCM::Path" target="_parent">
<polygon fill="#6e5494" stroke="black" points="518,-944 346,-944 346,-890 518,-890 518,-944"/>
<text text-anchor="middle" x="432" y="-921" font-family="Sans" font-size="10.00">pull-request</text>
<text text-anchor="middle" x="432" y="-908" font-family="Sans" font-size="10.00">configuration-modules-core#1151</text>
</a>
</g>
<!-- configuration&#45;modules&#45;core#1083 -->
<g id="node33" class="node"><title>configuration-modules-core#1083</title>
<a xlink:href="https://github.com/quattor/configuration-modules-core/issues/1083" xlink:title="warnings due to deprecated CCM modules" target="_parent">
<ellipse fill="#bd2c00" stroke="black" cx="750" cy="-834" rx="121.122" ry="38.1838"/>
<text text-anchor="middle" x="750" y="-838" font-family="Sans" font-size="10.00">issue</text>
<text text-anchor="middle" x="750" y="-825" font-family="Sans" font-size="10.00">configuration-modules-core#1083</text>
</a>
</g>
<!-- configuration&#45;modules&#45;core#1151&#45;&gt;configuration&#45;modules&#45;core#1083 -->
<g id="edge24" class="edge"><title>configuration-modules-core#1151-&gt;configuration-modules-core#1083</title>
<path fill="none" stroke="black" stroke-width="2" d="M518.055,-894.539C557.732,-884.183 605.147,-871.808 646.736,-860.953"/>
<polygon fill="black" stroke="black" points="647.827,-864.285 656.619,-858.373 646.06,-857.512 647.827,-864.285"/>
<text text-anchor="middle" x="591" y="-882" font-family="Sans" font-size="10.00">fixes</text>
</g>
<!-- configuration&#45;modules&#45;core#1149 -->
<g id="node34" class="node"><title>configuration-modules-core#1149</title>
<a xlink:href="https://github.com/quattor/configuration-modules-core/pull/1149" xlink:title="ncm-metaconfig: rsyslog: rainer script configuration" target="_parent">
<polygon fill="#6e5494" stroke="black" points="204,-1798 32,-1798 32,-1744 204,-1744 204,-1798"/>
<text text-anchor="middle" x="118" y="-1775" font-family="Sans" font-size="10.00">pull-request</text>
<text text-anchor="middle" x="118" y="-1762" font-family="Sans" font-size="10.00">configuration-modules-core#1149</text>
</a>
</g>
<!-- configuration&#45;modules&#45;core#1126 -->
<g id="node36" class="node"><title>configuration-modules-core#1126</title>
<a xlink:href="https://github.com/quattor/configuration-modules-core/pull/1126" xlink:title="ncm-metaconfig: cleanup and switch to 00-tqu" target="_parent">
<polygon fill="#6e5494" stroke="black" points="518,-872 346,-872 346,-818 518,-818 518,-872"/>
<text text-anchor="middle" x="432" y="-849" font-family="Sans" font-size="10.00">pull-request</text>
<text text-anchor="middle" x="432" y="-836" font-family="Sans" font-size="10.00">configuration-modules-core#1126</text>
</a>
</g>
<!-- configuration&#45;modules&#45;core#1149&#45;&gt;configuration&#45;modules&#45;core#1126 -->
<g id="edge26" class="edge"><title>configuration-modules-core#1149-&gt;configuration-modules-core#1126</title>
<path fill="none" stroke="black" stroke-dasharray="5,2" d="M204.157,-1757.69C216.305,-1752.39 227.52,-1745.08 236,-1735 365.458,-1581.11 275.078,-1486.39 292,-1286 293.895,-1263.56 296.118,-898.735 310,-881 317.106,-871.921 326.388,-865.048 336.662,-859.859"/>
<polygon fill="none" stroke="black" points="338.218,-862.998 345.917,-855.719 335.36,-856.608 338.218,-862.998"/>
<text text-anchor="middle" x="273" y="-1712" font-family="Sans" font-size="10.00">requires</text>
</g>
<!-- configuration&#45;modules&#45;core#1136 -->
<g id="node37" class="node"><title>configuration-modules-core#1136</title>
<a xlink:href="https://github.com/quattor/configuration-modules-core/pull/1136" xlink:title="ncm-gmond: cleanup and support new configuration options" target="_parent">
<polygon fill="#6e5494" stroke="black" points="518,-767 346,-767 346,-713 518,-713 518,-767"/>
<text text-anchor="middle" x="432" y="-744" font-family="Sans" font-size="10.00">pull-request</text>
<text text-anchor="middle" x="432" y="-731" font-family="Sans" font-size="10.00">configuration-modules-core#1136</text>
</a>
</g>
<!-- configuration&#45;modules&#45;core#1116 -->
<g id="node39" class="node"><title>configuration-modules-core#1116</title>
<a xlink:href="https://github.com/quattor/configuration-modules-core/issues/1116" xlink:title="ncm-gmond: configuration options missing from schema" target="_parent">
<ellipse fill="#bd2c00" stroke="black" cx="750" cy="-740" rx="121.122" ry="38.1838"/>
<text text-anchor="middle" x="750" y="-744" font-family="Sans" font-size="10.00">issue</text>
<text text-anchor="middle" x="750" y="-731" font-family="Sans" font-size="10.00">configuration-modules-core#1116</text>
</a>
</g>
<!-- configuration&#45;modules&#45;core#1136&#45;&gt;configuration&#45;modules&#45;core#1116 -->
<g id="edge28" class="edge"><title>configuration-modules-core#1136-&gt;configuration-modules-core#1116</title>
<path fill="none" stroke="black" stroke-width="2" d="M518.055,-740C548.811,-740 584.215,-740 617.951,-740"/>
<polygon fill="black" stroke="black" points="618.361,-743.5 628.361,-740 618.361,-736.5 618.361,-743.5"/>
<text text-anchor="middle" x="591" y="-744" font-family="Sans" font-size="10.00">fixes</text>
</g>
<!-- configuration&#45;modules&#45;core#1132 -->
<g id="node40" class="node"><title>configuration-modules-core#1132</title>
<a xlink:href="https://github.com/quattor/configuration-modules-core/pull/1132" xlink:title="ncm-metaconfig: hnormalise" target="_parent">
<polygon fill="#6e5494" stroke="black" points="518,-286 346,-286 346,-232 518,-232 518,-286"/>
<text text-anchor="middle" x="432" y="-263" font-family="Sans" font-size="10.00">pull-request</text>
<text text-anchor="middle" x="432" y="-250" font-family="Sans" font-size="10.00">configuration-modules-core#1132</text>
</a>
</g>
<!-- configuration&#45;modules&#45;core#1028 -->
<g id="node42" class="node"><title>configuration-modules-core#1028</title>
<polygon fill="lightgrey" stroke="black" points="836,-40.5 664,-40.5 664,0.5 836,0.5 836,-40.5"/>
<text text-anchor="middle" x="750" y="-17.5" font-family="Sans" font-size="10.00">configuration-modules-core#1028</text>
</g>
<!-- configuration&#45;modules&#45;core#1132&#45;&gt;configuration&#45;modules&#45;core#1028 -->
<g id="edge30" class="edge"><title>configuration-modules-core#1132-&gt;configuration-modules-core#1028</title>
<path fill="none" stroke="black" stroke-dasharray="5,2" d="M518.01,-254.559C534.867,-249.664 550.777,-241.451 562,-228 588.377,-196.388 543.992,-73.1764 572,-43 592.663,-20.7369 623.399,-12.0938 653.541,-9.92609"/>
<polygon fill="none" stroke="black" points="653.907,-13.4125 663.725,-9.42889 653.566,-6.42079 653.907,-13.4125"/>
<text text-anchor="middle" x="591" y="-47" font-family="Sans" font-size="10.00">requires</text>
</g>
<!-- configuration&#45;modules&#45;core#1124 -->
<g id="node43" class="node"><title>configuration-modules-core#1124</title>
<a xlink:href="https://github.com/quattor/configuration-modules-core/pull/1124" xlink:title="ncm-cron: cleanup and switch to 00-tqu" target="_parent">
<polygon fill="#6e5494" stroke="black" points="518,-358 346,-358 346,-304 518,-304 518,-358"/>
<text text-anchor="middle" x="432" y="-335" font-family="Sans" font-size="10.00">pull-request</text>
<text text-anchor="middle" x="432" y="-322" font-family="Sans" font-size="10.00">configuration-modules-core#1124</text>
</a>
</g>
<!-- CAF#230 -->
<g id="node45" class="node"><title>CAF#230</title>
<polygon fill="lightgrey" stroke="black" points="785,-98.5 715,-98.5 715,-57.5 785,-57.5 785,-98.5"/>
<text text-anchor="middle" x="750" y="-75.5" font-family="Sans" font-size="10.00">CAF#230</text>
</g>
<!-- configuration&#45;modules&#45;core#1124&#45;&gt;CAF#230 -->
<g id="edge32" class="edge"><title>configuration-modules-core#1124-&gt;CAF#230</title>
<path fill="none" stroke="black" stroke-dasharray="5,2" d="M518.301,-323.159C535.142,-317.621 550.972,-308.821 562,-295 576.985,-276.22 554.67,-95.64 572,-79 606.627,-45.7529 664.768,-52.4851 705.139,-62.9202"/>
<polygon fill="none" stroke="black" points="704.425,-66.3536 714.995,-65.6309 706.281,-59.6042 704.425,-66.3536"/>
<text text-anchor="middle" x="591" y="-83" font-family="Sans" font-size="10.00">requires</text>
</g>
<!-- configuration&#45;modules&#45;core#1119 -->
<g id="node46" class="node"><title>configuration-modules-core#1119</title>
<a xlink:href="https://github.com/quattor/configuration-modules-core/pull/1119" xlink:title="ncm-systemd: cleanup, restarting modified unitfiles and initial handling of unconfigured units" target="_parent">
<polygon fill="#6cc644" stroke="black" points="204,-1870 32,-1870 32,-1816 204,-1816 204,-1870"/>
<text text-anchor="middle" x="118" y="-1847" font-family="Sans" font-size="10.00">pull-request</text>
<text text-anchor="middle" x="118" y="-1834" font-family="Sans" font-size="10.00">configuration-modules-core#1119</text>
</a>
</g>
<!-- configuration&#45;modules&#45;core#1095 -->
<g id="node48" class="node"><title>configuration-modules-core#1095</title>
<a xlink:href="https://github.com/quattor/configuration-modules-core/issues/1095" xlink:title="Manual intervention required in order for drop-in unit files to have any affect" target="_parent">
<ellipse fill="#6cc644" stroke="black" cx="432" cy="-1832" rx="121.122" ry="38.1838"/>
<text text-anchor="middle" x="432" y="-1836" font-family="Sans" font-size="10.00">issue</text>
<text text-anchor="middle" x="432" y="-1823" font-family="Sans" font-size="10.00">configuration-modules-core#1095</text>
</a>
</g>
<!-- configuration&#45;modules&#45;core#1119&#45;&gt;configuration&#45;modules&#45;core#1095 -->
<g id="edge34" class="edge"><title>configuration-modules-core#1119-&gt;configuration-modules-core#1095</title>
<path fill="none" stroke="black" stroke-width="2" d="M204.297,-1836.57C220.789,-1835.55 237.921,-1834.62 254,-1834 268.946,-1833.42 284.603,-1832.99 300.168,-1832.67"/>
<polygon fill="black" stroke="black" points="300.443,-1836.17 310.375,-1832.48 300.31,-1829.17 300.443,-1836.17"/>
<text text-anchor="middle" x="273" y="-1838" font-family="Sans" font-size="10.00">fixes</text>
</g>
<!-- configuration&#45;modules&#45;core#1087 -->
<g id="node49" class="node"><title>configuration-modules-core#1087</title>
<a xlink:href="https://github.com/quattor/configuration-modules-core/pull/1087" xlink:title="ncm-network: cleanup, fixes and new features" target="_parent">
<polygon fill="#6e5494" stroke="black" points="518,-430 346,-430 346,-376 518,-376 518,-430"/>
<text text-anchor="middle" x="432" y="-407" font-family="Sans" font-size="10.00">pull-request</text>
<text text-anchor="middle" x="432" y="-394" font-family="Sans" font-size="10.00">configuration-modules-core#1087</text>
</a>
</g>
<!-- configuration&#45;modules&#45;core#1087&#45;&gt;CAF#230 -->
<g id="edge46" class="edge"><title>configuration-modules-core#1087-&gt;CAF#230</title>
<path fill="none" stroke="black" stroke-dasharray="5,2" d="M518.283,-395.145C535.125,-389.607 550.96,-380.811 562,-367 576.447,-348.927 562.245,-179.981 572,-159 595.174,-109.159 660.222,-89.963 704.915,-82.5846"/>
<polygon fill="none" stroke="black" points="705.595,-86.0218 714.96,-81.0667 704.549,-79.1003 705.595,-86.0218"/>
<text text-anchor="middle" x="591" y="-163" font-family="Sans" font-size="10.00">requires</text>
</g>
<!-- configuration&#45;modules&#45;core#1082 -->
<g id="node51" class="node"><title>configuration-modules-core#1082</title>
<a xlink:href="https://github.com/quattor/configuration-modules-core/issues/1082" xlink:title="ncm-network: Allow extra routing options for the default route" target="_parent">
<ellipse fill="#bd2c00" stroke="black" cx="750" cy="-364" rx="121.122" ry="38.1838"/>
<text text-anchor="middle" x="750" y="-368" font-family="Sans" font-size="10.00">issue</text>
<text text-anchor="middle" x="750" y="-355" font-family="Sans" font-size="10.00">configuration-modules-core#1082</text>
</a>
</g>
<!-- configuration&#45;modules&#45;core#1087&#45;&gt;configuration&#45;modules&#45;core#1082 -->
<g id="edge36" class="edge"><title>configuration-modules-core#1087-&gt;configuration-modules-core#1082</title>
<path fill="none" stroke="black" stroke-width="2" d="M518.055,-392.446C551.43,-388.353 590.278,-383.589 626.53,-379.143"/>
<polygon fill="black" stroke="black" points="627.179,-382.589 636.679,-377.898 626.327,-375.641 627.179,-382.589"/>
<text text-anchor="middle" x="591" y="-389" font-family="Sans" font-size="10.00">fixes</text>
</g>
<!-- configuration&#45;modules&#45;core#870 -->
<g id="node53" class="node"><title>configuration-modules-core#870</title>
<a xlink:href="https://github.com/quattor/configuration-modules-core/issues/870" xlink:title="ncm-network: hostname is not set in el7" target="_parent">
<ellipse fill="#bd2c00" stroke="black" cx="750" cy="-458" rx="118.087" ry="38.1838"/>
<text text-anchor="middle" x="750" y="-462" font-family="Sans" font-size="10.00">issue</text>
<text text-anchor="middle" x="750" y="-449" font-family="Sans" font-size="10.00">configuration-modules-core#870</text>
</a>
</g>
<!-- configuration&#45;modules&#45;core#1087&#45;&gt;configuration&#45;modules&#45;core#870 -->
<g id="edge38" class="edge"><title>configuration-modules-core#1087-&gt;configuration-modules-core#870</title>
<path fill="none" stroke="black" stroke-width="2" d="M518.055,-417.884C554.274,-424.148 596.939,-431.527 635.737,-438.237"/>
<polygon fill="black" stroke="black" points="635.587,-441.764 646.037,-440.019 636.78,-434.866 635.587,-441.764"/>
<text text-anchor="middle" x="591" y="-437" font-family="Sans" font-size="10.00">fixes</text>
</g>
<!-- configuration&#45;modules&#45;core#1109 -->
<g id="node55" class="node"><title>configuration-modules-core#1109</title>
<a xlink:href="https://github.com/quattor/configuration-modules-core/issues/1109" xlink:title="ncm-network: systemd rpm scripts remove HOSTNAME from /etc/sysconfig/network" target="_parent">
<ellipse fill="#bd2c00" stroke="black" cx="750" cy="-270" rx="121.122" ry="38.1838"/>
<text text-anchor="middle" x="750" y="-274" font-family="Sans" font-size="10.00">issue</text>
<text text-anchor="middle" x="750" y="-261" font-family="Sans" font-size="10.00">configuration-modules-core#1109</text>
</a>
</g>
<!-- configuration&#45;modules&#45;core#1087&#45;&gt;configuration&#45;modules&#45;core#1109 -->
<g id="edge40" class="edge"><title>configuration-modules-core#1087-&gt;configuration-modules-core#1109</title>
<path fill="none" stroke="black" stroke-width="2" d="M518.326,-384.052C533.258,-379.389 548.355,-373.748 562,-367 594.987,-350.687 595.847,-334.902 628,-317 637.663,-311.62 648.068,-306.585 658.581,-301.959"/>
<polygon fill="black" stroke="black" points="660.016,-305.152 667.833,-298.001 657.262,-298.717 660.016,-305.152"/>
<text text-anchor="middle" x="591" y="-366" font-family="Sans" font-size="10.00">fixes</text>
</g>
<!-- configuration&#45;modules&#45;core#1085 -->
<g id="node57" class="node"><title>configuration-modules-core#1085</title>
<polygon fill="lightgrey" stroke="black" points="836,-214.5 664,-214.5 664,-173.5 836,-173.5 836,-214.5"/>
<text text-anchor="middle" x="750" y="-191.5" font-family="Sans" font-size="10.00">configuration-modules-core#1085</text>
</g>
<!-- configuration&#45;modules&#45;core#1087&#45;&gt;configuration&#45;modules&#45;core#1085 -->
<g id="edge42" class="edge"><title>configuration-modules-core#1087-&gt;configuration-modules-core#1085</title>
<path fill="none" stroke="black" stroke-dasharray="1,5" d="M518.273,-393.545C534.702,-388.06 550.37,-379.689 562,-367 578.492,-349.006 563.343,-335.821 572,-313 589.112,-267.888 588.714,-248.01 628,-220 636.001,-214.295 644.999,-209.796 654.388,-206.254"/>
<polygon fill="black" stroke="black" points="663.886,-203.022 655.868,-210.504 659.152,-204.633 654.419,-206.244 654.419,-206.244 654.419,-206.244 659.152,-204.633 652.969,-201.984 663.886,-203.022 663.886,-203.022"/>
<text text-anchor="middle" x="591" y="-317" font-family="Sans" font-size="10.00">replaces</text>
</g>
<!-- configuration&#45;modules&#45;core#1070 -->
<g id="node59" class="node"><title>configuration-modules-core#1070</title>
<polygon fill="lightgrey" stroke="black" points="836,-156.5 664,-156.5 664,-115.5 836,-115.5 836,-156.5"/>
<text text-anchor="middle" x="750" y="-133.5" font-family="Sans" font-size="10.00">configuration-modules-core#1070</text>
</g>
<!-- configuration&#45;modules&#45;core#1087&#45;&gt;configuration&#45;modules&#45;core#1070 -->
<g id="edge44" class="edge"><title>configuration-modules-core#1087-&gt;configuration-modules-core#1070</title>
<path fill="none" stroke="black" stroke-dasharray="1,5" d="M518.079,-394.98C534.932,-389.451 550.823,-380.701 562,-367 582.697,-341.629 558.316,-249.746 572,-220 586.58,-188.307 597.467,-181.874 628,-165 636.202,-160.467 645.096,-156.638 654.216,-153.406"/>
<polygon fill="black" stroke="black" points="663.783,-150.248 655.697,-157.655 659.035,-151.815 654.287,-153.382 654.287,-153.382 654.287,-153.382 659.035,-151.815 652.876,-149.109 663.783,-150.248 663.783,-150.248"/>
<text text-anchor="middle" x="591" y="-224" font-family="Sans" font-size="10.00">replaces</text>
</g>
<!-- configuration&#45;modules&#45;core#1058 -->
<g id="node61" class="node"><title>configuration-modules-core#1058</title>
<a xlink:href="https://github.com/quattor/configuration-modules-core/pull/1058" xlink:title="ncm-ssh: disable insecure ssh ciphersuites and macs" target="_parent">
<polygon fill="#6cc644" stroke="black" points="204,-1726 32,-1726 32,-1672 204,-1672 204,-1726"/>
<text text-anchor="middle" x="118" y="-1703" font-family="Sans" font-size="10.00">pull-request</text>
<text text-anchor="middle" x="118" y="-1690" font-family="Sans" font-size="10.00">configuration-modules-core#1058</text>
</a>
</g>
<!-- configuration&#45;modules&#45;core#983 -->
<g id="node63" class="node"><title>configuration-modules-core#983</title>
<polygon fill="lightgrey" stroke="black" points="515,-214.5 349,-214.5 349,-173.5 515,-173.5 515,-214.5"/>
<text text-anchor="middle" x="432" y="-191.5" font-family="Sans" font-size="10.00">configuration-modules-core#983</text>
</g>
<!-- configuration&#45;modules&#45;core#1058&#45;&gt;configuration&#45;modules&#45;core#983 -->
<g id="edge48" class="edge"><title>configuration-modules-core#1058-&gt;configuration-modules-core#983</title>
<path fill="none" stroke="black" stroke-dasharray="1,5" d="M119.658,-1671.82C131.61,-1479.75 207.092,-331.587 310,-220 317.892,-211.442 327.849,-205.332 338.655,-201.019"/>
<polygon fill="black" stroke="black" points="348.34,-197.675 340.356,-205.193 343.614,-199.307 338.887,-200.939 338.887,-200.939 338.887,-200.939 343.614,-199.307 337.419,-196.685 348.34,-197.675 348.34,-197.675"/>
<text text-anchor="middle" x="273" y="-367" font-family="Sans" font-size="10.00">replaces</text>
</g>
<!-- configuration&#45;modules&#45;core#1182 -->
<g id="node64" class="node"><title>configuration-modules-core#1182</title>
<a xlink:href="https://github.com/quattor/configuration-modules-core/pull/1182" xlink:title="ncm-opennebula: Include 5.4.x configuration" target="_parent">
<polygon fill="#6cc644" stroke="black" points="204,-2210 32,-2210 32,-2156 204,-2156 204,-2210"/>
<text text-anchor="middle" x="118" y="-2187" font-family="Sans" font-size="10.00">pull-request</text>
<text text-anchor="middle" x="118" y="-2174" font-family="Sans" font-size="10.00">configuration-modules-core#1182</text>
</a>
</g>
<!-- configuration&#45;modules&#45;core#1139 -->
<g id="node66" class="node"><title>configuration-modules-core#1139</title>
<a xlink:href="https://github.com/quattor/configuration-modules-core/pull/1139" xlink:title="ncm-opennebula: include hugepages options" target="_parent">
<polygon fill="#6cc644" stroke="black" points="518,-2210 346,-2210 346,-2156 518,-2156 518,-2210"/>
<text text-anchor="middle" x="432" y="-2187" font-family="Sans" font-size="10.00">pull-request</text>
<text text-anchor="middle" x="432" y="-2174" font-family="Sans" font-size="10.00">configuration-modules-core#1139</text>
</a>
</g>
<!-- configuration&#45;modules&#45;core#1182&#45;&gt;configuration&#45;modules&#45;core#1139 -->
<g id="edge50" class="edge"><title>configuration-modules-core#1182-&gt;configuration-modules-core#1139</title>
<path fill="none" stroke="black" stroke-dasharray="5,2" d="M204.217,-2183C244.975,-2183 293.781,-2183 335.743,-2183"/>
<polygon fill="none" stroke="black" points="335.975,-2186.5 345.975,-2183 335.975,-2179.5 335.975,-2186.5"/>
<text text-anchor="middle" x="273" y="-2187" font-family="Sans" font-size="10.00">requires</text>
</g>
<!-- configuration&#45;modules&#45;core#1171 -->
<g id="node67" class="node"><title>configuration-modules-core#1171</title>
<a xlink:href="https://github.com/quattor/configuration-modules-core/pull/1171" xlink:title="[WIP] ncm-cups enhancements and cleanups" target="_parent">
<polygon fill="#6cc644" stroke="black" points="204,-2293 32,-2293 32,-2239 204,-2239 204,-2293"/>
<text text-anchor="middle" x="118" y="-2270" font-family="Sans" font-size="10.00">pull-request</text>
<text text-anchor="middle" x="118" y="-2257" font-family="Sans" font-size="10.00">configuration-modules-core#1171</text>
</a>
</g>
<!-- configuration&#45;modules&#45;core#1164 -->
<g id="node69" class="node"><title>configuration-modules-core#1164</title>
<a xlink:href="https://github.com/quattor/configuration-modules-core/issues/1164" xlink:title="ncm-cups 17.7.0: configuration of ServerAlias + miscellanous enhancements" target="_parent">
<ellipse fill="#6cc644" stroke="black" cx="432" cy="-2266" rx="121.122" ry="38.1838"/>
<text text-anchor="middle" x="432" y="-2270" font-family="Sans" font-size="10.00">issue</text>
<text text-anchor="middle" x="432" y="-2257" font-family="Sans" font-size="10.00">configuration-modules-core#1164</text>
</a>
</g>
<!-- configuration&#45;modules&#45;core#1171&#45;&gt;configuration&#45;modules&#45;core#1164 -->
<g id="edge52" class="edge"><title>configuration-modules-core#1171-&gt;configuration-modules-core#1164</title>
<path fill="none" stroke="black" stroke-width="2" d="M204.217,-2266C233.916,-2266 267.888,-2266 300.372,-2266"/>
<polygon fill="black" stroke="black" points="300.399,-2269.5 310.399,-2266 300.399,-2262.5 300.399,-2269.5"/>
<text text-anchor="middle" x="273" y="-2270" font-family="Sans" font-size="10.00">fixes</text>
</g>
<!-- configuration&#45;modules&#45;core#1148 -->
<g id="node70" class="node"><title>configuration-modules-core#1148</title>
<a xlink:href="https://github.com/quattor/configuration-modules-core/pull/1148" xlink:title="ncm-spma: Remove support from groups from spma yumng backend" target="_parent">
<polygon fill="#6cc644" stroke="black" points="204,-2481 32,-2481 32,-2427 204,-2427 204,-2481"/>
<text text-anchor="middle" x="118" y="-2458" font-family="Sans" font-size="10.00">pull-request</text>
<text text-anchor="middle" x="118" y="-2445" font-family="Sans" font-size="10.00">configuration-modules-core#1148</text>
</a>
</g>
<!-- configuration&#45;modules&#45;core#952 -->
<g id="node72" class="node"><title>configuration-modules-core#952</title>
<a xlink:href="https://github.com/quattor/configuration-modules-core/issues/952" xlink:title="ncm-spma (yumng): Remove support for package groups" target="_parent">
<ellipse fill="#6cc644" stroke="black" cx="432" cy="-2454" rx="118.087" ry="38.1838"/>
<text text-anchor="middle" x="432" y="-2458" font-family="Sans" font-size="10.00">issue</text>
<text text-anchor="middle" x="432" y="-2445" font-family="Sans" font-size="10.00">configuration-modules-core#952</text>
</a>
</g>
<!-- configuration&#45;modules&#45;core#1148&#45;&gt;configuration&#45;modules&#45;core#952 -->
<g id="edge54" class="edge"><title>configuration-modules-core#1148-&gt;configuration-modules-core#952</title>
<path fill="none" stroke="black" stroke-width="2" d="M204.217,-2454C234.903,-2454 270.151,-2454 303.606,-2454"/>
<polygon fill="black" stroke="black" points="303.924,-2457.5 313.924,-2454 303.924,-2450.5 303.924,-2457.5"/>
<text text-anchor="middle" x="273" y="-2458" font-family="Sans" font-size="10.00">fixes</text>
</g>
<!-- configuration&#45;modules&#45;core#950 -->
<g id="node73" class="node"><title>configuration-modules-core#950</title>
<a xlink:href="https://github.com/quattor/configuration-modules-core/issues/950" xlink:title="ncm-spma: Remove support for package groups from yum backends" target="_parent">
<ellipse fill="#6cc644" stroke="black" cx="118" cy="-2365" rx="118.087" ry="38.1838"/>
<text text-anchor="middle" x="118" y="-2369" font-family="Sans" font-size="10.00">issue</text>
<text text-anchor="middle" x="118" y="-2356" font-family="Sans" font-size="10.00">configuration-modules-core#950</text>
</a>
</g>
<!-- configuration&#45;modules&#45;core#950&#45;&gt;configuration&#45;modules&#45;core#952 -->
<g id="edge58" class="edge"><title>configuration-modules-core#950-&gt;configuration-modules-core#952</title>
<path fill="none" stroke="black" stroke-dasharray="5,2" d="M206.721,-2390.15C246.26,-2401.35 292.974,-2414.59 333.584,-2426.11"/>
<polygon fill="none" stroke="black" points="332.651,-2429.48 343.226,-2428.84 334.56,-2422.74 332.651,-2429.48"/>
<text text-anchor="middle" x="273" y="-2416" font-family="Sans" font-size="10.00">requires</text>
</g>
<!-- configuration&#45;modules&#45;core#951 -->
<g id="node75" class="node"><title>configuration-modules-core#951</title>
<a xlink:href="https://github.com/quattor/configuration-modules-core/issues/951" xlink:title="ncm-spma (yum): Remove support for package groups" target="_parent">
<ellipse fill="#6cc644" stroke="black" cx="432" cy="-2360" rx="118.087" ry="38.1838"/>
<text text-anchor="middle" x="432" y="-2364" font-family="Sans" font-size="10.00">issue</text>
<text text-anchor="middle" x="432" y="-2351" font-family="Sans" font-size="10.00">configuration-modules-core#951</text>
</a>
</g>
<!-- configuration&#45;modules&#45;core#950&#45;&gt;configuration&#45;modules&#45;core#951 -->
<g id="edge56" class="edge"><title>configuration-modules-core#950-&gt;configuration-modules-core#951</title>
<path fill="none" stroke="black" stroke-dasharray="5,2" d="M236.263,-2363.12C258.348,-2362.77 281.525,-2362.4 303.892,-2362.04"/>
<polygon fill="none" stroke="black" points="304.162,-2365.54 314.105,-2361.88 304.05,-2358.54 304.162,-2365.54"/>
<text text-anchor="middle" x="273" y="-2366" font-family="Sans" font-size="10.00">requires</text>
</g>
<!-- template&#45;library&#45;grid#200 -->
<g id="node77" class="node"><title>template-library-grid#200</title>
<a xlink:href="https://github.com/quattor/template-library-grid/pull/200" xlink:title="Allow location of CREAM monitoring configuration file to be changed" target="_parent">
<polygon fill="#6e5494" stroke="black" points="499,-673 365,-673 365,-619 499,-619 499,-673"/>
<text text-anchor="middle" x="432" y="-650" font-family="Sans" font-size="10.00">pull-request</text>
<text text-anchor="middle" x="432" y="-637" font-family="Sans" font-size="10.00">template-library-grid#200</text>
</a>
</g>
<!-- template&#45;library&#45;grid#199 -->
<g id="node79" class="node"><title>template-library-grid#199</title>
<a xlink:href="https://github.com/quattor/template-library-grid/issues/199" xlink:title="template personality/cream_ce/templates/cream-config.templ" target="_parent">
<ellipse fill="#bd2c00" stroke="black" cx="750" cy="-646" rx="94.9596" ry="38.1838"/>
<text text-anchor="middle" x="750" y="-650" font-family="Sans" font-size="10.00">issue</text>
<text text-anchor="middle" x="750" y="-637" font-family="Sans" font-size="10.00">template-library-grid#199</text>
</a>
</g>
<!-- template&#45;library&#45;grid#200&#45;&gt;template&#45;library&#45;grid#199 -->
<g id="edge60" class="edge"><title>template-library-grid#200-&gt;template-library-grid#199</title>
<path fill="none" stroke="black" stroke-width="2" d="M499.829,-646C541.807,-646 596.59,-646 644.187,-646"/>
<polygon fill="black" stroke="black" points="644.227,-649.5 654.227,-646 644.227,-642.5 644.227,-649.5"/>
<text text-anchor="middle" x="591" y="-650" font-family="Sans" font-size="10.00">fixes</text>
</g>
<!-- template&#45;library&#45;standard#104 -->
<g id="node80" class="node"><title>template-library-standard#104</title>
<a xlink:href="https://github.com/quattor/template-library-standard/pull/104" xlink:title="Add CPUs used in Mellanox SN2100 and SN2700 switches" target="_parent">
<polygon fill="#6e5494" stroke="black" points="510,-579 354,-579 354,-525 510,-525 510,-579"/>
<text text-anchor="middle" x="432" y="-556" font-family="Sans" font-size="10.00">pull-request</text>
<text text-anchor="middle" x="432" y="-543" font-family="Sans" font-size="10.00">template-library-standard#104</text>
</a>
</g>
<!-- template&#45;library&#45;standard#103 -->
<g id="node82" class="node"><title>template-library-standard#103</title>
<a xlink:href="https://github.com/quattor/template-library-standard/issues/103" xlink:title="hardware/cpu/intel add embedded cpus" target="_parent">
<ellipse fill="#bd2c00" stroke="black" cx="750" cy="-552" rx="111.016" ry="38.1838"/>
<text text-anchor="middle" x="750" y="-556" font-family="Sans" font-size="10.00">issue</text>
<text text-anchor="middle" x="750" y="-543" font-family="Sans" font-size="10.00">template-library-standard#103</text>
</a>
</g>
<!-- template&#45;library&#45;standard#104&#45;&gt;template&#45;library&#45;standard#103 -->
<g id="edge62" class="edge"><title>template-library-standard#104-&gt;template-library-standard#103</title>
<path fill="none" stroke="black" stroke-width="2" d="M510.607,-552C546.138,-552 588.937,-552 628.462,-552"/>
<polygon fill="black" stroke="black" points="628.702,-555.5 638.702,-552 628.702,-548.5 628.702,-555.5"/>
<text text-anchor="middle" x="591" y="-556" font-family="Sans" font-size="10.00">fixes</text>
</g>
</g>
</svg>
