<?xml version="1.0" encoding="UTF-8" standalone="no"?>
<?xml-stylesheet href="relationships.css" type="text/css"?>
<!-- Generated by graphviz version 2.26.0 (20091210.2329)
 -->
<!-- Title: Dependencies Pages: 1 -->
<svg xmlns="http://www.w3.org/2000/svg" xmlns:xlink="http://www.w3.org/1999/xlink" width="578pt" height="1191pt" viewBox="0.00 0.00 578.00 1191.00">
<g id="graph1" class="graph" transform="scale(1 1) rotate(0) translate(4 1187)">
<title>Dependencies</title>
<polygon fill="white" stroke="white" points="-4,5 -4,-1187 575,-1187 575,5 -4,5"/>
<g id="graph3" class="cluster"><title>cluster_18.3</title>
<polygon fill="none" stroke="black" points="24,-108 24,-838 562,-838 562,-108 24,-108"/>
<text text-anchor="middle" x="293" y="-823.2" font-family="Sans" font-size="12.00">18.3</text>
</g>
<!-- aii#210 -->
<g id="node1" class="node"><title>aii#210</title>
<a xlink:href="https://github.com/quattor/aii/pull/210" xlink:title="Shellfe: support active config for plugins" target="_parent">
<polygon fill="#6cc644" stroke="black" points="157,-723 79,-723 79,-669 157,-669 157,-723"/>
<text text-anchor="middle" x="118" y="-700" font-family="Sans" font-size="10.00">pull-request</text>
<text text-anchor="middle" x="118" y="-687" font-family="Sans" font-size="10.00">aii#210</text>
</a>
</g>
<!-- aii#209 -->
<g id="node3" class="node"><title>aii#209</title>
<a xlink:href="https://github.com/quattor/aii/issues/209" xlink:title="support ACTIVE_CONFIG" target="_parent">
<ellipse fill="#6cc644" stroke="black" cx="432" cy="-696" rx="41.2167" ry="38.1838"/>
<text text-anchor="middle" x="432" y="-700" font-family="Sans" font-size="10.00">issue</text>
<text text-anchor="middle" x="432" y="-687" font-family="Sans" font-size="10.00">aii#209</text>
</a>
</g>
<!-- aii#210&#45;&gt;aii#209 -->
<g id="edge2" class="edge"><title>aii#210-&gt;aii#209</title>
<path fill="none" stroke="black" stroke-width="2" d="M157.768,-696C214.279,-696 317.868,-696 380.284,-696"/>
<polygon fill="black" stroke="black" points="380.31,-699.5 390.31,-696 380.31,-692.5 380.31,-699.5"/>
<text text-anchor="middle" x="273" y="-700" font-family="Sans" font-size="10.00">fixes</text>
</g>
<!-- ncm&#45;ncd#74 -->
<g id="node5" class="node"><title>ncm-ncd#74</title>
<a xlink:href="https://github.com/quattor/ncm-ncd/pull/74" xlink:title="Set the current active config as an attribute to the component" target="_parent">
<polygon fill="#6cc644" stroke="black" points="473,-806 391,-806 391,-752 473,-752 473,-806"/>
<text text-anchor="middle" x="432" y="-783" font-family="Sans" font-size="10.00">pull-request</text>
<text text-anchor="middle" x="432" y="-770" font-family="Sans" font-size="10.00">ncm-ncd#74</text>
</a>
</g>
<!-- aii#210&#45;&gt;ncm&#45;ncd#74 -->
<g id="edge4" class="edge"><title>aii#210-&gt;ncm-ncd#74</title>
<path fill="none" stroke="black" stroke-dasharray="5,2" d="M157.609,-706.38C180.517,-712.39 209.889,-720.106 236,-727 285.266,-740.007 341.475,-754.927 381.028,-765.441"/>
<polygon fill="none" stroke="black" points="380.148,-768.828 390.711,-768.015 381.946,-762.063 380.148,-768.828"/>
<text text-anchor="middle" x="273" y="-746" font-family="Sans" font-size="10.00">requires</text>
</g>
<!-- aii#203 -->
<g id="node7" class="node"><title>aii#203</title>
<polygon fill="lightgrey" stroke="black" points="461,-98.5 403,-98.5 403,-57.5 461,-57.5 461,-98.5"/>
<text text-anchor="middle" x="432" y="-75.5" font-family="Sans" font-size="10.00">aii#203</text>
</g>
<!-- aii#210&#45;&gt;aii#203 -->
<g id="edge6" class="edge"><title>aii#210-&gt;aii#203</title>
<path fill="none" stroke="black" stroke-dasharray="5,2" d="M157.573,-690.028C184.482,-683.715 218.296,-670.88 236,-645 266.447,-600.492 232.443,-209.43 254,-160 268.071,-127.737 279.072,-120.803 310,-104 335.309,-90.2498 367.249,-83.7691 392.1,-80.7159"/>
<polygon fill="none" stroke="black" points="392.715,-84.1697 402.276,-79.606 391.956,-77.211 392.715,-84.1697"/>
<text text-anchor="middle" x="273" y="-164" font-family="Sans" font-size="10.00">requires</text>
</g>
<!-- CAF#257 -->
<g id="node8" class="node"><title>CAF#257</title>
<a xlink:href="https://github.com/quattor/CAF/pull/257" xlink:title="Process: run process as another user" target="_parent">
<polygon fill="#6cc644" stroke="black" points="157,-636 79,-636 79,-582 157,-582 157,-636"/>
<text text-anchor="middle" x="118" y="-613" font-family="Sans" font-size="10.00">pull-request</text>
<text text-anchor="middle" x="118" y="-600" font-family="Sans" font-size="10.00">CAF#257</text>
</a>
</g>
<!-- CAF#253 -->
<g id="node10" class="node"><title>CAF#253</title>
<a xlink:href="https://github.com/quattor/CAF/issues/253" xlink:title="CAF::Process: Include an option to execute the command as an specific user" target="_parent">
<ellipse fill="#6cc644" stroke="black" cx="432" cy="-602" rx="48.9975" ry="38.1838"/>
<text text-anchor="middle" x="432" y="-606" font-family="Sans" font-size="10.00">issue</text>
<text text-anchor="middle" x="432" y="-593" font-family="Sans" font-size="10.00">CAF#253</text>
</a>
</g>
<!-- CAF#257&#45;&gt;CAF#253 -->
<g id="edge8" class="edge"><title>CAF#257-&gt;CAF#253</title>
<path fill="none" stroke="black" stroke-width="2" d="M157.749,-602.708C184.802,-598.752 221.464,-594.026 254,-592 293.644,-589.532 338.272,-592.051 372.925,-595.178"/>
<polygon fill="black" stroke="black" points="372.597,-598.662 382.881,-596.117 373.254,-591.693 372.597,-598.662"/>
<text text-anchor="middle" x="273" y="-596" font-family="Sans" font-size="10.00">fixes</text>
</g>
<!-- CAF#257&#45;&gt;CAF#253 -->
<g id="edge10" class="edge"><title>CAF#257-&gt;CAF#253</title>
<path fill="none" stroke="black" stroke-width="2" d="M157.768,-608.113C211.934,-606.906 309.353,-604.734 372.308,-603.331"/>
<polygon fill="black" stroke="black" points="372.569,-606.826 382.488,-603.104 372.412,-599.828 372.569,-606.826"/>
<text text-anchor="middle" x="273" y="-610" font-family="Sans" font-size="10.00">fixes</text>
</g>
<!-- CAF#110 -->
<g id="node12" class="node"><title>CAF#110</title>
<a xlink:href="https://github.com/quattor/CAF/pull/110" xlink:title="Download: API proposal" target="_parent">
<polygon fill="#6cc644" stroke="black" points="157,-900 79,-900 79,-846 157,-846 157,-900"/>
<text text-anchor="middle" x="118" y="-877" font-family="Sans" font-size="10.00">pull-request</text>
<text text-anchor="middle" x="118" y="-864" font-family="Sans" font-size="10.00">CAF#110</text>
</a>
</g>
<!-- CAF#120 -->
<g id="node14" class="node"><title>CAF#120</title>
<polygon fill="lightgrey" stroke="black" points="467,-893.5 397,-893.5 397,-852.5 467,-852.5 467,-893.5"/>
<text text-anchor="middle" x="432" y="-870.5" font-family="Sans" font-size="10.00">CAF#120</text>
</g>
<!-- CAF#110&#45;&gt;CAF#120 -->
<g id="edge12" class="edge"><title>CAF#110-&gt;CAF#120</title>
<path fill="none" stroke="black" stroke-dasharray="5,2" d="M157.768,-873C216.269,-873 325.221,-873 386.719,-873"/>
<polygon fill="none" stroke="black" points="386.897,-876.5 396.897,-873 386.897,-869.5 386.897,-876.5"/>
<text text-anchor="middle" x="273" y="-877" font-family="Sans" font-size="10.00">requires</text>
</g>
<!-- configuration&#45;modules&#45;core#1230 -->
<g id="node15" class="node"><title>configuration-modules-core#1230</title>
<a xlink:href="https://github.com/quattor/configuration-modules-core/pull/1230" xlink:title="ncm-ceph: support for luminous, bluestore, ceph-volume and per host osd deployment" target="_parent">
<polygon fill="#6cc644" stroke="black" points="204,-170 32,-170 32,-116 204,-116 204,-170"/>
<text text-anchor="middle" x="118" y="-147" font-family="Sans" font-size="10.00">pull-request</text>
<text text-anchor="middle" x="118" y="-134" font-family="Sans" font-size="10.00">configuration-modules-core#1230</text>
</a>
</g>
<!-- configuration&#45;modules&#45;core#1224 -->
<g id="node17" class="node"><title>configuration-modules-core#1224</title>
<polygon fill="lightgrey" stroke="black" points="518,-40.5 346,-40.5 346,0.5 518,0.5 518,-40.5"/>
<text text-anchor="middle" x="432" y="-17.5" font-family="Sans" font-size="10.00">configuration-modules-core#1224</text>
</g>
<!-- configuration&#45;modules&#45;core#1230&#45;&gt;configuration&#45;modules&#45;core#1224 -->
<g id="edge34" class="edge"><title>configuration-modules-core#1230-&gt;configuration-modules-core#1224</title>
<path fill="none" stroke="black" stroke-dasharray="1,5" d="M138.827,-115.951C162.941,-87.0328 205.603,-42.8077 254,-24 279.42,-14.1215 308.461,-10.577 335.608,-10.174"/>
<polygon fill="black" stroke="black" points="345.908,-10.1666 335.911,-14.6738 340.908,-10.1702 335.908,-10.1738 335.908,-10.1738 335.908,-10.1738 340.908,-10.1702 335.904,-5.67384 345.908,-10.1666 345.908,-10.1666"/>
<text text-anchor="middle" x="273" y="-28" font-family="Sans" font-size="10.00">replaces</text>
</g>
<!-- configuration&#45;modules&#45;core#1230&#45;&gt;configuration&#45;modules&#45;core#1224 -->
<g id="edge14" class="edge"><title>configuration-modules-core#1230-&gt;configuration-modules-core#1224</title>
<path fill="none" stroke="black" stroke-dasharray="1,5" d="M191.832,-115.938C231.215,-100.74 274.989,-82.3951 292,-70 301.935,-62.7607 299.506,-55.4019 310,-49 318.138,-44.0352 327.062,-39.9204 336.264,-36.5101"/>
<polygon fill="black" stroke="black" points="345.934,-33.205 337.927,-40.6976 341.203,-34.8222 336.471,-36.4394 336.471,-36.4394 336.471,-36.4394 341.203,-34.8222 335.016,-32.1813 345.934,-33.205 345.934,-33.205"/>
<text text-anchor="middle" x="273" y="-93" font-family="Sans" font-size="10.00">replaces</text>
</g>
<!-- configuration&#45;modules&#45;core#1230&#45;&gt;configuration&#45;modules&#45;core#1224 -->
<g id="edge18" class="edge"><title>configuration-modules-core#1230-&gt;configuration-modules-core#1224</title>
<path fill="none" stroke="black" stroke-dasharray="1,5" d="M150.792,-115.796C177.094,-95.3946 215.804,-68.4315 254,-53 279.694,-42.6194 308.805,-35.4747 335.93,-30.5683"/>
<polygon fill="black" stroke="black" points="345.824,-28.8601 336.735,-34.996 340.896,-29.7109 335.969,-30.5616 335.969,-30.5616 335.969,-30.5616 340.896,-29.7109 335.204,-26.1272 345.824,-28.8601 345.824,-28.8601"/>
<text text-anchor="middle" x="273" y="-57" font-family="Sans" font-size="10.00">replaces</text>
</g>
<!-- configuration&#45;modules&#45;core#1220 -->
<g id="node18" class="node"><title>configuration-modules-core#1220</title>
<a xlink:href="https://github.com/quattor/configuration-modules-core/pull/1220" xlink:title="ncm-cups: Stop daemon if server not enabled" target="_parent">
<polygon fill="#6cc644" stroke="black" points="204,-535 32,-535 32,-481 204,-481 204,-535"/>
<text text-anchor="middle" x="118" y="-512" font-family="Sans" font-size="10.00">pull-request</text>
<text text-anchor="middle" x="118" y="-499" font-family="Sans" font-size="10.00">configuration-modules-core#1220</text>
</a>
</g>
<!-- configuration&#45;modules&#45;core#1189 -->
<g id="node20" class="node"><title>configuration-modules-core#1189</title>
<a xlink:href="https://github.com/quattor/configuration-modules-core/issues/1189" xlink:title="ncm-cups: Nodetype of client should stop running cups daemon" target="_parent">
<ellipse fill="#6cc644" stroke="black" cx="432" cy="-508" rx="121.122" ry="38.1838"/>
<text text-anchor="middle" x="432" y="-512" font-family="Sans" font-size="10.00">issue</text>
<text text-anchor="middle" x="432" y="-499" font-family="Sans" font-size="10.00">configuration-modules-core#1189</text>
</a>
</g>
<!-- configuration&#45;modules&#45;core#1220&#45;&gt;configuration&#45;modules&#45;core#1189 -->
<g id="edge36" class="edge"><title>configuration-modules-core#1220-&gt;configuration-modules-core#1189</title>
<path fill="none" stroke="black" stroke-width="2" d="M204.182,-495.588C220.685,-493.676 237.851,-492.005 254,-491 272.601,-489.842 292.267,-490.162 311.475,-491.331"/>
<polygon fill="black" stroke="black" points="311.254,-494.824 321.47,-492.016 311.733,-487.84 311.254,-494.824"/>
<text text-anchor="middle" x="273" y="-495" font-family="Sans" font-size="10.00">fixes</text>
</g>
<!-- configuration&#45;modules&#45;core#1220&#45;&gt;configuration&#45;modules&#45;core#1189 -->
<g id="edge16" class="edge"><title>configuration-modules-core#1220-&gt;configuration-modules-core#1189</title>
<path fill="none" stroke="black" stroke-width="2" d="M204.217,-508C233.916,-508 267.888,-508 300.372,-508"/>
<polygon fill="black" stroke="black" points="300.399,-511.5 310.399,-508 300.399,-504.5 300.399,-511.5"/>
<text text-anchor="middle" x="273" y="-512" font-family="Sans" font-size="10.00">fixes</text>
</g>
<!-- configuration&#45;modules&#45;core#1220&#45;&gt;configuration&#45;modules&#45;core#1189 -->
<g id="edge20" class="edge"><title>configuration-modules-core#1220-&gt;configuration-modules-core#1189</title>
<path fill="none" stroke="black" stroke-width="2" d="M204.231,-518.223C220.729,-519.797 237.881,-521.173 254,-522 271.501,-522.898 289.952,-522.717 308.081,-521.89"/>
<polygon fill="black" stroke="black" points="308.307,-525.383 318.111,-521.366 307.942,-518.392 308.307,-525.383"/>
<text text-anchor="middle" x="273" y="-527" font-family="Sans" font-size="10.00">fixes</text>
</g>
<!-- configuration&#45;modules&#45;core#1105 -->
<g id="node23" class="node"><title>configuration-modules-core#1105</title>
<a xlink:href="https://github.com/quattor/configuration-modules-core/pull/1105" xlink:title="ncm-authconfig: fix krb5_realm, user_object_class and newline between ldap_krb5_canonicalize and ldap_krb5_realm" target="_parent">
<polygon fill="#6cc644" stroke="black" points="204,-346 32,-346 32,-292 204,-292 204,-346"/>
<text text-anchor="middle" x="118" y="-323" font-family="Sans" font-size="10.00">pull-request</text>
<text text-anchor="middle" x="118" y="-310" font-family="Sans" font-size="10.00">configuration-modules-core#1105</text>
</a>
</g>
<!-- configuration&#45;modules&#45;core#1100 -->
<g id="node25" class="node"><title>configuration-modules-core#1100</title>
<a xlink:href="https://github.com/quattor/configuration-modules-core/issues/1100" xlink:title="ncm-authconfig : no newline after krb5_canonicalize option" target="_parent">
<ellipse fill="#6cc644" stroke="black" cx="432" cy="-320" rx="121.122" ry="38.1838"/>
<text text-anchor="middle" x="432" y="-324" font-family="Sans" font-size="10.00">issue</text>
<text text-anchor="middle" x="432" y="-311" font-family="Sans" font-size="10.00">configuration-modules-core#1100</text>
</a>
</g>
<!-- configuration&#45;modules&#45;core#1105&#45;&gt;configuration&#45;modules&#45;core#1100 -->
<g id="edge22" class="edge"><title>configuration-modules-core#1105-&gt;configuration-modules-core#1100</title>
<path fill="none" stroke="black" stroke-width="2" d="M204.182,-306.588C220.685,-304.676 237.851,-303.005 254,-302 272.875,-300.825 292.841,-301.227 312.31,-302.522"/>
<polygon fill="black" stroke="black" points="312.206,-306.024 322.438,-303.278 312.726,-299.044 312.206,-306.024"/>
<text text-anchor="middle" x="273" y="-306" font-family="Sans" font-size="10.00">fixes</text>
</g>
<!-- configuration&#45;modules&#45;core#1105&#45;&gt;configuration&#45;modules&#45;core#1100 -->
<g id="edge38" class="edge"><title>configuration-modules-core#1105-&gt;configuration-modules-core#1100</title>
<path fill="none" stroke="black" stroke-width="2" d="M204.217,-319.275C233.916,-319.369 267.888,-319.477 300.372,-319.581"/>
<polygon fill="black" stroke="black" points="300.388,-323.081 310.399,-319.613 300.41,-316.081 300.388,-323.081"/>
<text text-anchor="middle" x="273" y="-324" font-family="Sans" font-size="10.00">fixes</text>
</g>
<!-- configuration&#45;modules&#45;core#1102 -->
<g id="node27" class="node"><title>configuration-modules-core#1102</title>
<a xlink:href="https://github.com/quattor/configuration-modules-core/issues/1102" xlink:title="ncm-authconfig: There is no " target="_parent">
<ellipse fill="#6cc644" stroke="black" cx="432" cy="-414" rx="121.122" ry="38.1838"/>
<text text-anchor="middle" x="432" y="-418" font-family="Sans" font-size="10.00">issue</text>
<text text-anchor="middle" x="432" y="-405" font-family="Sans" font-size="10.00">configuration-modules-core#1102</text>
</a>
</g>
<!-- configuration&#45;modules&#45;core#1105&#45;&gt;configuration&#45;modules&#45;core#1102 -->
<g id="edge24" class="edge"><title>configuration-modules-core#1105-&gt;configuration-modules-core#1102</title>
<path fill="none" stroke="black" stroke-width="2" d="M204.217,-345.085C244.726,-357.341 293.186,-372.002 334.974,-384.645"/>
<polygon fill="black" stroke="black" points="334.026,-388.015 344.611,-387.561 336.053,-381.315 334.026,-388.015"/>
<text text-anchor="middle" x="273" y="-374" font-family="Sans" font-size="10.00">fixes</text>
</g>
<!-- configuration&#45;modules&#45;core#1105&#45;&gt;configuration&#45;modules&#45;core#1102 -->
<g id="edge40" class="edge"><title>configuration-modules-core#1105-&gt;configuration-modules-core#1102</title>
<path fill="none" stroke="black" stroke-width="2" d="M163.066,-346.018C188.853,-360.315 222.295,-376.945 254,-387 270.717,-392.301 288.657,-396.576 306.481,-400.019"/>
<polygon fill="black" stroke="black" points="305.893,-403.47 316.363,-401.848 307.166,-396.587 305.893,-403.47"/>
<text text-anchor="middle" x="273" y="-400" font-family="Sans" font-size="10.00">fixes</text>
</g>
<!-- configuration&#45;modules&#45;core#1103 -->
<g id="node29" class="node"><title>configuration-modules-core#1103</title>
<a xlink:href="https://github.com/quattor/configuration-modules-core/issues/1103" xlink:title="ncm-authconfig: krb5_realm = ARRAY(0x39a5830)" target="_parent">
<ellipse fill="#6cc644" stroke="black" cx="432" cy="-226" rx="121.122" ry="38.1838"/>
<text text-anchor="middle" x="432" y="-230" font-family="Sans" font-size="10.00">issue</text>
<text text-anchor="middle" x="432" y="-217" font-family="Sans" font-size="10.00">configuration-modules-core#1103</text>
</a>
</g>
<!-- configuration&#45;modules&#45;core#1105&#45;&gt;configuration&#45;modules&#45;core#1103 -->
<g id="edge26" class="edge"><title>configuration-modules-core#1105-&gt;configuration-modules-core#1103</title>
<path fill="none" stroke="black" stroke-width="2" d="M174.955,-291.944C195.353,-280.813 217.786,-266.807 236,-251 245.803,-242.492 242.363,-233.751 254,-228 270.675,-219.76 289.347,-215.283 308.156,-213.256"/>
<polygon fill="black" stroke="black" points="308.632,-216.728 318.299,-212.393 308.039,-209.754 308.632,-216.728"/>
<text text-anchor="middle" x="273" y="-232" font-family="Sans" font-size="10.00">fixes</text>
</g>
<!-- configuration&#45;modules&#45;core#1105&#45;&gt;configuration&#45;modules&#45;core#1103 -->
<g id="edge42" class="edge"><title>configuration-modules-core#1105-&gt;configuration-modules-core#1103</title>
<path fill="none" stroke="black" stroke-width="2" d="M204.217,-293.464C244.304,-281.591 292.178,-267.412 333.668,-255.124"/>
<polygon fill="black" stroke="black" points="334.922,-258.403 343.516,-252.207 332.934,-251.691 334.922,-258.403"/>
<text text-anchor="middle" x="273" y="-283" font-family="Sans" font-size="10.00">fixes</text>
</g>
<!-- configuration&#45;modules&#45;core#1148 -->
<g id="node30" class="node"><title>configuration-modules-core#1148</title>
<a xlink:href="https://github.com/quattor/configuration-modules-core/pull/1148" xlink:title="ncm-spma: Remove support from groups from spma yumng backend" target="_parent">
<polygon fill="#6cc644" stroke="black" points="204,-1090 32,-1090 32,-1036 204,-1036 204,-1090"/>
<text text-anchor="middle" x="118" y="-1067" font-family="Sans" font-size="10.00">pull-request</text>
<text text-anchor="middle" x="118" y="-1054" font-family="Sans" font-size="10.00">configuration-modules-core#1148</text>
</a>
</g>
<!-- configuration&#45;modules&#45;core#952 -->
<g id="node32" class="node"><title>configuration-modules-core#952</title>
<a xlink:href="https://github.com/quattor/configuration-modules-core/issues/952" xlink:title="ncm-spma (yumng): Remove support for package groups" target="_parent">
<ellipse fill="#6cc644" stroke="black" cx="432" cy="-1051" rx="118.087" ry="38.1838"/>
<text text-anchor="middle" x="432" y="-1055" font-family="Sans" font-size="10.00">issue</text>
<text text-anchor="middle" x="432" y="-1042" font-family="Sans" font-size="10.00">configuration-modules-core#952</text>
</a>
</g>
<!-- configuration&#45;modules&#45;core#1148&#45;&gt;configuration&#45;modules&#45;core#952 -->
<g id="edge28" class="edge"><title>configuration-modules-core#1148-&gt;configuration-modules-core#952</title>
<path fill="none" stroke="black" stroke-width="2" d="M204.281,-1070.3C220.775,-1071.43 237.912,-1072.41 254,-1073 270.878,-1073.62 275.162,-1074.31 292,-1073 300.555,-1072.33 309.377,-1071.44 318.234,-1070.39"/>
<polygon fill="black" stroke="black" points="318.746,-1073.85 328.238,-1069.15 317.883,-1066.91 318.746,-1073.85"/>
<text text-anchor="middle" x="273" y="-1078" font-family="Sans" font-size="10.00">fixes</text>
</g>
<!-- configuration&#45;modules&#45;core#1148&#45;&gt;configuration&#45;modules&#45;core#952 -->
<g id="edge44" class="edge"><title>configuration-modules-core#1148-&gt;configuration-modules-core#952</title>
<path fill="none" stroke="black" stroke-width="2" d="M204.32,-1058.25C220.81,-1057.43 237.936,-1056.64 254,-1056 270.116,-1055.36 287.056,-1054.77 303.815,-1054.24"/>
<polygon fill="black" stroke="black" points="304.331,-1057.73 314.218,-1053.92 304.114,-1050.73 304.331,-1057.73"/>
<text text-anchor="middle" x="273" y="-1060" font-family="Sans" font-size="10.00">fixes</text>
</g>
<!-- configuration&#45;modules&#45;core#950 -->
<g id="node33" class="node"><title>configuration-modules-core#950</title>
<a xlink:href="https://github.com/quattor/configuration-modules-core/issues/950" xlink:title="ncm-spma: Remove support for package groups from yum backends" target="_parent">
<ellipse fill="#6cc644" stroke="black" cx="118" cy="-971" rx="118.087" ry="38.1838"/>
<text text-anchor="middle" x="118" y="-975" font-family="Sans" font-size="10.00">issue</text>
<text text-anchor="middle" x="118" y="-962" font-family="Sans" font-size="10.00">configuration-modules-core#950</text>
</a>
</g>
<!-- configuration&#45;modules&#45;core#950&#45;&gt;configuration&#45;modules&#45;core#952 -->
<g id="edge32" class="edge"><title>configuration-modules-core#950-&gt;configuration-modules-core#952</title>
<path fill="none" stroke="black" stroke-dasharray="5,2" d="M210.936,-994.678C248.121,-1004.15 291.095,-1015.1 329.209,-1024.81"/>
<polygon fill="none" stroke="black" points="328.748,-1028.31 339.303,-1027.38 330.476,-1021.52 328.748,-1028.31"/>
<text text-anchor="middle" x="273" y="-1018" font-family="Sans" font-size="10.00">requires</text>
</g>
<!-- configuration&#45;modules&#45;core#950&#45;&gt;configuration&#45;modules&#45;core#952 -->
<g id="edge48" class="edge"><title>configuration-modules-core#950-&gt;configuration-modules-core#952</title>
<path fill="none" stroke="black" stroke-dasharray="5,2" d="M234.025,-978.727C253.565,-981.433 273.498,-985.081 292,-990 305.179,-993.503 330.371,-1004.04 355.795,-1015.39"/>
<polygon fill="none" stroke="black" points="354.594,-1018.69 365.15,-1019.6 357.466,-1012.31 354.594,-1018.69"/>
<text text-anchor="middle" x="273" y="-994" font-family="Sans" font-size="10.00">requires</text>
</g>
<!-- configuration&#45;modules&#45;core#951 -->
<g id="node35" class="node"><title>configuration-modules-core#951</title>
<a xlink:href="https://github.com/quattor/configuration-modules-core/issues/951" xlink:title="ncm-spma (yum): Remove support for package groups" target="_parent">
<ellipse fill="#6cc644" stroke="black" cx="432" cy="-949" rx="118.087" ry="38.1838"/>
<text text-anchor="middle" x="432" y="-953" font-family="Sans" font-size="10.00">issue</text>
<text text-anchor="middle" x="432" y="-940" font-family="Sans" font-size="10.00">configuration-modules-core#951</text>
</a>
</g>
<!-- configuration&#45;modules&#45;core#950&#45;&gt;configuration&#45;modules&#45;core#951 -->
<g id="edge30" class="edge"><title>configuration-modules-core#950-&gt;configuration-modules-core#951</title>
<path fill="none" stroke="black" stroke-dasharray="5,2" d="M225.141,-954.788C234.882,-953.691 244.612,-952.732 254,-952 269.948,-950.756 286.724,-949.893 303.34,-949.307"/>
<polygon fill="none" stroke="black" points="303.774,-952.795 313.657,-948.977 303.55,-945.798 303.774,-952.795"/>
<text text-anchor="middle" x="273" y="-956" font-family="Sans" font-size="10.00">requires</text>
</g>
<!-- configuration&#45;modules&#45;core#950&#45;&gt;configuration&#45;modules&#45;core#951 -->
<g id="edge46" class="edge"><title>configuration-modules-core#950-&gt;configuration-modules-core#951</title>
<path fill="none" stroke="black" stroke-dasharray="5,2" d="M201.039,-943.946C218.359,-939.396 236.634,-935.381 254,-933 274.209,-930.23 295.777,-929.937 316.674,-931.033"/>
<polygon fill="none" stroke="black" points="316.669,-934.54 326.87,-931.678 317.111,-927.554 316.669,-934.54"/>
<text text-anchor="middle" x="273" y="-937" font-family="Sans" font-size="10.00">requires</text>
</g>
<!-- ncm&#45;ncd#117 -->
<g id="node45" class="node"><title>ncm-ncd#117</title>
<a xlink:href="https://github.com/quattor/ncm-ncd/pull/117" xlink:title="Allow component modules to be loaded from any path" target="_parent">
<polygon fill="#6cc644" stroke="black" points="161,-1172 75,-1172 75,-1118 161,-1118 161,-1172"/>
<text text-anchor="middle" x="118" y="-1149" font-family="Sans" font-size="10.00">pull-request</text>
<text text-anchor="middle" x="118" y="-1136" font-family="Sans" font-size="10.00">ncm-ncd#117</text>
</a>
</g>
<!-- ncm&#45;ncd#116 -->
<g id="node47" class="node"><title>ncm-ncd#116</title>
<a xlink:href="https://github.com/quattor/ncm-ncd/issues/116" xlink:title="hasFile() prevents component modules from being relocated" target="_parent">
<ellipse fill="#6cc644" stroke="black" cx="432" cy="-1145" rx="61.0181" ry="38.1838"/>
<text text-anchor="middle" x="432" y="-1149" font-family="Sans" font-size="10.00">issue</text>
<text text-anchor="middle" x="432" y="-1136" font-family="Sans" font-size="10.00">ncm-ncd#116</text>
</a>
</g>
<!-- ncm&#45;ncd#117&#45;&gt;ncm&#45;ncd#116 -->
<g id="edge50" class="edge"><title>ncm-ncd#117-&gt;ncm-ncd#116</title>
<path fill="none" stroke="black" stroke-width="2" d="M161.66,-1145C212.954,-1145 298.809,-1145 360.001,-1145"/>
<polygon fill="black" stroke="black" points="360.362,-1148.5 370.362,-1145 360.362,-1141.5 360.362,-1148.5"/>
<text text-anchor="middle" x="273" y="-1149" font-family="Sans" font-size="10.00">fixes</text>
</g>
<!-- template&#45;library&#45;standard#109 -->
<g id="node48" class="node"><title>template-library-standard#109</title>
<a xlink:href="https://github.com/quattor/template-library-standard/pull/109" xlink:title="Add sample of nVidia workstation and compute GPUs" target="_parent">
<polygon fill="#6cc644" stroke="black" points="196,-242 40,-242 40,-188 196,-188 196,-242"/>
<text text-anchor="middle" x="118" y="-219" font-family="Sans" font-size="10.00">pull-request</text>
<text text-anchor="middle" x="118" y="-206" font-family="Sans" font-size="10.00">template-library-standard#109</text>
</a>
</g>
<!-- template&#45;library&#45;core#172 -->
<g id="node50" class="node"><title>template-library-core#172</title>
<a xlink:href="https://github.com/quattor/template-library-core/pull/172" xlink:title="Allow RAM to be modelled on GPU cards" target="_parent">
<polygon fill="#6cc644" stroke="black" points="501,-170 363,-170 363,-116 501,-116 501,-170"/>
<text text-anchor="middle" x="432" y="-147" font-family="Sans" font-size="10.00">pull-request</text>
<text text-anchor="middle" x="432" y="-134" font-family="Sans" font-size="10.00">template-library-core#172</text>
</a>
</g>
<!-- template&#45;library&#45;standard#109&#45;&gt;template&#45;library&#45;core#172 -->
<g id="edge52" class="edge"><title>template-library-standard#109-&gt;template-library-core#172</title>
<path fill="none" stroke="black" stroke-dasharray="5,2" d="M196.83,-196.924C244.488,-185.996 305.049,-172.11 352.777,-161.166"/>
<polygon fill="none" stroke="black" points="353.793,-164.524 362.758,-158.877 352.229,-157.701 353.793,-164.524"/>
<text text-anchor="middle" x="273" y="-188" font-family="Sans" font-size="10.00">requires</text>
</g>
</g>
</svg>
