<?xml version="1.0" encoding="UTF-8" standalone="no"?>
<!-- Generated by graphviz version 2.26.0 (20091210.2329)
 -->
<!-- Title: Dependencies Pages: 1 -->
<svg xmlns="http://www.w3.org/2000/svg" xmlns:xlink="http://www.w3.org/1999/xlink" width="1068pt" height="1815pt" viewBox="0.00 0.00 1068.00 1815.00">
<g id="graph1" class="graph" transform="scale(1 1) rotate(0) translate(4 1811)">
<title>Dependencies</title>
<polygon fill="white" stroke="white" points="-4,5 -4,-1811 1065,-1811 1065,5 -4,5"/>
<g id="graph2" class="cluster"><title>cluster_17.2</title>
<polygon fill="none" stroke="black" points="40,-106 40,-1195 1024,-1195 1024,-106 40,-106"/>
<text text-anchor="middle" x="532" y="-1180.2" font-family="Sans" font-size="12.00">17.2</text>
</g>
<g id="graph5" class="cluster"><title>cluster_17.4</title>
<polygon fill="none" stroke="black" points="8,-1253 8,-1629 576,-1629 576,-1253 8,-1253"/>
<text text-anchor="middle" x="292" y="-1614.2" font-family="Sans" font-size="12.00">17.4</text>
</g>
<!-- aii#238 -->
<g id="node1" class="node"><title>aii#238</title>
<a xlink:href="https://github.com/quattor/aii/pull/238" xlink:title="aii-opennebula: Add VM image driver option" target="_parent">
<polygon fill="#6cc644" stroke="black" points="173,-1152 95,-1152 95,-1098 173,-1098 173,-1152"/>
<text text-anchor="middle" x="134" y="-1129" font-family="Sans" font-size="10.00">pull-request</text>
<text text-anchor="middle" x="134" y="-1116" font-family="Sans" font-size="10.00">aii#238</text>
</a>
</g>
<!-- aii#235 -->
<g id="node3" class="node"><title>aii#235</title>
<a xlink:href="https://github.com/quattor/aii/issues/235" xlink:title="aii-opennebula: Add qcow2 image support" target="_parent">
<ellipse fill="#6cc644" stroke="black" cx="450" cy="-1125" rx="41.2167" ry="38.1838"/>
<text text-anchor="middle" x="450" y="-1129" font-family="Sans" font-size="10.00">issue</text>
<text text-anchor="middle" x="450" y="-1116" font-family="Sans" font-size="10.00">aii#235</text>
</a>
</g>
<!-- aii#238&#45;&gt;aii#235 -->
<g id="edge2" class="edge"><title>aii#238-&gt;aii#235</title>
<path fill="none" stroke="black" d="M173.571,-1123.9C200.705,-1123.2 237.529,-1122.36 270,-1122 313.094,-1121.52 361.986,-1122.43 397.928,-1123.37"/>
<polygon fill="black" stroke="black" points="398.084,-1126.88 408.175,-1123.65 398.274,-1119.88 398.084,-1126.88"/>
<text text-anchor="middle" x="290" y="-1126" font-family="Sans" font-size="10.00">fix</text>
</g>
<!-- aii#237 -->
<g id="node4" class="node"><title>aii#237</title>
<a xlink:href="https://github.com/quattor/aii/pull/237" xlink:title="aii-core: switch to CAF::Download::LWP" target="_parent">
<polygon fill="#6cc644" stroke="black" points="771,-769 693,-769 693,-715 771,-715 771,-769"/>
<text text-anchor="middle" x="732" y="-746" font-family="Sans" font-size="10.00">pull-request</text>
<text text-anchor="middle" x="732" y="-733" font-family="Sans" font-size="10.00">aii#237</text>
</a>
</g>
<!-- CAF#203 -->
<g id="node6" class="node"><title>CAF#203</title>
<a xlink:href="https://github.com/quattor/CAF/pull/203" xlink:title="CAF::Download::LWP: CAF interface for LWP to handle https settings" target="_parent">
<polygon fill="#6e5494" stroke="black" points="1015,-697 937,-697 937,-643 1015,-643 1015,-697"/>
<text text-anchor="middle" x="976" y="-674" font-family="Sans" font-size="10.00">pull-request</text>
<text text-anchor="middle" x="976" y="-661" font-family="Sans" font-size="10.00">CAF#203</text>
</a>
</g>
<!-- aii#237&#45;&gt;CAF#203 -->
<g id="edge4" class="edge"><title>aii#237-&gt;CAF#203</title>
<path fill="none" stroke="black" d="M771.746,-730.272C814.017,-717.798 880.95,-698.048 926.587,-684.581"/>
<polygon fill="none" stroke="black" points="927.671,-687.91 936.271,-681.723 925.689,-681.197 927.671,-687.91"/>
<text text-anchor="middle" x="854" y="-715" font-family="Sans" font-size="10.00">requires</text>
</g>
<!-- aii#225 -->
<g id="node7" class="node"><title>aii#225</title>
<a xlink:href="https://github.com/quattor/aii/pull/225" xlink:title="[WIP] Add UEFI support through Grub-based PXE loader" target="_parent">
<polygon fill="#6cc644" stroke="black" points="173,-1058 95,-1058 95,-1004 173,-1004 173,-1058"/>
<text text-anchor="middle" x="134" y="-1035" font-family="Sans" font-size="10.00">pull-request</text>
<text text-anchor="middle" x="134" y="-1022" font-family="Sans" font-size="10.00">aii#225</text>
</a>
</g>
<!-- aii#216 -->
<g id="node9" class="node"><title>aii#216</title>
<a xlink:href="https://github.com/quattor/aii/issues/216" xlink:title="aii-pxelinux: add support for Grub-based UEFI PXE boot loader" target="_parent">
<ellipse fill="#6cc644" stroke="black" cx="450" cy="-1031" rx="41.2167" ry="38.1838"/>
<text text-anchor="middle" x="450" y="-1035" font-family="Sans" font-size="10.00">issue</text>
<text text-anchor="middle" x="450" y="-1022" font-family="Sans" font-size="10.00">aii#216</text>
</a>
</g>
<!-- aii#225&#45;&gt;aii#216 -->
<g id="edge6" class="edge"><title>aii#225-&gt;aii#216</title>
<path fill="none" stroke="black" d="M173.702,-1031C230.622,-1031 335.472,-1031 398.358,-1031"/>
<polygon fill="black" stroke="black" points="398.455,-1034.5 408.455,-1031 398.455,-1027.5 398.455,-1034.5"/>
<text text-anchor="middle" x="290" y="-1035" font-family="Sans" font-size="10.00">fixes</text>
</g>
<!-- aii#210 -->
<g id="node10" class="node"><title>aii#210</title>
<a xlink:href="https://github.com/quattor/aii/pull/210" xlink:title="Shellfe: support active config for plugins" target="_parent">
<polygon fill="#6cc644" stroke="black" points="173,-1514 95,-1514 95,-1460 173,-1460 173,-1514"/>
<text text-anchor="middle" x="134" y="-1491" font-family="Sans" font-size="10.00">pull-request</text>
<text text-anchor="middle" x="134" y="-1478" font-family="Sans" font-size="10.00">aii#210</text>
</a>
</g>
<!-- aii#209 -->
<g id="node12" class="node"><title>aii#209</title>
<a xlink:href="https://github.com/quattor/aii/issues/209" xlink:title="support ACTIVE_CONFIG" target="_parent">
<ellipse fill="#6cc644" stroke="black" cx="450" cy="-1487" rx="41.2167" ry="38.1838"/>
<text text-anchor="middle" x="450" y="-1491" font-family="Sans" font-size="10.00">issue</text>
<text text-anchor="middle" x="450" y="-1478" font-family="Sans" font-size="10.00">aii#209</text>
</a>
</g>
<!-- aii#210&#45;&gt;aii#209 -->
<g id="edge8" class="edge"><title>aii#210-&gt;aii#209</title>
<path fill="none" stroke="black" d="M173.702,-1487C230.622,-1487 335.472,-1487 398.358,-1487"/>
<polygon fill="black" stroke="black" points="398.455,-1490.5 408.455,-1487 398.455,-1483.5 398.455,-1490.5"/>
<text text-anchor="middle" x="290" y="-1491" font-family="Sans" font-size="10.00">fixes</text>
</g>
<!-- ncm&#45;ncd#74 -->
<g id="node14" class="node"><title>ncm-ncd#74</title>
<a xlink:href="https://github.com/quattor/ncm-ncd/pull/74" xlink:title="Set the current active config as an attribute to the component" target="_parent">
<polygon fill="#6cc644" stroke="black" points="491,-1597 409,-1597 409,-1543 491,-1543 491,-1597"/>
<text text-anchor="middle" x="450" y="-1574" font-family="Sans" font-size="10.00">pull-request</text>
<text text-anchor="middle" x="450" y="-1561" font-family="Sans" font-size="10.00">ncm-ncd#74</text>
</a>
</g>
<!-- aii#210&#45;&gt;ncm&#45;ncd#74 -->
<g id="edge10" class="edge"><title>aii#210-&gt;ncm-ncd#74</title>
<path fill="none" stroke="black" d="M173.702,-1497.43C230.897,-1512.45 336.485,-1540.18 399.266,-1556.67"/>
<polygon fill="none" stroke="black" points="398.399,-1560.07 408.96,-1559.22 400.178,-1553.29 398.399,-1560.07"/>
<text text-anchor="middle" x="290" y="-1535" font-family="Sans" font-size="10.00">requires</text>
</g>
<!-- aii#203 -->
<g id="node16" class="node"><title>aii#203</title>
<polygon fill="lightgrey" stroke="black" points="479,-1243.5 421,-1243.5 421,-1202.5 479,-1202.5 479,-1243.5"/>
<text text-anchor="middle" x="450" y="-1220.5" font-family="Sans" font-size="10.00">aii#203</text>
</g>
<!-- aii#210&#45;&gt;aii#203 -->
<g id="edge12" class="edge"><title>aii#210-&gt;aii#203</title>
<path fill="none" stroke="black" d="M173.591,-1460.67C199.791,-1441.18 232.75,-1412.3 252,-1379 270.456,-1347.07 250.914,-1329.55 270,-1298 287.465,-1269.13 297.698,-1263.85 328,-1249 353.778,-1236.37 385.572,-1229.84 410.24,-1226.49"/>
<polygon fill="none" stroke="black" points="410.843,-1229.94 420.337,-1225.24 409.983,-1223 410.843,-1229.94"/>
<text text-anchor="middle" x="290" y="-1302" font-family="Sans" font-size="10.00">requires</text>
</g>
<!-- CAF#202 -->
<g id="node17" class="node"><title>CAF#202</title>
<a xlink:href="https://github.com/quattor/CAF/pull/202" xlink:title="FileWriter: use atomic write" target="_parent">
<polygon fill="#6cc644" stroke="black" points="173,-903 95,-903 95,-849 173,-849 173,-903"/>
<text text-anchor="middle" x="134" y="-880" font-family="Sans" font-size="10.00">pull-request</text>
<text text-anchor="middle" x="134" y="-867" font-family="Sans" font-size="10.00">CAF#202</text>
</a>
</g>
<!-- CAF#148 -->
<g id="node19" class="node"><title>CAF#148</title>
<a xlink:href="https://github.com/quattor/CAF/issues/148" xlink:title="CAF::FileWriter updates files in-place" target="_parent">
<ellipse fill="#6cc644" stroke="black" cx="450" cy="-937" rx="48.9975" ry="38.1838"/>
<text text-anchor="middle" x="450" y="-941" font-family="Sans" font-size="10.00">issue</text>
<text text-anchor="middle" x="450" y="-928" font-family="Sans" font-size="10.00">CAF#148</text>
</a>
</g>
<!-- CAF#202&#45;&gt;CAF#148 -->
<g id="edge14" class="edge"><title>CAF#202-&gt;CAF#148</title>
<path fill="none" stroke="black" d="M173.702,-883.664C228.773,-894.295 328.709,-913.586 392.099,-925.823"/>
<polygon fill="black" stroke="black" points="391.464,-929.265 401.946,-927.724 392.791,-922.392 391.464,-929.265"/>
<text text-anchor="middle" x="290" y="-913" font-family="Sans" font-size="10.00">fixes</text>
</g>
<!-- CAF#189 -->
<g id="node21" class="node"><title>CAF#189</title>
<a xlink:href="https://github.com/quattor/CAF/issues/189" xlink:title="FileWriter: add diff to history" target="_parent">
<ellipse fill="#6cc644" stroke="black" cx="450" cy="-843" rx="48.9975" ry="38.1838"/>
<text text-anchor="middle" x="450" y="-847" font-family="Sans" font-size="10.00">issue</text>
<text text-anchor="middle" x="450" y="-834" font-family="Sans" font-size="10.00">CAF#189</text>
</a>
</g>
<!-- CAF#202&#45;&gt;CAF#189 -->
<g id="edge16" class="edge"><title>CAF#202-&gt;CAF#189</title>
<path fill="none" stroke="black" d="M173.702,-871.854C228.345,-866.147 327.161,-855.828 390.616,-849.201"/>
<polygon fill="black" stroke="black" points="391.289,-852.65 400.872,-848.13 390.562,-845.688 391.289,-852.65"/>
<text text-anchor="middle" x="290" y="-866" font-family="Sans" font-size="10.00">fixes</text>
</g>
<!-- CCM#162 -->
<g id="node22" class="node"><title>CCM#162</title>
<a xlink:href="https://github.com/quattor/CCM/pull/162" xlink:title="Cleanup: move internal modules in subdirectories and remove/integrate util scripts" target="_parent">
<polygon fill="#6cc644" stroke="black" points="173,-749 95,-749 95,-695 173,-695 173,-749"/>
<text text-anchor="middle" x="134" y="-726" font-family="Sans" font-size="10.00">pull-request</text>
<text text-anchor="middle" x="134" y="-713" font-family="Sans" font-size="10.00">CCM#162</text>
</a>
</g>
<!-- CCM#160 -->
<g id="node24" class="node"><title>CCM#160</title>
<a xlink:href="https://github.com/quattor/CCM/pull/160" xlink:title="Switch to 00-tqu" target="_parent">
<polygon fill="#6cc644" stroke="black" points="489,-787 411,-787 411,-733 489,-733 489,-787"/>
<text text-anchor="middle" x="450" y="-764" font-family="Sans" font-size="10.00">pull-request</text>
<text text-anchor="middle" x="450" y="-751" font-family="Sans" font-size="10.00">CCM#160</text>
</a>
</g>
<!-- CCM#162&#45;&gt;CCM#160 -->
<g id="edge18" class="edge"><title>CCM#162-&gt;CCM#160</title>
<path fill="none" stroke="black" d="M173.702,-726.774C231.172,-733.685 337.501,-746.472 400.168,-754.008"/>
<polygon fill="black" stroke="black" points="399.866,-757.496 410.212,-755.215 400.702,-750.546 399.866,-757.496"/>
<text text-anchor="middle" x="290" y="-747" font-family="Sans" font-size="10.00">based on</text>
</g>
<!-- CCM#156 -->
<g id="node26" class="node"><title>CCM#156</title>
<a xlink:href="https://github.com/quattor/CCM/pull/156" xlink:title="Fetch::Download: switch to CAF::Download::LWP" target="_parent">
<polygon fill="#6e5494" stroke="black" points="771,-697 693,-697 693,-643 771,-643 771,-697"/>
<text text-anchor="middle" x="732" y="-674" font-family="Sans" font-size="10.00">pull-request</text>
<text text-anchor="middle" x="732" y="-661" font-family="Sans" font-size="10.00">CCM#156</text>
</a>
</g>
<!-- CCM#162&#45;&gt;CCM#156 -->
<g id="edge20" class="edge"><title>CCM#162-&gt;CCM#156</title>
<path fill="none" stroke="black" d="M173.7,-718.548C279.165,-709.377 566.192,-684.418 682.28,-674.323"/>
<polygon fill="black" stroke="black" points="682.655,-677.804 692.314,-673.451 682.049,-670.83 682.655,-677.804"/>
<text text-anchor="middle" x="450" y="-709" font-family="Sans" font-size="10.00">based on</text>
</g>
<!-- CCM#160&#45;&gt;CCM#156 -->
<g id="edge22" class="edge"><title>CCM#160-&gt;CCM#156</title>
<path fill="none" stroke="black" d="M489.543,-749.114C526.158,-738.855 582.025,-722.748 630,-707 647.355,-701.303 666.197,-694.613 682.91,-688.5"/>
<polygon fill="black" stroke="black" points="684.301,-691.718 692.477,-684.979 681.883,-685.149 684.301,-691.718"/>
<text text-anchor="middle" x="610" y="-724" font-family="Sans" font-size="10.00">based on</text>
</g>
<!-- CCM#156&#45;&gt;CAF#203 -->
<g id="edge24" class="edge"><title>CCM#156-&gt;CAF#203</title>
<path fill="none" stroke="black" d="M771.746,-670C813.84,-670 880.389,-670 926.012,-670"/>
<polygon fill="none" stroke="black" points="926.271,-673.5 936.271,-670 926.271,-666.5 926.271,-673.5"/>
<text text-anchor="middle" x="854" y="-674" font-family="Sans" font-size="10.00">requires</text>
</g>
<!-- CCM#152 -->
<g id="node30" class="node"><title>CCM#152</title>
<polygon fill="lightgrey" stroke="black" points="1012,-98.5 940,-98.5 940,-57.5 1012,-57.5 1012,-98.5"/>
<text text-anchor="middle" x="976" y="-75.5" font-family="Sans" font-size="10.00">CCM#152</text>
</g>
<!-- CCM#156&#45;&gt;CCM#152 -->
<g id="edge26" class="edge"><title>CCM#156-&gt;CCM#152</title>
<path fill="none" stroke="black" d="M771.911,-647.422C788.161,-636.174 805.546,-621.089 816,-603 928.691,-408.007 743.24,-271.091 892,-102 901.513,-91.1874 915.525,-85.094 929.39,-81.7066"/>
<polygon fill="black" stroke="black" points="930.283,-85.0971 939.394,-79.6895 928.899,-78.2352 930.283,-85.0971"/>
<text text-anchor="middle" x="854" y="-562" font-family="Sans" font-size="10.00">based on</text>
</g>
<!-- configuration&#45;modules&#45;core#1024 -->
<g id="node31" class="node"><title>configuration-modules-core#1024</title>
<a xlink:href="https://github.com/quattor/configuration-modules-core/pull/1024" xlink:title="ncm-syslog: cleanup and refactor" target="_parent">
<polygon fill="#6cc644" stroke="black" points="220,-662 48,-662 48,-608 220,-608 220,-662"/>
<text text-anchor="middle" x="134" y="-639" font-family="Sans" font-size="10.00">pull-request</text>
<text text-anchor="middle" x="134" y="-626" font-family="Sans" font-size="10.00">configuration-modules-core#1024</text>
</a>
</g>
<!-- CAF#211 -->
<g id="node33" class="node"><title>CAF#211</title>
<a xlink:href="https://github.com/quattor/CAF/pull/211" xlink:title="FileEditor: fix add_or_replace_sysconfig_lines " target="_parent">
<polygon fill="#6cc644" stroke="black" points="489,-666 411,-666 411,-612 489,-612 489,-666"/>
<text text-anchor="middle" x="450" y="-643" font-family="Sans" font-size="10.00">pull-request</text>
<text text-anchor="middle" x="450" y="-630" font-family="Sans" font-size="10.00">CAF#211</text>
</a>
</g>
<!-- configuration&#45;modules&#45;core#1024&#45;&gt;CAF#211 -->
<g id="edge28" class="edge"><title>configuration-modules-core#1024-&gt;CAF#211</title>
<path fill="none" stroke="black" d="M220.348,-636.093C278.062,-636.824 351.957,-637.759 400.111,-638.368"/>
<polygon fill="none" stroke="black" points="400.235,-641.87 410.278,-638.497 400.324,-634.871 400.235,-641.87"/>
<text text-anchor="middle" x="290" y="-642" font-family="Sans" font-size="10.00">requires</text>
</g>
<!-- configuration&#45;modules&#45;core#1024&#45;&gt;CAF#211 -->
<g id="edge36" class="edge"><title>configuration-modules-core#1024-&gt;CAF#211</title>
<path fill="none" stroke="black" d="M220.216,-624.047C236.715,-622.361 253.871,-620.887 270,-620 314.121,-617.574 364.081,-623.546 400.154,-629.422"/>
<polygon fill="none" stroke="black" points="399.969,-632.94 410.411,-631.151 401.132,-626.037 399.969,-632.94"/>
<text text-anchor="middle" x="290" y="-624" font-family="Sans" font-size="10.00">requires</text>
</g>
<!-- configuration&#45;modules&#45;core#1005 -->
<g id="node34" class="node"><title>configuration-modules-core#1005</title>
<a xlink:href="https://github.com/quattor/configuration-modules-core/pull/1005" xlink:title=" ncm-download: allow_older boolean to allow downloading remote files that are older then current file" target="_parent">
<polygon fill="#6cc644" stroke="black" points="536,-594 364,-594 364,-540 536,-540 536,-594"/>
<text text-anchor="middle" x="450" y="-571" font-family="Sans" font-size="10.00">pull-request</text>
<text text-anchor="middle" x="450" y="-558" font-family="Sans" font-size="10.00">configuration-modules-core#1005</text>
</a>
</g>
<!-- configuration&#45;modules&#45;core#984 -->
<g id="node36" class="node"><title>configuration-modules-core#984</title>
<a xlink:href="https://github.com/quattor/configuration-modules-core/pull/984" xlink:title="ncm-download: switch to CAF::Download::LWP" target="_parent">
<polygon fill="#6cc644" stroke="black" points="815,-594 649,-594 649,-540 815,-540 815,-594"/>
<text text-anchor="middle" x="732" y="-571" font-family="Sans" font-size="10.00">pull-request</text>
<text text-anchor="middle" x="732" y="-558" font-family="Sans" font-size="10.00">configuration-modules-core#984</text>
</a>
</g>
<!-- configuration&#45;modules&#45;core#1005&#45;&gt;configuration&#45;modules&#45;core#984 -->
<g id="edge30" class="edge"><title>configuration-modules-core#1005-&gt;configuration-modules-core#984</title>
<path fill="none" stroke="black" d="M536.028,-552.667C565.78,-549.359 599.344,-547.463 630,-550 632.716,-550.225 635.468,-550.483 638.243,-550.769"/>
<polygon fill="black" stroke="black" points="638.034,-554.268 648.366,-551.921 638.826,-547.313 638.034,-554.268"/>
<text text-anchor="middle" x="610" y="-554" font-family="Sans" font-size="10.00">based on</text>
</g>
<!-- configuration&#45;modules&#45;core#1005&#45;&gt;configuration&#45;modules&#45;core#984 -->
<g id="edge38" class="edge"><title>configuration-modules-core#1005-&gt;configuration-modules-core#984</title>
<path fill="none" stroke="black" d="M536.142,-567C568.435,-567 605.278,-567 638.229,-567"/>
<polygon fill="black" stroke="black" points="638.321,-570.5 648.321,-567 638.321,-563.5 638.321,-570.5"/>
<text text-anchor="middle" x="610" y="-571" font-family="Sans" font-size="10.00">based on</text>
</g>
<!-- configuration&#45;modules&#45;core#984&#45;&gt;CAF#203 -->
<g id="edge46" class="edge"><title>configuration-modules-core#984-&gt;CAF#203</title>
<path fill="none" stroke="black" d="M789.721,-594.139C819.964,-608.061 857.744,-624.991 892,-639 903.241,-643.597 915.444,-648.275 926.975,-652.557"/>
<polygon fill="none" stroke="black" points="925.874,-655.881 936.467,-656.05 928.291,-649.312 925.874,-655.881"/>
<text text-anchor="middle" x="854" y="-634" font-family="Sans" font-size="10.00">requires</text>
</g>
<!-- configuration&#45;modules&#45;core#925 -->
<g id="node47" class="node"><title>configuration-modules-core#925</title>
<polygon fill="lightgrey" stroke="black" points="1059,-40.5 893,-40.5 893,0.5 1059,0.5 1059,-40.5"/>
<text text-anchor="middle" x="976" y="-17.5" font-family="Sans" font-size="10.00">configuration-modules-core#925</text>
</g>
<!-- configuration&#45;modules&#45;core#984&#45;&gt;configuration&#45;modules&#45;core#925 -->
<g id="edge44" class="edge"><title>configuration-modules-core#984-&gt;configuration-modules-core#925</title>
<path fill="none" stroke="black" d="M733.315,-539.769C738.6,-442.336 761.612,-113.131 834,-43 847.167,-30.2439 864.458,-22.9121 882.426,-18.9427"/>
<polygon fill="black" stroke="black" points="892.456,-17.0704 883.451,-23.3291 887.541,-17.988 882.625,-18.9055 882.625,-18.9055 882.625,-18.9055 887.541,-17.988 881.8,-14.482 892.456,-17.0704 892.456,-17.0704"/>
<text text-anchor="middle" x="854" y="-47" font-family="Sans" font-size="10.00">replaces</text>
</g>
<!-- configuration&#45;modules&#45;core#999 -->
<g id="node37" class="node"><title>configuration-modules-core#999</title>
<a xlink:href="https://github.com/quattor/configuration-modules-core/pull/999" xlink:title="ncm-grub: full overhaul" target="_parent">
<polygon fill="#6e5494" stroke="black" points="217,-469 51,-469 51,-415 217,-415 217,-469"/>
<text text-anchor="middle" x="134" y="-446" font-family="Sans" font-size="10.00">pull-request</text>
<text text-anchor="middle" x="134" y="-433" font-family="Sans" font-size="10.00">configuration-modules-core#999</text>
</a>
</g>
<!-- configuration&#45;modules&#45;core#232 -->
<g id="node39" class="node"><title>configuration-modules-core#232</title>
<a xlink:href="https://github.com/quattor/configuration-modules-core/issues/232" xlink:title="ncm-grub: full rewrite needed!" target="_parent">
<ellipse fill="#bd2c00" stroke="black" cx="450" cy="-484" rx="118.087" ry="38.1838"/>
<text text-anchor="middle" x="450" y="-488" font-family="Sans" font-size="10.00">issue</text>
<text text-anchor="middle" x="450" y="-475" font-family="Sans" font-size="10.00">configuration-modules-core#232</text>
</a>
</g>
<!-- configuration&#45;modules&#45;core#999&#45;&gt;configuration&#45;modules&#45;core#232 -->
<g id="edge32" class="edge"><title>configuration-modules-core#999-&gt;configuration-modules-core#232</title>
<path fill="none" stroke="black" d="M217.926,-446.648C247.149,-448.803 280.096,-451.835 310,-456 320.232,-457.425 330.844,-459.128 341.44,-460.982"/>
<polygon fill="black" stroke="black" points="341.12,-464.48 351.581,-462.8 342.356,-457.59 341.12,-464.48"/>
<text text-anchor="middle" x="290" y="-460" font-family="Sans" font-size="10.00">fixes</text>
</g>
<!-- configuration&#45;modules&#45;core#999&#45;&gt;configuration&#45;modules&#45;core#232 -->
<g id="edge40" class="edge"><title>configuration-modules-core#999-&gt;configuration-modules-core#232</title>
<path fill="none" stroke="black" d="M217.541,-460.127C234.824,-463.443 252.956,-466.606 270,-469 287.424,-471.448 305.857,-473.543 324.02,-475.323"/>
<polygon fill="black" stroke="black" points="323.788,-478.816 334.074,-476.279 324.451,-471.848 323.788,-478.816"/>
<text text-anchor="middle" x="290" y="-478" font-family="Sans" font-size="10.00">fixes</text>
</g>
<!-- configuration&#45;modules&#45;core#1000 -->
<g id="node41" class="node"><title>configuration-modules-core#1000</title>
<a xlink:href="https://github.com/quattor/configuration-modules-core/issues/1000" xlink:title="ncm-grub: drop non-multiboot support" target="_parent">
<ellipse fill="#bd2c00" stroke="black" cx="450" cy="-390" rx="121.122" ry="38.1838"/>
<text text-anchor="middle" x="450" y="-394" font-family="Sans" font-size="10.00">issue</text>
<text text-anchor="middle" x="450" y="-381" font-family="Sans" font-size="10.00">configuration-modules-core#1000</text>
</a>
</g>
<!-- configuration&#45;modules&#45;core#999&#45;&gt;configuration&#45;modules&#45;core#1000 -->
<g id="edge34" class="edge"><title>configuration-modules-core#999-&gt;configuration-modules-core#1000</title>
<path fill="none" stroke="black" d="M217.853,-428.201C252.932,-422.429 294.319,-415.618 332.36,-409.359"/>
<polygon fill="black" stroke="black" points="333.172,-412.772 342.471,-407.695 332.035,-405.865 333.172,-412.772"/>
<text text-anchor="middle" x="290" y="-424" font-family="Sans" font-size="10.00">fixes</text>
</g>
<!-- configuration&#45;modules&#45;core#999&#45;&gt;configuration&#45;modules&#45;core#1000 -->
<g id="edge42" class="edge"><title>configuration-modules-core#999-&gt;configuration-modules-core#1000</title>
<path fill="none" stroke="black" d="M205.424,-414.922C225.982,-408.22 248.632,-401.859 270,-398 285.55,-395.192 301.972,-393.181 318.317,-391.761"/>
<polygon fill="black" stroke="black" points="318.784,-395.235 328.475,-390.951 318.228,-388.257 318.784,-395.235"/>
<text text-anchor="middle" x="290" y="-402" font-family="Sans" font-size="10.00">fixes</text>
</g>
<!-- configuration&#45;modules&#45;core#950 -->
<g id="node49" class="node"><title>configuration-modules-core#950</title>
<a xlink:href="https://github.com/quattor/configuration-modules-core/issues/950" xlink:title="ncm-spma: Remove support for package groups from yum backends" target="_parent">
<ellipse fill="#6cc644" stroke="black" cx="134" cy="-1332" rx="118.087" ry="38.1838"/>
<text text-anchor="middle" x="134" y="-1336" font-family="Sans" font-size="10.00">issue</text>
<text text-anchor="middle" x="134" y="-1323" font-family="Sans" font-size="10.00">configuration-modules-core#950</text>
</a>
</g>
<!-- configuration&#45;modules&#45;core#951 -->
<g id="node51" class="node"><title>configuration-modules-core#951</title>
<a xlink:href="https://github.com/quattor/configuration-modules-core/issues/951" xlink:title="ncm-spma (yum): Remove support for package groups" target="_parent">
<ellipse fill="#6cc644" stroke="black" cx="450" cy="-1299" rx="118.087" ry="38.1838"/>
<text text-anchor="middle" x="450" y="-1303" font-family="Sans" font-size="10.00">issue</text>
<text text-anchor="middle" x="450" y="-1290" font-family="Sans" font-size="10.00">configuration-modules-core#951</text>
</a>
</g>
<!-- configuration&#45;modules&#45;core#950&#45;&gt;configuration&#45;modules&#45;core#951 -->
<g id="edge48" class="edge"><title>configuration-modules-core#950-&gt;configuration-modules-core#951</title>
<path fill="none" stroke="black" d="M246.3,-1320.27C272.569,-1317.53 300.682,-1314.59 327.376,-1311.81"/>
<polygon fill="none" stroke="black" points="327.948,-1315.27 337.53,-1310.75 327.221,-1308.3 327.948,-1315.27"/>
<text text-anchor="middle" x="290" y="-1322" font-family="Sans" font-size="10.00">requires</text>
</g>
<!-- configuration&#45;modules&#45;core#952 -->
<g id="node53" class="node"><title>configuration-modules-core#952</title>
<a xlink:href="https://github.com/quattor/configuration-modules-core/issues/952" xlink:title="ncm-spma (yumng): Remove support for package groups" target="_parent">
<ellipse fill="#6cc644" stroke="black" cx="450" cy="-1393" rx="118.087" ry="38.1838"/>
<text text-anchor="middle" x="450" y="-1397" font-family="Sans" font-size="10.00">issue</text>
<text text-anchor="middle" x="450" y="-1384" font-family="Sans" font-size="10.00">configuration-modules-core#952</text>
</a>
</g>
<!-- configuration&#45;modules&#45;core#950&#45;&gt;configuration&#45;modules&#45;core#952 -->
<g id="edge50" class="edge"><title>configuration-modules-core#950-&gt;configuration-modules-core#952</title>
<path fill="none" stroke="black" d="M235.288,-1351.55C268.314,-1357.93 305.151,-1365.04 338.859,-1371.55"/>
<polygon fill="none" stroke="black" points="338.261,-1374.99 348.743,-1373.45 339.588,-1368.12 338.261,-1374.99"/>
<text text-anchor="middle" x="290" y="-1369" font-family="Sans" font-size="10.00">requires</text>
</g>
<!-- configuration&#45;modules&#45;core#1009 -->
<g id="node54" class="node"><title>configuration-modules-core#1009</title>
<a xlink:href="https://github.com/quattor/configuration-modules-core/pull/1009" xlink:title="ncm-opennebula: Opennebula refactoring and AII code (WIP)" target="_parent">
<polygon fill="#6cc644" stroke="black" points="220,-1749 48,-1749 48,-1695 220,-1695 220,-1749"/>
<text text-anchor="middle" x="134" y="-1726" font-family="Sans" font-size="10.00">pull-request</text>
<text text-anchor="middle" x="134" y="-1713" font-family="Sans" font-size="10.00">configuration-modules-core#1009</text>
</a>
</g>
<!-- configuration&#45;modules&#45;core#978 -->
<g id="node56" class="node"><title>configuration-modules-core#978</title>
<a xlink:href="https://github.com/quattor/configuration-modules-core/issues/978" xlink:title="ncm-opennebula: include ONE AII code and refactoring" target="_parent">
<ellipse fill="#6cc644" stroke="black" cx="450" cy="-1769" rx="118.087" ry="38.1838"/>
<text text-anchor="middle" x="450" y="-1773" font-family="Sans" font-size="10.00">issue</text>
<text text-anchor="middle" x="450" y="-1760" font-family="Sans" font-size="10.00">configuration-modules-core#978</text>
</a>
</g>
<!-- configuration&#45;modules&#45;core#1009&#45;&gt;configuration&#45;modules&#45;core#978 -->
<g id="edge52" class="edge"><title>configuration-modules-core#1009-&gt;configuration-modules-core#978</title>
<path fill="none" stroke="black" d="M220.348,-1734.84C254.988,-1740 295.458,-1746.01 332.692,-1751.55"/>
<polygon fill="black" stroke="black" points="332.184,-1755.02 342.59,-1753.02 333.213,-1748.09 332.184,-1755.02"/>
<text text-anchor="middle" x="290" y="-1750" font-family="Sans" font-size="10.00">fix</text>
</g>
<!-- configuration&#45;modules&#45;core#1018 -->
<g id="node58" class="node"><title>configuration-modules-core#1018</title>
<a xlink:href="https://github.com/quattor/configuration-modules-core/issues/1018" xlink:title="ncm-opennebula: aii VNET methods create new AR instead of an update" target="_parent">
<ellipse fill="#6cc644" stroke="black" cx="450" cy="-1675" rx="121.122" ry="38.1838"/>
<text text-anchor="middle" x="450" y="-1679" font-family="Sans" font-size="10.00">issue</text>
<text text-anchor="middle" x="450" y="-1666" font-family="Sans" font-size="10.00">configuration-modules-core#1018</text>
</a>
</g>
<!-- configuration&#45;modules&#45;core#1009&#45;&gt;configuration&#45;modules&#45;core#1018 -->
<g id="edge54" class="edge"><title>configuration-modules-core#1009-&gt;configuration-modules-core#1018</title>
<path fill="none" stroke="black" d="M220.348,-1709.16C254.173,-1704.13 293.555,-1698.27 330.057,-1692.84"/>
<polygon fill="black" stroke="black" points="330.892,-1696.25 340.268,-1691.32 329.862,-1689.33 330.892,-1696.25"/>
<text text-anchor="middle" x="290" y="-1705" font-family="Sans" font-size="10.00">fix</text>
</g>
<!-- ncm&#45;lib&#45;blockdevices#76 -->
<g id="node59" class="node"><title>ncm-lib-blockdevices#76</title>
<a xlink:href="https://github.com/quattor/ncm-lib-blockdevices/pull/76" xlink:title="LV: force lvconvert by passing -y" target="_parent">
<polygon fill="#6cc644" stroke="black" points="202,-384 66,-384 66,-330 202,-330 202,-384"/>
<text text-anchor="middle" x="134" y="-361" font-family="Sans" font-size="10.00">pull-request</text>
<text text-anchor="middle" x="134" y="-348" font-family="Sans" font-size="10.00">ncm-lib-blockdevices#76</text>
</a>
</g>
<!-- ncm&#45;lib&#45;blockdevices#75 -->
<g id="node61" class="node"><title>ncm-lib-blockdevices#75</title>
<a xlink:href="https://github.com/quattor/ncm-lib-blockdevices/issues/75" xlink:title="lvconvert requires -y option" target="_parent">
<ellipse fill="#6cc644" stroke="black" cx="450" cy="-296" rx="96.1665" ry="38.1838"/>
<text text-anchor="middle" x="450" y="-300" font-family="Sans" font-size="10.00">issue</text>
<text text-anchor="middle" x="450" y="-287" font-family="Sans" font-size="10.00">ncm-lib-blockdevices#75</text>
</a>
</g>
<!-- ncm&#45;lib&#45;blockdevices#76&#45;&gt;ncm&#45;lib&#45;blockdevices#75 -->
<g id="edge56" class="edge"><title>ncm-lib-blockdevices#76-&gt;ncm-lib-blockdevices#75</title>
<path fill="none" stroke="black" d="M202.178,-343.839C246.396,-335.303 304.668,-324.055 353.597,-314.609"/>
<polygon fill="black" stroke="black" points="354.413,-318.017 363.569,-312.685 353.087,-311.143 354.413,-318.017"/>
<text text-anchor="middle" x="290" y="-335" font-family="Sans" font-size="10.00">fixes</text>
</g>
<!-- template&#45;library&#45;core#146 -->
<g id="node62" class="node"><title>template-library-core#146</title>
<a xlink:href="https://github.com/quattor/template-library-core/pull/146" xlink:title="Remove /system/oldnames from schema" target="_parent">
<polygon fill="#6e5494" stroke="black" points="203,-168 65,-168 65,-114 203,-114 203,-168"/>
<text text-anchor="middle" x="134" y="-145" font-family="Sans" font-size="10.00">pull-request</text>
<text text-anchor="middle" x="134" y="-132" font-family="Sans" font-size="10.00">template-library-core#146</text>
</a>
</g>
<!-- template&#45;library&#45;core#145 -->
<g id="node64" class="node"><title>template-library-core#145</title>
<polygon fill="lightgrey" stroke="black" points="519,-96.5 381,-96.5 381,-55.5 519,-55.5 519,-96.5"/>
<text text-anchor="middle" x="450" y="-73.5" font-family="Sans" font-size="10.00">template-library-core#145</text>
</g>
<!-- template&#45;library&#45;core#146&#45;&gt;template&#45;library&#45;core#145 -->
<g id="edge58" class="edge"><title>template-library-core#146-&gt;template-library-core#145</title>
<path fill="none" stroke="black" d="M203.348,-126.735C252.742,-116.575 319.226,-102.9 370.724,-92.3068"/>
<polygon fill="black" stroke="black" points="371.724,-95.6743 380.814,-90.2313 370.314,-88.8179 371.724,-95.6743"/>
<text text-anchor="middle" x="290" y="-117" font-family="Sans" font-size="10.00">resolves</text>
</g>
<!-- template&#45;library&#45;core#142 -->
<g id="node65" class="node"><title>template-library-core#142</title>
<a xlink:href="https://github.com/quattor/template-library-core/pull/142" xlink:title="Add structures to model operating system information" target="_parent">
<polygon fill="#6e5494" stroke="black" points="203,-312 65,-312 65,-258 203,-258 203,-312"/>
<text text-anchor="middle" x="134" y="-289" font-family="Sans" font-size="10.00">pull-request</text>
<text text-anchor="middle" x="134" y="-276" font-family="Sans" font-size="10.00">template-library-core#142</text>
</a>
</g>
<!-- template&#45;library&#45;core#143 -->
<g id="node67" class="node"><title>template-library-core#143</title>
<a xlink:href="https://github.com/quattor/template-library-core/pull/143" xlink:title="Add CPU architecture type definition" target="_parent">
<polygon fill="#6e5494" stroke="black" points="519,-240 381,-240 381,-186 519,-186 519,-240"/>
<text text-anchor="middle" x="450" y="-217" font-family="Sans" font-size="10.00">pull-request</text>
<text text-anchor="middle" x="450" y="-204" font-family="Sans" font-size="10.00">template-library-core#143</text>
</a>
</g>
<!-- template&#45;library&#45;core#142&#45;&gt;template&#45;library&#45;core#143 -->
<g id="edge60" class="edge"><title>template-library-core#142-&gt;template-library-core#143</title>
<path fill="none" stroke="black" d="M203.348,-269.199C252.844,-257.922 319.504,-242.733 371.046,-230.99"/>
<polygon fill="none" stroke="black" points="371.842,-234.398 380.814,-228.764 370.287,-227.573 371.842,-234.398"/>
<text text-anchor="middle" x="290" y="-258" font-family="Sans" font-size="10.00">requires</text>
</g>
<!-- template&#45;library&#45;core#139 -->
<g id="node68" class="node"><title>template-library-core#139</title>
<a xlink:href="https://github.com/quattor/template-library-core/pull/139" xlink:title="blockdevices: add correctness check configuration to physical devices" target="_parent">
<polygon fill="#6cc644" stroke="black" points="203,-240 65,-240 65,-186 203,-186 203,-240"/>
<text text-anchor="middle" x="134" y="-217" font-family="Sans" font-size="10.00">pull-request</text>
<text text-anchor="middle" x="134" y="-204" font-family="Sans" font-size="10.00">template-library-core#139</text>
</a>
</g>
<!-- ncm&#45;lib&#45;blockdevices#73 -->
<g id="node70" class="node"><title>ncm-lib-blockdevices#73</title>
<a xlink:href="https://github.com/quattor/ncm-lib-blockdevices/pull/73" xlink:title="Blockdevices: determine correct disksize using integers (not floats) in bash" target="_parent">
<polygon fill="#6e5494" stroke="black" points="518,-168 382,-168 382,-114 518,-114 518,-168"/>
<text text-anchor="middle" x="450" y="-145" font-family="Sans" font-size="10.00">pull-request</text>
<text text-anchor="middle" x="450" y="-132" font-family="Sans" font-size="10.00">ncm-lib-blockdevices#73</text>
</a>
</g>
<!-- template&#45;library&#45;core#139&#45;&gt;ncm&#45;lib&#45;blockdevices#73 -->
<g id="edge62" class="edge"><title>template-library-core#139-&gt;ncm-lib-blockdevices#73</title>
<path fill="none" stroke="black" d="M203.348,-197.199C253.186,-185.844 320.424,-170.524 372.11,-158.747"/>
<polygon fill="none" stroke="black" points="372.928,-162.15 381.901,-156.516 371.373,-155.325 372.928,-162.15"/>
<text text-anchor="middle" x="290" y="-186" font-family="Sans" font-size="10.00">requires</text>
</g>
</g>
</svg>
