<?xml version="1.0" encoding="UTF-8" standalone="no"?>
<?xml-stylesheet href="relationships.css" type="text/css"?>
<!-- Generated by graphviz version 2.40.1 (0)
 -->
<!-- Title: Dependencies Pages: 1 -->
<svg xmlns="http://www.w3.org/2000/svg" xmlns:xlink="http://www.w3.org/1999/xlink" width="489pt" height="191pt" viewBox="0.00 0.00 489.00 191.00">
<g id="graph0" class="graph" transform="scale(1 1) rotate(0) translate(4 187)">
<title>Dependencies</title>
<polygon fill="#ffffff" stroke="transparent" points="-4,4 -4,-187 485,-187 485,4 -4,4"/>
<g id="clust1" class="cluster">
<title>cluster_milestone_26.next</title>
<polygon fill="none" stroke="#000000" points="8,-8 8,-175 473,-175 473,-8 8,-8"/>
<text text-anchor="middle" x="240.5" y="-161.4" font-family="Sans" font-size="12.00" fill="#000000">26.next</text>
</g>
<!-- CAF#257 -->
<g id="node1" class="node">
<title>CAF#257</title>
<g id="a_node1"><a xlink:href="https://github.com/quattor/CAF/pull/257" xlink:title="CAF#257 (pull-request)" target="_parent">
<polygon fill="#6cc644" stroke="#000000" points="186,-140 16,-140 16,-90 186,-90 186,-140"/>
<text text-anchor="middle" x="101" y="-118" font-family="Sans" font-size="10.00" fill="#000000">Process: run process as another</text>
<text text-anchor="middle" x="101" y="-107" font-family="Sans" font-size="10.00" fill="#000000">user</text>
</a>
</g>
</g>
<!-- CAF#253 -->
<g id="node2" class="node">
<title>CAF#253</title>
<g id="a_node2"><a xlink:href="https://github.com/quattor/CAF/issues/253" xlink:title="CAF#253 (issue)" target="_parent">
<path fill="#6cc644" stroke="#000000" d="M453,-145.5C453,-145.5 306,-145.5 306,-145.5 300,-145.5 294,-139.5 294,-133.5 294,-133.5 294,-96.5 294,-96.5 294,-90.5 300,-84.5 306,-84.5 306,-84.5 453,-84.5 453,-84.5 459,-84.5 465,-90.5 465,-96.5 465,-96.5 465,-133.5 465,-133.5 465,-139.5 459,-145.5 453,-145.5"/>
<text text-anchor="middle" x="379.5" y="-123.5" font-family="Sans" font-size="10.00" fill="#000000">CAF::Process: Include an option</text>
<text text-anchor="middle" x="379.5" y="-112.5" font-family="Sans" font-size="10.00" fill="#000000">to execute the command as an</text>
<text text-anchor="middle" x="379.5" y="-101.5" font-family="Sans" font-size="10.00" fill="#000000">specific user</text>
</a>
</g>
</g>
<!-- CAF#257&#45;&gt;CAF#253 -->
<g id="edge1" class="edge">
<title>CAF#257-&gt;CAF#253</title>
<path fill="none" stroke="#000000" stroke-width="2" d="M186.0725,-115C216.9618,-115 252.065,-115 283.8097,-115"/>
<polygon fill="#000000" stroke="#000000" stroke-width="2" points="283.9889,-118.5001 293.9888,-115 283.9888,-111.5001 283.9889,-118.5001"/>
<text text-anchor="middle" x="229.0715" y="-107" font-family="Sans" font-size="10.00" fill="#000000">fixes</text>
</g>
<!-- configuration&#45;modules&#45;core#1864 -->
<g id="node3" class="node">
<title>configuration-modules-core#1864</title>
<g id="a_node3"><a xlink:href="https://github.com/quattor/configuration-modules-core/pull/1864" xlink:title="configuration-modules-core#1864 (pull-request)" target="_parent">
<polygon fill="#6cc644" stroke="#000000" points="185,-66 17,-66 17,-16 185,-16 185,-66"/>
<text text-anchor="middle" x="101" y="-44" font-family="Sans" font-size="10.00" fill="#000000">ncm-network: add option to skip</text>
<text text-anchor="middle" x="101" y="-33" font-family="Sans" font-size="10.00" fill="#000000">managing interface.</text>
</a>
</g>
</g>
<!-- configuration&#45;modules&#45;core#1858 -->
<g id="node4" class="node">
<title>configuration-modules-core#1858</title>
<g id="a_node4"><a xlink:href="https://github.com/quattor/configuration-modules-core/issues/1858" xlink:title="configuration-modules-core#1858 (issue)" target="_parent">
<path fill="#6cc644" stroke="#000000" d="M443.5,-66C443.5,-66 315.5,-66 315.5,-66 309.5,-66 303.5,-60 303.5,-54 303.5,-54 303.5,-28 303.5,-28 303.5,-22 309.5,-16 315.5,-16 315.5,-16 443.5,-16 443.5,-16 449.5,-16 455.5,-22 455.5,-28 455.5,-28 455.5,-54 455.5,-54 455.5,-60 449.5,-66 443.5,-66"/>
<text text-anchor="middle" x="379.5" y="-44" font-family="Sans" font-size="10.00" fill="#000000">ncm-network: option to not</text>
<text text-anchor="middle" x="379.5" y="-33" font-family="Sans" font-size="10.00" fill="#000000">manage interface using ncm</text>
</a>
</g>
</g>
<!-- configuration&#45;modules&#45;core#1864&#45;&gt;configuration&#45;modules&#45;core#1858 -->
<g id="edge2" class="edge">
<title>configuration-modules-core#1864-&gt;configuration-modules-core#1858</title>
<path fill="none" stroke="#000000" stroke-width="2" d="M185.315,-41C219.4119,-41 258.7423,-41 293.0523,-41"/>
<polygon fill="#000000" stroke="#000000" stroke-width="2" points="293.0562,-44.5001 303.0562,-41 293.0562,-37.5001 293.0562,-44.5001"/>
<text text-anchor="middle" x="233.2737" y="-33" font-family="Sans" font-size="10.00" fill="#000000">fixes</text>
</g>
</g>
</svg>
