<?xml version="1.0" encoding="UTF-8" standalone="no"?>
<?xml-stylesheet href="relationships.css" type="text/css"?>
<!-- Generated by graphviz version 2.26.0 (20091210.2329)
 -->
<!-- Title: Dependencies Pages: 1 -->
<svg xmlns="http://www.w3.org/2000/svg" xmlns:xlink="http://www.w3.org/1999/xlink" width="578pt" height="1865pt" viewBox="0.00 0.00 578.00 1865.00">
<g id="graph1" class="graph" transform="scale(1 1) rotate(0) translate(4 1861)">
<title>Dependencies</title>
<polygon fill="white" stroke="white" points="-4,5 -4,-1861 575,-1861 575,5 -4,5"/>
<g id="graph3" class="cluster"><title>cluster_18.3</title>
<polygon fill="none" stroke="black" points="24,-390 24,-1590 562,-1590 562,-390 24,-390"/>
<text text-anchor="middle" x="293" y="-1575.2" font-family="Sans" font-size="12.00">18.3</text>
</g>
<g id="graph4" class="cluster"><title>cluster_18.6</title>
<polygon fill="none" stroke="black" points="66,-50 66,-332 502,-332 502,-50 66,-50"/>
<text text-anchor="middle" x="284" y="-317.2" font-family="Sans" font-size="12.00">18.6</text>
</g>
<!-- aii#210 -->
<g id="node1" class="node"><title>aii#210</title>
<a xlink:href="https://github.com/quattor/aii/pull/210" xlink:title="Shellfe: support active config for plugins" target="_parent">
<polygon fill="#6cc644" stroke="black" points="157,-217 79,-217 79,-163 157,-163 157,-217"/>
<text text-anchor="middle" x="118" y="-194" font-family="Sans" font-size="10.00">pull-request</text>
<text text-anchor="middle" x="118" y="-181" font-family="Sans" font-size="10.00">aii#210</text>
</a>
</g>
<!-- aii#209 -->
<g id="node3" class="node"><title>aii#209</title>
<a xlink:href="https://github.com/quattor/aii/issues/209" xlink:title="support ACTIVE_CONFIG" target="_parent">
<ellipse fill="#6cc644" stroke="black" cx="432" cy="-190" rx="41.2167" ry="38.1838"/>
<text text-anchor="middle" x="432" y="-194" font-family="Sans" font-size="10.00">issue</text>
<text text-anchor="middle" x="432" y="-181" font-family="Sans" font-size="10.00">aii#209</text>
</a>
</g>
<!-- aii#210&#45;&gt;aii#209 -->
<g id="edge2" class="edge"><title>aii#210-&gt;aii#209</title>
<path fill="none" stroke="black" stroke-width="2" d="M157.768,-190C214.279,-190 317.868,-190 380.284,-190"/>
<polygon fill="black" stroke="black" points="380.31,-193.5 390.31,-190 380.31,-186.5 380.31,-193.5"/>
<text text-anchor="middle" x="273" y="-194" font-family="Sans" font-size="10.00">fixes</text>
</g>
<!-- ncm&#45;ncd#74 -->
<g id="node5" class="node"><title>ncm-ncd#74</title>
<a xlink:href="https://github.com/quattor/ncm-ncd/pull/74" xlink:title="Set the current active config as an attribute to the component" target="_parent">
<polygon fill="#6cc644" stroke="black" points="473,-300 391,-300 391,-246 473,-246 473,-300"/>
<text text-anchor="middle" x="432" y="-277" font-family="Sans" font-size="10.00">pull-request</text>
<text text-anchor="middle" x="432" y="-264" font-family="Sans" font-size="10.00">ncm-ncd#74</text>
</a>
</g>
<!-- aii#210&#45;&gt;ncm&#45;ncd#74 -->
<g id="edge4" class="edge"><title>aii#210-&gt;ncm-ncd#74</title>
<path fill="none" stroke="black" stroke-dasharray="5,2" d="M157.768,-200.512C214.435,-215.491 318.442,-242.983 380.801,-259.466"/>
<polygon fill="none" stroke="black" points="380.25,-262.941 390.813,-262.113 382.039,-256.173 380.25,-262.941"/>
<text text-anchor="middle" x="273" y="-238" font-family="Sans" font-size="10.00">requires</text>
</g>
<!-- aii#203 -->
<g id="node7" class="node"><title>aii#203</title>
<polygon fill="lightgrey" stroke="black" points="461,-40.5 403,-40.5 403,0.5 461,0.5 461,-40.5"/>
<text text-anchor="middle" x="432" y="-17.5" font-family="Sans" font-size="10.00">aii#203</text>
</g>
<!-- aii#210&#45;&gt;aii#203 -->
<g id="edge6" class="edge"><title>aii#210-&gt;aii#203</title>
<path fill="none" stroke="black" stroke-dasharray="5,2" d="M157.691,-179.189C183.256,-170.347 215.438,-155.412 236,-132 252.416,-113.308 238.303,-98.2991 254,-79 272.229,-56.5886 283.079,-56.48 310,-46 336.576,-35.6543 368.093,-29.0725 392.435,-25.1198"/>
<polygon fill="none" stroke="black" points="393.044,-28.5674 402.393,-23.5834 391.976,-21.6492 393.044,-28.5674"/>
<text text-anchor="middle" x="273" y="-83" font-family="Sans" font-size="10.00">requires</text>
</g>
<!-- CAF#257 -->
<g id="node8" class="node"><title>CAF#257</title>
<a xlink:href="https://github.com/quattor/CAF/pull/257" xlink:title="Process: run process as another user" target="_parent">
<polygon fill="#6cc644" stroke="black" points="157,-1547 79,-1547 79,-1493 157,-1493 157,-1547"/>
<text text-anchor="middle" x="118" y="-1524" font-family="Sans" font-size="10.00">pull-request</text>
<text text-anchor="middle" x="118" y="-1511" font-family="Sans" font-size="10.00">CAF#257</text>
</a>
</g>
<!-- CAF#253 -->
<g id="node10" class="node"><title>CAF#253</title>
<a xlink:href="https://github.com/quattor/CAF/issues/253" xlink:title="CAF::Process: Include an option to execute the command as an specific user" target="_parent">
<ellipse fill="#6cc644" stroke="black" cx="432" cy="-1520" rx="48.9975" ry="38.1838"/>
<text text-anchor="middle" x="432" y="-1524" font-family="Sans" font-size="10.00">issue</text>
<text text-anchor="middle" x="432" y="-1511" font-family="Sans" font-size="10.00">CAF#253</text>
</a>
</g>
<!-- CAF#257&#45;&gt;CAF#253 -->
<g id="edge8" class="edge"><title>CAF#257-&gt;CAF#253</title>
<path fill="none" stroke="black" stroke-width="2" d="M157.571,-1518.9C184.705,-1518.2 221.529,-1517.36 254,-1517 293.351,-1516.57 337.592,-1517.31 372.123,-1518.16"/>
<polygon fill="black" stroke="black" points="372.425,-1521.67 382.512,-1518.43 372.605,-1514.67 372.425,-1521.67"/>
<text text-anchor="middle" x="273" y="-1521" font-family="Sans" font-size="10.00">fixes</text>
</g>
<!-- CAF#110 -->
<g id="node11" class="node"><title>CAF#110</title>
<a xlink:href="https://github.com/quattor/CAF/pull/110" xlink:title="Download: API proposal" target="_parent">
<polygon fill="#6cc644" stroke="black" points="157,-1652 79,-1652 79,-1598 157,-1598 157,-1652"/>
<text text-anchor="middle" x="118" y="-1629" font-family="Sans" font-size="10.00">pull-request</text>
<text text-anchor="middle" x="118" y="-1616" font-family="Sans" font-size="10.00">CAF#110</text>
</a>
</g>
<!-- CAF#120 -->
<g id="node13" class="node"><title>CAF#120</title>
<polygon fill="lightgrey" stroke="black" points="467,-1645.5 397,-1645.5 397,-1604.5 467,-1604.5 467,-1645.5"/>
<text text-anchor="middle" x="432" y="-1622.5" font-family="Sans" font-size="10.00">CAF#120</text>
</g>
<!-- CAF#110&#45;&gt;CAF#120 -->
<g id="edge10" class="edge"><title>CAF#110-&gt;CAF#120</title>
<path fill="none" stroke="black" stroke-dasharray="5,2" d="M157.768,-1625C216.269,-1625 325.221,-1625 386.719,-1625"/>
<polygon fill="none" stroke="black" points="386.897,-1628.5 396.897,-1625 386.897,-1621.5 386.897,-1628.5"/>
<text text-anchor="middle" x="273" y="-1629" font-family="Sans" font-size="10.00">requires</text>
</g>
<!-- configuration&#45;modules&#45;core#1236 -->
<g id="node14" class="node"><title>configuration-modules-core#1236</title>
<a xlink:href="https://github.com/quattor/configuration-modules-core/pull/1236" xlink:title="ncm-spma: yum: Expose support for multiple reposdirs" target="_parent">
<polygon fill="#6e5494" stroke="black" points="204,-1460 32,-1460 32,-1406 204,-1406 204,-1460"/>
<text text-anchor="middle" x="118" y="-1437" font-family="Sans" font-size="10.00">pull-request</text>
<text text-anchor="middle" x="118" y="-1424" font-family="Sans" font-size="10.00">configuration-modules-core#1236</text>
</a>
</g>
<!-- configuration&#45;modules&#45;core#1075 -->
<g id="node16" class="node"><title>configuration-modules-core#1075</title>
<a xlink:href="https://github.com/quattor/configuration-modules-core/pull/1075" xlink:title="ncm-spma (yum): Allow unmanaged repositories to be controlled seperately from packages" target="_parent">
<polygon fill="#6e5494" stroke="black" points="518,-1464 346,-1464 346,-1410 518,-1410 518,-1464"/>
<text text-anchor="middle" x="432" y="-1441" font-family="Sans" font-size="10.00">pull-request</text>
<text text-anchor="middle" x="432" y="-1428" font-family="Sans" font-size="10.00">configuration-modules-core#1075</text>
</a>
</g>
<!-- configuration&#45;modules&#45;core#1236&#45;&gt;configuration&#45;modules&#45;core#1075 -->
<g id="edge42" class="edge"><title>configuration-modules-core#1236-&gt;configuration-modules-core#1075</title>
<path fill="none" stroke="black" stroke-dasharray="1,5" d="M204.216,-1422.05C220.715,-1420.36 237.871,-1418.89 254,-1418 280.553,-1416.54 309.242,-1418.18 335.673,-1421.01"/>
<polygon fill="black" stroke="black" points="345.683,-1422.15 335.238,-1425.49 340.715,-1421.58 335.747,-1421.02 335.747,-1421.02 335.747,-1421.02 340.715,-1421.58 336.256,-1416.55 345.683,-1422.15 345.683,-1422.15"/>
<text text-anchor="middle" x="273" y="-1422" font-family="Sans" font-size="10.00">replaces</text>
</g>
<!-- configuration&#45;modules&#45;core#1236&#45;&gt;configuration&#45;modules&#45;core#1075 -->
<g id="edge12" class="edge"><title>configuration-modules-core#1236-&gt;configuration-modules-core#1075</title>
<path fill="none" stroke="black" stroke-dasharray="1,5" d="M204.217,-1434.1C244.975,-1434.62 293.781,-1435.24 335.743,-1435.77"/>
<polygon fill="black" stroke="black" points="345.975,-1435.9 335.919,-1440.28 340.976,-1435.84 335.976,-1435.78 335.976,-1435.78 335.976,-1435.78 340.976,-1435.84 336.033,-1431.28 345.975,-1435.9 345.975,-1435.9"/>
<text text-anchor="middle" x="273" y="-1440" font-family="Sans" font-size="10.00">replaces</text>
</g>
<!-- configuration&#45;modules&#45;core#1235 -->
<g id="node17" class="node"><title>configuration-modules-core#1235</title>
<a xlink:href="https://github.com/quattor/configuration-modules-core/pull/1235" xlink:title="ncm-ofed: import CAF::Service and enable NoActionSupported" target="_parent">
<polygon fill="#6e5494" stroke="black" points="204,-1371 32,-1371 32,-1317 204,-1317 204,-1371"/>
<text text-anchor="middle" x="118" y="-1348" font-family="Sans" font-size="10.00">pull-request</text>
<text text-anchor="middle" x="118" y="-1335" font-family="Sans" font-size="10.00">configuration-modules-core#1235</text>
</a>
</g>
<!-- configuration&#45;modules&#45;core#1234 -->
<g id="node19" class="node"><title>configuration-modules-core#1234</title>
<a xlink:href="https://github.com/quattor/configuration-modules-core/issues/1234" xlink:title="ncm-ofed: no loading of CAF::Service" target="_parent">
<ellipse fill="#bd2c00" stroke="black" cx="432" cy="-1354" rx="121.122" ry="38.1838"/>
<text text-anchor="middle" x="432" y="-1358" font-family="Sans" font-size="10.00">issue</text>
<text text-anchor="middle" x="432" y="-1345" font-family="Sans" font-size="10.00">configuration-modules-core#1234</text>
</a>
</g>
<!-- configuration&#45;modules&#45;core#1235&#45;&gt;configuration&#45;modules&#45;core#1234 -->
<g id="edge44" class="edge"><title>configuration-modules-core#1235-&gt;configuration-modules-core#1234</title>
<path fill="none" stroke="black" stroke-width="2" d="M204.258,-1335.24C220.754,-1333.89 237.898,-1332.71 254,-1332 270.873,-1331.26 275.162,-1330.69 292,-1332 299.675,-1332.6 307.565,-1333.38 315.503,-1334.29"/>
<polygon fill="black" stroke="black" points="315.224,-1337.78 325.572,-1335.51 316.064,-1330.83 315.224,-1337.78"/>
<text text-anchor="middle" x="273" y="-1336" font-family="Sans" font-size="10.00">fixes</text>
</g>
<!-- configuration&#45;modules&#45;core#1235&#45;&gt;configuration&#45;modules&#45;core#1234 -->
<g id="edge14" class="edge"><title>configuration-modules-core#1235-&gt;configuration-modules-core#1234</title>
<path fill="none" stroke="black" stroke-width="2" d="M204.217,-1346.75C234.08,-1347.7 268.265,-1348.79 300.912,-1349.83"/>
<polygon fill="black" stroke="black" points="300.881,-1353.33 310.988,-1350.15 301.104,-1346.33 300.881,-1353.33"/>
<text text-anchor="middle" x="273" y="-1354" font-family="Sans" font-size="10.00">fixes</text>
</g>
<!-- configuration&#45;modules&#45;core#1230 -->
<g id="node20" class="node"><title>configuration-modules-core#1230</title>
<a xlink:href="https://github.com/quattor/configuration-modules-core/pull/1230" xlink:title="ncm-ceph: support for luminous, bluestore, ceph-volume and per host osd deployment" target="_parent">
<polygon fill="#6cc644" stroke="black" points="204,-1048 32,-1048 32,-994 204,-994 204,-1048"/>
<text text-anchor="middle" x="118" y="-1025" font-family="Sans" font-size="10.00">pull-request</text>
<text text-anchor="middle" x="118" y="-1012" font-family="Sans" font-size="10.00">configuration-modules-core#1230</text>
</a>
</g>
<!-- configuration&#45;modules&#45;core#1224 -->
<g id="node22" class="node"><title>configuration-modules-core#1224</title>
<polygon fill="lightgrey" stroke="black" points="518,-380.5 346,-380.5 346,-339.5 518,-339.5 518,-380.5"/>
<text text-anchor="middle" x="432" y="-357.5" font-family="Sans" font-size="10.00">configuration-modules-core#1224</text>
</g>
<!-- configuration&#45;modules&#45;core#1230&#45;&gt;configuration&#45;modules&#45;core#1224 -->
<g id="edge46" class="edge"><title>configuration-modules-core#1230-&gt;configuration-modules-core#1224</title>
<path fill="none" stroke="black" stroke-dasharray="1,5" d="M140.671,-993.771C168.985,-957.921 216.117,-891.712 236,-826 249.335,-781.93 228.391,-450.265 254,-412 272.256,-384.722 304.203,-370.924 336.04,-364.195"/>
<polygon fill="black" stroke="black" points="345.902,-362.326 336.914,-368.609 340.989,-363.257 336.077,-364.188 336.077,-364.188 336.077,-364.188 340.989,-363.257 335.239,-359.766 345.902,-362.326 345.902,-362.326"/>
<text text-anchor="middle" x="273" y="-416" font-family="Sans" font-size="10.00">replaces</text>
</g>
<!-- configuration&#45;modules&#45;core#1230&#45;&gt;configuration&#45;modules&#45;core#1224 -->
<g id="edge16" class="edge"><title>configuration-modules-core#1230-&gt;configuration-modules-core#1224</title>
<path fill="none" stroke="black" stroke-dasharray="1,5" d="M140.72,-993.786C169.086,-957.952 216.274,-891.759 236,-826 243.428,-801.237 235.42,-378.976 254,-361 279.976,-335.869 319.369,-333.492 354.498,-338.323"/>
<polygon fill="black" stroke="black" points="364.76,-339.95 354.178,-342.829 359.821,-339.167 354.883,-338.384 354.883,-338.384 354.883,-338.384 359.821,-339.167 355.588,-333.94 364.76,-339.95 364.76,-339.95"/>
<text text-anchor="middle" x="273" y="-365" font-family="Sans" font-size="10.00">replaces</text>
</g>
<!-- configuration&#45;modules&#45;core#740 -->
<g id="node24" class="node"><title>configuration-modules-core#740</title>
<a xlink:href="https://github.com/quattor/configuration-modules-core/issues/740" xlink:title="ncm-ceph: add boolean to disable osd features" target="_parent">
<ellipse fill="#6cc644" stroke="black" cx="432" cy="-1072" rx="118.087" ry="38.1838"/>
<text text-anchor="middle" x="432" y="-1076" font-family="Sans" font-size="10.00">issue</text>
<text text-anchor="middle" x="432" y="-1063" font-family="Sans" font-size="10.00">configuration-modules-core#740</text>
</a>
</g>
<!-- configuration&#45;modules&#45;core#1230&#45;&gt;configuration&#45;modules&#45;core#740 -->
<g id="edge48" class="edge"><title>configuration-modules-core#1230-&gt;configuration-modules-core#740</title>
<path fill="none" stroke="black" stroke-width="2" d="M204.004,-1042.95C220.523,-1046.67 237.74,-1050.23 254,-1053 271.32,-1055.95 289.67,-1058.52 307.751,-1060.74"/>
<polygon fill="black" stroke="black" points="307.415,-1064.23 317.76,-1061.94 308.247,-1057.28 307.415,-1064.23"/>
<text text-anchor="middle" x="273" y="-1063" font-family="Sans" font-size="10.00">fixes</text>
</g>
<!-- configuration&#45;modules&#45;core#1230&#45;&gt;configuration&#45;modules&#45;core#740 -->
<g id="edge18" class="edge"><title>configuration-modules-core#1230-&gt;configuration-modules-core#740</title>
<path fill="none" stroke="black" stroke-width="2" d="M204.12,-1028.41C232.231,-1031.36 263.532,-1035.21 292,-1040 303.621,-1041.96 315.723,-1044.28 327.733,-1046.77"/>
<polygon fill="black" stroke="black" points="327.279,-1050.25 337.787,-1048.9 328.727,-1043.4 327.279,-1050.25"/>
<text text-anchor="middle" x="273" y="-1044" font-family="Sans" font-size="10.00">fixes</text>
</g>
<!-- configuration&#45;modules&#45;core#741 -->
<g id="node26" class="node"><title>configuration-modules-core#741</title>
<a xlink:href="https://github.com/quattor/configuration-modules-core/issues/741" xlink:title="ncm-ceph: check possibilities to rescale ceph in Jewel" target="_parent">
<ellipse fill="#6cc644" stroke="black" cx="432" cy="-884" rx="118.087" ry="38.1838"/>
<text text-anchor="middle" x="432" y="-888" font-family="Sans" font-size="10.00">issue</text>
<text text-anchor="middle" x="432" y="-875" font-family="Sans" font-size="10.00">configuration-modules-core#741</text>
</a>
</g>
<!-- configuration&#45;modules&#45;core#1230&#45;&gt;configuration&#45;modules&#45;core#741 -->
<g id="edge50" class="edge"><title>configuration-modules-core#1230-&gt;configuration-modules-core#741</title>
<path fill="none" stroke="black" stroke-width="2" d="M145.143,-993.944C170.921,-969.885 211.897,-935.705 254,-917 271.691,-909.14 291.174,-903.152 310.561,-898.591"/>
<polygon fill="black" stroke="black" points="311.374,-901.995 320.37,-896.398 309.848,-895.164 311.374,-901.995"/>
<text text-anchor="middle" x="273" y="-921" font-family="Sans" font-size="10.00">fixes</text>
</g>
<!-- configuration&#45;modules&#45;core#1230&#45;&gt;configuration&#45;modules&#45;core#741 -->
<g id="edge20" class="edge"><title>configuration-modules-core#1230-&gt;configuration-modules-core#741</title>
<path fill="none" stroke="black" stroke-width="2" d="M163.352,-993.976C189.37,-979.073 222.942,-960.842 254,-947 280.784,-935.063 310.584,-923.776 338.021,-914.142"/>
<polygon fill="black" stroke="black" points="339.323,-917.395 347.619,-910.805 337.024,-910.784 339.323,-917.395"/>
<text text-anchor="middle" x="273" y="-951" font-family="Sans" font-size="10.00">fixes</text>
</g>
<!-- configuration&#45;modules&#45;core#742 -->
<g id="node28" class="node"><title>configuration-modules-core#742</title>
<a xlink:href="https://github.com/quattor/configuration-modules-core/issues/742" xlink:title="ncm-ceph: allow control over deploying admin keyrings along with ceph.conf" target="_parent">
<ellipse fill="#6cc644" stroke="black" cx="432" cy="-1260" rx="118.087" ry="38.1838"/>
<text text-anchor="middle" x="432" y="-1264" font-family="Sans" font-size="10.00">issue</text>
<text text-anchor="middle" x="432" y="-1251" font-family="Sans" font-size="10.00">configuration-modules-core#742</text>
</a>
</g>
<!-- configuration&#45;modules&#45;core#1230&#45;&gt;configuration&#45;modules&#45;core#742 -->
<g id="edge22" class="edge"><title>configuration-modules-core#1230-&gt;configuration-modules-core#742</title>
<path fill="none" stroke="black" stroke-width="2" d="M129.148,-1048.22C148.145,-1091.07 190.959,-1173.81 254,-1217 271.208,-1228.79 291.287,-1237.36 311.635,-1243.59"/>
<polygon fill="black" stroke="black" points="310.735,-1246.97 321.313,-1246.37 312.672,-1240.24 310.735,-1246.97"/>
<text text-anchor="middle" x="273" y="-1240" font-family="Sans" font-size="10.00">fixes</text>
</g>
<!-- configuration&#45;modules&#45;core#1230&#45;&gt;configuration&#45;modules&#45;core#742 -->
<g id="edge52" class="edge"><title>configuration-modules-core#1230-&gt;configuration-modules-core#742</title>
<path fill="none" stroke="black" stroke-width="2" d="M142.512,-1048.28C185.226,-1095.32 272.335,-1188.99 310,-1213 319.086,-1218.79 328.997,-1224.05 339.114,-1228.78"/>
<polygon fill="black" stroke="black" points="337.89,-1232.06 348.446,-1232.97 340.757,-1225.68 337.89,-1232.06"/>
<text text-anchor="middle" x="273" y="-1201" font-family="Sans" font-size="10.00">fixes</text>
</g>
<!-- configuration&#45;modules&#45;core#743 -->
<g id="node30" class="node"><title>configuration-modules-core#743</title>
<a xlink:href="https://github.com/quattor/configuration-modules-core/issues/743" xlink:title="ncm-ceph: check admin keyring is current before running ceph-deploy admin" target="_parent">
<ellipse fill="#6cc644" stroke="black" cx="432" cy="-978" rx="118.087" ry="38.1838"/>
<text text-anchor="middle" x="432" y="-982" font-family="Sans" font-size="10.00">issue</text>
<text text-anchor="middle" x="432" y="-969" font-family="Sans" font-size="10.00">configuration-modules-core#743</text>
</a>
</g>
<!-- configuration&#45;modules&#45;core#1230&#45;&gt;configuration&#45;modules&#45;core#743 -->
<g id="edge24" class="edge"><title>configuration-modules-core#1230-&gt;configuration-modules-core#743</title>
<path fill="none" stroke="black" stroke-width="2" d="M173.518,-993.972C197.643,-983.659 226.605,-973.149 254,-968 272.78,-964.47 292.854,-963.224 312.507,-963.366"/>
<polygon fill="black" stroke="black" points="312.671,-966.87 322.736,-963.562 312.805,-959.871 312.671,-966.87"/>
<text text-anchor="middle" x="273" y="-972" font-family="Sans" font-size="10.00">fixes</text>
</g>
<!-- configuration&#45;modules&#45;core#1230&#45;&gt;configuration&#45;modules&#45;core#743 -->
<g id="edge54" class="edge"><title>configuration-modules-core#1230-&gt;configuration-modules-core#743</title>
<path fill="none" stroke="black" stroke-width="2" d="M204.217,-1009.19C237.823,-1004.59 276.9,-999.24 313.102,-994.282"/>
<polygon fill="black" stroke="black" points="313.796,-997.72 323.229,-992.895 312.847,-990.785 313.796,-997.72"/>
<text text-anchor="middle" x="273" y="-1007" font-family="Sans" font-size="10.00">fixes</text>
</g>
<!-- configuration&#45;modules&#45;core#776 -->
<g id="node32" class="node"><title>configuration-modules-core#776</title>
<a xlink:href="https://github.com/quattor/configuration-modules-core/issues/776" xlink:title="ncm-ceph: ceph mds stat output redesigned on Jewel" target="_parent">
<ellipse fill="#6cc644" stroke="black" cx="432" cy="-1166" rx="118.087" ry="38.1838"/>
<text text-anchor="middle" x="432" y="-1170" font-family="Sans" font-size="10.00">issue</text>
<text text-anchor="middle" x="432" y="-1157" font-family="Sans" font-size="10.00">configuration-modules-core#776</text>
</a>
</g>
<!-- configuration&#45;modules&#45;core#1230&#45;&gt;configuration&#45;modules&#45;core#776 -->
<g id="edge26" class="edge"><title>configuration-modules-core#1230-&gt;configuration-modules-core#776</title>
<path fill="none" stroke="black" stroke-width="2" d="M167.437,-1048.03C205.811,-1068.58 260.618,-1096.96 310,-1119 321.121,-1123.96 332.94,-1128.91 344.675,-1133.63"/>
<polygon fill="black" stroke="black" points="343.469,-1136.92 354.054,-1137.37 346.057,-1130.42 343.469,-1136.92"/>
<text text-anchor="middle" x="273" y="-1114" font-family="Sans" font-size="10.00">fixes</text>
</g>
<!-- configuration&#45;modules&#45;core#1230&#45;&gt;configuration&#45;modules&#45;core#776 -->
<g id="edge56" class="edge"><title>configuration-modules-core#1230-&gt;configuration-modules-core#776</title>
<path fill="none" stroke="black" stroke-width="2" d="M144.94,-1048.04C170.736,-1072.36 211.862,-1107.22 254,-1127 272.789,-1135.82 293.639,-1142.68 314.259,-1148.01"/>
<polygon fill="black" stroke="black" points="313.482,-1151.42 324.03,-1150.42 315.163,-1144.62 313.482,-1151.42"/>
<text text-anchor="middle" x="273" y="-1146" font-family="Sans" font-size="10.00">fixes</text>
</g>
<!-- configuration&#45;modules&#45;core#1220 -->
<g id="node33" class="node"><title>configuration-modules-core#1220</title>
<a xlink:href="https://github.com/quattor/configuration-modules-core/pull/1220" xlink:title="ncm-cups: Stop daemon if server not enabled" target="_parent">
<polygon fill="#6e5494" stroke="black" points="204,-817 32,-817 32,-763 204,-763 204,-817"/>
<text text-anchor="middle" x="118" y="-794" font-family="Sans" font-size="10.00">pull-request</text>
<text text-anchor="middle" x="118" y="-781" font-family="Sans" font-size="10.00">configuration-modules-core#1220</text>
</a>
</g>
<!-- configuration&#45;modules&#45;core#1189 -->
<g id="node35" class="node"><title>configuration-modules-core#1189</title>
<a xlink:href="https://github.com/quattor/configuration-modules-core/issues/1189" xlink:title="ncm-cups: Nodetype of client should stop running cups daemon" target="_parent">
<ellipse fill="#bd2c00" stroke="black" cx="432" cy="-790" rx="121.122" ry="38.1838"/>
<text text-anchor="middle" x="432" y="-794" font-family="Sans" font-size="10.00">issue</text>
<text text-anchor="middle" x="432" y="-781" font-family="Sans" font-size="10.00">configuration-modules-core#1189</text>
</a>
</g>
<!-- configuration&#45;modules&#45;core#1220&#45;&gt;configuration&#45;modules&#45;core#1189 -->
<g id="edge28" class="edge"><title>configuration-modules-core#1220-&gt;configuration-modules-core#1189</title>
<path fill="none" stroke="black" stroke-width="2" d="M204.182,-777.588C220.685,-775.676 237.851,-774.005 254,-773 272.601,-771.842 292.267,-772.162 311.475,-773.331"/>
<polygon fill="black" stroke="black" points="311.254,-776.824 321.47,-774.016 311.733,-769.84 311.254,-776.824"/>
<text text-anchor="middle" x="273" y="-777" font-family="Sans" font-size="10.00">fixes</text>
</g>
<!-- configuration&#45;modules&#45;core#1220&#45;&gt;configuration&#45;modules&#45;core#1189 -->
<g id="edge58" class="edge"><title>configuration-modules-core#1220-&gt;configuration-modules-core#1189</title>
<path fill="none" stroke="black" stroke-width="2" d="M204.217,-790C233.916,-790 267.888,-790 300.372,-790"/>
<polygon fill="black" stroke="black" points="300.399,-793.5 310.399,-790 300.399,-786.5 300.399,-793.5"/>
<text text-anchor="middle" x="273" y="-794" font-family="Sans" font-size="10.00">fixes</text>
</g>
<!-- configuration&#45;modules&#45;core#1105 -->
<g id="node36" class="node"><title>configuration-modules-core#1105</title>
<a xlink:href="https://github.com/quattor/configuration-modules-core/pull/1105" xlink:title="ncm-authconfig: fix krb5_realm, user_object_class and newline between ldap_krb5_canonicalize and ldap_krb5_realm" target="_parent">
<polygon fill="#6cc644" stroke="black" points="204,-628 32,-628 32,-574 204,-574 204,-628"/>
<text text-anchor="middle" x="118" y="-605" font-family="Sans" font-size="10.00">pull-request</text>
<text text-anchor="middle" x="118" y="-592" font-family="Sans" font-size="10.00">configuration-modules-core#1105</text>
</a>
</g>
<!-- configuration&#45;modules&#45;core#1100 -->
<g id="node38" class="node"><title>configuration-modules-core#1100</title>
<a xlink:href="https://github.com/quattor/configuration-modules-core/issues/1100" xlink:title="ncm-authconfig : no newline after krb5_canonicalize option" target="_parent">
<ellipse fill="#6cc644" stroke="black" cx="432" cy="-508" rx="121.122" ry="38.1838"/>
<text text-anchor="middle" x="432" y="-512" font-family="Sans" font-size="10.00">issue</text>
<text text-anchor="middle" x="432" y="-499" font-family="Sans" font-size="10.00">configuration-modules-core#1100</text>
</a>
</g>
<!-- configuration&#45;modules&#45;core#1105&#45;&gt;configuration&#45;modules&#45;core#1100 -->
<g id="edge30" class="edge"><title>configuration-modules-core#1105-&gt;configuration-modules-core#1100</title>
<path fill="none" stroke="black" stroke-width="2" d="M204.217,-575.464C244.304,-563.591 292.178,-549.412 333.668,-537.124"/>
<polygon fill="black" stroke="black" points="334.922,-540.403 343.516,-534.207 332.934,-533.691 334.922,-540.403"/>
<text text-anchor="middle" x="273" y="-565" font-family="Sans" font-size="10.00">fixes</text>
</g>
<!-- configuration&#45;modules&#45;core#1105&#45;&gt;configuration&#45;modules&#45;core#1100 -->
<g id="edge60" class="edge"><title>configuration-modules-core#1105-&gt;configuration-modules-core#1100</title>
<path fill="none" stroke="black" stroke-width="2" d="M164.709,-573.988C190.307,-560.313 223.047,-544.615 254,-535 270.874,-529.758 288.976,-525.515 306.94,-522.085"/>
<polygon fill="black" stroke="black" points="307.691,-525.506 316.897,-520.262 306.43,-518.62 307.691,-525.506"/>
<text text-anchor="middle" x="273" y="-539" font-family="Sans" font-size="10.00">fixes</text>
</g>
<!-- configuration&#45;modules&#45;core#1102 -->
<g id="node40" class="node"><title>configuration-modules-core#1102</title>
<a xlink:href="https://github.com/quattor/configuration-modules-core/issues/1102" xlink:title="ncm-authconfig: There is no " target="_parent">
<ellipse fill="#6cc644" stroke="black" cx="432" cy="-602" rx="121.122" ry="38.1838"/>
<text text-anchor="middle" x="432" y="-606" font-family="Sans" font-size="10.00">issue</text>
<text text-anchor="middle" x="432" y="-593" font-family="Sans" font-size="10.00">configuration-modules-core#1102</text>
</a>
</g>
<!-- configuration&#45;modules&#45;core#1105&#45;&gt;configuration&#45;modules&#45;core#1102 -->
<g id="edge32" class="edge"><title>configuration-modules-core#1105-&gt;configuration-modules-core#1102</title>
<path fill="none" stroke="black" stroke-width="2" d="M204.217,-601.275C233.916,-601.369 267.888,-601.477 300.372,-601.581"/>
<polygon fill="black" stroke="black" points="300.388,-605.081 310.399,-601.613 300.41,-598.081 300.388,-605.081"/>
<text text-anchor="middle" x="273" y="-606" font-family="Sans" font-size="10.00">fixes</text>
</g>
<!-- configuration&#45;modules&#45;core#1105&#45;&gt;configuration&#45;modules&#45;core#1102 -->
<g id="edge62" class="edge"><title>configuration-modules-core#1105-&gt;configuration-modules-core#1102</title>
<path fill="none" stroke="black" stroke-width="2" d="M204.2,-589.318C220.701,-587.518 237.861,-585.946 254,-585 272.605,-583.909 292.273,-584.265 311.482,-585.449"/>
<polygon fill="black" stroke="black" points="311.26,-588.942 321.478,-586.14 311.743,-581.959 311.26,-588.942"/>
<text text-anchor="middle" x="273" y="-589" font-family="Sans" font-size="10.00">fixes</text>
</g>
<!-- configuration&#45;modules&#45;core#1103 -->
<g id="node42" class="node"><title>configuration-modules-core#1103</title>
<a xlink:href="https://github.com/quattor/configuration-modules-core/issues/1103" xlink:title="ncm-authconfig: krb5_realm = ARRAY(0x39a5830)" target="_parent">
<ellipse fill="#6cc644" stroke="black" cx="432" cy="-696" rx="121.122" ry="38.1838"/>
<text text-anchor="middle" x="432" y="-700" font-family="Sans" font-size="10.00">issue</text>
<text text-anchor="middle" x="432" y="-687" font-family="Sans" font-size="10.00">configuration-modules-core#1103</text>
</a>
</g>
<!-- configuration&#45;modules&#45;core#1105&#45;&gt;configuration&#45;modules&#45;core#1103 -->
<g id="edge34" class="edge"><title>configuration-modules-core#1105-&gt;configuration-modules-core#1103</title>
<path fill="none" stroke="black" stroke-width="2" d="M204.217,-627.085C244.726,-639.341 293.186,-654.002 334.974,-666.645"/>
<polygon fill="black" stroke="black" points="334.026,-670.015 344.611,-669.561 336.053,-663.315 334.026,-670.015"/>
<text text-anchor="middle" x="273" y="-656" font-family="Sans" font-size="10.00">fixes</text>
</g>
<!-- configuration&#45;modules&#45;core#1105&#45;&gt;configuration&#45;modules&#45;core#1103 -->
<g id="edge64" class="edge"><title>configuration-modules-core#1105-&gt;configuration-modules-core#1103</title>
<path fill="none" stroke="black" stroke-width="2" d="M163.066,-628.018C188.853,-642.315 222.295,-658.945 254,-669 270.717,-674.301 288.657,-678.576 306.481,-682.019"/>
<polygon fill="black" stroke="black" points="305.893,-685.47 316.363,-683.848 307.166,-678.587 305.893,-685.47"/>
<text text-anchor="middle" x="273" y="-682" font-family="Sans" font-size="10.00">fixes</text>
</g>
<!-- configuration&#45;modules&#45;core#1148 -->
<g id="node43" class="node"><title>configuration-modules-core#1148</title>
<a xlink:href="https://github.com/quattor/configuration-modules-core/pull/1148" xlink:title="ncm-spma: Remove support from groups from spma yumng backend" target="_parent">
<polygon fill="#6cc644" stroke="black" points="204,-1857 32,-1857 32,-1803 204,-1803 204,-1857"/>
<text text-anchor="middle" x="118" y="-1834" font-family="Sans" font-size="10.00">pull-request</text>
<text text-anchor="middle" x="118" y="-1821" font-family="Sans" font-size="10.00">configuration-modules-core#1148</text>
</a>
</g>
<!-- configuration&#45;modules&#45;core#952 -->
<g id="node45" class="node"><title>configuration-modules-core#952</title>
<a xlink:href="https://github.com/quattor/configuration-modules-core/issues/952" xlink:title="ncm-spma (yumng): Remove support for package groups" target="_parent">
<ellipse fill="#6cc644" stroke="black" cx="432" cy="-1807" rx="118.087" ry="38.1838"/>
<text text-anchor="middle" x="432" y="-1811" font-family="Sans" font-size="10.00">issue</text>
<text text-anchor="middle" x="432" y="-1798" font-family="Sans" font-size="10.00">configuration-modules-core#952</text>
</a>
</g>
<!-- configuration&#45;modules&#45;core#1148&#45;&gt;configuration&#45;modules&#45;core#952 -->
<g id="edge36" class="edge"><title>configuration-modules-core#1148-&gt;configuration-modules-core#952</title>
<path fill="none" stroke="black" stroke-width="2" d="M204.436,-1836.01C232.426,-1836.88 263.575,-1836.72 292,-1834 302.471,-1833 313.322,-1831.59 324.14,-1829.93"/>
<polygon fill="black" stroke="black" points="324.734,-1833.38 334.054,-1828.34 323.626,-1826.47 324.734,-1833.38"/>
<text text-anchor="middle" x="273" y="-1840" font-family="Sans" font-size="10.00">fixes</text>
</g>
<!-- configuration&#45;modules&#45;core#1148&#45;&gt;configuration&#45;modules&#45;core#952 -->
<g id="edge66" class="edge"><title>configuration-modules-core#1148-&gt;configuration-modules-core#952</title>
<path fill="none" stroke="black" stroke-width="2" d="M204.29,-1821.24C220.783,-1819.71 237.917,-1818.22 254,-1817 270.512,-1815.75 287.896,-1814.58 305.067,-1813.52"/>
<polygon fill="black" stroke="black" points="305.375,-1817.01 315.144,-1812.91 304.951,-1810.02 305.375,-1817.01"/>
<text text-anchor="middle" x="273" y="-1821" font-family="Sans" font-size="10.00">fixes</text>
</g>
<!-- configuration&#45;modules&#45;core#950 -->
<g id="node46" class="node"><title>configuration-modules-core#950</title>
<a xlink:href="https://github.com/quattor/configuration-modules-core/issues/950" xlink:title="ncm-spma: Remove support for package groups from yum backends" target="_parent">
<ellipse fill="#6cc644" stroke="black" cx="118" cy="-1738" rx="118.087" ry="38.1838"/>
<text text-anchor="middle" x="118" y="-1742" font-family="Sans" font-size="10.00">issue</text>
<text text-anchor="middle" x="118" y="-1729" font-family="Sans" font-size="10.00">configuration-modules-core#950</text>
</a>
</g>
<!-- configuration&#45;modules&#45;core#950&#45;&gt;configuration&#45;modules&#45;core#952 -->
<g id="edge40" class="edge"><title>configuration-modules-core#950-&gt;configuration-modules-core#952</title>
<path fill="none" stroke="black" stroke-dasharray="5,2" d="M215.63,-1759.45C250.188,-1767.05 289.245,-1775.63 324.572,-1783.39"/>
<polygon fill="none" stroke="black" points="323.912,-1786.83 334.43,-1785.56 325.414,-1779.99 323.912,-1786.83"/>
<text text-anchor="middle" x="273" y="-1779" font-family="Sans" font-size="10.00">requires</text>
</g>
<!-- configuration&#45;modules&#45;core#950&#45;&gt;configuration&#45;modules&#45;core#952 -->
<g id="edge70" class="edge"><title>configuration-modules-core#950-&gt;configuration-modules-core#952</title>
<path fill="none" stroke="black" stroke-dasharray="5,2" d="M235.253,-1742.69C254.365,-1744.81 273.841,-1747.8 292,-1752 312.866,-1756.83 334.73,-1764.21 354.813,-1772.01"/>
<polygon fill="none" stroke="black" points="353.623,-1775.3 364.209,-1775.73 356.205,-1768.79 353.623,-1775.3"/>
<text text-anchor="middle" x="273" y="-1756" font-family="Sans" font-size="10.00">requires</text>
</g>
<!-- configuration&#45;modules&#45;core#951 -->
<g id="node48" class="node"><title>configuration-modules-core#951</title>
<a xlink:href="https://github.com/quattor/configuration-modules-core/issues/951" xlink:title="ncm-spma (yum): Remove support for package groups" target="_parent">
<ellipse fill="#6cc644" stroke="black" cx="432" cy="-1701" rx="118.087" ry="38.1838"/>
<text text-anchor="middle" x="432" y="-1705" font-family="Sans" font-size="10.00">issue</text>
<text text-anchor="middle" x="432" y="-1692" font-family="Sans" font-size="10.00">configuration-modules-core#951</text>
</a>
</g>
<!-- configuration&#45;modules&#45;core#950&#45;&gt;configuration&#45;modules&#45;core#951 -->
<g id="edge38" class="edge"><title>configuration-modules-core#950-&gt;configuration-modules-core#951</title>
<path fill="none" stroke="black" stroke-dasharray="5,2" d="M218.805,-1718.14C230.639,-1716.21 242.566,-1714.43 254,-1713 270.442,-1710.94 287.786,-1709.22 304.937,-1707.78"/>
<polygon fill="none" stroke="black" points="305.318,-1711.26 315.004,-1706.97 304.755,-1704.29 305.318,-1711.26"/>
<text text-anchor="middle" x="273" y="-1717" font-family="Sans" font-size="10.00">requires</text>
</g>
<!-- configuration&#45;modules&#45;core#950&#45;&gt;configuration&#45;modules&#45;core#951 -->
<g id="edge68" class="edge"><title>configuration-modules-core#950-&gt;configuration-modules-core#951</title>
<path fill="none" stroke="black" stroke-dasharray="5,2" d="M192.818,-1708.51C212.419,-1702.1 233.744,-1696.26 254,-1693 271.992,-1690.1 291.129,-1688.96 309.932,-1688.92"/>
<polygon fill="none" stroke="black" points="310.001,-1692.42 320.029,-1689 310.058,-1685.42 310.001,-1692.42"/>
<text text-anchor="middle" x="273" y="-1697" font-family="Sans" font-size="10.00">requires</text>
</g>
<!-- ncm&#45;ncd#117 -->
<g id="node65" class="node"><title>ncm-ncd#117</title>
<a xlink:href="https://github.com/quattor/ncm-ncd/pull/117" xlink:title="Allow component modules to be loaded from any path" target="_parent">
<polygon fill="#6cc644" stroke="black" points="161,-123 75,-123 75,-69 161,-69 161,-123"/>
<text text-anchor="middle" x="118" y="-100" font-family="Sans" font-size="10.00">pull-request</text>
<text text-anchor="middle" x="118" y="-87" font-family="Sans" font-size="10.00">ncm-ncd#117</text>
</a>
</g>
<!-- ncm&#45;ncd#116 -->
<g id="node67" class="node"><title>ncm-ncd#116</title>
<a xlink:href="https://github.com/quattor/ncm-ncd/issues/116" xlink:title="hasFile() prevents component modules from being relocated" target="_parent">
<ellipse fill="#6cc644" stroke="black" cx="432" cy="-96" rx="61.0181" ry="38.1838"/>
<text text-anchor="middle" x="432" y="-100" font-family="Sans" font-size="10.00">issue</text>
<text text-anchor="middle" x="432" y="-87" font-family="Sans" font-size="10.00">ncm-ncd#116</text>
</a>
</g>
<!-- ncm&#45;ncd#117&#45;&gt;ncm&#45;ncd#116 -->
<g id="edge72" class="edge"><title>ncm-ncd#117-&gt;ncm-ncd#116</title>
<path fill="none" stroke="black" stroke-width="2" d="M161.66,-96C212.954,-96 298.809,-96 360.001,-96"/>
<polygon fill="black" stroke="black" points="360.362,-99.5001 370.362,-96 360.362,-92.5001 360.362,-99.5001"/>
<text text-anchor="middle" x="273" y="-100" font-family="Sans" font-size="10.00">fixes</text>
</g>
<!-- template&#45;library&#45;standard#109 -->
<g id="node68" class="node"><title>template-library-standard#109</title>
<a xlink:href="https://github.com/quattor/template-library-standard/pull/109" xlink:title="Add sample of nvidia workstation and compute GPUs" target="_parent">
<polygon fill="#6e5494" stroke="black" points="196,-459 40,-459 40,-405 196,-405 196,-459"/>
<text text-anchor="middle" x="118" y="-436" font-family="Sans" font-size="10.00">pull-request</text>
<text text-anchor="middle" x="118" y="-423" font-family="Sans" font-size="10.00">template-library-standard#109</text>
</a>
</g>
<!-- template&#45;library&#45;core#172 -->
<g id="node70" class="node"><title>template-library-core#172</title>
<a xlink:href="https://github.com/quattor/template-library-core/pull/172" xlink:title="Allow RAM to be modelled on GPU cards" target="_parent">
<polygon fill="#6e5494" stroke="black" points="501,-452 363,-452 363,-398 501,-398 501,-452"/>
<text text-anchor="middle" x="432" y="-429" font-family="Sans" font-size="10.00">pull-request</text>
<text text-anchor="middle" x="432" y="-416" font-family="Sans" font-size="10.00">template-library-core#172</text>
</a>
</g>
<!-- template&#45;library&#45;standard#109&#45;&gt;template&#45;library&#45;core#172 -->
<g id="edge74" class="edge"><title>template-library-standard#109-&gt;template-library-core#172</title>
<path fill="none" stroke="black" stroke-dasharray="5,2" d="M196.83,-430.243C244.389,-429.182 304.795,-427.836 352.478,-426.773"/>
<polygon fill="none" stroke="black" points="352.839,-430.266 362.758,-426.544 352.683,-423.267 352.839,-430.266"/>
<text text-anchor="middle" x="273" y="-433" font-family="Sans" font-size="10.00">requires</text>
</g>
</g>
</svg>
