<?xml version="1.0" encoding="UTF-8" standalone="no"?>
<?xml-stylesheet href="relationships.css" type="text/css"?>
<!-- Generated by graphviz version 2.40.1 (0)
 -->
<!-- Title: Dependencies Pages: 1 -->
<svg xmlns="http://www.w3.org/2000/svg" xmlns:xlink="http://www.w3.org/1999/xlink" width="1076pt" height="1680pt" viewBox="0.00 0.00 1076.00 1679.50">
<g id="graph0" class="graph" transform="scale(1 1) rotate(0) translate(4 1675.5)">
<title>Dependencies</title>
<polygon fill="#ffffff" stroke="transparent" points="-4,4 -4,-1675.5 1072,-1675.5 1072,4 -4,4"/>
<g id="clust1" class="cluster">
<title>cluster_milestone_25.next</title>
<polygon fill="none" stroke="#000000" points="292,-287.5 292,-1339.5 1060,-1339.5 1060,-287.5 292,-287.5"/>
<text text-anchor="middle" x="676" y="-1325.9" font-family="Sans" font-size="12.00" fill="#000000">25.next</text>
</g>
<!-- aii#328 -->
<g id="node1" class="node">
<title>aii#328</title>
<g id="a_node1"><a xlink:href="https://github.com/quattor/aii/pull/328" xlink:title="aii#328 (pull-request)" target="_parent">
<polygon fill="#6cc644" stroke="#000000" points="473,-549.5 308,-549.5 308,-499.5 473,-499.5 473,-549.5"/>
<text text-anchor="middle" x="390.5" y="-527.5" font-family="Sans" font-size="10.00" fill="#000000">aii-ks: generate ks post section</text>
<text text-anchor="middle" x="390.5" y="-516.5" font-family="Sans" font-size="10.00" fill="#000000">as standalone script</text>
</a>
</g>
</g>
<!-- aii#280 -->
<g id="node2" class="node">
<title>aii#280</title>
<polygon fill="#d3d3d3" stroke="#000000" points="713.5,-279 654.5,-279 654.5,-240 713.5,-240 713.5,-279"/>
<text text-anchor="middle" x="684" y="-257" font-family="Sans" font-size="10.00" fill="#000000">aii#280</text>
</g>
<!-- aii#328&#45;&gt;aii#280 -->
<g id="edge1" class="edge">
<title>aii#328-&gt;aii#280</title>
<path fill="none" stroke="#000000" stroke-dasharray="5,2" d="M473.0595,-499.8936C477.6554,-497.0855 482.0166,-493.9654 486,-490.5 564.2893,-422.3914 513.0034,-348.3657 594,-283.5 608.1113,-272.1991 627.0617,-266.1914 643.9335,-263.0091"/>
<polygon fill="none" stroke="#000000" points="644.7918,-266.416 654.1082,-261.3706 643.6789,-259.505 644.7918,-266.416"/>
<text text-anchor="middle" x="523.6019" y="-367.5058" font-family="Sans" font-size="10.00" fill="#000000">requires</text>
</g>
<!-- aii#316 -->
<g id="node3" class="node">
<title>aii#316</title>
<polygon fill="#d3d3d3" stroke="#000000" points="713.5,-222 654.5,-222 654.5,-183 713.5,-183 713.5,-222"/>
<text text-anchor="middle" x="684" y="-200" font-family="Sans" font-size="10.00" fill="#000000">aii#316</text>
</g>
<!-- aii#328&#45;&gt;aii#316 -->
<g id="edge2" class="edge">
<title>aii#328-&gt;aii#316</title>
<path fill="none" stroke="#000000" stroke-dasharray="5,2" d="M473.4214,-500.2918C477.9287,-497.3862 482.1714,-494.1357 486,-490.5 576.7351,-404.3361 501.5426,-314.8132 594,-230.5 607.8472,-217.8725 627.3167,-210.9394 644.6069,-207.133"/>
<polygon fill="none" stroke="#000000" points="645.3179,-210.5605 654.4763,-205.2337 643.995,-203.6866 645.3179,-210.5605"/>
<text text-anchor="middle" x="522.7369" y="-342.5938" font-family="Sans" font-size="10.00" fill="#000000">requires</text>
</g>
<!-- aii#299 -->
<g id="node4" class="node">
<title>aii#299</title>
<g id="a_node4"><a xlink:href="https://github.com/quattor/aii/pull/299" xlink:title="aii#299 (pull-request)" target="_parent">
<polygon fill="#6cc644" stroke="#000000" points="459,-617.5 322,-617.5 322,-567.5 459,-567.5 459,-617.5"/>
<text text-anchor="middle" x="390.5" y="-595.5" font-family="Sans" font-size="10.00" fill="#000000">aii-dhcp: support optional</text>
<text text-anchor="middle" x="390.5" y="-584.5" font-family="Sans" font-size="10.00" fill="#000000">hostname ip verification</text>
</a>
</g>
</g>
<!-- aii#299&#45;&gt;aii#280 -->
<g id="edge3" class="edge">
<title>aii#299-&gt;aii#280</title>
<path fill="none" stroke="#000000" stroke-dasharray="5,2" d="M459.3809,-576.1451C469.138,-571.6156 478.414,-565.8456 486,-558.5 580.3325,-467.1564 496.0278,-370.9284 594,-283.5 607.6886,-271.2846 626.9208,-265.1826 644.0944,-262.1746"/>
<polygon fill="none" stroke="#000000" points="645.0583,-265.5716 654.4534,-260.6745 644.055,-258.6438 645.0583,-265.5716"/>
<text text-anchor="middle" x="521.3095" y="-408.8134" font-family="Sans" font-size="10.00" fill="#000000">requires</text>
</g>
<!-- aii#331 -->
<g id="node5" class="node">
<title>aii#331</title>
<g id="a_node5"><a xlink:href="https://github.com/quattor/aii/pull/331" xlink:title="aii#331 (pull-request)" target="_parent">
<polygon fill="#6cc644" stroke="#000000" points="157.5,-555 29.5,-555 29.5,-494 157.5,-494 157.5,-555"/>
<text text-anchor="middle" x="93.5" y="-533" font-family="Sans" font-size="10.00" fill="#000000">let aii generate ansible</text>
<text text-anchor="middle" x="93.5" y="-522" font-family="Sans" font-size="10.00" fill="#000000">playbook for supported</text>
<text text-anchor="middle" x="93.5" y="-511" font-family="Sans" font-size="10.00" fill="#000000">components</text>
</a>
</g>
</g>
<!-- aii#331&#45;&gt;aii#328 -->
<g id="edge4" class="edge">
<title>aii#331-&gt;aii#328</title>
<path fill="none" stroke="#000000" stroke-dasharray="5,2" d="M157.5789,-524.5C198.4814,-524.5 252.1793,-524.5 297.7071,-524.5"/>
<polygon fill="none" stroke="#000000" points="297.8877,-528.0001 307.8876,-524.5 297.8876,-521.0001 297.8877,-528.0001"/>
<text text-anchor="middle" x="215.2358" y="-516.5" font-family="Sans" font-size="10.00" fill="#000000">requires</text>
</g>
<!-- CAF#257 -->
<g id="node6" class="node">
<title>CAF#257</title>
<g id="a_node6"><a xlink:href="https://github.com/quattor/CAF/pull/257" xlink:title="CAF#257 (pull-request)" target="_parent">
<polygon fill="#6cc644" stroke="#000000" points="475.5,-1310.5 305.5,-1310.5 305.5,-1260.5 475.5,-1260.5 475.5,-1310.5"/>
<text text-anchor="middle" x="390.5" y="-1288.5" font-family="Sans" font-size="10.00" fill="#000000">Process: run process as another</text>
<text text-anchor="middle" x="390.5" y="-1277.5" font-family="Sans" font-size="10.00" fill="#000000">user</text>
</a>
</g>
</g>
<!-- CAF#253 -->
<g id="node7" class="node">
<title>CAF#253</title>
<g id="a_node7"><a xlink:href="https://github.com/quattor/CAF/issues/253" xlink:title="CAF#253 (issue)" target="_parent">
<path fill="#6cc644" stroke="#000000" d="M757.5,-1310C757.5,-1310 610.5,-1310 610.5,-1310 604.5,-1310 598.5,-1304 598.5,-1298 598.5,-1298 598.5,-1261 598.5,-1261 598.5,-1255 604.5,-1249 610.5,-1249 610.5,-1249 757.5,-1249 757.5,-1249 763.5,-1249 769.5,-1255 769.5,-1261 769.5,-1261 769.5,-1298 769.5,-1298 769.5,-1304 763.5,-1310 757.5,-1310"/>
<text text-anchor="middle" x="684" y="-1288" font-family="Sans" font-size="10.00" fill="#000000">CAF::Process: Include an option</text>
<text text-anchor="middle" x="684" y="-1277" font-family="Sans" font-size="10.00" fill="#000000">to execute the command as an</text>
<text text-anchor="middle" x="684" y="-1266" font-family="Sans" font-size="10.00" fill="#000000">specific user</text>
</a>
</g>
</g>
<!-- CAF#257&#45;&gt;CAF#253 -->
<g id="edge5" class="edge">
<title>CAF#257-&gt;CAF#253</title>
<path fill="none" stroke="#000000" stroke-width="2" d="M475.7866,-1283.7565C510.9823,-1283.037 551.935,-1282.1998 588.1625,-1281.4592"/>
<polygon fill="#000000" stroke="#000000" stroke-width="2" points="588.3202,-1284.9568 598.2465,-1281.2531 588.177,-1277.9583 588.3202,-1284.9568"/>
<text text-anchor="middle" x="525.9804" y="-1274.5055" font-family="Sans" font-size="10.00" fill="#000000">fixes</text>
</g>
<!-- CAF#110 -->
<g id="node8" class="node">
<title>CAF#110</title>
<g id="a_node8"><a xlink:href="https://github.com/quattor/CAF/pull/110" xlink:title="CAF#110 (pull-request)" target="_parent">
<polygon fill="#6cc644" stroke="#000000" points="463.5,-481.5 317.5,-481.5 317.5,-431.5 463.5,-431.5 463.5,-481.5"/>
<text text-anchor="middle" x="390.5" y="-459.5" font-family="Sans" font-size="10.00" fill="#000000">CAF::Download class: API</text>
<text text-anchor="middle" x="390.5" y="-448.5" font-family="Sans" font-size="10.00" fill="#000000">proposal</text>
</a>
</g>
</g>
<!-- CAF#120 -->
<g id="node9" class="node">
<title>CAF#120</title>
<polygon fill="#d3d3d3" stroke="#000000" points="719,-165 649,-165 649,-126 719,-126 719,-165"/>
<text text-anchor="middle" x="684" y="-143" font-family="Sans" font-size="10.00" fill="#000000">CAF#120</text>
</g>
<!-- CAF#110&#45;&gt;CAF#120 -->
<g id="edge6" class="edge">
<title>CAF#110-&gt;CAF#120</title>
<path fill="none" stroke="#000000" stroke-dasharray="5,2" d="M463.5266,-437.8029C471.7093,-433.6668 479.4436,-428.6299 486,-422.5 574.1149,-340.1175 504.2387,-254.0855 594,-173.5 606.3858,-162.3803 623.1379,-155.6766 638.8311,-151.6352"/>
<polygon fill="none" stroke="#000000" points="639.9559,-154.969 648.9343,-149.3442 638.4078,-148.1424 639.9559,-154.969"/>
<text text-anchor="middle" x="522.5012" y="-283.929" font-family="Sans" font-size="10.00" fill="#000000">requires</text>
</g>
<!-- CCM#216 -->
<g id="node10" class="node">
<title>CCM#216</title>
<g id="a_node10"><a xlink:href="https://github.com/quattor/CCM/pull/216" xlink:title="CCM#216 (pull-request)" target="_parent">
<polygon fill="#6e5494" stroke="#000000" points="468,-1242.5 313,-1242.5 313,-1192.5 468,-1192.5 468,-1242.5"/>
<text text-anchor="middle" x="390.5" y="-1220.5" font-family="Sans" font-size="10.00" fill="#000000">ProfileCache: Include type in</text>
<text text-anchor="middle" x="390.5" y="-1209.5" font-family="Sans" font-size="10.00" fill="#000000">checksum calculation</text>
</a>
</g>
</g>
<!-- CCM#213 -->
<g id="node11" class="node">
<title>CCM#213</title>
<g id="a_node11"><a xlink:href="https://github.com/quattor/CCM/issues/213" xlink:title="CCM#213 (issue)" target="_parent">
<path fill="#6e5494" stroke="#000000" d="M743.5,-1230.5C743.5,-1230.5 624.5,-1230.5 624.5,-1230.5 618.5,-1230.5 612.5,-1224.5 612.5,-1218.5 612.5,-1218.5 612.5,-1192.5 612.5,-1192.5 612.5,-1186.5 618.5,-1180.5 624.5,-1180.5 624.5,-1180.5 743.5,-1180.5 743.5,-1180.5 749.5,-1180.5 755.5,-1186.5 755.5,-1192.5 755.5,-1192.5 755.5,-1218.5 755.5,-1218.5 755.5,-1224.5 749.5,-1230.5 743.5,-1230.5"/>
<text text-anchor="middle" x="684" y="-1208.5" font-family="Sans" font-size="10.00" fill="#000000">Include type information in</text>
<text text-anchor="middle" x="684" y="-1197.5" font-family="Sans" font-size="10.00" fill="#000000">checksum computation</text>
</a>
</g>
</g>
<!-- CCM#216&#45;&gt;CCM#213 -->
<g id="edge7" class="edge">
<title>CCM#216-&gt;CCM#213</title>
<path fill="none" stroke="#000000" stroke-width="2" d="M468.3821,-1214.3157C509.6441,-1212.6287 560.3003,-1210.5576 602.1429,-1208.8468"/>
<polygon fill="#000000" stroke="#000000" stroke-width="2" points="602.4544,-1212.3371 612.303,-1208.4314 602.1684,-1205.3429 602.4544,-1212.3371"/>
<text text-anchor="middle" x="529.4479" y="-1203.3693" font-family="Sans" font-size="10.00" fill="#000000">fixes</text>
</g>
<!-- CCM#215 -->
<g id="node12" class="node">
<title>CCM#215</title>
<g id="a_node12"><a xlink:href="https://github.com/quattor/CCM/pull/215" xlink:title="CCM#215 (pull-request)" target="_parent">
<polygon fill="#6e5494" stroke="#000000" points="459,-1174 322,-1174 322,-1135 459,-1135 459,-1174"/>
<text text-anchor="middle" x="390.5" y="-1152" font-family="Sans" font-size="10.00" fill="#000000">Remove description field</text>
</a>
</g>
</g>
<!-- CCM#214 -->
<g id="node13" class="node">
<title>CCM#214</title>
<g id="a_node13"><a xlink:href="https://github.com/quattor/CCM/pull/214" xlink:title="CCM#214 (pull-request)" target="_parent">
<polygon fill="#6e5494" stroke="#000000" points="753,-1162.5 615,-1162.5 615,-1112.5 753,-1112.5 753,-1162.5"/>
<text text-anchor="middle" x="684" y="-1140.5" font-family="Sans" font-size="10.00" fill="#000000">Strip out all references to</text>
<text text-anchor="middle" x="684" y="-1129.5" font-family="Sans" font-size="10.00" fill="#000000">derivation</text>
</a>
</g>
</g>
<!-- CCM#215&#45;&gt;CCM#214 -->
<g id="edge8" class="edge">
<title>CCM#215-&gt;CCM#214</title>
<path fill="none" stroke="#000000" stroke-dasharray="5,2" d="M459.3127,-1150.5143C502.867,-1147.9915 559.3242,-1144.7214 604.7493,-1142.0903"/>
<polygon fill="none" stroke="#000000" points="605.0753,-1145.5774 614.8561,-1141.5049 604.6705,-1138.5891 605.0753,-1145.5774"/>
<text text-anchor="middle" x="519.7471" y="-1138.0002" font-family="Sans" font-size="10.00" fill="#000000">requires</text>
</g>
<!-- CCM#134 -->
<g id="node14" class="node">
<title>CCM#134</title>
<g id="a_node14"><a xlink:href="https://github.com/quattor/CCM/issues/134" xlink:title="CCM#134 (issue)" target="_parent">
<path fill="#6e5494" stroke="#000000" d="M1040,-1157C1040,-1157 894,-1157 894,-1157 888,-1157 882,-1151 882,-1145 882,-1145 882,-1130 882,-1130 882,-1124 888,-1118 894,-1118 894,-1118 1040,-1118 1040,-1118 1046,-1118 1052,-1124 1052,-1130 1052,-1130 1052,-1145 1052,-1145 1052,-1151 1046,-1157 1040,-1157"/>
<text text-anchor="middle" x="967" y="-1135" font-family="Sans" font-size="10.00" fill="#000000">Remove references to derivation</text>
</a>
</g>
</g>
<!-- CCM#214&#45;&gt;CCM#134 -->
<g id="edge9" class="edge">
<title>CCM#214-&gt;CCM#134</title>
<path fill="none" stroke="#000000" stroke-width="2" d="M753.2296,-1137.5C788.8301,-1137.5 832.7735,-1137.5 871.5418,-1137.5"/>
<polygon fill="#000000" stroke="#000000" stroke-width="2" points="871.8014,-1141.0001 881.8014,-1137.5 871.8013,-1134.0001 871.8014,-1141.0001"/>
<text text-anchor="middle" x="806.3879" y="-1129.5" font-family="Sans" font-size="10.00" fill="#000000">fixes</text>
</g>
<!-- configuration&#45;modules&#45;core#1788 -->
<g id="node15" class="node">
<title>configuration-modules-core#1788</title>
<g id="a_node15"><a xlink:href="https://github.com/quattor/configuration-modules-core/pull/1788" xlink:title="configuration-modules-core#1788 (pull-request)" target="_parent">
<polygon fill="#6cc644" stroke="#000000" points="461.5,-1116.5 319.5,-1116.5 319.5,-1066.5 461.5,-1066.5 461.5,-1116.5"/>
<text text-anchor="middle" x="390.5" y="-1094.5" font-family="Sans" font-size="10.00" fill="#000000">ncm-systemd: ensure unit</text>
<text text-anchor="middle" x="390.5" y="-1083.5" font-family="Sans" font-size="10.00" fill="#000000">property is defined</text>
</a>
</g>
</g>
<!-- configuration&#45;modules&#45;core#1787 -->
<g id="node16" class="node">
<title>configuration-modules-core#1787</title>
<g id="a_node16"><a xlink:href="https://github.com/quattor/configuration-modules-core/issues/1787" xlink:title="configuration-modules-core#1787 (issue)" target="_parent">
<path fill="#6cc644" stroke="#000000" d="M757,-1094.5C757,-1094.5 611,-1094.5 611,-1094.5 605,-1094.5 599,-1088.5 599,-1082.5 599,-1082.5 599,-1056.5 599,-1056.5 599,-1050.5 605,-1044.5 611,-1044.5 611,-1044.5 757,-1044.5 757,-1044.5 763,-1044.5 769,-1050.5 769,-1056.5 769,-1056.5 769,-1082.5 769,-1082.5 769,-1088.5 763,-1094.5 757,-1094.5"/>
<text text-anchor="middle" x="684" y="-1072.5" font-family="Sans" font-size="10.00" fill="#000000">ncm-systemd 24.10.0: validation</text>
<text text-anchor="middle" x="684" y="-1061.5" font-family="Sans" font-size="10.00" fill="#000000">fails if no unit is defined</text>
</a>
</g>
</g>
<!-- configuration&#45;modules&#45;core#1788&#45;&gt;configuration&#45;modules&#45;core#1787 -->
<g id="edge10" class="edge">
<title>configuration-modules-core#1788-&gt;configuration-modules-core#1787</title>
<path fill="none" stroke="#000000" stroke-width="2" d="M461.5482,-1086.1744C499.7903,-1083.3079 547.4772,-1079.7334 588.8802,-1076.6299"/>
<polygon fill="#000000" stroke="#000000" stroke-width="2" points="589.2741,-1080.1103 598.9845,-1075.8725 588.7508,-1073.1299 589.2741,-1080.1103"/>
<text text-anchor="middle" x="519.1907" y="-1073.0292" font-family="Sans" font-size="10.00" fill="#000000">fixes</text>
</g>
<!-- configuration&#45;modules&#45;core#1783 -->
<g id="node17" class="node">
<title>configuration-modules-core#1783</title>
<g id="a_node17"><a xlink:href="https://github.com/quattor/configuration-modules-core/pull/1783" xlink:title="configuration-modules-core#1783 (pull-request)" target="_parent">
<polygon fill="#6cc644" stroke="#000000" points="475.5,-1048 305.5,-1048 305.5,-987 475.5,-987 475.5,-1048"/>
<text text-anchor="middle" x="390.5" y="-1026" font-family="Sans" font-size="10.00" fill="#000000">metaconfig/named: fix validation</text>
<text text-anchor="middle" x="390.5" y="-1015" font-family="Sans" font-size="10.00" fill="#000000">of logging channels in</text>
<text text-anchor="middle" x="390.5" y="-1004" font-family="Sans" font-size="10.00" fill="#000000">categories</text>
</a>
</g>
</g>
<!-- configuration&#45;modules&#45;core#1784 -->
<g id="node18" class="node">
<title>configuration-modules-core#1784</title>
<g id="a_node18"><a xlink:href="https://github.com/quattor/configuration-modules-core/issues/1784" xlink:title="configuration-modules-core#1784 (issue)" target="_parent">
<path fill="#6cc644" stroke="#000000" d="M755.5,-1026C755.5,-1026 612.5,-1026 612.5,-1026 606.5,-1026 600.5,-1020 600.5,-1014 600.5,-1014 600.5,-977 600.5,-977 600.5,-971 606.5,-965 612.5,-965 612.5,-965 755.5,-965 755.5,-965 761.5,-965 767.5,-971 767.5,-977 767.5,-977 767.5,-1014 767.5,-1014 767.5,-1020 761.5,-1026 755.5,-1026"/>
<text text-anchor="middle" x="684" y="-1004" font-family="Sans" font-size="10.00" fill="#000000">ncm-metaconfig 24.10.0 named</text>
<text text-anchor="middle" x="684" y="-993" font-family="Sans" font-size="10.00" fill="#000000">module: error in logging channel</text>
<text text-anchor="middle" x="684" y="-982" font-family="Sans" font-size="10.00" fill="#000000">name validation</text>
</a>
</g>
</g>
<!-- configuration&#45;modules&#45;core#1783&#45;&gt;configuration&#45;modules&#45;core#1784 -->
<g id="edge11" class="edge">
<title>configuration-modules-core#1783-&gt;configuration-modules-core#1784</title>
<path fill="none" stroke="#000000" stroke-width="2" d="M475.7866,-1011.1071C511.6011,-1008.4226 553.3769,-1005.2912 590.069,-1002.5408"/>
<polygon fill="#000000" stroke="#000000" stroke-width="2" points="590.5637,-1006.0137 600.274,-1001.7759 590.0404,-999.0332 590.5637,-1006.0137"/>
<text text-anchor="middle" x="527.0869" y="-998.4373" font-family="Sans" font-size="10.00" fill="#000000">fixes</text>
</g>
<!-- configuration&#45;modules&#45;core#1739 -->
<g id="node19" class="node">
<title>configuration-modules-core#1739</title>
<g id="a_node19"><a xlink:href="https://github.com/quattor/configuration-modules-core/pull/1739" xlink:title="configuration-modules-core#1739 (pull-request)" target="_parent">
<polygon fill="#6cc644" stroke="#000000" points="474.5,-969 306.5,-969 306.5,-908 474.5,-908 474.5,-969"/>
<text text-anchor="middle" x="390.5" y="-947" font-family="Sans" font-size="10.00" fill="#000000">ncm-network: dropin file support</text>
<text text-anchor="middle" x="390.5" y="-936" font-family="Sans" font-size="10.00" fill="#000000">for main configuration of</text>
<text text-anchor="middle" x="390.5" y="-925" font-family="Sans" font-size="10.00" fill="#000000">NetworkManager</text>
</a>
</g>
</g>
<!-- configuration&#45;modules&#45;core#1740 -->
<g id="node20" class="node">
<title>configuration-modules-core#1740</title>
<g id="a_node20"><a xlink:href="https://github.com/quattor/configuration-modules-core/issues/1740" xlink:title="configuration-modules-core#1740 (issue)" target="_parent">
<path fill="#6cc644" stroke="#000000" d="M745,-947C745,-947 623,-947 623,-947 617,-947 611,-941 611,-935 611,-935 611,-898 611,-898 611,-892 617,-886 623,-886 623,-886 745,-886 745,-886 751,-886 757,-892 757,-898 757,-898 757,-935 757,-935 757,-941 751,-947 745,-947"/>
<text text-anchor="middle" x="684" y="-925" font-family="Sans" font-size="10.00" fill="#000000">ncm-network - capability to</text>
<text text-anchor="middle" x="684" y="-914" font-family="Sans" font-size="10.00" fill="#000000">manage main section of</text>
<text text-anchor="middle" x="684" y="-903" font-family="Sans" font-size="10.00" fill="#000000">NetworkManager.conf</text>
</a>
</g>
</g>
<!-- configuration&#45;modules&#45;core#1739&#45;&gt;configuration&#45;modules&#45;core#1740 -->
<g id="edge12" class="edge">
<title>configuration-modules-core#1739-&gt;configuration-modules-core#1740</title>
<path fill="none" stroke="#000000" stroke-width="2" d="M474.6053,-932.1957C514.1855,-929.2289 561.2503,-925.701 600.7249,-922.7421"/>
<polygon fill="#000000" stroke="#000000" stroke-width="2" points="601.1407,-926.2208 610.8511,-921.9831 600.6174,-919.2404 601.1407,-926.2208"/>
<text text-anchor="middle" x="531.7773" y="-919.0857" font-family="Sans" font-size="10.00" fill="#000000">fixes</text>
</g>
<!-- configuration&#45;modules&#45;core#1554 -->
<g id="node21" class="node">
<title>configuration-modules-core#1554</title>
<g id="a_node21"><a xlink:href="https://github.com/quattor/configuration-modules-core/pull/1554" xlink:title="configuration-modules-core#1554 (pull-request)" target="_parent">
<polygon fill="#6cc644" stroke="#000000" points="466.5,-889.5 314.5,-889.5 314.5,-839.5 466.5,-839.5 466.5,-889.5"/>
<text text-anchor="middle" x="390.5" y="-867.5" font-family="Sans" font-size="10.00" fill="#000000">avoid removing empty list of</text>
<text text-anchor="middle" x="390.5" y="-856.5" font-family="Sans" font-size="10.00" fill="#000000">packages</text>
</a>
</g>
</g>
<!-- configuration&#45;modules&#45;core#1553 -->
<g id="node22" class="node">
<title>configuration-modules-core#1553</title>
<g id="a_node22"><a xlink:href="https://github.com/quattor/configuration-modules-core/issues/1553" xlink:title="configuration-modules-core#1553 (issue)" target="_parent">
<path fill="#6cc644" stroke="#000000" d="M756,-868C756,-868 612,-868 612,-868 606,-868 600,-862 600,-856 600,-856 600,-819 600,-819 600,-813 606,-807 612,-807 612,-807 756,-807 756,-807 762,-807 768,-813 768,-819 768,-819 768,-856 768,-856 768,-862 762,-868 756,-868"/>
<text text-anchor="middle" x="684" y="-846" font-family="Sans" font-size="10.00" fill="#000000">ncm-spma: update_pkgs in yum</text>
<text text-anchor="middle" x="684" y="-835" font-family="Sans" font-size="10.00" fill="#000000">plugin tries to remove empty</text>
<text text-anchor="middle" x="684" y="-824" font-family="Sans" font-size="10.00" fill="#000000">list of packages</text>
</a>
</g>
</g>
<!-- configuration&#45;modules&#45;core#1554&#45;&gt;configuration&#45;modules&#45;core#1553 -->
<g id="edge13" class="edge">
<title>configuration-modules-core#1554-&gt;configuration-modules-core#1553</title>
<path fill="none" stroke="#000000" stroke-width="2" d="M466.8475,-857.4766C504.4266,-854.0195 550.0777,-849.8199 589.8072,-846.1651"/>
<polygon fill="#000000" stroke="#000000" stroke-width="2" points="590.1345,-849.6499 599.7718,-845.2484 589.4932,-842.6793 590.1345,-849.6499"/>
<text text-anchor="middle" x="521.9596" y="-843.3947" font-family="Sans" font-size="10.00" fill="#000000">fixes</text>
</g>
<!-- configuration&#45;modules&#45;core#1507 -->
<g id="node23" class="node">
<title>configuration-modules-core#1507</title>
<g id="a_node23"><a xlink:href="https://github.com/quattor/configuration-modules-core/pull/1507" xlink:title="configuration-modules-core#1507 (pull-request)" target="_parent">
<polygon fill="#6cc644" stroke="#000000" points="175,-1392.5 12,-1392.5 12,-1342.5 175,-1342.5 175,-1392.5"/>
<text text-anchor="middle" x="93.5" y="-1370.5" font-family="Sans" font-size="10.00" fill="#000000">[WIP] ncm-spma: yumdnf: use</text>
<text text-anchor="middle" x="93.5" y="-1359.5" font-family="Sans" font-size="10.00" fill="#000000">spmaleaves dnf plugin</text>
</a>
</g>
</g>
<!-- configuration&#45;modules&#45;core#1401 -->
<g id="node24" class="node">
<title>configuration-modules-core#1401</title>
<polygon fill="#d3d3d3" stroke="#000000" points="476.5,-1387 304.5,-1387 304.5,-1348 476.5,-1348 476.5,-1387"/>
<text text-anchor="middle" x="390.5" y="-1365" font-family="Sans" font-size="10.00" fill="#000000">configuration-modules-core#1401</text>
</g>
<!-- configuration&#45;modules&#45;core#1507&#45;&gt;configuration&#45;modules&#45;core#1401 -->
<g id="edge14" class="edge">
<title>configuration-modules-core#1507-&gt;configuration-modules-core#1401</title>
<path fill="none" stroke="#000000" stroke-dasharray="5,2" d="M175.0494,-1367.5C211.937,-1367.5 255.7952,-1367.5 294.2825,-1367.5"/>
<polygon fill="none" stroke="#000000" points="294.4629,-1371.0001 304.4629,-1367.5 294.4628,-1364.0001 294.4629,-1371.0001"/>
<text text-anchor="middle" x="222.3037" y="-1359.5" font-family="Sans" font-size="10.00" fill="#000000">requires</text>
</g>
<!-- configuration&#45;modules&#45;core#1336 -->
<g id="node25" class="node">
<title>configuration-modules-core#1336</title>
<g id="a_node25"><a xlink:href="https://github.com/quattor/configuration-modules-core/pull/1336" xlink:title="configuration-modules-core#1336 (pull-request)" target="_parent">
<polygon fill="#6cc644" stroke="#000000" points="172.5,-1504 14.5,-1504 14.5,-1443 172.5,-1443 172.5,-1504"/>
<text text-anchor="middle" x="93.5" y="-1482" font-family="Sans" font-size="10.00" fill="#000000">ncm-network: Add support for</text>
<text text-anchor="middle" x="93.5" y="-1471" font-family="Sans" font-size="10.00" fill="#000000">CAF::Service actions after</text>
<text text-anchor="middle" x="93.5" y="-1460" font-family="Sans" font-size="10.00" fill="#000000">changes</text>
</a>
</g>
</g>
<!-- configuration&#45;modules&#45;core#1335 -->
<g id="node26" class="node">
<title>configuration-modules-core#1335</title>
<g id="a_node26"><a xlink:href="https://github.com/quattor/configuration-modules-core/pull/1335" xlink:title="configuration-modules-core#1335 (pull-request)" target="_parent">
<polygon fill="#6cc644" stroke="#000000" points="475,-1535 306,-1535 306,-1474 475,-1474 475,-1535"/>
<text text-anchor="middle" x="390.5" y="-1513" font-family="Sans" font-size="10.00" fill="#000000">ncm-metaconfig: Remove</text>
<text text-anchor="middle" x="390.5" y="-1502" font-family="Sans" font-size="10.00" fill="#000000">caf_service_action type to allow</text>
<text text-anchor="middle" x="390.5" y="-1491" font-family="Sans" font-size="10.00" fill="#000000">reuse</text>
</a>
</g>
</g>
<!-- configuration&#45;modules&#45;core#1336&#45;&gt;configuration&#45;modules&#45;core#1335 -->
<g id="edge15" class="edge">
<title>configuration-modules-core#1336-&gt;configuration-modules-core#1335</title>
<path fill="none" stroke="#000000" stroke-dasharray="5,2" d="M172.7004,-1481.7667C210.5615,-1485.7185 256.1699,-1490.479 295.8466,-1494.6203"/>
<polygon fill="none" stroke="#000000" points="295.4884,-1498.1019 305.7977,-1495.659 296.2151,-1491.1397 295.4884,-1498.1019"/>
<text text-anchor="middle" x="221.535" y="-1480.6905" font-family="Sans" font-size="10.00" fill="#000000">requires</text>
</g>
<!-- configuration&#45;modules&#45;core#1071 -->
<g id="node27" class="node">
<title>configuration-modules-core#1071</title>
<g id="a_node27"><a xlink:href="https://github.com/quattor/configuration-modules-core/issues/1071" xlink:title="configuration-modules-core#1071 (issue)" target="_parent">
<path fill="#6cc644" stroke="#000000" d="M467,-1455.5C467,-1455.5 314,-1455.5 314,-1455.5 308,-1455.5 302,-1449.5 302,-1443.5 302,-1443.5 302,-1417.5 302,-1417.5 302,-1411.5 308,-1405.5 314,-1405.5 314,-1405.5 467,-1405.5 467,-1405.5 473,-1405.5 479,-1411.5 479,-1417.5 479,-1417.5 479,-1443.5 479,-1443.5 479,-1449.5 473,-1455.5 467,-1455.5"/>
<text text-anchor="middle" x="390.5" y="-1433.5" font-family="Sans" font-size="10.00" fill="#000000">ncm-network: support daemons to</text>
<text text-anchor="middle" x="390.5" y="-1422.5" font-family="Sans" font-size="10.00" fill="#000000">restart after network changes</text>
</a>
</g>
</g>
<!-- configuration&#45;modules&#45;core#1336&#45;&gt;configuration&#45;modules&#45;core#1071 -->
<g id="edge16" class="edge">
<title>configuration-modules-core#1336-&gt;configuration-modules-core#1071</title>
<path fill="none" stroke="#000000" stroke-width="2" d="M172.7004,-1462.0333C209.218,-1456.7462 252.9428,-1450.4157 291.601,-1444.8187"/>
<polygon fill="#000000" stroke="#000000" stroke-width="2" points="292.4392,-1448.2339 301.8345,-1443.3371 291.4362,-1441.3062 292.4392,-1448.2339"/>
<text text-anchor="middle" x="226.5484" y="-1444.6445" font-family="Sans" font-size="10.00" fill="#000000">fixes</text>
</g>
<!-- template&#45;library&#45;core#191 -->
<g id="node28" class="node">
<title>template-library-core#191</title>
<polygon fill="#d3d3d3" stroke="#000000" points="753,-1524 615,-1524 615,-1485 753,-1485 753,-1524"/>
<text text-anchor="middle" x="684" y="-1502" font-family="Sans" font-size="10.00" fill="#000000">template-library-core#191</text>
</g>
<!-- configuration&#45;modules&#45;core#1335&#45;&gt;template&#45;library&#45;core#191 -->
<g id="edge17" class="edge">
<title>configuration-modules-core#1335-&gt;template-library-core#191</title>
<path fill="none" stroke="#000000" stroke-dasharray="5,2" d="M475.3924,-1504.5C516.0413,-1504.5 564.4407,-1504.5 604.3825,-1504.5"/>
<polygon fill="none" stroke="#000000" points="604.6102,-1508.0001 614.6102,-1504.5 604.6101,-1501.0001 604.6102,-1508.0001"/>
<text text-anchor="middle" x="527.3279" y="-1496.5" font-family="Sans" font-size="10.00" fill="#000000">requires</text>
</g>
<!-- configuration&#45;modules&#45;core#1148 -->
<g id="node29" class="node">
<title>configuration-modules-core#1148</title>
<g id="a_node29"><a xlink:href="https://github.com/quattor/configuration-modules-core/pull/1148" xlink:title="configuration-modules-core#1148 (pull-request)" target="_parent">
<polygon fill="#6cc644" stroke="#000000" points="183,-1671.5 4,-1671.5 4,-1621.5 183,-1621.5 183,-1671.5"/>
<text text-anchor="middle" x="93.5" y="-1649.5" font-family="Sans" font-size="10.00" fill="#000000">ncm-spma: Remove support from</text>
<text text-anchor="middle" x="93.5" y="-1638.5" font-family="Sans" font-size="10.00" fill="#000000">groups from spma yumng backend</text>
</a>
</g>
</g>
<!-- configuration&#45;modules&#45;core#952 -->
<g id="node30" class="node">
<title>configuration-modules-core#952</title>
<g id="a_node30"><a xlink:href="https://github.com/quattor/configuration-modules-core/issues/952" xlink:title="configuration-modules-core#952 (issue)" target="_parent">
<path fill="#6cc644" stroke="#000000" d="M474,-1671.5C474,-1671.5 307,-1671.5 307,-1671.5 301,-1671.5 295,-1665.5 295,-1659.5 295,-1659.5 295,-1633.5 295,-1633.5 295,-1627.5 301,-1621.5 307,-1621.5 307,-1621.5 474,-1621.5 474,-1621.5 480,-1621.5 486,-1627.5 486,-1633.5 486,-1633.5 486,-1659.5 486,-1659.5 486,-1665.5 480,-1671.5 474,-1671.5"/>
<text text-anchor="middle" x="390.5" y="-1649.5" font-family="Sans" font-size="10.00" fill="#000000">ncm-spma (yumng): Remove support</text>
<text text-anchor="middle" x="390.5" y="-1638.5" font-family="Sans" font-size="10.00" fill="#000000">for package groups</text>
</a>
</g>
</g>
<!-- configuration&#45;modules&#45;core#1148&#45;&gt;configuration&#45;modules&#45;core#952 -->
<g id="edge18" class="edge">
<title>configuration-modules-core#1148-&gt;configuration-modules-core#952</title>
<path fill="none" stroke="#000000" stroke-width="2" d="M183.0126,-1646.5C215.0535,-1646.5 251.4693,-1646.5 284.7528,-1646.5"/>
<polygon fill="#000000" stroke="#000000" stroke-width="2" points="284.9733,-1650.0001 294.9733,-1646.5 284.9733,-1643.0001 284.9733,-1650.0001"/>
<text text-anchor="middle" x="228.0876" y="-1638.5" font-family="Sans" font-size="10.00" fill="#000000">fixes</text>
</g>
<!-- configuration&#45;modules&#45;core#950 -->
<g id="node31" class="node">
<title>configuration-modules-core#950</title>
<g id="a_node31"><a xlink:href="https://github.com/quattor/configuration-modules-core/issues/950" xlink:title="configuration-modules-core#950 (issue)" target="_parent">
<path fill="#6cc644" stroke="#000000" d="M175,-1603.5C175,-1603.5 12,-1603.5 12,-1603.5 6,-1603.5 0,-1597.5 0,-1591.5 0,-1591.5 0,-1565.5 0,-1565.5 0,-1559.5 6,-1553.5 12,-1553.5 12,-1553.5 175,-1553.5 175,-1553.5 181,-1553.5 187,-1559.5 187,-1565.5 187,-1565.5 187,-1591.5 187,-1591.5 187,-1597.5 181,-1603.5 175,-1603.5"/>
<text text-anchor="middle" x="93.5" y="-1581.5" font-family="Sans" font-size="10.00" fill="#000000">ncm-spma: Remove support for</text>
<text text-anchor="middle" x="93.5" y="-1570.5" font-family="Sans" font-size="10.00" fill="#000000">package groups from yum backends</text>
</a>
</g>
</g>
<!-- configuration&#45;modules&#45;core#950&#45;&gt;configuration&#45;modules&#45;core#952 -->
<g id="edge20" class="edge">
<title>configuration-modules-core#950-&gt;configuration-modules-core#952</title>
<path fill="none" stroke="#000000" stroke-dasharray="5,2" d="M187.065,-1599.9223C218.1915,-1607.0489 253.0665,-1615.0337 285.0303,-1622.3521"/>
<polygon fill="none" stroke="#000000" points="284.3204,-1625.78 294.8493,-1624.6002 285.8827,-1618.9566 284.3204,-1625.78"/>
<text text-anchor="middle" x="223.6849" y="-1604.3134" font-family="Sans" font-size="10.00" fill="#000000">requires</text>
</g>
<!-- configuration&#45;modules&#45;core#951 -->
<g id="node32" class="node">
<title>configuration-modules-core#951</title>
<g id="a_node32"><a xlink:href="https://github.com/quattor/configuration-modules-core/issues/951" xlink:title="configuration-modules-core#951 (issue)" target="_parent">
<path fill="#6cc644" stroke="#000000" d="M468.5,-1603.5C468.5,-1603.5 312.5,-1603.5 312.5,-1603.5 306.5,-1603.5 300.5,-1597.5 300.5,-1591.5 300.5,-1591.5 300.5,-1565.5 300.5,-1565.5 300.5,-1559.5 306.5,-1553.5 312.5,-1553.5 312.5,-1553.5 468.5,-1553.5 468.5,-1553.5 474.5,-1553.5 480.5,-1559.5 480.5,-1565.5 480.5,-1565.5 480.5,-1591.5 480.5,-1591.5 480.5,-1597.5 474.5,-1603.5 468.5,-1603.5"/>
<text text-anchor="middle" x="390.5" y="-1581.5" font-family="Sans" font-size="10.00" fill="#000000">ncm-spma (yum): Remove support</text>
<text text-anchor="middle" x="390.5" y="-1570.5" font-family="Sans" font-size="10.00" fill="#000000">for package groups</text>
</a>
</g>
</g>
<!-- configuration&#45;modules&#45;core#950&#45;&gt;configuration&#45;modules&#45;core#951 -->
<g id="edge19" class="edge">
<title>configuration-modules-core#950-&gt;configuration-modules-core#951</title>
<path fill="none" stroke="#000000" stroke-dasharray="5,2" d="M187.065,-1578.5C219.8866,-1578.5 256.8759,-1578.5 290.2252,-1578.5"/>
<polygon fill="none" stroke="#000000" points="290.4495,-1582.0001 300.4494,-1578.5 290.4494,-1575.0001 290.4495,-1582.0001"/>
<text text-anchor="middle" x="226.2859" y="-1570.5" font-family="Sans" font-size="10.00" fill="#000000">requires</text>
</g>
<!-- configuration&#45;modules&#45;grid#151 -->
<g id="node33" class="node">
<title>configuration-modules-grid#151</title>
<g id="a_node33"><a xlink:href="https://github.com/quattor/configuration-modules-grid/pull/151" xlink:title="configuration-modules-grid#151 (pull-request)" target="_parent">
<polygon fill="#6cc644" stroke="#000000" points="467.5,-821.5 313.5,-821.5 313.5,-771.5 467.5,-771.5 467.5,-821.5"/>
<text text-anchor="middle" x="390.5" y="-799.5" font-family="Sans" font-size="10.00" fill="#000000">ncm-maui: Remove obsolete</text>
<text text-anchor="middle" x="390.5" y="-788.5" font-family="Sans" font-size="10.00" fill="#000000">component</text>
</a>
</g>
</g>
<!-- configuration&#45;modules&#45;grid#85 -->
<g id="node34" class="node">
<title>configuration-modules-grid#85</title>
<g id="a_node34"><a xlink:href="https://github.com/quattor/configuration-modules-grid/issues/85" xlink:title="configuration-modules-grid#85 (issue)" target="_parent">
<path fill="#6cc644" stroke="#000000" d="M762,-788.5C762,-788.5 606,-788.5 606,-788.5 600,-788.5 594,-782.5 594,-776.5 594,-776.5 594,-750.5 594,-750.5 594,-744.5 600,-738.5 606,-738.5 606,-738.5 762,-738.5 762,-738.5 768,-738.5 774,-744.5 774,-750.5 774,-750.5 774,-776.5 774,-776.5 774,-782.5 768,-788.5 762,-788.5"/>
<text text-anchor="middle" x="684" y="-766.5" font-family="Sans" font-size="10.00" fill="#000000">deprecate / remove ncm-moab and</text>
<text text-anchor="middle" x="684" y="-755.5" font-family="Sans" font-size="10.00" fill="#000000">ncm-maui</text>
</a>
</g>
</g>
<!-- configuration&#45;modules&#45;grid#151&#45;&gt;configuration&#45;modules&#45;grid#85 -->
<g id="edge21" class="edge">
<title>configuration-modules-grid#151-&gt;configuration-modules-grid#85</title>
<path fill="none" stroke="#000000" stroke-width="2" d="M467.6137,-787.8296C503.161,-783.8328 545.805,-779.0381 583.8035,-774.7657"/>
<polygon fill="#000000" stroke="#000000" stroke-width="2" points="584.3244,-778.2293 593.8707,-773.6338 583.5422,-771.2731 584.3244,-778.2293"/>
<text text-anchor="middle" x="519.8467" y="-772.72" font-family="Sans" font-size="10.00" fill="#000000">fixes</text>
</g>
<!-- ncm&#45;lib&#45;blockdevices#106 -->
<g id="node35" class="node">
<title>ncm-lib-blockdevices#106</title>
<g id="a_node35"><a xlink:href="https://github.com/quattor/ncm-lib-blockdevices/pull/106" xlink:title="ncm-lib-blockdevices#106 (pull-request)" target="_parent">
<polygon fill="#6cc644" stroke="#000000" points="472.5,-753.5 308.5,-753.5 308.5,-703.5 472.5,-703.5 472.5,-753.5"/>
<text text-anchor="middle" x="390.5" y="-731.5" font-family="Sans" font-size="10.00" fill="#000000">Partition: Mask DM/LVM rules,</text>
<text text-anchor="middle" x="390.5" y="-720.5" font-family="Sans" font-size="10.00" fill="#000000">don't stop udev</text>
</a>
</g>
</g>
<!-- ncm&#45;lib&#45;blockdevices#105 -->
<g id="node36" class="node">
<title>ncm-lib-blockdevices#105</title>
<g id="a_node36"><a xlink:href="https://github.com/quattor/ncm-lib-blockdevices/issues/105" xlink:title="ncm-lib-blockdevices#105 (issue)" target="_parent">
<path fill="#6cc644" stroke="#000000" d="M747.5,-720C747.5,-720 620.5,-720 620.5,-720 614.5,-720 608.5,-714 608.5,-708 608.5,-708 608.5,-671 608.5,-671 608.5,-665 614.5,-659 620.5,-659 620.5,-659 747.5,-659 747.5,-659 753.5,-659 759.5,-665 759.5,-671 759.5,-671 759.5,-708 759.5,-708 759.5,-714 753.5,-720 747.5,-720"/>
<text text-anchor="middle" x="684" y="-698" font-family="Sans" font-size="10.00" fill="#000000">Pausing udev makes</text>
<text text-anchor="middle" x="684" y="-687" font-family="Sans" font-size="10.00" fill="#000000">`/dev/disk/by-*` unusable for</text>
<text text-anchor="middle" x="684" y="-676" font-family="Sans" font-size="10.00" fill="#000000">installations</text>
</a>
</g>
</g>
<!-- ncm&#45;lib&#45;blockdevices#106&#45;&gt;ncm&#45;lib&#45;blockdevices#105 -->
<g id="edge22" class="edge">
<title>ncm-lib-blockdevices#106-&gt;ncm-lib-blockdevices#105</title>
<path fill="none" stroke="#000000" stroke-width="2" d="M472.6464,-717.5845C511.8868,-712.3702 558.827,-706.1329 598.4926,-700.8621"/>
<polygon fill="#000000" stroke="#000000" stroke-width="2" points="598.9594,-704.331 608.4112,-699.5442 598.0373,-697.392 598.9594,-704.331"/>
<text text-anchor="middle" x="529.4722" y="-700.5718" font-family="Sans" font-size="10.00" fill="#000000">fixes</text>
</g>
<!-- release#370 -->
<g id="node37" class="node">
<title>release#370</title>
<g id="a_node37"><a xlink:href="https://github.com/quattor/release/pull/370" xlink:title="release#370 (pull-request)" target="_parent">
<polygon fill="#6e5494" stroke="#000000" points="471.5,-685.5 309.5,-685.5 309.5,-635.5 471.5,-635.5 471.5,-685.5"/>
<text text-anchor="middle" x="390.5" y="-663.5" font-family="Sans" font-size="10.00" fill="#000000">Update template library scripts</text>
<text text-anchor="middle" x="390.5" y="-652.5" font-family="Sans" font-size="10.00" fill="#000000">for new repository structure</text>
</a>
</g>
</g>
<!-- release#373 -->
<g id="node38" class="node">
<title>release#373</title>
<g id="a_node38"><a xlink:href="https://github.com/quattor/release/issues/373" xlink:title="release#373 (issue)" target="_parent">
<path fill="#6e5494" stroke="#000000" d="M758.5,-641C758.5,-641 609.5,-641 609.5,-641 603.5,-641 597.5,-635 597.5,-629 597.5,-629 597.5,-592 597.5,-592 597.5,-586 603.5,-580 609.5,-580 609.5,-580 758.5,-580 758.5,-580 764.5,-580 770.5,-586 770.5,-592 770.5,-592 770.5,-629 770.5,-629 770.5,-635 764.5,-641 758.5,-641"/>
<text text-anchor="middle" x="684" y="-619" font-family="Sans" font-size="10.00" fill="#000000">get-template-library: update the</text>
<text text-anchor="middle" x="684" y="-608" font-family="Sans" font-size="10.00" fill="#000000">default master branch name after</text>
<text text-anchor="middle" x="684" y="-597" font-family="Sans" font-size="10.00" fill="#000000">master -&gt; main rename</text>
</a>
</g>
</g>
<!-- release#370&#45;&gt;release#373 -->
<g id="edge23" class="edge">
<title>release#370-&gt;release#373</title>
<path fill="none" stroke="#000000" stroke-width="2" d="M471.8664,-646.6386C507.6846,-640.5367 550.0351,-633.322 587.4397,-626.9498"/>
<polygon fill="#000000" stroke="#000000" stroke-width="2" points="588.0704,-630.3929 597.3406,-625.2631 586.8948,-623.4923 588.0704,-630.3929"/>
<text text-anchor="middle" x="523.6142" y="-627.949" font-family="Sans" font-size="10.00" fill="#000000">fixes</text>
</g>
<!-- template&#45;library&#45;grid#232 -->
<g id="node39" class="node">
<title>template-library-grid#232</title>
<g id="a_node39"><a xlink:href="https://github.com/quattor/template-library-grid/pull/232" xlink:title="template-library-grid#232 (pull-request)" target="_parent">
<polygon fill="#6cc644" stroke="#000000" points="467,-413.5 314,-413.5 314,-363.5 467,-363.5 467,-413.5"/>
<text text-anchor="middle" x="390.5" y="-391.5" font-family="Sans" font-size="10.00" fill="#000000">arc-ce: Export arc-ce feature</text>
<text text-anchor="middle" x="390.5" y="-380.5" font-family="Sans" font-size="10.00" fill="#000000">from aquilon at RAL</text>
</a>
</g>
</g>
<!-- template&#45;library&#45;grid#221 -->
<g id="node40" class="node">
<title>template-library-grid#221</title>
<g id="a_node40"><a xlink:href="https://github.com/quattor/template-library-grid/issues/221" xlink:title="template-library-grid#221 (issue)" target="_parent">
<path fill="#6cc644" stroke="#000000" d="M757,-107.5C757,-107.5 611,-107.5 611,-107.5 605,-107.5 599,-101.5 599,-95.5 599,-95.5 599,-69.5 599,-69.5 599,-63.5 605,-57.5 611,-57.5 611,-57.5 757,-57.5 757,-57.5 763,-57.5 769,-63.5 769,-69.5 769,-69.5 769,-95.5 769,-95.5 769,-101.5 763,-107.5 757,-107.5"/>
<text text-anchor="middle" x="684" y="-85.5" font-family="Sans" font-size="10.00" fill="#000000">Support for new CE types (ARC</text>
<text text-anchor="middle" x="684" y="-74.5" font-family="Sans" font-size="10.00" fill="#000000">CE, HTCONDOR CE)</text>
</a>
</g>
</g>
<!-- template&#45;library&#45;grid#232&#45;&gt;template&#45;library&#45;grid#221 -->
<g id="edge24" class="edge">
<title>template-library-grid#232-&gt;template-library-grid#221</title>
<path fill="none" stroke="#000000" stroke-width="2" d="M467.2519,-367.6927C474.0351,-363.9824 480.429,-359.6219 486,-354.5 571.5118,-275.8828 509.2458,-195.9334 594,-116.5 594.9597,-115.6005 595.9456,-114.7242 596.955,-113.8705"/>
<polygon fill="#000000" stroke="#000000" stroke-width="2" points="599.2094,-116.5549 605.1146,-107.7583 595.0127,-110.9524 599.2094,-116.5549"/>
<text text-anchor="middle" x="528.9488" y="-230.1347" font-family="Sans" font-size="10.00" fill="#000000">fixes</text>
</g>
<!-- template&#45;library&#45;openstack#63 -->
<g id="node41" class="node">
<title>template-library-openstack#63</title>
<g id="a_node41"><a xlink:href="https://github.com/quattor/template-library-openstack/pull/63" xlink:title="template-library-openstack#63 (pull-request)" target="_parent">
<polygon fill="#6cc644" stroke="#000000" points="481,-345.5 300,-345.5 300,-295.5 481,-295.5 481,-345.5"/>
<text text-anchor="middle" x="390.5" y="-323.5" font-family="Sans" font-size="10.00" fill="#000000">Templates for OpenStack Antelope</text>
<text text-anchor="middle" x="390.5" y="-312.5" font-family="Sans" font-size="10.00" fill="#000000">version</text>
</a>
</g>
</g>
<!-- template&#45;library&#45;openstack#1 -->
<g id="node42" class="node">
<title>template-library-openstack#1</title>
<polygon fill="#d3d3d3" stroke="#000000" points="761,-39 607,-39 607,0 761,0 761,-39"/>
<text text-anchor="middle" x="684" y="-17" font-family="Sans" font-size="10.00" fill="#000000">template-library-openstack#1</text>
</g>
<!-- template&#45;library&#45;openstack#63&#45;&gt;template&#45;library&#45;openstack#1 -->
<g id="edge25" class="edge">
<title>template-library-openstack#63-&gt;template-library-openstack#1</title>
<path fill="none" stroke="#000000" stroke-width="2" d="M402.47,-295.3903C429.2039,-241.9599 498.9683,-116.3576 594,-48.5 596.1626,-46.9558 598.4116,-45.4909 600.7274,-44.1015"/>
<polygon fill="#000000" stroke="#000000" stroke-width="2" points="602.8219,-46.9476 609.9492,-39.1085 599.489,-40.7919 602.8219,-46.9476"/>
<text text-anchor="middle" x="478.3786" y="-146.3644" font-family="Sans" font-size="10.00" fill="#000000">fixes</text>
</g>
</g>
</svg>
