<?xml version="1.0" encoding="UTF-8" standalone="no"?>
<!DOCTYPE svg PUBLIC "-//W3C//DTD SVG 1.1//EN"
 "http://www.w3.org/Graphics/SVG/1.1/DTD/svg11.dtd">
<!-- Generated by graphviz version 2.26.0 (20091210.2329)
 -->
<!-- Title: Dependencies Pages: 1 -->
<svg width="994pt" height="2412pt"
 viewBox="0.00 0.00 994.00 2412.00" xmlns="http://www.w3.org/2000/svg" xmlns:xlink="http://www.w3.org/1999/xlink">
<g id="graph1" class="graph" transform="scale(1 1) rotate(0) translate(4 2408)">
<title>Dependencies</title>
<polygon fill="white" stroke="white" points="-4,5 -4,-2408 991,-2408 991,5 -4,5"/>
<g id="graph2" class="cluster"><title>cluster_17.2</title>
<polygon fill="none" stroke="black" points="286,-2299 286,-2396 362,-2396 362,-2299 286,-2299"/>
<text text-anchor="middle" x="324" y="-2379.4" font-family="Times Roman,serif" font-size="14.00">17.2</text>
</g>
<g id="graph3" class="cluster"><title>cluster_16.12</title>
<polygon fill="none" stroke="black" points="36,-2299 36,-2396 132,-2396 132,-2299 36,-2299"/>
<text text-anchor="middle" x="84" y="-2379.4" font-family="Times Roman,serif" font-size="14.00">16.12</text>
</g>
<g id="graph4" class="cluster"><title>cluster_16.10</title>
<polygon fill="none" stroke="black" points="232,-250 232,-2291 978,-2291 978,-250 232,-250"/>
<text text-anchor="middle" x="605" y="-2274.4" font-family="Times Roman,serif" font-size="14.00">16.10</text>
</g>
<!-- aii#215 -->
<g id="node1" class="node"><title>aii#215</title>
<a xlink:href="https://github.com/quattor/aii/pull/215" xlink:title="pull&#45;request\naii#215">
<polygon fill="#ad7fa8" stroke="black" points="363,-2256 285,-2256 285,-2202 363,-2202 363,-2256"/>
<text text-anchor="middle" x="324" y="-2233" font-family="Sans" font-size="10.00">pull&#45;request</text>
<text text-anchor="middle" x="324" y="-2220" font-family="Sans" font-size="10.00">aii#215</text>
</a>
</g>
<!-- aii#206 -->
<g id="node3" class="node"><title>aii#206</title>
<a xlink:href="https://github.com/quattor/aii/issues/206" xlink:title="issue\naii#206">
<polygon fill="#ef2929" stroke="black" points="593,-2256 535,-2256 535,-2202 593,-2202 593,-2256"/>
<text text-anchor="middle" x="564" y="-2233" font-family="Sans" font-size="10.00">issue</text>
<text text-anchor="middle" x="564" y="-2220" font-family="Sans" font-size="10.00">aii#206</text>
</a>
</g>
<!-- aii#215&#45;&gt;aii#206 -->
<g id="edge2" class="edge"><title>aii#215&#45;&gt;aii#206</title>
<path fill="none" stroke="black" d="M363.631,-2229C408.004,-2229 479.509,-2229 524.022,-2229"/>
<polygon fill="black" stroke="black" points="524.18,-2232.5 534.18,-2229 524.18,-2225.5 524.18,-2232.5"/>
<text text-anchor="middle" x="444" y="-2233" font-family="Sans" font-size="10.00">fixes</text>
</g>
<!-- aii#210 -->
<g id="node4" class="node"><title>aii#210</title>
<a xlink:href="https://github.com/quattor/aii/pull/210" xlink:title="pull&#45;request\naii#210">
<polygon fill="#8ae234" stroke="black" points="123,-2361 45,-2361 45,-2307 123,-2307 123,-2361"/>
<text text-anchor="middle" x="84" y="-2338" font-family="Sans" font-size="10.00">pull&#45;request</text>
<text text-anchor="middle" x="84" y="-2325" font-family="Sans" font-size="10.00">aii#210</text>
</a>
</g>
<!-- aii#209 -->
<g id="node6" class="node"><title>aii#209</title>
<a xlink:href="https://github.com/quattor/aii/issues/209" xlink:title="issue\naii#209">
<polygon fill="#8ae234" stroke="black" points="353,-2361 295,-2361 295,-2307 353,-2307 353,-2361"/>
<text text-anchor="middle" x="324" y="-2338" font-family="Sans" font-size="10.00">issue</text>
<text text-anchor="middle" x="324" y="-2325" font-family="Sans" font-size="10.00">aii#209</text>
</a>
</g>
<!-- aii#210&#45;&gt;aii#209 -->
<g id="edge4" class="edge"><title>aii#210&#45;&gt;aii#209</title>
<path fill="none" stroke="black" d="M123.631,-2334C168.004,-2334 239.509,-2334 284.022,-2334"/>
<polygon fill="black" stroke="black" points="284.18,-2337.5 294.18,-2334 284.18,-2330.5 284.18,-2337.5"/>
<text text-anchor="middle" x="204" y="-2338" font-family="Sans" font-size="10.00">fixes</text>
</g>
<!-- aii#205 -->
<g id="node7" class="node"><title>aii#205</title>
<a xlink:href="https://github.com/quattor/aii/pull/205" xlink:title="pull&#45;request\naii#205">
<polygon fill="#8ae234" stroke="black" points="363,-2184 285,-2184 285,-2130 363,-2130 363,-2184"/>
<text text-anchor="middle" x="324" y="-2161" font-family="Sans" font-size="10.00">pull&#45;request</text>
<text text-anchor="middle" x="324" y="-2148" font-family="Sans" font-size="10.00">aii#205</text>
</a>
</g>
<!-- aii#199 -->
<g id="node9" class="node"><title>aii#199</title>
<a xlink:href="https://github.com/quattor/aii/issues/199" xlink:title="issue\naii#199">
<polygon fill="#8ae234" stroke="black" points="593,-2184 535,-2184 535,-2130 593,-2130 593,-2184"/>
<text text-anchor="middle" x="564" y="-2161" font-family="Sans" font-size="10.00">issue</text>
<text text-anchor="middle" x="564" y="-2148" font-family="Sans" font-size="10.00">aii#199</text>
</a>
</g>
<!-- aii#205&#45;&gt;aii#199 -->
<g id="edge6" class="edge"><title>aii#205&#45;&gt;aii#199</title>
<path fill="none" stroke="black" d="M363.631,-2157C408.004,-2157 479.509,-2157 524.022,-2157"/>
<polygon fill="black" stroke="black" points="524.18,-2160.5 534.18,-2157 524.18,-2153.5 524.18,-2160.5"/>
<text text-anchor="middle" x="444" y="-2161" font-family="Sans" font-size="10.00">fixes</text>
</g>
<!-- aii#203 -->
<g id="node10" class="node"><title>aii#203</title>
<a xlink:href="https://github.com/quattor/aii/pull/203" xlink:title="pull&#45;request\naii#203">
<polygon fill="#8ae234" stroke="black" points="363,-2112 285,-2112 285,-2058 363,-2058 363,-2112"/>
<text text-anchor="middle" x="324" y="-2089" font-family="Sans" font-size="10.00">pull&#45;request</text>
<text text-anchor="middle" x="324" y="-2076" font-family="Sans" font-size="10.00">aii#203</text>
</a>
</g>
<!-- aii#202 -->
<g id="node12" class="node"><title>aii#202</title>
<a xlink:href="https://github.com/quattor/aii/pull/202" xlink:title="pull&#45;request\naii#202">
<polygon fill="#8ae234" stroke="black" points="603,-2112 525,-2112 525,-2058 603,-2058 603,-2112"/>
<text text-anchor="middle" x="564" y="-2089" font-family="Sans" font-size="10.00">pull&#45;request</text>
<text text-anchor="middle" x="564" y="-2076" font-family="Sans" font-size="10.00">aii#202</text>
</a>
</g>
<!-- aii#203&#45;&gt;aii#202 -->
<g id="edge8" class="edge"><title>aii#203&#45;&gt;aii#202</title>
<path fill="none" stroke="black" d="M363.631,-2085C404.886,-2085 469.595,-2085 514.258,-2085"/>
<polygon fill="black" stroke="black" points="514.31,-2088.5 524.31,-2085 514.31,-2081.5 514.31,-2088.5"/>
<text text-anchor="middle" x="444" y="-2089" font-family="Sans" font-size="10.00">requires</text>
</g>
<!-- CAF#198 -->
<g id="node13" class="node"><title>CAF#198</title>
<a xlink:href="https://github.com/quattor/CAF/pull/198" xlink:title="pull&#45;request\nCAF#198">
<polygon fill="#ad7fa8" stroke="black" points="363,-2040 285,-2040 285,-1986 363,-1986 363,-2040"/>
<text text-anchor="middle" x="324" y="-2017" font-family="Sans" font-size="10.00">pull&#45;request</text>
<text text-anchor="middle" x="324" y="-2004" font-family="Sans" font-size="10.00">CAF#198</text>
</a>
</g>
<!-- CAF#197 -->
<g id="node15" class="node"><title>CAF#197</title>
<a xlink:href="https://github.com/quattor/CAF/issues/197" xlink:title="issue\nCAF#197">
<polygon fill="#ef2929" stroke="black" points="599,-2040 529,-2040 529,-1986 599,-1986 599,-2040"/>
<text text-anchor="middle" x="564" y="-2017" font-family="Sans" font-size="10.00">issue</text>
<text text-anchor="middle" x="564" y="-2004" font-family="Sans" font-size="10.00">CAF#197</text>
</a>
</g>
<!-- CAF#198&#45;&gt;CAF#197 -->
<g id="edge10" class="edge"><title>CAF#198&#45;&gt;CAF#197</title>
<path fill="none" stroke="black" d="M363.631,-2013C406.368,-2013 474.275,-2013 518.993,-2013"/>
<polygon fill="black" stroke="black" points="518.998,-2016.5 528.998,-2013 518.998,-2009.5 518.998,-2016.5"/>
<text text-anchor="middle" x="444" y="-2017" font-family="Sans" font-size="10.00">fixes</text>
</g>
<!-- CAF#190 -->
<g id="node16" class="node"><title>CAF#190</title>
<a xlink:href="https://github.com/quattor/CAF/pull/190" xlink:title="pull&#45;request\nCAF#190">
<polygon fill="#ad7fa8" stroke="black" points="363,-528 285,-528 285,-474 363,-474 363,-528"/>
<text text-anchor="middle" x="324" y="-505" font-family="Sans" font-size="10.00">pull&#45;request</text>
<text text-anchor="middle" x="324" y="-492" font-family="Sans" font-size="10.00">CAF#190</text>
</a>
</g>
<!-- CAF#186 -->
<g id="node18" class="node"><title>CAF#186</title>
<polygon fill="lightgrey" stroke="black" points="599,-242.5 529,-242.5 529,-201.5 599,-201.5 599,-242.5"/>
<text text-anchor="middle" x="564" y="-219.5" font-family="Sans" font-size="10.00">CAF#186</text>
</g>
<!-- CAF#190&#45;&gt;CAF#186 -->
<g id="edge12" class="edge"><title>CAF#190&#45;&gt;CAF#186</title>
<path fill="none" stroke="black" d="M363.54,-484.054C385.327,-474.717 408,-465 408,-465 408,-465 480,-246 480,-246 480,-246 499.087,-240.547 519.064,-234.839"/>
<polygon fill="black" stroke="black" points="520.209,-238.152 528.863,-232.039 518.286,-231.421 520.209,-238.152"/>
<text text-anchor="middle" x="444" y="-411" font-family="Sans" font-size="10.00">fixes</text>
</g>
<!-- CCM#145 -->
<g id="node19" class="node"><title>CCM#145</title>
<a xlink:href="https://github.com/quattor/CCM/pull/145" xlink:title="pull&#45;request\nCCM#145">
<polygon fill="#ad7fa8" stroke="black" points="363,-1968 285,-1968 285,-1914 363,-1914 363,-1968"/>
<text text-anchor="middle" x="324" y="-1945" font-family="Sans" font-size="10.00">pull&#45;request</text>
<text text-anchor="middle" x="324" y="-1932" font-family="Sans" font-size="10.00">CCM#145</text>
</a>
</g>
<!-- CCM#120 -->
<g id="node21" class="node"><title>CCM#120</title>
<a xlink:href="https://github.com/quattor/CCM/issues/120" xlink:title="issue\nCCM#120">
<polygon fill="#ef2929" stroke="black" points="600,-1968 528,-1968 528,-1914 600,-1914 600,-1968"/>
<text text-anchor="middle" x="564" y="-1945" font-family="Sans" font-size="10.00">issue</text>
<text text-anchor="middle" x="564" y="-1932" font-family="Sans" font-size="10.00">CCM#120</text>
</a>
</g>
<!-- CCM#145&#45;&gt;CCM#120 -->
<g id="edge14" class="edge"><title>CCM#145&#45;&gt;CCM#120</title>
<path fill="none" stroke="black" d="M363.631,-1941C405.874,-1941 472.708,-1941 517.433,-1941"/>
<polygon fill="black" stroke="black" points="517.459,-1944.5 527.459,-1941 517.459,-1937.5 517.459,-1944.5"/>
<text text-anchor="middle" x="444" y="-1945" font-family="Sans" font-size="10.00">fixes</text>
</g>
<!-- CCM#144 -->
<g id="node22" class="node"><title>CCM#144</title>
<a xlink:href="https://github.com/quattor/CCM/pull/144" xlink:title="pull&#45;request\nCCM#144">
<polygon fill="#ad7fa8" stroke="black" points="363,-1896 285,-1896 285,-1842 363,-1842 363,-1896"/>
<text text-anchor="middle" x="324" y="-1873" font-family="Sans" font-size="10.00">pull&#45;request</text>
<text text-anchor="middle" x="324" y="-1860" font-family="Sans" font-size="10.00">CCM#144</text>
</a>
</g>
<!-- CCM#100 -->
<g id="node24" class="node"><title>CCM#100</title>
<a xlink:href="https://github.com/quattor/CCM/issues/100" xlink:title="issue\nCCM#100">
<polygon fill="#ef2929" stroke="black" points="600,-1896 528,-1896 528,-1842 600,-1842 600,-1896"/>
<text text-anchor="middle" x="564" y="-1873" font-family="Sans" font-size="10.00">issue</text>
<text text-anchor="middle" x="564" y="-1860" font-family="Sans" font-size="10.00">CCM#100</text>
</a>
</g>
<!-- CCM#144&#45;&gt;CCM#100 -->
<g id="edge16" class="edge"><title>CCM#144&#45;&gt;CCM#100</title>
<path fill="none" stroke="black" d="M363.631,-1869C405.874,-1869 472.708,-1869 517.433,-1869"/>
<polygon fill="black" stroke="black" points="517.459,-1872.5 527.459,-1869 517.459,-1865.5 517.459,-1872.5"/>
<text text-anchor="middle" x="444" y="-1873" font-family="Sans" font-size="10.00">fixes</text>
</g>
<!-- CCM#142 -->
<g id="node25" class="node"><title>CCM#142</title>
<a xlink:href="https://github.com/quattor/CCM/pull/142" xlink:title="pull&#45;request\nCCM#142">
<polygon fill="#8ae234" stroke="black" points="363,-1824 285,-1824 285,-1770 363,-1770 363,-1824"/>
<text text-anchor="middle" x="324" y="-1801" font-family="Sans" font-size="10.00">pull&#45;request</text>
<text text-anchor="middle" x="324" y="-1788" font-family="Sans" font-size="10.00">CCM#142</text>
</a>
</g>
<!-- CCM#94 -->
<g id="node27" class="node"><title>CCM#94</title>
<a xlink:href="https://github.com/quattor/CCM/issues/94" xlink:title="issue\nCCM#94">
<polygon fill="#8ae234" stroke="black" points="598,-1824 530,-1824 530,-1770 598,-1770 598,-1824"/>
<text text-anchor="middle" x="564" y="-1801" font-family="Sans" font-size="10.00">issue</text>
<text text-anchor="middle" x="564" y="-1788" font-family="Sans" font-size="10.00">CCM#94</text>
</a>
</g>
<!-- CCM#142&#45;&gt;CCM#94 -->
<g id="edge18" class="edge"><title>CCM#142&#45;&gt;CCM#94</title>
<path fill="none" stroke="black" d="M363.631,-1797C406.524,-1797 474.772,-1797 519.483,-1797"/>
<polygon fill="black" stroke="black" points="519.757,-1800.5 529.757,-1797 519.757,-1793.5 519.757,-1800.5"/>
<text text-anchor="middle" x="444" y="-1801" font-family="Sans" font-size="10.00">fixes</text>
</g>
<!-- CCM#141 -->
<g id="node28" class="node"><title>CCM#141</title>
<a xlink:href="https://github.com/quattor/CCM/pull/141" xlink:title="pull&#45;request\nCCM#141">
<polygon fill="#ad7fa8" stroke="black" points="363,-1752 285,-1752 285,-1698 363,-1698 363,-1752"/>
<text text-anchor="middle" x="324" y="-1729" font-family="Sans" font-size="10.00">pull&#45;request</text>
<text text-anchor="middle" x="324" y="-1716" font-family="Sans" font-size="10.00">CCM#141</text>
</a>
</g>
<!-- CCM#110 -->
<g id="node30" class="node"><title>CCM#110</title>
<a xlink:href="https://github.com/quattor/CCM/issues/110" xlink:title="issue\nCCM#110">
<polygon fill="#ef2929" stroke="black" points="600,-1752 528,-1752 528,-1698 600,-1698 600,-1752"/>
<text text-anchor="middle" x="564" y="-1729" font-family="Sans" font-size="10.00">issue</text>
<text text-anchor="middle" x="564" y="-1716" font-family="Sans" font-size="10.00">CCM#110</text>
</a>
</g>
<!-- CCM#141&#45;&gt;CCM#110 -->
<g id="edge20" class="edge"><title>CCM#141&#45;&gt;CCM#110</title>
<path fill="none" stroke="black" d="M363.631,-1725C405.874,-1725 472.708,-1725 517.433,-1725"/>
<polygon fill="black" stroke="black" points="517.459,-1728.5 527.459,-1725 517.459,-1721.5 517.459,-1728.5"/>
<text text-anchor="middle" x="444" y="-1729" font-family="Sans" font-size="10.00">fixes</text>
</g>
<!-- CCM#139 -->
<g id="node31" class="node"><title>CCM#139</title>
<a xlink:href="https://github.com/quattor/CCM/pull/139" xlink:title="pull&#45;request\nCCM#139">
<polygon fill="#ad7fa8" stroke="black" points="363,-1680 285,-1680 285,-1626 363,-1626 363,-1680"/>
<text text-anchor="middle" x="324" y="-1657" font-family="Sans" font-size="10.00">pull&#45;request</text>
<text text-anchor="middle" x="324" y="-1644" font-family="Sans" font-size="10.00">CCM#139</text>
</a>
</g>
<!-- CCM#138 -->
<g id="node33" class="node"><title>CCM#138</title>
<a xlink:href="https://github.com/quattor/CCM/issues/138" xlink:title="issue\nCCM#138">
<polygon fill="#ef2929" stroke="black" points="600,-1680 528,-1680 528,-1626 600,-1626 600,-1680"/>
<text text-anchor="middle" x="564" y="-1657" font-family="Sans" font-size="10.00">issue</text>
<text text-anchor="middle" x="564" y="-1644" font-family="Sans" font-size="10.00">CCM#138</text>
</a>
</g>
<!-- CCM#139&#45;&gt;CCM#138 -->
<g id="edge22" class="edge"><title>CCM#139&#45;&gt;CCM#138</title>
<path fill="none" stroke="black" d="M363.631,-1653C405.874,-1653 472.708,-1653 517.433,-1653"/>
<polygon fill="black" stroke="black" points="517.459,-1656.5 527.459,-1653 517.459,-1649.5 517.459,-1656.5"/>
<text text-anchor="middle" x="444" y="-1657" font-family="Sans" font-size="10.00">fixes</text>
</g>
<!-- CCM#136 -->
<g id="node34" class="node"><title>CCM#136</title>
<a xlink:href="https://github.com/quattor/CCM/pull/136" xlink:title="pull&#45;request\nCCM#136">
<polygon fill="#ad7fa8" stroke="black" points="363,-1608 285,-1608 285,-1554 363,-1554 363,-1608"/>
<text text-anchor="middle" x="324" y="-1585" font-family="Sans" font-size="10.00">pull&#45;request</text>
<text text-anchor="middle" x="324" y="-1572" font-family="Sans" font-size="10.00">CCM#136</text>
</a>
</g>
<!-- CCM#131 -->
<g id="node36" class="node"><title>CCM#131</title>
<a xlink:href="https://github.com/quattor/CCM/issues/131" xlink:title="issue\nCCM#131">
<polygon fill="#ef2929" stroke="black" points="600,-1608 528,-1608 528,-1554 600,-1554 600,-1608"/>
<text text-anchor="middle" x="564" y="-1585" font-family="Sans" font-size="10.00">issue</text>
<text text-anchor="middle" x="564" y="-1572" font-family="Sans" font-size="10.00">CCM#131</text>
</a>
</g>
<!-- CCM#136&#45;&gt;CCM#131 -->
<g id="edge24" class="edge"><title>CCM#136&#45;&gt;CCM#131</title>
<path fill="none" stroke="black" d="M363.631,-1581C405.874,-1581 472.708,-1581 517.433,-1581"/>
<polygon fill="black" stroke="black" points="517.459,-1584.5 527.459,-1581 517.459,-1577.5 517.459,-1584.5"/>
<text text-anchor="middle" x="444" y="-1585" font-family="Sans" font-size="10.00">fixes</text>
</g>
<!-- CCM#133 -->
<g id="node37" class="node"><title>CCM#133</title>
<a xlink:href="https://github.com/quattor/CCM/pull/133" xlink:title="pull&#45;request\nCCM#133">
<polygon fill="#ad7fa8" stroke="black" points="363,-1536 285,-1536 285,-1482 363,-1482 363,-1536"/>
<text text-anchor="middle" x="324" y="-1513" font-family="Sans" font-size="10.00">pull&#45;request</text>
<text text-anchor="middle" x="324" y="-1500" font-family="Sans" font-size="10.00">CCM#133</text>
</a>
</g>
<!-- CCM#132 -->
<g id="node39" class="node"><title>CCM#132</title>
<a xlink:href="https://github.com/quattor/CCM/issues/132" xlink:title="issue\nCCM#132">
<polygon fill="#ef2929" stroke="black" points="600,-1536 528,-1536 528,-1482 600,-1482 600,-1536"/>
<text text-anchor="middle" x="564" y="-1513" font-family="Sans" font-size="10.00">issue</text>
<text text-anchor="middle" x="564" y="-1500" font-family="Sans" font-size="10.00">CCM#132</text>
</a>
</g>
<!-- CCM#133&#45;&gt;CCM#132 -->
<g id="edge26" class="edge"><title>CCM#133&#45;&gt;CCM#132</title>
<path fill="none" stroke="black" d="M363.631,-1509C405.874,-1509 472.708,-1509 517.433,-1509"/>
<polygon fill="black" stroke="black" points="517.459,-1512.5 527.459,-1509 517.459,-1505.5 517.459,-1512.5"/>
<text text-anchor="middle" x="444" y="-1513" font-family="Sans" font-size="10.00">fixes</text>
</g>
<!-- CCM#126 -->
<g id="node40" class="node"><title>CCM#126</title>
<a xlink:href="https://github.com/quattor/CCM/pull/126" xlink:title="pull&#45;request\nCCM#126">
<polygon fill="#ad7fa8" stroke="black" points="363,-1464 285,-1464 285,-1410 363,-1410 363,-1464"/>
<text text-anchor="middle" x="324" y="-1441" font-family="Sans" font-size="10.00">pull&#45;request</text>
<text text-anchor="middle" x="324" y="-1428" font-family="Sans" font-size="10.00">CCM#126</text>
</a>
</g>
<!-- CCM#121 -->
<g id="node42" class="node"><title>CCM#121</title>
<a xlink:href="https://github.com/quattor/CCM/issues/121" xlink:title="issue\nCCM#121">
<polygon fill="#ef2929" stroke="black" points="600,-1464 528,-1464 528,-1410 600,-1410 600,-1464"/>
<text text-anchor="middle" x="564" y="-1441" font-family="Sans" font-size="10.00">issue</text>
<text text-anchor="middle" x="564" y="-1428" font-family="Sans" font-size="10.00">CCM#121</text>
</a>
</g>
<!-- CCM#126&#45;&gt;CCM#121 -->
<g id="edge28" class="edge"><title>CCM#126&#45;&gt;CCM#121</title>
<path fill="none" stroke="black" d="M363.631,-1437C405.874,-1437 472.708,-1437 517.433,-1437"/>
<polygon fill="black" stroke="black" points="517.459,-1440.5 527.459,-1437 517.459,-1433.5 517.459,-1440.5"/>
<text text-anchor="middle" x="444" y="-1441" font-family="Sans" font-size="10.00">fixes</text>
</g>
<!-- CCM#122 -->
<g id="node43" class="node"><title>CCM#122</title>
<a xlink:href="https://github.com/quattor/CCM/pull/122" xlink:title="pull&#45;request\nCCM#122">
<polygon fill="#ad7fa8" stroke="black" points="363,-1392 285,-1392 285,-1338 363,-1338 363,-1392"/>
<text text-anchor="middle" x="324" y="-1369" font-family="Sans" font-size="10.00">pull&#45;request</text>
<text text-anchor="middle" x="324" y="-1356" font-family="Sans" font-size="10.00">CCM#122</text>
</a>
</g>
<!-- CCM#75 -->
<g id="node45" class="node"><title>CCM#75</title>
<a xlink:href="https://github.com/quattor/CCM/issues/75" xlink:title="issue\nCCM#75">
<polygon fill="#ef2929" stroke="black" points="598,-1392 530,-1392 530,-1338 598,-1338 598,-1392"/>
<text text-anchor="middle" x="564" y="-1369" font-family="Sans" font-size="10.00">issue</text>
<text text-anchor="middle" x="564" y="-1356" font-family="Sans" font-size="10.00">CCM#75</text>
</a>
</g>
<!-- CCM#122&#45;&gt;CCM#75 -->
<g id="edge30" class="edge"><title>CCM#122&#45;&gt;CCM#75</title>
<path fill="none" stroke="black" d="M363.631,-1365C406.524,-1365 474.772,-1365 519.483,-1365"/>
<polygon fill="black" stroke="black" points="519.757,-1368.5 529.757,-1365 519.757,-1361.5 519.757,-1368.5"/>
<text text-anchor="middle" x="444" y="-1369" font-family="Sans" font-size="10.00">fixes</text>
</g>
<!-- cdp&#45;listend#16 -->
<g id="node46" class="node"><title>cdp&#45;listend#16</title>
<a xlink:href="https://github.com/quattor/cdp-listend/pull/16" xlink:title="pull&#45;request\ncdp&#45;listend#16">
<polygon fill="#8ae234" stroke="black" points="370,-456 278,-456 278,-402 370,-402 370,-456"/>
<text text-anchor="middle" x="324" y="-433" font-family="Sans" font-size="10.00">pull&#45;request</text>
<text text-anchor="middle" x="324" y="-420" font-family="Sans" font-size="10.00">cdp&#45;listend#16</text>
</a>
</g>
<!-- cdp&#45;listend#15 -->
<g id="node48" class="node"><title>cdp&#45;listend#15</title>
<a xlink:href="https://github.com/quattor/cdp-listend/issues/15" xlink:title="issue\ncdp&#45;listend#15">
<polygon fill="#8ae234" stroke="black" points="610,-184 518,-184 518,-130 610,-130 610,-184"/>
<text text-anchor="middle" x="564" y="-161" font-family="Sans" font-size="10.00">issue</text>
<text text-anchor="middle" x="564" y="-148" font-family="Sans" font-size="10.00">cdp&#45;listend#15</text>
</a>
</g>
<!-- cdp&#45;listend#16&#45;&gt;cdp&#45;listend#15 -->
<g id="edge32" class="edge"><title>cdp&#45;listend#16&#45;&gt;cdp&#45;listend#15</title>
<path fill="none" stroke="black" d="M370.422,-409.105C389.849,-400.779 408,-393 408,-393 408,-393 426,-187 426,-187 426,-187 469.459,-177.552 507.601,-169.261"/>
<polygon fill="black" stroke="black" points="508.636,-172.618 517.664,-167.073 507.149,-165.777 508.636,-172.618"/>
<text text-anchor="middle" x="444" y="-191" font-family="Sans" font-size="10.00">fixes</text>
</g>
<!-- configuration&#45;modules&#45;core#945 -->
<g id="node49" class="node"><title>configuration&#45;modules&#45;core#945</title>
<a xlink:href="https://github.com/quattor/configuration-modules-core/pull/945" xlink:title="pull&#45;request\nconfiguration&#45;modules&#45;core#945">
<polygon fill="#8ae234" stroke="black" points="407,-1320 241,-1320 241,-1266 407,-1266 407,-1320"/>
<text text-anchor="middle" x="324" y="-1297" font-family="Sans" font-size="10.00">pull&#45;request</text>
<text text-anchor="middle" x="324" y="-1284" font-family="Sans" font-size="10.00">configuration&#45;modules&#45;core#945</text>
</a>
</g>
<!-- configuration&#45;modules&#45;core#944 -->
<g id="node51" class="node"><title>configuration&#45;modules&#45;core#944</title>
<a xlink:href="https://github.com/quattor/configuration-modules-core/issues/944" xlink:title="issue\nconfiguration&#45;modules&#45;core#944">
<polygon fill="#8ae234" stroke="black" points="647,-1320 481,-1320 481,-1266 647,-1266 647,-1320"/>
<text text-anchor="middle" x="564" y="-1297" font-family="Sans" font-size="10.00">issue</text>
<text text-anchor="middle" x="564" y="-1284" font-family="Sans" font-size="10.00">configuration&#45;modules&#45;core#944</text>
</a>
</g>
<!-- configuration&#45;modules&#45;core#945&#45;&gt;configuration&#45;modules&#45;core#944 -->
<g id="edge34" class="edge"><title>configuration&#45;modules&#45;core#945&#45;&gt;configuration&#45;modules&#45;core#944</title>
<path fill="none" stroke="black" d="M407.603,-1293C427.832,-1293 449.585,-1293 470.246,-1293"/>
<polygon fill="black" stroke="black" points="470.29,-1296.5 480.29,-1293 470.29,-1289.5 470.29,-1296.5"/>
<text text-anchor="middle" x="444" y="-1297" font-family="Sans" font-size="10.00">fixes</text>
</g>
<!-- configuration&#45;modules&#45;core#919 -->
<g id="node52" class="node"><title>configuration&#45;modules&#45;core#919</title>
<a xlink:href="https://github.com/quattor/configuration-modules-core/pull/919" xlink:title="pull&#45;request\nconfiguration&#45;modules&#45;core#919">
<polygon fill="#8ae234" stroke="black" points="407,-384 241,-384 241,-330 407,-330 407,-384"/>
<text text-anchor="middle" x="324" y="-361" font-family="Sans" font-size="10.00">pull&#45;request</text>
<text text-anchor="middle" x="324" y="-348" font-family="Sans" font-size="10.00">configuration&#45;modules&#45;core#919</text>
</a>
</g>
<!-- configuration&#45;modules&#45;core#917 -->
<g id="node54" class="node"><title>configuration&#45;modules&#45;core#917</title>
<a xlink:href="https://github.com/quattor/configuration-modules-core/issues/917" xlink:title="issue\nconfiguration&#45;modules&#45;core#917">
<polygon fill="#8ae234" stroke="black" points="647,-112 481,-112 481,-58 647,-58 647,-112"/>
<text text-anchor="middle" x="564" y="-89" font-family="Sans" font-size="10.00">issue</text>
<text text-anchor="middle" x="564" y="-76" font-family="Sans" font-size="10.00">configuration&#45;modules&#45;core#917</text>
</a>
</g>
<!-- configuration&#45;modules&#45;core#919&#45;&gt;configuration&#45;modules&#45;core#917 -->
<g id="edge36" class="edge"><title>configuration&#45;modules&#45;core#919&#45;&gt;configuration&#45;modules&#45;core#917</title>
<path fill="none" stroke="black" d="M387.236,-329.899C399.17,-324.784 408,-321 408,-321 408,-321 426,-163 426,-163 426,-163 480,-121 480,-121 480,-121 484.562,-119.045 491.559,-116.046"/>
<polygon fill="black" stroke="black" points="492.951,-119.257 500.764,-112.101 490.194,-112.823 492.951,-119.257"/>
<text text-anchor="middle" x="444" y="-167" font-family="Sans" font-size="10.00">fixes</text>
</g>
<!-- configuration&#45;modules&#45;core#884 -->
<g id="node55" class="node"><title>configuration&#45;modules&#45;core#884</title>
<a xlink:href="https://github.com/quattor/configuration-modules-core/pull/884" xlink:title="pull&#45;request\nconfiguration&#45;modules&#45;core#884">
<polygon fill="#8ae234" stroke="black" points="407,-1248 241,-1248 241,-1194 407,-1194 407,-1248"/>
<text text-anchor="middle" x="324" y="-1225" font-family="Sans" font-size="10.00">pull&#45;request</text>
<text text-anchor="middle" x="324" y="-1212" font-family="Sans" font-size="10.00">configuration&#45;modules&#45;core#884</text>
</a>
</g>
<!-- configuration&#45;modules&#45;core#876 -->
<g id="node57" class="node"><title>configuration&#45;modules&#45;core#876</title>
<a xlink:href="https://github.com/quattor/configuration-modules-core/issues/876" xlink:title="issue\nconfiguration&#45;modules&#45;core#876">
<polygon fill="#8ae234" stroke="black" points="647,-1248 481,-1248 481,-1194 647,-1194 647,-1248"/>
<text text-anchor="middle" x="564" y="-1225" font-family="Sans" font-size="10.00">issue</text>
<text text-anchor="middle" x="564" y="-1212" font-family="Sans" font-size="10.00">configuration&#45;modules&#45;core#876</text>
</a>
</g>
<!-- configuration&#45;modules&#45;core#884&#45;&gt;configuration&#45;modules&#45;core#876 -->
<g id="edge38" class="edge"><title>configuration&#45;modules&#45;core#884&#45;&gt;configuration&#45;modules&#45;core#876</title>
<path fill="none" stroke="black" d="M407.603,-1221C427.832,-1221 449.585,-1221 470.246,-1221"/>
<polygon fill="black" stroke="black" points="470.29,-1224.5 480.29,-1221 470.29,-1217.5 470.29,-1224.5"/>
<text text-anchor="middle" x="444" y="-1225" font-family="Sans" font-size="10.00">fixes</text>
</g>
<!-- configuration&#45;modules&#45;core#890 -->
<g id="node58" class="node"><title>configuration&#45;modules&#45;core#890</title>
<a xlink:href="https://github.com/quattor/configuration-modules-core/pull/890" xlink:title="pull&#45;request\nconfiguration&#45;modules&#45;core#890">
<polygon fill="#8ae234" stroke="black" points="167,-906 1,-906 1,-852 167,-852 167,-906"/>
<text text-anchor="middle" x="84" y="-883" font-family="Sans" font-size="10.00">pull&#45;request</text>
<text text-anchor="middle" x="84" y="-870" font-family="Sans" font-size="10.00">configuration&#45;modules&#45;core#890</text>
</a>
</g>
<!-- configuration&#45;modules&#45;core#888 -->
<g id="node60" class="node"><title>configuration&#45;modules&#45;core#888</title>
<a xlink:href="https://github.com/quattor/configuration-modules-core/pull/888" xlink:title="pull&#45;request\nconfiguration&#45;modules&#45;core#888">
<polygon fill="#ad7fa8" stroke="black" points="407,-960 241,-960 241,-906 407,-906 407,-960"/>
<text text-anchor="middle" x="324" y="-937" font-family="Sans" font-size="10.00">pull&#45;request</text>
<text text-anchor="middle" x="324" y="-924" font-family="Sans" font-size="10.00">configuration&#45;modules&#45;core#888</text>
</a>
</g>
<!-- configuration&#45;modules&#45;core#890&#45;&gt;configuration&#45;modules&#45;core#888 -->
<g id="edge40" class="edge"><title>configuration&#45;modules&#45;core#890&#45;&gt;configuration&#45;modules&#45;core#888</title>
<path fill="none" stroke="black" d="M167.603,-897.811C187.924,-902.383 209.783,-907.301 230.528,-911.969"/>
<polygon fill="black" stroke="black" points="229.766,-915.385 240.29,-914.165 231.302,-908.555 229.766,-915.385"/>
<text text-anchor="middle" x="204" y="-914" font-family="Sans" font-size="10.00">requires</text>
</g>
<!-- configuration&#45;modules&#45;core#755 -->
<g id="node62" class="node"><title>configuration&#45;modules&#45;core#755</title>
<a xlink:href="https://github.com/quattor/configuration-modules-core/issues/755" xlink:title="issue\nconfiguration&#45;modules&#45;core#755">
<polygon fill="#8ae234" stroke="black" points="407,-888 241,-888 241,-834 407,-834 407,-888"/>
<text text-anchor="middle" x="324" y="-865" font-family="Sans" font-size="10.00">issue</text>
<text text-anchor="middle" x="324" y="-852" font-family="Sans" font-size="10.00">configuration&#45;modules&#45;core#755</text>
</a>
</g>
<!-- configuration&#45;modules&#45;core#890&#45;&gt;configuration&#45;modules&#45;core#755 -->
<g id="edge42" class="edge"><title>configuration&#45;modules&#45;core#890&#45;&gt;configuration&#45;modules&#45;core#755</title>
<path fill="none" stroke="black" d="M167.603,-872.73C187.832,-871.213 209.585,-869.581 230.246,-868.032"/>
<polygon fill="black" stroke="black" points="230.58,-871.516 240.29,-867.278 230.056,-864.536 230.58,-871.516"/>
<text text-anchor="middle" x="204" y="-876" font-family="Sans" font-size="10.00">fixes</text>
</g>
<!-- configuration&#45;modules&#45;grid#115 -->
<g id="node63" class="node"><title>configuration&#45;modules&#45;grid#115</title>
<a xlink:href="https://github.com/quattor/configuration-modules-grid/issues/115" xlink:title="issue\nconfiguration&#45;modules&#45;grid#115">
<polygon fill="#ef2929" stroke="black" points="406,-1176 242,-1176 242,-1122 406,-1122 406,-1176"/>
<text text-anchor="middle" x="324" y="-1153" font-family="Sans" font-size="10.00">issue</text>
<text text-anchor="middle" x="324" y="-1140" font-family="Sans" font-size="10.00">configuration&#45;modules&#45;grid#115</text>
</a>
</g>
<!-- configuration&#45;modules&#45;grid#109 -->
<g id="node65" class="node"><title>configuration&#45;modules&#45;grid#109</title>
<a xlink:href="https://github.com/quattor/configuration-modules-grid/issues/109" xlink:title="issue\nconfiguration&#45;modules&#45;grid#109">
<polygon fill="#ef2929" stroke="black" points="646,-1176 482,-1176 482,-1122 646,-1122 646,-1176"/>
<text text-anchor="middle" x="564" y="-1153" font-family="Sans" font-size="10.00">issue</text>
<text text-anchor="middle" x="564" y="-1140" font-family="Sans" font-size="10.00">configuration&#45;modules&#45;grid#109</text>
</a>
</g>
<!-- configuration&#45;modules&#45;grid#115&#45;&gt;configuration&#45;modules&#45;grid#109 -->
<g id="edge44" class="edge"><title>configuration&#45;modules&#45;grid#115&#45;&gt;configuration&#45;modules&#45;grid#109</title>
<path fill="none" stroke="black" d="M406.259,-1149C427.344,-1149 450.161,-1149 471.715,-1149"/>
<polygon fill="black" stroke="black" points="471.849,-1152.5 481.849,-1149 471.849,-1145.5 471.849,-1152.5"/>
<text text-anchor="middle" x="444" y="-1153" font-family="Sans" font-size="10.00">fixes</text>
</g>
<!-- ncm&#45;cdispd#44 -->
<g id="node66" class="node"><title>ncm&#45;cdispd#44</title>
<a xlink:href="https://github.com/quattor/ncm-cdispd/pull/44" xlink:title="pull&#45;request\nncm&#45;cdispd#44">
<polygon fill="#ad7fa8" stroke="black" points="371,-1104 277,-1104 277,-1050 371,-1050 371,-1104"/>
<text text-anchor="middle" x="324" y="-1081" font-family="Sans" font-size="10.00">pull&#45;request</text>
<text text-anchor="middle" x="324" y="-1068" font-family="Sans" font-size="10.00">ncm&#45;cdispd#44</text>
</a>
</g>
<!-- ncm&#45;cdispd#39 -->
<g id="node68" class="node"><title>ncm&#45;cdispd#39</title>
<a xlink:href="https://github.com/quattor/ncm-cdispd/issues/39" xlink:title="issue\nncm&#45;cdispd#39">
<polygon fill="#ef2929" stroke="black" points="611,-1104 517,-1104 517,-1050 611,-1050 611,-1104"/>
<text text-anchor="middle" x="564" y="-1081" font-family="Sans" font-size="10.00">issue</text>
<text text-anchor="middle" x="564" y="-1068" font-family="Sans" font-size="10.00">ncm&#45;cdispd#39</text>
</a>
</g>
<!-- ncm&#45;cdispd#44&#45;&gt;ncm&#45;cdispd#39 -->
<g id="edge46" class="edge"><title>ncm&#45;cdispd#44&#45;&gt;ncm&#45;cdispd#39</title>
<path fill="none" stroke="black" d="M371.703,-1077C410.392,-1077 465.065,-1077 506.23,-1077"/>
<polygon fill="black" stroke="black" points="506.387,-1080.5 516.387,-1077 506.387,-1073.5 506.387,-1080.5"/>
<text text-anchor="middle" x="444" y="-1081" font-family="Sans" font-size="10.00">fixes</text>
</g>
<!-- ncm&#45;cdispd#43 -->
<g id="node69" class="node"><title>ncm&#45;cdispd#43</title>
<a xlink:href="https://github.com/quattor/ncm-cdispd/pull/43" xlink:title="pull&#45;request\nncm&#45;cdispd#43">
<polygon fill="#8ae234" stroke="black" points="371,-1032 277,-1032 277,-978 371,-978 371,-1032"/>
<text text-anchor="middle" x="324" y="-1009" font-family="Sans" font-size="10.00">pull&#45;request</text>
<text text-anchor="middle" x="324" y="-996" font-family="Sans" font-size="10.00">ncm&#45;cdispd#43</text>
</a>
</g>
<!-- ncm&#45;cdispd#37 -->
<g id="node71" class="node"><title>ncm&#45;cdispd#37</title>
<a xlink:href="https://github.com/quattor/ncm-cdispd/issues/37" xlink:title="issue\nncm&#45;cdispd#37">
<polygon fill="#8ae234" stroke="black" points="611,-1032 517,-1032 517,-978 611,-978 611,-1032"/>
<text text-anchor="middle" x="564" y="-1009" font-family="Sans" font-size="10.00">issue</text>
<text text-anchor="middle" x="564" y="-996" font-family="Sans" font-size="10.00">ncm&#45;cdispd#37</text>
</a>
</g>
<!-- ncm&#45;cdispd#43&#45;&gt;ncm&#45;cdispd#37 -->
<g id="edge48" class="edge"><title>ncm&#45;cdispd#43&#45;&gt;ncm&#45;cdispd#37</title>
<path fill="none" stroke="black" d="M371.703,-1005C410.392,-1005 465.065,-1005 506.23,-1005"/>
<polygon fill="black" stroke="black" points="506.387,-1008.5 516.387,-1005 506.387,-1001.5 506.387,-1008.5"/>
<text text-anchor="middle" x="444" y="-1009" font-family="Sans" font-size="10.00">fixes</text>
</g>
<!-- ncm&#45;cdispd#40 -->
<g id="node72" class="node"><title>ncm&#45;cdispd#40</title>
<a xlink:href="https://github.com/quattor/ncm-cdispd/pull/40" xlink:title="pull&#45;request\nncm&#45;cdispd#40">
<polygon fill="#ad7fa8" stroke="black" points="371,-816 277,-816 277,-762 371,-762 371,-816"/>
<text text-anchor="middle" x="324" y="-793" font-family="Sans" font-size="10.00">pull&#45;request</text>
<text text-anchor="middle" x="324" y="-780" font-family="Sans" font-size="10.00">ncm&#45;cdispd#40</text>
</a>
</g>
<!-- ncm&#45;cdispd#38 -->
<g id="node74" class="node"><title>ncm&#45;cdispd#38</title>
<a xlink:href="https://github.com/quattor/ncm-cdispd/pull/38" xlink:title="pull&#45;request\nncm&#45;cdispd#38">
<polygon fill="#ad7fa8" stroke="black" points="611,-888 517,-888 517,-834 611,-834 611,-888"/>
<text text-anchor="middle" x="564" y="-865" font-family="Sans" font-size="10.00">pull&#45;request</text>
<text text-anchor="middle" x="564" y="-852" font-family="Sans" font-size="10.00">ncm&#45;cdispd#38</text>
</a>
</g>
<!-- ncm&#45;cdispd#40&#45;&gt;ncm&#45;cdispd#38 -->
<g id="edge50" class="edge"><title>ncm&#45;cdispd#40&#45;&gt;ncm&#45;cdispd#38</title>
<path fill="none" stroke="black" d="M371.703,-803.311C410.556,-814.967 465.529,-831.459 506.753,-843.826"/>
<polygon fill="black" stroke="black" points="505.803,-847.195 516.387,-846.716 507.815,-840.49 505.803,-847.195"/>
<text text-anchor="middle" x="444" y="-834" font-family="Sans" font-size="10.00">requires</text>
</g>
<!-- ncm&#45;cdispd#33 -->
<g id="node76" class="node"><title>ncm&#45;cdispd#33</title>
<a xlink:href="https://github.com/quattor/ncm-cdispd/issues/33" xlink:title="issue\nncm&#45;cdispd#33">
<polygon fill="#ef2929" stroke="black" points="611,-816 517,-816 517,-762 611,-762 611,-816"/>
<text text-anchor="middle" x="564" y="-793" font-family="Sans" font-size="10.00">issue</text>
<text text-anchor="middle" x="564" y="-780" font-family="Sans" font-size="10.00">ncm&#45;cdispd#33</text>
</a>
</g>
<!-- ncm&#45;cdispd#40&#45;&gt;ncm&#45;cdispd#33 -->
<g id="edge52" class="edge"><title>ncm&#45;cdispd#40&#45;&gt;ncm&#45;cdispd#33</title>
<path fill="none" stroke="black" d="M371.703,-789C410.392,-789 465.065,-789 506.23,-789"/>
<polygon fill="black" stroke="black" points="506.387,-792.5 516.387,-789 506.387,-785.5 506.387,-792.5"/>
<text text-anchor="middle" x="444" y="-793" font-family="Sans" font-size="10.00">fixes</text>
</g>
<!-- ncm&#45;cdispd#34 -->
<g id="node78" class="node"><title>ncm&#45;cdispd#34</title>
<a xlink:href="https://github.com/quattor/ncm-cdispd/pull/34" xlink:title="pull&#45;request\nncm&#45;cdispd#34">
<polygon fill="#ad7fa8" stroke="black" points="815,-888 721,-888 721,-834 815,-834 815,-888"/>
<text text-anchor="middle" x="768" y="-865" font-family="Sans" font-size="10.00">pull&#45;request</text>
<text text-anchor="middle" x="768" y="-852" font-family="Sans" font-size="10.00">ncm&#45;cdispd#34</text>
</a>
</g>
<!-- ncm&#45;cdispd#38&#45;&gt;ncm&#45;cdispd#34 -->
<g id="edge54" class="edge"><title>ncm&#45;cdispd#38&#45;&gt;ncm&#45;cdispd#34</title>
<path fill="none" stroke="black" d="M611.571,-861C640.978,-861 678.919,-861 710.071,-861"/>
<polygon fill="black" stroke="black" points="710.353,-864.5 720.353,-861 710.353,-857.5 710.353,-864.5"/>
<text text-anchor="middle" x="684" y="-865" font-family="Sans" font-size="10.00">requires</text>
</g>
<!-- ncm&#45;cdispd#32 -->
<g id="node80" class="node"><title>ncm&#45;cdispd#32</title>
<a xlink:href="https://github.com/quattor/ncm-cdispd/issues/32" xlink:title="issue\nncm&#45;cdispd#32">
<polygon fill="#ef2929" stroke="black" points="969,-888 875,-888 875,-834 969,-834 969,-888"/>
<text text-anchor="middle" x="922" y="-865" font-family="Sans" font-size="10.00">issue</text>
<text text-anchor="middle" x="922" y="-852" font-family="Sans" font-size="10.00">ncm&#45;cdispd#32</text>
</a>
</g>
<!-- ncm&#45;cdispd#34&#45;&gt;ncm&#45;cdispd#32 -->
<g id="edge56" class="edge"><title>ncm&#45;cdispd#34&#45;&gt;ncm&#45;cdispd#32</title>
<path fill="none" stroke="black" d="M815.882,-861C831.165,-861 848.242,-861 864.154,-861"/>
<polygon fill="black" stroke="black" points="864.412,-864.5 874.412,-861 864.412,-857.5 864.412,-864.5"/>
<text text-anchor="middle" x="845" y="-865" font-family="Sans" font-size="10.00">fixes</text>
</g>
<!-- ncm&#45;lib&#45;blockdevices#70 -->
<g id="node81" class="node"><title>ncm&#45;lib&#45;blockdevices#70</title>
<a xlink:href="https://github.com/quattor/ncm-lib-blockdevices/pull/70" xlink:title="pull&#45;request\nncm&#45;lib&#45;blockdevices#70">
<polygon fill="#8ae234" stroke="black" points="392,-744 256,-744 256,-690 392,-690 392,-744"/>
<text text-anchor="middle" x="324" y="-721" font-family="Sans" font-size="10.00">pull&#45;request</text>
<text text-anchor="middle" x="324" y="-708" font-family="Sans" font-size="10.00">ncm&#45;lib&#45;blockdevices#70</text>
</a>
</g>
<!-- ncm&#45;lib&#45;blockdevices#53 -->
<g id="node83" class="node"><title>ncm&#45;lib&#45;blockdevices#53</title>
<a xlink:href="https://github.com/quattor/ncm-lib-blockdevices/issues/53" xlink:title="issue\nncm&#45;lib&#45;blockdevices#53">
<polygon fill="#8ae234" stroke="black" points="632,-744 496,-744 496,-690 632,-690 632,-744"/>
<text text-anchor="middle" x="564" y="-721" font-family="Sans" font-size="10.00">issue</text>
<text text-anchor="middle" x="564" y="-708" font-family="Sans" font-size="10.00">ncm&#45;lib&#45;blockdevices#53</text>
</a>
</g>
<!-- ncm&#45;lib&#45;blockdevices#70&#45;&gt;ncm&#45;lib&#45;blockdevices#53 -->
<g id="edge58" class="edge"><title>ncm&#45;lib&#45;blockdevices#70&#45;&gt;ncm&#45;lib&#45;blockdevices#53</title>
<path fill="none" stroke="black" d="M392.132,-717C421.267,-717 455.453,-717 485.63,-717"/>
<polygon fill="black" stroke="black" points="485.697,-720.5 495.697,-717 485.697,-713.5 485.697,-720.5"/>
<text text-anchor="middle" x="444" y="-721" font-family="Sans" font-size="10.00">fixes</text>
</g>
<!-- ncm&#45;lib&#45;blockdevices#68 -->
<g id="node84" class="node"><title>ncm&#45;lib&#45;blockdevices#68</title>
<a xlink:href="https://github.com/quattor/ncm-lib-blockdevices/pull/68" xlink:title="pull&#45;request\nncm&#45;lib&#45;blockdevices#68">
<polygon fill="#ad7fa8" stroke="black" points="392,-672 256,-672 256,-618 392,-618 392,-672"/>
<text text-anchor="middle" x="324" y="-649" font-family="Sans" font-size="10.00">pull&#45;request</text>
<text text-anchor="middle" x="324" y="-636" font-family="Sans" font-size="10.00">ncm&#45;lib&#45;blockdevices#68</text>
</a>
</g>
<!-- ncm&#45;lib&#45;blockdevices#67 -->
<g id="node86" class="node"><title>ncm&#45;lib&#45;blockdevices#67</title>
<a xlink:href="https://github.com/quattor/ncm-lib-blockdevices/issues/67" xlink:title="issue\nncm&#45;lib&#45;blockdevices#67">
<polygon fill="#ef2929" stroke="black" points="632,-672 496,-672 496,-618 632,-618 632,-672"/>
<text text-anchor="middle" x="564" y="-649" font-family="Sans" font-size="10.00">issue</text>
<text text-anchor="middle" x="564" y="-636" font-family="Sans" font-size="10.00">ncm&#45;lib&#45;blockdevices#67</text>
</a>
</g>
<!-- ncm&#45;lib&#45;blockdevices#68&#45;&gt;ncm&#45;lib&#45;blockdevices#67 -->
<g id="edge60" class="edge"><title>ncm&#45;lib&#45;blockdevices#68&#45;&gt;ncm&#45;lib&#45;blockdevices#67</title>
<path fill="none" stroke="black" d="M392.132,-645C421.267,-645 455.453,-645 485.63,-645"/>
<polygon fill="black" stroke="black" points="485.697,-648.5 495.697,-645 485.697,-641.5 485.697,-648.5"/>
<text text-anchor="middle" x="444" y="-649" font-family="Sans" font-size="10.00">fixes</text>
</g>
<!-- ncm&#45;ncd#79 -->
<g id="node87" class="node"><title>ncm&#45;ncd#79</title>
<a xlink:href="https://github.com/quattor/ncm-ncd/pull/79" xlink:title="pull&#45;request\nncm&#45;ncd#79">
<polygon fill="#ad7fa8" stroke="black" points="365,-600 283,-600 283,-546 365,-546 365,-600"/>
<text text-anchor="middle" x="324" y="-577" font-family="Sans" font-size="10.00">pull&#45;request</text>
<text text-anchor="middle" x="324" y="-564" font-family="Sans" font-size="10.00">ncm&#45;ncd#79</text>
</a>
</g>
<!-- ncm&#45;ncd#78 -->
<g id="node89" class="node"><title>ncm&#45;ncd#78</title>
<a xlink:href="https://github.com/quattor/ncm-ncd/issues/78" xlink:title="issue\nncm&#45;ncd#78">
<polygon fill="#ef2929" stroke="black" points="605,-600 523,-600 523,-546 605,-546 605,-600"/>
<text text-anchor="middle" x="564" y="-577" font-family="Sans" font-size="10.00">issue</text>
<text text-anchor="middle" x="564" y="-564" font-family="Sans" font-size="10.00">ncm&#45;ncd#78</text>
</a>
</g>
<!-- ncm&#45;ncd#79&#45;&gt;ncm&#45;ncd#78 -->
<g id="edge62" class="edge"><title>ncm&#45;ncd#79&#45;&gt;ncm&#45;ncd#78</title>
<path fill="none" stroke="black" d="M365.257,-573C406.078,-573 468.665,-573 512.674,-573"/>
<polygon fill="black" stroke="black" points="512.88,-576.5 522.88,-573 512.88,-569.5 512.88,-576.5"/>
<text text-anchor="middle" x="444" y="-577" font-family="Sans" font-size="10.00">fixes</text>
</g>
<!-- template&#45;library&#45;openstack#15 -->
<g id="node90" class="node"><title>template&#45;library&#45;openstack#15</title>
<a xlink:href="https://github.com/quattor/template-library-openstack/pull/15" xlink:title="pull&#45;request\ntemplate&#45;library&#45;openstack#15">
<polygon fill="#ad7fa8" stroke="black" points="403,-312 245,-312 245,-258 403,-258 403,-312"/>
<text text-anchor="middle" x="324" y="-289" font-family="Sans" font-size="10.00">pull&#45;request</text>
<text text-anchor="middle" x="324" y="-276" font-family="Sans" font-size="10.00">template&#45;library&#45;openstack#15</text>
</a>
</g>
<!-- template&#45;library&#45;openstack#14 -->
<g id="node92" class="node"><title>template&#45;library&#45;openstack#14</title>
<polygon fill="lightgrey" stroke="black" points="643,-40.5 485,-40.5 485,0.5 643,0.5 643,-40.5"/>
<text text-anchor="middle" x="564" y="-17.5" font-family="Sans" font-size="10.00">template&#45;library&#45;openstack#14</text>
</g>
<!-- template&#45;library&#45;openstack#15&#45;&gt;template&#45;library&#45;openstack#14 -->
<g id="edge64" class="edge"><title>template&#45;library&#45;openstack#15&#45;&gt;template&#45;library&#45;openstack#14</title>
<path fill="none" stroke="black" d="M335.9,-257.583C362.807,-195.592 426,-50 426,-50 426,-50 447.898,-45.2396 474.248,-39.5114"/>
<polygon fill="black" stroke="black" points="475.096,-42.9087 484.124,-37.3642 473.609,-36.0685 475.096,-42.9087"/>
<text text-anchor="middle" x="444" y="-54" font-family="Sans" font-size="10.00">requires</text>
</g>
</g>
</svg>
