<?xml version="1.0" encoding="UTF-8" standalone="no"?>
<?xml-stylesheet href="relationships.css" type="text/css"?>
<!-- Generated by graphviz version 2.26.0 (20091210.2329)
 -->
<!-- Title: Dependencies Pages: 1 -->
<svg xmlns="http://www.w3.org/2000/svg" xmlns:xlink="http://www.w3.org/1999/xlink" width="772pt" height="1768pt" viewBox="0.00 0.00 772.00 1768.00">
<g id="graph1" class="graph" transform="scale(1 1) rotate(0) translate(4 1764)">
<title>Dependencies</title>
<polygon fill="white" stroke="white" points="-4,5 -4,-1764 769,-1764 769,5 -4,5"/>
<g id="graph2" class="cluster"><title>cluster_17.10</title>
<polygon fill="none" stroke="black" points="8,-648 8,-814 196,-814 196,-648 8,-648"/>
<text text-anchor="middle" x="102" y="-799.2" font-family="Sans" font-size="12.00">17.10</text>
</g>
<g id="graph3" class="cluster"><title>cluster_17.8</title>
<polygon fill="none" stroke="black" points="252,-396 252,-1498 756,-1498 756,-396 252,-396"/>
<text text-anchor="middle" x="504" y="-1483.2" font-family="Sans" font-size="12.00">17.8</text>
</g>
<g id="graph5" class="cluster"><title>cluster_17.12</title>
<polygon fill="none" stroke="black" points="54,-1564 54,-1752 396,-1752 396,-1564 54,-1564"/>
<text text-anchor="middle" x="225" y="-1737.2" font-family="Sans" font-size="12.00">17.12</text>
</g>
<!-- aii#275 -->
<g id="node1" class="node"><title>aii#275</title>
<a xlink:href="https://github.com/quattor/aii/pull/275" xlink:title="remove aii-freeipa, deprecated by ncm-freeipa AII support" target="_parent">
<polygon fill="#6e5494" stroke="black" points="385,-1466 307,-1466 307,-1412 385,-1412 385,-1466"/>
<text text-anchor="middle" x="346" y="-1443" font-family="Sans" font-size="10.00">pull-request</text>
<text text-anchor="middle" x="346" y="-1430" font-family="Sans" font-size="10.00">aii#275</text>
</a>
</g>
<!-- aii#134 -->
<g id="node3" class="node"><title>aii#134</title>
<a xlink:href="https://github.com/quattor/aii/issues/134" xlink:title="Missing freeipa.pm in AII RPM" target="_parent">
<ellipse fill="#bd2c00" stroke="black" cx="626" cy="-1428" rx="41.2167" ry="38.1838"/>
<text text-anchor="middle" x="626" y="-1432" font-family="Sans" font-size="10.00">issue</text>
<text text-anchor="middle" x="626" y="-1419" font-family="Sans" font-size="10.00">aii#134</text>
</a>
</g>
<!-- aii#275&#45;&gt;aii#134 -->
<g id="edge2" class="edge"><title>aii#275-&gt;aii#134</title>
<path fill="none" stroke="black" stroke-width="2" d="M385.504,-1425.74C404.725,-1419.96 428.312,-1413.87 450,-1411 492.102,-1405.43 540.098,-1410.85 575.323,-1417"/>
<polygon fill="black" stroke="black" points="574.897,-1420.48 585.363,-1418.83 576.155,-1413.59 574.897,-1420.48"/>
<text text-anchor="middle" x="468" y="-1415" font-family="Sans" font-size="10.00">fixes</text>
</g>
<!-- aii#275&#45;&gt;aii#134 -->
<g id="edge10" class="edge"><title>aii#275-&gt;aii#134</title>
<path fill="none" stroke="black" stroke-width="2" d="M385.523,-1437.45C434.948,-1435.51 519.686,-1432.18 574.242,-1430.03"/>
<polygon fill="black" stroke="black" points="574.542,-1433.52 584.396,-1429.63 574.267,-1426.53 574.542,-1433.52"/>
<text text-anchor="middle" x="468" y="-1439" font-family="Sans" font-size="10.00">fixes</text>
</g>
<!-- aii#210 -->
<g id="node4" class="node"><title>aii#210</title>
<a xlink:href="https://github.com/quattor/aii/pull/210" xlink:title="Shellfe: support active config for plugins" target="_parent">
<polygon fill="#6cc644" stroke="black" points="141,-1639 63,-1639 63,-1585 141,-1585 141,-1639"/>
<text text-anchor="middle" x="102" y="-1616" font-family="Sans" font-size="10.00">pull-request</text>
<text text-anchor="middle" x="102" y="-1603" font-family="Sans" font-size="10.00">aii#210</text>
</a>
</g>
<!-- aii#209 -->
<g id="node6" class="node"><title>aii#209</title>
<a xlink:href="https://github.com/quattor/aii/issues/209" xlink:title="support ACTIVE_CONFIG" target="_parent">
<ellipse fill="#6cc644" stroke="black" cx="346" cy="-1610" rx="41.2167" ry="38.1838"/>
<text text-anchor="middle" x="346" y="-1614" font-family="Sans" font-size="10.00">issue</text>
<text text-anchor="middle" x="346" y="-1601" font-family="Sans" font-size="10.00">aii#209</text>
</a>
</g>
<!-- aii#210&#45;&gt;aii#209 -->
<g id="edge4" class="edge"><title>aii#210-&gt;aii#209</title>
<path fill="none" stroke="black" stroke-width="2" d="M141.817,-1603.94C161.108,-1600.43 184.665,-1596.73 206,-1595 235.575,-1592.6 268.58,-1595.85 295.113,-1599.93"/>
<polygon fill="black" stroke="black" points="294.881,-1603.44 305.313,-1601.58 296.004,-1596.53 294.881,-1603.44"/>
<text text-anchor="middle" x="224" y="-1599" font-family="Sans" font-size="10.00">fixes</text>
</g>
<!-- aii#210&#45;&gt;aii#209 -->
<g id="edge12" class="edge"><title>aii#210-&gt;aii#209</title>
<path fill="none" stroke="black" stroke-width="2" d="M141.746,-1611.67C183.214,-1611.33 248.414,-1610.8 293.962,-1610.43"/>
<polygon fill="black" stroke="black" points="294.256,-1613.92 304.227,-1610.34 294.199,-1606.92 294.256,-1613.92"/>
<text text-anchor="middle" x="224" y="-1616" font-family="Sans" font-size="10.00">fixes</text>
</g>
<!-- ncm&#45;ncd#74 -->
<g id="node8" class="node"><title>ncm-ncd#74</title>
<a xlink:href="https://github.com/quattor/ncm-ncd/pull/74" xlink:title="Set the current active config as an attribute to the component" target="_parent">
<polygon fill="#6cc644" stroke="black" points="387,-1720 305,-1720 305,-1666 387,-1666 387,-1720"/>
<text text-anchor="middle" x="346" y="-1697" font-family="Sans" font-size="10.00">pull-request</text>
<text text-anchor="middle" x="346" y="-1684" font-family="Sans" font-size="10.00">ncm-ncd#74</text>
</a>
</g>
<!-- aii#210&#45;&gt;ncm&#45;ncd#74 -->
<g id="edge6" class="edge"><title>aii#210-&gt;ncm-ncd#74</title>
<path fill="none" stroke="black" stroke-dasharray="5,2" d="M141.746,-1625.19C183.514,-1639.06 249.36,-1660.92 294.948,-1676.05"/>
<polygon fill="none" stroke="black" points="294.045,-1679.44 304.639,-1679.27 296.251,-1672.8 294.045,-1679.44"/>
<text text-anchor="middle" x="224" y="-1662" font-family="Sans" font-size="10.00">requires</text>
</g>
<!-- aii#210&#45;&gt;ncm&#45;ncd#74 -->
<g id="edge14" class="edge"><title>aii#210-&gt;ncm-ncd#74</title>
<path fill="none" stroke="black" stroke-dasharray="5,2" d="M138.145,-1639.05C157.335,-1652.04 181.887,-1666.57 206,-1675 234.41,-1684.93 267.781,-1689.48 294.816,-1691.52"/>
<polygon fill="none" stroke="black" points="294.633,-1695.01 304.843,-1692.18 295.097,-1688.03 294.633,-1695.01"/>
<text text-anchor="middle" x="224" y="-1689" font-family="Sans" font-size="10.00">requires</text>
</g>
<!-- aii#203 -->
<g id="node10" class="node"><title>aii#203</title>
<polygon fill="lightgrey" stroke="black" points="375,-1546.5 317,-1546.5 317,-1505.5 375,-1505.5 375,-1546.5"/>
<text text-anchor="middle" x="346" y="-1523.5" font-family="Sans" font-size="10.00">aii#203</text>
</g>
<!-- aii#210&#45;&gt;aii#203 -->
<g id="edge8" class="edge"><title>aii#210-&gt;aii#203</title>
<path fill="none" stroke="black" stroke-dasharray="5,2" d="M141.746,-1597.99C187.289,-1581.94 261.456,-1555.8 306.778,-1539.82"/>
<polygon fill="none" stroke="black" points="307.998,-1543.11 316.266,-1536.48 305.671,-1536.5 307.998,-1543.11"/>
<text text-anchor="middle" x="224" y="-1579" font-family="Sans" font-size="10.00">requires</text>
</g>
<!-- aii#210&#45;&gt;aii#203 -->
<g id="edge16" class="edge"><title>aii#210-&gt;aii#203</title>
<path fill="none" stroke="black" stroke-dasharray="5,2" d="M137.152,-1584.94C156.464,-1571.43 181.432,-1556.07 206,-1547 238.546,-1534.98 277.768,-1529.83 306.408,-1527.63"/>
<polygon fill="none" stroke="black" points="306.71,-1531.12 316.448,-1526.95 306.233,-1524.13 306.71,-1531.12"/>
<text text-anchor="middle" x="224" y="-1551" font-family="Sans" font-size="10.00">requires</text>
</g>
<!-- CCM#176 -->
<g id="node15" class="node"><title>CCM#176</title>
<a xlink:href="https://github.com/quattor/CCM/pull/176" xlink:title="ccm-purge: Use correct (new) path for DB module" target="_parent">
<polygon fill="#6e5494" stroke="black" points="385,-1394 307,-1394 307,-1340 385,-1340 385,-1394"/>
<text text-anchor="middle" x="346" y="-1371" font-family="Sans" font-size="10.00">pull-request</text>
<text text-anchor="middle" x="346" y="-1358" font-family="Sans" font-size="10.00">CCM#176</text>
</a>
</g>
<!-- CCM#175 -->
<g id="node17" class="node"><title>CCM#175</title>
<a xlink:href="https://github.com/quattor/CCM/issues/175" xlink:title="ccm-purge does not work in 17.7" target="_parent">
<ellipse fill="#bd2c00" stroke="black" cx="626" cy="-1334" rx="51.1176" ry="38.1838"/>
<text text-anchor="middle" x="626" y="-1338" font-family="Sans" font-size="10.00">issue</text>
<text text-anchor="middle" x="626" y="-1325" font-family="Sans" font-size="10.00">CCM#175</text>
</a>
</g>
<!-- CCM#176&#45;&gt;CCM#175 -->
<g id="edge18" class="edge"><title>CCM#176-&gt;CCM#175</title>
<path fill="none" stroke="black" stroke-width="2" d="M385.523,-1362.34C432.116,-1356.85 510.09,-1347.66 564.578,-1341.24"/>
<polygon fill="black" stroke="black" points="565.284,-1344.68 574.805,-1340.03 564.464,-1337.73 565.284,-1344.68"/>
<text text-anchor="middle" x="468" y="-1359" font-family="Sans" font-size="10.00">fixes</text>
</g>
<!-- configuration&#45;modules&#45;core#1181 -->
<g id="node18" class="node"><title>configuration-modules-core#1181</title>
<a xlink:href="https://github.com/quattor/configuration-modules-core/pull/1181" xlink:title="ncm-network: NoActionSupported" target="_parent">
<polygon fill="#6e5494" stroke="black" points="432,-962 260,-962 260,-908 432,-908 432,-962"/>
<text text-anchor="middle" x="346" y="-939" font-family="Sans" font-size="10.00">pull-request</text>
<text text-anchor="middle" x="346" y="-926" font-family="Sans" font-size="10.00">configuration-modules-core#1181</text>
</a>
</g>
<!-- configuration&#45;modules&#45;core#1086 -->
<g id="node20" class="node"><title>configuration-modules-core#1086</title>
<polygon fill="lightgrey" stroke="black" points="712,-388.5 540,-388.5 540,-347.5 712,-347.5 712,-388.5"/>
<text text-anchor="middle" x="626" y="-365.5" font-family="Sans" font-size="10.00">configuration-modules-core#1086</text>
</g>
<!-- configuration&#45;modules&#45;core#1181&#45;&gt;configuration&#45;modules&#45;core#1086 -->
<g id="edge42" class="edge"><title>configuration-modules-core#1181-&gt;configuration-modules-core#1086</title>
<path fill="none" stroke="black" stroke-width="2" d="M423.73,-907.84C426.769,-905.163 429.556,-902.225 432,-899 471.49,-846.893 413.452,-807.211 450,-753 460.232,-737.824 476.305,-748.525 486,-733 506.097,-700.818 479.135,-420.658 504,-392 511.203,-383.699 520.366,-377.75 530.425,-373.546"/>
<polygon fill="black" stroke="black" points="531.65,-376.826 539.885,-370.159 529.29,-370.235 531.65,-376.826"/>
<text text-anchor="middle" x="468" y="-757" font-family="Sans" font-size="10.00">fixes</text>
</g>
<!-- configuration&#45;modules&#45;core#1181&#45;&gt;configuration&#45;modules&#45;core#1086 -->
<g id="edge58" class="edge"><title>configuration-modules-core#1181-&gt;configuration-modules-core#1086</title>
<path fill="none" stroke="black" stroke-width="2" d="M423.827,-907.913C426.841,-905.217 429.596,-902.255 432,-899 480.557,-833.263 404.422,-783.836 450,-716 460.09,-700.983 476.206,-712.211 486,-697 522.756,-639.914 459.345,-443.145 504,-392 511.228,-383.721 520.407,-377.786 530.475,-373.59"/>
<polygon fill="black" stroke="black" points="531.701,-376.868 539.94,-370.207 529.345,-370.276 531.701,-376.868"/>
<text text-anchor="middle" x="468" y="-720" font-family="Sans" font-size="10.00">fixes</text>
</g>
<!-- configuration&#45;modules&#45;core#1181&#45;&gt;configuration&#45;modules&#45;core#1086 -->
<g id="edge20" class="edge"><title>configuration-modules-core#1181-&gt;configuration-modules-core#1086</title>
<path fill="none" stroke="black" stroke-width="2" d="M423.885,-907.956C426.884,-905.249 429.62,-902.272 432,-899 460.205,-860.229 425.231,-725.051 450,-684 459.809,-667.743 476.327,-677.338 486,-661 516.522,-609.446 464.419,-436.975 504,-392 511.133,-383.895 520.135,-378.041 530.005,-373.868"/>
<polygon fill="black" stroke="black" points="531.486,-377.054 539.7,-370.363 529.106,-370.471 531.486,-377.054"/>
<text text-anchor="middle" x="468" y="-688" font-family="Sans" font-size="10.00">fixes</text>
</g>
<!-- configuration&#45;modules&#45;core#1169 -->
<g id="node21" class="node"><title>configuration-modules-core#1169</title>
<a xlink:href="https://github.com/quattor/configuration-modules-core/pull/1169" xlink:title="ncm-accounts: is_user_or_group function can be used without component" target="_parent">
<polygon fill="#6e5494" stroke="black" points="432,-1322 260,-1322 260,-1268 432,-1268 432,-1322"/>
<text text-anchor="middle" x="346" y="-1299" font-family="Sans" font-size="10.00">pull-request</text>
<text text-anchor="middle" x="346" y="-1286" font-family="Sans" font-size="10.00">configuration-modules-core#1169</text>
</a>
</g>
<!-- configuration&#45;modules&#45;core#1166 -->
<g id="node23" class="node"><title>configuration-modules-core#1166</title>
<a xlink:href="https://github.com/quattor/configuration-modules-core/issues/1166" xlink:title="ncm-systemd: schema depends on components/accounts/functions" target="_parent">
<ellipse fill="#bd2c00" stroke="black" cx="626" cy="-1240" rx="121.122" ry="38.1838"/>
<text text-anchor="middle" x="626" y="-1244" font-family="Sans" font-size="10.00">issue</text>
<text text-anchor="middle" x="626" y="-1231" font-family="Sans" font-size="10.00">configuration-modules-core#1166</text>
</a>
</g>
<!-- configuration&#45;modules&#45;core#1169&#45;&gt;configuration&#45;modules&#45;core#1166 -->
<g id="edge22" class="edge"><title>configuration-modules-core#1169-&gt;configuration-modules-core#1166</title>
<path fill="none" stroke="black" stroke-width="2" d="M432.066,-1282.53C449.937,-1279.64 468.616,-1276.41 486,-1273 497.087,-1270.83 508.629,-1268.39 520.118,-1265.85"/>
<polygon fill="black" stroke="black" points="521.193,-1269.2 530.187,-1263.6 519.665,-1262.37 521.193,-1269.2"/>
<text text-anchor="middle" x="468" y="-1284" font-family="Sans" font-size="10.00">fixes</text>
</g>
<!-- configuration&#45;modules&#45;core#1169&#45;&gt;configuration&#45;modules&#45;core#1166 -->
<g id="edge44" class="edge"><title>configuration-modules-core#1169-&gt;configuration-modules-core#1166</title>
<path fill="none" stroke="black" stroke-width="2" d="M432.007,-1303.43C450.058,-1303.2 468.822,-1301.45 486,-1297 494.859,-1294.7 495.71,-1290.88 504,-1287 514.521,-1282.08 525.711,-1277.25 536.882,-1272.67"/>
<polygon fill="black" stroke="black" points="538.286,-1275.88 546.246,-1268.88 535.663,-1269.39 538.286,-1275.88"/>
<text text-anchor="middle" x="468" y="-1307" font-family="Sans" font-size="10.00">fixes</text>
</g>
<!-- configuration&#45;modules&#45;core#1169&#45;&gt;configuration&#45;modules&#45;core#1166 -->
<g id="edge60" class="edge"><title>configuration-modules-core#1169-&gt;configuration-modules-core#1166</title>
<path fill="none" stroke="black" stroke-width="2" d="M410.085,-1267.92C423.103,-1263.29 436.841,-1259.01 450,-1256 464.721,-1252.64 480.288,-1249.97 495.83,-1247.87"/>
<polygon fill="black" stroke="black" points="496.556,-1251.3 506.031,-1246.56 495.668,-1244.36 496.556,-1251.3"/>
<text text-anchor="middle" x="468" y="-1260" font-family="Sans" font-size="10.00">fixes</text>
</g>
<!-- configuration&#45;modules&#45;core#1167 -->
<g id="node24" class="node"><title>configuration-modules-core#1167</title>
<a xlink:href="https://github.com/quattor/configuration-modules-core/pull/1167" xlink:title="ncm-cups: fix compatibility with EL7" target="_parent">
<polygon fill="#6e5494" stroke="black" points="432,-1250 260,-1250 260,-1196 432,-1196 432,-1250"/>
<text text-anchor="middle" x="346" y="-1227" font-family="Sans" font-size="10.00">pull-request</text>
<text text-anchor="middle" x="346" y="-1214" font-family="Sans" font-size="10.00">configuration-modules-core#1167</text>
</a>
</g>
<!-- configuration&#45;modules&#45;core#1161 -->
<g id="node26" class="node"><title>configuration-modules-core#1161</title>
<a xlink:href="https://github.com/quattor/configuration-modules-core/issues/1161" xlink:title="ncm-cups 17.7.0 broken on EL7 (pre-EL7 chkconfig dependency)" target="_parent">
<ellipse fill="#bd2c00" stroke="black" cx="626" cy="-1146" rx="121.122" ry="38.1838"/>
<text text-anchor="middle" x="626" y="-1150" font-family="Sans" font-size="10.00">issue</text>
<text text-anchor="middle" x="626" y="-1137" font-family="Sans" font-size="10.00">configuration-modules-core#1161</text>
</a>
</g>
<!-- configuration&#45;modules&#45;core#1167&#45;&gt;configuration&#45;modules&#45;core#1161 -->
<g id="edge24" class="edge"><title>configuration-modules-core#1167-&gt;configuration-modules-core#1161</title>
<path fill="none" stroke="black" stroke-width="2" d="M423.845,-1195.95C432.632,-1193.15 441.485,-1190.44 450,-1188 471.437,-1181.85 494.519,-1175.88 516.686,-1170.46"/>
<polygon fill="black" stroke="black" points="517.564,-1173.85 526.459,-1168.1 515.916,-1167.05 517.564,-1173.85"/>
<text text-anchor="middle" x="468" y="-1192" font-family="Sans" font-size="10.00">fixes</text>
</g>
<!-- configuration&#45;modules&#45;core#1167&#45;&gt;configuration&#45;modules&#45;core#1161 -->
<g id="edge46" class="edge"><title>configuration-modules-core#1167-&gt;configuration-modules-core#1161</title>
<path fill="none" stroke="black" stroke-width="2" d="M432.304,-1213.08C450.246,-1210 468.892,-1206.05 486,-1201 494.396,-1198.52 495.913,-1196.35 504,-1193 515.251,-1188.34 527.144,-1183.56 538.918,-1178.93"/>
<polygon fill="black" stroke="black" points="540.283,-1182.15 548.319,-1175.25 537.731,-1175.64 540.283,-1182.15"/>
<text text-anchor="middle" x="468" y="-1214" font-family="Sans" font-size="10.00">fixes</text>
</g>
<!-- configuration&#45;modules&#45;core#1167&#45;&gt;configuration&#45;modules&#45;core#1161 -->
<g id="edge62" class="edge"><title>configuration-modules-core#1167-&gt;configuration-modules-core#1161</title>
<path fill="none" stroke="black" stroke-width="2" d="M418.992,-1195.95C423.561,-1193.2 427.945,-1190.22 432,-1187 442.718,-1178.48 438.11,-1168.79 450,-1162 463.552,-1154.26 478.666,-1148.97 494.186,-1145.45"/>
<polygon fill="black" stroke="black" points="495.318,-1148.8 504.431,-1143.39 493.937,-1141.93 495.318,-1148.8"/>
<text text-anchor="middle" x="468" y="-1166" font-family="Sans" font-size="10.00">fixes</text>
</g>
<!-- configuration&#45;modules&#45;core#1163 -->
<g id="node27" class="node"><title>configuration-modules-core#1163</title>
<a xlink:href="https://github.com/quattor/configuration-modules-core/pull/1163" xlink:title="ncm-directoryservices: remove unsupported component" target="_parent">
<polygon fill="#6e5494" stroke="black" points="432,-890 260,-890 260,-836 432,-836 432,-890"/>
<text text-anchor="middle" x="346" y="-867" font-family="Sans" font-size="10.00">pull-request</text>
<text text-anchor="middle" x="346" y="-854" font-family="Sans" font-size="10.00">configuration-modules-core#1163</text>
</a>
</g>
<!-- configuration&#45;modules&#45;core#1052 -->
<g id="node29" class="node"><title>configuration-modules-core#1052</title>
<polygon fill="lightgrey" stroke="black" points="712,-330.5 540,-330.5 540,-289.5 712,-289.5 712,-330.5"/>
<text text-anchor="middle" x="626" y="-307.5" font-family="Sans" font-size="10.00">configuration-modules-core#1052</text>
</g>
<!-- configuration&#45;modules&#45;core#1163&#45;&gt;configuration&#45;modules&#45;core#1052 -->
<g id="edge26" class="edge"><title>configuration-modules-core#1163-&gt;configuration-modules-core#1052</title>
<path fill="none" stroke="black" stroke-width="2" d="M423.818,-835.907C426.835,-833.213 429.592,-830.252 432,-827 479.576,-762.738 408.123,-716.113 450,-648 459.944,-631.826 476.36,-641.357 486,-625 518.334,-570.138 462.969,-387.7 504,-339 511.142,-330.523 520.269,-324.271 530.308,-319.694"/>
<polygon fill="black" stroke="black" points="531.75,-322.888 539.754,-315.946 529.168,-316.381 531.75,-322.888"/>
<text text-anchor="middle" x="468" y="-652" font-family="Sans" font-size="10.00">fixes</text>
</g>
<!-- configuration&#45;modules&#45;core#1163&#45;&gt;configuration&#45;modules&#45;core#1052 -->
<g id="edge48" class="edge"><title>configuration-modules-core#1163-&gt;configuration-modules-core#1052</title>
<path fill="none" stroke="black" stroke-width="2" d="M423.891,-835.96C426.888,-833.252 429.622,-830.274 432,-827 460.697,-787.491 423.532,-649.035 450,-608 459.921,-592.619 476.155,-603.43 486,-588 515.841,-541.231 468.057,-381.26 504,-339 511.181,-330.557 520.332,-324.325 530.384,-319.758"/>
<polygon fill="black" stroke="black" points="531.828,-322.951 539.839,-316.017 529.252,-316.442 531.828,-322.951"/>
<text text-anchor="middle" x="468" y="-612" font-family="Sans" font-size="10.00">fixes</text>
</g>
<!-- configuration&#45;modules&#45;core#1163&#45;&gt;configuration&#45;modules&#45;core#1052 -->
<g id="edge64" class="edge"><title>configuration-modules-core#1163-&gt;configuration-modules-core#1052</title>
<path fill="none" stroke="black" stroke-width="2" d="M423.938,-835.994C426.923,-833.277 429.641,-830.288 432,-827 465.242,-780.661 418.857,-618.775 450,-571 459.88,-555.844 476.014,-567.086 486,-552 512.22,-512.39 473.005,-374.997 504,-339 511.232,-330.6 520.414,-324.395 530.483,-319.843"/>
<polygon fill="black" stroke="black" points="531.929,-323.035 539.948,-316.111 529.362,-316.522 531.929,-323.035"/>
<text text-anchor="middle" x="468" y="-575" font-family="Sans" font-size="10.00">fixes</text>
</g>
<!-- configuration&#45;modules&#45;core#1162 -->
<g id="node30" class="node"><title>configuration-modules-core#1162</title>
<a xlink:href="https://github.com/quattor/configuration-modules-core/pull/1162" xlink:title="ncm-mcx: remove unsupported component" target="_parent">
<polygon fill="#6e5494" stroke="black" points="432,-746 260,-746 260,-692 432,-692 432,-746"/>
<text text-anchor="middle" x="346" y="-723" font-family="Sans" font-size="10.00">pull-request</text>
<text text-anchor="middle" x="346" y="-710" font-family="Sans" font-size="10.00">configuration-modules-core#1162</text>
</a>
</g>
<!-- configuration&#45;modules&#45;core#1054 -->
<g id="node32" class="node"><title>configuration-modules-core#1054</title>
<polygon fill="lightgrey" stroke="black" points="712,-272.5 540,-272.5 540,-231.5 712,-231.5 712,-272.5"/>
<text text-anchor="middle" x="626" y="-249.5" font-family="Sans" font-size="10.00">configuration-modules-core#1054</text>
</g>
<!-- configuration&#45;modules&#45;core#1162&#45;&gt;configuration&#45;modules&#45;core#1054 -->
<g id="edge28" class="edge"><title>configuration-modules-core#1162-&gt;configuration-modules-core#1054</title>
<path fill="none" stroke="black" stroke-width="2" d="M423.723,-691.835C426.764,-689.16 429.553,-686.223 432,-683 471,-631.629 415.559,-593.532 450,-539 460.139,-522.947 476.249,-532.291 486,-516 512.899,-471.06 469.982,-320.824 504,-281 511.199,-272.572 520.361,-266.349 530.419,-261.788"/>
<polygon fill="black" stroke="black" points="531.863,-264.981 539.877,-258.051 529.291,-258.47 531.863,-264.981"/>
<text text-anchor="middle" x="468" y="-543" font-family="Sans" font-size="10.00">fixes</text>
</g>
<!-- configuration&#45;modules&#45;core#1162&#45;&gt;configuration&#45;modules&#45;core#1054 -->
<g id="edge50" class="edge"><title>configuration-modules-core#1162-&gt;configuration-modules-core#1054</title>
<path fill="none" stroke="black" stroke-width="2" d="M423.829,-691.915C426.843,-689.218 429.597,-686.255 432,-683 480.802,-616.894 404.193,-567.215 450,-499 460.086,-483.98 475.969,-495.056 486,-480 510.619,-443.047 474.929,-314.563 504,-281 511.203,-272.685 520.315,-266.522 530.303,-261.986"/>
<polygon fill="black" stroke="black" points="531.686,-265.203 539.692,-258.263 529.106,-258.696 531.686,-265.203"/>
<text text-anchor="middle" x="468" y="-503" font-family="Sans" font-size="10.00">fixes</text>
</g>
<!-- configuration&#45;modules&#45;core#1162&#45;&gt;configuration&#45;modules&#45;core#1054 -->
<g id="edge66" class="edge"><title>configuration-modules-core#1162-&gt;configuration-modules-core#1054</title>
<path fill="none" stroke="black" stroke-width="2" d="M423.892,-691.961C426.889,-689.253 429.623,-686.274 432,-683 460.819,-643.307 423.42,-504.226 450,-463 459.918,-447.617 475.86,-458.238 486,-443 526.134,-382.691 456.013,-335.27 504,-281 511.287,-272.759 520.451,-266.641 530.467,-262.13"/>
<polygon fill="black" stroke="black" points="531.854,-265.345 539.875,-258.423 529.288,-258.832 531.854,-265.345"/>
<text text-anchor="middle" x="468" y="-467" font-family="Sans" font-size="10.00">fixes</text>
</g>
<!-- configuration&#45;modules&#45;core#1159 -->
<g id="node33" class="node"><title>configuration-modules-core#1159</title>
<a xlink:href="https://github.com/quattor/configuration-modules-core/pull/1159" xlink:title="ncm-authconfig: Remove deprecated startstop property" target="_parent">
<polygon fill="#6e5494" stroke="black" points="432,-1178 260,-1178 260,-1124 432,-1124 432,-1178"/>
<text text-anchor="middle" x="346" y="-1155" font-family="Sans" font-size="10.00">pull-request</text>
<text text-anchor="middle" x="346" y="-1142" font-family="Sans" font-size="10.00">configuration-modules-core#1159</text>
</a>
</g>
<!-- configuration&#45;modules&#45;core#1145 -->
<g id="node35" class="node"><title>configuration-modules-core#1145</title>
<a xlink:href="https://github.com/quattor/configuration-modules-core/issues/1145" xlink:title="ncm-authconfig: Remove startstop property" target="_parent">
<ellipse fill="#bd2c00" stroke="black" cx="626" cy="-958" rx="121.122" ry="38.1838"/>
<text text-anchor="middle" x="626" y="-962" font-family="Sans" font-size="10.00">issue</text>
<text text-anchor="middle" x="626" y="-949" font-family="Sans" font-size="10.00">configuration-modules-core#1145</text>
</a>
</g>
<!-- configuration&#45;modules&#45;core#1159&#45;&gt;configuration&#45;modules&#45;core#1145 -->
<g id="edge30" class="edge"><title>configuration-modules-core#1159-&gt;configuration-modules-core#1145</title>
<path fill="none" stroke="black" stroke-width="2" d="M423.72,-1123.83C426.762,-1121.16 429.552,-1118.22 432,-1115 470.756,-1064 403.679,-1016.25 450,-972 464.156,-958.478 482.204,-950.832 501.319,-946.971"/>
<polygon fill="black" stroke="black" points="502.112,-950.387 511.398,-945.286 500.958,-943.483 502.112,-950.387"/>
<text text-anchor="middle" x="468" y="-976" font-family="Sans" font-size="10.00">fixes</text>
</g>
<!-- configuration&#45;modules&#45;core#1159&#45;&gt;configuration&#45;modules&#45;core#1145 -->
<g id="edge52" class="edge"><title>configuration-modules-core#1159-&gt;configuration-modules-core#1145</title>
<path fill="none" stroke="black" stroke-width="2" d="M423.533,-1123.69C426.624,-1121.05 429.476,-1118.16 432,-1115 460.992,-1078.68 419.251,-1046.84 450,-1012 459.88,-1000.8 485.994,-990.587 515.176,-982.126"/>
<polygon fill="black" stroke="black" points="516.486,-985.394 525.171,-979.325 514.597,-978.654 516.486,-985.394"/>
<text text-anchor="middle" x="468" y="-1016" font-family="Sans" font-size="10.00">fixes</text>
</g>
<!-- configuration&#45;modules&#45;core#1159&#45;&gt;configuration&#45;modules&#45;core#1145 -->
<g id="edge68" class="edge"><title>configuration-modules-core#1159-&gt;configuration-modules-core#1145</title>
<path fill="none" stroke="black" stroke-width="2" d="M423.821,-1123.91C426.836,-1121.21 429.593,-1118.25 432,-1115 455.911,-1082.68 420.194,-961.974 450,-935 476.306,-911.193 514.55,-913.453 548.672,-923.147"/>
<polygon fill="black" stroke="black" points="548.054,-926.619 558.641,-926.218 550.115,-919.929 548.054,-926.619"/>
<text text-anchor="middle" x="468" y="-939" font-family="Sans" font-size="10.00">fixes</text>
</g>
<!-- configuration&#45;modules&#45;core#1143 -->
<g id="node37" class="node"><title>configuration-modules-core#1143</title>
<a xlink:href="https://github.com/quattor/configuration-modules-core/issues/1143" xlink:title="ncm-authconfig: What is startstop supposed to do?" target="_parent">
<ellipse fill="#bd2c00" stroke="black" cx="626" cy="-1052" rx="121.122" ry="38.1838"/>
<text text-anchor="middle" x="626" y="-1056" font-family="Sans" font-size="10.00">issue</text>
<text text-anchor="middle" x="626" y="-1043" font-family="Sans" font-size="10.00">configuration-modules-core#1143</text>
</a>
</g>
<!-- configuration&#45;modules&#45;core#1159&#45;&gt;configuration&#45;modules&#45;core#1143 -->
<g id="edge32" class="edge"><title>configuration-modules-core#1159-&gt;configuration-modules-core#1143</title>
<path fill="none" stroke="black" stroke-width="2" d="M422.511,-1123.95C457.441,-1111.6 499.06,-1096.88 535.531,-1083.99"/>
<polygon fill="black" stroke="black" points="536.916,-1087.21 545.177,-1080.58 534.582,-1080.61 536.916,-1087.21"/>
<text text-anchor="middle" x="468" y="-1118" font-family="Sans" font-size="10.00">fixes</text>
</g>
<!-- configuration&#45;modules&#45;core#1159&#45;&gt;configuration&#45;modules&#45;core#1143 -->
<g id="edge54" class="edge"><title>configuration-modules-core#1159-&gt;configuration-modules-core#1143</title>
<path fill="none" stroke="black" stroke-width="2" d="M422.866,-1123.76C426.176,-1121.1 429.253,-1118.19 432,-1115 453.252,-1090.34 424.308,-1063.99 450,-1044 471.715,-1027.1 499.9,-1023.07 527.326,-1024.94"/>
<polygon fill="black" stroke="black" points="527.1,-1028.44 537.383,-1025.89 527.755,-1021.47 527.1,-1028.44"/>
<text text-anchor="middle" x="468" y="-1048" font-family="Sans" font-size="10.00">fixes</text>
</g>
<!-- configuration&#45;modules&#45;core#1159&#45;&gt;configuration&#45;modules&#45;core#1143 -->
<g id="edge70" class="edge"><title>configuration-modules-core#1159-&gt;configuration-modules-core#1143</title>
<path fill="none" stroke="black" stroke-width="2" d="M420.149,-1123.8C424.336,-1121.11 428.328,-1118.18 432,-1115 443.757,-1104.82 437.236,-1093.88 450,-1085 464.079,-1075.2 480.265,-1068.1 496.995,-1062.98"/>
<polygon fill="black" stroke="black" points="498.221,-1066.27 506.896,-1060.19 496.321,-1059.53 498.221,-1066.27"/>
<text text-anchor="middle" x="468" y="-1089" font-family="Sans" font-size="10.00">fixes</text>
</g>
<!-- configuration&#45;modules&#45;core#1151 -->
<g id="node38" class="node"><title>configuration-modules-core#1151</title>
<a xlink:href="https://github.com/quattor/configuration-modules-core/pull/1151" xlink:title="Escape / unescape functions from CCM::Path" target="_parent">
<polygon fill="#6e5494" stroke="black" points="432,-674 260,-674 260,-620 432,-620 432,-674"/>
<text text-anchor="middle" x="346" y="-651" font-family="Sans" font-size="10.00">pull-request</text>
<text text-anchor="middle" x="346" y="-638" font-family="Sans" font-size="10.00">configuration-modules-core#1151</text>
</a>
</g>
<!-- configuration&#45;modules&#45;core#1083 -->
<g id="node40" class="node"><title>configuration-modules-core#1083</title>
<polygon fill="lightgrey" stroke="black" points="712,-214.5 540,-214.5 540,-173.5 712,-173.5 712,-214.5"/>
<text text-anchor="middle" x="626" y="-191.5" font-family="Sans" font-size="10.00">configuration-modules-core#1083</text>
</g>
<!-- configuration&#45;modules&#45;core#1151&#45;&gt;configuration&#45;modules&#45;core#1083 -->
<g id="edge34" class="edge"><title>configuration-modules-core#1151-&gt;configuration-modules-core#1083</title>
<path fill="none" stroke="black" stroke-width="2" d="M423.823,-619.91C426.838,-617.215 429.594,-614.254 432,-611 480.066,-546 408.37,-499.298 450,-430 459.902,-413.516 476.106,-422.489 486,-406 507.024,-370.96 477.125,-253.782 504,-223 511.235,-214.713 520.367,-208.568 530.366,-204.041"/>
<polygon fill="black" stroke="black" points="531.751,-207.257 539.762,-200.324 529.176,-200.748 531.751,-207.257"/>
<text text-anchor="middle" x="468" y="-434" font-family="Sans" font-size="10.00">fixes</text>
</g>
<!-- configuration&#45;modules&#45;core#1151&#45;&gt;configuration&#45;modules&#45;core#1083 -->
<g id="edge56" class="edge"><title>configuration-modules-core#1151-&gt;configuration-modules-core#1083</title>
<path fill="none" stroke="black" stroke-width="2" d="M423.895,-619.963C426.892,-617.254 429.624,-614.275 432,-611 461.065,-570.937 424.063,-431.155 450,-389 459.826,-373.03 475.829,-382.753 486,-367 520.984,-312.814 460.946,-271.024 504,-223 511.344,-214.809 520.541,-208.721 530.575,-204.226"/>
<polygon fill="black" stroke="black" points="531.965,-207.441 539.996,-200.531 529.409,-200.925 531.965,-207.441"/>
<text text-anchor="middle" x="468" y="-393" font-family="Sans" font-size="10.00">fixes</text>
</g>
<!-- configuration&#45;modules&#45;core#1151&#45;&gt;configuration&#45;modules&#45;core#1083 -->
<g id="edge72" class="edge"><title>configuration-modules-core#1151-&gt;configuration-modules-core#1083</title>
<path fill="none" stroke="black" stroke-width="2" d="M423.944,-619.998C426.927,-617.28 429.644,-614.29 432,-611 465.856,-563.737 419.833,-399.699 450,-350 459.73,-333.971 475.474,-343.518 486,-328 512.578,-288.816 471.602,-257.527 504,-223 511.338,-215.18 520.369,-209.296 530.17,-204.891"/>
<polygon fill="black" stroke="black" points="531.751,-208.03 539.772,-201.108 529.185,-201.518 531.751,-208.03"/>
<text text-anchor="middle" x="468" y="-354" font-family="Sans" font-size="10.00">fixes</text>
</g>
<!-- configuration&#45;modules&#45;core#1149 -->
<g id="node41" class="node"><title>configuration-modules-core#1149</title>
<a xlink:href="https://github.com/quattor/configuration-modules-core/pull/1149" xlink:title="ncm-metaconfig: rsyslog: rainer script configuration" target="_parent">
<polygon fill="#6e5494" stroke="black" points="188,-782 16,-782 16,-728 188,-728 188,-782"/>
<text text-anchor="middle" x="102" y="-759" font-family="Sans" font-size="10.00">pull-request</text>
<text text-anchor="middle" x="102" y="-746" font-family="Sans" font-size="10.00">configuration-modules-core#1149</text>
</a>
</g>
<!-- configuration&#45;modules&#45;core#1126 -->
<g id="node43" class="node"><title>configuration-modules-core#1126</title>
<a xlink:href="https://github.com/quattor/configuration-modules-core/pull/1126" xlink:title="ncm-metaconfig: cleanup and switch to 00-tqu" target="_parent">
<polygon fill="#6e5494" stroke="black" points="432,-818 260,-818 260,-764 432,-764 432,-818"/>
<text text-anchor="middle" x="346" y="-795" font-family="Sans" font-size="10.00">pull-request</text>
<text text-anchor="middle" x="346" y="-782" font-family="Sans" font-size="10.00">configuration-modules-core#1126</text>
</a>
</g>
<!-- configuration&#45;modules&#45;core#1149&#45;&gt;configuration&#45;modules&#45;core#1126 -->
<g id="edge36" class="edge"><title>configuration-modules-core#1149-&gt;configuration-modules-core#1126</title>
<path fill="none" stroke="black" stroke-dasharray="5,2" d="M188.025,-767.692C208.07,-770.65 229.538,-773.817 249.984,-776.834"/>
<polygon fill="none" stroke="black" points="249.525,-780.304 259.929,-778.301 250.547,-773.379 249.525,-780.304"/>
<text text-anchor="middle" x="224" y="-780" font-family="Sans" font-size="10.00">requires</text>
</g>
<!-- configuration&#45;modules&#45;core#1149&#45;&gt;configuration&#45;modules&#45;core#1126 -->
<g id="edge74" class="edge"><title>configuration-modules-core#1149-&gt;configuration-modules-core#1126</title>
<path fill="none" stroke="black" stroke-dasharray="5,2" d="M188.279,-749.58C206.135,-749.801 224.755,-751.024 242,-754 251.561,-755.65 261.407,-758.094 271.052,-760.954"/>
<polygon fill="none" stroke="black" points="270.024,-764.3 280.612,-763.939 272.11,-757.618 270.024,-764.3"/>
<text text-anchor="middle" x="224" y="-758" font-family="Sans" font-size="10.00">requires</text>
</g>
<!-- configuration&#45;modules&#45;core#1136 -->
<g id="node44" class="node"><title>configuration-modules-core#1136</title>
<a xlink:href="https://github.com/quattor/configuration-modules-core/pull/1136" xlink:title="ncm-gmond: cleanup and support new configuration options" target="_parent">
<polygon fill="#6e5494" stroke="black" points="432,-602 260,-602 260,-548 432,-548 432,-602"/>
<text text-anchor="middle" x="346" y="-579" font-family="Sans" font-size="10.00">pull-request</text>
<text text-anchor="middle" x="346" y="-566" font-family="Sans" font-size="10.00">configuration-modules-core#1136</text>
</a>
</g>
<!-- configuration&#45;modules&#45;core#1116 -->
<g id="node46" class="node"><title>configuration-modules-core#1116</title>
<polygon fill="lightgrey" stroke="black" points="712,-156.5 540,-156.5 540,-115.5 712,-115.5 712,-156.5"/>
<text text-anchor="middle" x="626" y="-133.5" font-family="Sans" font-size="10.00">configuration-modules-core#1116</text>
</g>
<!-- configuration&#45;modules&#45;core#1136&#45;&gt;configuration&#45;modules&#45;core#1116 -->
<g id="edge38" class="edge"><title>configuration-modules-core#1136-&gt;configuration-modules-core#1116</title>
<path fill="none" stroke="black" stroke-width="2" d="M423.898,-547.966C426.894,-545.256 429.625,-542.276 432,-539 461.311,-498.568 431.843,-361.52 450,-315 459.439,-290.816 475.468,-292.729 486,-269 505.03,-226.124 471.874,-199.182 504,-165 511.344,-157.186 520.379,-151.305 530.182,-146.903"/>
<polygon fill="black" stroke="black" points="531.764,-150.042 539.786,-143.121 529.199,-143.529 531.764,-150.042"/>
<text text-anchor="middle" x="468" y="-319" font-family="Sans" font-size="10.00">fixes</text>
</g>
<!-- configuration&#45;modules&#45;core#1136&#45;&gt;configuration&#45;modules&#45;core#1116 -->
<g id="edge76" class="edge"><title>configuration-modules-core#1136-&gt;configuration-modules-core#1116</title>
<path fill="none" stroke="black" stroke-width="2" d="M424.325,-547.688C427.162,-545.053 429.748,-542.165 432,-539 469.052,-486.935 417.011,-306.73 450,-252 459.68,-235.941 474.709,-244.97 486,-230 504.05,-206.068 482.417,-185.803 504,-165 511.602,-157.672 520.703,-152.08 530.461,-147.829"/>
<polygon fill="black" stroke="black" points="531.922,-151.017 539.991,-144.152 529.402,-144.487 531.922,-151.017"/>
<text text-anchor="middle" x="468" y="-256" font-family="Sans" font-size="10.00">fixes</text>
</g>
<!-- configuration&#45;modules&#45;core#1132 -->
<g id="node47" class="node"><title>configuration-modules-core#1132</title>
<a xlink:href="https://github.com/quattor/configuration-modules-core/pull/1132" xlink:title="ncm-metaconfig: hnormalise" target="_parent">
<polygon fill="#6e5494" stroke="black" points="432,-530 260,-530 260,-476 432,-476 432,-530"/>
<text text-anchor="middle" x="346" y="-507" font-family="Sans" font-size="10.00">pull-request</text>
<text text-anchor="middle" x="346" y="-494" font-family="Sans" font-size="10.00">configuration-modules-core#1132</text>
</a>
</g>
<!-- configuration&#45;modules&#45;core#1028 -->
<g id="node49" class="node"><title>configuration-modules-core#1028</title>
<polygon fill="lightgrey" stroke="black" points="712,-98.5 540,-98.5 540,-57.5 712,-57.5 712,-98.5"/>
<text text-anchor="middle" x="626" y="-75.5" font-family="Sans" font-size="10.00">configuration-modules-core#1028</text>
</g>
<!-- configuration&#45;modules&#45;core#1132&#45;&gt;configuration&#45;modules&#45;core#1028 -->
<g id="edge40" class="edge"><title>configuration-modules-core#1132-&gt;configuration-modules-core#1028</title>
<path fill="none" stroke="black" stroke-dasharray="5,2" d="M423.932,-475.99C426.918,-473.274 429.639,-470.286 432,-467 464.504,-421.769 435.46,-270.768 450,-217 464.217,-164.426 461.444,-140.987 504,-107 511.846,-100.733 520.826,-95.7837 530.276,-91.8795"/>
<polygon fill="none" stroke="black" points="531.706,-95.0819 539.857,-88.3139 529.264,-88.5214 531.706,-95.0819"/>
<text text-anchor="middle" x="468" y="-221" font-family="Sans" font-size="10.00">requires</text>
</g>
<!-- configuration&#45;modules&#45;core#1132&#45;&gt;configuration&#45;modules&#45;core#1028 -->
<g id="edge78" class="edge"><title>configuration-modules-core#1132-&gt;configuration-modules-core#1028</title>
<path fill="none" stroke="black" stroke-dasharray="5,2" d="M424.374,-475.723C427.198,-473.078 429.768,-470.179 432,-467 454.953,-434.315 423.484,-137.867 450,-108 469.968,-85.5087 500.083,-75.7571 529.786,-72.3191"/>
<polygon fill="none" stroke="black" points="530.194,-75.7963 539.827,-71.3859 529.546,-68.8264 530.194,-75.7963"/>
<text text-anchor="middle" x="468" y="-112" font-family="Sans" font-size="10.00">requires</text>
</g>
<!-- configuration&#45;modules&#45;core#1124 -->
<g id="node69" class="node"><title>configuration-modules-core#1124</title>
<a xlink:href="https://github.com/quattor/configuration-modules-core/pull/1124" xlink:title="ncm-cron: cleanup and switch to 00-tqu" target="_parent">
<polygon fill="#6e5494" stroke="black" points="432,-458 260,-458 260,-404 432,-404 432,-458"/>
<text text-anchor="middle" x="346" y="-435" font-family="Sans" font-size="10.00">pull-request</text>
<text text-anchor="middle" x="346" y="-422" font-family="Sans" font-size="10.00">configuration-modules-core#1124</text>
</a>
</g>
<!-- CAF#230 -->
<g id="node71" class="node"><title>CAF#230</title>
<polygon fill="lightgrey" stroke="black" points="661,-40.5 591,-40.5 591,0.5 661,0.5 661,-40.5"/>
<text text-anchor="middle" x="626" y="-17.5" font-family="Sans" font-size="10.00">CAF#230</text>
</g>
<!-- configuration&#45;modules&#45;core#1124&#45;&gt;CAF#230 -->
<g id="edge80" class="edge"><title>configuration-modules-core#1124-&gt;CAF#230</title>
<path fill="none" stroke="black" stroke-dasharray="5,2" d="M428.999,-403.671C430.053,-402.498 431.055,-401.275 432,-400 455.642,-368.086 423.055,-72.179 450,-43 482.406,-7.90775 540.094,-6.87953 580.568,-11.5298"/>
<polygon fill="none" stroke="black" points="580.349,-15.0308 590.718,-12.8546 581.255,-8.08971 580.349,-15.0308"/>
<text text-anchor="middle" x="468" y="-47" font-family="Sans" font-size="10.00">requires</text>
</g>
<!-- configuration&#45;modules&#45;core#1119 -->
<g id="node72" class="node"><title>configuration-modules-core#1119</title>
<a xlink:href="https://github.com/quattor/configuration-modules-core/pull/1119" xlink:title="ncm-systemd: cleanup, restarting modified unitfiles and initial handling of unconfigured units" target="_parent">
<polygon fill="#6cc644" stroke="black" points="188,-710 16,-710 16,-656 188,-656 188,-710"/>
<text text-anchor="middle" x="102" y="-687" font-family="Sans" font-size="10.00">pull-request</text>
<text text-anchor="middle" x="102" y="-674" font-family="Sans" font-size="10.00">configuration-modules-core#1119</text>
</a>
</g>
<!-- configuration&#45;modules&#45;core#1095 -->
<g id="node74" class="node"><title>configuration-modules-core#1095</title>
<polygon fill="lightgrey" stroke="black" points="432,-386.5 260,-386.5 260,-345.5 432,-345.5 432,-386.5"/>
<text text-anchor="middle" x="346" y="-363.5" font-family="Sans" font-size="10.00">configuration-modules-core#1095</text>
</g>
<!-- configuration&#45;modules&#45;core#1119&#45;&gt;configuration&#45;modules&#45;core#1095 -->
<g id="edge82" class="edge"><title>configuration-modules-core#1119-&gt;configuration-modules-core#1095</title>
<path fill="none" stroke="black" stroke-width="2" d="M108.16,-655.885C122.693,-598.236 164.66,-462.969 252,-392 252.164,-391.867 252.329,-391.734 252.495,-391.602"/>
<polygon fill="black" stroke="black" points="254.155,-394.712 260.332,-386.104 250.136,-388.981 254.155,-394.712"/>
<text text-anchor="middle" x="224" y="-441" font-family="Sans" font-size="10.00">fixes</text>
</g>
<!-- template&#45;library&#45;grid#200 -->
<g id="node75" class="node"><title>template-library-grid#200</title>
<a xlink:href="https://github.com/quattor/template-library-grid/pull/200" xlink:title="Allow location of CREAM monitoring configuration file to be changed" target="_parent">
<polygon fill="#6e5494" stroke="black" points="413,-1106 279,-1106 279,-1052 413,-1052 413,-1106"/>
<text text-anchor="middle" x="346" y="-1083" font-family="Sans" font-size="10.00">pull-request</text>
<text text-anchor="middle" x="346" y="-1070" font-family="Sans" font-size="10.00">template-library-grid#200</text>
</a>
</g>
<!-- template&#45;library&#45;grid#199 -->
<g id="node77" class="node"><title>template-library-grid#199</title>
<a xlink:href="https://github.com/quattor/template-library-grid/issues/199" xlink:title="template personality/cream_ce/templates/cream-config.templ" target="_parent">
<ellipse fill="#bd2c00" stroke="black" cx="626" cy="-864" rx="94.9596" ry="38.1838"/>
<text text-anchor="middle" x="626" y="-868" font-family="Sans" font-size="10.00">issue</text>
<text text-anchor="middle" x="626" y="-855" font-family="Sans" font-size="10.00">template-library-grid#199</text>
</a>
</g>
<!-- template&#45;library&#45;grid#200&#45;&gt;template&#45;library&#45;grid#199 -->
<g id="edge84" class="edge"><title>template-library-grid#200-&gt;template-library-grid#199</title>
<path fill="none" stroke="black" stroke-width="2" d="M413.502,-1059.35C420.579,-1054.95 427,-1049.57 432,-1043 470.266,-992.733 407.282,-948.544 450,-902 460.823,-890.208 491.15,-881.769 523.646,-875.888"/>
<polygon fill="black" stroke="black" points="524.52,-879.289 533.781,-874.144 523.332,-872.391 524.52,-879.289"/>
<text text-anchor="middle" x="468" y="-906" font-family="Sans" font-size="10.00">fixes</text>
</g>
<!-- template&#45;library&#45;standard#104 -->
<g id="node78" class="node"><title>template-library-standard#104</title>
<a xlink:href="https://github.com/quattor/template-library-standard/pull/104" xlink:title="Add CPUs used in Mellanox SN2100 and SN2700 switches" target="_parent">
<polygon fill="#6e5494" stroke="black" points="424,-1034 268,-1034 268,-980 424,-980 424,-1034"/>
<text text-anchor="middle" x="346" y="-1011" font-family="Sans" font-size="10.00">pull-request</text>
<text text-anchor="middle" x="346" y="-998" font-family="Sans" font-size="10.00">template-library-standard#104</text>
</a>
</g>
<!-- template&#45;library&#45;standard#103 -->
<g id="node80" class="node"><title>template-library-standard#103</title>
<a xlink:href="https://github.com/quattor/template-library-standard/issues/103" xlink:title="hardware/cpu/intel add embedded cpus" target="_parent">
<ellipse fill="#bd2c00" stroke="black" cx="626" cy="-770" rx="111.016" ry="38.1838"/>
<text text-anchor="middle" x="626" y="-774" font-family="Sans" font-size="10.00">issue</text>
<text text-anchor="middle" x="626" y="-761" font-family="Sans" font-size="10.00">template-library-standard#103</text>
</a>
</g>
<!-- template&#45;library&#45;standard#104&#45;&gt;template&#45;library&#45;standard#103 -->
<g id="edge86" class="edge"><title>template-library-standard#104-&gt;template-library-standard#103</title>
<path fill="none" stroke="black" stroke-width="2" d="M423.72,-979.833C426.762,-977.158 429.552,-974.222 432,-971 470.756,-919.997 409.283,-877.451 450,-828 460.47,-815.285 490.72,-803.462 523.253,-793.853"/>
<polygon fill="black" stroke="black" points="524.291,-797.196 532.937,-791.073 522.359,-790.468 524.291,-797.196"/>
<text text-anchor="middle" x="468" y="-832" font-family="Sans" font-size="10.00">fixes</text>
</g>
<!-- template&#45;library&#45;standard#104&#45;&gt;template&#45;library&#45;standard#103 -->
<g id="edge88" class="edge"><title>template-library-standard#104-&gt;template-library-standard#103</title>
<path fill="none" stroke="black" stroke-width="2" d="M423.155,-979.998C426.39,-977.277 429.372,-974.287 432,-971 460.749,-935.047 426.245,-908.431 450,-869 460.46,-851.638 471.793,-855.458 486,-841 495.345,-831.49 493.365,-825.043 504,-817 512.891,-810.276 522.861,-804.402 533.169,-799.299"/>
<polygon fill="black" stroke="black" points="534.733,-802.431 542.295,-795.012 531.756,-796.096 534.733,-802.431"/>
<text text-anchor="middle" x="468" y="-873" font-family="Sans" font-size="10.00">fixes</text>
</g>
<!-- template&#45;library&#45;standard#104&#45;&gt;template&#45;library&#45;standard#103 -->
<g id="edge90" class="edge"><title>template-library-standard#104-&gt;template-library-standard#103</title>
<path fill="none" stroke="black" stroke-width="2" d="M423.818,-979.907C426.835,-977.213 429.592,-974.252 432,-971 455.788,-938.869 422.074,-820.608 450,-792 465.389,-776.235 485.922,-767.564 507.522,-763.252"/>
<polygon fill="black" stroke="black" points="508.229,-766.682 517.507,-761.568 507.065,-759.78 508.229,-766.682"/>
<text text-anchor="middle" x="468" y="-796" font-family="Sans" font-size="10.00">fixes</text>
</g>
</g>
</svg>
