<?xml version="1.0" encoding="UTF-8" standalone="no"?>
<?xml-stylesheet href="relationships.css" type="text/css"?>
<!-- Generated by graphviz version 2.26.0 (20091210.2329)
 -->
<!-- Title: Dependencies Pages: 1 -->
<svg xmlns="http://www.w3.org/2000/svg" xmlns:xlink="http://www.w3.org/1999/xlink" width="842pt" height="2857pt" viewBox="0.00 0.00 842.00 2857.00">
<g id="graph1" class="graph" transform="scale(1 1) rotate(0) translate(4 2853)">
<title>Dependencies</title>
<polygon fill="white" stroke="white" points="-4,5 -4,-2853 839,-2853 839,5 -4,5"/>
<g id="graph2" class="cluster"><title>cluster_18.9</title>
<polygon fill="none" stroke="black" points="24,-2027 24,-2143 562,-2143 562,-2027 24,-2027"/>
<text text-anchor="middle" x="293" y="-2128.2" font-family="Sans" font-size="12.00">18.9</text>
</g>
<g id="graph4" class="cluster"><title>cluster_18.6</title>
<polygon fill="none" stroke="black" points="24,-282 24,-1957 826,-1957 826,-282 24,-282"/>
<text text-anchor="middle" x="425" y="-1942.2" font-family="Sans" font-size="12.00">18.6</text>
</g>
<!-- aii#284 -->
<g id="node1" class="node"><title>aii#284</title>
<a xlink:href="https://github.com/quattor/aii/pull/284" xlink:title=" pxelinux/ks: support ipdev: use ip configuration from ipdev device" target="_parent">
<polygon fill="#6cc644" stroke="black" points="157,-1925 79,-1925 79,-1871 157,-1871 157,-1925"/>
<text text-anchor="middle" x="118" y="-1902" font-family="Sans" font-size="10.00">pull-request</text>
<text text-anchor="middle" x="118" y="-1889" font-family="Sans" font-size="10.00">aii#284</text>
</a>
</g>
<!-- aii#283 -->
<g id="node3" class="node"><title>aii#283</title>
<a xlink:href="https://github.com/quattor/aii/pull/283" xlink:title="ks: support leavebootorder option" target="_parent">
<polygon fill="#6e5494" stroke="black" points="471,-1925 393,-1925 393,-1871 471,-1871 471,-1925"/>
<text text-anchor="middle" x="432" y="-1902" font-family="Sans" font-size="10.00">pull-request</text>
<text text-anchor="middle" x="432" y="-1889" font-family="Sans" font-size="10.00">aii#283</text>
</a>
</g>
<!-- aii#284&#45;&gt;aii#283 -->
<g id="edge2" class="edge"><title>aii#284-&gt;aii#283</title>
<path fill="none" stroke="black" stroke-dasharray="5,2" d="M157.571,-1896.9C184.705,-1896.2 221.529,-1895.36 254,-1895 297.318,-1894.52 346.561,-1895.47 382.256,-1896.42"/>
<polygon fill="none" stroke="black" points="382.318,-1899.92 392.411,-1896.7 382.512,-1892.93 382.318,-1899.92"/>
<text text-anchor="middle" x="273" y="-1899" font-family="Sans" font-size="10.00">requires</text>
</g>
<!-- aii#281 -->
<g id="node4" class="node"><title>aii#281</title>
<a xlink:href="https://github.com/quattor/aii/pull/281" xlink:title="ks: set useexisting_lv flag for el7" target="_parent">
<polygon fill="#6e5494" stroke="black" points="157,-1853 79,-1853 79,-1799 157,-1799 157,-1853"/>
<text text-anchor="middle" x="118" y="-1830" font-family="Sans" font-size="10.00">pull-request</text>
<text text-anchor="middle" x="118" y="-1817" font-family="Sans" font-size="10.00">aii#281</text>
</a>
</g>
<!-- ncm&#45;lib&#45;blockdevices#88 -->
<g id="node6" class="node"><title>ncm-lib-blockdevices#88</title>
<a xlink:href="https://github.com/quattor/ncm-lib-blockdevices/pull/88" xlink:title="LV: add useexisting_lv flag and support useexisting option in ks" target="_parent">
<polygon fill="#6e5494" stroke="black" points="500,-1853 364,-1853 364,-1799 500,-1799 500,-1853"/>
<text text-anchor="middle" x="432" y="-1830" font-family="Sans" font-size="10.00">pull-request</text>
<text text-anchor="middle" x="432" y="-1817" font-family="Sans" font-size="10.00">ncm-lib-blockdevices#88</text>
</a>
</g>
<!-- aii#281&#45;&gt;ncm&#45;lib&#45;blockdevices#88 -->
<g id="edge4" class="edge"><title>aii#281-&gt;ncm-lib-blockdevices#88</title>
<path fill="none" stroke="black" stroke-dasharray="5,2" d="M157.768,-1826C206.854,-1826 291.459,-1826 353.748,-1826"/>
<polygon fill="none" stroke="black" points="353.933,-1829.5 363.933,-1826 353.933,-1822.5 353.933,-1829.5"/>
<text text-anchor="middle" x="273" y="-1830" font-family="Sans" font-size="10.00">requires</text>
</g>
<!-- ncm&#45;lib&#45;blockdevices#82 -->
<g id="node67" class="node"><title>ncm-lib-blockdevices#82</title>
<a xlink:href="https://github.com/quattor/ncm-lib-blockdevices/issues/82" xlink:title="kickstart configuration of logvol is incomplete on SL7" target="_parent">
<ellipse fill="#bd2c00" stroke="black" cx="722" cy="-1826" rx="96.1665" ry="38.1838"/>
<text text-anchor="middle" x="722" y="-1830" font-family="Sans" font-size="10.00">issue</text>
<text text-anchor="middle" x="722" y="-1817" font-family="Sans" font-size="10.00">ncm-lib-blockdevices#82</text>
</a>
</g>
<!-- ncm&#45;lib&#45;blockdevices#88&#45;&gt;ncm&#45;lib&#45;blockdevices#82 -->
<g id="edge56" class="edge"><title>ncm-lib-blockdevices#88-&gt;ncm-lib-blockdevices#82</title>
<path fill="none" stroke="black" stroke-width="2" d="M500.359,-1826C534.715,-1826 577.126,-1826 615.621,-1826"/>
<polygon fill="black" stroke="black" points="615.838,-1829.5 625.838,-1826 615.838,-1822.5 615.838,-1829.5"/>
<text text-anchor="middle" x="590" y="-1830" font-family="Sans" font-size="10.00">fixes</text>
</g>
<!-- aii#280 -->
<g id="node7" class="node"><title>aii#280</title>
<a xlink:href="https://github.com/quattor/aii/pull/280" xlink:title="Support active configuration attribute for plugins" target="_parent">
<polygon fill="#6cc644" stroke="black" points="157,-427 79,-427 79,-373 157,-373 157,-427"/>
<text text-anchor="middle" x="118" y="-404" font-family="Sans" font-size="10.00">pull-request</text>
<text text-anchor="middle" x="118" y="-391" font-family="Sans" font-size="10.00">aii#280</text>
</a>
</g>
<!-- aii#209 -->
<g id="node9" class="node"><title>aii#209</title>
<a xlink:href="https://github.com/quattor/aii/issues/209" xlink:title="support ACTIVE_CONFIG" target="_parent">
<ellipse fill="#6cc644" stroke="black" cx="432" cy="-494" rx="41.2167" ry="38.1838"/>
<text text-anchor="middle" x="432" y="-498" font-family="Sans" font-size="10.00">issue</text>
<text text-anchor="middle" x="432" y="-485" font-family="Sans" font-size="10.00">aii#209</text>
</a>
</g>
<!-- aii#280&#45;&gt;aii#209 -->
<g id="edge6" class="edge"><title>aii#280-&gt;aii#209</title>
<path fill="none" stroke="black" stroke-width="2" d="M157.768,-411.905C214.982,-429.033 320.455,-460.607 382.595,-479.21"/>
<polygon fill="black" stroke="black" points="381.971,-482.677 392.555,-482.191 383.978,-475.971 381.971,-482.677"/>
<text text-anchor="middle" x="273" y="-454" font-family="Sans" font-size="10.00">fixes</text>
</g>
<!-- ncm&#45;ncd#74 -->
<g id="node11" class="node"><title>ncm-ncd#74</title>
<a xlink:href="https://github.com/quattor/ncm-ncd/pull/74" xlink:title="Set the current active config as an attribute to the component" target="_parent">
<polygon fill="#6cc644" stroke="black" points="473,-438 391,-438 391,-384 473,-384 473,-438"/>
<text text-anchor="middle" x="432" y="-415" font-family="Sans" font-size="10.00">pull-request</text>
<text text-anchor="middle" x="432" y="-402" font-family="Sans" font-size="10.00">ncm-ncd#74</text>
</a>
</g>
<!-- aii#280&#45;&gt;ncm&#45;ncd#74 -->
<g id="edge8" class="edge"><title>aii#280-&gt;ncm-ncd#74</title>
<path fill="none" stroke="black" stroke-dasharray="5,2" d="M157.768,-401.393C214.435,-403.378 318.442,-407.022 380.801,-409.206"/>
<polygon fill="none" stroke="black" points="380.696,-412.705 390.813,-409.557 380.941,-405.709 380.696,-412.705"/>
<text text-anchor="middle" x="273" y="-410" font-family="Sans" font-size="10.00">requires</text>
</g>
<!-- aii#203 -->
<g id="node13" class="node"><title>aii#203</title>
<polygon fill="lightgrey" stroke="black" points="461,-98.5 403,-98.5 403,-57.5 461,-57.5 461,-98.5"/>
<text text-anchor="middle" x="432" y="-75.5" font-family="Sans" font-size="10.00">aii#203</text>
</g>
<!-- aii#280&#45;&gt;aii#203 -->
<g id="edge10" class="edge"><title>aii#280-&gt;aii#203</title>
<path fill="none" stroke="black" stroke-dasharray="5,2" d="M157.678,-396.099C184.272,-391.248 217.663,-380.373 236,-356 267.621,-313.97 219.811,-159.969 254,-120 287.7,-80.6013 350.827,-74.3754 392.131,-75.0334"/>
<polygon fill="none" stroke="black" points="392.286,-78.5396 402.387,-75.3444 392.498,-71.5428 392.286,-78.5396"/>
<text text-anchor="middle" x="273" y="-124" font-family="Sans" font-size="10.00">requires</text>
</g>
<!-- aii#210 -->
<g id="node15" class="node"><title>aii#210</title>
<polygon fill="lightgrey" stroke="black" points="461,-156.5 403,-156.5 403,-115.5 461,-115.5 461,-156.5"/>
<text text-anchor="middle" x="432" y="-133.5" font-family="Sans" font-size="10.00">aii#210</text>
</g>
<!-- aii#280&#45;&gt;aii#210 -->
<g id="edge12" class="edge"><title>aii#280-&gt;aii#210</title>
<path fill="none" stroke="black" stroke-dasharray="1,5" d="M157.565,-396.013C184.106,-391.123 217.481,-380.235 236,-356 262.692,-321.071 223.502,-190.66 254,-159 289.1,-122.563 351.279,-123.094 392.068,-128.357"/>
<polygon fill="black" stroke="black" points="402.202,-129.817 391.662,-132.844 397.253,-129.104 392.304,-128.39 392.304,-128.39 392.304,-128.39 397.253,-129.104 392.946,-123.936 402.202,-129.817 402.202,-129.817"/>
<text text-anchor="middle" x="273" y="-163" font-family="Sans" font-size="10.00">replaces</text>
</g>
<!-- CAF#257 -->
<g id="node16" class="node"><title>CAF#257</title>
<a xlink:href="https://github.com/quattor/CAF/pull/257" xlink:title="Process: run process as another user" target="_parent">
<polygon fill="#6cc644" stroke="black" points="157,-1770 79,-1770 79,-1716 157,-1716 157,-1770"/>
<text text-anchor="middle" x="118" y="-1747" font-family="Sans" font-size="10.00">pull-request</text>
<text text-anchor="middle" x="118" y="-1734" font-family="Sans" font-size="10.00">CAF#257</text>
</a>
</g>
<!-- CAF#253 -->
<g id="node18" class="node"><title>CAF#253</title>
<a xlink:href="https://github.com/quattor/CAF/issues/253" xlink:title="CAF::Process: Include an option to execute the command as an specific user" target="_parent">
<ellipse fill="#6cc644" stroke="black" cx="432" cy="-1743" rx="48.9975" ry="38.1838"/>
<text text-anchor="middle" x="432" y="-1747" font-family="Sans" font-size="10.00">issue</text>
<text text-anchor="middle" x="432" y="-1734" font-family="Sans" font-size="10.00">CAF#253</text>
</a>
</g>
<!-- CAF#257&#45;&gt;CAF#253 -->
<g id="edge14" class="edge"><title>CAF#257-&gt;CAF#253</title>
<path fill="none" stroke="black" stroke-width="2" d="M157.768,-1743C211.934,-1743 309.353,-1743 372.308,-1743"/>
<polygon fill="black" stroke="black" points="372.488,-1746.5 382.488,-1743 372.488,-1739.5 372.488,-1746.5"/>
<text text-anchor="middle" x="273" y="-1747" font-family="Sans" font-size="10.00">fixes</text>
</g>
<!-- CAF#110 -->
<g id="node19" class="node"><title>CAF#110</title>
<a xlink:href="https://github.com/quattor/CAF/pull/110" xlink:title="CAF::Download class: API proposal" target="_parent">
<polygon fill="#6cc644" stroke="black" points="157,-2019 79,-2019 79,-1965 157,-1965 157,-2019"/>
<text text-anchor="middle" x="118" y="-1996" font-family="Sans" font-size="10.00">pull-request</text>
<text text-anchor="middle" x="118" y="-1983" font-family="Sans" font-size="10.00">CAF#110</text>
</a>
</g>
<!-- CAF#120 -->
<g id="node21" class="node"><title>CAF#120</title>
<polygon fill="lightgrey" stroke="black" points="467,-2012.5 397,-2012.5 397,-1971.5 467,-1971.5 467,-2012.5"/>
<text text-anchor="middle" x="432" y="-1989.5" font-family="Sans" font-size="10.00">CAF#120</text>
</g>
<!-- CAF#110&#45;&gt;CAF#120 -->
<g id="edge16" class="edge"><title>CAF#110-&gt;CAF#120</title>
<path fill="none" stroke="black" stroke-dasharray="5,2" d="M157.768,-1992C216.269,-1992 325.221,-1992 386.719,-1992"/>
<polygon fill="none" stroke="black" points="386.897,-1995.5 396.897,-1992 386.897,-1988.5 386.897,-1995.5"/>
<text text-anchor="middle" x="273" y="-1996" font-family="Sans" font-size="10.00">requires</text>
</g>
<!-- CCM#186 -->
<g id="node22" class="node"><title>CCM#186</title>
<a xlink:href="https://github.com/quattor/CCM/pull/186" xlink:title="TextRender: add support for jsonpretty type" target="_parent">
<polygon fill="#6cc644" stroke="black" points="471,-1168 393,-1168 393,-1114 471,-1114 471,-1168"/>
<text text-anchor="middle" x="432" y="-1145" font-family="Sans" font-size="10.00">pull-request</text>
<text text-anchor="middle" x="432" y="-1132" font-family="Sans" font-size="10.00">CCM#186</text>
</a>
</g>
<!-- CAF#265 -->
<g id="node24" class="node"><title>CAF#265</title>
<a xlink:href="https://github.com/quattor/CAF/pull/265" xlink:title="TextRender: add jsonpretty module" target="_parent">
<polygon fill="#6e5494" stroke="black" points="761,-1200 683,-1200 683,-1146 761,-1146 761,-1200"/>
<text text-anchor="middle" x="722" y="-1177" font-family="Sans" font-size="10.00">pull-request</text>
<text text-anchor="middle" x="722" y="-1164" font-family="Sans" font-size="10.00">CAF#265</text>
</a>
</g>
<!-- CCM#186&#45;&gt;CAF#265 -->
<g id="edge18" class="edge"><title>CCM#186-&gt;CAF#265</title>
<path fill="none" stroke="black" stroke-dasharray="5,2" d="M471.715,-1145.38C523.85,-1151.14 615.382,-1161.24 672.127,-1167.5"/>
<polygon fill="none" stroke="black" points="671.977,-1171 682.3,-1168.62 672.744,-1164.04 671.977,-1171"/>
<text text-anchor="middle" x="590" y="-1164" font-family="Sans" font-size="10.00">requires</text>
</g>
<!-- configuration&#45;modules&#45;core#1285 -->
<g id="node25" class="node"><title>configuration-modules-core#1285</title>
<a xlink:href="https://github.com/quattor/configuration-modules-core/pull/1285" xlink:title="ncm-authconfig: fix krb5_realm, user_object_class and newline between ldap_krb5_canonicalize and ldap_krb5_realm" target="_parent">
<polygon fill="#6cc644" stroke="black" points="204,-1521 32,-1521 32,-1467 204,-1467 204,-1521"/>
<text text-anchor="middle" x="118" y="-1498" font-family="Sans" font-size="10.00">pull-request</text>
<text text-anchor="middle" x="118" y="-1485" font-family="Sans" font-size="10.00">configuration-modules-core#1285</text>
</a>
</g>
<!-- configuration&#45;modules&#45;core#1100 -->
<g id="node27" class="node"><title>configuration-modules-core#1100</title>
<a xlink:href="https://github.com/quattor/configuration-modules-core/issues/1100" xlink:title="ncm-authconfig : no newline after krb5_canonicalize option" target="_parent">
<ellipse fill="#6cc644" stroke="black" cx="432" cy="-1555" rx="121.122" ry="38.1838"/>
<text text-anchor="middle" x="432" y="-1559" font-family="Sans" font-size="10.00">issue</text>
<text text-anchor="middle" x="432" y="-1546" font-family="Sans" font-size="10.00">configuration-modules-core#1100</text>
</a>
</g>
<!-- configuration&#45;modules&#45;core#1285&#45;&gt;configuration&#45;modules&#45;core#1100 -->
<g id="edge20" class="edge"><title>configuration-modules-core#1285-&gt;configuration-modules-core#1100</title>
<path fill="none" stroke="black" stroke-width="2" d="M204.217,-1510.75C239.55,-1517.61 280.931,-1525.65 318.659,-1532.98"/>
<polygon fill="black" stroke="black" points="318.194,-1536.46 328.678,-1534.93 319.529,-1529.59 318.194,-1536.46"/>
<text text-anchor="middle" x="273" y="-1531" font-family="Sans" font-size="10.00">fixes</text>
</g>
<!-- configuration&#45;modules&#45;core#1102 -->
<g id="node29" class="node"><title>configuration-modules-core#1102</title>
<a xlink:href="https://github.com/quattor/configuration-modules-core/issues/1102" xlink:title="ncm-authconfig: There is no " target="_parent">
<ellipse fill="#6cc644" stroke="black" cx="432" cy="-1649" rx="121.122" ry="38.1838"/>
<text text-anchor="middle" x="432" y="-1653" font-family="Sans" font-size="10.00">issue</text>
<text text-anchor="middle" x="432" y="-1640" font-family="Sans" font-size="10.00">configuration-modules-core#1102</text>
</a>
</g>
<!-- configuration&#45;modules&#45;core#1285&#45;&gt;configuration&#45;modules&#45;core#1102 -->
<g id="edge22" class="edge"><title>configuration-modules-core#1285-&gt;configuration-modules-core#1102</title>
<path fill="none" stroke="black" stroke-width="2" d="M162.035,-1521.19C200.341,-1544.24 257.752,-1577.4 310,-1602 320.508,-1606.95 331.69,-1611.8 342.857,-1616.39"/>
<polygon fill="black" stroke="black" points="341.635,-1619.67 352.218,-1620.18 344.263,-1613.18 341.635,-1619.67"/>
<text text-anchor="middle" x="273" y="-1596" font-family="Sans" font-size="10.00">fixes</text>
</g>
<!-- configuration&#45;modules&#45;core#1103 -->
<g id="node31" class="node"><title>configuration-modules-core#1103</title>
<a xlink:href="https://github.com/quattor/configuration-modules-core/issues/1103" xlink:title="ncm-authconfig: krb5_realm = ARRAY(0x39a5830)" target="_parent">
<ellipse fill="#6cc644" stroke="black" cx="432" cy="-1461" rx="121.122" ry="38.1838"/>
<text text-anchor="middle" x="432" y="-1465" font-family="Sans" font-size="10.00">issue</text>
<text text-anchor="middle" x="432" y="-1452" font-family="Sans" font-size="10.00">configuration-modules-core#1103</text>
</a>
</g>
<!-- configuration&#45;modules&#45;core#1285&#45;&gt;configuration&#45;modules&#45;core#1103 -->
<g id="edge24" class="edge"><title>configuration-modules-core#1285-&gt;configuration-modules-core#1103</title>
<path fill="none" stroke="black" stroke-width="2" d="M204.217,-1484.94C235.779,-1481.62 272.167,-1477.8 306.466,-1474.19"/>
<polygon fill="black" stroke="black" points="306.976,-1477.66 316.556,-1473.13 306.245,-1470.7 306.976,-1477.66"/>
<text text-anchor="middle" x="273" y="-1484" font-family="Sans" font-size="10.00">fixes</text>
</g>
<!-- configuration&#45;modules&#45;core#1105 -->
<g id="node33" class="node"><title>configuration-modules-core#1105</title>
<polygon fill="lightgrey" stroke="black" points="518,-272.5 346,-272.5 346,-231.5 518,-231.5 518,-272.5"/>
<text text-anchor="middle" x="432" y="-249.5" font-family="Sans" font-size="10.00">configuration-modules-core#1105</text>
</g>
<!-- configuration&#45;modules&#45;core#1285&#45;&gt;configuration&#45;modules&#45;core#1105 -->
<g id="edge26" class="edge"><title>configuration-modules-core#1285-&gt;configuration-modules-core#1105</title>
<path fill="none" stroke="black" stroke-dasharray="1,5" d="M171.963,-1466.96C196.166,-1451.75 222.307,-1430.28 236,-1403 263.316,-1348.57 221.927,-358.766 254,-307 271.522,-278.719 303.7,-264.285 335.927,-257.137"/>
<polygon fill="black" stroke="black" points="345.914,-255.145 336.988,-261.514 341.011,-256.123 336.108,-257.101 336.108,-257.101 336.108,-257.101 341.011,-256.123 335.227,-252.688 345.914,-255.145 345.914,-255.145"/>
<text text-anchor="middle" x="273" y="-311" font-family="Sans" font-size="10.00">replaces</text>
</g>
<!-- configuration&#45;modules&#45;core#1282 -->
<g id="node34" class="node"><title>configuration-modules-core#1282</title>
<a xlink:href="https://github.com/quattor/configuration-modules-core/pull/1282" xlink:title="ncm-cron: fix test of /system/archetype/os" target="_parent">
<polygon fill="#6e5494" stroke="black" points="204,-1394 32,-1394 32,-1340 204,-1340 204,-1394"/>
<text text-anchor="middle" x="118" y="-1371" font-family="Sans" font-size="10.00">pull-request</text>
<text text-anchor="middle" x="118" y="-1358" font-family="Sans" font-size="10.00">configuration-modules-core#1282</text>
</a>
</g>
<!-- configuration&#45;modules&#45;core#1281 -->
<g id="node36" class="node"><title>configuration-modules-core#1281</title>
<a xlink:href="https://github.com/quattor/configuration-modules-core/issues/1281" xlink:title="ncm-cron 18.3.0: invalid /system/archetype/os test" target="_parent">
<ellipse fill="#bd2c00" stroke="black" cx="432" cy="-1367" rx="121.122" ry="38.1838"/>
<text text-anchor="middle" x="432" y="-1371" font-family="Sans" font-size="10.00">issue</text>
<text text-anchor="middle" x="432" y="-1358" font-family="Sans" font-size="10.00">configuration-modules-core#1281</text>
</a>
</g>
<!-- configuration&#45;modules&#45;core#1282&#45;&gt;configuration&#45;modules&#45;core#1281 -->
<g id="edge28" class="edge"><title>configuration-modules-core#1282-&gt;configuration-modules-core#1281</title>
<path fill="none" stroke="black" stroke-width="2" d="M204.217,-1367C233.916,-1367 267.888,-1367 300.372,-1367"/>
<polygon fill="black" stroke="black" points="300.399,-1370.5 310.399,-1367 300.399,-1363.5 300.399,-1370.5"/>
<text text-anchor="middle" x="273" y="-1371" font-family="Sans" font-size="10.00">fixes</text>
</g>
<!-- configuration&#45;modules&#45;core#1279 -->
<g id="node37" class="node"><title>configuration-modules-core#1279</title>
<a xlink:href="https://github.com/quattor/configuration-modules-core/pull/1279" xlink:title="ncm-metaconfig: ganeshav2 add include" target="_parent">
<polygon fill="#6cc644" stroke="black" points="204,-2100 32,-2100 32,-2046 204,-2046 204,-2100"/>
<text text-anchor="middle" x="118" y="-2077" font-family="Sans" font-size="10.00">pull-request</text>
<text text-anchor="middle" x="118" y="-2064" font-family="Sans" font-size="10.00">configuration-modules-core#1279</text>
</a>
</g>
<!-- configuration&#45;modules&#45;core#1276 -->
<g id="node39" class="node"><title>configuration-modules-core#1276</title>
<a xlink:href="https://github.com/quattor/configuration-modules-core/issues/1276" xlink:title="ncm-metaconfig: Ganesha v2 %include option is missing" target="_parent">
<ellipse fill="#6cc644" stroke="black" cx="432" cy="-2073" rx="121.122" ry="38.1838"/>
<text text-anchor="middle" x="432" y="-2077" font-family="Sans" font-size="10.00">issue</text>
<text text-anchor="middle" x="432" y="-2064" font-family="Sans" font-size="10.00">configuration-modules-core#1276</text>
</a>
</g>
<!-- configuration&#45;modules&#45;core#1279&#45;&gt;configuration&#45;modules&#45;core#1276 -->
<g id="edge30" class="edge"><title>configuration-modules-core#1279-&gt;configuration-modules-core#1276</title>
<path fill="none" stroke="black" stroke-width="2" d="M204.329,-2070.81C220.818,-2070.47 237.942,-2070.18 254,-2070 268.958,-2069.84 284.622,-2069.84 300.191,-2069.96"/>
<polygon fill="black" stroke="black" points="300.368,-2073.46 310.399,-2070.05 300.431,-2066.46 300.368,-2073.46"/>
<text text-anchor="middle" x="273" y="-2074" font-family="Sans" font-size="10.00">fixes</text>
</g>
<!-- configuration&#45;modules&#45;core#1278 -->
<g id="node40" class="node"><title>configuration-modules-core#1278</title>
<a xlink:href="https://github.com/quattor/configuration-modules-core/pull/1278" xlink:title="ncm-ssh: schema update for changed AuthorizedKeysCommand* " target="_parent">
<polygon fill="#6cc644" stroke="black" points="204,-1300 32,-1300 32,-1246 204,-1246 204,-1300"/>
<text text-anchor="middle" x="118" y="-1277" font-family="Sans" font-size="10.00">pull-request</text>
<text text-anchor="middle" x="118" y="-1264" font-family="Sans" font-size="10.00">configuration-modules-core#1278</text>
</a>
</g>
<!-- configuration&#45;modules&#45;core#1237 -->
<g id="node42" class="node"><title>configuration-modules-core#1237</title>
<a xlink:href="https://github.com/quattor/configuration-modules-core/issues/1237" xlink:title="ncm-ssh: config option renamed between RHEL6 and RHEL7" target="_parent">
<ellipse fill="#6cc644" stroke="black" cx="432" cy="-1273" rx="121.122" ry="38.1838"/>
<text text-anchor="middle" x="432" y="-1277" font-family="Sans" font-size="10.00">issue</text>
<text text-anchor="middle" x="432" y="-1264" font-family="Sans" font-size="10.00">configuration-modules-core#1237</text>
</a>
</g>
<!-- configuration&#45;modules&#45;core#1278&#45;&gt;configuration&#45;modules&#45;core#1237 -->
<g id="edge32" class="edge"><title>configuration-modules-core#1278-&gt;configuration-modules-core#1237</title>
<path fill="none" stroke="black" stroke-width="2" d="M204.217,-1273C233.916,-1273 267.888,-1273 300.372,-1273"/>
<polygon fill="black" stroke="black" points="300.399,-1276.5 310.399,-1273 300.399,-1269.5 300.399,-1276.5"/>
<text text-anchor="middle" x="273" y="-1277" font-family="Sans" font-size="10.00">fixes</text>
</g>
<!-- configuration&#45;modules&#45;core#1255 -->
<g id="node43" class="node"><title>configuration-modules-core#1255</title>
<a xlink:href="https://github.com/quattor/configuration-modules-core/pull/1255" xlink:title=" ncm-metaconfig: add irods config files" target="_parent">
<polygon fill="#6cc644" stroke="black" points="204,-1213 32,-1213 32,-1159 204,-1159 204,-1213"/>
<text text-anchor="middle" x="118" y="-1190" font-family="Sans" font-size="10.00">pull-request</text>
<text text-anchor="middle" x="118" y="-1177" font-family="Sans" font-size="10.00">configuration-modules-core#1255</text>
</a>
</g>
<!-- configuration&#45;modules&#45;core#1255&#45;&gt;CCM#186 -->
<g id="edge36" class="edge"><title>configuration-modules-core#1255-&gt;CCM#186</title>
<path fill="none" stroke="black" stroke-dasharray="5,2" d="M204.217,-1173.64C261.388,-1165.45 334.397,-1154.99 382.136,-1148.15"/>
<polygon fill="none" stroke="black" points="382.818,-1151.58 392.22,-1146.7 381.825,-1144.65 382.818,-1151.58"/>
<text text-anchor="middle" x="273" y="-1171" font-family="Sans" font-size="10.00">requires</text>
</g>
<!-- configuration&#45;modules&#45;core#1255&#45;&gt;CAF#265 -->
<g id="edge34" class="edge"><title>configuration-modules-core#1255-&gt;CAF#265</title>
<path fill="none" stroke="black" stroke-dasharray="5,2" d="M204.293,-1185.19C232.275,-1184.88 263.455,-1184.48 292,-1184 432.459,-1181.64 467.579,-1181.02 608,-1177 629.072,-1176.4 652.33,-1175.6 672.313,-1174.88"/>
<polygon fill="none" stroke="black" points="672.569,-1178.38 682.435,-1174.51 672.314,-1171.38 672.569,-1178.38"/>
<text text-anchor="middle" x="432" y="-1188" font-family="Sans" font-size="10.00">requires</text>
</g>
<!-- configuration&#45;modules&#45;core#1230 -->
<g id="node46" class="node"><title>configuration-modules-core#1230</title>
<a xlink:href="https://github.com/quattor/configuration-modules-core/pull/1230" xlink:title="ncm-ceph: support for luminous, bluestore, ceph-volume and per host osd deployment" target="_parent">
<polygon fill="#6cc644" stroke="black" points="204,-851 32,-851 32,-797 204,-797 204,-851"/>
<text text-anchor="middle" x="118" y="-828" font-family="Sans" font-size="10.00">pull-request</text>
<text text-anchor="middle" x="118" y="-815" font-family="Sans" font-size="10.00">configuration-modules-core#1230</text>
</a>
</g>
<!-- configuration&#45;modules&#45;core#1224 -->
<g id="node48" class="node"><title>configuration-modules-core#1224</title>
<polygon fill="lightgrey" stroke="black" points="518,-214.5 346,-214.5 346,-173.5 518,-173.5 518,-214.5"/>
<text text-anchor="middle" x="432" y="-191.5" font-family="Sans" font-size="10.00">configuration-modules-core#1224</text>
</g>
<!-- configuration&#45;modules&#45;core#1230&#45;&gt;configuration&#45;modules&#45;core#1224 -->
<g id="edge38" class="edge"><title>configuration-modules-core#1230-&gt;configuration-modules-core#1224</title>
<path fill="none" stroke="black" stroke-dasharray="1,5" d="M139.933,-796.916C168.151,-760.259 215.919,-691.633 236,-624 248.884,-580.606 223.369,-250.329 254,-217 274.554,-194.636 305.264,-185.969 335.415,-183.81"/>
<polygon fill="black" stroke="black" points="345.604,-183.317 335.833,-188.295 340.609,-183.559 335.615,-183.8 335.615,-183.8 335.615,-183.8 340.609,-183.559 335.398,-179.306 345.604,-183.317 345.604,-183.317"/>
<text text-anchor="middle" x="273" y="-221" font-family="Sans" font-size="10.00">replaces</text>
</g>
<!-- configuration&#45;modules&#45;core#740 -->
<g id="node50" class="node"><title>configuration-modules-core#740</title>
<a xlink:href="https://github.com/quattor/configuration-modules-core/issues/740" xlink:title="ncm-ceph: add boolean to disable osd features" target="_parent">
<ellipse fill="#6cc644" stroke="black" cx="432" cy="-964" rx="118.087" ry="38.1838"/>
<text text-anchor="middle" x="432" y="-968" font-family="Sans" font-size="10.00">issue</text>
<text text-anchor="middle" x="432" y="-955" font-family="Sans" font-size="10.00">configuration-modules-core#740</text>
</a>
</g>
<!-- configuration&#45;modules&#45;core#1230&#45;&gt;configuration&#45;modules&#45;core#740 -->
<g id="edge40" class="edge"><title>configuration-modules-core#1230-&gt;configuration-modules-core#740</title>
<path fill="none" stroke="black" stroke-width="2" d="M170.83,-851.061C209.091,-870.296 262.262,-896.286 310,-917 321.255,-921.884 333.195,-926.8 345.031,-931.518"/>
<polygon fill="black" stroke="black" points="343.898,-934.834 354.484,-935.255 346.471,-928.324 343.898,-934.834"/>
<text text-anchor="middle" x="273" y="-912" font-family="Sans" font-size="10.00">fixes</text>
</g>
<!-- configuration&#45;modules&#45;core#741 -->
<g id="node52" class="node"><title>configuration-modules-core#741</title>
<a xlink:href="https://github.com/quattor/configuration-modules-core/issues/741" xlink:title="ncm-ceph: check possibilities to rescale ceph in Jewel" target="_parent">
<ellipse fill="#6cc644" stroke="black" cx="432" cy="-1058" rx="118.087" ry="38.1838"/>
<text text-anchor="middle" x="432" y="-1062" font-family="Sans" font-size="10.00">issue</text>
<text text-anchor="middle" x="432" y="-1049" font-family="Sans" font-size="10.00">configuration-modules-core#741</text>
</a>
</g>
<!-- configuration&#45;modules&#45;core#1230&#45;&gt;configuration&#45;modules&#45;core#741 -->
<g id="edge42" class="edge"><title>configuration-modules-core#1230-&gt;configuration-modules-core#741</title>
<path fill="none" stroke="black" stroke-width="2" d="M139.525,-851.045C172.473,-890.892 239.093,-965.554 310,-1011 319.071,-1016.81 328.973,-1022.09 339.085,-1026.82"/>
<polygon fill="black" stroke="black" points="337.858,-1030.11 348.414,-1031.02 340.73,-1023.72 337.858,-1030.11"/>
<text text-anchor="middle" x="273" y="-999" font-family="Sans" font-size="10.00">fixes</text>
</g>
<!-- configuration&#45;modules&#45;core#742 -->
<g id="node54" class="node"><title>configuration-modules-core#742</title>
<a xlink:href="https://github.com/quattor/configuration-modules-core/issues/742" xlink:title="ncm-ceph: allow control over deploying admin keyrings along with ceph.conf" target="_parent">
<ellipse fill="#6cc644" stroke="black" cx="432" cy="-682" rx="118.087" ry="38.1838"/>
<text text-anchor="middle" x="432" y="-686" font-family="Sans" font-size="10.00">issue</text>
<text text-anchor="middle" x="432" y="-673" font-family="Sans" font-size="10.00">configuration-modules-core#742</text>
</a>
</g>
<!-- configuration&#45;modules&#45;core#1230&#45;&gt;configuration&#45;modules&#45;core#742 -->
<g id="edge44" class="edge"><title>configuration-modules-core#1230-&gt;configuration-modules-core#742</title>
<path fill="none" stroke="black" stroke-width="2" d="M169.544,-796.889C207.857,-777.133 261.642,-750.225 310,-729 321.234,-724.069 333.163,-719.125 344.992,-714.394"/>
<polygon fill="black" stroke="black" points="346.435,-717.587 354.442,-710.649 343.856,-711.079 346.435,-717.587"/>
<text text-anchor="middle" x="273" y="-758" font-family="Sans" font-size="10.00">fixes</text>
</g>
<!-- configuration&#45;modules&#45;core#743 -->
<g id="node56" class="node"><title>configuration-modules-core#743</title>
<a xlink:href="https://github.com/quattor/configuration-modules-core/issues/743" xlink:title="ncm-ceph: check admin keyring is current before running ceph-deploy admin" target="_parent">
<ellipse fill="#6cc644" stroke="black" cx="432" cy="-776" rx="118.087" ry="38.1838"/>
<text text-anchor="middle" x="432" y="-780" font-family="Sans" font-size="10.00">issue</text>
<text text-anchor="middle" x="432" y="-767" font-family="Sans" font-size="10.00">configuration-modules-core#743</text>
</a>
</g>
<!-- configuration&#45;modules&#45;core#1230&#45;&gt;configuration&#45;modules&#45;core#743 -->
<g id="edge46" class="edge"><title>configuration-modules-core#1230-&gt;configuration-modules-core#743</title>
<path fill="none" stroke="black" stroke-width="2" d="M204.217,-810.82C238.404,-805.594 278.253,-799.503 314.976,-793.889"/>
<polygon fill="black" stroke="black" points="315.888,-797.29 325.244,-792.319 314.83,-790.371 315.888,-797.29"/>
<text text-anchor="middle" x="273" y="-807" font-family="Sans" font-size="10.00">fixes</text>
</g>
<!-- configuration&#45;modules&#45;core#776 -->
<g id="node58" class="node"><title>configuration-modules-core#776</title>
<a xlink:href="https://github.com/quattor/configuration-modules-core/issues/776" xlink:title="ncm-ceph: ceph mds stat output redesigned on Jewel" target="_parent">
<ellipse fill="#6cc644" stroke="black" cx="432" cy="-870" rx="118.087" ry="38.1838"/>
<text text-anchor="middle" x="432" y="-874" font-family="Sans" font-size="10.00">issue</text>
<text text-anchor="middle" x="432" y="-861" font-family="Sans" font-size="10.00">configuration-modules-core#776</text>
</a>
</g>
<!-- configuration&#45;modules&#45;core#1230&#45;&gt;configuration&#45;modules&#45;core#776 -->
<g id="edge48" class="edge"><title>configuration-modules-core#1230-&gt;configuration-modules-core#776</title>
<path fill="none" stroke="black" stroke-width="2" d="M204.217,-836.631C238.155,-841.602 277.673,-847.392 314.173,-852.739"/>
<polygon fill="black" stroke="black" points="313.98,-856.248 324.381,-854.234 314.994,-849.322 313.98,-856.248"/>
<text text-anchor="middle" x="273" y="-853" font-family="Sans" font-size="10.00">fixes</text>
</g>
<!-- configuration&#45;modules&#45;core#1148 -->
<g id="node59" class="node"><title>configuration-modules-core#1148</title>
<a xlink:href="https://github.com/quattor/configuration-modules-core/pull/1148" xlink:title="ncm-spma: Remove support from groups from spma yumng backend" target="_parent">
<polygon fill="#6cc644" stroke="black" points="204,-2310 32,-2310 32,-2256 204,-2256 204,-2310"/>
<text text-anchor="middle" x="118" y="-2287" font-family="Sans" font-size="10.00">pull-request</text>
<text text-anchor="middle" x="118" y="-2274" font-family="Sans" font-size="10.00">configuration-modules-core#1148</text>
</a>
</g>
<!-- configuration&#45;modules&#45;core#952 -->
<g id="node61" class="node"><title>configuration-modules-core#952</title>
<a xlink:href="https://github.com/quattor/configuration-modules-core/issues/952" xlink:title="ncm-spma (yumng): Remove support for package groups" target="_parent">
<ellipse fill="#6cc644" stroke="black" cx="432" cy="-2283" rx="118.087" ry="38.1838"/>
<text text-anchor="middle" x="432" y="-2287" font-family="Sans" font-size="10.00">issue</text>
<text text-anchor="middle" x="432" y="-2274" font-family="Sans" font-size="10.00">configuration-modules-core#952</text>
</a>
</g>
<!-- configuration&#45;modules&#45;core#1148&#45;&gt;configuration&#45;modules&#45;core#952 -->
<g id="edge50" class="edge"><title>configuration-modules-core#1148-&gt;configuration-modules-core#952</title>
<path fill="none" stroke="black" stroke-width="2" d="M204.217,-2283C234.903,-2283 270.151,-2283 303.606,-2283"/>
<polygon fill="black" stroke="black" points="303.924,-2286.5 313.924,-2283 303.924,-2279.5 303.924,-2286.5"/>
<text text-anchor="middle" x="273" y="-2287" font-family="Sans" font-size="10.00">fixes</text>
</g>
<!-- configuration&#45;modules&#45;core#950 -->
<g id="node62" class="node"><title>configuration-modules-core#950</title>
<a xlink:href="https://github.com/quattor/configuration-modules-core/issues/950" xlink:title="ncm-spma: Remove support for package groups from yum backends" target="_parent">
<ellipse fill="#6cc644" stroke="black" cx="118" cy="-2194" rx="118.087" ry="38.1838"/>
<text text-anchor="middle" x="118" y="-2198" font-family="Sans" font-size="10.00">issue</text>
<text text-anchor="middle" x="118" y="-2185" font-family="Sans" font-size="10.00">configuration-modules-core#950</text>
</a>
</g>
<!-- configuration&#45;modules&#45;core#950&#45;&gt;configuration&#45;modules&#45;core#952 -->
<g id="edge54" class="edge"><title>configuration-modules-core#950-&gt;configuration-modules-core#952</title>
<path fill="none" stroke="black" stroke-dasharray="5,2" d="M206.721,-2219.15C246.26,-2230.35 292.974,-2243.59 333.584,-2255.11"/>
<polygon fill="none" stroke="black" points="332.651,-2258.48 343.226,-2257.84 334.56,-2251.74 332.651,-2258.48"/>
<text text-anchor="middle" x="273" y="-2246" font-family="Sans" font-size="10.00">requires</text>
</g>
<!-- configuration&#45;modules&#45;core#951 -->
<g id="node64" class="node"><title>configuration-modules-core#951</title>
<a xlink:href="https://github.com/quattor/configuration-modules-core/issues/951" xlink:title="ncm-spma (yum): Remove support for package groups" target="_parent">
<ellipse fill="#6cc644" stroke="black" cx="432" cy="-2189" rx="118.087" ry="38.1838"/>
<text text-anchor="middle" x="432" y="-2193" font-family="Sans" font-size="10.00">issue</text>
<text text-anchor="middle" x="432" y="-2180" font-family="Sans" font-size="10.00">configuration-modules-core#951</text>
</a>
</g>
<!-- configuration&#45;modules&#45;core#950&#45;&gt;configuration&#45;modules&#45;core#951 -->
<g id="edge52" class="edge"><title>configuration-modules-core#950-&gt;configuration-modules-core#951</title>
<path fill="none" stroke="black" stroke-dasharray="5,2" d="M236.263,-2192.12C258.348,-2191.77 281.525,-2191.4 303.892,-2191.04"/>
<polygon fill="none" stroke="black" points="304.162,-2194.54 314.105,-2190.88 304.05,-2187.54 304.162,-2194.54"/>
<text text-anchor="middle" x="273" y="-2196" font-family="Sans" font-size="10.00">requires</text>
</g>
<!-- ncm&#45;ncd#117 -->
<g id="node68" class="node"><title>ncm-ncd#117</title>
<a xlink:href="https://github.com/quattor/ncm-ncd/pull/117" xlink:title="Allow component modules to be loaded from any path" target="_parent">
<polygon fill="#6cc644" stroke="black" points="161,-615 75,-615 75,-561 161,-561 161,-615"/>
<text text-anchor="middle" x="118" y="-592" font-family="Sans" font-size="10.00">pull-request</text>
<text text-anchor="middle" x="118" y="-579" font-family="Sans" font-size="10.00">ncm-ncd#117</text>
</a>
</g>
<!-- ncm&#45;ncd#116 -->
<g id="node70" class="node"><title>ncm-ncd#116</title>
<a xlink:href="https://github.com/quattor/ncm-ncd/issues/116" xlink:title="hasFile() prevents component modules from being relocated" target="_parent">
<ellipse fill="#6cc644" stroke="black" cx="432" cy="-588" rx="61.0181" ry="38.1838"/>
<text text-anchor="middle" x="432" y="-592" font-family="Sans" font-size="10.00">issue</text>
<text text-anchor="middle" x="432" y="-579" font-family="Sans" font-size="10.00">ncm-ncd#116</text>
</a>
</g>
<!-- ncm&#45;ncd#117&#45;&gt;ncm&#45;ncd#116 -->
<g id="edge58" class="edge"><title>ncm-ncd#117-&gt;ncm-ncd#116</title>
<path fill="none" stroke="black" stroke-width="2" d="M161.66,-588C212.954,-588 298.809,-588 360.001,-588"/>
<polygon fill="black" stroke="black" points="360.362,-591.5 370.362,-588 360.362,-584.5 360.362,-591.5"/>
<text text-anchor="middle" x="273" y="-592" font-family="Sans" font-size="10.00">fixes</text>
</g>
<!-- template&#45;library&#45;core#181 -->
<g id="node71" class="node"><title>template-library-core#181</title>
<a xlink:href="https://github.com/quattor/template-library-core/pull/181" xlink:title="Revert /system/archetype/os changes" target="_parent">
<polygon fill="#6e5494" stroke="black" points="187,-347 49,-347 49,-293 187,-293 187,-347"/>
<text text-anchor="middle" x="118" y="-324" font-family="Sans" font-size="10.00">pull-request</text>
<text text-anchor="middle" x="118" y="-311" font-family="Sans" font-size="10.00">template-library-core#181</text>
</a>
</g>
<!-- template&#45;library&#45;core#179 -->
<g id="node73" class="node"><title>template-library-core#179</title>
<a xlink:href="https://github.com/quattor/template-library-core/issues/179" xlink:title="Revert os and model fields structure archetype to Aquilon standard" target="_parent">
<ellipse fill="#bd2c00" stroke="black" cx="432" cy="-328" rx="97.0803" ry="38.1838"/>
<text text-anchor="middle" x="432" y="-332" font-family="Sans" font-size="10.00">issue</text>
<text text-anchor="middle" x="432" y="-319" font-family="Sans" font-size="10.00">template-library-core#179</text>
</a>
</g>
<!-- template&#45;library&#45;core#181&#45;&gt;template&#45;library&#45;core#179 -->
<g id="edge60" class="edge"><title>template-library-core#181-&gt;template-library-core#179</title>
<path fill="none" stroke="black" stroke-width="2" d="M187.297,-321.766C227.511,-322.79 279.027,-324.103 324.41,-325.259"/>
<polygon fill="black" stroke="black" points="324.508,-328.762 334.594,-325.518 324.686,-321.765 324.508,-328.762"/>
<text text-anchor="middle" x="273" y="-329" font-family="Sans" font-size="10.00">fixes</text>
</g>
<!-- aquilon#93 -->
<g id="node75" class="node"><title>aquilon#93</title>
<polygon fill="lightgrey" stroke="black" points="469,-40.5 395,-40.5 395,0.5 469,0.5 469,-40.5"/>
<text text-anchor="middle" x="432" y="-17.5" font-family="Sans" font-size="10.00">aquilon#93</text>
</g>
<!-- template&#45;library&#45;core#181&#45;&gt;aquilon#93 -->
<g id="edge62" class="edge"><title>template-library-core#181-&gt;aquilon#93</title>
<path fill="none" stroke="black" stroke-width="2" d="M122.583,-292.867C133.738,-236.022 167.974,-104.603 254,-43 291.514,-16.1363 345.185,-12.6548 383.77,-14.4936"/>
<polygon fill="black" stroke="black" points="384.031,-18.0162 394.227,-15.1383 384.462,-11.0295 384.031,-18.0162"/>
<text text-anchor="middle" x="273" y="-47" font-family="Sans" font-size="10.00">fixes</text>
</g>
<!-- aquilon#99 -->
<g id="node76" class="node"><title>aquilon#99</title>
<a xlink:href="https://github.com/quattor/aquilon/pull/99" xlink:title="Config file path: allow to ignore that an exe runs from the sources" target="_parent">
<polygon fill="#6cc644" stroke="black" points="157,-2404 79,-2404 79,-2350 157,-2350 157,-2404"/>
<text text-anchor="middle" x="118" y="-2381" font-family="Sans" font-size="10.00">pull-request</text>
<text text-anchor="middle" x="118" y="-2368" font-family="Sans" font-size="10.00">aquilon#99</text>
</a>
</g>
<!-- aquilon#98 -->
<g id="node78" class="node"><title>aquilon#98</title>
<a xlink:href="https://github.com/quattor/aquilon/issues/98" xlink:title="aq.py ignores system-wide conf file if run from the sources" target="_parent">
<ellipse fill="#6cc644" stroke="black" cx="432" cy="-2377" rx="53.033" ry="38.1838"/>
<text text-anchor="middle" x="432" y="-2381" font-family="Sans" font-size="10.00">issue</text>
<text text-anchor="middle" x="432" y="-2368" font-family="Sans" font-size="10.00">aquilon#98</text>
</a>
</g>
<!-- aquilon#99&#45;&gt;aquilon#98 -->
<g id="edge64" class="edge"><title>aquilon#99-&gt;aquilon#98</title>
<path fill="none" stroke="black" stroke-width="2" d="M157.768,-2377C210.918,-2377 305.713,-2377 368.729,-2377"/>
<polygon fill="black" stroke="black" points="368.945,-2380.5 378.945,-2377 368.945,-2373.5 368.945,-2380.5"/>
<text text-anchor="middle" x="273" y="-2381" font-family="Sans" font-size="10.00">fixes</text>
</g>
<!-- aquilon#97 -->
<g id="node79" class="node"><title>aquilon#97</title>
<a xlink:href="https://github.com/quattor/aquilon/pull/97" xlink:title="aq.py: fix aqhost options ignored" target="_parent">
<polygon fill="#6cc644" stroke="black" points="157,-2498 79,-2498 79,-2444 157,-2444 157,-2498"/>
<text text-anchor="middle" x="118" y="-2475" font-family="Sans" font-size="10.00">pull-request</text>
<text text-anchor="middle" x="118" y="-2462" font-family="Sans" font-size="10.00">aquilon#97</text>
</a>
</g>
<!-- aquilon#96 -->
<g id="node81" class="node"><title>aquilon#96</title>
<a xlink:href="https://github.com/quattor/aquilon/issues/96" xlink:title="aq.py ignores aqhost/aqservice in config file outside MS" target="_parent">
<ellipse fill="#6cc644" stroke="black" cx="432" cy="-2471" rx="53.033" ry="38.1838"/>
<text text-anchor="middle" x="432" y="-2475" font-family="Sans" font-size="10.00">issue</text>
<text text-anchor="middle" x="432" y="-2462" font-family="Sans" font-size="10.00">aquilon#96</text>
</a>
</g>
<!-- aquilon#97&#45;&gt;aquilon#96 -->
<g id="edge66" class="edge"><title>aquilon#97-&gt;aquilon#96</title>
<path fill="none" stroke="black" stroke-width="2" d="M157.768,-2471C210.918,-2471 305.713,-2471 368.729,-2471"/>
<polygon fill="black" stroke="black" points="368.945,-2474.5 378.945,-2471 368.945,-2467.5 368.945,-2474.5"/>
<text text-anchor="middle" x="273" y="-2475" font-family="Sans" font-size="10.00">fixes</text>
</g>
<!-- aquilon#89 -->
<g id="node82" class="node"><title>aquilon#89</title>
<a xlink:href="https://github.com/quattor/aquilon/pull/89" xlink:title="Broker: pass archetype to the object profile" target="_parent">
<polygon fill="#6cc644" stroke="black" points="157,-2592 79,-2592 79,-2538 157,-2538 157,-2592"/>
<text text-anchor="middle" x="118" y="-2569" font-family="Sans" font-size="10.00">pull-request</text>
<text text-anchor="middle" x="118" y="-2556" font-family="Sans" font-size="10.00">aquilon#89</text>
</a>
</g>
<!-- aquilon#88 -->
<g id="node84" class="node"><title>aquilon#88</title>
<a xlink:href="https://github.com/quattor/aquilon/issues/88" xlink:title="1.12.58: the broker should pass the archetype to the object template" target="_parent">
<ellipse fill="#6cc644" stroke="black" cx="432" cy="-2565" rx="53.033" ry="38.1838"/>
<text text-anchor="middle" x="432" y="-2569" font-family="Sans" font-size="10.00">issue</text>
<text text-anchor="middle" x="432" y="-2556" font-family="Sans" font-size="10.00">aquilon#88</text>
</a>
</g>
<!-- aquilon#89&#45;&gt;aquilon#88 -->
<g id="edge68" class="edge"><title>aquilon#89-&gt;aquilon#88</title>
<path fill="none" stroke="black" stroke-width="2" d="M157.768,-2565C210.918,-2565 305.713,-2565 368.729,-2565"/>
<polygon fill="black" stroke="black" points="368.945,-2568.5 378.945,-2565 368.945,-2561.5 368.945,-2568.5"/>
<text text-anchor="middle" x="273" y="-2569" font-family="Sans" font-size="10.00">fixes</text>
</g>
<!-- aquilon#87 -->
<g id="node85" class="node"><title>aquilon#87</title>
<a xlink:href="https://github.com/quattor/aquilon/pull/87" xlink:title="Plenary template adjustment to fix the template library support" target="_parent">
<polygon fill="#6cc644" stroke="black" points="157,-2686 79,-2686 79,-2632 157,-2632 157,-2686"/>
<text text-anchor="middle" x="118" y="-2663" font-family="Sans" font-size="10.00">pull-request</text>
<text text-anchor="middle" x="118" y="-2650" font-family="Sans" font-size="10.00">aquilon#87</text>
</a>
</g>
<!-- aquilon#86 -->
<g id="node87" class="node"><title>aquilon#86</title>
<a xlink:href="https://github.com/quattor/aquilon/issues/86" xlink:title="1.12.58: profile prolog template needed to define the LOADPATH" target="_parent">
<ellipse fill="#6cc644" stroke="black" cx="432" cy="-2659" rx="53.033" ry="38.1838"/>
<text text-anchor="middle" x="432" y="-2663" font-family="Sans" font-size="10.00">issue</text>
<text text-anchor="middle" x="432" y="-2650" font-family="Sans" font-size="10.00">aquilon#86</text>
</a>
</g>
<!-- aquilon#87&#45;&gt;aquilon#86 -->
<g id="edge70" class="edge"><title>aquilon#87-&gt;aquilon#86</title>
<path fill="none" stroke="black" stroke-width="2" d="M157.768,-2659C210.918,-2659 305.713,-2659 368.729,-2659"/>
<polygon fill="black" stroke="black" points="368.945,-2662.5 378.945,-2659 368.945,-2655.5 368.945,-2662.5"/>
<text text-anchor="middle" x="273" y="-2663" font-family="Sans" font-size="10.00">fixes</text>
</g>
<!-- aquilon#79 -->
<g id="node88" class="node"><title>aquilon#79</title>
<a xlink:href="https://github.com/quattor/aquilon/pull/79" xlink:title="aqd.conf.noms: update inappropriate defaults" target="_parent">
<polygon fill="#6cc644" stroke="black" points="157,-2800 79,-2800 79,-2746 157,-2746 157,-2800"/>
<text text-anchor="middle" x="118" y="-2777" font-family="Sans" font-size="10.00">pull-request</text>
<text text-anchor="middle" x="118" y="-2764" font-family="Sans" font-size="10.00">aquilon#79</text>
</a>
</g>
<!-- aquilon#78 -->
<g id="node90" class="node"><title>aquilon#78</title>
<a xlink:href="https://github.com/quattor/aquilon/issues/78" xlink:title="Wrong ant_home provided in aqd.conf.noms" target="_parent">
<ellipse fill="#6cc644" stroke="black" cx="432" cy="-2811" rx="53.033" ry="38.1838"/>
<text text-anchor="middle" x="432" y="-2815" font-family="Sans" font-size="10.00">issue</text>
<text text-anchor="middle" x="432" y="-2802" font-family="Sans" font-size="10.00">aquilon#78</text>
</a>
</g>
<!-- aquilon#79&#45;&gt;aquilon#78 -->
<g id="edge72" class="edge"><title>aquilon#79-&gt;aquilon#78</title>
<path fill="none" stroke="black" stroke-width="2" d="M157.768,-2777.81C211.074,-2784.26 306.271,-2795.78 369.284,-2803.41"/>
<polygon fill="black" stroke="black" points="369.148,-2806.92 379.496,-2804.65 369.989,-2799.97 369.148,-2806.92"/>
<text text-anchor="middle" x="273" y="-2797" font-family="Sans" font-size="10.00">fixes</text>
</g>
<!-- aquilon#82 -->
<g id="node92" class="node"><title>aquilon#82</title>
<polygon fill="lightgrey" stroke="black" points="469,-2755.5 395,-2755.5 395,-2714.5 469,-2714.5 469,-2755.5"/>
<text text-anchor="middle" x="432" y="-2732.5" font-family="Sans" font-size="10.00">aquilon#82</text>
</g>
<!-- aquilon#79&#45;&gt;aquilon#82 -->
<g id="edge74" class="edge"><title>aquilon#79-&gt;aquilon#82</title>
<path fill="none" stroke="black" stroke-width="2" d="M157.768,-2768.19C215.333,-2761.22 321.747,-2748.34 383.731,-2740.84"/>
<polygon fill="black" stroke="black" points="384.517,-2744.27 394.024,-2739.6 383.676,-2737.32 384.517,-2744.27"/>
<text text-anchor="middle" x="273" y="-2760" font-family="Sans" font-size="10.00">fixes</text>
</g>
</g>
</svg>
