<?xml version="1.0" encoding="UTF-8" standalone="no"?>
<?xml-stylesheet href="relationships.css" type="text/css"?>
<!-- Generated by graphviz version 2.26.0 (20091210.2329)
 -->
<!-- Title: Dependencies Pages: 1 -->
<svg xmlns="http://www.w3.org/2000/svg" xmlns:xlink="http://www.w3.org/1999/xlink" width="578pt" height="1842pt" viewBox="0.00 0.00 578.00 1842.00">
<g id="graph1" class="graph" transform="scale(1 1) rotate(0) translate(4 1838)">
<title>Dependencies</title>
<polygon fill="white" stroke="white" points="-4,5 -4,-1838 575,-1838 575,5 -4,5"/>
<g id="graph3" class="cluster"><title>cluster_17.8</title>
<polygon fill="none" stroke="black" points="24,-282 24,-1410 562,-1410 562,-282 24,-282"/>
<text text-anchor="middle" x="293" y="-1395.2" font-family="Sans" font-size="12.00">17.8</text>
</g>
<g id="graph5" class="cluster"><title>cluster_17.12</title>
<polygon fill="none" stroke="black" points="70,-1468 70,-1656 482,-1656 482,-1468 70,-1468"/>
<text text-anchor="middle" x="276" y="-1641.2" font-family="Sans" font-size="12.00">17.12</text>
</g>
<!-- aii#275 -->
<g id="node1" class="node"><title>aii#275</title>
<a xlink:href="https://github.com/quattor/aii/pull/275" xlink:title="remove aii-freeipa, deprecated by ncm-freeipa AII support" target="_parent">
<polygon fill="#6e5494" stroke="black" points="157,-1367 79,-1367 79,-1313 157,-1313 157,-1367"/>
<text text-anchor="middle" x="118" y="-1344" font-family="Sans" font-size="10.00">pull-request</text>
<text text-anchor="middle" x="118" y="-1331" font-family="Sans" font-size="10.00">aii#275</text>
</a>
</g>
<!-- aii#134 -->
<g id="node3" class="node"><title>aii#134</title>
<a xlink:href="https://github.com/quattor/aii/issues/134" xlink:title="Missing freeipa.pm in AII RPM" target="_parent">
<ellipse fill="#bd2c00" stroke="black" cx="432" cy="-1340" rx="41.2167" ry="38.1838"/>
<text text-anchor="middle" x="432" y="-1344" font-family="Sans" font-size="10.00">issue</text>
<text text-anchor="middle" x="432" y="-1331" font-family="Sans" font-size="10.00">aii#134</text>
</a>
</g>
<!-- aii#275&#45;&gt;aii#134 -->
<g id="edge2" class="edge"><title>aii#275-&gt;aii#134</title>
<path fill="none" stroke="black" stroke-width="2" d="M157.571,-1338.9C184.705,-1338.2 221.529,-1337.36 254,-1337 296.474,-1336.53 344.645,-1337.43 380.154,-1338.36"/>
<polygon fill="black" stroke="black" points="380.191,-1341.87 390.282,-1338.64 380.381,-1334.87 380.191,-1341.87"/>
<text text-anchor="middle" x="273" y="-1341" font-family="Sans" font-size="10.00">fixes</text>
</g>
<!-- aii#210 -->
<g id="node4" class="node"><title>aii#210</title>
<a xlink:href="https://github.com/quattor/aii/pull/210" xlink:title="Shellfe: support active config for plugins" target="_parent">
<polygon fill="#6cc644" stroke="black" points="157,-1541 79,-1541 79,-1487 157,-1487 157,-1541"/>
<text text-anchor="middle" x="118" y="-1518" font-family="Sans" font-size="10.00">pull-request</text>
<text text-anchor="middle" x="118" y="-1505" font-family="Sans" font-size="10.00">aii#210</text>
</a>
</g>
<!-- aii#209 -->
<g id="node6" class="node"><title>aii#209</title>
<a xlink:href="https://github.com/quattor/aii/issues/209" xlink:title="support ACTIVE_CONFIG" target="_parent">
<ellipse fill="#6cc644" stroke="black" cx="432" cy="-1514" rx="41.2167" ry="38.1838"/>
<text text-anchor="middle" x="432" y="-1518" font-family="Sans" font-size="10.00">issue</text>
<text text-anchor="middle" x="432" y="-1505" font-family="Sans" font-size="10.00">aii#209</text>
</a>
</g>
<!-- aii#210&#45;&gt;aii#209 -->
<g id="edge4" class="edge"><title>aii#210-&gt;aii#209</title>
<path fill="none" stroke="black" stroke-width="2" d="M157.768,-1514C214.279,-1514 317.868,-1514 380.284,-1514"/>
<polygon fill="black" stroke="black" points="380.31,-1517.5 390.31,-1514 380.31,-1510.5 380.31,-1517.5"/>
<text text-anchor="middle" x="273" y="-1518" font-family="Sans" font-size="10.00">fixes</text>
</g>
<!-- ncm&#45;ncd#74 -->
<g id="node8" class="node"><title>ncm-ncd#74</title>
<a xlink:href="https://github.com/quattor/ncm-ncd/pull/74" xlink:title="Set the current active config as an attribute to the component" target="_parent">
<polygon fill="#6cc644" stroke="black" points="473,-1624 391,-1624 391,-1570 473,-1570 473,-1624"/>
<text text-anchor="middle" x="432" y="-1601" font-family="Sans" font-size="10.00">pull-request</text>
<text text-anchor="middle" x="432" y="-1588" font-family="Sans" font-size="10.00">ncm-ncd#74</text>
</a>
</g>
<!-- aii#210&#45;&gt;ncm&#45;ncd#74 -->
<g id="edge6" class="edge"><title>aii#210-&gt;ncm-ncd#74</title>
<path fill="none" stroke="black" stroke-dasharray="5,2" d="M157.609,-1524.38C180.517,-1530.39 209.889,-1538.11 236,-1545 285.266,-1558.01 341.475,-1572.93 381.028,-1583.44"/>
<polygon fill="none" stroke="black" points="380.148,-1586.83 390.711,-1586.01 381.946,-1580.06 380.148,-1586.83"/>
<text text-anchor="middle" x="273" y="-1564" font-family="Sans" font-size="10.00">requires</text>
</g>
<!-- aii#203 -->
<g id="node10" class="node"><title>aii#203</title>
<polygon fill="lightgrey" stroke="black" points="461,-1458.5 403,-1458.5 403,-1417.5 461,-1417.5 461,-1458.5"/>
<text text-anchor="middle" x="432" y="-1435.5" font-family="Sans" font-size="10.00">aii#203</text>
</g>
<!-- aii#210&#45;&gt;aii#203 -->
<g id="edge8" class="edge"><title>aii#210-&gt;aii#203</title>
<path fill="none" stroke="black" stroke-dasharray="5,2" d="M157.585,-1503.14C196.315,-1492.64 257.039,-1476.53 310,-1464 337.353,-1457.53 368.33,-1450.93 392.226,-1446.01"/>
<polygon fill="none" stroke="black" points="393.24,-1449.37 402.334,-1443.94 391.835,-1442.51 393.24,-1449.37"/>
<text text-anchor="middle" x="273" y="-1481" font-family="Sans" font-size="10.00">requires</text>
</g>
<!-- configuration&#45;modules&#45;core#1163 -->
<g id="node11" class="node"><title>configuration-modules-core#1163</title>
<a xlink:href="https://github.com/quattor/configuration-modules-core/pull/1163" xlink:title="ncm-directoryservices: remove unsupported component" target="_parent">
<polygon fill="#6cc644" stroke="black" points="204,-1273 32,-1273 32,-1219 204,-1219 204,-1273"/>
<text text-anchor="middle" x="118" y="-1250" font-family="Sans" font-size="10.00">pull-request</text>
<text text-anchor="middle" x="118" y="-1237" font-family="Sans" font-size="10.00">configuration-modules-core#1163</text>
</a>
</g>
<!-- configuration&#45;modules&#45;core#1052 -->
<g id="node13" class="node"><title>configuration-modules-core#1052</title>
<a xlink:href="https://github.com/quattor/configuration-modules-core/issues/1052" xlink:title="ncm-directoryservices: Archive and remove from repository" target="_parent">
<ellipse fill="#6cc644" stroke="black" cx="432" cy="-1246" rx="121.122" ry="38.1838"/>
<text text-anchor="middle" x="432" y="-1250" font-family="Sans" font-size="10.00">issue</text>
<text text-anchor="middle" x="432" y="-1237" font-family="Sans" font-size="10.00">configuration-modules-core#1052</text>
</a>
</g>
<!-- configuration&#45;modules&#45;core#1163&#45;&gt;configuration&#45;modules&#45;core#1052 -->
<g id="edge10" class="edge"><title>configuration-modules-core#1163-&gt;configuration-modules-core#1052</title>
<path fill="none" stroke="black" stroke-width="2" d="M204.217,-1246C233.916,-1246 267.888,-1246 300.372,-1246"/>
<polygon fill="black" stroke="black" points="300.399,-1249.5 310.399,-1246 300.399,-1242.5 300.399,-1249.5"/>
<text text-anchor="middle" x="273" y="-1250" font-family="Sans" font-size="10.00">fixes</text>
</g>
<!-- configuration&#45;modules&#45;core#1162 -->
<g id="node14" class="node"><title>configuration-modules-core#1162</title>
<a xlink:href="https://github.com/quattor/configuration-modules-core/pull/1162" xlink:title="ncm-mcx: remove unsupported component" target="_parent">
<polygon fill="#6cc644" stroke="black" points="204,-1179 32,-1179 32,-1125 204,-1125 204,-1179"/>
<text text-anchor="middle" x="118" y="-1156" font-family="Sans" font-size="10.00">pull-request</text>
<text text-anchor="middle" x="118" y="-1143" font-family="Sans" font-size="10.00">configuration-modules-core#1162</text>
</a>
</g>
<!-- configuration&#45;modules&#45;core#1054 -->
<g id="node16" class="node"><title>configuration-modules-core#1054</title>
<a xlink:href="https://github.com/quattor/configuration-modules-core/issues/1054" xlink:title="ncm-mcx: Archive and remove from repository" target="_parent">
<ellipse fill="#6cc644" stroke="black" cx="432" cy="-1152" rx="121.122" ry="38.1838"/>
<text text-anchor="middle" x="432" y="-1156" font-family="Sans" font-size="10.00">issue</text>
<text text-anchor="middle" x="432" y="-1143" font-family="Sans" font-size="10.00">configuration-modules-core#1054</text>
</a>
</g>
<!-- configuration&#45;modules&#45;core#1162&#45;&gt;configuration&#45;modules&#45;core#1054 -->
<g id="edge12" class="edge"><title>configuration-modules-core#1162-&gt;configuration-modules-core#1054</title>
<path fill="none" stroke="black" stroke-width="2" d="M204.217,-1152C233.916,-1152 267.888,-1152 300.372,-1152"/>
<polygon fill="black" stroke="black" points="300.399,-1155.5 310.399,-1152 300.399,-1148.5 300.399,-1155.5"/>
<text text-anchor="middle" x="273" y="-1156" font-family="Sans" font-size="10.00">fixes</text>
</g>
<!-- configuration&#45;modules&#45;core#1159 -->
<g id="node17" class="node"><title>configuration-modules-core#1159</title>
<a xlink:href="https://github.com/quattor/configuration-modules-core/pull/1159" xlink:title="ncm-authconfig: Remove deprecated startstop property" target="_parent">
<polygon fill="#6cc644" stroke="black" points="204,-1037 32,-1037 32,-983 204,-983 204,-1037"/>
<text text-anchor="middle" x="118" y="-1014" font-family="Sans" font-size="10.00">pull-request</text>
<text text-anchor="middle" x="118" y="-1001" font-family="Sans" font-size="10.00">configuration-modules-core#1159</text>
</a>
</g>
<!-- configuration&#45;modules&#45;core#1145 -->
<g id="node19" class="node"><title>configuration-modules-core#1145</title>
<a xlink:href="https://github.com/quattor/configuration-modules-core/issues/1145" xlink:title="ncm-authconfig: Remove startstop property" target="_parent">
<ellipse fill="#6cc644" stroke="black" cx="432" cy="-964" rx="121.122" ry="38.1838"/>
<text text-anchor="middle" x="432" y="-968" font-family="Sans" font-size="10.00">issue</text>
<text text-anchor="middle" x="432" y="-955" font-family="Sans" font-size="10.00">configuration-modules-core#1145</text>
</a>
</g>
<!-- configuration&#45;modules&#45;core#1159&#45;&gt;configuration&#45;modules&#45;core#1145 -->
<g id="edge14" class="edge"><title>configuration-modules-core#1159-&gt;configuration-modules-core#1145</title>
<path fill="none" stroke="black" stroke-width="2" d="M204.217,-997.369C237.408,-992.507 275.936,-986.863 311.76,-981.615"/>
<polygon fill="black" stroke="black" points="312.398,-985.059 321.785,-980.146 311.383,-978.133 312.398,-985.059"/>
<text text-anchor="middle" x="273" y="-994" font-family="Sans" font-size="10.00">fixes</text>
</g>
<!-- configuration&#45;modules&#45;core#1143 -->
<g id="node21" class="node"><title>configuration-modules-core#1143</title>
<a xlink:href="https://github.com/quattor/configuration-modules-core/issues/1143" xlink:title="ncm-authconfig: What is startstop supposed to do?" target="_parent">
<ellipse fill="#6cc644" stroke="black" cx="432" cy="-1058" rx="121.122" ry="38.1838"/>
<text text-anchor="middle" x="432" y="-1062" font-family="Sans" font-size="10.00">issue</text>
<text text-anchor="middle" x="432" y="-1049" font-family="Sans" font-size="10.00">configuration-modules-core#1143</text>
</a>
</g>
<!-- configuration&#45;modules&#45;core#1159&#45;&gt;configuration&#45;modules&#45;core#1143 -->
<g id="edge16" class="edge"><title>configuration-modules-core#1159-&gt;configuration-modules-core#1143</title>
<path fill="none" stroke="black" stroke-width="2" d="M204.217,-1023.18C237.657,-1028.29 276.515,-1034.23 312.565,-1039.74"/>
<polygon fill="black" stroke="black" points="312.238,-1043.23 322.652,-1041.28 313.296,-1036.31 312.238,-1043.23"/>
<text text-anchor="middle" x="273" y="-1040" font-family="Sans" font-size="10.00">fixes</text>
</g>
<!-- configuration&#45;modules&#45;core#1151 -->
<g id="node22" class="node"><title>configuration-modules-core#1151</title>
<a xlink:href="https://github.com/quattor/configuration-modules-core/pull/1151" xlink:title="Escape / unescape functions from CCM::Path" target="_parent">
<polygon fill="#6e5494" stroke="black" points="204,-897 32,-897 32,-843 204,-843 204,-897"/>
<text text-anchor="middle" x="118" y="-874" font-family="Sans" font-size="10.00">pull-request</text>
<text text-anchor="middle" x="118" y="-861" font-family="Sans" font-size="10.00">configuration-modules-core#1151</text>
</a>
</g>
<!-- configuration&#45;modules&#45;core#1083 -->
<g id="node24" class="node"><title>configuration-modules-core#1083</title>
<a xlink:href="https://github.com/quattor/configuration-modules-core/issues/1083" xlink:title="warnings due to deprecated CCM modules" target="_parent">
<ellipse fill="#bd2c00" stroke="black" cx="432" cy="-870" rx="121.122" ry="38.1838"/>
<text text-anchor="middle" x="432" y="-874" font-family="Sans" font-size="10.00">issue</text>
<text text-anchor="middle" x="432" y="-861" font-family="Sans" font-size="10.00">configuration-modules-core#1083</text>
</a>
</g>
<!-- configuration&#45;modules&#45;core#1151&#45;&gt;configuration&#45;modules&#45;core#1083 -->
<g id="edge18" class="edge"><title>configuration-modules-core#1151-&gt;configuration-modules-core#1083</title>
<path fill="none" stroke="black" stroke-width="2" d="M204.217,-870C233.916,-870 267.888,-870 300.372,-870"/>
<polygon fill="black" stroke="black" points="300.399,-873.5 310.399,-870 300.399,-866.5 300.399,-873.5"/>
<text text-anchor="middle" x="273" y="-874" font-family="Sans" font-size="10.00">fixes</text>
</g>
<!-- configuration&#45;modules&#45;core#1149 -->
<g id="node25" class="node"><title>configuration-modules-core#1149</title>
<a xlink:href="https://github.com/quattor/configuration-modules-core/pull/1149" xlink:title="ncm-metaconfig: rsyslog: rainer script configuration" target="_parent">
<polygon fill="#6cc644" stroke="black" points="204,-814 32,-814 32,-760 204,-760 204,-814"/>
<text text-anchor="middle" x="118" y="-791" font-family="Sans" font-size="10.00">pull-request</text>
<text text-anchor="middle" x="118" y="-778" font-family="Sans" font-size="10.00">configuration-modules-core#1149</text>
</a>
</g>
<!-- configuration&#45;modules&#45;core#1126 -->
<g id="node27" class="node"><title>configuration-modules-core#1126</title>
<a xlink:href="https://github.com/quattor/configuration-modules-core/pull/1126" xlink:title="ncm-metaconfig: cleanup and switch to 00-tqu" target="_parent">
<polygon fill="#6cc644" stroke="black" points="518,-814 346,-814 346,-760 518,-760 518,-814"/>
<text text-anchor="middle" x="432" y="-791" font-family="Sans" font-size="10.00">pull-request</text>
<text text-anchor="middle" x="432" y="-778" font-family="Sans" font-size="10.00">configuration-modules-core#1126</text>
</a>
</g>
<!-- configuration&#45;modules&#45;core#1149&#45;&gt;configuration&#45;modules&#45;core#1126 -->
<g id="edge20" class="edge"><title>configuration-modules-core#1149-&gt;configuration-modules-core#1126</title>
<path fill="none" stroke="black" stroke-dasharray="5,2" d="M204.217,-787C244.975,-787 293.781,-787 335.743,-787"/>
<polygon fill="none" stroke="black" points="335.975,-790.5 345.975,-787 335.975,-783.5 335.975,-790.5"/>
<text text-anchor="middle" x="273" y="-791" font-family="Sans" font-size="10.00">requires</text>
</g>
<!-- configuration&#45;modules&#45;core#1136 -->
<g id="node28" class="node"><title>configuration-modules-core#1136</title>
<a xlink:href="https://github.com/quattor/configuration-modules-core/pull/1136" xlink:title="ncm-gmond: cleanup and support new configuration options" target="_parent">
<polygon fill="#6cc644" stroke="black" points="204,-731 32,-731 32,-677 204,-677 204,-731"/>
<text text-anchor="middle" x="118" y="-708" font-family="Sans" font-size="10.00">pull-request</text>
<text text-anchor="middle" x="118" y="-695" font-family="Sans" font-size="10.00">configuration-modules-core#1136</text>
</a>
</g>
<!-- configuration&#45;modules&#45;core#1116 -->
<g id="node30" class="node"><title>configuration-modules-core#1116</title>
<a xlink:href="https://github.com/quattor/configuration-modules-core/issues/1116" xlink:title="ncm-gmond: configuration options missing from schema" target="_parent">
<ellipse fill="#6cc644" stroke="black" cx="432" cy="-704" rx="121.122" ry="38.1838"/>
<text text-anchor="middle" x="432" y="-708" font-family="Sans" font-size="10.00">issue</text>
<text text-anchor="middle" x="432" y="-695" font-family="Sans" font-size="10.00">configuration-modules-core#1116</text>
</a>
</g>
<!-- configuration&#45;modules&#45;core#1136&#45;&gt;configuration&#45;modules&#45;core#1116 -->
<g id="edge22" class="edge"><title>configuration-modules-core#1136-&gt;configuration-modules-core#1116</title>
<path fill="none" stroke="black" stroke-width="2" d="M204.217,-704C233.916,-704 267.888,-704 300.372,-704"/>
<polygon fill="black" stroke="black" points="300.399,-707.5 310.399,-704 300.399,-700.5 300.399,-707.5"/>
<text text-anchor="middle" x="273" y="-708" font-family="Sans" font-size="10.00">fixes</text>
</g>
<!-- configuration&#45;modules&#45;core#1132 -->
<g id="node31" class="node"><title>configuration-modules-core#1132</title>
<a xlink:href="https://github.com/quattor/configuration-modules-core/pull/1132" xlink:title="ncm-metaconfig: hnormalise" target="_parent">
<polygon fill="#6cc644" stroke="black" points="204,-416 32,-416 32,-362 204,-362 204,-416"/>
<text text-anchor="middle" x="118" y="-393" font-family="Sans" font-size="10.00">pull-request</text>
<text text-anchor="middle" x="118" y="-380" font-family="Sans" font-size="10.00">configuration-modules-core#1132</text>
</a>
</g>
<!-- configuration&#45;modules&#45;core#1028 -->
<g id="node33" class="node"><title>configuration-modules-core#1028</title>
<polygon fill="lightgrey" stroke="black" points="518,-98.5 346,-98.5 346,-57.5 518,-57.5 518,-98.5"/>
<text text-anchor="middle" x="432" y="-75.5" font-family="Sans" font-size="10.00">configuration-modules-core#1028</text>
</g>
<!-- configuration&#45;modules&#45;core#1132&#45;&gt;configuration&#45;modules&#45;core#1028 -->
<g id="edge24" class="edge"><title>configuration-modules-core#1132-&gt;configuration-modules-core#1028</title>
<path fill="none" stroke="black" stroke-dasharray="5,2" d="M204.033,-376.331C216.353,-370.97 227.656,-363.468 236,-353 270.995,-309.099 215.452,-141.818 254,-101 274.855,-78.9166 305.637,-70.3162 335.762,-68.1327"/>
<polygon fill="none" stroke="black" points="336.123,-71.6192 345.938,-67.628 335.776,-64.6278 336.123,-71.6192"/>
<text text-anchor="middle" x="273" y="-105" font-family="Sans" font-size="10.00">requires</text>
</g>
<!-- configuration&#45;modules&#45;core#1124 -->
<g id="node34" class="node"><title>configuration-modules-core#1124</title>
<a xlink:href="https://github.com/quattor/configuration-modules-core/pull/1124" xlink:title="ncm-cron: cleanup and switch to 00-tqu" target="_parent">
<polygon fill="#6e5494" stroke="black" points="204,-488 32,-488 32,-434 204,-434 204,-488"/>
<text text-anchor="middle" x="118" y="-465" font-family="Sans" font-size="10.00">pull-request</text>
<text text-anchor="middle" x="118" y="-452" font-family="Sans" font-size="10.00">configuration-modules-core#1124</text>
</a>
</g>
<!-- CAF#230 -->
<g id="node36" class="node"><title>CAF#230</title>
<polygon fill="lightgrey" stroke="black" points="467,-156.5 397,-156.5 397,-115.5 467,-115.5 467,-156.5"/>
<text text-anchor="middle" x="432" y="-133.5" font-family="Sans" font-size="10.00">CAF#230</text>
</g>
<!-- configuration&#45;modules&#45;core#1124&#45;&gt;CAF#230 -->
<g id="edge26" class="edge"><title>configuration-modules-core#1124-&gt;CAF#230</title>
<path fill="none" stroke="black" stroke-dasharray="5,2" d="M204.112,-448.394C216.423,-443.026 227.702,-435.505 236,-425 275.748,-374.68 207.388,-181.037 254,-137 288.791,-104.132 346.634,-110.667 386.904,-120.958"/>
<polygon fill="none" stroke="black" points="386.171,-124.386 396.739,-123.634 388.009,-117.632 386.171,-124.386"/>
<text text-anchor="middle" x="273" y="-141" font-family="Sans" font-size="10.00">requires</text>
</g>
<!-- configuration&#45;modules&#45;core#1119 -->
<g id="node37" class="node"><title>configuration-modules-core#1119</title>
<a xlink:href="https://github.com/quattor/configuration-modules-core/pull/1119" xlink:title="ncm-systemd: cleanup, restarting modified unitfiles and initial handling of unconfigured units" target="_parent">
<polygon fill="#6cc644" stroke="black" points="204,-637 32,-637 32,-583 204,-583 204,-637"/>
<text text-anchor="middle" x="118" y="-614" font-family="Sans" font-size="10.00">pull-request</text>
<text text-anchor="middle" x="118" y="-601" font-family="Sans" font-size="10.00">configuration-modules-core#1119</text>
</a>
</g>
<!-- configuration&#45;modules&#45;core#1095 -->
<g id="node39" class="node"><title>configuration-modules-core#1095</title>
<a xlink:href="https://github.com/quattor/configuration-modules-core/issues/1095" xlink:title="Manual intervention required in order for drop-in unit files to have any affect" target="_parent">
<ellipse fill="#6cc644" stroke="black" cx="432" cy="-610" rx="121.122" ry="38.1838"/>
<text text-anchor="middle" x="432" y="-614" font-family="Sans" font-size="10.00">issue</text>
<text text-anchor="middle" x="432" y="-601" font-family="Sans" font-size="10.00">configuration-modules-core#1095</text>
</a>
</g>
<!-- configuration&#45;modules&#45;core#1119&#45;&gt;configuration&#45;modules&#45;core#1095 -->
<g id="edge28" class="edge"><title>configuration-modules-core#1119-&gt;configuration-modules-core#1095</title>
<path fill="none" stroke="black" stroke-width="2" d="M204.217,-610C233.916,-610 267.888,-610 300.372,-610"/>
<polygon fill="black" stroke="black" points="300.399,-613.5 310.399,-610 300.399,-606.5 300.399,-613.5"/>
<text text-anchor="middle" x="273" y="-614" font-family="Sans" font-size="10.00">fixes</text>
</g>
<!-- configuration&#45;modules&#45;core#1087 -->
<g id="node40" class="node"><title>configuration-modules-core#1087</title>
<a xlink:href="https://github.com/quattor/configuration-modules-core/pull/1087" xlink:title="ncm-network: cleanup, fixes and new features" target="_parent">
<polygon fill="#6cc644" stroke="black" points="204,-560 32,-560 32,-506 204,-506 204,-560"/>
<text text-anchor="middle" x="118" y="-537" font-family="Sans" font-size="10.00">pull-request</text>
<text text-anchor="middle" x="118" y="-524" font-family="Sans" font-size="10.00">configuration-modules-core#1087</text>
</a>
</g>
<!-- configuration&#45;modules&#45;core#1087&#45;&gt;CAF#230 -->
<g id="edge40" class="edge"><title>configuration-modules-core#1087-&gt;CAF#230</title>
<path fill="none" stroke="black" stroke-dasharray="5,2" d="M204.096,-520.382C216.409,-515.015 227.693,-507.497 236,-497 274.691,-448.106 227.256,-273.324 254,-217 277.508,-167.491 342.145,-148.212 386.695,-140.725"/>
<polygon fill="none" stroke="black" points="387.361,-144.164 396.711,-139.182 386.294,-137.246 387.361,-144.164"/>
<text text-anchor="middle" x="273" y="-221" font-family="Sans" font-size="10.00">requires</text>
</g>
<!-- configuration&#45;modules&#45;core#1082 -->
<g id="node42" class="node"><title>configuration-modules-core#1082</title>
<a xlink:href="https://github.com/quattor/configuration-modules-core/issues/1082" xlink:title="ncm-network: Allow extra routing options for the default route" target="_parent">
<ellipse fill="#6cc644" stroke="black" cx="432" cy="-328" rx="121.122" ry="38.1838"/>
<text text-anchor="middle" x="432" y="-332" font-family="Sans" font-size="10.00">issue</text>
<text text-anchor="middle" x="432" y="-319" font-family="Sans" font-size="10.00">configuration-modules-core#1082</text>
</a>
</g>
<!-- configuration&#45;modules&#45;core#1087&#45;&gt;configuration&#45;modules&#45;core#1082 -->
<g id="edge30" class="edge"><title>configuration-modules-core#1087-&gt;configuration-modules-core#1082</title>
<path fill="none" stroke="black" stroke-width="2" d="M204.152,-515.844C215.653,-511.036 226.675,-504.88 236,-497 249.663,-485.454 245.105,-476.52 254,-461 276.68,-421.427 274.553,-403.704 310,-375 317.462,-368.957 325.79,-363.628 334.493,-358.942"/>
<polygon fill="black" stroke="black" points="336.34,-361.93 343.678,-354.288 333.176,-355.686 336.34,-361.93"/>
<text text-anchor="middle" x="273" y="-465" font-family="Sans" font-size="10.00">fixes</text>
</g>
<!-- configuration&#45;modules&#45;core#870 -->
<g id="node44" class="node"><title>configuration-modules-core#870</title>
<a xlink:href="https://github.com/quattor/configuration-modules-core/issues/870" xlink:title="ncm-network: hostname is not set in el7" target="_parent">
<ellipse fill="#6cc644" stroke="black" cx="432" cy="-422" rx="118.087" ry="38.1838"/>
<text text-anchor="middle" x="432" y="-426" font-family="Sans" font-size="10.00">issue</text>
<text text-anchor="middle" x="432" y="-413" font-family="Sans" font-size="10.00">configuration-modules-core#870</text>
</a>
</g>
<!-- configuration&#45;modules&#45;core#1087&#45;&gt;configuration&#45;modules&#45;core#870 -->
<g id="edge32" class="edge"><title>configuration-modules-core#1087-&gt;configuration-modules-core#870</title>
<path fill="none" stroke="black" stroke-width="2" d="M204.26,-507.441C214.984,-504.041 225.77,-500.513 236,-497 241.837,-494.995 296.418,-474.097 346.501,-454.869"/>
<polygon fill="black" stroke="black" points="348.033,-458.03 356.114,-451.178 345.524,-451.495 348.033,-458.03"/>
<text text-anchor="middle" x="273" y="-494" font-family="Sans" font-size="10.00">fixes</text>
</g>
<!-- configuration&#45;modules&#45;core#1109 -->
<g id="node46" class="node"><title>configuration-modules-core#1109</title>
<a xlink:href="https://github.com/quattor/configuration-modules-core/issues/1109" xlink:title="ncm-network: systemd rpm scripts remove HOSTNAME from /etc/sysconfig/network" target="_parent">
<ellipse fill="#6cc644" stroke="black" cx="432" cy="-516" rx="121.122" ry="38.1838"/>
<text text-anchor="middle" x="432" y="-520" font-family="Sans" font-size="10.00">issue</text>
<text text-anchor="middle" x="432" y="-507" font-family="Sans" font-size="10.00">configuration-modules-core#1109</text>
</a>
</g>
<!-- configuration&#45;modules&#45;core#1087&#45;&gt;configuration&#45;modules&#45;core#1109 -->
<g id="edge34" class="edge"><title>configuration-modules-core#1087-&gt;configuration-modules-core#1109</title>
<path fill="none" stroke="black" stroke-width="2" d="M204.217,-528.332C234.409,-526.698 269.018,-524.824 301.99,-523.039"/>
<polygon fill="black" stroke="black" points="302.368,-526.524 312.164,-522.488 301.989,-519.534 302.368,-526.524"/>
<text text-anchor="middle" x="273" y="-530" font-family="Sans" font-size="10.00">fixes</text>
</g>
<!-- configuration&#45;modules&#45;core#1085 -->
<g id="node48" class="node"><title>configuration-modules-core#1085</title>
<polygon fill="lightgrey" stroke="black" points="518,-272.5 346,-272.5 346,-231.5 518,-231.5 518,-272.5"/>
<text text-anchor="middle" x="432" y="-249.5" font-family="Sans" font-size="10.00">configuration-modules-core#1085</text>
</g>
<!-- configuration&#45;modules&#45;core#1087&#45;&gt;configuration&#45;modules&#45;core#1085 -->
<g id="edge36" class="edge"><title>configuration-modules-core#1087-&gt;configuration-modules-core#1085</title>
<path fill="none" stroke="black" stroke-dasharray="1,5" d="M204.249,-519.387C216.308,-514.123 227.472,-506.898 236,-497 271.489,-455.81 236.207,-427.376 254,-376 270.417,-328.597 269.489,-307.587 310,-278 317.935,-272.204 326.891,-267.646 336.255,-264.069"/>
<polygon fill="black" stroke="black" points="345.732,-260.81 337.739,-268.318 341.004,-262.436 336.276,-264.062 336.276,-264.062 336.276,-264.062 341.004,-262.436 334.812,-259.807 345.732,-260.81 345.732,-260.81"/>
<text text-anchor="middle" x="273" y="-380" font-family="Sans" font-size="10.00">replaces</text>
</g>
<!-- configuration&#45;modules&#45;core#1070 -->
<g id="node50" class="node"><title>configuration-modules-core#1070</title>
<polygon fill="lightgrey" stroke="black" points="518,-214.5 346,-214.5 346,-173.5 518,-173.5 518,-214.5"/>
<text text-anchor="middle" x="432" y="-191.5" font-family="Sans" font-size="10.00">configuration-modules-core#1070</text>
</g>
<!-- configuration&#45;modules&#45;core#1087&#45;&gt;configuration&#45;modules&#45;core#1070 -->
<g id="edge38" class="edge"><title>configuration-modules-core#1087-&gt;configuration-modules-core#1070</title>
<path fill="none" stroke="black" stroke-dasharray="1,5" d="M204.236,-520.128C216.452,-514.785 227.669,-507.341 236,-497 266.773,-458.802 232.991,-321.325 254,-277 268.809,-245.756 279.662,-239.585 310,-223 318.223,-218.505 327.13,-214.701 336.259,-211.484"/>
<polygon fill="black" stroke="black" points="345.833,-208.339 337.737,-215.735 341.082,-209.899 336.332,-211.46 336.332,-211.46 336.332,-211.46 341.082,-209.899 334.928,-207.184 345.833,-208.339 345.833,-208.339"/>
<text text-anchor="middle" x="273" y="-281" font-family="Sans" font-size="10.00">replaces</text>
</g>
<!-- configuration&#45;modules&#45;core#1058 -->
<g id="node52" class="node"><title>configuration-modules-core#1058</title>
<a xlink:href="https://github.com/quattor/configuration-modules-core/pull/1058" xlink:title="ncm-ssh: disable insecure ssh ciphersuites and macs" target="_parent">
<polygon fill="#6cc644" stroke="black" points="204,-344 32,-344 32,-290 204,-290 204,-344"/>
<text text-anchor="middle" x="118" y="-321" font-family="Sans" font-size="10.00">pull-request</text>
<text text-anchor="middle" x="118" y="-308" font-family="Sans" font-size="10.00">configuration-modules-core#1058</text>
</a>
</g>
<!-- configuration&#45;modules&#45;core#983 -->
<g id="node54" class="node"><title>configuration-modules-core#983</title>
<polygon fill="lightgrey" stroke="black" points="515,-40.5 349,-40.5 349,0.5 515,0.5 515,-40.5"/>
<text text-anchor="middle" x="432" y="-17.5" font-family="Sans" font-size="10.00">configuration-modules-core#983</text>
</g>
<!-- configuration&#45;modules&#45;core#1058&#45;&gt;configuration&#45;modules&#45;core#983 -->
<g id="edge42" class="edge"><title>configuration-modules-core#1058-&gt;configuration-modules-core#983</title>
<path fill="none" stroke="black" stroke-dasharray="1,5" d="M122.766,-289.724C134.196,-233.248 168.808,-103.727 254,-43 278.172,-25.7692 309.004,-18.1776 338.192,-15.4374"/>
<polygon fill="black" stroke="black" points="348.434,-14.6626 338.802,-19.9042 343.448,-15.0398 338.462,-15.417 338.462,-15.417 338.462,-15.417 343.448,-15.0398 338.123,-10.9298 348.434,-14.6626 348.434,-14.6626"/>
<text text-anchor="middle" x="273" y="-47" font-family="Sans" font-size="10.00">replaces</text>
</g>
<!-- configuration&#45;modules&#45;core#1148 -->
<g id="node55" class="node"><title>configuration-modules-core#1148</title>
<a xlink:href="https://github.com/quattor/configuration-modules-core/pull/1148" xlink:title="ncm-spma: Remove support from groups from spma yumng backend" target="_parent">
<polygon fill="#6cc644" stroke="black" points="204,-1823 32,-1823 32,-1769 204,-1769 204,-1823"/>
<text text-anchor="middle" x="118" y="-1800" font-family="Sans" font-size="10.00">pull-request</text>
<text text-anchor="middle" x="118" y="-1787" font-family="Sans" font-size="10.00">configuration-modules-core#1148</text>
</a>
</g>
<!-- configuration&#45;modules&#45;core#952 -->
<g id="node57" class="node"><title>configuration-modules-core#952</title>
<a xlink:href="https://github.com/quattor/configuration-modules-core/issues/952" xlink:title="ncm-spma (yumng): Remove support for package groups" target="_parent">
<ellipse fill="#6cc644" stroke="black" cx="432" cy="-1796" rx="118.087" ry="38.1838"/>
<text text-anchor="middle" x="432" y="-1800" font-family="Sans" font-size="10.00">issue</text>
<text text-anchor="middle" x="432" y="-1787" font-family="Sans" font-size="10.00">configuration-modules-core#952</text>
</a>
</g>
<!-- configuration&#45;modules&#45;core#1148&#45;&gt;configuration&#45;modules&#45;core#952 -->
<g id="edge44" class="edge"><title>configuration-modules-core#1148-&gt;configuration-modules-core#952</title>
<path fill="none" stroke="black" stroke-width="2" d="M204.217,-1796C234.903,-1796 270.151,-1796 303.606,-1796"/>
<polygon fill="black" stroke="black" points="303.924,-1799.5 313.924,-1796 303.924,-1792.5 303.924,-1799.5"/>
<text text-anchor="middle" x="273" y="-1800" font-family="Sans" font-size="10.00">fixes</text>
</g>
<!-- configuration&#45;modules&#45;core#950 -->
<g id="node58" class="node"><title>configuration-modules-core#950</title>
<a xlink:href="https://github.com/quattor/configuration-modules-core/issues/950" xlink:title="ncm-spma: Remove support for package groups from yum backends" target="_parent">
<ellipse fill="#6cc644" stroke="black" cx="118" cy="-1707" rx="118.087" ry="38.1838"/>
<text text-anchor="middle" x="118" y="-1711" font-family="Sans" font-size="10.00">issue</text>
<text text-anchor="middle" x="118" y="-1698" font-family="Sans" font-size="10.00">configuration-modules-core#950</text>
</a>
</g>
<!-- configuration&#45;modules&#45;core#950&#45;&gt;configuration&#45;modules&#45;core#952 -->
<g id="edge48" class="edge"><title>configuration-modules-core#950-&gt;configuration-modules-core#952</title>
<path fill="none" stroke="black" stroke-dasharray="5,2" d="M206.721,-1732.15C246.26,-1743.35 292.974,-1756.59 333.584,-1768.11"/>
<polygon fill="none" stroke="black" points="332.651,-1771.48 343.226,-1770.84 334.56,-1764.74 332.651,-1771.48"/>
<text text-anchor="middle" x="273" y="-1758" font-family="Sans" font-size="10.00">requires</text>
</g>
<!-- configuration&#45;modules&#45;core#951 -->
<g id="node60" class="node"><title>configuration-modules-core#951</title>
<a xlink:href="https://github.com/quattor/configuration-modules-core/issues/951" xlink:title="ncm-spma (yum): Remove support for package groups" target="_parent">
<ellipse fill="#6cc644" stroke="black" cx="432" cy="-1702" rx="118.087" ry="38.1838"/>
<text text-anchor="middle" x="432" y="-1706" font-family="Sans" font-size="10.00">issue</text>
<text text-anchor="middle" x="432" y="-1693" font-family="Sans" font-size="10.00">configuration-modules-core#951</text>
</a>
</g>
<!-- configuration&#45;modules&#45;core#950&#45;&gt;configuration&#45;modules&#45;core#951 -->
<g id="edge46" class="edge"><title>configuration-modules-core#950-&gt;configuration-modules-core#951</title>
<path fill="none" stroke="black" stroke-dasharray="5,2" d="M236.263,-1705.12C258.348,-1704.77 281.525,-1704.4 303.892,-1704.04"/>
<polygon fill="none" stroke="black" points="304.162,-1707.54 314.105,-1703.88 304.05,-1700.54 304.162,-1707.54"/>
<text text-anchor="middle" x="273" y="-1709" font-family="Sans" font-size="10.00">requires</text>
</g>
</g>
</svg>
