<?xml version="1.0" encoding="UTF-8" standalone="no"?>
<?xml-stylesheet href="relationships.css" type="text/css"?>
<!-- Generated by graphviz version 2.30.1 (20200930.0103)
 -->
<!-- Title: Dependencies Pages: 1 -->
<svg xmlns="http://www.w3.org/2000/svg" xmlns:xlink="http://www.w3.org/1999/xlink" width="852pt" height="1462pt" viewBox="0.00 0.00 852.00 1462.00">
<g id="graph0" class="graph" transform="scale(1 1) rotate(0) translate(4 1458)">
<title>Dependencies</title>
<polygon fill="white" stroke="white" points="-4,5 -4,-1458 849,-1458 849,5 -4,5"/>
<g id="clust2" class="cluster"><title>cluster_milestone_23.9</title>
<polygon fill="none" stroke="black" points="312,-161 312,-860 836,-860 836,-161 312,-161"/>
<text text-anchor="middle" x="574" y="-846.4" font-family="Sans" font-size="12.00">23.9</text>
</g>
<!-- aii#328 -->
<g id="node1" class="node"><title>aii#328</title>
<g id="a_node1"><a xlink:href="https://github.com/quattor/aii/pull/328" xlink:title="aii#328 (pull-request)" target="_parent">
<polygon fill="#6cc644" stroke="black" points="510,-491 328,-491 328,-441 510,-441 510,-491"/>
<text text-anchor="middle" x="419" y="-469" font-family="Sans" font-size="10.00">aii-ks: generate ks post section</text>
<text text-anchor="middle" x="419" y="-458" font-family="Sans" font-size="10.00">as standalone script</text>
</a>
</g>
</g>
<!-- aii#280 -->
<g id="node2" class="node"><title>aii#280</title>
<polygon fill="lightgrey" stroke="black" points="763.5,-910.5 696.5,-910.5 696.5,-871.5 763.5,-871.5 763.5,-910.5"/>
<text text-anchor="middle" x="730" y="-888.5" font-family="Sans" font-size="10.00">aii#280</text>
</g>
<!-- aii#328&#45;&gt;aii#280 -->
<g id="edge1" class="edge"><title>aii#328-&gt;aii#280</title>
<path fill="none" stroke="black" stroke-dasharray="5,2" d="M510.278,-488.843C515.257,-492.082 519.894,-495.779 524,-500 641.669,-620.955 511.67,-745.692 632,-864 646.37,-878.128 667.468,-885.007 686.32,-888.301"/>
<polygon fill="none" stroke="black" points="685.814,-891.764 696.216,-889.751 686.829,-884.838 685.814,-891.764"/>
<text text-anchor="middle" x="556.778" y="-680.003" font-family="Sans" font-size="10.00">requires</text>
</g>
<!-- aii#316 -->
<g id="node3" class="node"><title>aii#316</title>
<polygon fill="lightgrey" stroke="black" points="763.5,-152.5 696.5,-152.5 696.5,-113.5 763.5,-113.5 763.5,-152.5"/>
<text text-anchor="middle" x="730" y="-130.5" font-family="Sans" font-size="10.00">aii#316</text>
</g>
<!-- aii#328&#45;&gt;aii#316 -->
<g id="edge2" class="edge"><title>aii#328-&gt;aii#316</title>
<path fill="none" stroke="black" stroke-dasharray="5,2" d="M510.358,-442.435C515.253,-439.372 519.855,-435.911 524,-432 619.515,-341.893 533.243,-243.541 632,-157 646.862,-143.977 667.702,-137.791 686.258,-134.937"/>
<polygon fill="none" stroke="black" points="686.797,-138.397 696.28,-133.672 685.92,-131.452 686.797,-138.397"/>
<text text-anchor="middle" x="557.207" y="-278.057" font-family="Sans" font-size="10.00">requires</text>
</g>
<!-- aii#331 -->
<g id="node4" class="node"><title>aii#331</title>
<g id="a_node4"><a xlink:href="https://github.com/quattor/aii/pull/331" xlink:title="aii#331 (pull-request)" target="_parent">
<polygon fill="#6cc644" stroke="black" points="174,-496.5 32,-496.5 32,-435.5 174,-435.5 174,-496.5"/>
<text text-anchor="middle" x="103" y="-474.5" font-family="Sans" font-size="10.00">let aii generate ansible</text>
<text text-anchor="middle" x="103" y="-463.5" font-family="Sans" font-size="10.00">playbook for supported</text>
<text text-anchor="middle" x="103" y="-452.5" font-family="Sans" font-size="10.00">components</text>
</a>
</g>
</g>
<!-- aii#331&#45;&gt;aii#328 -->
<g id="edge3" class="edge"><title>aii#331-&gt;aii#328</title>
<path fill="none" stroke="black" stroke-dasharray="5,2" d="M174.077,-466C216.343,-466 270.883,-466 317.668,-466"/>
<polygon fill="none" stroke="black" points="317.834,-469.5 327.834,-466 317.834,-462.5 317.834,-469.5"/>
<text text-anchor="middle" x="230.574" y="-458" font-family="Sans" font-size="10.00">requires</text>
</g>
<!-- aii#299 -->
<g id="node5" class="node"><title>aii#299</title>
<g id="a_node5"><a xlink:href="https://github.com/quattor/aii/pull/299" xlink:title="aii#299 (pull-request)" target="_parent">
<polygon fill="#6cc644" stroke="black" points="495.5,-918 342.5,-918 342.5,-868 495.5,-868 495.5,-918"/>
<text text-anchor="middle" x="419" y="-896" font-family="Sans" font-size="10.00">aii-dhcp: support optional</text>
<text text-anchor="middle" x="419" y="-885" font-family="Sans" font-size="10.00">hostname ip verification</text>
</a>
</g>
</g>
<!-- aii#299&#45;&gt;aii#280 -->
<g id="edge4" class="edge"><title>aii#299-&gt;aii#280</title>
<path fill="none" stroke="black" stroke-dasharray="5,2" d="M495.59,-892.511C555.348,-892.124 636.634,-891.598 685.823,-891.279"/>
<polygon fill="none" stroke="black" points="686.134,-894.778 696.111,-891.213 686.089,-887.778 686.134,-894.778"/>
<text text-anchor="middle" x="575.863" y="-883.862" font-family="Sans" font-size="10.00">requires</text>
</g>
<!-- CAF#277 -->
<g id="node6" class="node"><title>CAF#277</title>
<g id="a_node6"><a xlink:href="https://github.com/quattor/CAF/pull/277" xlink:title="CAF#277 (pull-request)" target="_parent">
<polygon fill="#6cc644" stroke="black" points="511.5,-831 326.5,-831 326.5,-781 511.5,-781 511.5,-831"/>
<text text-anchor="middle" x="419" y="-809" font-family="Sans" font-size="10.00">Replace four instances of while-</text>
<text text-anchor="middle" x="419" y="-798" font-family="Sans" font-size="10.00">each with foreach</text>
</a>
</g>
</g>
<!-- CAF#109 -->
<g id="node7" class="node"><title>CAF#109</title>
<g id="a_node7"><a xlink:href="https://github.com/quattor/CAF/issues/109" xlink:title="CAF#109 (issue)" target="_parent">
<path fill="#6cc644" stroke="black" d="M799.5,-831C799.5,-831 660.5,-831 660.5,-831 654.5,-831 648.5,-825 648.5,-819 648.5,-819 648.5,-793 648.5,-793 648.5,-787 654.5,-781 660.5,-781 660.5,-781 799.5,-781 799.5,-781 805.5,-781 811.5,-787 811.5,-793 811.5,-793 811.5,-819 811.5,-819 811.5,-825 805.5,-831 799.5,-831"/>
<text text-anchor="middle" x="730" y="-809" font-family="Sans" font-size="10.00">review the current usage of</text>
<text text-anchor="middle" x="730" y="-798" font-family="Sans" font-size="10.00">`each`</text>
</a>
</g>
</g>
<!-- CAF#277&#45;&gt;CAF#109 -->
<g id="edge5" class="edge"><title>CAF#277-&gt;CAF#109</title>
<path fill="none" stroke="black" stroke-width="2" d="M511.874,-806C551.805,-806 598.455,-806 638.258,-806"/>
<polygon fill="black" stroke="black" points="638.488,-809.5 648.488,-806 638.488,-802.5 638.488,-809.5"/>
<text text-anchor="middle" x="568.182" y="-798" font-family="Sans" font-size="10.00">fixes</text>
</g>
<!-- CAF#257 -->
<g id="node8" class="node"><title>CAF#257</title>
<g id="a_node8"><a xlink:href="https://github.com/quattor/CAF/pull/257" xlink:title="CAF#257 (pull-request)" target="_parent">
<polygon fill="#6cc644" stroke="black" points="510.5,-763 327.5,-763 327.5,-713 510.5,-713 510.5,-763"/>
<text text-anchor="middle" x="419" y="-741" font-family="Sans" font-size="10.00">Process: run process as another</text>
<text text-anchor="middle" x="419" y="-730" font-family="Sans" font-size="10.00">user</text>
</a>
</g>
</g>
<!-- CAF#253 -->
<g id="node9" class="node"><title>CAF#253</title>
<g id="a_node9"><a xlink:href="https://github.com/quattor/CAF/issues/253" xlink:title="CAF#253 (issue)" target="_parent">
<path fill="#6cc644" stroke="black" d="M808,-762.5C808,-762.5 652,-762.5 652,-762.5 646,-762.5 640,-756.5 640,-750.5 640,-750.5 640,-713.5 640,-713.5 640,-707.5 646,-701.5 652,-701.5 652,-701.5 808,-701.5 808,-701.5 814,-701.5 820,-707.5 820,-713.5 820,-713.5 820,-750.5 820,-750.5 820,-756.5 814,-762.5 808,-762.5"/>
<text text-anchor="middle" x="730" y="-740.5" font-family="Sans" font-size="10.00">CAF::Process: Include an option</text>
<text text-anchor="middle" x="730" y="-729.5" font-family="Sans" font-size="10.00">to execute the command as an</text>
<text text-anchor="middle" x="730" y="-718.5" font-family="Sans" font-size="10.00">specific user</text>
</a>
</g>
</g>
<!-- CAF#257&#45;&gt;CAF#253 -->
<g id="edge6" class="edge"><title>CAF#257-&gt;CAF#253</title>
<path fill="none" stroke="black" stroke-width="2" d="M510.622,-736.24C548.057,-735.513 591.565,-734.669 629.848,-733.925"/>
<polygon fill="black" stroke="black" points="630.048,-737.422 639.978,-733.729 629.912,-730.423 630.048,-737.422"/>
<text text-anchor="middle" x="563.163" y="-726.987" font-family="Sans" font-size="10.00">fixes</text>
</g>
<!-- CAF#110 -->
<g id="node10" class="node"><title>CAF#110</title>
<g id="a_node10"><a xlink:href="https://github.com/quattor/CAF/pull/110" xlink:title="CAF#110 (pull-request)" target="_parent">
<polygon fill="#6cc644" stroke="black" points="178.5,-981 27.5,-981 27.5,-931 178.5,-931 178.5,-981"/>
<text text-anchor="middle" x="103" y="-959" font-family="Sans" font-size="10.00">CAF::Download class: API</text>
<text text-anchor="middle" x="103" y="-948" font-family="Sans" font-size="10.00">proposal</text>
</a>
</g>
</g>
<!-- CAF#120 -->
<g id="node11" class="node"><title>CAF#120</title>
<polygon fill="lightgrey" stroke="black" points="456,-975.5 382,-975.5 382,-936.5 456,-936.5 456,-975.5"/>
<text text-anchor="middle" x="419" y="-953.5" font-family="Sans" font-size="10.00">CAF#120</text>
</g>
<!-- CAF#110&#45;&gt;CAF#120 -->
<g id="edge7" class="edge"><title>CAF#110-&gt;CAF#120</title>
<path fill="none" stroke="black" stroke-dasharray="5,2" d="M178.812,-956C238.718,-956 320.856,-956 371.623,-956"/>
<polygon fill="none" stroke="black" points="371.651,-959.5 381.651,-956 371.651,-952.5 371.651,-959.5"/>
<text text-anchor="middle" x="260.255" y="-948" font-family="Sans" font-size="10.00">requires</text>
</g>
<!-- CCM#210 -->
<g id="node12" class="node"><title>CCM#210</title>
<g id="a_node12"><a xlink:href="https://github.com/quattor/CCM/pull/210" xlink:title="CCM#210 (pull-request)" target="_parent">
<polygon fill="#6e5494" stroke="black" points="497,-695 341,-695 341,-645 497,-645 497,-695"/>
<text text-anchor="middle" x="419" y="-673" font-family="Sans" font-size="10.00">Fetch: Remove suffix from</text>
<text text-anchor="middle" x="419" y="-662" font-family="Sans" font-size="10.00">downloaded profile</text>
</a>
</g>
</g>
<!-- CCM#204 -->
<g id="node13" class="node"><title>CCM#204</title>
<g id="a_node13"><a xlink:href="https://github.com/quattor/CCM/issues/204" xlink:title="CCM#204 (issue)" target="_parent">
<path fill="#6e5494" stroke="black" d="M809.5,-683.5C809.5,-683.5 650.5,-683.5 650.5,-683.5 644.5,-683.5 638.5,-677.5 638.5,-671.5 638.5,-671.5 638.5,-634.5 638.5,-634.5 638.5,-628.5 644.5,-622.5 650.5,-622.5 650.5,-622.5 809.5,-622.5 809.5,-622.5 815.5,-622.5 821.5,-628.5 821.5,-634.5 821.5,-634.5 821.5,-671.5 821.5,-671.5 821.5,-677.5 815.5,-683.5 809.5,-683.5"/>
<text text-anchor="middle" x="730" y="-661.5" font-family="Sans" font-size="10.00">Cached profiles always have an</text>
<text text-anchor="middle" x="730" y="-650.5" font-family="Sans" font-size="10.00">xml extension regardless of</text>
<text text-anchor="middle" x="730" y="-639.5" font-family="Sans" font-size="10.00">their content</text>
</a>
</g>
</g>
<!-- CCM#210&#45;&gt;CCM#204 -->
<g id="edge8" class="edge"><title>CCM#210-&gt;CCM#204</title>
<path fill="none" stroke="black" stroke-width="2" d="M497.177,-665.754C536.812,-663.573 585.594,-660.89 628.168,-658.547"/>
<polygon fill="black" stroke="black" points="628.487,-662.035 638.279,-657.991 628.102,-655.046 628.487,-662.035"/>
<text text-anchor="middle" x="555.37" y="-653.892" font-family="Sans" font-size="10.00">fixes</text>
</g>
<!-- configuration&#45;modules&#45;core#1622 -->
<g id="node14" class="node"><title>configuration-modules-core#1622</title>
<g id="a_node14"><a xlink:href="https://github.com/quattor/configuration-modules-core/pull/1622" xlink:title="configuration-modules-core#1622 (pull-request)" target="_parent">
<polygon fill="#6cc644" stroke="black" points="507.5,-627 330.5,-627 330.5,-577 507.5,-577 507.5,-627"/>
<text text-anchor="middle" x="419" y="-605" font-family="Sans" font-size="10.00">ncm-authconfig: sssd: Schema</text>
<text text-anchor="middle" x="419" y="-594" font-family="Sans" font-size="10.00">improvements</text>
</a>
</g>
</g>
<!-- configuration&#45;modules&#45;core#1471 -->
<g id="node15" class="node"><title>configuration-modules-core#1471</title>
<g id="a_node15"><a xlink:href="https://github.com/quattor/configuration-modules-core/issues/1471" xlink:title="configuration-modules-core#1471 (issue)" target="_parent">
<path fill="#6cc644" stroke="black" d="M804.5,-604C804.5,-604 655.5,-604 655.5,-604 649.5,-604 643.5,-598 643.5,-592 643.5,-592 643.5,-566 643.5,-566 643.5,-560 649.5,-554 655.5,-554 655.5,-554 804.5,-554 804.5,-554 810.5,-554 816.5,-560 816.5,-566 816.5,-566 816.5,-592 816.5,-592 816.5,-598 810.5,-604 804.5,-604"/>
<text text-anchor="middle" x="730" y="-582" font-family="Sans" font-size="10.00">ncm-authconfig: sssd: tighten</text>
<text text-anchor="middle" x="730" y="-571" font-family="Sans" font-size="10.00">types</text>
</a>
</g>
</g>
<!-- configuration&#45;modules&#45;core#1622&#45;&gt;configuration&#45;modules&#45;core#1471 -->
<g id="edge9" class="edge"><title>configuration-modules-core#1622-&gt;configuration-modules-core#1471</title>
<path fill="none" stroke="black" stroke-width="2" d="M507.72,-595.471C546.95,-592.551 593.293,-589.101 633.406,-586.115"/>
<polygon fill="black" stroke="black" points="633.749,-589.6 643.462,-585.367 633.229,-582.619 633.749,-589.6"/>
<text text-anchor="middle" x="563.777" y="-582.405" font-family="Sans" font-size="10.00">fixes</text>
</g>
<!-- configuration&#45;modules&#45;core#1621 -->
<g id="node16" class="node"><title>configuration-modules-core#1621</title>
<g id="a_node16"><a xlink:href="https://github.com/quattor/configuration-modules-core/pull/1621" xlink:title="configuration-modules-core#1621 (pull-request)" target="_parent">
<polygon fill="#6cc644" stroke="black" points="514.5,-559 323.5,-559 323.5,-509 514.5,-509 514.5,-559"/>
<text text-anchor="middle" x="419" y="-537" font-family="Sans" font-size="10.00">ncm-nfs: Allow daemon to reload</text>
<text text-anchor="middle" x="419" y="-526" font-family="Sans" font-size="10.00">to be specified</text>
</a>
</g>
</g>
<!-- configuration&#45;modules&#45;core#1618 -->
<g id="node17" class="node"><title>configuration-modules-core#1618</title>
<g id="a_node17"><a xlink:href="https://github.com/quattor/configuration-modules-core/issues/1618" xlink:title="configuration-modules-core#1618 (issue)" target="_parent">
<path fill="#6cc644" stroke="black" d="M796.5,-536C796.5,-536 663.5,-536 663.5,-536 657.5,-536 651.5,-530 651.5,-524 651.5,-524 651.5,-498 651.5,-498 651.5,-492 657.5,-486 663.5,-486 663.5,-486 796.5,-486 796.5,-486 802.5,-486 808.5,-492 808.5,-498 808.5,-498 808.5,-524 808.5,-524 808.5,-530 802.5,-536 796.5,-536"/>
<text text-anchor="middle" x="730" y="-514" font-family="Sans" font-size="10.00">ncm-nfs: start service nfs-</text>
<text text-anchor="middle" x="730" y="-503" font-family="Sans" font-size="10.00">server instead of nfs</text>
</a>
</g>
</g>
<!-- configuration&#45;modules&#45;core#1621&#45;&gt;configuration&#45;modules&#45;core#1618 -->
<g id="edge10" class="edge"><title>configuration-modules-core#1621-&gt;configuration-modules-core#1618</title>
<path fill="none" stroke="black" stroke-width="2" d="M514.81,-526.943C555.12,-523.942 601.837,-520.465 641.334,-517.525"/>
<polygon fill="black" stroke="black" points="641.763,-521.003 651.476,-516.77 641.243,-514.022 641.763,-521.003"/>
<text text-anchor="middle" x="570.943" y="-513.872" font-family="Sans" font-size="10.00">fixes</text>
</g>
<!-- configuration&#45;modules&#45;core#1620 -->
<g id="node18" class="node"><title>configuration-modules-core#1620</title>
<g id="a_node18"><a xlink:href="https://github.com/quattor/configuration-modules-core/pull/1620" xlink:title="configuration-modules-core#1620 (pull-request)" target="_parent">
<polygon fill="#6e5494" stroke="black" points="518,-423 320,-423 320,-373 518,-373 518,-423"/>
<text text-anchor="middle" x="419" y="-401" font-family="Sans" font-size="10.00">ncm-spma: yumdnf: Don't attempt</text>
<text text-anchor="middle" x="419" y="-390" font-family="Sans" font-size="10.00">to expand groups with repoquery</text>
</a>
</g>
</g>
<!-- configuration&#45;modules&#45;core#1524 -->
<g id="node19" class="node"><title>configuration-modules-core#1524</title>
<g id="a_node19"><a xlink:href="https://github.com/quattor/configuration-modules-core/issues/1524" xlink:title="configuration-modules-core#1524 (issue)" target="_parent">
<path fill="#6e5494" stroke="black" d="M815.5,-429C815.5,-429 644.5,-429 644.5,-429 638.5,-429 632.5,-423 632.5,-417 632.5,-417 632.5,-391 632.5,-391 632.5,-385 638.5,-379 644.5,-379 644.5,-379 815.5,-379 815.5,-379 821.5,-379 827.5,-385 827.5,-391 827.5,-391 827.5,-417 827.5,-417 827.5,-423 821.5,-429 815.5,-429"/>
<text text-anchor="middle" x="730" y="-407" font-family="Sans" font-size="10.00">ncm-spma: yumdnf backend: fails</text>
<text text-anchor="middle" x="730" y="-396" font-family="Sans" font-size="10.00">while trying to expand groups</text>
</a>
</g>
</g>
<!-- configuration&#45;modules&#45;core#1620&#45;&gt;configuration&#45;modules&#45;core#1524 -->
<g id="edge11" class="edge"><title>configuration-modules-core#1620-&gt;configuration-modules-core#1524</title>
<path fill="none" stroke="black" stroke-width="2" d="M518.194,-399.907C551.265,-400.549 588.324,-401.268 622.037,-401.923"/>
<polygon fill="black" stroke="black" points="622.318,-405.429 632.384,-402.124 622.454,-398.43 622.318,-405.429"/>
<text text-anchor="middle" x="563.243" y="-393.014" font-family="Sans" font-size="10.00">fixes</text>
</g>
<!-- configuration&#45;modules&#45;core#1554 -->
<g id="node20" class="node"><title>configuration-modules-core#1554</title>
<g id="a_node20"><a xlink:href="https://github.com/quattor/configuration-modules-core/pull/1554" xlink:title="configuration-modules-core#1554 (pull-request)" target="_parent">
<polygon fill="#6cc644" stroke="black" points="504,-355 334,-355 334,-305 504,-305 504,-355"/>
<text text-anchor="middle" x="419" y="-333" font-family="Sans" font-size="10.00">avoid removing empty list of</text>
<text text-anchor="middle" x="419" y="-322" font-family="Sans" font-size="10.00">packages</text>
</a>
</g>
</g>
<!-- configuration&#45;modules&#45;core#1553 -->
<g id="node21" class="node"><title>configuration-modules-core#1553</title>
<g id="a_node21"><a xlink:href="https://github.com/quattor/configuration-modules-core/issues/1553" xlink:title="configuration-modules-core#1553 (issue)" target="_parent">
<path fill="#6cc644" stroke="black" d="M810.5,-360.5C810.5,-360.5 649.5,-360.5 649.5,-360.5 643.5,-360.5 637.5,-354.5 637.5,-348.5 637.5,-348.5 637.5,-311.5 637.5,-311.5 637.5,-305.5 643.5,-299.5 649.5,-299.5 649.5,-299.5 810.5,-299.5 810.5,-299.5 816.5,-299.5 822.5,-305.5 822.5,-311.5 822.5,-311.5 822.5,-348.5 822.5,-348.5 822.5,-354.5 816.5,-360.5 810.5,-360.5"/>
<text text-anchor="middle" x="730" y="-338.5" font-family="Sans" font-size="10.00">ncm-spma: update_pkgs in yum</text>
<text text-anchor="middle" x="730" y="-327.5" font-family="Sans" font-size="10.00">plugin tries to remove empty</text>
<text text-anchor="middle" x="730" y="-316.5" font-family="Sans" font-size="10.00">list of packages</text>
</a>
</g>
</g>
<!-- configuration&#45;modules&#45;core#1554&#45;&gt;configuration&#45;modules&#45;core#1553 -->
<g id="edge12" class="edge"><title>configuration-modules-core#1554-&gt;configuration-modules-core#1553</title>
<path fill="none" stroke="black" stroke-width="2" d="M504.027,-330C542.085,-330 587.403,-330 627.358,-330"/>
<polygon fill="black" stroke="black" points="627.393,-333.5 637.393,-330 627.393,-326.5 627.393,-333.5"/>
<text text-anchor="middle" x="558.42" y="-322" font-family="Sans" font-size="10.00">fixes</text>
</g>
<!-- configuration&#45;modules&#45;core#1452 -->
<g id="node22" class="node"><title>configuration-modules-core#1452</title>
<g id="a_node22"><a xlink:href="https://github.com/quattor/configuration-modules-core/pull/1452" xlink:title="configuration-modules-core#1452 (pull-request)" target="_parent">
<polygon fill="#6cc644" stroke="black" points="505.5,-219 332.5,-219 332.5,-169 505.5,-169 505.5,-219"/>
<text text-anchor="middle" x="419" y="-197" font-family="Sans" font-size="10.00">ncm-metaconfig: ssh daemon</text>
<text text-anchor="middle" x="419" y="-186" font-family="Sans" font-size="10.00">configuration support</text>
</a>
</g>
</g>
<!-- configuration&#45;modules&#45;core#1377 -->
<g id="node23" class="node"><title>configuration-modules-core#1377</title>
<polygon fill="lightgrey" stroke="black" points="827.5,-95.5 632.5,-95.5 632.5,-56.5 827.5,-56.5 827.5,-95.5"/>
<text text-anchor="middle" x="730" y="-73.5" font-family="Sans" font-size="10.00">configuration-modules-core#1377</text>
</g>
<!-- configuration&#45;modules&#45;core#1452&#45;&gt;configuration&#45;modules&#45;core#1377 -->
<g id="edge13" class="edge"><title>configuration-modules-core#1452-&gt;configuration-modules-core#1377</title>
<path fill="none" stroke="black" stroke-dasharray="1,5" d="M474.192,-168.856C516.608,-149.699 577.365,-123.403 632,-104 637.449,-102.065 643.105,-100.163 648.824,-98.3189"/>
<polygon fill="black" stroke="black" points="658.482,-95.2732 650.298,-102.573 653.713,-96.777 648.945,-98.2808 648.945,-98.2808 648.945,-98.2808 653.713,-96.777 647.591,-93.9892 658.482,-95.2732 658.482,-95.2732"/>
<text text-anchor="middle" x="544.326" y="-121.588" font-family="Sans" font-size="10.00">replaces</text>
</g>
<!-- configuration&#45;modules&#45;core#1451 -->
<g id="node24" class="node"><title>configuration-modules-core#1451</title>
<polygon fill="lightgrey" stroke="black" points="827.5,-38.5 632.5,-38.5 632.5,0.5 827.5,0.5 827.5,-38.5"/>
<text text-anchor="middle" x="730" y="-16.5" font-family="Sans" font-size="10.00">configuration-modules-core#1451</text>
</g>
<!-- configuration&#45;modules&#45;core#1452&#45;&gt;configuration&#45;modules&#45;core#1451 -->
<g id="edge14" class="edge"><title>configuration-modules-core#1452-&gt;configuration-modules-core#1451</title>
<path fill="none" stroke="black" stroke-dasharray="5,2" d="M449.316,-168.99C488.552,-136.661 561.411,-80.5472 632,-47 635.785,-45.2014 639.708,-43.4945 643.712,-41.8779"/>
<polygon fill="none" stroke="black" points="645.076,-45.1037 653.172,-38.2691 642.581,-38.5635 645.076,-45.1037"/>
<text text-anchor="middle" x="526.474" y="-88.4697" font-family="Sans" font-size="10.00">requires</text>
</g>
<!-- configuration&#45;modules&#45;core#1507 -->
<g id="node25" class="node"><title>configuration-modules-core#1507</title>
<g id="a_node25"><a xlink:href="https://github.com/quattor/configuration-modules-core/pull/1507" xlink:title="configuration-modules-core#1507 (pull-request)" target="_parent">
<polygon fill="#6cc644" stroke="black" points="191,-1049 15,-1049 15,-999 191,-999 191,-1049"/>
<text text-anchor="middle" x="103" y="-1027" font-family="Sans" font-size="10.00">[WIP] ncm-spma: yumdnf: use</text>
<text text-anchor="middle" x="103" y="-1016" font-family="Sans" font-size="10.00">spmaleaves dnf plugin</text>
</a>
</g>
</g>
<!-- configuration&#45;modules&#45;core#1401 -->
<g id="node26" class="node"><title>configuration-modules-core#1401</title>
<polygon fill="lightgrey" stroke="black" points="516.5,-1043.5 321.5,-1043.5 321.5,-1004.5 516.5,-1004.5 516.5,-1043.5"/>
<text text-anchor="middle" x="419" y="-1021.5" font-family="Sans" font-size="10.00">configuration-modules-core#1401</text>
</g>
<!-- configuration&#45;modules&#45;core#1507&#45;&gt;configuration&#45;modules&#45;core#1401 -->
<g id="edge15" class="edge"><title>configuration-modules-core#1507-&gt;configuration-modules-core#1401</title>
<path fill="none" stroke="black" stroke-dasharray="5,2" d="M191.05,-1024C228.203,-1024 271.927,-1024 311.027,-1024"/>
<polygon fill="none" stroke="black" points="311.391,-1027.5 321.391,-1024 311.391,-1020.5 311.391,-1027.5"/>
<text text-anchor="middle" x="236.549" y="-1016" font-family="Sans" font-size="10.00">requires</text>
</g>
<!-- configuration&#45;modules&#45;core#1336 -->
<g id="node27" class="node"><title>configuration-modules-core#1336</title>
<g id="a_node27"><a xlink:href="https://github.com/quattor/configuration-modules-core/pull/1336" xlink:title="configuration-modules-core#1336 (pull-request)" target="_parent">
<polygon fill="#6cc644" stroke="black" points="190,-1160.5 16,-1160.5 16,-1099.5 190,-1099.5 190,-1160.5"/>
<text text-anchor="middle" x="103" y="-1138.5" font-family="Sans" font-size="10.00">ncm-network: Add support for</text>
<text text-anchor="middle" x="103" y="-1127.5" font-family="Sans" font-size="10.00">CAF::Service actions after</text>
<text text-anchor="middle" x="103" y="-1116.5" font-family="Sans" font-size="10.00">changes</text>
</a>
</g>
</g>
<!-- configuration&#45;modules&#45;core#1335 -->
<g id="node28" class="node"><title>configuration-modules-core#1335</title>
<g id="a_node28"><a xlink:href="https://github.com/quattor/configuration-modules-core/pull/1335" xlink:title="configuration-modules-core#1335 (pull-request)" target="_parent">
<polygon fill="#6cc644" stroke="black" points="512,-1191.5 326,-1191.5 326,-1130.5 512,-1130.5 512,-1191.5"/>
<text text-anchor="middle" x="419" y="-1169.5" font-family="Sans" font-size="10.00">ncm-metaconfig: Remove</text>
<text text-anchor="middle" x="419" y="-1158.5" font-family="Sans" font-size="10.00">caf_service_action type to allow</text>
<text text-anchor="middle" x="419" y="-1147.5" font-family="Sans" font-size="10.00">reuse</text>
</a>
</g>
</g>
<!-- configuration&#45;modules&#45;core#1336&#45;&gt;configuration&#45;modules&#45;core#1335 -->
<g id="edge16" class="edge"><title>configuration-modules-core#1336-&gt;configuration-modules-core#1335</title>
<path fill="none" stroke="black" stroke-dasharray="5,2" d="M190.217,-1138.51C229.047,-1142.35 275.184,-1146.9 315.746,-1150.9"/>
<polygon fill="none" stroke="black" points="315.636,-1154.41 325.931,-1151.91 316.323,-1147.44 315.636,-1154.41"/>
<text text-anchor="middle" x="237.868" y="-1137.19" font-family="Sans" font-size="10.00">requires</text>
</g>
<!-- configuration&#45;modules&#45;core#1071 -->
<g id="node29" class="node"><title>configuration-modules-core#1071</title>
<g id="a_node29"><a xlink:href="https://github.com/quattor/configuration-modules-core/issues/1071" xlink:title="configuration-modules-core#1071 (issue)" target="_parent">
<path fill="#6cc644" stroke="black" d="M505.5,-1112C505.5,-1112 332.5,-1112 332.5,-1112 326.5,-1112 320.5,-1106 320.5,-1100 320.5,-1100 320.5,-1074 320.5,-1074 320.5,-1068 326.5,-1062 332.5,-1062 332.5,-1062 505.5,-1062 505.5,-1062 511.5,-1062 517.5,-1068 517.5,-1074 517.5,-1074 517.5,-1100 517.5,-1100 517.5,-1106 511.5,-1112 505.5,-1112"/>
<text text-anchor="middle" x="419" y="-1090" font-family="Sans" font-size="10.00">ncm-network: support daemons to</text>
<text text-anchor="middle" x="419" y="-1079" font-family="Sans" font-size="10.00">restart after network changes</text>
</a>
</g>
</g>
<!-- configuration&#45;modules&#45;core#1336&#45;&gt;configuration&#45;modules&#45;core#1071 -->
<g id="edge17" class="edge"><title>configuration-modules-core#1336-&gt;configuration-modules-core#1071</title>
<path fill="none" stroke="black" stroke-width="2" d="M190.217,-1118.19C227.216,-1113.13 270.848,-1107.15 309.972,-1101.79"/>
<polygon fill="black" stroke="black" points="310.912,-1105.2 320.344,-1100.37 309.962,-1098.26 310.912,-1105.2"/>
<text text-anchor="middle" x="243.527" y="-1101.25" font-family="Sans" font-size="10.00">fixes</text>
</g>
<!-- template&#45;library&#45;core#191 -->
<g id="node30" class="node"><title>template-library-core#191</title>
<polygon fill="lightgrey" stroke="black" points="809.5,-1180.5 650.5,-1180.5 650.5,-1141.5 809.5,-1141.5 809.5,-1180.5"/>
<text text-anchor="middle" x="730" y="-1158.5" font-family="Sans" font-size="10.00">template-library-core#191</text>
</g>
<!-- configuration&#45;modules&#45;core#1335&#45;&gt;template&#45;library&#45;core#191 -->
<g id="edge18" class="edge"><title>configuration-modules-core#1335-&gt;template-library-core#191</title>
<path fill="none" stroke="black" stroke-dasharray="5,2" d="M512.292,-1161C552.867,-1161 600.315,-1161 640.452,-1161"/>
<polygon fill="none" stroke="black" points="640.491,-1164.5 650.491,-1161 640.49,-1157.5 640.491,-1164.5"/>
<text text-anchor="middle" x="561.165" y="-1153" font-family="Sans" font-size="10.00">requires</text>
</g>
<!-- configuration&#45;modules&#45;core#1148 -->
<g id="node31" class="node"><title>configuration-modules-core#1148</title>
<g id="a_node31"><a xlink:href="https://github.com/quattor/configuration-modules-core/pull/1148" xlink:title="configuration-modules-core#1148 (pull-request)" target="_parent">
<polygon fill="#6cc644" stroke="black" points="202.5,-1328 3.5,-1328 3.5,-1278 202.5,-1278 202.5,-1328"/>
<text text-anchor="middle" x="103" y="-1306" font-family="Sans" font-size="10.00">ncm-spma: Remove support from</text>
<text text-anchor="middle" x="103" y="-1295" font-family="Sans" font-size="10.00">groups from spma yumng backend</text>
</a>
</g>
</g>
<!-- configuration&#45;modules&#45;core#952 -->
<g id="node32" class="node"><title>configuration-modules-core#952</title>
<g id="a_node32"><a xlink:href="https://github.com/quattor/configuration-modules-core/issues/952" xlink:title="configuration-modules-core#952 (issue)" target="_parent">
<path fill="#6cc644" stroke="black" d="M512,-1328C512,-1328 326,-1328 326,-1328 320,-1328 314,-1322 314,-1316 314,-1316 314,-1290 314,-1290 314,-1284 320,-1278 326,-1278 326,-1278 512,-1278 512,-1278 518,-1278 524,-1284 524,-1290 524,-1290 524,-1316 524,-1316 524,-1322 518,-1328 512,-1328"/>
<text text-anchor="middle" x="419" y="-1306" font-family="Sans" font-size="10.00">ncm-spma (yumng): Remove support</text>
<text text-anchor="middle" x="419" y="-1295" font-family="Sans" font-size="10.00">for package groups</text>
</a>
</g>
</g>
<!-- configuration&#45;modules&#45;core#1148&#45;&gt;configuration&#45;modules&#45;core#952 -->
<g id="edge19" class="edge"><title>configuration-modules-core#1148-&gt;configuration-modules-core#952</title>
<path fill="none" stroke="black" stroke-width="2" d="M202.921,-1303C234.933,-1303 270.695,-1303 303.726,-1303"/>
<polygon fill="black" stroke="black" points="303.883,-1306.5 313.883,-1303 303.882,-1299.5 303.883,-1306.5"/>
<text text-anchor="middle" x="246.546" y="-1295" font-family="Sans" font-size="10.00">fixes</text>
</g>
<!-- configuration&#45;modules&#45;core#950 -->
<g id="node33" class="node"><title>configuration-modules-core#950</title>
<g id="a_node33"><a xlink:href="https://github.com/quattor/configuration-modules-core/issues/950" xlink:title="configuration-modules-core#950 (issue)" target="_parent">
<path fill="#6cc644" stroke="black" d="M194,-1260C194,-1260 12,-1260 12,-1260 6,-1260 0,-1254 0,-1248 0,-1248 0,-1222 0,-1222 0,-1216 6,-1210 12,-1210 12,-1210 194,-1210 194,-1210 200,-1210 206,-1216 206,-1222 206,-1222 206,-1248 206,-1248 206,-1254 200,-1260 194,-1260"/>
<text text-anchor="middle" x="103" y="-1238" font-family="Sans" font-size="10.00">ncm-spma: Remove support for</text>
<text text-anchor="middle" x="103" y="-1227" font-family="Sans" font-size="10.00">package groups from yum backends</text>
</a>
</g>
</g>
<!-- configuration&#45;modules&#45;core#951 -->
<g id="node34" class="node"><title>configuration-modules-core#951</title>
<g id="a_node34"><a xlink:href="https://github.com/quattor/configuration-modules-core/issues/951" xlink:title="configuration-modules-core#951 (issue)" target="_parent">
<path fill="#6cc644" stroke="black" d="M506,-1260C506,-1260 332,-1260 332,-1260 326,-1260 320,-1254 320,-1248 320,-1248 320,-1222 320,-1222 320,-1216 326,-1210 332,-1210 332,-1210 506,-1210 506,-1210 512,-1210 518,-1216 518,-1222 518,-1222 518,-1248 518,-1248 518,-1254 512,-1260 506,-1260"/>
<text text-anchor="middle" x="419" y="-1238" font-family="Sans" font-size="10.00">ncm-spma (yum): Remove support</text>
<text text-anchor="middle" x="419" y="-1227" font-family="Sans" font-size="10.00">for package groups</text>
</a>
</g>
</g>
<!-- configuration&#45;modules&#45;core#950&#45;&gt;configuration&#45;modules&#45;core#951 -->
<g id="edge20" class="edge"><title>configuration-modules-core#950-&gt;configuration-modules-core#951</title>
<path fill="none" stroke="black" stroke-dasharray="5,2" d="M206.381,-1235C239.386,-1235 276.071,-1235 309.502,-1235"/>
<polygon fill="none" stroke="black" points="309.765,-1238.5 319.765,-1235 309.765,-1231.5 309.765,-1238.5"/>
<text text-anchor="middle" x="243.107" y="-1227" font-family="Sans" font-size="10.00">requires</text>
</g>
<!-- configuration&#45;modules&#45;core#950&#45;&gt;configuration&#45;modules&#45;core#952 -->
<g id="edge21" class="edge"><title>configuration-modules-core#950-&gt;configuration-modules-core#952</title>
<path fill="none" stroke="black" stroke-dasharray="5,2" d="M206.381,-1257.17C237.602,-1263.93 272.116,-1271.41 304.053,-1278.32"/>
<polygon fill="none" stroke="black" points="303.361,-1281.75 313.876,-1280.45 304.843,-1274.91 303.361,-1281.75"/>
<text text-anchor="middle" x="240.372" y="-1260.86" font-family="Sans" font-size="10.00">requires</text>
</g>
<!-- quattor.github.com#278 -->
<g id="node35" class="node"><title>quattor.github.com#278</title>
<g id="a_node35"><a xlink:href="https://github.com/quattor/quattor.github.com/pull/278" xlink:title="quattor.github.com#278 (pull-request)" target="_parent">
<polygon fill="#6cc644" stroke="black" points="177,-1385.5 29,-1385.5 29,-1346.5 177,-1346.5 177,-1385.5"/>
<text text-anchor="middle" x="103" y="-1363.5" font-family="Sans" font-size="10.00">Update Perl coding style</text>
</a>
</g>
</g>
<!-- quattor.github.com#215 -->
<g id="node36" class="node"><title>quattor.github.com#215</title>
<g id="a_node36"><a xlink:href="https://github.com/quattor/quattor.github.com/issues/215" xlink:title="quattor.github.com#215 (issue)" target="_parent">
<path fill="#6cc644" stroke="black" d="M480,-1385.5C480,-1385.5 358,-1385.5 358,-1385.5 352,-1385.5 346,-1379.5 346,-1373.5 346,-1373.5 346,-1358.5 346,-1358.5 346,-1352.5 352,-1346.5 358,-1346.5 358,-1346.5 480,-1346.5 480,-1346.5 486,-1346.5 492,-1352.5 492,-1358.5 492,-1358.5 492,-1373.5 492,-1373.5 492,-1379.5 486,-1385.5 480,-1385.5"/>
<text text-anchor="middle" x="419" y="-1363.5" font-family="Sans" font-size="10.00">Update coding style doc</text>
</a>
</g>
</g>
<!-- quattor.github.com#278&#45;&gt;quattor.github.com#215 -->
<g id="edge22" class="edge"><title>quattor.github.com#278-&gt;quattor.github.com#215</title>
<path fill="none" stroke="black" stroke-width="2" d="M177.223,-1366C224.595,-1366 286.358,-1366 335.469,-1366"/>
<polygon fill="black" stroke="black" points="335.747,-1369.5 345.747,-1366 335.746,-1362.5 335.747,-1369.5"/>
<text text-anchor="middle" x="249.497" y="-1358" font-family="Sans" font-size="10.00">fixes</text>
</g>
<!-- template&#45;library&#45;grid#232 -->
<g id="node37" class="node"><title>template-library-grid#232</title>
<g id="a_node37"><a xlink:href="https://github.com/quattor/template-library-grid/pull/232" xlink:title="template-library-grid#232 (pull-request)" target="_parent">
<polygon fill="#6cc644" stroke="black" points="186.5,-1454 19.5,-1454 19.5,-1404 186.5,-1404 186.5,-1454"/>
<text text-anchor="middle" x="103" y="-1432" font-family="Sans" font-size="10.00">arc-ce: Export arc-ce feature</text>
<text text-anchor="middle" x="103" y="-1421" font-family="Sans" font-size="10.00">from aquilon at RAL</text>
</a>
</g>
</g>
<!-- template&#45;library&#45;grid#221 -->
<g id="node38" class="node"><title>template-library-grid#221</title>
<g id="a_node38"><a xlink:href="https://github.com/quattor/template-library-grid/issues/221" xlink:title="template-library-grid#221 (issue)" target="_parent">
<path fill="#6cc644" stroke="black" d="M496,-1454C496,-1454 342,-1454 342,-1454 336,-1454 330,-1448 330,-1442 330,-1442 330,-1416 330,-1416 330,-1410 336,-1404 342,-1404 342,-1404 496,-1404 496,-1404 502,-1404 508,-1410 508,-1416 508,-1416 508,-1442 508,-1442 508,-1448 502,-1454 496,-1454"/>
<text text-anchor="middle" x="419" y="-1432" font-family="Sans" font-size="10.00">Support for new CE types (ARC</text>
<text text-anchor="middle" x="419" y="-1421" font-family="Sans" font-size="10.00">CE, HTCONDOR CE)</text>
</a>
</g>
</g>
<!-- template&#45;library&#45;grid#232&#45;&gt;template&#45;library&#45;grid#221 -->
<g id="edge23" class="edge"><title>template-library-grid#232-&gt;template-library-grid#221</title>
<path fill="none" stroke="black" stroke-width="2" d="M186.911,-1429C227.702,-1429 277.151,-1429 319.823,-1429"/>
<polygon fill="black" stroke="black" points="319.947,-1432.5 329.947,-1429 319.947,-1425.5 319.947,-1432.5"/>
<text text-anchor="middle" x="246.543" y="-1421" font-family="Sans" font-size="10.00">fixes</text>
</g>
<!-- template&#45;library&#45;standard#154 -->
<g id="node39" class="node"><title>template-library-standard#154</title>
<g id="a_node39"><a xlink:href="https://github.com/quattor/template-library-standard/pull/154" xlink:title="template-library-standard#154 (pull-request)" target="_parent">
<polygon fill="#6cc644" stroke="black" points="500.5,-287 337.5,-287 337.5,-237 500.5,-237 500.5,-287"/>
<text text-anchor="middle" x="419" y="-265" font-family="Sans" font-size="10.00">Tell NetworkManager not to</text>
<text text-anchor="middle" x="419" y="-254" font-family="Sans" font-size="10.00">manage resolv.conf</text>
</a>
</g>
</g>
<!-- template&#45;library&#45;standard#153 -->
<g id="node40" class="node"><title>template-library-standard#153</title>
<g id="a_node40"><a xlink:href="https://github.com/quattor/template-library-standard/issues/153" xlink:title="template-library-standard#153 (issue)" target="_parent">
<path fill="#6cc644" stroke="black" d="M804,-281C804,-281 656,-281 656,-281 650,-281 644,-275 644,-269 644,-269 644,-243 644,-243 644,-237 650,-231 656,-231 656,-231 804,-231 804,-231 810,-231 816,-237 816,-243 816,-243 816,-269 816,-269 816,-275 810,-281 804,-281"/>
<text text-anchor="middle" x="730" y="-259" font-family="Sans" font-size="10.00">EL8: NetworkManager rebuild</text>
<text text-anchor="middle" x="730" y="-248" font-family="Sans" font-size="10.00">resolv.conf at each reboot</text>
</a>
</g>
</g>
<!-- template&#45;library&#45;standard#154&#45;&gt;template&#45;library&#45;standard#153 -->
<g id="edge24" class="edge"><title>template-library-standard#154-&gt;template-library-standard#153</title>
<path fill="none" stroke="black" stroke-width="2" d="M500.782,-260.431C541.507,-259.641 591.156,-258.677 633.733,-257.85"/>
<polygon fill="black" stroke="black" points="633.898,-261.347 643.828,-257.654 633.762,-254.349 633.898,-261.347"/>
<text text-anchor="middle" x="560.451" y="-251.04" font-family="Sans" font-size="10.00">fixes</text>
</g>
</g>
</svg>
