<?xml version="1.0" encoding="UTF-8" standalone="no"?>
<?xml-stylesheet href="relationships.css" type="text/css"?>
<!-- Generated by graphviz version 2.40.1 (0)
 -->
<!-- Title: Dependencies Pages: 1 -->
<svg xmlns="http://www.w3.org/2000/svg" xmlns:xlink="http://www.w3.org/1999/xlink" width="1070pt" height="1793pt" viewBox="0.00 0.00 1070.00 1792.50">
<g id="graph0" class="graph" transform="scale(1 1) rotate(0) translate(4 1788.5)">
<title>Dependencies</title>
<polygon fill="#ffffff" stroke="transparent" points="-4,4 -4,-1788.5 1066,-1788.5 1066,4 -4,4"/>
<g id="clust1" class="cluster">
<title>cluster_milestone_25.next</title>
<polygon fill="none" stroke="#000000" points="292,-332.5 292,-1452.5 1054,-1452.5 1054,-332.5 292,-332.5"/>
<text text-anchor="middle" x="673" y="-1438.9" font-family="Sans" font-size="12.00" fill="#000000">25.next</text>
</g>
<!-- aii#328 -->
<g id="node1" class="node">
<title>aii#328</title>
<g id="a_node1"><a xlink:href="https://github.com/quattor/aii/pull/328" xlink:title="aii#328 (pull-request)" target="_parent">
<polygon fill="#6cc644" stroke="#000000" points="473,-662.5 308,-662.5 308,-612.5 473,-612.5 473,-662.5"/>
<text text-anchor="middle" x="390.5" y="-640.5" font-family="Sans" font-size="10.00" fill="#000000">aii-ks: generate ks post section</text>
<text text-anchor="middle" x="390.5" y="-629.5" font-family="Sans" font-size="10.00" fill="#000000">as standalone script</text>
</a>
</g>
</g>
<!-- aii#280 -->
<g id="node2" class="node">
<title>aii#280</title>
<polygon fill="#d3d3d3" stroke="#000000" points="710.5,-324 651.5,-324 651.5,-285 710.5,-285 710.5,-324"/>
<text text-anchor="middle" x="681" y="-302" font-family="Sans" font-size="10.00" fill="#000000">aii#280</text>
</g>
<!-- aii#328&#45;&gt;aii#280 -->
<g id="edge1" class="edge">
<title>aii#328-&gt;aii#280</title>
<path fill="none" stroke="#000000" stroke-dasharray="5,2" d="M473.0551,-613.6701C477.71,-610.6699 482.0806,-607.2952 486,-603.5 580.3325,-512.1564 496.4031,-416.3471 594,-328.5 606.923,-316.868 624.9896,-310.8107 641.3123,-307.6809"/>
<polygon fill="none" stroke="#000000" points="641.8742,-311.1356 651.1887,-306.0867 640.7587,-304.225 641.8742,-311.1356"/>
<text text-anchor="middle" x="521.6695" y="-450.7164" font-family="Sans" font-size="10.00" fill="#000000">requires</text>
</g>
<!-- aii#316 -->
<g id="node3" class="node">
<title>aii#316</title>
<polygon fill="#d3d3d3" stroke="#000000" points="710.5,-267 651.5,-267 651.5,-228 710.5,-228 710.5,-267"/>
<text text-anchor="middle" x="681" y="-245" font-family="Sans" font-size="10.00" fill="#000000">aii#316</text>
</g>
<!-- aii#328&#45;&gt;aii#316 -->
<g id="edge2" class="edge">
<title>aii#328-&gt;aii#316</title>
<path fill="none" stroke="#000000" stroke-dasharray="5,2" d="M473.3054,-613.9215C477.9,-610.8606 482.1886,-607.4037 486,-603.5 593.2177,-493.6842 485.1116,-383.6595 594,-275.5 606.5854,-262.9989 624.7705,-256.0764 641.2644,-252.2443"/>
<polygon fill="none" stroke="#000000" points="642.137,-255.6389 651.2503,-250.2354 640.7564,-248.7764 642.137,-255.6389"/>
<text text-anchor="middle" x="521.8772" y="-423.822" font-family="Sans" font-size="10.00" fill="#000000">requires</text>
</g>
<!-- aii#299 -->
<g id="node4" class="node">
<title>aii#299</title>
<g id="a_node4"><a xlink:href="https://github.com/quattor/aii/pull/299" xlink:title="aii#299 (pull-request)" target="_parent">
<polygon fill="#6cc644" stroke="#000000" points="459,-730.5 322,-730.5 322,-680.5 459,-680.5 459,-730.5"/>
<text text-anchor="middle" x="390.5" y="-708.5" font-family="Sans" font-size="10.00" fill="#000000">aii-dhcp: support optional</text>
<text text-anchor="middle" x="390.5" y="-697.5" font-family="Sans" font-size="10.00" fill="#000000">hostname ip verification</text>
</a>
</g>
</g>
<!-- aii#299&#45;&gt;aii#280 -->
<g id="edge3" class="edge">
<title>aii#299-&gt;aii#280</title>
<path fill="none" stroke="#000000" stroke-dasharray="5,2" d="M459.3502,-689.827C469.2288,-685.207 478.5505,-679.2303 486,-671.5 596.9025,-556.4177 478.9795,-439.4666 594,-328.5 606.6064,-316.338 624.7942,-310.2213 641.2843,-307.1894"/>
<polygon fill="none" stroke="#000000" points="641.906,-310.6352 651.2673,-305.6737 640.8552,-303.7145 641.906,-310.6352"/>
<text text-anchor="middle" x="520.9412" y="-489.7829" font-family="Sans" font-size="10.00" fill="#000000">requires</text>
</g>
<!-- aii#331 -->
<g id="node5" class="node">
<title>aii#331</title>
<g id="a_node5"><a xlink:href="https://github.com/quattor/aii/pull/331" xlink:title="aii#331 (pull-request)" target="_parent">
<polygon fill="#6cc644" stroke="#000000" points="157.5,-668 29.5,-668 29.5,-607 157.5,-607 157.5,-668"/>
<text text-anchor="middle" x="93.5" y="-646" font-family="Sans" font-size="10.00" fill="#000000">let aii generate ansible</text>
<text text-anchor="middle" x="93.5" y="-635" font-family="Sans" font-size="10.00" fill="#000000">playbook for supported</text>
<text text-anchor="middle" x="93.5" y="-624" font-family="Sans" font-size="10.00" fill="#000000">components</text>
</a>
</g>
</g>
<!-- aii#331&#45;&gt;aii#328 -->
<g id="edge4" class="edge">
<title>aii#331-&gt;aii#328</title>
<path fill="none" stroke="#000000" stroke-dasharray="5,2" d="M157.5789,-637.5C198.4814,-637.5 252.1793,-637.5 297.7071,-637.5"/>
<polygon fill="none" stroke="#000000" points="297.8877,-641.0001 307.8876,-637.5 297.8876,-634.0001 297.8877,-641.0001"/>
<text text-anchor="middle" x="215.2358" y="-629.5" font-family="Sans" font-size="10.00" fill="#000000">requires</text>
</g>
<!-- CAF#257 -->
<g id="node6" class="node">
<title>CAF#257</title>
<g id="a_node6"><a xlink:href="https://github.com/quattor/CAF/pull/257" xlink:title="CAF#257 (pull-request)" target="_parent">
<polygon fill="#6cc644" stroke="#000000" points="475.5,-1423.5 305.5,-1423.5 305.5,-1373.5 475.5,-1373.5 475.5,-1423.5"/>
<text text-anchor="middle" x="390.5" y="-1401.5" font-family="Sans" font-size="10.00" fill="#000000">Process: run process as another</text>
<text text-anchor="middle" x="390.5" y="-1390.5" font-family="Sans" font-size="10.00" fill="#000000">user</text>
</a>
</g>
</g>
<!-- CAF#253 -->
<g id="node7" class="node">
<title>CAF#253</title>
<g id="a_node7"><a xlink:href="https://github.com/quattor/CAF/issues/253" xlink:title="CAF#253 (issue)" target="_parent">
<path fill="#6cc644" stroke="#000000" d="M754.5,-1423C754.5,-1423 607.5,-1423 607.5,-1423 601.5,-1423 595.5,-1417 595.5,-1411 595.5,-1411 595.5,-1374 595.5,-1374 595.5,-1368 601.5,-1362 607.5,-1362 607.5,-1362 754.5,-1362 754.5,-1362 760.5,-1362 766.5,-1368 766.5,-1374 766.5,-1374 766.5,-1411 766.5,-1411 766.5,-1417 760.5,-1423 754.5,-1423"/>
<text text-anchor="middle" x="681" y="-1401" font-family="Sans" font-size="10.00" fill="#000000">CAF::Process: Include an option</text>
<text text-anchor="middle" x="681" y="-1390" font-family="Sans" font-size="10.00" fill="#000000">to execute the command as an</text>
<text text-anchor="middle" x="681" y="-1379" font-family="Sans" font-size="10.00" fill="#000000">specific user</text>
</a>
</g>
</g>
<!-- CAF#257&#45;&gt;CAF#253 -->
<g id="edge5" class="edge">
<title>CAF#257-&gt;CAF#253</title>
<path fill="none" stroke="#000000" stroke-width="2" d="M475.6967,-1396.7403C509.9815,-1396.0322 549.6842,-1395.2122 584.9861,-1394.4831"/>
<polygon fill="#000000" stroke="#000000" stroke-width="2" points="585.3766,-1397.9759 595.3022,-1394.27 585.232,-1390.9773 585.3766,-1397.9759"/>
<text text-anchor="middle" x="524.6372" y="-1387.5023" font-family="Sans" font-size="10.00" fill="#000000">fixes</text>
</g>
<!-- CAF#110 -->
<g id="node8" class="node">
<title>CAF#110</title>
<g id="a_node8"><a xlink:href="https://github.com/quattor/CAF/pull/110" xlink:title="CAF#110 (pull-request)" target="_parent">
<polygon fill="#6cc644" stroke="#000000" points="463.5,-594.5 317.5,-594.5 317.5,-544.5 463.5,-544.5 463.5,-594.5"/>
<text text-anchor="middle" x="390.5" y="-572.5" font-family="Sans" font-size="10.00" fill="#000000">CAF::Download class: API</text>
<text text-anchor="middle" x="390.5" y="-561.5" font-family="Sans" font-size="10.00" fill="#000000">proposal</text>
</a>
</g>
</g>
<!-- CAF#120 -->
<g id="node9" class="node">
<title>CAF#120</title>
<polygon fill="#d3d3d3" stroke="#000000" points="716,-210 646,-210 646,-171 716,-171 716,-210"/>
<text text-anchor="middle" x="681" y="-188" font-family="Sans" font-size="10.00" fill="#000000">CAF#120</text>
</g>
<!-- CAF#110&#45;&gt;CAF#120 -->
<g id="edge6" class="edge">
<title>CAF#110-&gt;CAF#120</title>
<path fill="none" stroke="#000000" stroke-dasharray="5,2" d="M463.5366,-551.5503C471.817,-547.2865 479.5732,-542.0152 486,-535.5 590.5249,-429.5366 487.8632,-322.8487 594,-218.5 605.2157,-207.4733 620.7896,-200.7878 635.6652,-196.7348"/>
<polygon fill="none" stroke="#000000" points="636.8702,-200.046 645.7899,-194.3286 635.2516,-193.2357 636.8702,-200.046"/>
<text text-anchor="middle" x="521.9434" y="-364.671" font-family="Sans" font-size="10.00" fill="#000000">requires</text>
</g>
<!-- CCM#216 -->
<g id="node10" class="node">
<title>CCM#216</title>
<g id="a_node10"><a xlink:href="https://github.com/quattor/CCM/pull/216" xlink:title="CCM#216 (pull-request)" target="_parent">
<polygon fill="#6e5494" stroke="#000000" points="468,-1355.5 313,-1355.5 313,-1305.5 468,-1305.5 468,-1355.5"/>
<text text-anchor="middle" x="390.5" y="-1333.5" font-family="Sans" font-size="10.00" fill="#000000">ProfileCache: Include type in</text>
<text text-anchor="middle" x="390.5" y="-1322.5" font-family="Sans" font-size="10.00" fill="#000000">checksum calculation</text>
</a>
</g>
</g>
<!-- CCM#213 -->
<g id="node11" class="node">
<title>CCM#213</title>
<g id="a_node11"><a xlink:href="https://github.com/quattor/CCM/issues/213" xlink:title="CCM#213 (issue)" target="_parent">
<path fill="#6e5494" stroke="#000000" d="M740.5,-1343.5C740.5,-1343.5 621.5,-1343.5 621.5,-1343.5 615.5,-1343.5 609.5,-1337.5 609.5,-1331.5 609.5,-1331.5 609.5,-1305.5 609.5,-1305.5 609.5,-1299.5 615.5,-1293.5 621.5,-1293.5 621.5,-1293.5 740.5,-1293.5 740.5,-1293.5 746.5,-1293.5 752.5,-1299.5 752.5,-1305.5 752.5,-1305.5 752.5,-1331.5 752.5,-1331.5 752.5,-1337.5 746.5,-1343.5 740.5,-1343.5"/>
<text text-anchor="middle" x="681" y="-1321.5" font-family="Sans" font-size="10.00" fill="#000000">Include type information in</text>
<text text-anchor="middle" x="681" y="-1310.5" font-family="Sans" font-size="10.00" fill="#000000">checksum computation</text>
</a>
</g>
</g>
<!-- CCM#216&#45;&gt;CCM#213 -->
<g id="edge7" class="edge">
<title>CCM#216-&gt;CCM#213</title>
<path fill="none" stroke="#000000" stroke-width="2" d="M468.3487,-1327.2842C508.7868,-1325.6138 558.1807,-1323.5734 599.1824,-1321.8797"/>
<polygon fill="#000000" stroke="#000000" stroke-width="2" points="599.5682,-1325.3669 609.4152,-1321.457 599.2793,-1318.3728 599.5682,-1325.3669"/>
<text text-anchor="middle" x="527.8346" y="-1316.3726" font-family="Sans" font-size="10.00" fill="#000000">fixes</text>
</g>
<!-- CCM#215 -->
<g id="node12" class="node">
<title>CCM#215</title>
<g id="a_node12"><a xlink:href="https://github.com/quattor/CCM/pull/215" xlink:title="CCM#215 (pull-request)" target="_parent">
<polygon fill="#6e5494" stroke="#000000" points="459,-1287 322,-1287 322,-1248 459,-1248 459,-1287"/>
<text text-anchor="middle" x="390.5" y="-1265" font-family="Sans" font-size="10.00" fill="#000000">Remove description field</text>
</a>
</g>
</g>
<!-- CCM#214 -->
<g id="node13" class="node">
<title>CCM#214</title>
<g id="a_node13"><a xlink:href="https://github.com/quattor/CCM/pull/214" xlink:title="CCM#214 (pull-request)" target="_parent">
<polygon fill="#6e5494" stroke="#000000" points="750,-1275.5 612,-1275.5 612,-1225.5 750,-1225.5 750,-1275.5"/>
<text text-anchor="middle" x="681" y="-1253.5" font-family="Sans" font-size="10.00" fill="#000000">Strip out all references to</text>
<text text-anchor="middle" x="681" y="-1242.5" font-family="Sans" font-size="10.00" fill="#000000">derivation</text>
</a>
</g>
</g>
<!-- CCM#215&#45;&gt;CCM#214 -->
<g id="edge8" class="edge">
<title>CCM#215-&gt;CCM#214</title>
<path fill="none" stroke="#000000" stroke-dasharray="5,2" d="M459.3444,-1263.4712C502.0725,-1260.9708 557.1323,-1257.7487 601.6857,-1255.1415"/>
<polygon fill="none" stroke="#000000" points="602.1167,-1258.6223 611.8951,-1254.544 601.7077,-1251.6343 602.1167,-1258.6223"/>
<text text-anchor="middle" x="518.1166" y="-1251.0078" font-family="Sans" font-size="10.00" fill="#000000">requires</text>
</g>
<!-- CCM#134 -->
<g id="node14" class="node">
<title>CCM#134</title>
<g id="a_node14"><a xlink:href="https://github.com/quattor/CCM/issues/134" xlink:title="CCM#134 (issue)" target="_parent">
<path fill="#6e5494" stroke="#000000" d="M1034,-1270C1034,-1270 888,-1270 888,-1270 882,-1270 876,-1264 876,-1258 876,-1258 876,-1243 876,-1243 876,-1237 882,-1231 888,-1231 888,-1231 1034,-1231 1034,-1231 1040,-1231 1046,-1237 1046,-1243 1046,-1243 1046,-1258 1046,-1258 1046,-1264 1040,-1270 1034,-1270"/>
<text text-anchor="middle" x="961" y="-1248" font-family="Sans" font-size="10.00" fill="#000000">Remove references to derivation</text>
</a>
</g>
</g>
<!-- CCM#214&#45;&gt;CCM#134 -->
<g id="edge9" class="edge">
<title>CCM#214-&gt;CCM#134</title>
<path fill="none" stroke="#000000" stroke-width="2" d="M750.2135,-1250.5C785.0744,-1250.5 827.8819,-1250.5 865.7915,-1250.5"/>
<polygon fill="#000000" stroke="#000000" stroke-width="2" points="865.8281,-1254.0001 875.828,-1250.5 865.828,-1247.0001 865.8281,-1254.0001"/>
<text text-anchor="middle" x="801.9016" y="-1242.5" font-family="Sans" font-size="10.00" fill="#000000">fixes</text>
</g>
<!-- configuration&#45;modules&#45;core#1810 -->
<g id="node15" class="node">
<title>configuration-modules-core#1810</title>
<g id="a_node15"><a xlink:href="https://github.com/quattor/configuration-modules-core/pull/1810" xlink:title="configuration-modules-core#1810 (pull-request)" target="_parent">
<polygon fill="#6cc644" stroke="#000000" points="477,-1229.5 304,-1229.5 304,-1179.5 477,-1179.5 477,-1229.5"/>
<text text-anchor="middle" x="390.5" y="-1207.5" font-family="Sans" font-size="10.00" fill="#000000">ncm-metaconfig: updated filebeat</text>
<text text-anchor="middle" x="390.5" y="-1196.5" font-family="Sans" font-size="10.00" fill="#000000">7.x schema to fix #1728</text>
</a>
</g>
</g>
<!-- configuration&#45;modules&#45;core#1728 -->
<g id="node16" class="node">
<title>configuration-modules-core#1728</title>
<g id="a_node16"><a xlink:href="https://github.com/quattor/configuration-modules-core/issues/1728" xlink:title="configuration-modules-core#1728 (issue)" target="_parent">
<path fill="#6cc644" stroke="#000000" d="M756,-1207C756,-1207 606,-1207 606,-1207 600,-1207 594,-1201 594,-1195 594,-1195 594,-1158 594,-1158 594,-1152 600,-1146 606,-1146 606,-1146 756,-1146 756,-1146 762,-1146 768,-1152 768,-1158 768,-1158 768,-1195 768,-1195 768,-1201 762,-1207 756,-1207"/>
<text text-anchor="middle" x="681" y="-1185" font-family="Sans" font-size="10.00" fill="#000000">ncm-metaconfig: fixing filebeat</text>
<text text-anchor="middle" x="681" y="-1174" font-family="Sans" font-size="10.00" fill="#000000">schema 7.0 and adding additional</text>
<text text-anchor="middle" x="681" y="-1163" font-family="Sans" font-size="10.00" fill="#000000">processor</text>
</a>
</g>
</g>
<!-- configuration&#45;modules&#45;core#1810&#45;&gt;configuration&#45;modules&#45;core#1728 -->
<g id="edge10" class="edge">
<title>configuration-modules-core#1810-&gt;configuration-modules-core#1728</title>
<path fill="none" stroke="#000000" stroke-width="2" d="M477.2661,-1196.137C510.8191,-1192.903 549.3704,-1189.1872 583.8466,-1185.8642"/>
<polygon fill="#000000" stroke="#000000" stroke-width="2" points="584.3104,-1189.3358 593.9285,-1184.8924 583.6388,-1182.3681 584.3104,-1189.3358"/>
<text text-anchor="middle" x="524.74" y="-1182.501" font-family="Sans" font-size="10.00" fill="#000000">fixes</text>
</g>
<!-- configuration&#45;modules&#45;core#1788 -->
<g id="node17" class="node">
<title>configuration-modules-core#1788</title>
<g id="a_node17"><a xlink:href="https://github.com/quattor/configuration-modules-core/pull/1788" xlink:title="configuration-modules-core#1788 (pull-request)" target="_parent">
<polygon fill="#6e5494" stroke="#000000" points="461.5,-1161.5 319.5,-1161.5 319.5,-1111.5 461.5,-1111.5 461.5,-1161.5"/>
<text text-anchor="middle" x="390.5" y="-1139.5" font-family="Sans" font-size="10.00" fill="#000000">ncm-systemd: ensure unit</text>
<text text-anchor="middle" x="390.5" y="-1128.5" font-family="Sans" font-size="10.00" fill="#000000">property is defined</text>
</a>
</g>
</g>
<!-- configuration&#45;modules&#45;core#1787 -->
<g id="node18" class="node">
<title>configuration-modules-core#1787</title>
<g id="a_node18"><a xlink:href="https://github.com/quattor/configuration-modules-core/issues/1787" xlink:title="configuration-modules-core#1787 (issue)" target="_parent">
<path fill="#6e5494" stroke="#000000" d="M754,-1127.5C754,-1127.5 608,-1127.5 608,-1127.5 602,-1127.5 596,-1121.5 596,-1115.5 596,-1115.5 596,-1089.5 596,-1089.5 596,-1083.5 602,-1077.5 608,-1077.5 608,-1077.5 754,-1077.5 754,-1077.5 760,-1077.5 766,-1083.5 766,-1089.5 766,-1089.5 766,-1115.5 766,-1115.5 766,-1121.5 760,-1127.5 754,-1127.5"/>
<text text-anchor="middle" x="681" y="-1105.5" font-family="Sans" font-size="10.00" fill="#000000">ncm-systemd 24.10.0: validation</text>
<text text-anchor="middle" x="681" y="-1094.5" font-family="Sans" font-size="10.00" fill="#000000">fails if no unit is defined</text>
</a>
</g>
</g>
<!-- configuration&#45;modules&#45;core#1788&#45;&gt;configuration&#45;modules&#45;core#1787 -->
<g id="edge11" class="edge">
<title>configuration-modules-core#1788-&gt;configuration-modules-core#1787</title>
<path fill="none" stroke="#000000" stroke-width="2" d="M461.5643,-1128.1827C498.9606,-1123.8058 545.325,-1118.3793 585.7877,-1113.6436"/>
<polygon fill="#000000" stroke="#000000" stroke-width="2" points="586.4132,-1117.0944 595.9386,-1112.4556 585.5995,-1110.1418 586.4132,-1117.0944"/>
<text text-anchor="middle" x="518.033" y="-1112.2862" font-family="Sans" font-size="10.00" fill="#000000">fixes</text>
</g>
<!-- configuration&#45;modules&#45;core#1783 -->
<g id="node19" class="node">
<title>configuration-modules-core#1783</title>
<g id="a_node19"><a xlink:href="https://github.com/quattor/configuration-modules-core/pull/1783" xlink:title="configuration-modules-core#1783 (pull-request)" target="_parent">
<polygon fill="#6cc644" stroke="#000000" points="475.5,-1093 305.5,-1093 305.5,-1032 475.5,-1032 475.5,-1093"/>
<text text-anchor="middle" x="390.5" y="-1071" font-family="Sans" font-size="10.00" fill="#000000">metaconfig/named: fix validation</text>
<text text-anchor="middle" x="390.5" y="-1060" font-family="Sans" font-size="10.00" fill="#000000">of logging channels in</text>
<text text-anchor="middle" x="390.5" y="-1049" font-family="Sans" font-size="10.00" fill="#000000">categories</text>
</a>
</g>
</g>
<!-- configuration&#45;modules&#45;core#1784 -->
<g id="node20" class="node">
<title>configuration-modules-core#1784</title>
<g id="a_node20"><a xlink:href="https://github.com/quattor/configuration-modules-core/issues/1784" xlink:title="configuration-modules-core#1784 (issue)" target="_parent">
<path fill="#6cc644" stroke="#000000" d="M752.5,-1059C752.5,-1059 609.5,-1059 609.5,-1059 603.5,-1059 597.5,-1053 597.5,-1047 597.5,-1047 597.5,-1010 597.5,-1010 597.5,-1004 603.5,-998 609.5,-998 609.5,-998 752.5,-998 752.5,-998 758.5,-998 764.5,-1004 764.5,-1010 764.5,-1010 764.5,-1047 764.5,-1047 764.5,-1053 758.5,-1059 752.5,-1059"/>
<text text-anchor="middle" x="681" y="-1037" font-family="Sans" font-size="10.00" fill="#000000">ncm-metaconfig 24.10.0 named</text>
<text text-anchor="middle" x="681" y="-1026" font-family="Sans" font-size="10.00" fill="#000000">module: error in logging channel</text>
<text text-anchor="middle" x="681" y="-1015" font-family="Sans" font-size="10.00" fill="#000000">name validation</text>
</a>
</g>
</g>
<!-- configuration&#45;modules&#45;core#1783&#45;&gt;configuration&#45;modules&#45;core#1784 -->
<g id="edge12" class="edge">
<title>configuration-modules-core#1783-&gt;configuration-modules-core#1784</title>
<path fill="none" stroke="#000000" stroke-width="2" d="M475.6967,-1052.5286C510.7408,-1048.4271 551.4454,-1043.663 587.3249,-1039.4637"/>
<polygon fill="#000000" stroke="#000000" stroke-width="2" points="587.7827,-1042.9341 597.308,-1038.2953 586.9689,-1035.9815 587.7827,-1042.9341"/>
<text text-anchor="middle" x="525.5546" y="-1037.4058" font-family="Sans" font-size="10.00" fill="#000000">fixes</text>
</g>
<!-- configuration&#45;modules&#45;core#1739 -->
<g id="node21" class="node">
<title>configuration-modules-core#1739</title>
<g id="a_node21"><a xlink:href="https://github.com/quattor/configuration-modules-core/pull/1739" xlink:title="configuration-modules-core#1739 (pull-request)" target="_parent">
<polygon fill="#6cc644" stroke="#000000" points="474.5,-1014 306.5,-1014 306.5,-953 474.5,-953 474.5,-1014"/>
<text text-anchor="middle" x="390.5" y="-992" font-family="Sans" font-size="10.00" fill="#000000">ncm-network: dropin file support</text>
<text text-anchor="middle" x="390.5" y="-981" font-family="Sans" font-size="10.00" fill="#000000">for main configuration of</text>
<text text-anchor="middle" x="390.5" y="-970" font-family="Sans" font-size="10.00" fill="#000000">NetworkManager</text>
</a>
</g>
</g>
<!-- configuration&#45;modules&#45;core#1740 -->
<g id="node22" class="node">
<title>configuration-modules-core#1740</title>
<g id="a_node22"><a xlink:href="https://github.com/quattor/configuration-modules-core/issues/1740" xlink:title="configuration-modules-core#1740 (issue)" target="_parent">
<path fill="#6cc644" stroke="#000000" d="M742,-980C742,-980 620,-980 620,-980 614,-980 608,-974 608,-968 608,-968 608,-931 608,-931 608,-925 614,-919 620,-919 620,-919 742,-919 742,-919 748,-919 754,-925 754,-931 754,-931 754,-968 754,-968 754,-974 748,-980 742,-980"/>
<text text-anchor="middle" x="681" y="-958" font-family="Sans" font-size="10.00" fill="#000000">ncm-network - capability to</text>
<text text-anchor="middle" x="681" y="-947" font-family="Sans" font-size="10.00" fill="#000000">manage main section of</text>
<text text-anchor="middle" x="681" y="-936" font-family="Sans" font-size="10.00" fill="#000000">NetworkManager.conf</text>
</a>
</g>
</g>
<!-- configuration&#45;modules&#45;core#1739&#45;&gt;configuration&#45;modules&#45;core#1740 -->
<g id="edge13" class="edge">
<title>configuration-modules-core#1739-&gt;configuration-modules-core#1740</title>
<path fill="none" stroke="#000000" stroke-width="2" d="M474.5246,-973.6658C513.1344,-969.1469 558.8088,-963.8012 597.3702,-959.288"/>
<polygon fill="#000000" stroke="#000000" stroke-width="2" points="598.0021,-962.738 607.5274,-958.0992 597.1883,-955.7855 598.0021,-962.738"/>
<text text-anchor="middle" x="529.9017" y="-957.897" font-family="Sans" font-size="10.00" fill="#000000">fixes</text>
</g>
<!-- configuration&#45;modules&#45;core#1554 -->
<g id="node23" class="node">
<title>configuration-modules-core#1554</title>
<g id="a_node23"><a xlink:href="https://github.com/quattor/configuration-modules-core/pull/1554" xlink:title="configuration-modules-core#1554 (pull-request)" target="_parent">
<polygon fill="#6cc644" stroke="#000000" points="466.5,-934.5 314.5,-934.5 314.5,-884.5 466.5,-884.5 466.5,-934.5"/>
<text text-anchor="middle" x="390.5" y="-912.5" font-family="Sans" font-size="10.00" fill="#000000">avoid removing empty list of</text>
<text text-anchor="middle" x="390.5" y="-901.5" font-family="Sans" font-size="10.00" fill="#000000">packages</text>
</a>
</g>
</g>
<!-- configuration&#45;modules&#45;core#1553 -->
<g id="node24" class="node">
<title>configuration-modules-core#1553</title>
<g id="a_node24"><a xlink:href="https://github.com/quattor/configuration-modules-core/issues/1553" xlink:title="configuration-modules-core#1553 (issue)" target="_parent">
<path fill="#6cc644" stroke="#000000" d="M753,-901C753,-901 609,-901 609,-901 603,-901 597,-895 597,-889 597,-889 597,-852 597,-852 597,-846 603,-840 609,-840 609,-840 753,-840 753,-840 759,-840 765,-846 765,-852 765,-852 765,-889 765,-889 765,-895 759,-901 753,-901"/>
<text text-anchor="middle" x="681" y="-879" font-family="Sans" font-size="10.00" fill="#000000">ncm-spma: update_pkgs in yum</text>
<text text-anchor="middle" x="681" y="-868" font-family="Sans" font-size="10.00" fill="#000000">plugin tries to remove empty</text>
<text text-anchor="middle" x="681" y="-857" font-family="Sans" font-size="10.00" fill="#000000">list of packages</text>
</a>
</g>
</g>
<!-- configuration&#45;modules&#45;core#1554&#45;&gt;configuration&#45;modules&#45;core#1553 -->
<g id="edge14" class="edge">
<title>configuration-modules-core#1554-&gt;configuration-modules-core#1553</title>
<path fill="none" stroke="#000000" stroke-width="2" d="M466.8255,-899.2532C503.4755,-894.3329 547.7471,-888.3894 586.5042,-883.1862"/>
<polygon fill="#000000" stroke="#000000" stroke-width="2" points="587.3075,-886.6098 596.7529,-881.8103 586.3761,-879.6721 587.3075,-886.6098"/>
<text text-anchor="middle" x="521.1253" y="-882.4866" font-family="Sans" font-size="10.00" fill="#000000">fixes</text>
</g>
<!-- configuration&#45;modules&#45;core#1507 -->
<g id="node25" class="node">
<title>configuration-modules-core#1507</title>
<g id="a_node25"><a xlink:href="https://github.com/quattor/configuration-modules-core/pull/1507" xlink:title="configuration-modules-core#1507 (pull-request)" target="_parent">
<polygon fill="#6cc644" stroke="#000000" points="175,-1505.5 12,-1505.5 12,-1455.5 175,-1455.5 175,-1505.5"/>
<text text-anchor="middle" x="93.5" y="-1483.5" font-family="Sans" font-size="10.00" fill="#000000">[WIP] ncm-spma: yumdnf: use</text>
<text text-anchor="middle" x="93.5" y="-1472.5" font-family="Sans" font-size="10.00" fill="#000000">spmaleaves dnf plugin</text>
</a>
</g>
</g>
<!-- configuration&#45;modules&#45;core#1401 -->
<g id="node26" class="node">
<title>configuration-modules-core#1401</title>
<polygon fill="#d3d3d3" stroke="#000000" points="476.5,-1500 304.5,-1500 304.5,-1461 476.5,-1461 476.5,-1500"/>
<text text-anchor="middle" x="390.5" y="-1478" font-family="Sans" font-size="10.00" fill="#000000">configuration-modules-core#1401</text>
</g>
<!-- configuration&#45;modules&#45;core#1507&#45;&gt;configuration&#45;modules&#45;core#1401 -->
<g id="edge15" class="edge">
<title>configuration-modules-core#1507-&gt;configuration-modules-core#1401</title>
<path fill="none" stroke="#000000" stroke-dasharray="5,2" d="M175.0494,-1480.5C211.937,-1480.5 255.7952,-1480.5 294.2825,-1480.5"/>
<polygon fill="none" stroke="#000000" points="294.4629,-1484.0001 304.4629,-1480.5 294.4628,-1477.0001 294.4629,-1484.0001"/>
<text text-anchor="middle" x="222.3037" y="-1472.5" font-family="Sans" font-size="10.00" fill="#000000">requires</text>
</g>
<!-- configuration&#45;modules&#45;core#1336 -->
<g id="node27" class="node">
<title>configuration-modules-core#1336</title>
<g id="a_node27"><a xlink:href="https://github.com/quattor/configuration-modules-core/pull/1336" xlink:title="configuration-modules-core#1336 (pull-request)" target="_parent">
<polygon fill="#6cc644" stroke="#000000" points="172.5,-1617 14.5,-1617 14.5,-1556 172.5,-1556 172.5,-1617"/>
<text text-anchor="middle" x="93.5" y="-1595" font-family="Sans" font-size="10.00" fill="#000000">ncm-network: Add support for</text>
<text text-anchor="middle" x="93.5" y="-1584" font-family="Sans" font-size="10.00" fill="#000000">CAF::Service actions after</text>
<text text-anchor="middle" x="93.5" y="-1573" font-family="Sans" font-size="10.00" fill="#000000">changes</text>
</a>
</g>
</g>
<!-- configuration&#45;modules&#45;core#1335 -->
<g id="node28" class="node">
<title>configuration-modules-core#1335</title>
<g id="a_node28"><a xlink:href="https://github.com/quattor/configuration-modules-core/pull/1335" xlink:title="configuration-modules-core#1335 (pull-request)" target="_parent">
<polygon fill="#6cc644" stroke="#000000" points="475,-1648 306,-1648 306,-1587 475,-1587 475,-1648"/>
<text text-anchor="middle" x="390.5" y="-1626" font-family="Sans" font-size="10.00" fill="#000000">ncm-metaconfig: Remove</text>
<text text-anchor="middle" x="390.5" y="-1615" font-family="Sans" font-size="10.00" fill="#000000">caf_service_action type to allow</text>
<text text-anchor="middle" x="390.5" y="-1604" font-family="Sans" font-size="10.00" fill="#000000">reuse</text>
</a>
</g>
</g>
<!-- configuration&#45;modules&#45;core#1336&#45;&gt;configuration&#45;modules&#45;core#1335 -->
<g id="edge16" class="edge">
<title>configuration-modules-core#1336-&gt;configuration-modules-core#1335</title>
<path fill="none" stroke="#000000" stroke-dasharray="5,2" d="M172.7004,-1594.7667C210.5615,-1598.7185 256.1699,-1603.479 295.8466,-1607.6203"/>
<polygon fill="none" stroke="#000000" points="295.4884,-1611.1019 305.7977,-1608.659 296.2151,-1604.1397 295.4884,-1611.1019"/>
<text text-anchor="middle" x="221.535" y="-1593.6905" font-family="Sans" font-size="10.00" fill="#000000">requires</text>
</g>
<!-- configuration&#45;modules&#45;core#1071 -->
<g id="node29" class="node">
<title>configuration-modules-core#1071</title>
<g id="a_node29"><a xlink:href="https://github.com/quattor/configuration-modules-core/issues/1071" xlink:title="configuration-modules-core#1071 (issue)" target="_parent">
<path fill="#6cc644" stroke="#000000" d="M467,-1568.5C467,-1568.5 314,-1568.5 314,-1568.5 308,-1568.5 302,-1562.5 302,-1556.5 302,-1556.5 302,-1530.5 302,-1530.5 302,-1524.5 308,-1518.5 314,-1518.5 314,-1518.5 467,-1518.5 467,-1518.5 473,-1518.5 479,-1524.5 479,-1530.5 479,-1530.5 479,-1556.5 479,-1556.5 479,-1562.5 473,-1568.5 467,-1568.5"/>
<text text-anchor="middle" x="390.5" y="-1546.5" font-family="Sans" font-size="10.00" fill="#000000">ncm-network: support daemons to</text>
<text text-anchor="middle" x="390.5" y="-1535.5" font-family="Sans" font-size="10.00" fill="#000000">restart after network changes</text>
</a>
</g>
</g>
<!-- configuration&#45;modules&#45;core#1336&#45;&gt;configuration&#45;modules&#45;core#1071 -->
<g id="edge17" class="edge">
<title>configuration-modules-core#1336-&gt;configuration-modules-core#1071</title>
<path fill="none" stroke="#000000" stroke-width="2" d="M172.7004,-1575.0333C209.218,-1569.7462 252.9428,-1563.4157 291.601,-1557.8187"/>
<polygon fill="#000000" stroke="#000000" stroke-width="2" points="292.4392,-1561.2339 301.8345,-1556.3371 291.4362,-1554.3062 292.4392,-1561.2339"/>
<text text-anchor="middle" x="226.5484" y="-1557.6445" font-family="Sans" font-size="10.00" fill="#000000">fixes</text>
</g>
<!-- template&#45;library&#45;core#191 -->
<g id="node30" class="node">
<title>template-library-core#191</title>
<polygon fill="#d3d3d3" stroke="#000000" points="750,-1637 612,-1637 612,-1598 750,-1598 750,-1637"/>
<text text-anchor="middle" x="681" y="-1615" font-family="Sans" font-size="10.00" fill="#000000">template-library-core#191</text>
</g>
<!-- configuration&#45;modules&#45;core#1335&#45;&gt;template&#45;library&#45;core#191 -->
<g id="edge18" class="edge">
<title>configuration-modules-core#1335-&gt;template-library-core#191</title>
<path fill="none" stroke="#000000" stroke-dasharray="5,2" d="M475.3056,-1617.5C515.1224,-1617.5 562.3148,-1617.5 601.4471,-1617.5"/>
<polygon fill="none" stroke="#000000" points="601.7338,-1621.0001 611.7338,-1617.5 601.7337,-1614.0001 601.7338,-1621.0001"/>
<text text-anchor="middle" x="526.2087" y="-1609.5" font-family="Sans" font-size="10.00" fill="#000000">requires</text>
</g>
<!-- configuration&#45;modules&#45;core#1148 -->
<g id="node31" class="node">
<title>configuration-modules-core#1148</title>
<g id="a_node31"><a xlink:href="https://github.com/quattor/configuration-modules-core/pull/1148" xlink:title="configuration-modules-core#1148 (pull-request)" target="_parent">
<polygon fill="#6cc644" stroke="#000000" points="183,-1784.5 4,-1784.5 4,-1734.5 183,-1734.5 183,-1784.5"/>
<text text-anchor="middle" x="93.5" y="-1762.5" font-family="Sans" font-size="10.00" fill="#000000">ncm-spma: Remove support from</text>
<text text-anchor="middle" x="93.5" y="-1751.5" font-family="Sans" font-size="10.00" fill="#000000">groups from spma yumng backend</text>
</a>
</g>
</g>
<!-- configuration&#45;modules&#45;core#952 -->
<g id="node32" class="node">
<title>configuration-modules-core#952</title>
<g id="a_node32"><a xlink:href="https://github.com/quattor/configuration-modules-core/issues/952" xlink:title="configuration-modules-core#952 (issue)" target="_parent">
<path fill="#6cc644" stroke="#000000" d="M474,-1784.5C474,-1784.5 307,-1784.5 307,-1784.5 301,-1784.5 295,-1778.5 295,-1772.5 295,-1772.5 295,-1746.5 295,-1746.5 295,-1740.5 301,-1734.5 307,-1734.5 307,-1734.5 474,-1734.5 474,-1734.5 480,-1734.5 486,-1740.5 486,-1746.5 486,-1746.5 486,-1772.5 486,-1772.5 486,-1778.5 480,-1784.5 474,-1784.5"/>
<text text-anchor="middle" x="390.5" y="-1762.5" font-family="Sans" font-size="10.00" fill="#000000">ncm-spma (yumng): Remove support</text>
<text text-anchor="middle" x="390.5" y="-1751.5" font-family="Sans" font-size="10.00" fill="#000000">for package groups</text>
</a>
</g>
</g>
<!-- configuration&#45;modules&#45;core#1148&#45;&gt;configuration&#45;modules&#45;core#952 -->
<g id="edge19" class="edge">
<title>configuration-modules-core#1148-&gt;configuration-modules-core#952</title>
<path fill="none" stroke="#000000" stroke-width="2" d="M183.0126,-1759.5C215.0535,-1759.5 251.4693,-1759.5 284.7528,-1759.5"/>
<polygon fill="#000000" stroke="#000000" stroke-width="2" points="284.9733,-1763.0001 294.9733,-1759.5 284.9733,-1756.0001 284.9733,-1763.0001"/>
<text text-anchor="middle" x="228.0876" y="-1751.5" font-family="Sans" font-size="10.00" fill="#000000">fixes</text>
</g>
<!-- configuration&#45;modules&#45;core#950 -->
<g id="node33" class="node">
<title>configuration-modules-core#950</title>
<g id="a_node33"><a xlink:href="https://github.com/quattor/configuration-modules-core/issues/950" xlink:title="configuration-modules-core#950 (issue)" target="_parent">
<path fill="#6cc644" stroke="#000000" d="M175,-1716.5C175,-1716.5 12,-1716.5 12,-1716.5 6,-1716.5 0,-1710.5 0,-1704.5 0,-1704.5 0,-1678.5 0,-1678.5 0,-1672.5 6,-1666.5 12,-1666.5 12,-1666.5 175,-1666.5 175,-1666.5 181,-1666.5 187,-1672.5 187,-1678.5 187,-1678.5 187,-1704.5 187,-1704.5 187,-1710.5 181,-1716.5 175,-1716.5"/>
<text text-anchor="middle" x="93.5" y="-1694.5" font-family="Sans" font-size="10.00" fill="#000000">ncm-spma: Remove support for</text>
<text text-anchor="middle" x="93.5" y="-1683.5" font-family="Sans" font-size="10.00" fill="#000000">package groups from yum backends</text>
</a>
</g>
</g>
<!-- configuration&#45;modules&#45;core#950&#45;&gt;configuration&#45;modules&#45;core#952 -->
<g id="edge21" class="edge">
<title>configuration-modules-core#950-&gt;configuration-modules-core#952</title>
<path fill="none" stroke="#000000" stroke-dasharray="5,2" d="M187.065,-1712.9223C218.1915,-1720.0489 253.0665,-1728.0337 285.0303,-1735.3521"/>
<polygon fill="none" stroke="#000000" points="284.3204,-1738.78 294.8493,-1737.6002 285.8827,-1731.9566 284.3204,-1738.78"/>
<text text-anchor="middle" x="223.6849" y="-1717.3134" font-family="Sans" font-size="10.00" fill="#000000">requires</text>
</g>
<!-- configuration&#45;modules&#45;core#951 -->
<g id="node34" class="node">
<title>configuration-modules-core#951</title>
<g id="a_node34"><a xlink:href="https://github.com/quattor/configuration-modules-core/issues/951" xlink:title="configuration-modules-core#951 (issue)" target="_parent">
<path fill="#6cc644" stroke="#000000" d="M468.5,-1716.5C468.5,-1716.5 312.5,-1716.5 312.5,-1716.5 306.5,-1716.5 300.5,-1710.5 300.5,-1704.5 300.5,-1704.5 300.5,-1678.5 300.5,-1678.5 300.5,-1672.5 306.5,-1666.5 312.5,-1666.5 312.5,-1666.5 468.5,-1666.5 468.5,-1666.5 474.5,-1666.5 480.5,-1672.5 480.5,-1678.5 480.5,-1678.5 480.5,-1704.5 480.5,-1704.5 480.5,-1710.5 474.5,-1716.5 468.5,-1716.5"/>
<text text-anchor="middle" x="390.5" y="-1694.5" font-family="Sans" font-size="10.00" fill="#000000">ncm-spma (yum): Remove support</text>
<text text-anchor="middle" x="390.5" y="-1683.5" font-family="Sans" font-size="10.00" fill="#000000">for package groups</text>
</a>
</g>
</g>
<!-- configuration&#45;modules&#45;core#950&#45;&gt;configuration&#45;modules&#45;core#951 -->
<g id="edge20" class="edge">
<title>configuration-modules-core#950-&gt;configuration-modules-core#951</title>
<path fill="none" stroke="#000000" stroke-dasharray="5,2" d="M187.065,-1691.5C219.8866,-1691.5 256.8759,-1691.5 290.2252,-1691.5"/>
<polygon fill="none" stroke="#000000" points="290.4495,-1695.0001 300.4494,-1691.5 290.4494,-1688.0001 290.4495,-1695.0001"/>
<text text-anchor="middle" x="226.2859" y="-1683.5" font-family="Sans" font-size="10.00" fill="#000000">requires</text>
</g>
<!-- ncm&#45;lib&#45;blockdevices#111 -->
<g id="node35" class="node">
<title>ncm-lib-blockdevices#111</title>
<g id="a_node35"><a xlink:href="https://github.com/quattor/ncm-lib-blockdevices/pull/111" xlink:title="ncm-lib-blockdevices#111 (pull-request)" target="_parent">
<polygon fill="#6e5494" stroke="#000000" points="476.5,-526.5 304.5,-526.5 304.5,-476.5 476.5,-476.5 476.5,-526.5"/>
<text text-anchor="middle" x="390.5" y="-504.5" font-family="Sans" font-size="10.00" fill="#000000">option to always use device path</text>
<text text-anchor="middle" x="390.5" y="-493.5" font-family="Sans" font-size="10.00" fill="#000000">for mounts instead of uuid</text>
</a>
</g>
</g>
<!-- ncm&#45;lib&#45;blockdevices#110 -->
<g id="node36" class="node">
<title>ncm-lib-blockdevices#110</title>
<polygon fill="#d3d3d3" stroke="#000000" points="751.5,-153 610.5,-153 610.5,-114 751.5,-114 751.5,-153"/>
<text text-anchor="middle" x="681" y="-131" font-family="Sans" font-size="10.00" fill="#000000">ncm-lib-blockdevices#110</text>
</g>
<!-- ncm&#45;lib&#45;blockdevices#111&#45;&gt;ncm&#45;lib&#45;blockdevices#110 -->
<g id="edge22" class="edge">
<title>ncm-lib-blockdevices#111-&gt;ncm-lib-blockdevices#110</title>
<path fill="none" stroke="#000000" stroke-width="2" d="M475.4204,-476.3268C479.2089,-473.6726 482.7688,-470.74 486,-467.5 587.8408,-365.3802 490.6058,-262.0467 594,-161.5 596.3888,-159.177 598.9711,-157.0467 601.6992,-155.0931"/>
<polygon fill="#000000" stroke="#000000" stroke-width="2" points="603.6394,-158.0079 610.2725,-149.7464 599.9352,-152.0683 603.6394,-158.0079"/>
<text text-anchor="middle" x="528.4333" y="-305.3105" font-family="Sans" font-size="10.00" fill="#000000">fixes</text>
</g>
<!-- ncm&#45;lib&#45;blockdevices#106 -->
<g id="node37" class="node">
<title>ncm-lib-blockdevices#106</title>
<g id="a_node37"><a xlink:href="https://github.com/quattor/ncm-lib-blockdevices/pull/106" xlink:title="ncm-lib-blockdevices#106 (pull-request)" target="_parent">
<polygon fill="#6cc644" stroke="#000000" points="472.5,-458.5 308.5,-458.5 308.5,-408.5 472.5,-408.5 472.5,-458.5"/>
<text text-anchor="middle" x="390.5" y="-436.5" font-family="Sans" font-size="10.00" fill="#000000">Partition: Mask DM/LVM rules,</text>
<text text-anchor="middle" x="390.5" y="-425.5" font-family="Sans" font-size="10.00" fill="#000000">don't stop udev</text>
</a>
</g>
</g>
<!-- ncm&#45;lib&#45;blockdevices#105 -->
<g id="node38" class="node">
<title>ncm-lib-blockdevices#105</title>
<polygon fill="#d3d3d3" stroke="#000000" points="751.5,-96 610.5,-96 610.5,-57 751.5,-57 751.5,-96"/>
<text text-anchor="middle" x="681" y="-74" font-family="Sans" font-size="10.00" fill="#000000">ncm-lib-blockdevices#105</text>
</g>
<!-- ncm&#45;lib&#45;blockdevices#106&#45;&gt;ncm&#45;lib&#45;blockdevices#105 -->
<g id="edge23" class="edge">
<title>ncm-lib-blockdevices#106-&gt;ncm-lib-blockdevices#105</title>
<path fill="none" stroke="#000000" stroke-width="2" d="M472.709,-410.0668C477.5078,-406.9691 482,-403.4645 486,-399.5 585.1665,-301.214 493.3386,-201.2544 594,-104.5 596.4023,-102.1909 598.9959,-100.0723 601.7333,-98.1283"/>
<polygon fill="#000000" stroke="#000000" stroke-width="2" points="603.6702,-101.0457 610.3291,-92.805 599.9846,-95.0945 603.6702,-101.0457"/>
<text text-anchor="middle" x="528.4512" y="-243.1364" font-family="Sans" font-size="10.00" fill="#000000">fixes</text>
</g>
<!-- release#370 -->
<g id="node39" class="node">
<title>release#370</title>
<g id="a_node39"><a xlink:href="https://github.com/quattor/release/pull/370" xlink:title="release#370 (pull-request)" target="_parent">
<polygon fill="#6e5494" stroke="#000000" points="471.5,-866.5 309.5,-866.5 309.5,-816.5 471.5,-816.5 471.5,-866.5"/>
<text text-anchor="middle" x="390.5" y="-844.5" font-family="Sans" font-size="10.00" fill="#000000">Update template library scripts</text>
<text text-anchor="middle" x="390.5" y="-833.5" font-family="Sans" font-size="10.00" fill="#000000">for new repository structure</text>
</a>
</g>
</g>
<!-- release#373 -->
<g id="node40" class="node">
<title>release#373</title>
<g id="a_node40"><a xlink:href="https://github.com/quattor/release/issues/373" xlink:title="release#373 (issue)" target="_parent">
<path fill="#6e5494" stroke="#000000" d="M755.5,-822C755.5,-822 606.5,-822 606.5,-822 600.5,-822 594.5,-816 594.5,-810 594.5,-810 594.5,-773 594.5,-773 594.5,-767 600.5,-761 606.5,-761 606.5,-761 755.5,-761 755.5,-761 761.5,-761 767.5,-767 767.5,-773 767.5,-773 767.5,-810 767.5,-810 767.5,-816 761.5,-822 755.5,-822"/>
<text text-anchor="middle" x="681" y="-800" font-family="Sans" font-size="10.00" fill="#000000">get-template-library: update the</text>
<text text-anchor="middle" x="681" y="-789" font-family="Sans" font-size="10.00" fill="#000000">default master branch name after</text>
<text text-anchor="middle" x="681" y="-778" font-family="Sans" font-size="10.00" fill="#000000">master -&gt; main rename</text>
</a>
</g>
</g>
<!-- release#370&#45;&gt;release#373 -->
<g id="edge24" class="edge">
<title>release#370-&gt;release#373</title>
<path fill="none" stroke="#000000" stroke-width="2" d="M471.8067,-827.5057C506.7114,-821.498 547.7711,-814.431 584.2284,-808.156"/>
<polygon fill="#000000" stroke="#000000" stroke-width="2" points="585.1188,-811.5543 594.3802,-806.4087 583.9314,-804.6558 585.1188,-811.5543"/>
<text text-anchor="middle" x="522.2854" y="-808.9242" font-family="Sans" font-size="10.00" fill="#000000">fixes</text>
</g>
<!-- template&#45;library&#45;openstack#63 -->
<g id="node41" class="node">
<title>template-library-openstack#63</title>
<g id="a_node41"><a xlink:href="https://github.com/quattor/template-library-openstack/pull/63" xlink:title="template-library-openstack#63 (pull-request)" target="_parent">
<polygon fill="#6cc644" stroke="#000000" points="481,-390.5 300,-390.5 300,-340.5 481,-340.5 481,-390.5"/>
<text text-anchor="middle" x="390.5" y="-368.5" font-family="Sans" font-size="10.00" fill="#000000">Templates for OpenStack Antelope</text>
<text text-anchor="middle" x="390.5" y="-357.5" font-family="Sans" font-size="10.00" fill="#000000">version</text>
</a>
</g>
</g>
<!-- template&#45;library&#45;openstack#1 -->
<g id="node42" class="node">
<title>template-library-openstack#1</title>
<polygon fill="#d3d3d3" stroke="#000000" points="758,-39 604,-39 604,0 758,0 758,-39"/>
<text text-anchor="middle" x="681" y="-17" font-family="Sans" font-size="10.00" fill="#000000">template-library-openstack#1</text>
</g>
<!-- template&#45;library&#45;openstack#63&#45;&gt;template&#45;library&#45;openstack#1 -->
<g id="edge25" class="edge">
<title>template-library-openstack#63-&gt;template-library-openstack#1</title>
<path fill="none" stroke="#000000" stroke-width="2" d="M399.6723,-340.2531C422.7224,-280.3322 488.857,-128.5054 594,-47.5 595.3826,-46.4348 596.8071,-45.4094 598.2672,-44.4224"/>
<polygon fill="#000000" stroke="#000000" stroke-width="2" points="600.2146,-47.3354 606.9768,-39.1793 596.6042,-41.3383 600.2146,-47.3354"/>
<text text-anchor="middle" x="470.853" y="-167.9457" font-family="Sans" font-size="10.00" fill="#000000">fixes</text>
</g>
<!-- template&#45;library&#45;os#111 -->
<g id="node43" class="node">
<title>template-library-os#111</title>
<g id="a_node43"><a xlink:href="https://github.com/quattor/template-library-os/pull/111" xlink:title="template-library-os#111 (pull-request)" target="_parent">
<polygon fill="#6cc644" stroke="#000000" points="457.5,-798.5 323.5,-798.5 323.5,-748.5 457.5,-748.5 457.5,-798.5"/>
<text text-anchor="middle" x="390.5" y="-776.5" font-family="Sans" font-size="10.00" fill="#000000">el8/9: Make architecture</text>
<text text-anchor="middle" x="390.5" y="-765.5" font-family="Sans" font-size="10.00" fill="#000000">independent</text>
</a>
</g>
</g>
<!-- template&#45;library&#45;os#110 -->
<g id="node44" class="node">
<title>template-library-os#110</title>
<g id="a_node44"><a xlink:href="https://github.com/quattor/template-library-os/issues/110" xlink:title="template-library-os#110 (issue)" target="_parent">
<path fill="#6cc644" stroke="#000000" d="M738,-743C738,-743 624,-743 624,-743 618,-743 612,-737 612,-731 612,-731 612,-694 612,-694 612,-688 618,-682 624,-682 624,-682 738,-682 738,-682 744,-682 750,-688 750,-694 750,-694 750,-731 750,-731 750,-737 744,-743 738,-743"/>
<text text-anchor="middle" x="681" y="-721" font-family="Sans" font-size="10.00" fill="#000000">OS templates should be</text>
<text text-anchor="middle" x="681" y="-710" font-family="Sans" font-size="10.00" fill="#000000">independent of processor</text>
<text text-anchor="middle" x="681" y="-699" font-family="Sans" font-size="10.00" fill="#000000">architecture</text>
</a>
</g>
</g>
<!-- template&#45;library&#45;os#111&#45;&gt;template&#45;library&#45;os#110 -->
<g id="edge26" class="edge">
<title>template-library-os#111-&gt;template-library-os#110</title>
<path fill="none" stroke="#000000" stroke-width="2" d="M457.5113,-759.4288C500.5067,-750.4005 556.5386,-738.6348 601.7415,-729.1429"/>
<polygon fill="#000000" stroke="#000000" stroke-width="2" points="602.7342,-732.5109 611.8015,-727.0305 601.2956,-725.6603 602.7342,-732.5109"/>
<text text-anchor="middle" x="523.6693" y="-735.2269" font-family="Sans" font-size="10.00" fill="#000000">fixes</text>
</g>
</g>
</svg>
