<?xml version="1.0" encoding="UTF-8" standalone="no"?>
<?xml-stylesheet href="relationships.css" type="text/css"?>
<!-- Generated by graphviz version 2.26.0 (20091210.2329)
 -->
<!-- Title: Dependencies Pages: 1 -->
<svg xmlns="http://www.w3.org/2000/svg" xmlns:xlink="http://www.w3.org/1999/xlink" width="530pt" height="1046pt" viewBox="0.00 0.00 530.00 1046.00">
<g id="graph1" class="graph" transform="scale(1 1) rotate(0) translate(4 1042)">
<title>Dependencies</title>
<polygon fill="white" stroke="white" points="-4,5 -4,-1042 527,-1042 527,5 -4,5"/>
<g id="graph3" class="cluster"><title>cluster_18.3</title>
<polygon fill="none" stroke="black" points="54,-50 54,-238 434,-238 434,-50 54,-50"/>
<text text-anchor="middle" x="244" y="-223.2" font-family="Sans" font-size="12.00">18.3</text>
</g>
<g id="graph4" class="cluster"><title>cluster_17.12</title>
<polygon fill="none" stroke="black" points="8,-504 8,-1030 514,-1030 514,-504 8,-504"/>
<text text-anchor="middle" x="261" y="-1015.2" font-family="Sans" font-size="12.00">17.12</text>
</g>
<!-- aii#210 -->
<g id="node1" class="node"><title>aii#210</title>
<a xlink:href="https://github.com/quattor/aii/pull/210" xlink:title="Shellfe: support active config for plugins" target="_parent">
<polygon fill="#6cc644" stroke="black" points="141,-123 63,-123 63,-69 141,-69 141,-123"/>
<text text-anchor="middle" x="102" y="-100" font-family="Sans" font-size="10.00">pull-request</text>
<text text-anchor="middle" x="102" y="-87" font-family="Sans" font-size="10.00">aii#210</text>
</a>
</g>
<!-- aii#209 -->
<g id="node3" class="node"><title>aii#209</title>
<a xlink:href="https://github.com/quattor/aii/issues/209" xlink:title="support ACTIVE_CONFIG" target="_parent">
<ellipse fill="#6cc644" stroke="black" cx="384" cy="-96" rx="41.2167" ry="38.1838"/>
<text text-anchor="middle" x="384" y="-100" font-family="Sans" font-size="10.00">issue</text>
<text text-anchor="middle" x="384" y="-87" font-family="Sans" font-size="10.00">aii#209</text>
</a>
</g>
<!-- aii#210&#45;&gt;aii#209 -->
<g id="edge2" class="edge"><title>aii#210-&gt;aii#209</title>
<path fill="none" stroke="black" stroke-width="2" d="M141.508,-96C191.35,-96 277.184,-96 332.226,-96"/>
<polygon fill="black" stroke="black" points="332.467,-99.5001 342.467,-96 332.467,-92.5001 332.467,-99.5001"/>
<text text-anchor="middle" x="225" y="-100" font-family="Sans" font-size="10.00">fixes</text>
</g>
<!-- ncm&#45;ncd#74 -->
<g id="node5" class="node"><title>ncm-ncd#74</title>
<a xlink:href="https://github.com/quattor/ncm-ncd/pull/74" xlink:title="Set the current active config as an attribute to the component" target="_parent">
<polygon fill="#6cc644" stroke="black" points="425,-206 343,-206 343,-152 425,-152 425,-206"/>
<text text-anchor="middle" x="384" y="-183" font-family="Sans" font-size="10.00">pull-request</text>
<text text-anchor="middle" x="384" y="-170" font-family="Sans" font-size="10.00">ncm-ncd#74</text>
</a>
</g>
<!-- aii#210&#45;&gt;ncm&#45;ncd#74 -->
<g id="edge4" class="edge"><title>aii#210-&gt;ncm-ncd#74</title>
<path fill="none" stroke="black" stroke-dasharray="5,2" d="M141.508,-107.628C191.596,-122.37 278.034,-147.811 333.04,-164.001"/>
<polygon fill="none" stroke="black" points="332.348,-167.446 342.929,-166.912 334.325,-160.731 332.348,-167.446"/>
<text text-anchor="middle" x="225" y="-142" font-family="Sans" font-size="10.00">requires</text>
</g>
<!-- aii#203 -->
<g id="node7" class="node"><title>aii#203</title>
<polygon fill="lightgrey" stroke="black" points="413,-40.5 355,-40.5 355,0.5 413,0.5 413,-40.5"/>
<text text-anchor="middle" x="384" y="-17.5" font-family="Sans" font-size="10.00">aii#203</text>
</g>
<!-- aii#210&#45;&gt;aii#203 -->
<g id="edge6" class="edge"><title>aii#210-&gt;aii#203</title>
<path fill="none" stroke="black" stroke-dasharray="5,2" d="M141.812,-82.4267C174.004,-71.7261 220.618,-56.8504 262,-46 289.189,-38.871 320.169,-32.2874 344.106,-27.5288"/>
<polygon fill="none" stroke="black" points="345.097,-30.9012 354.235,-25.5403 343.748,-24.0323 345.097,-30.9012"/>
<text text-anchor="middle" x="225" y="-66" font-family="Sans" font-size="10.00">requires</text>
</g>
<!-- CAF#257 -->
<g id="node8" class="node"><title>CAF#257</title>
<a xlink:href="https://github.com/quattor/CAF/pull/257" xlink:title="Process: run process as another user" target="_parent">
<polygon fill="#6cc644" stroke="black" points="141,-782 63,-782 63,-728 141,-728 141,-782"/>
<text text-anchor="middle" x="102" y="-759" font-family="Sans" font-size="10.00">pull-request</text>
<text text-anchor="middle" x="102" y="-746" font-family="Sans" font-size="10.00">CAF#257</text>
</a>
</g>
<!-- CAF#253 -->
<g id="node10" class="node"><title>CAF#253</title>
<a xlink:href="https://github.com/quattor/CAF/issues/253" xlink:title="CAF::Process: Include an option to execute the command as an specific user" target="_parent">
<ellipse fill="#6cc644" stroke="black" cx="384" cy="-458" rx="48.9975" ry="38.1838"/>
<text text-anchor="middle" x="384" y="-462" font-family="Sans" font-size="10.00">issue</text>
<text text-anchor="middle" x="384" y="-449" font-family="Sans" font-size="10.00">CAF#253</text>
</a>
</g>
<!-- CAF#257&#45;&gt;CAF#253 -->
<g id="edge8" class="edge"><title>CAF#257-&gt;CAF#253</title>
<path fill="none" stroke="black" stroke-width="2" d="M141.728,-746.086C157.957,-740.658 175.752,-732.145 188,-719 258.039,-643.834 189.559,-572.855 262,-500 278.923,-482.98 303.051,-472.85 325.389,-466.824"/>
<polygon fill="black" stroke="black" points="326.29,-470.206 335.158,-464.409 324.611,-463.411 326.29,-470.206"/>
<text text-anchor="middle" x="225" y="-696" font-family="Sans" font-size="10.00">fixes</text>
</g>
<!-- CAF#256 -->
<g id="node11" class="node"><title>CAF#256</title>
<a xlink:href="https://github.com/quattor/CAF/pull/256" xlink:title="Process: add sensitive option to prevent verbose reporting of the command" target="_parent">
<polygon fill="#6e5494" stroke="black" points="141,-710 63,-710 63,-656 141,-656 141,-710"/>
<text text-anchor="middle" x="102" y="-687" font-family="Sans" font-size="10.00">pull-request</text>
<text text-anchor="middle" x="102" y="-674" font-family="Sans" font-size="10.00">CAF#256</text>
</a>
</g>
<!-- CAF#254 -->
<g id="node13" class="node"><title>CAF#254</title>
<polygon fill="lightgrey" stroke="black" points="419,-402.5 349,-402.5 349,-361.5 419,-361.5 419,-402.5"/>
<text text-anchor="middle" x="384" y="-379.5" font-family="Sans" font-size="10.00">CAF#254</text>
</g>
<!-- CAF#256&#45;&gt;CAF#254 -->
<g id="edge10" class="edge"><title>CAF#256-&gt;CAF#254</title>
<path fill="none" stroke="black" stroke-width="2" d="M141.685,-675.592C158.517,-670.404 176.796,-661.661 188,-647 225.288,-598.204 186.524,-568.242 206,-510 222.032,-462.058 221.595,-441.379 262,-411 283.925,-394.515 313.822,-387.232 338.532,-384.087"/>
<polygon fill="black" stroke="black" points="339.202,-387.535 348.766,-382.977 338.447,-380.576 339.202,-387.535"/>
<text text-anchor="middle" x="225" y="-514" font-family="Sans" font-size="10.00">fixes</text>
</g>
<!-- configuration&#45;modules&#45;core#1182 -->
<g id="node14" class="node"><title>configuration-modules-core#1182</title>
<a xlink:href="https://github.com/quattor/configuration-modules-core/pull/1182" xlink:title="ncm-opennebula: Include 5.4.x configuration" target="_parent">
<polygon fill="#6cc644" stroke="black" points="188,-998 16,-998 16,-944 188,-944 188,-998"/>
<text text-anchor="middle" x="102" y="-975" font-family="Sans" font-size="10.00">pull-request</text>
<text text-anchor="middle" x="102" y="-962" font-family="Sans" font-size="10.00">configuration-modules-core#1182</text>
</a>
</g>
<!-- configuration&#45;modules&#45;core#1139 -->
<g id="node16" class="node"><title>configuration-modules-core#1139</title>
<a xlink:href="https://github.com/quattor/configuration-modules-core/pull/1139" xlink:title="ncm-opennebula: include hugepages options" target="_parent">
<polygon fill="#6e5494" stroke="black" points="470,-998 298,-998 298,-944 470,-944 470,-998"/>
<text text-anchor="middle" x="384" y="-975" font-family="Sans" font-size="10.00">pull-request</text>
<text text-anchor="middle" x="384" y="-962" font-family="Sans" font-size="10.00">configuration-modules-core#1139</text>
</a>
</g>
<!-- configuration&#45;modules&#45;core#1182&#45;&gt;configuration&#45;modules&#45;core#1139 -->
<g id="edge12" class="edge"><title>configuration-modules-core#1182-&gt;configuration-modules-core#1139</title>
<path fill="none" stroke="black" stroke-dasharray="5,2" d="M188.142,-971C219.565,-971 255.296,-971 287.558,-971"/>
<polygon fill="none" stroke="black" points="287.9,-974.5 297.9,-971 287.9,-967.5 287.9,-974.5"/>
<text text-anchor="middle" x="225" y="-975" font-family="Sans" font-size="10.00">requires</text>
</g>
<!-- configuration&#45;modules&#45;core#1171 -->
<g id="node17" class="node"><title>configuration-modules-core#1171</title>
<a xlink:href="https://github.com/quattor/configuration-modules-core/pull/1171" xlink:title="ncm-cups enhancements and cleanups" target="_parent">
<polygon fill="#6e5494" stroke="black" points="188,-926 16,-926 16,-872 188,-872 188,-926"/>
<text text-anchor="middle" x="102" y="-903" font-family="Sans" font-size="10.00">pull-request</text>
<text text-anchor="middle" x="102" y="-890" font-family="Sans" font-size="10.00">configuration-modules-core#1171</text>
</a>
</g>
<!-- configuration&#45;modules&#45;core#1164 -->
<g id="node19" class="node"><title>configuration-modules-core#1164</title>
<a xlink:href="https://github.com/quattor/configuration-modules-core/issues/1164" xlink:title="ncm-cups 17.7.0: configuration of ServerAlias + miscellanous enhancements" target="_parent">
<ellipse fill="#bd2c00" stroke="black" cx="384" cy="-888" rx="121.122" ry="38.1838"/>
<text text-anchor="middle" x="384" y="-892" font-family="Sans" font-size="10.00">issue</text>
<text text-anchor="middle" x="384" y="-879" font-family="Sans" font-size="10.00">configuration-modules-core#1164</text>
</a>
</g>
<!-- configuration&#45;modules&#45;core#1171&#45;&gt;configuration&#45;modules&#45;core#1164 -->
<g id="edge14" class="edge"><title>configuration-modules-core#1171-&gt;configuration-modules-core#1164</title>
<path fill="none" stroke="black" stroke-width="2" d="M188.142,-895.64C208.719,-894.837 231.144,-893.962 253.232,-893.101"/>
<polygon fill="black" stroke="black" points="253.493,-896.593 263.349,-892.706 253.22,-889.599 253.493,-896.593"/>
<text text-anchor="middle" x="225" y="-898" font-family="Sans" font-size="10.00">fixes</text>
</g>
<!-- configuration&#45;modules&#45;core#1149 -->
<g id="node20" class="node"><title>configuration-modules-core#1149</title>
<a xlink:href="https://github.com/quattor/configuration-modules-core/pull/1149" xlink:title="ncm-metaconfig: rsyslog: rainer script configuration" target="_parent">
<polygon fill="#6e5494" stroke="black" points="188,-638 16,-638 16,-584 188,-584 188,-638"/>
<text text-anchor="middle" x="102" y="-615" font-family="Sans" font-size="10.00">pull-request</text>
<text text-anchor="middle" x="102" y="-602" font-family="Sans" font-size="10.00">configuration-modules-core#1149</text>
</a>
</g>
<!-- configuration&#45;modules&#45;core#1126 -->
<g id="node22" class="node"><title>configuration-modules-core#1126</title>
<polygon fill="lightgrey" stroke="black" points="470,-344.5 298,-344.5 298,-303.5 470,-303.5 470,-344.5"/>
<text text-anchor="middle" x="384" y="-321.5" font-family="Sans" font-size="10.00">configuration-modules-core#1126</text>
</g>
<!-- configuration&#45;modules&#45;core#1149&#45;&gt;configuration&#45;modules&#45;core#1126 -->
<g id="edge16" class="edge"><title>configuration-modules-core#1149-&gt;configuration-modules-core#1126</title>
<path fill="none" stroke="black" stroke-dasharray="5,2" d="M179.904,-583.97C182.898,-581.259 185.627,-578.278 188,-575 217.802,-533.83 170.966,-383.82 206,-347 226.841,-325.096 257.455,-316.492 287.44,-314.253"/>
<polygon fill="none" stroke="black" points="287.764,-317.741 297.57,-313.728 287.402,-310.751 287.764,-317.741"/>
<text text-anchor="middle" x="225" y="-351" font-family="Sans" font-size="10.00">requires</text>
</g>
<!-- configuration&#45;modules&#45;core#1119 -->
<g id="node23" class="node"><title>configuration-modules-core#1119</title>
<a xlink:href="https://github.com/quattor/configuration-modules-core/pull/1119" xlink:title="ncm-systemd: cleanup, restarting modified unitfiles and initial handling of unconfigured units" target="_parent">
<polygon fill="#6e5494" stroke="black" points="188,-854 16,-854 16,-800 188,-800 188,-854"/>
<text text-anchor="middle" x="102" y="-831" font-family="Sans" font-size="10.00">pull-request</text>
<text text-anchor="middle" x="102" y="-818" font-family="Sans" font-size="10.00">configuration-modules-core#1119</text>
</a>
</g>
<!-- configuration&#45;modules&#45;core#1095 -->
<g id="node25" class="node"><title>configuration-modules-core#1095</title>
<a xlink:href="https://github.com/quattor/configuration-modules-core/issues/1095" xlink:title="ncm-systemd: Manual intervention required in order for drop-in unit files to have any affect" target="_parent">
<ellipse fill="#6cc644" stroke="black" cx="384" cy="-794" rx="121.122" ry="38.1838"/>
<text text-anchor="middle" x="384" y="-798" font-family="Sans" font-size="10.00">issue</text>
<text text-anchor="middle" x="384" y="-785" font-family="Sans" font-size="10.00">configuration-modules-core#1095</text>
</a>
</g>
<!-- configuration&#45;modules&#45;core#1119&#45;&gt;configuration&#45;modules&#45;core#1095 -->
<g id="edge18" class="edge"><title>configuration-modules-core#1119-&gt;configuration-modules-core#1095</title>
<path fill="none" stroke="black" stroke-width="2" d="M188.142,-816.92C210.848,-814.262 235.803,-811.342 260.074,-808.502"/>
<polygon fill="black" stroke="black" points="260.533,-811.972 270.059,-807.334 259.72,-805.02 260.533,-811.972"/>
<text text-anchor="middle" x="225" y="-818" font-family="Sans" font-size="10.00">fixes</text>
</g>
<!-- configuration&#45;modules&#45;core#1058 -->
<g id="node26" class="node"><title>configuration-modules-core#1058</title>
<a xlink:href="https://github.com/quattor/configuration-modules-core/pull/1058" xlink:title="ncm-ssh: disable insecure ssh ciphersuites and macs" target="_parent">
<polygon fill="#6cc644" stroke="black" points="188,-566 16,-566 16,-512 188,-512 188,-566"/>
<text text-anchor="middle" x="102" y="-543" font-family="Sans" font-size="10.00">pull-request</text>
<text text-anchor="middle" x="102" y="-530" font-family="Sans" font-size="10.00">configuration-modules-core#1058</text>
</a>
</g>
<!-- configuration&#45;modules&#45;core#983 -->
<g id="node28" class="node"><title>configuration-modules-core#983</title>
<polygon fill="lightgrey" stroke="black" points="467,-286.5 301,-286.5 301,-245.5 467,-245.5 467,-286.5"/>
<text text-anchor="middle" x="384" y="-263.5" font-family="Sans" font-size="10.00">configuration-modules-core#983</text>
</g>
<!-- configuration&#45;modules&#45;core#1058&#45;&gt;configuration&#45;modules&#45;core#983 -->
<g id="edge20" class="edge"><title>configuration-modules-core#1058-&gt;configuration-modules-core#983</title>
<path fill="none" stroke="black" stroke-dasharray="1,5" d="M104.595,-511.856C111.177,-459.392 133.54,-344.375 206,-289 229.697,-270.89 260.557,-263.108 289.911,-260.461"/>
<polygon fill="black" stroke="black" points="300.216,-259.73 290.56,-264.926 295.229,-260.084 290.241,-260.437 290.241,-260.437 290.241,-260.437 295.229,-260.084 289.923,-255.949 300.216,-259.73 300.216,-259.73"/>
<text text-anchor="middle" x="225" y="-293" font-family="Sans" font-size="10.00">replaces</text>
</g>
</g>
</svg>
