<?xml version="1.0" encoding="UTF-8" standalone="no"?>
<?xml-stylesheet href="relationships.css" type="text/css"?>
<!-- Generated by graphviz version 2.40.1 (0)
 -->
<!-- Title: Dependencies Pages: 1 -->
<svg xmlns="http://www.w3.org/2000/svg" xmlns:xlink="http://www.w3.org/1999/xlink" width="1070pt" height="1804pt" viewBox="0.00 0.00 1070.00 1803.50">
<g id="graph0" class="graph" transform="scale(1 1) rotate(0) translate(4 1799.5)">
<title>Dependencies</title>
<polygon fill="#ffffff" stroke="transparent" points="-4,4 -4,-1799.5 1066,-1799.5 1066,4 -4,4"/>
<g id="clust1" class="cluster">
<title>cluster_milestone_25.next</title>
<polygon fill="none" stroke="#000000" points="292,-275.5 292,-1463.5 1054,-1463.5 1054,-275.5 292,-275.5"/>
<text text-anchor="middle" x="673" y="-1449.9" font-family="Sans" font-size="12.00" fill="#000000">25.next</text>
</g>
<!-- aii#328 -->
<g id="node1" class="node">
<title>aii#328</title>
<g id="a_node1"><a xlink:href="https://github.com/quattor/aii/pull/328" xlink:title="aii#328 (pull-request)" target="_parent">
<polygon fill="#6cc644" stroke="#000000" points="473,-537.5 308,-537.5 308,-487.5 473,-487.5 473,-537.5"/>
<text text-anchor="middle" x="390.5" y="-515.5" font-family="Sans" font-size="10.00" fill="#000000">aii-ks: generate ks post section</text>
<text text-anchor="middle" x="390.5" y="-504.5" font-family="Sans" font-size="10.00" fill="#000000">as standalone script</text>
</a>
</g>
</g>
<!-- aii#280 -->
<g id="node2" class="node">
<title>aii#280</title>
<polygon fill="#d3d3d3" stroke="#000000" points="710.5,-267 651.5,-267 651.5,-228 710.5,-228 710.5,-267"/>
<text text-anchor="middle" x="681" y="-245" font-family="Sans" font-size="10.00" fill="#000000">aii#280</text>
</g>
<!-- aii#328&#45;&gt;aii#280 -->
<g id="edge1" class="edge">
<title>aii#328-&gt;aii#280</title>
<path fill="none" stroke="#000000" stroke-dasharray="5,2" d="M473.0595,-487.8936C477.6554,-485.0855 482.0166,-481.9654 486,-478.5 564.2893,-410.3914 513.282,-336.7119 594,-271.5 607.2971,-260.7573 625.062,-254.8121 641.0713,-251.5265"/>
<polygon fill="none" stroke="#000000" points="642.0333,-254.9109 651.2736,-249.7277 640.8178,-248.0173 642.0333,-254.9109"/>
<text text-anchor="middle" x="523.5404" y="-356.4673" font-family="Sans" font-size="10.00" fill="#000000">requires</text>
</g>
<!-- aii#316 -->
<g id="node3" class="node">
<title>aii#316</title>
<polygon fill="#d3d3d3" stroke="#000000" points="710.5,-210 651.5,-210 651.5,-171 710.5,-171 710.5,-210"/>
<text text-anchor="middle" x="681" y="-188" font-family="Sans" font-size="10.00" fill="#000000">aii#316</text>
</g>
<!-- aii#328&#45;&gt;aii#316 -->
<g id="edge2" class="edge">
<title>aii#328-&gt;aii#316</title>
<path fill="none" stroke="#000000" stroke-dasharray="5,2" d="M473.4214,-488.2918C477.9287,-485.3862 482.1714,-482.1357 486,-478.5 576.7351,-392.3361 501.9548,-303.263 594,-218.5 606.9523,-206.5725 625.0227,-199.7243 641.3405,-195.7931"/>
<polygon fill="none" stroke="#000000" points="642.1546,-199.1985 651.2127,-193.703 640.7046,-192.3502 642.1546,-199.1985"/>
<text text-anchor="middle" x="522.9015" y="-330.7735" font-family="Sans" font-size="10.00" fill="#000000">requires</text>
</g>
<!-- aii#299 -->
<g id="node4" class="node">
<title>aii#299</title>
<g id="a_node4"><a xlink:href="https://github.com/quattor/aii/pull/299" xlink:title="aii#299 (pull-request)" target="_parent">
<polygon fill="#6cc644" stroke="#000000" points="459,-605.5 322,-605.5 322,-555.5 459,-555.5 459,-605.5"/>
<text text-anchor="middle" x="390.5" y="-583.5" font-family="Sans" font-size="10.00" fill="#000000">aii-dhcp: support optional</text>
<text text-anchor="middle" x="390.5" y="-572.5" font-family="Sans" font-size="10.00" fill="#000000">hostname ip verification</text>
</a>
</g>
</g>
<!-- aii#299&#45;&gt;aii#280 -->
<g id="edge3" class="edge">
<title>aii#299-&gt;aii#280</title>
<path fill="none" stroke="#000000" stroke-dasharray="5,2" d="M459.3809,-564.1451C469.138,-559.6156 478.414,-553.8456 486,-546.5 580.3325,-455.1564 496.4031,-359.3471 594,-271.5 606.923,-259.868 624.9896,-253.8107 641.3123,-250.6809"/>
<polygon fill="none" stroke="#000000" points="641.8742,-254.1356 651.1887,-249.0867 640.7587,-247.225 641.8742,-254.1356"/>
<text text-anchor="middle" x="521.4174" y="-397.5165" font-family="Sans" font-size="10.00" fill="#000000">requires</text>
</g>
<!-- aii#331 -->
<g id="node5" class="node">
<title>aii#331</title>
<g id="a_node5"><a xlink:href="https://github.com/quattor/aii/pull/331" xlink:title="aii#331 (pull-request)" target="_parent">
<polygon fill="#6cc644" stroke="#000000" points="157.5,-543 29.5,-543 29.5,-482 157.5,-482 157.5,-543"/>
<text text-anchor="middle" x="93.5" y="-521" font-family="Sans" font-size="10.00" fill="#000000">let aii generate ansible</text>
<text text-anchor="middle" x="93.5" y="-510" font-family="Sans" font-size="10.00" fill="#000000">playbook for supported</text>
<text text-anchor="middle" x="93.5" y="-499" font-family="Sans" font-size="10.00" fill="#000000">components</text>
</a>
</g>
</g>
<!-- aii#331&#45;&gt;aii#328 -->
<g id="edge4" class="edge">
<title>aii#331-&gt;aii#328</title>
<path fill="none" stroke="#000000" stroke-dasharray="5,2" d="M157.5789,-512.5C198.4814,-512.5 252.1793,-512.5 297.7071,-512.5"/>
<polygon fill="none" stroke="#000000" points="297.8877,-516.0001 307.8876,-512.5 297.8876,-509.0001 297.8877,-516.0001"/>
<text text-anchor="middle" x="215.2358" y="-504.5" font-family="Sans" font-size="10.00" fill="#000000">requires</text>
</g>
<!-- CAF#257 -->
<g id="node6" class="node">
<title>CAF#257</title>
<g id="a_node6"><a xlink:href="https://github.com/quattor/CAF/pull/257" xlink:title="CAF#257 (pull-request)" target="_parent">
<polygon fill="#6cc644" stroke="#000000" points="475.5,-1434.5 305.5,-1434.5 305.5,-1384.5 475.5,-1384.5 475.5,-1434.5"/>
<text text-anchor="middle" x="390.5" y="-1412.5" font-family="Sans" font-size="10.00" fill="#000000">Process: run process as another</text>
<text text-anchor="middle" x="390.5" y="-1401.5" font-family="Sans" font-size="10.00" fill="#000000">user</text>
</a>
</g>
</g>
<!-- CAF#253 -->
<g id="node7" class="node">
<title>CAF#253</title>
<g id="a_node7"><a xlink:href="https://github.com/quattor/CAF/issues/253" xlink:title="CAF#253 (issue)" target="_parent">
<path fill="#6cc644" stroke="#000000" d="M754.5,-1434C754.5,-1434 607.5,-1434 607.5,-1434 601.5,-1434 595.5,-1428 595.5,-1422 595.5,-1422 595.5,-1385 595.5,-1385 595.5,-1379 601.5,-1373 607.5,-1373 607.5,-1373 754.5,-1373 754.5,-1373 760.5,-1373 766.5,-1379 766.5,-1385 766.5,-1385 766.5,-1422 766.5,-1422 766.5,-1428 760.5,-1434 754.5,-1434"/>
<text text-anchor="middle" x="681" y="-1412" font-family="Sans" font-size="10.00" fill="#000000">CAF::Process: Include an option</text>
<text text-anchor="middle" x="681" y="-1401" font-family="Sans" font-size="10.00" fill="#000000">to execute the command as an</text>
<text text-anchor="middle" x="681" y="-1390" font-family="Sans" font-size="10.00" fill="#000000">specific user</text>
</a>
</g>
</g>
<!-- CAF#257&#45;&gt;CAF#253 -->
<g id="edge5" class="edge">
<title>CAF#257-&gt;CAF#253</title>
<path fill="none" stroke="#000000" stroke-width="2" d="M475.6967,-1407.7403C509.9815,-1407.0322 549.6842,-1406.2122 584.9861,-1405.4831"/>
<polygon fill="#000000" stroke="#000000" stroke-width="2" points="585.3766,-1408.9759 595.3022,-1405.27 585.232,-1401.9773 585.3766,-1408.9759"/>
<text text-anchor="middle" x="524.6372" y="-1398.5023" font-family="Sans" font-size="10.00" fill="#000000">fixes</text>
</g>
<!-- CAF#110 -->
<g id="node8" class="node">
<title>CAF#110</title>
<g id="a_node8"><a xlink:href="https://github.com/quattor/CAF/pull/110" xlink:title="CAF#110 (pull-request)" target="_parent">
<polygon fill="#6cc644" stroke="#000000" points="463.5,-469.5 317.5,-469.5 317.5,-419.5 463.5,-419.5 463.5,-469.5"/>
<text text-anchor="middle" x="390.5" y="-447.5" font-family="Sans" font-size="10.00" fill="#000000">CAF::Download class: API</text>
<text text-anchor="middle" x="390.5" y="-436.5" font-family="Sans" font-size="10.00" fill="#000000">proposal</text>
</a>
</g>
</g>
<!-- CAF#120 -->
<g id="node9" class="node">
<title>CAF#120</title>
<polygon fill="#d3d3d3" stroke="#000000" points="716,-153 646,-153 646,-114 716,-114 716,-153"/>
<text text-anchor="middle" x="681" y="-131" font-family="Sans" font-size="10.00" fill="#000000">CAF#120</text>
</g>
<!-- CAF#110&#45;&gt;CAF#120 -->
<g id="edge6" class="edge">
<title>CAF#110-&gt;CAF#120</title>
<path fill="none" stroke="#000000" stroke-dasharray="5,2" d="M463.5266,-425.8029C471.7093,-421.6668 479.4436,-416.6299 486,-410.5 574.1149,-328.1175 504.6327,-242.5222 594,-161.5 605.5568,-151.0224 621.0681,-144.4628 635.7922,-140.3572"/>
<polygon fill="none" stroke="#000000" points="636.9306,-143.6814 645.8017,-137.8889 635.2546,-136.8849 636.9306,-143.6814"/>
<text text-anchor="middle" x="522.655" y="-272.0995" font-family="Sans" font-size="10.00" fill="#000000">requires</text>
</g>
<!-- CCM#216 -->
<g id="node10" class="node">
<title>CCM#216</title>
<g id="a_node10"><a xlink:href="https://github.com/quattor/CCM/pull/216" xlink:title="CCM#216 (pull-request)" target="_parent">
<polygon fill="#6e5494" stroke="#000000" points="468,-1366.5 313,-1366.5 313,-1316.5 468,-1316.5 468,-1366.5"/>
<text text-anchor="middle" x="390.5" y="-1344.5" font-family="Sans" font-size="10.00" fill="#000000">ProfileCache: Include type in</text>
<text text-anchor="middle" x="390.5" y="-1333.5" font-family="Sans" font-size="10.00" fill="#000000">checksum calculation</text>
</a>
</g>
</g>
<!-- CCM#213 -->
<g id="node11" class="node">
<title>CCM#213</title>
<g id="a_node11"><a xlink:href="https://github.com/quattor/CCM/issues/213" xlink:title="CCM#213 (issue)" target="_parent">
<path fill="#6e5494" stroke="#000000" d="M740.5,-1354.5C740.5,-1354.5 621.5,-1354.5 621.5,-1354.5 615.5,-1354.5 609.5,-1348.5 609.5,-1342.5 609.5,-1342.5 609.5,-1316.5 609.5,-1316.5 609.5,-1310.5 615.5,-1304.5 621.5,-1304.5 621.5,-1304.5 740.5,-1304.5 740.5,-1304.5 746.5,-1304.5 752.5,-1310.5 752.5,-1316.5 752.5,-1316.5 752.5,-1342.5 752.5,-1342.5 752.5,-1348.5 746.5,-1354.5 740.5,-1354.5"/>
<text text-anchor="middle" x="681" y="-1332.5" font-family="Sans" font-size="10.00" fill="#000000">Include type information in</text>
<text text-anchor="middle" x="681" y="-1321.5" font-family="Sans" font-size="10.00" fill="#000000">checksum computation</text>
</a>
</g>
</g>
<!-- CCM#216&#45;&gt;CCM#213 -->
<g id="edge7" class="edge">
<title>CCM#216-&gt;CCM#213</title>
<path fill="none" stroke="#000000" stroke-width="2" d="M468.3487,-1338.2842C508.7868,-1336.6138 558.1807,-1334.5734 599.1824,-1332.8797"/>
<polygon fill="#000000" stroke="#000000" stroke-width="2" points="599.5682,-1336.3669 609.4152,-1332.457 599.2793,-1329.3728 599.5682,-1336.3669"/>
<text text-anchor="middle" x="527.8346" y="-1327.3726" font-family="Sans" font-size="10.00" fill="#000000">fixes</text>
</g>
<!-- CCM#215 -->
<g id="node12" class="node">
<title>CCM#215</title>
<g id="a_node12"><a xlink:href="https://github.com/quattor/CCM/pull/215" xlink:title="CCM#215 (pull-request)" target="_parent">
<polygon fill="#6e5494" stroke="#000000" points="459,-1298 322,-1298 322,-1259 459,-1259 459,-1298"/>
<text text-anchor="middle" x="390.5" y="-1276" font-family="Sans" font-size="10.00" fill="#000000">Remove description field</text>
</a>
</g>
</g>
<!-- CCM#214 -->
<g id="node13" class="node">
<title>CCM#214</title>
<g id="a_node13"><a xlink:href="https://github.com/quattor/CCM/pull/214" xlink:title="CCM#214 (pull-request)" target="_parent">
<polygon fill="#6e5494" stroke="#000000" points="750,-1286.5 612,-1286.5 612,-1236.5 750,-1236.5 750,-1286.5"/>
<text text-anchor="middle" x="681" y="-1264.5" font-family="Sans" font-size="10.00" fill="#000000">Strip out all references to</text>
<text text-anchor="middle" x="681" y="-1253.5" font-family="Sans" font-size="10.00" fill="#000000">derivation</text>
</a>
</g>
</g>
<!-- CCM#215&#45;&gt;CCM#214 -->
<g id="edge8" class="edge">
<title>CCM#215-&gt;CCM#214</title>
<path fill="none" stroke="#000000" stroke-dasharray="5,2" d="M459.3444,-1274.4712C502.0725,-1271.9708 557.1323,-1268.7487 601.6857,-1266.1415"/>
<polygon fill="none" stroke="#000000" points="602.1167,-1269.6223 611.8951,-1265.544 601.7077,-1262.6343 602.1167,-1269.6223"/>
<text text-anchor="middle" x="518.1166" y="-1262.0078" font-family="Sans" font-size="10.00" fill="#000000">requires</text>
</g>
<!-- CCM#134 -->
<g id="node14" class="node">
<title>CCM#134</title>
<g id="a_node14"><a xlink:href="https://github.com/quattor/CCM/issues/134" xlink:title="CCM#134 (issue)" target="_parent">
<path fill="#6e5494" stroke="#000000" d="M1034,-1281C1034,-1281 888,-1281 888,-1281 882,-1281 876,-1275 876,-1269 876,-1269 876,-1254 876,-1254 876,-1248 882,-1242 888,-1242 888,-1242 1034,-1242 1034,-1242 1040,-1242 1046,-1248 1046,-1254 1046,-1254 1046,-1269 1046,-1269 1046,-1275 1040,-1281 1034,-1281"/>
<text text-anchor="middle" x="961" y="-1259" font-family="Sans" font-size="10.00" fill="#000000">Remove references to derivation</text>
</a>
</g>
</g>
<!-- CCM#214&#45;&gt;CCM#134 -->
<g id="edge9" class="edge">
<title>CCM#214-&gt;CCM#134</title>
<path fill="none" stroke="#000000" stroke-width="2" d="M750.2135,-1261.5C785.0744,-1261.5 827.8819,-1261.5 865.7915,-1261.5"/>
<polygon fill="#000000" stroke="#000000" stroke-width="2" points="865.8281,-1265.0001 875.828,-1261.5 865.828,-1258.0001 865.8281,-1265.0001"/>
<text text-anchor="middle" x="801.9016" y="-1253.5" font-family="Sans" font-size="10.00" fill="#000000">fixes</text>
</g>
<!-- configuration&#45;modules&#45;core#1810 -->
<g id="node15" class="node">
<title>configuration-modules-core#1810</title>
<g id="a_node15"><a xlink:href="https://github.com/quattor/configuration-modules-core/pull/1810" xlink:title="configuration-modules-core#1810 (pull-request)" target="_parent">
<polygon fill="#6cc644" stroke="#000000" points="477,-1240.5 304,-1240.5 304,-1190.5 477,-1190.5 477,-1240.5"/>
<text text-anchor="middle" x="390.5" y="-1218.5" font-family="Sans" font-size="10.00" fill="#000000">ncm-metaconfig: updated filebeat</text>
<text text-anchor="middle" x="390.5" y="-1207.5" font-family="Sans" font-size="10.00" fill="#000000">7.x schema to fix #1728</text>
</a>
</g>
</g>
<!-- configuration&#45;modules&#45;core#1728 -->
<g id="node16" class="node">
<title>configuration-modules-core#1728</title>
<g id="a_node16"><a xlink:href="https://github.com/quattor/configuration-modules-core/issues/1728" xlink:title="configuration-modules-core#1728 (issue)" target="_parent">
<path fill="#6cc644" stroke="#000000" d="M756,-1218C756,-1218 606,-1218 606,-1218 600,-1218 594,-1212 594,-1206 594,-1206 594,-1169 594,-1169 594,-1163 600,-1157 606,-1157 606,-1157 756,-1157 756,-1157 762,-1157 768,-1163 768,-1169 768,-1169 768,-1206 768,-1206 768,-1212 762,-1218 756,-1218"/>
<text text-anchor="middle" x="681" y="-1196" font-family="Sans" font-size="10.00" fill="#000000">ncm-metaconfig: fixing filebeat</text>
<text text-anchor="middle" x="681" y="-1185" font-family="Sans" font-size="10.00" fill="#000000">schema 7.0 and adding additional</text>
<text text-anchor="middle" x="681" y="-1174" font-family="Sans" font-size="10.00" fill="#000000">processor</text>
</a>
</g>
</g>
<!-- configuration&#45;modules&#45;core#1810&#45;&gt;configuration&#45;modules&#45;core#1728 -->
<g id="edge10" class="edge">
<title>configuration-modules-core#1810-&gt;configuration-modules-core#1728</title>
<path fill="none" stroke="#000000" stroke-width="2" d="M477.2661,-1207.137C510.8191,-1203.903 549.3704,-1200.1872 583.8466,-1196.8642"/>
<polygon fill="#000000" stroke="#000000" stroke-width="2" points="584.3104,-1200.3358 593.9285,-1195.8924 583.6388,-1193.3681 584.3104,-1200.3358"/>
<text text-anchor="middle" x="524.74" y="-1193.501" font-family="Sans" font-size="10.00" fill="#000000">fixes</text>
</g>
<!-- configuration&#45;modules&#45;core#1788 -->
<g id="node17" class="node">
<title>configuration-modules-core#1788</title>
<g id="a_node17"><a xlink:href="https://github.com/quattor/configuration-modules-core/pull/1788" xlink:title="configuration-modules-core#1788 (pull-request)" target="_parent">
<polygon fill="#6e5494" stroke="#000000" points="461.5,-1172.5 319.5,-1172.5 319.5,-1122.5 461.5,-1122.5 461.5,-1172.5"/>
<text text-anchor="middle" x="390.5" y="-1150.5" font-family="Sans" font-size="10.00" fill="#000000">ncm-systemd: ensure unit</text>
<text text-anchor="middle" x="390.5" y="-1139.5" font-family="Sans" font-size="10.00" fill="#000000">property is defined</text>
</a>
</g>
</g>
<!-- configuration&#45;modules&#45;core#1787 -->
<g id="node18" class="node">
<title>configuration-modules-core#1787</title>
<g id="a_node18"><a xlink:href="https://github.com/quattor/configuration-modules-core/issues/1787" xlink:title="configuration-modules-core#1787 (issue)" target="_parent">
<path fill="#6e5494" stroke="#000000" d="M754,-1138.5C754,-1138.5 608,-1138.5 608,-1138.5 602,-1138.5 596,-1132.5 596,-1126.5 596,-1126.5 596,-1100.5 596,-1100.5 596,-1094.5 602,-1088.5 608,-1088.5 608,-1088.5 754,-1088.5 754,-1088.5 760,-1088.5 766,-1094.5 766,-1100.5 766,-1100.5 766,-1126.5 766,-1126.5 766,-1132.5 760,-1138.5 754,-1138.5"/>
<text text-anchor="middle" x="681" y="-1116.5" font-family="Sans" font-size="10.00" fill="#000000">ncm-systemd 24.10.0: validation</text>
<text text-anchor="middle" x="681" y="-1105.5" font-family="Sans" font-size="10.00" fill="#000000">fails if no unit is defined</text>
</a>
</g>
</g>
<!-- configuration&#45;modules&#45;core#1788&#45;&gt;configuration&#45;modules&#45;core#1787 -->
<g id="edge11" class="edge">
<title>configuration-modules-core#1788-&gt;configuration-modules-core#1787</title>
<path fill="none" stroke="#000000" stroke-width="2" d="M461.5643,-1139.1827C498.9606,-1134.8058 545.325,-1129.3793 585.7877,-1124.6436"/>
<polygon fill="#000000" stroke="#000000" stroke-width="2" points="586.4132,-1128.0944 595.9386,-1123.4556 585.5995,-1121.1418 586.4132,-1128.0944"/>
<text text-anchor="middle" x="518.033" y="-1123.2862" font-family="Sans" font-size="10.00" fill="#000000">fixes</text>
</g>
<!-- configuration&#45;modules&#45;core#1783 -->
<g id="node19" class="node">
<title>configuration-modules-core#1783</title>
<g id="a_node19"><a xlink:href="https://github.com/quattor/configuration-modules-core/pull/1783" xlink:title="configuration-modules-core#1783 (pull-request)" target="_parent">
<polygon fill="#6cc644" stroke="#000000" points="475.5,-1104 305.5,-1104 305.5,-1043 475.5,-1043 475.5,-1104"/>
<text text-anchor="middle" x="390.5" y="-1082" font-family="Sans" font-size="10.00" fill="#000000">metaconfig/named: fix validation</text>
<text text-anchor="middle" x="390.5" y="-1071" font-family="Sans" font-size="10.00" fill="#000000">of logging channels in</text>
<text text-anchor="middle" x="390.5" y="-1060" font-family="Sans" font-size="10.00" fill="#000000">categories</text>
</a>
</g>
</g>
<!-- configuration&#45;modules&#45;core#1784 -->
<g id="node20" class="node">
<title>configuration-modules-core#1784</title>
<g id="a_node20"><a xlink:href="https://github.com/quattor/configuration-modules-core/issues/1784" xlink:title="configuration-modules-core#1784 (issue)" target="_parent">
<path fill="#6cc644" stroke="#000000" d="M752.5,-1070C752.5,-1070 609.5,-1070 609.5,-1070 603.5,-1070 597.5,-1064 597.5,-1058 597.5,-1058 597.5,-1021 597.5,-1021 597.5,-1015 603.5,-1009 609.5,-1009 609.5,-1009 752.5,-1009 752.5,-1009 758.5,-1009 764.5,-1015 764.5,-1021 764.5,-1021 764.5,-1058 764.5,-1058 764.5,-1064 758.5,-1070 752.5,-1070"/>
<text text-anchor="middle" x="681" y="-1048" font-family="Sans" font-size="10.00" fill="#000000">ncm-metaconfig 24.10.0 named</text>
<text text-anchor="middle" x="681" y="-1037" font-family="Sans" font-size="10.00" fill="#000000">module: error in logging channel</text>
<text text-anchor="middle" x="681" y="-1026" font-family="Sans" font-size="10.00" fill="#000000">name validation</text>
</a>
</g>
</g>
<!-- configuration&#45;modules&#45;core#1783&#45;&gt;configuration&#45;modules&#45;core#1784 -->
<g id="edge12" class="edge">
<title>configuration-modules-core#1783-&gt;configuration-modules-core#1784</title>
<path fill="none" stroke="#000000" stroke-width="2" d="M475.6967,-1063.5286C510.7408,-1059.4271 551.4454,-1054.663 587.3249,-1050.4637"/>
<polygon fill="#000000" stroke="#000000" stroke-width="2" points="587.7827,-1053.9341 597.308,-1049.2953 586.9689,-1046.9815 587.7827,-1053.9341"/>
<text text-anchor="middle" x="525.5546" y="-1048.4058" font-family="Sans" font-size="10.00" fill="#000000">fixes</text>
</g>
<!-- configuration&#45;modules&#45;core#1739 -->
<g id="node21" class="node">
<title>configuration-modules-core#1739</title>
<g id="a_node21"><a xlink:href="https://github.com/quattor/configuration-modules-core/pull/1739" xlink:title="configuration-modules-core#1739 (pull-request)" target="_parent">
<polygon fill="#6cc644" stroke="#000000" points="474.5,-1025 306.5,-1025 306.5,-964 474.5,-964 474.5,-1025"/>
<text text-anchor="middle" x="390.5" y="-1003" font-family="Sans" font-size="10.00" fill="#000000">ncm-network: dropin file support</text>
<text text-anchor="middle" x="390.5" y="-992" font-family="Sans" font-size="10.00" fill="#000000">for main configuration of</text>
<text text-anchor="middle" x="390.5" y="-981" font-family="Sans" font-size="10.00" fill="#000000">NetworkManager</text>
</a>
</g>
</g>
<!-- configuration&#45;modules&#45;core#1740 -->
<g id="node22" class="node">
<title>configuration-modules-core#1740</title>
<g id="a_node22"><a xlink:href="https://github.com/quattor/configuration-modules-core/issues/1740" xlink:title="configuration-modules-core#1740 (issue)" target="_parent">
<path fill="#6cc644" stroke="#000000" d="M742,-991C742,-991 620,-991 620,-991 614,-991 608,-985 608,-979 608,-979 608,-942 608,-942 608,-936 614,-930 620,-930 620,-930 742,-930 742,-930 748,-930 754,-936 754,-942 754,-942 754,-979 754,-979 754,-985 748,-991 742,-991"/>
<text text-anchor="middle" x="681" y="-969" font-family="Sans" font-size="10.00" fill="#000000">ncm-network - capability to</text>
<text text-anchor="middle" x="681" y="-958" font-family="Sans" font-size="10.00" fill="#000000">manage main section of</text>
<text text-anchor="middle" x="681" y="-947" font-family="Sans" font-size="10.00" fill="#000000">NetworkManager.conf</text>
</a>
</g>
</g>
<!-- configuration&#45;modules&#45;core#1739&#45;&gt;configuration&#45;modules&#45;core#1740 -->
<g id="edge13" class="edge">
<title>configuration-modules-core#1739-&gt;configuration-modules-core#1740</title>
<path fill="none" stroke="#000000" stroke-width="2" d="M474.5246,-984.6658C513.1344,-980.1469 558.8088,-974.8012 597.3702,-970.288"/>
<polygon fill="#000000" stroke="#000000" stroke-width="2" points="598.0021,-973.738 607.5274,-969.0992 597.1883,-966.7855 598.0021,-973.738"/>
<text text-anchor="middle" x="529.9017" y="-968.897" font-family="Sans" font-size="10.00" fill="#000000">fixes</text>
</g>
<!-- configuration&#45;modules&#45;core#1554 -->
<g id="node23" class="node">
<title>configuration-modules-core#1554</title>
<g id="a_node23"><a xlink:href="https://github.com/quattor/configuration-modules-core/pull/1554" xlink:title="configuration-modules-core#1554 (pull-request)" target="_parent">
<polygon fill="#6cc644" stroke="#000000" points="466.5,-945.5 314.5,-945.5 314.5,-895.5 466.5,-895.5 466.5,-945.5"/>
<text text-anchor="middle" x="390.5" y="-923.5" font-family="Sans" font-size="10.00" fill="#000000">avoid removing empty list of</text>
<text text-anchor="middle" x="390.5" y="-912.5" font-family="Sans" font-size="10.00" fill="#000000">packages</text>
</a>
</g>
</g>
<!-- configuration&#45;modules&#45;core#1553 -->
<g id="node24" class="node">
<title>configuration-modules-core#1553</title>
<g id="a_node24"><a xlink:href="https://github.com/quattor/configuration-modules-core/issues/1553" xlink:title="configuration-modules-core#1553 (issue)" target="_parent">
<path fill="#6cc644" stroke="#000000" d="M753,-912C753,-912 609,-912 609,-912 603,-912 597,-906 597,-900 597,-900 597,-863 597,-863 597,-857 603,-851 609,-851 609,-851 753,-851 753,-851 759,-851 765,-857 765,-863 765,-863 765,-900 765,-900 765,-906 759,-912 753,-912"/>
<text text-anchor="middle" x="681" y="-890" font-family="Sans" font-size="10.00" fill="#000000">ncm-spma: update_pkgs in yum</text>
<text text-anchor="middle" x="681" y="-879" font-family="Sans" font-size="10.00" fill="#000000">plugin tries to remove empty</text>
<text text-anchor="middle" x="681" y="-868" font-family="Sans" font-size="10.00" fill="#000000">list of packages</text>
</a>
</g>
</g>
<!-- configuration&#45;modules&#45;core#1554&#45;&gt;configuration&#45;modules&#45;core#1553 -->
<g id="edge14" class="edge">
<title>configuration-modules-core#1554-&gt;configuration-modules-core#1553</title>
<path fill="none" stroke="#000000" stroke-width="2" d="M466.8255,-910.2532C503.4755,-905.3329 547.7471,-899.3894 586.5042,-894.1862"/>
<polygon fill="#000000" stroke="#000000" stroke-width="2" points="587.3075,-897.6098 596.7529,-892.8103 586.3761,-890.6721 587.3075,-897.6098"/>
<text text-anchor="middle" x="521.1253" y="-893.4866" font-family="Sans" font-size="10.00" fill="#000000">fixes</text>
</g>
<!-- configuration&#45;modules&#45;core#1507 -->
<g id="node25" class="node">
<title>configuration-modules-core#1507</title>
<g id="a_node25"><a xlink:href="https://github.com/quattor/configuration-modules-core/pull/1507" xlink:title="configuration-modules-core#1507 (pull-request)" target="_parent">
<polygon fill="#6cc644" stroke="#000000" points="175,-1516.5 12,-1516.5 12,-1466.5 175,-1466.5 175,-1516.5"/>
<text text-anchor="middle" x="93.5" y="-1494.5" font-family="Sans" font-size="10.00" fill="#000000">[WIP] ncm-spma: yumdnf: use</text>
<text text-anchor="middle" x="93.5" y="-1483.5" font-family="Sans" font-size="10.00" fill="#000000">spmaleaves dnf plugin</text>
</a>
</g>
</g>
<!-- configuration&#45;modules&#45;core#1401 -->
<g id="node26" class="node">
<title>configuration-modules-core#1401</title>
<polygon fill="#d3d3d3" stroke="#000000" points="476.5,-1511 304.5,-1511 304.5,-1472 476.5,-1472 476.5,-1511"/>
<text text-anchor="middle" x="390.5" y="-1489" font-family="Sans" font-size="10.00" fill="#000000">configuration-modules-core#1401</text>
</g>
<!-- configuration&#45;modules&#45;core#1507&#45;&gt;configuration&#45;modules&#45;core#1401 -->
<g id="edge15" class="edge">
<title>configuration-modules-core#1507-&gt;configuration-modules-core#1401</title>
<path fill="none" stroke="#000000" stroke-dasharray="5,2" d="M175.0494,-1491.5C211.937,-1491.5 255.7952,-1491.5 294.2825,-1491.5"/>
<polygon fill="none" stroke="#000000" points="294.4629,-1495.0001 304.4629,-1491.5 294.4628,-1488.0001 294.4629,-1495.0001"/>
<text text-anchor="middle" x="222.3037" y="-1483.5" font-family="Sans" font-size="10.00" fill="#000000">requires</text>
</g>
<!-- configuration&#45;modules&#45;core#1336 -->
<g id="node27" class="node">
<title>configuration-modules-core#1336</title>
<g id="a_node27"><a xlink:href="https://github.com/quattor/configuration-modules-core/pull/1336" xlink:title="configuration-modules-core#1336 (pull-request)" target="_parent">
<polygon fill="#6cc644" stroke="#000000" points="172.5,-1628 14.5,-1628 14.5,-1567 172.5,-1567 172.5,-1628"/>
<text text-anchor="middle" x="93.5" y="-1606" font-family="Sans" font-size="10.00" fill="#000000">ncm-network: Add support for</text>
<text text-anchor="middle" x="93.5" y="-1595" font-family="Sans" font-size="10.00" fill="#000000">CAF::Service actions after</text>
<text text-anchor="middle" x="93.5" y="-1584" font-family="Sans" font-size="10.00" fill="#000000">changes</text>
</a>
</g>
</g>
<!-- configuration&#45;modules&#45;core#1335 -->
<g id="node28" class="node">
<title>configuration-modules-core#1335</title>
<g id="a_node28"><a xlink:href="https://github.com/quattor/configuration-modules-core/pull/1335" xlink:title="configuration-modules-core#1335 (pull-request)" target="_parent">
<polygon fill="#6cc644" stroke="#000000" points="475,-1659 306,-1659 306,-1598 475,-1598 475,-1659"/>
<text text-anchor="middle" x="390.5" y="-1637" font-family="Sans" font-size="10.00" fill="#000000">ncm-metaconfig: Remove</text>
<text text-anchor="middle" x="390.5" y="-1626" font-family="Sans" font-size="10.00" fill="#000000">caf_service_action type to allow</text>
<text text-anchor="middle" x="390.5" y="-1615" font-family="Sans" font-size="10.00" fill="#000000">reuse</text>
</a>
</g>
</g>
<!-- configuration&#45;modules&#45;core#1336&#45;&gt;configuration&#45;modules&#45;core#1335 -->
<g id="edge16" class="edge">
<title>configuration-modules-core#1336-&gt;configuration-modules-core#1335</title>
<path fill="none" stroke="#000000" stroke-dasharray="5,2" d="M172.7004,-1605.7667C210.5615,-1609.7185 256.1699,-1614.479 295.8466,-1618.6203"/>
<polygon fill="none" stroke="#000000" points="295.4884,-1622.1019 305.7977,-1619.659 296.2151,-1615.1397 295.4884,-1622.1019"/>
<text text-anchor="middle" x="221.535" y="-1604.6905" font-family="Sans" font-size="10.00" fill="#000000">requires</text>
</g>
<!-- configuration&#45;modules&#45;core#1071 -->
<g id="node29" class="node">
<title>configuration-modules-core#1071</title>
<g id="a_node29"><a xlink:href="https://github.com/quattor/configuration-modules-core/issues/1071" xlink:title="configuration-modules-core#1071 (issue)" target="_parent">
<path fill="#6cc644" stroke="#000000" d="M467,-1579.5C467,-1579.5 314,-1579.5 314,-1579.5 308,-1579.5 302,-1573.5 302,-1567.5 302,-1567.5 302,-1541.5 302,-1541.5 302,-1535.5 308,-1529.5 314,-1529.5 314,-1529.5 467,-1529.5 467,-1529.5 473,-1529.5 479,-1535.5 479,-1541.5 479,-1541.5 479,-1567.5 479,-1567.5 479,-1573.5 473,-1579.5 467,-1579.5"/>
<text text-anchor="middle" x="390.5" y="-1557.5" font-family="Sans" font-size="10.00" fill="#000000">ncm-network: support daemons to</text>
<text text-anchor="middle" x="390.5" y="-1546.5" font-family="Sans" font-size="10.00" fill="#000000">restart after network changes</text>
</a>
</g>
</g>
<!-- configuration&#45;modules&#45;core#1336&#45;&gt;configuration&#45;modules&#45;core#1071 -->
<g id="edge17" class="edge">
<title>configuration-modules-core#1336-&gt;configuration-modules-core#1071</title>
<path fill="none" stroke="#000000" stroke-width="2" d="M172.7004,-1586.0333C209.218,-1580.7462 252.9428,-1574.4157 291.601,-1568.8187"/>
<polygon fill="#000000" stroke="#000000" stroke-width="2" points="292.4392,-1572.2339 301.8345,-1567.3371 291.4362,-1565.3062 292.4392,-1572.2339"/>
<text text-anchor="middle" x="226.5484" y="-1568.6445" font-family="Sans" font-size="10.00" fill="#000000">fixes</text>
</g>
<!-- template&#45;library&#45;core#191 -->
<g id="node30" class="node">
<title>template-library-core#191</title>
<polygon fill="#d3d3d3" stroke="#000000" points="750,-1648 612,-1648 612,-1609 750,-1609 750,-1648"/>
<text text-anchor="middle" x="681" y="-1626" font-family="Sans" font-size="10.00" fill="#000000">template-library-core#191</text>
</g>
<!-- configuration&#45;modules&#45;core#1335&#45;&gt;template&#45;library&#45;core#191 -->
<g id="edge18" class="edge">
<title>configuration-modules-core#1335-&gt;template-library-core#191</title>
<path fill="none" stroke="#000000" stroke-dasharray="5,2" d="M475.3056,-1628.5C515.1224,-1628.5 562.3148,-1628.5 601.4471,-1628.5"/>
<polygon fill="none" stroke="#000000" points="601.7338,-1632.0001 611.7338,-1628.5 601.7337,-1625.0001 601.7338,-1632.0001"/>
<text text-anchor="middle" x="526.2087" y="-1620.5" font-family="Sans" font-size="10.00" fill="#000000">requires</text>
</g>
<!-- configuration&#45;modules&#45;core#1148 -->
<g id="node31" class="node">
<title>configuration-modules-core#1148</title>
<g id="a_node31"><a xlink:href="https://github.com/quattor/configuration-modules-core/pull/1148" xlink:title="configuration-modules-core#1148 (pull-request)" target="_parent">
<polygon fill="#6cc644" stroke="#000000" points="183,-1795.5 4,-1795.5 4,-1745.5 183,-1745.5 183,-1795.5"/>
<text text-anchor="middle" x="93.5" y="-1773.5" font-family="Sans" font-size="10.00" fill="#000000">ncm-spma: Remove support from</text>
<text text-anchor="middle" x="93.5" y="-1762.5" font-family="Sans" font-size="10.00" fill="#000000">groups from spma yumng backend</text>
</a>
</g>
</g>
<!-- configuration&#45;modules&#45;core#952 -->
<g id="node32" class="node">
<title>configuration-modules-core#952</title>
<g id="a_node32"><a xlink:href="https://github.com/quattor/configuration-modules-core/issues/952" xlink:title="configuration-modules-core#952 (issue)" target="_parent">
<path fill="#6cc644" stroke="#000000" d="M474,-1795.5C474,-1795.5 307,-1795.5 307,-1795.5 301,-1795.5 295,-1789.5 295,-1783.5 295,-1783.5 295,-1757.5 295,-1757.5 295,-1751.5 301,-1745.5 307,-1745.5 307,-1745.5 474,-1745.5 474,-1745.5 480,-1745.5 486,-1751.5 486,-1757.5 486,-1757.5 486,-1783.5 486,-1783.5 486,-1789.5 480,-1795.5 474,-1795.5"/>
<text text-anchor="middle" x="390.5" y="-1773.5" font-family="Sans" font-size="10.00" fill="#000000">ncm-spma (yumng): Remove support</text>
<text text-anchor="middle" x="390.5" y="-1762.5" font-family="Sans" font-size="10.00" fill="#000000">for package groups</text>
</a>
</g>
</g>
<!-- configuration&#45;modules&#45;core#1148&#45;&gt;configuration&#45;modules&#45;core#952 -->
<g id="edge19" class="edge">
<title>configuration-modules-core#1148-&gt;configuration-modules-core#952</title>
<path fill="none" stroke="#000000" stroke-width="2" d="M183.0126,-1770.5C215.0535,-1770.5 251.4693,-1770.5 284.7528,-1770.5"/>
<polygon fill="#000000" stroke="#000000" stroke-width="2" points="284.9733,-1774.0001 294.9733,-1770.5 284.9733,-1767.0001 284.9733,-1774.0001"/>
<text text-anchor="middle" x="228.0876" y="-1762.5" font-family="Sans" font-size="10.00" fill="#000000">fixes</text>
</g>
<!-- configuration&#45;modules&#45;core#950 -->
<g id="node33" class="node">
<title>configuration-modules-core#950</title>
<g id="a_node33"><a xlink:href="https://github.com/quattor/configuration-modules-core/issues/950" xlink:title="configuration-modules-core#950 (issue)" target="_parent">
<path fill="#6cc644" stroke="#000000" d="M175,-1727.5C175,-1727.5 12,-1727.5 12,-1727.5 6,-1727.5 0,-1721.5 0,-1715.5 0,-1715.5 0,-1689.5 0,-1689.5 0,-1683.5 6,-1677.5 12,-1677.5 12,-1677.5 175,-1677.5 175,-1677.5 181,-1677.5 187,-1683.5 187,-1689.5 187,-1689.5 187,-1715.5 187,-1715.5 187,-1721.5 181,-1727.5 175,-1727.5"/>
<text text-anchor="middle" x="93.5" y="-1705.5" font-family="Sans" font-size="10.00" fill="#000000">ncm-spma: Remove support for</text>
<text text-anchor="middle" x="93.5" y="-1694.5" font-family="Sans" font-size="10.00" fill="#000000">package groups from yum backends</text>
</a>
</g>
</g>
<!-- configuration&#45;modules&#45;core#950&#45;&gt;configuration&#45;modules&#45;core#952 -->
<g id="edge21" class="edge">
<title>configuration-modules-core#950-&gt;configuration-modules-core#952</title>
<path fill="none" stroke="#000000" stroke-dasharray="5,2" d="M187.065,-1723.9223C218.1915,-1731.0489 253.0665,-1739.0337 285.0303,-1746.3521"/>
<polygon fill="none" stroke="#000000" points="284.3204,-1749.78 294.8493,-1748.6002 285.8827,-1742.9566 284.3204,-1749.78"/>
<text text-anchor="middle" x="223.6849" y="-1728.3134" font-family="Sans" font-size="10.00" fill="#000000">requires</text>
</g>
<!-- configuration&#45;modules&#45;core#951 -->
<g id="node34" class="node">
<title>configuration-modules-core#951</title>
<g id="a_node34"><a xlink:href="https://github.com/quattor/configuration-modules-core/issues/951" xlink:title="configuration-modules-core#951 (issue)" target="_parent">
<path fill="#6cc644" stroke="#000000" d="M468.5,-1727.5C468.5,-1727.5 312.5,-1727.5 312.5,-1727.5 306.5,-1727.5 300.5,-1721.5 300.5,-1715.5 300.5,-1715.5 300.5,-1689.5 300.5,-1689.5 300.5,-1683.5 306.5,-1677.5 312.5,-1677.5 312.5,-1677.5 468.5,-1677.5 468.5,-1677.5 474.5,-1677.5 480.5,-1683.5 480.5,-1689.5 480.5,-1689.5 480.5,-1715.5 480.5,-1715.5 480.5,-1721.5 474.5,-1727.5 468.5,-1727.5"/>
<text text-anchor="middle" x="390.5" y="-1705.5" font-family="Sans" font-size="10.00" fill="#000000">ncm-spma (yum): Remove support</text>
<text text-anchor="middle" x="390.5" y="-1694.5" font-family="Sans" font-size="10.00" fill="#000000">for package groups</text>
</a>
</g>
</g>
<!-- configuration&#45;modules&#45;core#950&#45;&gt;configuration&#45;modules&#45;core#951 -->
<g id="edge20" class="edge">
<title>configuration-modules-core#950-&gt;configuration-modules-core#951</title>
<path fill="none" stroke="#000000" stroke-dasharray="5,2" d="M187.065,-1702.5C219.8866,-1702.5 256.8759,-1702.5 290.2252,-1702.5"/>
<polygon fill="none" stroke="#000000" points="290.4495,-1706.0001 300.4494,-1702.5 290.4494,-1699.0001 290.4495,-1706.0001"/>
<text text-anchor="middle" x="226.2859" y="-1694.5" font-family="Sans" font-size="10.00" fill="#000000">requires</text>
</g>
<!-- configuration&#45;modules&#45;grid#151 -->
<g id="node35" class="node">
<title>configuration-modules-grid#151</title>
<g id="a_node35"><a xlink:href="https://github.com/quattor/configuration-modules-grid/pull/151" xlink:title="configuration-modules-grid#151 (pull-request)" target="_parent">
<polygon fill="#6cc644" stroke="#000000" points="467.5,-401.5 313.5,-401.5 313.5,-351.5 467.5,-351.5 467.5,-401.5"/>
<text text-anchor="middle" x="390.5" y="-379.5" font-family="Sans" font-size="10.00" fill="#000000">ncm-maui: Remove obsolete</text>
<text text-anchor="middle" x="390.5" y="-368.5" font-family="Sans" font-size="10.00" fill="#000000">component</text>
</a>
</g>
</g>
<!-- configuration&#45;modules&#45;grid#85 -->
<g id="node36" class="node">
<title>configuration-modules-grid#85</title>
<polygon fill="#d3d3d3" stroke="#000000" points="760,-96 602,-96 602,-57 760,-57 760,-96"/>
<text text-anchor="middle" x="681" y="-74" font-family="Sans" font-size="10.00" fill="#000000">configuration-modules-grid#85</text>
</g>
<!-- configuration&#45;modules&#45;grid#151&#45;&gt;configuration&#45;modules&#45;grid#85 -->
<g id="edge22" class="edge">
<title>configuration-modules-grid#151-&gt;configuration-modules-grid#85</title>
<path fill="none" stroke="#000000" stroke-width="2" d="M467.7245,-355.4328C474.332,-351.7791 480.5585,-347.5027 486,-342.5 571.5118,-263.8828 507.2931,-181.7972 594,-104.5 594.9993,-103.6091 596.0273,-102.7465 597.0809,-101.9114"/>
<polygon fill="#000000" stroke="#000000" stroke-width="2" points="599.3651,-104.5878 605.6119,-96.0305 595.3921,-98.8245 599.3651,-104.5878"/>
<text text-anchor="middle" x="528.1668" y="-217.8185" font-family="Sans" font-size="10.00" fill="#000000">fixes</text>
</g>
<!-- ncm&#45;lib&#45;blockdevices#111 -->
<g id="node37" class="node">
<title>ncm-lib-blockdevices#111</title>
<g id="a_node37"><a xlink:href="https://github.com/quattor/ncm-lib-blockdevices/pull/111" xlink:title="ncm-lib-blockdevices#111 (pull-request)" target="_parent">
<polygon fill="#6e5494" stroke="#000000" points="476.5,-877.5 304.5,-877.5 304.5,-827.5 476.5,-827.5 476.5,-877.5"/>
<text text-anchor="middle" x="390.5" y="-855.5" font-family="Sans" font-size="10.00" fill="#000000">option to always use device path</text>
<text text-anchor="middle" x="390.5" y="-844.5" font-family="Sans" font-size="10.00" fill="#000000">for mounts instead of uuid</text>
</a>
</g>
</g>
<!-- ncm&#45;lib&#45;blockdevices#110 -->
<g id="node38" class="node">
<title>ncm-lib-blockdevices#110</title>
<g id="a_node38"><a xlink:href="https://github.com/quattor/ncm-lib-blockdevices/issues/110" xlink:title="ncm-lib-blockdevices#110 (issue)" target="_parent">
<path fill="#6e5494" stroke="#000000" d="M750.5,-832.5C750.5,-832.5 611.5,-832.5 611.5,-832.5 605.5,-832.5 599.5,-826.5 599.5,-820.5 599.5,-820.5 599.5,-794.5 599.5,-794.5 599.5,-788.5 605.5,-782.5 611.5,-782.5 611.5,-782.5 750.5,-782.5 750.5,-782.5 756.5,-782.5 762.5,-788.5 762.5,-794.5 762.5,-794.5 762.5,-820.5 762.5,-820.5 762.5,-826.5 756.5,-832.5 750.5,-832.5"/>
<text text-anchor="middle" x="681" y="-810.5" font-family="Sans" font-size="10.00" fill="#000000">Do not set uuid for vxvm vol in</text>
<text text-anchor="middle" x="681" y="-799.5" font-family="Sans" font-size="10.00" fill="#000000">fstab</text>
</a>
</g>
</g>
<!-- ncm&#45;lib&#45;blockdevices#111&#45;&gt;ncm&#45;lib&#45;blockdevices#110 -->
<g id="edge23" class="edge">
<title>ncm-lib-blockdevices#111-&gt;ncm-lib-blockdevices#110</title>
<path fill="none" stroke="#000000" stroke-width="2" d="M476.8731,-839.1204C512.3403,-833.6263 553.4453,-827.2589 589.4336,-821.6841"/>
<polygon fill="#000000" stroke="#000000" stroke-width="2" points="590.0932,-825.1238 599.4395,-820.1342 589.0215,-818.2063 590.0932,-825.1238"/>
<text text-anchor="middle" x="526.9106" y="-821.6653" font-family="Sans" font-size="10.00" fill="#000000">fixes</text>
</g>
<!-- ncm&#45;lib&#45;blockdevices#106 -->
<g id="node39" class="node">
<title>ncm-lib-blockdevices#106</title>
<g id="a_node39"><a xlink:href="https://github.com/quattor/ncm-lib-blockdevices/pull/106" xlink:title="ncm-lib-blockdevices#106 (pull-request)" target="_parent">
<polygon fill="#6cc644" stroke="#000000" points="472.5,-809.5 308.5,-809.5 308.5,-759.5 472.5,-759.5 472.5,-809.5"/>
<text text-anchor="middle" x="390.5" y="-787.5" font-family="Sans" font-size="10.00" fill="#000000">Partition: Mask DM/LVM rules,</text>
<text text-anchor="middle" x="390.5" y="-776.5" font-family="Sans" font-size="10.00" fill="#000000">don't stop udev</text>
</a>
</g>
</g>
<!-- ncm&#45;lib&#45;blockdevices#105 -->
<g id="node40" class="node">
<title>ncm-lib-blockdevices#105</title>
<g id="a_node40"><a xlink:href="https://github.com/quattor/ncm-lib-blockdevices/issues/105" xlink:title="ncm-lib-blockdevices#105 (issue)" target="_parent">
<path fill="#6cc644" stroke="#000000" d="M744.5,-764C744.5,-764 617.5,-764 617.5,-764 611.5,-764 605.5,-758 605.5,-752 605.5,-752 605.5,-715 605.5,-715 605.5,-709 611.5,-703 617.5,-703 617.5,-703 744.5,-703 744.5,-703 750.5,-703 756.5,-709 756.5,-715 756.5,-715 756.5,-752 756.5,-752 756.5,-758 750.5,-764 744.5,-764"/>
<text text-anchor="middle" x="681" y="-742" font-family="Sans" font-size="10.00" fill="#000000">Pausing udev makes</text>
<text text-anchor="middle" x="681" y="-731" font-family="Sans" font-size="10.00" fill="#000000">`/dev/disk/by-*` unusable for</text>
<text text-anchor="middle" x="681" y="-720" font-family="Sans" font-size="10.00" fill="#000000">installations</text>
</a>
</g>
</g>
<!-- ncm&#45;lib&#45;blockdevices#106&#45;&gt;ncm&#45;lib&#45;blockdevices#105 -->
<g id="edge24" class="edge">
<title>ncm-lib-blockdevices#106-&gt;ncm-lib-blockdevices#105</title>
<path fill="none" stroke="#000000" stroke-width="2" d="M472.5808,-770.0899C510.7773,-763.3842 556.212,-755.4077 594.8964,-748.6163"/>
<polygon fill="#000000" stroke="#000000" stroke-width="2" points="595.8513,-752.0023 605.0955,-746.8258 594.6409,-745.1077 595.8513,-752.0023"/>
<text text-anchor="middle" x="527.9619" y="-750.4361" font-family="Sans" font-size="10.00" fill="#000000">fixes</text>
</g>
<!-- release#370 -->
<g id="node41" class="node">
<title>release#370</title>
<g id="a_node41"><a xlink:href="https://github.com/quattor/release/pull/370" xlink:title="release#370 (pull-request)" target="_parent">
<polygon fill="#6e5494" stroke="#000000" points="471.5,-741.5 309.5,-741.5 309.5,-691.5 471.5,-691.5 471.5,-741.5"/>
<text text-anchor="middle" x="390.5" y="-719.5" font-family="Sans" font-size="10.00" fill="#000000">Update template library scripts</text>
<text text-anchor="middle" x="390.5" y="-708.5" font-family="Sans" font-size="10.00" fill="#000000">for new repository structure</text>
</a>
</g>
</g>
<!-- release#373 -->
<g id="node42" class="node">
<title>release#373</title>
<g id="a_node42"><a xlink:href="https://github.com/quattor/release/issues/373" xlink:title="release#373 (issue)" target="_parent">
<path fill="#6e5494" stroke="#000000" d="M755.5,-685C755.5,-685 606.5,-685 606.5,-685 600.5,-685 594.5,-679 594.5,-673 594.5,-673 594.5,-636 594.5,-636 594.5,-630 600.5,-624 606.5,-624 606.5,-624 755.5,-624 755.5,-624 761.5,-624 767.5,-630 767.5,-636 767.5,-636 767.5,-673 767.5,-673 767.5,-679 761.5,-685 755.5,-685"/>
<text text-anchor="middle" x="681" y="-663" font-family="Sans" font-size="10.00" fill="#000000">get-template-library: update the</text>
<text text-anchor="middle" x="681" y="-652" font-family="Sans" font-size="10.00" fill="#000000">default master branch name after</text>
<text text-anchor="middle" x="681" y="-641" font-family="Sans" font-size="10.00" fill="#000000">master -&gt; main rename</text>
</a>
</g>
</g>
<!-- release#370&#45;&gt;release#373 -->
<g id="edge25" class="edge">
<title>release#370-&gt;release#373</title>
<path fill="none" stroke="#000000" stroke-width="2" d="M471.8067,-699.1471C506.7114,-691.6976 547.7711,-682.9344 584.2284,-675.1535"/>
<polygon fill="#000000" stroke="#000000" stroke-width="2" points="585.331,-678.4971 594.3802,-672.9868 583.8699,-671.6512 585.331,-678.4971"/>
<text text-anchor="middle" x="522.2854" y="-678.026" font-family="Sans" font-size="10.00" fill="#000000">fixes</text>
</g>
<!-- template&#45;library&#45;openstack#63 -->
<g id="node43" class="node">
<title>template-library-openstack#63</title>
<g id="a_node43"><a xlink:href="https://github.com/quattor/template-library-openstack/pull/63" xlink:title="template-library-openstack#63 (pull-request)" target="_parent">
<polygon fill="#6cc644" stroke="#000000" points="481,-333.5 300,-333.5 300,-283.5 481,-283.5 481,-333.5"/>
<text text-anchor="middle" x="390.5" y="-311.5" font-family="Sans" font-size="10.00" fill="#000000">Templates for OpenStack Antelope</text>
<text text-anchor="middle" x="390.5" y="-300.5" font-family="Sans" font-size="10.00" fill="#000000">version</text>
</a>
</g>
</g>
<!-- template&#45;library&#45;openstack#1 -->
<g id="node44" class="node">
<title>template-library-openstack#1</title>
<polygon fill="#d3d3d3" stroke="#000000" points="758,-39 604,-39 604,0 758,0 758,-39"/>
<text text-anchor="middle" x="681" y="-17" font-family="Sans" font-size="10.00" fill="#000000">template-library-openstack#1</text>
</g>
<!-- template&#45;library&#45;openstack#63&#45;&gt;template&#45;library&#45;openstack#1 -->
<g id="edge26" class="edge">
<title>template-library-openstack#63-&gt;template-library-openstack#1</title>
<path fill="none" stroke="#000000" stroke-width="2" d="M403.3714,-283.2378C431.0839,-231.3394 501.4554,-112.1764 594,-47.5 595.6582,-46.3411 597.3671,-45.2282 599.1174,-44.1596"/>
<polygon fill="#000000" stroke="#000000" stroke-width="2" points="601.0982,-47.0646 608.1723,-39.1775 597.7237,-40.9316 601.0982,-47.0646"/>
<text text-anchor="middle" x="479.4562" y="-141.0461" font-family="Sans" font-size="10.00" fill="#000000">fixes</text>
</g>
<!-- template&#45;library&#45;os#111 -->
<g id="node45" class="node">
<title>template-library-os#111</title>
<g id="a_node45"><a xlink:href="https://github.com/quattor/template-library-os/pull/111" xlink:title="template-library-os#111 (pull-request)" target="_parent">
<polygon fill="#6cc644" stroke="#000000" points="457.5,-673.5 323.5,-673.5 323.5,-623.5 457.5,-623.5 457.5,-673.5"/>
<text text-anchor="middle" x="390.5" y="-651.5" font-family="Sans" font-size="10.00" fill="#000000">el8/9: Make architecture</text>
<text text-anchor="middle" x="390.5" y="-640.5" font-family="Sans" font-size="10.00" fill="#000000">independent</text>
</a>
</g>
</g>
<!-- template&#45;library&#45;os#110 -->
<g id="node46" class="node">
<title>template-library-os#110</title>
<g id="a_node46"><a xlink:href="https://github.com/quattor/template-library-os/issues/110" xlink:title="template-library-os#110 (issue)" target="_parent">
<path fill="#6cc644" stroke="#000000" d="M738,-606C738,-606 624,-606 624,-606 618,-606 612,-600 612,-594 612,-594 612,-557 612,-557 612,-551 618,-545 624,-545 624,-545 738,-545 738,-545 744,-545 750,-551 750,-557 750,-557 750,-594 750,-594 750,-600 744,-606 738,-606"/>
<text text-anchor="middle" x="681" y="-584" font-family="Sans" font-size="10.00" fill="#000000">OS templates should be</text>
<text text-anchor="middle" x="681" y="-573" font-family="Sans" font-size="10.00" fill="#000000">independent of processor</text>
<text text-anchor="middle" x="681" y="-562" font-family="Sans" font-size="10.00" fill="#000000">architecture</text>
</a>
</g>
</g>
<!-- template&#45;library&#45;os#111&#45;&gt;template&#45;library&#45;os#110 -->
<g id="edge27" class="edge">
<title>template-library-os#111-&gt;template-library-os#110</title>
<path fill="none" stroke="#000000" stroke-width="2" d="M457.5113,-631.6607C500.597,-620.8336 556.7741,-606.7168 602.0263,-595.3454"/>
<polygon fill="#000000" stroke="#000000" stroke-width="2" points="602.956,-598.7206 611.8015,-592.889 601.25,-591.9317 602.956,-598.7206"/>
<text text-anchor="middle" x="523.8395" y="-604.2288" font-family="Sans" font-size="10.00" fill="#000000">fixes</text>
</g>
</g>
</svg>
