<?xml version="1.0" encoding="UTF-8" standalone="no"?>
<?xml-stylesheet href="relationships.css" type="text/css"?>
<!-- Generated by graphviz version 2.26.0 (20091210.2329)
 -->
<!-- Title: Dependencies Pages: 1 -->
<svg xmlns="http://www.w3.org/2000/svg" xmlns:xlink="http://www.w3.org/1999/xlink" width="672pt" height="916pt" viewBox="0.00 0.00 672.00 916.00">
<g id="graph1" class="graph" transform="scale(1 1) rotate(0) translate(4 912)">
<title>Dependencies</title>
<polygon fill="white" stroke="white" points="-4,5 -4,-912 669,-912 669,5 -4,5"/>
<g id="graph3" class="cluster"><title>cluster_18.3</title>
<polygon fill="none" stroke="black" points="54,-50 54,-238 434,-238 434,-50 54,-50"/>
<text text-anchor="middle" x="244" y="-223.2" font-family="Sans" font-size="12.00">18.3</text>
</g>
<g id="graph4" class="cluster"><title>cluster_17.12</title>
<polygon fill="none" stroke="black" points="8,-446 8,-900 514,-900 514,-446 8,-446"/>
<text text-anchor="middle" x="261" y="-885.2" font-family="Sans" font-size="12.00">17.12</text>
</g>
<!-- aii#210 -->
<g id="node1" class="node"><title>aii#210</title>
<a xlink:href="https://github.com/quattor/aii/pull/210" xlink:title="Shellfe: support active config for plugins" target="_parent">
<polygon fill="#6cc644" stroke="black" points="141,-123 63,-123 63,-69 141,-69 141,-123"/>
<text text-anchor="middle" x="102" y="-100" font-family="Sans" font-size="10.00">pull-request</text>
<text text-anchor="middle" x="102" y="-87" font-family="Sans" font-size="10.00">aii#210</text>
</a>
</g>
<!-- aii#209 -->
<g id="node3" class="node"><title>aii#209</title>
<a xlink:href="https://github.com/quattor/aii/issues/209" xlink:title="support ACTIVE_CONFIG" target="_parent">
<ellipse fill="#6cc644" stroke="black" cx="384" cy="-96" rx="41.2167" ry="38.1838"/>
<text text-anchor="middle" x="384" y="-100" font-family="Sans" font-size="10.00">issue</text>
<text text-anchor="middle" x="384" y="-87" font-family="Sans" font-size="10.00">aii#209</text>
</a>
</g>
<!-- aii#210&#45;&gt;aii#209 -->
<g id="edge2" class="edge"><title>aii#210-&gt;aii#209</title>
<path fill="none" stroke="black" stroke-width="2" d="M141.508,-96C191.35,-96 277.184,-96 332.226,-96"/>
<polygon fill="black" stroke="black" points="332.467,-99.5001 342.467,-96 332.467,-92.5001 332.467,-99.5001"/>
<text text-anchor="middle" x="225" y="-100" font-family="Sans" font-size="10.00">fixes</text>
</g>
<!-- ncm&#45;ncd#74 -->
<g id="node5" class="node"><title>ncm-ncd#74</title>
<a xlink:href="https://github.com/quattor/ncm-ncd/pull/74" xlink:title="Set the current active config as an attribute to the component" target="_parent">
<polygon fill="#6cc644" stroke="black" points="425,-206 343,-206 343,-152 425,-152 425,-206"/>
<text text-anchor="middle" x="384" y="-183" font-family="Sans" font-size="10.00">pull-request</text>
<text text-anchor="middle" x="384" y="-170" font-family="Sans" font-size="10.00">ncm-ncd#74</text>
</a>
</g>
<!-- aii#210&#45;&gt;ncm&#45;ncd#74 -->
<g id="edge4" class="edge"><title>aii#210-&gt;ncm-ncd#74</title>
<path fill="none" stroke="black" stroke-dasharray="5,2" d="M141.508,-107.628C191.596,-122.37 278.034,-147.811 333.04,-164.001"/>
<polygon fill="none" stroke="black" points="332.348,-167.446 342.929,-166.912 334.325,-160.731 332.348,-167.446"/>
<text text-anchor="middle" x="225" y="-142" font-family="Sans" font-size="10.00">requires</text>
</g>
<!-- aii#203 -->
<g id="node7" class="node"><title>aii#203</title>
<polygon fill="lightgrey" stroke="black" points="413,-40.5 355,-40.5 355,0.5 413,0.5 413,-40.5"/>
<text text-anchor="middle" x="384" y="-17.5" font-family="Sans" font-size="10.00">aii#203</text>
</g>
<!-- aii#210&#45;&gt;aii#203 -->
<g id="edge6" class="edge"><title>aii#210-&gt;aii#203</title>
<path fill="none" stroke="black" stroke-dasharray="5,2" d="M141.812,-82.4267C174.004,-71.7261 220.618,-56.8504 262,-46 289.189,-38.871 320.169,-32.2874 344.106,-27.5288"/>
<polygon fill="none" stroke="black" points="345.097,-30.9012 354.235,-25.5403 343.748,-24.0323 345.097,-30.9012"/>
<text text-anchor="middle" x="225" y="-66" font-family="Sans" font-size="10.00">requires</text>
</g>
<!-- CAF#257 -->
<g id="node8" class="node"><title>CAF#257</title>
<a xlink:href="https://github.com/quattor/CAF/pull/257" xlink:title="Process: run process as another user" target="_parent">
<polygon fill="#6cc644" stroke="black" points="141,-652 63,-652 63,-598 141,-598 141,-652"/>
<text text-anchor="middle" x="102" y="-629" font-family="Sans" font-size="10.00">pull-request</text>
<text text-anchor="middle" x="102" y="-616" font-family="Sans" font-size="10.00">CAF#257</text>
</a>
</g>
<!-- CAF#253 -->
<g id="node10" class="node"><title>CAF#253</title>
<a xlink:href="https://github.com/quattor/CAF/issues/253" xlink:title="CAF::Process: Include an option to execute the command as an specific user" target="_parent">
<ellipse fill="#6cc644" stroke="black" cx="384" cy="-400" rx="48.9975" ry="38.1838"/>
<text text-anchor="middle" x="384" y="-404" font-family="Sans" font-size="10.00">issue</text>
<text text-anchor="middle" x="384" y="-391" font-family="Sans" font-size="10.00">CAF#253</text>
</a>
</g>
<!-- CAF#257&#45;&gt;CAF#253 -->
<g id="edge8" class="edge"><title>CAF#257-&gt;CAF#253</title>
<path fill="none" stroke="black" stroke-width="2" d="M141.74,-614.923C157.59,-609.344 175.096,-601.032 188,-589 241.497,-539.119 206.913,-490.12 262,-442 279.775,-426.473 303.585,-416.612 325.451,-410.384"/>
<polygon fill="black" stroke="black" points="326.559,-413.711 335.332,-407.771 324.769,-406.944 326.559,-413.711"/>
<text text-anchor="middle" x="225" y="-570" font-family="Sans" font-size="10.00">fixes</text>
</g>
<!-- CAF#256 -->
<g id="node12" class="node"><title>CAF#256</title>
<a xlink:href="https://github.com/quattor/CAF/pull/256" xlink:title="Process: add sensitive option to prevent verbose reporting of the command" target="_parent">
<polygon fill="#6cc644" stroke="black" points="423,-608 345,-608 345,-554 423,-554 423,-608"/>
<text text-anchor="middle" x="384" y="-585" font-family="Sans" font-size="10.00">pull-request</text>
<text text-anchor="middle" x="384" y="-572" font-family="Sans" font-size="10.00">CAF#256</text>
</a>
</g>
<!-- CAF#257&#45;&gt;CAF#256 -->
<g id="edge10" class="edge"><title>CAF#257-&gt;CAF#256</title>
<path fill="none" stroke="black" stroke-dasharray="5,2" d="M141.508,-618.836C191.919,-610.97 279.151,-597.359 334.101,-588.786"/>
<polygon fill="none" stroke="black" points="334.964,-592.193 344.305,-587.194 333.885,-585.277 334.964,-592.193"/>
<text text-anchor="middle" x="225" y="-612" font-family="Sans" font-size="10.00">requires</text>
</g>
<!-- CAF#254 -->
<g id="node14" class="node"><title>CAF#254</title>
<a xlink:href="https://github.com/quattor/CAF/issues/254" xlink:title="CAF::Process: Include sensitive option" target="_parent">
<ellipse fill="#6cc644" stroke="black" cx="614" cy="-581" rx="48.9975" ry="38.1838"/>
<text text-anchor="middle" x="614" y="-585" font-family="Sans" font-size="10.00">issue</text>
<text text-anchor="middle" x="614" y="-572" font-family="Sans" font-size="10.00">CAF#254</text>
</a>
</g>
<!-- CAF#256&#45;&gt;CAF#254 -->
<g id="edge12" class="edge"><title>CAF#256-&gt;CAF#254</title>
<path fill="none" stroke="black" stroke-width="2" d="M423.538,-581C459.415,-581 512.834,-581 553.977,-581"/>
<polygon fill="black" stroke="black" points="554.154,-584.5 564.154,-581 554.154,-577.5 554.154,-584.5"/>
<text text-anchor="middle" x="535" y="-585" font-family="Sans" font-size="10.00">fixes</text>
</g>
<!-- configuration&#45;modules&#45;core#1182 -->
<g id="node15" class="node"><title>configuration-modules-core#1182</title>
<a xlink:href="https://github.com/quattor/configuration-modules-core/pull/1182" xlink:title="ncm-opennebula: Include 5.4.x configuration" target="_parent">
<polygon fill="#6cc644" stroke="black" points="188,-868 16,-868 16,-814 188,-814 188,-868"/>
<text text-anchor="middle" x="102" y="-845" font-family="Sans" font-size="10.00">pull-request</text>
<text text-anchor="middle" x="102" y="-832" font-family="Sans" font-size="10.00">configuration-modules-core#1182</text>
</a>
</g>
<!-- configuration&#45;modules&#45;core#1139 -->
<g id="node17" class="node"><title>configuration-modules-core#1139</title>
<a xlink:href="https://github.com/quattor/configuration-modules-core/pull/1139" xlink:title="ncm-opennebula: include hugepages options" target="_parent">
<polygon fill="#6cc644" stroke="black" points="470,-868 298,-868 298,-814 470,-814 470,-868"/>
<text text-anchor="middle" x="384" y="-845" font-family="Sans" font-size="10.00">pull-request</text>
<text text-anchor="middle" x="384" y="-832" font-family="Sans" font-size="10.00">configuration-modules-core#1139</text>
</a>
</g>
<!-- configuration&#45;modules&#45;core#1182&#45;&gt;configuration&#45;modules&#45;core#1139 -->
<g id="edge14" class="edge"><title>configuration-modules-core#1182-&gt;configuration-modules-core#1139</title>
<path fill="none" stroke="black" stroke-dasharray="5,2" d="M188.142,-841C219.565,-841 255.296,-841 287.558,-841"/>
<polygon fill="none" stroke="black" points="287.9,-844.5 297.9,-841 287.9,-837.5 287.9,-844.5"/>
<text text-anchor="middle" x="225" y="-845" font-family="Sans" font-size="10.00">requires</text>
</g>
<!-- configuration&#45;modules&#45;core#1171 -->
<g id="node18" class="node"><title>configuration-modules-core#1171</title>
<a xlink:href="https://github.com/quattor/configuration-modules-core/pull/1171" xlink:title="ncm-cups enhancements and cleanups" target="_parent">
<polygon fill="#6e5494" stroke="black" points="188,-796 16,-796 16,-742 188,-742 188,-796"/>
<text text-anchor="middle" x="102" y="-773" font-family="Sans" font-size="10.00">pull-request</text>
<text text-anchor="middle" x="102" y="-760" font-family="Sans" font-size="10.00">configuration-modules-core#1171</text>
</a>
</g>
<!-- configuration&#45;modules&#45;core#1164 -->
<g id="node20" class="node"><title>configuration-modules-core#1164</title>
<a xlink:href="https://github.com/quattor/configuration-modules-core/issues/1164" xlink:title="ncm-cups 17.7.0: configuration of ServerAlias + miscellanous enhancements" target="_parent">
<ellipse fill="#bd2c00" stroke="black" cx="384" cy="-758" rx="121.122" ry="38.1838"/>
<text text-anchor="middle" x="384" y="-762" font-family="Sans" font-size="10.00">issue</text>
<text text-anchor="middle" x="384" y="-749" font-family="Sans" font-size="10.00">configuration-modules-core#1164</text>
</a>
</g>
<!-- configuration&#45;modules&#45;core#1171&#45;&gt;configuration&#45;modules&#45;core#1164 -->
<g id="edge16" class="edge"><title>configuration-modules-core#1171-&gt;configuration-modules-core#1164</title>
<path fill="none" stroke="black" stroke-width="2" d="M188.142,-765.64C208.719,-764.837 231.144,-763.962 253.232,-763.101"/>
<polygon fill="black" stroke="black" points="253.493,-766.593 263.349,-762.706 253.22,-759.599 253.493,-766.593"/>
<text text-anchor="middle" x="225" y="-768" font-family="Sans" font-size="10.00">fixes</text>
</g>
<!-- configuration&#45;modules&#45;core#1149 -->
<g id="node21" class="node"><title>configuration-modules-core#1149</title>
<a xlink:href="https://github.com/quattor/configuration-modules-core/pull/1149" xlink:title="ncm-metaconfig: rsyslog: rainer script configuration" target="_parent">
<polygon fill="#6e5494" stroke="black" points="188,-580 16,-580 16,-526 188,-526 188,-580"/>
<text text-anchor="middle" x="102" y="-557" font-family="Sans" font-size="10.00">pull-request</text>
<text text-anchor="middle" x="102" y="-544" font-family="Sans" font-size="10.00">configuration-modules-core#1149</text>
</a>
</g>
<!-- configuration&#45;modules&#45;core#1126 -->
<g id="node23" class="node"><title>configuration-modules-core#1126</title>
<polygon fill="lightgrey" stroke="black" points="470,-344.5 298,-344.5 298,-303.5 470,-303.5 470,-344.5"/>
<text text-anchor="middle" x="384" y="-321.5" font-family="Sans" font-size="10.00">configuration-modules-core#1126</text>
</g>
<!-- configuration&#45;modules&#45;core#1149&#45;&gt;configuration&#45;modules&#45;core#1126 -->
<g id="edge18" class="edge"><title>configuration-modules-core#1149-&gt;configuration-modules-core#1126</title>
<path fill="none" stroke="black" stroke-dasharray="5,2" d="M178.866,-525.758C182.176,-523.099 185.253,-520.188 188,-517 209.252,-492.34 193.469,-476.045 206,-446 224.573,-401.47 223.045,-381.468 262,-353 269.976,-347.171 278.957,-342.498 288.337,-338.753"/>
<polygon fill="none" stroke="black" points="289.62,-342.011 297.827,-335.31 287.232,-335.431 289.62,-342.011"/>
<text text-anchor="middle" x="225" y="-450" font-family="Sans" font-size="10.00">requires</text>
</g>
<!-- configuration&#45;modules&#45;core#1119 -->
<g id="node24" class="node"><title>configuration-modules-core#1119</title>
<a xlink:href="https://github.com/quattor/configuration-modules-core/pull/1119" xlink:title="ncm-systemd: cleanup, restarting modified unitfiles and initial handling of unconfigured units" target="_parent">
<polygon fill="#6e5494" stroke="black" points="188,-724 16,-724 16,-670 188,-670 188,-724"/>
<text text-anchor="middle" x="102" y="-701" font-family="Sans" font-size="10.00">pull-request</text>
<text text-anchor="middle" x="102" y="-688" font-family="Sans" font-size="10.00">configuration-modules-core#1119</text>
</a>
</g>
<!-- configuration&#45;modules&#45;core#1095 -->
<g id="node26" class="node"><title>configuration-modules-core#1095</title>
<a xlink:href="https://github.com/quattor/configuration-modules-core/issues/1095" xlink:title="ncm-systemd: Manual intervention required in order for drop-in unit files to have any affect" target="_parent">
<ellipse fill="#6cc644" stroke="black" cx="384" cy="-664" rx="121.122" ry="38.1838"/>
<text text-anchor="middle" x="384" y="-668" font-family="Sans" font-size="10.00">issue</text>
<text text-anchor="middle" x="384" y="-655" font-family="Sans" font-size="10.00">configuration-modules-core#1095</text>
</a>
</g>
<!-- configuration&#45;modules&#45;core#1119&#45;&gt;configuration&#45;modules&#45;core#1095 -->
<g id="edge20" class="edge"><title>configuration-modules-core#1119-&gt;configuration-modules-core#1095</title>
<path fill="none" stroke="black" stroke-width="2" d="M188.142,-686.92C210.848,-684.262 235.803,-681.342 260.074,-678.502"/>
<polygon fill="black" stroke="black" points="260.533,-681.972 270.059,-677.334 259.72,-675.02 260.533,-681.972"/>
<text text-anchor="middle" x="225" y="-688" font-family="Sans" font-size="10.00">fixes</text>
</g>
<!-- configuration&#45;modules&#45;core#1058 -->
<g id="node27" class="node"><title>configuration-modules-core#1058</title>
<a xlink:href="https://github.com/quattor/configuration-modules-core/pull/1058" xlink:title="ncm-ssh: disable insecure ssh ciphersuites and macs" target="_parent">
<polygon fill="#6cc644" stroke="black" points="188,-508 16,-508 16,-454 188,-454 188,-508"/>
<text text-anchor="middle" x="102" y="-485" font-family="Sans" font-size="10.00">pull-request</text>
<text text-anchor="middle" x="102" y="-472" font-family="Sans" font-size="10.00">configuration-modules-core#1058</text>
</a>
</g>
<!-- configuration&#45;modules&#45;core#983 -->
<g id="node29" class="node"><title>configuration-modules-core#983</title>
<polygon fill="lightgrey" stroke="black" points="467,-286.5 301,-286.5 301,-245.5 467,-245.5 467,-286.5"/>
<text text-anchor="middle" x="384" y="-263.5" font-family="Sans" font-size="10.00">configuration-modules-core#983</text>
</g>
<!-- configuration&#45;modules&#45;core#1058&#45;&gt;configuration&#45;modules&#45;core#983 -->
<g id="edge22" class="edge"><title>configuration-modules-core#1058-&gt;configuration-modules-core#983</title>
<path fill="none" stroke="black" stroke-dasharray="1,5" d="M108.311,-453.696C119.767,-410.834 148.331,-328.576 206,-289 230.361,-272.282 261.096,-264.793 290.14,-261.99"/>
<polygon fill="black" stroke="black" points="300.33,-261.187 290.715,-266.459 295.346,-261.58 290.361,-261.973 290.361,-261.973 290.361,-261.973 295.346,-261.58 290.007,-257.487 300.33,-261.187 300.33,-261.187"/>
<text text-anchor="middle" x="225" y="-293" font-family="Sans" font-size="10.00">replaces</text>
</g>
</g>
</svg>
