<?xml version="1.0" encoding="UTF-8" standalone="no"?>
<?xml-stylesheet href="relationships.css" type="text/css"?>
<!-- Generated by graphviz version 2.40.1 (0)
 -->
<!-- Title: Dependencies Pages: 1 -->
<svg xmlns="http://www.w3.org/2000/svg" xmlns:xlink="http://www.w3.org/1999/xlink" width="1076pt" height="1679pt" viewBox="0.00 0.00 1076.00 1678.50">
<g id="graph0" class="graph" transform="scale(1 1) rotate(0) translate(4 1674.5)">
<title>Dependencies</title>
<polygon fill="#ffffff" stroke="transparent" points="-4,4 -4,-1674.5 1072,-1674.5 1072,4 -4,4"/>
<g id="clust1" class="cluster">
<title>cluster_milestone_25.next</title>
<polygon fill="none" stroke="#000000" points="292,-218.5 292,-1338.5 1060,-1338.5 1060,-218.5 292,-218.5"/>
<text text-anchor="middle" x="676" y="-1324.9" font-family="Sans" font-size="12.00" fill="#000000">25.next</text>
</g>
<!-- aii#328 -->
<g id="node1" class="node">
<title>aii#328</title>
<g id="a_node1"><a xlink:href="https://github.com/quattor/aii/pull/328" xlink:title="aii#328 (pull-request)" target="_parent">
<polygon fill="#6cc644" stroke="#000000" points="473,-412.5 308,-412.5 308,-362.5 473,-362.5 473,-412.5"/>
<text text-anchor="middle" x="390.5" y="-390.5" font-family="Sans" font-size="10.00" fill="#000000">aii-ks: generate ks post section</text>
<text text-anchor="middle" x="390.5" y="-379.5" font-family="Sans" font-size="10.00" fill="#000000">as standalone script</text>
</a>
</g>
</g>
<!-- aii#280 -->
<g id="node2" class="node">
<title>aii#280</title>
<polygon fill="#d3d3d3" stroke="#000000" points="713.5,-210 654.5,-210 654.5,-171 713.5,-171 713.5,-210"/>
<text text-anchor="middle" x="684" y="-188" font-family="Sans" font-size="10.00" fill="#000000">aii#280</text>
</g>
<!-- aii#328&#45;&gt;aii#280 -->
<g id="edge1" class="edge">
<title>aii#328-&gt;aii#280</title>
<path fill="none" stroke="#000000" stroke-dasharray="5,2" d="M471.8931,-362.2842C476.8287,-359.6186 481.5792,-356.6972 486,-353.5 549.3923,-307.6534 528.7942,-257.7284 594,-214.5 608.9565,-204.5845 627.8574,-198.7557 644.4728,-195.3336"/>
<polygon fill="none" stroke="#000000" points="645.2635,-198.7471 654.4672,-193.499 643.9995,-191.8621 645.2635,-198.7471"/>
<text text-anchor="middle" x="528.4055" y="-261.2284" font-family="Sans" font-size="10.00" fill="#000000">requires</text>
</g>
<!-- aii#316 -->
<g id="node3" class="node">
<title>aii#316</title>
<polygon fill="#d3d3d3" stroke="#000000" points="713.5,-153 654.5,-153 654.5,-114 713.5,-114 713.5,-153"/>
<text text-anchor="middle" x="684" y="-131" font-family="Sans" font-size="10.00" fill="#000000">aii#316</text>
</g>
<!-- aii#328&#45;&gt;aii#316 -->
<g id="edge2" class="edge">
<title>aii#328-&gt;aii#316</title>
<path fill="none" stroke="#000000" stroke-dasharray="5,2" d="M473.395,-362.4677C477.853,-359.7688 482.0971,-356.7888 486,-353.5 560.8697,-290.4103 517.871,-223.0642 594,-161.5 608.2249,-149.9966 627.1897,-143.2005 644.0416,-139.1941"/>
<polygon fill="none" stroke="#000000" points="645.1421,-142.5387 654.2001,-137.0429 643.6919,-135.6906 645.1421,-142.5387"/>
<text text-anchor="middle" x="525.3428" y="-236.0243" font-family="Sans" font-size="10.00" fill="#000000">requires</text>
</g>
<!-- aii#299 -->
<g id="node4" class="node">
<title>aii#299</title>
<g id="a_node4"><a xlink:href="https://github.com/quattor/aii/pull/299" xlink:title="aii#299 (pull-request)" target="_parent">
<polygon fill="#6cc644" stroke="#000000" points="459,-480.5 322,-480.5 322,-430.5 459,-430.5 459,-480.5"/>
<text text-anchor="middle" x="390.5" y="-458.5" font-family="Sans" font-size="10.00" fill="#000000">aii-dhcp: support optional</text>
<text text-anchor="middle" x="390.5" y="-447.5" font-family="Sans" font-size="10.00" fill="#000000">hostname ip verification</text>
</a>
</g>
</g>
<!-- aii#299&#45;&gt;aii#280 -->
<g id="edge3" class="edge">
<title>aii#299-&gt;aii#280</title>
<path fill="none" stroke="#000000" stroke-dasharray="5,2" d="M459.2031,-438.1929C468.8705,-433.795 478.166,-428.3152 486,-421.5 564.2893,-353.3914 513.0034,-279.3657 594,-214.5 608.1113,-203.1991 627.0617,-197.1914 643.9335,-194.0091"/>
<polygon fill="none" stroke="#000000" points="644.7918,-197.416 654.1082,-192.3706 643.6789,-190.505 644.7918,-197.416"/>
<text text-anchor="middle" x="522.4873" y="-303.8469" font-family="Sans" font-size="10.00" fill="#000000">requires</text>
</g>
<!-- aii#331 -->
<g id="node5" class="node">
<title>aii#331</title>
<g id="a_node5"><a xlink:href="https://github.com/quattor/aii/pull/331" xlink:title="aii#331 (pull-request)" target="_parent">
<polygon fill="#6cc644" stroke="#000000" points="157.5,-418 29.5,-418 29.5,-357 157.5,-357 157.5,-418"/>
<text text-anchor="middle" x="93.5" y="-396" font-family="Sans" font-size="10.00" fill="#000000">let aii generate ansible</text>
<text text-anchor="middle" x="93.5" y="-385" font-family="Sans" font-size="10.00" fill="#000000">playbook for supported</text>
<text text-anchor="middle" x="93.5" y="-374" font-family="Sans" font-size="10.00" fill="#000000">components</text>
</a>
</g>
</g>
<!-- aii#331&#45;&gt;aii#328 -->
<g id="edge4" class="edge">
<title>aii#331-&gt;aii#328</title>
<path fill="none" stroke="#000000" stroke-dasharray="5,2" d="M157.5789,-387.5C198.4814,-387.5 252.1793,-387.5 297.7071,-387.5"/>
<polygon fill="none" stroke="#000000" points="297.8877,-391.0001 307.8876,-387.5 297.8876,-384.0001 297.8877,-391.0001"/>
<text text-anchor="middle" x="215.2358" y="-379.5" font-family="Sans" font-size="10.00" fill="#000000">requires</text>
</g>
<!-- CAF#257 -->
<g id="node6" class="node">
<title>CAF#257</title>
<g id="a_node6"><a xlink:href="https://github.com/quattor/CAF/pull/257" xlink:title="CAF#257 (pull-request)" target="_parent">
<polygon fill="#6cc644" stroke="#000000" points="475.5,-1309.5 305.5,-1309.5 305.5,-1259.5 475.5,-1259.5 475.5,-1309.5"/>
<text text-anchor="middle" x="390.5" y="-1287.5" font-family="Sans" font-size="10.00" fill="#000000">Process: run process as another</text>
<text text-anchor="middle" x="390.5" y="-1276.5" font-family="Sans" font-size="10.00" fill="#000000">user</text>
</a>
</g>
</g>
<!-- CAF#253 -->
<g id="node7" class="node">
<title>CAF#253</title>
<g id="a_node7"><a xlink:href="https://github.com/quattor/CAF/issues/253" xlink:title="CAF#253 (issue)" target="_parent">
<path fill="#6cc644" stroke="#000000" d="M757.5,-1309C757.5,-1309 610.5,-1309 610.5,-1309 604.5,-1309 598.5,-1303 598.5,-1297 598.5,-1297 598.5,-1260 598.5,-1260 598.5,-1254 604.5,-1248 610.5,-1248 610.5,-1248 757.5,-1248 757.5,-1248 763.5,-1248 769.5,-1254 769.5,-1260 769.5,-1260 769.5,-1297 769.5,-1297 769.5,-1303 763.5,-1309 757.5,-1309"/>
<text text-anchor="middle" x="684" y="-1287" font-family="Sans" font-size="10.00" fill="#000000">CAF::Process: Include an option</text>
<text text-anchor="middle" x="684" y="-1276" font-family="Sans" font-size="10.00" fill="#000000">to execute the command as an</text>
<text text-anchor="middle" x="684" y="-1265" font-family="Sans" font-size="10.00" fill="#000000">specific user</text>
</a>
</g>
</g>
<!-- CAF#257&#45;&gt;CAF#253 -->
<g id="edge5" class="edge">
<title>CAF#257-&gt;CAF#253</title>
<path fill="none" stroke="#000000" stroke-width="2" d="M475.7866,-1282.7565C510.9823,-1282.037 551.935,-1281.1998 588.1625,-1280.4592"/>
<polygon fill="#000000" stroke="#000000" stroke-width="2" points="588.3202,-1283.9568 598.2465,-1280.2531 588.177,-1276.9583 588.3202,-1283.9568"/>
<text text-anchor="middle" x="525.9804" y="-1273.5055" font-family="Sans" font-size="10.00" fill="#000000">fixes</text>
</g>
<!-- CAF#110 -->
<g id="node8" class="node">
<title>CAF#110</title>
<g id="a_node8"><a xlink:href="https://github.com/quattor/CAF/pull/110" xlink:title="CAF#110 (pull-request)" target="_parent">
<polygon fill="#6cc644" stroke="#000000" points="463.5,-344.5 317.5,-344.5 317.5,-294.5 463.5,-294.5 463.5,-344.5"/>
<text text-anchor="middle" x="390.5" y="-322.5" font-family="Sans" font-size="10.00" fill="#000000">CAF::Download class: API</text>
<text text-anchor="middle" x="390.5" y="-311.5" font-family="Sans" font-size="10.00" fill="#000000">proposal</text>
</a>
</g>
</g>
<!-- CAF#120 -->
<g id="node9" class="node">
<title>CAF#120</title>
<polygon fill="#d3d3d3" stroke="#000000" points="719,-96 649,-96 649,-57 719,-57 719,-96"/>
<text text-anchor="middle" x="684" y="-74" font-family="Sans" font-size="10.00" fill="#000000">CAF#120</text>
</g>
<!-- CAF#110&#45;&gt;CAF#120 -->
<g id="edge6" class="edge">
<title>CAF#110-&gt;CAF#120</title>
<path fill="none" stroke="#000000" stroke-dasharray="5,2" d="M463.7697,-299.4935C471.7226,-295.5951 479.3349,-290.9721 486,-285.5 558.4011,-226.0577 520.4127,-162.4674 594,-104.5 606.8645,-94.3662 623.4251,-87.8764 638.826,-83.7304"/>
<polygon fill="none" stroke="#000000" points="639.8349,-87.0872 648.7286,-81.3295 638.1854,-80.2843 639.8349,-87.0872"/>
<text text-anchor="middle" x="524.4377" y="-178.2117" font-family="Sans" font-size="10.00" fill="#000000">requires</text>
</g>
<!-- CCM#216 -->
<g id="node10" class="node">
<title>CCM#216</title>
<g id="a_node10"><a xlink:href="https://github.com/quattor/CCM/pull/216" xlink:title="CCM#216 (pull-request)" target="_parent">
<polygon fill="#6e5494" stroke="#000000" points="468,-1241.5 313,-1241.5 313,-1191.5 468,-1191.5 468,-1241.5"/>
<text text-anchor="middle" x="390.5" y="-1219.5" font-family="Sans" font-size="10.00" fill="#000000">ProfileCache: Include type in</text>
<text text-anchor="middle" x="390.5" y="-1208.5" font-family="Sans" font-size="10.00" fill="#000000">checksum calculation</text>
</a>
</g>
</g>
<!-- CCM#213 -->
<g id="node11" class="node">
<title>CCM#213</title>
<g id="a_node11"><a xlink:href="https://github.com/quattor/CCM/issues/213" xlink:title="CCM#213 (issue)" target="_parent">
<path fill="#6e5494" stroke="#000000" d="M743.5,-1229.5C743.5,-1229.5 624.5,-1229.5 624.5,-1229.5 618.5,-1229.5 612.5,-1223.5 612.5,-1217.5 612.5,-1217.5 612.5,-1191.5 612.5,-1191.5 612.5,-1185.5 618.5,-1179.5 624.5,-1179.5 624.5,-1179.5 743.5,-1179.5 743.5,-1179.5 749.5,-1179.5 755.5,-1185.5 755.5,-1191.5 755.5,-1191.5 755.5,-1217.5 755.5,-1217.5 755.5,-1223.5 749.5,-1229.5 743.5,-1229.5"/>
<text text-anchor="middle" x="684" y="-1207.5" font-family="Sans" font-size="10.00" fill="#000000">Include type information in</text>
<text text-anchor="middle" x="684" y="-1196.5" font-family="Sans" font-size="10.00" fill="#000000">checksum computation</text>
</a>
</g>
</g>
<!-- CCM#216&#45;&gt;CCM#213 -->
<g id="edge7" class="edge">
<title>CCM#216-&gt;CCM#213</title>
<path fill="none" stroke="#000000" stroke-width="2" d="M468.3821,-1213.3157C509.6441,-1211.6287 560.3003,-1209.5576 602.1429,-1207.8468"/>
<polygon fill="#000000" stroke="#000000" stroke-width="2" points="602.4544,-1211.3371 612.303,-1207.4314 602.1684,-1204.3429 602.4544,-1211.3371"/>
<text text-anchor="middle" x="529.4479" y="-1202.3693" font-family="Sans" font-size="10.00" fill="#000000">fixes</text>
</g>
<!-- CCM#215 -->
<g id="node12" class="node">
<title>CCM#215</title>
<g id="a_node12"><a xlink:href="https://github.com/quattor/CCM/pull/215" xlink:title="CCM#215 (pull-request)" target="_parent">
<polygon fill="#6e5494" stroke="#000000" points="459,-1173 322,-1173 322,-1134 459,-1134 459,-1173"/>
<text text-anchor="middle" x="390.5" y="-1151" font-family="Sans" font-size="10.00" fill="#000000">Remove description field</text>
</a>
</g>
</g>
<!-- CCM#214 -->
<g id="node13" class="node">
<title>CCM#214</title>
<g id="a_node13"><a xlink:href="https://github.com/quattor/CCM/pull/214" xlink:title="CCM#214 (pull-request)" target="_parent">
<polygon fill="#6e5494" stroke="#000000" points="753,-1161.5 615,-1161.5 615,-1111.5 753,-1111.5 753,-1161.5"/>
<text text-anchor="middle" x="684" y="-1139.5" font-family="Sans" font-size="10.00" fill="#000000">Strip out all references to</text>
<text text-anchor="middle" x="684" y="-1128.5" font-family="Sans" font-size="10.00" fill="#000000">derivation</text>
</a>
</g>
</g>
<!-- CCM#215&#45;&gt;CCM#214 -->
<g id="edge8" class="edge">
<title>CCM#215-&gt;CCM#214</title>
<path fill="none" stroke="#000000" stroke-dasharray="5,2" d="M459.3127,-1149.5143C502.867,-1146.9915 559.3242,-1143.7214 604.7493,-1141.0903"/>
<polygon fill="none" stroke="#000000" points="605.0753,-1144.5774 614.8561,-1140.5049 604.6705,-1137.5891 605.0753,-1144.5774"/>
<text text-anchor="middle" x="519.7471" y="-1137.0002" font-family="Sans" font-size="10.00" fill="#000000">requires</text>
</g>
<!-- CCM#134 -->
<g id="node14" class="node">
<title>CCM#134</title>
<g id="a_node14"><a xlink:href="https://github.com/quattor/CCM/issues/134" xlink:title="CCM#134 (issue)" target="_parent">
<path fill="#6e5494" stroke="#000000" d="M1040,-1156C1040,-1156 894,-1156 894,-1156 888,-1156 882,-1150 882,-1144 882,-1144 882,-1129 882,-1129 882,-1123 888,-1117 894,-1117 894,-1117 1040,-1117 1040,-1117 1046,-1117 1052,-1123 1052,-1129 1052,-1129 1052,-1144 1052,-1144 1052,-1150 1046,-1156 1040,-1156"/>
<text text-anchor="middle" x="967" y="-1134" font-family="Sans" font-size="10.00" fill="#000000">Remove references to derivation</text>
</a>
</g>
</g>
<!-- CCM#214&#45;&gt;CCM#134 -->
<g id="edge9" class="edge">
<title>CCM#214-&gt;CCM#134</title>
<path fill="none" stroke="#000000" stroke-width="2" d="M753.2296,-1136.5C788.8301,-1136.5 832.7735,-1136.5 871.5418,-1136.5"/>
<polygon fill="#000000" stroke="#000000" stroke-width="2" points="871.8014,-1140.0001 881.8014,-1136.5 871.8013,-1133.0001 871.8014,-1140.0001"/>
<text text-anchor="middle" x="806.3879" y="-1128.5" font-family="Sans" font-size="10.00" fill="#000000">fixes</text>
</g>
<!-- configuration&#45;modules&#45;core#1810 -->
<g id="node15" class="node">
<title>configuration-modules-core#1810</title>
<g id="a_node15"><a xlink:href="https://github.com/quattor/configuration-modules-core/pull/1810" xlink:title="configuration-modules-core#1810 (pull-request)" target="_parent">
<polygon fill="#6cc644" stroke="#000000" points="477,-1115.5 304,-1115.5 304,-1065.5 477,-1065.5 477,-1115.5"/>
<text text-anchor="middle" x="390.5" y="-1093.5" font-family="Sans" font-size="10.00" fill="#000000">ncm-metaconfig: updated filebeat</text>
<text text-anchor="middle" x="390.5" y="-1082.5" font-family="Sans" font-size="10.00" fill="#000000">7.x schema to fix #1728</text>
</a>
</g>
</g>
<!-- configuration&#45;modules&#45;core#1728 -->
<g id="node16" class="node">
<title>configuration-modules-core#1728</title>
<g id="a_node16"><a xlink:href="https://github.com/quattor/configuration-modules-core/issues/1728" xlink:title="configuration-modules-core#1728 (issue)" target="_parent">
<path fill="#6cc644" stroke="#000000" d="M759,-1093C759,-1093 609,-1093 609,-1093 603,-1093 597,-1087 597,-1081 597,-1081 597,-1044 597,-1044 597,-1038 603,-1032 609,-1032 609,-1032 759,-1032 759,-1032 765,-1032 771,-1038 771,-1044 771,-1044 771,-1081 771,-1081 771,-1087 765,-1093 759,-1093"/>
<text text-anchor="middle" x="684" y="-1071" font-family="Sans" font-size="10.00" fill="#000000">ncm-metaconfig: fixing filebeat</text>
<text text-anchor="middle" x="684" y="-1060" font-family="Sans" font-size="10.00" fill="#000000">schema 7.0 and adding additional</text>
<text text-anchor="middle" x="684" y="-1049" font-family="Sans" font-size="10.00" fill="#000000">processor</text>
</a>
</g>
</g>
<!-- configuration&#45;modules&#45;core#1810&#45;&gt;configuration&#45;modules&#45;core#1728 -->
<g id="edge10" class="edge">
<title>configuration-modules-core#1810-&gt;configuration-modules-core#1728</title>
<path fill="none" stroke="#000000" stroke-width="2" d="M477.3684,-1082.2127C511.6766,-1078.9397 551.2554,-1075.1639 586.5347,-1071.7982"/>
<polygon fill="#000000" stroke="#000000" stroke-width="2" points="587.225,-1075.2484 596.8473,-1070.8144 586.5601,-1068.28 587.225,-1075.2484"/>
<text text-anchor="middle" x="526.255" y="-1068.4995" font-family="Sans" font-size="10.00" fill="#000000">fixes</text>
</g>
<!-- configuration&#45;modules&#45;core#1788 -->
<g id="node17" class="node">
<title>configuration-modules-core#1788</title>
<g id="a_node17"><a xlink:href="https://github.com/quattor/configuration-modules-core/pull/1788" xlink:title="configuration-modules-core#1788 (pull-request)" target="_parent">
<polygon fill="#6e5494" stroke="#000000" points="461.5,-1047.5 319.5,-1047.5 319.5,-997.5 461.5,-997.5 461.5,-1047.5"/>
<text text-anchor="middle" x="390.5" y="-1025.5" font-family="Sans" font-size="10.00" fill="#000000">ncm-systemd: ensure unit</text>
<text text-anchor="middle" x="390.5" y="-1014.5" font-family="Sans" font-size="10.00" fill="#000000">property is defined</text>
</a>
</g>
</g>
<!-- configuration&#45;modules&#45;core#1787 -->
<g id="node18" class="node">
<title>configuration-modules-core#1787</title>
<g id="a_node18"><a xlink:href="https://github.com/quattor/configuration-modules-core/issues/1787" xlink:title="configuration-modules-core#1787 (issue)" target="_parent">
<path fill="#6e5494" stroke="#000000" d="M757,-1013.5C757,-1013.5 611,-1013.5 611,-1013.5 605,-1013.5 599,-1007.5 599,-1001.5 599,-1001.5 599,-975.5 599,-975.5 599,-969.5 605,-963.5 611,-963.5 611,-963.5 757,-963.5 757,-963.5 763,-963.5 769,-969.5 769,-975.5 769,-975.5 769,-1001.5 769,-1001.5 769,-1007.5 763,-1013.5 757,-1013.5"/>
<text text-anchor="middle" x="684" y="-991.5" font-family="Sans" font-size="10.00" fill="#000000">ncm-systemd 24.10.0: validation</text>
<text text-anchor="middle" x="684" y="-980.5" font-family="Sans" font-size="10.00" fill="#000000">fails if no unit is defined</text>
</a>
</g>
</g>
<!-- configuration&#45;modules&#45;core#1788&#45;&gt;configuration&#45;modules&#45;core#1787 -->
<g id="edge11" class="edge">
<title>configuration-modules-core#1788-&gt;configuration-modules-core#1787</title>
<path fill="none" stroke="#000000" stroke-width="2" d="M461.5482,-1014.2695C499.7903,-1009.8395 547.4772,-1004.3152 588.8802,-999.519"/>
<polygon fill="#000000" stroke="#000000" stroke-width="2" points="589.4537,-1002.976 598.9845,-998.3485 588.6481,-996.0225 589.4537,-1002.976"/>
<text text-anchor="middle" x="519.1907" y="-998.3178" font-family="Sans" font-size="10.00" fill="#000000">fixes</text>
</g>
<!-- configuration&#45;modules&#45;core#1783 -->
<g id="node19" class="node">
<title>configuration-modules-core#1783</title>
<g id="a_node19"><a xlink:href="https://github.com/quattor/configuration-modules-core/pull/1783" xlink:title="configuration-modules-core#1783 (pull-request)" target="_parent">
<polygon fill="#6cc644" stroke="#000000" points="475.5,-979 305.5,-979 305.5,-918 475.5,-918 475.5,-979"/>
<text text-anchor="middle" x="390.5" y="-957" font-family="Sans" font-size="10.00" fill="#000000">metaconfig/named: fix validation</text>
<text text-anchor="middle" x="390.5" y="-946" font-family="Sans" font-size="10.00" fill="#000000">of logging channels in</text>
<text text-anchor="middle" x="390.5" y="-935" font-family="Sans" font-size="10.00" fill="#000000">categories</text>
</a>
</g>
</g>
<!-- configuration&#45;modules&#45;core#1784 -->
<g id="node20" class="node">
<title>configuration-modules-core#1784</title>
<g id="a_node20"><a xlink:href="https://github.com/quattor/configuration-modules-core/issues/1784" xlink:title="configuration-modules-core#1784 (issue)" target="_parent">
<path fill="#6cc644" stroke="#000000" d="M755.5,-945C755.5,-945 612.5,-945 612.5,-945 606.5,-945 600.5,-939 600.5,-933 600.5,-933 600.5,-896 600.5,-896 600.5,-890 606.5,-884 612.5,-884 612.5,-884 755.5,-884 755.5,-884 761.5,-884 767.5,-890 767.5,-896 767.5,-896 767.5,-933 767.5,-933 767.5,-939 761.5,-945 755.5,-945"/>
<text text-anchor="middle" x="684" y="-923" font-family="Sans" font-size="10.00" fill="#000000">ncm-metaconfig 24.10.0 named</text>
<text text-anchor="middle" x="684" y="-912" font-family="Sans" font-size="10.00" fill="#000000">module: error in logging channel</text>
<text text-anchor="middle" x="684" y="-901" font-family="Sans" font-size="10.00" fill="#000000">name validation</text>
</a>
</g>
</g>
<!-- configuration&#45;modules&#45;core#1783&#45;&gt;configuration&#45;modules&#45;core#1784 -->
<g id="edge12" class="edge">
<title>configuration-modules-core#1783-&gt;configuration-modules-core#1784</title>
<path fill="none" stroke="#000000" stroke-width="2" d="M475.7866,-938.6201C511.6011,-934.4713 553.3769,-929.6318 590.069,-925.3813"/>
<polygon fill="#000000" stroke="#000000" stroke-width="2" points="590.7433,-928.8267 600.274,-924.1991 589.9377,-921.8732 590.7433,-928.8267"/>
<text text-anchor="middle" x="527.0869" y="-923.4031" font-family="Sans" font-size="10.00" fill="#000000">fixes</text>
</g>
<!-- configuration&#45;modules&#45;core#1739 -->
<g id="node21" class="node">
<title>configuration-modules-core#1739</title>
<g id="a_node21"><a xlink:href="https://github.com/quattor/configuration-modules-core/pull/1739" xlink:title="configuration-modules-core#1739 (pull-request)" target="_parent">
<polygon fill="#6cc644" stroke="#000000" points="474.5,-900 306.5,-900 306.5,-839 474.5,-839 474.5,-900"/>
<text text-anchor="middle" x="390.5" y="-878" font-family="Sans" font-size="10.00" fill="#000000">ncm-network: dropin file support</text>
<text text-anchor="middle" x="390.5" y="-867" font-family="Sans" font-size="10.00" fill="#000000">for main configuration of</text>
<text text-anchor="middle" x="390.5" y="-856" font-family="Sans" font-size="10.00" fill="#000000">NetworkManager</text>
</a>
</g>
</g>
<!-- configuration&#45;modules&#45;core#1740 -->
<g id="node22" class="node">
<title>configuration-modules-core#1740</title>
<g id="a_node22"><a xlink:href="https://github.com/quattor/configuration-modules-core/issues/1740" xlink:title="configuration-modules-core#1740 (issue)" target="_parent">
<path fill="#6cc644" stroke="#000000" d="M745,-866C745,-866 623,-866 623,-866 617,-866 611,-860 611,-854 611,-854 611,-817 611,-817 611,-811 617,-805 623,-805 623,-805 745,-805 745,-805 751,-805 757,-811 757,-817 757,-817 757,-854 757,-854 757,-860 751,-866 745,-866"/>
<text text-anchor="middle" x="684" y="-844" font-family="Sans" font-size="10.00" fill="#000000">ncm-network - capability to</text>
<text text-anchor="middle" x="684" y="-833" font-family="Sans" font-size="10.00" fill="#000000">manage main section of</text>
<text text-anchor="middle" x="684" y="-822" font-family="Sans" font-size="10.00" fill="#000000">NetworkManager.conf</text>
</a>
</g>
</g>
<!-- configuration&#45;modules&#45;core#1739&#45;&gt;configuration&#45;modules&#45;core#1740 -->
<g id="edge13" class="edge">
<title>configuration-modules-core#1739-&gt;configuration-modules-core#1740</title>
<path fill="none" stroke="#000000" stroke-width="2" d="M474.6053,-859.757C514.1855,-855.1719 561.2503,-849.7197 600.7249,-845.1469"/>
<polygon fill="#000000" stroke="#000000" stroke-width="2" points="601.3203,-848.6014 610.8511,-843.9738 600.5148,-841.6479 601.3203,-848.6014"/>
<text text-anchor="middle" x="531.7773" y="-843.8597" font-family="Sans" font-size="10.00" fill="#000000">fixes</text>
</g>
<!-- configuration&#45;modules&#45;core#1554 -->
<g id="node23" class="node">
<title>configuration-modules-core#1554</title>
<g id="a_node23"><a xlink:href="https://github.com/quattor/configuration-modules-core/pull/1554" xlink:title="configuration-modules-core#1554 (pull-request)" target="_parent">
<polygon fill="#6cc644" stroke="#000000" points="466.5,-820.5 314.5,-820.5 314.5,-770.5 466.5,-770.5 466.5,-820.5"/>
<text text-anchor="middle" x="390.5" y="-798.5" font-family="Sans" font-size="10.00" fill="#000000">avoid removing empty list of</text>
<text text-anchor="middle" x="390.5" y="-787.5" font-family="Sans" font-size="10.00" fill="#000000">packages</text>
</a>
</g>
</g>
<!-- configuration&#45;modules&#45;core#1553 -->
<g id="node24" class="node">
<title>configuration-modules-core#1553</title>
<g id="a_node24"><a xlink:href="https://github.com/quattor/configuration-modules-core/issues/1553" xlink:title="configuration-modules-core#1553 (issue)" target="_parent">
<path fill="#6cc644" stroke="#000000" d="M756,-787C756,-787 612,-787 612,-787 606,-787 600,-781 600,-775 600,-775 600,-738 600,-738 600,-732 606,-726 612,-726 612,-726 756,-726 756,-726 762,-726 768,-732 768,-738 768,-738 768,-775 768,-775 768,-781 762,-787 756,-787"/>
<text text-anchor="middle" x="684" y="-765" font-family="Sans" font-size="10.00" fill="#000000">ncm-spma: update_pkgs in yum</text>
<text text-anchor="middle" x="684" y="-754" font-family="Sans" font-size="10.00" fill="#000000">plugin tries to remove empty</text>
<text text-anchor="middle" x="684" y="-743" font-family="Sans" font-size="10.00" fill="#000000">list of packages</text>
</a>
</g>
</g>
<!-- configuration&#45;modules&#45;core#1554&#45;&gt;configuration&#45;modules&#45;core#1553 -->
<g id="edge14" class="edge">
<title>configuration-modules-core#1554-&gt;configuration-modules-core#1553</title>
<path fill="none" stroke="#000000" stroke-width="2" d="M466.8475,-785.355C504.4266,-780.3615 550.0777,-774.2955 589.8072,-769.0162"/>
<polygon fill="#000000" stroke="#000000" stroke-width="2" points="590.32,-772.479 599.7718,-767.6922 589.3979,-765.54 590.32,-772.479"/>
<text text-anchor="middle" x="521.9596" y="-768.5701" font-family="Sans" font-size="10.00" fill="#000000">fixes</text>
</g>
<!-- configuration&#45;modules&#45;core#1507 -->
<g id="node25" class="node">
<title>configuration-modules-core#1507</title>
<g id="a_node25"><a xlink:href="https://github.com/quattor/configuration-modules-core/pull/1507" xlink:title="configuration-modules-core#1507 (pull-request)" target="_parent">
<polygon fill="#6cc644" stroke="#000000" points="175,-1391.5 12,-1391.5 12,-1341.5 175,-1341.5 175,-1391.5"/>
<text text-anchor="middle" x="93.5" y="-1369.5" font-family="Sans" font-size="10.00" fill="#000000">[WIP] ncm-spma: yumdnf: use</text>
<text text-anchor="middle" x="93.5" y="-1358.5" font-family="Sans" font-size="10.00" fill="#000000">spmaleaves dnf plugin</text>
</a>
</g>
</g>
<!-- configuration&#45;modules&#45;core#1401 -->
<g id="node26" class="node">
<title>configuration-modules-core#1401</title>
<polygon fill="#d3d3d3" stroke="#000000" points="476.5,-1386 304.5,-1386 304.5,-1347 476.5,-1347 476.5,-1386"/>
<text text-anchor="middle" x="390.5" y="-1364" font-family="Sans" font-size="10.00" fill="#000000">configuration-modules-core#1401</text>
</g>
<!-- configuration&#45;modules&#45;core#1507&#45;&gt;configuration&#45;modules&#45;core#1401 -->
<g id="edge15" class="edge">
<title>configuration-modules-core#1507-&gt;configuration-modules-core#1401</title>
<path fill="none" stroke="#000000" stroke-dasharray="5,2" d="M175.0494,-1366.5C211.937,-1366.5 255.7952,-1366.5 294.2825,-1366.5"/>
<polygon fill="none" stroke="#000000" points="294.4629,-1370.0001 304.4629,-1366.5 294.4628,-1363.0001 294.4629,-1370.0001"/>
<text text-anchor="middle" x="222.3037" y="-1358.5" font-family="Sans" font-size="10.00" fill="#000000">requires</text>
</g>
<!-- configuration&#45;modules&#45;core#1336 -->
<g id="node27" class="node">
<title>configuration-modules-core#1336</title>
<g id="a_node27"><a xlink:href="https://github.com/quattor/configuration-modules-core/pull/1336" xlink:title="configuration-modules-core#1336 (pull-request)" target="_parent">
<polygon fill="#6cc644" stroke="#000000" points="172.5,-1503 14.5,-1503 14.5,-1442 172.5,-1442 172.5,-1503"/>
<text text-anchor="middle" x="93.5" y="-1481" font-family="Sans" font-size="10.00" fill="#000000">ncm-network: Add support for</text>
<text text-anchor="middle" x="93.5" y="-1470" font-family="Sans" font-size="10.00" fill="#000000">CAF::Service actions after</text>
<text text-anchor="middle" x="93.5" y="-1459" font-family="Sans" font-size="10.00" fill="#000000">changes</text>
</a>
</g>
</g>
<!-- configuration&#45;modules&#45;core#1335 -->
<g id="node28" class="node">
<title>configuration-modules-core#1335</title>
<g id="a_node28"><a xlink:href="https://github.com/quattor/configuration-modules-core/pull/1335" xlink:title="configuration-modules-core#1335 (pull-request)" target="_parent">
<polygon fill="#6cc644" stroke="#000000" points="475,-1534 306,-1534 306,-1473 475,-1473 475,-1534"/>
<text text-anchor="middle" x="390.5" y="-1512" font-family="Sans" font-size="10.00" fill="#000000">ncm-metaconfig: Remove</text>
<text text-anchor="middle" x="390.5" y="-1501" font-family="Sans" font-size="10.00" fill="#000000">caf_service_action type to allow</text>
<text text-anchor="middle" x="390.5" y="-1490" font-family="Sans" font-size="10.00" fill="#000000">reuse</text>
</a>
</g>
</g>
<!-- configuration&#45;modules&#45;core#1336&#45;&gt;configuration&#45;modules&#45;core#1335 -->
<g id="edge16" class="edge">
<title>configuration-modules-core#1336-&gt;configuration-modules-core#1335</title>
<path fill="none" stroke="#000000" stroke-dasharray="5,2" d="M172.7004,-1480.7667C210.5615,-1484.7185 256.1699,-1489.479 295.8466,-1493.6203"/>
<polygon fill="none" stroke="#000000" points="295.4884,-1497.1019 305.7977,-1494.659 296.2151,-1490.1397 295.4884,-1497.1019"/>
<text text-anchor="middle" x="221.535" y="-1479.6905" font-family="Sans" font-size="10.00" fill="#000000">requires</text>
</g>
<!-- configuration&#45;modules&#45;core#1071 -->
<g id="node29" class="node">
<title>configuration-modules-core#1071</title>
<g id="a_node29"><a xlink:href="https://github.com/quattor/configuration-modules-core/issues/1071" xlink:title="configuration-modules-core#1071 (issue)" target="_parent">
<path fill="#6cc644" stroke="#000000" d="M467,-1454.5C467,-1454.5 314,-1454.5 314,-1454.5 308,-1454.5 302,-1448.5 302,-1442.5 302,-1442.5 302,-1416.5 302,-1416.5 302,-1410.5 308,-1404.5 314,-1404.5 314,-1404.5 467,-1404.5 467,-1404.5 473,-1404.5 479,-1410.5 479,-1416.5 479,-1416.5 479,-1442.5 479,-1442.5 479,-1448.5 473,-1454.5 467,-1454.5"/>
<text text-anchor="middle" x="390.5" y="-1432.5" font-family="Sans" font-size="10.00" fill="#000000">ncm-network: support daemons to</text>
<text text-anchor="middle" x="390.5" y="-1421.5" font-family="Sans" font-size="10.00" fill="#000000">restart after network changes</text>
</a>
</g>
</g>
<!-- configuration&#45;modules&#45;core#1336&#45;&gt;configuration&#45;modules&#45;core#1071 -->
<g id="edge17" class="edge">
<title>configuration-modules-core#1336-&gt;configuration-modules-core#1071</title>
<path fill="none" stroke="#000000" stroke-width="2" d="M172.7004,-1461.0333C209.218,-1455.7462 252.9428,-1449.4157 291.601,-1443.8187"/>
<polygon fill="#000000" stroke="#000000" stroke-width="2" points="292.4392,-1447.2339 301.8345,-1442.3371 291.4362,-1440.3062 292.4392,-1447.2339"/>
<text text-anchor="middle" x="226.5484" y="-1443.6445" font-family="Sans" font-size="10.00" fill="#000000">fixes</text>
</g>
<!-- template&#45;library&#45;core#191 -->
<g id="node30" class="node">
<title>template-library-core#191</title>
<polygon fill="#d3d3d3" stroke="#000000" points="753,-1523 615,-1523 615,-1484 753,-1484 753,-1523"/>
<text text-anchor="middle" x="684" y="-1501" font-family="Sans" font-size="10.00" fill="#000000">template-library-core#191</text>
</g>
<!-- configuration&#45;modules&#45;core#1335&#45;&gt;template&#45;library&#45;core#191 -->
<g id="edge18" class="edge">
<title>configuration-modules-core#1335-&gt;template-library-core#191</title>
<path fill="none" stroke="#000000" stroke-dasharray="5,2" d="M475.3924,-1503.5C516.0413,-1503.5 564.4407,-1503.5 604.3825,-1503.5"/>
<polygon fill="none" stroke="#000000" points="604.6102,-1507.0001 614.6102,-1503.5 604.6101,-1500.0001 604.6102,-1507.0001"/>
<text text-anchor="middle" x="527.3279" y="-1495.5" font-family="Sans" font-size="10.00" fill="#000000">requires</text>
</g>
<!-- configuration&#45;modules&#45;core#1148 -->
<g id="node31" class="node">
<title>configuration-modules-core#1148</title>
<g id="a_node31"><a xlink:href="https://github.com/quattor/configuration-modules-core/pull/1148" xlink:title="configuration-modules-core#1148 (pull-request)" target="_parent">
<polygon fill="#6cc644" stroke="#000000" points="183,-1670.5 4,-1670.5 4,-1620.5 183,-1620.5 183,-1670.5"/>
<text text-anchor="middle" x="93.5" y="-1648.5" font-family="Sans" font-size="10.00" fill="#000000">ncm-spma: Remove support from</text>
<text text-anchor="middle" x="93.5" y="-1637.5" font-family="Sans" font-size="10.00" fill="#000000">groups from spma yumng backend</text>
</a>
</g>
</g>
<!-- configuration&#45;modules&#45;core#952 -->
<g id="node32" class="node">
<title>configuration-modules-core#952</title>
<g id="a_node32"><a xlink:href="https://github.com/quattor/configuration-modules-core/issues/952" xlink:title="configuration-modules-core#952 (issue)" target="_parent">
<path fill="#6cc644" stroke="#000000" d="M474,-1670.5C474,-1670.5 307,-1670.5 307,-1670.5 301,-1670.5 295,-1664.5 295,-1658.5 295,-1658.5 295,-1632.5 295,-1632.5 295,-1626.5 301,-1620.5 307,-1620.5 307,-1620.5 474,-1620.5 474,-1620.5 480,-1620.5 486,-1626.5 486,-1632.5 486,-1632.5 486,-1658.5 486,-1658.5 486,-1664.5 480,-1670.5 474,-1670.5"/>
<text text-anchor="middle" x="390.5" y="-1648.5" font-family="Sans" font-size="10.00" fill="#000000">ncm-spma (yumng): Remove support</text>
<text text-anchor="middle" x="390.5" y="-1637.5" font-family="Sans" font-size="10.00" fill="#000000">for package groups</text>
</a>
</g>
</g>
<!-- configuration&#45;modules&#45;core#1148&#45;&gt;configuration&#45;modules&#45;core#952 -->
<g id="edge19" class="edge">
<title>configuration-modules-core#1148-&gt;configuration-modules-core#952</title>
<path fill="none" stroke="#000000" stroke-width="2" d="M183.0126,-1645.5C215.0535,-1645.5 251.4693,-1645.5 284.7528,-1645.5"/>
<polygon fill="#000000" stroke="#000000" stroke-width="2" points="284.9733,-1649.0001 294.9733,-1645.5 284.9733,-1642.0001 284.9733,-1649.0001"/>
<text text-anchor="middle" x="228.0876" y="-1637.5" font-family="Sans" font-size="10.00" fill="#000000">fixes</text>
</g>
<!-- configuration&#45;modules&#45;core#950 -->
<g id="node33" class="node">
<title>configuration-modules-core#950</title>
<g id="a_node33"><a xlink:href="https://github.com/quattor/configuration-modules-core/issues/950" xlink:title="configuration-modules-core#950 (issue)" target="_parent">
<path fill="#6cc644" stroke="#000000" d="M175,-1602.5C175,-1602.5 12,-1602.5 12,-1602.5 6,-1602.5 0,-1596.5 0,-1590.5 0,-1590.5 0,-1564.5 0,-1564.5 0,-1558.5 6,-1552.5 12,-1552.5 12,-1552.5 175,-1552.5 175,-1552.5 181,-1552.5 187,-1558.5 187,-1564.5 187,-1564.5 187,-1590.5 187,-1590.5 187,-1596.5 181,-1602.5 175,-1602.5"/>
<text text-anchor="middle" x="93.5" y="-1580.5" font-family="Sans" font-size="10.00" fill="#000000">ncm-spma: Remove support for</text>
<text text-anchor="middle" x="93.5" y="-1569.5" font-family="Sans" font-size="10.00" fill="#000000">package groups from yum backends</text>
</a>
</g>
</g>
<!-- configuration&#45;modules&#45;core#950&#45;&gt;configuration&#45;modules&#45;core#952 -->
<g id="edge21" class="edge">
<title>configuration-modules-core#950-&gt;configuration-modules-core#952</title>
<path fill="none" stroke="#000000" stroke-dasharray="5,2" d="M187.065,-1598.9223C218.1915,-1606.0489 253.0665,-1614.0337 285.0303,-1621.3521"/>
<polygon fill="none" stroke="#000000" points="284.3204,-1624.78 294.8493,-1623.6002 285.8827,-1617.9566 284.3204,-1624.78"/>
<text text-anchor="middle" x="223.6849" y="-1603.3134" font-family="Sans" font-size="10.00" fill="#000000">requires</text>
</g>
<!-- configuration&#45;modules&#45;core#951 -->
<g id="node34" class="node">
<title>configuration-modules-core#951</title>
<g id="a_node34"><a xlink:href="https://github.com/quattor/configuration-modules-core/issues/951" xlink:title="configuration-modules-core#951 (issue)" target="_parent">
<path fill="#6cc644" stroke="#000000" d="M468.5,-1602.5C468.5,-1602.5 312.5,-1602.5 312.5,-1602.5 306.5,-1602.5 300.5,-1596.5 300.5,-1590.5 300.5,-1590.5 300.5,-1564.5 300.5,-1564.5 300.5,-1558.5 306.5,-1552.5 312.5,-1552.5 312.5,-1552.5 468.5,-1552.5 468.5,-1552.5 474.5,-1552.5 480.5,-1558.5 480.5,-1564.5 480.5,-1564.5 480.5,-1590.5 480.5,-1590.5 480.5,-1596.5 474.5,-1602.5 468.5,-1602.5"/>
<text text-anchor="middle" x="390.5" y="-1580.5" font-family="Sans" font-size="10.00" fill="#000000">ncm-spma (yum): Remove support</text>
<text text-anchor="middle" x="390.5" y="-1569.5" font-family="Sans" font-size="10.00" fill="#000000">for package groups</text>
</a>
</g>
</g>
<!-- configuration&#45;modules&#45;core#950&#45;&gt;configuration&#45;modules&#45;core#951 -->
<g id="edge20" class="edge">
<title>configuration-modules-core#950-&gt;configuration-modules-core#951</title>
<path fill="none" stroke="#000000" stroke-dasharray="5,2" d="M187.065,-1577.5C219.8866,-1577.5 256.8759,-1577.5 290.2252,-1577.5"/>
<polygon fill="none" stroke="#000000" points="290.4495,-1581.0001 300.4494,-1577.5 290.4494,-1574.0001 290.4495,-1581.0001"/>
<text text-anchor="middle" x="226.2859" y="-1569.5" font-family="Sans" font-size="10.00" fill="#000000">requires</text>
</g>
<!-- configuration&#45;modules&#45;grid#151 -->
<g id="node35" class="node">
<title>configuration-modules-grid#151</title>
<g id="a_node35"><a xlink:href="https://github.com/quattor/configuration-modules-grid/pull/151" xlink:title="configuration-modules-grid#151 (pull-request)" target="_parent">
<polygon fill="#6cc644" stroke="#000000" points="467.5,-752.5 313.5,-752.5 313.5,-702.5 467.5,-702.5 467.5,-752.5"/>
<text text-anchor="middle" x="390.5" y="-730.5" font-family="Sans" font-size="10.00" fill="#000000">ncm-maui: Remove obsolete</text>
<text text-anchor="middle" x="390.5" y="-719.5" font-family="Sans" font-size="10.00" fill="#000000">component</text>
</a>
</g>
</g>
<!-- configuration&#45;modules&#45;grid#85 -->
<g id="node36" class="node">
<title>configuration-modules-grid#85</title>
<g id="a_node36"><a xlink:href="https://github.com/quattor/configuration-modules-grid/issues/85" xlink:title="configuration-modules-grid#85 (issue)" target="_parent">
<path fill="#6cc644" stroke="#000000" d="M762,-707.5C762,-707.5 606,-707.5 606,-707.5 600,-707.5 594,-701.5 594,-695.5 594,-695.5 594,-669.5 594,-669.5 594,-663.5 600,-657.5 606,-657.5 606,-657.5 762,-657.5 762,-657.5 768,-657.5 774,-663.5 774,-669.5 774,-669.5 774,-695.5 774,-695.5 774,-701.5 768,-707.5 762,-707.5"/>
<text text-anchor="middle" x="684" y="-685.5" font-family="Sans" font-size="10.00" fill="#000000">deprecate / remove ncm-moab and</text>
<text text-anchor="middle" x="684" y="-674.5" font-family="Sans" font-size="10.00" fill="#000000">ncm-maui</text>
</a>
</g>
</g>
<!-- configuration&#45;modules&#45;grid#151&#45;&gt;configuration&#45;modules&#45;grid#85 -->
<g id="edge22" class="edge">
<title>configuration-modules-grid#151-&gt;configuration-modules-grid#85</title>
<path fill="none" stroke="#000000" stroke-width="2" d="M467.6137,-715.6768C503.161,-710.2266 545.805,-703.6883 583.8035,-697.8623"/>
<polygon fill="#000000" stroke="#000000" stroke-width="2" points="584.5167,-701.294 593.8707,-696.3188 583.4557,-694.3748 584.5167,-701.294"/>
<text text-anchor="middle" x="519.8467" y="-697.9818" font-family="Sans" font-size="10.00" fill="#000000">fixes</text>
</g>
<!-- ncm&#45;lib&#45;blockdevices#111 -->
<g id="node37" class="node">
<title>ncm-lib-blockdevices#111</title>
<g id="a_node37"><a xlink:href="https://github.com/quattor/ncm-lib-blockdevices/pull/111" xlink:title="ncm-lib-blockdevices#111 (pull-request)" target="_parent">
<polygon fill="#6e5494" stroke="#000000" points="476.5,-684.5 304.5,-684.5 304.5,-634.5 476.5,-634.5 476.5,-684.5"/>
<text text-anchor="middle" x="390.5" y="-662.5" font-family="Sans" font-size="10.00" fill="#000000">option to always use device path</text>
<text text-anchor="middle" x="390.5" y="-651.5" font-family="Sans" font-size="10.00" fill="#000000">for mounts instead of uuid</text>
</a>
</g>
</g>
<!-- ncm&#45;lib&#45;blockdevices#110 -->
<g id="node38" class="node">
<title>ncm-lib-blockdevices#110</title>
<g id="a_node38"><a xlink:href="https://github.com/quattor/ncm-lib-blockdevices/issues/110" xlink:title="ncm-lib-blockdevices#110 (issue)" target="_parent">
<path fill="#6e5494" stroke="#000000" d="M753.5,-639.5C753.5,-639.5 614.5,-639.5 614.5,-639.5 608.5,-639.5 602.5,-633.5 602.5,-627.5 602.5,-627.5 602.5,-601.5 602.5,-601.5 602.5,-595.5 608.5,-589.5 614.5,-589.5 614.5,-589.5 753.5,-589.5 753.5,-589.5 759.5,-589.5 765.5,-595.5 765.5,-601.5 765.5,-601.5 765.5,-627.5 765.5,-627.5 765.5,-633.5 759.5,-639.5 753.5,-639.5"/>
<text text-anchor="middle" x="684" y="-617.5" font-family="Sans" font-size="10.00" fill="#000000">Do not set uuid for vxvm vol in</text>
<text text-anchor="middle" x="684" y="-606.5" font-family="Sans" font-size="10.00" fill="#000000">fstab</text>
</a>
</g>
</g>
<!-- ncm&#45;lib&#45;blockdevices#111&#45;&gt;ncm&#45;lib&#45;blockdevices#110 -->
<g id="edge23" class="edge">
<title>ncm-lib-blockdevices#111-&gt;ncm-lib-blockdevices#110</title>
<path fill="none" stroke="#000000" stroke-width="2" d="M476.5766,-646.3026C512.9102,-640.7318 555.2664,-634.2377 592.1966,-628.5755"/>
<polygon fill="#000000" stroke="#000000" stroke-width="2" points="593.1053,-631.9771 602.4594,-627.002 592.0444,-625.058 593.1053,-631.9771"/>
<text text-anchor="middle" x="528.2546" y="-628.6926" font-family="Sans" font-size="10.00" fill="#000000">fixes</text>
</g>
<!-- ncm&#45;lib&#45;blockdevices#106 -->
<g id="node39" class="node">
<title>ncm-lib-blockdevices#106</title>
<g id="a_node39"><a xlink:href="https://github.com/quattor/ncm-lib-blockdevices/pull/106" xlink:title="ncm-lib-blockdevices#106 (pull-request)" target="_parent">
<polygon fill="#6cc644" stroke="#000000" points="472.5,-616.5 308.5,-616.5 308.5,-566.5 472.5,-566.5 472.5,-616.5"/>
<text text-anchor="middle" x="390.5" y="-594.5" font-family="Sans" font-size="10.00" fill="#000000">Partition: Mask DM/LVM rules,</text>
<text text-anchor="middle" x="390.5" y="-583.5" font-family="Sans" font-size="10.00" fill="#000000">don't stop udev</text>
</a>
</g>
</g>
<!-- ncm&#45;lib&#45;blockdevices#105 -->
<g id="node40" class="node">
<title>ncm-lib-blockdevices#105</title>
<g id="a_node40"><a xlink:href="https://github.com/quattor/ncm-lib-blockdevices/issues/105" xlink:title="ncm-lib-blockdevices#105 (issue)" target="_parent">
<path fill="#6cc644" stroke="#000000" d="M747.5,-571C747.5,-571 620.5,-571 620.5,-571 614.5,-571 608.5,-565 608.5,-559 608.5,-559 608.5,-522 608.5,-522 608.5,-516 614.5,-510 620.5,-510 620.5,-510 747.5,-510 747.5,-510 753.5,-510 759.5,-516 759.5,-522 759.5,-522 759.5,-559 759.5,-559 759.5,-565 753.5,-571 747.5,-571"/>
<text text-anchor="middle" x="684" y="-549" font-family="Sans" font-size="10.00" fill="#000000">Pausing udev makes</text>
<text text-anchor="middle" x="684" y="-538" font-family="Sans" font-size="10.00" fill="#000000">`/dev/disk/by-*` unusable for</text>
<text text-anchor="middle" x="684" y="-527" font-family="Sans" font-size="10.00" fill="#000000">installations</text>
</a>
</g>
</g>
<!-- ncm&#45;lib&#45;blockdevices#106&#45;&gt;ncm&#45;lib&#45;blockdevices#105 -->
<g id="edge24" class="edge">
<title>ncm-lib-blockdevices#106-&gt;ncm-lib-blockdevices#105</title>
<path fill="none" stroke="#000000" stroke-width="2" d="M472.6464,-577.2258C511.8868,-570.4072 558.827,-562.2507 598.4926,-555.3582"/>
<polygon fill="#000000" stroke="#000000" stroke-width="2" points="599.1581,-558.7951 608.4112,-553.6347 597.9597,-551.8984 599.1581,-558.7951"/>
<text text-anchor="middle" x="529.4722" y="-557.4401" font-family="Sans" font-size="10.00" fill="#000000">fixes</text>
</g>
<!-- release#370 -->
<g id="node41" class="node">
<title>release#370</title>
<g id="a_node41"><a xlink:href="https://github.com/quattor/release/pull/370" xlink:title="release#370 (pull-request)" target="_parent">
<polygon fill="#6e5494" stroke="#000000" points="471.5,-548.5 309.5,-548.5 309.5,-498.5 471.5,-498.5 471.5,-548.5"/>
<text text-anchor="middle" x="390.5" y="-526.5" font-family="Sans" font-size="10.00" fill="#000000">Update template library scripts</text>
<text text-anchor="middle" x="390.5" y="-515.5" font-family="Sans" font-size="10.00" fill="#000000">for new repository structure</text>
</a>
</g>
</g>
<!-- release#373 -->
<g id="node42" class="node">
<title>release#373</title>
<g id="a_node42"><a xlink:href="https://github.com/quattor/release/issues/373" xlink:title="release#373 (issue)" target="_parent">
<path fill="#6e5494" stroke="#000000" d="M758.5,-492C758.5,-492 609.5,-492 609.5,-492 603.5,-492 597.5,-486 597.5,-480 597.5,-480 597.5,-443 597.5,-443 597.5,-437 603.5,-431 609.5,-431 609.5,-431 758.5,-431 758.5,-431 764.5,-431 770.5,-437 770.5,-443 770.5,-443 770.5,-480 770.5,-480 770.5,-486 764.5,-492 758.5,-492"/>
<text text-anchor="middle" x="684" y="-470" font-family="Sans" font-size="10.00" fill="#000000">get-template-library: update the</text>
<text text-anchor="middle" x="684" y="-459" font-family="Sans" font-size="10.00" fill="#000000">default master branch name after</text>
<text text-anchor="middle" x="684" y="-448" font-family="Sans" font-size="10.00" fill="#000000">master -&gt; main rename</text>
</a>
</g>
</g>
<!-- release#370&#45;&gt;release#373 -->
<g id="edge25" class="edge">
<title>release#370-&gt;release#373</title>
<path fill="none" stroke="#000000" stroke-width="2" d="M471.8664,-506.3119C507.6846,-498.7455 550.0351,-489.7992 587.4397,-481.8978"/>
<polygon fill="#000000" stroke="#000000" stroke-width="2" points="588.2799,-485.2976 597.3406,-479.8063 586.8331,-478.4487 588.2799,-485.2976"/>
<text text-anchor="middle" x="523.6142" y="-485.0568" font-family="Sans" font-size="10.00" fill="#000000">fixes</text>
</g>
<!-- template&#45;library&#45;openstack#63 -->
<g id="node43" class="node">
<title>template-library-openstack#63</title>
<g id="a_node43"><a xlink:href="https://github.com/quattor/template-library-openstack/pull/63" xlink:title="template-library-openstack#63 (pull-request)" target="_parent">
<polygon fill="#6cc644" stroke="#000000" points="481,-276.5 300,-276.5 300,-226.5 481,-226.5 481,-276.5"/>
<text text-anchor="middle" x="390.5" y="-254.5" font-family="Sans" font-size="10.00" fill="#000000">Templates for OpenStack Antelope</text>
<text text-anchor="middle" x="390.5" y="-243.5" font-family="Sans" font-size="10.00" fill="#000000">version</text>
</a>
</g>
</g>
<!-- template&#45;library&#45;openstack#1 -->
<g id="node44" class="node">
<title>template-library-openstack#1</title>
<polygon fill="#d3d3d3" stroke="#000000" points="761,-39 607,-39 607,0 761,0 761,-39"/>
<text text-anchor="middle" x="684" y="-17" font-family="Sans" font-size="10.00" fill="#000000">template-library-openstack#1</text>
</g>
<!-- template&#45;library&#45;openstack#63&#45;&gt;template&#45;library&#45;openstack#1 -->
<g id="edge26" class="edge">
<title>template-library-openstack#63-&gt;template-library-openstack#1</title>
<path fill="none" stroke="#000000" stroke-width="2" d="M408.9149,-226.2712C441.5038,-183.3827 513.5344,-96.1854 594,-47.5 596.3473,-46.0798 598.7731,-44.7255 601.2571,-43.4346"/>
<polygon fill="#000000" stroke="#000000" stroke-width="2" points="602.9554,-46.5022 610.4697,-39.0332 599.9377,-40.1861 602.9554,-46.5022"/>
<text text-anchor="middle" x="488.7885" y="-114.6833" font-family="Sans" font-size="10.00" fill="#000000">fixes</text>
</g>
</g>
</svg>
