<?xml version="1.0" encoding="UTF-8" standalone="no"?>
<!-- Generated by graphviz version 2.26.0 (20091210.2329)
 -->
<!-- Title: Dependencies Pages: 1 -->
<svg xmlns="http://www.w3.org/2000/svg" xmlns:xlink="http://www.w3.org/1999/xlink" width="1058pt" height="2602pt" viewBox="0.00 0.00 1058.00 2602.00">
<g id="graph1" class="graph" transform="scale(1 1) rotate(0) translate(4 2598)">
<title>Dependencies</title>
<polygon fill="white" stroke="white" points="-4,5 -4,-2598 1055,-2598 1055,5 -4,5"/>
<g id="graph3" class="cluster"><title>cluster_17.3</title>
<polygon fill="none" stroke="black" points="40,-628 40,-2018 1042,-2018 1042,-628 40,-628"/>
<text text-anchor="middle" x="541" y="-2003.2" font-family="Sans" font-size="12.00">17.3</text>
</g>
<g id="graph5" class="cluster"><title>cluster_17.4</title>
<polygon fill="none" stroke="black" points="8,-2076 8,-2452 574,-2452 574,-2076 8,-2076"/>
<text text-anchor="middle" x="291" y="-2437.2" font-family="Sans" font-size="12.00">17.4</text>
</g>
<!-- aii#263 -->
<g id="node1" class="node"><title>aii#263</title>
<a xlink:href="https://github.com/quattor/aii/pull/263" xlink:title="pxelinux: allow network device names with pci function and/or device" target="_parent">
<polygon fill="#6cc644" stroke="black" points="173,-1986 95,-1986 95,-1932 173,-1932 173,-1986"/>
<text text-anchor="middle" x="134" y="-1963" font-family="Sans" font-size="10.00">pull-request</text>
<text text-anchor="middle" x="134" y="-1950" font-family="Sans" font-size="10.00">aii#263</text>
</a>
</g>
<!-- aii#261 -->
<g id="node3" class="node"><title>aii#261</title>
<a xlink:href="https://github.com/quattor/aii/issues/261" xlink:title="aii-pxelinux does not accept /dev/enp4s0f0" target="_parent">
<ellipse fill="#6cc644" stroke="black" cx="448" cy="-1948" rx="41.2167" ry="38.1838"/>
<text text-anchor="middle" x="448" y="-1952" font-family="Sans" font-size="10.00">issue</text>
<text text-anchor="middle" x="448" y="-1939" font-family="Sans" font-size="10.00">aii#261</text>
</a>
</g>
<!-- aii#263&#45;&gt;aii#261 -->
<g id="edge2" class="edge"><title>aii#263-&gt;aii#261</title>
<path fill="none" stroke="black" stroke-width="2" d="M173.545,-1955.81C200.667,-1953.76 237.488,-1951.26 270,-1950 312.442,-1948.36 360.615,-1947.9 396.133,-1947.83"/>
<polygon fill="black" stroke="black" points="396.268,-1951.33 406.264,-1947.82 396.261,-1944.33 396.268,-1951.33"/>
<text text-anchor="middle" x="289" y="-1954" font-family="Sans" font-size="10.00">fixes</text>
</g>
<!-- aii#225 -->
<g id="node4" class="node"><title>aii#225</title>
<a xlink:href="https://github.com/quattor/aii/pull/225" xlink:title="Add UEFI support through Grub-based PXE loader" target="_parent">
<polygon fill="#6cc644" stroke="black" points="173,-1914 95,-1914 95,-1860 173,-1860 173,-1914"/>
<text text-anchor="middle" x="134" y="-1891" font-family="Sans" font-size="10.00">pull-request</text>
<text text-anchor="middle" x="134" y="-1878" font-family="Sans" font-size="10.00">aii#225</text>
</a>
</g>
<!-- aii#216 -->
<g id="node6" class="node"><title>aii#216</title>
<a xlink:href="https://github.com/quattor/aii/issues/216" xlink:title="aii-pxelinux: add support for Grub-based UEFI PXE boot loader" target="_parent">
<ellipse fill="#6cc644" stroke="black" cx="448" cy="-1854" rx="41.2167" ry="38.1838"/>
<text text-anchor="middle" x="448" y="-1858" font-family="Sans" font-size="10.00">issue</text>
<text text-anchor="middle" x="448" y="-1845" font-family="Sans" font-size="10.00">aii#216</text>
</a>
</g>
<!-- aii#225&#45;&gt;aii#216 -->
<g id="edge4" class="edge"><title>aii#225-&gt;aii#216</title>
<path fill="none" stroke="black" stroke-width="2" d="M173.768,-1882.82C230.357,-1876.87 334.155,-1865.96 396.542,-1859.41"/>
<polygon fill="black" stroke="black" points="396.982,-1862.88 406.561,-1858.36 396.25,-1855.92 396.982,-1862.88"/>
<text text-anchor="middle" x="289" y="-1877" font-family="Sans" font-size="10.00">fixes</text>
</g>
<!-- aii#210 -->
<g id="node7" class="node"><title>aii#210</title>
<a xlink:href="https://github.com/quattor/aii/pull/210" xlink:title="Shellfe: support active config for plugins" target="_parent">
<polygon fill="#6cc644" stroke="black" points="173,-2326 95,-2326 95,-2272 173,-2272 173,-2326"/>
<text text-anchor="middle" x="134" y="-2303" font-family="Sans" font-size="10.00">pull-request</text>
<text text-anchor="middle" x="134" y="-2290" font-family="Sans" font-size="10.00">aii#210</text>
</a>
</g>
<!-- aii#209 -->
<g id="node9" class="node"><title>aii#209</title>
<a xlink:href="https://github.com/quattor/aii/issues/209" xlink:title="support ACTIVE_CONFIG" target="_parent">
<ellipse fill="#6cc644" stroke="black" cx="448" cy="-2382" rx="41.2167" ry="38.1838"/>
<text text-anchor="middle" x="448" y="-2386" font-family="Sans" font-size="10.00">issue</text>
<text text-anchor="middle" x="448" y="-2373" font-family="Sans" font-size="10.00">aii#209</text>
</a>
</g>
<!-- aii#210&#45;&gt;aii#209 -->
<g id="edge6" class="edge"><title>aii#210-&gt;aii#209</title>
<path fill="none" stroke="black" stroke-width="2" d="M173.609,-2309.38C196.517,-2315.39 225.889,-2323.11 252,-2330 301.736,-2343.13 358.549,-2358.21 398.158,-2368.74"/>
<polygon fill="black" stroke="black" points="397.278,-2372.13 407.842,-2371.32 399.077,-2365.36 397.278,-2372.13"/>
<text text-anchor="middle" x="289" y="-2349" font-family="Sans" font-size="10.00">fixes</text>
</g>
<!-- ncm&#45;ncd#74 -->
<g id="node11" class="node"><title>ncm-ncd#74</title>
<a xlink:href="https://github.com/quattor/ncm-ncd/pull/74" xlink:title="Set the current active config as an attribute to the component" target="_parent">
<polygon fill="#6cc644" stroke="black" points="489,-2326 407,-2326 407,-2272 489,-2272 489,-2326"/>
<text text-anchor="middle" x="448" y="-2303" font-family="Sans" font-size="10.00">pull-request</text>
<text text-anchor="middle" x="448" y="-2290" font-family="Sans" font-size="10.00">ncm-ncd#74</text>
</a>
</g>
<!-- aii#210&#45;&gt;ncm&#45;ncd#74 -->
<g id="edge8" class="edge"><title>aii#210-&gt;ncm-ncd#74</title>
<path fill="none" stroke="black" stroke-dasharray="5,2" d="M173.768,-2299C230.435,-2299 334.442,-2299 396.801,-2299"/>
<polygon fill="none" stroke="black" points="396.813,-2302.5 406.813,-2299 396.813,-2295.5 396.813,-2302.5"/>
<text text-anchor="middle" x="289" y="-2303" font-family="Sans" font-size="10.00">requires</text>
</g>
<!-- aii#203 -->
<g id="node13" class="node"><title>aii#203</title>
<polygon fill="lightgrey" stroke="black" points="477,-2066.5 419,-2066.5 419,-2025.5 477,-2025.5 477,-2066.5"/>
<text text-anchor="middle" x="448" y="-2043.5" font-family="Sans" font-size="10.00">aii#203</text>
</g>
<!-- aii#210&#45;&gt;aii#203 -->
<g id="edge10" class="edge"><title>aii#210-&gt;aii#203</title>
<path fill="none" stroke="black" stroke-dasharray="5,2" d="M173.746,-2280.94C200.016,-2266.93 232.996,-2245.02 252,-2216 273.87,-2182.6 251.086,-2163.16 270,-2128 286.676,-2097 295.072,-2088.8 326,-2072 351.309,-2058.25 383.249,-2051.77 408.1,-2048.72"/>
<polygon fill="none" stroke="black" points="408.715,-2052.17 418.276,-2047.61 407.956,-2045.21 408.715,-2052.17"/>
<text text-anchor="middle" x="289" y="-2132" font-family="Sans" font-size="10.00">requires</text>
</g>
<!-- CAF#224 -->
<g id="node14" class="node"><title>CAF#224</title>
<a xlink:href="https://github.com/quattor/CAF/pull/224" xlink:title="CAF::Application: add methods option_exists() and set_options()" target="_parent">
<polygon fill="#6e5494" stroke="black" points="173,-1122 95,-1122 95,-1068 173,-1068 173,-1122"/>
<text text-anchor="middle" x="134" y="-1099" font-family="Sans" font-size="10.00">pull-request</text>
<text text-anchor="middle" x="134" y="-1086" font-family="Sans" font-size="10.00">CAF#224</text>
</a>
</g>
<!-- CAF#210 -->
<g id="node16" class="node"><title>CAF#210</title>
<polygon fill="lightgrey" stroke="black" points="483,-388.5 413,-388.5 413,-347.5 483,-347.5 483,-388.5"/>
<text text-anchor="middle" x="448" y="-365.5" font-family="Sans" font-size="10.00">CAF#210</text>
</g>
<!-- CAF#224&#45;&gt;CAF#210 -->
<g id="edge12" class="edge"><title>CAF#224-&gt;CAF#210</title>
<path fill="none" stroke="black" stroke-width="2" d="M173.538,-1094.22C200.246,-1091.39 233.834,-1082.86 252,-1059 296.982,-999.928 220.231,-446.099 270,-391 302.637,-354.868 361.748,-354.276 402.856,-359.299"/>
<polygon fill="black" stroke="black" points="402.509,-362.784 412.892,-360.679 403.462,-355.849 402.509,-362.784"/>
<text text-anchor="middle" x="289" y="-395" font-family="Sans" font-size="10.00">fixes</text>
</g>
<!-- CAF#202 -->
<g id="node17" class="node"><title>CAF#202</title>
<a xlink:href="https://github.com/quattor/CAF/pull/202" xlink:title="FileWriter: use atomic write" target="_parent">
<polygon fill="#6cc644" stroke="black" points="173,-1338 95,-1338 95,-1284 173,-1284 173,-1338"/>
<text text-anchor="middle" x="134" y="-1315" font-family="Sans" font-size="10.00">pull-request</text>
<text text-anchor="middle" x="134" y="-1302" font-family="Sans" font-size="10.00">CAF#202</text>
</a>
</g>
<!-- CAF#204 -->
<g id="node19" class="node"><title>CAF#204</title>
<polygon fill="lightgrey" stroke="black" points="483,-620.5 413,-620.5 413,-579.5 483,-579.5 483,-620.5"/>
<text text-anchor="middle" x="448" y="-597.5" font-family="Sans" font-size="10.00">CAF#204</text>
</g>
<!-- CAF#202&#45;&gt;CAF#204 -->
<g id="edge14" class="edge"><title>CAF#202-&gt;CAF#204</title>
<path fill="none" stroke="black" stroke-dasharray="5,2" d="M173.673,-1310.07C200.265,-1307.16 233.656,-1298.58 252,-1275 277.884,-1241.72 264.733,-937.828 270,-896 285.419,-773.542 238.342,-710.889 326,-624 345.808,-604.366 376.696,-598.437 402.436,-597.381"/>
<polygon fill="none" stroke="black" points="402.803,-600.875 412.739,-597.198 402.679,-593.876 402.803,-600.875"/>
<text text-anchor="middle" x="289" y="-900" font-family="Sans" font-size="10.00">requires</text>
</g>
<!-- CAF#206 -->
<g id="node21" class="node"><title>CAF#206</title>
<polygon fill="lightgrey" stroke="black" points="483,-504.5 413,-504.5 413,-463.5 483,-463.5 483,-504.5"/>
<text text-anchor="middle" x="448" y="-481.5" font-family="Sans" font-size="10.00">CAF#206</text>
</g>
<!-- CAF#202&#45;&gt;CAF#206 -->
<g id="edge16" class="edge"><title>CAF#202-&gt;CAF#206</title>
<path fill="none" stroke="black" stroke-dasharray="5,2" d="M173.531,-1310.21C200.237,-1307.38 233.823,-1298.85 252,-1275 273.797,-1246.4 260.87,-662.78 270,-628 279.187,-593.002 292.554,-588.721 308,-556 316.844,-537.264 310.206,-526.408 326,-513 347.224,-494.982 377.687,-487.729 402.863,-484.982"/>
<polygon fill="none" stroke="black" points="403.279,-488.459 412.929,-484.087 402.659,-481.486 403.279,-488.459"/>
<text text-anchor="middle" x="289" y="-632" font-family="Sans" font-size="10.00">requires</text>
</g>
<!-- CAF#148 -->
<g id="node23" class="node"><title>CAF#148</title>
<a xlink:href="https://github.com/quattor/CAF/issues/148" xlink:title="CAF::FileWriter updates files in-place" target="_parent">
<ellipse fill="#6cc644" stroke="black" cx="448" cy="-936" rx="48.9975" ry="38.1838"/>
<text text-anchor="middle" x="448" y="-940" font-family="Sans" font-size="10.00">issue</text>
<text text-anchor="middle" x="448" y="-927" font-family="Sans" font-size="10.00">CAF#148</text>
</a>
</g>
<!-- CAF#202&#45;&gt;CAF#148 -->
<g id="edge18" class="edge"><title>CAF#202-&gt;CAF#148</title>
<path fill="none" stroke="black" stroke-width="2" d="M173.641,-1309.79C200.039,-1306.72 233.213,-1298.1 252,-1275 279.741,-1240.9 256.511,-1119.84 270,-1078 285.039,-1031.35 288.607,-1014.68 326,-983 344.404,-967.406 368.552,-956.66 390.504,-949.423"/>
<polygon fill="black" stroke="black" points="391.575,-952.755 400.08,-946.437 389.491,-946.073 391.575,-952.755"/>
<text text-anchor="middle" x="289" y="-1082" font-family="Sans" font-size="10.00">fixes</text>
</g>
<!-- CAF#189 -->
<g id="node25" class="node"><title>CAF#189</title>
<a xlink:href="https://github.com/quattor/CAF/issues/189" xlink:title="FileWriter: add diff to history" target="_parent">
<ellipse fill="#6cc644" stroke="black" cx="448" cy="-1030" rx="48.9975" ry="38.1838"/>
<text text-anchor="middle" x="448" y="-1034" font-family="Sans" font-size="10.00">issue</text>
<text text-anchor="middle" x="448" y="-1021" font-family="Sans" font-size="10.00">CAF#189</text>
</a>
</g>
<!-- CAF#202&#45;&gt;CAF#189 -->
<g id="edge20" class="edge"><title>CAF#202-&gt;CAF#189</title>
<path fill="none" stroke="black" stroke-width="2" d="M173.623,-1309.22C199.665,-1305.88 232.425,-1297.15 252,-1275 282.777,-1240.18 253.942,-1215.61 270,-1172 286.936,-1126.01 288.607,-1108.68 326,-1077 344.404,-1061.41 368.552,-1050.66 390.504,-1043.42"/>
<polygon fill="black" stroke="black" points="391.575,-1046.76 400.08,-1040.44 389.491,-1040.07 391.575,-1046.76"/>
<text text-anchor="middle" x="289" y="-1176" font-family="Sans" font-size="10.00">fixes</text>
</g>
<!-- CCM#162 -->
<g id="node26" class="node"><title>CCM#162</title>
<a xlink:href="https://github.com/quattor/CCM/pull/162" xlink:title="Cleanup: move internal modules in subdirectories and remove/integrate util scripts" target="_parent">
<polygon fill="#6cc644" stroke="black" points="173,-1050 95,-1050 95,-996 173,-996 173,-1050"/>
<text text-anchor="middle" x="134" y="-1027" font-family="Sans" font-size="10.00">pull-request</text>
<text text-anchor="middle" x="134" y="-1014" font-family="Sans" font-size="10.00">CCM#162</text>
</a>
</g>
<!-- CCM#160 -->
<g id="node28" class="node"><title>CCM#160</title>
<polygon fill="lightgrey" stroke="black" points="484,-272.5 412,-272.5 412,-231.5 484,-231.5 484,-272.5"/>
<text text-anchor="middle" x="448" y="-249.5" font-family="Sans" font-size="10.00">CCM#160</text>
</g>
<!-- CCM#162&#45;&gt;CCM#160 -->
<g id="edge22" class="edge"><title>CCM#162-&gt;CCM#160</title>
<path fill="none" stroke="black" stroke-dasharray="5,2" d="M173.545,-1022.22C200.257,-1019.39 233.846,-1010.87 252,-987 298.701,-925.607 221.187,-352.728 270,-293 301.079,-254.971 359.702,-247.949 401.167,-248.336"/>
<polygon fill="none" stroke="black" points="401.231,-251.839 411.312,-248.58 401.399,-244.841 401.231,-251.839"/>
<text text-anchor="middle" x="289" y="-297" font-family="Sans" font-size="10.00">requires</text>
</g>
<!-- CCM#156 -->
<g id="node30" class="node"><title>CCM#156</title>
<polygon fill="lightgrey" stroke="black" points="484,-330.5 412,-330.5 412,-289.5 484,-289.5 484,-330.5"/>
<text text-anchor="middle" x="448" y="-307.5" font-family="Sans" font-size="10.00">CCM#156</text>
</g>
<!-- CCM#162&#45;&gt;CCM#156 -->
<g id="edge24" class="edge"><title>CCM#162-&gt;CCM#156</title>
<path fill="none" stroke="black" stroke-dasharray="5,2" d="M173.533,-1022.22C200.24,-1019.38 233.827,-1010.85 252,-987 296.057,-929.178 221.257,-386.931 270,-333 302.262,-297.304 360.365,-296.302 401.398,-301.128"/>
<polygon fill="none" stroke="black" points="401.063,-304.614 411.437,-302.463 401.985,-297.675 401.063,-304.614"/>
<text text-anchor="middle" x="289" y="-337" font-family="Sans" font-size="10.00">requires</text>
</g>
<!-- configuration&#45;modules&#45;core#1073 -->
<g id="node31" class="node"><title>configuration-modules-core#1073</title>
<a xlink:href="https://github.com/quattor/configuration-modules-core/pull/1073" xlink:title="ncm-network: device name regex: allow function and device in PCI name" target="_parent">
<polygon fill="#6cc644" stroke="black" points="220,-1842 48,-1842 48,-1788 220,-1788 220,-1842"/>
<text text-anchor="middle" x="134" y="-1819" font-family="Sans" font-size="10.00">pull-request</text>
<text text-anchor="middle" x="134" y="-1806" font-family="Sans" font-size="10.00">configuration-modules-core#1073</text>
</a>
</g>
<!-- configuration&#45;modules&#45;core#1069 -->
<g id="node33" class="node"><title>configuration-modules-core#1069</title>
<a xlink:href="https://github.com/quattor/configuration-modules-core/issues/1069" xlink:title="ncm-network: /dev/enp4s0f0 and /dev/enp4s0f1 cannot be configured" target="_parent">
<ellipse fill="#6cc644" stroke="black" cx="448" cy="-1760" rx="121.122" ry="38.1838"/>
<text text-anchor="middle" x="448" y="-1764" font-family="Sans" font-size="10.00">issue</text>
<text text-anchor="middle" x="448" y="-1751" font-family="Sans" font-size="10.00">configuration-modules-core#1069</text>
</a>
</g>
<!-- configuration&#45;modules&#45;core#1073&#45;&gt;configuration&#45;modules&#45;core#1069 -->
<g id="edge26" class="edge"><title>configuration-modules-core#1073-&gt;configuration-modules-core#1069</title>
<path fill="none" stroke="black" stroke-width="2" d="M220.217,-1799.9C254.57,-1793.88 294.64,-1786.86 331.511,-1780.4"/>
<polygon fill="black" stroke="black" points="332.572,-1783.77 341.818,-1778.6 331.364,-1776.88 332.572,-1783.77"/>
<text text-anchor="middle" x="289" y="-1795" font-family="Sans" font-size="10.00">fixes</text>
</g>
<!-- configuration&#45;modules&#45;core#1061 -->
<g id="node34" class="node"><title>configuration-modules-core#1061</title>
<a xlink:href="https://github.com/quattor/configuration-modules-core/pull/1061" xlink:title="ncm-aiiserver: add support for AII Grub-2 related options" target="_parent">
<polygon fill="#6cc644" stroke="black" points="220,-1770 48,-1770 48,-1716 220,-1716 220,-1770"/>
<text text-anchor="middle" x="134" y="-1747" font-family="Sans" font-size="10.00">pull-request</text>
<text text-anchor="middle" x="134" y="-1734" font-family="Sans" font-size="10.00">configuration-modules-core#1061</text>
</a>
</g>
<!-- configuration&#45;modules&#45;core#960 -->
<g id="node36" class="node"><title>configuration-modules-core#960</title>
<a xlink:href="https://github.com/quattor/configuration-modules-core/issues/960" xlink:title="aii-server: add support for new options introduced for Grub-based PXE" target="_parent">
<ellipse fill="#6cc644" stroke="black" cx="448" cy="-1666" rx="118.087" ry="38.1838"/>
<text text-anchor="middle" x="448" y="-1670" font-family="Sans" font-size="10.00">issue</text>
<text text-anchor="middle" x="448" y="-1657" font-family="Sans" font-size="10.00">configuration-modules-core#960</text>
</a>
</g>
<!-- configuration&#45;modules&#45;core#1061&#45;&gt;configuration&#45;modules&#45;core#960 -->
<g id="edge28" class="edge"><title>configuration-modules-core#1061-&gt;configuration-modules-core#960</title>
<path fill="none" stroke="black" stroke-width="2" d="M220.217,-1721.86C258.543,-1712.46 303.985,-1701.32 344.162,-1691.46"/>
<polygon fill="black" stroke="black" points="345.107,-1694.84 353.985,-1689.05 343.439,-1688.04 345.107,-1694.84"/>
<text text-anchor="middle" x="289" y="-1714" font-family="Sans" font-size="10.00">fixes</text>
</g>
<!-- configuration&#45;modules&#45;core#1059 -->
<g id="node37" class="node"><title>configuration-modules-core#1059</title>
<a xlink:href="https://github.com/quattor/configuration-modules-core/pull/1059" xlink:title="ncm-metaconfig: don't allow specific turning on of SEED and CAMELLIA" target="_parent">
<polygon fill="#6cc644" stroke="black" points="220,-906 48,-906 48,-852 220,-852 220,-906"/>
<text text-anchor="middle" x="134" y="-883" font-family="Sans" font-size="10.00">pull-request</text>
<text text-anchor="middle" x="134" y="-870" font-family="Sans" font-size="10.00">configuration-modules-core#1059</text>
</a>
</g>
<!-- configuration&#45;modules&#45;core#983 -->
<g id="node39" class="node"><title>configuration-modules-core#983</title>
<polygon fill="lightgrey" stroke="black" points="531,-214.5 365,-214.5 365,-173.5 531,-173.5 531,-214.5"/>
<text text-anchor="middle" x="448" y="-191.5" font-family="Sans" font-size="10.00">configuration-modules-core#983</text>
</g>
<!-- configuration&#45;modules&#45;core#1059&#45;&gt;configuration&#45;modules&#45;core#983 -->
<g id="edge30" class="edge"><title>configuration-modules-core#1059-&gt;configuration-modules-core#983</title>
<path fill="none" stroke="black" stroke-dasharray="1,5" d="M220.132,-866.767C232.521,-861.362 243.821,-853.732 252,-843 273.83,-814.357 244.254,-220.182 270,-195 296.151,-169.422 336.175,-167.284 371.652,-172.378"/>
<polygon fill="black" stroke="black" points="381.522,-173.993 370.926,-176.819 376.587,-173.185 371.653,-172.378 371.653,-172.378 371.653,-172.378 376.587,-173.185 372.38,-167.937 381.522,-173.993 381.522,-173.993"/>
<text text-anchor="middle" x="289" y="-199" font-family="Sans" font-size="10.00">replaces</text>
</g>
<!-- configuration&#45;modules&#45;core#1058 -->
<g id="node40" class="node"><title>configuration-modules-core#1058</title>
<a xlink:href="https://github.com/quattor/configuration-modules-core/pull/1058" xlink:title="ncm-ssh: dissable insecure ssh ciphersuites and mac's" target="_parent">
<polygon fill="#6cc644" stroke="black" points="220,-978 48,-978 48,-924 220,-924 220,-978"/>
<text text-anchor="middle" x="134" y="-955" font-family="Sans" font-size="10.00">pull-request</text>
<text text-anchor="middle" x="134" y="-942" font-family="Sans" font-size="10.00">configuration-modules-core#1058</text>
</a>
</g>
<!-- configuration&#45;modules&#45;core#1058&#45;&gt;configuration&#45;modules&#45;core#983 -->
<g id="edge32" class="edge"><title>configuration-modules-core#1058-&gt;configuration-modules-core#983</title>
<path fill="none" stroke="black" stroke-dasharray="1,5" d="M220.145,-938.777C232.533,-933.371 243.829,-925.738 252,-915 298.04,-854.499 221.251,-289.34 270,-231 281.423,-217.329 317.384,-208.52 354.021,-202.944"/>
<polygon fill="black" stroke="black" points="364.352,-201.455 355.096,-207.336 359.403,-202.169 354.455,-202.882 354.455,-202.882 354.455,-202.882 359.403,-202.169 353.813,-198.428 364.352,-201.455 364.352,-201.455"/>
<text text-anchor="middle" x="289" y="-235" font-family="Sans" font-size="10.00">replaces</text>
</g>
<!-- configuration&#45;modules&#45;core#1043 -->
<g id="node42" class="node"><title>configuration-modules-core#1043</title>
<a xlink:href="https://github.com/quattor/configuration-modules-core/pull/1043" xlink:title="ncm-network: core-schema: add additional checks to make sure gateway and broadcast are in network range" target="_parent">
<polygon fill="#6e5494" stroke="black" points="220,-1698 48,-1698 48,-1644 220,-1644 220,-1698"/>
<text text-anchor="middle" x="134" y="-1675" font-family="Sans" font-size="10.00">pull-request</text>
<text text-anchor="middle" x="134" y="-1662" font-family="Sans" font-size="10.00">configuration-modules-core#1043</text>
</a>
</g>
<!-- template&#45;library&#45;core#151 -->
<g id="node44" class="node"><title>template-library-core#151</title>
<a xlink:href="https://github.com/quattor/template-library-core/pull/151" xlink:title="quattor/functions/network: add ip_in_network function" target="_parent">
<polygon fill="#6e5494" stroke="black" points="517,-1610 379,-1610 379,-1556 517,-1556 517,-1610"/>
<text text-anchor="middle" x="448" y="-1587" font-family="Sans" font-size="10.00">pull-request</text>
<text text-anchor="middle" x="448" y="-1574" font-family="Sans" font-size="10.00">template-library-core#151</text>
</a>
</g>
<!-- configuration&#45;modules&#45;core#1043&#45;&gt;template&#45;library&#45;core#151 -->
<g id="edge34" class="edge"><title>configuration-modules-core#1043-&gt;template-library-core#151</title>
<path fill="none" stroke="black" stroke-dasharray="5,2" d="M220.217,-1646.84C266.732,-1633.8 323.731,-1617.83 369.074,-1605.12"/>
<polygon fill="none" stroke="black" points="370.174,-1608.45 378.858,-1602.38 368.285,-1601.71 370.174,-1608.45"/>
<text text-anchor="middle" x="289" y="-1637" font-family="Sans" font-size="10.00">requires</text>
</g>
<!-- template&#45;library&#45;core#150 -->
<g id="node88" class="node"><title>template-library-core#150</title>
<a xlink:href="https://github.com/quattor/template-library-core/pull/150" xlink:title="quattor/functions/network: cleanup and removal of get_subnet_params function" target="_parent">
<polygon fill="#6e5494" stroke="black" points="780,-1610 642,-1610 642,-1556 780,-1556 780,-1610"/>
<text text-anchor="middle" x="711" y="-1587" font-family="Sans" font-size="10.00">pull-request</text>
<text text-anchor="middle" x="711" y="-1574" font-family="Sans" font-size="10.00">template-library-core#150</text>
</a>
</g>
<!-- template&#45;library&#45;core#151&#45;&gt;template&#45;library&#45;core#150 -->
<g id="edge68" class="edge"><title>template-library-core#151-&gt;template-library-core#150</title>
<path fill="none" stroke="black" stroke-dasharray="5,2" d="M517.1,-1583C552.296,-1583 595.255,-1583 631.784,-1583"/>
<polygon fill="none" stroke="black" points="631.905,-1586.5 641.905,-1583 631.905,-1579.5 631.905,-1586.5"/>
<text text-anchor="middle" x="606" y="-1587" font-family="Sans" font-size="10.00">requires</text>
</g>
<!-- configuration&#45;modules&#45;core#1035 -->
<g id="node45" class="node"><title>configuration-modules-core#1035</title>
<a xlink:href="https://github.com/quattor/configuration-modules-core/pull/1035" xlink:title="ncm-freeipa: CLI: support location based discovery" target="_parent">
<polygon fill="#6cc644" stroke="black" points="220,-1626 48,-1626 48,-1572 220,-1572 220,-1626"/>
<text text-anchor="middle" x="134" y="-1603" font-family="Sans" font-size="10.00">pull-request</text>
<text text-anchor="middle" x="134" y="-1590" font-family="Sans" font-size="10.00">configuration-modules-core#1035</text>
</a>
</g>
<!-- configuration&#45;modules&#45;core#1032 -->
<g id="node47" class="node"><title>configuration-modules-core#1032</title>
<a xlink:href="https://github.com/quattor/configuration-modules-core/issues/1032" xlink:title="freeipa: documentation issue" target="_parent">
<ellipse fill="#6cc644" stroke="black" cx="448" cy="-1406" rx="121.122" ry="38.1838"/>
<text text-anchor="middle" x="448" y="-1410" font-family="Sans" font-size="10.00">issue</text>
<text text-anchor="middle" x="448" y="-1397" font-family="Sans" font-size="10.00">configuration-modules-core#1032</text>
</a>
</g>
<!-- configuration&#45;modules&#45;core#1035&#45;&gt;configuration&#45;modules&#45;core#1032 -->
<g id="edge36" class="edge"><title>configuration-modules-core#1035-&gt;configuration-modules-core#1032</title>
<path fill="none" stroke="black" stroke-width="2" d="M220.29,-1581.52C231.706,-1576.76 242.667,-1570.7 252,-1563 265.187,-1552.12 260.904,-1543.48 270,-1529 292.321,-1493.47 292.643,-1478.45 326,-1453 333.85,-1447.01 342.554,-1441.7 351.597,-1437.01"/>
<polygon fill="black" stroke="black" points="353.298,-1440.07 360.732,-1432.52 350.213,-1433.79 353.298,-1440.07"/>
<text text-anchor="middle" x="289" y="-1533" font-family="Sans" font-size="10.00">fixes</text>
</g>
<!-- configuration&#45;modules&#45;core#1033 -->
<g id="node49" class="node"><title>configuration-modules-core#1033</title>
<a xlink:href="https://github.com/quattor/configuration-modules-core/issues/1033" xlink:title="freeipa: certutil doesn't initialise quattor/nssdb if directory exists but db doesn't" target="_parent">
<ellipse fill="#6cc644" stroke="black" cx="448" cy="-1500" rx="121.122" ry="38.1838"/>
<text text-anchor="middle" x="448" y="-1504" font-family="Sans" font-size="10.00">issue</text>
<text text-anchor="middle" x="448" y="-1491" font-family="Sans" font-size="10.00">configuration-modules-core#1033</text>
</a>
</g>
<!-- configuration&#45;modules&#45;core#1035&#45;&gt;configuration&#45;modules&#45;core#1033 -->
<g id="edge38" class="edge"><title>configuration-modules-core#1035-&gt;configuration-modules-core#1033</title>
<path fill="none" stroke="black" stroke-width="2" d="M220.083,-1572.9C230.837,-1569.59 241.678,-1566.23 252,-1563 285.229,-1552.59 321.552,-1540.98 353.802,-1530.59"/>
<polygon fill="black" stroke="black" points="355.229,-1533.81 363.672,-1527.41 353.08,-1527.15 355.229,-1533.81"/>
<text text-anchor="middle" x="289" y="-1561" font-family="Sans" font-size="10.00">fixes</text>
</g>
<!-- configuration&#45;modules&#45;core#1028 -->
<g id="node50" class="node"><title>configuration-modules-core#1028</title>
<a xlink:href="https://github.com/quattor/configuration-modules-core/pull/1028" xlink:title="Split logstash versions: keep legacy versions 1.2 and 2.0 and add 5.0" target="_parent">
<polygon fill="#6cc644" stroke="black" points="220,-834 48,-834 48,-780 220,-780 220,-834"/>
<text text-anchor="middle" x="134" y="-811" font-family="Sans" font-size="10.00">pull-request</text>
<text text-anchor="middle" x="134" y="-798" font-family="Sans" font-size="10.00">configuration-modules-core#1028</text>
</a>
</g>
<!-- configuration&#45;modules&#45;core#1026 -->
<g id="node52" class="node"><title>configuration-modules-core#1026</title>
<polygon fill="lightgrey" stroke="black" points="534,-156.5 362,-156.5 362,-115.5 534,-115.5 534,-156.5"/>
<text text-anchor="middle" x="448" y="-133.5" font-family="Sans" font-size="10.00">configuration-modules-core#1026</text>
</g>
<!-- configuration&#45;modules&#45;core#1028&#45;&gt;configuration&#45;modules&#45;core#1026 -->
<g id="edge40" class="edge"><title>configuration-modules-core#1028-&gt;configuration-modules-core#1026</title>
<path fill="none" stroke="black" stroke-dasharray="1,5" d="M220.117,-794.756C232.508,-789.352 243.812,-781.725 252,-771 293.281,-716.927 224.338,-209.428 270,-159 290.482,-136.381 321.341,-127.701 351.641,-125.606"/>
<polygon fill="black" stroke="black" points="361.88,-125.138 352.096,-130.09 356.885,-125.367 351.89,-125.595 351.89,-125.595 351.89,-125.595 356.885,-125.367 351.684,-121.1 361.88,-125.138 361.88,-125.138"/>
<text text-anchor="middle" x="289" y="-163" font-family="Sans" font-size="10.00">replaces</text>
</g>
<!-- configuration&#45;modules&#45;core#1024 -->
<g id="node53" class="node"><title>configuration-modules-core#1024</title>
<a xlink:href="https://github.com/quattor/configuration-modules-core/pull/1024" xlink:title="ncm-syslog: cleanup and refactor" target="_parent">
<polygon fill="#6cc644" stroke="black" points="220,-1194 48,-1194 48,-1140 220,-1140 220,-1194"/>
<text text-anchor="middle" x="134" y="-1171" font-family="Sans" font-size="10.00">pull-request</text>
<text text-anchor="middle" x="134" y="-1158" font-family="Sans" font-size="10.00">configuration-modules-core#1024</text>
</a>
</g>
<!-- configuration&#45;modules&#45;core#1024&#45;&gt;CAF#206 -->
<g id="edge44" class="edge"><title>configuration-modules-core#1024-&gt;CAF#206</title>
<path fill="none" stroke="black" stroke-dasharray="5,2" d="M220.122,-1154.76C232.512,-1149.36 243.815,-1141.73 252,-1131 294.074,-1075.86 223.457,-558.429 270,-507 302.671,-470.899 361.775,-470.3 402.872,-475.313"/>
<polygon fill="none" stroke="black" points="402.522,-478.798 412.905,-476.69 403.474,-471.863 402.522,-478.798"/>
<text text-anchor="middle" x="289" y="-511" font-family="Sans" font-size="10.00">requires</text>
</g>
<!-- CAF#211 -->
<g id="node55" class="node"><title>CAF#211</title>
<polygon fill="lightgrey" stroke="black" points="483,-446.5 413,-446.5 413,-405.5 483,-405.5 483,-446.5"/>
<text text-anchor="middle" x="448" y="-423.5" font-family="Sans" font-size="10.00">CAF#211</text>
</g>
<!-- configuration&#45;modules&#45;core#1024&#45;&gt;CAF#211 -->
<g id="edge42" class="edge"><title>configuration-modules-core#1024-&gt;CAF#211</title>
<path fill="none" stroke="black" stroke-dasharray="5,2" d="M220.138,-1154.77C232.526,-1149.37 243.824,-1141.73 252,-1131 296.718,-1072.28 223.263,-524.121 270,-467 301.472,-428.536 361.119,-421.801 402.651,-422.361"/>
<polygon fill="none" stroke="black" points="402.696,-425.864 412.791,-422.646 402.893,-418.867 402.696,-425.864"/>
<text text-anchor="middle" x="289" y="-471" font-family="Sans" font-size="10.00">requires</text>
</g>
<!-- configuration&#45;modules&#45;core#950 -->
<g id="node57" class="node"><title>configuration-modules-core#950</title>
<a xlink:href="https://github.com/quattor/configuration-modules-core/issues/950" xlink:title="ncm-spma: Remove support for package groups from yum backends" target="_parent">
<ellipse fill="#6cc644" stroke="black" cx="134" cy="-2169" rx="118.087" ry="38.1838"/>
<text text-anchor="middle" x="134" y="-2173" font-family="Sans" font-size="10.00">issue</text>
<text text-anchor="middle" x="134" y="-2160" font-family="Sans" font-size="10.00">configuration-modules-core#950</text>
</a>
</g>
<!-- configuration&#45;modules&#45;core#951 -->
<g id="node59" class="node"><title>configuration-modules-core#951</title>
<a xlink:href="https://github.com/quattor/configuration-modules-core/issues/951" xlink:title="ncm-spma (yum): Remove support for package groups" target="_parent">
<ellipse fill="#6cc644" stroke="black" cx="448" cy="-2216" rx="118.087" ry="38.1838"/>
<text text-anchor="middle" x="448" y="-2220" font-family="Sans" font-size="10.00">issue</text>
<text text-anchor="middle" x="448" y="-2207" font-family="Sans" font-size="10.00">configuration-modules-core#951</text>
</a>
</g>
<!-- configuration&#45;modules&#45;core#950&#45;&gt;configuration&#45;modules&#45;core#951 -->
<g id="edge46" class="edge"><title>configuration-modules-core#950-&gt;configuration-modules-core#951</title>
<path fill="none" stroke="black" stroke-dasharray="5,2" d="M241.183,-2185.04C269.948,-2189.35 301.203,-2194.03 330.495,-2198.41"/>
<polygon fill="none" stroke="black" points="330.36,-2201.93 340.768,-2199.95 331.396,-2195.01 330.36,-2201.93"/>
<text text-anchor="middle" x="289" y="-2198" font-family="Sans" font-size="10.00">requires</text>
</g>
<!-- configuration&#45;modules&#45;core#952 -->
<g id="node61" class="node"><title>configuration-modules-core#952</title>
<a xlink:href="https://github.com/quattor/configuration-modules-core/issues/952" xlink:title="ncm-spma (yumng): Remove support for package groups" target="_parent">
<ellipse fill="#6cc644" stroke="black" cx="448" cy="-2122" rx="118.087" ry="38.1838"/>
<text text-anchor="middle" x="448" y="-2126" font-family="Sans" font-size="10.00">issue</text>
<text text-anchor="middle" x="448" y="-2113" font-family="Sans" font-size="10.00">configuration-modules-core#952</text>
</a>
</g>
<!-- configuration&#45;modules&#45;core#950&#45;&gt;configuration&#45;modules&#45;core#952 -->
<g id="edge48" class="edge"><title>configuration-modules-core#950-&gt;configuration-modules-core#952</title>
<path fill="none" stroke="black" stroke-dasharray="5,2" d="M241.183,-2152.96C269.948,-2148.65 301.203,-2143.97 330.495,-2139.59"/>
<polygon fill="none" stroke="black" points="331.396,-2142.99 340.768,-2138.05 330.36,-2136.07 331.396,-2142.99"/>
<text text-anchor="middle" x="289" y="-2153" font-family="Sans" font-size="10.00">requires</text>
</g>
<!-- configuration&#45;modules&#45;core#821 -->
<g id="node62" class="node"><title>configuration-modules-core#821</title>
<a xlink:href="https://github.com/quattor/configuration-modules-core/pull/821" xlink:title="ncm-spma: Add backend for apt" target="_parent">
<polygon fill="#6cc644" stroke="black" points="217,-762 51,-762 51,-708 217,-708 217,-762"/>
<text text-anchor="middle" x="134" y="-739" font-family="Sans" font-size="10.00">pull-request</text>
<text text-anchor="middle" x="134" y="-726" font-family="Sans" font-size="10.00">configuration-modules-core#821</text>
</a>
</g>
<!-- configuration&#45;modules&#45;core#716 -->
<g id="node64" class="node"><title>configuration-modules-core#716</title>
<polygon fill="lightgrey" stroke="black" points="531,-98.5 365,-98.5 365,-57.5 531,-57.5 531,-98.5"/>
<text text-anchor="middle" x="448" y="-75.5" font-family="Sans" font-size="10.00">configuration-modules-core#716</text>
</g>
<!-- configuration&#45;modules&#45;core#821&#45;&gt;configuration&#45;modules&#45;core#716 -->
<g id="edge50" class="edge"><title>configuration-modules-core#821-&gt;configuration-modules-core#716</title>
<path fill="none" stroke="black" stroke-dasharray="5,2" d="M217.738,-723.753C231.054,-718.303 243.288,-710.403 252,-699 292.356,-646.177 225.364,-150.26 270,-101 291.051,-77.7686 323.049,-69.2451 354.138,-67.457"/>
<polygon fill="none" stroke="black" points="354.314,-70.9531 364.185,-67.1031 354.068,-63.9574 354.314,-70.9531"/>
<text text-anchor="middle" x="289" y="-105" font-family="Sans" font-size="10.00">requires</text>
</g>
<!-- configuration&#45;modules&#45;core#1063 -->
<g id="node65" class="node"><title>configuration-modules-core#1063</title>
<a xlink:href="https://github.com/quattor/configuration-modules-core/pull/1063" xlink:title="ncm-opennebula: Include VNM configuration support for OVS/VXLAN" target="_parent">
<polygon fill="#6cc644" stroke="black" points="220,-2563 48,-2563 48,-2509 220,-2509 220,-2563"/>
<text text-anchor="middle" x="134" y="-2540" font-family="Sans" font-size="10.00">pull-request</text>
<text text-anchor="middle" x="134" y="-2527" font-family="Sans" font-size="10.00">configuration-modules-core#1063</text>
</a>
</g>
<!-- configuration&#45;modules&#45;core#1021 -->
<g id="node67" class="node"><title>configuration-modules-core#1021</title>
<a xlink:href="https://github.com/quattor/configuration-modules-core/issues/1021" xlink:title="ncm-opennebula: include OpenNebulaNetwork.conf OVS support" target="_parent">
<ellipse fill="#6cc644" stroke="black" cx="448" cy="-2498" rx="121.122" ry="38.1838"/>
<text text-anchor="middle" x="448" y="-2502" font-family="Sans" font-size="10.00">issue</text>
<text text-anchor="middle" x="448" y="-2489" font-family="Sans" font-size="10.00">configuration-modules-core#1021</text>
</a>
</g>
<!-- configuration&#45;modules&#45;core#1063&#45;&gt;configuration&#45;modules&#45;core#1021 -->
<g id="edge52" class="edge"><title>configuration-modules-core#1063-&gt;configuration-modules-core#1021</title>
<path fill="none" stroke="black" stroke-width="2" d="M220.217,-2525.57C252.357,-2521.68 289.502,-2517.18 324.35,-2512.96"/>
<polygon fill="black" stroke="black" points="325.088,-2516.4 334.595,-2511.72 324.247,-2509.45 325.088,-2516.4"/>
<text text-anchor="middle" x="289" y="-2523" font-family="Sans" font-size="10.00">fixes</text>
</g>
<!-- configuration&#45;modules&#45;core#1014 -->
<g id="node69" class="node"><title>configuration-modules-core#1014</title>
<polygon fill="lightgrey" stroke="black" points="534,-2594.5 362,-2594.5 362,-2553.5 534,-2553.5 534,-2594.5"/>
<text text-anchor="middle" x="448" y="-2571.5" font-family="Sans" font-size="10.00">configuration-modules-core#1014</text>
</g>
<!-- configuration&#45;modules&#45;core#1063&#45;&gt;configuration&#45;modules&#45;core#1014 -->
<g id="edge54" class="edge"><title>configuration-modules-core#1063-&gt;configuration-modules-core#1014</title>
<path fill="none" stroke="black" stroke-width="2" d="M220.217,-2546.43C261.061,-2551.38 309.988,-2557.3 352.009,-2562.38"/>
<polygon fill="black" stroke="black" points="351.627,-2565.86 361.975,-2563.59 352.468,-2558.91 351.627,-2565.86"/>
<text text-anchor="middle" x="289" y="-2560" font-family="Sans" font-size="10.00">fixes</text>
</g>
<!-- LC#16 -->
<g id="node70" class="node"><title>LC#16</title>
<a xlink:href="https://github.com/quattor/LC/pull/16" xlink:title="LC::Check: fix link() for hardlink creation" target="_parent">
<polygon fill="#6e5494" stroke="black" points="173,-1554 95,-1554 95,-1500 173,-1500 173,-1554"/>
<text text-anchor="middle" x="134" y="-1531" font-family="Sans" font-size="10.00">pull-request</text>
<text text-anchor="middle" x="134" y="-1518" font-family="Sans" font-size="10.00">LC#16</text>
</a>
</g>
<!-- LC#17 -->
<g id="node72" class="node"><title>LC#17</title>
<a xlink:href="https://github.com/quattor/LC/issues/17" xlink:title="LC::Check::link 17.2: hardlink management is buggy" target="_parent">
<ellipse fill="#bd2c00" stroke="black" cx="448" cy="-1312" rx="39.8075" ry="38.1838"/>
<text text-anchor="middle" x="448" y="-1316" font-family="Sans" font-size="10.00">issue</text>
<text text-anchor="middle" x="448" y="-1303" font-family="Sans" font-size="10.00">LC#17</text>
</a>
</g>
<!-- LC#16&#45;&gt;LC#17 -->
<g id="edge56" class="edge"><title>LC#16-&gt;LC#17</title>
<path fill="none" stroke="black" stroke-width="2" d="M173.775,-1523.09C198.731,-1518.81 230.196,-1509.83 252,-1491 266.144,-1478.79 261.208,-1469.49 270,-1453 292.879,-1410.09 288.825,-1390.35 326,-1359 346.74,-1341.51 374.71,-1330.1 398.637,-1322.92"/>
<polygon fill="black" stroke="black" points="399.604,-1326.28 408.266,-1320.18 397.691,-1319.55 399.604,-1326.28"/>
<text text-anchor="middle" x="289" y="-1457" font-family="Sans" font-size="10.00">fixes</text>
</g>
<!-- maven&#45;tools#148 -->
<g id="node73" class="node"><title>maven-tools#148</title>
<a xlink:href="https://github.com/quattor/maven-tools/pull/148" xlink:title="Test::Quattor::ProfileCache: use a ccm.cfg per compiled profile" target="_parent">
<polygon fill="#6e5494" stroke="black" points="185,-1482 83,-1482 83,-1428 185,-1428 185,-1482"/>
<text text-anchor="middle" x="134" y="-1459" font-family="Sans" font-size="10.00">pull-request</text>
<text text-anchor="middle" x="134" y="-1446" font-family="Sans" font-size="10.00">maven-tools#148</text>
</a>
</g>
<!-- maven&#45;tools#135 -->
<g id="node75" class="node"><title>maven-tools#135</title>
<a xlink:href="https://github.com/quattor/maven-tools/issues/135" xlink:title="tests try to generate tabcompletion" target="_parent">
<ellipse fill="#bd2c00" stroke="black" cx="448" cy="-1218" rx="72.832" ry="38.1838"/>
<text text-anchor="middle" x="448" y="-1222" font-family="Sans" font-size="10.00">issue</text>
<text text-anchor="middle" x="448" y="-1209" font-family="Sans" font-size="10.00">maven-tools#135</text>
</a>
</g>
<!-- maven&#45;tools#148&#45;&gt;maven&#45;tools#135 -->
<g id="edge58" class="edge"><title>maven-tools#148-&gt;maven-tools#135</title>
<path fill="none" stroke="black" stroke-width="2" d="M185.731,-1450.1C208.686,-1445.43 234.422,-1436.41 252,-1419 270.877,-1400.31 259.295,-1386.31 270,-1362 290.058,-1316.44 288.167,-1297.35 326,-1265 339.339,-1253.59 355.75,-1244.79 372.161,-1238.06"/>
<polygon fill="black" stroke="black" points="373.736,-1241.2 381.8,-1234.33 371.211,-1234.67 373.736,-1241.2"/>
<text text-anchor="middle" x="289" y="-1366" font-family="Sans" font-size="10.00">fixes</text>
</g>
<!-- maven&#45;tools#137 -->
<g id="node76" class="node"><title>maven-tools#137</title>
<a xlink:href="https://github.com/quattor/maven-tools/pull/137" xlink:title="mvnprove: trace the tests, not prove (and include tracing compiletime)" target="_parent">
<polygon fill="#6e5494" stroke="black" points="185,-1266 83,-1266 83,-1212 185,-1212 185,-1266"/>
<text text-anchor="middle" x="134" y="-1243" font-family="Sans" font-size="10.00">pull-request</text>
<text text-anchor="middle" x="134" y="-1230" font-family="Sans" font-size="10.00">maven-tools#137</text>
</a>
</g>
<!-- maven&#45;tools#133 -->
<g id="node78" class="node"><title>maven-tools#133</title>
<polygon fill="lightgrey" stroke="black" points="499,-562.5 397,-562.5 397,-521.5 499,-521.5 499,-562.5"/>
<text text-anchor="middle" x="448" y="-539.5" font-family="Sans" font-size="10.00">maven-tools#133</text>
</g>
<!-- maven&#45;tools#137&#45;&gt;maven&#45;tools#133 -->
<g id="edge60" class="edge"><title>maven-tools#137-&gt;maven-tools#133</title>
<path fill="none" stroke="black" stroke-dasharray="1,5" d="M185.64,-1236.58C209.748,-1232.56 236.491,-1223.36 252,-1203 274.227,-1173.82 243.784,-568.655 270,-543 299.805,-513.834 347.646,-515.137 386.227,-522.893"/>
<polygon fill="black" stroke="black" points="396.329,-525.109 385.597,-527.361 391.445,-524.038 386.562,-522.966 386.562,-522.966 386.562,-522.966 391.445,-524.038 387.526,-518.571 396.329,-525.109 396.329,-525.109"/>
<text text-anchor="middle" x="289" y="-547" font-family="Sans" font-size="10.00">replaces</text>
</g>
<!-- maven&#45;tools#134 -->
<g id="node80" class="node"><title>maven-tools#134</title>
<a xlink:href="https://github.com/quattor/maven-tools/issues/134" xlink:title="tracing guideline" target="_parent">
<ellipse fill="#bd2c00" stroke="black" cx="448" cy="-842" rx="72.832" ry="38.1838"/>
<text text-anchor="middle" x="448" y="-846" font-family="Sans" font-size="10.00">issue</text>
<text text-anchor="middle" x="448" y="-833" font-family="Sans" font-size="10.00">maven-tools#134</text>
</a>
</g>
<!-- maven&#45;tools#137&#45;&gt;maven&#45;tools#134 -->
<g id="edge62" class="edge"><title>maven-tools#137-&gt;maven-tools#134</title>
<path fill="none" stroke="black" stroke-width="2" d="M185.773,-1236.1C209.608,-1231.94 236.074,-1222.76 252,-1203 282.642,-1164.98 255.228,-1030.54 270,-984 277.413,-960.642 307.303,-904.842 326,-889 339.39,-877.654 355.822,-868.874 372.236,-862.145"/>
<polygon fill="black" stroke="black" points="373.812,-865.289 381.876,-858.417 371.286,-858.76 373.812,-865.289"/>
<text text-anchor="middle" x="289" y="-988" font-family="Sans" font-size="10.00">fixes</text>
</g>
<!-- maven&#45;tools#136 -->
<g id="node81" class="node"><title>maven-tools#136</title>
<a xlink:href="https://github.com/quattor/maven-tools/pull/136" xlink:title="Test/Quattor/Panc: refine valid annotation" target="_parent">
<polygon fill="#6e5494" stroke="black" points="185,-690 83,-690 83,-636 185,-636 185,-690"/>
<text text-anchor="middle" x="134" y="-667" font-family="Sans" font-size="10.00">pull-request</text>
<text text-anchor="middle" x="134" y="-654" font-family="Sans" font-size="10.00">maven-tools#136</text>
</a>
</g>
<!-- maven&#45;tools#140 -->
<g id="node83" class="node"><title>maven-tools#140</title>
<polygon fill="lightgrey" stroke="black" points="499,-40.5 397,-40.5 397,0.5 499,0.5 499,-40.5"/>
<text text-anchor="middle" x="448" y="-17.5" font-family="Sans" font-size="10.00">maven-tools#140</text>
</g>
<!-- maven&#45;tools#136&#45;&gt;maven&#45;tools#140 -->
<g id="edge64" class="edge"><title>maven-tools#136-&gt;maven-tools#140</title>
<path fill="none" stroke="black" stroke-width="2" d="M135.924,-635.645C144.177,-526.641 180.317,-125.165 270,-43 300.661,-14.9091 347.727,-9.85548 385.762,-11.4543"/>
<polygon fill="black" stroke="black" points="386.042,-14.9766 396.229,-12.068 386.451,-7.98856 386.042,-14.9766"/>
<text text-anchor="middle" x="289" y="-47" font-family="Sans" font-size="10.00">fixes</text>
</g>
<!-- template&#45;library&#45;core#153 -->
<g id="node84" class="node"><title>template-library-core#153</title>
<a xlink:href="https://github.com/quattor/template-library-core/pull/153" xlink:title="blockdevices schema: add support for esp partition flag" target="_parent">
<polygon fill="#6e5494" stroke="black" points="203,-1410 65,-1410 65,-1356 203,-1356 203,-1410"/>
<text text-anchor="middle" x="134" y="-1387" font-family="Sans" font-size="10.00">pull-request</text>
<text text-anchor="middle" x="134" y="-1374" font-family="Sans" font-size="10.00">template-library-core#153</text>
</a>
</g>
<!-- template&#45;library&#45;core#152 -->
<g id="node86" class="node"><title>template-library-core#152</title>
<a xlink:href="https://github.com/quattor/template-library-core/issues/152" xlink:title="update partition flags" target="_parent">
<ellipse fill="#bd2c00" stroke="black" cx="448" cy="-1124" rx="97.0803" ry="38.1838"/>
<text text-anchor="middle" x="448" y="-1128" font-family="Sans" font-size="10.00">issue</text>
<text text-anchor="middle" x="448" y="-1115" font-family="Sans" font-size="10.00">template-library-core#152</text>
</a>
</g>
<!-- template&#45;library&#45;core#153&#45;&gt;template&#45;library&#45;core#152 -->
<g id="edge66" class="edge"><title>template-library-core#153-&gt;template-library-core#152</title>
<path fill="none" stroke="black" stroke-width="2" d="M203.193,-1374.69C221.23,-1369.39 239.18,-1360.82 252,-1347 276.789,-1320.28 256.662,-1300.92 270,-1267 288.078,-1221.03 288.387,-1203.02 326,-1171 335.615,-1162.82 346.812,-1155.97 358.449,-1150.26"/>
<polygon fill="black" stroke="black" points="360.237,-1153.29 367.855,-1145.93 357.308,-1146.94 360.237,-1153.29"/>
<text text-anchor="middle" x="289" y="-1271" font-family="Sans" font-size="10.00">fixes</text>
</g>
<!-- template&#45;library&#45;core#148 -->
<g id="node90" class="node"><title>template-library-core#148</title>
<a xlink:href="https://github.com/quattor/template-library-core/issues/148" xlink:title="quattor/functions/network: boot_nic returns last, not first boot device" target="_parent">
<ellipse fill="#bd2c00" stroke="black" cx="936" cy="-1559" rx="97.0803" ry="38.1838"/>
<text text-anchor="middle" x="936" y="-1563" font-family="Sans" font-size="10.00">issue</text>
<text text-anchor="middle" x="936" y="-1550" font-family="Sans" font-size="10.00">template-library-core#148</text>
</a>
</g>
<!-- template&#45;library&#45;core#150&#45;&gt;template&#45;library&#45;core#148 -->
<g id="edge70" class="edge"><title>template-library-core#150-&gt;template-library-core#148</title>
<path fill="none" stroke="black" stroke-width="2" d="M780.037,-1575.64C796.342,-1573.9 814.088,-1572 831.572,-1570.14"/>
<polygon fill="black" stroke="black" points="832.251,-1573.59 841.823,-1569.05 831.508,-1566.63 832.251,-1573.59"/>
<text text-anchor="middle" x="809" y="-1578" font-family="Sans" font-size="10.00">fixes</text>
</g>
<!-- template&#45;library&#45;core#149 -->
<g id="node92" class="node"><title>template-library-core#149</title>
<a xlink:href="https://github.com/quattor/template-library-core/issues/149" xlink:title="remove get_subnet_params from quattor/functions/network" target="_parent">
<ellipse fill="#6cc644" stroke="black" cx="936" cy="-1653" rx="97.0803" ry="38.1838"/>
<text text-anchor="middle" x="936" y="-1657" font-family="Sans" font-size="10.00">issue</text>
<text text-anchor="middle" x="936" y="-1644" font-family="Sans" font-size="10.00">template-library-core#149</text>
</a>
</g>
<!-- template&#45;library&#45;core#150&#45;&gt;template&#45;library&#45;core#149 -->
<g id="edge72" class="edge"><title>template-library-core#150-&gt;template-library-core#149</title>
<path fill="none" stroke="black" stroke-width="2" d="M780.037,-1604.48C802.078,-1611.34 826.749,-1619.01 849.85,-1626.2"/>
<polygon fill="black" stroke="black" points="849.054,-1629.62 859.642,-1629.24 851.133,-1622.93 849.054,-1629.62"/>
<text text-anchor="middle" x="809" y="-1620" font-family="Sans" font-size="10.00">fixes</text>
</g>
</g>
</svg>
