<?xml version="1.0" encoding="UTF-8" standalone="no"?>
<?xml-stylesheet href="relationships.css" type="text/css"?>
<!-- Generated by graphviz version 2.30.1 (20200930.0103)
 -->
<!-- Title: Dependencies Pages: 1 -->
<svg xmlns="http://www.w3.org/2000/svg" xmlns:xlink="http://www.w3.org/1999/xlink" width="1118pt" height="1423pt" viewBox="0.00 0.00 1118.00 1423.00">
<g id="graph0" class="graph" transform="scale(1 1) rotate(0) translate(4 1419)">
<title>Dependencies</title>
<polygon fill="white" stroke="white" points="-4,5 -4,-1419 1115,-1419 1115,5 -4,5"/>
<g id="clust4" class="cluster"><title>cluster_repo_aquilon</title>
<polygon fill="none" stroke="black" points="8,-1116 8,-1407 530,-1407 530,-1116 8,-1116"/>
<text text-anchor="middle" x="269" y="-1393.4" font-family="Sans" font-size="12.00">aquilon</text>
</g>
<g id="clust2" class="cluster"><title>cluster_milestone_22.9</title>
<polygon fill="none" stroke="black" points="15,-745 15,-912 529,-912 529,-745 15,-745"/>
<text text-anchor="middle" x="272" y="-898.4" font-family="Sans" font-size="12.00">22.9</text>
</g>
<g id="clust1" class="cluster"><title>cluster_milestone_22.3</title>
<polygon fill="none" stroke="black" points="326,-218 326,-737 850,-737 850,-218 326,-218"/>
<text text-anchor="middle" x="588" y="-723.4" font-family="Sans" font-size="12.00">22.3</text>
</g>
<!-- aii#328 -->
<g id="node1" class="node"><title>aii#328</title>
<g id="a_node1"><a xlink:href="https://github.com/quattor/aii/pull/328" xlink:title="aii#328 (pull-request)" target="_parent">
<polygon fill="#6cc644" stroke="black" points="522,-640 340,-640 340,-590 522,-590 522,-640"/>
<text text-anchor="middle" x="431" y="-618" font-family="Sans" font-size="10.00">aii-ks: generate ks post section</text>
<text text-anchor="middle" x="431" y="-607" font-family="Sans" font-size="10.00">as standalone script</text>
</a>
</g>
</g>
<!-- aii#280 -->
<g id="node2" class="node"><title>aii#280</title>
<polygon fill="lightgrey" stroke="black" points="1063.5,-693.5 996.5,-693.5 996.5,-654.5 1063.5,-654.5 1063.5,-693.5"/>
<text text-anchor="middle" x="1030" y="-671.5" font-family="Sans" font-size="10.00">aii#280</text>
</g>
<!-- aii#328&#45;&gt;aii#280 -->
<g id="edge1" class="edge"><title>aii#328-&gt;aii#280</title>
<path fill="none" stroke="black" stroke-dasharray="5,2" d="M522.133,-634.255C559.652,-641.572 603.766,-649.274 644,-654 767.61,-668.518 914.782,-672.497 986.065,-673.588"/>
<polygon fill="none" stroke="black" points="986.382,-677.093 996.43,-673.734 986.48,-670.094 986.382,-677.093"/>
<text text-anchor="middle" x="738.473" y="-656.396" font-family="Sans" font-size="10.00">requires</text>
</g>
<!-- aii#316 -->
<g id="node3" class="node"><title>aii#316</title>
<g id="a_node3"><a xlink:href="https://github.com/quattor/aii/pull/316" xlink:title="aii#316 (pull-request)" target="_parent">
<polygon fill="#6cc644" stroke="black" points="831,-645.5 655,-645.5 655,-584.5 831,-584.5 831,-645.5"/>
<text text-anchor="middle" x="743" y="-623.5" font-family="Sans" font-size="10.00">aii-ks: generate kickstart repo</text>
<text text-anchor="middle" x="743" y="-612.5" font-family="Sans" font-size="10.00">entries based on SPMA</text>
<text text-anchor="middle" x="743" y="-601.5" font-family="Sans" font-size="10.00">configuration</text>
</a>
</g>
</g>
<!-- aii#328&#45;&gt;aii#316 -->
<g id="edge2" class="edge"><title>aii#328-&gt;aii#316</title>
<path fill="none" stroke="black" stroke-dasharray="5,2" d="M522.081,-615C560.563,-615 605.56,-615 644.792,-615"/>
<polygon fill="none" stroke="black" points="644.899,-618.5 654.899,-615 644.899,-611.5 644.899,-618.5"/>
<text text-anchor="middle" x="568.561" y="-607" font-family="Sans" font-size="10.00">requires</text>
</g>
<!-- aii#316&#45;&gt;aii#280 -->
<g id="edge3" class="edge"><title>aii#316-&gt;aii#280</title>
<path fill="none" stroke="black" stroke-dasharray="5,2" d="M831.058,-633.023C882.518,-643.676 945.406,-656.695 986.29,-665.158"/>
<polygon fill="none" stroke="black" points="985.688,-668.608 996.19,-667.208 987.107,-661.753 985.688,-668.608"/>
<text text-anchor="middle" x="893.279" y="-642.044" font-family="Sans" font-size="10.00">requires</text>
</g>
<!-- aii#314 -->
<g id="node4" class="node"><title>aii#314</title>
<polygon fill="lightgrey" stroke="black" points="1063.5,-635.5 996.5,-635.5 996.5,-596.5 1063.5,-596.5 1063.5,-635.5"/>
<text text-anchor="middle" x="1030" y="-613.5" font-family="Sans" font-size="10.00">aii#314</text>
</g>
<!-- aii#316&#45;&gt;aii#314 -->
<g id="edge4" class="edge"><title>aii#316-&gt;aii#314</title>
<path fill="none" stroke="black" stroke-dasharray="5,2" d="M831.058,-615.305C882.409,-615.486 945.14,-615.706 986.03,-615.849"/>
<polygon fill="none" stroke="black" points="986.177,-619.35 996.19,-615.885 986.202,-612.35 986.177,-619.35"/>
<text text-anchor="middle" x="893.741" y="-607.596" font-family="Sans" font-size="10.00">requires</text>
</g>
<!-- aii#315 -->
<g id="node5" class="node"><title>aii#315</title>
<polygon fill="lightgrey" stroke="black" points="1063.5,-578.5 996.5,-578.5 996.5,-539.5 1063.5,-539.5 1063.5,-578.5"/>
<text text-anchor="middle" x="1030" y="-556.5" font-family="Sans" font-size="10.00">aii#315</text>
</g>
<!-- aii#316&#45;&gt;aii#315 -->
<g id="edge5" class="edge"><title>aii#316-&gt;aii#315</title>
<path fill="none" stroke="black" stroke-dasharray="5,2" d="M831.058,-597.894C882.518,-587.782 945.406,-575.425 986.29,-567.392"/>
<polygon fill="none" stroke="black" points="987.052,-570.809 996.19,-565.447 985.702,-563.941 987.052,-570.809"/>
<text text-anchor="middle" x="893.279" y="-573.738" font-family="Sans" font-size="10.00">requires</text>
</g>
<!-- aii#299 -->
<g id="node6" class="node"><title>aii#299</title>
<g id="a_node6"><a xlink:href="https://github.com/quattor/aii/pull/299" xlink:title="aii#299 (pull-request)" target="_parent">
<polygon fill="#6cc644" stroke="black" points="507.5,-708 354.5,-708 354.5,-658 507.5,-658 507.5,-708"/>
<text text-anchor="middle" x="431" y="-686" font-family="Sans" font-size="10.00">aii-dhcp: support optional</text>
<text text-anchor="middle" x="431" y="-675" font-family="Sans" font-size="10.00">hostname ip verification</text>
</a>
</g>
</g>
<!-- aii#299&#45;&gt;aii#280 -->
<g id="edge6" class="edge"><title>aii#299-&gt;aii#280</title>
<path fill="none" stroke="black" stroke-dasharray="5,2" d="M507.544,-686.217C591.286,-689.245 730.343,-692.672 850,-688 896.634,-686.179 949.947,-681.699 986.175,-678.294"/>
<polygon fill="none" stroke="black" points="986.759,-681.754 996.382,-677.32 986.094,-674.786 986.759,-681.754"/>
<text text-anchor="middle" x="732.307" y="-682.165" font-family="Sans" font-size="10.00">requires</text>
</g>
<!-- aii#331 -->
<g id="node7" class="node"><title>aii#331</title>
<g id="a_node7"><a xlink:href="https://github.com/quattor/aii/pull/331" xlink:title="aii#331 (pull-request)" target="_parent">
<polygon fill="#6cc644" stroke="black" points="186,-645.5 44,-645.5 44,-584.5 186,-584.5 186,-645.5"/>
<text text-anchor="middle" x="115" y="-623.5" font-family="Sans" font-size="10.00">let aii generate ansible</text>
<text text-anchor="middle" x="115" y="-612.5" font-family="Sans" font-size="10.00">playbook for supported</text>
<text text-anchor="middle" x="115" y="-601.5" font-family="Sans" font-size="10.00">components</text>
</a>
</g>
</g>
<!-- aii#331&#45;&gt;aii#328 -->
<g id="edge7" class="edge"><title>aii#331-&gt;aii#328</title>
<path fill="none" stroke="black" stroke-dasharray="5,2" d="M186.077,-615C228.343,-615 282.883,-615 329.668,-615"/>
<polygon fill="none" stroke="black" points="329.834,-618.5 339.834,-615 329.834,-611.5 329.834,-618.5"/>
<text text-anchor="middle" x="242.574" y="-607" font-family="Sans" font-size="10.00">requires</text>
</g>
<!-- CAF#257 -->
<g id="node8" class="node"><title>CAF#257</title>
<g id="a_node8"><a xlink:href="https://github.com/quattor/CAF/pull/257" xlink:title="CAF#257 (pull-request)" target="_parent">
<polygon fill="#6cc644" stroke="black" points="206.5,-877 23.5,-877 23.5,-827 206.5,-827 206.5,-877"/>
<text text-anchor="middle" x="115" y="-855" font-family="Sans" font-size="10.00">Process: run process as another</text>
<text text-anchor="middle" x="115" y="-844" font-family="Sans" font-size="10.00">user</text>
</a>
</g>
</g>
<!-- CAF#253 -->
<g id="node9" class="node"><title>CAF#253</title>
<g id="a_node9"><a xlink:href="https://github.com/quattor/CAF/issues/253" xlink:title="CAF#253 (issue)" target="_parent">
<path fill="#6cc644" stroke="black" d="M509,-882.5C509,-882.5 353,-882.5 353,-882.5 347,-882.5 341,-876.5 341,-870.5 341,-870.5 341,-833.5 341,-833.5 341,-827.5 347,-821.5 353,-821.5 353,-821.5 509,-821.5 509,-821.5 515,-821.5 521,-827.5 521,-833.5 521,-833.5 521,-870.5 521,-870.5 521,-876.5 515,-882.5 509,-882.5"/>
<text text-anchor="middle" x="431" y="-860.5" font-family="Sans" font-size="10.00">CAF::Process: Include an option</text>
<text text-anchor="middle" x="431" y="-849.5" font-family="Sans" font-size="10.00">to execute the command as an</text>
<text text-anchor="middle" x="431" y="-838.5" font-family="Sans" font-size="10.00">specific user</text>
</a>
</g>
</g>
<!-- CAF#257&#45;&gt;CAF#253 -->
<g id="edge8" class="edge"><title>CAF#257-&gt;CAF#253</title>
<path fill="none" stroke="black" stroke-width="2" d="M206.822,-852C245.561,-852 290.88,-852 330.522,-852"/>
<polygon fill="black" stroke="black" points="330.737,-855.5 340.737,-852 330.737,-848.5 330.737,-855.5"/>
<text text-anchor="middle" x="261.782" y="-844" font-family="Sans" font-size="10.00">fixes</text>
</g>
<!-- CAF#110 -->
<g id="node10" class="node"><title>CAF#110</title>
<g id="a_node10"><a xlink:href="https://github.com/quattor/CAF/pull/110" xlink:title="CAF#110 (pull-request)" target="_parent">
<polygon fill="#6cc644" stroke="black" points="506.5,-424 355.5,-424 355.5,-374 506.5,-374 506.5,-424"/>
<text text-anchor="middle" x="431" y="-402" font-family="Sans" font-size="10.00">CAF::Download class: API</text>
<text text-anchor="middle" x="431" y="-391" font-family="Sans" font-size="10.00">proposal</text>
</a>
</g>
</g>
<!-- CAF#120 -->
<g id="node11" class="node"><title>CAF#120</title>
<polygon fill="lightgrey" stroke="black" points="780,-209.5 706,-209.5 706,-170.5 780,-170.5 780,-209.5"/>
<text text-anchor="middle" x="743" y="-187.5" font-family="Sans" font-size="10.00">CAF#120</text>
</g>
<!-- CAF#110&#45;&gt;CAF#120 -->
<g id="edge9" class="edge"><title>CAF#110-&gt;CAF#120</title>
<path fill="none" stroke="black" stroke-dasharray="5,2" d="M506.719,-380.235C517.084,-375.852 527.186,-370.504 536,-364 602.102,-315.225 575.898,-259.941 644,-214 659.174,-203.764 678.288,-197.885 695.597,-194.513"/>
<polygon fill="none" stroke="black" points="696.275,-197.948 705.537,-192.802 695.088,-191.049 696.275,-197.948"/>
<text text-anchor="middle" x="572.151" y="-272.731" font-family="Sans" font-size="10.00">requires</text>
</g>
<!-- configuration&#45;modules&#45;core#1490 -->
<g id="node12" class="node"><title>configuration-modules-core#1490</title>
<g id="a_node12"><a xlink:href="https://github.com/quattor/configuration-modules-core/pull/1490" xlink:title="configuration-modules-core#1490 (pull-request)" target="_parent">
<polygon fill="#6cc644" stroke="black" points="514.5,-355.5 347.5,-355.5 347.5,-294.5 514.5,-294.5 514.5,-355.5"/>
<text text-anchor="middle" x="431" y="-333.5" font-family="Sans" font-size="10.00">ncm-ceph: Add support for</text>
<text text-anchor="middle" x="431" y="-322.5" font-family="Sans" font-size="10.00">orchestrator/cephadm under</text>
<text text-anchor="middle" x="431" y="-311.5" font-family="Sans" font-size="10.00">octopus</text>
</a>
</g>
</g>
<!-- configuration&#45;modules&#45;core#1463 -->
<g id="node13" class="node"><title>configuration-modules-core#1463</title>
<polygon fill="lightgrey" stroke="black" points="840.5,-152.5 645.5,-152.5 645.5,-113.5 840.5,-113.5 840.5,-152.5"/>
<text text-anchor="middle" x="743" y="-130.5" font-family="Sans" font-size="10.00">configuration-modules-core#1463</text>
</g>
<!-- configuration&#45;modules&#45;core#1490&#45;&gt;configuration&#45;modules&#45;core#1463 -->
<g id="edge10" class="edge"><title>configuration-modules-core#1490-&gt;configuration-modules-core#1463</title>
<path fill="none" stroke="black" stroke-dasharray="1,5" d="M501.815,-294.737C513.743,-289.433 525.619,-283.266 536,-276 593.066,-236.054 583.433,-195.227 636.979,-156.805"/>
<polygon fill="black" stroke="black" points="645.353,-151.154 639.581,-160.478 641.208,-153.951 637.063,-156.748 637.063,-156.748 637.063,-156.748 641.208,-153.951 634.546,-153.018 645.353,-151.154 645.353,-151.154"/>
<text text-anchor="middle" x="559.948" y="-219.57" font-family="Sans" font-size="10.00">replaces</text>
</g>
<!-- configuration&#45;modules&#45;core#1490&#45;&gt;configuration&#45;modules&#45;core#1463 -->
<g id="edge16" class="edge"><title>configuration-modules-core#1490-&gt;configuration-modules-core#1463</title>
<path fill="none" stroke="black" stroke-dasharray="1,5" d="M514.567,-306.604C522.072,-302.866 529.344,-298.659 536,-294 595.873,-252.09 582.324,-209.209 644,-170 653.261,-164.113 663.785,-159.435 674.419,-155.598"/>
<polygon fill="black" stroke="black" points="684.181,-152.3 676.148,-159.763 679.444,-153.9 674.707,-155.5 674.707,-155.5 674.707,-155.5 679.444,-153.9 673.267,-151.237 684.181,-152.3 684.181,-152.3"/>
<text text-anchor="middle" x="613.385" y="-217.617" font-family="Sans" font-size="10.00">replaces</text>
</g>
<!-- configuration&#45;modules&#45;core#1452 -->
<g id="node14" class="node"><title>configuration-modules-core#1452</title>
<g id="a_node14"><a xlink:href="https://github.com/quattor/configuration-modules-core/pull/1452" xlink:title="configuration-modules-core#1452 (pull-request)" target="_parent">
<polygon fill="#6cc644" stroke="black" points="517.5,-276 344.5,-276 344.5,-226 517.5,-226 517.5,-276"/>
<text text-anchor="middle" x="431" y="-254" font-family="Sans" font-size="10.00">ncm-metaconfig: ssh daemon</text>
<text text-anchor="middle" x="431" y="-243" font-family="Sans" font-size="10.00">configuration support</text>
</a>
</g>
</g>
<!-- configuration&#45;modules&#45;core#1377 -->
<g id="node15" class="node"><title>configuration-modules-core#1377</title>
<polygon fill="lightgrey" stroke="black" points="840.5,-95.5 645.5,-95.5 645.5,-56.5 840.5,-56.5 840.5,-95.5"/>
<text text-anchor="middle" x="743" y="-73.5" font-family="Sans" font-size="10.00">configuration-modules-core#1377</text>
</g>
<!-- configuration&#45;modules&#45;core#1452&#45;&gt;configuration&#45;modules&#45;core#1377 -->
<g id="edge11" class="edge"><title>configuration-modules-core#1452-&gt;configuration-modules-core#1377</title>
<path fill="none" stroke="black" stroke-dasharray="1,5" d="M454.595,-225.931C490.225,-192.854 562.837,-135.421 636.051,-98.8917"/>
<polygon fill="black" stroke="black" points="645.446,-94.3228 638.421,-102.743 640.949,-96.5096 636.453,-98.6964 636.453,-98.6964 636.453,-98.6964 640.949,-96.5096 634.485,-94.6496 645.446,-94.3228 645.446,-94.3228"/>
<text text-anchor="middle" x="524.667" y="-145.428" font-family="Sans" font-size="10.00">replaces</text>
</g>
<!-- configuration&#45;modules&#45;core#1451 -->
<g id="node16" class="node"><title>configuration-modules-core#1451</title>
<polygon fill="lightgrey" stroke="black" points="840.5,-38.5 645.5,-38.5 645.5,0.5 840.5,0.5 840.5,-38.5"/>
<text text-anchor="middle" x="743" y="-16.5" font-family="Sans" font-size="10.00">configuration-modules-core#1451</text>
</g>
<!-- configuration&#45;modules&#45;core#1452&#45;&gt;configuration&#45;modules&#45;core#1451 -->
<g id="edge12" class="edge"><title>configuration-modules-core#1452-&gt;configuration-modules-core#1451</title>
<path fill="none" stroke="black" stroke-dasharray="5,2" d="M447.179,-225.903C477.998,-182.481 552.091,-94.0645 636.641,-42.4021"/>
<polygon fill="none" stroke="black" points="638.574,-45.3253 645.388,-37.2127 635.002,-39.3051 638.574,-45.3253"/>
<text text-anchor="middle" x="516.862" y="-114.072" font-family="Sans" font-size="10.00">requires</text>
</g>
<!-- configuration&#45;modules&#45;core#1452&#45;&gt;configuration&#45;modules&#45;core#1377 -->
<g id="edge17" class="edge"><title>configuration-modules-core#1452-&gt;configuration-modules-core#1377</title>
<path fill="none" stroke="black" stroke-dasharray="1,5" d="M469.484,-225.943C510.115,-195.298 578.021,-144.247 644,-113 656.106,-107.267 669.623,-102.476 682.656,-98.3382"/>
<polygon fill="black" stroke="black" points="692.497,-95.297 684.272,-102.549 687.72,-96.7733 682.943,-98.2496 682.943,-98.2496 682.943,-98.2496 687.72,-96.7733 681.615,-93.9502 692.497,-95.297 692.497,-95.297"/>
<text text-anchor="middle" x="596.34" y="-143.316" font-family="Sans" font-size="10.00">replaces</text>
</g>
<!-- configuration&#45;modules&#45;core#1452&#45;&gt;configuration&#45;modules&#45;core#1451 -->
<g id="edge18" class="edge"><title>configuration-modules-core#1452-&gt;configuration-modules-core#1451</title>
<path fill="none" stroke="black" stroke-dasharray="5,2" d="M455.89,-225.734C491.877,-184.085 564.314,-101.862 644,-56 654.304,-50.0697 665.95,-45.3236 677.523,-41.3859"/>
<polygon fill="none" stroke="black" points="678.757,-44.6653 687.197,-38.26 676.605,-38.0044 678.757,-44.6653"/>
<text text-anchor="middle" x="579.363" y="-110.512" font-family="Sans" font-size="10.00">requires</text>
</g>
<!-- configuration&#45;modules&#45;core#1336 -->
<g id="node17" class="node"><title>configuration-modules-core#1336</title>
<g id="a_node17"><a xlink:href="https://github.com/quattor/configuration-modules-core/pull/1336" xlink:title="configuration-modules-core#1336 (pull-request)" target="_parent">
<polygon fill="#6cc644" stroke="black" points="518,-571.5 344,-571.5 344,-510.5 518,-510.5 518,-571.5"/>
<text text-anchor="middle" x="431" y="-549.5" font-family="Sans" font-size="10.00">ncm-network: Add support for</text>
<text text-anchor="middle" x="431" y="-538.5" font-family="Sans" font-size="10.00">CAF::Service actions after</text>
<text text-anchor="middle" x="431" y="-527.5" font-family="Sans" font-size="10.00">changes</text>
</a>
</g>
</g>
<!-- configuration&#45;modules&#45;core#1335 -->
<g id="node18" class="node"><title>configuration-modules-core#1335</title>
<g id="a_node18"><a xlink:href="https://github.com/quattor/configuration-modules-core/pull/1335" xlink:title="configuration-modules-core#1335 (pull-request)" target="_parent">
<polygon fill="#6cc644" stroke="black" points="836,-497.5 650,-497.5 650,-436.5 836,-436.5 836,-497.5"/>
<text text-anchor="middle" x="743" y="-475.5" font-family="Sans" font-size="10.00">ncm-metaconfig: Remove</text>
<text text-anchor="middle" x="743" y="-464.5" font-family="Sans" font-size="10.00">caf_service_action type to allow</text>
<text text-anchor="middle" x="743" y="-453.5" font-family="Sans" font-size="10.00">reuse</text>
</a>
</g>
</g>
<!-- configuration&#45;modules&#45;core#1336&#45;&gt;configuration&#45;modules&#45;core#1335 -->
<g id="edge13" class="edge"><title>configuration-modules-core#1336-&gt;configuration-modules-core#1335</title>
<path fill="none" stroke="black" stroke-dasharray="5,2" d="M518.352,-520.387C556.091,-511.378 600.633,-500.746 639.992,-491.35"/>
<polygon fill="none" stroke="black" points="640.966,-494.716 649.88,-488.99 639.34,-487.908 640.966,-494.716"/>
<text text-anchor="middle" x="563.923" y="-496.734" font-family="Sans" font-size="10.00">requires</text>
</g>
<!-- configuration&#45;modules&#45;core#1071 -->
<g id="node19" class="node"><title>configuration-modules-core#1071</title>
<g id="a_node19"><a xlink:href="https://github.com/quattor/configuration-modules-core/issues/1071" xlink:title="configuration-modules-core#1071 (issue)" target="_parent">
<path fill="#6cc644" stroke="black" d="M829.5,-566C829.5,-566 656.5,-566 656.5,-566 650.5,-566 644.5,-560 644.5,-554 644.5,-554 644.5,-528 644.5,-528 644.5,-522 650.5,-516 656.5,-516 656.5,-516 829.5,-516 829.5,-516 835.5,-516 841.5,-522 841.5,-528 841.5,-528 841.5,-554 841.5,-554 841.5,-560 835.5,-566 829.5,-566"/>
<text text-anchor="middle" x="743" y="-544" font-family="Sans" font-size="10.00">ncm-network: support daemons to</text>
<text text-anchor="middle" x="743" y="-533" font-family="Sans" font-size="10.00">restart after network changes</text>
</a>
</g>
</g>
<!-- configuration&#45;modules&#45;core#1336&#45;&gt;configuration&#45;modules&#45;core#1071 -->
<g id="edge14" class="edge"><title>configuration-modules-core#1336-&gt;configuration-modules-core#1071</title>
<path fill="none" stroke="black" stroke-width="2" d="M518.352,-541C554.286,-541 596.389,-541 634.312,-541"/>
<polygon fill="black" stroke="black" points="634.371,-544.5 644.371,-541 634.371,-537.5 634.371,-544.5"/>
<text text-anchor="middle" x="569.612" y="-533" font-family="Sans" font-size="10.00">fixes</text>
</g>
<!-- configuration&#45;modules&#45;core#1336&#45;&gt;configuration&#45;modules&#45;core#1335 -->
<g id="edge19" class="edge"><title>configuration-modules-core#1336-&gt;configuration-modules-core#1335</title>
<path fill="none" stroke="black" stroke-dasharray="5,2" d="M518.352,-520.387C556.091,-511.378 600.633,-500.746 639.992,-491.35"/>
<polygon fill="none" stroke="black" points="640.966,-494.716 649.88,-488.99 639.34,-487.908 640.966,-494.716"/>
<text text-anchor="middle" x="603.923" y="-496.734" font-family="Sans" font-size="10.00">requires</text>
</g>
<!-- configuration&#45;modules&#45;core#1336&#45;&gt;configuration&#45;modules&#45;core#1071 -->
<g id="edge20" class="edge"><title>configuration-modules-core#1336-&gt;configuration-modules-core#1071</title>
<path fill="none" stroke="black" stroke-width="2" d="M518.352,-541C554.286,-541 596.389,-541 634.312,-541"/>
<polygon fill="black" stroke="black" points="634.371,-544.5 644.371,-541 634.371,-537.5 634.371,-544.5"/>
<text text-anchor="middle" x="593.612" y="-533" font-family="Sans" font-size="10.00">fixes</text>
</g>
<!-- template&#45;library&#45;core#191 -->
<g id="node20" class="node"><title>template-library-core#191</title>
<polygon fill="lightgrey" stroke="black" points="1109.5,-486.5 950.5,-486.5 950.5,-447.5 1109.5,-447.5 1109.5,-486.5"/>
<text text-anchor="middle" x="1030" y="-464.5" font-family="Sans" font-size="10.00">template-library-core#191</text>
</g>
<!-- configuration&#45;modules&#45;core#1335&#45;&gt;template&#45;library&#45;core#191 -->
<g id="edge15" class="edge"><title>configuration-modules-core#1335-&gt;template-library-core#191</title>
<path fill="none" stroke="black" stroke-dasharray="5,2" d="M836.138,-460.64C869.447,-460.103 906.968,-460.121 940.003,-460.692"/>
<polygon fill="none" stroke="black" points="940.035,-464.193 950.101,-460.887 940.17,-457.194 940.035,-464.193"/>
<text text-anchor="middle" x="873.142" y="-452.257" font-family="Sans" font-size="10.00">requires</text>
</g>
<!-- configuration&#45;modules&#45;core#1335&#45;&gt;template&#45;library&#45;core#191 -->
<g id="edge21" class="edge"><title>configuration-modules-core#1335-&gt;template-library-core#191</title>
<path fill="none" stroke="black" stroke-dasharray="5,2" d="M836.138,-473.36C869.447,-473.897 906.968,-473.879 940.003,-473.308"/>
<polygon fill="none" stroke="black" points="940.17,-476.806 950.101,-473.113 940.035,-469.807 940.17,-476.806"/>
<text text-anchor="middle" x="873.142" y="-465.743" font-family="Sans" font-size="10.00">requires</text>
</g>
<!-- configuration&#45;modules&#45;core#1507 -->
<g id="node21" class="node"><title>configuration-modules-core#1507</title>
<g id="a_node21"><a xlink:href="https://github.com/quattor/configuration-modules-core/pull/1507" xlink:title="configuration-modules-core#1507 (pull-request)" target="_parent">
<polygon fill="#6cc644" stroke="black" points="203,-970 27,-970 27,-920 203,-920 203,-970"/>
<text text-anchor="middle" x="115" y="-948" font-family="Sans" font-size="10.00">[WIP] ncm-spma: yumdnf: use</text>
<text text-anchor="middle" x="115" y="-937" font-family="Sans" font-size="10.00">spmaleaves dnf plugin</text>
</a>
</g>
</g>
<!-- configuration&#45;modules&#45;core#1401 -->
<g id="node22" class="node"><title>configuration-modules-core#1401</title>
<polygon fill="lightgrey" stroke="black" points="528.5,-964.5 333.5,-964.5 333.5,-925.5 528.5,-925.5 528.5,-964.5"/>
<text text-anchor="middle" x="431" y="-942.5" font-family="Sans" font-size="10.00">configuration-modules-core#1401</text>
</g>
<!-- configuration&#45;modules&#45;core#1507&#45;&gt;configuration&#45;modules&#45;core#1401 -->
<g id="edge22" class="edge"><title>configuration-modules-core#1507-&gt;configuration-modules-core#1401</title>
<path fill="none" stroke="black" stroke-dasharray="5,2" d="M203.05,-945C240.203,-945 283.927,-945 323.027,-945"/>
<polygon fill="none" stroke="black" points="323.391,-948.5 333.391,-945 323.391,-941.5 323.391,-948.5"/>
<text text-anchor="middle" x="248.549" y="-937" font-family="Sans" font-size="10.00">requires</text>
</g>
<!-- configuration&#45;modules&#45;core#1148 -->
<g id="node23" class="node"><title>configuration-modules-core#1148</title>
<g id="a_node23"><a xlink:href="https://github.com/quattor/configuration-modules-core/pull/1148" xlink:title="configuration-modules-core#1148 (pull-request)" target="_parent">
<polygon fill="#6cc644" stroke="black" points="214.5,-1106 15.5,-1106 15.5,-1056 214.5,-1056 214.5,-1106"/>
<text text-anchor="middle" x="115" y="-1084" font-family="Sans" font-size="10.00">ncm-spma: Remove support from</text>
<text text-anchor="middle" x="115" y="-1073" font-family="Sans" font-size="10.00">groups from spma yumng backend</text>
</a>
</g>
</g>
<!-- configuration&#45;modules&#45;core#952 -->
<g id="node24" class="node"><title>configuration-modules-core#952</title>
<g id="a_node24"><a xlink:href="https://github.com/quattor/configuration-modules-core/issues/952" xlink:title="configuration-modules-core#952 (issue)" target="_parent">
<path fill="#6cc644" stroke="black" d="M524,-1106C524,-1106 338,-1106 338,-1106 332,-1106 326,-1100 326,-1094 326,-1094 326,-1068 326,-1068 326,-1062 332,-1056 338,-1056 338,-1056 524,-1056 524,-1056 530,-1056 536,-1062 536,-1068 536,-1068 536,-1094 536,-1094 536,-1100 530,-1106 524,-1106"/>
<text text-anchor="middle" x="431" y="-1084" font-family="Sans" font-size="10.00">ncm-spma (yumng): Remove support</text>
<text text-anchor="middle" x="431" y="-1073" font-family="Sans" font-size="10.00">for package groups</text>
</a>
</g>
</g>
<!-- configuration&#45;modules&#45;core#1148&#45;&gt;configuration&#45;modules&#45;core#952 -->
<g id="edge23" class="edge"><title>configuration-modules-core#1148-&gt;configuration-modules-core#952</title>
<path fill="none" stroke="black" stroke-width="2" d="M214.921,-1081C246.933,-1081 282.695,-1081 315.726,-1081"/>
<polygon fill="black" stroke="black" points="315.883,-1084.5 325.883,-1081 315.882,-1077.5 315.883,-1084.5"/>
<text text-anchor="middle" x="258.546" y="-1073" font-family="Sans" font-size="10.00">fixes</text>
</g>
<!-- configuration&#45;modules&#45;core#950 -->
<g id="node25" class="node"><title>configuration-modules-core#950</title>
<g id="a_node25"><a xlink:href="https://github.com/quattor/configuration-modules-core/issues/950" xlink:title="configuration-modules-core#950 (issue)" target="_parent">
<path fill="#6cc644" stroke="black" d="M206,-1038C206,-1038 24,-1038 24,-1038 18,-1038 12,-1032 12,-1026 12,-1026 12,-1000 12,-1000 12,-994 18,-988 24,-988 24,-988 206,-988 206,-988 212,-988 218,-994 218,-1000 218,-1000 218,-1026 218,-1026 218,-1032 212,-1038 206,-1038"/>
<text text-anchor="middle" x="115" y="-1016" font-family="Sans" font-size="10.00">ncm-spma: Remove support for</text>
<text text-anchor="middle" x="115" y="-1005" font-family="Sans" font-size="10.00">package groups from yum backends</text>
</a>
</g>
</g>
<!-- configuration&#45;modules&#45;core#951 -->
<g id="node26" class="node"><title>configuration-modules-core#951</title>
<g id="a_node26"><a xlink:href="https://github.com/quattor/configuration-modules-core/issues/951" xlink:title="configuration-modules-core#951 (issue)" target="_parent">
<path fill="#6cc644" stroke="black" d="M518,-1038C518,-1038 344,-1038 344,-1038 338,-1038 332,-1032 332,-1026 332,-1026 332,-1000 332,-1000 332,-994 338,-988 344,-988 344,-988 518,-988 518,-988 524,-988 530,-994 530,-1000 530,-1000 530,-1026 530,-1026 530,-1032 524,-1038 518,-1038"/>
<text text-anchor="middle" x="431" y="-1016" font-family="Sans" font-size="10.00">ncm-spma (yum): Remove support</text>
<text text-anchor="middle" x="431" y="-1005" font-family="Sans" font-size="10.00">for package groups</text>
</a>
</g>
</g>
<!-- configuration&#45;modules&#45;core#950&#45;&gt;configuration&#45;modules&#45;core#951 -->
<g id="edge24" class="edge"><title>configuration-modules-core#950-&gt;configuration-modules-core#951</title>
<path fill="none" stroke="black" stroke-dasharray="5,2" d="M218.381,-1013C251.386,-1013 288.071,-1013 321.502,-1013"/>
<polygon fill="none" stroke="black" points="321.765,-1016.5 331.765,-1013 321.765,-1009.5 321.765,-1016.5"/>
<text text-anchor="middle" x="255.107" y="-1005" font-family="Sans" font-size="10.00">requires</text>
</g>
<!-- configuration&#45;modules&#45;core#950&#45;&gt;configuration&#45;modules&#45;core#952 -->
<g id="edge25" class="edge"><title>configuration-modules-core#950-&gt;configuration-modules-core#952</title>
<path fill="none" stroke="black" stroke-dasharray="5,2" d="M218.381,-1035.17C249.602,-1041.93 284.116,-1049.41 316.053,-1056.32"/>
<polygon fill="none" stroke="black" points="315.361,-1059.75 325.876,-1058.45 316.843,-1052.91 315.361,-1059.75"/>
<text text-anchor="middle" x="252.372" y="-1038.86" font-family="Sans" font-size="10.00">requires</text>
</g>
<!-- template&#45;library&#45;grid#241 -->
<g id="node27" class="node"><title>template-library-grid#241</title>
<g id="a_node27"><a xlink:href="https://github.com/quattor/template-library-grid/pull/241" xlink:title="template-library-grid#241 (pull-request)" target="_parent">
<polygon fill="#6cc644" stroke="black" points="528,-492 334,-492 334,-442 528,-442 528,-492"/>
<text text-anchor="middle" x="431" y="-470" font-family="Sans" font-size="10.00">machines-types update based on</text>
<text text-anchor="middle" x="431" y="-459" font-family="Sans" font-size="10.00">new standard/machine-types/core</text>
</a>
</g>
</g>
<!-- template&#45;library&#45;standard#140 -->
<g id="node28" class="node"><title>template-library-standard#140</title>
<g id="a_node28"><a xlink:href="https://github.com/quattor/template-library-standard/pull/140" xlink:title="template-library-standard#140 (pull-request)" target="_parent">
<polygon fill="#6cc644" stroke="black" points="834,-418 652,-418 652,-368 834,-368 834,-418"/>
<text text-anchor="middle" x="743" y="-396" font-family="Sans" font-size="10.00">machine-types/core refactoring</text>
<text text-anchor="middle" x="743" y="-385" font-family="Sans" font-size="10.00">to make it more flexible</text>
</a>
</g>
</g>
<!-- template&#45;library&#45;grid#241&#45;&gt;template&#45;library&#45;standard#140 -->
<g id="edge26" class="edge"><title>template-library-grid#241-&gt;template-library-standard#140</title>
<path fill="none" stroke="black" stroke-dasharray="5,2" d="M528.387,-443.992C564.372,-435.402 605.301,-425.631 641.636,-416.958"/>
<polygon fill="none" stroke="black" points="642.84,-420.269 651.754,-414.543 641.215,-413.46 642.84,-420.269"/>
<text text-anchor="middle" x="569.849" y="-421.32" font-family="Sans" font-size="10.00">requires</text>
</g>
<!-- template&#45;library&#45;grid#232 -->
<g id="node29" class="node"><title>template-library-grid#232</title>
<g id="a_node29"><a xlink:href="https://github.com/quattor/template-library-grid/pull/232" xlink:title="template-library-grid#232 (pull-request)" target="_parent">
<polygon fill="#6cc644" stroke="black" points="198.5,-803 31.5,-803 31.5,-753 198.5,-753 198.5,-803"/>
<text text-anchor="middle" x="115" y="-781" font-family="Sans" font-size="10.00">arc-ce: Export arc-ce feature</text>
<text text-anchor="middle" x="115" y="-770" font-family="Sans" font-size="10.00">from aquilon at RAL</text>
</a>
</g>
</g>
<!-- template&#45;library&#45;grid#221 -->
<g id="node30" class="node"><title>template-library-grid#221</title>
<g id="a_node30"><a xlink:href="https://github.com/quattor/template-library-grid/issues/221" xlink:title="template-library-grid#221 (issue)" target="_parent">
<path fill="#6cc644" stroke="black" d="M508,-803C508,-803 354,-803 354,-803 348,-803 342,-797 342,-791 342,-791 342,-765 342,-765 342,-759 348,-753 354,-753 354,-753 508,-753 508,-753 514,-753 520,-759 520,-765 520,-765 520,-791 520,-791 520,-797 514,-803 508,-803"/>
<text text-anchor="middle" x="431" y="-781" font-family="Sans" font-size="10.00">Support for new CE types (ARC</text>
<text text-anchor="middle" x="431" y="-770" font-family="Sans" font-size="10.00">CE, HTCONDOR CE)</text>
</a>
</g>
</g>
<!-- template&#45;library&#45;grid#232&#45;&gt;template&#45;library&#45;grid#221 -->
<g id="edge27" class="edge"><title>template-library-grid#232-&gt;template-library-grid#221</title>
<path fill="none" stroke="black" stroke-width="2" d="M198.911,-778C239.702,-778 289.151,-778 331.823,-778"/>
<polygon fill="black" stroke="black" points="331.947,-781.5 341.947,-778 331.947,-774.5 331.947,-781.5"/>
<text text-anchor="middle" x="258.543" y="-770" font-family="Sans" font-size="10.00">fixes</text>
</g>
<!-- aquilon#115 -->
<g id="node31" class="node"><title>aquilon#115</title>
<g id="a_node31"><a xlink:href="https://github.com/quattor/aquilon/pull/115" xlink:title="aquilon#115 (pull-request)" target="_parent">
<polygon fill="#6cc644" stroke="black" points="198,-1378 32,-1378 32,-1328 198,-1328 198,-1378"/>
<text text-anchor="middle" x="115" y="-1356" font-family="Sans" font-size="10.00">services: insert service data</text>
<text text-anchor="middle" x="115" y="-1345" font-family="Sans" font-size="10.00">early in the object template</text>
</a>
</g>
</g>
<!-- aquilon#109 -->
<g id="node32" class="node"><title>aquilon#109</title>
<g id="a_node32"><a xlink:href="https://github.com/quattor/aquilon/issues/109" xlink:title="aquilon#109 (issue)" target="_parent">
<path fill="#6cc644" stroke="black" d="M507,-1377.5C507,-1377.5 355,-1377.5 355,-1377.5 349,-1377.5 343,-1371.5 343,-1365.5 343,-1365.5 343,-1328.5 343,-1328.5 343,-1322.5 349,-1316.5 355,-1316.5 355,-1316.5 507,-1316.5 507,-1316.5 513,-1316.5 519,-1322.5 519,-1328.5 519,-1328.5 519,-1365.5 519,-1365.5 519,-1371.5 513,-1377.5 507,-1377.5"/>
<text text-anchor="middle" x="431" y="-1355.5" font-family="Sans" font-size="10.00">Why service configuration is</text>
<text text-anchor="middle" x="431" y="-1344.5" font-family="Sans" font-size="10.00">included so late in the plenary</text>
<text text-anchor="middle" x="431" y="-1333.5" font-family="Sans" font-size="10.00">object?</text>
</a>
</g>
</g>
<!-- aquilon#115&#45;&gt;aquilon#109 -->
<g id="edge28" class="edge"><title>aquilon#115-&gt;aquilon#109</title>
<path fill="none" stroke="black" stroke-width="2" d="M198.09,-1351.43C239.304,-1350.64 289.515,-1349.68 332.663,-1348.86"/>
<polygon fill="black" stroke="black" points="332.965,-1352.35 342.896,-1348.66 332.831,-1345.36 332.965,-1352.35"/>
<text text-anchor="middle" x="258.61" y="-1342.05" font-family="Sans" font-size="10.00">fixes</text>
</g>
<!-- aquilon#110 -->
<g id="node33" class="node"><title>aquilon#110</title>
<g id="a_node33"><a xlink:href="https://github.com/quattor/aquilon/pull/110" xlink:title="aquilon#110 (pull-request)" target="_parent">
<polygon fill="#6cc644" stroke="black" points="213.5,-1310 16.5,-1310 16.5,-1260 213.5,-1260 213.5,-1310"/>
<text text-anchor="middle" x="115" y="-1288" font-family="Sans" font-size="10.00">Change site and machine</text>
<text text-anchor="middle" x="115" y="-1277" font-family="Sans" font-size="10.00">namespace to use continent name</text>
</a>
</g>
</g>
<!-- aquilon#104 -->
<g id="node34" class="node"><title>aquilon#104</title>
<g id="a_node34"><a xlink:href="https://github.com/quattor/aquilon/issues/104" xlink:title="aquilon#104 (issue)" target="_parent">
<path fill="#6cc644" stroke="black" d="M496.5,-1276C496.5,-1276 365.5,-1276 365.5,-1276 359.5,-1276 353.5,-1270 353.5,-1264 353.5,-1264 353.5,-1238 353.5,-1238 353.5,-1232 359.5,-1226 365.5,-1226 365.5,-1226 496.5,-1226 496.5,-1226 502.5,-1226 508.5,-1232 508.5,-1238 508.5,-1238 508.5,-1264 508.5,-1264 508.5,-1270 502.5,-1276 496.5,-1276"/>
<text text-anchor="middle" x="431" y="-1254" font-family="Sans" font-size="10.00">1.12.62: location related</text>
<text text-anchor="middle" x="431" y="-1243" font-family="Sans" font-size="10.00">templates cannot be used</text>
</a>
</g>
</g>
<!-- aquilon#110&#45;&gt;aquilon#104 -->
<g id="edge29" class="edge"><title>aquilon#110-&gt;aquilon#104</title>
<path fill="none" stroke="black" stroke-width="2" d="M213.63,-1274.43C255.122,-1269.94 303.101,-1264.74 343.32,-1260.39"/>
<polygon fill="black" stroke="black" points="343.804,-1263.85 353.369,-1259.3 343.05,-1256.89 343.804,-1263.85"/>
<text text-anchor="middle" x="271.634" y="-1258.85" font-family="Sans" font-size="10.00">fixes</text>
</g>
<!-- aquilon#91 -->
<g id="node35" class="node"><title>aquilon#91</title>
<g id="a_node35"><a xlink:href="https://github.com/quattor/aquilon/issues/91" xlink:title="aquilon#91 (issue)" target="_parent">
<path fill="#6cc644" stroke="black" d="M190.5,-1242C190.5,-1242 39.5,-1242 39.5,-1242 33.5,-1242 27.5,-1236 27.5,-1230 27.5,-1230 27.5,-1204 27.5,-1204 27.5,-1198 33.5,-1192 39.5,-1192 39.5,-1192 190.5,-1192 190.5,-1192 196.5,-1192 202.5,-1198 202.5,-1204 202.5,-1204 202.5,-1230 202.5,-1230 202.5,-1236 196.5,-1242 190.5,-1242"/>
<text text-anchor="middle" x="115" y="-1220" font-family="Sans" font-size="10.00">1.12.58: city timezone is not</text>
<text text-anchor="middle" x="115" y="-1209" font-family="Sans" font-size="10.00">passed to the object template</text>
</a>
</g>
</g>
<!-- aquilon#91&#45;&gt;aquilon#104 -->
<g id="edge30" class="edge"><title>aquilon#91-&gt;aquilon#104</title>
<path fill="none" stroke="black" stroke-dasharray="5,2" d="M202.633,-1226.38C246.42,-1231.12 299.413,-1236.86 343.22,-1241.6"/>
<polygon fill="none" stroke="black" points="342.962,-1245.1 353.281,-1242.69 343.716,-1238.14 342.962,-1245.1"/>
<text text-anchor="middle" x="258.022" y="-1226.54" font-family="Sans" font-size="10.00">requires</text>
</g>
<!-- aquilon#89 -->
<g id="node36" class="node"><title>aquilon#89</title>
<g id="a_node36"><a xlink:href="https://github.com/quattor/aquilon/pull/89" xlink:title="aquilon#89 (pull-request)" target="_parent">
<polygon fill="#6cc644" stroke="black" points="201.5,-1174 28.5,-1174 28.5,-1124 201.5,-1124 201.5,-1174"/>
<text text-anchor="middle" x="115" y="-1152" font-family="Sans" font-size="10.00">Broker: pass archetype to the</text>
<text text-anchor="middle" x="115" y="-1141" font-family="Sans" font-size="10.00">object profile</text>
</a>
</g>
</g>
<!-- aquilon#88 -->
<g id="node37" class="node"><title>aquilon#88</title>
<g id="a_node37"><a xlink:href="https://github.com/quattor/aquilon/issues/88" xlink:title="aquilon#88 (issue)" target="_parent">
<path fill="#6cc644" stroke="black" d="M510,-1185.5C510,-1185.5 352,-1185.5 352,-1185.5 346,-1185.5 340,-1179.5 340,-1173.5 340,-1173.5 340,-1136.5 340,-1136.5 340,-1130.5 346,-1124.5 352,-1124.5 352,-1124.5 510,-1124.5 510,-1124.5 516,-1124.5 522,-1130.5 522,-1136.5 522,-1136.5 522,-1173.5 522,-1173.5 522,-1179.5 516,-1185.5 510,-1185.5"/>
<text text-anchor="middle" x="431" y="-1163.5" font-family="Sans" font-size="10.00">1.12.58: the broker should pass</text>
<text text-anchor="middle" x="431" y="-1152.5" font-family="Sans" font-size="10.00">the archetype to the object</text>
<text text-anchor="middle" x="431" y="-1141.5" font-family="Sans" font-size="10.00">template</text>
</a>
</g>
</g>
<!-- aquilon#89&#45;&gt;aquilon#88 -->
<g id="edge31" class="edge"><title>aquilon#89-&gt;aquilon#88</title>
<path fill="none" stroke="black" stroke-width="2" d="M201.802,-1150.64C241.391,-1151.4 288.643,-1152.3 329.852,-1153.09"/>
<polygon fill="black" stroke="black" points="329.85,-1156.59 339.915,-1153.28 329.984,-1149.59 329.85,-1156.59"/>
<text text-anchor="middle" x="258.872" y="-1143.96" font-family="Sans" font-size="10.00">fixes</text>
</g>
</g>
</svg>
