<?xml version="1.0" encoding="UTF-8" standalone="no"?>
<?xml-stylesheet href="relationships.css" type="text/css"?>
<!-- Generated by graphviz version 2.30.1 (20200930.0103)
 -->
<!-- Title: Dependencies Pages: 1 -->
<svg xmlns="http://www.w3.org/2000/svg" xmlns:xlink="http://www.w3.org/1999/xlink" width="838pt" height="1127pt" viewBox="0.00 0.00 838.00 1127.00">
<g id="graph0" class="graph" transform="scale(1 1) rotate(0) translate(4 1123)">
<title>Dependencies</title>
<polygon fill="white" stroke="white" points="-4,5 -4,-1123 835,-1123 835,5 -4,5"/>
<g id="clust2" class="cluster"><title>cluster_milestone_23.10</title>
<polygon fill="none" stroke="black" points="8,-576 8,-1003 528,-1003 528,-576 8,-576"/>
<text text-anchor="middle" x="268" y="-989.4" font-family="Sans" font-size="12.00">23.10</text>
</g>
<g id="clust1" class="cluster"><title>cluster_milestone_23.next</title>
<polygon fill="none" stroke="black" points="321,-47 321,-338 822,-338 822,-47 321,-47"/>
<text text-anchor="middle" x="571.5" y="-324.4" font-family="Sans" font-size="12.00">23.next</text>
</g>
<!-- aii#328 -->
<g id="node1" class="node"><title>aii#328</title>
<g id="a_node1"><a xlink:href="https://github.com/quattor/aii/pull/328" xlink:title="aii#328 (pull-request)" target="_parent">
<polygon fill="#6cc644" stroke="black" points="513,-105 331,-105 331,-55 513,-55 513,-105"/>
<text text-anchor="middle" x="422" y="-83" font-family="Sans" font-size="10.00">aii-ks: generate ks post section</text>
<text text-anchor="middle" x="422" y="-72" font-family="Sans" font-size="10.00">as standalone script</text>
</a>
</g>
</g>
<!-- aii#280 -->
<g id="node2" class="node"><title>aii#280</title>
<polygon fill="lightgrey" stroke="black" points="754.5,-387.5 687.5,-387.5 687.5,-348.5 754.5,-348.5 754.5,-387.5"/>
<text text-anchor="middle" x="721" y="-365.5" font-family="Sans" font-size="10.00">aii#280</text>
</g>
<!-- aii#328&#45;&gt;aii#280 -->
<g id="edge1" class="edge"><title>aii#328-&gt;aii#280</title>
<path fill="none" stroke="black" stroke-dasharray="5,2" d="M513.044,-103.092C518.402,-106.271 523.453,-109.887 528,-114 610.062,-188.227 544.553,-269.334 628,-342 641.579,-353.825 660.171,-360.297 677.088,-363.829"/>
<polygon fill="none" stroke="black" points="676.884,-367.348 687.345,-365.67 678.121,-360.458 676.884,-367.348"/>
<text text-anchor="middle" x="558.405" y="-228.732" font-family="Sans" font-size="10.00">requires</text>
</g>
<!-- aii#316 -->
<g id="node3" class="node"><title>aii#316</title>
<polygon fill="lightgrey" stroke="black" points="754.5,-38.5 687.5,-38.5 687.5,0.5 754.5,0.5 754.5,-38.5"/>
<text text-anchor="middle" x="721" y="-16.5" font-family="Sans" font-size="10.00">aii#316</text>
</g>
<!-- aii#328&#45;&gt;aii#316 -->
<g id="edge2" class="edge"><title>aii#328-&gt;aii#316</title>
<path fill="none" stroke="black" stroke-dasharray="5,2" d="M513.319,-61.4495C567.713,-50.2778 634.477,-36.5654 677.132,-27.8046"/>
<polygon fill="none" stroke="black" points="678.079,-31.1831 687.171,-25.7427 676.671,-24.3262 678.079,-31.1831"/>
<text text-anchor="middle" x="580.303" y="-35.5843" font-family="Sans" font-size="10.00">requires</text>
</g>
<!-- aii#331 -->
<g id="node4" class="node"><title>aii#331</title>
<g id="a_node4"><a xlink:href="https://github.com/quattor/aii/pull/331" xlink:title="aii#331 (pull-request)" target="_parent">
<polygon fill="#6cc644" stroke="black" points="187,-110.5 45,-110.5 45,-49.5 187,-49.5 187,-110.5"/>
<text text-anchor="middle" x="116" y="-88.5" font-family="Sans" font-size="10.00">let aii generate ansible</text>
<text text-anchor="middle" x="116" y="-77.5" font-family="Sans" font-size="10.00">playbook for supported</text>
<text text-anchor="middle" x="116" y="-66.5" font-family="Sans" font-size="10.00">components</text>
</a>
</g>
</g>
<!-- aii#331&#45;&gt;aii#328 -->
<g id="edge3" class="edge"><title>aii#331-&gt;aii#328</title>
<path fill="none" stroke="black" stroke-dasharray="5,2" d="M187.125,-80C226.737,-80 276.923,-80 320.641,-80"/>
<polygon fill="none" stroke="black" points="320.731,-83.5001 330.731,-80 320.731,-76.5001 320.731,-83.5001"/>
<text text-anchor="middle" x="238.814" y="-72" font-family="Sans" font-size="10.00">requires</text>
</g>
<!-- aii#299 -->
<g id="node5" class="node"><title>aii#299</title>
<g id="a_node5"><a xlink:href="https://github.com/quattor/aii/pull/299" xlink:title="aii#299 (pull-request)" target="_parent">
<polygon fill="#6cc644" stroke="black" points="498.5,-396 345.5,-396 345.5,-346 498.5,-346 498.5,-396"/>
<text text-anchor="middle" x="422" y="-374" font-family="Sans" font-size="10.00">aii-dhcp: support optional</text>
<text text-anchor="middle" x="422" y="-363" font-family="Sans" font-size="10.00">hostname ip verification</text>
</a>
</g>
</g>
<!-- aii#299&#45;&gt;aii#280 -->
<g id="edge4" class="edge"><title>aii#299-&gt;aii#280</title>
<path fill="none" stroke="black" stroke-dasharray="5,2" d="M498.714,-370.235C555.276,-369.664 630.554,-368.903 677.117,-368.433"/>
<polygon fill="none" stroke="black" points="677.204,-371.933 687.168,-368.332 677.133,-364.933 677.204,-371.933"/>
<text text-anchor="middle" x="572.779" y="-361.285" font-family="Sans" font-size="10.00">requires</text>
</g>
<!-- CAF#277 -->
<g id="node6" class="node"><title>CAF#277</title>
<g id="a_node6"><a xlink:href="https://github.com/quattor/CAF/pull/277" xlink:title="CAF#277 (pull-request)" target="_parent">
<polygon fill="#6cc644" stroke="black" points="514.5,-309 329.5,-309 329.5,-259 514.5,-259 514.5,-309"/>
<text text-anchor="middle" x="422" y="-287" font-family="Sans" font-size="10.00">Replace four instances of while-</text>
<text text-anchor="middle" x="422" y="-276" font-family="Sans" font-size="10.00">each with foreach</text>
</a>
</g>
</g>
<!-- CAF#109 -->
<g id="node7" class="node"><title>CAF#109</title>
<g id="a_node7"><a xlink:href="https://github.com/quattor/CAF/issues/109" xlink:title="CAF#109 (issue)" target="_parent">
<path fill="#6cc644" stroke="black" d="M790.5,-309C790.5,-309 651.5,-309 651.5,-309 645.5,-309 639.5,-303 639.5,-297 639.5,-297 639.5,-271 639.5,-271 639.5,-265 645.5,-259 651.5,-259 651.5,-259 790.5,-259 790.5,-259 796.5,-259 802.5,-265 802.5,-271 802.5,-271 802.5,-297 802.5,-297 802.5,-303 796.5,-309 790.5,-309"/>
<text text-anchor="middle" x="721" y="-287" font-family="Sans" font-size="10.00">review the current usage of</text>
<text text-anchor="middle" x="721" y="-276" font-family="Sans" font-size="10.00">`each`</text>
</a>
</g>
</g>
<!-- CAF#277&#45;&gt;CAF#109 -->
<g id="edge5" class="edge"><title>CAF#277-&gt;CAF#109</title>
<path fill="none" stroke="black" stroke-width="2" d="M514.533,-284C550.989,-284 592.843,-284 629.224,-284"/>
<polygon fill="black" stroke="black" points="629.331,-287.5 639.331,-284 629.331,-280.5 629.331,-287.5"/>
<text text-anchor="middle" x="564.951" y="-276" font-family="Sans" font-size="10.00">fixes</text>
</g>
<!-- CAF#257 -->
<g id="node8" class="node"><title>CAF#257</title>
<g id="a_node8"><a xlink:href="https://github.com/quattor/CAF/pull/257" xlink:title="CAF#257 (pull-request)" target="_parent">
<polygon fill="#6cc644" stroke="black" points="513.5,-241 330.5,-241 330.5,-191 513.5,-191 513.5,-241"/>
<text text-anchor="middle" x="422" y="-219" font-family="Sans" font-size="10.00">Process: run process as another</text>
<text text-anchor="middle" x="422" y="-208" font-family="Sans" font-size="10.00">user</text>
</a>
</g>
</g>
<!-- CAF#253 -->
<g id="node9" class="node"><title>CAF#253</title>
<g id="a_node9"><a xlink:href="https://github.com/quattor/CAF/issues/253" xlink:title="CAF#253 (issue)" target="_parent">
<path fill="#6cc644" stroke="black" d="M799,-240.5C799,-240.5 643,-240.5 643,-240.5 637,-240.5 631,-234.5 631,-228.5 631,-228.5 631,-191.5 631,-191.5 631,-185.5 637,-179.5 643,-179.5 643,-179.5 799,-179.5 799,-179.5 805,-179.5 811,-185.5 811,-191.5 811,-191.5 811,-228.5 811,-228.5 811,-234.5 805,-240.5 799,-240.5"/>
<text text-anchor="middle" x="721" y="-218.5" font-family="Sans" font-size="10.00">CAF::Process: Include an option</text>
<text text-anchor="middle" x="721" y="-207.5" font-family="Sans" font-size="10.00">to execute the command as an</text>
<text text-anchor="middle" x="721" y="-196.5" font-family="Sans" font-size="10.00">specific user</text>
</a>
</g>
</g>
<!-- CAF#257&#45;&gt;CAF#253 -->
<g id="edge6" class="edge"><title>CAF#257-&gt;CAF#253</title>
<path fill="none" stroke="black" stroke-width="2" d="M513.724,-214.167C547.571,-213.483 586.163,-212.704 620.739,-212.005"/>
<polygon fill="black" stroke="black" points="620.925,-215.502 630.852,-211.801 620.784,-208.504 620.925,-215.502"/>
<text text-anchor="middle" x="560.505" y="-204.98" font-family="Sans" font-size="10.00">fixes</text>
</g>
<!-- CAF#110 -->
<g id="node10" class="node"><title>CAF#110</title>
<g id="a_node10"><a xlink:href="https://github.com/quattor/CAF/pull/110" xlink:title="CAF#110 (pull-request)" target="_parent">
<polygon fill="#6cc644" stroke="black" points="191.5,-459 40.5,-459 40.5,-409 191.5,-409 191.5,-459"/>
<text text-anchor="middle" x="116" y="-437" font-family="Sans" font-size="10.00">CAF::Download class: API</text>
<text text-anchor="middle" x="116" y="-426" font-family="Sans" font-size="10.00">proposal</text>
</a>
</g>
</g>
<!-- CAF#120 -->
<g id="node11" class="node"><title>CAF#120</title>
<polygon fill="lightgrey" stroke="black" points="459,-453.5 385,-453.5 385,-414.5 459,-414.5 459,-453.5"/>
<text text-anchor="middle" x="422" y="-431.5" font-family="Sans" font-size="10.00">CAF#120</text>
</g>
<!-- CAF#110&#45;&gt;CAF#120 -->
<g id="edge7" class="edge"><title>CAF#110-&gt;CAF#120</title>
<path fill="none" stroke="black" stroke-dasharray="5,2" d="M191.756,-434C248.917,-434 325.929,-434 374.526,-434"/>
<polygon fill="none" stroke="black" points="374.746,-437.5 384.746,-434 374.746,-430.5 374.746,-437.5"/>
<text text-anchor="middle" x="268.254" y="-426" font-family="Sans" font-size="10.00">requires</text>
</g>
<!-- CCM#210 -->
<g id="node12" class="node"><title>CCM#210</title>
<g id="a_node12"><a xlink:href="https://github.com/quattor/CCM/pull/210" xlink:title="CCM#210 (pull-request)" target="_parent">
<polygon fill="#6e5494" stroke="black" points="194,-974 38,-974 38,-924 194,-924 194,-974"/>
<text text-anchor="middle" x="116" y="-952" font-family="Sans" font-size="10.00">Fetch: Remove suffix from</text>
<text text-anchor="middle" x="116" y="-941" font-family="Sans" font-size="10.00">downloaded profile</text>
</a>
</g>
</g>
<!-- CCM#204 -->
<g id="node13" class="node"><title>CCM#204</title>
<g id="a_node13"><a xlink:href="https://github.com/quattor/CCM/issues/204" xlink:title="CCM#204 (issue)" target="_parent">
<path fill="#6e5494" stroke="black" d="M501.5,-973.5C501.5,-973.5 342.5,-973.5 342.5,-973.5 336.5,-973.5 330.5,-967.5 330.5,-961.5 330.5,-961.5 330.5,-924.5 330.5,-924.5 330.5,-918.5 336.5,-912.5 342.5,-912.5 342.5,-912.5 501.5,-912.5 501.5,-912.5 507.5,-912.5 513.5,-918.5 513.5,-924.5 513.5,-924.5 513.5,-961.5 513.5,-961.5 513.5,-967.5 507.5,-973.5 501.5,-973.5"/>
<text text-anchor="middle" x="422" y="-951.5" font-family="Sans" font-size="10.00">Cached profiles always have an</text>
<text text-anchor="middle" x="422" y="-940.5" font-family="Sans" font-size="10.00">xml extension regardless of</text>
<text text-anchor="middle" x="422" y="-929.5" font-family="Sans" font-size="10.00">their content</text>
</a>
</g>
</g>
<!-- CCM#210&#45;&gt;CCM#204 -->
<g id="edge8" class="edge"><title>CCM#210-&gt;CCM#204</title>
<path fill="none" stroke="black" stroke-width="2" d="M194.105,-947.478C232.456,-946.721 279.288,-945.797 320.424,-944.985"/>
<polygon fill="black" stroke="black" points="320.546,-948.483 330.475,-944.787 320.408,-941.485 320.546,-948.483"/>
<text text-anchor="middle" x="250.315" y="-938.132" font-family="Sans" font-size="10.00">fixes</text>
</g>
<!-- configuration&#45;modules&#45;core#1630 -->
<g id="node14" class="node"><title>configuration-modules-core#1630</title>
<g id="a_node14"><a xlink:href="https://github.com/quattor/configuration-modules-core/pull/1630" xlink:title="configuration-modules-core#1630 (pull-request)" target="_parent">
<polygon fill="#6e5494" stroke="black" points="215.5,-906 16.5,-906 16.5,-856 215.5,-856 215.5,-906"/>
<text text-anchor="middle" x="116" y="-884" font-family="Sans" font-size="10.00">ncm-network: fix nmstate package</text>
<text text-anchor="middle" x="116" y="-873" font-family="Sans" font-size="10.00">definition in Kickstart config</text>
</a>
</g>
</g>
<!-- configuration&#45;modules&#45;core#1629 -->
<g id="node15" class="node"><title>configuration-modules-core#1629</title>
<g id="a_node15"><a xlink:href="https://github.com/quattor/configuration-modules-core/issues/1629" xlink:title="configuration-modules-core#1629 (issue)" target="_parent">
<path fill="#6e5494" stroke="black" d="M498.5,-894.5C498.5,-894.5 345.5,-894.5 345.5,-894.5 339.5,-894.5 333.5,-888.5 333.5,-882.5 333.5,-882.5 333.5,-845.5 333.5,-845.5 333.5,-839.5 339.5,-833.5 345.5,-833.5 345.5,-833.5 498.5,-833.5 498.5,-833.5 504.5,-833.5 510.5,-839.5 510.5,-845.5 510.5,-845.5 510.5,-882.5 510.5,-882.5 510.5,-888.5 504.5,-894.5 498.5,-894.5"/>
<text text-anchor="middle" x="422" y="-872.5" font-family="Sans" font-size="10.00">ncm-network nmstate: invalid</text>
<text text-anchor="middle" x="422" y="-861.5" font-family="Sans" font-size="10.00">package definition in Kickstart</text>
<text text-anchor="middle" x="422" y="-850.5" font-family="Sans" font-size="10.00">configuration</text>
</a>
</g>
</g>
<!-- configuration&#45;modules&#45;core#1630&#45;&gt;configuration&#45;modules&#45;core#1629 -->
<g id="edge9" class="edge"><title>configuration-modules-core#1630-&gt;configuration-modules-core#1629</title>
<path fill="none" stroke="black" stroke-width="2" d="M215.7,-862.747C250.178,-859.788 288.846,-857.635 323.246,-856.762"/>
<polygon fill="black" stroke="black" points="323.38,-860.26 333.301,-856.541 323.226,-853.261 323.38,-860.26"/>
<text text-anchor="middle" x="262.213" y="-850.716" font-family="Sans" font-size="10.00">fixes</text>
</g>
<!-- configuration&#45;modules&#45;core#1630&#45;&gt;configuration&#45;modules&#45;core#1629 -->
<g id="edge13" class="edge"><title>configuration-modules-core#1630-&gt;configuration-modules-core#1629</title>
<path fill="none" stroke="black" stroke-width="2" d="M215.7,-875.481C250.178,-873.553 288.846,-871.39 323.246,-869.466"/>
<polygon fill="black" stroke="black" points="323.512,-872.957 333.301,-868.904 323.121,-865.968 323.512,-872.957"/>
<text text-anchor="middle" x="262.641" y="-864.185" font-family="Sans" font-size="10.00">fixes</text>
</g>
<!-- configuration&#45;modules&#45;core#1630&#45;&gt;configuration&#45;modules&#45;core#1629 -->
<g id="edge20" class="edge"><title>configuration-modules-core#1630-&gt;configuration-modules-core#1629</title>
<path fill="none" stroke="black" stroke-width="2" d="M215.7,-888.214C250.178,-887.317 288.846,-885.146 323.246,-882.171"/>
<polygon fill="black" stroke="black" points="323.654,-885.649 333.301,-881.268 323.028,-878.677 323.654,-885.649"/>
<text text-anchor="middle" x="262.641" y="-877.676" font-family="Sans" font-size="10.00">fixes</text>
</g>
<!-- configuration&#45;modules&#45;core#1622 -->
<g id="node16" class="node"><title>configuration-modules-core#1622</title>
<g id="a_node16"><a xlink:href="https://github.com/quattor/configuration-modules-core/pull/1622" xlink:title="configuration-modules-core#1622 (pull-request)" target="_parent">
<polygon fill="#6e5494" stroke="black" points="204.5,-838 27.5,-838 27.5,-788 204.5,-788 204.5,-838"/>
<text text-anchor="middle" x="116" y="-816" font-family="Sans" font-size="10.00">ncm-authconfig: sssd: Schema</text>
<text text-anchor="middle" x="116" y="-805" font-family="Sans" font-size="10.00">improvements</text>
</a>
</g>
</g>
<!-- configuration&#45;modules&#45;core#1471 -->
<g id="node17" class="node"><title>configuration-modules-core#1471</title>
<g id="a_node17"><a xlink:href="https://github.com/quattor/configuration-modules-core/issues/1471" xlink:title="configuration-modules-core#1471 (issue)" target="_parent">
<path fill="#6e5494" stroke="black" d="M496.5,-815C496.5,-815 347.5,-815 347.5,-815 341.5,-815 335.5,-809 335.5,-803 335.5,-803 335.5,-777 335.5,-777 335.5,-771 341.5,-765 347.5,-765 347.5,-765 496.5,-765 496.5,-765 502.5,-765 508.5,-771 508.5,-777 508.5,-777 508.5,-803 508.5,-803 508.5,-809 502.5,-815 496.5,-815"/>
<text text-anchor="middle" x="422" y="-793" font-family="Sans" font-size="10.00">ncm-authconfig: sssd: tighten</text>
<text text-anchor="middle" x="422" y="-782" font-family="Sans" font-size="10.00">types</text>
</a>
</g>
</g>
<!-- configuration&#45;modules&#45;core#1622&#45;&gt;configuration&#45;modules&#45;core#1471 -->
<g id="edge10" class="edge"><title>configuration-modules-core#1622-&gt;configuration-modules-core#1471</title>
<path fill="none" stroke="black" stroke-width="2" d="M204.522,-794.022C242.28,-789.743 286.555,-786.298 325.192,-784.604"/>
<polygon fill="black" stroke="black" points="325.555,-788.093 335.406,-784.193 325.273,-781.098 325.555,-788.093"/>
<text text-anchor="middle" x="257.844" y="-779.936" font-family="Sans" font-size="10.00">fixes</text>
</g>
<!-- configuration&#45;modules&#45;core#1622&#45;&gt;configuration&#45;modules&#45;core#1471 -->
<g id="edge14" class="edge"><title>configuration-modules-core#1622-&gt;configuration-modules-core#1471</title>
<path fill="none" stroke="black" stroke-width="2" d="M204.522,-806.378C242.28,-803.522 286.555,-800.172 325.192,-797.249"/>
<polygon fill="black" stroke="black" points="325.699,-800.72 335.406,-796.476 325.17,-793.74 325.699,-800.72"/>
<text text-anchor="middle" x="257.844" y="-793.436" font-family="Sans" font-size="10.00">fixes</text>
</g>
<!-- configuration&#45;modules&#45;core#1622&#45;&gt;configuration&#45;modules&#45;core#1471 -->
<g id="edge21" class="edge"><title>configuration-modules-core#1622-&gt;configuration-modules-core#1471</title>
<path fill="none" stroke="black" stroke-width="2" d="M204.522,-818.735C242.28,-817.3 286.555,-814.046 325.192,-809.893"/>
<polygon fill="black" stroke="black" points="325.853,-813.341 335.406,-808.759 325.081,-806.384 325.853,-813.341"/>
<text text-anchor="middle" x="257.844" y="-806.936" font-family="Sans" font-size="10.00">fixes</text>
</g>
<!-- configuration&#45;modules&#45;core#1621 -->
<g id="node18" class="node"><title>configuration-modules-core#1621</title>
<g id="a_node18"><a xlink:href="https://github.com/quattor/configuration-modules-core/pull/1621" xlink:title="configuration-modules-core#1621 (pull-request)" target="_parent">
<polygon fill="#6e5494" stroke="black" points="211.5,-770 20.5,-770 20.5,-720 211.5,-720 211.5,-770"/>
<text text-anchor="middle" x="116" y="-748" font-family="Sans" font-size="10.00">ncm-nfs: Allow daemon to reload</text>
<text text-anchor="middle" x="116" y="-737" font-family="Sans" font-size="10.00">to be specified</text>
</a>
</g>
</g>
<!-- configuration&#45;modules&#45;core#1618 -->
<g id="node19" class="node"><title>configuration-modules-core#1618</title>
<g id="a_node19"><a xlink:href="https://github.com/quattor/configuration-modules-core/issues/1618" xlink:title="configuration-modules-core#1618 (issue)" target="_parent">
<path fill="#6e5494" stroke="black" d="M488.5,-747C488.5,-747 355.5,-747 355.5,-747 349.5,-747 343.5,-741 343.5,-735 343.5,-735 343.5,-709 343.5,-709 343.5,-703 349.5,-697 355.5,-697 355.5,-697 488.5,-697 488.5,-697 494.5,-697 500.5,-703 500.5,-709 500.5,-709 500.5,-735 500.5,-735 500.5,-741 494.5,-747 488.5,-747"/>
<text text-anchor="middle" x="422" y="-725" font-family="Sans" font-size="10.00">ncm-nfs: start service nfs-</text>
<text text-anchor="middle" x="422" y="-714" font-family="Sans" font-size="10.00">server instead of nfs</text>
</a>
</g>
</g>
<!-- configuration&#45;modules&#45;core#1621&#45;&gt;configuration&#45;modules&#45;core#1618 -->
<g id="edge11" class="edge"><title>configuration-modules-core#1621-&gt;configuration-modules-core#1618</title>
<path fill="none" stroke="black" stroke-width="2" d="M211.521,-725.246C250.401,-721.033 295.165,-717.726 333.305,-716.272"/>
<polygon fill="black" stroke="black" points="333.489,-719.767 343.363,-715.927 333.249,-712.772 333.489,-719.767"/>
<text text-anchor="middle" x="265.567" y="-711.371" font-family="Sans" font-size="10.00">fixes</text>
</g>
<!-- configuration&#45;modules&#45;core#1621&#45;&gt;configuration&#45;modules&#45;core#1618 -->
<g id="edge15" class="edge"><title>configuration-modules-core#1621-&gt;configuration-modules-core#1618</title>
<path fill="none" stroke="black" stroke-width="2" d="M211.521,-737.849C250.401,-734.907 295.165,-731.52 333.305,-728.635"/>
<polygon fill="black" stroke="black" points="333.655,-732.118 343.363,-727.874 333.127,-725.138 333.655,-732.118"/>
<text text-anchor="middle" x="265.567" y="-724.852" font-family="Sans" font-size="10.00">fixes</text>
</g>
<!-- configuration&#45;modules&#45;core#1621&#45;&gt;configuration&#45;modules&#45;core#1618 -->
<g id="edge22" class="edge"><title>configuration-modules-core#1621-&gt;configuration-modules-core#1618</title>
<path fill="none" stroke="black" stroke-width="2" d="M211.521,-750.451C250.401,-748.781 295.165,-745.315 333.305,-740.998"/>
<polygon fill="black" stroke="black" points="333.838,-744.46 343.363,-739.821 333.024,-737.507 333.838,-744.46"/>
<text text-anchor="middle" x="265.567" y="-738.333" font-family="Sans" font-size="10.00">fixes</text>
</g>
<!-- configuration&#45;modules&#45;core#1620 -->
<g id="node20" class="node"><title>configuration-modules-core#1620</title>
<g id="a_node20"><a xlink:href="https://github.com/quattor/configuration-modules-core/pull/1620" xlink:title="configuration-modules-core#1620 (pull-request)" target="_parent">
<polygon fill="#6e5494" stroke="black" points="215,-702 17,-702 17,-652 215,-652 215,-702"/>
<text text-anchor="middle" x="116" y="-680" font-family="Sans" font-size="10.00">ncm-spma: yumdnf: Don't attempt</text>
<text text-anchor="middle" x="116" y="-669" font-family="Sans" font-size="10.00">to expand groups with repoquery</text>
</a>
</g>
</g>
<!-- configuration&#45;modules&#45;core#1524 -->
<g id="node21" class="node"><title>configuration-modules-core#1524</title>
<g id="a_node21"><a xlink:href="https://github.com/quattor/configuration-modules-core/issues/1524" xlink:title="configuration-modules-core#1524 (issue)" target="_parent">
<path fill="#6e5494" stroke="black" d="M507.5,-679C507.5,-679 336.5,-679 336.5,-679 330.5,-679 324.5,-673 324.5,-667 324.5,-667 324.5,-641 324.5,-641 324.5,-635 330.5,-629 336.5,-629 336.5,-629 507.5,-629 507.5,-629 513.5,-629 519.5,-635 519.5,-641 519.5,-641 519.5,-667 519.5,-667 519.5,-673 513.5,-679 507.5,-679"/>
<text text-anchor="middle" x="422" y="-657" font-family="Sans" font-size="10.00">ncm-spma: yumdnf backend: fails</text>
<text text-anchor="middle" x="422" y="-646" font-family="Sans" font-size="10.00">while trying to expand groups</text>
</a>
</g>
</g>
<!-- configuration&#45;modules&#45;core#1620&#45;&gt;configuration&#45;modules&#45;core#1524 -->
<g id="edge12" class="edge"><title>configuration-modules-core#1620-&gt;configuration-modules-core#1524</title>
<path fill="none" stroke="black" stroke-width="2" d="M215.28,-656.843C246.821,-653.505 281.904,-650.771 314.036,-649.134"/>
<polygon fill="black" stroke="black" points="314.534,-652.614 324.356,-648.641 314.201,-645.622 314.534,-652.614"/>
<text text-anchor="middle" x="257.928" y="-643.93" font-family="Sans" font-size="10.00">fixes</text>
</g>
<!-- configuration&#45;modules&#45;core#1620&#45;&gt;configuration&#45;modules&#45;core#1524 -->
<g id="edge16" class="edge"><title>configuration-modules-core#1620-&gt;configuration-modules-core#1524</title>
<path fill="none" stroke="black" stroke-width="2" d="M215.28,-669.564C246.821,-667.178 281.904,-664.524 314.036,-662.093"/>
<polygon fill="black" stroke="black" points="314.649,-665.556 324.356,-661.312 314.12,-658.576 314.649,-665.556"/>
<text text-anchor="middle" x="257.928" y="-657.43" font-family="Sans" font-size="10.00">fixes</text>
</g>
<!-- configuration&#45;modules&#45;core#1620&#45;&gt;configuration&#45;modules&#45;core#1524 -->
<g id="edge23" class="edge"><title>configuration-modules-core#1620-&gt;configuration-modules-core#1524</title>
<path fill="none" stroke="black" stroke-width="2" d="M215.28,-682.285C246.821,-680.851 281.904,-678.276 314.036,-675.052"/>
<polygon fill="black" stroke="black" points="314.77,-678.494 324.356,-673.982 314.049,-671.532 314.77,-678.494"/>
<text text-anchor="middle" x="257.928" y="-670.93" font-family="Sans" font-size="10.00">fixes</text>
</g>
<!-- configuration&#45;modules&#45;core#1554 -->
<g id="node22" class="node"><title>configuration-modules-core#1554</title>
<g id="a_node22"><a xlink:href="https://github.com/quattor/configuration-modules-core/pull/1554" xlink:title="configuration-modules-core#1554 (pull-request)" target="_parent">
<polygon fill="#6cc644" stroke="black" points="507,-173 337,-173 337,-123 507,-123 507,-173"/>
<text text-anchor="middle" x="422" y="-151" font-family="Sans" font-size="10.00">avoid removing empty list of</text>
<text text-anchor="middle" x="422" y="-140" font-family="Sans" font-size="10.00">packages</text>
</a>
</g>
</g>
<!-- configuration&#45;modules&#45;core#1553 -->
<g id="node23" class="node"><title>configuration-modules-core#1553</title>
<g id="a_node23"><a xlink:href="https://github.com/quattor/configuration-modules-core/issues/1553" xlink:title="configuration-modules-core#1553 (issue)" target="_parent">
<path fill="#6cc644" stroke="black" d="M801.5,-161.5C801.5,-161.5 640.5,-161.5 640.5,-161.5 634.5,-161.5 628.5,-155.5 628.5,-149.5 628.5,-149.5 628.5,-112.5 628.5,-112.5 628.5,-106.5 634.5,-100.5 640.5,-100.5 640.5,-100.5 801.5,-100.5 801.5,-100.5 807.5,-100.5 813.5,-106.5 813.5,-112.5 813.5,-112.5 813.5,-149.5 813.5,-149.5 813.5,-155.5 807.5,-161.5 801.5,-161.5"/>
<text text-anchor="middle" x="721" y="-139.5" font-family="Sans" font-size="10.00">ncm-spma: update_pkgs in yum</text>
<text text-anchor="middle" x="721" y="-128.5" font-family="Sans" font-size="10.00">plugin tries to remove empty</text>
<text text-anchor="middle" x="721" y="-117.5" font-family="Sans" font-size="10.00">list of packages</text>
</a>
</g>
</g>
<!-- configuration&#45;modules&#45;core#1554&#45;&gt;configuration&#45;modules&#45;core#1553 -->
<g id="edge17" class="edge"><title>configuration-modules-core#1554-&gt;configuration-modules-core#1553</title>
<path fill="none" stroke="black" stroke-width="2" d="M507.314,-143.174C541.879,-141.195 582.189,-138.888 618.365,-136.817"/>
<polygon fill="black" stroke="black" points="618.667,-140.306 628.451,-136.24 618.267,-133.317 618.667,-140.306"/>
<text text-anchor="middle" x="556.005" y="-131.7" font-family="Sans" font-size="10.00">fixes</text>
</g>
<!-- configuration&#45;modules&#45;core#1452 -->
<g id="node24" class="node"><title>configuration-modules-core#1452</title>
<g id="a_node24"><a xlink:href="https://github.com/quattor/configuration-modules-core/pull/1452" xlink:title="configuration-modules-core#1452 (pull-request)" target="_parent">
<polygon fill="#6e5494" stroke="black" points="202.5,-634 29.5,-634 29.5,-584 202.5,-584 202.5,-634"/>
<text text-anchor="middle" x="116" y="-612" font-family="Sans" font-size="10.00">ncm-metaconfig: ssh daemon</text>
<text text-anchor="middle" x="116" y="-601" font-family="Sans" font-size="10.00">configuration support</text>
</a>
</g>
</g>
<!-- configuration&#45;modules&#45;core#1377 -->
<g id="node25" class="node"><title>configuration-modules-core#1377</title>
<polygon fill="lightgrey" stroke="black" points="519.5,-567.5 324.5,-567.5 324.5,-528.5 519.5,-528.5 519.5,-567.5"/>
<text text-anchor="middle" x="422" y="-545.5" font-family="Sans" font-size="10.00">configuration-modules-core#1377</text>
</g>
<!-- configuration&#45;modules&#45;core#1452&#45;&gt;configuration&#45;modules&#45;core#1377 -->
<g id="edge18" class="edge"><title>configuration-modules-core#1452-&gt;configuration-modules-core#1377</title>
<path fill="none" stroke="black" stroke-dasharray="1,5" d="M202.895,-591.764C237.641,-584.792 278.111,-576.672 314.689,-569.332"/>
<polygon fill="black" stroke="black" points="324.894,-567.284 315.975,-573.664 319.992,-568.268 315.09,-569.252 315.09,-569.252 315.09,-569.252 319.992,-568.268 314.205,-564.84 324.894,-567.284 324.894,-567.284"/>
<text text-anchor="middle" x="242.91" y="-571.521" font-family="Sans" font-size="10.00">replaces</text>
</g>
<!-- configuration&#45;modules&#45;core#1451 -->
<g id="node26" class="node"><title>configuration-modules-core#1451</title>
<polygon fill="lightgrey" stroke="black" points="519.5,-510.5 324.5,-510.5 324.5,-471.5 519.5,-471.5 519.5,-510.5"/>
<text text-anchor="middle" x="422" y="-488.5" font-family="Sans" font-size="10.00">configuration-modules-core#1451</text>
</g>
<!-- configuration&#45;modules&#45;core#1452&#45;&gt;configuration&#45;modules&#45;core#1451 -->
<g id="edge19" class="edge"><title>configuration-modules-core#1452-&gt;configuration-modules-core#1451</title>
<path fill="none" stroke="black" stroke-dasharray="5,2" d="M168.158,-583.995C208.928,-564.665 267.799,-538.074 321,-519 326.436,-517.051 332.077,-515.151 337.787,-513.319"/>
<polygon fill="none" stroke="black" points="338.937,-516.627 347.438,-510.303 336.849,-509.946 338.937,-516.627"/>
<text text-anchor="middle" x="236.844" y="-536.178" font-family="Sans" font-size="10.00">requires</text>
</g>
<!-- quattor.github.com#278 -->
<g id="node27" class="node"><title>quattor.github.com#278</title>
<g id="a_node27"><a xlink:href="https://github.com/quattor/quattor.github.com/pull/278" xlink:title="quattor.github.com#278 (pull-request)" target="_parent">
<polygon fill="#6cc644" stroke="black" points="190,-1050.5 42,-1050.5 42,-1011.5 190,-1011.5 190,-1050.5"/>
<text text-anchor="middle" x="116" y="-1028.5" font-family="Sans" font-size="10.00">Update Perl coding style</text>
</a>
</g>
</g>
<!-- quattor.github.com#215 -->
<g id="node28" class="node"><title>quattor.github.com#215</title>
<g id="a_node28"><a xlink:href="https://github.com/quattor/quattor.github.com/issues/215" xlink:title="quattor.github.com#215 (issue)" target="_parent">
<path fill="#6cc644" stroke="black" d="M483,-1050.5C483,-1050.5 361,-1050.5 361,-1050.5 355,-1050.5 349,-1044.5 349,-1038.5 349,-1038.5 349,-1023.5 349,-1023.5 349,-1017.5 355,-1011.5 361,-1011.5 361,-1011.5 483,-1011.5 483,-1011.5 489,-1011.5 495,-1017.5 495,-1023.5 495,-1023.5 495,-1038.5 495,-1038.5 495,-1044.5 489,-1050.5 483,-1050.5"/>
<text text-anchor="middle" x="422" y="-1028.5" font-family="Sans" font-size="10.00">Update coding style doc</text>
</a>
</g>
</g>
<!-- quattor.github.com#278&#45;&gt;quattor.github.com#215 -->
<g id="edge24" class="edge"><title>quattor.github.com#278-&gt;quattor.github.com#215</title>
<path fill="none" stroke="black" stroke-width="2" d="M190.202,-1031C235.051,-1031 292.549,-1031 338.936,-1031"/>
<polygon fill="black" stroke="black" points="338.958,-1034.5 348.958,-1031 338.958,-1027.5 338.958,-1034.5"/>
<text text-anchor="middle" x="257.432" y="-1023" font-family="Sans" font-size="10.00">fixes</text>
</g>
<!-- template&#45;library&#45;grid#232 -->
<g id="node29" class="node"><title>template-library-grid#232</title>
<g id="a_node29"><a xlink:href="https://github.com/quattor/template-library-grid/pull/232" xlink:title="template-library-grid#232 (pull-request)" target="_parent">
<polygon fill="#6cc644" stroke="black" points="199.5,-1119 32.5,-1119 32.5,-1069 199.5,-1069 199.5,-1119"/>
<text text-anchor="middle" x="116" y="-1097" font-family="Sans" font-size="10.00">arc-ce: Export arc-ce feature</text>
<text text-anchor="middle" x="116" y="-1086" font-family="Sans" font-size="10.00">from aquilon at RAL</text>
</a>
</g>
</g>
<!-- template&#45;library&#45;grid#221 -->
<g id="node30" class="node"><title>template-library-grid#221</title>
<g id="a_node30"><a xlink:href="https://github.com/quattor/template-library-grid/issues/221" xlink:title="template-library-grid#221 (issue)" target="_parent">
<path fill="#6cc644" stroke="black" d="M499,-1119C499,-1119 345,-1119 345,-1119 339,-1119 333,-1113 333,-1107 333,-1107 333,-1081 333,-1081 333,-1075 339,-1069 345,-1069 345,-1069 499,-1069 499,-1069 505,-1069 511,-1075 511,-1081 511,-1081 511,-1107 511,-1107 511,-1113 505,-1119 499,-1119"/>
<text text-anchor="middle" x="422" y="-1097" font-family="Sans" font-size="10.00">Support for new CE types (ARC</text>
<text text-anchor="middle" x="422" y="-1086" font-family="Sans" font-size="10.00">CE, HTCONDOR CE)</text>
</a>
</g>
</g>
<!-- template&#45;library&#45;grid#232&#45;&gt;template&#45;library&#45;grid#221 -->
<g id="edge25" class="edge"><title>template-library-grid#232-&gt;template-library-grid#221</title>
<path fill="none" stroke="black" stroke-width="2" d="M199.668,-1094C237.596,-1094 282.855,-1094 322.533,-1094"/>
<polygon fill="black" stroke="black" points="322.76,-1097.5 332.76,-1094 322.76,-1090.5 322.76,-1097.5"/>
<text text-anchor="middle" x="253.866" y="-1086" font-family="Sans" font-size="10.00">fixes</text>
</g>
</g>
</svg>
