<?xml version="1.0" encoding="UTF-8" standalone="no"?>
<?xml-stylesheet href="relationships.css" type="text/css"?>
<!-- Generated by graphviz version 2.26.0 (20091210.2329)
 -->
<!-- Title: Dependencies Pages: 1 -->
<svg xmlns="http://www.w3.org/2000/svg" xmlns:xlink="http://www.w3.org/1999/xlink" width="578pt" height="1849pt" viewBox="0.00 0.00 578.00 1849.00">
<g id="graph1" class="graph" transform="scale(1 1) rotate(0) translate(4 1845)">
<title>Dependencies</title>
<polygon fill="white" stroke="white" points="-4,5 -4,-1845 575,-1845 575,5 -4,5"/>
<g id="graph3" class="cluster"><title>cluster_18.3</title>
<polygon fill="none" stroke="black" points="24,-868 24,-1598 562,-1598 562,-868 24,-868"/>
<text text-anchor="middle" x="293" y="-1583.2" font-family="Sans" font-size="12.00">18.3</text>
</g>
<g id="graph4" class="cluster"><title>cluster_18.6</title>
<polygon fill="none" stroke="black" points="24,-108 24,-860 558,-860 558,-108 24,-108"/>
<text text-anchor="middle" x="291" y="-845.2" font-family="Sans" font-size="12.00">18.6</text>
</g>
<!-- aii#210 -->
<g id="node1" class="node"><title>aii#210</title>
<a xlink:href="https://github.com/quattor/aii/pull/210" xlink:title="Shellfe: support active config for plugins" target="_parent">
<polygon fill="#6cc644" stroke="black" points="157,-745 79,-745 79,-691 157,-691 157,-745"/>
<text text-anchor="middle" x="118" y="-722" font-family="Sans" font-size="10.00">pull-request</text>
<text text-anchor="middle" x="118" y="-709" font-family="Sans" font-size="10.00">aii#210</text>
</a>
</g>
<!-- aii#209 -->
<g id="node3" class="node"><title>aii#209</title>
<a xlink:href="https://github.com/quattor/aii/issues/209" xlink:title="support ACTIVE_CONFIG" target="_parent">
<ellipse fill="#6cc644" stroke="black" cx="432" cy="-718" rx="41.2167" ry="38.1838"/>
<text text-anchor="middle" x="432" y="-722" font-family="Sans" font-size="10.00">issue</text>
<text text-anchor="middle" x="432" y="-709" font-family="Sans" font-size="10.00">aii#209</text>
</a>
</g>
<!-- aii#210&#45;&gt;aii#209 -->
<g id="edge2" class="edge"><title>aii#210-&gt;aii#209</title>
<path fill="none" stroke="black" stroke-width="2" d="M157.768,-718C214.279,-718 317.868,-718 380.284,-718"/>
<polygon fill="black" stroke="black" points="380.31,-721.5 390.31,-718 380.31,-714.5 380.31,-721.5"/>
<text text-anchor="middle" x="273" y="-722" font-family="Sans" font-size="10.00">fixes</text>
</g>
<!-- ncm&#45;ncd#74 -->
<g id="node5" class="node"><title>ncm-ncd#74</title>
<a xlink:href="https://github.com/quattor/ncm-ncd/pull/74" xlink:title="Set the current active config as an attribute to the component" target="_parent">
<polygon fill="#6cc644" stroke="black" points="473,-828 391,-828 391,-774 473,-774 473,-828"/>
<text text-anchor="middle" x="432" y="-805" font-family="Sans" font-size="10.00">pull-request</text>
<text text-anchor="middle" x="432" y="-792" font-family="Sans" font-size="10.00">ncm-ncd#74</text>
</a>
</g>
<!-- aii#210&#45;&gt;ncm&#45;ncd#74 -->
<g id="edge4" class="edge"><title>aii#210-&gt;ncm-ncd#74</title>
<path fill="none" stroke="black" stroke-dasharray="5,2" d="M157.768,-728.512C214.435,-743.491 318.442,-770.983 380.801,-787.466"/>
<polygon fill="none" stroke="black" points="380.25,-790.941 390.813,-790.113 382.039,-784.173 380.25,-790.941"/>
<text text-anchor="middle" x="273" y="-766" font-family="Sans" font-size="10.00">requires</text>
</g>
<!-- aii#203 -->
<g id="node7" class="node"><title>aii#203</title>
<polygon fill="lightgrey" stroke="black" points="461,-98.5 403,-98.5 403,-57.5 461,-57.5 461,-98.5"/>
<text text-anchor="middle" x="432" y="-75.5" font-family="Sans" font-size="10.00">aii#203</text>
</g>
<!-- aii#210&#45;&gt;aii#203 -->
<g id="edge6" class="edge"><title>aii#210-&gt;aii#203</title>
<path fill="none" stroke="black" stroke-dasharray="5,2" d="M133.148,-690.736C159.53,-641.708 213.264,-534.655 236,-437 251.144,-371.953 219.142,-193.968 254,-137 282.256,-90.8215 348.908,-79.7407 392.153,-77.6455"/>
<polygon fill="none" stroke="black" points="392.464,-81.137 402.338,-77.2959 392.223,-74.1411 392.464,-81.137"/>
<text text-anchor="middle" x="273" y="-141" font-family="Sans" font-size="10.00">requires</text>
</g>
<!-- CAF#257 -->
<g id="node8" class="node"><title>CAF#257</title>
<a xlink:href="https://github.com/quattor/CAF/pull/257" xlink:title="Process: run process as another user" target="_parent">
<polygon fill="#6cc644" stroke="black" points="157,-1555 79,-1555 79,-1501 157,-1501 157,-1555"/>
<text text-anchor="middle" x="118" y="-1532" font-family="Sans" font-size="10.00">pull-request</text>
<text text-anchor="middle" x="118" y="-1519" font-family="Sans" font-size="10.00">CAF#257</text>
</a>
</g>
<!-- CAF#253 -->
<g id="node10" class="node"><title>CAF#253</title>
<a xlink:href="https://github.com/quattor/CAF/issues/253" xlink:title="CAF::Process: Include an option to execute the command as an specific user" target="_parent">
<ellipse fill="#6cc644" stroke="black" cx="432" cy="-1528" rx="48.9975" ry="38.1838"/>
<text text-anchor="middle" x="432" y="-1532" font-family="Sans" font-size="10.00">issue</text>
<text text-anchor="middle" x="432" y="-1519" font-family="Sans" font-size="10.00">CAF#253</text>
</a>
</g>
<!-- CAF#257&#45;&gt;CAF#253 -->
<g id="edge8" class="edge"><title>CAF#257-&gt;CAF#253</title>
<path fill="none" stroke="black" stroke-width="2" d="M157.571,-1526.9C184.705,-1526.2 221.529,-1525.36 254,-1525 293.351,-1524.57 337.592,-1525.31 372.123,-1526.16"/>
<polygon fill="black" stroke="black" points="372.425,-1529.67 382.512,-1526.43 372.605,-1522.67 372.425,-1529.67"/>
<text text-anchor="middle" x="273" y="-1529" font-family="Sans" font-size="10.00">fixes</text>
</g>
<!-- CAF#110 -->
<g id="node11" class="node"><title>CAF#110</title>
<a xlink:href="https://github.com/quattor/CAF/pull/110" xlink:title="Download: API proposal" target="_parent">
<polygon fill="#6cc644" stroke="black" points="157,-1660 79,-1660 79,-1606 157,-1606 157,-1660"/>
<text text-anchor="middle" x="118" y="-1637" font-family="Sans" font-size="10.00">pull-request</text>
<text text-anchor="middle" x="118" y="-1624" font-family="Sans" font-size="10.00">CAF#110</text>
</a>
</g>
<!-- CAF#120 -->
<g id="node13" class="node"><title>CAF#120</title>
<polygon fill="lightgrey" stroke="black" points="467,-1653.5 397,-1653.5 397,-1612.5 467,-1612.5 467,-1653.5"/>
<text text-anchor="middle" x="432" y="-1630.5" font-family="Sans" font-size="10.00">CAF#120</text>
</g>
<!-- CAF#110&#45;&gt;CAF#120 -->
<g id="edge10" class="edge"><title>CAF#110-&gt;CAF#120</title>
<path fill="none" stroke="black" stroke-dasharray="5,2" d="M157.768,-1633C216.269,-1633 325.221,-1633 386.719,-1633"/>
<polygon fill="none" stroke="black" points="386.897,-1636.5 396.897,-1633 386.897,-1629.5 386.897,-1636.5"/>
<text text-anchor="middle" x="273" y="-1637" font-family="Sans" font-size="10.00">requires</text>
</g>
<!-- configuration&#45;modules&#45;core#1236 -->
<g id="node14" class="node"><title>configuration-modules-core#1236</title>
<a xlink:href="https://github.com/quattor/configuration-modules-core/pull/1236" xlink:title="ncm-spma: yum: Expose support for multiple reposdirs" target="_parent">
<polygon fill="#6e5494" stroke="black" points="204,-1472 32,-1472 32,-1418 204,-1418 204,-1472"/>
<text text-anchor="middle" x="118" y="-1449" font-family="Sans" font-size="10.00">pull-request</text>
<text text-anchor="middle" x="118" y="-1436" font-family="Sans" font-size="10.00">configuration-modules-core#1236</text>
</a>
</g>
<!-- configuration&#45;modules&#45;core#1075 -->
<g id="node16" class="node"><title>configuration-modules-core#1075</title>
<a xlink:href="https://github.com/quattor/configuration-modules-core/pull/1075" xlink:title="ncm-spma (yum): Allow unmanaged repositories to be controlled seperately from packages" target="_parent">
<polygon fill="#6e5494" stroke="black" points="518,-1472 346,-1472 346,-1418 518,-1418 518,-1472"/>
<text text-anchor="middle" x="432" y="-1449" font-family="Sans" font-size="10.00">pull-request</text>
<text text-anchor="middle" x="432" y="-1436" font-family="Sans" font-size="10.00">configuration-modules-core#1075</text>
</a>
</g>
<!-- configuration&#45;modules&#45;core#1236&#45;&gt;configuration&#45;modules&#45;core#1075 -->
<g id="edge12" class="edge"><title>configuration-modules-core#1236-&gt;configuration-modules-core#1075</title>
<path fill="none" stroke="black" stroke-dasharray="1,5" d="M204.217,-1445C244.975,-1445 293.781,-1445 335.743,-1445"/>
<polygon fill="black" stroke="black" points="345.975,-1445 335.975,-1449.5 340.975,-1445 335.975,-1445 335.975,-1445 335.975,-1445 340.975,-1445 335.975,-1440.5 345.975,-1445 345.975,-1445"/>
<text text-anchor="middle" x="273" y="-1449" font-family="Sans" font-size="10.00">replaces</text>
</g>
<!-- configuration&#45;modules&#45;core#1235 -->
<g id="node17" class="node"><title>configuration-modules-core#1235</title>
<a xlink:href="https://github.com/quattor/configuration-modules-core/pull/1235" xlink:title="ncm-ofed: import CAF::Service and enable NoActionSupported" target="_parent">
<polygon fill="#6e5494" stroke="black" points="204,-1389 32,-1389 32,-1335 204,-1335 204,-1389"/>
<text text-anchor="middle" x="118" y="-1366" font-family="Sans" font-size="10.00">pull-request</text>
<text text-anchor="middle" x="118" y="-1353" font-family="Sans" font-size="10.00">configuration-modules-core#1235</text>
</a>
</g>
<!-- configuration&#45;modules&#45;core#1234 -->
<g id="node19" class="node"><title>configuration-modules-core#1234</title>
<a xlink:href="https://github.com/quattor/configuration-modules-core/issues/1234" xlink:title="ncm-ofed: no loading of CAF::Service" target="_parent">
<ellipse fill="#bd2c00" stroke="black" cx="432" cy="-1362" rx="121.122" ry="38.1838"/>
<text text-anchor="middle" x="432" y="-1366" font-family="Sans" font-size="10.00">issue</text>
<text text-anchor="middle" x="432" y="-1353" font-family="Sans" font-size="10.00">configuration-modules-core#1234</text>
</a>
</g>
<!-- configuration&#45;modules&#45;core#1235&#45;&gt;configuration&#45;modules&#45;core#1234 -->
<g id="edge14" class="edge"><title>configuration-modules-core#1235-&gt;configuration-modules-core#1234</title>
<path fill="none" stroke="black" stroke-width="2" d="M204.217,-1362C233.916,-1362 267.888,-1362 300.372,-1362"/>
<polygon fill="black" stroke="black" points="300.399,-1365.5 310.399,-1362 300.399,-1358.5 300.399,-1365.5"/>
<text text-anchor="middle" x="273" y="-1366" font-family="Sans" font-size="10.00">fixes</text>
</g>
<!-- configuration&#45;modules&#45;core#1230 -->
<g id="node20" class="node"><title>configuration-modules-core#1230</title>
<a xlink:href="https://github.com/quattor/configuration-modules-core/pull/1230" xlink:title="ncm-ceph: support for luminous, bluestore, ceph-volume and per host osd deployment" target="_parent">
<polygon fill="#6cc644" stroke="black" points="204,-428 32,-428 32,-374 204,-374 204,-428"/>
<text text-anchor="middle" x="118" y="-405" font-family="Sans" font-size="10.00">pull-request</text>
<text text-anchor="middle" x="118" y="-392" font-family="Sans" font-size="10.00">configuration-modules-core#1230</text>
</a>
</g>
<!-- configuration&#45;modules&#45;core#1224 -->
<g id="node22" class="node"><title>configuration-modules-core#1224</title>
<polygon fill="lightgrey" stroke="black" points="518,-40.5 346,-40.5 346,0.5 518,0.5 518,-40.5"/>
<text text-anchor="middle" x="432" y="-17.5" font-family="Sans" font-size="10.00">configuration-modules-core#1224</text>
</g>
<!-- configuration&#45;modules&#45;core#1230&#45;&gt;configuration&#45;modules&#45;core#1224 -->
<g id="edge16" class="edge"><title>configuration-modules-core#1230-&gt;configuration-modules-core#1224</title>
<path fill="none" stroke="black" stroke-dasharray="1,5" d="M137.724,-373.949C164.809,-335.283 212.792,-261.012 236,-190 246.224,-158.718 230.806,-66.3487 254,-43 275.209,-21.6491 305.751,-13.1348 335.564,-10.8102"/>
<polygon fill="black" stroke="black" points="345.632,-10.2495 335.898,-15.2987 340.64,-10.5276 335.648,-10.8056 335.648,-10.8056 335.648,-10.8056 340.64,-10.5276 335.398,-6.31258 345.632,-10.2495 345.632,-10.2495"/>
<text text-anchor="middle" x="273" y="-47" font-family="Sans" font-size="10.00">replaces</text>
</g>
<!-- configuration&#45;modules&#45;core#740 -->
<g id="node24" class="node"><title>configuration-modules-core#740</title>
<a xlink:href="https://github.com/quattor/configuration-modules-core/issues/740" xlink:title="ncm-ceph: add boolean to disable osd features" target="_parent">
<ellipse fill="#6cc644" stroke="black" cx="432" cy="-248" rx="118.087" ry="38.1838"/>
<text text-anchor="middle" x="432" y="-252" font-family="Sans" font-size="10.00">issue</text>
<text text-anchor="middle" x="432" y="-239" font-family="Sans" font-size="10.00">configuration-modules-core#740</text>
</a>
</g>
<!-- configuration&#45;modules&#45;core#1230&#45;&gt;configuration&#45;modules&#45;core#740 -->
<g id="edge18" class="edge"><title>configuration-modules-core#1230-&gt;configuration-modules-core#740</title>
<path fill="none" stroke="black" stroke-width="2" d="M162.867,-373.938C201.211,-351.37 258.231,-319.124 310,-295 320.958,-289.894 332.637,-284.878 344.263,-280.135"/>
<polygon fill="black" stroke="black" points="345.59,-283.374 353.561,-276.394 342.977,-276.88 345.59,-283.374"/>
<text text-anchor="middle" x="273" y="-326" font-family="Sans" font-size="10.00">fixes</text>
</g>
<!-- configuration&#45;modules&#45;core#741 -->
<g id="node26" class="node"><title>configuration-modules-core#741</title>
<a xlink:href="https://github.com/quattor/configuration-modules-core/issues/741" xlink:title="ncm-ceph: check possibilities to rescale ceph in Jewel" target="_parent">
<ellipse fill="#6cc644" stroke="black" cx="432" cy="-342" rx="118.087" ry="38.1838"/>
<text text-anchor="middle" x="432" y="-346" font-family="Sans" font-size="10.00">issue</text>
<text text-anchor="middle" x="432" y="-333" font-family="Sans" font-size="10.00">configuration-modules-core#741</text>
</a>
</g>
<!-- configuration&#45;modules&#45;core#1230&#45;&gt;configuration&#45;modules&#45;core#741 -->
<g id="edge20" class="edge"><title>configuration-modules-core#1230-&gt;configuration-modules-core#741</title>
<path fill="none" stroke="black" stroke-width="2" d="M204.217,-384.8C239.883,-378.098 281.712,-370.239 319.725,-363.096"/>
<polygon fill="black" stroke="black" points="320.636,-366.486 329.818,-361.2 319.343,-359.607 320.636,-366.486"/>
<text text-anchor="middle" x="273" y="-380" font-family="Sans" font-size="10.00">fixes</text>
</g>
<!-- configuration&#45;modules&#45;core#742 -->
<g id="node28" class="node"><title>configuration-modules-core#742</title>
<a xlink:href="https://github.com/quattor/configuration-modules-core/issues/742" xlink:title="ncm-ceph: allow control over deploying admin keyrings along with ceph.conf" target="_parent">
<ellipse fill="#6cc644" stroke="black" cx="432" cy="-436" rx="118.087" ry="38.1838"/>
<text text-anchor="middle" x="432" y="-440" font-family="Sans" font-size="10.00">issue</text>
<text text-anchor="middle" x="432" y="-427" font-family="Sans" font-size="10.00">configuration-modules-core#742</text>
</a>
</g>
<!-- configuration&#45;modules&#45;core#1230&#45;&gt;configuration&#45;modules&#45;core#742 -->
<g id="edge22" class="edge"><title>configuration-modules-core#1230-&gt;configuration-modules-core#742</title>
<path fill="none" stroke="black" stroke-width="2" d="M204.217,-410.61C236.853,-414.248 274.649,-418.461 309.96,-422.397"/>
<polygon fill="black" stroke="black" points="310.011,-425.924 320.337,-423.554 310.787,-418.967 310.011,-425.924"/>
<text text-anchor="middle" x="273" y="-424" font-family="Sans" font-size="10.00">fixes</text>
</g>
<!-- configuration&#45;modules&#45;core#743 -->
<g id="node30" class="node"><title>configuration-modules-core#743</title>
<a xlink:href="https://github.com/quattor/configuration-modules-core/issues/743" xlink:title="ncm-ceph: check admin keyring is current before running ceph-deploy admin" target="_parent">
<ellipse fill="#6cc644" stroke="black" cx="432" cy="-530" rx="118.087" ry="38.1838"/>
<text text-anchor="middle" x="432" y="-534" font-family="Sans" font-size="10.00">issue</text>
<text text-anchor="middle" x="432" y="-521" font-family="Sans" font-size="10.00">configuration-modules-core#743</text>
</a>
</g>
<!-- configuration&#45;modules&#45;core#1230&#45;&gt;configuration&#45;modules&#45;core#743 -->
<g id="edge24" class="edge"><title>configuration-modules-core#1230-&gt;configuration-modules-core#743</title>
<path fill="none" stroke="black" stroke-width="2" d="M180.021,-428.157C217.512,-444.405 266.341,-465.274 310,-483 321.533,-487.683 333.724,-492.516 345.76,-497.22"/>
<polygon fill="black" stroke="black" points="344.777,-500.593 355.365,-500.96 347.317,-494.07 344.777,-500.593"/>
<text text-anchor="middle" x="273" y="-479" font-family="Sans" font-size="10.00">fixes</text>
</g>
<!-- configuration&#45;modules&#45;core#776 -->
<g id="node32" class="node"><title>configuration-modules-core#776</title>
<a xlink:href="https://github.com/quattor/configuration-modules-core/issues/776" xlink:title="ncm-ceph: ceph mds stat output redesigned on Jewel" target="_parent">
<ellipse fill="#6cc644" stroke="black" cx="432" cy="-624" rx="118.087" ry="38.1838"/>
<text text-anchor="middle" x="432" y="-628" font-family="Sans" font-size="10.00">issue</text>
<text text-anchor="middle" x="432" y="-615" font-family="Sans" font-size="10.00">configuration-modules-core#776</text>
</a>
</g>
<!-- configuration&#45;modules&#45;core#1230&#45;&gt;configuration&#45;modules&#45;core#776 -->
<g id="edge26" class="edge"><title>configuration-modules-core#1230-&gt;configuration-modules-core#776</title>
<path fill="none" stroke="black" stroke-width="2" d="M141.557,-428.251C175.485,-466.072 241.585,-534.598 310,-577 319.232,-582.722 329.275,-587.947 339.504,-592.661"/>
<polygon fill="black" stroke="black" points="338.372,-595.987 348.932,-596.845 341.212,-589.589 338.372,-595.987"/>
<text text-anchor="middle" x="273" y="-566" font-family="Sans" font-size="10.00">fixes</text>
</g>
<!-- configuration&#45;modules&#45;core#1220 -->
<g id="node33" class="node"><title>configuration-modules-core#1220</title>
<a xlink:href="https://github.com/quattor/configuration-modules-core/pull/1220" xlink:title="ncm-cups: Stop daemon if server not enabled" target="_parent">
<polygon fill="#6e5494" stroke="black" points="204,-1295 32,-1295 32,-1241 204,-1241 204,-1295"/>
<text text-anchor="middle" x="118" y="-1272" font-family="Sans" font-size="10.00">pull-request</text>
<text text-anchor="middle" x="118" y="-1259" font-family="Sans" font-size="10.00">configuration-modules-core#1220</text>
</a>
</g>
<!-- configuration&#45;modules&#45;core#1189 -->
<g id="node35" class="node"><title>configuration-modules-core#1189</title>
<a xlink:href="https://github.com/quattor/configuration-modules-core/issues/1189" xlink:title="ncm-cups: Nodetype of client should stop running cups daemon" target="_parent">
<ellipse fill="#bd2c00" stroke="black" cx="432" cy="-1268" rx="121.122" ry="38.1838"/>
<text text-anchor="middle" x="432" y="-1272" font-family="Sans" font-size="10.00">issue</text>
<text text-anchor="middle" x="432" y="-1259" font-family="Sans" font-size="10.00">configuration-modules-core#1189</text>
</a>
</g>
<!-- configuration&#45;modules&#45;core#1220&#45;&gt;configuration&#45;modules&#45;core#1189 -->
<g id="edge28" class="edge"><title>configuration-modules-core#1220-&gt;configuration-modules-core#1189</title>
<path fill="none" stroke="black" stroke-width="2" d="M204.217,-1268C233.916,-1268 267.888,-1268 300.372,-1268"/>
<polygon fill="black" stroke="black" points="300.399,-1271.5 310.399,-1268 300.399,-1264.5 300.399,-1271.5"/>
<text text-anchor="middle" x="273" y="-1272" font-family="Sans" font-size="10.00">fixes</text>
</g>
<!-- configuration&#45;modules&#45;core#1105 -->
<g id="node36" class="node"><title>configuration-modules-core#1105</title>
<a xlink:href="https://github.com/quattor/configuration-modules-core/pull/1105" xlink:title="ncm-authconfig: fix krb5_realm, user_object_class and newline between ldap_krb5_canonicalize and ldap_krb5_realm" target="_parent">
<polygon fill="#6cc644" stroke="black" points="204,-1107 32,-1107 32,-1053 204,-1053 204,-1107"/>
<text text-anchor="middle" x="118" y="-1084" font-family="Sans" font-size="10.00">pull-request</text>
<text text-anchor="middle" x="118" y="-1071" font-family="Sans" font-size="10.00">configuration-modules-core#1105</text>
</a>
</g>
<!-- configuration&#45;modules&#45;core#1100 -->
<g id="node38" class="node"><title>configuration-modules-core#1100</title>
<a xlink:href="https://github.com/quattor/configuration-modules-core/issues/1100" xlink:title="ncm-authconfig : no newline after krb5_canonicalize option" target="_parent">
<ellipse fill="#6cc644" stroke="black" cx="432" cy="-1080" rx="121.122" ry="38.1838"/>
<text text-anchor="middle" x="432" y="-1084" font-family="Sans" font-size="10.00">issue</text>
<text text-anchor="middle" x="432" y="-1071" font-family="Sans" font-size="10.00">configuration-modules-core#1100</text>
</a>
</g>
<!-- configuration&#45;modules&#45;core#1105&#45;&gt;configuration&#45;modules&#45;core#1100 -->
<g id="edge30" class="edge"><title>configuration-modules-core#1105-&gt;configuration-modules-core#1100</title>
<path fill="none" stroke="black" stroke-width="2" d="M204.217,-1080C233.916,-1080 267.888,-1080 300.372,-1080"/>
<polygon fill="black" stroke="black" points="300.399,-1083.5 310.399,-1080 300.399,-1076.5 300.399,-1083.5"/>
<text text-anchor="middle" x="273" y="-1084" font-family="Sans" font-size="10.00">fixes</text>
</g>
<!-- configuration&#45;modules&#45;core#1102 -->
<g id="node40" class="node"><title>configuration-modules-core#1102</title>
<a xlink:href="https://github.com/quattor/configuration-modules-core/issues/1102" xlink:title="ncm-authconfig: There is no " target="_parent">
<ellipse fill="#6cc644" stroke="black" cx="432" cy="-1174" rx="121.122" ry="38.1838"/>
<text text-anchor="middle" x="432" y="-1178" font-family="Sans" font-size="10.00">issue</text>
<text text-anchor="middle" x="432" y="-1165" font-family="Sans" font-size="10.00">configuration-modules-core#1102</text>
</a>
</g>
<!-- configuration&#45;modules&#45;core#1105&#45;&gt;configuration&#45;modules&#45;core#1102 -->
<g id="edge32" class="edge"><title>configuration-modules-core#1105-&gt;configuration-modules-core#1102</title>
<path fill="none" stroke="black" stroke-width="2" d="M204.217,-1105.81C244.557,-1117.89 292.783,-1132.32 334.453,-1144.8"/>
<polygon fill="black" stroke="black" points="333.48,-1148.16 344.064,-1147.68 335.488,-1141.45 333.48,-1148.16"/>
<text text-anchor="middle" x="273" y="-1134" font-family="Sans" font-size="10.00">fixes</text>
</g>
<!-- configuration&#45;modules&#45;core#1103 -->
<g id="node42" class="node"><title>configuration-modules-core#1103</title>
<a xlink:href="https://github.com/quattor/configuration-modules-core/issues/1103" xlink:title="ncm-authconfig: krb5_realm = ARRAY(0x39a5830)" target="_parent">
<ellipse fill="#6cc644" stroke="black" cx="432" cy="-986" rx="121.122" ry="38.1838"/>
<text text-anchor="middle" x="432" y="-990" font-family="Sans" font-size="10.00">issue</text>
<text text-anchor="middle" x="432" y="-977" font-family="Sans" font-size="10.00">configuration-modules-core#1103</text>
</a>
</g>
<!-- configuration&#45;modules&#45;core#1105&#45;&gt;configuration&#45;modules&#45;core#1103 -->
<g id="edge34" class="edge"><title>configuration-modules-core#1105-&gt;configuration-modules-core#1103</title>
<path fill="none" stroke="black" stroke-width="2" d="M204.217,-1054.19C244.557,-1042.11 292.783,-1027.68 334.453,-1015.2"/>
<polygon fill="black" stroke="black" points="335.488,-1018.55 344.064,-1012.32 333.48,-1011.84 335.488,-1018.55"/>
<text text-anchor="middle" x="273" y="-1043" font-family="Sans" font-size="10.00">fixes</text>
</g>
<!-- configuration&#45;modules&#45;core#1148 -->
<g id="node43" class="node"><title>configuration-modules-core#1148</title>
<a xlink:href="https://github.com/quattor/configuration-modules-core/pull/1148" xlink:title="ncm-spma: Remove support from groups from spma yumng backend" target="_parent">
<polygon fill="#6cc644" stroke="black" points="204,-1830 32,-1830 32,-1776 204,-1776 204,-1830"/>
<text text-anchor="middle" x="118" y="-1807" font-family="Sans" font-size="10.00">pull-request</text>
<text text-anchor="middle" x="118" y="-1794" font-family="Sans" font-size="10.00">configuration-modules-core#1148</text>
</a>
</g>
<!-- configuration&#45;modules&#45;core#952 -->
<g id="node45" class="node"><title>configuration-modules-core#952</title>
<a xlink:href="https://github.com/quattor/configuration-modules-core/issues/952" xlink:title="ncm-spma (yumng): Remove support for package groups" target="_parent">
<ellipse fill="#6cc644" stroke="black" cx="432" cy="-1803" rx="118.087" ry="38.1838"/>
<text text-anchor="middle" x="432" y="-1807" font-family="Sans" font-size="10.00">issue</text>
<text text-anchor="middle" x="432" y="-1794" font-family="Sans" font-size="10.00">configuration-modules-core#952</text>
</a>
</g>
<!-- configuration&#45;modules&#45;core#1148&#45;&gt;configuration&#45;modules&#45;core#952 -->
<g id="edge36" class="edge"><title>configuration-modules-core#1148-&gt;configuration-modules-core#952</title>
<path fill="none" stroke="black" stroke-width="2" d="M204.217,-1803C234.903,-1803 270.151,-1803 303.606,-1803"/>
<polygon fill="black" stroke="black" points="303.924,-1806.5 313.924,-1803 303.924,-1799.5 303.924,-1806.5"/>
<text text-anchor="middle" x="273" y="-1807" font-family="Sans" font-size="10.00">fixes</text>
</g>
<!-- configuration&#45;modules&#45;core#950 -->
<g id="node46" class="node"><title>configuration-modules-core#950</title>
<a xlink:href="https://github.com/quattor/configuration-modules-core/issues/950" xlink:title="ncm-spma: Remove support for package groups from yum backends" target="_parent">
<ellipse fill="#6cc644" stroke="black" cx="118" cy="-1718" rx="118.087" ry="38.1838"/>
<text text-anchor="middle" x="118" y="-1722" font-family="Sans" font-size="10.00">issue</text>
<text text-anchor="middle" x="118" y="-1709" font-family="Sans" font-size="10.00">configuration-modules-core#950</text>
</a>
</g>
<!-- configuration&#45;modules&#45;core#950&#45;&gt;configuration&#45;modules&#45;core#952 -->
<g id="edge40" class="edge"><title>configuration-modules-core#950-&gt;configuration-modules-core#952</title>
<path fill="none" stroke="black" stroke-dasharray="5,2" d="M208.401,-1742.47C246.98,-1752.92 292.147,-1765.14 331.747,-1775.86"/>
<polygon fill="none" stroke="black" points="330.855,-1779.25 341.422,-1778.48 332.684,-1772.49 330.855,-1779.25"/>
<text text-anchor="middle" x="273" y="-1767" font-family="Sans" font-size="10.00">requires</text>
</g>
<!-- configuration&#45;modules&#45;core#951 -->
<g id="node48" class="node"><title>configuration-modules-core#951</title>
<a xlink:href="https://github.com/quattor/configuration-modules-core/issues/951" xlink:title="ncm-spma (yum): Remove support for package groups" target="_parent">
<ellipse fill="#6cc644" stroke="black" cx="432" cy="-1709" rx="118.087" ry="38.1838"/>
<text text-anchor="middle" x="432" y="-1713" font-family="Sans" font-size="10.00">issue</text>
<text text-anchor="middle" x="432" y="-1700" font-family="Sans" font-size="10.00">configuration-modules-core#951</text>
</a>
</g>
<!-- configuration&#45;modules&#45;core#950&#45;&gt;configuration&#45;modules&#45;core#951 -->
<g id="edge38" class="edge"><title>configuration-modules-core#950-&gt;configuration-modules-core#951</title>
<path fill="none" stroke="black" stroke-dasharray="5,2" d="M235.815,-1714.62C258.074,-1713.99 281.456,-1713.31 304.01,-1712.67"/>
<polygon fill="none" stroke="black" points="304.412,-1716.16 314.308,-1712.37 304.212,-1709.16 304.412,-1716.16"/>
<text text-anchor="middle" x="273" y="-1719" font-family="Sans" font-size="10.00">requires</text>
</g>
<!-- ncm&#45;ncd#117 -->
<g id="node50" class="node"><title>ncm-ncd#117</title>
<a xlink:href="https://github.com/quattor/ncm-ncd/pull/117" xlink:title="Allow component modules to be loaded from any path" target="_parent">
<polygon fill="#6cc644" stroke="black" points="161,-181 75,-181 75,-127 161,-127 161,-181"/>
<text text-anchor="middle" x="118" y="-158" font-family="Sans" font-size="10.00">pull-request</text>
<text text-anchor="middle" x="118" y="-145" font-family="Sans" font-size="10.00">ncm-ncd#117</text>
</a>
</g>
<!-- ncm&#45;ncd#116 -->
<g id="node52" class="node"><title>ncm-ncd#116</title>
<a xlink:href="https://github.com/quattor/ncm-ncd/issues/116" xlink:title="hasFile() prevents component modules from being relocated" target="_parent">
<ellipse fill="#6cc644" stroke="black" cx="432" cy="-154" rx="61.0181" ry="38.1838"/>
<text text-anchor="middle" x="432" y="-158" font-family="Sans" font-size="10.00">issue</text>
<text text-anchor="middle" x="432" y="-145" font-family="Sans" font-size="10.00">ncm-ncd#116</text>
</a>
</g>
<!-- ncm&#45;ncd#117&#45;&gt;ncm&#45;ncd#116 -->
<g id="edge42" class="edge"><title>ncm-ncd#117-&gt;ncm-ncd#116</title>
<path fill="none" stroke="black" stroke-width="2" d="M161.66,-154C212.954,-154 298.809,-154 360.001,-154"/>
<polygon fill="black" stroke="black" points="360.362,-157.5 370.362,-154 360.362,-150.5 360.362,-157.5"/>
<text text-anchor="middle" x="273" y="-158" font-family="Sans" font-size="10.00">fixes</text>
</g>
<!-- template&#45;library&#45;standard#109 -->
<g id="node53" class="node"><title>template-library-standard#109</title>
<a xlink:href="https://github.com/quattor/template-library-standard/pull/109" xlink:title="Add sample of nvidia workstation and compute GPUs" target="_parent">
<polygon fill="#6e5494" stroke="black" points="196,-930 40,-930 40,-876 196,-876 196,-930"/>
<text text-anchor="middle" x="118" y="-907" font-family="Sans" font-size="10.00">pull-request</text>
<text text-anchor="middle" x="118" y="-894" font-family="Sans" font-size="10.00">template-library-standard#109</text>
</a>
</g>
<!-- template&#45;library&#45;core#172 -->
<g id="node55" class="node"><title>template-library-core#172</title>
<a xlink:href="https://github.com/quattor/template-library-core/pull/172" xlink:title="Allow RAM to be modelled on GPU cards" target="_parent">
<polygon fill="#6e5494" stroke="black" points="501,-930 363,-930 363,-876 501,-876 501,-930"/>
<text text-anchor="middle" x="432" y="-907" font-family="Sans" font-size="10.00">pull-request</text>
<text text-anchor="middle" x="432" y="-894" font-family="Sans" font-size="10.00">template-library-core#172</text>
</a>
</g>
<!-- template&#45;library&#45;standard#109&#45;&gt;template&#45;library&#45;core#172 -->
<g id="edge44" class="edge"><title>template-library-standard#109-&gt;template-library-core#172</title>
<path fill="none" stroke="black" stroke-dasharray="5,2" d="M196.83,-903C244.389,-903 304.795,-903 352.478,-903"/>
<polygon fill="none" stroke="black" points="352.758,-906.5 362.758,-903 352.758,-899.5 352.758,-906.5"/>
<text text-anchor="middle" x="273" y="-907" font-family="Sans" font-size="10.00">requires</text>
</g>
</g>
</svg>
