<?xml version="1.0" encoding="UTF-8" standalone="no"?>
<?xml-stylesheet href="relationships.css" type="text/css"?>
<!-- Generated by graphviz version 2.26.0 (20091210.2329)
 -->
<!-- Title: Dependencies Pages: 1 -->
<svg xmlns="http://www.w3.org/2000/svg" xmlns:xlink="http://www.w3.org/1999/xlink" width="848pt" height="2173pt" viewBox="0.00 0.00 848.00 2172.95">
<g id="graph1" class="graph" transform="scale(1 1) rotate(0) translate(4 2168.95)">
<title>Dependencies</title>
<polygon fill="white" stroke="white" points="-4,5 -4,-2168.95 845,-2168.95 845,5 -4,5"/>
<g id="graph2" class="cluster"><title>cluster_17.10</title>
<polygon fill="none" stroke="black" points="8,-1672.95 8,-1910.95 514,-1910.95 514,-1672.95 8,-1672.95"/>
<text text-anchor="middle" x="261" y="-1896.15" font-family="Sans" font-size="12.00">17.10</text>
</g>
<g id="graph3" class="cluster"><title>cluster_17.8</title>
<polygon fill="none" stroke="black" points="290,-232.954 290,-1664.95 832,-1664.95 832,-232.954 290,-232.954"/>
<text text-anchor="middle" x="561" y="-1650.15" font-family="Sans" font-size="12.00">17.8</text>
</g>
<g id="graph5" class="cluster"><title>cluster_17.12</title>
<polygon fill="none" stroke="black" points="54,-1968.95 54,-2156.95 434,-2156.95 434,-1968.95 54,-1968.95"/>
<text text-anchor="middle" x="244" y="-2142.15" font-family="Sans" font-size="12.00">17.12</text>
</g>
<!-- aii#275 -->
<g id="node1" class="node"><title>aii#275</title>
<a xlink:href="https://github.com/quattor/aii/pull/275" xlink:title="remove aii-freeipa, deprecated by ncm-freeipa AII support" target="_parent">
<polygon fill="#6e5494" stroke="black" points="423,-1621.95 345,-1621.95 345,-1567.95 423,-1567.95 423,-1621.95"/>
<text text-anchor="middle" x="384" y="-1598.95" font-family="Sans" font-size="10.00">pull-request</text>
<text text-anchor="middle" x="384" y="-1585.95" font-family="Sans" font-size="10.00">aii#275</text>
</a>
</g>
<!-- aii#134 -->
<g id="node3" class="node"><title>aii#134</title>
<a xlink:href="https://github.com/quattor/aii/issues/134" xlink:title="Missing freeipa.pm in AII RPM" target="_parent">
<ellipse fill="#bd2c00" stroke="black" cx="702" cy="-1594.95" rx="41.2167" ry="38.1838"/>
<text text-anchor="middle" x="702" y="-1598.95" font-family="Sans" font-size="10.00">issue</text>
<text text-anchor="middle" x="702" y="-1585.95" font-family="Sans" font-size="10.00">aii#134</text>
</a>
</g>
<!-- aii#275&#45;&gt;aii#134 -->
<g id="edge2" class="edge"><title>aii#275-&gt;aii#134</title>
<path fill="none" stroke="black" stroke-width="2" d="M423.632,-1594.95C480.883,-1594.95 586.79,-1594.95 650.177,-1594.95"/>
<polygon fill="black" stroke="black" points="650.352,-1598.45 660.352,-1594.95 650.352,-1591.45 650.352,-1598.45"/>
<text text-anchor="middle" x="543" y="-1598.95" font-family="Sans" font-size="10.00">fixes</text>
</g>
<!-- aii#210 -->
<g id="node4" class="node"><title>aii#210</title>
<a xlink:href="https://github.com/quattor/aii/pull/210" xlink:title="Shellfe: support active config for plugins" target="_parent">
<polygon fill="#6cc644" stroke="black" points="141,-2041.95 63,-2041.95 63,-1987.95 141,-1987.95 141,-2041.95"/>
<text text-anchor="middle" x="102" y="-2018.95" font-family="Sans" font-size="10.00">pull-request</text>
<text text-anchor="middle" x="102" y="-2005.95" font-family="Sans" font-size="10.00">aii#210</text>
</a>
</g>
<!-- aii#209 -->
<g id="node6" class="node"><title>aii#209</title>
<a xlink:href="https://github.com/quattor/aii/issues/209" xlink:title="support ACTIVE_CONFIG" target="_parent">
<ellipse fill="#6cc644" stroke="black" cx="384" cy="-2014.95" rx="41.2167" ry="38.1838"/>
<text text-anchor="middle" x="384" y="-2018.95" font-family="Sans" font-size="10.00">issue</text>
<text text-anchor="middle" x="384" y="-2005.95" font-family="Sans" font-size="10.00">aii#209</text>
</a>
</g>
<!-- aii#210&#45;&gt;aii#209 -->
<g id="edge4" class="edge"><title>aii#210-&gt;aii#209</title>
<path fill="none" stroke="black" stroke-width="2" d="M141.508,-2014.95C191.35,-2014.95 277.184,-2014.95 332.226,-2014.95"/>
<polygon fill="black" stroke="black" points="332.467,-2018.45 342.467,-2014.95 332.467,-2011.45 332.467,-2018.45"/>
<text text-anchor="middle" x="225" y="-2018.95" font-family="Sans" font-size="10.00">fixes</text>
</g>
<!-- ncm&#45;ncd#74 -->
<g id="node8" class="node"><title>ncm-ncd#74</title>
<a xlink:href="https://github.com/quattor/ncm-ncd/pull/74" xlink:title="Set the current active config as an attribute to the component" target="_parent">
<polygon fill="#6cc644" stroke="black" points="425,-2124.95 343,-2124.95 343,-2070.95 425,-2070.95 425,-2124.95"/>
<text text-anchor="middle" x="384" y="-2101.95" font-family="Sans" font-size="10.00">pull-request</text>
<text text-anchor="middle" x="384" y="-2088.95" font-family="Sans" font-size="10.00">ncm-ncd#74</text>
</a>
</g>
<!-- aii#210&#45;&gt;ncm&#45;ncd#74 -->
<g id="edge6" class="edge"><title>aii#210-&gt;ncm-ncd#74</title>
<path fill="none" stroke="black" stroke-dasharray="5,2" d="M141.508,-2026.58C191.596,-2041.32 278.034,-2066.77 333.04,-2082.95"/>
<polygon fill="none" stroke="black" points="332.348,-2086.4 342.929,-2085.87 334.325,-2079.68 332.348,-2086.4"/>
<text text-anchor="middle" x="225" y="-2059.95" font-family="Sans" font-size="10.00">requires</text>
</g>
<!-- aii#203 -->
<g id="node10" class="node"><title>aii#203</title>
<polygon fill="lightgrey" stroke="black" points="413,-1959.45 355,-1959.45 355,-1918.45 413,-1918.45 413,-1959.45"/>
<text text-anchor="middle" x="384" y="-1936.45" font-family="Sans" font-size="10.00">aii#203</text>
</g>
<!-- aii#210&#45;&gt;aii#203 -->
<g id="edge8" class="edge"><title>aii#210-&gt;aii#203</title>
<path fill="none" stroke="black" stroke-dasharray="5,2" d="M141.812,-2001.38C174.004,-1990.68 220.618,-1975.8 262,-1964.95 289.189,-1957.82 320.169,-1951.24 344.106,-1946.48"/>
<polygon fill="none" stroke="black" points="345.097,-1949.86 354.235,-1944.49 343.748,-1942.99 345.097,-1949.86"/>
<text text-anchor="middle" x="225" y="-1984.95" font-family="Sans" font-size="10.00">requires</text>
</g>
<!-- configuration&#45;modules&#45;core#1181 -->
<g id="node11" class="node"><title>configuration-modules-core#1181</title>
<a xlink:href="https://github.com/quattor/configuration-modules-core/pull/1181" xlink:title="ncm-network: NoActionSupported" target="_parent">
<polygon fill="#6e5494" stroke="black" points="470,-1532.95 298,-1532.95 298,-1478.95 470,-1478.95 470,-1532.95"/>
<text text-anchor="middle" x="384" y="-1509.95" font-family="Sans" font-size="10.00">pull-request</text>
<text text-anchor="middle" x="384" y="-1496.95" font-family="Sans" font-size="10.00">configuration-modules-core#1181</text>
</a>
</g>
<!-- configuration&#45;modules&#45;core#1086 -->
<g id="node13" class="node"><title>configuration-modules-core#1086</title>
<a xlink:href="https://github.com/quattor/configuration-modules-core/issues/1086" xlink:title="ncm-network: declare NoActionSupported" target="_parent">
<ellipse fill="#bd2c00" stroke="black" cx="702" cy="-1500.95" rx="121.122" ry="38.1838"/>
<text text-anchor="middle" x="702" y="-1504.95" font-family="Sans" font-size="10.00">issue</text>
<text text-anchor="middle" x="702" y="-1491.95" font-family="Sans" font-size="10.00">configuration-modules-core#1086</text>
</a>
</g>
<!-- configuration&#45;modules&#45;core#1181&#45;&gt;configuration&#45;modules&#45;core#1086 -->
<g id="edge34" class="edge"><title>configuration-modules-core#1181-&gt;configuration-modules-core#1086</title>
<path fill="none" stroke="black" stroke-width="2" d="M470.072,-1492.41C487.857,-1490.14 506.502,-1488.14 524,-1486.95 541.614,-1485.76 560.201,-1485.8 578.456,-1486.57"/>
<polygon fill="black" stroke="black" points="578.394,-1490.07 588.555,-1487.07 578.741,-1483.08 578.394,-1490.07"/>
<text text-anchor="middle" x="543" y="-1490.95" font-family="Sans" font-size="10.00">fixes</text>
</g>
<!-- configuration&#45;modules&#45;core#1181&#45;&gt;configuration&#45;modules&#45;core#1086 -->
<g id="edge10" class="edge"><title>configuration-modules-core#1181-&gt;configuration-modules-core#1086</title>
<path fill="none" stroke="black" stroke-width="2" d="M470.055,-1504.6C500.811,-1504.12 536.215,-1503.56 569.951,-1503.03"/>
<polygon fill="black" stroke="black" points="570.417,-1506.52 580.361,-1502.87 570.307,-1499.52 570.417,-1506.52"/>
<text text-anchor="middle" x="543" y="-1507.95" font-family="Sans" font-size="10.00">fixes</text>
</g>
<!-- configuration&#45;modules&#45;core#1169 -->
<g id="node14" class="node"><title>configuration-modules-core#1169</title>
<a xlink:href="https://github.com/quattor/configuration-modules-core/pull/1169" xlink:title="ncm-accounts: is_user_or_group function can be used without component" target="_parent">
<polygon fill="#6e5494" stroke="black" points="470,-1433.95 298,-1433.95 298,-1379.95 470,-1379.95 470,-1433.95"/>
<text text-anchor="middle" x="384" y="-1410.95" font-family="Sans" font-size="10.00">pull-request</text>
<text text-anchor="middle" x="384" y="-1397.95" font-family="Sans" font-size="10.00">configuration-modules-core#1169</text>
</a>
</g>
<!-- configuration&#45;modules&#45;core#1166 -->
<g id="node16" class="node"><title>configuration-modules-core#1166</title>
<a xlink:href="https://github.com/quattor/configuration-modules-core/issues/1166" xlink:title="ncm-systemd: schema depends on components/accounts/functions" target="_parent">
<ellipse fill="#bd2c00" stroke="black" cx="702" cy="-1406.95" rx="121.122" ry="38.1838"/>
<text text-anchor="middle" x="702" y="-1410.95" font-family="Sans" font-size="10.00">issue</text>
<text text-anchor="middle" x="702" y="-1397.95" font-family="Sans" font-size="10.00">configuration-modules-core#1166</text>
</a>
</g>
<!-- configuration&#45;modules&#45;core#1169&#45;&gt;configuration&#45;modules&#45;core#1166 -->
<g id="edge36" class="edge"><title>configuration-modules-core#1169-&gt;configuration-modules-core#1166</title>
<path fill="none" stroke="black" stroke-width="2" d="M470.109,-1394.84C487.892,-1392.8 506.526,-1391.01 524,-1389.95 542.603,-1388.83 562.27,-1389.17 581.479,-1390.34"/>
<polygon fill="black" stroke="black" points="581.257,-1393.83 591.474,-1391.03 581.738,-1386.85 581.257,-1393.83"/>
<text text-anchor="middle" x="543" y="-1393.95" font-family="Sans" font-size="10.00">fixes</text>
</g>
<!-- configuration&#45;modules&#45;core#1169&#45;&gt;configuration&#45;modules&#45;core#1166 -->
<g id="edge12" class="edge"><title>configuration-modules-core#1169-&gt;configuration-modules-core#1166</title>
<path fill="none" stroke="black" stroke-width="2" d="M470.055,-1406.95C500.811,-1406.95 536.215,-1406.95 569.951,-1406.95"/>
<polygon fill="black" stroke="black" points="570.361,-1410.45 580.361,-1406.95 570.361,-1403.45 570.361,-1410.45"/>
<text text-anchor="middle" x="543" y="-1410.95" font-family="Sans" font-size="10.00">fixes</text>
</g>
<!-- configuration&#45;modules&#45;core#1167 -->
<g id="node17" class="node"><title>configuration-modules-core#1167</title>
<a xlink:href="https://github.com/quattor/configuration-modules-core/pull/1167" xlink:title="ncm-cups: fix compatibility with EL7" target="_parent">
<polygon fill="#6e5494" stroke="black" points="470,-1339.95 298,-1339.95 298,-1285.95 470,-1285.95 470,-1339.95"/>
<text text-anchor="middle" x="384" y="-1316.95" font-family="Sans" font-size="10.00">pull-request</text>
<text text-anchor="middle" x="384" y="-1303.95" font-family="Sans" font-size="10.00">configuration-modules-core#1167</text>
</a>
</g>
<!-- configuration&#45;modules&#45;core#1161 -->
<g id="node19" class="node"><title>configuration-modules-core#1161</title>
<a xlink:href="https://github.com/quattor/configuration-modules-core/issues/1161" xlink:title="ncm-cups 17.7.0 broken on EL7 (pre-EL7 chkconfig dependency)" target="_parent">
<ellipse fill="#bd2c00" stroke="black" cx="702" cy="-1312.95" rx="121.122" ry="38.1838"/>
<text text-anchor="middle" x="702" y="-1316.95" font-family="Sans" font-size="10.00">issue</text>
<text text-anchor="middle" x="702" y="-1303.95" font-family="Sans" font-size="10.00">configuration-modules-core#1161</text>
</a>
</g>
<!-- configuration&#45;modules&#45;core#1167&#45;&gt;configuration&#45;modules&#45;core#1161 -->
<g id="edge38" class="edge"><title>configuration-modules-core#1167-&gt;configuration-modules-core#1161</title>
<path fill="none" stroke="black" stroke-width="2" d="M470.109,-1300.84C487.892,-1298.8 506.526,-1297.01 524,-1295.95 542.603,-1294.83 562.27,-1295.17 581.479,-1296.34"/>
<polygon fill="black" stroke="black" points="581.257,-1299.83 591.474,-1297.03 581.738,-1292.85 581.257,-1299.83"/>
<text text-anchor="middle" x="543" y="-1299.95" font-family="Sans" font-size="10.00">fixes</text>
</g>
<!-- configuration&#45;modules&#45;core#1167&#45;&gt;configuration&#45;modules&#45;core#1161 -->
<g id="edge14" class="edge"><title>configuration-modules-core#1167-&gt;configuration-modules-core#1161</title>
<path fill="none" stroke="black" stroke-width="2" d="M470.055,-1312.95C500.811,-1312.95 536.215,-1312.95 569.951,-1312.95"/>
<polygon fill="black" stroke="black" points="570.361,-1316.45 580.361,-1312.95 570.361,-1309.45 570.361,-1316.45"/>
<text text-anchor="middle" x="543" y="-1316.95" font-family="Sans" font-size="10.00">fixes</text>
</g>
<!-- configuration&#45;modules&#45;core#1163 -->
<g id="node20" class="node"><title>configuration-modules-core#1163</title>
<a xlink:href="https://github.com/quattor/configuration-modules-core/pull/1163" xlink:title="ncm-directoryservices: remove unsupported component" target="_parent">
<polygon fill="#6e5494" stroke="black" points="470,-1245.95 298,-1245.95 298,-1191.95 470,-1191.95 470,-1245.95"/>
<text text-anchor="middle" x="384" y="-1222.95" font-family="Sans" font-size="10.00">pull-request</text>
<text text-anchor="middle" x="384" y="-1209.95" font-family="Sans" font-size="10.00">configuration-modules-core#1163</text>
</a>
</g>
<!-- configuration&#45;modules&#45;core#1052 -->
<g id="node22" class="node"><title>configuration-modules-core#1052</title>
<a xlink:href="https://github.com/quattor/configuration-modules-core/issues/1052" xlink:title="ncm-directoryservices: Archive and remove from repository" target="_parent">
<ellipse fill="#bd2c00" stroke="black" cx="702" cy="-1218.95" rx="121.122" ry="38.1838"/>
<text text-anchor="middle" x="702" y="-1222.95" font-family="Sans" font-size="10.00">issue</text>
<text text-anchor="middle" x="702" y="-1209.95" font-family="Sans" font-size="10.00">configuration-modules-core#1052</text>
</a>
</g>
<!-- configuration&#45;modules&#45;core#1163&#45;&gt;configuration&#45;modules&#45;core#1052 -->
<g id="edge40" class="edge"><title>configuration-modules-core#1163-&gt;configuration-modules-core#1052</title>
<path fill="none" stroke="black" stroke-width="2" d="M470.109,-1206.84C487.892,-1204.8 506.526,-1203.01 524,-1201.95 542.603,-1200.83 562.27,-1201.17 581.479,-1202.34"/>
<polygon fill="black" stroke="black" points="581.257,-1205.83 591.474,-1203.03 581.738,-1198.85 581.257,-1205.83"/>
<text text-anchor="middle" x="543" y="-1205.95" font-family="Sans" font-size="10.00">fixes</text>
</g>
<!-- configuration&#45;modules&#45;core#1163&#45;&gt;configuration&#45;modules&#45;core#1052 -->
<g id="edge16" class="edge"><title>configuration-modules-core#1163-&gt;configuration-modules-core#1052</title>
<path fill="none" stroke="black" stroke-width="2" d="M470.055,-1218.95C500.811,-1218.95 536.215,-1218.95 569.951,-1218.95"/>
<polygon fill="black" stroke="black" points="570.361,-1222.45 580.361,-1218.95 570.361,-1215.45 570.361,-1222.45"/>
<text text-anchor="middle" x="543" y="-1222.95" font-family="Sans" font-size="10.00">fixes</text>
</g>
<!-- configuration&#45;modules&#45;core#1162 -->
<g id="node23" class="node"><title>configuration-modules-core#1162</title>
<a xlink:href="https://github.com/quattor/configuration-modules-core/pull/1162" xlink:title="ncm-mcx: remove unsupported component" target="_parent">
<polygon fill="#6e5494" stroke="black" points="470,-1151.95 298,-1151.95 298,-1097.95 470,-1097.95 470,-1151.95"/>
<text text-anchor="middle" x="384" y="-1128.95" font-family="Sans" font-size="10.00">pull-request</text>
<text text-anchor="middle" x="384" y="-1115.95" font-family="Sans" font-size="10.00">configuration-modules-core#1162</text>
</a>
</g>
<!-- configuration&#45;modules&#45;core#1054 -->
<g id="node25" class="node"><title>configuration-modules-core#1054</title>
<a xlink:href="https://github.com/quattor/configuration-modules-core/issues/1054" xlink:title="ncm-mcx: Archive and remove from repository" target="_parent">
<ellipse fill="#bd2c00" stroke="black" cx="702" cy="-1124.95" rx="121.122" ry="38.1838"/>
<text text-anchor="middle" x="702" y="-1128.95" font-family="Sans" font-size="10.00">issue</text>
<text text-anchor="middle" x="702" y="-1115.95" font-family="Sans" font-size="10.00">configuration-modules-core#1054</text>
</a>
</g>
<!-- configuration&#45;modules&#45;core#1162&#45;&gt;configuration&#45;modules&#45;core#1054 -->
<g id="edge42" class="edge"><title>configuration-modules-core#1162-&gt;configuration-modules-core#1054</title>
<path fill="none" stroke="black" stroke-width="2" d="M470.109,-1112.84C487.892,-1110.8 506.526,-1109.01 524,-1107.95 542.603,-1106.83 562.27,-1107.17 581.479,-1108.34"/>
<polygon fill="black" stroke="black" points="581.257,-1111.83 591.474,-1109.03 581.738,-1104.85 581.257,-1111.83"/>
<text text-anchor="middle" x="543" y="-1111.95" font-family="Sans" font-size="10.00">fixes</text>
</g>
<!-- configuration&#45;modules&#45;core#1162&#45;&gt;configuration&#45;modules&#45;core#1054 -->
<g id="edge18" class="edge"><title>configuration-modules-core#1162-&gt;configuration-modules-core#1054</title>
<path fill="none" stroke="black" stroke-width="2" d="M470.055,-1124.95C500.811,-1124.95 536.215,-1124.95 569.951,-1124.95"/>
<polygon fill="black" stroke="black" points="570.361,-1128.45 580.361,-1124.95 570.361,-1121.45 570.361,-1128.45"/>
<text text-anchor="middle" x="543" y="-1128.95" font-family="Sans" font-size="10.00">fixes</text>
</g>
<!-- configuration&#45;modules&#45;core#1159 -->
<g id="node26" class="node"><title>configuration-modules-core#1159</title>
<a xlink:href="https://github.com/quattor/configuration-modules-core/pull/1159" xlink:title="ncm-authconfig: Remove deprecated startstop property" target="_parent">
<polygon fill="#6e5494" stroke="black" points="470,-1010.95 298,-1010.95 298,-956.954 470,-956.954 470,-1010.95"/>
<text text-anchor="middle" x="384" y="-987.954" font-family="Sans" font-size="10.00">pull-request</text>
<text text-anchor="middle" x="384" y="-974.954" font-family="Sans" font-size="10.00">configuration-modules-core#1159</text>
</a>
</g>
<!-- configuration&#45;modules&#45;core#1145 -->
<g id="node28" class="node"><title>configuration-modules-core#1145</title>
<a xlink:href="https://github.com/quattor/configuration-modules-core/issues/1145" xlink:title="ncm-authconfig: Remove startstop property" target="_parent">
<ellipse fill="#bd2c00" stroke="black" cx="702" cy="-1030.95" rx="121.122" ry="38.1838"/>
<text text-anchor="middle" x="702" y="-1034.95" font-family="Sans" font-size="10.00">issue</text>
<text text-anchor="middle" x="702" y="-1021.95" font-family="Sans" font-size="10.00">configuration-modules-core#1145</text>
</a>
</g>
<!-- configuration&#45;modules&#45;core#1159&#45;&gt;configuration&#45;modules&#45;core#1145 -->
<g id="edge44" class="edge"><title>configuration-modules-core#1159-&gt;configuration-modules-core#1145</title>
<path fill="none" stroke="black" stroke-width="2" d="M470.301,-988.772C499.522,-991.054 532.276,-994.328 562,-998.954 573.356,-1000.72 585.161,-1002.89 596.885,-1005.26"/>
<polygon fill="black" stroke="black" points="596.201,-1008.69 606.703,-1007.29 597.62,-1001.83 596.201,-1008.69"/>
<text text-anchor="middle" x="543" y="-1002.95" font-family="Sans" font-size="10.00">fixes</text>
</g>
<!-- configuration&#45;modules&#45;core#1159&#45;&gt;configuration&#45;modules&#45;core#1145 -->
<g id="edge20" class="edge"><title>configuration-modules-core#1159-&gt;configuration-modules-core#1145</title>
<path fill="none" stroke="black" stroke-width="2" d="M470.263,-1005.67C487.951,-1009.56 506.509,-1013.23 524,-1015.95 539.733,-1018.4 556.316,-1020.47 572.774,-1022.22"/>
<polygon fill="black" stroke="black" points="572.693,-1025.73 582.997,-1023.26 573.404,-1018.76 572.693,-1025.73"/>
<text text-anchor="middle" x="543" y="-1024.95" font-family="Sans" font-size="10.00">fixes</text>
</g>
<!-- configuration&#45;modules&#45;core#1143 -->
<g id="node30" class="node"><title>configuration-modules-core#1143</title>
<a xlink:href="https://github.com/quattor/configuration-modules-core/issues/1143" xlink:title="ncm-authconfig: What is startstop supposed to do?" target="_parent">
<ellipse fill="#bd2c00" stroke="black" cx="702" cy="-936.954" rx="121.122" ry="38.1838"/>
<text text-anchor="middle" x="702" y="-940.954" font-family="Sans" font-size="10.00">issue</text>
<text text-anchor="middle" x="702" y="-927.954" font-family="Sans" font-size="10.00">configuration-modules-core#1143</text>
</a>
</g>
<!-- configuration&#45;modules&#45;core#1159&#45;&gt;configuration&#45;modules&#45;core#1143 -->
<g id="edge22" class="edge"><title>configuration-modules-core#1159-&gt;configuration-modules-core#1143</title>
<path fill="none" stroke="black" stroke-width="2" d="M470.055,-971.235C504.501,-966.144 544.778,-960.191 582.012,-954.688"/>
<polygon fill="black" stroke="black" points="582.534,-958.149 591.915,-953.224 581.511,-951.224 582.534,-958.149"/>
<text text-anchor="middle" x="543" y="-965.954" font-family="Sans" font-size="10.00">fixes</text>
</g>
<!-- configuration&#45;modules&#45;core#1159&#45;&gt;configuration&#45;modules&#45;core#1143 -->
<g id="edge46" class="edge"><title>configuration-modules-core#1159-&gt;configuration-modules-core#1143</title>
<path fill="none" stroke="black" stroke-width="2" d="M463.532,-956.914C483.086,-951.312 504.12,-946.148 524,-942.954 538.901,-940.56 554.59,-938.861 570.225,-937.678"/>
<polygon fill="black" stroke="black" points="570.747,-941.151 580.483,-936.974 570.267,-934.167 570.747,-941.151"/>
<text text-anchor="middle" x="543" y="-946.954" font-family="Sans" font-size="10.00">fixes</text>
</g>
<!-- configuration&#45;modules&#45;core#1151 -->
<g id="node31" class="node"><title>configuration-modules-core#1151</title>
<a xlink:href="https://github.com/quattor/configuration-modules-core/pull/1151" xlink:title="Escape / unescape functions from CCM::Path" target="_parent">
<polygon fill="#6e5494" stroke="black" points="470,-919.954 298,-919.954 298,-865.954 470,-865.954 470,-919.954"/>
<text text-anchor="middle" x="384" y="-896.954" font-family="Sans" font-size="10.00">pull-request</text>
<text text-anchor="middle" x="384" y="-883.954" font-family="Sans" font-size="10.00">configuration-modules-core#1151</text>
</a>
</g>
<!-- configuration&#45;modules&#45;core#1083 -->
<g id="node33" class="node"><title>configuration-modules-core#1083</title>
<a xlink:href="https://github.com/quattor/configuration-modules-core/issues/1083" xlink:title="warnings due to deprecated CCM modules" target="_parent">
<ellipse fill="#bd2c00" stroke="black" cx="702" cy="-842.954" rx="121.122" ry="38.1838"/>
<text text-anchor="middle" x="702" y="-846.954" font-family="Sans" font-size="10.00">issue</text>
<text text-anchor="middle" x="702" y="-833.954" font-family="Sans" font-size="10.00">configuration-modules-core#1083</text>
</a>
</g>
<!-- configuration&#45;modules&#45;core#1151&#45;&gt;configuration&#45;modules&#45;core#1083 -->
<g id="edge24" class="edge"><title>configuration-modules-core#1151-&gt;configuration-modules-core#1083</title>
<path fill="none" stroke="black" stroke-width="2" d="M470.098,-872.656C484.98,-868.149 500.119,-862.909 514,-856.954 518.763,-854.91 519.037,-852.449 524,-850.954 538.699,-846.525 554.389,-843.512 570.133,-841.533"/>
<polygon fill="black" stroke="black" points="570.927,-844.966 580.477,-840.378 570.15,-838.01 570.927,-844.966"/>
<text text-anchor="middle" x="543" y="-854.954" font-family="Sans" font-size="10.00">fixes</text>
</g>
<!-- configuration&#45;modules&#45;core#1151&#45;&gt;configuration&#45;modules&#45;core#1083 -->
<g id="edge48" class="edge"><title>configuration-modules-core#1151-&gt;configuration-modules-core#1083</title>
<path fill="none" stroke="black" stroke-width="2" d="M470.055,-879.423C504.923,-873.941 545.766,-867.519 583.38,-861.605"/>
<polygon fill="black" stroke="black" points="584.045,-865.043 593.38,-860.032 582.958,-858.128 584.045,-865.043"/>
<text text-anchor="middle" x="543" y="-873.954" font-family="Sans" font-size="10.00">fixes</text>
</g>
<!-- configuration&#45;modules&#45;core#1149 -->
<g id="node34" class="node"><title>configuration-modules-core#1149</title>
<a xlink:href="https://github.com/quattor/configuration-modules-core/pull/1149" xlink:title="ncm-metaconfig: rsyslog: rainer script configuration" target="_parent">
<polygon fill="#6cc644" stroke="black" points="188,-1806.95 16,-1806.95 16,-1752.95 188,-1752.95 188,-1806.95"/>
<text text-anchor="middle" x="102" y="-1783.95" font-family="Sans" font-size="10.00">pull-request</text>
<text text-anchor="middle" x="102" y="-1770.95" font-family="Sans" font-size="10.00">configuration-modules-core#1149</text>
</a>
</g>
<!-- configuration&#45;modules&#45;core#1126 -->
<g id="node36" class="node"><title>configuration-modules-core#1126</title>
<a xlink:href="https://github.com/quattor/configuration-modules-core/pull/1126" xlink:title="ncm-metaconfig: cleanup and switch to 00-tqu" target="_parent">
<polygon fill="#6e5494" stroke="black" points="470,-847.954 298,-847.954 298,-793.954 470,-793.954 470,-847.954"/>
<text text-anchor="middle" x="384" y="-824.954" font-family="Sans" font-size="10.00">pull-request</text>
<text text-anchor="middle" x="384" y="-811.954" font-family="Sans" font-size="10.00">configuration-modules-core#1126</text>
</a>
</g>
<!-- configuration&#45;modules&#45;core#1149&#45;&gt;configuration&#45;modules&#45;core#1126 -->
<g id="edge26" class="edge"><title>configuration-modules-core#1149-&gt;configuration-modules-core#1126</title>
<path fill="none" stroke="black" stroke-dasharray="5,2" d="M179.886,-1752.91C182.885,-1750.2 185.62,-1747.23 188,-1743.95 188,-1743.95 262,-856.954 262,-856.954 269.227,-848.081 278.528,-841.325 288.765,-836.193"/>
<polygon fill="none" stroke="black" points="290.266,-839.356 297.975,-832.088 287.416,-832.962 290.266,-839.356"/>
<text text-anchor="middle" x="225" y="-1510.95" font-family="Sans" font-size="10.00">requires</text>
</g>
<!-- configuration&#45;modules&#45;core#1149&#45;&gt;configuration&#45;modules&#45;core#1126 -->
<g id="edge50" class="edge"><title>configuration-modules-core#1149-&gt;configuration-modules-core#1126</title>
<path fill="none" stroke="black" stroke-dasharray="5,2" d="M180.464,-1752.74C183.265,-1750.08 185.804,-1747.16 188,-1743.95 229.841,-1682.89 179.636,-1147.13 206,-1077.95 215.323,-1053.49 233.768,-1057.05 244,-1032.95 259.368,-996.767 236.887,-887.203 262,-856.954 269.255,-848.215 278.52,-841.534 288.693,-836.437"/>
<polygon fill="none" stroke="black" points="290.135,-839.627 297.84,-832.354 287.282,-833.235 290.135,-839.627"/>
<text text-anchor="middle" x="225" y="-1081.95" font-family="Sans" font-size="10.00">requires</text>
</g>
<!-- configuration&#45;modules&#45;core#1136 -->
<g id="node37" class="node"><title>configuration-modules-core#1136</title>
<a xlink:href="https://github.com/quattor/configuration-modules-core/pull/1136" xlink:title="ncm-gmond: cleanup and support new configuration options" target="_parent">
<polygon fill="#6e5494" stroke="black" points="470,-771.954 298,-771.954 298,-717.954 470,-717.954 470,-771.954"/>
<text text-anchor="middle" x="384" y="-748.954" font-family="Sans" font-size="10.00">pull-request</text>
<text text-anchor="middle" x="384" y="-735.954" font-family="Sans" font-size="10.00">configuration-modules-core#1136</text>
</a>
</g>
<!-- configuration&#45;modules&#45;core#1116 -->
<g id="node39" class="node"><title>configuration-modules-core#1116</title>
<a xlink:href="https://github.com/quattor/configuration-modules-core/issues/1116" xlink:title="ncm-gmond: configuration options missing from schema" target="_parent">
<ellipse fill="#bd2c00" stroke="black" cx="702" cy="-748.954" rx="121.122" ry="38.1838"/>
<text text-anchor="middle" x="702" y="-752.954" font-family="Sans" font-size="10.00">issue</text>
<text text-anchor="middle" x="702" y="-739.954" font-family="Sans" font-size="10.00">configuration-modules-core#1116</text>
</a>
</g>
<!-- configuration&#45;modules&#45;core#1136&#45;&gt;configuration&#45;modules&#45;core#1116 -->
<g id="edge28" class="edge"><title>configuration-modules-core#1136-&gt;configuration-modules-core#1116</title>
<path fill="none" stroke="black" stroke-width="2" d="M470.418,-732.392C499.5,-729.572 532.141,-727.937 562,-729.954 568.577,-730.398 575.316,-730.958 582.111,-731.606"/>
<polygon fill="black" stroke="black" points="581.792,-735.091 592.093,-732.613 582.494,-728.127 581.792,-735.091"/>
<text text-anchor="middle" x="543" y="-733.954" font-family="Sans" font-size="10.00">fixes</text>
</g>
<!-- configuration&#45;modules&#45;core#1136&#45;&gt;configuration&#45;modules&#45;core#1116 -->
<g id="edge52" class="edge"><title>configuration-modules-core#1136-&gt;configuration-modules-core#1116</title>
<path fill="none" stroke="black" stroke-width="2" d="M470.055,-746.036C500.811,-746.423 536.215,-746.868 569.951,-747.293"/>
<polygon fill="black" stroke="black" points="570.318,-750.798 580.361,-747.424 570.406,-743.798 570.318,-750.798"/>
<text text-anchor="middle" x="543" y="-751.954" font-family="Sans" font-size="10.00">fixes</text>
</g>
<!-- configuration&#45;modules&#45;core#1132 -->
<g id="node40" class="node"><title>configuration-modules-core#1132</title>
<a xlink:href="https://github.com/quattor/configuration-modules-core/pull/1132" xlink:title="ncm-metaconfig: hnormalise" target="_parent">
<polygon fill="#6e5494" stroke="black" points="470,-366.954 298,-366.954 298,-312.954 470,-312.954 470,-366.954"/>
<text text-anchor="middle" x="384" y="-343.954" font-family="Sans" font-size="10.00">pull-request</text>
<text text-anchor="middle" x="384" y="-330.954" font-family="Sans" font-size="10.00">configuration-modules-core#1132</text>
</a>
</g>
<!-- configuration&#45;modules&#45;core#1028 -->
<g id="node42" class="node"><title>configuration-modules-core#1028</title>
<polygon fill="lightgrey" stroke="black" points="788,-107.454 616,-107.454 616,-66.4538 788,-66.4538 788,-107.454"/>
<text text-anchor="middle" x="702" y="-84.4538" font-family="Sans" font-size="10.00">configuration-modules-core#1028</text>
</g>
<!-- configuration&#45;modules&#45;core#1132&#45;&gt;configuration&#45;modules&#45;core#1028 -->
<g id="edge30" class="edge"><title>configuration-modules-core#1132-&gt;configuration-modules-core#1028</title>
<path fill="none" stroke="black" stroke-dasharray="5,2" d="M470.028,-331.893C486.884,-326.366 502.79,-317.627 514,-303.954 533.354,-280.348 508.053,-192.982 524,-166.954 534.313,-150.12 547.853,-157.723 562,-143.954 572.602,-133.635 567.929,-124.506 580,-115.954 587.994,-110.29 596.947,-105.721 606.275,-102.038"/>
<polygon fill="none" stroke="black" points="607.484,-105.323 615.707,-98.6417 605.112,-98.7367 607.484,-105.323"/>
<text text-anchor="middle" x="543" y="-170.954" font-family="Sans" font-size="10.00">requires</text>
</g>
<!-- configuration&#45;modules&#45;core#1132&#45;&gt;configuration&#45;modules&#45;core#1028 -->
<g id="edge54" class="edge"><title>configuration-modules-core#1132-&gt;configuration-modules-core#1028</title>
<path fill="none" stroke="black" stroke-dasharray="5,2" d="M470.285,-332.1C487.127,-326.563 502.962,-317.766 514,-303.954 528.514,-285.792 507.537,-111.369 524,-94.9538 545.157,-73.8584 575.685,-67.5418 605.503,-67.8553"/>
<polygon fill="none" stroke="black" points="605.458,-71.3558 615.573,-68.2041 605.7,-64.36 605.458,-71.3558"/>
<text text-anchor="middle" x="543" y="-98.9538" font-family="Sans" font-size="10.00">requires</text>
</g>
<!-- configuration&#45;modules&#45;core#1124 -->
<g id="node43" class="node"><title>configuration-modules-core#1124</title>
<a xlink:href="https://github.com/quattor/configuration-modules-core/pull/1124" xlink:title="ncm-cron: cleanup and switch to 00-tqu" target="_parent">
<polygon fill="#6e5494" stroke="black" points="470,-294.954 298,-294.954 298,-240.954 470,-240.954 470,-294.954"/>
<text text-anchor="middle" x="384" y="-271.954" font-family="Sans" font-size="10.00">pull-request</text>
<text text-anchor="middle" x="384" y="-258.954" font-family="Sans" font-size="10.00">configuration-modules-core#1124</text>
</a>
</g>
<!-- CAF#230 -->
<g id="node45" class="node"><title>CAF#230</title>
<polygon fill="lightgrey" stroke="black" points="737,-49.4538 667,-49.4538 667,-8.4538 737,-8.4538 737,-49.4538"/>
<text text-anchor="middle" x="702" y="-26.4538" font-family="Sans" font-size="10.00">CAF#230</text>
</g>
<!-- configuration&#45;modules&#45;core#1124&#45;&gt;CAF#230 -->
<g id="edge32" class="edge"><title>configuration-modules-core#1124-&gt;CAF#230</title>
<path fill="none" stroke="black" stroke-dasharray="5,2" d="M470.083,-263.574C486.936,-258.675 502.826,-250.445 514,-236.954 529.183,-218.621 506.78,-39.388 524,-22.9538 558.717,10.1783 616.763,0.93162 657.091,-11.4864"/>
<polygon fill="none" stroke="black" points="656.09,-14.8412 666.682,-14.6008 658.252,-8.18339 656.09,-14.8412"/>
<text text-anchor="middle" x="543" y="-26.9538" font-family="Sans" font-size="10.00">requires</text>
</g>
<!-- configuration&#45;modules&#45;core#1124&#45;&gt;CAF#230 -->
<g id="edge56" class="edge"><title>configuration-modules-core#1124-&gt;CAF#230</title>
<path fill="none" stroke="black" stroke-dasharray="5,2" d="M470.323,-263.397C487.057,-258.492 502.837,-250.303 514,-236.954 539.414,-206.561 497.581,-88.4768 524,-58.9538 541.194,-39.7393 609.83,-32.8312 656.671,-30.3477"/>
<polygon fill="none" stroke="black" points="657.072,-33.8325 666.893,-29.8567 656.736,-26.8406 657.072,-33.8325"/>
<text text-anchor="middle" x="543" y="-62.9538" font-family="Sans" font-size="10.00">requires</text>
</g>
<!-- configuration&#45;modules&#45;core#1119 -->
<g id="node58" class="node"><title>configuration-modules-core#1119</title>
<a xlink:href="https://github.com/quattor/configuration-modules-core/pull/1119" xlink:title="ncm-systemd: cleanup, restarting modified unitfiles and initial handling of unconfigured units" target="_parent">
<polygon fill="#6cc644" stroke="black" points="188,-1878.95 16,-1878.95 16,-1824.95 188,-1824.95 188,-1878.95"/>
<text text-anchor="middle" x="102" y="-1855.95" font-family="Sans" font-size="10.00">pull-request</text>
<text text-anchor="middle" x="102" y="-1842.95" font-family="Sans" font-size="10.00">configuration-modules-core#1119</text>
</a>
</g>
<!-- configuration&#45;modules&#45;core#1095 -->
<g id="node60" class="node"><title>configuration-modules-core#1095</title>
<a xlink:href="https://github.com/quattor/configuration-modules-core/issues/1095" xlink:title="Manual intervention required in order for drop-in unit files to have any affect" target="_parent">
<ellipse fill="#6cc644" stroke="black" cx="384" cy="-1840.95" rx="121.122" ry="38.1838"/>
<text text-anchor="middle" x="384" y="-1844.95" font-family="Sans" font-size="10.00">issue</text>
<text text-anchor="middle" x="384" y="-1831.95" font-family="Sans" font-size="10.00">configuration-modules-core#1095</text>
</a>
</g>
<!-- configuration&#45;modules&#45;core#1119&#45;&gt;configuration&#45;modules&#45;core#1095 -->
<g id="edge58" class="edge"><title>configuration-modules-core#1119-&gt;configuration-modules-core#1095</title>
<path fill="none" stroke="black" stroke-width="2" d="M188.227,-1843.99C194.238,-1843.59 200.208,-1843.24 206,-1842.95 220.94,-1842.22 236.593,-1841.7 252.155,-1841.33"/>
<polygon fill="black" stroke="black" points="252.439,-1844.82 262.36,-1841.1 252.286,-1837.82 252.439,-1844.82"/>
<text text-anchor="middle" x="225" y="-1846.95" font-family="Sans" font-size="10.00">fixes</text>
</g>
<!-- configuration&#45;modules&#45;core#1087 -->
<g id="node61" class="node"><title>configuration-modules-core#1087</title>
<a xlink:href="https://github.com/quattor/configuration-modules-core/pull/1087" xlink:title="ncm-network: cleanup, fixes and new features" target="_parent">
<polygon fill="#6e5494" stroke="black" points="470,-438.954 298,-438.954 298,-384.954 470,-384.954 470,-438.954"/>
<text text-anchor="middle" x="384" y="-415.954" font-family="Sans" font-size="10.00">pull-request</text>
<text text-anchor="middle" x="384" y="-402.954" font-family="Sans" font-size="10.00">configuration-modules-core#1087</text>
</a>
</g>
<!-- configuration&#45;modules&#45;core#1087&#45;&gt;CAF#230 -->
<g id="edge70" class="edge"><title>configuration-modules-core#1087-&gt;CAF#230</title>
<path fill="none" stroke="black" stroke-dasharray="5,2" d="M470.03,-404.273C486.992,-398.739 502.942,-389.9 514,-375.954 531.203,-354.257 508.973,-150.211 524,-126.954 534.247,-111.094 549.459,-122.07 562,-107.954 577.686,-90.2967 562.389,-73.692 580,-57.9538 600.83,-39.3384 631.431,-32.0986 656.774,-29.5076"/>
<polygon fill="none" stroke="black" points="657.226,-32.9824 666.91,-28.6838 656.659,-26.0055 657.226,-32.9824"/>
<text text-anchor="middle" x="543" y="-130.954" font-family="Sans" font-size="10.00">requires</text>
</g>
<!-- configuration&#45;modules&#45;core#1082 -->
<g id="node63" class="node"><title>configuration-modules-core#1082</title>
<a xlink:href="https://github.com/quattor/configuration-modules-core/issues/1082" xlink:title="ncm-network: Allow extra routing options for the default route" target="_parent">
<ellipse fill="#bd2c00" stroke="black" cx="702" cy="-278.954" rx="121.122" ry="38.1838"/>
<text text-anchor="middle" x="702" y="-282.954" font-family="Sans" font-size="10.00">issue</text>
<text text-anchor="middle" x="702" y="-269.954" font-family="Sans" font-size="10.00">configuration-modules-core#1082</text>
</a>
</g>
<!-- configuration&#45;modules&#45;core#1087&#45;&gt;configuration&#45;modules&#45;core#1082 -->
<g id="edge60" class="edge"><title>configuration-modules-core#1087-&gt;configuration-modules-core#1082</title>
<path fill="none" stroke="black" stroke-width="2" d="M470.326,-393.006C485.258,-388.343 500.355,-382.701 514,-375.954 546.987,-359.641 547.847,-343.856 580,-325.954 589.663,-320.574 600.068,-315.539 610.581,-310.913"/>
<polygon fill="black" stroke="black" points="612.016,-314.106 619.833,-306.954 609.262,-307.67 612.016,-314.106"/>
<text text-anchor="middle" x="543" y="-374.954" font-family="Sans" font-size="10.00">fixes</text>
</g>
<!-- configuration&#45;modules&#45;core#870 -->
<g id="node65" class="node"><title>configuration-modules-core#870</title>
<a xlink:href="https://github.com/quattor/configuration-modules-core/issues/870" xlink:title="ncm-network: hostname is not set in el7" target="_parent">
<ellipse fill="#bd2c00" stroke="black" cx="702" cy="-372.954" rx="118.087" ry="38.1838"/>
<text text-anchor="middle" x="702" y="-376.954" font-family="Sans" font-size="10.00">issue</text>
<text text-anchor="middle" x="702" y="-363.954" font-family="Sans" font-size="10.00">configuration-modules-core#870</text>
</a>
</g>
<!-- configuration&#45;modules&#45;core#1087&#45;&gt;configuration&#45;modules&#45;core#870 -->
<g id="edge62" class="edge"><title>configuration-modules-core#1087-&gt;configuration-modules-core#870</title>
<path fill="none" stroke="black" stroke-width="2" d="M470.055,-401.4C504.27,-397.204 544.239,-392.302 581.264,-387.761"/>
<polygon fill="black" stroke="black" points="582.122,-391.182 591.622,-386.491 581.27,-384.234 582.122,-391.182"/>
<text text-anchor="middle" x="543" y="-397.954" font-family="Sans" font-size="10.00">fixes</text>
</g>
<!-- configuration&#45;modules&#45;core#1109 -->
<g id="node67" class="node"><title>configuration-modules-core#1109</title>
<a xlink:href="https://github.com/quattor/configuration-modules-core/issues/1109" xlink:title="ncm-network: systemd rpm scripts remove HOSTNAME from /etc/sysconfig/network" target="_parent">
<ellipse fill="#bd2c00" stroke="black" cx="702" cy="-466.954" rx="121.122" ry="38.1838"/>
<text text-anchor="middle" x="702" y="-470.954" font-family="Sans" font-size="10.00">issue</text>
<text text-anchor="middle" x="702" y="-457.954" font-family="Sans" font-size="10.00">configuration-modules-core#1109</text>
</a>
</g>
<!-- configuration&#45;modules&#45;core#1087&#45;&gt;configuration&#45;modules&#45;core#1109 -->
<g id="edge64" class="edge"><title>configuration-modules-core#1087-&gt;configuration-modules-core#1109</title>
<path fill="none" stroke="black" stroke-width="2" d="M470.055,-426.838C505.514,-432.97 547.152,-440.172 585.29,-446.768"/>
<polygon fill="black" stroke="black" points="584.973,-450.265 595.423,-448.521 586.166,-443.368 584.973,-450.265"/>
<text text-anchor="middle" x="543" y="-445.954" font-family="Sans" font-size="10.00">fixes</text>
</g>
<!-- configuration&#45;modules&#45;core#1085 -->
<g id="node69" class="node"><title>configuration-modules-core#1085</title>
<polygon fill="lightgrey" stroke="black" points="788,-165.454 616,-165.454 616,-124.454 788,-124.454 788,-165.454"/>
<text text-anchor="middle" x="702" y="-142.454" font-family="Sans" font-size="10.00">configuration-modules-core#1085</text>
</g>
<!-- configuration&#45;modules&#45;core#1087&#45;&gt;configuration&#45;modules&#45;core#1085 -->
<g id="edge66" class="edge"><title>configuration-modules-core#1087-&gt;configuration-modules-core#1085</title>
<path fill="none" stroke="black" stroke-dasharray="1,5" d="M470.079,-403.934C486.932,-398.405 502.823,-389.655 514,-375.954 534.697,-350.583 510.316,-258.699 524,-228.954 538.58,-197.261 549.467,-190.828 580,-173.954 588.202,-169.421 597.096,-165.592 606.216,-162.359"/>
<polygon fill="black" stroke="black" points="615.783,-159.202 607.697,-166.609 611.035,-160.769 606.287,-162.336 606.287,-162.336 606.287,-162.336 611.035,-160.769 604.876,-158.063 615.783,-159.202 615.783,-159.202"/>
<text text-anchor="middle" x="543" y="-232.954" font-family="Sans" font-size="10.00">replaces</text>
</g>
<!-- configuration&#45;modules&#45;core#1070 -->
<g id="node71" class="node"><title>configuration-modules-core#1070</title>
<polygon fill="lightgrey" stroke="black" points="788,-223.454 616,-223.454 616,-182.454 788,-182.454 788,-223.454"/>
<text text-anchor="middle" x="702" y="-200.454" font-family="Sans" font-size="10.00">configuration-modules-core#1070</text>
</g>
<!-- configuration&#45;modules&#45;core#1087&#45;&gt;configuration&#45;modules&#45;core#1070 -->
<g id="edge68" class="edge"><title>configuration-modules-core#1087-&gt;configuration-modules-core#1070</title>
<path fill="none" stroke="black" stroke-dasharray="1,5" d="M470.273,-402.499C486.702,-397.014 502.37,-388.643 514,-375.954 530.492,-357.96 515.343,-344.775 524,-321.954 541.112,-276.842 540.714,-256.964 580,-228.954 588.001,-223.249 596.999,-218.75 606.388,-215.208"/>
<polygon fill="black" stroke="black" points="615.886,-211.976 607.868,-219.458 611.152,-213.587 606.419,-215.198 606.419,-215.198 606.419,-215.198 611.152,-213.587 604.969,-210.938 615.886,-211.976 615.886,-211.976"/>
<text text-anchor="middle" x="543" y="-325.954" font-family="Sans" font-size="10.00">replaces</text>
</g>
<!-- configuration&#45;modules&#45;core#1058 -->
<g id="node73" class="node"><title>configuration-modules-core#1058</title>
<a xlink:href="https://github.com/quattor/configuration-modules-core/pull/1058" xlink:title="ncm-ssh: disable insecure ssh ciphersuites and macs" target="_parent">
<polygon fill="#6cc644" stroke="black" points="188,-1734.95 16,-1734.95 16,-1680.95 188,-1680.95 188,-1734.95"/>
<text text-anchor="middle" x="102" y="-1711.95" font-family="Sans" font-size="10.00">pull-request</text>
<text text-anchor="middle" x="102" y="-1698.95" font-family="Sans" font-size="10.00">configuration-modules-core#1058</text>
</a>
</g>
<!-- configuration&#45;modules&#45;core#983 -->
<g id="node75" class="node"><title>configuration-modules-core#983</title>
<polygon fill="lightgrey" stroke="black" points="467,-223.454 301,-223.454 301,-182.454 467,-182.454 467,-223.454"/>
<text text-anchor="middle" x="384" y="-200.454" font-family="Sans" font-size="10.00">configuration-modules-core#983</text>
</g>
<!-- configuration&#45;modules&#45;core#1058&#45;&gt;configuration&#45;modules&#45;core#983 -->
<g id="edge72" class="edge"><title>configuration-modules-core#1058-&gt;configuration-modules-core#983</title>
<path fill="none" stroke="black" stroke-dasharray="1,5" d="M103.049,-1680.79C110.705,-1488.84 160.546,-341.346 262,-228.954 269.856,-220.25 279.846,-214.065 290.716,-209.723"/>
<polygon fill="black" stroke="black" points="300.463,-206.364 292.475,-213.877 295.736,-207.993 291.009,-209.622 291.009,-209.622 291.009,-209.622 295.736,-207.993 289.543,-205.368 300.463,-206.364 300.463,-206.364"/>
<text text-anchor="middle" x="225" y="-404.954" font-family="Sans" font-size="10.00">replaces</text>
</g>
<!-- template&#45;library&#45;grid#200 -->
<g id="node76" class="node"><title>template-library-grid#200</title>
<a xlink:href="https://github.com/quattor/template-library-grid/pull/200" xlink:title="Allow location of CREAM monitoring configuration file to be changed" target="_parent">
<polygon fill="#6e5494" stroke="black" points="451,-681.954 317,-681.954 317,-627.954 451,-627.954 451,-681.954"/>
<text text-anchor="middle" x="384" y="-658.954" font-family="Sans" font-size="10.00">pull-request</text>
<text text-anchor="middle" x="384" y="-645.954" font-family="Sans" font-size="10.00">template-library-grid#200</text>
</a>
</g>
<!-- template&#45;library&#45;grid#199 -->
<g id="node78" class="node"><title>template-library-grid#199</title>
<a xlink:href="https://github.com/quattor/template-library-grid/issues/199" xlink:title="template personality/cream_ce/templates/cream-config.templ" target="_parent">
<ellipse fill="#bd2c00" stroke="black" cx="702" cy="-654.954" rx="94.9596" ry="38.1838"/>
<text text-anchor="middle" x="702" y="-658.954" font-family="Sans" font-size="10.00">issue</text>
<text text-anchor="middle" x="702" y="-645.954" font-family="Sans" font-size="10.00">template-library-grid#199</text>
</a>
</g>
<!-- template&#45;library&#45;grid#200&#45;&gt;template&#45;library&#45;grid#199 -->
<g id="edge74" class="edge"><title>template-library-grid#200-&gt;template-library-grid#199</title>
<path fill="none" stroke="black" stroke-width="2" d="M451.829,-654.954C493.807,-654.954 548.59,-654.954 596.187,-654.954"/>
<polygon fill="black" stroke="black" points="596.227,-658.454 606.227,-654.954 596.227,-651.454 596.227,-658.454"/>
<text text-anchor="middle" x="543" y="-658.954" font-family="Sans" font-size="10.00">fixes</text>
</g>
<!-- template&#45;library&#45;standard#104 -->
<g id="node79" class="node"><title>template-library-standard#104</title>
<a xlink:href="https://github.com/quattor/template-library-standard/pull/104" xlink:title="Add CPUs used in Mellanox SN2100 and SN2700 switches" target="_parent">
<polygon fill="#6e5494" stroke="black" points="462,-587.954 306,-587.954 306,-533.954 462,-533.954 462,-587.954"/>
<text text-anchor="middle" x="384" y="-564.954" font-family="Sans" font-size="10.00">pull-request</text>
<text text-anchor="middle" x="384" y="-551.954" font-family="Sans" font-size="10.00">template-library-standard#104</text>
</a>
</g>
<!-- template&#45;library&#45;standard#103 -->
<g id="node81" class="node"><title>template-library-standard#103</title>
<a xlink:href="https://github.com/quattor/template-library-standard/issues/103" xlink:title="hardware/cpu/intel add embedded cpus" target="_parent">
<ellipse fill="#bd2c00" stroke="black" cx="702" cy="-560.954" rx="111.016" ry="38.1838"/>
<text text-anchor="middle" x="702" y="-564.954" font-family="Sans" font-size="10.00">issue</text>
<text text-anchor="middle" x="702" y="-551.954" font-family="Sans" font-size="10.00">template-library-standard#103</text>
</a>
</g>
<!-- template&#45;library&#45;standard#104&#45;&gt;template&#45;library&#45;standard#103 -->
<g id="edge76" class="edge"><title>template-library-standard#104-&gt;template-library-standard#103</title>
<path fill="none" stroke="black" stroke-width="2" d="M462.607,-560.954C498.138,-560.954 540.937,-560.954 580.462,-560.954"/>
<polygon fill="black" stroke="black" points="580.702,-564.454 590.702,-560.954 580.702,-557.454 580.702,-564.454"/>
<text text-anchor="middle" x="543" y="-564.954" font-family="Sans" font-size="10.00">fixes</text>
</g>
</g>
</svg>
