<?xml version="1.0" encoding="UTF-8" standalone="no"?>
<?xml-stylesheet href="relationships.css" type="text/css"?>
<!-- Generated by graphviz version 2.26.0 (20091210.2329)
 -->
<!-- Title: Dependencies Pages: 1 -->
<svg xmlns="http://www.w3.org/2000/svg" xmlns:xlink="http://www.w3.org/1999/xlink" width="1020pt" height="2379pt" viewBox="0.00 0.00 1020.00 2379.00">
<g id="graph1" class="graph" transform="scale(1 1) rotate(0) translate(4 2375)">
<title>Dependencies</title>
<polygon fill="white" stroke="white" points="-4,5 -4,-2375 1017,-2375 1017,5 -4,5"/>
<g id="graph3" class="cluster"><title>cluster_milestone_18.12</title>
<polygon fill="none" stroke="black" points="300,-325 300,-1785 878,-1785 878,-325 300,-325"/>
<text text-anchor="middle" x="589" y="-1770.2" font-family="Sans" font-size="12.00">18.12</text>
</g>
<g id="graph4" class="cluster"><title>cluster_milestone_19.2</title>
<polygon fill="none" stroke="black" points="70,-8 70,-196 488,-196 488,-8 70,-8"/>
<text text-anchor="middle" x="279" y="-181.2" font-family="Sans" font-size="12.00">19.2</text>
</g>
<g id="graph5" class="cluster"><title>cluster_repo_aquilon</title>
<polygon fill="none" stroke="black" points="57,-2031 57,-2363 495,-2363 495,-2031 57,-2031"/>
<text text-anchor="middle" x="276" y="-2348.2" font-family="Sans" font-size="12.00">aquilon</text>
</g>
<!-- aii#299 -->
<g id="node1" class="node"><title>aii#299</title>
<a xlink:href="https://github.com/quattor/aii/pull/299" xlink:title="aii-dhcp: support optional hostname ip verification" target="_parent">
<polygon fill="#6cc644" stroke="black" points="157,-164 79,-164 79,-110 157,-110 157,-164"/>
<text text-anchor="middle" x="118" y="-141" font-family="Sans" font-size="10.00">pull-request</text>
<text text-anchor="middle" x="118" y="-128" font-family="Sans" font-size="10.00">aii#299</text>
</a>
</g>
<!-- aii#296 -->
<g id="node3" class="node"><title>aii#296</title>
<a xlink:href="https://github.com/quattor/aii/pull/296" xlink:title="DHCP plugin updates" target="_parent">
<polygon fill="#6cc644" stroke="black" points="469,-164 391,-164 391,-110 469,-110 469,-164"/>
<text text-anchor="middle" x="430" y="-141" font-family="Sans" font-size="10.00">pull-request</text>
<text text-anchor="middle" x="430" y="-128" font-family="Sans" font-size="10.00">aii#296</text>
</a>
</g>
<!-- aii#299&#45;&gt;aii#296 -->
<g id="edge2" class="edge"><title>aii#299-&gt;aii#296</title>
<path fill="none" stroke="black" stroke-dasharray="5,2" d="M157.571,-135.897C184.705,-135.197 221.529,-134.358 254,-134 296.553,-133.531 344.889,-134.46 380.125,-135.405"/>
<polygon fill="none" stroke="black" points="380.066,-138.904 390.159,-135.683 380.26,-131.907 380.066,-138.904"/>
<text text-anchor="middle" x="272" y="-138" font-family="Sans" font-size="10.00">requires</text>
</g>
<!-- aii#294 -->
<g id="node4" class="node"><title>aii#294</title>
<a xlink:href="https://github.com/quattor/aii/pull/294" xlink:title="aii: ks: disable selinux with kernel param" target="_parent">
<polygon fill="#6e5494" stroke="black" points="469,-1670 391,-1670 391,-1616 469,-1616 469,-1670"/>
<text text-anchor="middle" x="430" y="-1647" font-family="Sans" font-size="10.00">pull-request</text>
<text text-anchor="middle" x="430" y="-1634" font-family="Sans" font-size="10.00">aii#294</text>
</a>
</g>
<!-- aii#293 -->
<g id="node6" class="node"><title>aii#293</title>
<a xlink:href="https://github.com/quattor/aii/issues/293" xlink:title="Disabling selinux during OS installation does not work with CentOS 7.5" target="_parent">
<ellipse fill="#bd2c00" stroke="black" cx="748" cy="-1643" rx="41.2167" ry="38.1838"/>
<text text-anchor="middle" x="748" y="-1647" font-family="Sans" font-size="10.00">issue</text>
<text text-anchor="middle" x="748" y="-1634" font-family="Sans" font-size="10.00">aii#293</text>
</a>
</g>
<!-- aii#294&#45;&gt;aii#293 -->
<g id="edge4" class="edge"><title>aii#294-&gt;aii#293</title>
<path fill="none" stroke="black" stroke-width="2" d="M469.632,-1643C526.883,-1643 632.79,-1643 696.177,-1643"/>
<polygon fill="black" stroke="black" points="696.352,-1646.5 706.352,-1643 696.352,-1639.5 696.352,-1646.5"/>
<text text-anchor="middle" x="589" y="-1647" font-family="Sans" font-size="10.00">fixes</text>
</g>
<!-- aii#291 -->
<g id="node7" class="node"><title>aii#291</title>
<a xlink:href="https://github.com/quattor/aii/pull/291" xlink:title="aii-installfe: add support for --cdburl" target="_parent">
<polygon fill="#6e5494" stroke="black" points="469,-1576 391,-1576 391,-1522 469,-1522 469,-1576"/>
<text text-anchor="middle" x="430" y="-1553" font-family="Sans" font-size="10.00">pull-request</text>
<text text-anchor="middle" x="430" y="-1540" font-family="Sans" font-size="10.00">aii#291</text>
</a>
</g>
<!-- aii#290 -->
<g id="node9" class="node"><title>aii#290</title>
<a xlink:href="https://github.com/quattor/aii/issues/290" xlink:title="18.6.0: aii-installfe should allow to define cdburl" target="_parent">
<ellipse fill="#bd2c00" stroke="black" cx="748" cy="-1549" rx="41.2167" ry="38.1838"/>
<text text-anchor="middle" x="748" y="-1553" font-family="Sans" font-size="10.00">issue</text>
<text text-anchor="middle" x="748" y="-1540" font-family="Sans" font-size="10.00">aii#290</text>
</a>
</g>
<!-- aii#291&#45;&gt;aii#290 -->
<g id="edge6" class="edge"><title>aii#291-&gt;aii#290</title>
<path fill="none" stroke="black" stroke-width="2" d="M469.632,-1549C526.883,-1549 632.79,-1549 696.177,-1549"/>
<polygon fill="black" stroke="black" points="696.352,-1552.5 706.352,-1549 696.352,-1545.5 696.352,-1552.5"/>
<text text-anchor="middle" x="589" y="-1553" font-family="Sans" font-size="10.00">fixes</text>
</g>
<!-- aii#280 -->
<g id="node10" class="node"><title>aii#280</title>
<a xlink:href="https://github.com/quattor/aii/pull/280" xlink:title="Support active configuration attribute for plugins" target="_parent">
<polygon fill="#6cc644" stroke="black" points="469,-391 391,-391 391,-337 469,-337 469,-391"/>
<text text-anchor="middle" x="430" y="-368" font-family="Sans" font-size="10.00">pull-request</text>
<text text-anchor="middle" x="430" y="-355" font-family="Sans" font-size="10.00">aii#280</text>
</a>
</g>
<!-- aii#209 -->
<g id="node12" class="node"><title>aii#209</title>
<a xlink:href="https://github.com/quattor/aii/issues/209" xlink:title="support ACTIVE_CONFIG" target="_parent">
<ellipse fill="#6cc644" stroke="black" cx="748" cy="-371" rx="41.2167" ry="38.1838"/>
<text text-anchor="middle" x="748" y="-375" font-family="Sans" font-size="10.00">issue</text>
<text text-anchor="middle" x="748" y="-362" font-family="Sans" font-size="10.00">aii#209</text>
</a>
</g>
<!-- aii#280&#45;&gt;aii#209 -->
<g id="edge8" class="edge"><title>aii#280-&gt;aii#209</title>
<path fill="none" stroke="black" stroke-width="2" d="M469.632,-364.872C526.883,-366.133 632.79,-368.464 696.177,-369.859"/>
<polygon fill="black" stroke="black" points="696.277,-373.362 706.352,-370.083 696.431,-366.364 696.277,-373.362"/>
<text text-anchor="middle" x="589" y="-372" font-family="Sans" font-size="10.00">fixes</text>
</g>
<!-- ncm&#45;ncd#74 -->
<g id="node14" class="node"><title>ncm-ncd#74</title>
<a xlink:href="https://github.com/quattor/ncm-ncd/pull/74" xlink:title="Set the current active config as an attribute to the component" target="_parent">
<polygon fill="#6e5494" stroke="black" points="789,-481 707,-481 707,-427 789,-427 789,-481"/>
<text text-anchor="middle" x="748" y="-458" font-family="Sans" font-size="10.00">pull-request</text>
<text text-anchor="middle" x="748" y="-445" font-family="Sans" font-size="10.00">ncm-ncd#74</text>
</a>
</g>
<!-- aii#280&#45;&gt;ncm&#45;ncd#74 -->
<g id="edge10" class="edge"><title>aii#280-&gt;ncm-ncd#74</title>
<path fill="none" stroke="black" stroke-dasharray="5,2" d="M469.632,-375.217C527.159,-391.498 633.813,-421.683 697.091,-439.592"/>
<polygon fill="none" stroke="black" points="696.285,-443.001 706.86,-442.357 698.191,-436.266 696.285,-443.001"/>
<text text-anchor="middle" x="589" y="-416" font-family="Sans" font-size="10.00">requires</text>
</g>
<!-- aii#203 -->
<g id="node16" class="node"><title>aii#203</title>
<polygon fill="lightgrey" stroke="black" points="777,-315.5 719,-315.5 719,-274.5 777,-274.5 777,-315.5"/>
<text text-anchor="middle" x="748" y="-292.5" font-family="Sans" font-size="10.00">aii#203</text>
</g>
<!-- aii#280&#45;&gt;aii#203 -->
<g id="edge12" class="edge"><title>aii#280-&gt;aii#203</title>
<path fill="none" stroke="black" stroke-dasharray="5,2" d="M469.776,-355.2C509.364,-346.46 571.861,-332.708 626,-321 653.473,-315.059 684.449,-308.459 708.313,-303.395"/>
<polygon fill="none" stroke="black" points="709.35,-306.753 718.406,-301.255 707.898,-299.905 709.35,-306.753"/>
<text text-anchor="middle" x="589" y="-337" font-family="Sans" font-size="10.00">requires</text>
</g>
<!-- aii#210 -->
<g id="node18" class="node"><title>aii#210</title>
<polygon fill="lightgrey" stroke="black" points="777,-257.5 719,-257.5 719,-216.5 777,-216.5 777,-257.5"/>
<text text-anchor="middle" x="748" y="-234.5" font-family="Sans" font-size="10.00">aii#210</text>
</g>
<!-- aii#280&#45;&gt;aii#210 -->
<g id="edge14" class="edge"><title>aii#280-&gt;aii#210</title>
<path fill="none" stroke="black" stroke-dasharray="1,5" d="M469.55,-360.739C494.869,-357.092 527.454,-349.366 552,-333 563.094,-325.603 560.625,-318.481 570,-309 592.063,-286.686 597.664,-279.482 626,-266 652.06,-253.6 683.844,-246.266 708.437,-242.077"/>
<polygon fill="black" stroke="black" points="718.498,-240.468 709.334,-246.49 713.561,-241.257 708.624,-242.047 708.624,-242.047 708.624,-242.047 713.561,-241.257 707.913,-237.603 718.498,-240.468 718.498,-240.468"/>
<text text-anchor="middle" x="589" y="-313" font-family="Sans" font-size="10.00">replaces</text>
</g>
<!-- CAF#257 -->
<g id="node19" class="node"><title>CAF#257</title>
<a xlink:href="https://github.com/quattor/CAF/pull/257" xlink:title="Process: run process as another user" target="_parent">
<polygon fill="#6cc644" stroke="black" points="157,-81 79,-81 79,-27 157,-27 157,-81"/>
<text text-anchor="middle" x="118" y="-58" font-family="Sans" font-size="10.00">pull-request</text>
<text text-anchor="middle" x="118" y="-45" font-family="Sans" font-size="10.00">CAF#257</text>
</a>
</g>
<!-- CAF#253 -->
<g id="node21" class="node"><title>CAF#253</title>
<a xlink:href="https://github.com/quattor/CAF/issues/253" xlink:title="CAF::Process: Include an option to execute the command as an specific user" target="_parent">
<ellipse fill="#6cc644" stroke="black" cx="430" cy="-54" rx="48.9975" ry="38.1838"/>
<text text-anchor="middle" x="430" y="-58" font-family="Sans" font-size="10.00">issue</text>
<text text-anchor="middle" x="430" y="-45" font-family="Sans" font-size="10.00">CAF#253</text>
</a>
</g>
<!-- CAF#257&#45;&gt;CAF#253 -->
<g id="edge16" class="edge"><title>CAF#257-&gt;CAF#253</title>
<path fill="none" stroke="black" stroke-width="2" d="M157.515,-54C211.181,-54 307.576,-54 370.145,-54"/>
<polygon fill="black" stroke="black" points="370.268,-57.5001 380.268,-54 370.268,-50.5001 370.268,-57.5001"/>
<text text-anchor="middle" x="272" y="-58" font-family="Sans" font-size="10.00">fixes</text>
</g>
<!-- CAF#110 -->
<g id="node22" class="node"><title>CAF#110</title>
<a xlink:href="https://github.com/quattor/CAF/pull/110" xlink:title="CAF::Download class: API proposal" target="_parent">
<polygon fill="#6cc644" stroke="black" points="157,-1840 79,-1840 79,-1786 157,-1786 157,-1840"/>
<text text-anchor="middle" x="118" y="-1817" font-family="Sans" font-size="10.00">pull-request</text>
<text text-anchor="middle" x="118" y="-1804" font-family="Sans" font-size="10.00">CAF#110</text>
</a>
</g>
<!-- CAF#120 -->
<g id="node24" class="node"><title>CAF#120</title>
<polygon fill="lightgrey" stroke="black" points="465,-1833.5 395,-1833.5 395,-1792.5 465,-1792.5 465,-1833.5"/>
<text text-anchor="middle" x="430" y="-1810.5" font-family="Sans" font-size="10.00">CAF#120</text>
</g>
<!-- CAF#110&#45;&gt;CAF#120 -->
<g id="edge18" class="edge"><title>CAF#110-&gt;CAF#120</title>
<path fill="none" stroke="black" stroke-dasharray="5,2" d="M157.515,-1813C215.488,-1813 323.324,-1813 384.517,-1813"/>
<polygon fill="none" stroke="black" points="384.651,-1816.5 394.651,-1813 384.651,-1809.5 384.651,-1816.5"/>
<text text-anchor="middle" x="272" y="-1817" font-family="Sans" font-size="10.00">requires</text>
</g>
<!-- CCM#186 -->
<g id="node25" class="node"><title>CCM#186</title>
<a xlink:href="https://github.com/quattor/CCM/pull/186" xlink:title="TextRender: add support for jsonpretty type" target="_parent">
<polygon fill="#6e5494" stroke="black" points="787,-1753 709,-1753 709,-1699 787,-1699 787,-1753"/>
<text text-anchor="middle" x="748" y="-1730" font-family="Sans" font-size="10.00">pull-request</text>
<text text-anchor="middle" x="748" y="-1717" font-family="Sans" font-size="10.00">CCM#186</text>
</a>
</g>
<!-- CAF#265 -->
<g id="node27" class="node"><title>CAF#265</title>
<polygon fill="lightgrey" stroke="black" points="1012,-1786.5 942,-1786.5 942,-1745.5 1012,-1745.5 1012,-1786.5"/>
<text text-anchor="middle" x="977" y="-1763.5" font-family="Sans" font-size="10.00">CAF#265</text>
</g>
<!-- CCM#186&#45;&gt;CAF#265 -->
<g id="edge20" class="edge"><title>CCM#186-&gt;CAF#265</title>
<path fill="none" stroke="black" stroke-dasharray="5,2" d="M787.627,-1732.92C827.836,-1739.95 889.982,-1750.8 932.017,-1758.14"/>
<polygon fill="none" stroke="black" points="931.527,-1761.61 941.98,-1759.88 932.732,-1754.71 931.527,-1761.61"/>
<text text-anchor="middle" x="906" y="-1761" font-family="Sans" font-size="10.00">requires</text>
</g>
<!-- configuration&#45;modules&#45;core#1341 -->
<g id="node28" class="node"><title>configuration-modules-core#1341</title>
<a xlink:href="https://github.com/quattor/configuration-modules-core/pull/1341" xlink:title="ncm-metaconfig: switch to CAF::ServiceActions" target="_parent">
<polygon fill="#6cc644" stroke="black" points="516,-1493 344,-1493 344,-1439 516,-1439 516,-1493"/>
<text text-anchor="middle" x="430" y="-1470" font-family="Sans" font-size="10.00">pull-request</text>
<text text-anchor="middle" x="430" y="-1457" font-family="Sans" font-size="10.00">configuration-modules-core#1341</text>
</a>
</g>
<!-- CAF#267 -->
<g id="node30" class="node"><title>CAF#267</title>
<a xlink:href="https://github.com/quattor/CAF/pull/267" xlink:title="ServiceActions: handle multiple service actions" target="_parent">
<polygon fill="#6cc644" stroke="black" points="787,-1493 709,-1493 709,-1439 787,-1439 787,-1493"/>
<text text-anchor="middle" x="748" y="-1470" font-family="Sans" font-size="10.00">pull-request</text>
<text text-anchor="middle" x="748" y="-1457" font-family="Sans" font-size="10.00">CAF#267</text>
</a>
</g>
<!-- configuration&#45;modules&#45;core#1341&#45;&gt;CAF#267 -->
<g id="edge22" class="edge"><title>configuration-modules-core#1341-&gt;CAF#267</title>
<path fill="none" stroke="black" stroke-dasharray="5,2" d="M516.055,-1466C574.32,-1466 649.268,-1466 697.956,-1466"/>
<polygon fill="none" stroke="black" points="698.233,-1469.5 708.233,-1466 698.233,-1462.5 698.233,-1469.5"/>
<text text-anchor="middle" x="589" y="-1470" font-family="Sans" font-size="10.00">requires</text>
</g>
<!-- configuration&#45;modules&#45;core#1331 -->
<g id="node31" class="node"><title>configuration-modules-core#1331</title>
<a xlink:href="https://github.com/quattor/configuration-modules-core/pull/1331" xlink:title="ncm-cron: Throw an error if multiple cron jobs are defined with the same name" target="_parent">
<polygon fill="#6cc644" stroke="black" points="516,-1410 344,-1410 344,-1356 516,-1356 516,-1410"/>
<text text-anchor="middle" x="430" y="-1387" font-family="Sans" font-size="10.00">pull-request</text>
<text text-anchor="middle" x="430" y="-1374" font-family="Sans" font-size="10.00">configuration-modules-core#1331</text>
</a>
</g>
<!-- configuration&#45;modules&#45;core#1228 -->
<g id="node33" class="node"><title>configuration-modules-core#1228</title>
<a xlink:href="https://github.com/quattor/configuration-modules-core/issues/1228" xlink:title="ncm-cron: Catch cron entries with duplicate names at build time" target="_parent">
<ellipse fill="#6cc644" stroke="black" cx="748" cy="-1383" rx="121.122" ry="38.1838"/>
<text text-anchor="middle" x="748" y="-1387" font-family="Sans" font-size="10.00">issue</text>
<text text-anchor="middle" x="748" y="-1374" font-family="Sans" font-size="10.00">configuration-modules-core#1228</text>
</a>
</g>
<!-- configuration&#45;modules&#45;core#1331&#45;&gt;configuration&#45;modules&#45;core#1228 -->
<g id="edge24" class="edge"><title>configuration-modules-core#1331-&gt;configuration-modules-core#1228</title>
<path fill="none" stroke="black" stroke-width="2" d="M516.055,-1383C546.811,-1383 582.215,-1383 615.951,-1383"/>
<polygon fill="black" stroke="black" points="616.361,-1386.5 626.361,-1383 616.361,-1379.5 616.361,-1386.5"/>
<text text-anchor="middle" x="589" y="-1387" font-family="Sans" font-size="10.00">fixes</text>
</g>
<!-- configuration&#45;modules&#45;core#1308 -->
<g id="node34" class="node"><title>configuration-modules-core#1308</title>
<a xlink:href="https://github.com/quattor/configuration-modules-core/pull/1308" xlink:title="ncm-network: no error wrt missing (IPv4) ip and netmask in a pure IPv6 config" target="_parent">
<polygon fill="#6e5494" stroke="black" points="516,-1316 344,-1316 344,-1262 516,-1262 516,-1316"/>
<text text-anchor="middle" x="430" y="-1293" font-family="Sans" font-size="10.00">pull-request</text>
<text text-anchor="middle" x="430" y="-1280" font-family="Sans" font-size="10.00">configuration-modules-core#1308</text>
</a>
</g>
<!-- configuration&#45;modules&#45;core#1296 -->
<g id="node36" class="node"><title>configuration-modules-core#1296</title>
<a xlink:href="https://github.com/quattor/configuration-modules-core/issues/1296" xlink:title="ncm-network: Returns an error when an interface is configured as IPv6 only" target="_parent">
<ellipse fill="#bd2c00" stroke="black" cx="748" cy="-1289" rx="121.122" ry="38.1838"/>
<text text-anchor="middle" x="748" y="-1293" font-family="Sans" font-size="10.00">issue</text>
<text text-anchor="middle" x="748" y="-1280" font-family="Sans" font-size="10.00">configuration-modules-core#1296</text>
</a>
</g>
<!-- configuration&#45;modules&#45;core#1308&#45;&gt;configuration&#45;modules&#45;core#1296 -->
<g id="edge26" class="edge"><title>configuration-modules-core#1308-&gt;configuration-modules-core#1296</title>
<path fill="none" stroke="black" stroke-width="2" d="M516.055,-1289C546.811,-1289 582.215,-1289 615.951,-1289"/>
<polygon fill="black" stroke="black" points="616.361,-1292.5 626.361,-1289 616.361,-1285.5 616.361,-1292.5"/>
<text text-anchor="middle" x="589" y="-1293" font-family="Sans" font-size="10.00">fixes</text>
</g>
<!-- configuration&#45;modules&#45;core#1299 -->
<g id="node37" class="node"><title>configuration-modules-core#1299</title>
<a xlink:href="https://github.com/quattor/configuration-modules-core/pull/1299" xlink:title="ncm-sysconfig: Automatically quote values containing whitespace" target="_parent">
<polygon fill="#6cc644" stroke="black" points="516,-1222 344,-1222 344,-1168 516,-1168 516,-1222"/>
<text text-anchor="middle" x="430" y="-1199" font-family="Sans" font-size="10.00">pull-request</text>
<text text-anchor="middle" x="430" y="-1186" font-family="Sans" font-size="10.00">configuration-modules-core#1299</text>
</a>
</g>
<!-- configuration&#45;modules&#45;core#1191 -->
<g id="node39" class="node"><title>configuration-modules-core#1191</title>
<a xlink:href="https://github.com/quattor/configuration-modules-core/issues/1191" xlink:title="ncm-sysconfig: Values should be quoted" target="_parent">
<ellipse fill="#6cc644" stroke="black" cx="748" cy="-1195" rx="121.122" ry="38.1838"/>
<text text-anchor="middle" x="748" y="-1199" font-family="Sans" font-size="10.00">issue</text>
<text text-anchor="middle" x="748" y="-1186" font-family="Sans" font-size="10.00">configuration-modules-core#1191</text>
</a>
</g>
<!-- configuration&#45;modules&#45;core#1299&#45;&gt;configuration&#45;modules&#45;core#1191 -->
<g id="edge28" class="edge"><title>configuration-modules-core#1299-&gt;configuration-modules-core#1191</title>
<path fill="none" stroke="black" stroke-width="2" d="M516.055,-1195C546.811,-1195 582.215,-1195 615.951,-1195"/>
<polygon fill="black" stroke="black" points="616.361,-1198.5 626.361,-1195 616.361,-1191.5 616.361,-1198.5"/>
<text text-anchor="middle" x="589" y="-1199" font-family="Sans" font-size="10.00">fixes</text>
</g>
<!-- configuration&#45;modules&#45;core#1279 -->
<g id="node40" class="node"><title>configuration-modules-core#1279</title>
<a xlink:href="https://github.com/quattor/configuration-modules-core/pull/1279" xlink:title="ncm-metaconfig: ganeshav2 add include" target="_parent">
<polygon fill="#6e5494" stroke="black" points="516,-1128 344,-1128 344,-1074 516,-1074 516,-1128"/>
<text text-anchor="middle" x="430" y="-1105" font-family="Sans" font-size="10.00">pull-request</text>
<text text-anchor="middle" x="430" y="-1092" font-family="Sans" font-size="10.00">configuration-modules-core#1279</text>
</a>
</g>
<!-- configuration&#45;modules&#45;core#1276 -->
<g id="node42" class="node"><title>configuration-modules-core#1276</title>
<a xlink:href="https://github.com/quattor/configuration-modules-core/issues/1276" xlink:title="ncm-metaconfig: Ganesha v2 %include option is missing" target="_parent">
<ellipse fill="#bd2c00" stroke="black" cx="748" cy="-1101" rx="121.122" ry="38.1838"/>
<text text-anchor="middle" x="748" y="-1105" font-family="Sans" font-size="10.00">issue</text>
<text text-anchor="middle" x="748" y="-1092" font-family="Sans" font-size="10.00">configuration-modules-core#1276</text>
</a>
</g>
<!-- configuration&#45;modules&#45;core#1279&#45;&gt;configuration&#45;modules&#45;core#1276 -->
<g id="edge30" class="edge"><title>configuration-modules-core#1279-&gt;configuration-modules-core#1276</title>
<path fill="none" stroke="black" stroke-width="2" d="M516.055,-1101C546.811,-1101 582.215,-1101 615.951,-1101"/>
<polygon fill="black" stroke="black" points="616.361,-1104.5 626.361,-1101 616.361,-1097.5 616.361,-1104.5"/>
<text text-anchor="middle" x="589" y="-1105" font-family="Sans" font-size="10.00">fixes</text>
</g>
<!-- configuration&#45;modules&#45;core#1261 -->
<g id="node43" class="node"><title>configuration-modules-core#1261</title>
<a xlink:href="https://github.com/quattor/configuration-modules-core/pull/1261" xlink:title="ncm-openstack: Include ovs and storage support" target="_parent">
<polygon fill="#6cc644" stroke="black" points="516,-987 344,-987 344,-933 516,-933 516,-987"/>
<text text-anchor="middle" x="430" y="-964" font-family="Sans" font-size="10.00">pull-request</text>
<text text-anchor="middle" x="430" y="-951" font-family="Sans" font-size="10.00">configuration-modules-core#1261</text>
</a>
</g>
<!-- configuration&#45;modules&#45;core#1310 -->
<g id="node45" class="node"><title>configuration-modules-core#1310</title>
<a xlink:href="https://github.com/quattor/configuration-modules-core/issues/1310" xlink:title="ncm-openstack: add Heat service support" target="_parent">
<ellipse fill="#6cc644" stroke="black" cx="748" cy="-913" rx="121.122" ry="38.1838"/>
<text text-anchor="middle" x="748" y="-917" font-family="Sans" font-size="10.00">issue</text>
<text text-anchor="middle" x="748" y="-904" font-family="Sans" font-size="10.00">configuration-modules-core#1310</text>
</a>
</g>
<!-- configuration&#45;modules&#45;core#1261&#45;&gt;configuration&#45;modules&#45;core#1310 -->
<g id="edge32" class="edge"><title>configuration-modules-core#1261-&gt;configuration-modules-core#1310</title>
<path fill="none" stroke="black" stroke-width="2" d="M516.055,-947.281C550.501,-942.19 590.778,-936.237 628.012,-930.734"/>
<polygon fill="black" stroke="black" points="628.534,-934.195 637.915,-929.27 627.511,-927.27 628.534,-934.195"/>
<text text-anchor="middle" x="589" y="-942" font-family="Sans" font-size="10.00">fixes</text>
</g>
<!-- configuration&#45;modules&#45;core#1315 -->
<g id="node47" class="node"><title>configuration-modules-core#1315</title>
<a xlink:href="https://github.com/quattor/configuration-modules-core/issues/1315" xlink:title="ncm-openstack: add murano service support" target="_parent">
<ellipse fill="#6cc644" stroke="black" cx="748" cy="-1007" rx="121.122" ry="38.1838"/>
<text text-anchor="middle" x="748" y="-1011" font-family="Sans" font-size="10.00">issue</text>
<text text-anchor="middle" x="748" y="-998" font-family="Sans" font-size="10.00">configuration-modules-core#1315</text>
</a>
</g>
<!-- configuration&#45;modules&#45;core#1261&#45;&gt;configuration&#45;modules&#45;core#1315 -->
<g id="edge34" class="edge"><title>configuration-modules-core#1261-&gt;configuration-modules-core#1315</title>
<path fill="none" stroke="black" stroke-width="2" d="M516.055,-972.719C550.501,-977.81 590.778,-983.763 628.012,-989.266"/>
<polygon fill="black" stroke="black" points="627.511,-992.73 637.915,-990.73 628.534,-985.805 627.511,-992.73"/>
<text text-anchor="middle" x="589" y="-989" font-family="Sans" font-size="10.00">fixes</text>
</g>
<!-- configuration&#45;modules&#45;core#1255 -->
<g id="node48" class="node"><title>configuration-modules-core#1255</title>
<a xlink:href="https://github.com/quattor/configuration-modules-core/pull/1255" xlink:title=" ncm-metaconfig: add irods config files" target="_parent">
<polygon fill="#6cc644" stroke="black" points="516,-1753 344,-1753 344,-1699 516,-1699 516,-1753"/>
<text text-anchor="middle" x="430" y="-1730" font-family="Sans" font-size="10.00">pull-request</text>
<text text-anchor="middle" x="430" y="-1717" font-family="Sans" font-size="10.00">configuration-modules-core#1255</text>
</a>
</g>
<!-- configuration&#45;modules&#45;core#1255&#45;&gt;CCM#186 -->
<g id="edge38" class="edge"><title>configuration-modules-core#1255-&gt;CCM#186</title>
<path fill="none" stroke="black" stroke-dasharray="5,2" d="M516.007,-1723.59C545.206,-1723.03 578.022,-1722.68 608,-1723 637.938,-1723.32 671.471,-1724.03 698.212,-1724.67"/>
<polygon fill="none" stroke="black" points="698.394,-1728.18 708.477,-1724.93 698.567,-1721.18 698.394,-1728.18"/>
<text text-anchor="middle" x="589" y="-1727" font-family="Sans" font-size="10.00">requires</text>
</g>
<!-- configuration&#45;modules&#45;core#1255&#45;&gt;CAF#265 -->
<g id="edge36" class="edge"><title>configuration-modules-core#1255-&gt;CAF#265</title>
<path fill="none" stroke="black" stroke-dasharray="5,2" d="M516.459,-1744.5C550.45,-1751.08 589.908,-1757.88 626,-1762 741.814,-1775.23 771.464,-1771.33 888,-1774 903.996,-1774.37 908.045,-1775.2 924,-1774 926.517,-1773.81 929.096,-1773.57 931.695,-1773.3"/>
<polygon fill="none" stroke="black" points="932.228,-1776.76 941.732,-1772.08 931.383,-1769.81 932.228,-1776.76"/>
<text text-anchor="middle" x="748" y="-1778" font-family="Sans" font-size="10.00">requires</text>
</g>
<!-- configuration&#45;modules&#45;core#1336 -->
<g id="node51" class="node"><title>configuration-modules-core#1336</title>
<a xlink:href="https://github.com/quattor/configuration-modules-core/pull/1336" xlink:title="ncm-network: Add support for CAF::Service actions after changes" target="_parent">
<polygon fill="#6cc644" stroke="black" points="204,-402 32,-402 32,-348 204,-348 204,-402"/>
<text text-anchor="middle" x="118" y="-379" font-family="Sans" font-size="10.00">pull-request</text>
<text text-anchor="middle" x="118" y="-366" font-family="Sans" font-size="10.00">configuration-modules-core#1336</text>
</a>
</g>
<!-- configuration&#45;modules&#45;core#1335 -->
<g id="node53" class="node"><title>configuration-modules-core#1335</title>
<a xlink:href="https://github.com/quattor/configuration-modules-core/pull/1335" xlink:title="ncm-metaconfig: Remove caf_service_action type to allow reuse" target="_parent">
<polygon fill="#6cc644" stroke="black" points="516,-258 344,-258 344,-204 516,-204 516,-258"/>
<text text-anchor="middle" x="430" y="-235" font-family="Sans" font-size="10.00">pull-request</text>
<text text-anchor="middle" x="430" y="-222" font-family="Sans" font-size="10.00">configuration-modules-core#1335</text>
</a>
</g>
<!-- configuration&#45;modules&#45;core#1336&#45;&gt;configuration&#45;modules&#45;core#1335 -->
<g id="edge40" class="edge"><title>configuration-modules-core#1336-&gt;configuration-modules-core#1335</title>
<path fill="none" stroke="black" stroke-dasharray="5,2" d="M176.685,-347.915C229.332,-323.616 306.599,-287.955 361.938,-262.413"/>
<polygon fill="none" stroke="black" points="363.701,-265.454 371.314,-258.086 360.767,-259.099 363.701,-265.454"/>
<text text-anchor="middle" x="272" y="-316" font-family="Sans" font-size="10.00">requires</text>
</g>
<!-- configuration&#45;modules&#45;core#1071 -->
<g id="node55" class="node"><title>configuration-modules-core#1071</title>
<a xlink:href="https://github.com/quattor/configuration-modules-core/issues/1071" xlink:title="ncm-network: support daemons to restart after network changes" target="_parent">
<ellipse fill="#6cc644" stroke="black" cx="430" cy="-770" rx="121.122" ry="38.1838"/>
<text text-anchor="middle" x="430" y="-774" font-family="Sans" font-size="10.00">issue</text>
<text text-anchor="middle" x="430" y="-761" font-family="Sans" font-size="10.00">configuration-modules-core#1071</text>
</a>
</g>
<!-- configuration&#45;modules&#45;core#1336&#45;&gt;configuration&#45;modules&#45;core#1071 -->
<g id="edge42" class="edge"><title>configuration-modules-core#1336-&gt;configuration-modules-core#1071</title>
<path fill="none" stroke="black" stroke-width="2" d="M124.899,-402.344C142.658,-467.294 196.013,-632.178 300,-723 308.096,-730.071 317.338,-736.106 327.078,-741.252"/>
<polygon fill="black" stroke="black" points="325.628,-744.44 336.144,-745.732 328.729,-738.164 325.628,-744.44"/>
<text text-anchor="middle" x="272" y="-713" font-family="Sans" font-size="10.00">fixes</text>
</g>
<!-- template&#45;library&#45;core#191 -->
<g id="node57" class="node"><title>template-library-core#191</title>
<a xlink:href="https://github.com/quattor/template-library-core/pull/191" xlink:title="Allow the caf_service_action to be used by multiple components" target="_parent">
<polygon fill="#6cc644" stroke="black" points="817,-199 679,-199 679,-145 817,-145 817,-199"/>
<text text-anchor="middle" x="748" y="-176" font-family="Sans" font-size="10.00">pull-request</text>
<text text-anchor="middle" x="748" y="-163" font-family="Sans" font-size="10.00">template-library-core#191</text>
</a>
</g>
<!-- configuration&#45;modules&#45;core#1335&#45;&gt;template&#45;library&#45;core#191 -->
<g id="edge44" class="edge"><title>configuration-modules-core#1335-&gt;template-library-core#191</title>
<path fill="none" stroke="black" stroke-dasharray="5,2" d="M516.158,-212.627C533.937,-208.983 552.557,-205.275 570,-202 602.1,-195.973 637.564,-189.881 668.334,-184.776"/>
<polygon fill="none" stroke="black" points="669.281,-188.167 678.577,-183.084 668.14,-181.26 669.281,-188.167"/>
<text text-anchor="middle" x="589" y="-206" font-family="Sans" font-size="10.00">requires</text>
</g>
<!-- configuration&#45;modules&#45;core#1148 -->
<g id="node58" class="node"><title>configuration-modules-core#1148</title>
<a xlink:href="https://github.com/quattor/configuration-modules-core/pull/1148" xlink:title="ncm-spma: Remove support from groups from spma yumng backend" target="_parent">
<polygon fill="#6cc644" stroke="black" points="204,-2010 32,-2010 32,-1956 204,-1956 204,-2010"/>
<text text-anchor="middle" x="118" y="-1987" font-family="Sans" font-size="10.00">pull-request</text>
<text text-anchor="middle" x="118" y="-1974" font-family="Sans" font-size="10.00">configuration-modules-core#1148</text>
</a>
</g>
<!-- configuration&#45;modules&#45;core#952 -->
<g id="node60" class="node"><title>configuration-modules-core#952</title>
<a xlink:href="https://github.com/quattor/configuration-modules-core/issues/952" xlink:title="ncm-spma (yumng): Remove support for package groups" target="_parent">
<ellipse fill="#6cc644" stroke="black" cx="430" cy="-1983" rx="118.087" ry="38.1838"/>
<text text-anchor="middle" x="430" y="-1987" font-family="Sans" font-size="10.00">issue</text>
<text text-anchor="middle" x="430" y="-1974" font-family="Sans" font-size="10.00">configuration-modules-core#952</text>
</a>
</g>
<!-- configuration&#45;modules&#45;core#1148&#45;&gt;configuration&#45;modules&#45;core#952 -->
<g id="edge46" class="edge"><title>configuration-modules-core#1148-&gt;configuration-modules-core#952</title>
<path fill="none" stroke="black" stroke-width="2" d="M204.081,-1983C234.24,-1983 268.794,-1983 301.657,-1983"/>
<polygon fill="black" stroke="black" points="301.795,-1986.5 311.795,-1983 301.795,-1979.5 301.795,-1986.5"/>
<text text-anchor="middle" x="272" y="-1987" font-family="Sans" font-size="10.00">fixes</text>
</g>
<!-- configuration&#45;modules&#45;core#950 -->
<g id="node61" class="node"><title>configuration-modules-core#950</title>
<a xlink:href="https://github.com/quattor/configuration-modules-core/issues/950" xlink:title="ncm-spma: Remove support for package groups from yum backends" target="_parent">
<ellipse fill="#6cc644" stroke="black" cx="118" cy="-1898" rx="118.087" ry="38.1838"/>
<text text-anchor="middle" x="118" y="-1902" font-family="Sans" font-size="10.00">issue</text>
<text text-anchor="middle" x="118" y="-1889" font-family="Sans" font-size="10.00">configuration-modules-core#950</text>
</a>
</g>
<!-- configuration&#45;modules&#45;core#950&#45;&gt;configuration&#45;modules&#45;core#952 -->
<g id="edge50" class="edge"><title>configuration-modules-core#950-&gt;configuration-modules-core#952</title>
<path fill="none" stroke="black" stroke-dasharray="5,2" d="M208.243,-1922.59C246.32,-1932.96 290.794,-1945.08 329.877,-1955.72"/>
<polygon fill="none" stroke="black" points="329.121,-1959.14 339.69,-1958.4 330.961,-1952.39 329.121,-1959.14"/>
<text text-anchor="middle" x="272" y="-1948" font-family="Sans" font-size="10.00">requires</text>
</g>
<!-- configuration&#45;modules&#45;core#951 -->
<g id="node63" class="node"><title>configuration-modules-core#951</title>
<a xlink:href="https://github.com/quattor/configuration-modules-core/issues/951" xlink:title="ncm-spma (yum): Remove support for package groups" target="_parent">
<ellipse fill="#6cc644" stroke="black" cx="430" cy="-1889" rx="118.087" ry="38.1838"/>
<text text-anchor="middle" x="430" y="-1893" font-family="Sans" font-size="10.00">issue</text>
<text text-anchor="middle" x="430" y="-1880" font-family="Sans" font-size="10.00">configuration-modules-core#951</text>
</a>
</g>
<!-- configuration&#45;modules&#45;core#950&#45;&gt;configuration&#45;modules&#45;core#951 -->
<g id="edge48" class="edge"><title>configuration-modules-core#950-&gt;configuration-modules-core#951</title>
<path fill="none" stroke="black" stroke-dasharray="5,2" d="M235.954,-1894.6C257.652,-1893.97 280.397,-1893.32 302.365,-1892.68"/>
<polygon fill="none" stroke="black" points="302.502,-1896.18 312.397,-1892.39 302.3,-1889.18 302.502,-1896.18"/>
<text text-anchor="middle" x="272" y="-1899" font-family="Sans" font-size="10.00">requires</text>
</g>
<!-- ncm&#45;lib&#45;blockdevices#91 -->
<g id="node65" class="node"><title>ncm-lib-blockdevices#91</title>
<a xlink:href="https://github.com/quattor/ncm-lib-blockdevices/pull/91" xlink:title="Filesystem.pm: add option -f to mkfs.xfs" target="_parent">
<polygon fill="#6e5494" stroke="black" points="498,-880 362,-880 362,-826 498,-826 498,-880"/>
<text text-anchor="middle" x="430" y="-857" font-family="Sans" font-size="10.00">pull-request</text>
<text text-anchor="middle" x="430" y="-844" font-family="Sans" font-size="10.00">ncm-lib-blockdevices#91</text>
</a>
</g>
<!-- ncm&#45;lib&#45;blockdevices#90 -->
<g id="node67" class="node"><title>ncm-lib-blockdevices#90</title>
<a xlink:href="https://github.com/quattor/ncm-lib-blockdevices/issues/90" xlink:title="Filesystem: mkfs.xfs should be used with -f" target="_parent">
<ellipse fill="#bd2c00" stroke="black" cx="748" cy="-819" rx="96.1665" ry="38.1838"/>
<text text-anchor="middle" x="748" y="-823" font-family="Sans" font-size="10.00">issue</text>
<text text-anchor="middle" x="748" y="-810" font-family="Sans" font-size="10.00">ncm-lib-blockdevices#90</text>
</a>
</g>
<!-- ncm&#45;lib&#45;blockdevices#91&#45;&gt;ncm&#45;lib&#45;blockdevices#90 -->
<g id="edge52" class="edge"><title>ncm-lib-blockdevices#91-&gt;ncm-lib-blockdevices#90</title>
<path fill="none" stroke="black" stroke-width="2" d="M498.219,-845.706C540.984,-841.134 596.926,-835.153 645.024,-830.01"/>
<polygon fill="black" stroke="black" points="645.59,-833.47 655.161,-828.926 644.846,-826.509 645.59,-833.47"/>
<text text-anchor="middle" x="589" y="-842" font-family="Sans" font-size="10.00">fixes</text>
</g>
<!-- ncm&#45;ncd#117 -->
<g id="node68" class="node"><title>ncm-ncd#117</title>
<a xlink:href="https://github.com/quattor/ncm-ncd/pull/117" xlink:title="Allow component modules to be loaded from any path" target="_parent">
<polygon fill="#6e5494" stroke="black" points="473,-714 387,-714 387,-660 473,-660 473,-714"/>
<text text-anchor="middle" x="430" y="-691" font-family="Sans" font-size="10.00">pull-request</text>
<text text-anchor="middle" x="430" y="-678" font-family="Sans" font-size="10.00">ncm-ncd#117</text>
</a>
</g>
<!-- ncm&#45;ncd#116 -->
<g id="node70" class="node"><title>ncm-ncd#116</title>
<a xlink:href="https://github.com/quattor/ncm-ncd/issues/116" xlink:title="hasFile() prevents component modules from being relocated" target="_parent">
<ellipse fill="#bd2c00" stroke="black" cx="748" cy="-725" rx="61.0181" ry="38.1838"/>
<text text-anchor="middle" x="748" y="-729" font-family="Sans" font-size="10.00">issue</text>
<text text-anchor="middle" x="748" y="-716" font-family="Sans" font-size="10.00">ncm-ncd#116</text>
</a>
</g>
<!-- ncm&#45;ncd#117&#45;&gt;ncm&#45;ncd#116 -->
<g id="edge54" class="edge"><title>ncm-ncd#117-&gt;ncm-ncd#116</title>
<path fill="none" stroke="black" stroke-width="2" d="M473.55,-692.204C526.079,-698.481 615.082,-709.117 677.453,-716.57"/>
<polygon fill="black" stroke="black" points="677.266,-720.072 687.611,-717.784 678.097,-713.122 677.266,-720.072"/>
<text text-anchor="middle" x="589" y="-712" font-family="Sans" font-size="10.00">fixes</text>
</g>
<!-- template&#45;library&#45;core#187 -->
<g id="node71" class="node"><title>template-library-core#187</title>
<a xlink:href="https://github.com/quattor/template-library-core/pull/187" xlink:title="pan/types: fix incorrect regexp for linux_capability" target="_parent">
<polygon fill="#6e5494" stroke="black" points="499,-642 361,-642 361,-588 499,-588 499,-642"/>
<text text-anchor="middle" x="430" y="-619" font-family="Sans" font-size="10.00">pull-request</text>
<text text-anchor="middle" x="430" y="-606" font-family="Sans" font-size="10.00">template-library-core#187</text>
</a>
</g>
<!-- template&#45;library&#45;core#186 -->
<g id="node73" class="node"><title>template-library-core#186</title>
<a xlink:href="https://github.com/quattor/template-library-core/issues/186" xlink:title="18.6.0: linux_capability type regexp incorrect" target="_parent">
<ellipse fill="#bd2c00" stroke="black" cx="748" cy="-631" rx="97.0803" ry="38.1838"/>
<text text-anchor="middle" x="748" y="-635" font-family="Sans" font-size="10.00">issue</text>
<text text-anchor="middle" x="748" y="-622" font-family="Sans" font-size="10.00">template-library-core#186</text>
</a>
</g>
<!-- template&#45;library&#45;core#187&#45;&gt;template&#45;library&#45;core#186 -->
<g id="edge56" class="edge"><title>template-library-core#187-&gt;template-library-core#186</title>
<path fill="none" stroke="black" stroke-width="2" d="M499.001,-618.472C540.44,-620.557 594.041,-623.254 640.89,-625.611"/>
<polygon fill="black" stroke="black" points="640.923,-629.117 651.086,-626.124 641.275,-622.126 640.923,-629.117"/>
<text text-anchor="middle" x="589" y="-628" font-family="Sans" font-size="10.00">fixes</text>
</g>
<!-- template&#45;library&#45;grid#215 -->
<g id="node74" class="node"><title>template-library-grid#215</title>
<a xlink:href="https://github.com/quattor/template-library-grid/pull/215" xlink:title="Committing changes running in production at GRIF" target="_parent">
<polygon fill="#6e5494" stroke="black" points="497,-564 363,-564 363,-510 497,-510 497,-564"/>
<text text-anchor="middle" x="430" y="-541" font-family="Sans" font-size="10.00">pull-request</text>
<text text-anchor="middle" x="430" y="-528" font-family="Sans" font-size="10.00">template-library-grid#215</text>
</a>
</g>
<!-- template&#45;library&#45;grid#214 -->
<g id="node76" class="node"><title>template-library-grid#214</title>
<a xlink:href="https://github.com/quattor/template-library-grid/issues/214" xlink:title="features/htcondor/server/groups: voms-clients package renamed" target="_parent">
<ellipse fill="#bd2c00" stroke="black" cx="748" cy="-537" rx="94.9596" ry="38.1838"/>
<text text-anchor="middle" x="748" y="-541" font-family="Sans" font-size="10.00">issue</text>
<text text-anchor="middle" x="748" y="-528" font-family="Sans" font-size="10.00">template-library-grid#214</text>
</a>
</g>
<!-- template&#45;library&#45;grid#215&#45;&gt;template&#45;library&#45;grid#214 -->
<g id="edge58" class="edge"><title>template-library-grid#215-&gt;template-library-grid#214</title>
<path fill="none" stroke="black" stroke-width="2" d="M497.829,-537C539.807,-537 594.59,-537 642.187,-537"/>
<polygon fill="black" stroke="black" points="642.227,-540.5 652.227,-537 642.227,-533.5 642.227,-540.5"/>
<text text-anchor="middle" x="589" y="-541" font-family="Sans" font-size="10.00">fixes</text>
</g>
<!-- aquilon#115 -->
<g id="node77" class="node"><title>aquilon#115</title>
<a xlink:href="https://github.com/quattor/aquilon/pull/115" xlink:title="services: insert service data early in the object template" target="_parent">
<polygon fill="#6cc644" stroke="black" points="158,-2331 78,-2331 78,-2277 158,-2277 158,-2331"/>
<text text-anchor="middle" x="118" y="-2308" font-family="Sans" font-size="10.00">pull-request</text>
<text text-anchor="middle" x="118" y="-2295" font-family="Sans" font-size="10.00">aquilon#115</text>
</a>
</g>
<!-- aquilon#109 -->
<g id="node79" class="node"><title>aquilon#109</title>
<a xlink:href="https://github.com/quattor/aquilon/issues/109" xlink:title="Why service configuration is included so late in the plenary object?" target="_parent">
<ellipse fill="#6cc644" stroke="black" cx="430" cy="-2293" rx="56.0679" ry="38.1838"/>
<text text-anchor="middle" x="430" y="-2297" font-family="Sans" font-size="10.00">issue</text>
<text text-anchor="middle" x="430" y="-2284" font-family="Sans" font-size="10.00">aquilon#109</text>
</a>
</g>
<!-- aquilon#115&#45;&gt;aquilon#109 -->
<g id="edge60" class="edge"><title>aquilon#115-&gt;aquilon#109</title>
<path fill="none" stroke="black" stroke-width="2" d="M158.15,-2302.58C209.988,-2300.76 300.924,-2297.55 363.238,-2295.35"/>
<polygon fill="black" stroke="black" points="363.497,-2298.85 373.367,-2295 363.25,-2291.85 363.497,-2298.85"/>
<text text-anchor="middle" x="272" y="-2303" font-family="Sans" font-size="10.00">fixes</text>
</g>
<!-- aquilon#110 -->
<g id="node80" class="node"><title>aquilon#110</title>
<a xlink:href="https://github.com/quattor/aquilon/pull/110" xlink:title="Change site and machine namespace to use continent name" target="_parent">
<polygon fill="#6cc644" stroke="black" points="158,-2259 78,-2259 78,-2205 158,-2205 158,-2259"/>
<text text-anchor="middle" x="118" y="-2236" font-family="Sans" font-size="10.00">pull-request</text>
<text text-anchor="middle" x="118" y="-2223" font-family="Sans" font-size="10.00">aquilon#110</text>
</a>
</g>
<!-- aquilon#104 -->
<g id="node82" class="node"><title>aquilon#104</title>
<a xlink:href="https://github.com/quattor/aquilon/issues/104" xlink:title="1.12.62: location related templates cannot be used" target="_parent">
<ellipse fill="#6cc644" stroke="black" cx="430" cy="-2186" rx="56.0679" ry="38.1838"/>
<text text-anchor="middle" x="430" y="-2190" font-family="Sans" font-size="10.00">issue</text>
<text text-anchor="middle" x="430" y="-2177" font-family="Sans" font-size="10.00">aquilon#104</text>
</a>
</g>
<!-- aquilon#110&#45;&gt;aquilon#104 -->
<g id="edge62" class="edge"><title>aquilon#110-&gt;aquilon#104</title>
<path fill="none" stroke="black" stroke-width="2" d="M158.15,-2226.08C210.377,-2218.38 302.294,-2204.83 364.639,-2195.64"/>
<polygon fill="black" stroke="black" points="365.381,-2199.07 374.764,-2194.14 364.36,-2192.14 365.381,-2199.07"/>
<text text-anchor="middle" x="272" y="-2215" font-family="Sans" font-size="10.00">fixes</text>
</g>
<!-- aquilon#91 -->
<g id="node83" class="node"><title>aquilon#91</title>
<a xlink:href="https://github.com/quattor/aquilon/issues/91" xlink:title="1.12.58: city timezone is not passed to the object template" target="_parent">
<ellipse fill="#6cc644" stroke="black" cx="118" cy="-2149" rx="53.033" ry="38.1838"/>
<text text-anchor="middle" x="118" y="-2153" font-family="Sans" font-size="10.00">issue</text>
<text text-anchor="middle" x="118" y="-2140" font-family="Sans" font-size="10.00">aquilon#91</text>
</a>
</g>
<!-- aquilon#91&#45;&gt;aquilon#104 -->
<g id="edge64" class="edge"><title>aquilon#91-&gt;aquilon#104</title>
<path fill="none" stroke="black" stroke-dasharray="5,2" d="M170.574,-2155.23C223.901,-2161.56 306.574,-2171.36 364.213,-2178.2"/>
<polygon fill="none" stroke="black" points="363.97,-2181.69 374.313,-2179.4 364.795,-2174.74 363.97,-2181.69"/>
<text text-anchor="middle" x="272" y="-2172" font-family="Sans" font-size="10.00">requires</text>
</g>
<!-- aquilon#89 -->
<g id="node85" class="node"><title>aquilon#89</title>
<a xlink:href="https://github.com/quattor/aquilon/pull/89" xlink:title="Broker: pass archetype to the object profile" target="_parent">
<polygon fill="#6cc644" stroke="black" points="157,-2093 79,-2093 79,-2039 157,-2039 157,-2093"/>
<text text-anchor="middle" x="118" y="-2070" font-family="Sans" font-size="10.00">pull-request</text>
<text text-anchor="middle" x="118" y="-2057" font-family="Sans" font-size="10.00">aquilon#89</text>
</a>
</g>
<!-- aquilon#88 -->
<g id="node87" class="node"><title>aquilon#88</title>
<a xlink:href="https://github.com/quattor/aquilon/issues/88" xlink:title="1.12.58: the broker should pass the archetype to the object template" target="_parent">
<ellipse fill="#6cc644" stroke="black" cx="430" cy="-2077" rx="53.033" ry="38.1838"/>
<text text-anchor="middle" x="430" y="-2081" font-family="Sans" font-size="10.00">issue</text>
<text text-anchor="middle" x="430" y="-2068" font-family="Sans" font-size="10.00">aquilon#88</text>
</a>
</g>
<!-- aquilon#89&#45;&gt;aquilon#88 -->
<g id="edge66" class="edge"><title>aquilon#89-&gt;aquilon#88</title>
<path fill="none" stroke="black" stroke-width="2" d="M157.515,-2067.39C210.249,-2069.25 304.241,-2072.57 366.856,-2074.77"/>
<polygon fill="black" stroke="black" points="366.891,-2078.28 377.009,-2075.13 367.138,-2071.28 366.891,-2078.28"/>
<text text-anchor="middle" x="272" y="-2076" font-family="Sans" font-size="10.00">fixes</text>
</g>
</g>
</svg>
