<?xml version="1.0" encoding="UTF-8" standalone="no"?>
<?xml-stylesheet href="relationships.css" type="text/css"?>
<!-- Generated by graphviz version 2.26.0 (20091210.2329)
 -->
<!-- Title: Dependencies Pages: 1 -->
<svg xmlns="http://www.w3.org/2000/svg" xmlns:xlink="http://www.w3.org/1999/xlink" width="692pt" height="1646pt" viewBox="0.00 0.00 692.00 1646.00">
<g id="graph1" class="graph" transform="scale(1 1) rotate(0) translate(4 1642)">
<title>Dependencies</title>
<polygon fill="white" stroke="white" points="-4,5 -4,-1642 689,-1642 689,5 -4,5"/>
<g id="graph3" class="cluster"><title>cluster_17.12</title>
<polygon fill="none" stroke="black" points="8,-730 8,-1554 676,-1554 676,-730 8,-730"/>
<text text-anchor="middle" x="342" y="-1539.2" font-family="Sans" font-size="12.00">17.12</text>
</g>
<g id="graph4" class="cluster"><title>cluster_18.3</title>
<polygon fill="none" stroke="black" points="8,-50 8,-614 514,-614 514,-50 8,-50"/>
<text text-anchor="middle" x="261" y="-599.2" font-family="Sans" font-size="12.00">18.3</text>
</g>
<!-- aii#210 -->
<g id="node1" class="node"><title>aii#210</title>
<a xlink:href="https://github.com/quattor/aii/pull/210" xlink:title="Shellfe: support active config for plugins" target="_parent">
<polygon fill="#6cc644" stroke="black" points="141,-499 63,-499 63,-445 141,-445 141,-499"/>
<text text-anchor="middle" x="102" y="-476" font-family="Sans" font-size="10.00">pull-request</text>
<text text-anchor="middle" x="102" y="-463" font-family="Sans" font-size="10.00">aii#210</text>
</a>
</g>
<!-- aii#209 -->
<g id="node3" class="node"><title>aii#209</title>
<a xlink:href="https://github.com/quattor/aii/issues/209" xlink:title="support ACTIVE_CONFIG" target="_parent">
<ellipse fill="#6cc644" stroke="black" cx="384" cy="-472" rx="41.2167" ry="38.1838"/>
<text text-anchor="middle" x="384" y="-476" font-family="Sans" font-size="10.00">issue</text>
<text text-anchor="middle" x="384" y="-463" font-family="Sans" font-size="10.00">aii#209</text>
</a>
</g>
<!-- aii#210&#45;&gt;aii#209 -->
<g id="edge2" class="edge"><title>aii#210-&gt;aii#209</title>
<path fill="none" stroke="black" stroke-width="2" d="M141.508,-472C191.35,-472 277.184,-472 332.226,-472"/>
<polygon fill="black" stroke="black" points="332.467,-475.5 342.467,-472 332.467,-468.5 332.467,-475.5"/>
<text text-anchor="middle" x="225" y="-476" font-family="Sans" font-size="10.00">fixes</text>
</g>
<!-- ncm&#45;ncd#74 -->
<g id="node5" class="node"><title>ncm-ncd#74</title>
<a xlink:href="https://github.com/quattor/ncm-ncd/pull/74" xlink:title="Set the current active config as an attribute to the component" target="_parent">
<polygon fill="#6cc644" stroke="black" points="425,-582 343,-582 343,-528 425,-528 425,-582"/>
<text text-anchor="middle" x="384" y="-559" font-family="Sans" font-size="10.00">pull-request</text>
<text text-anchor="middle" x="384" y="-546" font-family="Sans" font-size="10.00">ncm-ncd#74</text>
</a>
</g>
<!-- aii#210&#45;&gt;ncm&#45;ncd#74 -->
<g id="edge4" class="edge"><title>aii#210-&gt;ncm-ncd#74</title>
<path fill="none" stroke="black" stroke-dasharray="5,2" d="M141.508,-483.628C191.596,-498.37 278.034,-523.811 333.04,-540.001"/>
<polygon fill="none" stroke="black" points="332.348,-543.446 342.929,-542.912 334.325,-536.731 332.348,-543.446"/>
<text text-anchor="middle" x="225" y="-518" font-family="Sans" font-size="10.00">requires</text>
</g>
<!-- aii#203 -->
<g id="node7" class="node"><title>aii#203</title>
<polygon fill="lightgrey" stroke="black" points="413,-40.5 355,-40.5 355,0.5 413,0.5 413,-40.5"/>
<text text-anchor="middle" x="384" y="-17.5" font-family="Sans" font-size="10.00">aii#203</text>
</g>
<!-- aii#210&#45;&gt;aii#203 -->
<g id="edge6" class="edge"><title>aii#210-&gt;aii#203</title>
<path fill="none" stroke="black" stroke-dasharray="5,2" d="M141.797,-455.246C159.088,-445.794 177.711,-432.18 188,-414 225.485,-347.767 163.383,-135.054 206,-72 235.895,-27.7682 301.749,-19.0208 344.432,-18.3464"/>
<polygon fill="none" stroke="black" points="344.49,-21.8464 354.484,-18.3288 344.478,-14.8464 344.49,-21.8464"/>
<text text-anchor="middle" x="225" y="-76" font-family="Sans" font-size="10.00">requires</text>
</g>
<!-- CAF#262 -->
<g id="node8" class="node"><title>CAF#262</title>
<a xlink:href="https://github.com/quattor/CAF/pull/262" xlink:title="FileWriter: set file status when no content was modified" target="_parent">
<polygon fill="#6e5494" stroke="black" points="141,-1512 63,-1512 63,-1458 141,-1458 141,-1512"/>
<text text-anchor="middle" x="102" y="-1489" font-family="Sans" font-size="10.00">pull-request</text>
<text text-anchor="middle" x="102" y="-1476" font-family="Sans" font-size="10.00">CAF#262</text>
</a>
</g>
<!-- CAF#259 -->
<g id="node10" class="node"><title>CAF#259</title>
<a xlink:href="https://github.com/quattor/CAF/issues/259" xlink:title="Filewriter: modify permissions when content is unmodified" target="_parent">
<ellipse fill="#bd2c00" stroke="black" cx="384" cy="-1484" rx="48.9975" ry="38.1838"/>
<text text-anchor="middle" x="384" y="-1488" font-family="Sans" font-size="10.00">issue</text>
<text text-anchor="middle" x="384" y="-1475" font-family="Sans" font-size="10.00">CAF#259</text>
</a>
</g>
<!-- CAF#262&#45;&gt;CAF#259 -->
<g id="edge8" class="edge"><title>CAF#262-&gt;CAF#259</title>
<path fill="none" stroke="black" stroke-width="2" d="M141.992,-1483.1C161.324,-1482.28 184.863,-1481.41 206,-1481 245.346,-1480.24 289.587,-1480.98 324.12,-1481.91"/>
<polygon fill="black" stroke="black" points="324.414,-1485.42 334.509,-1482.21 324.612,-1478.43 324.414,-1485.42"/>
<text text-anchor="middle" x="225" y="-1485" font-family="Sans" font-size="10.00">fixes</text>
</g>
<!-- CAF#257 -->
<g id="node11" class="node"><title>CAF#257</title>
<a xlink:href="https://github.com/quattor/CAF/pull/257" xlink:title="Process: run process as another user" target="_parent">
<polygon fill="#6cc644" stroke="black" points="141,-1440 63,-1440 63,-1386 141,-1386 141,-1440"/>
<text text-anchor="middle" x="102" y="-1417" font-family="Sans" font-size="10.00">pull-request</text>
<text text-anchor="middle" x="102" y="-1404" font-family="Sans" font-size="10.00">CAF#257</text>
</a>
</g>
<!-- CAF#253 -->
<g id="node13" class="node"><title>CAF#253</title>
<a xlink:href="https://github.com/quattor/CAF/issues/253" xlink:title="CAF::Process: Include an option to execute the command as an specific user" target="_parent">
<ellipse fill="#6cc644" stroke="black" cx="384" cy="-1390" rx="48.9975" ry="38.1838"/>
<text text-anchor="middle" x="384" y="-1394" font-family="Sans" font-size="10.00">issue</text>
<text text-anchor="middle" x="384" y="-1381" font-family="Sans" font-size="10.00">CAF#253</text>
</a>
</g>
<!-- CAF#257&#45;&gt;CAF#253 -->
<g id="edge10" class="edge"><title>CAF#257-&gt;CAF#253</title>
<path fill="none" stroke="black" stroke-width="2" d="M141.508,-1409.78C189.027,-1405.9 269.264,-1399.36 324.339,-1394.87"/>
<polygon fill="black" stroke="black" points="324.634,-1398.35 334.316,-1394.05 324.065,-1391.38 324.634,-1398.35"/>
<text text-anchor="middle" x="225" y="-1409" font-family="Sans" font-size="10.00">fixes</text>
</g>
<!-- CAF#256 -->
<g id="node14" class="node"><title>CAF#256</title>
<a xlink:href="https://github.com/quattor/CAF/pull/256" xlink:title="Process: add sensitive option to prevent verbose reporting of the command" target="_parent">
<polygon fill="#6e5494" stroke="black" points="141,-1368 63,-1368 63,-1314 141,-1314 141,-1368"/>
<text text-anchor="middle" x="102" y="-1345" font-family="Sans" font-size="10.00">pull-request</text>
<text text-anchor="middle" x="102" y="-1332" font-family="Sans" font-size="10.00">CAF#256</text>
</a>
</g>
<!-- CAF#254 -->
<g id="node16" class="node"><title>CAF#254</title>
<a xlink:href="https://github.com/quattor/CAF/issues/254" xlink:title="CAF::Process: Include sensitive option" target="_parent">
<ellipse fill="#bd2c00" stroke="black" cx="384" cy="-1296" rx="48.9975" ry="38.1838"/>
<text text-anchor="middle" x="384" y="-1300" font-family="Sans" font-size="10.00">issue</text>
<text text-anchor="middle" x="384" y="-1287" font-family="Sans" font-size="10.00">CAF#254</text>
</a>
</g>
<!-- CAF#256&#45;&gt;CAF#254 -->
<g id="edge12" class="edge"><title>CAF#256-&gt;CAF#254</title>
<path fill="none" stroke="black" stroke-width="2" d="M141.508,-1334.7C189.313,-1327.07 270.229,-1314.15 325.328,-1305.36"/>
<polygon fill="black" stroke="black" points="325.979,-1308.8 335.302,-1303.77 324.876,-1301.89 325.979,-1308.8"/>
<text text-anchor="middle" x="225" y="-1328" font-family="Sans" font-size="10.00">fixes</text>
</g>
<!-- CCM#179 -->
<g id="node17" class="node"><title>CCM#179</title>
<a xlink:href="https://github.com/quattor/CCM/pull/179" xlink:title="TextRender: support unescape keys" target="_parent">
<polygon fill="#6e5494" stroke="black" points="423,-1146 345,-1146 345,-1092 423,-1092 423,-1146"/>
<text text-anchor="middle" x="384" y="-1123" font-family="Sans" font-size="10.00">pull-request</text>
<text text-anchor="middle" x="384" y="-1110" font-family="Sans" font-size="10.00">CCM#179</text>
</a>
</g>
<!-- CCM#178 -->
<g id="node19" class="node"><title>CCM#178</title>
<a xlink:href="https://github.com/quattor/CCM/issues/178" xlink:title="TextRender or getTree should support a way to unescape keys" target="_parent">
<ellipse fill="#bd2c00" stroke="black" cx="616" cy="-1119" rx="51.1176" ry="38.1838"/>
<text text-anchor="middle" x="616" y="-1123" font-family="Sans" font-size="10.00">issue</text>
<text text-anchor="middle" x="616" y="-1110" font-family="Sans" font-size="10.00">CCM#178</text>
</a>
</g>
<!-- CCM#179&#45;&gt;CCM#178 -->
<g id="edge14" class="edge"><title>CCM#179-&gt;CCM#178</title>
<path fill="none" stroke="black" stroke-width="2" d="M423.619,-1119C459.411,-1119 512.668,-1119 554.079,-1119"/>
<polygon fill="black" stroke="black" points="554.334,-1122.5 564.334,-1119 554.334,-1115.5 554.334,-1122.5"/>
<text text-anchor="middle" x="535" y="-1123" font-family="Sans" font-size="10.00">fixes</text>
</g>
<!-- configuration&#45;modules&#45;core#1220 -->
<g id="node20" class="node"><title>configuration-modules-core#1220</title>
<a xlink:href="https://github.com/quattor/configuration-modules-core/pull/1220" xlink:title="ncm-cups: Stop daemon if server not enabled" target="_parent">
<polygon fill="#6cc644" stroke="black" points="188,-405 16,-405 16,-351 188,-351 188,-405"/>
<text text-anchor="middle" x="102" y="-382" font-family="Sans" font-size="10.00">pull-request</text>
<text text-anchor="middle" x="102" y="-369" font-family="Sans" font-size="10.00">configuration-modules-core#1220</text>
</a>
</g>
<!-- configuration&#45;modules&#45;core#1189 -->
<g id="node22" class="node"><title>configuration-modules-core#1189</title>
<a xlink:href="https://github.com/quattor/configuration-modules-core/issues/1189" xlink:title="ncm-cups: Nodetype of client should stop running cups daemon" target="_parent">
<ellipse fill="#6cc644" stroke="black" cx="384" cy="-378" rx="121.122" ry="38.1838"/>
<text text-anchor="middle" x="384" y="-382" font-family="Sans" font-size="10.00">issue</text>
<text text-anchor="middle" x="384" y="-369" font-family="Sans" font-size="10.00">configuration-modules-core#1189</text>
</a>
</g>
<!-- configuration&#45;modules&#45;core#1220&#45;&gt;configuration&#45;modules&#45;core#1189 -->
<g id="edge38" class="edge"><title>configuration-modules-core#1220-&gt;configuration-modules-core#1189</title>
<path fill="none" stroke="black" stroke-width="2" d="M188.128,-362.819C194.163,-362.095 200.165,-361.474 206,-361 224.839,-359.47 244.786,-359.63 264.248,-360.762"/>
<polygon fill="black" stroke="black" points="264.162,-364.264 274.373,-361.439 264.628,-357.279 264.162,-364.264"/>
<text text-anchor="middle" x="225" y="-365" font-family="Sans" font-size="10.00">fixes</text>
</g>
<!-- configuration&#45;modules&#45;core#1220&#45;&gt;configuration&#45;modules&#45;core#1189 -->
<g id="edge16" class="edge"><title>configuration-modules-core#1220-&gt;configuration-modules-core#1189</title>
<path fill="none" stroke="black" stroke-width="2" d="M188.142,-378C208.347,-378 230.333,-378 252.033,-378"/>
<polygon fill="black" stroke="black" points="252.313,-381.5 262.313,-378 252.312,-374.5 252.313,-381.5"/>
<text text-anchor="middle" x="225" y="-382" font-family="Sans" font-size="10.00">fixes</text>
</g>
<!-- configuration&#45;modules&#45;core#1212 -->
<g id="node23" class="node"><title>configuration-modules-core#1212</title>
<a xlink:href="https://github.com/quattor/configuration-modules-core/pull/1212" xlink:title="ncm-systemd: add support for AmbientCapabilities and CapabilityBoundingSet" target="_parent">
<polygon fill="#6cc644" stroke="black" points="188,-1296 16,-1296 16,-1242 188,-1242 188,-1296"/>
<text text-anchor="middle" x="102" y="-1273" font-family="Sans" font-size="10.00">pull-request</text>
<text text-anchor="middle" x="102" y="-1260" font-family="Sans" font-size="10.00">configuration-modules-core#1212</text>
</a>
</g>
<!-- configuration&#45;modules&#45;core#1211 -->
<g id="node25" class="node"><title>configuration-modules-core#1211</title>
<a xlink:href="https://github.com/quattor/configuration-modules-core/issues/1211" xlink:title="ncm-systemd 17.7: AmbientCapabilities service attribute not supported" target="_parent">
<ellipse fill="#6cc644" stroke="black" cx="384" cy="-1202" rx="121.122" ry="38.1838"/>
<text text-anchor="middle" x="384" y="-1206" font-family="Sans" font-size="10.00">issue</text>
<text text-anchor="middle" x="384" y="-1193" font-family="Sans" font-size="10.00">configuration-modules-core#1211</text>
</a>
</g>
<!-- configuration&#45;modules&#45;core#1212&#45;&gt;configuration&#45;modules&#45;core#1211 -->
<g id="edge40" class="edge"><title>configuration-modules-core#1212-&gt;configuration-modules-core#1211</title>
<path fill="none" stroke="black" stroke-width="2" d="M171.324,-1241.89C177.06,-1239.08 182.689,-1236.1 188,-1233 196.751,-1227.89 196.581,-1222.74 206,-1219 220.693,-1213.16 236.586,-1208.98 252.618,-1206.01"/>
<polygon fill="black" stroke="black" points="253.333,-1209.44 262.609,-1204.32 252.165,-1202.54 253.333,-1209.44"/>
<text text-anchor="middle" x="225" y="-1223" font-family="Sans" font-size="10.00">fixes</text>
</g>
<!-- configuration&#45;modules&#45;core#1212&#45;&gt;configuration&#45;modules&#45;core#1211 -->
<g id="edge18" class="edge"><title>configuration-modules-core#1212-&gt;configuration-modules-core#1211</title>
<path fill="none" stroke="black" stroke-width="2" d="M188.142,-1248.53C216.228,-1241.86 247.754,-1234.37 277.17,-1227.38"/>
<polygon fill="black" stroke="black" points="278.136,-1230.75 287.056,-1225.03 276.518,-1223.94 278.136,-1230.75"/>
<text text-anchor="middle" x="225" y="-1248" font-family="Sans" font-size="10.00">fixes</text>
</g>
<!-- configuration&#45;modules&#45;core#1202 -->
<g id="node26" class="node"><title>configuration-modules-core#1202</title>
<a xlink:href="https://github.com/quattor/configuration-modules-core/pull/1202" xlink:title="ncm-metaconfig: support new key conversion options from CCM::TextRender" target="_parent">
<polygon fill="#6cc644" stroke="black" points="188,-1224 16,-1224 16,-1170 188,-1170 188,-1224"/>
<text text-anchor="middle" x="102" y="-1201" font-family="Sans" font-size="10.00">pull-request</text>
<text text-anchor="middle" x="102" y="-1188" font-family="Sans" font-size="10.00">configuration-modules-core#1202</text>
</a>
</g>
<!-- configuration&#45;modules&#45;core#1202&#45;&gt;CCM#179 -->
<g id="edge42" class="edge"><title>configuration-modules-core#1202-&gt;CCM#179</title>
<path fill="none" stroke="black" stroke-dasharray="5,2" d="M173.727,-1169.92C178.699,-1167.16 183.512,-1164.19 188,-1161 197.752,-1154.08 195.395,-1146.53 206,-1141 245.626,-1120.35 296.761,-1115.94 334.049,-1116.05"/>
<polygon fill="none" stroke="black" points="334.13,-1119.55 344.178,-1116.19 334.228,-1112.55 334.13,-1119.55"/>
<text text-anchor="middle" x="225" y="-1145" font-family="Sans" font-size="10.00">requires</text>
</g>
<!-- configuration&#45;modules&#45;core#1202&#45;&gt;CCM#179 -->
<g id="edge20" class="edge"><title>configuration-modules-core#1202-&gt;CCM#179</title>
<path fill="none" stroke="black" stroke-dasharray="5,2" d="M188.142,-1173.17C236.073,-1159.92 294.026,-1143.89 334.403,-1132.72"/>
<polygon fill="none" stroke="black" points="335.569,-1136.03 344.274,-1129.99 333.702,-1129.28 335.569,-1136.03"/>
<text text-anchor="middle" x="225" y="-1172" font-family="Sans" font-size="10.00">requires</text>
</g>
<!-- configuration&#45;modules&#45;core#1182 -->
<g id="node28" class="node"><title>configuration-modules-core#1182</title>
<a xlink:href="https://github.com/quattor/configuration-modules-core/pull/1182" xlink:title="ncm-opennebula: Include 5.4.x configuration" target="_parent">
<polygon fill="#6e5494" stroke="black" points="188,-1152 16,-1152 16,-1098 188,-1098 188,-1152"/>
<text text-anchor="middle" x="102" y="-1129" font-family="Sans" font-size="10.00">pull-request</text>
<text text-anchor="middle" x="102" y="-1116" font-family="Sans" font-size="10.00">configuration-modules-core#1182</text>
</a>
</g>
<!-- configuration&#45;modules&#45;core#1139 -->
<g id="node30" class="node"><title>configuration-modules-core#1139</title>
<a xlink:href="https://github.com/quattor/configuration-modules-core/pull/1139" xlink:title="ncm-opennebula: include hugepages options" target="_parent">
<polygon fill="#6e5494" stroke="black" points="470,-1074 298,-1074 298,-1020 470,-1020 470,-1074"/>
<text text-anchor="middle" x="384" y="-1051" font-family="Sans" font-size="10.00">pull-request</text>
<text text-anchor="middle" x="384" y="-1038" font-family="Sans" font-size="10.00">configuration-modules-core#1139</text>
</a>
</g>
<!-- configuration&#45;modules&#45;core#1182&#45;&gt;configuration&#45;modules&#45;core#1139 -->
<g id="edge22" class="edge"><title>configuration-modules-core#1182-&gt;configuration-modules-core#1139</title>
<path fill="none" stroke="black" stroke-dasharray="5,2" d="M175.673,-1098C180.026,-1095.25 184.181,-1092.25 188,-1089 199.545,-1079.16 193.021,-1067.85 206,-1060 230.083,-1045.43 259.489,-1039.56 287.407,-1038.06"/>
<polygon fill="none" stroke="black" points="287.744,-1041.55 297.612,-1037.69 287.493,-1034.55 287.744,-1041.55"/>
<text text-anchor="middle" x="225" y="-1064" font-family="Sans" font-size="10.00">requires</text>
</g>
<!-- configuration&#45;modules&#45;core#1182&#45;&gt;configuration&#45;modules&#45;core#1139 -->
<g id="edge44" class="edge"><title>configuration-modules-core#1182-&gt;configuration-modules-core#1139</title>
<path fill="none" stroke="black" stroke-dasharray="5,2" d="M188.142,-1101.17C219.701,-1092.44 255.605,-1082.51 287.976,-1073.56"/>
<polygon fill="none" stroke="black" points="289.195,-1076.85 297.9,-1070.81 287.329,-1070.11 289.195,-1076.85"/>
<text text-anchor="middle" x="225" y="-1100" font-family="Sans" font-size="10.00">requires</text>
</g>
<!-- configuration&#45;modules&#45;core#1171 -->
<g id="node31" class="node"><title>configuration-modules-core#1171</title>
<a xlink:href="https://github.com/quattor/configuration-modules-core/pull/1171" xlink:title="ncm-cups enhancements and cleanups" target="_parent">
<polygon fill="#6e5494" stroke="black" points="188,-1080 16,-1080 16,-1026 188,-1026 188,-1080"/>
<text text-anchor="middle" x="102" y="-1057" font-family="Sans" font-size="10.00">pull-request</text>
<text text-anchor="middle" x="102" y="-1044" font-family="Sans" font-size="10.00">configuration-modules-core#1171</text>
</a>
</g>
<!-- configuration&#45;modules&#45;core#1164 -->
<g id="node33" class="node"><title>configuration-modules-core#1164</title>
<a xlink:href="https://github.com/quattor/configuration-modules-core/issues/1164" xlink:title="ncm-cups 17.7.0: configuration of ServerAlias + miscellanous enhancements" target="_parent">
<ellipse fill="#bd2c00" stroke="black" cx="384" cy="-964" rx="121.122" ry="38.1838"/>
<text text-anchor="middle" x="384" y="-968" font-family="Sans" font-size="10.00">issue</text>
<text text-anchor="middle" x="384" y="-955" font-family="Sans" font-size="10.00">configuration-modules-core#1164</text>
</a>
</g>
<!-- configuration&#45;modules&#45;core#1171&#45;&gt;configuration&#45;modules&#45;core#1164 -->
<g id="edge24" class="edge"><title>configuration-modules-core#1171-&gt;configuration-modules-core#1164</title>
<path fill="none" stroke="black" stroke-width="2" d="M177.413,-1025.72C181.188,-1023.06 184.753,-1020.16 188,-1017 201.966,-1003.4 190.026,-988.175 206,-977 220.781,-966.66 238.046,-960.35 255.899,-956.773"/>
<polygon fill="black" stroke="black" points="256.604,-960.203 265.866,-955.058 255.417,-953.304 256.604,-960.203"/>
<text text-anchor="middle" x="225" y="-981" font-family="Sans" font-size="10.00">fixes</text>
</g>
<!-- configuration&#45;modules&#45;core#1171&#45;&gt;configuration&#45;modules&#45;core#1164 -->
<g id="edge46" class="edge"><title>configuration-modules-core#1171-&gt;configuration-modules-core#1164</title>
<path fill="none" stroke="black" stroke-width="2" d="M187.758,-1025.93C219.614,-1015.88 255.94,-1004.42 288.606,-994.107"/>
<polygon fill="black" stroke="black" points="289.681,-997.438 298.164,-991.09 287.574,-990.762 289.681,-997.438"/>
<text text-anchor="middle" x="225" y="-1024" font-family="Sans" font-size="10.00">fixes</text>
</g>
<!-- configuration&#45;modules&#45;core#1149 -->
<g id="node34" class="node"><title>configuration-modules-core#1149</title>
<a xlink:href="https://github.com/quattor/configuration-modules-core/pull/1149" xlink:title="ncm-metaconfig: rsyslog: rainer script configuration" target="_parent">
<polygon fill="#6e5494" stroke="black" points="188,-864 16,-864 16,-810 188,-810 188,-864"/>
<text text-anchor="middle" x="102" y="-841" font-family="Sans" font-size="10.00">pull-request</text>
<text text-anchor="middle" x="102" y="-828" font-family="Sans" font-size="10.00">configuration-modules-core#1149</text>
</a>
</g>
<!-- configuration&#45;modules&#45;core#1126 -->
<g id="node36" class="node"><title>configuration-modules-core#1126</title>
<polygon fill="lightgrey" stroke="black" points="470,-720.5 298,-720.5 298,-679.5 470,-679.5 470,-720.5"/>
<text text-anchor="middle" x="384" y="-697.5" font-family="Sans" font-size="10.00">configuration-modules-core#1126</text>
</g>
<!-- configuration&#45;modules&#45;core#1149&#45;&gt;configuration&#45;modules&#45;core#1126 -->
<g id="edge26" class="edge"><title>configuration-modules-core#1149-&gt;configuration-modules-core#1126</title>
<path fill="none" stroke="black" stroke-dasharray="5,2" d="M169.617,-809.928C175.894,-807.046 182.106,-804.05 188,-801 214.067,-787.511 224.702,-788.113 244,-766 256.818,-751.312 246.829,-738.242 262,-726 269.774,-719.727 278.707,-714.871 288.129,-711.124"/>
<polygon fill="none" stroke="black" points="289.433,-714.375 297.689,-707.735 287.094,-707.777 289.433,-714.375"/>
<text text-anchor="middle" x="225" y="-797" font-family="Sans" font-size="10.00">requires</text>
</g>
<!-- configuration&#45;modules&#45;core#1149&#45;&gt;configuration&#45;modules&#45;core#1126 -->
<g id="edge48" class="edge"><title>configuration-modules-core#1149-&gt;configuration-modules-core#1126</title>
<path fill="none" stroke="black" stroke-dasharray="5,2" d="M178.152,-809.766C181.692,-807.101 185.009,-804.186 188,-801 204.738,-783.169 189.202,-766.775 206,-749 224.481,-729.445 236.294,-733.947 262,-726 270.343,-723.421 279.085,-721.009 287.893,-718.776"/>
<polygon fill="none" stroke="black" points="288.971,-722.115 297.847,-716.331 287.301,-715.317 288.971,-722.115"/>
<text text-anchor="middle" x="225" y="-753" font-family="Sans" font-size="10.00">requires</text>
</g>
<!-- configuration&#45;modules&#45;core#1119 -->
<g id="node37" class="node"><title>configuration-modules-core#1119</title>
<a xlink:href="https://github.com/quattor/configuration-modules-core/pull/1119" xlink:title="ncm-systemd: cleanup, restarting modified unitfiles and initial handling of unconfigured units" target="_parent">
<polygon fill="#6e5494" stroke="black" points="188,-1008 16,-1008 16,-954 188,-954 188,-1008"/>
<text text-anchor="middle" x="102" y="-985" font-family="Sans" font-size="10.00">pull-request</text>
<text text-anchor="middle" x="102" y="-972" font-family="Sans" font-size="10.00">configuration-modules-core#1119</text>
</a>
</g>
<!-- configuration&#45;modules&#45;core#1095 -->
<g id="node39" class="node"><title>configuration-modules-core#1095</title>
<a xlink:href="https://github.com/quattor/configuration-modules-core/issues/1095" xlink:title="ncm-systemd: Manual intervention required in order for drop-in unit files to have any affect" target="_parent">
<ellipse fill="#bd2c00" stroke="black" cx="384" cy="-870" rx="121.122" ry="38.1838"/>
<text text-anchor="middle" x="384" y="-874" font-family="Sans" font-size="10.00">issue</text>
<text text-anchor="middle" x="384" y="-861" font-family="Sans" font-size="10.00">configuration-modules-core#1095</text>
</a>
</g>
<!-- configuration&#45;modules&#45;core#1119&#45;&gt;configuration&#45;modules&#45;core#1095 -->
<g id="edge28" class="edge"><title>configuration-modules-core#1119-&gt;configuration-modules-core#1095</title>
<path fill="none" stroke="black" stroke-width="2" d="M178.257,-953.863C181.771,-951.174 185.053,-948.227 188,-945 205.916,-925.384 185.39,-904.764 206,-888 220.028,-876.59 236.882,-869.438 254.55,-865.198"/>
<polygon fill="black" stroke="black" points="255.364,-868.604 264.437,-863.134 253.933,-861.752 255.364,-868.604"/>
<text text-anchor="middle" x="225" y="-892" font-family="Sans" font-size="10.00">fixes</text>
</g>
<!-- configuration&#45;modules&#45;core#1119&#45;&gt;configuration&#45;modules&#45;core#1095 -->
<g id="edge50" class="edge"><title>configuration-modules-core#1119-&gt;configuration-modules-core#1095</title>
<path fill="none" stroke="black" stroke-width="2" d="M169.264,-953.873C197.826,-942.412 231.506,-928.972 262,-917 273.503,-912.484 285.632,-907.763 297.599,-903.128"/>
<polygon fill="black" stroke="black" points="299.083,-906.307 307.147,-899.435 296.558,-899.778 299.083,-906.307"/>
<text text-anchor="middle" x="225" y="-942" font-family="Sans" font-size="10.00">fixes</text>
</g>
<!-- configuration&#45;modules&#45;core#1105 -->
<g id="node40" class="node"><title>configuration-modules-core#1105</title>
<a xlink:href="https://github.com/quattor/configuration-modules-core/pull/1105" xlink:title="ncm-authconfig: fix krb5_realm, user_object_class and newline between ldap_krb5_canonicalize and ldap_krb5_realm" target="_parent">
<polygon fill="#6cc644" stroke="black" points="188,-216 16,-216 16,-162 188,-162 188,-216"/>
<text text-anchor="middle" x="102" y="-193" font-family="Sans" font-size="10.00">pull-request</text>
<text text-anchor="middle" x="102" y="-180" font-family="Sans" font-size="10.00">configuration-modules-core#1105</text>
</a>
</g>
<!-- configuration&#45;modules&#45;core#1100 -->
<g id="node42" class="node"><title>configuration-modules-core#1100</title>
<a xlink:href="https://github.com/quattor/configuration-modules-core/issues/1100" xlink:title="ncm-authconfig : no newline after krb5_canonicalize option" target="_parent">
<ellipse fill="#6cc644" stroke="black" cx="384" cy="-284" rx="121.122" ry="38.1838"/>
<text text-anchor="middle" x="384" y="-288" font-family="Sans" font-size="10.00">issue</text>
<text text-anchor="middle" x="384" y="-275" font-family="Sans" font-size="10.00">configuration-modules-core#1100</text>
</a>
</g>
<!-- configuration&#45;modules&#45;core#1105&#45;&gt;configuration&#45;modules&#45;core#1100 -->
<g id="edge30" class="edge"><title>configuration-modules-core#1105-&gt;configuration-modules-core#1100</title>
<path fill="none" stroke="black" stroke-width="2" d="M182.432,-216.096C216.36,-227.526 256.064,-240.901 291.221,-252.745"/>
<polygon fill="black" stroke="black" points="290.414,-256.166 301.008,-256.042 292.649,-249.532 290.414,-256.166"/>
<text text-anchor="middle" x="225" y="-241" font-family="Sans" font-size="10.00">fixes</text>
</g>
<!-- configuration&#45;modules&#45;core#1105&#45;&gt;configuration&#45;modules&#45;core#1100 -->
<g id="edge52" class="edge"><title>configuration-modules-core#1105-&gt;configuration-modules-core#1100</title>
<path fill="none" stroke="black" stroke-width="2" d="M137.692,-216.206C156.957,-229.587 181.715,-244.782 206,-254 222.888,-260.41 241.195,-265.455 259.426,-269.424"/>
<polygon fill="black" stroke="black" points="258.737,-272.855 269.239,-271.461 260.16,-266.002 258.737,-272.855"/>
<text text-anchor="middle" x="225" y="-270" font-family="Sans" font-size="10.00">fixes</text>
</g>
<!-- configuration&#45;modules&#45;core#1102 -->
<g id="node44" class="node"><title>configuration-modules-core#1102</title>
<a xlink:href="https://github.com/quattor/configuration-modules-core/issues/1102" xlink:title="ncm-authconfig: There is no " target="_parent">
<ellipse fill="#6cc644" stroke="black" cx="384" cy="-96" rx="121.122" ry="38.1838"/>
<text text-anchor="middle" x="384" y="-100" font-family="Sans" font-size="10.00">issue</text>
<text text-anchor="middle" x="384" y="-87" font-family="Sans" font-size="10.00">configuration-modules-core#1102</text>
</a>
</g>
<!-- configuration&#45;modules&#45;core#1105&#45;&gt;configuration&#45;modules&#45;core#1102 -->
<g id="edge32" class="edge"><title>configuration-modules-core#1105-&gt;configuration-modules-core#1102</title>
<path fill="none" stroke="black" stroke-width="2" d="M123.435,-161.723C142.456,-139.881 172.384,-110.847 206,-98 221.927,-91.9132 239.257,-88.3572 256.645,-86.5237"/>
<polygon fill="black" stroke="black" points="257.218,-89.9872 266.879,-85.6371 256.614,-83.0133 257.218,-89.9872"/>
<text text-anchor="middle" x="225" y="-102" font-family="Sans" font-size="10.00">fixes</text>
</g>
<!-- configuration&#45;modules&#45;core#1105&#45;&gt;configuration&#45;modules&#45;core#1102 -->
<g id="edge54" class="edge"><title>configuration-modules-core#1105-&gt;configuration-modules-core#1102</title>
<path fill="none" stroke="black" stroke-width="2" d="M182.033,-161.979C190.125,-159.273 198.224,-156.575 206,-154 233.067,-145.036 262.486,-135.404 289.466,-126.616"/>
<polygon fill="black" stroke="black" points="290.862,-129.842 299.287,-123.419 288.695,-123.186 290.862,-129.842"/>
<text text-anchor="middle" x="225" y="-158" font-family="Sans" font-size="10.00">fixes</text>
</g>
<!-- configuration&#45;modules&#45;core#1103 -->
<g id="node46" class="node"><title>configuration-modules-core#1103</title>
<a xlink:href="https://github.com/quattor/configuration-modules-core/issues/1103" xlink:title="ncm-authconfig: krb5_realm = ARRAY(0x39a5830)" target="_parent">
<ellipse fill="#6cc644" stroke="black" cx="384" cy="-190" rx="121.122" ry="38.1838"/>
<text text-anchor="middle" x="384" y="-194" font-family="Sans" font-size="10.00">issue</text>
<text text-anchor="middle" x="384" y="-181" font-family="Sans" font-size="10.00">configuration-modules-core#1103</text>
</a>
</g>
<!-- configuration&#45;modules&#45;core#1105&#45;&gt;configuration&#45;modules&#45;core#1103 -->
<g id="edge34" class="edge"><title>configuration-modules-core#1105-&gt;configuration-modules-core#1103</title>
<path fill="none" stroke="black" stroke-width="2" d="M188.128,-173.819C194.163,-173.095 200.165,-172.474 206,-172 225.201,-170.441 245.546,-170.694 265.354,-171.972"/>
<polygon fill="black" stroke="black" points="265.11,-175.464 275.339,-172.704 265.622,-168.483 265.11,-175.464"/>
<text text-anchor="middle" x="225" y="-176" font-family="Sans" font-size="10.00">fixes</text>
</g>
<!-- configuration&#45;modules&#45;core#1105&#45;&gt;configuration&#45;modules&#45;core#1103 -->
<g id="edge56" class="edge"><title>configuration-modules-core#1105-&gt;configuration-modules-core#1103</title>
<path fill="none" stroke="black" stroke-width="2" d="M188.142,-189.305C208.347,-189.377 230.333,-189.455 252.033,-189.532"/>
<polygon fill="black" stroke="black" points="252.3,-193.033 262.313,-189.568 252.325,-186.033 252.3,-193.033"/>
<text text-anchor="middle" x="225" y="-194" font-family="Sans" font-size="10.00">fixes</text>
</g>
<!-- configuration&#45;modules&#45;core#1058 -->
<g id="node47" class="node"><title>configuration-modules-core#1058</title>
<a xlink:href="https://github.com/quattor/configuration-modules-core/pull/1058" xlink:title="ncm-ssh: disable insecure ssh ciphersuites and macs" target="_parent">
<polygon fill="#6e5494" stroke="black" points="188,-792 16,-792 16,-738 188,-738 188,-792"/>
<text text-anchor="middle" x="102" y="-769" font-family="Sans" font-size="10.00">pull-request</text>
<text text-anchor="middle" x="102" y="-756" font-family="Sans" font-size="10.00">configuration-modules-core#1058</text>
</a>
</g>
<!-- configuration&#45;modules&#45;core#983 -->
<g id="node49" class="node"><title>configuration-modules-core#983</title>
<polygon fill="lightgrey" stroke="black" points="467,-662.5 301,-662.5 301,-621.5 467,-621.5 467,-662.5"/>
<text text-anchor="middle" x="384" y="-639.5" font-family="Sans" font-size="10.00">configuration-modules-core#983</text>
</g>
<!-- configuration&#45;modules&#45;core#1058&#45;&gt;configuration&#45;modules&#45;core#983 -->
<g id="edge36" class="edge"><title>configuration-modules-core#1058-&gt;configuration-modules-core#983</title>
<path fill="none" stroke="black" stroke-dasharray="1,5" d="M140.421,-737.996C171.826,-717.038 218.06,-688.666 262,-671 271.09,-667.345 280.753,-664.08 290.509,-661.179"/>
<polygon fill="black" stroke="black" points="300.276,-658.399 291.89,-665.464 295.467,-659.768 290.658,-661.136 290.658,-661.136 290.658,-661.136 295.467,-659.768 289.426,-656.808 300.276,-658.399 300.276,-658.399"/>
<text text-anchor="middle" x="225" y="-702" font-family="Sans" font-size="10.00">replaces</text>
</g>
<!-- configuration&#45;modules&#45;core#1058&#45;&gt;configuration&#45;modules&#45;core#983 -->
<g id="edge58" class="edge"><title>configuration-modules-core#1058-&gt;configuration-modules-core#983</title>
<path fill="none" stroke="black" stroke-dasharray="1,5" d="M120.84,-737.961C139.443,-713.614 170.239,-679.108 206,-662 231.734,-649.689 261.881,-643.633 289.974,-640.929"/>
<polygon fill="black" stroke="black" points="300.219,-640.08 290.625,-645.391 295.236,-640.493 290.254,-640.906 290.254,-640.906 290.254,-640.906 295.236,-640.493 289.882,-636.422 300.219,-640.08 300.219,-640.08"/>
<text text-anchor="middle" x="225" y="-666" font-family="Sans" font-size="10.00">replaces</text>
</g>
<!-- template&#45;library&#45;core#167 -->
<g id="node61" class="node"><title>template-library-core#167</title>
<a xlink:href="https://github.com/quattor/template-library-core/pull/167" xlink:title="schema: Add support for aquilon clusters" target="_parent">
<polygon fill="#6cc644" stroke="black" points="171,-936 33,-936 33,-882 171,-882 171,-936"/>
<text text-anchor="middle" x="102" y="-913" font-family="Sans" font-size="10.00">pull-request</text>
<text text-anchor="middle" x="102" y="-900" font-family="Sans" font-size="10.00">template-library-core#167</text>
</a>
</g>
<!-- template&#45;library&#45;core#71 -->
<g id="node63" class="node"><title>template-library-core#71</title>
<a xlink:href="https://github.com/quattor/template-library-core/issues/71" xlink:title="Schema for aquilon cluster archetypes needed" target="_parent">
<ellipse fill="#6cc644" stroke="black" cx="384" cy="-776" rx="94.0452" ry="38.1838"/>
<text text-anchor="middle" x="384" y="-780" font-family="Sans" font-size="10.00">issue</text>
<text text-anchor="middle" x="384" y="-767" font-family="Sans" font-size="10.00">template-library-core#71</text>
</a>
</g>
<!-- template&#45;library&#45;core#167&#45;&gt;template&#45;library&#45;core#71 -->
<g id="edge60" class="edge"><title>template-library-core#167-&gt;template-library-core#71</title>
<path fill="none" stroke="black" stroke-width="2" d="M171.179,-883.501C177.068,-880.309 182.766,-876.811 188,-873 197.938,-865.765 196.365,-859.634 206,-852 233.091,-830.537 267.148,-814.052 298.2,-802.01"/>
<polygon fill="black" stroke="black" points="299.608,-805.22 307.729,-798.415 297.137,-798.67 299.608,-805.22"/>
<text text-anchor="middle" x="225" y="-856" font-family="Sans" font-size="10.00">fixes</text>
</g>
<!-- template&#45;library&#45;grid#205 -->
<g id="node64" class="node"><title>template-library-grid#205</title>
<a xlink:href="https://github.com/quattor/template-library-grid/pull/205" xlink:title="repository/config/htcondor: Cleanup and make use of repository name" target="_parent">
<polygon fill="#6cc644" stroke="black" points="169,-1627 35,-1627 35,-1573 169,-1573 169,-1627"/>
<text text-anchor="middle" x="102" y="-1604" font-family="Sans" font-size="10.00">pull-request</text>
<text text-anchor="middle" x="102" y="-1591" font-family="Sans" font-size="10.00">template-library-grid#205</text>
</a>
</g>
<!-- template&#45;library&#45;grid#204 -->
<g id="node66" class="node"><title>template-library-grid#204</title>
<a xlink:href="https://github.com/quattor/template-library-grid/issues/204" xlink:title="htcondor repo" target="_parent">
<ellipse fill="#6cc644" stroke="black" cx="384" cy="-1600" rx="94.9596" ry="38.1838"/>
<text text-anchor="middle" x="384" y="-1604" font-family="Sans" font-size="10.00">issue</text>
<text text-anchor="middle" x="384" y="-1591" font-family="Sans" font-size="10.00">template-library-grid#204</text>
</a>
</g>
<!-- template&#45;library&#45;grid#205&#45;&gt;template&#45;library&#45;grid#204 -->
<g id="edge62" class="edge"><title>template-library-grid#205-&gt;template-library-grid#204</title>
<path fill="none" stroke="black" stroke-width="2" d="M169.546,-1600C202.09,-1600 241.876,-1600 278.303,-1600"/>
<polygon fill="black" stroke="black" points="278.479,-1603.5 288.479,-1600 278.479,-1596.5 278.479,-1603.5"/>
<text text-anchor="middle" x="225" y="-1604" font-family="Sans" font-size="10.00">fixes</text>
</g>
</g>
</svg>
