<?xml version="1.0" encoding="UTF-8" standalone="no"?>
<?xml-stylesheet href="relationships.css" type="text/css"?>
<!-- Generated by graphviz version 2.30.1 (20200930.0103)
 -->
<!-- Title: Dependencies Pages: 1 -->
<svg xmlns="http://www.w3.org/2000/svg" xmlns:xlink="http://www.w3.org/1999/xlink" width="946pt" height="1872pt" viewBox="0.00 0.00 946.00 1872.00">
<g id="graph0" class="graph" transform="scale(1 1) rotate(0) translate(4 1868)">
<title>Dependencies</title>
<polygon fill="white" stroke="white" points="-4,5 -4,-1868 943,-1868 943,5 -4,5"/>
<g id="clust4" class="cluster"><title>cluster_repo_aquilon</title>
<polygon fill="none" stroke="black" points="66,-1545 66,-1856 557,-1856 557,-1545 66,-1545"/>
<text text-anchor="middle" x="311.5" y="-1842.4" font-family="Sans" font-size="12.00">aquilon</text>
</g>
<g id="clust3" class="cluster"><title>cluster_milestone_21.8</title>
<polygon fill="none" stroke="black" points="28,-736 28,-1163 867,-1163 867,-736 28,-736"/>
<text text-anchor="middle" x="447.5" y="-1149.4" font-family="Sans" font-size="12.00">21.8</text>
</g>
<g id="clust1" class="cluster"><title>cluster_milestone_21.6</title>
<polygon fill="none" stroke="black" points="378,-218 378,-509 930,-509 930,-218 378,-218"/>
<text text-anchor="middle" x="654" y="-495.4" font-family="Sans" font-size="12.00">21.6</text>
</g>
<g id="clust5" class="cluster"><title>cluster_milestone_21.12</title>
<polygon fill="none" stroke="black" points="47,-1171 47,-1367 603,-1367 603,-1171 47,-1171"/>
<text text-anchor="middle" x="325" y="-1353.4" font-family="Sans" font-size="12.00">21.12</text>
</g>
<!-- aii#328 -->
<g id="node1" class="node"><title>aii#328</title>
<g id="a_node1"><a xlink:href="https://github.com/quattor/aii/pull/328" xlink:title="aii-ks: generate ks post as ansible playbook" target="_parent">
<polygon fill="#6cc644" stroke="black" points="177.5,-862 90.5,-862 90.5,-812 177.5,-812 177.5,-862"/>
<text text-anchor="middle" x="134" y="-840" font-family="Sans" font-size="10.00">pull-request</text>
<text text-anchor="middle" x="134" y="-829" font-family="Sans" font-size="10.00">aii#328</text>
</a>
</g>
</g>
<!-- aii#280 -->
<g id="node2" class="node"><title>aii#280</title>
<g id="a_node2"><a xlink:href="https://github.com/quattor/aii/pull/280" xlink:title="Support active configuration attribute for plugins" target="_parent">
<polygon fill="#6cc644" stroke="black" points="527.5,-864 440.5,-864 440.5,-814 527.5,-814 527.5,-864"/>
<text text-anchor="middle" x="484" y="-842" font-family="Sans" font-size="10.00">pull-request</text>
<text text-anchor="middle" x="484" y="-831" font-family="Sans" font-size="10.00">aii#280</text>
</a>
</g>
</g>
<!-- aii#328&#45;&gt;aii#280 -->
<g id="edge1" class="edge"><title>aii#328-&gt;aii#280</title>
<path fill="none" stroke="black" stroke-dasharray="5,2" d="M177.672,-837.245C241.287,-837.611 360.896,-838.298 430.02,-838.696"/>
<polygon fill="none" stroke="black" points="430.232,-842.197 440.252,-838.754 430.272,-835.197 430.232,-842.197"/>
<text text-anchor="middle" x="307" y="-842" font-family="Sans" font-size="10.00">requires</text>
</g>
<!-- aii#316 -->
<g id="node3" class="node"><title>aii#316</title>
<g id="a_node3"><a xlink:href="https://github.com/quattor/aii/pull/316" xlink:title="aii-ks: generate kickstart repo entries based on SPMA configuration" target="_parent">
<polygon fill="#6cc644" stroke="black" points="527.5,-412 440.5,-412 440.5,-362 527.5,-362 527.5,-412"/>
<text text-anchor="middle" x="484" y="-390" font-family="Sans" font-size="10.00">pull-request</text>
<text text-anchor="middle" x="484" y="-379" font-family="Sans" font-size="10.00">aii#316</text>
</a>
</g>
</g>
<!-- aii#328&#45;&gt;aii#316 -->
<g id="edge2" class="edge"><title>aii#328-&gt;aii#316</title>
<path fill="none" stroke="black" stroke-dasharray="5,2" d="M177.563,-838.092C207.512,-836.387 246.03,-828.742 268,-803 296.107,-770.068 263.204,-645.809 286,-609 297.559,-590.336 316.272,-601.559 328,-583 366.7,-521.76 298.281,-475.506 346,-421 366.721,-397.331 401.108,-388.85 430.246,-386.277"/>
<polygon fill="none" stroke="black" points="430.561,-389.764 440.302,-385.598 430.089,-382.78 430.561,-389.764"/>
<text text-anchor="middle" x="307" y="-612" font-family="Sans" font-size="10.00">requires</text>
</g>
<!-- aii#209 -->
<g id="node9" class="node"><title>aii#209</title>
<g id="a_node9"><a xlink:href="https://github.com/quattor/aii/issues/209" xlink:title="support ACTIVE_CONFIG" target="_parent">
<ellipse fill="#6cc644" stroke="black" cx="811" cy="-839" rx="47.2526" ry="35.2113"/>
<text text-anchor="middle" x="811" y="-842" font-family="Sans" font-size="10.00">issue</text>
<text text-anchor="middle" x="811" y="-831" font-family="Sans" font-size="10.00">aii#209</text>
</a>
</g>
</g>
<!-- aii#280&#45;&gt;aii#209 -->
<g id="edge8" class="edge"><title>aii#280-&gt;aii#209</title>
<path fill="none" stroke="black" stroke-width="2" d="M527.822,-839C585.622,-839 688.752,-839 753.04,-839"/>
<polygon fill="black" stroke="black" points="753.402,-842.5 763.402,-839 753.402,-835.5 753.402,-842.5"/>
<text text-anchor="middle" x="661" y="-842" font-family="Sans" font-size="10.00">fixes</text>
</g>
<!-- ncm&#45;ncd#74 -->
<g id="node10" class="node"><title>ncm-ncd#74</title>
<polygon fill="lightgrey" stroke="black" points="856.5,-613.5 765.5,-613.5 765.5,-574.5 856.5,-574.5 856.5,-613.5"/>
<text text-anchor="middle" x="811" y="-591.5" font-family="Sans" font-size="10.00">ncm-ncd#74</text>
</g>
<!-- aii#280&#45;&gt;ncm&#45;ncd#74 -->
<g id="edge9" class="edge"><title>aii#280-&gt;ncm-ncd#74</title>
<path fill="none" stroke="black" stroke-dasharray="5,2" d="M527.815,-840.204C558.562,-838.61 598.563,-831.054 622,-805 661.009,-761.634 612.424,-726.399 640,-675 656.821,-643.647 668.546,-638.632 700,-622 717.051,-612.984 737.142,-606.77 755.458,-602.532"/>
<polygon fill="none" stroke="black" points="756.386,-605.912 765.419,-600.376 754.905,-599.071 756.386,-605.912"/>
<text text-anchor="middle" x="661" y="-678" font-family="Sans" font-size="10.00">requires</text>
</g>
<!-- aii#203 -->
<g id="node11" class="node"><title>aii#203</title>
<polygon fill="lightgrey" stroke="black" points="844.5,-727.5 777.5,-727.5 777.5,-688.5 844.5,-688.5 844.5,-727.5"/>
<text text-anchor="middle" x="811" y="-705.5" font-family="Sans" font-size="10.00">aii#203</text>
</g>
<!-- aii#280&#45;&gt;aii#203 -->
<g id="edge10" class="edge"><title>aii#280-&gt;aii#203</title>
<path fill="none" stroke="black" stroke-dasharray="5,2" d="M527.783,-834.082C555.881,-829.515 592.716,-820.914 622,-805 663.719,-782.329 657.963,-754.075 700,-732 720.672,-721.144 746.002,-715.194 767.143,-711.935"/>
<polygon fill="none" stroke="black" points="767.724,-715.388 777.146,-710.541 766.758,-708.455 767.724,-715.388"/>
<text text-anchor="middle" x="661" y="-796" font-family="Sans" font-size="10.00">requires</text>
</g>
<!-- aii#210 -->
<g id="node12" class="node"><title>aii#210</title>
<polygon fill="lightgrey" stroke="black" points="844.5,-670.5 777.5,-670.5 777.5,-631.5 844.5,-631.5 844.5,-670.5"/>
<text text-anchor="middle" x="811" y="-648.5" font-family="Sans" font-size="10.00">aii#210</text>
</g>
<!-- aii#280&#45;&gt;aii#210 -->
<g id="edge11" class="edge"><title>aii#280-&gt;aii#210</title>
<path fill="none" stroke="black" stroke-dasharray="1,5" d="M527.724,-839.473C558.018,-837.461 597.489,-829.701 622,-805 646.146,-780.667 622.055,-759.208 640,-730 658.321,-700.18 668.906,-695.064 700,-679 720.913,-668.195 746.26,-661.377 767.349,-657.178"/>
<polygon fill="black" stroke="black" points="777.322,-655.321 768.315,-661.576 772.406,-656.237 767.491,-657.152 767.491,-657.152 767.491,-657.152 772.406,-656.237 766.667,-652.728 777.322,-655.321 777.322,-655.321"/>
<text text-anchor="middle" x="661" y="-733" font-family="Sans" font-size="10.00">replaces</text>
</g>
<!-- aii#316&#45;&gt;aii#280 -->
<g id="edge4" class="edge"><title>aii#316-&gt;aii#280</title>
<path fill="none" stroke="black" stroke-dasharray="5,2" d="M440.254,-385.454C409.178,-386.903 369.027,-394.428 346,-421 300.167,-473.889 302.017,-665.926 316,-734.5 322.804,-767.866 320.066,-782.932 346,-805 369.264,-824.796 402.3,-833.397 430.215,-837.001"/>
<polygon fill="none" stroke="black" points="429.916,-840.489 440.241,-838.114 430.688,-833.532 429.916,-840.489"/>
<text text-anchor="middle" x="307" y="-726.5" font-family="Sans" font-size="10.00">requires</text>
</g>
<!-- aii#314 -->
<g id="node6" class="node"><title>aii#314</title>
<polygon fill="lightgrey" stroke="black" points="844.5,-209.5 777.5,-209.5 777.5,-170.5 844.5,-170.5 844.5,-209.5"/>
<text text-anchor="middle" x="811" y="-187.5" font-family="Sans" font-size="10.00">aii#314</text>
</g>
<!-- aii#316&#45;&gt;aii#314 -->
<g id="edge5" class="edge"><title>aii#316-&gt;aii#314</title>
<path fill="none" stroke="black" stroke-dasharray="5,2" d="M527.716,-385.127C556.849,-381.9 594.91,-373.651 622,-353 678.337,-310.053 643.058,-256.142 700,-214 719.26,-199.746 745.298,-193.64 767.206,-191.147"/>
<polygon fill="none" stroke="black" points="767.625,-194.623 777.26,-190.216 766.98,-187.653 767.625,-194.623"/>
<text text-anchor="middle" x="661" y="-338" font-family="Sans" font-size="10.00">requires</text>
</g>
<!-- aii#315 -->
<g id="node7" class="node"><title>aii#315</title>
<polygon fill="lightgrey" stroke="black" points="844.5,-152.5 777.5,-152.5 777.5,-113.5 844.5,-113.5 844.5,-152.5"/>
<text text-anchor="middle" x="811" y="-130.5" font-family="Sans" font-size="10.00">aii#315</text>
</g>
<!-- aii#316&#45;&gt;aii#315 -->
<g id="edge6" class="edge"><title>aii#316-&gt;aii#315</title>
<path fill="none" stroke="black" stroke-dasharray="5,2" d="M527.531,-388.254C558.34,-386.714 598.547,-379.204 622,-353 662.368,-307.896 612.49,-271.918 640,-218 656.717,-185.237 667.801,-178.779 700,-161 720.607,-149.621 745.933,-142.765 767.088,-138.689"/>
<polygon fill="none" stroke="black" points="767.868,-142.105 777.098,-136.903 766.639,-135.213 767.868,-142.105"/>
<text text-anchor="middle" x="661" y="-221" font-family="Sans" font-size="10.00">requires</text>
</g>
<!-- aii#325 -->
<g id="node4" class="node"><title>aii#325</title>
<g id="a_node4"><a xlink:href="https://github.com/quattor/aii/pull/325" xlink:title="Use wipefs for RHEL6+" target="_parent">
<polygon fill="#6cc644" stroke="black" points="527.5,-344 440.5,-344 440.5,-294 527.5,-294 527.5,-344"/>
<text text-anchor="middle" x="484" y="-322" font-family="Sans" font-size="10.00">pull-request</text>
<text text-anchor="middle" x="484" y="-311" font-family="Sans" font-size="10.00">aii#325</text>
</a>
</g>
</g>
<!-- ncm&#45;lib&#45;blockdevices#93 -->
<g id="node5" class="node"><title>ncm-lib-blockdevices#93</title>
<polygon fill="lightgrey" stroke="black" points="887.5,-95.5 734.5,-95.5 734.5,-56.5 887.5,-56.5 887.5,-95.5"/>
<text text-anchor="middle" x="811" y="-73.5" font-family="Sans" font-size="10.00">ncm-lib-blockdevices#93</text>
</g>
<!-- aii#325&#45;&gt;ncm&#45;lib&#45;blockdevices#93 -->
<g id="edge3" class="edge"><title>aii#325-&gt;ncm-lib-blockdevices#93</title>
<path fill="none" stroke="black" stroke-dasharray="5,2" d="M527.803,-320.494C558.753,-319.077 599.017,-311.617 622,-285 648.995,-253.737 611.431,-129.832 640,-100 661.393,-77.6612 693.375,-69.4891 723.847,-67.6691"/>
<polygon fill="none" stroke="black" points="724.243,-71.1568 734.105,-67.2842 723.981,-64.1617 724.243,-71.1568"/>
<text text-anchor="middle" x="661" y="-103" font-family="Sans" font-size="10.00">requires</text>
</g>
<!-- aii#299 -->
<g id="node8" class="node"><title>aii#299</title>
<g id="a_node8"><a xlink:href="https://github.com/quattor/aii/pull/299" xlink:title="aii-dhcp: support optional hostname ip verification" target="_parent">
<polygon fill="#6cc644" stroke="black" points="177.5,-1066 90.5,-1066 90.5,-1016 177.5,-1016 177.5,-1066"/>
<text text-anchor="middle" x="134" y="-1044" font-family="Sans" font-size="10.00">pull-request</text>
<text text-anchor="middle" x="134" y="-1033" font-family="Sans" font-size="10.00">aii#299</text>
</a>
</g>
</g>
<!-- aii#299&#45;&gt;aii#280 -->
<g id="edge7" class="edge"><title>aii#299-&gt;aii#280</title>
<path fill="none" stroke="black" stroke-dasharray="5,2" d="M177.601,-1034.73C204.503,-1029.68 239.445,-1021.03 268,-1007 305.934,-988.357 395.455,-914.07 446.21,-870.775"/>
<polygon fill="none" stroke="black" points="448.683,-873.265 454.009,-864.106 444.134,-867.945 448.683,-873.265"/>
<text text-anchor="middle" x="307" y="-999" font-family="Sans" font-size="10.00">requires</text>
</g>
<!-- CAF#257 -->
<g id="node13" class="node"><title>CAF#257</title>
<g id="a_node13"><a xlink:href="https://github.com/quattor/CAF/pull/257" xlink:title="Process: run process as another user" target="_parent">
<polygon fill="#6cc644" stroke="black" points="177.5,-1328 90.5,-1328 90.5,-1278 177.5,-1278 177.5,-1328"/>
<text text-anchor="middle" x="134" y="-1306" font-family="Sans" font-size="10.00">pull-request</text>
<text text-anchor="middle" x="134" y="-1295" font-family="Sans" font-size="10.00">CAF#257</text>
</a>
</g>
</g>
<!-- CAF#253 -->
<g id="node14" class="node"><title>CAF#253</title>
<g id="a_node14"><a xlink:href="https://github.com/quattor/CAF/issues/253" xlink:title="CAF::Process: Include an option to execute the command as an specific user" target="_parent">
<ellipse fill="#6cc644" stroke="black" cx="484" cy="-1303" rx="52.1524" ry="35.2113"/>
<text text-anchor="middle" x="484" y="-1306" font-family="Sans" font-size="10.00">issue</text>
<text text-anchor="middle" x="484" y="-1295" font-family="Sans" font-size="10.00">CAF#253</text>
</a>
</g>
</g>
<!-- CAF#257&#45;&gt;CAF#253 -->
<g id="edge12" class="edge"><title>CAF#257-&gt;CAF#253</title>
<path fill="none" stroke="black" stroke-width="2" d="M177.672,-1303C238.737,-1303 351.395,-1303 421.469,-1303"/>
<polygon fill="black" stroke="black" points="421.488,-1306.5 431.488,-1303 421.488,-1299.5 421.488,-1306.5"/>
<text text-anchor="middle" x="307" y="-1306" font-family="Sans" font-size="10.00">fixes</text>
</g>
<!-- CAF#110 -->
<g id="node15" class="node"><title>CAF#110</title>
<g id="a_node15"><a xlink:href="https://github.com/quattor/CAF/pull/110" xlink:title="CAF::Download class: API proposal" target="_parent">
<polygon fill="#6cc644" stroke="black" points="177.5,-998 90.5,-998 90.5,-948 177.5,-948 177.5,-998"/>
<text text-anchor="middle" x="134" y="-976" font-family="Sans" font-size="10.00">pull-request</text>
<text text-anchor="middle" x="134" y="-965" font-family="Sans" font-size="10.00">CAF#110</text>
</a>
</g>
</g>
<!-- CAF#120 -->
<g id="node16" class="node"><title>CAF#120</title>
<polygon fill="lightgrey" stroke="black" points="521,-727.5 447,-727.5 447,-688.5 521,-688.5 521,-727.5"/>
<text text-anchor="middle" x="484" y="-705.5" font-family="Sans" font-size="10.00">CAF#120</text>
</g>
<!-- CAF#110&#45;&gt;CAF#120 -->
<g id="edge13" class="edge"><title>CAF#110-&gt;CAF#120</title>
<path fill="none" stroke="black" stroke-dasharray="5,2" d="M177.728,-973.642C207.357,-971.666 245.41,-963.878 268,-939 303.073,-900.375 265.106,-870.806 286,-823 298.036,-795.46 312.131,-795.524 328,-770 337.867,-754.13 331.133,-743.323 346,-732 371.663,-712.454 407.85,-706.772 436.589,-705.807"/>
<polygon fill="none" stroke="black" points="436.862,-709.304 446.807,-705.649 436.753,-702.305 436.862,-709.304"/>
<text text-anchor="middle" x="307" y="-826" font-family="Sans" font-size="10.00">requires</text>
</g>
<!-- configuration&#45;modules&#45;core#1490 -->
<g id="node17" class="node"><title>configuration-modules-core#1490</title>
<g id="a_node17"><a xlink:href="https://github.com/quattor/configuration-modules-core/pull/1490" xlink:title="ncm-ceph: Add support for orchestrator/cephadm under octopus" target="_parent">
<polygon fill="#6cc644" stroke="black" points="231.5,-794 36.5,-794 36.5,-744 231.5,-744 231.5,-794"/>
<text text-anchor="middle" x="134" y="-772" font-family="Sans" font-size="10.00">pull-request</text>
<text text-anchor="middle" x="134" y="-761" font-family="Sans" font-size="10.00">configuration-modules-core#1490</text>
</a>
</g>
</g>
<!-- configuration&#45;modules&#45;core#1463 -->
<g id="node18" class="node"><title>configuration-modules-core#1463</title>
<polygon fill="lightgrey" stroke="black" points="581.5,-556.5 386.5,-556.5 386.5,-517.5 581.5,-517.5 581.5,-556.5"/>
<text text-anchor="middle" x="484" y="-534.5" font-family="Sans" font-size="10.00">configuration-modules-core#1463</text>
</g>
<!-- configuration&#45;modules&#45;core#1490&#45;&gt;configuration&#45;modules&#45;core#1463 -->
<g id="edge14" class="edge"><title>configuration-modules-core#1490-&gt;configuration-modules-core#1463</title>
<path fill="none" stroke="black" stroke-dasharray="1,5" d="M142.53,-743.896C159.052,-693.884 203.729,-582.78 286,-538 313.057,-523.273 345.46,-518.785 376.099,-519.154"/>
<polygon fill="black" stroke="black" points="386.412,-519.458 376.283,-523.662 381.414,-519.311 376.416,-519.163 376.416,-519.163 376.416,-519.163 381.414,-519.311 376.548,-514.665 386.412,-519.458 386.412,-519.458"/>
<text text-anchor="middle" x="307" y="-541" font-family="Sans" font-size="10.00">replaces</text>
</g>
<!-- configuration&#45;modules&#45;core#1490&#45;&gt;configuration&#45;modules&#45;core#1463 -->
<g id="edge17" class="edge"><title>configuration-modules-core#1490-&gt;configuration-modules-core#1463</title>
<path fill="none" stroke="black" stroke-dasharray="1,5" d="M146.482,-743.937C167.53,-701.065 216.594,-614.203 286,-572 312.916,-555.633 345.483,-546.47 376.321,-541.461"/>
<polygon fill="black" stroke="black" points="386.263,-539.976 377.037,-545.904 381.317,-540.715 376.372,-541.453 376.372,-541.453 376.372,-541.453 381.317,-540.715 375.708,-537.002 386.263,-539.976 386.263,-539.976"/>
<text text-anchor="middle" x="307" y="-575" font-family="Sans" font-size="10.00">replaces</text>
</g>
<!-- configuration&#45;modules&#45;core#1452 -->
<g id="node19" class="node"><title>configuration-modules-core#1452</title>
<g id="a_node19"><a xlink:href="https://github.com/quattor/configuration-modules-core/pull/1452" xlink:title="ncm-metaconfig: ssh daemon configuration support" target="_parent">
<polygon fill="#6cc644" stroke="black" points="231.5,-930 36.5,-930 36.5,-880 231.5,-880 231.5,-930"/>
<text text-anchor="middle" x="134" y="-908" font-family="Sans" font-size="10.00">pull-request</text>
<text text-anchor="middle" x="134" y="-897" font-family="Sans" font-size="10.00">configuration-modules-core#1452</text>
</a>
</g>
</g>
<!-- configuration&#45;modules&#45;core#1377 -->
<g id="node20" class="node"><title>configuration-modules-core#1377</title>
<polygon fill="lightgrey" stroke="black" points="581.5,-613.5 386.5,-613.5 386.5,-574.5 581.5,-574.5 581.5,-613.5"/>
<text text-anchor="middle" x="484" y="-591.5" font-family="Sans" font-size="10.00">configuration-modules-core#1377</text>
</g>
<!-- configuration&#45;modules&#45;core#1452&#45;&gt;configuration&#45;modules&#45;core#1377 -->
<g id="edge15" class="edge"><title>configuration-modules-core#1452-&gt;configuration-modules-core#1377</title>
<path fill="none" stroke="black" stroke-dasharray="1,5" d="M231.537,-895.528C245.474,-890.171 258.343,-882.341 268,-871 296.787,-837.193 260.977,-708.68 286,-672 297.761,-654.76 312.581,-665.064 328,-651 339.208,-640.777 333.553,-630.671 346,-622 355.321,-615.507 365.812,-610.452 376.733,-606.526"/>
<polygon fill="black" stroke="black" points="386.423,-603.36 378.316,-610.743 381.67,-604.913 376.918,-606.466 376.918,-606.466 376.918,-606.466 381.67,-604.913 375.52,-602.189 386.423,-603.36 386.423,-603.36"/>
<text text-anchor="middle" x="307" y="-675" font-family="Sans" font-size="10.00">replaces</text>
</g>
<!-- configuration&#45;modules&#45;core#1451 -->
<g id="node21" class="node"><title>configuration-modules-core#1451</title>
<polygon fill="lightgrey" stroke="black" points="581.5,-670.5 386.5,-670.5 386.5,-631.5 581.5,-631.5 581.5,-670.5"/>
<text text-anchor="middle" x="484" y="-648.5" font-family="Sans" font-size="10.00">configuration-modules-core#1451</text>
</g>
<!-- configuration&#45;modules&#45;core#1452&#45;&gt;configuration&#45;modules&#45;core#1451 -->
<g id="edge16" class="edge"><title>configuration-modules-core#1452-&gt;configuration-modules-core#1451</title>
<path fill="none" stroke="black" stroke-dasharray="5,2" d="M231.68,-895.235C245.512,-889.901 258.31,-882.155 268,-871 315.798,-815.977 243.932,-767.519 286,-708 294.548,-695.907 331.971,-683.741 346,-679 355.76,-675.701 366.049,-672.727 376.423,-670.06"/>
<polygon fill="none" stroke="black" points="377.514,-673.396 386.381,-667.597 375.833,-666.6 377.514,-673.396"/>
<text text-anchor="middle" x="307" y="-711" font-family="Sans" font-size="10.00">requires</text>
</g>
<!-- configuration&#45;modules&#45;core#1452&#45;&gt;configuration&#45;modules&#45;core#1377 -->
<g id="edge18" class="edge"><title>configuration-modules-core#1452-&gt;configuration-modules-core#1377</title>
<path fill="none" stroke="black" stroke-dasharray="1,5" d="M231.665,-895.637C245.587,-890.266 258.418,-882.404 268,-871 301.408,-831.24 252.797,-677.932 286,-638 292.483,-630.203 333.368,-620.463 376.224,-612.131"/>
<polygon fill="black" stroke="black" points="386.26,-610.211 377.283,-616.51 381.349,-611.15 376.438,-612.09 376.438,-612.09 376.438,-612.09 381.349,-611.15 375.592,-607.67 386.26,-610.211 386.26,-610.211"/>
<text text-anchor="middle" x="307" y="-641" font-family="Sans" font-size="10.00">replaces</text>
</g>
<!-- configuration&#45;modules&#45;core#1452&#45;&gt;configuration&#45;modules&#45;core#1451 -->
<g id="edge19" class="edge"><title>configuration-modules-core#1452-&gt;configuration-modules-core#1451</title>
<path fill="none" stroke="black" stroke-dasharray="5,2" d="M231.547,-894.689C245.308,-889.41 258.118,-881.825 268,-871 301.993,-833.767 256.93,-800.191 286,-759 298.272,-741.612 314.489,-752.443 328,-736 344.866,-715.474 326.261,-696.781 346,-679 354.878,-671.003 365.406,-665.046 376.622,-660.64"/>
<polygon fill="none" stroke="black" points="377.901,-663.9 386.183,-657.293 375.589,-657.293 377.901,-663.9"/>
<text text-anchor="middle" x="307" y="-762" font-family="Sans" font-size="10.00">requires</text>
</g>
<!-- configuration&#45;modules&#45;core#1401 -->
<g id="node22" class="node"><title>configuration-modules-core#1401</title>
<g id="a_node22"><a xlink:href="https://github.com/quattor/configuration-modules-core/pull/1401" xlink:title="ncm-spma: yumdnf: initial dnf/yum4 based on yum" target="_parent">
<polygon fill="#6cc644" stroke="black" points="581.5,-276 386.5,-276 386.5,-226 581.5,-226 581.5,-276"/>
<text text-anchor="middle" x="484" y="-254" font-family="Sans" font-size="10.00">pull-request</text>
<text text-anchor="middle" x="484" y="-243" font-family="Sans" font-size="10.00">configuration-modules-core#1401</text>
</a>
</g>
</g>
<!-- configuration&#45;modules&#45;core#1405 -->
<g id="node23" class="node"><title>configuration-modules-core#1405</title>
<polygon fill="lightgrey" stroke="black" points="908.5,-38.5 713.5,-38.5 713.5,0.5 908.5,0.5 908.5,-38.5"/>
<text text-anchor="middle" x="811" y="-16.5" font-family="Sans" font-size="10.00">configuration-modules-core#1405</text>
</g>
<!-- configuration&#45;modules&#45;core#1401&#45;&gt;configuration&#45;modules&#45;core#1405 -->
<g id="edge20" class="edge"><title>configuration-modules-core#1401-&gt;configuration-modules-core#1405</title>
<path fill="none" stroke="black" stroke-dasharray="5,2" d="M495.757,-225.713C516.41,-180.573 566.21,-86.7633 640,-43 659.008,-31.7266 681.266,-24.9701 703.297,-21.0598"/>
<polygon fill="none" stroke="black" points="704.063,-24.4821 713.391,-19.4575 702.966,-17.5687 704.063,-24.4821"/>
<text text-anchor="middle" x="661" y="-46" font-family="Sans" font-size="10.00">requires</text>
</g>
<!-- configuration&#45;modules&#45;core#1336 -->
<g id="node24" class="node"><title>configuration-modules-core#1336</title>
<g id="a_node24"><a xlink:href="https://github.com/quattor/configuration-modules-core/pull/1336" xlink:title="ncm-network: Add support for CAF::Service actions after changes" target="_parent">
<polygon fill="#6cc644" stroke="black" points="231.5,-1134 36.5,-1134 36.5,-1084 231.5,-1084 231.5,-1134"/>
<text text-anchor="middle" x="134" y="-1112" font-family="Sans" font-size="10.00">pull-request</text>
<text text-anchor="middle" x="134" y="-1101" font-family="Sans" font-size="10.00">configuration-modules-core#1336</text>
</a>
</g>
</g>
<!-- configuration&#45;modules&#45;core#1335 -->
<g id="node25" class="node"><title>configuration-modules-core#1335</title>
<g id="a_node25"><a xlink:href="https://github.com/quattor/configuration-modules-core/pull/1335" xlink:title="ncm-metaconfig: Remove caf_service_action type to allow reuse" target="_parent">
<polygon fill="#6cc644" stroke="black" points="581.5,-796 386.5,-796 386.5,-746 581.5,-746 581.5,-796"/>
<text text-anchor="middle" x="484" y="-774" font-family="Sans" font-size="10.00">pull-request</text>
<text text-anchor="middle" x="484" y="-763" font-family="Sans" font-size="10.00">configuration-modules-core#1335</text>
</a>
</g>
</g>
<!-- configuration&#45;modules&#45;core#1336&#45;&gt;configuration&#45;modules&#45;core#1335 -->
<g id="edge21" class="edge"><title>configuration-modules-core#1336-&gt;configuration-modules-core#1335</title>
<path fill="none" stroke="black" stroke-dasharray="5,2" d="M231.844,-1091.49C244.491,-1087.15 256.895,-1081.74 268,-1075 302.174,-1054.26 312.089,-1044.67 328,-1008 346.027,-966.454 316.549,-839.404 346,-805 354.362,-795.231 365.052,-788.039 376.765,-782.777"/>
<polygon fill="none" stroke="black" points="378.357,-785.91 386.352,-778.958 375.766,-779.407 378.357,-785.91"/>
<text text-anchor="middle" x="307" y="-1066" font-family="Sans" font-size="10.00">requires</text>
</g>
<!-- configuration&#45;modules&#45;core#1071 -->
<g id="node26" class="node"><title>configuration-modules-core#1071</title>
<g id="a_node26"><a xlink:href="https://github.com/quattor/configuration-modules-core/issues/1071" xlink:title="ncm-network: support daemons to restart after network changes" target="_parent">
<ellipse fill="#6cc644" stroke="black" cx="484" cy="-1099" rx="137.772" ry="35.2113"/>
<text text-anchor="middle" x="484" y="-1102" font-family="Sans" font-size="10.00">issue</text>
<text text-anchor="middle" x="484" y="-1091" font-family="Sans" font-size="10.00">configuration-modules-core#1071</text>
</a>
</g>
</g>
<!-- configuration&#45;modules&#45;core#1336&#45;&gt;configuration&#45;modules&#45;core#1071 -->
<g id="edge22" class="edge"><title>configuration-modules-core#1336-&gt;configuration-modules-core#1071</title>
<path fill="none" stroke="black" stroke-width="2" d="M231.937,-1106.21C264.336,-1105.28 301.202,-1104.22 336.517,-1103.21"/>
<polygon fill="black" stroke="black" points="337.029,-1106.7 346.924,-1102.91 336.827,-1099.7 337.029,-1106.7"/>
<text text-anchor="middle" x="307" y="-1108" font-family="Sans" font-size="10.00">fixes</text>
</g>
<!-- template&#45;library&#45;core#191 -->
<g id="node27" class="node"><title>template-library-core#191</title>
<polygon fill="lightgrey" stroke="black" points="890.5,-556.5 731.5,-556.5 731.5,-517.5 890.5,-517.5 890.5,-556.5"/>
<text text-anchor="middle" x="811" y="-534.5" font-family="Sans" font-size="10.00">template-library-core#191</text>
</g>
<!-- configuration&#45;modules&#45;core#1335&#45;&gt;template&#45;library&#45;core#191 -->
<g id="edge23" class="edge"><title>configuration-modules-core#1335-&gt;template-library-core#191</title>
<path fill="none" stroke="black" stroke-dasharray="5,2" d="M581.545,-762.181C596.973,-756.665 611.339,-748.363 622,-736 647.53,-706.393 612.883,-589.161 640,-561 660.714,-539.489 691.252,-531.139 720.752,-528.944"/>
<polygon fill="none" stroke="black" points="721.318,-532.42 731.125,-528.412 720.959,-525.429 721.318,-532.42"/>
<text text-anchor="middle" x="661" y="-564" font-family="Sans" font-size="10.00">requires</text>
</g>
<!-- configuration&#45;modules&#45;core#1507 -->
<g id="node28" class="node"><title>configuration-modules-core#1507</title>
<g id="a_node28"><a xlink:href="https://github.com/quattor/configuration-modules-core/pull/1507" xlink:title="[WIP] ncm-spma: yumdnf: use spmaleaves dnf plugin" target="_parent">
<polygon fill="#6cc644" stroke="black" points="231.5,-276 36.5,-276 36.5,-226 231.5,-226 231.5,-276"/>
<text text-anchor="middle" x="134" y="-254" font-family="Sans" font-size="10.00">pull-request</text>
<text text-anchor="middle" x="134" y="-243" font-family="Sans" font-size="10.00">configuration-modules-core#1507</text>
</a>
</g>
</g>
<!-- configuration&#45;modules&#45;core#1507&#45;&gt;configuration&#45;modules&#45;core#1401 -->
<g id="edge24" class="edge"><title>configuration-modules-core#1507-&gt;configuration-modules-core#1401</title>
<path fill="none" stroke="black" stroke-dasharray="5,2" d="M231.937,-251C276.812,-251 330.255,-251 376.277,-251"/>
<polygon fill="none" stroke="black" points="376.281,-254.5 386.281,-251 376.281,-247.5 376.281,-254.5"/>
<text text-anchor="middle" x="307" y="-254" font-family="Sans" font-size="10.00">requires</text>
</g>
<!-- configuration&#45;modules&#45;core#1148 -->
<g id="node29" class="node"><title>configuration-modules-core#1148</title>
<g id="a_node29"><a xlink:href="https://github.com/quattor/configuration-modules-core/pull/1148" xlink:title="ncm-spma: Remove support from groups from spma yumng backend" target="_parent">
<polygon fill="#6cc644" stroke="black" points="231.5,-1524 36.5,-1524 36.5,-1474 231.5,-1474 231.5,-1524"/>
<text text-anchor="middle" x="134" y="-1502" font-family="Sans" font-size="10.00">pull-request</text>
<text text-anchor="middle" x="134" y="-1491" font-family="Sans" font-size="10.00">configuration-modules-core#1148</text>
</a>
</g>
</g>
<!-- configuration&#45;modules&#45;core#952 -->
<g id="node30" class="node"><title>configuration-modules-core#952</title>
<g id="a_node30"><a xlink:href="https://github.com/quattor/configuration-modules-core/issues/952" xlink:title="ncm-spma (yumng): Remove support for package groups" target="_parent">
<ellipse fill="#6cc644" stroke="black" cx="484" cy="-1499" rx="133.787" ry="35.2113"/>
<text text-anchor="middle" x="484" y="-1502" font-family="Sans" font-size="10.00">issue</text>
<text text-anchor="middle" x="484" y="-1491" font-family="Sans" font-size="10.00">configuration-modules-core#952</text>
</a>
</g>
</g>
<!-- configuration&#45;modules&#45;core#1148&#45;&gt;configuration&#45;modules&#45;core#952 -->
<g id="edge25" class="edge"><title>configuration-modules-core#1148-&gt;configuration-modules-core#952</title>
<path fill="none" stroke="black" stroke-width="2" d="M231.937,-1499C265.395,-1499 303.615,-1499 339.972,-1499"/>
<polygon fill="black" stroke="black" points="340.172,-1502.5 350.172,-1499 340.172,-1495.5 340.172,-1502.5"/>
<text text-anchor="middle" x="307" y="-1502" font-family="Sans" font-size="10.00">fixes</text>
</g>
<!-- configuration&#45;modules&#45;core#950 -->
<g id="node31" class="node"><title>configuration-modules-core#950</title>
<g id="a_node31"><a xlink:href="https://github.com/quattor/configuration-modules-core/issues/950" xlink:title="ncm-spma: Remove support for package groups from yum backends" target="_parent">
<ellipse fill="#6cc644" stroke="black" cx="134" cy="-1415" rx="133.787" ry="35.2113"/>
<text text-anchor="middle" x="134" y="-1418" font-family="Sans" font-size="10.00">issue</text>
<text text-anchor="middle" x="134" y="-1407" font-family="Sans" font-size="10.00">configuration-modules-core#950</text>
</a>
</g>
</g>
<!-- configuration&#45;modules&#45;core#951 -->
<g id="node32" class="node"><title>configuration-modules-core#951</title>
<g id="a_node32"><a xlink:href="https://github.com/quattor/configuration-modules-core/issues/951" xlink:title="ncm-spma (yum): Remove support for package groups" target="_parent">
<ellipse fill="#6cc644" stroke="black" cx="484" cy="-1410" rx="133.787" ry="35.2113"/>
<text text-anchor="middle" x="484" y="-1413" font-family="Sans" font-size="10.00">issue</text>
<text text-anchor="middle" x="484" y="-1402" font-family="Sans" font-size="10.00">configuration-modules-core#951</text>
</a>
</g>
</g>
<!-- configuration&#45;modules&#45;core#950&#45;&gt;configuration&#45;modules&#45;core#951 -->
<g id="edge26" class="edge"><title>configuration-modules-core#950-&gt;configuration-modules-core#951</title>
<path fill="none" stroke="black" stroke-dasharray="5,2" d="M267.557,-1413.1C291.338,-1412.75 316.217,-1412.4 340.271,-1412.05"/>
<polygon fill="none" stroke="black" points="340.575,-1415.55 350.524,-1411.9 340.475,-1408.55 340.575,-1415.55"/>
<text text-anchor="middle" x="307" y="-1416" font-family="Sans" font-size="10.00">requires</text>
</g>
<!-- configuration&#45;modules&#45;core#950&#45;&gt;configuration&#45;modules&#45;core#952 -->
<g id="edge27" class="edge"><title>configuration-modules-core#950-&gt;configuration-modules-core#952</title>
<path fill="none" stroke="black" stroke-dasharray="5,2" d="M233.327,-1438.73C277.519,-1449.4 329.798,-1462.02 375.069,-1472.95"/>
<polygon fill="none" stroke="black" points="374.373,-1476.38 384.915,-1475.32 376.016,-1469.58 374.373,-1476.38"/>
<text text-anchor="middle" x="307" y="-1463" font-family="Sans" font-size="10.00">requires</text>
</g>
<!-- template&#45;library&#45;grid#237 -->
<g id="node33" class="node"><title>template-library-grid#237</title>
<g id="a_node33"><a xlink:href="https://github.com/quattor/template-library-grid/pull/237" xlink:title="users: Fix collisions with system managed groups" target="_parent">
<polygon fill="#6cc644" stroke="black" points="562.5,-480 405.5,-480 405.5,-430 562.5,-430 562.5,-480"/>
<text text-anchor="middle" x="484" y="-458" font-family="Sans" font-size="10.00">pull-request</text>
<text text-anchor="middle" x="484" y="-447" font-family="Sans" font-size="10.00">template-library-grid#237</text>
</a>
</g>
</g>
<!-- template&#45;library&#45;grid#226 -->
<g id="node34" class="node"><title>template-library-grid#226</title>
<g id="a_node34"><a xlink:href="https://github.com/quattor/template-library-grid/issues/226" xlink:title="collisions group id" target="_parent">
<ellipse fill="#6cc644" stroke="black" cx="811" cy="-445" rx="111.032" ry="35.2113"/>
<text text-anchor="middle" x="811" y="-448" font-family="Sans" font-size="10.00">issue</text>
<text text-anchor="middle" x="811" y="-437" font-family="Sans" font-size="10.00">template-library-grid#226</text>
</a>
</g>
</g>
<!-- template&#45;library&#45;grid#237&#45;&gt;template&#45;library&#45;grid#226 -->
<g id="edge28" class="edge"><title>template-library-grid#237-&gt;template-library-grid#226</title>
<path fill="none" stroke="black" stroke-width="2" d="M562.846,-452.605C600.919,-451.433 647.595,-449.997 690.09,-448.69"/>
<polygon fill="black" stroke="black" points="690.335,-452.184 700.223,-448.378 690.12,-445.187 690.335,-452.184"/>
<text text-anchor="middle" x="661" y="-453" font-family="Sans" font-size="10.00">fixes</text>
</g>
<!-- template&#45;library&#45;grid#232 -->
<g id="node35" class="node"><title>template-library-grid#232</title>
<g id="a_node35"><a xlink:href="https://github.com/quattor/template-library-grid/pull/232" xlink:title="arc-ce: Export arc-ce feature from aquilon at RAL" target="_parent">
<polygon fill="#6cc644" stroke="black" points="212.5,-1239 55.5,-1239 55.5,-1189 212.5,-1189 212.5,-1239"/>
<text text-anchor="middle" x="134" y="-1217" font-family="Sans" font-size="10.00">pull-request</text>
<text text-anchor="middle" x="134" y="-1206" font-family="Sans" font-size="10.00">template-library-grid#232</text>
</a>
</g>
</g>
<!-- template&#45;library&#45;grid#221 -->
<g id="node36" class="node"><title>template-library-grid#221</title>
<g id="a_node36"><a xlink:href="https://github.com/quattor/template-library-grid/issues/221" xlink:title="Support for new CE types (ARC CE, HTCONDOR CE)" target="_parent">
<ellipse fill="#6cc644" stroke="black" cx="484" cy="-1214" rx="111.032" ry="35.2113"/>
<text text-anchor="middle" x="484" y="-1217" font-family="Sans" font-size="10.00">issue</text>
<text text-anchor="middle" x="484" y="-1206" font-family="Sans" font-size="10.00">template-library-grid#221</text>
</a>
</g>
</g>
<!-- template&#45;library&#45;grid#232&#45;&gt;template&#45;library&#45;grid#221 -->
<g id="edge29" class="edge"><title>template-library-grid#232-&gt;template-library-grid#221</title>
<path fill="none" stroke="black" stroke-width="2" d="M212.665,-1214C256.799,-1214 313.009,-1214 362.728,-1214"/>
<polygon fill="black" stroke="black" points="362.906,-1217.5 372.906,-1214 362.906,-1210.5 362.906,-1217.5"/>
<text text-anchor="middle" x="307" y="-1217" font-family="Sans" font-size="10.00">fixes</text>
</g>
<!-- aquilon#115 -->
<g id="node37" class="node"><title>aquilon#115</title>
<g id="a_node37"><a xlink:href="https://github.com/quattor/aquilon/pull/115" xlink:title="services: insert service data early in the object template" target="_parent">
<polygon fill="#6cc644" stroke="black" points="179.5,-1827 88.5,-1827 88.5,-1777 179.5,-1777 179.5,-1827"/>
<text text-anchor="middle" x="134" y="-1805" font-family="Sans" font-size="10.00">pull-request</text>
<text text-anchor="middle" x="134" y="-1794" font-family="Sans" font-size="10.00">aquilon#115</text>
</a>
</g>
</g>
<!-- aquilon#109 -->
<g id="node38" class="node"><title>aquilon#109</title>
<g id="a_node38"><a xlink:href="https://github.com/quattor/aquilon/issues/109" xlink:title="Why service configuration is included so late in the plenary object?" target="_parent">
<ellipse fill="#6cc644" stroke="black" cx="484" cy="-1792" rx="64.1938" ry="35.2113"/>
<text text-anchor="middle" x="484" y="-1795" font-family="Sans" font-size="10.00">issue</text>
<text text-anchor="middle" x="484" y="-1784" font-family="Sans" font-size="10.00">aquilon#109</text>
</a>
</g>
</g>
<!-- aquilon#115&#45;&gt;aquilon#109 -->
<g id="edge30" class="edge"><title>aquilon#115-&gt;aquilon#109</title>
<path fill="none" stroke="black" stroke-width="2" d="M179.782,-1800.71C237.872,-1799.04 339.98,-1796.11 409.507,-1794.11"/>
<polygon fill="black" stroke="black" points="409.624,-1797.61 419.519,-1793.82 409.423,-1790.61 409.624,-1797.61"/>
<text text-anchor="middle" x="307" y="-1800" font-family="Sans" font-size="10.00">fixes</text>
</g>
<!-- aquilon#110 -->
<g id="node39" class="node"><title>aquilon#110</title>
<g id="a_node39"><a xlink:href="https://github.com/quattor/aquilon/pull/110" xlink:title="Change site and machine namespace to use continent name" target="_parent">
<polygon fill="#6cc644" stroke="black" points="179.5,-1759 88.5,-1759 88.5,-1709 179.5,-1709 179.5,-1759"/>
<text text-anchor="middle" x="134" y="-1737" font-family="Sans" font-size="10.00">pull-request</text>
<text text-anchor="middle" x="134" y="-1726" font-family="Sans" font-size="10.00">aquilon#110</text>
</a>
</g>
</g>
<!-- aquilon#104 -->
<g id="node40" class="node"><title>aquilon#104</title>
<g id="a_node40"><a xlink:href="https://github.com/quattor/aquilon/issues/104" xlink:title="1.12.62: location related templates cannot be used" target="_parent">
<ellipse fill="#6cc644" stroke="black" cx="484" cy="-1690" rx="64.1938" ry="35.2113"/>
<text text-anchor="middle" x="484" y="-1693" font-family="Sans" font-size="10.00">issue</text>
<text text-anchor="middle" x="484" y="-1682" font-family="Sans" font-size="10.00">aquilon#104</text>
</a>
</g>
</g>
<!-- aquilon#110&#45;&gt;aquilon#104 -->
<g id="edge31" class="edge"><title>aquilon#110-&gt;aquilon#104</title>
<path fill="none" stroke="black" stroke-width="2" d="M179.782,-1728.34C238.309,-1720.94 341.52,-1707.89 411.072,-1699.09"/>
<polygon fill="black" stroke="black" points="411.598,-1702.56 421.08,-1697.83 410.72,-1695.61 411.598,-1702.56"/>
<text text-anchor="middle" x="307" y="-1717" font-family="Sans" font-size="10.00">fixes</text>
</g>
<!-- aquilon#91 -->
<g id="node41" class="node"><title>aquilon#91</title>
<g id="a_node41"><a xlink:href="https://github.com/quattor/aquilon/issues/91" xlink:title="1.12.58: city timezone is not passed to the object template" target="_parent">
<ellipse fill="#6cc644" stroke="black" cx="134" cy="-1656" rx="60.2083" ry="35.2113"/>
<text text-anchor="middle" x="134" y="-1659" font-family="Sans" font-size="10.00">issue</text>
<text text-anchor="middle" x="134" y="-1648" font-family="Sans" font-size="10.00">aquilon#91</text>
</a>
</g>
</g>
<!-- aquilon#91&#45;&gt;aquilon#104 -->
<g id="edge32" class="edge"><title>aquilon#91-&gt;aquilon#104</title>
<path fill="none" stroke="black" stroke-dasharray="5,2" d="M193.64,-1661.73C253.397,-1667.57 346.194,-1676.63 410.521,-1682.92"/>
<polygon fill="none" stroke="black" points="410.298,-1686.41 420.591,-1683.9 410.979,-1679.45 410.298,-1686.41"/>
<text text-anchor="middle" x="307" y="-1677" font-family="Sans" font-size="10.00">requires</text>
</g>
<!-- aquilon#89 -->
<g id="node42" class="node"><title>aquilon#89</title>
<g id="a_node42"><a xlink:href="https://github.com/quattor/aquilon/pull/89" xlink:title="Broker: pass archetype to the object profile" target="_parent">
<polygon fill="#6cc644" stroke="black" points="177.5,-1603 90.5,-1603 90.5,-1553 177.5,-1553 177.5,-1603"/>
<text text-anchor="middle" x="134" y="-1581" font-family="Sans" font-size="10.00">pull-request</text>
<text text-anchor="middle" x="134" y="-1570" font-family="Sans" font-size="10.00">aquilon#89</text>
</a>
</g>
</g>
<!-- aquilon#88 -->
<g id="node43" class="node"><title>aquilon#88</title>
<g id="a_node43"><a xlink:href="https://github.com/quattor/aquilon/issues/88" xlink:title="1.12.58: the broker should pass the archetype to the object template" target="_parent">
<ellipse fill="#6cc644" stroke="black" cx="484" cy="-1588" rx="60.2083" ry="35.2113"/>
<text text-anchor="middle" x="484" y="-1591" font-family="Sans" font-size="10.00">issue</text>
<text text-anchor="middle" x="484" y="-1580" font-family="Sans" font-size="10.00">aquilon#88</text>
</a>
</g>
</g>
<!-- aquilon#89&#45;&gt;aquilon#88 -->
<g id="edge33" class="edge"><title>aquilon#89-&gt;aquilon#88</title>
<path fill="none" stroke="black" stroke-width="2" d="M177.672,-1579.23C236.488,-1580.92 343.167,-1583.98 413.558,-1586"/>
<polygon fill="black" stroke="black" points="413.574,-1589.51 423.671,-1586.3 413.775,-1582.51 413.574,-1589.51"/>
<text text-anchor="middle" x="307" y="-1587" font-family="Sans" font-size="10.00">fixes</text>
</g>
</g>
</svg>
