<?xml version="1.0" encoding="UTF-8" standalone="no"?>
<?xml-stylesheet href="relationships.css" type="text/css"?>
<!-- Generated by graphviz version 2.30.1 (20200930.0103)
 -->
<!-- Title: Dependencies Pages: 1 -->
<svg xmlns="http://www.w3.org/2000/svg" xmlns:xlink="http://www.w3.org/1999/xlink" width="1019pt" height="1529pt" viewBox="0.00 0.00 1019.00 1529.00">
<g id="graph0" class="graph" transform="scale(1 1) rotate(0) translate(4 1525)">
<title>Dependencies</title>
<polygon fill="white" stroke="white" points="-4,5 -4,-1525 1016,-1525 1016,5 -4,5"/>
<g id="clust3" class="cluster"><title>cluster_milestone_23.12</title>
<polygon fill="none" stroke="black" points="8,-949 8,-1116 522,-1116 522,-949 8,-949"/>
<text text-anchor="middle" x="265" y="-1102.4" font-family="Sans" font-size="12.00">23.12</text>
</g>
<g id="clust2" class="cluster"><title>cluster_milestone_22.12</title>
<polygon fill="none" stroke="black" points="319,-218 319,-941 843,-941 843,-218 319,-218"/>
<text text-anchor="middle" x="581" y="-927.4" font-family="Sans" font-size="12.00">22.12</text>
</g>
<g id="clust1" class="cluster"><title>cluster_milestone_23.6</title>
<polygon fill="none" stroke="black" points="29,-780 29,-879 187,-879 187,-780 29,-780"/>
<text text-anchor="middle" x="108" y="-865.4" font-family="Sans" font-size="12.00">23.6</text>
</g>
<!-- aii#331 -->
<g id="node1" class="node"><title>aii#331</title>
<g id="a_node1"><a xlink:href="https://github.com/quattor/aii/pull/331" xlink:title="aii#331 (pull-request)" target="_parent">
<polygon fill="#6cc644" stroke="black" points="179,-849.5 37,-849.5 37,-788.5 179,-788.5 179,-849.5"/>
<text text-anchor="middle" x="108" y="-827.5" font-family="Sans" font-size="10.00">let aii generate ansible</text>
<text text-anchor="middle" x="108" y="-816.5" font-family="Sans" font-size="10.00">playbook for supported</text>
<text text-anchor="middle" x="108" y="-805.5" font-family="Sans" font-size="10.00">components</text>
</a>
</g>
</g>
<!-- aii#328 -->
<g id="node2" class="node"><title>aii#328</title>
<g id="a_node2"><a xlink:href="https://github.com/quattor/aii/pull/328" xlink:title="aii#328 (pull-request)" target="_parent">
<polygon fill="#6cc644" stroke="black" points="515,-844 333,-844 333,-794 515,-794 515,-844"/>
<text text-anchor="middle" x="424" y="-822" font-family="Sans" font-size="10.00">aii-ks: generate ks post section</text>
<text text-anchor="middle" x="424" y="-811" font-family="Sans" font-size="10.00">as standalone script</text>
</a>
</g>
</g>
<!-- aii#331&#45;&gt;aii#328 -->
<g id="edge1" class="edge"><title>aii#331-&gt;aii#328</title>
<path fill="none" stroke="black" stroke-dasharray="5,2" d="M179.077,-819C221.343,-819 275.883,-819 322.668,-819"/>
<polygon fill="none" stroke="black" points="322.834,-822.5 332.834,-819 322.834,-815.5 322.834,-822.5"/>
<text text-anchor="middle" x="235.574" y="-811" font-family="Sans" font-size="10.00">requires</text>
</g>
<!-- aii#280 -->
<g id="node3" class="node"><title>aii#280</title>
<polygon fill="lightgrey" stroke="black" points="1010.5,-903.5 943.5,-903.5 943.5,-864.5 1010.5,-864.5 1010.5,-903.5"/>
<text text-anchor="middle" x="977" y="-881.5" font-family="Sans" font-size="10.00">aii#280</text>
</g>
<!-- aii#328&#45;&gt;aii#280 -->
<g id="edge2" class="edge"><title>aii#328-&gt;aii#280</title>
<path fill="none" stroke="black" stroke-dasharray="5,2" d="M515.002,-841.227C552.501,-849.671 596.636,-858.557 637,-864 742.712,-878.256 868.329,-882.351 932.912,-883.527"/>
<polygon fill="none" stroke="black" points="933.06,-887.03 943.117,-883.697 933.177,-880.031 933.06,-887.03"/>
<text text-anchor="middle" x="708.47" y="-865.725" font-family="Sans" font-size="10.00">requires</text>
</g>
<!-- aii#316 -->
<g id="node4" class="node"><title>aii#316</title>
<g id="a_node4"><a xlink:href="https://github.com/quattor/aii/pull/316" xlink:title="aii#316 (pull-request)" target="_parent">
<polygon fill="#6e5494" stroke="black" points="824,-855.5 648,-855.5 648,-794.5 824,-794.5 824,-855.5"/>
<text text-anchor="middle" x="736" y="-833.5" font-family="Sans" font-size="10.00">aii-ks: generate kickstart repo</text>
<text text-anchor="middle" x="736" y="-822.5" font-family="Sans" font-size="10.00">entries based on SPMA</text>
<text text-anchor="middle" x="736" y="-811.5" font-family="Sans" font-size="10.00">configuration</text>
</a>
</g>
</g>
<!-- aii#328&#45;&gt;aii#316 -->
<g id="edge3" class="edge"><title>aii#328-&gt;aii#316</title>
<path fill="none" stroke="black" stroke-dasharray="5,2" d="M515.081,-820.744C553.563,-821.488 598.56,-822.359 637.792,-823.119"/>
<polygon fill="none" stroke="black" points="637.833,-826.62 647.899,-823.314 637.968,-819.621 637.833,-826.62"/>
<text text-anchor="middle" x="561.561" y="-814.03" font-family="Sans" font-size="10.00">requires</text>
</g>
<!-- aii#316&#45;&gt;aii#280 -->
<g id="edge4" class="edge"><title>aii#316-&gt;aii#280</title>
<path fill="none" stroke="black" stroke-dasharray="5,2" d="M824.299,-846.551C861.558,-855.749 903.33,-866.061 933.593,-873.531"/>
<polygon fill="none" stroke="black" points="932.844,-876.951 943.392,-875.95 934.522,-870.155 932.844,-876.951"/>
<text text-anchor="middle" x="863.778" y="-853.234" font-family="Sans" font-size="10.00">requires</text>
</g>
<!-- aii#314 -->
<g id="node5" class="node"><title>aii#314</title>
<polygon fill="lightgrey" stroke="black" points="1010.5,-788.5 943.5,-788.5 943.5,-749.5 1010.5,-749.5 1010.5,-788.5"/>
<text text-anchor="middle" x="977" y="-766.5" font-family="Sans" font-size="10.00">aii#314</text>
</g>
<!-- aii#316&#45;&gt;aii#314 -->
<g id="edge5" class="edge"><title>aii#316-&gt;aii#314</title>
<path fill="none" stroke="black" stroke-dasharray="5,2" d="M824.299,-804.545C861.558,-795.815 903.33,-786.027 933.593,-778.936"/>
<polygon fill="none" stroke="black" points="934.454,-782.33 943.392,-776.64 932.857,-775.514 934.454,-782.33"/>
<text text-anchor="middle" x="863.778" y="-782.608" font-family="Sans" font-size="10.00">requires</text>
</g>
<!-- aii#315 -->
<g id="node6" class="node"><title>aii#315</title>
<polygon fill="lightgrey" stroke="black" points="1010.5,-845.5 943.5,-845.5 943.5,-806.5 1010.5,-806.5 1010.5,-845.5"/>
<text text-anchor="middle" x="977" y="-823.5" font-family="Sans" font-size="10.00">aii#315</text>
</g>
<!-- aii#316&#45;&gt;aii#315 -->
<g id="edge6" class="edge"><title>aii#316-&gt;aii#315</title>
<path fill="none" stroke="black" stroke-dasharray="5,2" d="M824.299,-825.365C861.396,-825.52 902.967,-825.694 933.198,-825.821"/>
<polygon fill="none" stroke="black" points="933.377,-829.322 943.392,-825.864 933.406,-822.322 933.377,-829.322"/>
<text text-anchor="middle" x="863.962" y="-817.615" font-family="Sans" font-size="10.00">requires</text>
</g>
<!-- aii#299 -->
<g id="node7" class="node"><title>aii#299</title>
<g id="a_node7"><a xlink:href="https://github.com/quattor/aii/pull/299" xlink:title="aii#299 (pull-request)" target="_parent">
<polygon fill="#6cc644" stroke="black" points="500.5,-912 347.5,-912 347.5,-862 500.5,-862 500.5,-912"/>
<text text-anchor="middle" x="424" y="-890" font-family="Sans" font-size="10.00">aii-dhcp: support optional</text>
<text text-anchor="middle" x="424" y="-879" font-family="Sans" font-size="10.00">hostname ip verification</text>
</a>
</g>
</g>
<!-- aii#299&#45;&gt;aii#280 -->
<g id="edge7" class="edge"><title>aii#299-&gt;aii#280</title>
<path fill="none" stroke="black" stroke-dasharray="5,2" d="M500.559,-892.562C584.314,-897.894 723.384,-904.278 843,-898 873.16,-896.417 907.009,-892.828 933.011,-889.681"/>
<polygon fill="none" stroke="black" points="933.786,-893.111 943.281,-888.411 932.927,-886.164 933.786,-893.111"/>
<text text-anchor="middle" x="701.975" y="-892.576" font-family="Sans" font-size="10.00">requires</text>
</g>
<!-- CAF#257 -->
<g id="node8" class="node"><title>CAF#257</title>
<g id="a_node8"><a xlink:href="https://github.com/quattor/CAF/pull/257" xlink:title="CAF#257 (pull-request)" target="_parent">
<polygon fill="#6cc644" stroke="black" points="199.5,-1081 16.5,-1081 16.5,-1031 199.5,-1031 199.5,-1081"/>
<text text-anchor="middle" x="108" y="-1059" font-family="Sans" font-size="10.00">Process: run process as another</text>
<text text-anchor="middle" x="108" y="-1048" font-family="Sans" font-size="10.00">user</text>
</a>
</g>
</g>
<!-- CAF#253 -->
<g id="node9" class="node"><title>CAF#253</title>
<g id="a_node9"><a xlink:href="https://github.com/quattor/CAF/issues/253" xlink:title="CAF#253 (issue)" target="_parent">
<path fill="#6cc644" stroke="black" d="M502,-1086.5C502,-1086.5 346,-1086.5 346,-1086.5 340,-1086.5 334,-1080.5 334,-1074.5 334,-1074.5 334,-1037.5 334,-1037.5 334,-1031.5 340,-1025.5 346,-1025.5 346,-1025.5 502,-1025.5 502,-1025.5 508,-1025.5 514,-1031.5 514,-1037.5 514,-1037.5 514,-1074.5 514,-1074.5 514,-1080.5 508,-1086.5 502,-1086.5"/>
<text text-anchor="middle" x="424" y="-1064.5" font-family="Sans" font-size="10.00">CAF::Process: Include an option</text>
<text text-anchor="middle" x="424" y="-1053.5" font-family="Sans" font-size="10.00">to execute the command as an</text>
<text text-anchor="middle" x="424" y="-1042.5" font-family="Sans" font-size="10.00">specific user</text>
</a>
</g>
</g>
<!-- CAF#257&#45;&gt;CAF#253 -->
<g id="edge8" class="edge"><title>CAF#257-&gt;CAF#253</title>
<path fill="none" stroke="black" stroke-width="2" d="M199.822,-1056C238.561,-1056 283.88,-1056 323.522,-1056"/>
<polygon fill="black" stroke="black" points="323.737,-1059.5 333.737,-1056 323.737,-1052.5 323.737,-1059.5"/>
<text text-anchor="middle" x="254.782" y="-1048" font-family="Sans" font-size="10.00">fixes</text>
</g>
<!-- CAF#110 -->
<g id="node10" class="node"><title>CAF#110</title>
<g id="a_node10"><a xlink:href="https://github.com/quattor/CAF/pull/110" xlink:title="CAF#110 (pull-request)" target="_parent">
<polygon fill="#6cc644" stroke="black" points="499.5,-492 348.5,-492 348.5,-442 499.5,-442 499.5,-492"/>
<text text-anchor="middle" x="424" y="-470" font-family="Sans" font-size="10.00">CAF::Download class: API</text>
<text text-anchor="middle" x="424" y="-459" font-family="Sans" font-size="10.00">proposal</text>
</a>
</g>
</g>
<!-- CAF#120 -->
<g id="node11" class="node"><title>CAF#120</title>
<polygon fill="lightgrey" stroke="black" points="773,-209.5 699,-209.5 699,-170.5 773,-170.5 773,-209.5"/>
<text text-anchor="middle" x="736" y="-187.5" font-family="Sans" font-size="10.00">CAF#120</text>
</g>
<!-- CAF#110&#45;&gt;CAF#120 -->
<g id="edge9" class="edge"><title>CAF#110-&gt;CAF#120</title>
<path fill="none" stroke="black" stroke-dasharray="5,2" d="M499.665,-449.97C510.274,-445.335 520.461,-439.455 529,-432 610.452,-360.887 552.618,-281.61 637,-214 651.513,-202.372 670.842,-196.261 688.498,-193.091"/>
<polygon fill="none" stroke="black" points="689.292,-196.51 698.651,-191.544 688.238,-189.59 689.292,-196.51"/>
<text text-anchor="middle" x="562.566" y="-309.769" font-family="Sans" font-size="10.00">requires</text>
</g>
<!-- configuration&#45;modules&#45;core#1567 -->
<g id="node12" class="node"><title>configuration-modules-core#1567</title>
<g id="a_node12"><a xlink:href="https://github.com/quattor/configuration-modules-core/pull/1567" xlink:title="configuration-modules-core#1567 (pull-request)" target="_parent">
<polygon fill="#6cc644" stroke="black" points="516.5,-776 331.5,-776 331.5,-726 516.5,-726 516.5,-776"/>
<text text-anchor="middle" x="424" y="-754" font-family="Sans" font-size="10.00">ncm-systemd: All Exec* options</text>
<text text-anchor="middle" x="424" y="-743" font-family="Sans" font-size="10.00">can be lists of strings</text>
</a>
</g>
</g>
<!-- configuration&#45;modules&#45;core#1262 -->
<g id="node13" class="node"><title>configuration-modules-core#1262</title>
<g id="a_node13"><a xlink:href="https://github.com/quattor/configuration-modules-core/issues/1262" xlink:title="configuration-modules-core#1262 (issue)" target="_parent">
<path fill="#6cc644" stroke="black" d="M823,-776C823,-776 649,-776 649,-776 643,-776 637,-770 637,-764 637,-764 637,-738 637,-738 637,-732 643,-726 649,-726 649,-726 823,-726 823,-726 829,-726 835,-732 835,-738 835,-738 835,-764 835,-764 835,-770 829,-776 823,-776"/>
<text text-anchor="middle" x="736" y="-754" font-family="Sans" font-size="10.00">ncm-systemd: ExecStart should be</text>
<text text-anchor="middle" x="736" y="-743" font-family="Sans" font-size="10.00">a list of string, not a string</text>
</a>
</g>
</g>
<!-- configuration&#45;modules&#45;core#1567&#45;&gt;configuration&#45;modules&#45;core#1262 -->
<g id="edge10" class="edge"><title>configuration-modules-core#1567-&gt;configuration-modules-core#1262</title>
<path fill="none" stroke="black" stroke-width="2" d="M516.752,-751C551.268,-751 590.834,-751 626.716,-751"/>
<polygon fill="black" stroke="black" points="626.732,-754.5 636.732,-751 626.731,-747.5 626.732,-754.5"/>
<text text-anchor="middle" x="564.921" y="-743" font-family="Sans" font-size="10.00">fixes</text>
</g>
<!-- configuration&#45;modules&#45;core#1554 -->
<g id="node14" class="node"><title>configuration-modules-core#1554</title>
<g id="a_node14"><a xlink:href="https://github.com/quattor/configuration-modules-core/pull/1554" xlink:title="configuration-modules-core#1554 (pull-request)" target="_parent">
<polygon fill="#6cc644" stroke="black" points="509,-708 339,-708 339,-658 509,-658 509,-708"/>
<text text-anchor="middle" x="424" y="-686" font-family="Sans" font-size="10.00">avoid removing empty list of</text>
<text text-anchor="middle" x="424" y="-675" font-family="Sans" font-size="10.00">packages</text>
</a>
</g>
</g>
<!-- configuration&#45;modules&#45;core#1553 -->
<g id="node15" class="node"><title>configuration-modules-core#1553</title>
<g id="a_node15"><a xlink:href="https://github.com/quattor/configuration-modules-core/issues/1553" xlink:title="configuration-modules-core#1553 (issue)" target="_parent">
<path fill="#6cc644" stroke="black" d="M816.5,-707.5C816.5,-707.5 655.5,-707.5 655.5,-707.5 649.5,-707.5 643.5,-701.5 643.5,-695.5 643.5,-695.5 643.5,-658.5 643.5,-658.5 643.5,-652.5 649.5,-646.5 655.5,-646.5 655.5,-646.5 816.5,-646.5 816.5,-646.5 822.5,-646.5 828.5,-652.5 828.5,-658.5 828.5,-658.5 828.5,-695.5 828.5,-695.5 828.5,-701.5 822.5,-707.5 816.5,-707.5"/>
<text text-anchor="middle" x="736" y="-685.5" font-family="Sans" font-size="10.00">ncm-spma: update_pkgs in yum</text>
<text text-anchor="middle" x="736" y="-674.5" font-family="Sans" font-size="10.00">plugin tries to remove empty</text>
<text text-anchor="middle" x="736" y="-663.5" font-family="Sans" font-size="10.00">list of packages</text>
</a>
</g>
</g>
<!-- configuration&#45;modules&#45;core#1554&#45;&gt;configuration&#45;modules&#45;core#1553 -->
<g id="edge11" class="edge"><title>configuration-modules-core#1554-&gt;configuration-modules-core#1553</title>
<path fill="none" stroke="black" stroke-width="2" d="M509.299,-681.368C547.563,-680.628 593.142,-679.746 633.29,-678.969"/>
<polygon fill="black" stroke="black" points="633.442,-682.466 643.372,-678.773 633.306,-675.468 633.442,-682.466"/>
<text text-anchor="middle" x="564.057" y="-672.076" font-family="Sans" font-size="10.00">fixes</text>
</g>
<!-- configuration&#45;modules&#45;core#1490 -->
<g id="node16" class="node"><title>configuration-modules-core#1490</title>
<g id="a_node16"><a xlink:href="https://github.com/quattor/configuration-modules-core/pull/1490" xlink:title="configuration-modules-core#1490 (pull-request)" target="_parent">
<polygon fill="#6e5494" stroke="black" points="507.5,-423.5 340.5,-423.5 340.5,-362.5 507.5,-362.5 507.5,-423.5"/>
<text text-anchor="middle" x="424" y="-401.5" font-family="Sans" font-size="10.00">ncm-ceph: Add support for</text>
<text text-anchor="middle" x="424" y="-390.5" font-family="Sans" font-size="10.00">orchestrator/cephadm under</text>
<text text-anchor="middle" x="424" y="-379.5" font-family="Sans" font-size="10.00">octopus</text>
</a>
</g>
</g>
<!-- configuration&#45;modules&#45;core#1463 -->
<g id="node17" class="node"><title>configuration-modules-core#1463</title>
<polygon fill="lightgrey" stroke="black" points="833.5,-152.5 638.5,-152.5 638.5,-113.5 833.5,-113.5 833.5,-152.5"/>
<text text-anchor="middle" x="736" y="-130.5" font-family="Sans" font-size="10.00">configuration-modules-core#1463</text>
</g>
<!-- configuration&#45;modules&#45;core#1490&#45;&gt;configuration&#45;modules&#45;core#1463 -->
<g id="edge12" class="edge"><title>configuration-modules-core#1490-&gt;configuration-modules-core#1463</title>
<path fill="none" stroke="black" stroke-dasharray="1,5" d="M507.591,-367.591C515.262,-363.401 522.56,-358.566 529,-353 603.071,-288.974 560.158,-221.672 637,-161 638.384,-159.907 639.81,-158.856 641.27,-157.847"/>
<polygon fill="black" stroke="black" points="649.988,-152.503 643.814,-161.566 645.725,-155.116 641.462,-157.729 641.462,-157.729 641.462,-157.729 645.725,-155.116 639.11,-153.893 649.988,-152.503 649.988,-152.503"/>
<text text-anchor="middle" x="559.72" y="-252.683" font-family="Sans" font-size="10.00">replaces</text>
</g>
<!-- configuration&#45;modules&#45;core#1464 -->
<g id="node18" class="node"><title>configuration-modules-core#1464</title>
<g id="a_node18"><a xlink:href="https://github.com/quattor/configuration-modules-core/pull/1464" xlink:title="configuration-modules-core#1464 (pull-request)" target="_parent">
<polygon fill="#6e5494" stroke="black" points="516,-639.5 332,-639.5 332,-578.5 516,-578.5 516,-639.5"/>
<text text-anchor="middle" x="424" y="-617.5" font-family="Sans" font-size="10.00">ncm-systemd: all pre and post</text>
<text text-anchor="middle" x="424" y="-606.5" font-family="Sans" font-size="10.00">exec commands now take a list</text>
<text text-anchor="middle" x="424" y="-595.5" font-family="Sans" font-size="10.00">instead of a string</text>
</a>
</g>
</g>
<!-- template&#45;library&#45;core#212 -->
<g id="node19" class="node"><title>template-library-core#212</title>
<g id="a_node19"><a xlink:href="https://github.com/quattor/template-library-core/pull/212" xlink:title="template-library-core#212 (pull-request)" target="_parent">
<polygon fill="#6e5494" stroke="black" points="823.5,-628.5 648.5,-628.5 648.5,-567.5 823.5,-567.5 823.5,-628.5"/>
<text text-anchor="middle" x="736" y="-606.5" font-family="Sans" font-size="10.00">Add a transitional type for</text>
<text text-anchor="middle" x="736" y="-595.5" font-family="Sans" font-size="10.00">strings being migrated to lists</text>
<text text-anchor="middle" x="736" y="-584.5" font-family="Sans" font-size="10.00">of strings</text>
</a>
</g>
</g>
<!-- configuration&#45;modules&#45;core#1464&#45;&gt;template&#45;library&#45;core#212 -->
<g id="edge13" class="edge"><title>configuration-modules-core#1464-&gt;template-library-core#212</title>
<path fill="none" stroke="black" stroke-dasharray="5,2" d="M516.334,-605.759C554.615,-604.401 599.168,-602.82 638.032,-601.441"/>
<polygon fill="none" stroke="black" points="638.437,-604.929 648.306,-601.076 638.189,-597.933 638.437,-604.929"/>
<text text-anchor="middle" x="562.323" y="-595.418" font-family="Sans" font-size="10.00">requires</text>
</g>
<!-- configuration&#45;modules&#45;core#1452 -->
<g id="node20" class="node"><title>configuration-modules-core#1452</title>
<g id="a_node20"><a xlink:href="https://github.com/quattor/configuration-modules-core/pull/1452" xlink:title="configuration-modules-core#1452 (pull-request)" target="_parent">
<polygon fill="#6cc644" stroke="black" points="510.5,-276 337.5,-276 337.5,-226 510.5,-226 510.5,-276"/>
<text text-anchor="middle" x="424" y="-254" font-family="Sans" font-size="10.00">ncm-metaconfig: ssh daemon</text>
<text text-anchor="middle" x="424" y="-243" font-family="Sans" font-size="10.00">configuration support</text>
</a>
</g>
</g>
<!-- configuration&#45;modules&#45;core#1377 -->
<g id="node21" class="node"><title>configuration-modules-core#1377</title>
<polygon fill="lightgrey" stroke="black" points="833.5,-95.5 638.5,-95.5 638.5,-56.5 833.5,-56.5 833.5,-95.5"/>
<text text-anchor="middle" x="736" y="-73.5" font-family="Sans" font-size="10.00">configuration-modules-core#1377</text>
</g>
<!-- configuration&#45;modules&#45;core#1452&#45;&gt;configuration&#45;modules&#45;core#1377 -->
<g id="edge14" class="edge"><title>configuration-modules-core#1452-&gt;configuration-modules-core#1377</title>
<path fill="none" stroke="black" stroke-dasharray="1,5" d="M454.302,-225.961C493.523,-193.6 566.366,-137.451 637,-104 640.778,-102.211 644.694,-100.513 648.689,-98.9059"/>
<polygon fill="black" stroke="black" points="658.129,-95.318 650.38,-103.077 653.455,-97.0945 648.781,-98.8709 648.781,-98.8709 648.781,-98.8709 653.455,-97.0945 647.182,-94.6645 658.129,-95.318 658.129,-95.318"/>
<text text-anchor="middle" x="530.444" y="-145.408" font-family="Sans" font-size="10.00">replaces</text>
</g>
<!-- configuration&#45;modules&#45;core#1451 -->
<g id="node22" class="node"><title>configuration-modules-core#1451</title>
<polygon fill="lightgrey" stroke="black" points="833.5,-38.5 638.5,-38.5 638.5,0.5 833.5,0.5 833.5,-38.5"/>
<text text-anchor="middle" x="736" y="-16.5" font-family="Sans" font-size="10.00">configuration-modules-core#1451</text>
</g>
<!-- configuration&#45;modules&#45;core#1452&#45;&gt;configuration&#45;modules&#45;core#1451 -->
<g id="edge15" class="edge"><title>configuration-modules-core#1452-&gt;configuration-modules-core#1451</title>
<path fill="none" stroke="black" stroke-dasharray="5,2" d="M444.039,-225.948C478.052,-182.932 553.551,-95.0275 637,-47 639.711,-45.4395 642.516,-43.961 645.387,-42.5606"/>
<polygon fill="none" stroke="black" points="647.069,-45.6421 654.754,-38.3493 644.198,-39.2576 647.069,-45.6421"/>
<text text-anchor="middle" x="519.394" y="-113.542" font-family="Sans" font-size="10.00">requires</text>
</g>
<!-- configuration&#45;modules&#45;core#1570 -->
<g id="node23" class="node"><title>configuration-modules-core#1570</title>
<g id="a_node23"><a xlink:href="https://github.com/quattor/configuration-modules-core/pull/1570" xlink:title="configuration-modules-core#1570 (pull-request)" target="_parent">
<polygon fill="#6cc644" stroke="black" points="191.5,-344 24.5,-344 24.5,-294 191.5,-294 191.5,-344"/>
<text text-anchor="middle" x="108" y="-322" font-family="Sans" font-size="10.00">ncm-ntpd: Validate interface</text>
<text text-anchor="middle" x="108" y="-311" font-family="Sans" font-size="10.00">match option</text>
</a>
</g>
</g>
<!-- configuration&#45;modules&#45;core#1481 -->
<g id="node24" class="node"><title>configuration-modules-core#1481</title>
<g id="a_node24"><a xlink:href="https://github.com/quattor/configuration-modules-core/issues/1481" xlink:title="configuration-modules-core#1481 (issue)" target="_parent">
<path fill="#6cc644" stroke="black" d="M504,-344C504,-344 344,-344 344,-344 338,-344 332,-338 332,-332 332,-332 332,-306 332,-306 332,-300 338,-294 344,-294 344,-294 504,-294 504,-294 510,-294 516,-300 516,-306 516,-306 516,-332 516,-332 516,-338 510,-344 504,-344"/>
<text text-anchor="middle" x="424" y="-322" font-family="Sans" font-size="10.00">ncm-ntpd: Validate the `match`</text>
<text text-anchor="middle" x="424" y="-311" font-family="Sans" font-size="10.00">option of `interface` directive</text>
</a>
</g>
</g>
<!-- configuration&#45;modules&#45;core#1570&#45;&gt;configuration&#45;modules&#45;core#1481 -->
<g id="edge16" class="edge"><title>configuration-modules-core#1570-&gt;configuration-modules-core#1481</title>
<path fill="none" stroke="black" stroke-width="2" d="M191.911,-319C231.693,-319 279.71,-319 321.644,-319"/>
<polygon fill="black" stroke="black" points="321.884,-322.5 331.884,-319 321.884,-315.5 321.884,-322.5"/>
<text text-anchor="middle" x="249.703" y="-311" font-family="Sans" font-size="10.00">fixes</text>
</g>
<!-- configuration&#45;modules&#45;core#1507 -->
<g id="node25" class="node"><title>configuration-modules-core#1507</title>
<g id="a_node25"><a xlink:href="https://github.com/quattor/configuration-modules-core/pull/1507" xlink:title="configuration-modules-core#1507 (pull-request)" target="_parent">
<polygon fill="#6cc644" stroke="black" points="196,-1174 20,-1174 20,-1124 196,-1124 196,-1174"/>
<text text-anchor="middle" x="108" y="-1152" font-family="Sans" font-size="10.00">[WIP] ncm-spma: yumdnf: use</text>
<text text-anchor="middle" x="108" y="-1141" font-family="Sans" font-size="10.00">spmaleaves dnf plugin</text>
</a>
</g>
</g>
<!-- configuration&#45;modules&#45;core#1401 -->
<g id="node26" class="node"><title>configuration-modules-core#1401</title>
<polygon fill="lightgrey" stroke="black" points="521.5,-1168.5 326.5,-1168.5 326.5,-1129.5 521.5,-1129.5 521.5,-1168.5"/>
<text text-anchor="middle" x="424" y="-1146.5" font-family="Sans" font-size="10.00">configuration-modules-core#1401</text>
</g>
<!-- configuration&#45;modules&#45;core#1507&#45;&gt;configuration&#45;modules&#45;core#1401 -->
<g id="edge17" class="edge"><title>configuration-modules-core#1507-&gt;configuration-modules-core#1401</title>
<path fill="none" stroke="black" stroke-dasharray="5,2" d="M196.05,-1149C233.203,-1149 276.927,-1149 316.027,-1149"/>
<polygon fill="none" stroke="black" points="316.391,-1152.5 326.391,-1149 316.391,-1145.5 316.391,-1152.5"/>
<text text-anchor="middle" x="241.549" y="-1141" font-family="Sans" font-size="10.00">requires</text>
</g>
<!-- configuration&#45;modules&#45;core#1336 -->
<g id="node27" class="node"><title>configuration-modules-core#1336</title>
<g id="a_node27"><a xlink:href="https://github.com/quattor/configuration-modules-core/pull/1336" xlink:title="configuration-modules-core#1336 (pull-request)" target="_parent">
<polygon fill="#6cc644" stroke="black" points="195,-1285.5 21,-1285.5 21,-1224.5 195,-1224.5 195,-1285.5"/>
<text text-anchor="middle" x="108" y="-1263.5" font-family="Sans" font-size="10.00">ncm-network: Add support for</text>
<text text-anchor="middle" x="108" y="-1252.5" font-family="Sans" font-size="10.00">CAF::Service actions after</text>
<text text-anchor="middle" x="108" y="-1241.5" font-family="Sans" font-size="10.00">changes</text>
</a>
</g>
</g>
<!-- configuration&#45;modules&#45;core#1335 -->
<g id="node28" class="node"><title>configuration-modules-core#1335</title>
<g id="a_node28"><a xlink:href="https://github.com/quattor/configuration-modules-core/pull/1335" xlink:title="configuration-modules-core#1335 (pull-request)" target="_parent">
<polygon fill="#6cc644" stroke="black" points="517,-1316.5 331,-1316.5 331,-1255.5 517,-1255.5 517,-1316.5"/>
<text text-anchor="middle" x="424" y="-1294.5" font-family="Sans" font-size="10.00">ncm-metaconfig: Remove</text>
<text text-anchor="middle" x="424" y="-1283.5" font-family="Sans" font-size="10.00">caf_service_action type to allow</text>
<text text-anchor="middle" x="424" y="-1272.5" font-family="Sans" font-size="10.00">reuse</text>
</a>
</g>
</g>
<!-- configuration&#45;modules&#45;core#1336&#45;&gt;configuration&#45;modules&#45;core#1335 -->
<g id="edge18" class="edge"><title>configuration-modules-core#1336-&gt;configuration-modules-core#1335</title>
<path fill="none" stroke="black" stroke-dasharray="5,2" d="M195.217,-1263.51C234.047,-1267.35 280.184,-1271.9 320.746,-1275.9"/>
<polygon fill="none" stroke="black" points="320.636,-1279.41 330.931,-1276.91 321.323,-1272.44 320.636,-1279.41"/>
<text text-anchor="middle" x="242.868" y="-1262.19" font-family="Sans" font-size="10.00">requires</text>
</g>
<!-- configuration&#45;modules&#45;core#1071 -->
<g id="node29" class="node"><title>configuration-modules-core#1071</title>
<g id="a_node29"><a xlink:href="https://github.com/quattor/configuration-modules-core/issues/1071" xlink:title="configuration-modules-core#1071 (issue)" target="_parent">
<path fill="#6cc644" stroke="black" d="M510.5,-1237C510.5,-1237 337.5,-1237 337.5,-1237 331.5,-1237 325.5,-1231 325.5,-1225 325.5,-1225 325.5,-1199 325.5,-1199 325.5,-1193 331.5,-1187 337.5,-1187 337.5,-1187 510.5,-1187 510.5,-1187 516.5,-1187 522.5,-1193 522.5,-1199 522.5,-1199 522.5,-1225 522.5,-1225 522.5,-1231 516.5,-1237 510.5,-1237"/>
<text text-anchor="middle" x="424" y="-1215" font-family="Sans" font-size="10.00">ncm-network: support daemons to</text>
<text text-anchor="middle" x="424" y="-1204" font-family="Sans" font-size="10.00">restart after network changes</text>
</a>
</g>
</g>
<!-- configuration&#45;modules&#45;core#1336&#45;&gt;configuration&#45;modules&#45;core#1071 -->
<g id="edge19" class="edge"><title>configuration-modules-core#1336-&gt;configuration-modules-core#1071</title>
<path fill="none" stroke="black" stroke-width="2" d="M195.217,-1243.19C232.216,-1238.13 275.848,-1232.15 314.972,-1226.79"/>
<polygon fill="black" stroke="black" points="315.912,-1230.2 325.344,-1225.37 314.962,-1223.26 315.912,-1230.2"/>
<text text-anchor="middle" x="248.527" y="-1226.25" font-family="Sans" font-size="10.00">fixes</text>
</g>
<!-- template&#45;library&#45;core#191 -->
<g id="node30" class="node"><title>template-library-core#191</title>
<polygon fill="lightgrey" stroke="black" points="815.5,-1305.5 656.5,-1305.5 656.5,-1266.5 815.5,-1266.5 815.5,-1305.5"/>
<text text-anchor="middle" x="736" y="-1283.5" font-family="Sans" font-size="10.00">template-library-core#191</text>
</g>
<!-- configuration&#45;modules&#45;core#1335&#45;&gt;template&#45;library&#45;core#191 -->
<g id="edge20" class="edge"><title>configuration-modules-core#1335-&gt;template-library-core#191</title>
<path fill="none" stroke="black" stroke-dasharray="5,2" d="M517.171,-1286C557.975,-1286 605.772,-1286 646.18,-1286"/>
<polygon fill="none" stroke="black" points="646.285,-1289.5 656.285,-1286 646.285,-1282.5 646.285,-1289.5"/>
<text text-anchor="middle" x="566.484" y="-1278" font-family="Sans" font-size="10.00">requires</text>
</g>
<!-- configuration&#45;modules&#45;core#1148 -->
<g id="node31" class="node"><title>configuration-modules-core#1148</title>
<g id="a_node31"><a xlink:href="https://github.com/quattor/configuration-modules-core/pull/1148" xlink:title="configuration-modules-core#1148 (pull-request)" target="_parent">
<polygon fill="#6cc644" stroke="black" points="207.5,-1453 8.5,-1453 8.5,-1403 207.5,-1403 207.5,-1453"/>
<text text-anchor="middle" x="108" y="-1431" font-family="Sans" font-size="10.00">ncm-spma: Remove support from</text>
<text text-anchor="middle" x="108" y="-1420" font-family="Sans" font-size="10.00">groups from spma yumng backend</text>
</a>
</g>
</g>
<!-- configuration&#45;modules&#45;core#952 -->
<g id="node32" class="node"><title>configuration-modules-core#952</title>
<g id="a_node32"><a xlink:href="https://github.com/quattor/configuration-modules-core/issues/952" xlink:title="configuration-modules-core#952 (issue)" target="_parent">
<path fill="#6cc644" stroke="black" d="M517,-1453C517,-1453 331,-1453 331,-1453 325,-1453 319,-1447 319,-1441 319,-1441 319,-1415 319,-1415 319,-1409 325,-1403 331,-1403 331,-1403 517,-1403 517,-1403 523,-1403 529,-1409 529,-1415 529,-1415 529,-1441 529,-1441 529,-1447 523,-1453 517,-1453"/>
<text text-anchor="middle" x="424" y="-1431" font-family="Sans" font-size="10.00">ncm-spma (yumng): Remove support</text>
<text text-anchor="middle" x="424" y="-1420" font-family="Sans" font-size="10.00">for package groups</text>
</a>
</g>
</g>
<!-- configuration&#45;modules&#45;core#1148&#45;&gt;configuration&#45;modules&#45;core#952 -->
<g id="edge21" class="edge"><title>configuration-modules-core#1148-&gt;configuration-modules-core#952</title>
<path fill="none" stroke="black" stroke-width="2" d="M207.921,-1428C239.933,-1428 275.695,-1428 308.726,-1428"/>
<polygon fill="black" stroke="black" points="308.883,-1431.5 318.883,-1428 308.882,-1424.5 308.883,-1431.5"/>
<text text-anchor="middle" x="251.546" y="-1420" font-family="Sans" font-size="10.00">fixes</text>
</g>
<!-- configuration&#45;modules&#45;core#950 -->
<g id="node33" class="node"><title>configuration-modules-core#950</title>
<g id="a_node33"><a xlink:href="https://github.com/quattor/configuration-modules-core/issues/950" xlink:title="configuration-modules-core#950 (issue)" target="_parent">
<path fill="#6cc644" stroke="black" d="M199,-1385C199,-1385 17,-1385 17,-1385 11,-1385 5,-1379 5,-1373 5,-1373 5,-1347 5,-1347 5,-1341 11,-1335 17,-1335 17,-1335 199,-1335 199,-1335 205,-1335 211,-1341 211,-1347 211,-1347 211,-1373 211,-1373 211,-1379 205,-1385 199,-1385"/>
<text text-anchor="middle" x="108" y="-1363" font-family="Sans" font-size="10.00">ncm-spma: Remove support for</text>
<text text-anchor="middle" x="108" y="-1352" font-family="Sans" font-size="10.00">package groups from yum backends</text>
</a>
</g>
</g>
<!-- configuration&#45;modules&#45;core#951 -->
<g id="node34" class="node"><title>configuration-modules-core#951</title>
<g id="a_node34"><a xlink:href="https://github.com/quattor/configuration-modules-core/issues/951" xlink:title="configuration-modules-core#951 (issue)" target="_parent">
<path fill="#6cc644" stroke="black" d="M511,-1385C511,-1385 337,-1385 337,-1385 331,-1385 325,-1379 325,-1373 325,-1373 325,-1347 325,-1347 325,-1341 331,-1335 337,-1335 337,-1335 511,-1335 511,-1335 517,-1335 523,-1341 523,-1347 523,-1347 523,-1373 523,-1373 523,-1379 517,-1385 511,-1385"/>
<text text-anchor="middle" x="424" y="-1363" font-family="Sans" font-size="10.00">ncm-spma (yum): Remove support</text>
<text text-anchor="middle" x="424" y="-1352" font-family="Sans" font-size="10.00">for package groups</text>
</a>
</g>
</g>
<!-- configuration&#45;modules&#45;core#950&#45;&gt;configuration&#45;modules&#45;core#951 -->
<g id="edge22" class="edge"><title>configuration-modules-core#950-&gt;configuration-modules-core#951</title>
<path fill="none" stroke="black" stroke-dasharray="5,2" d="M211.381,-1360C244.386,-1360 281.071,-1360 314.502,-1360"/>
<polygon fill="none" stroke="black" points="314.765,-1363.5 324.765,-1360 314.765,-1356.5 314.765,-1363.5"/>
<text text-anchor="middle" x="248.107" y="-1352" font-family="Sans" font-size="10.00">requires</text>
</g>
<!-- configuration&#45;modules&#45;core#950&#45;&gt;configuration&#45;modules&#45;core#952 -->
<g id="edge23" class="edge"><title>configuration-modules-core#950-&gt;configuration-modules-core#952</title>
<path fill="none" stroke="black" stroke-dasharray="5,2" d="M211.381,-1382.17C242.602,-1388.93 277.116,-1396.41 309.053,-1403.32"/>
<polygon fill="none" stroke="black" points="308.361,-1406.75 318.876,-1405.45 309.843,-1399.91 308.361,-1406.75"/>
<text text-anchor="middle" x="245.372" y="-1385.86" font-family="Sans" font-size="10.00">requires</text>
</g>
<!-- template&#45;library&#45;grid#241 -->
<g id="node35" class="node"><title>template-library-grid#241</title>
<g id="a_node35"><a xlink:href="https://github.com/quattor/template-library-grid/pull/241" xlink:title="template-library-grid#241 (pull-request)" target="_parent">
<polygon fill="#6cc644" stroke="black" points="521,-560 327,-560 327,-510 521,-510 521,-560"/>
<text text-anchor="middle" x="424" y="-538" font-family="Sans" font-size="10.00">machines-types update based on</text>
<text text-anchor="middle" x="424" y="-527" font-family="Sans" font-size="10.00">new standard/machine-types/core</text>
</a>
</g>
</g>
<!-- template&#45;library&#45;standard#140 -->
<g id="node36" class="node"><title>template-library-standard#140</title>
<g id="a_node36"><a xlink:href="https://github.com/quattor/template-library-standard/pull/140" xlink:title="template-library-standard#140 (pull-request)" target="_parent">
<polygon fill="#6e5494" stroke="black" points="827,-549 645,-549 645,-499 827,-499 827,-549"/>
<text text-anchor="middle" x="736" y="-527" font-family="Sans" font-size="10.00">machine-types/core refactoring</text>
<text text-anchor="middle" x="736" y="-516" font-family="Sans" font-size="10.00">to make it more flexible</text>
</a>
</g>
</g>
<!-- template&#45;library&#45;grid#241&#45;&gt;template&#45;library&#45;standard#140 -->
<g id="edge24" class="edge"><title>template-library-grid#241-&gt;template-library-standard#140</title>
<path fill="none" stroke="black" stroke-dasharray="5,2" d="M521.387,-531.58C557.372,-530.303 598.301,-528.851 634.636,-527.561"/>
<polygon fill="none" stroke="black" points="634.885,-531.055 644.754,-527.202 634.636,-524.059 634.885,-531.055"/>
<text text-anchor="middle" x="562.849" y="-521.399" font-family="Sans" font-size="10.00">requires</text>
</g>
<!-- template&#45;library&#45;grid#232 -->
<g id="node37" class="node"><title>template-library-grid#232</title>
<g id="a_node37"><a xlink:href="https://github.com/quattor/template-library-grid/pull/232" xlink:title="template-library-grid#232 (pull-request)" target="_parent">
<polygon fill="#6cc644" stroke="black" points="191.5,-1007 24.5,-1007 24.5,-957 191.5,-957 191.5,-1007"/>
<text text-anchor="middle" x="108" y="-985" font-family="Sans" font-size="10.00">arc-ce: Export arc-ce feature</text>
<text text-anchor="middle" x="108" y="-974" font-family="Sans" font-size="10.00">from aquilon at RAL</text>
</a>
</g>
</g>
<!-- template&#45;library&#45;grid#221 -->
<g id="node38" class="node"><title>template-library-grid#221</title>
<g id="a_node38"><a xlink:href="https://github.com/quattor/template-library-grid/issues/221" xlink:title="template-library-grid#221 (issue)" target="_parent">
<path fill="#6cc644" stroke="black" d="M501,-1007C501,-1007 347,-1007 347,-1007 341,-1007 335,-1001 335,-995 335,-995 335,-969 335,-969 335,-963 341,-957 347,-957 347,-957 501,-957 501,-957 507,-957 513,-963 513,-969 513,-969 513,-995 513,-995 513,-1001 507,-1007 501,-1007"/>
<text text-anchor="middle" x="424" y="-985" font-family="Sans" font-size="10.00">Support for new CE types (ARC</text>
<text text-anchor="middle" x="424" y="-974" font-family="Sans" font-size="10.00">CE, HTCONDOR CE)</text>
</a>
</g>
</g>
<!-- template&#45;library&#45;grid#232&#45;&gt;template&#45;library&#45;grid#221 -->
<g id="edge25" class="edge"><title>template-library-grid#232-&gt;template-library-grid#221</title>
<path fill="none" stroke="black" stroke-width="2" d="M191.911,-982C232.702,-982 282.151,-982 324.823,-982"/>
<polygon fill="black" stroke="black" points="324.947,-985.5 334.947,-982 324.947,-978.5 324.947,-985.5"/>
<text text-anchor="middle" x="251.543" y="-974" font-family="Sans" font-size="10.00">fixes</text>
</g>
<!-- template&#45;library&#45;standard#151 -->
<g id="node39" class="node"><title>template-library-standard#151</title>
<g id="a_node39"><a xlink:href="https://github.com/quattor/template-library-standard/pull/151" xlink:title="template-library-standard#151 (pull-request)" target="_parent">
<polygon fill="#6cc644" stroke="black" points="190,-1521 26,-1521 26,-1471 190,-1471 190,-1521"/>
<text text-anchor="middle" x="108" y="-1499" font-family="Sans" font-size="10.00">support for muti options</text>
<text text-anchor="middle" x="108" y="-1488" font-family="Sans" font-size="10.00">settings for logical volumes</text>
</a>
</g>
</g>
<!-- template&#45;library&#45;standard#150 -->
<g id="node40" class="node"><title>template-library-standard#150</title>
<g id="a_node40"><a xlink:href="https://github.com/quattor/template-library-standard/issues/150" xlink:title="template-library-standard#150 (issue)" target="_parent">
<path fill="#6cc644" stroke="black" d="M500.5,-1521C500.5,-1521 347.5,-1521 347.5,-1521 341.5,-1521 335.5,-1515 335.5,-1509 335.5,-1509 335.5,-1483 335.5,-1483 335.5,-1477 341.5,-1471 347.5,-1471 347.5,-1471 500.5,-1471 500.5,-1471 506.5,-1471 512.5,-1477 512.5,-1483 512.5,-1483 512.5,-1509 512.5,-1509 512.5,-1515 506.5,-1521 500.5,-1521"/>
<text text-anchor="middle" x="424" y="-1499" font-family="Sans" font-size="10.00">way to set lvm raid type when</text>
<text text-anchor="middle" x="424" y="-1488" font-family="Sans" font-size="10.00">vol type = lvm</text>
</a>
</g>
</g>
<!-- template&#45;library&#45;standard#151&#45;&gt;template&#45;library&#45;standard#150 -->
<g id="edge26" class="edge"><title>template-library-standard#151-&gt;template-library-standard#150</title>
<path fill="none" stroke="black" stroke-width="2" d="M190.271,-1496C231.574,-1496 282.071,-1496 325.459,-1496"/>
<polygon fill="black" stroke="black" points="325.461,-1499.5 335.461,-1496 325.461,-1492.5 325.461,-1499.5"/>
<text text-anchor="middle" x="251.071" y="-1488" font-family="Sans" font-size="10.00">fixes</text>
</g>
</g>
</svg>
