<?xml version="1.0" encoding="UTF-8" standalone="no"?>
<?xml-stylesheet href="relationships.css" type="text/css"?>
<!-- Generated by graphviz version 2.26.0 (20091210.2329)
 -->
<!-- Title: Dependencies Pages: 1 -->
<svg xmlns="http://www.w3.org/2000/svg" xmlns:xlink="http://www.w3.org/1999/xlink" width="1008pt" height="1656pt" viewBox="0.00 0.00 1008.00 1656.00">
<g id="graph1" class="graph" transform="scale(1 1) rotate(0) translate(4 1652)">
<title>Dependencies</title>
<polygon fill="white" stroke="white" points="-4,5 -4,-1652 1005,-1652 1005,5 -4,5"/>
<g id="graph3" class="cluster"><title>cluster_17.12</title>
<polygon fill="none" stroke="black" points="288,-106 288,-942 992,-942 992,-106 288,-106"/>
<text text-anchor="middle" x="640" y="-927.2" font-family="Sans" font-size="12.00">17.12</text>
</g>
<g id="graph4" class="cluster"><title>cluster_18.3</title>
<polygon fill="none" stroke="black" points="8,-1000 8,-1564 512,-1564 512,-1000 8,-1000"/>
<text text-anchor="middle" x="260" y="-1549.2" font-family="Sans" font-size="12.00">18.3</text>
</g>
<!-- aii#210 -->
<g id="node1" class="node"><title>aii#210</title>
<a xlink:href="https://github.com/quattor/aii/pull/210" xlink:title="Shellfe: support active config for plugins" target="_parent">
<polygon fill="#6cc644" stroke="black" points="141,-1449 63,-1449 63,-1395 141,-1395 141,-1449"/>
<text text-anchor="middle" x="102" y="-1426" font-family="Sans" font-size="10.00">pull-request</text>
<text text-anchor="middle" x="102" y="-1413" font-family="Sans" font-size="10.00">aii#210</text>
</a>
</g>
<!-- aii#209 -->
<g id="node3" class="node"><title>aii#209</title>
<a xlink:href="https://github.com/quattor/aii/issues/209" xlink:title="support ACTIVE_CONFIG" target="_parent">
<ellipse fill="#6cc644" stroke="black" cx="382" cy="-1422" rx="41.2167" ry="38.1838"/>
<text text-anchor="middle" x="382" y="-1426" font-family="Sans" font-size="10.00">issue</text>
<text text-anchor="middle" x="382" y="-1413" font-family="Sans" font-size="10.00">aii#209</text>
</a>
</g>
<!-- aii#210&#45;&gt;aii#209 -->
<g id="edge2" class="edge"><title>aii#210-&gt;aii#209</title>
<path fill="none" stroke="black" stroke-width="2" d="M141.523,-1422C190.948,-1422 275.686,-1422 330.242,-1422"/>
<polygon fill="black" stroke="black" points="330.397,-1425.5 340.396,-1422 330.396,-1418.5 330.397,-1425.5"/>
<text text-anchor="middle" x="224" y="-1426" font-family="Sans" font-size="10.00">fixes</text>
</g>
<!-- ncm&#45;ncd#74 -->
<g id="node5" class="node"><title>ncm-ncd#74</title>
<a xlink:href="https://github.com/quattor/ncm-ncd/pull/74" xlink:title="Set the current active config as an attribute to the component" target="_parent">
<polygon fill="#6cc644" stroke="black" points="423,-1532 341,-1532 341,-1478 423,-1478 423,-1532"/>
<text text-anchor="middle" x="382" y="-1509" font-family="Sans" font-size="10.00">pull-request</text>
<text text-anchor="middle" x="382" y="-1496" font-family="Sans" font-size="10.00">ncm-ncd#74</text>
</a>
</g>
<!-- aii#210&#45;&gt;ncm&#45;ncd#74 -->
<g id="edge4" class="edge"><title>aii#210-&gt;ncm-ncd#74</title>
<path fill="none" stroke="black" stroke-dasharray="5,2" d="M141.602,-1433.81C173.554,-1443.33 219.664,-1457.05 260,-1469 283.319,-1475.91 309.154,-1483.54 331.023,-1489.98"/>
<polygon fill="none" stroke="black" points="330.188,-1493.39 340.769,-1492.86 332.167,-1486.67 330.188,-1493.39"/>
<text text-anchor="middle" x="224" y="-1467" font-family="Sans" font-size="10.00">requires</text>
</g>
<!-- aii#203 -->
<g id="node7" class="node"><title>aii#203</title>
<polygon fill="lightgrey" stroke="black" points="411,-990.5 353,-990.5 353,-949.5 411,-949.5 411,-990.5"/>
<text text-anchor="middle" x="382" y="-967.5" font-family="Sans" font-size="10.00">aii#203</text>
</g>
<!-- aii#210&#45;&gt;aii#203 -->
<g id="edge6" class="edge"><title>aii#210-&gt;aii#203</title>
<path fill="none" stroke="black" stroke-dasharray="5,2" d="M141.717,-1405.2C158.991,-1395.74 177.621,-1382.13 188,-1364 219.859,-1308.35 185.337,-1136.7 206,-1076 219.823,-1035.39 224.439,-1019.99 260,-996 284.299,-979.607 317.008,-973.28 342.441,-970.958"/>
<polygon fill="none" stroke="black" points="342.784,-974.442 352.497,-970.21 342.265,-967.461 342.784,-974.442"/>
<text text-anchor="middle" x="224" y="-1080" font-family="Sans" font-size="10.00">requires</text>
</g>
<!-- CAF#262 -->
<g id="node8" class="node"><title>CAF#262</title>
<a xlink:href="https://github.com/quattor/CAF/pull/262" xlink:title="FileWriter: set file status when no content was modified" target="_parent">
<polygon fill="#6e5494" stroke="black" points="421,-910 343,-910 343,-856 421,-856 421,-910"/>
<text text-anchor="middle" x="382" y="-887" font-family="Sans" font-size="10.00">pull-request</text>
<text text-anchor="middle" x="382" y="-874" font-family="Sans" font-size="10.00">CAF#262</text>
</a>
</g>
<!-- CAF#259 -->
<g id="node10" class="node"><title>CAF#259</title>
<a xlink:href="https://github.com/quattor/CAF/issues/259" xlink:title="Filewriter: modify permissions when content is unmodified" target="_parent">
<ellipse fill="#bd2c00" stroke="black" cx="700" cy="-872" rx="48.9975" ry="38.1838"/>
<text text-anchor="middle" x="700" y="-876" font-family="Sans" font-size="10.00">issue</text>
<text text-anchor="middle" x="700" y="-863" font-family="Sans" font-size="10.00">CAF#259</text>
</a>
</g>
<!-- CAF#262&#45;&gt;CAF#259 -->
<g id="edge8" class="edge"><title>CAF#262-&gt;CAF#259</title>
<path fill="none" stroke="black" stroke-width="2" d="M421.632,-881.629C476.517,-879.731 576.121,-876.285 640.107,-874.072"/>
<polygon fill="black" stroke="black" points="640.576,-877.558 650.449,-873.714 640.334,-870.562 640.576,-877.558"/>
<text text-anchor="middle" x="541" y="-882" font-family="Sans" font-size="10.00">fixes</text>
</g>
<!-- CAF#257 -->
<g id="node11" class="node"><title>CAF#257</title>
<a xlink:href="https://github.com/quattor/CAF/pull/257" xlink:title="Process: run process as another user" target="_parent">
<polygon fill="#6cc644" stroke="black" points="141,-1062 63,-1062 63,-1008 141,-1008 141,-1062"/>
<text text-anchor="middle" x="102" y="-1039" font-family="Sans" font-size="10.00">pull-request</text>
<text text-anchor="middle" x="102" y="-1026" font-family="Sans" font-size="10.00">CAF#257</text>
</a>
</g>
<!-- CAF#253 -->
<g id="node13" class="node"><title>CAF#253</title>
<a xlink:href="https://github.com/quattor/CAF/issues/253" xlink:title="CAF::Process: Include an option to execute the command as an specific user" target="_parent">
<ellipse fill="#6cc644" stroke="black" cx="382" cy="-800" rx="48.9975" ry="38.1838"/>
<text text-anchor="middle" x="382" y="-804" font-family="Sans" font-size="10.00">issue</text>
<text text-anchor="middle" x="382" y="-791" font-family="Sans" font-size="10.00">CAF#253</text>
</a>
</g>
<!-- CAF#257&#45;&gt;CAF#253 -->
<g id="edge10" class="edge"><title>CAF#257-&gt;CAF#253</title>
<path fill="none" stroke="black" stroke-width="2" d="M111.759,-1007.97C126.57,-970.563 158.164,-903.206 206,-864 239.788,-836.307 286.594,-820.053 323.444,-810.86"/>
<polygon fill="black" stroke="black" points="324.638,-814.173 333.554,-808.45 323.015,-807.364 324.638,-814.173"/>
<text text-anchor="middle" x="224" y="-868" font-family="Sans" font-size="10.00">fixes</text>
</g>
<!-- CAF#256 -->
<g id="node14" class="node"><title>CAF#256</title>
<a xlink:href="https://github.com/quattor/CAF/pull/256" xlink:title="Process: add sensitive option to prevent verbose reporting of the command" target="_parent">
<polygon fill="#6e5494" stroke="black" points="421,-744 343,-744 343,-690 421,-690 421,-744"/>
<text text-anchor="middle" x="382" y="-721" font-family="Sans" font-size="10.00">pull-request</text>
<text text-anchor="middle" x="382" y="-708" font-family="Sans" font-size="10.00">CAF#256</text>
</a>
</g>
<!-- CAF#254 -->
<g id="node16" class="node"><title>CAF#254</title>
<a xlink:href="https://github.com/quattor/CAF/issues/254" xlink:title="CAF::Process: Include sensitive option" target="_parent">
<ellipse fill="#bd2c00" stroke="black" cx="700" cy="-750" rx="48.9975" ry="38.1838"/>
<text text-anchor="middle" x="700" y="-754" font-family="Sans" font-size="10.00">issue</text>
<text text-anchor="middle" x="700" y="-741" font-family="Sans" font-size="10.00">CAF#254</text>
</a>
</g>
<!-- CAF#256&#45;&gt;CAF#254 -->
<g id="edge12" class="edge"><title>CAF#256-&gt;CAF#254</title>
<path fill="none" stroke="black" stroke-width="2" d="M421.632,-721.113C476.596,-726.817 576.407,-737.174 640.383,-743.813"/>
<polygon fill="black" stroke="black" points="640.413,-747.335 650.721,-744.886 641.135,-740.373 640.413,-747.335"/>
<text text-anchor="middle" x="541" y="-739" font-family="Sans" font-size="10.00">fixes</text>
</g>
<!-- CCM#179 -->
<g id="node17" class="node"><title>CCM#179</title>
<a xlink:href="https://github.com/quattor/CCM/pull/179" xlink:title="TextRender: support unescape keys" target="_parent">
<polygon fill="#6e5494" stroke="black" points="739,-600 661,-600 661,-546 739,-546 739,-600"/>
<text text-anchor="middle" x="700" y="-577" font-family="Sans" font-size="10.00">pull-request</text>
<text text-anchor="middle" x="700" y="-564" font-family="Sans" font-size="10.00">CCM#179</text>
</a>
</g>
<!-- CCM#178 -->
<g id="node19" class="node"><title>CCM#178</title>
<a xlink:href="https://github.com/quattor/CCM/issues/178" xlink:title="TextRender or getTree should support a way to unescape keys" target="_parent">
<ellipse fill="#bd2c00" stroke="black" cx="932" cy="-573" rx="51.1176" ry="38.1838"/>
<text text-anchor="middle" x="932" y="-577" font-family="Sans" font-size="10.00">issue</text>
<text text-anchor="middle" x="932" y="-564" font-family="Sans" font-size="10.00">CCM#178</text>
</a>
</g>
<!-- CCM#179&#45;&gt;CCM#178 -->
<g id="edge14" class="edge"><title>CCM#179-&gt;CCM#178</title>
<path fill="none" stroke="black" stroke-width="2" d="M739.619,-573C775.411,-573 828.668,-573 870.079,-573"/>
<polygon fill="black" stroke="black" points="870.334,-576.5 880.334,-573 870.334,-569.5 870.334,-576.5"/>
<text text-anchor="middle" x="851" y="-577" font-family="Sans" font-size="10.00">fixes</text>
</g>
<!-- configuration&#45;modules&#45;core#1220 -->
<g id="node20" class="node"><title>configuration-modules-core#1220</title>
<a xlink:href="https://github.com/quattor/configuration-modules-core/pull/1220" xlink:title="ncm-cups: Stop daemon if server not enabled" target="_parent">
<polygon fill="#6cc644" stroke="black" points="188,-1355 16,-1355 16,-1301 188,-1301 188,-1355"/>
<text text-anchor="middle" x="102" y="-1332" font-family="Sans" font-size="10.00">pull-request</text>
<text text-anchor="middle" x="102" y="-1319" font-family="Sans" font-size="10.00">configuration-modules-core#1220</text>
</a>
</g>
<!-- configuration&#45;modules&#45;core#1189 -->
<g id="node22" class="node"><title>configuration-modules-core#1189</title>
<a xlink:href="https://github.com/quattor/configuration-modules-core/issues/1189" xlink:title="ncm-cups: Nodetype of client should stop running cups daemon" target="_parent">
<ellipse fill="#6cc644" stroke="black" cx="382" cy="-1328" rx="121.122" ry="38.1838"/>
<text text-anchor="middle" x="382" y="-1332" font-family="Sans" font-size="10.00">issue</text>
<text text-anchor="middle" x="382" y="-1319" font-family="Sans" font-size="10.00">configuration-modules-core#1189</text>
</a>
</g>
<!-- configuration&#45;modules&#45;core#1220&#45;&gt;configuration&#45;modules&#45;core#1189 -->
<g id="edge16" class="edge"><title>configuration-modules-core#1220-&gt;configuration-modules-core#1189</title>
<path fill="none" stroke="black" stroke-width="2" d="M188.294,-1328C207.992,-1328 229.361,-1328 250.473,-1328"/>
<polygon fill="black" stroke="black" points="250.476,-1331.5 260.476,-1328 250.476,-1324.5 250.476,-1331.5"/>
<text text-anchor="middle" x="224" y="-1332" font-family="Sans" font-size="10.00">fixes</text>
</g>
<!-- configuration&#45;modules&#45;core#1212 -->
<g id="node23" class="node"><title>configuration-modules-core#1212</title>
<a xlink:href="https://github.com/quattor/configuration-modules-core/pull/1212" xlink:title="ncm-systemd: add support for AmbientCapabilities and CapabilityBoundingSet" target="_parent">
<polygon fill="#6cc644" stroke="black" points="468,-672 296,-672 296,-618 468,-618 468,-672"/>
<text text-anchor="middle" x="382" y="-649" font-family="Sans" font-size="10.00">pull-request</text>
<text text-anchor="middle" x="382" y="-636" font-family="Sans" font-size="10.00">configuration-modules-core#1212</text>
</a>
</g>
<!-- configuration&#45;modules&#45;core#1211 -->
<g id="node25" class="node"><title>configuration-modules-core#1211</title>
<a xlink:href="https://github.com/quattor/configuration-modules-core/issues/1211" xlink:title="ncm-systemd 17.7: AmbientCapabilities service attribute not supported" target="_parent">
<ellipse fill="#6cc644" stroke="black" cx="700" cy="-656" rx="121.122" ry="38.1838"/>
<text text-anchor="middle" x="700" y="-660" font-family="Sans" font-size="10.00">issue</text>
<text text-anchor="middle" x="700" y="-647" font-family="Sans" font-size="10.00">configuration-modules-core#1211</text>
</a>
</g>
<!-- configuration&#45;modules&#45;core#1212&#45;&gt;configuration&#45;modules&#45;core#1211 -->
<g id="edge18" class="edge"><title>configuration-modules-core#1212-&gt;configuration-modules-core#1211</title>
<path fill="none" stroke="black" stroke-width="2" d="M468.055,-647.977C499.111,-649.051 534.906,-650.289 568.938,-651.466"/>
<polygon fill="black" stroke="black" points="568.843,-654.965 578.958,-651.813 569.085,-647.969 568.843,-654.965"/>
<text text-anchor="middle" x="541" y="-655" font-family="Sans" font-size="10.00">fixes</text>
</g>
<!-- configuration&#45;modules&#45;core#1202 -->
<g id="node26" class="node"><title>configuration-modules-core#1202</title>
<a xlink:href="https://github.com/quattor/configuration-modules-core/pull/1202" xlink:title="ncm-metaconfig: support new key conversion options from CCM::TextRender" target="_parent">
<polygon fill="#6e5494" stroke="black" points="468,-600 296,-600 296,-546 468,-546 468,-600"/>
<text text-anchor="middle" x="382" y="-577" font-family="Sans" font-size="10.00">pull-request</text>
<text text-anchor="middle" x="382" y="-564" font-family="Sans" font-size="10.00">configuration-modules-core#1202</text>
</a>
</g>
<!-- configuration&#45;modules&#45;core#1202&#45;&gt;CCM#179 -->
<g id="edge20" class="edge"><title>configuration-modules-core#1202-&gt;CCM#179</title>
<path fill="none" stroke="black" stroke-dasharray="5,2" d="M468.055,-573C526.32,-573 601.268,-573 649.956,-573"/>
<polygon fill="none" stroke="black" points="650.233,-576.5 660.233,-573 650.233,-569.5 650.233,-576.5"/>
<text text-anchor="middle" x="541" y="-577" font-family="Sans" font-size="10.00">requires</text>
</g>
<!-- configuration&#45;modules&#45;core#1182 -->
<g id="node28" class="node"><title>configuration-modules-core#1182</title>
<a xlink:href="https://github.com/quattor/configuration-modules-core/pull/1182" xlink:title="ncm-opennebula: Include 5.4.x configuration" target="_parent">
<polygon fill="#6e5494" stroke="black" points="468,-528 296,-528 296,-474 468,-474 468,-528"/>
<text text-anchor="middle" x="382" y="-505" font-family="Sans" font-size="10.00">pull-request</text>
<text text-anchor="middle" x="382" y="-492" font-family="Sans" font-size="10.00">configuration-modules-core#1182</text>
</a>
</g>
<!-- configuration&#45;modules&#45;core#1139 -->
<g id="node30" class="node"><title>configuration-modules-core#1139</title>
<a xlink:href="https://github.com/quattor/configuration-modules-core/pull/1139" xlink:title="ncm-opennebula: include hugepages options" target="_parent">
<polygon fill="#6e5494" stroke="black" points="786,-528 614,-528 614,-474 786,-474 786,-528"/>
<text text-anchor="middle" x="700" y="-505" font-family="Sans" font-size="10.00">pull-request</text>
<text text-anchor="middle" x="700" y="-492" font-family="Sans" font-size="10.00">configuration-modules-core#1139</text>
</a>
</g>
<!-- configuration&#45;modules&#45;core#1182&#45;&gt;configuration&#45;modules&#45;core#1139 -->
<g id="edge22" class="edge"><title>configuration-modules-core#1182-&gt;configuration-modules-core#1139</title>
<path fill="none" stroke="black" stroke-dasharray="5,2" d="M468.055,-501C509.946,-501 560.462,-501 603.641,-501"/>
<polygon fill="none" stroke="black" points="603.876,-504.5 613.876,-501 603.876,-497.5 603.876,-504.5"/>
<text text-anchor="middle" x="541" y="-505" font-family="Sans" font-size="10.00">requires</text>
</g>
<!-- configuration&#45;modules&#45;core#1171 -->
<g id="node31" class="node"><title>configuration-modules-core#1171</title>
<a xlink:href="https://github.com/quattor/configuration-modules-core/pull/1171" xlink:title="ncm-cups enhancements and cleanups" target="_parent">
<polygon fill="#6e5494" stroke="black" points="468,-456 296,-456 296,-402 468,-402 468,-456"/>
<text text-anchor="middle" x="382" y="-433" font-family="Sans" font-size="10.00">pull-request</text>
<text text-anchor="middle" x="382" y="-420" font-family="Sans" font-size="10.00">configuration-modules-core#1171</text>
</a>
</g>
<!-- configuration&#45;modules&#45;core#1164 -->
<g id="node33" class="node"><title>configuration-modules-core#1164</title>
<a xlink:href="https://github.com/quattor/configuration-modules-core/issues/1164" xlink:title="ncm-cups 17.7.0: configuration of ServerAlias + miscellanous enhancements" target="_parent">
<ellipse fill="#bd2c00" stroke="black" cx="700" cy="-418" rx="121.122" ry="38.1838"/>
<text text-anchor="middle" x="700" y="-422" font-family="Sans" font-size="10.00">issue</text>
<text text-anchor="middle" x="700" y="-409" font-family="Sans" font-size="10.00">configuration-modules-core#1164</text>
</a>
</g>
<!-- configuration&#45;modules&#45;core#1171&#45;&gt;configuration&#45;modules&#45;core#1164 -->
<g id="edge24" class="edge"><title>configuration-modules-core#1171-&gt;configuration-modules-core#1164</title>
<path fill="none" stroke="black" stroke-width="2" d="M468.055,-426.023C499.111,-424.949 534.906,-423.711 568.938,-422.534"/>
<polygon fill="black" stroke="black" points="569.085,-426.031 578.958,-422.187 568.843,-419.035 569.085,-426.031"/>
<text text-anchor="middle" x="541" y="-428" font-family="Sans" font-size="10.00">fixes</text>
</g>
<!-- configuration&#45;modules&#45;core#1149 -->
<g id="node34" class="node"><title>configuration-modules-core#1149</title>
<a xlink:href="https://github.com/quattor/configuration-modules-core/pull/1149" xlink:title="ncm-metaconfig: rsyslog: rainer script configuration" target="_parent">
<polygon fill="#6e5494" stroke="black" points="468,-240 296,-240 296,-186 468,-186 468,-240"/>
<text text-anchor="middle" x="382" y="-217" font-family="Sans" font-size="10.00">pull-request</text>
<text text-anchor="middle" x="382" y="-204" font-family="Sans" font-size="10.00">configuration-modules-core#1149</text>
</a>
</g>
<!-- configuration&#45;modules&#45;core#1126 -->
<g id="node36" class="node"><title>configuration-modules-core#1126</title>
<polygon fill="lightgrey" stroke="black" points="786,-98.5 614,-98.5 614,-57.5 786,-57.5 786,-98.5"/>
<text text-anchor="middle" x="700" y="-75.5" font-family="Sans" font-size="10.00">configuration-modules-core#1126</text>
</g>
<!-- configuration&#45;modules&#45;core#1149&#45;&gt;configuration&#45;modules&#45;core#1126 -->
<g id="edge26" class="edge"><title>configuration-modules-core#1149-&gt;configuration-modules-core#1126</title>
<path fill="none" stroke="black" stroke-dasharray="5,2" d="M468.204,-196.728C483.462,-191.766 498.703,-185.33 512,-177 549.628,-153.427 539.504,-124.128 578,-102 586.126,-97.3293 595.004,-93.5525 604.147,-90.5009"/>
<polygon fill="none" stroke="black" points="605.203,-93.838 613.75,-87.5761 603.164,-87.1417 605.203,-93.838"/>
<text text-anchor="middle" x="541" y="-173" font-family="Sans" font-size="10.00">requires</text>
</g>
<!-- configuration&#45;modules&#45;core#1119 -->
<g id="node37" class="node"><title>configuration-modules-core#1119</title>
<a xlink:href="https://github.com/quattor/configuration-modules-core/pull/1119" xlink:title="ncm-systemd: cleanup, restarting modified unitfiles and initial handling of unconfigured units" target="_parent">
<polygon fill="#6e5494" stroke="black" points="468,-384 296,-384 296,-330 468,-330 468,-384"/>
<text text-anchor="middle" x="382" y="-361" font-family="Sans" font-size="10.00">pull-request</text>
<text text-anchor="middle" x="382" y="-348" font-family="Sans" font-size="10.00">configuration-modules-core#1119</text>
</a>
</g>
<!-- configuration&#45;modules&#45;core#1095 -->
<g id="node39" class="node"><title>configuration-modules-core#1095</title>
<a xlink:href="https://github.com/quattor/configuration-modules-core/issues/1095" xlink:title="ncm-systemd: Manual intervention required in order for drop-in unit files to have any affect" target="_parent">
<ellipse fill="#bd2c00" stroke="black" cx="700" cy="-324" rx="121.122" ry="38.1838"/>
<text text-anchor="middle" x="700" y="-328" font-family="Sans" font-size="10.00">issue</text>
<text text-anchor="middle" x="700" y="-315" font-family="Sans" font-size="10.00">configuration-modules-core#1095</text>
</a>
</g>
<!-- configuration&#45;modules&#45;core#1119&#45;&gt;configuration&#45;modules&#45;core#1095 -->
<g id="edge28" class="edge"><title>configuration-modules-core#1119-&gt;configuration-modules-core#1095</title>
<path fill="none" stroke="black" stroke-width="2" d="M468.055,-348.07C500.841,-344.667 538.91,-340.717 574.61,-337.012"/>
<polygon fill="black" stroke="black" points="575.024,-340.488 584.61,-335.974 574.302,-333.525 575.024,-340.488"/>
<text text-anchor="middle" x="541" y="-346" font-family="Sans" font-size="10.00">fixes</text>
</g>
<!-- configuration&#45;modules&#45;core#1105 -->
<g id="node40" class="node"><title>configuration-modules-core#1105</title>
<a xlink:href="https://github.com/quattor/configuration-modules-core/pull/1105" xlink:title="ncm-authconfig: fix krb5_realm, user_object_class and newline between ldap_krb5_canonicalize and ldap_krb5_realm" target="_parent">
<polygon fill="#6cc644" stroke="black" points="188,-1167 16,-1167 16,-1113 188,-1113 188,-1167"/>
<text text-anchor="middle" x="102" y="-1144" font-family="Sans" font-size="10.00">pull-request</text>
<text text-anchor="middle" x="102" y="-1131" font-family="Sans" font-size="10.00">configuration-modules-core#1105</text>
</a>
</g>
<!-- configuration&#45;modules&#45;core#1100 -->
<g id="node42" class="node"><title>configuration-modules-core#1100</title>
<a xlink:href="https://github.com/quattor/configuration-modules-core/issues/1100" xlink:title="ncm-authconfig : no newline after krb5_canonicalize option" target="_parent">
<ellipse fill="#6cc644" stroke="black" cx="382" cy="-1046" rx="121.122" ry="38.1838"/>
<text text-anchor="middle" x="382" y="-1050" font-family="Sans" font-size="10.00">issue</text>
<text text-anchor="middle" x="382" y="-1037" font-family="Sans" font-size="10.00">configuration-modules-core#1100</text>
</a>
</g>
<!-- configuration&#45;modules&#45;core#1105&#45;&gt;configuration&#45;modules&#45;core#1100 -->
<g id="edge30" class="edge"><title>configuration-modules-core#1105-&gt;configuration-modules-core#1100</title>
<path fill="none" stroke="black" stroke-width="2" d="M182.612,-1112.94C215.986,-1101.73 254.888,-1088.67 289.423,-1077.08"/>
<polygon fill="black" stroke="black" points="290.674,-1080.35 299.04,-1073.85 288.446,-1073.72 290.674,-1080.35"/>
<text text-anchor="middle" x="224" y="-1109" font-family="Sans" font-size="10.00">fixes</text>
</g>
<!-- configuration&#45;modules&#45;core#1102 -->
<g id="node44" class="node"><title>configuration-modules-core#1102</title>
<a xlink:href="https://github.com/quattor/configuration-modules-core/issues/1102" xlink:title="ncm-authconfig: There is no " target="_parent">
<ellipse fill="#6cc644" stroke="black" cx="382" cy="-1140" rx="121.122" ry="38.1838"/>
<text text-anchor="middle" x="382" y="-1144" font-family="Sans" font-size="10.00">issue</text>
<text text-anchor="middle" x="382" y="-1131" font-family="Sans" font-size="10.00">configuration-modules-core#1102</text>
</a>
</g>
<!-- configuration&#45;modules&#45;core#1105&#45;&gt;configuration&#45;modules&#45;core#1102 -->
<g id="edge32" class="edge"><title>configuration-modules-core#1105-&gt;configuration-modules-core#1102</title>
<path fill="none" stroke="black" stroke-width="2" d="M188.294,-1140C207.992,-1140 229.361,-1140 250.473,-1140"/>
<polygon fill="black" stroke="black" points="250.476,-1143.5 260.476,-1140 250.476,-1136.5 250.476,-1143.5"/>
<text text-anchor="middle" x="224" y="-1144" font-family="Sans" font-size="10.00">fixes</text>
</g>
<!-- configuration&#45;modules&#45;core#1103 -->
<g id="node46" class="node"><title>configuration-modules-core#1103</title>
<a xlink:href="https://github.com/quattor/configuration-modules-core/issues/1103" xlink:title="ncm-authconfig: krb5_realm = ARRAY(0x39a5830)" target="_parent">
<ellipse fill="#6cc644" stroke="black" cx="382" cy="-1234" rx="121.122" ry="38.1838"/>
<text text-anchor="middle" x="382" y="-1238" font-family="Sans" font-size="10.00">issue</text>
<text text-anchor="middle" x="382" y="-1225" font-family="Sans" font-size="10.00">configuration-modules-core#1103</text>
</a>
</g>
<!-- configuration&#45;modules&#45;core#1105&#45;&gt;configuration&#45;modules&#45;core#1103 -->
<g id="edge34" class="edge"><title>configuration-modules-core#1105-&gt;configuration-modules-core#1103</title>
<path fill="none" stroke="black" stroke-width="2" d="M182.612,-1167.06C215.986,-1178.27 254.888,-1191.33 289.423,-1202.92"/>
<polygon fill="black" stroke="black" points="288.446,-1206.28 299.04,-1206.15 290.674,-1199.65 288.446,-1206.28"/>
<text text-anchor="middle" x="224" y="-1191" font-family="Sans" font-size="10.00">fixes</text>
</g>
<!-- configuration&#45;modules&#45;core#1058 -->
<g id="node47" class="node"><title>configuration-modules-core#1058</title>
<a xlink:href="https://github.com/quattor/configuration-modules-core/pull/1058" xlink:title="ncm-ssh: disable insecure ssh ciphersuites and macs" target="_parent">
<polygon fill="#6e5494" stroke="black" points="468,-168 296,-168 296,-114 468,-114 468,-168"/>
<text text-anchor="middle" x="382" y="-145" font-family="Sans" font-size="10.00">pull-request</text>
<text text-anchor="middle" x="382" y="-132" font-family="Sans" font-size="10.00">configuration-modules-core#1058</text>
</a>
</g>
<!-- configuration&#45;modules&#45;core#983 -->
<g id="node49" class="node"><title>configuration-modules-core#983</title>
<polygon fill="lightgrey" stroke="black" points="783,-40.5 617,-40.5 617,0.5 783,0.5 783,-40.5"/>
<text text-anchor="middle" x="700" y="-17.5" font-family="Sans" font-size="10.00">configuration-modules-core#983</text>
</g>
<!-- configuration&#45;modules&#45;core#1058&#45;&gt;configuration&#45;modules&#45;core#983 -->
<g id="edge36" class="edge"><title>configuration-modules-core#1058-&gt;configuration-modules-core#983</title>
<path fill="none" stroke="black" stroke-dasharray="1,5" d="M411.46,-113.912C438.205,-90.9929 479.811,-59.3449 522,-43 548.395,-32.7741 578.472,-26.9094 606.293,-23.5984"/>
<polygon fill="black" stroke="black" points="616.43,-22.4908 606.978,-28.0504 611.46,-23.0339 606.489,-23.5771 606.489,-23.5771 606.489,-23.5771 611.46,-23.0339 606,-19.1037 616.43,-22.4908 616.43,-22.4908"/>
<text text-anchor="middle" x="541" y="-47" font-family="Sans" font-size="10.00">replaces</text>
</g>
<!-- template&#45;library&#45;core#167 -->
<g id="node50" class="node"><title>template-library-core#167</title>
<a xlink:href="https://github.com/quattor/template-library-core/pull/167" xlink:title="schema: Add support for aquilon clusters" target="_parent">
<polygon fill="#6cc644" stroke="black" points="451,-312 313,-312 313,-258 451,-258 451,-312"/>
<text text-anchor="middle" x="382" y="-289" font-family="Sans" font-size="10.00">pull-request</text>
<text text-anchor="middle" x="382" y="-276" font-family="Sans" font-size="10.00">template-library-core#167</text>
</a>
</g>
<!-- template&#45;library&#45;core#71 -->
<g id="node52" class="node"><title>template-library-core#71</title>
<a xlink:href="https://github.com/quattor/template-library-core/issues/71" xlink:title="Schema for aquilon cluster archetypes needed" target="_parent">
<ellipse fill="#6cc644" stroke="black" cx="700" cy="-230" rx="94.0452" ry="38.1838"/>
<text text-anchor="middle" x="700" y="-234" font-family="Sans" font-size="10.00">issue</text>
<text text-anchor="middle" x="700" y="-221" font-family="Sans" font-size="10.00">template-library-core#71</text>
</a>
</g>
<!-- template&#45;library&#45;core#167&#45;&gt;template&#45;library&#45;core#71 -->
<g id="edge38" class="edge"><title>template-library-core#167-&gt;template-library-core#71</title>
<path fill="none" stroke="black" stroke-width="2" d="M451.001,-273.066C495.605,-265.351 554.298,-255.2 603.496,-246.691"/>
<polygon fill="black" stroke="black" points="604.265,-250.11 613.522,-244.957 603.072,-243.212 604.265,-250.11"/>
<text text-anchor="middle" x="541" y="-264" font-family="Sans" font-size="10.00">fixes</text>
</g>
<!-- template&#45;library&#45;grid#205 -->
<g id="node53" class="node"><title>template-library-grid#205</title>
<a xlink:href="https://github.com/quattor/template-library-grid/pull/205" xlink:title="repository/config/htcondor: Cleanup and make use of repository name" target="_parent">
<polygon fill="#6cc644" stroke="black" points="169,-1637 35,-1637 35,-1583 169,-1583 169,-1637"/>
<text text-anchor="middle" x="102" y="-1614" font-family="Sans" font-size="10.00">pull-request</text>
<text text-anchor="middle" x="102" y="-1601" font-family="Sans" font-size="10.00">template-library-grid#205</text>
</a>
</g>
<!-- template&#45;library&#45;grid#204 -->
<g id="node55" class="node"><title>template-library-grid#204</title>
<a xlink:href="https://github.com/quattor/template-library-grid/issues/204" xlink:title="htcondor repo" target="_parent">
<ellipse fill="#6cc644" stroke="black" cx="382" cy="-1610" rx="94.9596" ry="38.1838"/>
<text text-anchor="middle" x="382" y="-1614" font-family="Sans" font-size="10.00">issue</text>
<text text-anchor="middle" x="382" y="-1601" font-family="Sans" font-size="10.00">template-library-grid#204</text>
</a>
</g>
<!-- template&#45;library&#45;grid#205&#45;&gt;template&#45;library&#45;grid#204 -->
<g id="edge40" class="edge"><title>template-library-grid#205-&gt;template-library-grid#204</title>
<path fill="none" stroke="black" stroke-width="2" d="M169.78,-1610C201.599,-1610 240.271,-1610 275.842,-1610"/>
<polygon fill="black" stroke="black" points="276.276,-1613.5 286.276,-1610 276.276,-1606.5 276.276,-1613.5"/>
<text text-anchor="middle" x="224" y="-1614" font-family="Sans" font-size="10.00">fixes</text>
</g>
</g>
</svg>
