<?xml version="1.0" encoding="UTF-8" standalone="no"?>
<?xml-stylesheet href="relationships.css" type="text/css"?>
<!-- Generated by graphviz version 2.30.1 (20200930.0103)
 -->
<!-- Title: Dependencies Pages: 1 -->
<svg xmlns="http://www.w3.org/2000/svg" xmlns:xlink="http://www.w3.org/1999/xlink" width="1518pt" height="2172pt" viewBox="0.00 0.00 1518.00 2172.00">
<g id="graph0" class="graph" transform="scale(1 1) rotate(0) translate(4 2168)">
<title>Dependencies</title>
<polygon fill="white" stroke="white" points="-4,5 -4,-2168 1515,-2168 1515,5 -4,5"/>
<g id="clust3" class="cluster"><title>cluster_milestone_21.3</title>
<polygon fill="none" stroke="black" points="722,-1335 722,-1558 1246,-1558 1246,-1335 722,-1335"/>
<text text-anchor="middle" x="984" y="-1544.4" font-family="Sans" font-size="12.00">21.3</text>
</g>
<g id="clust2" class="cluster"><title>cluster_milestone_21.9</title>
<polygon fill="none" stroke="black" points="47,-1471 47,-1667 597,-1667 597,-1471 47,-1471"/>
<text text-anchor="middle" x="322" y="-1653.4" font-family="Sans" font-size="12.00">21.9</text>
</g>
<g id="clust1" class="cluster"><title>cluster_milestone_21.6</title>
<polygon fill="none" stroke="black" points="372,-560 372,-1327 974,-1327 974,-560 372,-560"/>
<text text-anchor="middle" x="673" y="-1313.4" font-family="Sans" font-size="12.00">21.6</text>
</g>
<g id="clust4" class="cluster"><title>cluster_repo_aquilon</title>
<polygon fill="none" stroke="black" points="66,-1845 66,-2156 551,-2156 551,-1845 66,-1845"/>
<text text-anchor="middle" x="308.5" y="-2142.4" font-family="Sans" font-size="12.00">aquilon</text>
</g>
<!-- aii#325 -->
<g id="node1" class="node"><title>aii#325</title>
<g id="a_node1"><a xlink:href="https://github.com/quattor/aii/pull/325" xlink:title="Use wipefs for RHEL6+" target="_parent">
<polygon fill="#6cc644" stroke="black" points="521.5,-1026 434.5,-1026 434.5,-976 521.5,-976 521.5,-1026"/>
<text text-anchor="middle" x="478" y="-1004" font-family="Sans" font-size="10.00">pull-request</text>
<text text-anchor="middle" x="478" y="-993" font-family="Sans" font-size="10.00">aii#325</text>
</a>
</g>
</g>
<!-- ncm&#45;lib&#45;blockdevices#93 -->
<g id="node2" class="node"><title>ncm-lib-blockdevices#93</title>
<polygon fill="lightgrey" stroke="black" points="904.5,-551.5 751.5,-551.5 751.5,-512.5 904.5,-512.5 904.5,-551.5"/>
<text text-anchor="middle" x="828" y="-529.5" font-family="Sans" font-size="10.00">ncm-lib-blockdevices#93</text>
</g>
<!-- aii#325&#45;&gt;ncm&#45;lib&#45;blockdevices#93 -->
<g id="edge1" class="edge"><title>aii#325-&gt;ncm-lib-blockdevices#93</title>
<path fill="none" stroke="black" stroke-dasharray="5,2" d="M521.541,-1002.07C551.478,-1000.36 589.992,-992.709 612,-967 639.293,-935.117 622.522,-820.297 630,-779 648.288,-678.007 614.255,-625.259 690,-556 704.048,-543.155 722.436,-535.945 741.158,-532.118"/>
<polygon fill="none" stroke="black" points="742.005,-535.523 751.261,-530.369 740.811,-528.626 742.005,-535.523"/>
<text text-anchor="middle" x="651" y="-782" font-family="Sans" font-size="10.00">requires</text>
</g>
<!-- aii#316 -->
<g id="node3" class="node"><title>aii#316</title>
<g id="a_node3"><a xlink:href="https://github.com/quattor/aii/pull/316" xlink:title="aii-ks: generate kickstart repo entries based on SPMA configuration" target="_parent">
<polygon fill="#6cc644" stroke="black" points="521.5,-958 434.5,-958 434.5,-908 521.5,-908 521.5,-958"/>
<text text-anchor="middle" x="478" y="-936" font-family="Sans" font-size="10.00">pull-request</text>
<text text-anchor="middle" x="478" y="-925" font-family="Sans" font-size="10.00">aii#316</text>
</a>
</g>
</g>
<!-- aii#314 -->
<g id="node4" class="node"><title>aii#314</title>
<polygon fill="lightgrey" stroke="black" points="861.5,-494.5 794.5,-494.5 794.5,-455.5 861.5,-455.5 861.5,-494.5"/>
<text text-anchor="middle" x="828" y="-472.5" font-family="Sans" font-size="10.00">aii#314</text>
</g>
<!-- aii#316&#45;&gt;aii#314 -->
<g id="edge2" class="edge"><title>aii#316-&gt;aii#314</title>
<path fill="none" stroke="black" stroke-dasharray="5,2" d="M521.613,-934.414C551.79,-932.899 590.573,-925.349 612,-899 640.069,-864.483 599.763,-531.635 630,-499 668.452,-457.498 738.63,-459.363 784.012,-466.037"/>
<polygon fill="none" stroke="black" points="783.71,-469.533 794.139,-467.666 784.821,-462.622 783.71,-469.533"/>
<text text-anchor="middle" x="651" y="-502" font-family="Sans" font-size="10.00">requires</text>
</g>
<!-- aii#315 -->
<g id="node5" class="node"><title>aii#315</title>
<polygon fill="lightgrey" stroke="black" points="861.5,-437.5 794.5,-437.5 794.5,-398.5 861.5,-398.5 861.5,-437.5"/>
<text text-anchor="middle" x="828" y="-415.5" font-family="Sans" font-size="10.00">aii#315</text>
</g>
<!-- aii#316&#45;&gt;aii#315 -->
<g id="edge3" class="edge"><title>aii#316-&gt;aii#315</title>
<path fill="none" stroke="black" stroke-dasharray="5,2" d="M521.645,-934.44C551.838,-932.938 590.627,-925.393 612,-899 642.793,-860.975 598.51,-496.45 630,-459 667.127,-414.845 738.329,-410.596 784.196,-413.141"/>
<polygon fill="none" stroke="black" points="784.208,-416.65 794.425,-413.844 784.688,-409.667 784.208,-416.65"/>
<text text-anchor="middle" x="651" y="-462" font-family="Sans" font-size="10.00">requires</text>
</g>
<!-- aii#299 -->
<g id="node6" class="node"><title>aii#299</title>
<g id="a_node6"><a xlink:href="https://github.com/quattor/aii/pull/299" xlink:title="aii-dhcp: support optional hostname ip verification" target="_parent">
<polygon fill="#6cc644" stroke="black" points="521.5,-1230 434.5,-1230 434.5,-1180 521.5,-1180 521.5,-1230"/>
<text text-anchor="middle" x="478" y="-1208" font-family="Sans" font-size="10.00">pull-request</text>
<text text-anchor="middle" x="478" y="-1197" font-family="Sans" font-size="10.00">aii#299</text>
</a>
</g>
</g>
<!-- aii#296 -->
<g id="node7" class="node"><title>aii#296</title>
<g id="a_node7"><a xlink:href="https://github.com/quattor/aii/pull/296" xlink:title="DHCP plugin updates" target="_parent">
<polygon fill="#6cc644" stroke="black" points="871.5,-1280 784.5,-1280 784.5,-1230 871.5,-1230 871.5,-1280"/>
<text text-anchor="middle" x="828" y="-1258" font-family="Sans" font-size="10.00">pull-request</text>
<text text-anchor="middle" x="828" y="-1247" font-family="Sans" font-size="10.00">aii#296</text>
</a>
</g>
</g>
<!-- aii#299&#45;&gt;aii#296 -->
<g id="edge4" class="edge"><title>aii#299-&gt;aii#296</title>
<path fill="none" stroke="black" stroke-dasharray="5,2" d="M521.672,-1211.13C585.287,-1220.27 704.896,-1237.46 774.02,-1247.39"/>
<polygon fill="none" stroke="black" points="773.856,-1250.9 784.252,-1248.86 774.852,-1243.97 773.856,-1250.9"/>
<text text-anchor="middle" x="651" y="-1235" font-family="Sans" font-size="10.00">requires</text>
</g>
<!-- aii#280 -->
<g id="node8" class="node"><title>aii#280</title>
<g id="a_node8"><a xlink:href="https://github.com/quattor/aii/pull/280" xlink:title="Support active configuration attribute for plugins" target="_parent">
<polygon fill="#6cc644" stroke="black" points="521.5,-890 434.5,-890 434.5,-840 521.5,-840 521.5,-890"/>
<text text-anchor="middle" x="478" y="-868" font-family="Sans" font-size="10.00">pull-request</text>
<text text-anchor="middle" x="478" y="-857" font-family="Sans" font-size="10.00">aii#280</text>
</a>
</g>
</g>
<!-- aii#209 -->
<g id="node9" class="node"><title>aii#209</title>
<g id="a_node9"><a xlink:href="https://github.com/quattor/aii/issues/209" xlink:title="support ACTIVE_CONFIG" target="_parent">
<ellipse fill="#6cc644" stroke="black" cx="828" cy="-869" rx="47.2526" ry="35.2113"/>
<text text-anchor="middle" x="828" y="-872" font-family="Sans" font-size="10.00">issue</text>
<text text-anchor="middle" x="828" y="-861" font-family="Sans" font-size="10.00">aii#209</text>
</a>
</g>
</g>
<!-- aii#280&#45;&gt;aii#209 -->
<g id="edge5" class="edge"><title>aii#280-&gt;aii#209</title>
<path fill="none" stroke="black" stroke-width="2" d="M521.672,-865.49C584.079,-866.208 700.372,-867.545 770.027,-868.345"/>
<polygon fill="black" stroke="black" points="770.332,-871.849 780.372,-868.464 770.413,-864.849 770.332,-871.849"/>
<text text-anchor="middle" x="651" y="-871" font-family="Sans" font-size="10.00">fixes</text>
</g>
<!-- ncm&#45;ncd#74 -->
<g id="node10" class="node"><title>ncm-ncd#74</title>
<polygon fill="lightgrey" stroke="black" points="873.5,-380.5 782.5,-380.5 782.5,-341.5 873.5,-341.5 873.5,-380.5"/>
<text text-anchor="middle" x="828" y="-358.5" font-family="Sans" font-size="10.00">ncm-ncd#74</text>
</g>
<!-- aii#280&#45;&gt;ncm&#45;ncd#74 -->
<g id="edge6" class="edge"><title>aii#280-&gt;ncm-ncd#74</title>
<path fill="none" stroke="black" stroke-dasharray="5,2" d="M521.649,-866.444C551.844,-864.943 590.634,-857.399 612,-831 643.202,-792.449 596.377,-421.459 630,-385 665.105,-346.934 726.89,-345.292 771.929,-350.426"/>
<polygon fill="none" stroke="black" points="771.764,-353.933 782.128,-351.735 772.655,-346.99 771.764,-353.933"/>
<text text-anchor="middle" x="651" y="-388" font-family="Sans" font-size="10.00">requires</text>
</g>
<!-- aii#203 -->
<g id="node11" class="node"><title>aii#203</title>
<polygon fill="lightgrey" stroke="black" points="861.5,-323.5 794.5,-323.5 794.5,-284.5 861.5,-284.5 861.5,-323.5"/>
<text text-anchor="middle" x="828" y="-301.5" font-family="Sans" font-size="10.00">aii#203</text>
</g>
<!-- aii#280&#45;&gt;aii#203 -->
<g id="edge7" class="edge"><title>aii#280-&gt;aii#203</title>
<path fill="none" stroke="black" stroke-dasharray="5,2" d="M521.675,-866.465C551.883,-864.974 590.678,-857.434 612,-831 645.926,-788.94 595.303,-386.426 630,-345 667.042,-300.774 738.268,-296.545 784.163,-299.114"/>
<polygon fill="none" stroke="black" points="784.181,-302.624 794.399,-299.823 784.665,-295.64 784.181,-302.624"/>
<text text-anchor="middle" x="651" y="-348" font-family="Sans" font-size="10.00">requires</text>
</g>
<!-- aii#210 -->
<g id="node12" class="node"><title>aii#210</title>
<polygon fill="lightgrey" stroke="black" points="861.5,-266.5 794.5,-266.5 794.5,-227.5 861.5,-227.5 861.5,-266.5"/>
<text text-anchor="middle" x="828" y="-244.5" font-family="Sans" font-size="10.00">aii#210</text>
</g>
<!-- aii#280&#45;&gt;aii#210 -->
<g id="edge8" class="edge"><title>aii#280-&gt;aii#210</title>
<path fill="none" stroke="black" stroke-dasharray="1,5" d="M521.698,-866.483C551.918,-865.003 590.717,-857.466 612,-831 648.855,-785.169 597.232,-350.837 630,-302 663.017,-252.793 736.7,-244.368 784.002,-244.465"/>
<polygon fill="black" stroke="black" points="794.253,-244.62 784.186,-248.968 789.253,-244.544 784.254,-244.469 784.254,-244.469 784.254,-244.469 789.253,-244.544 784.321,-239.969 794.253,-244.62 794.253,-244.62"/>
<text text-anchor="middle" x="651" y="-305" font-family="Sans" font-size="10.00">replaces</text>
</g>
<!-- CAF#257 -->
<g id="node13" class="node"><title>CAF#257</title>
<g id="a_node13"><a xlink:href="https://github.com/quattor/CAF/pull/257" xlink:title="Process: run process as another user" target="_parent">
<polygon fill="#6cc644" stroke="black" points="177.5,-1628 90.5,-1628 90.5,-1578 177.5,-1578 177.5,-1628"/>
<text text-anchor="middle" x="134" y="-1606" font-family="Sans" font-size="10.00">pull-request</text>
<text text-anchor="middle" x="134" y="-1595" font-family="Sans" font-size="10.00">CAF#257</text>
</a>
</g>
</g>
<!-- CAF#253 -->
<g id="node14" class="node"><title>CAF#253</title>
<g id="a_node14"><a xlink:href="https://github.com/quattor/CAF/issues/253" xlink:title="CAF::Process: Include an option to execute the command as an specific user" target="_parent">
<ellipse fill="#6cc644" stroke="black" cx="478" cy="-1603" rx="52.1524" ry="35.2113"/>
<text text-anchor="middle" x="478" y="-1606" font-family="Sans" font-size="10.00">issue</text>
<text text-anchor="middle" x="478" y="-1595" font-family="Sans" font-size="10.00">CAF#253</text>
</a>
</g>
</g>
<!-- CAF#257&#45;&gt;CAF#253 -->
<g id="edge9" class="edge"><title>CAF#257-&gt;CAF#253</title>
<path fill="none" stroke="black" stroke-width="2" d="M177.623,-1603C237.405,-1603 346.517,-1603 415.207,-1603"/>
<polygon fill="black" stroke="black" points="415.454,-1606.5 425.453,-1603 415.453,-1599.5 415.454,-1606.5"/>
<text text-anchor="middle" x="306" y="-1606" font-family="Sans" font-size="10.00">fixes</text>
</g>
<!-- CAF#110 -->
<g id="node15" class="node"><title>CAF#110</title>
<g id="a_node15"><a xlink:href="https://github.com/quattor/CAF/pull/110" xlink:title="CAF::Download class: API proposal" target="_parent">
<polygon fill="#6cc644" stroke="black" points="521.5,-754 434.5,-754 434.5,-704 521.5,-704 521.5,-754"/>
<text text-anchor="middle" x="478" y="-732" font-family="Sans" font-size="10.00">pull-request</text>
<text text-anchor="middle" x="478" y="-721" font-family="Sans" font-size="10.00">CAF#110</text>
</a>
</g>
</g>
<!-- CAF#120 -->
<g id="node16" class="node"><title>CAF#120</title>
<polygon fill="lightgrey" stroke="black" points="865,-152.5 791,-152.5 791,-113.5 865,-113.5 865,-152.5"/>
<text text-anchor="middle" x="828" y="-130.5" font-family="Sans" font-size="10.00">CAF#120</text>
</g>
<!-- CAF#110&#45;&gt;CAF#120 -->
<g id="edge10" class="edge"><title>CAF#110-&gt;CAF#120</title>
<path fill="none" stroke="black" stroke-dasharray="5,2" d="M521.703,-730.487C551.925,-729.008 590.725,-721.472 612,-695 649.468,-648.379 589.604,-201.108 630,-157 667.427,-116.134 735.585,-117.144 781.087,-123.542"/>
<polygon fill="none" stroke="black" points="780.582,-127.006 790.999,-125.071 781.649,-120.088 780.582,-127.006"/>
<text text-anchor="middle" x="651" y="-160" font-family="Sans" font-size="10.00">requires</text>
</g>
<!-- CCM#203 -->
<g id="node17" class="node"><title>CCM#203</title>
<g id="a_node17"><a xlink:href="https://github.com/quattor/CCM/pull/203" xlink:title="TextRender: support yaml multi document" target="_parent">
<polygon fill="#6cc644" stroke="black" points="871.5,-1529 784.5,-1529 784.5,-1479 871.5,-1479 871.5,-1529"/>
<text text-anchor="middle" x="828" y="-1507" font-family="Sans" font-size="10.00">pull-request</text>
<text text-anchor="middle" x="828" y="-1496" font-family="Sans" font-size="10.00">CCM#203</text>
</a>
</g>
</g>
<!-- CAF#274 -->
<g id="node18" class="node"><title>CAF#274</title>
<g id="a_node18"><a xlink:href="https://github.com/quattor/CAF/pull/274" xlink:title="TextRender: support yaml multi doc rendering" target="_parent">
<polygon fill="#6cc644" stroke="black" points="1183.5,-1529 1096.5,-1529 1096.5,-1479 1183.5,-1479 1183.5,-1529"/>
<text text-anchor="middle" x="1140" y="-1507" font-family="Sans" font-size="10.00">pull-request</text>
<text text-anchor="middle" x="1140" y="-1496" font-family="Sans" font-size="10.00">CAF#274</text>
</a>
</g>
</g>
<!-- CCM#203&#45;&gt;CAF#274 -->
<g id="edge11" class="edge"><title>CCM#203-&gt;CAF#274</title>
<path fill="none" stroke="black" stroke-dasharray="5,2" d="M871.779,-1504C927.675,-1504 1025.54,-1504 1086.05,-1504"/>
<polygon fill="none" stroke="black" points="1086.16,-1507.5 1096.16,-1504 1086.16,-1500.5 1086.16,-1507.5"/>
<text text-anchor="middle" x="1004" y="-1507" font-family="Sans" font-size="10.00">requires</text>
</g>
<!-- configuration&#45;modules&#45;core#1463 -->
<g id="node19" class="node"><title>configuration-modules-core#1463</title>
<g id="a_node19"><a xlink:href="https://github.com/quattor/configuration-modules-core/pull/1463" xlink:title="ncm-ceph: add support for centralized configuration management" target="_parent">
<polygon fill="#6e5494" stroke="black" points="575.5,-686 380.5,-686 380.5,-636 575.5,-636 575.5,-686"/>
<text text-anchor="middle" x="478" y="-664" font-family="Sans" font-size="10.00">pull-request</text>
<text text-anchor="middle" x="478" y="-653" font-family="Sans" font-size="10.00">configuration-modules-core#1463</text>
</a>
</g>
</g>
<!-- configuration&#45;modules&#45;core#1462 -->
<g id="node20" class="node"><title>configuration-modules-core#1462</title>
<polygon fill="lightgrey" stroke="black" points="925.5,-95.5 730.5,-95.5 730.5,-56.5 925.5,-56.5 925.5,-95.5"/>
<text text-anchor="middle" x="828" y="-73.5" font-family="Sans" font-size="10.00">configuration-modules-core#1462</text>
</g>
<!-- configuration&#45;modules&#45;core#1463&#45;&gt;configuration&#45;modules&#45;core#1462 -->
<g id="edge12" class="edge"><title>configuration-modules-core#1463-&gt;configuration-modules-core#1462</title>
<path fill="none" stroke="black" stroke-dasharray="5,2" d="M575.755,-652.114C589.757,-646.701 602.59,-638.7 612,-627 648.719,-581.344 590.414,-143.193 630,-100 652.679,-75.2546 686.627,-65.8674 719.982,-63.7328"/>
<polygon fill="none" stroke="black" points="720.459,-67.2158 730.301,-63.2942 720.162,-60.2221 720.459,-67.2158"/>
<text text-anchor="middle" x="651" y="-103" font-family="Sans" font-size="10.00">requires</text>
</g>
<!-- configuration&#45;modules&#45;core#1456 -->
<g id="node21" class="node"><title>configuration-modules-core#1456</title>
<g id="a_node21"><a xlink:href="https://github.com/quattor/configuration-modules-core/pull/1456" xlink:title="ncm-opennebula: include 5.12.x support" target="_parent">
<polygon fill="#6cc644" stroke="black" points="575.5,-1298 380.5,-1298 380.5,-1248 575.5,-1248 575.5,-1298"/>
<text text-anchor="middle" x="478" y="-1276" font-family="Sans" font-size="10.00">pull-request</text>
<text text-anchor="middle" x="478" y="-1265" font-family="Sans" font-size="10.00">configuration-modules-core#1456</text>
</a>
</g>
</g>
<!-- configuration&#45;modules&#45;core#1427 -->
<g id="node22" class="node"><title>configuration-modules-core#1427</title>
<g id="a_node22"><a xlink:href="https://github.com/quattor/configuration-modules-core/pull/1427" xlink:title="ncm-opennebula: RDM datastore support" target="_parent">
<polygon fill="#6cc644" stroke="black" points="925.5,-1393 730.5,-1393 730.5,-1343 925.5,-1343 925.5,-1393"/>
<text text-anchor="middle" x="828" y="-1371" font-family="Sans" font-size="10.00">pull-request</text>
<text text-anchor="middle" x="828" y="-1360" font-family="Sans" font-size="10.00">configuration-modules-core#1427</text>
</a>
</g>
</g>
<!-- configuration&#45;modules&#45;core#1456&#45;&gt;configuration&#45;modules&#45;core#1427 -->
<g id="edge13" class="edge"><title>configuration-modules-core#1456-&gt;configuration-modules-core#1427</title>
<path fill="none" stroke="black" stroke-dasharray="5,2" d="M569.851,-1298.07C607.079,-1308.32 650.597,-1320.26 690,-1331 701.142,-1334.04 712.797,-1337.2 724.404,-1340.35"/>
<polygon fill="none" stroke="black" points="723.563,-1343.74 734.13,-1342.98 725.392,-1336.99 723.563,-1343.74"/>
<text text-anchor="middle" x="651" y="-1328" font-family="Sans" font-size="10.00">requires</text>
</g>
<!-- configuration&#45;modules&#45;core#1391 -->
<g id="node26" class="node"><title>configuration-modules-core#1391</title>
<g id="a_node26"><a xlink:href="https://github.com/quattor/configuration-modules-core/pull/1391" xlink:title="ncm-opennebula: include OpenNebula 5.8.x and vmgroups support" target="_parent">
<polygon fill="#6cc644" stroke="black" points="1237.5,-1393 1042.5,-1393 1042.5,-1343 1237.5,-1343 1237.5,-1393"/>
<text text-anchor="middle" x="1140" y="-1371" font-family="Sans" font-size="10.00">pull-request</text>
<text text-anchor="middle" x="1140" y="-1360" font-family="Sans" font-size="10.00">configuration-modules-core#1391</text>
</a>
</g>
</g>
<!-- configuration&#45;modules&#45;core#1427&#45;&gt;configuration&#45;modules&#45;core#1391 -->
<g id="edge16" class="edge"><title>configuration-modules-core#1427-&gt;configuration-modules-core#1391</title>
<path fill="none" stroke="black" stroke-dasharray="5,2" d="M925.811,-1368C959.604,-1368 997.714,-1368 1032.27,-1368"/>
<polygon fill="none" stroke="black" points="1032.39,-1371.5 1042.39,-1368 1032.39,-1364.5 1032.39,-1371.5"/>
<text text-anchor="middle" x="1004" y="-1371" font-family="Sans" font-size="10.00">requires</text>
</g>
<!-- configuration&#45;modules&#45;core#1452 -->
<g id="node23" class="node"><title>configuration-modules-core#1452</title>
<g id="a_node23"><a xlink:href="https://github.com/quattor/configuration-modules-core/pull/1452" xlink:title="ncm-metaconfig: ssh daemon configuration support" target="_parent">
<polygon fill="#6cc644" stroke="black" points="575.5,-822 380.5,-822 380.5,-772 575.5,-772 575.5,-822"/>
<text text-anchor="middle" x="478" y="-800" font-family="Sans" font-size="10.00">pull-request</text>
<text text-anchor="middle" x="478" y="-789" font-family="Sans" font-size="10.00">configuration-modules-core#1452</text>
</a>
</g>
</g>
<!-- configuration&#45;modules&#45;core#1377 -->
<g id="node24" class="node"><title>configuration-modules-core#1377</title>
<polygon fill="lightgrey" stroke="black" points="925.5,-209.5 730.5,-209.5 730.5,-170.5 925.5,-170.5 925.5,-209.5"/>
<text text-anchor="middle" x="828" y="-187.5" font-family="Sans" font-size="10.00">configuration-modules-core#1377</text>
</g>
<!-- configuration&#45;modules&#45;core#1452&#45;&gt;configuration&#45;modules&#45;core#1377 -->
<g id="edge14" class="edge"><title>configuration-modules-core#1452-&gt;configuration-modules-core#1377</title>
<path fill="none" stroke="black" stroke-dasharray="1,5" d="M575.769,-788.125C589.769,-782.71 602.598,-774.707 612,-763 650.218,-715.414 588.794,-259.023 630,-214 652.662,-189.239 686.606,-179.848 719.962,-177.715"/>
<polygon fill="black" stroke="black" points="730.283,-177.277 720.482,-182.197 725.287,-177.489 720.292,-177.701 720.292,-177.701 720.292,-177.701 725.287,-177.489 720.101,-173.205 730.283,-177.277 730.283,-177.277"/>
<text text-anchor="middle" x="651" y="-217" font-family="Sans" font-size="10.00">replaces</text>
</g>
<!-- configuration&#45;modules&#45;core#1451 -->
<g id="node25" class="node"><title>configuration-modules-core#1451</title>
<g id="a_node25"><a xlink:href="https://github.com/quattor/configuration-modules-core/pull/1451" xlink:title="ncm-metaconfig: support running arbitrary commands in various steps" target="_parent">
<polygon fill="#6cc644" stroke="black" points="925.5,-816 730.5,-816 730.5,-766 925.5,-766 925.5,-816"/>
<text text-anchor="middle" x="828" y="-794" font-family="Sans" font-size="10.00">pull-request</text>
<text text-anchor="middle" x="828" y="-783" font-family="Sans" font-size="10.00">configuration-modules-core#1451</text>
</a>
</g>
</g>
<!-- configuration&#45;modules&#45;core#1452&#45;&gt;configuration&#45;modules&#45;core#1451 -->
<g id="edge15" class="edge"><title>configuration-modules-core#1452-&gt;configuration-modules-core#1451</title>
<path fill="none" stroke="black" stroke-dasharray="5,2" d="M575.937,-795.329C620.812,-794.555 674.255,-793.634 720.277,-792.84"/>
<polygon fill="none" stroke="black" points="720.343,-796.34 730.281,-792.668 720.222,-789.341 720.343,-796.34"/>
<text text-anchor="middle" x="651" y="-798" font-family="Sans" font-size="10.00">requires</text>
</g>
<!-- configuration&#45;modules&#45;core#1378 -->
<g id="node29" class="node"><title>configuration-modules-core#1378</title>
<polygon fill="lightgrey" stroke="black" points="1509.5,-1416.5 1314.5,-1416.5 1314.5,-1377.5 1509.5,-1377.5 1509.5,-1416.5"/>
<text text-anchor="middle" x="1412" y="-1394.5" font-family="Sans" font-size="10.00">configuration-modules-core#1378</text>
</g>
<!-- configuration&#45;modules&#45;core#1391&#45;&gt;configuration&#45;modules&#45;core#1378 -->
<g id="edge18" class="edge"><title>configuration-modules-core#1391-&gt;configuration-modules-core#1378</title>
<path fill="none" stroke="black" stroke-dasharray="5,2" d="M1237.71,-1378.39C1259.23,-1380.7 1282.17,-1383.16 1304.07,-1385.52"/>
<polygon fill="none" stroke="black" points="1303.74,-1389 1314.05,-1386.59 1304.49,-1382.04 1303.74,-1389"/>
<text text-anchor="middle" x="1276" y="-1388" font-family="Sans" font-size="10.00">requires</text>
</g>
<!-- configuration&#45;modules&#45;core#1371 -->
<g id="node30" class="node"><title>configuration-modules-core#1371</title>
<polygon fill="lightgrey" stroke="black" points="1509.5,-1359.5 1314.5,-1359.5 1314.5,-1320.5 1509.5,-1320.5 1509.5,-1359.5"/>
<text text-anchor="middle" x="1412" y="-1337.5" font-family="Sans" font-size="10.00">configuration-modules-core#1371</text>
</g>
<!-- configuration&#45;modules&#45;core#1391&#45;&gt;configuration&#45;modules&#45;core#1371 -->
<g id="edge19" class="edge"><title>configuration-modules-core#1391-&gt;configuration-modules-core#1371</title>
<path fill="none" stroke="black" stroke-dasharray="5,2" d="M1237.71,-1357.97C1259.23,-1355.74 1282.17,-1353.36 1304.07,-1351.09"/>
<polygon fill="none" stroke="black" points="1304.47,-1354.57 1314.05,-1350.05 1303.75,-1347.6 1304.47,-1354.57"/>
<text text-anchor="middle" x="1276" y="-1359" font-family="Sans" font-size="10.00">requires</text>
</g>
<!-- configuration&#45;modules&#45;core#1401 -->
<g id="node27" class="node"><title>configuration-modules-core#1401</title>
<g id="a_node27"><a xlink:href="https://github.com/quattor/configuration-modules-core/pull/1401" xlink:title="ncm-spma: yumdnf: initial dnf/yum4 based on yum" target="_parent">
<polygon fill="#6cc644" stroke="black" points="575.5,-618 380.5,-618 380.5,-568 575.5,-568 575.5,-618"/>
<text text-anchor="middle" x="478" y="-596" font-family="Sans" font-size="10.00">pull-request</text>
<text text-anchor="middle" x="478" y="-585" font-family="Sans" font-size="10.00">configuration-modules-core#1401</text>
</a>
</g>
</g>
<!-- configuration&#45;modules&#45;core#1405 -->
<g id="node28" class="node"><title>configuration-modules-core#1405</title>
<polygon fill="lightgrey" stroke="black" points="925.5,-38.5 730.5,-38.5 730.5,0.5 925.5,0.5 925.5,-38.5"/>
<text text-anchor="middle" x="828" y="-16.5" font-family="Sans" font-size="10.00">configuration-modules-core#1405</text>
</g>
<!-- configuration&#45;modules&#45;core#1401&#45;&gt;configuration&#45;modules&#45;core#1405 -->
<g id="edge17" class="edge"><title>configuration-modules-core#1401-&gt;configuration-modules-core#1405</title>
<path fill="none" stroke="black" stroke-dasharray="5,2" d="M482.182,-567.986C495.173,-470.012 547.45,-114.248 630,-43 654.595,-21.7726 687.799,-12.9268 719.933,-10.2213"/>
<polygon fill="none" stroke="black" points="720.563,-13.688 730.317,-9.55077 720.112,-6.70258 720.563,-13.688"/>
<text text-anchor="middle" x="651" y="-46" font-family="Sans" font-size="10.00">requires</text>
</g>
<!-- configuration&#45;modules&#45;core#1336 -->
<g id="node31" class="node"><title>configuration-modules-core#1336</title>
<g id="a_node31"><a xlink:href="https://github.com/quattor/configuration-modules-core/pull/1336" xlink:title="ncm-network: Add support for CAF::Service actions after changes" target="_parent">
<polygon fill="#6cc644" stroke="black" points="575.5,-1162 380.5,-1162 380.5,-1112 575.5,-1112 575.5,-1162"/>
<text text-anchor="middle" x="478" y="-1140" font-family="Sans" font-size="10.00">pull-request</text>
<text text-anchor="middle" x="478" y="-1129" font-family="Sans" font-size="10.00">configuration-modules-core#1336</text>
</a>
</g>
</g>
<!-- configuration&#45;modules&#45;core#1335 -->
<g id="node32" class="node"><title>configuration-modules-core#1335</title>
<g id="a_node32"><a xlink:href="https://github.com/quattor/configuration-modules-core/pull/1335" xlink:title="ncm-metaconfig: Remove caf_service_action type to allow reuse" target="_parent">
<polygon fill="#6cc644" stroke="black" points="925.5,-1124 730.5,-1124 730.5,-1074 925.5,-1074 925.5,-1124"/>
<text text-anchor="middle" x="828" y="-1102" font-family="Sans" font-size="10.00">pull-request</text>
<text text-anchor="middle" x="828" y="-1091" font-family="Sans" font-size="10.00">configuration-modules-core#1335</text>
</a>
</g>
</g>
<!-- configuration&#45;modules&#45;core#1336&#45;&gt;configuration&#45;modules&#45;core#1335 -->
<g id="edge20" class="edge"><title>configuration-modules-core#1336-&gt;configuration-modules-core#1335</title>
<path fill="none" stroke="black" stroke-dasharray="5,2" d="M575.937,-1126.41C620.812,-1121.51 674.255,-1115.68 720.277,-1110.65"/>
<polygon fill="none" stroke="black" points="720.72,-1114.13 730.281,-1109.56 719.96,-1107.17 720.72,-1114.13"/>
<text text-anchor="middle" x="651" y="-1124" font-family="Sans" font-size="10.00">requires</text>
</g>
<!-- configuration&#45;modules&#45;core#1071 -->
<g id="node33" class="node"><title>configuration-modules-core#1071</title>
<g id="a_node33"><a xlink:href="https://github.com/quattor/configuration-modules-core/issues/1071" xlink:title="ncm-network: support daemons to restart after network changes" target="_parent">
<ellipse fill="#6cc644" stroke="black" cx="828" cy="-1177" rx="137.772" ry="35.2113"/>
<text text-anchor="middle" x="828" y="-1180" font-family="Sans" font-size="10.00">issue</text>
<text text-anchor="middle" x="828" y="-1169" font-family="Sans" font-size="10.00">configuration-modules-core#1071</text>
</a>
</g>
</g>
<!-- configuration&#45;modules&#45;core#1336&#45;&gt;configuration&#45;modules&#45;core#1071 -->
<g id="edge21" class="edge"><title>configuration-modules-core#1336-&gt;configuration-modules-core#1071</title>
<path fill="none" stroke="black" stroke-width="2" d="M575.937,-1148.14C611.753,-1152.26 653.027,-1157 691.63,-1161.44"/>
<polygon fill="black" stroke="black" points="691.575,-1164.96 701.909,-1162.62 692.375,-1158 691.575,-1164.96"/>
<text text-anchor="middle" x="651" y="-1162" font-family="Sans" font-size="10.00">fixes</text>
</g>
<!-- template&#45;library&#45;core#191 -->
<g id="node34" class="node"><title>template-library-core#191</title>
<polygon fill="lightgrey" stroke="black" points="1219.5,-1118.5 1060.5,-1118.5 1060.5,-1079.5 1219.5,-1079.5 1219.5,-1118.5"/>
<text text-anchor="middle" x="1140" y="-1096.5" font-family="Sans" font-size="10.00">template-library-core#191</text>
</g>
<!-- configuration&#45;modules&#45;core#1335&#45;&gt;template&#45;library&#45;core#191 -->
<g id="edge22" class="edge"><title>configuration-modules-core#1335-&gt;template-library-core#191</title>
<path fill="none" stroke="black" stroke-dasharray="5,2" d="M925.811,-1099C965.52,-1099 1011.19,-1099 1050.05,-1099"/>
<polygon fill="none" stroke="black" points="1050.29,-1102.5 1060.29,-1099 1050.29,-1095.5 1050.29,-1102.5"/>
<text text-anchor="middle" x="1004" y="-1102" font-family="Sans" font-size="10.00">requires</text>
</g>
<!-- configuration&#45;modules&#45;core#1490 -->
<g id="node35" class="node"><title>configuration-modules-core#1490</title>
<g id="a_node35"><a xlink:href="https://github.com/quattor/configuration-modules-core/pull/1490" xlink:title="ncm-ceph: Add support for orchestrator/cephadm under octopus" target="_parent">
<polygon fill="#6cc644" stroke="black" points="231.5,-686 36.5,-686 36.5,-636 231.5,-636 231.5,-686"/>
<text text-anchor="middle" x="134" y="-664" font-family="Sans" font-size="10.00">pull-request</text>
<text text-anchor="middle" x="134" y="-653" font-family="Sans" font-size="10.00">configuration-modules-core#1490</text>
</a>
</g>
</g>
<!-- configuration&#45;modules&#45;core#1490&#45;&gt;configuration&#45;modules&#45;core#1463 -->
<g id="edge23" class="edge"><title>configuration-modules-core#1490-&gt;configuration-modules-core#1463</title>
<path fill="none" stroke="black" stroke-dasharray="5,2" d="M231.632,-661C274.788,-661 325.792,-661 370.088,-661"/>
<polygon fill="none" stroke="black" points="370.31,-664.5 380.31,-661 370.31,-657.5 370.31,-664.5"/>
<text text-anchor="middle" x="306" y="-664" font-family="Sans" font-size="10.00">requires</text>
</g>
<!-- configuration&#45;modules&#45;core#1489 -->
<g id="node36" class="node"><title>configuration-modules-core#1489</title>
<g id="a_node36"><a xlink:href="https://github.com/quattor/configuration-modules-core/pull/1489" xlink:title="ncm-systemd: add support for resource control in units" target="_parent">
<polygon fill="#6cc644" stroke="black" points="575.5,-1461 380.5,-1461 380.5,-1411 575.5,-1411 575.5,-1461"/>
<text text-anchor="middle" x="478" y="-1439" font-family="Sans" font-size="10.00">pull-request</text>
<text text-anchor="middle" x="478" y="-1428" font-family="Sans" font-size="10.00">configuration-modules-core#1489</text>
</a>
</g>
</g>
<!-- configuration&#45;modules&#45;core#1484 -->
<g id="node37" class="node"><title>configuration-modules-core#1484</title>
<g id="a_node37"><a xlink:href="https://github.com/quattor/configuration-modules-core/pull/1484" xlink:title="Add panlint check as github action" target="_parent">
<polygon fill="#6cc644" stroke="black" points="925.5,-1461 730.5,-1461 730.5,-1411 925.5,-1411 925.5,-1461"/>
<text text-anchor="middle" x="828" y="-1439" font-family="Sans" font-size="10.00">pull-request</text>
<text text-anchor="middle" x="828" y="-1428" font-family="Sans" font-size="10.00">configuration-modules-core#1484</text>
</a>
</g>
</g>
<!-- configuration&#45;modules&#45;core#1489&#45;&gt;configuration&#45;modules&#45;core#1484 -->
<g id="edge24" class="edge"><title>configuration-modules-core#1489-&gt;configuration-modules-core#1484</title>
<path fill="none" stroke="black" stroke-dasharray="5,2" d="M575.937,-1436C620.812,-1436 674.255,-1436 720.277,-1436"/>
<polygon fill="none" stroke="black" points="720.281,-1439.5 730.281,-1436 720.281,-1432.5 720.281,-1439.5"/>
<text text-anchor="middle" x="651" y="-1439" font-family="Sans" font-size="10.00">requires</text>
</g>
<!-- configuration&#45;modules&#45;core#1148 -->
<g id="node38" class="node"><title>configuration-modules-core#1148</title>
<g id="a_node38"><a xlink:href="https://github.com/quattor/configuration-modules-core/pull/1148" xlink:title="ncm-spma: Remove support from groups from spma yumng backend" target="_parent">
<polygon fill="#6cc644" stroke="black" points="231.5,-1824 36.5,-1824 36.5,-1774 231.5,-1774 231.5,-1824"/>
<text text-anchor="middle" x="134" y="-1802" font-family="Sans" font-size="10.00">pull-request</text>
<text text-anchor="middle" x="134" y="-1791" font-family="Sans" font-size="10.00">configuration-modules-core#1148</text>
</a>
</g>
</g>
<!-- configuration&#45;modules&#45;core#952 -->
<g id="node39" class="node"><title>configuration-modules-core#952</title>
<g id="a_node39"><a xlink:href="https://github.com/quattor/configuration-modules-core/issues/952" xlink:title="ncm-spma (yumng): Remove support for package groups" target="_parent">
<ellipse fill="#6cc644" stroke="black" cx="478" cy="-1799" rx="133.787" ry="35.2113"/>
<text text-anchor="middle" x="478" y="-1802" font-family="Sans" font-size="10.00">issue</text>
<text text-anchor="middle" x="478" y="-1791" font-family="Sans" font-size="10.00">configuration-modules-core#952</text>
</a>
</g>
</g>
<!-- configuration&#45;modules&#45;core#1148&#45;&gt;configuration&#45;modules&#45;core#952 -->
<g id="edge25" class="edge"><title>configuration-modules-core#1148-&gt;configuration-modules-core#952</title>
<path fill="none" stroke="black" stroke-width="2" d="M231.632,-1799C263.453,-1799 299.541,-1799 334.061,-1799"/>
<polygon fill="black" stroke="black" points="334.232,-1802.5 344.232,-1799 334.232,-1795.5 334.232,-1802.5"/>
<text text-anchor="middle" x="306" y="-1802" font-family="Sans" font-size="10.00">fixes</text>
</g>
<!-- configuration&#45;modules&#45;core#950 -->
<g id="node40" class="node"><title>configuration-modules-core#950</title>
<g id="a_node40"><a xlink:href="https://github.com/quattor/configuration-modules-core/issues/950" xlink:title="ncm-spma: Remove support for package groups from yum backends" target="_parent">
<ellipse fill="#6cc644" stroke="black" cx="134" cy="-1715" rx="133.787" ry="35.2113"/>
<text text-anchor="middle" x="134" y="-1718" font-family="Sans" font-size="10.00">issue</text>
<text text-anchor="middle" x="134" y="-1707" font-family="Sans" font-size="10.00">configuration-modules-core#950</text>
</a>
</g>
</g>
<!-- configuration&#45;modules&#45;core#951 -->
<g id="node41" class="node"><title>configuration-modules-core#951</title>
<g id="a_node41"><a xlink:href="https://github.com/quattor/configuration-modules-core/issues/951" xlink:title="ncm-spma (yum): Remove support for package groups" target="_parent">
<ellipse fill="#6cc644" stroke="black" cx="478" cy="-1710" rx="133.787" ry="35.2113"/>
<text text-anchor="middle" x="478" y="-1713" font-family="Sans" font-size="10.00">issue</text>
<text text-anchor="middle" x="478" y="-1702" font-family="Sans" font-size="10.00">configuration-modules-core#951</text>
</a>
</g>
</g>
<!-- configuration&#45;modules&#45;core#950&#45;&gt;configuration&#45;modules&#45;core#951 -->
<g id="edge26" class="edge"><title>configuration-modules-core#950-&gt;configuration-modules-core#951</title>
<path fill="none" stroke="black" stroke-dasharray="5,2" d="M267.716,-1713.06C289.534,-1712.74 312.229,-1712.41 334.279,-1712.09"/>
<polygon fill="none" stroke="black" points="334.411,-1715.59 344.359,-1711.94 334.309,-1708.59 334.411,-1715.59"/>
<text text-anchor="middle" x="306" y="-1716" font-family="Sans" font-size="10.00">requires</text>
</g>
<!-- configuration&#45;modules&#45;core#950&#45;&gt;configuration&#45;modules&#45;core#952 -->
<g id="edge27" class="edge"><title>configuration-modules-core#950-&gt;configuration-modules-core#952</title>
<path fill="none" stroke="black" stroke-dasharray="5,2" d="M232.546,-1738.96C275.405,-1749.49 325.865,-1761.88 369.776,-1772.66"/>
<polygon fill="none" stroke="black" points="369.075,-1776.1 379.621,-1775.08 370.744,-1769.3 369.075,-1776.1"/>
<text text-anchor="middle" x="306" y="-1763" font-family="Sans" font-size="10.00">requires</text>
</g>
<!-- template&#45;library&#45;grid#237 -->
<g id="node42" class="node"><title>template-library-grid#237</title>
<g id="a_node42"><a xlink:href="https://github.com/quattor/template-library-grid/pull/237" xlink:title="users: Fix collisions with system managed groups" target="_parent">
<polygon fill="#6cc644" stroke="black" points="556.5,-1094 399.5,-1094 399.5,-1044 556.5,-1044 556.5,-1094"/>
<text text-anchor="middle" x="478" y="-1072" font-family="Sans" font-size="10.00">pull-request</text>
<text text-anchor="middle" x="478" y="-1061" font-family="Sans" font-size="10.00">template-library-grid#237</text>
</a>
</g>
</g>
<!-- template&#45;library&#45;grid#226 -->
<g id="node43" class="node"><title>template-library-grid#226</title>
<g id="a_node43"><a xlink:href="https://github.com/quattor/template-library-grid/issues/226" xlink:title="collisions group id" target="_parent">
<ellipse fill="#6cc644" stroke="black" cx="828" cy="-1021" rx="111.032" ry="35.2113"/>
<text text-anchor="middle" x="828" y="-1024" font-family="Sans" font-size="10.00">issue</text>
<text text-anchor="middle" x="828" y="-1013" font-family="Sans" font-size="10.00">template-library-grid#226</text>
</a>
</g>
</g>
<!-- template&#45;library&#45;grid#237&#45;&gt;template&#45;library&#45;grid#226 -->
<g id="edge28" class="edge"><title>template-library-grid#237-&gt;template-library-grid#226</title>
<path fill="none" stroke="black" stroke-width="2" d="M556.665,-1058.29C603.524,-1051.82 663.995,-1043.48 715.859,-1036.33"/>
<polygon fill="black" stroke="black" points="716.345,-1039.8 725.773,-1034.96 715.389,-1032.86 716.345,-1039.8"/>
<text text-anchor="middle" x="651" y="-1051" font-family="Sans" font-size="10.00">fixes</text>
</g>
<!-- template&#45;library&#45;grid#232 -->
<g id="node44" class="node"><title>template-library-grid#232</title>
<g id="a_node44"><a xlink:href="https://github.com/quattor/template-library-grid/pull/232" xlink:title="arc-ce: Export arc-ce feature from aquilon at RAL" target="_parent">
<polygon fill="#6cc644" stroke="black" points="212.5,-1539 55.5,-1539 55.5,-1489 212.5,-1489 212.5,-1539"/>
<text text-anchor="middle" x="134" y="-1517" font-family="Sans" font-size="10.00">pull-request</text>
<text text-anchor="middle" x="134" y="-1506" font-family="Sans" font-size="10.00">template-library-grid#232</text>
</a>
</g>
</g>
<!-- template&#45;library&#45;grid#221 -->
<g id="node45" class="node"><title>template-library-grid#221</title>
<g id="a_node45"><a xlink:href="https://github.com/quattor/template-library-grid/issues/221" xlink:title="Support for new CE types (ARC CE, HTCONDOR CE)" target="_parent">
<ellipse fill="#6cc644" stroke="black" cx="478" cy="-1514" rx="111.032" ry="35.2113"/>
<text text-anchor="middle" x="478" y="-1517" font-family="Sans" font-size="10.00">issue</text>
<text text-anchor="middle" x="478" y="-1506" font-family="Sans" font-size="10.00">template-library-grid#221</text>
</a>
</g>
</g>
<!-- template&#45;library&#45;grid#232&#45;&gt;template&#45;library&#45;grid#221 -->
<g id="edge29" class="edge"><title>template-library-grid#232-&gt;template-library-grid#221</title>
<path fill="none" stroke="black" stroke-width="2" d="M212.605,-1514C255.199,-1514 308.945,-1514 356.839,-1514"/>
<polygon fill="black" stroke="black" points="356.964,-1517.5 366.964,-1514 356.964,-1510.5 356.964,-1517.5"/>
<text text-anchor="middle" x="306" y="-1517" font-family="Sans" font-size="10.00">fixes</text>
</g>
<!-- aquilon#115 -->
<g id="node46" class="node"><title>aquilon#115</title>
<g id="a_node46"><a xlink:href="https://github.com/quattor/aquilon/pull/115" xlink:title="services: insert service data early in the object template" target="_parent">
<polygon fill="#6cc644" stroke="black" points="179.5,-2127 88.5,-2127 88.5,-2077 179.5,-2077 179.5,-2127"/>
<text text-anchor="middle" x="134" y="-2105" font-family="Sans" font-size="10.00">pull-request</text>
<text text-anchor="middle" x="134" y="-2094" font-family="Sans" font-size="10.00">aquilon#115</text>
</a>
</g>
</g>
<!-- aquilon#109 -->
<g id="node47" class="node"><title>aquilon#109</title>
<g id="a_node47"><a xlink:href="https://github.com/quattor/aquilon/issues/109" xlink:title="Why service configuration is included so late in the plenary object?" target="_parent">
<ellipse fill="#6cc644" stroke="black" cx="478" cy="-2092" rx="64.1938" ry="35.2113"/>
<text text-anchor="middle" x="478" y="-2095" font-family="Sans" font-size="10.00">issue</text>
<text text-anchor="middle" x="478" y="-2084" font-family="Sans" font-size="10.00">aquilon#109</text>
</a>
</g>
</g>
<!-- aquilon#115&#45;&gt;aquilon#109 -->
<g id="edge30" class="edge"><title>aquilon#115-&gt;aquilon#109</title>
<path fill="none" stroke="black" stroke-width="2" d="M179.711,-2100.69C236.543,-2099.03 335.426,-2096.14 403.441,-2094.15"/>
<polygon fill="black" stroke="black" points="403.768,-2097.64 413.661,-2093.85 403.563,-2090.65 403.768,-2097.64"/>
<text text-anchor="middle" x="306" y="-2100" font-family="Sans" font-size="10.00">fixes</text>
</g>
<!-- aquilon#110 -->
<g id="node48" class="node"><title>aquilon#110</title>
<g id="a_node48"><a xlink:href="https://github.com/quattor/aquilon/pull/110" xlink:title="Change site and machine namespace to use continent name" target="_parent">
<polygon fill="#6cc644" stroke="black" points="179.5,-2059 88.5,-2059 88.5,-2009 179.5,-2009 179.5,-2059"/>
<text text-anchor="middle" x="134" y="-2037" font-family="Sans" font-size="10.00">pull-request</text>
<text text-anchor="middle" x="134" y="-2026" font-family="Sans" font-size="10.00">aquilon#110</text>
</a>
</g>
</g>
<!-- aquilon#104 -->
<g id="node49" class="node"><title>aquilon#104</title>
<g id="a_node49"><a xlink:href="https://github.com/quattor/aquilon/issues/104" xlink:title="1.12.62: location related templates cannot be used" target="_parent">
<ellipse fill="#6cc644" stroke="black" cx="478" cy="-1990" rx="64.1938" ry="35.2113"/>
<text text-anchor="middle" x="478" y="-1993" font-family="Sans" font-size="10.00">issue</text>
<text text-anchor="middle" x="478" y="-1982" font-family="Sans" font-size="10.00">aquilon#104</text>
</a>
</g>
</g>
<!-- aquilon#110&#45;&gt;aquilon#104 -->
<g id="edge31" class="edge"><title>aquilon#110-&gt;aquilon#104</title>
<path fill="none" stroke="black" stroke-width="2" d="M179.711,-2028.25C236.974,-2020.88 336.927,-2008.02 404.981,-1999.27"/>
<polygon fill="black" stroke="black" points="405.728,-2002.7 415.199,-1997.95 404.835,-1995.76 405.728,-2002.7"/>
<text text-anchor="middle" x="306" y="-2016" font-family="Sans" font-size="10.00">fixes</text>
</g>
<!-- aquilon#91 -->
<g id="node50" class="node"><title>aquilon#91</title>
<g id="a_node50"><a xlink:href="https://github.com/quattor/aquilon/issues/91" xlink:title="1.12.58: city timezone is not passed to the object template" target="_parent">
<ellipse fill="#6cc644" stroke="black" cx="134" cy="-1956" rx="60.2083" ry="35.2113"/>
<text text-anchor="middle" x="134" y="-1959" font-family="Sans" font-size="10.00">issue</text>
<text text-anchor="middle" x="134" y="-1948" font-family="Sans" font-size="10.00">aquilon#91</text>
</a>
</g>
</g>
<!-- aquilon#91&#45;&gt;aquilon#104 -->
<g id="edge32" class="edge"><title>aquilon#91-&gt;aquilon#104</title>
<path fill="none" stroke="black" stroke-dasharray="5,2" d="M193.403,-1961.81C251.685,-1967.6 341.381,-1976.52 404.254,-1982.77"/>
<polygon fill="none" stroke="black" points="404.198,-1986.28 414.495,-1983.79 404.891,-1979.31 404.198,-1986.28"/>
<text text-anchor="middle" x="306" y="-1977" font-family="Sans" font-size="10.00">requires</text>
</g>
<!-- aquilon#89 -->
<g id="node51" class="node"><title>aquilon#89</title>
<g id="a_node51"><a xlink:href="https://github.com/quattor/aquilon/pull/89" xlink:title="Broker: pass archetype to the object profile" target="_parent">
<polygon fill="#6cc644" stroke="black" points="177.5,-1903 90.5,-1903 90.5,-1853 177.5,-1853 177.5,-1903"/>
<text text-anchor="middle" x="134" y="-1881" font-family="Sans" font-size="10.00">pull-request</text>
<text text-anchor="middle" x="134" y="-1870" font-family="Sans" font-size="10.00">aquilon#89</text>
</a>
</g>
</g>
<!-- aquilon#88 -->
<g id="node52" class="node"><title>aquilon#88</title>
<g id="a_node52"><a xlink:href="https://github.com/quattor/aquilon/issues/88" xlink:title="1.12.58: the broker should pass the archetype to the object template" target="_parent">
<ellipse fill="#6cc644" stroke="black" cx="478" cy="-1888" rx="60.2083" ry="35.2113"/>
<text text-anchor="middle" x="478" y="-1891" font-family="Sans" font-size="10.00">issue</text>
<text text-anchor="middle" x="478" y="-1880" font-family="Sans" font-size="10.00">aquilon#88</text>
</a>
</g>
</g>
<!-- aquilon#89&#45;&gt;aquilon#88 -->
<g id="edge33" class="edge"><title>aquilon#89-&gt;aquilon#88</title>
<path fill="none" stroke="black" stroke-width="2" d="M177.623,-1879.25C235.19,-1880.93 338.502,-1883.95 407.413,-1885.97"/>
<polygon fill="black" stroke="black" points="407.644,-1889.47 417.742,-1886.27 407.849,-1882.48 407.644,-1889.47"/>
<text text-anchor="middle" x="306" y="-1887" font-family="Sans" font-size="10.00">fixes</text>
</g>
</g>
</svg>
