<?xml version="1.0" encoding="UTF-8" standalone="no"?>
<?xml-stylesheet href="relationships.css" type="text/css"?>
<!-- Generated by graphviz version 2.26.0 (20091210.2329)
 -->
<!-- Title: Dependencies Pages: 1 -->
<svg xmlns="http://www.w3.org/2000/svg" xmlns:xlink="http://www.w3.org/1999/xlink" width="578pt" height="2110pt" viewBox="0.00 0.00 578.00 2110.00">
<g id="graph1" class="graph" transform="scale(1 1) rotate(0) translate(4 2106)">
<title>Dependencies</title>
<polygon fill="white" stroke="white" points="-4,5 -4,-2106 575,-2106 575,5 -4,5"/>
<g id="graph2" class="cluster"><title>cluster_17.10</title>
<polygon fill="none" stroke="black" points="302,-282 302,-398 562,-398 562,-282 302,-282"/>
<text text-anchor="middle" x="432" y="-383.2" font-family="Sans" font-size="12.00">17.10</text>
</g>
<g id="graph3" class="cluster"><title>cluster_17.8</title>
<polygon fill="none" stroke="black" points="24,-456 24,-1584 562,-1584 562,-456 24,-456"/>
<text text-anchor="middle" x="293" y="-1569.2" font-family="Sans" font-size="12.00">17.8</text>
</g>
<g id="graph5" class="cluster"><title>cluster_17.12</title>
<polygon fill="none" stroke="black" points="70,-1642 70,-1830 482,-1830 482,-1642 70,-1642"/>
<text text-anchor="middle" x="276" y="-1815.2" font-family="Sans" font-size="12.00">17.12</text>
</g>
<!-- aii#275 -->
<g id="node1" class="node"><title>aii#275</title>
<a xlink:href="https://github.com/quattor/aii/pull/275" xlink:title="remove aii-freeipa, deprecated by ncm-freeipa AII support" target="_parent">
<polygon fill="#6e5494" stroke="black" points="157,-1541 79,-1541 79,-1487 157,-1487 157,-1541"/>
<text text-anchor="middle" x="118" y="-1518" font-family="Sans" font-size="10.00">pull-request</text>
<text text-anchor="middle" x="118" y="-1505" font-family="Sans" font-size="10.00">aii#275</text>
</a>
</g>
<!-- aii#134 -->
<g id="node3" class="node"><title>aii#134</title>
<a xlink:href="https://github.com/quattor/aii/issues/134" xlink:title="Missing freeipa.pm in AII RPM" target="_parent">
<ellipse fill="#bd2c00" stroke="black" cx="432" cy="-1514" rx="41.2167" ry="38.1838"/>
<text text-anchor="middle" x="432" y="-1518" font-family="Sans" font-size="10.00">issue</text>
<text text-anchor="middle" x="432" y="-1505" font-family="Sans" font-size="10.00">aii#134</text>
</a>
</g>
<!-- aii#275&#45;&gt;aii#134 -->
<g id="edge2" class="edge"><title>aii#275-&gt;aii#134</title>
<path fill="none" stroke="black" stroke-width="2" d="M157.571,-1512.9C184.705,-1512.2 221.529,-1511.36 254,-1511 296.474,-1510.53 344.645,-1511.43 380.154,-1512.36"/>
<polygon fill="black" stroke="black" points="380.191,-1515.87 390.282,-1512.64 380.381,-1508.87 380.191,-1515.87"/>
<text text-anchor="middle" x="273" y="-1515" font-family="Sans" font-size="10.00">fixes</text>
</g>
<!-- aii#210 -->
<g id="node4" class="node"><title>aii#210</title>
<a xlink:href="https://github.com/quattor/aii/pull/210" xlink:title="Shellfe: support active config for plugins" target="_parent">
<polygon fill="#6cc644" stroke="black" points="157,-1704 79,-1704 79,-1650 157,-1650 157,-1704"/>
<text text-anchor="middle" x="118" y="-1681" font-family="Sans" font-size="10.00">pull-request</text>
<text text-anchor="middle" x="118" y="-1668" font-family="Sans" font-size="10.00">aii#210</text>
</a>
</g>
<!-- aii#209 -->
<g id="node6" class="node"><title>aii#209</title>
<a xlink:href="https://github.com/quattor/aii/issues/209" xlink:title="support ACTIVE_CONFIG" target="_parent">
<ellipse fill="#6cc644" stroke="black" cx="432" cy="-1760" rx="41.2167" ry="38.1838"/>
<text text-anchor="middle" x="432" y="-1764" font-family="Sans" font-size="10.00">issue</text>
<text text-anchor="middle" x="432" y="-1751" font-family="Sans" font-size="10.00">aii#209</text>
</a>
</g>
<!-- aii#210&#45;&gt;aii#209 -->
<g id="edge4" class="edge"><title>aii#210-&gt;aii#209</title>
<path fill="none" stroke="black" stroke-width="2" d="M157.609,-1687.38C180.517,-1693.39 209.889,-1701.11 236,-1708 285.736,-1721.13 342.549,-1736.21 382.158,-1746.74"/>
<polygon fill="black" stroke="black" points="381.278,-1750.13 391.842,-1749.32 383.077,-1743.36 381.278,-1750.13"/>
<text text-anchor="middle" x="273" y="-1727" font-family="Sans" font-size="10.00">fixes</text>
</g>
<!-- ncm&#45;ncd#74 -->
<g id="node8" class="node"><title>ncm-ncd#74</title>
<a xlink:href="https://github.com/quattor/ncm-ncd/pull/74" xlink:title="Set the current active config as an attribute to the component" target="_parent">
<polygon fill="#6cc644" stroke="black" points="473,-1704 391,-1704 391,-1650 473,-1650 473,-1704"/>
<text text-anchor="middle" x="432" y="-1681" font-family="Sans" font-size="10.00">pull-request</text>
<text text-anchor="middle" x="432" y="-1668" font-family="Sans" font-size="10.00">ncm-ncd#74</text>
</a>
</g>
<!-- aii#210&#45;&gt;ncm&#45;ncd#74 -->
<g id="edge6" class="edge"><title>aii#210-&gt;ncm-ncd#74</title>
<path fill="none" stroke="black" stroke-dasharray="5,2" d="M157.768,-1677C214.435,-1677 318.442,-1677 380.801,-1677"/>
<polygon fill="none" stroke="black" points="380.813,-1680.5 390.813,-1677 380.813,-1673.5 380.813,-1680.5"/>
<text text-anchor="middle" x="273" y="-1681" font-family="Sans" font-size="10.00">requires</text>
</g>
<!-- aii#203 -->
<g id="node10" class="node"><title>aii#203</title>
<polygon fill="lightgrey" stroke="black" points="461,-1632.5 403,-1632.5 403,-1591.5 461,-1591.5 461,-1632.5"/>
<text text-anchor="middle" x="432" y="-1609.5" font-family="Sans" font-size="10.00">aii#203</text>
</g>
<!-- aii#210&#45;&gt;aii#203 -->
<g id="edge8" class="edge"><title>aii#210-&gt;aii#203</title>
<path fill="none" stroke="black" stroke-dasharray="5,2" d="M157.813,-1668.42C195.063,-1660.43 252.267,-1648.24 302,-1638 332.215,-1631.78 366.427,-1624.94 392.168,-1619.84"/>
<polygon fill="none" stroke="black" points="393.162,-1623.21 402.292,-1617.84 391.803,-1616.35 393.162,-1623.21"/>
<text text-anchor="middle" x="273" y="-1652" font-family="Sans" font-size="10.00">requires</text>
</g>
<!-- configuration&#45;modules&#45;core#1169 -->
<g id="node11" class="node"><title>configuration-modules-core#1169</title>
<a xlink:href="https://github.com/quattor/configuration-modules-core/pull/1169" xlink:title="ncm-accounts: is_user_or_group function can be used without component" target="_parent">
<polygon fill="#6e5494" stroke="black" points="204,-806 32,-806 32,-752 204,-752 204,-806"/>
<text text-anchor="middle" x="118" y="-783" font-family="Sans" font-size="10.00">pull-request</text>
<text text-anchor="middle" x="118" y="-770" font-family="Sans" font-size="10.00">configuration-modules-core#1169</text>
</a>
</g>
<!-- configuration&#45;modules&#45;core#1166 -->
<g id="node13" class="node"><title>configuration-modules-core#1166</title>
<polygon fill="lightgrey" stroke="black" points="518,-446.5 346,-446.5 346,-405.5 518,-405.5 518,-446.5"/>
<text text-anchor="middle" x="432" y="-423.5" font-family="Sans" font-size="10.00">configuration-modules-core#1166</text>
</g>
<!-- configuration&#45;modules&#45;core#1169&#45;&gt;configuration&#45;modules&#45;core#1166 -->
<g id="edge10" class="edge"><title>configuration-modules-core#1169-&gt;configuration-modules-core#1166</title>
<path fill="none" stroke="black" stroke-width="2" d="M204.162,-766.433C216.467,-761.06 227.731,-753.527 236,-743 257.723,-715.343 228.503,-451.222 254,-427 280,-402.3 319.004,-399.788 353.88,-404.423"/>
<polygon fill="black" stroke="black" points="353.655,-407.93 364.071,-405.99 354.719,-401.011 353.655,-407.93"/>
<text text-anchor="middle" x="273" y="-431" font-family="Sans" font-size="10.00">fixes</text>
</g>
<!-- configuration&#45;modules&#45;core#1167 -->
<g id="node14" class="node"><title>configuration-modules-core#1167</title>
<a xlink:href="https://github.com/quattor/configuration-modules-core/pull/1167" xlink:title="ncm-cups: fix compatibility with EL7" target="_parent">
<polygon fill="#6cc644" stroke="black" points="204,-734 32,-734 32,-680 204,-680 204,-734"/>
<text text-anchor="middle" x="118" y="-711" font-family="Sans" font-size="10.00">pull-request</text>
<text text-anchor="middle" x="118" y="-698" font-family="Sans" font-size="10.00">configuration-modules-core#1167</text>
</a>
</g>
<!-- configuration&#45;modules&#45;core#1161 -->
<g id="node16" class="node"><title>configuration-modules-core#1161</title>
<a xlink:href="https://github.com/quattor/configuration-modules-core/issues/1161" xlink:title="ncm-cups 17.7.0 broken on EL7 (pre-EL7 chkconfig dependency)" target="_parent">
<ellipse fill="#6cc644" stroke="black" cx="432" cy="-328" rx="121.122" ry="38.1838"/>
<text text-anchor="middle" x="432" y="-332" font-family="Sans" font-size="10.00">issue</text>
<text text-anchor="middle" x="432" y="-319" font-family="Sans" font-size="10.00">configuration-modules-core#1161</text>
</a>
</g>
<!-- configuration&#45;modules&#45;core#1167&#45;&gt;configuration&#45;modules&#45;core#1161 -->
<g id="edge12" class="edge"><title>configuration-modules-core#1167-&gt;configuration-modules-core#1161</title>
<path fill="none" stroke="black" stroke-width="2" d="M204.161,-694.432C216.465,-689.059 227.731,-681.527 236,-671 279.313,-615.864 206.934,-407.969 254,-356 261.866,-347.315 280.371,-341.315 302.615,-337.173"/>
<polygon fill="black" stroke="black" points="303.443,-340.582 312.713,-335.453 302.267,-333.682 303.443,-340.582"/>
<text text-anchor="middle" x="273" y="-360" font-family="Sans" font-size="10.00">fixes</text>
</g>
<!-- configuration&#45;modules&#45;core#1163 -->
<g id="node17" class="node"><title>configuration-modules-core#1163</title>
<a xlink:href="https://github.com/quattor/configuration-modules-core/pull/1163" xlink:title="ncm-directoryservices: remove unsupported component" target="_parent">
<polygon fill="#6cc644" stroke="black" points="204,-1447 32,-1447 32,-1393 204,-1393 204,-1447"/>
<text text-anchor="middle" x="118" y="-1424" font-family="Sans" font-size="10.00">pull-request</text>
<text text-anchor="middle" x="118" y="-1411" font-family="Sans" font-size="10.00">configuration-modules-core#1163</text>
</a>
</g>
<!-- configuration&#45;modules&#45;core#1052 -->
<g id="node19" class="node"><title>configuration-modules-core#1052</title>
<a xlink:href="https://github.com/quattor/configuration-modules-core/issues/1052" xlink:title="ncm-directoryservices: Archive and remove from repository" target="_parent">
<ellipse fill="#6cc644" stroke="black" cx="432" cy="-1420" rx="121.122" ry="38.1838"/>
<text text-anchor="middle" x="432" y="-1424" font-family="Sans" font-size="10.00">issue</text>
<text text-anchor="middle" x="432" y="-1411" font-family="Sans" font-size="10.00">configuration-modules-core#1052</text>
</a>
</g>
<!-- configuration&#45;modules&#45;core#1163&#45;&gt;configuration&#45;modules&#45;core#1052 -->
<g id="edge14" class="edge"><title>configuration-modules-core#1163-&gt;configuration-modules-core#1052</title>
<path fill="none" stroke="black" stroke-width="2" d="M204.217,-1420C233.916,-1420 267.888,-1420 300.372,-1420"/>
<polygon fill="black" stroke="black" points="300.399,-1423.5 310.399,-1420 300.399,-1416.5 300.399,-1423.5"/>
<text text-anchor="middle" x="273" y="-1424" font-family="Sans" font-size="10.00">fixes</text>
</g>
<!-- configuration&#45;modules&#45;core#1162 -->
<g id="node20" class="node"><title>configuration-modules-core#1162</title>
<a xlink:href="https://github.com/quattor/configuration-modules-core/pull/1162" xlink:title="ncm-mcx: remove unsupported component" target="_parent">
<polygon fill="#6e5494" stroke="black" points="204,-1353 32,-1353 32,-1299 204,-1299 204,-1353"/>
<text text-anchor="middle" x="118" y="-1330" font-family="Sans" font-size="10.00">pull-request</text>
<text text-anchor="middle" x="118" y="-1317" font-family="Sans" font-size="10.00">configuration-modules-core#1162</text>
</a>
</g>
<!-- configuration&#45;modules&#45;core#1054 -->
<g id="node22" class="node"><title>configuration-modules-core#1054</title>
<a xlink:href="https://github.com/quattor/configuration-modules-core/issues/1054" xlink:title="ncm-mcx: Archive and remove from repository" target="_parent">
<ellipse fill="#bd2c00" stroke="black" cx="432" cy="-1326" rx="121.122" ry="38.1838"/>
<text text-anchor="middle" x="432" y="-1330" font-family="Sans" font-size="10.00">issue</text>
<text text-anchor="middle" x="432" y="-1317" font-family="Sans" font-size="10.00">configuration-modules-core#1054</text>
</a>
</g>
<!-- configuration&#45;modules&#45;core#1162&#45;&gt;configuration&#45;modules&#45;core#1054 -->
<g id="edge16" class="edge"><title>configuration-modules-core#1162-&gt;configuration-modules-core#1054</title>
<path fill="none" stroke="black" stroke-width="2" d="M204.217,-1326C233.916,-1326 267.888,-1326 300.372,-1326"/>
<polygon fill="black" stroke="black" points="300.399,-1329.5 310.399,-1326 300.399,-1322.5 300.399,-1329.5"/>
<text text-anchor="middle" x="273" y="-1330" font-family="Sans" font-size="10.00">fixes</text>
</g>
<!-- configuration&#45;modules&#45;core#1159 -->
<g id="node23" class="node"><title>configuration-modules-core#1159</title>
<a xlink:href="https://github.com/quattor/configuration-modules-core/pull/1159" xlink:title="ncm-authconfig: Remove deprecated startstop property" target="_parent">
<polygon fill="#6e5494" stroke="black" points="204,-1244 32,-1244 32,-1190 204,-1190 204,-1244"/>
<text text-anchor="middle" x="118" y="-1221" font-family="Sans" font-size="10.00">pull-request</text>
<text text-anchor="middle" x="118" y="-1208" font-family="Sans" font-size="10.00">configuration-modules-core#1159</text>
</a>
</g>
<!-- configuration&#45;modules&#45;core#1145 -->
<g id="node25" class="node"><title>configuration-modules-core#1145</title>
<a xlink:href="https://github.com/quattor/configuration-modules-core/issues/1145" xlink:title="ncm-authconfig: Remove startstop property" target="_parent">
<ellipse fill="#bd2c00" stroke="black" cx="432" cy="-1232" rx="121.122" ry="38.1838"/>
<text text-anchor="middle" x="432" y="-1236" font-family="Sans" font-size="10.00">issue</text>
<text text-anchor="middle" x="432" y="-1223" font-family="Sans" font-size="10.00">configuration-modules-core#1145</text>
</a>
</g>
<!-- configuration&#45;modules&#45;core#1159&#45;&gt;configuration&#45;modules&#45;core#1145 -->
<g id="edge18" class="edge"><title>configuration-modules-core#1159-&gt;configuration-modules-core#1145</title>
<path fill="none" stroke="black" stroke-width="2" d="M204.217,-1221.12C234.327,-1222.56 268.83,-1224.21 301.721,-1225.78"/>
<polygon fill="black" stroke="black" points="301.714,-1229.28 311.87,-1226.26 302.048,-1222.29 301.714,-1229.28"/>
<text text-anchor="middle" x="273" y="-1229" font-family="Sans" font-size="10.00">fixes</text>
</g>
<!-- configuration&#45;modules&#45;core#1143 -->
<g id="node27" class="node"><title>configuration-modules-core#1143</title>
<a xlink:href="https://github.com/quattor/configuration-modules-core/issues/1143" xlink:title="ncm-authconfig: What is startstop supposed to do?" target="_parent">
<ellipse fill="#bd2c00" stroke="black" cx="432" cy="-1138" rx="121.122" ry="38.1838"/>
<text text-anchor="middle" x="432" y="-1142" font-family="Sans" font-size="10.00">issue</text>
<text text-anchor="middle" x="432" y="-1129" font-family="Sans" font-size="10.00">configuration-modules-core#1143</text>
</a>
</g>
<!-- configuration&#45;modules&#45;core#1159&#45;&gt;configuration&#45;modules&#45;core#1143 -->
<g id="edge20" class="edge"><title>configuration-modules-core#1159-&gt;configuration-modules-core#1143</title>
<path fill="none" stroke="black" stroke-width="2" d="M204.217,-1195.31C242.291,-1185.73 287.389,-1174.38 327.37,-1164.32"/>
<polygon fill="black" stroke="black" points="328.304,-1167.7 337.148,-1161.86 326.596,-1160.91 328.304,-1167.7"/>
<text text-anchor="middle" x="273" y="-1187" font-family="Sans" font-size="10.00">fixes</text>
</g>
<!-- configuration&#45;modules&#45;core#1151 -->
<g id="node28" class="node"><title>configuration-modules-core#1151</title>
<a xlink:href="https://github.com/quattor/configuration-modules-core/pull/1151" xlink:title="Escape / unescape functions from CCM::Path" target="_parent">
<polygon fill="#6e5494" stroke="black" points="204,-1166 32,-1166 32,-1112 204,-1112 204,-1166"/>
<text text-anchor="middle" x="118" y="-1143" font-family="Sans" font-size="10.00">pull-request</text>
<text text-anchor="middle" x="118" y="-1130" font-family="Sans" font-size="10.00">configuration-modules-core#1151</text>
</a>
</g>
<!-- configuration&#45;modules&#45;core#1083 -->
<g id="node30" class="node"><title>configuration-modules-core#1083</title>
<a xlink:href="https://github.com/quattor/configuration-modules-core/issues/1083" xlink:title="warnings due to deprecated CCM modules" target="_parent">
<ellipse fill="#bd2c00" stroke="black" cx="432" cy="-1044" rx="121.122" ry="38.1838"/>
<text text-anchor="middle" x="432" y="-1048" font-family="Sans" font-size="10.00">issue</text>
<text text-anchor="middle" x="432" y="-1035" font-family="Sans" font-size="10.00">configuration-modules-core#1083</text>
</a>
</g>
<!-- configuration&#45;modules&#45;core#1151&#45;&gt;configuration&#45;modules&#45;core#1083 -->
<g id="edge22" class="edge"><title>configuration-modules-core#1151-&gt;configuration-modules-core#1083</title>
<path fill="none" stroke="black" stroke-width="2" d="M204.217,-1112.92C244.726,-1100.66 293.186,-1086 334.974,-1073.35"/>
<polygon fill="black" stroke="black" points="336.053,-1076.69 344.611,-1070.44 334.026,-1069.99 336.053,-1076.69"/>
<text text-anchor="middle" x="273" y="-1102" font-family="Sans" font-size="10.00">fixes</text>
</g>
<!-- configuration&#45;modules&#45;core#1149 -->
<g id="node31" class="node"><title>configuration-modules-core#1149</title>
<a xlink:href="https://github.com/quattor/configuration-modules-core/pull/1149" xlink:title="ncm-metaconfig: rsyslog: rainer script configuration" target="_parent">
<polygon fill="#6cc644" stroke="black" points="204,-1094 32,-1094 32,-1040 204,-1040 204,-1094"/>
<text text-anchor="middle" x="118" y="-1071" font-family="Sans" font-size="10.00">pull-request</text>
<text text-anchor="middle" x="118" y="-1058" font-family="Sans" font-size="10.00">configuration-modules-core#1149</text>
</a>
</g>
<!-- configuration&#45;modules&#45;core#1126 -->
<g id="node33" class="node"><title>configuration-modules-core#1126</title>
<a xlink:href="https://github.com/quattor/configuration-modules-core/pull/1126" xlink:title="ncm-metaconfig: cleanup and switch to 00-tqu" target="_parent">
<polygon fill="#6cc644" stroke="black" points="518,-988 346,-988 346,-934 518,-934 518,-988"/>
<text text-anchor="middle" x="432" y="-965" font-family="Sans" font-size="10.00">pull-request</text>
<text text-anchor="middle" x="432" y="-952" font-family="Sans" font-size="10.00">configuration-modules-core#1126</text>
</a>
</g>
<!-- configuration&#45;modules&#45;core#1149&#45;&gt;configuration&#45;modules&#45;core#1126 -->
<g id="edge24" class="edge"><title>configuration-modules-core#1149-&gt;configuration-modules-core#1126</title>
<path fill="none" stroke="black" stroke-dasharray="5,2" d="M204.031,-1042.73C214.898,-1039.09 225.781,-1035.15 236,-1031 266.57,-1018.58 271.271,-1009.02 302,-997 312.905,-992.734 324.509,-988.761 336.123,-985.129"/>
<polygon fill="none" stroke="black" points="337.321,-988.423 345.866,-982.16 335.28,-981.727 337.321,-988.423"/>
<text text-anchor="middle" x="273" y="-1027" font-family="Sans" font-size="10.00">requires</text>
</g>
<!-- configuration&#45;modules&#45;core#1136 -->
<g id="node34" class="node"><title>configuration-modules-core#1136</title>
<a xlink:href="https://github.com/quattor/configuration-modules-core/pull/1136" xlink:title="ncm-gmond: cleanup and support new configuration options" target="_parent">
<polygon fill="#6cc644" stroke="black" points="204,-1022 32,-1022 32,-968 204,-968 204,-1022"/>
<text text-anchor="middle" x="118" y="-999" font-family="Sans" font-size="10.00">pull-request</text>
<text text-anchor="middle" x="118" y="-986" font-family="Sans" font-size="10.00">configuration-modules-core#1136</text>
</a>
</g>
<!-- configuration&#45;modules&#45;core#1116 -->
<g id="node36" class="node"><title>configuration-modules-core#1116</title>
<a xlink:href="https://github.com/quattor/configuration-modules-core/issues/1116" xlink:title="ncm-gmond: configuration options missing from schema" target="_parent">
<ellipse fill="#6cc644" stroke="black" cx="432" cy="-878" rx="121.122" ry="38.1838"/>
<text text-anchor="middle" x="432" y="-882" font-family="Sans" font-size="10.00">issue</text>
<text text-anchor="middle" x="432" y="-869" font-family="Sans" font-size="10.00">configuration-modules-core#1116</text>
</a>
</g>
<!-- configuration&#45;modules&#45;core#1136&#45;&gt;configuration&#45;modules&#45;core#1116 -->
<g id="edge26" class="edge"><title>configuration-modules-core#1136-&gt;configuration-modules-core#1116</title>
<path fill="none" stroke="black" stroke-width="2" d="M204.031,-970.733C214.898,-967.09 225.781,-963.152 236,-959 266.57,-946.58 271.755,-938.192 302,-925 314.214,-919.673 327.245,-914.445 340.164,-909.525"/>
<polygon fill="black" stroke="black" points="341.41,-912.796 349.538,-905.999 338.946,-906.244 341.41,-912.796"/>
<text text-anchor="middle" x="273" y="-955" font-family="Sans" font-size="10.00">fixes</text>
</g>
<!-- configuration&#45;modules&#45;core#1132 -->
<g id="node37" class="node"><title>configuration-modules-core#1132</title>
<a xlink:href="https://github.com/quattor/configuration-modules-core/pull/1132" xlink:title="ncm-metaconfig: hnormalise" target="_parent">
<polygon fill="#6cc644" stroke="black" points="204,-590 32,-590 32,-536 204,-536 204,-590"/>
<text text-anchor="middle" x="118" y="-567" font-family="Sans" font-size="10.00">pull-request</text>
<text text-anchor="middle" x="118" y="-554" font-family="Sans" font-size="10.00">configuration-modules-core#1132</text>
</a>
</g>
<!-- configuration&#45;modules&#45;core#1028 -->
<g id="node39" class="node"><title>configuration-modules-core#1028</title>
<polygon fill="lightgrey" stroke="black" points="518,-98.5 346,-98.5 346,-57.5 518,-57.5 518,-98.5"/>
<text text-anchor="middle" x="432" y="-75.5" font-family="Sans" font-size="10.00">configuration-modules-core#1028</text>
</g>
<!-- configuration&#45;modules&#45;core#1132&#45;&gt;configuration&#45;modules&#45;core#1028 -->
<g id="edge28" class="edge"><title>configuration-modules-core#1132-&gt;configuration-modules-core#1028</title>
<path fill="none" stroke="black" stroke-dasharray="5,2" d="M204.295,-550.537C216.584,-545.152 227.809,-537.588 236,-527 264.989,-489.529 221.976,-135.913 254,-101 274.532,-78.6157 305.237,-69.9436 335.39,-67.7866"/>
<polygon fill="none" stroke="black" points="335.76,-71.2729 345.579,-67.2945 335.422,-64.2811 335.76,-71.2729"/>
<text text-anchor="middle" x="273" y="-105" font-family="Sans" font-size="10.00">requires</text>
</g>
<!-- configuration&#45;modules&#45;core#1124 -->
<g id="node40" class="node"><title>configuration-modules-core#1124</title>
<a xlink:href="https://github.com/quattor/configuration-modules-core/pull/1124" xlink:title="ncm-cron: cleanup and switch to 00-tqu" target="_parent">
<polygon fill="#6e5494" stroke="black" points="204,-662 32,-662 32,-608 204,-608 204,-662"/>
<text text-anchor="middle" x="118" y="-639" font-family="Sans" font-size="10.00">pull-request</text>
<text text-anchor="middle" x="118" y="-626" font-family="Sans" font-size="10.00">configuration-modules-core#1124</text>
</a>
</g>
<!-- CAF#230 -->
<g id="node42" class="node"><title>CAF#230</title>
<polygon fill="lightgrey" stroke="black" points="467,-156.5 397,-156.5 397,-115.5 467,-115.5 467,-156.5"/>
<text text-anchor="middle" x="432" y="-133.5" font-family="Sans" font-size="10.00">CAF#230</text>
</g>
<!-- configuration&#45;modules&#45;core#1124&#45;&gt;CAF#230 -->
<g id="edge30" class="edge"><title>configuration-modules-core#1124-&gt;CAF#230</title>
<path fill="none" stroke="black" stroke-dasharray="5,2" d="M204.03,-622.689C216.431,-617.293 227.761,-609.686 236,-599 267.368,-558.316 217.074,-172.715 254,-137 288.505,-103.626 346.672,-110.386 387.083,-120.861"/>
<polygon fill="none" stroke="black" points="386.378,-124.298 396.949,-123.583 388.239,-117.55 386.378,-124.298"/>
<text text-anchor="middle" x="273" y="-141" font-family="Sans" font-size="10.00">requires</text>
</g>
<!-- configuration&#45;modules&#45;core#1119 -->
<g id="node43" class="node"><title>configuration-modules-core#1119</title>
<a xlink:href="https://github.com/quattor/configuration-modules-core/pull/1119" xlink:title="ncm-systemd: cleanup, restarting modified unitfiles and initial handling of unconfigured units" target="_parent">
<polygon fill="#6cc644" stroke="black" points="204,-950 32,-950 32,-896 204,-896 204,-950"/>
<text text-anchor="middle" x="118" y="-927" font-family="Sans" font-size="10.00">pull-request</text>
<text text-anchor="middle" x="118" y="-914" font-family="Sans" font-size="10.00">configuration-modules-core#1119</text>
</a>
</g>
<!-- configuration&#45;modules&#45;core#1095 -->
<g id="node45" class="node"><title>configuration-modules-core#1095</title>
<a xlink:href="https://github.com/quattor/configuration-modules-core/issues/1095" xlink:title="Manual intervention required in order for drop-in unit files to have any affect" target="_parent">
<ellipse fill="#6cc644" stroke="black" cx="432" cy="-784" rx="121.122" ry="38.1838"/>
<text text-anchor="middle" x="432" y="-788" font-family="Sans" font-size="10.00">issue</text>
<text text-anchor="middle" x="432" y="-775" font-family="Sans" font-size="10.00">configuration-modules-core#1095</text>
</a>
</g>
<!-- configuration&#45;modules&#45;core#1119&#45;&gt;configuration&#45;modules&#45;core#1095 -->
<g id="edge32" class="edge"><title>configuration-modules-core#1119-&gt;configuration-modules-core#1095</title>
<path fill="none" stroke="black" stroke-width="2" d="M204.127,-901.254C215.142,-897.172 226.037,-892.441 236,-887 269.763,-868.561 268.717,-850.29 302,-831 312.486,-824.923 323.893,-819.414 335.451,-814.486"/>
<polygon fill="black" stroke="black" points="336.826,-817.706 344.737,-810.659 334.158,-811.234 336.826,-817.706"/>
<text text-anchor="middle" x="273" y="-878" font-family="Sans" font-size="10.00">fixes</text>
</g>
<!-- configuration&#45;modules&#45;core#1087 -->
<g id="node46" class="node"><title>configuration-modules-core#1087</title>
<a xlink:href="https://github.com/quattor/configuration-modules-core/pull/1087" xlink:title="ncm-network: cleanup, fixes and new features" target="_parent">
<polygon fill="#6cc644" stroke="black" points="204,-878 32,-878 32,-824 204,-824 204,-878"/>
<text text-anchor="middle" x="118" y="-855" font-family="Sans" font-size="10.00">pull-request</text>
<text text-anchor="middle" x="118" y="-842" font-family="Sans" font-size="10.00">configuration-modules-core#1087</text>
</a>
</g>
<!-- configuration&#45;modules&#45;core#1087&#45;&gt;CAF#230 -->
<g id="edge44" class="edge"><title>configuration-modules-core#1087-&gt;CAF#230</title>
<path fill="none" stroke="black" stroke-dasharray="5,2" d="M204.111,-838.751C216.503,-833.348 227.809,-825.723 236,-815 276.488,-761.998 228.181,-276.497 254,-215 265.925,-186.597 275.155,-180.109 302,-165 327.974,-150.381 360.747,-143.132 386.888,-139.537"/>
<polygon fill="none" stroke="black" points="387.425,-142.997 396.917,-138.289 386.561,-136.05 387.425,-142.997"/>
<text text-anchor="middle" x="273" y="-219" font-family="Sans" font-size="10.00">requires</text>
</g>
<!-- configuration&#45;modules&#45;core#1082 -->
<g id="node48" class="node"><title>configuration-modules-core#1082</title>
<a xlink:href="https://github.com/quattor/configuration-modules-core/issues/1082" xlink:title="ncm-network: Allow extra routing options for the default route" target="_parent">
<ellipse fill="#6cc644" stroke="black" cx="432" cy="-502" rx="121.122" ry="38.1838"/>
<text text-anchor="middle" x="432" y="-506" font-family="Sans" font-size="10.00">issue</text>
<text text-anchor="middle" x="432" y="-493" font-family="Sans" font-size="10.00">configuration-modules-core#1082</text>
</a>
</g>
<!-- configuration&#45;modules&#45;core#1087&#45;&gt;configuration&#45;modules&#45;core#1082 -->
<g id="edge34" class="edge"><title>configuration-modules-core#1087-&gt;configuration-modules-core#1082</title>
<path fill="none" stroke="black" stroke-width="2" d="M204.071,-837.994C216.307,-832.667 227.573,-825.263 236,-815 261.369,-784.102 242.102,-674.167 254,-636 267.143,-593.84 268.417,-577.678 302,-549 310.174,-542.02 319.467,-536.043 329.238,-530.933"/>
<polygon fill="black" stroke="black" points="330.887,-534.023 338.327,-526.48 327.807,-527.737 330.887,-534.023"/>
<text text-anchor="middle" x="273" y="-640" font-family="Sans" font-size="10.00">fixes</text>
</g>
<!-- configuration&#45;modules&#45;core#870 -->
<g id="node50" class="node"><title>configuration-modules-core#870</title>
<a xlink:href="https://github.com/quattor/configuration-modules-core/issues/870" xlink:title="ncm-network: hostname is not set in el7" target="_parent">
<ellipse fill="#6cc644" stroke="black" cx="432" cy="-596" rx="118.087" ry="38.1838"/>
<text text-anchor="middle" x="432" y="-600" font-family="Sans" font-size="10.00">issue</text>
<text text-anchor="middle" x="432" y="-587" font-family="Sans" font-size="10.00">configuration-modules-core#870</text>
</a>
</g>
<!-- configuration&#45;modules&#45;core#1087&#45;&gt;configuration&#45;modules&#45;core#870 -->
<g id="edge36" class="edge"><title>configuration-modules-core#1087-&gt;configuration-modules-core#870</title>
<path fill="none" stroke="black" stroke-width="2" d="M204.029,-836.798C216.04,-831.604 227.246,-824.554 236,-815 262.086,-786.527 240.526,-766.189 254,-730 269.409,-688.614 268.417,-671.678 302,-643 310.54,-635.707 320.301,-629.511 330.552,-624.252"/>
<polygon fill="black" stroke="black" points="332.172,-627.357 339.668,-619.869 329.139,-621.048 332.172,-627.357"/>
<text text-anchor="middle" x="273" y="-734" font-family="Sans" font-size="10.00">fixes</text>
</g>
<!-- configuration&#45;modules&#45;core#1109 -->
<g id="node52" class="node"><title>configuration-modules-core#1109</title>
<a xlink:href="https://github.com/quattor/configuration-modules-core/issues/1109" xlink:title="ncm-network: systemd rpm scripts remove HOSTNAME from /etc/sysconfig/network" target="_parent">
<ellipse fill="#6cc644" stroke="black" cx="432" cy="-690" rx="121.122" ry="38.1838"/>
<text text-anchor="middle" x="432" y="-694" font-family="Sans" font-size="10.00">issue</text>
<text text-anchor="middle" x="432" y="-681" font-family="Sans" font-size="10.00">configuration-modules-core#1109</text>
</a>
</g>
<!-- configuration&#45;modules&#45;core#1087&#45;&gt;configuration&#45;modules&#45;core#1109 -->
<g id="edge38" class="edge"><title>configuration-modules-core#1087-&gt;configuration-modules-core#1109</title>
<path fill="none" stroke="black" stroke-width="2" d="M204.113,-831.132C215.305,-826.738 226.251,-821.42 236,-815 273.927,-790.025 264.719,-762.93 302,-737 311.372,-730.482 321.749,-724.763 332.434,-719.772"/>
<polygon fill="black" stroke="black" points="334.169,-722.831 341.886,-715.571 331.326,-716.434 334.169,-722.831"/>
<text text-anchor="middle" x="273" y="-803" font-family="Sans" font-size="10.00">fixes</text>
</g>
<!-- configuration&#45;modules&#45;core#1085 -->
<g id="node54" class="node"><title>configuration-modules-core#1085</title>
<polygon fill="lightgrey" stroke="black" points="518,-272.5 346,-272.5 346,-231.5 518,-231.5 518,-272.5"/>
<text text-anchor="middle" x="432" y="-249.5" font-family="Sans" font-size="10.00">configuration-modules-core#1085</text>
</g>
<!-- configuration&#45;modules&#45;core#1087&#45;&gt;configuration&#45;modules&#45;core#1085 -->
<g id="edge40" class="edge"><title>configuration-modules-core#1087-&gt;configuration-modules-core#1085</title>
<path fill="none" stroke="black" stroke-dasharray="1,5" d="M204.082,-838.37C216.396,-833.004 227.684,-825.49 236,-815 254.884,-791.177 247.626,-571.724 254,-542 264.143,-494.698 281.956,-487.323 292,-440 295.744,-422.359 290.142,-291.588 302,-278 311.133,-267.534 323.186,-260.558 336.273,-256.008"/>
<polygon fill="black" stroke="black" points="345.958,-253.108 337.669,-260.287 341.168,-254.542 336.378,-255.976 336.378,-255.976 336.378,-255.976 341.168,-254.542 335.087,-251.665 345.958,-253.108 345.958,-253.108"/>
<text text-anchor="middle" x="273" y="-546" font-family="Sans" font-size="10.00">replaces</text>
</g>
<!-- configuration&#45;modules&#45;core#1070 -->
<g id="node56" class="node"><title>configuration-modules-core#1070</title>
<polygon fill="lightgrey" stroke="black" points="518,-214.5 346,-214.5 346,-173.5 518,-173.5 518,-214.5"/>
<text text-anchor="middle" x="432" y="-191.5" font-family="Sans" font-size="10.00">configuration-modules-core#1070</text>
</g>
<!-- configuration&#45;modules&#45;core#1087&#45;&gt;configuration&#45;modules&#45;core#1070 -->
<g id="edge42" class="edge"><title>configuration-modules-core#1087-&gt;configuration-modules-core#1070</title>
<path fill="none" stroke="black" stroke-dasharray="1,5" d="M204.051,-838.705C216.45,-833.308 227.774,-825.696 236,-815 269.35,-771.639 240.888,-376.109 254,-323 265.816,-275.138 263.4,-253.667 302,-223 312.099,-214.976 323.97,-209.072 336.36,-204.745"/>
<polygon fill="black" stroke="black" points="345.915,-201.734 337.73,-209.031 341.146,-203.237 336.377,-204.739 336.377,-204.739 336.377,-204.739 341.146,-203.237 335.025,-200.447 345.915,-201.734 345.915,-201.734"/>
<text text-anchor="middle" x="273" y="-327" font-family="Sans" font-size="10.00">replaces</text>
</g>
<!-- configuration&#45;modules&#45;core#1058 -->
<g id="node58" class="node"><title>configuration-modules-core#1058</title>
<a xlink:href="https://github.com/quattor/configuration-modules-core/pull/1058" xlink:title="ncm-ssh: disable insecure ssh ciphersuites and macs" target="_parent">
<polygon fill="#6cc644" stroke="black" points="204,-518 32,-518 32,-464 204,-464 204,-518"/>
<text text-anchor="middle" x="118" y="-495" font-family="Sans" font-size="10.00">pull-request</text>
<text text-anchor="middle" x="118" y="-482" font-family="Sans" font-size="10.00">configuration-modules-core#1058</text>
</a>
</g>
<!-- configuration&#45;modules&#45;core#983 -->
<g id="node60" class="node"><title>configuration-modules-core#983</title>
<polygon fill="lightgrey" stroke="black" points="515,-40.5 349,-40.5 349,0.5 515,0.5 515,-40.5"/>
<text text-anchor="middle" x="432" y="-17.5" font-family="Sans" font-size="10.00">configuration-modules-core#983</text>
</g>
<!-- configuration&#45;modules&#45;core#1058&#45;&gt;configuration&#45;modules&#45;core#983 -->
<g id="edge46" class="edge"><title>configuration-modules-core#1058-&gt;configuration-modules-core#983</title>
<path fill="none" stroke="black" stroke-dasharray="1,5" d="M122.317,-463.937C136.944,-375.781 187.453,-99.3122 254,-43 277.08,-23.4696 308.236,-15.4401 338.03,-12.9989"/>
<polygon fill="black" stroke="black" points="348.069,-12.3768 338.366,-17.4868 343.078,-12.6861 338.088,-12.9955 338.088,-12.9955 338.088,-12.9955 343.078,-12.6861 337.809,-8.50408 348.069,-12.3768 348.069,-12.3768"/>
<text text-anchor="middle" x="273" y="-47" font-family="Sans" font-size="10.00">replaces</text>
</g>
<!-- configuration&#45;modules&#45;core#1171 -->
<g id="node61" class="node"><title>configuration-modules-core#1171</title>
<a xlink:href="https://github.com/quattor/configuration-modules-core/pull/1171" xlink:title="[WIP] ncm-cups enhancements and cleanups" target="_parent">
<polygon fill="#6cc644" stroke="black" points="204,-1903 32,-1903 32,-1849 204,-1849 204,-1903"/>
<text text-anchor="middle" x="118" y="-1880" font-family="Sans" font-size="10.00">pull-request</text>
<text text-anchor="middle" x="118" y="-1867" font-family="Sans" font-size="10.00">configuration-modules-core#1171</text>
</a>
</g>
<!-- configuration&#45;modules&#45;core#1164 -->
<g id="node63" class="node"><title>configuration-modules-core#1164</title>
<a xlink:href="https://github.com/quattor/configuration-modules-core/issues/1164" xlink:title="ncm-cups 17.7.0: configuration of ServerAlias + miscellanous enhancements" target="_parent">
<ellipse fill="#6cc644" stroke="black" cx="432" cy="-1876" rx="121.122" ry="38.1838"/>
<text text-anchor="middle" x="432" y="-1880" font-family="Sans" font-size="10.00">issue</text>
<text text-anchor="middle" x="432" y="-1867" font-family="Sans" font-size="10.00">configuration-modules-core#1164</text>
</a>
</g>
<!-- configuration&#45;modules&#45;core#1171&#45;&gt;configuration&#45;modules&#45;core#1164 -->
<g id="edge48" class="edge"><title>configuration-modules-core#1171-&gt;configuration-modules-core#1164</title>
<path fill="none" stroke="black" stroke-width="2" d="M204.217,-1876C233.916,-1876 267.888,-1876 300.372,-1876"/>
<polygon fill="black" stroke="black" points="300.399,-1879.5 310.399,-1876 300.399,-1872.5 300.399,-1879.5"/>
<text text-anchor="middle" x="273" y="-1880" font-family="Sans" font-size="10.00">fixes</text>
</g>
<!-- configuration&#45;modules&#45;core#1148 -->
<g id="node64" class="node"><title>configuration-modules-core#1148</title>
<a xlink:href="https://github.com/quattor/configuration-modules-core/pull/1148" xlink:title="ncm-spma: Remove support from groups from spma yumng backend" target="_parent">
<polygon fill="#6cc644" stroke="black" points="204,-1997 32,-1997 32,-1943 204,-1943 204,-1997"/>
<text text-anchor="middle" x="118" y="-1974" font-family="Sans" font-size="10.00">pull-request</text>
<text text-anchor="middle" x="118" y="-1961" font-family="Sans" font-size="10.00">configuration-modules-core#1148</text>
</a>
</g>
<!-- configuration&#45;modules&#45;core#952 -->
<g id="node66" class="node"><title>configuration-modules-core#952</title>
<a xlink:href="https://github.com/quattor/configuration-modules-core/issues/952" xlink:title="ncm-spma (yumng): Remove support for package groups" target="_parent">
<ellipse fill="#6cc644" stroke="black" cx="432" cy="-1970" rx="118.087" ry="38.1838"/>
<text text-anchor="middle" x="432" y="-1974" font-family="Sans" font-size="10.00">issue</text>
<text text-anchor="middle" x="432" y="-1961" font-family="Sans" font-size="10.00">configuration-modules-core#952</text>
</a>
</g>
<!-- configuration&#45;modules&#45;core#1148&#45;&gt;configuration&#45;modules&#45;core#952 -->
<g id="edge50" class="edge"><title>configuration-modules-core#1148-&gt;configuration-modules-core#952</title>
<path fill="none" stroke="black" stroke-width="2" d="M204.217,-1970C234.903,-1970 270.151,-1970 303.606,-1970"/>
<polygon fill="black" stroke="black" points="303.924,-1973.5 313.924,-1970 303.924,-1966.5 303.924,-1973.5"/>
<text text-anchor="middle" x="273" y="-1974" font-family="Sans" font-size="10.00">fixes</text>
</g>
<!-- configuration&#45;modules&#45;core#950 -->
<g id="node67" class="node"><title>configuration-modules-core#950</title>
<a xlink:href="https://github.com/quattor/configuration-modules-core/issues/950" xlink:title="ncm-spma: Remove support for package groups from yum backends" target="_parent">
<ellipse fill="#6cc644" stroke="black" cx="118" cy="-2059" rx="118.087" ry="38.1838"/>
<text text-anchor="middle" x="118" y="-2063" font-family="Sans" font-size="10.00">issue</text>
<text text-anchor="middle" x="118" y="-2050" font-family="Sans" font-size="10.00">configuration-modules-core#950</text>
</a>
</g>
<!-- configuration&#45;modules&#45;core#950&#45;&gt;configuration&#45;modules&#45;core#952 -->
<g id="edge54" class="edge"><title>configuration-modules-core#950-&gt;configuration-modules-core#952</title>
<path fill="none" stroke="black" stroke-dasharray="5,2" d="M206.721,-2033.85C246.26,-2022.65 292.974,-2009.41 333.584,-1997.89"/>
<polygon fill="none" stroke="black" points="334.56,-2001.26 343.226,-1995.16 332.651,-1994.52 334.56,-2001.26"/>
<text text-anchor="middle" x="273" y="-2023" font-family="Sans" font-size="10.00">requires</text>
</g>
<!-- configuration&#45;modules&#45;core#951 -->
<g id="node69" class="node"><title>configuration-modules-core#951</title>
<a xlink:href="https://github.com/quattor/configuration-modules-core/issues/951" xlink:title="ncm-spma (yum): Remove support for package groups" target="_parent">
<ellipse fill="#6cc644" stroke="black" cx="432" cy="-2064" rx="118.087" ry="38.1838"/>
<text text-anchor="middle" x="432" y="-2068" font-family="Sans" font-size="10.00">issue</text>
<text text-anchor="middle" x="432" y="-2055" font-family="Sans" font-size="10.00">configuration-modules-core#951</text>
</a>
</g>
<!-- configuration&#45;modules&#45;core#950&#45;&gt;configuration&#45;modules&#45;core#951 -->
<g id="edge52" class="edge"><title>configuration-modules-core#950-&gt;configuration-modules-core#951</title>
<path fill="none" stroke="black" stroke-dasharray="5,2" d="M236.263,-2060.88C258.348,-2061.23 281.525,-2061.6 303.892,-2061.96"/>
<polygon fill="none" stroke="black" points="304.05,-2065.46 314.105,-2062.12 304.162,-2058.46 304.05,-2065.46"/>
<text text-anchor="middle" x="273" y="-2065" font-family="Sans" font-size="10.00">requires</text>
</g>
</g>
</svg>
