<?xml version="1.0" encoding="UTF-8" standalone="no"?>
<!-- Generated by graphviz version 2.26.0 (20091210.2329)
 -->
<!-- Title: Dependencies Pages: 1 -->
<svg xmlns="http://www.w3.org/2000/svg" xmlns:xlink="http://www.w3.org/1999/xlink" width="1118pt" height="2474pt" viewBox="0.00 0.00 1118.00 2474.00">
<g id="graph1" class="graph" transform="scale(1 1) rotate(0) translate(4 2470)">
<title>Dependencies</title>
<polygon fill="white" stroke="white" points="-4,5 -4,-2470 1115,-2470 1115,5 -4,5"/>
<g id="graph2" class="cluster"><title>cluster_17.2</title>
<polygon fill="none" stroke="black" points="86,-2342 86,-2458 492,-2458 492,-2342 86,-2342"/>
<text text-anchor="middle" x="289" y="-2443.2" font-family="Sans" font-size="12.00">17.2</text>
</g>
<g id="graph3" class="cluster"><title>cluster_16.12</title>
<polygon fill="none" stroke="black" points="8,-166 8,-2334 1102,-2334 1102,-166 8,-166"/>
<text text-anchor="middle" x="555" y="-2319.2" font-family="Sans" font-size="12.00">16.12</text>
</g>
<!-- aii#226 -->
<g id="node1" class="node"><title>aii#226</title>
<a xlink:href="https://github.com/quattor/aii/pull/226" xlink:title="aii-opennebula: Include ONE labels support" target="_parent">
<polygon fill="#6e5494" stroke="black" points="173,-2197 95,-2197 95,-2143 173,-2143 173,-2197"/>
<text text-anchor="middle" x="134" y="-2174" font-family="Sans" font-size="10.00">pull-request</text>
<text text-anchor="middle" x="134" y="-2161" font-family="Sans" font-size="10.00">aii#226</text>
</a>
</g>
<!-- aii#223 -->
<g id="node3" class="node"><title>aii#223</title>
<a xlink:href="https://github.com/quattor/aii/issues/223" xlink:title="aii opennebula handle missing template" target="_parent">
<ellipse fill="#bd2c00" stroke="black" cx="442" cy="-2170" rx="41.2167" ry="38.1838"/>
<text text-anchor="middle" x="442" y="-2174" font-family="Sans" font-size="10.00">issue</text>
<text text-anchor="middle" x="442" y="-2161" font-family="Sans" font-size="10.00">aii#223</text>
</a>
</g>
<!-- aii#226&#45;&gt;aii#223 -->
<g id="edge2" class="edge"><title>aii#226-&gt;aii#223</title>
<path fill="none" stroke="black" d="M173.635,-2170C228.773,-2170 328.72,-2170 389.851,-2170"/>
<polygon fill="black" stroke="black" points="390.055,-2173.5 400.055,-2170 390.055,-2166.5 390.055,-2173.5"/>
<text text-anchor="middle" x="288" y="-2174" font-family="Sans" font-size="10.00">fix</text>
</g>
<!-- aii#224 -->
<g id="node5" class="node"><title>aii#224</title>
<a xlink:href="https://github.com/quattor/aii/issues/224" xlink:title="aii-opennebula: Include labels feature" target="_parent">
<ellipse fill="#bd2c00" stroke="black" cx="442" cy="-2264" rx="41.2167" ry="38.1838"/>
<text text-anchor="middle" x="442" y="-2268" font-family="Sans" font-size="10.00">issue</text>
<text text-anchor="middle" x="442" y="-2255" font-family="Sans" font-size="10.00">aii#224</text>
</a>
</g>
<!-- aii#226&#45;&gt;aii#224 -->
<g id="edge4" class="edge"><title>aii#226-&gt;aii#224</title>
<path fill="none" stroke="black" d="M173.635,-2182.1C229.656,-2199.19 331.935,-2230.41 392.759,-2248.97"/>
<polygon fill="black" stroke="black" points="391.931,-2252.38 402.517,-2251.95 393.974,-2245.68 391.931,-2252.38"/>
<text text-anchor="middle" x="288" y="-2224" font-family="Sans" font-size="10.00">fix</text>
</g>
<!-- aii#228 -->
<g id="node7" class="node"><title>aii#228</title>
<a xlink:href="https://github.com/quattor/aii/issues/228" xlink:title="aii-opennebula: Include random passwords for SPICE/VNC connections" target="_parent">
<ellipse fill="#bd2c00" stroke="black" cx="442" cy="-2076" rx="41.2167" ry="38.1838"/>
<text text-anchor="middle" x="442" y="-2080" font-family="Sans" font-size="10.00">issue</text>
<text text-anchor="middle" x="442" y="-2067" font-family="Sans" font-size="10.00">aii#228</text>
</a>
</g>
<!-- aii#226&#45;&gt;aii#228 -->
<g id="edge6" class="edge"><title>aii#226-&gt;aii#228</title>
<path fill="none" stroke="black" d="M173.635,-2157.9C229.656,-2140.81 331.935,-2109.59 392.759,-2091.03"/>
<polygon fill="black" stroke="black" points="393.974,-2094.32 402.517,-2088.05 391.931,-2087.62 393.974,-2094.32"/>
<text text-anchor="middle" x="288" y="-2130" font-family="Sans" font-size="10.00">fix</text>
</g>
<!-- aii#225 -->
<g id="node8" class="node"><title>aii#225</title>
<a xlink:href="https://github.com/quattor/aii/pull/225" xlink:title="[WIP] Add UEFI support through Grub-based PXE loader" target="_parent">
<polygon fill="#6cc644" stroke="black" points="173,-2415 95,-2415 95,-2361 173,-2361 173,-2415"/>
<text text-anchor="middle" x="134" y="-2392" font-family="Sans" font-size="10.00">pull-request</text>
<text text-anchor="middle" x="134" y="-2379" font-family="Sans" font-size="10.00">aii#225</text>
</a>
</g>
<!-- aii#216 -->
<g id="node10" class="node"><title>aii#216</title>
<a xlink:href="https://github.com/quattor/aii/issues/216" xlink:title="aii-pxelinux: add support for Grub-based UEFI PXE boot loader" target="_parent">
<ellipse fill="#6cc644" stroke="black" cx="442" cy="-2388" rx="41.2167" ry="38.1838"/>
<text text-anchor="middle" x="442" y="-2392" font-family="Sans" font-size="10.00">issue</text>
<text text-anchor="middle" x="442" y="-2379" font-family="Sans" font-size="10.00">aii#216</text>
</a>
</g>
<!-- aii#225&#45;&gt;aii#216 -->
<g id="edge8" class="edge"><title>aii#225-&gt;aii#216</title>
<path fill="none" stroke="black" d="M173.635,-2388C228.773,-2388 328.72,-2388 389.851,-2388"/>
<polygon fill="black" stroke="black" points="390.055,-2391.5 400.055,-2388 390.055,-2384.5 390.055,-2391.5"/>
<text text-anchor="middle" x="288" y="-2392" font-family="Sans" font-size="10.00">fixes</text>
</g>
<!-- aii#210 -->
<g id="node11" class="node"><title>aii#210</title>
<a xlink:href="https://github.com/quattor/aii/pull/210" xlink:title="Shellfe: support active config for plugins" target="_parent">
<polygon fill="#6cc644" stroke="black" points="173,-1937 95,-1937 95,-1883 173,-1883 173,-1937"/>
<text text-anchor="middle" x="134" y="-1914" font-family="Sans" font-size="10.00">pull-request</text>
<text text-anchor="middle" x="134" y="-1901" font-family="Sans" font-size="10.00">aii#210</text>
</a>
</g>
<!-- aii#209 -->
<g id="node13" class="node"><title>aii#209</title>
<a xlink:href="https://github.com/quattor/aii/issues/209" xlink:title="support ACTIVE_CONFIG" target="_parent">
<ellipse fill="#6cc644" stroke="black" cx="442" cy="-1910" rx="41.2167" ry="38.1838"/>
<text text-anchor="middle" x="442" y="-1914" font-family="Sans" font-size="10.00">issue</text>
<text text-anchor="middle" x="442" y="-1901" font-family="Sans" font-size="10.00">aii#209</text>
</a>
</g>
<!-- aii#210&#45;&gt;aii#209 -->
<g id="edge10" class="edge"><title>aii#210-&gt;aii#209</title>
<path fill="none" stroke="black" d="M173.635,-1910C228.773,-1910 328.72,-1910 389.851,-1910"/>
<polygon fill="black" stroke="black" points="390.055,-1913.5 400.055,-1910 390.055,-1906.5 390.055,-1913.5"/>
<text text-anchor="middle" x="288" y="-1914" font-family="Sans" font-size="10.00">fixes</text>
</g>
<!-- ncm&#45;ncd#74 -->
<g id="node15" class="node"><title>ncm-ncd#74</title>
<a xlink:href="https://github.com/quattor/ncm-ncd/pull/74" xlink:title="Set the current active config as an attribute to the component" target="_parent">
<polygon fill="#6cc644" stroke="black" points="483,-2020 401,-2020 401,-1966 483,-1966 483,-2020"/>
<text text-anchor="middle" x="442" y="-1997" font-family="Sans" font-size="10.00">pull-request</text>
<text text-anchor="middle" x="442" y="-1984" font-family="Sans" font-size="10.00">ncm-ncd#74</text>
</a>
</g>
<!-- aii#210&#45;&gt;ncm&#45;ncd#74 -->
<g id="edge12" class="edge"><title>aii#210-&gt;ncm-ncd#74</title>
<path fill="none" stroke="black" d="M173.635,-1920.68C229.041,-1935.61 329.692,-1962.74 390.739,-1979.19"/>
<polygon fill="none" stroke="black" points="389.985,-1982.61 400.552,-1981.83 391.807,-1975.85 389.985,-1982.61"/>
<text text-anchor="middle" x="288" y="-1958" font-family="Sans" font-size="10.00">requires</text>
</g>
<!-- aii#203 -->
<g id="node17" class="node"><title>aii#203</title>
<polygon fill="lightgrey" stroke="black" points="471,-156.5 413,-156.5 413,-115.5 471,-115.5 471,-156.5"/>
<text text-anchor="middle" x="442" y="-133.5" font-family="Sans" font-size="10.00">aii#203</text>
</g>
<!-- aii#210&#45;&gt;aii#203 -->
<g id="edge14" class="edge"><title>aii#210-&gt;aii#203</title>
<path fill="none" stroke="black" d="M173.745,-1887.47C201.301,-1869.39 235.84,-1841.25 252,-1806 288.631,-1726.1 238.712,-306.137 270,-224 283.008,-189.852 292.575,-180.648 324,-162 347.729,-147.919 378.226,-141.444 402.271,-138.476"/>
<polygon fill="none" stroke="black" points="402.912,-141.927 412.479,-137.376 402.162,-134.967 402.912,-141.927"/>
<text text-anchor="middle" x="288" y="-228" font-family="Sans" font-size="10.00">requires</text>
</g>
<!-- CAF#202 -->
<g id="node18" class="node"><title>CAF#202</title>
<a xlink:href="https://github.com/quattor/CAF/pull/202" xlink:title="FileWriter: use atomic write" target="_parent">
<polygon fill="#6cc644" stroke="black" points="173,-1797 95,-1797 95,-1743 173,-1743 173,-1797"/>
<text text-anchor="middle" x="134" y="-1774" font-family="Sans" font-size="10.00">pull-request</text>
<text text-anchor="middle" x="134" y="-1761" font-family="Sans" font-size="10.00">CAF#202</text>
</a>
</g>
<!-- CAF#148 -->
<g id="node20" class="node"><title>CAF#148</title>
<a xlink:href="https://github.com/quattor/CAF/issues/148" xlink:title="CAF::FileWriter updates files in-place" target="_parent">
<ellipse fill="#6cc644" stroke="black" cx="442" cy="-1722" rx="48.9975" ry="38.1838"/>
<text text-anchor="middle" x="442" y="-1726" font-family="Sans" font-size="10.00">issue</text>
<text text-anchor="middle" x="442" y="-1713" font-family="Sans" font-size="10.00">CAF#148</text>
</a>
</g>
<!-- CAF#202&#45;&gt;CAF#148 -->
<g id="edge16" class="edge"><title>CAF#202-&gt;CAF#148</title>
<path fill="none" stroke="black" d="M173.635,-1763.82C226.886,-1755.52 321.932,-1740.71 383.442,-1731.13"/>
<polygon fill="black" stroke="black" points="384.049,-1734.57 393.39,-1729.58 382.971,-1727.66 384.049,-1734.57"/>
<text text-anchor="middle" x="288" y="-1752" font-family="Sans" font-size="10.00">fixes</text>
</g>
<!-- CAF#189 -->
<g id="node22" class="node"><title>CAF#189</title>
<a xlink:href="https://github.com/quattor/CAF/issues/189" xlink:title="FileWriter: add diff to history" target="_parent">
<ellipse fill="#6cc644" stroke="black" cx="442" cy="-1816" rx="48.9975" ry="38.1838"/>
<text text-anchor="middle" x="442" y="-1820" font-family="Sans" font-size="10.00">issue</text>
<text text-anchor="middle" x="442" y="-1807" font-family="Sans" font-size="10.00">CAF#189</text>
</a>
</g>
<!-- CAF#202&#45;&gt;CAF#189 -->
<g id="edge18" class="edge"><title>CAF#202-&gt;CAF#189</title>
<path fill="none" stroke="black" d="M173.635,-1775.92C226.886,-1783.87 321.932,-1798.07 383.442,-1807.25"/>
<polygon fill="black" stroke="black" points="382.983,-1810.72 393.39,-1808.74 384.017,-1803.8 382.983,-1810.72"/>
<text text-anchor="middle" x="288" y="-1799" font-family="Sans" font-size="10.00">fixes</text>
</g>
<!-- CAF#199 -->
<g id="node23" class="node"><title>CAF#199</title>
<a xlink:href="https://github.com/quattor/CAF/pull/199" xlink:title="Remove add_files to track files" target="_parent">
<polygon fill="#6e5494" stroke="black" points="173,-1614 95,-1614 95,-1560 173,-1560 173,-1614"/>
<text text-anchor="middle" x="134" y="-1591" font-family="Sans" font-size="10.00">pull-request</text>
<text text-anchor="middle" x="134" y="-1578" font-family="Sans" font-size="10.00">CAF#199</text>
</a>
</g>
<!-- ncm&#45;ncd#96 -->
<g id="node25" class="node"><title>ncm-ncd#96</title>
<a xlink:href="https://github.com/quattor/ncm-ncd/pull/96" xlink:title="Remove support for add_files / get_files and FILES attribute" target="_parent">
<polygon fill="#6e5494" stroke="black" points="483,-1572 401,-1572 401,-1518 483,-1518 483,-1572"/>
<text text-anchor="middle" x="442" y="-1549" font-family="Sans" font-size="10.00">pull-request</text>
<text text-anchor="middle" x="442" y="-1536" font-family="Sans" font-size="10.00">ncm-ncd#96</text>
</a>
</g>
<!-- CAF#199&#45;&gt;ncm&#45;ncd#96 -->
<g id="edge20" class="edge"><title>CAF#199-&gt;ncm-ncd#96</title>
<path fill="none" stroke="black" d="M173.635,-1581.6C228.926,-1574.06 329.277,-1560.37 390.361,-1552.04"/>
<polygon fill="none" stroke="black" points="391.116,-1555.47 400.552,-1550.65 390.171,-1548.54 391.116,-1555.47"/>
<text text-anchor="middle" x="288" y="-1572" font-family="Sans" font-size="10.00">requires</text>
</g>
<!-- CAF#153 -->
<g id="node27" class="node"><title>CAF#153</title>
<a xlink:href="https://github.com/quattor/CAF/issues/153" xlink:title="remove add_files" target="_parent">
<ellipse fill="#bd2c00" stroke="black" cx="442" cy="-1628" rx="48.9975" ry="38.1838"/>
<text text-anchor="middle" x="442" y="-1632" font-family="Sans" font-size="10.00">issue</text>
<text text-anchor="middle" x="442" y="-1619" font-family="Sans" font-size="10.00">CAF#153</text>
</a>
</g>
<!-- CAF#199&#45;&gt;CAF#153 -->
<g id="edge22" class="edge"><title>CAF#199-&gt;CAF#153</title>
<path fill="none" stroke="black" d="M173.635,-1592.28C226.809,-1599.35 321.658,-1611.98 383.175,-1620.17"/>
<polygon fill="black" stroke="black" points="382.752,-1623.64 393.127,-1621.49 383.676,-1616.71 382.752,-1623.64"/>
<text text-anchor="middle" x="288" y="-1613" font-family="Sans" font-size="10.00">fixes</text>
</g>
<!-- CAF#98 -->
<g id="node28" class="node"><title>CAF#98</title>
<a xlink:href="https://github.com/quattor/CAF/pull/98" xlink:title="FileWriter: disable chatty LC::Check by default unless NoAction" target="_parent">
<polygon fill="#6cc644" stroke="black" points="173,-228 95,-228 95,-174 173,-174 173,-228"/>
<text text-anchor="middle" x="134" y="-205" font-family="Sans" font-size="10.00">pull-request</text>
<text text-anchor="middle" x="134" y="-192" font-family="Sans" font-size="10.00">CAF#98</text>
</a>
</g>
<!-- ncm&#45;ncd#88 -->
<g id="node30" class="node"><title>ncm-ncd#88</title>
<polygon fill="lightgrey" stroke="black" points="483,-98.5 401,-98.5 401,-57.5 483,-57.5 483,-98.5"/>
<text text-anchor="middle" x="442" y="-75.5" font-family="Sans" font-size="10.00">ncm-ncd#88</text>
</g>
<!-- CAF#98&#45;&gt;ncm&#45;ncd#88 -->
<g id="edge24" class="edge"><title>CAF#98-&gt;ncm-ncd#88</title>
<path fill="none" stroke="black" d="M161.884,-173.839C187.696,-150.431 228.281,-117.831 270,-101 308.652,-85.406 355.759,-79.9493 390.895,-78.2274"/>
<polygon fill="none" stroke="black" points="391.08,-81.7229 400.93,-77.8205 390.797,-74.7286 391.08,-81.7229"/>
<text text-anchor="middle" x="288" y="-105" font-family="Sans" font-size="10.00">requires</text>
</g>
<!-- ncm&#45;cdispd#42 -->
<g id="node32" class="node"><title>ncm-cdispd#42</title>
<polygon fill="lightgrey" stroke="black" points="489,-40.5 395,-40.5 395,0.5 489,0.5 489,-40.5"/>
<text text-anchor="middle" x="442" y="-17.5" font-family="Sans" font-size="10.00">ncm-cdispd#42</text>
</g>
<!-- CAF#98&#45;&gt;ncm&#45;cdispd#42 -->
<g id="edge26" class="edge"><title>CAF#98-&gt;ncm-cdispd#42</title>
<path fill="none" stroke="black" d="M158.22,-173.768C183.919,-146.05 226.717,-103.13 270,-74 291.941,-59.2334 299.043,-57.7521 324,-49 343.325,-42.2229 364.963,-36.4154 384.379,-31.8168"/>
<polygon fill="none" stroke="black" points="385.351,-35.1846 394.306,-29.5235 383.775,-28.3642 385.351,-35.1846"/>
<text text-anchor="middle" x="288" y="-78" font-family="Sans" font-size="10.00">requires</text>
</g>
<!-- CCM#153 -->
<g id="node33" class="node"><title>CCM#153</title>
<a xlink:href="https://github.com/quattor/CCM/pull/153" xlink:title="TextRender: cast_double and cast_long fail on non-numeric argument" target="_parent">
<polygon fill="#6cc644" stroke="black" points="173,-1489 95,-1489 95,-1435 173,-1435 173,-1489"/>
<text text-anchor="middle" x="134" y="-1466" font-family="Sans" font-size="10.00">pull-request</text>
<text text-anchor="middle" x="134" y="-1453" font-family="Sans" font-size="10.00">CCM#153</text>
</a>
</g>
<!-- CCM#95 -->
<g id="node35" class="node"><title>CCM#95</title>
<a xlink:href="https://github.com/quattor/CCM/issues/95" xlink:title="TextRender: cast_double and friends do not fail on impossible conversion" target="_parent">
<ellipse fill="#6cc644" stroke="black" cx="442" cy="-1462" rx="48.0833" ry="38.1838"/>
<text text-anchor="middle" x="442" y="-1466" font-family="Sans" font-size="10.00">issue</text>
<text text-anchor="middle" x="442" y="-1453" font-family="Sans" font-size="10.00">CCM#95</text>
</a>
</g>
<!-- CCM#153&#45;&gt;CCM#95 -->
<g id="edge28" class="edge"><title>CCM#153-&gt;CCM#95</title>
<path fill="none" stroke="black" d="M173.635,-1462C226.93,-1462 322.089,-1462 383.594,-1462"/>
<polygon fill="black" stroke="black" points="383.916,-1465.5 393.916,-1462 383.916,-1458.5 383.916,-1465.5"/>
<text text-anchor="middle" x="288" y="-1466" font-family="Sans" font-size="10.00">fixes</text>
</g>
<!-- CCM#152 -->
<g id="node36" class="node"><title>CCM#152</title>
<a xlink:href="https://github.com/quattor/CCM/pull/152" xlink:title="Remove unused syncfile" target="_parent">
<polygon fill="#6cc644" stroke="black" points="173,-1353 95,-1353 95,-1299 173,-1299 173,-1353"/>
<text text-anchor="middle" x="134" y="-1330" font-family="Sans" font-size="10.00">pull-request</text>
<text text-anchor="middle" x="134" y="-1317" font-family="Sans" font-size="10.00">CCM#152</text>
</a>
</g>
<!-- CCM#143 -->
<g id="node38" class="node"><title>CCM#143</title>
<a xlink:href="https://github.com/quattor/CCM/issues/143" xlink:title="Remove SyncFile" target="_parent">
<ellipse fill="#6cc644" stroke="black" cx="442" cy="-1296" rx="51.1176" ry="38.1838"/>
<text text-anchor="middle" x="442" y="-1300" font-family="Sans" font-size="10.00">issue</text>
<text text-anchor="middle" x="442" y="-1287" font-family="Sans" font-size="10.00">CCM#143</text>
</a>
</g>
<!-- CCM#152&#45;&gt;CCM#143 -->
<g id="edge30" class="edge"><title>CCM#152-&gt;CCM#143</title>
<path fill="none" stroke="black" d="M173.635,-1322.14C226.117,-1317.03 319.194,-1307.96 380.755,-1301.97"/>
<polygon fill="black" stroke="black" points="381.117,-1305.45 390.731,-1300.99 380.439,-1298.48 381.117,-1305.45"/>
<text text-anchor="middle" x="288" y="-1316" font-family="Sans" font-size="10.00">fixes</text>
</g>
<!-- CCM#150 -->
<g id="node40" class="node"><title>CCM#150</title>
<a xlink:href="https://github.com/quattor/CCM/pull/150" xlink:title="Remove Property class" target="_parent">
<polygon fill="#6cc644" stroke="black" points="481,-1406 403,-1406 403,-1352 481,-1352 481,-1406"/>
<text text-anchor="middle" x="442" y="-1383" font-family="Sans" font-size="10.00">pull-request</text>
<text text-anchor="middle" x="442" y="-1370" font-family="Sans" font-size="10.00">CCM#150</text>
</a>
</g>
<!-- CCM#152&#45;&gt;CCM#150 -->
<g id="edge32" class="edge"><title>CCM#152-&gt;CCM#150</title>
<path fill="none" stroke="black" d="M173.635,-1332.82C229.387,-1342.41 330.953,-1359.89 391.88,-1370.38"/>
<polygon fill="none" stroke="black" points="391.58,-1373.88 402.029,-1372.12 392.768,-1366.98 391.58,-1373.88"/>
<text text-anchor="middle" x="288" y="-1359" font-family="Sans" font-size="10.00">requires</text>
</g>
<!-- CCM#107 -->
<g id="node45" class="node"><title>CCM#107</title>
<a xlink:href="https://github.com/quattor/CCM/issues/107" xlink:title="remove CCM::Property class" target="_parent">
<ellipse fill="#6cc644" stroke="black" cx="716" cy="-1379" rx="51.1176" ry="38.1838"/>
<text text-anchor="middle" x="716" y="-1383" font-family="Sans" font-size="10.00">issue</text>
<text text-anchor="middle" x="716" y="-1370" font-family="Sans" font-size="10.00">CCM#107</text>
</a>
</g>
<!-- CCM#150&#45;&gt;CCM#107 -->
<g id="edge36" class="edge"><title>CCM#150-&gt;CCM#107</title>
<path fill="none" stroke="black" d="M481.549,-1379C526.704,-1379 601.144,-1379 654.023,-1379"/>
<polygon fill="black" stroke="black" points="654.296,-1382.5 664.296,-1379 654.296,-1375.5 654.296,-1382.5"/>
<text text-anchor="middle" x="596" y="-1383" font-family="Sans" font-size="10.00">fixes</text>
</g>
<!-- configuration&#45;modules&#45;core#972 -->
<g id="node47" class="node"><title>configuration-modules-core#972</title>
<a xlink:href="https://github.com/quattor/configuration-modules-core/pull/972" xlink:title="Round of cleanup to prepare for removal of CCM::Property module" target="_parent">
<polygon fill="#6cc644" stroke="black" points="799,-1489 633,-1489 633,-1435 799,-1435 799,-1489"/>
<text text-anchor="middle" x="716" y="-1466" font-family="Sans" font-size="10.00">pull-request</text>
<text text-anchor="middle" x="716" y="-1453" font-family="Sans" font-size="10.00">configuration-modules-core#972</text>
</a>
</g>
<!-- CCM#150&#45;&gt;configuration&#45;modules&#45;core#972 -->
<g id="edge38" class="edge"><title>CCM#150-&gt;configuration-modules-core#972</title>
<path fill="none" stroke="black" d="M481.549,-1390.98C518.291,-1402.11 574.422,-1419.11 622.55,-1433.69"/>
<polygon fill="none" stroke="black" points="621.789,-1437.12 632.374,-1436.67 623.818,-1430.42 621.789,-1437.12"/>
<text text-anchor="middle" x="596" y="-1435" font-family="Sans" font-size="10.00">requires</text>
</g>
<!-- aii#232 -->
<g id="node49" class="node"><title>aii#232</title>
<a xlink:href="https://github.com/quattor/aii/pull/232" xlink:title="Round of cleanup to prepare for removal of CCM::Property module" target="_parent">
<polygon fill="#6e5494" stroke="black" points="755,-1323 677,-1323 677,-1269 755,-1269 755,-1323"/>
<text text-anchor="middle" x="716" y="-1300" font-family="Sans" font-size="10.00">pull-request</text>
<text text-anchor="middle" x="716" y="-1287" font-family="Sans" font-size="10.00">aii#232</text>
</a>
</g>
<!-- CCM#150&#45;&gt;aii#232 -->
<g id="edge40" class="edge"><title>CCM#150-&gt;aii#232</title>
<path fill="none" stroke="black" d="M481.549,-1367.02C530.418,-1352.22 613.587,-1327.02 666.605,-1310.96"/>
<polygon fill="none" stroke="black" points="667.907,-1314.23 676.463,-1307.98 665.877,-1307.53 667.907,-1314.23"/>
<text text-anchor="middle" x="596" y="-1342" font-family="Sans" font-size="10.00">requires</text>
</g>
<!-- CCM#151 -->
<g id="node41" class="node"><title>CCM#151</title>
<a xlink:href="https://github.com/quattor/CCM/pull/151" xlink:title="Path: add /software/components/download/files/ to safe unescape paths" target="_parent">
<polygon fill="#6cc644" stroke="black" points="173,-1229 95,-1229 95,-1175 173,-1175 173,-1229"/>
<text text-anchor="middle" x="134" y="-1206" font-family="Sans" font-size="10.00">pull-request</text>
<text text-anchor="middle" x="134" y="-1193" font-family="Sans" font-size="10.00">CCM#151</text>
</a>
</g>
<!-- CCM#149 -->
<g id="node43" class="node"><title>CCM#149</title>
<a xlink:href="https://github.com/quattor/CCM/issues/149" xlink:title="Add ncm-download files to safe unescape paths" target="_parent">
<ellipse fill="#6cc644" stroke="black" cx="442" cy="-1202" rx="51.1176" ry="38.1838"/>
<text text-anchor="middle" x="442" y="-1206" font-family="Sans" font-size="10.00">issue</text>
<text text-anchor="middle" x="442" y="-1193" font-family="Sans" font-size="10.00">CCM#149</text>
</a>
</g>
<!-- CCM#151&#45;&gt;CCM#149 -->
<g id="edge34" class="edge"><title>CCM#151-&gt;CCM#149</title>
<path fill="none" stroke="black" d="M173.635,-1202C225.932,-1202 318.538,-1202 380.103,-1202"/>
<polygon fill="black" stroke="black" points="380.462,-1205.5 390.462,-1202 380.462,-1198.5 380.462,-1205.5"/>
<text text-anchor="middle" x="288" y="-1206" font-family="Sans" font-size="10.00">fixes</text>
</g>
<!-- configuration&#45;modules&#45;core#973 -->
<g id="node57" class="node"><title>configuration-modules-core#973</title>
<a xlink:href="https://github.com/quattor/configuration-modules-core/issues/973" xlink:title="ncm-interactivelimits: bugs in comment and missing trailing newline" target="_parent">
<ellipse fill="#6cc644" stroke="black" cx="976" cy="-1462" rx="118.087" ry="38.1838"/>
<text text-anchor="middle" x="976" y="-1466" font-family="Sans" font-size="10.00">issue</text>
<text text-anchor="middle" x="976" y="-1453" font-family="Sans" font-size="10.00">configuration-modules-core#973</text>
</a>
</g>
<!-- configuration&#45;modules&#45;core#972&#45;&gt;configuration&#45;modules&#45;core#973 -->
<g id="edge46" class="edge"><title>configuration-modules-core#972-&gt;configuration-modules-core#973</title>
<path fill="none" stroke="black" d="M799.697,-1462C815.064,-1462 831.423,-1462 847.747,-1462"/>
<polygon fill="black" stroke="black" points="847.896,-1465.5 857.896,-1462 847.896,-1458.5 847.896,-1465.5"/>
<text text-anchor="middle" x="829" y="-1466" font-family="Sans" font-size="10.00">fixes</text>
</g>
<!-- cdp&#45;listend#16 -->
<g id="node50" class="node"><title>cdp-listend#16</title>
<a xlink:href="https://github.com/quattor/cdp-listend/pull/16" xlink:title="Add hostname configuration option to choose the hostname/IP to listen on" target="_parent">
<polygon fill="#6cc644" stroke="black" points="488,-510 396,-510 396,-456 488,-456 488,-510"/>
<text text-anchor="middle" x="442" y="-487" font-family="Sans" font-size="10.00">pull-request</text>
<text text-anchor="middle" x="442" y="-474" font-family="Sans" font-size="10.00">cdp-listend#16</text>
</a>
</g>
<!-- cdp&#45;listend#15 -->
<g id="node52" class="node"><title>cdp-listend#15</title>
<a xlink:href="https://github.com/quattor/cdp-listend/issues/15" xlink:title="Issue with binding on a specific IP" target="_parent">
<ellipse fill="#6cc644" stroke="black" cx="716" cy="-483" rx="65.0538" ry="38.1838"/>
<text text-anchor="middle" x="716" y="-487" font-family="Sans" font-size="10.00">issue</text>
<text text-anchor="middle" x="716" y="-474" font-family="Sans" font-size="10.00">cdp-listend#15</text>
</a>
</g>
<!-- cdp&#45;listend#16&#45;&gt;cdp&#45;listend#15 -->
<g id="edge42" class="edge"><title>cdp-listend#16-&gt;cdp-listend#15</title>
<path fill="none" stroke="black" d="M488.171,-483C529.819,-483 591.85,-483 640.674,-483"/>
<polygon fill="black" stroke="black" points="640.88,-486.5 650.88,-483 640.88,-479.5 640.88,-486.5"/>
<text text-anchor="middle" x="596" y="-487" font-family="Sans" font-size="10.00">fixes</text>
</g>
<!-- configuration&#45;modules&#45;core#976 -->
<g id="node53" class="node"><title>configuration-modules-core#976</title>
<a xlink:href="https://github.com/quattor/configuration-modules-core/pull/976" xlink:title="ncm-download: download to temporary file." target="_parent">
<polygon fill="#6cc644" stroke="black" points="217,-1135 51,-1135 51,-1081 217,-1081 217,-1135"/>
<text text-anchor="middle" x="134" y="-1112" font-family="Sans" font-size="10.00">pull-request</text>
<text text-anchor="middle" x="134" y="-1099" font-family="Sans" font-size="10.00">configuration-modules-core#976</text>
</a>
</g>
<!-- configuration&#45;modules&#45;core#975 -->
<g id="node55" class="node"><title>configuration-modules-core#975</title>
<a xlink:href="https://github.com/quattor/configuration-modules-core/issues/975" xlink:title="ncm-download: can leave partial files" target="_parent">
<ellipse fill="#6cc644" stroke="black" cx="442" cy="-1108" rx="118.087" ry="38.1838"/>
<text text-anchor="middle" x="442" y="-1112" font-family="Sans" font-size="10.00">issue</text>
<text text-anchor="middle" x="442" y="-1099" font-family="Sans" font-size="10.00">configuration-modules-core#975</text>
</a>
</g>
<!-- configuration&#45;modules&#45;core#976&#45;&gt;configuration&#45;modules&#45;core#975 -->
<g id="edge44" class="edge"><title>configuration-modules-core#976-&gt;configuration-modules-core#975</title>
<path fill="none" stroke="black" d="M217.756,-1108C247.379,-1108 281.415,-1108 313.873,-1108"/>
<polygon fill="black" stroke="black" points="313.889,-1111.5 323.889,-1108 313.889,-1104.5 313.889,-1111.5"/>
<text text-anchor="middle" x="288" y="-1112" font-family="Sans" font-size="10.00">fixes</text>
</g>
<!-- configuration&#45;modules&#45;core#967 -->
<g id="node58" class="node"><title>configuration-modules-core#967</title>
<a xlink:href="https://github.com/quattor/configuration-modules-core/pull/967" xlink:title="ncm-opennebula: Include OpenNebula labels support" target="_parent">
<polygon fill="#6e5494" stroke="black" points="217,-971 51,-971 51,-917 217,-917 217,-971"/>
<text text-anchor="middle" x="134" y="-948" font-family="Sans" font-size="10.00">pull-request</text>
<text text-anchor="middle" x="134" y="-935" font-family="Sans" font-size="10.00">configuration-modules-core#967</text>
</a>
</g>
<!-- configuration&#45;modules&#45;core#959 -->
<g id="node60" class="node"><title>configuration-modules-core#959</title>
<a xlink:href="https://github.com/quattor/configuration-modules-core/issues/959" xlink:title="ncm-opennebula: Include Labels support" target="_parent">
<ellipse fill="#bd2c00" stroke="black" cx="442" cy="-920" rx="118.087" ry="38.1838"/>
<text text-anchor="middle" x="442" y="-924" font-family="Sans" font-size="10.00">issue</text>
<text text-anchor="middle" x="442" y="-911" font-family="Sans" font-size="10.00">configuration-modules-core#959</text>
</a>
</g>
<!-- configuration&#45;modules&#45;core#967&#45;&gt;configuration&#45;modules&#45;core#959 -->
<g id="edge48" class="edge"><title>configuration-modules-core#967-&gt;configuration-modules-core#959</title>
<path fill="none" stroke="black" d="M217.756,-937.474C248.267,-935.096 283.46,-932.354 316.787,-929.757"/>
<polygon fill="black" stroke="black" points="317.365,-933.222 327.063,-928.956 316.822,-926.244 317.365,-933.222"/>
<text text-anchor="middle" x="288" y="-937" font-family="Sans" font-size="10.00">fix</text>
</g>
<!-- configuration&#45;modules&#45;core#966 -->
<g id="node62" class="node"><title>configuration-modules-core#966</title>
<a xlink:href="https://github.com/quattor/configuration-modules-core/issues/966" xlink:title="ncm-opennebula: src/test/perl/host.t fails with Net::OpenNebula 0.309.0" target="_parent">
<ellipse fill="#bd2c00" stroke="black" cx="442" cy="-1014" rx="118.087" ry="38.1838"/>
<text text-anchor="middle" x="442" y="-1018" font-family="Sans" font-size="10.00">issue</text>
<text text-anchor="middle" x="442" y="-1005" font-family="Sans" font-size="10.00">configuration-modules-core#966</text>
</a>
</g>
<!-- configuration&#45;modules&#45;core#967&#45;&gt;configuration&#45;modules&#45;core#966 -->
<g id="edge50" class="edge"><title>configuration-modules-core#967-&gt;configuration-modules-core#966</title>
<path fill="none" stroke="black" d="M217.756,-963.035C253.976,-971.267 296.794,-980.999 335.257,-989.74"/>
<polygon fill="black" stroke="black" points="334.929,-993.255 345.456,-992.058 336.48,-986.429 334.929,-993.255"/>
<text text-anchor="middle" x="288" y="-986" font-family="Sans" font-size="10.00">fix</text>
</g>
<!-- configuration&#45;modules&#45;core#957 -->
<g id="node63" class="node"><title>configuration-modules-core#957</title>
<a xlink:href="https://github.com/quattor/configuration-modules-core/pull/957" xlink:title="ncm-gpfs: allow to run mmsdrfrestore after each configfetch" target="_parent">
<polygon fill="#6e5494" stroke="black" points="217,-864 51,-864 51,-810 217,-810 217,-864"/>
<text text-anchor="middle" x="134" y="-841" font-family="Sans" font-size="10.00">pull-request</text>
<text text-anchor="middle" x="134" y="-828" font-family="Sans" font-size="10.00">configuration-modules-core#957</text>
</a>
</g>
<!-- configuration&#45;modules&#45;core#911 -->
<g id="node65" class="node"><title>configuration-modules-core#911</title>
<a xlink:href="https://github.com/quattor/configuration-modules-core/pull/911" xlink:title="ncm-gpfs: add ccr support" target="_parent">
<polygon fill="#6cc644" stroke="black" points="525,-864 359,-864 359,-810 525,-810 525,-864"/>
<text text-anchor="middle" x="442" y="-841" font-family="Sans" font-size="10.00">pull-request</text>
<text text-anchor="middle" x="442" y="-828" font-family="Sans" font-size="10.00">configuration-modules-core#911</text>
</a>
</g>
<!-- configuration&#45;modules&#45;core#957&#45;&gt;configuration&#45;modules&#45;core#911 -->
<g id="edge52" class="edge"><title>configuration-modules-core#957-&gt;configuration-modules-core#911</title>
<path fill="none" stroke="black" d="M217.756,-837C258.074,-837 306.568,-837 348.13,-837"/>
<polygon fill="none" stroke="black" points="348.261,-840.5 358.261,-837 348.261,-833.5 348.261,-840.5"/>
<text text-anchor="middle" x="288" y="-841" font-family="Sans" font-size="10.00">requires</text>
</g>
<!-- configuration&#45;modules&#45;core#950 -->
<g id="node66" class="node"><title>configuration-modules-core#950</title>
<a xlink:href="https://github.com/quattor/configuration-modules-core/issues/950" xlink:title="ncm-spma: Remove support for package groups from yum backends" target="_parent">
<ellipse fill="#6cc644" stroke="black" cx="134" cy="-693" rx="118.087" ry="38.1838"/>
<text text-anchor="middle" x="134" y="-697" font-family="Sans" font-size="10.00">issue</text>
<text text-anchor="middle" x="134" y="-684" font-family="Sans" font-size="10.00">configuration-modules-core#950</text>
</a>
</g>
<!-- configuration&#45;modules&#45;core#951 -->
<g id="node68" class="node"><title>configuration-modules-core#951</title>
<a xlink:href="https://github.com/quattor/configuration-modules-core/issues/951" xlink:title="ncm-spma (yum): Remove support for package groups" target="_parent">
<ellipse fill="#6cc644" stroke="black" cx="442" cy="-660" rx="118.087" ry="38.1838"/>
<text text-anchor="middle" x="442" y="-664" font-family="Sans" font-size="10.00">issue</text>
<text text-anchor="middle" x="442" y="-651" font-family="Sans" font-size="10.00">configuration-modules-core#951</text>
</a>
</g>
<!-- configuration&#45;modules&#45;core#950&#45;&gt;configuration&#45;modules&#45;core#951 -->
<g id="edge54" class="edge"><title>configuration-modules-core#950-&gt;configuration-modules-core#951</title>
<path fill="none" stroke="black" d="M246.066,-680.993C270.103,-678.418 295.615,-675.684 320.006,-673.071"/>
<polygon fill="none" stroke="black" points="320.447,-676.544 330.017,-671.998 319.701,-669.584 320.447,-676.544"/>
<text text-anchor="middle" x="288" y="-682" font-family="Sans" font-size="10.00">requires</text>
</g>
<!-- configuration&#45;modules&#45;core#952 -->
<g id="node70" class="node"><title>configuration-modules-core#952</title>
<a xlink:href="https://github.com/quattor/configuration-modules-core/issues/952" xlink:title="ncm-spma (yumng): Remove support for package groups" target="_parent">
<ellipse fill="#6cc644" stroke="black" cx="442" cy="-754" rx="118.087" ry="38.1838"/>
<text text-anchor="middle" x="442" y="-758" font-family="Sans" font-size="10.00">issue</text>
<text text-anchor="middle" x="442" y="-745" font-family="Sans" font-size="10.00">configuration-modules-core#952</text>
</a>
</g>
<!-- configuration&#45;modules&#45;core#950&#45;&gt;configuration&#45;modules&#45;core#952 -->
<g id="edge56" class="edge"><title>configuration-modules-core#950-&gt;configuration-modules-core#952</title>
<path fill="none" stroke="black" d="M234.851,-712.974C265.721,-719.088 299.839,-725.845 331.326,-732.081"/>
<polygon fill="none" stroke="black" points="330.96,-735.576 341.449,-734.086 332.32,-728.71 330.96,-735.576"/>
<text text-anchor="middle" x="288" y="-730" font-family="Sans" font-size="10.00">requires</text>
</g>
<!-- configuration&#45;modules&#45;core#945 -->
<g id="node71" class="node"><title>configuration-modules-core#945</title>
<a xlink:href="https://github.com/quattor/configuration-modules-core/pull/945" xlink:title="ncm-cdp : Update ncm-cdp schema to support hostname" target="_parent">
<polygon fill="#6cc644" stroke="black" points="217,-546 51,-546 51,-492 217,-492 217,-546"/>
<text text-anchor="middle" x="134" y="-523" font-family="Sans" font-size="10.00">pull-request</text>
<text text-anchor="middle" x="134" y="-510" font-family="Sans" font-size="10.00">configuration-modules-core#945</text>
</a>
</g>
<!-- configuration&#45;modules&#45;core#945&#45;&gt;cdp&#45;listend#16 -->
<g id="edge60" class="edge"><title>configuration-modules-core#945-&gt;cdp-listend#16</title>
<path fill="none" stroke="black" d="M217.756,-509.21C271.194,-502.964 338.994,-495.04 385.981,-489.548"/>
<polygon fill="none" stroke="black" points="386.448,-493.017 395.974,-488.38 385.635,-486.064 386.448,-493.017"/>
<text text-anchor="middle" x="288" y="-507" font-family="Sans" font-size="10.00">requires</text>
</g>
<!-- configuration&#45;modules&#45;core#944 -->
<g id="node73" class="node"><title>configuration-modules-core#944</title>
<a xlink:href="https://github.com/quattor/configuration-modules-core/issues/944" xlink:title="cdp: suport hostname config" target="_parent">
<ellipse fill="#6cc644" stroke="black" cx="442" cy="-566" rx="118.087" ry="38.1838"/>
<text text-anchor="middle" x="442" y="-570" font-family="Sans" font-size="10.00">issue</text>
<text text-anchor="middle" x="442" y="-557" font-family="Sans" font-size="10.00">configuration-modules-core#944</text>
</a>
</g>
<!-- configuration&#45;modules&#45;core#945&#45;&gt;configuration&#45;modules&#45;core#944 -->
<g id="edge58" class="edge"><title>configuration-modules-core#945-&gt;configuration-modules-core#944</title>
<path fill="none" stroke="black" d="M217.756,-531.781C250.891,-536.837 289.547,-542.736 325.34,-548.198"/>
<polygon fill="black" stroke="black" points="324.939,-551.677 335.353,-549.726 325.995,-544.757 324.939,-551.677"/>
<text text-anchor="middle" x="288" y="-548" font-family="Sans" font-size="10.00">fixes</text>
</g>
<!-- maven&#45;tools#113 -->
<g id="node75" class="node"><title>maven-tools#113</title>
<a xlink:href="https://github.com/quattor/maven-tools/pull/113" xlink:title="maven-tools: add component config.pan and schema.pan header templates" target="_parent">
<polygon fill="#6cc644" stroke="black" points="185,-444 83,-444 83,-390 185,-390 185,-444"/>
<text text-anchor="middle" x="134" y="-421" font-family="Sans" font-size="10.00">pull-request</text>
<text text-anchor="middle" x="134" y="-408" font-family="Sans" font-size="10.00">maven-tools#113</text>
</a>
</g>
<!-- maven&#45;tools#109 -->
<g id="node77" class="node"><title>maven-tools#109</title>
<a xlink:href="https://github.com/quattor/maven-tools/issues/109" xlink:title="Add support for site specific component configuration to component configs" target="_parent">
<ellipse fill="#6cc644" stroke="black" cx="442" cy="-400" rx="72.832" ry="38.1838"/>
<text text-anchor="middle" x="442" y="-404" font-family="Sans" font-size="10.00">issue</text>
<text text-anchor="middle" x="442" y="-391" font-family="Sans" font-size="10.00">maven-tools#109</text>
</a>
</g>
<!-- maven&#45;tools#113&#45;&gt;maven&#45;tools#109 -->
<g id="edge62" class="edge"><title>maven-tools#113-&gt;maven-tools#109</title>
<path fill="none" stroke="black" d="M185.552,-414.155C232.869,-411.543 303.801,-407.628 359.08,-404.577"/>
<polygon fill="black" stroke="black" points="359.418,-408.063 369.21,-404.018 359.033,-401.074 359.418,-408.063"/>
<text text-anchor="middle" x="288" y="-414" font-family="Sans" font-size="10.00">fixes</text>
</g>
<!-- ncm&#45;ncd#101 -->
<g id="node78" class="node"><title>ncm-ncd#101</title>
<a xlink:href="https://github.com/quattor/ncm-ncd/pull/101" xlink:title="CLI: report the used CCM configuration CID and (optional) name" target="_parent">
<polygon fill="#6cc644" stroke="black" points="177,-372 91,-372 91,-318 177,-318 177,-372"/>
<text text-anchor="middle" x="134" y="-349" font-family="Sans" font-size="10.00">pull-request</text>
<text text-anchor="middle" x="134" y="-336" font-family="Sans" font-size="10.00">ncm-ncd#101</text>
</a>
</g>
<!-- ncm&#45;ncd#92 -->
<g id="node80" class="node"><title>ncm-ncd#92</title>
<a xlink:href="https://github.com/quattor/ncm-ncd/issues/92" xlink:title="report configuration name during ncm-ncd start" target="_parent">
<ellipse fill="#6cc644" stroke="black" cx="442" cy="-306" rx="57.9828" ry="38.1838"/>
<text text-anchor="middle" x="442" y="-310" font-family="Sans" font-size="10.00">issue</text>
<text text-anchor="middle" x="442" y="-297" font-family="Sans" font-size="10.00">ncm-ncd#92</text>
</a>
</g>
<!-- ncm&#45;ncd#101&#45;&gt;ncm&#45;ncd#92 -->
<g id="edge64" class="edge"><title>ncm-ncd#101-&gt;ncm-ncd#92</title>
<path fill="none" stroke="black" d="M177.802,-339.454C229.219,-332.943 315.052,-322.075 374.882,-314.499"/>
<polygon fill="black" stroke="black" points="375.512,-317.947 384.993,-313.218 374.632,-311.002 375.512,-317.947"/>
<text text-anchor="middle" x="288" y="-331" font-family="Sans" font-size="10.00">fixes</text>
</g>
<!-- ncm&#45;ncd#100 -->
<g id="node81" class="node"><title>ncm-ncd#100</title>
<a xlink:href="https://github.com/quattor/ncm-ncd/pull/100" xlink:title="Set check-noquattor to true by default" target="_parent">
<polygon fill="#6cc644" stroke="black" points="177,-300 91,-300 91,-246 177,-246 177,-300"/>
<text text-anchor="middle" x="134" y="-277" font-family="Sans" font-size="10.00">pull-request</text>
<text text-anchor="middle" x="134" y="-264" font-family="Sans" font-size="10.00">ncm-ncd#100</text>
</a>
</g>
<!-- ncm&#45;ncd#99 -->
<g id="node83" class="node"><title>ncm-ncd#99</title>
<a xlink:href="https://github.com/quattor/ncm-ncd/issues/99" xlink:title="enable check-noquattor by default" target="_parent">
<ellipse fill="#6cc644" stroke="black" cx="442" cy="-212" rx="57.9828" ry="38.1838"/>
<text text-anchor="middle" x="442" y="-216" font-family="Sans" font-size="10.00">issue</text>
<text text-anchor="middle" x="442" y="-203" font-family="Sans" font-size="10.00">ncm-ncd#99</text>
</a>
</g>
<!-- ncm&#45;ncd#100&#45;&gt;ncm&#45;ncd#99 -->
<g id="edge66" class="edge"><title>ncm-ncd#100-&gt;ncm-ncd#99</title>
<path fill="none" stroke="black" d="M177.802,-264.325C229.611,-254.064 316.365,-236.882 376.248,-225.022"/>
<polygon fill="black" stroke="black" points="377.229,-228.396 386.359,-223.02 375.869,-221.529 377.229,-228.396"/>
<text text-anchor="middle" x="288" y="-249" font-family="Sans" font-size="10.00">fixes</text>
</g>
</g>
</svg>
