<?xml version="1.0" encoding="UTF-8" standalone="no"?>
<?xml-stylesheet href="relationships.css" type="text/css"?>
<!-- Generated by graphviz version 2.26.0 (20091210.2329)
 -->
<!-- Title: Dependencies Pages: 1 -->
<svg xmlns="http://www.w3.org/2000/svg" xmlns:xlink="http://www.w3.org/1999/xlink" width="730pt" height="2367pt" viewBox="0.00 0.00 730.00 2367.00">
<g id="graph1" class="graph" transform="scale(1 1) rotate(0) translate(4 2363)">
<title>Dependencies</title>
<polygon fill="white" stroke="white" points="-4,5 -4,-2363 727,-2363 727,5 -4,5"/>
<g id="graph5" class="cluster"><title>cluster_18.3</title>
<polygon fill="none" stroke="black" points="24,-1639 24,-2087 562,-2087 562,-1639 24,-1639"/>
<text text-anchor="middle" x="293" y="-2072.2" font-family="Sans" font-size="12.00">18.3</text>
</g>
<g id="graph6" class="cluster"><title>cluster_18.6</title>
<polygon fill="none" stroke="black" points="24,-224 24,-1567 714,-1567 714,-224 24,-224"/>
<text text-anchor="middle" x="369" y="-1552.2" font-family="Sans" font-size="12.00">18.6</text>
</g>
<!-- aii#281 -->
<g id="node1" class="node"><title>aii#281</title>
<a xlink:href="https://github.com/quattor/aii/pull/281" xlink:title="ks: set useexisting_lv flag for el7" target="_parent">
<polygon fill="#6cc644" stroke="black" points="157,-286 79,-286 79,-232 157,-232 157,-286"/>
<text text-anchor="middle" x="118" y="-263" font-family="Sans" font-size="10.00">pull-request</text>
<text text-anchor="middle" x="118" y="-250" font-family="Sans" font-size="10.00">aii#281</text>
</a>
</g>
<!-- aii#88 -->
<g id="node3" class="node"><title>aii#88</title>
<polygon fill="lightgrey" stroke="black" points="459,-40.5 405,-40.5 405,0.5 459,0.5 459,-40.5"/>
<text text-anchor="middle" x="432" y="-17.5" font-family="Sans" font-size="10.00">aii#88</text>
</g>
<!-- aii#281&#45;&gt;aii#88 -->
<g id="edge2" class="edge"><title>aii#281-&gt;aii#88</title>
<path fill="none" stroke="black" stroke-dasharray="5,2" d="M126.569,-231.627C142.932,-184.342 183.429,-88.1036 254,-43 296.478,-15.8513 356.36,-13.8315 394.681,-16.0217"/>
<polygon fill="none" stroke="black" points="394.666,-19.5291 404.886,-16.7337 395.154,-12.5461 394.666,-19.5291"/>
<text text-anchor="middle" x="273" y="-47" font-family="Sans" font-size="10.00">requires</text>
</g>
<!-- aii#280 -->
<g id="node4" class="node"><title>aii#280</title>
<a xlink:href="https://github.com/quattor/aii/pull/280" xlink:title="Support active configuration attribute for plugins" target="_parent">
<polygon fill="#6cc644" stroke="black" points="157,-358 79,-358 79,-304 157,-304 157,-358"/>
<text text-anchor="middle" x="118" y="-335" font-family="Sans" font-size="10.00">pull-request</text>
<text text-anchor="middle" x="118" y="-322" font-family="Sans" font-size="10.00">aii#280</text>
</a>
</g>
<!-- aii#209 -->
<g id="node6" class="node"><title>aii#209</title>
<a xlink:href="https://github.com/quattor/aii/issues/209" xlink:title="support ACTIVE_CONFIG" target="_parent">
<ellipse fill="#6cc644" stroke="black" cx="432" cy="-342" rx="41.2167" ry="38.1838"/>
<text text-anchor="middle" x="432" y="-346" font-family="Sans" font-size="10.00">issue</text>
<text text-anchor="middle" x="432" y="-333" font-family="Sans" font-size="10.00">aii#209</text>
</a>
</g>
<!-- aii#280&#45;&gt;aii#209 -->
<g id="edge4" class="edge"><title>aii#280-&gt;aii#209</title>
<path fill="none" stroke="black" stroke-width="2" d="M157.768,-332.393C214.279,-334.373 317.868,-338.002 380.284,-340.188"/>
<polygon fill="black" stroke="black" points="380.193,-343.687 390.31,-340.54 380.438,-336.691 380.193,-343.687"/>
<text text-anchor="middle" x="273" y="-341" font-family="Sans" font-size="10.00">fixes</text>
</g>
<!-- ncm&#45;ncd#74 -->
<g id="node8" class="node"><title>ncm-ncd#74</title>
<a xlink:href="https://github.com/quattor/ncm-ncd/pull/74" xlink:title="Set the current active config as an attribute to the component" target="_parent">
<polygon fill="#6cc644" stroke="black" points="473,-286 391,-286 391,-232 473,-232 473,-286"/>
<text text-anchor="middle" x="432" y="-263" font-family="Sans" font-size="10.00">pull-request</text>
<text text-anchor="middle" x="432" y="-250" font-family="Sans" font-size="10.00">ncm-ncd#74</text>
</a>
</g>
<!-- aii#280&#45;&gt;ncm&#45;ncd#74 -->
<g id="edge6" class="edge"><title>aii#280-&gt;ncm-ncd#74</title>
<path fill="none" stroke="black" stroke-dasharray="5,2" d="M157.768,-321.881C214.435,-308.887 318.442,-285.039 380.801,-270.74"/>
<polygon fill="none" stroke="black" points="381.848,-274.091 390.813,-268.444 380.283,-267.268 381.848,-274.091"/>
<text text-anchor="middle" x="273" y="-304" font-family="Sans" font-size="10.00">requires</text>
</g>
<!-- aii#203 -->
<g id="node10" class="node"><title>aii#203</title>
<polygon fill="lightgrey" stroke="black" points="461,-156.5 403,-156.5 403,-115.5 461,-115.5 461,-156.5"/>
<text text-anchor="middle" x="432" y="-133.5" font-family="Sans" font-size="10.00">aii#203</text>
</g>
<!-- aii#280&#45;&gt;aii#203 -->
<g id="edge8" class="edge"><title>aii#280-&gt;aii#203</title>
<path fill="none" stroke="black" stroke-dasharray="5,2" d="M157.634,-329.511C183.854,-326.309 216.819,-317.629 236,-295 275.425,-248.49 210.82,-202.047 254,-159 289.83,-123.281 351.813,-123.619 392.361,-128.645"/>
<polygon fill="none" stroke="black" points="392.045,-132.134 402.432,-130.043 393.008,-125.201 392.045,-132.134"/>
<text text-anchor="middle" x="273" y="-163" font-family="Sans" font-size="10.00">requires</text>
</g>
<!-- aii#210 -->
<g id="node12" class="node"><title>aii#210</title>
<polygon fill="lightgrey" stroke="black" points="461,-98.5 403,-98.5 403,-57.5 461,-57.5 461,-98.5"/>
<text text-anchor="middle" x="432" y="-75.5" font-family="Sans" font-size="10.00">aii#210</text>
</g>
<!-- aii#280&#45;&gt;aii#210 -->
<g id="edge10" class="edge"><title>aii#280-&gt;aii#210</title>
<path fill="none" stroke="black" stroke-dasharray="1,5" d="M157.558,-329.72C183.919,-326.626 217.082,-317.988 236,-295 285.685,-234.628 202.398,-178.742 254,-120 288.121,-81.1589 350.846,-74.7358 391.986,-75.2055"/>
<polygon fill="black" stroke="black" points="402.205,-75.468 392.093,-79.7096 397.207,-75.3395 392.209,-75.2111 392.209,-75.2111 392.209,-75.2111 397.207,-75.3395 392.324,-70.7126 402.205,-75.468 402.205,-75.468"/>
<text text-anchor="middle" x="273" y="-124" font-family="Sans" font-size="10.00">replaces</text>
</g>
<!-- CAF#257 -->
<g id="node13" class="node"><title>CAF#257</title>
<a xlink:href="https://github.com/quattor/CAF/pull/257" xlink:title="Process: run process as another user" target="_parent">
<polygon fill="#6cc644" stroke="black" points="157,-1524 79,-1524 79,-1470 157,-1470 157,-1524"/>
<text text-anchor="middle" x="118" y="-1501" font-family="Sans" font-size="10.00">pull-request</text>
<text text-anchor="middle" x="118" y="-1488" font-family="Sans" font-size="10.00">CAF#257</text>
</a>
</g>
<!-- CAF#253 -->
<g id="node15" class="node"><title>CAF#253</title>
<a xlink:href="https://github.com/quattor/CAF/issues/253" xlink:title="CAF::Process: Include an option to execute the command as an specific user" target="_parent">
<ellipse fill="#6cc644" stroke="black" cx="432" cy="-1497" rx="48.9975" ry="38.1838"/>
<text text-anchor="middle" x="432" y="-1501" font-family="Sans" font-size="10.00">issue</text>
<text text-anchor="middle" x="432" y="-1488" font-family="Sans" font-size="10.00">CAF#253</text>
</a>
</g>
<!-- CAF#257&#45;&gt;CAF#253 -->
<g id="edge12" class="edge"><title>CAF#257-&gt;CAF#253</title>
<path fill="none" stroke="black" stroke-width="2" d="M157.571,-1495.9C184.705,-1495.2 221.529,-1494.36 254,-1494 293.351,-1493.57 337.592,-1494.31 372.123,-1495.16"/>
<polygon fill="black" stroke="black" points="372.425,-1498.67 382.512,-1495.43 372.605,-1491.67 372.425,-1498.67"/>
<text text-anchor="middle" x="273" y="-1498" font-family="Sans" font-size="10.00">fixes</text>
</g>
<!-- CAF#110 -->
<g id="node16" class="node"><title>CAF#110</title>
<a xlink:href="https://github.com/quattor/CAF/pull/110" xlink:title="CAF::Download class: API proposal" target="_parent">
<polygon fill="#6cc644" stroke="black" points="157,-1629 79,-1629 79,-1575 157,-1575 157,-1629"/>
<text text-anchor="middle" x="118" y="-1606" font-family="Sans" font-size="10.00">pull-request</text>
<text text-anchor="middle" x="118" y="-1593" font-family="Sans" font-size="10.00">CAF#110</text>
</a>
</g>
<!-- CAF#120 -->
<g id="node18" class="node"><title>CAF#120</title>
<polygon fill="lightgrey" stroke="black" points="467,-1622.5 397,-1622.5 397,-1581.5 467,-1581.5 467,-1622.5"/>
<text text-anchor="middle" x="432" y="-1599.5" font-family="Sans" font-size="10.00">CAF#120</text>
</g>
<!-- CAF#110&#45;&gt;CAF#120 -->
<g id="edge14" class="edge"><title>CAF#110-&gt;CAF#120</title>
<path fill="none" stroke="black" stroke-dasharray="5,2" d="M157.768,-1602C216.269,-1602 325.221,-1602 386.719,-1602"/>
<polygon fill="none" stroke="black" points="386.897,-1605.5 396.897,-1602 386.897,-1598.5 386.897,-1605.5"/>
<text text-anchor="middle" x="273" y="-1606" font-family="Sans" font-size="10.00">requires</text>
</g>
<!-- CCM#186 -->
<g id="node19" class="node"><title>CCM#186</title>
<a xlink:href="https://github.com/quattor/CCM/pull/186" xlink:title="TextRender: add support for jsonpretty type" target="_parent">
<polygon fill="#6cc644" stroke="black" points="471,-1441 393,-1441 393,-1387 471,-1387 471,-1441"/>
<text text-anchor="middle" x="432" y="-1418" font-family="Sans" font-size="10.00">pull-request</text>
<text text-anchor="middle" x="432" y="-1405" font-family="Sans" font-size="10.00">CCM#186</text>
</a>
</g>
<!-- CAF#265 -->
<g id="node21" class="node"><title>CAF#265</title>
<a xlink:href="https://github.com/quattor/CAF/pull/265" xlink:title="TextRender: add jsonpretty module" target="_parent">
<polygon fill="#6cc644" stroke="black" points="705,-1403 627,-1403 627,-1349 705,-1349 705,-1403"/>
<text text-anchor="middle" x="666" y="-1380" font-family="Sans" font-size="10.00">pull-request</text>
<text text-anchor="middle" x="666" y="-1367" font-family="Sans" font-size="10.00">CAF#265</text>
</a>
</g>
<!-- CCM#186&#45;&gt;CAF#265 -->
<g id="edge16" class="edge"><title>CCM#186-&gt;CAF#265</title>
<path fill="none" stroke="black" stroke-dasharray="5,2" d="M471.695,-1407.55C511.531,-1401.08 573.008,-1391.1 616.117,-1384.1"/>
<polygon fill="none" stroke="black" points="616.801,-1387.54 626.11,-1382.48 615.679,-1380.63 616.801,-1387.54"/>
<text text-anchor="middle" x="590" y="-1395" font-family="Sans" font-size="10.00">requires</text>
</g>
<!-- configuration&#45;modules&#45;core#1255 -->
<g id="node22" class="node"><title>configuration-modules-core#1255</title>
<a xlink:href="https://github.com/quattor/configuration-modules-core/pull/1255" xlink:title=" ncm-metaconfig: add irods config files" target="_parent">
<polygon fill="#6cc644" stroke="black" points="204,-1403 32,-1403 32,-1349 204,-1349 204,-1403"/>
<text text-anchor="middle" x="118" y="-1380" font-family="Sans" font-size="10.00">pull-request</text>
<text text-anchor="middle" x="118" y="-1367" font-family="Sans" font-size="10.00">configuration-modules-core#1255</text>
</a>
</g>
<!-- configuration&#45;modules&#45;core#1255&#45;&gt;CCM#186 -->
<g id="edge20" class="edge"><title>configuration-modules-core#1255-&gt;CCM#186</title>
<path fill="none" stroke="black" stroke-dasharray="5,2" d="M204.217,-1386.43C261.388,-1393.35 334.397,-1402.19 382.136,-1407.97"/>
<polygon fill="none" stroke="black" points="381.872,-1411.46 392.22,-1409.19 382.713,-1404.51 381.872,-1411.46"/>
<text text-anchor="middle" x="273" y="-1401" font-family="Sans" font-size="10.00">requires</text>
</g>
<!-- configuration&#45;modules&#45;core#1255&#45;&gt;CAF#265 -->
<g id="edge18" class="edge"><title>configuration-modules-core#1255-&gt;CAF#265</title>
<path fill="none" stroke="black" stroke-dasharray="5,2" d="M204.002,-1369.93C293.486,-1364.54 437.645,-1358.44 562,-1365 579.567,-1365.93 598.735,-1367.73 615.774,-1369.61"/>
<polygon fill="none" stroke="black" points="615.743,-1373.13 626.075,-1370.78 616.536,-1366.17 615.743,-1373.13"/>
<text text-anchor="middle" x="432" y="-1369" font-family="Sans" font-size="10.00">requires</text>
</g>
<!-- configuration&#45;modules&#45;core#1236 -->
<g id="node25" class="node"><title>configuration-modules-core#1236</title>
<a xlink:href="https://github.com/quattor/configuration-modules-core/pull/1236" xlink:title="ncm-spma: yum: Expose support for multiple reposdirs" target="_parent">
<polygon fill="#6e5494" stroke="black" points="204,-2055 32,-2055 32,-2001 204,-2001 204,-2055"/>
<text text-anchor="middle" x="118" y="-2032" font-family="Sans" font-size="10.00">pull-request</text>
<text text-anchor="middle" x="118" y="-2019" font-family="Sans" font-size="10.00">configuration-modules-core#1236</text>
</a>
</g>
<!-- configuration&#45;modules&#45;core#1075 -->
<g id="node27" class="node"><title>configuration-modules-core#1075</title>
<a xlink:href="https://github.com/quattor/configuration-modules-core/pull/1075" xlink:title="ncm-spma (yum): Allow unmanaged repositories to be controlled seperately from packages" target="_parent">
<polygon fill="#6e5494" stroke="black" points="518,-2055 346,-2055 346,-2001 518,-2001 518,-2055"/>
<text text-anchor="middle" x="432" y="-2032" font-family="Sans" font-size="10.00">pull-request</text>
<text text-anchor="middle" x="432" y="-2019" font-family="Sans" font-size="10.00">configuration-modules-core#1075</text>
</a>
</g>
<!-- configuration&#45;modules&#45;core#1236&#45;&gt;configuration&#45;modules&#45;core#1075 -->
<g id="edge22" class="edge"><title>configuration-modules-core#1236-&gt;configuration-modules-core#1075</title>
<path fill="none" stroke="black" stroke-dasharray="1,5" d="M204.329,-2025.81C220.818,-2025.47 237.942,-2025.18 254,-2025 280.582,-2024.71 309.395,-2024.95 335.94,-2025.4"/>
<polygon fill="black" stroke="black" points="345.993,-2025.58 335.913,-2029.9 340.994,-2025.49 335.995,-2025.4 335.995,-2025.4 335.995,-2025.4 340.994,-2025.49 336.076,-2020.9 345.993,-2025.58 345.993,-2025.58"/>
<text text-anchor="middle" x="273" y="-2029" font-family="Sans" font-size="10.00">replaces</text>
</g>
<!-- configuration&#45;modules&#45;core#1235 -->
<g id="node28" class="node"><title>configuration-modules-core#1235</title>
<a xlink:href="https://github.com/quattor/configuration-modules-core/pull/1235" xlink:title="ncm-ofed: import CAF::Service and enable NoActionSupported" target="_parent">
<polygon fill="#6e5494" stroke="black" points="204,-1972 32,-1972 32,-1918 204,-1918 204,-1972"/>
<text text-anchor="middle" x="118" y="-1949" font-family="Sans" font-size="10.00">pull-request</text>
<text text-anchor="middle" x="118" y="-1936" font-family="Sans" font-size="10.00">configuration-modules-core#1235</text>
</a>
</g>
<!-- configuration&#45;modules&#45;core#1234 -->
<g id="node30" class="node"><title>configuration-modules-core#1234</title>
<a xlink:href="https://github.com/quattor/configuration-modules-core/issues/1234" xlink:title="ncm-ofed: no loading of CAF::Service" target="_parent">
<ellipse fill="#bd2c00" stroke="black" cx="432" cy="-1945" rx="121.122" ry="38.1838"/>
<text text-anchor="middle" x="432" y="-1949" font-family="Sans" font-size="10.00">issue</text>
<text text-anchor="middle" x="432" y="-1936" font-family="Sans" font-size="10.00">configuration-modules-core#1234</text>
</a>
</g>
<!-- configuration&#45;modules&#45;core#1235&#45;&gt;configuration&#45;modules&#45;core#1234 -->
<g id="edge24" class="edge"><title>configuration-modules-core#1235-&gt;configuration-modules-core#1234</title>
<path fill="none" stroke="black" stroke-width="2" d="M204.217,-1945C233.916,-1945 267.888,-1945 300.372,-1945"/>
<polygon fill="black" stroke="black" points="300.399,-1948.5 310.399,-1945 300.399,-1941.5 300.399,-1948.5"/>
<text text-anchor="middle" x="273" y="-1949" font-family="Sans" font-size="10.00">fixes</text>
</g>
<!-- configuration&#45;modules&#45;core#1230 -->
<g id="node31" class="node"><title>configuration-modules-core#1230</title>
<a xlink:href="https://github.com/quattor/configuration-modules-core/pull/1230" xlink:title="ncm-ceph: support for luminous, bluestore, ceph-volume and per host osd deployment" target="_parent">
<polygon fill="#6cc644" stroke="black" points="204,-1086 32,-1086 32,-1032 204,-1032 204,-1086"/>
<text text-anchor="middle" x="118" y="-1063" font-family="Sans" font-size="10.00">pull-request</text>
<text text-anchor="middle" x="118" y="-1050" font-family="Sans" font-size="10.00">configuration-modules-core#1230</text>
</a>
</g>
<!-- configuration&#45;modules&#45;core#1224 -->
<g id="node33" class="node"><title>configuration-modules-core#1224</title>
<polygon fill="lightgrey" stroke="black" points="518,-214.5 346,-214.5 346,-173.5 518,-173.5 518,-214.5"/>
<text text-anchor="middle" x="432" y="-191.5" font-family="Sans" font-size="10.00">configuration-modules-core#1224</text>
</g>
<!-- configuration&#45;modules&#45;core#1230&#45;&gt;configuration&#45;modules&#45;core#1224 -->
<g id="edge26" class="edge"><title>configuration-modules-core#1230-&gt;configuration-modules-core#1224</title>
<path fill="none" stroke="black" stroke-dasharray="1,5" d="M132.104,-1031.77C158.327,-979.56 213.923,-861.041 236,-754 246.736,-701.947 232.74,-324.712 254,-276 268.079,-243.74 279.072,-236.803 310,-220 318.191,-215.55 327.078,-211.861 336.193,-208.803"/>
<polygon fill="black" stroke="black" points="345.756,-205.84 337.536,-213.098 340.98,-207.32 336.204,-208.8 336.204,-208.8 336.204,-208.8 340.98,-207.32 334.872,-204.501 345.756,-205.84 345.756,-205.84"/>
<text text-anchor="middle" x="273" y="-280" font-family="Sans" font-size="10.00">replaces</text>
</g>
<!-- configuration&#45;modules&#45;core#740 -->
<g id="node35" class="node"><title>configuration-modules-core#740</title>
<a xlink:href="https://github.com/quattor/configuration-modules-core/issues/740" xlink:title="ncm-ceph: add boolean to disable osd features" target="_parent">
<ellipse fill="#6cc644" stroke="black" cx="432" cy="-1188" rx="118.087" ry="38.1838"/>
<text text-anchor="middle" x="432" y="-1192" font-family="Sans" font-size="10.00">issue</text>
<text text-anchor="middle" x="432" y="-1179" font-family="Sans" font-size="10.00">configuration-modules-core#740</text>
</a>
</g>
<!-- configuration&#45;modules&#45;core#1230&#45;&gt;configuration&#45;modules&#45;core#740 -->
<g id="edge28" class="edge"><title>configuration-modules-core#1230-&gt;configuration-modules-core#740</title>
<path fill="none" stroke="black" stroke-width="2" d="M180.021,-1086.16C217.512,-1102.41 266.341,-1123.27 310,-1141 321.533,-1145.68 333.724,-1150.52 345.76,-1155.22"/>
<polygon fill="black" stroke="black" points="344.777,-1158.59 355.365,-1158.96 347.317,-1152.07 344.777,-1158.59"/>
<text text-anchor="middle" x="273" y="-1137" font-family="Sans" font-size="10.00">fixes</text>
</g>
<!-- configuration&#45;modules&#45;core#741 -->
<g id="node37" class="node"><title>configuration-modules-core#741</title>
<a xlink:href="https://github.com/quattor/configuration-modules-core/issues/741" xlink:title="ncm-ceph: check possibilities to rescale ceph in Jewel" target="_parent">
<ellipse fill="#6cc644" stroke="black" cx="432" cy="-1282" rx="118.087" ry="38.1838"/>
<text text-anchor="middle" x="432" y="-1286" font-family="Sans" font-size="10.00">issue</text>
<text text-anchor="middle" x="432" y="-1273" font-family="Sans" font-size="10.00">configuration-modules-core#741</text>
</a>
</g>
<!-- configuration&#45;modules&#45;core#1230&#45;&gt;configuration&#45;modules&#45;core#741 -->
<g id="edge30" class="edge"><title>configuration-modules-core#1230-&gt;configuration-modules-core#741</title>
<path fill="none" stroke="black" stroke-width="2" d="M141.557,-1086.25C175.485,-1124.07 241.585,-1192.6 310,-1235 319.232,-1240.72 329.275,-1245.95 339.504,-1250.66"/>
<polygon fill="black" stroke="black" points="338.372,-1253.99 348.932,-1254.85 341.212,-1247.59 338.372,-1253.99"/>
<text text-anchor="middle" x="273" y="-1224" font-family="Sans" font-size="10.00">fixes</text>
</g>
<!-- configuration&#45;modules&#45;core#742 -->
<g id="node39" class="node"><title>configuration-modules-core#742</title>
<a xlink:href="https://github.com/quattor/configuration-modules-core/issues/742" xlink:title="ncm-ceph: allow control over deploying admin keyrings along with ceph.conf" target="_parent">
<ellipse fill="#6cc644" stroke="black" cx="432" cy="-906" rx="118.087" ry="38.1838"/>
<text text-anchor="middle" x="432" y="-910" font-family="Sans" font-size="10.00">issue</text>
<text text-anchor="middle" x="432" y="-897" font-family="Sans" font-size="10.00">configuration-modules-core#742</text>
</a>
</g>
<!-- configuration&#45;modules&#45;core#1230&#45;&gt;configuration&#45;modules&#45;core#742 -->
<g id="edge32" class="edge"><title>configuration-modules-core#1230-&gt;configuration-modules-core#742</title>
<path fill="none" stroke="black" stroke-width="2" d="M162.867,-1031.94C201.211,-1009.37 258.231,-977.124 310,-953 320.958,-947.894 332.637,-942.878 344.263,-938.135"/>
<polygon fill="black" stroke="black" points="345.59,-941.374 353.561,-934.394 342.977,-934.88 345.59,-941.374"/>
<text text-anchor="middle" x="273" y="-984" font-family="Sans" font-size="10.00">fixes</text>
</g>
<!-- configuration&#45;modules&#45;core#743 -->
<g id="node41" class="node"><title>configuration-modules-core#743</title>
<a xlink:href="https://github.com/quattor/configuration-modules-core/issues/743" xlink:title="ncm-ceph: check admin keyring is current before running ceph-deploy admin" target="_parent">
<ellipse fill="#6cc644" stroke="black" cx="432" cy="-1000" rx="118.087" ry="38.1838"/>
<text text-anchor="middle" x="432" y="-1004" font-family="Sans" font-size="10.00">issue</text>
<text text-anchor="middle" x="432" y="-991" font-family="Sans" font-size="10.00">configuration-modules-core#743</text>
</a>
</g>
<!-- configuration&#45;modules&#45;core#1230&#45;&gt;configuration&#45;modules&#45;core#743 -->
<g id="edge34" class="edge"><title>configuration-modules-core#1230-&gt;configuration-modules-core#743</title>
<path fill="none" stroke="black" stroke-width="2" d="M204.217,-1042.8C239.883,-1036.1 281.712,-1028.24 319.725,-1021.1"/>
<polygon fill="black" stroke="black" points="320.636,-1024.49 329.818,-1019.2 319.343,-1017.61 320.636,-1024.49"/>
<text text-anchor="middle" x="273" y="-1038" font-family="Sans" font-size="10.00">fixes</text>
</g>
<!-- configuration&#45;modules&#45;core#776 -->
<g id="node43" class="node"><title>configuration-modules-core#776</title>
<a xlink:href="https://github.com/quattor/configuration-modules-core/issues/776" xlink:title="ncm-ceph: ceph mds stat output redesigned on Jewel" target="_parent">
<ellipse fill="#6cc644" stroke="black" cx="432" cy="-1094" rx="118.087" ry="38.1838"/>
<text text-anchor="middle" x="432" y="-1098" font-family="Sans" font-size="10.00">issue</text>
<text text-anchor="middle" x="432" y="-1085" font-family="Sans" font-size="10.00">configuration-modules-core#776</text>
</a>
</g>
<!-- configuration&#45;modules&#45;core#1230&#45;&gt;configuration&#45;modules&#45;core#776 -->
<g id="edge36" class="edge"><title>configuration-modules-core#1230-&gt;configuration-modules-core#776</title>
<path fill="none" stroke="black" stroke-width="2" d="M204.217,-1068.61C236.853,-1072.25 274.649,-1076.46 309.96,-1080.4"/>
<polygon fill="black" stroke="black" points="310.011,-1083.92 320.337,-1081.55 310.787,-1076.97 310.011,-1083.92"/>
<text text-anchor="middle" x="273" y="-1082" font-family="Sans" font-size="10.00">fixes</text>
</g>
<!-- configuration&#45;modules&#45;core#1220 -->
<g id="node44" class="node"><title>configuration-modules-core#1220</title>
<a xlink:href="https://github.com/quattor/configuration-modules-core/pull/1220" xlink:title="ncm-cups: Stop daemon if server not enabled" target="_parent">
<polygon fill="#6e5494" stroke="black" points="204,-1878 32,-1878 32,-1824 204,-1824 204,-1878"/>
<text text-anchor="middle" x="118" y="-1855" font-family="Sans" font-size="10.00">pull-request</text>
<text text-anchor="middle" x="118" y="-1842" font-family="Sans" font-size="10.00">configuration-modules-core#1220</text>
</a>
</g>
<!-- configuration&#45;modules&#45;core#1189 -->
<g id="node46" class="node"><title>configuration-modules-core#1189</title>
<a xlink:href="https://github.com/quattor/configuration-modules-core/issues/1189" xlink:title="ncm-cups: Nodetype of client should stop running cups daemon" target="_parent">
<ellipse fill="#bd2c00" stroke="black" cx="432" cy="-1851" rx="121.122" ry="38.1838"/>
<text text-anchor="middle" x="432" y="-1855" font-family="Sans" font-size="10.00">issue</text>
<text text-anchor="middle" x="432" y="-1842" font-family="Sans" font-size="10.00">configuration-modules-core#1189</text>
</a>
</g>
<!-- configuration&#45;modules&#45;core#1220&#45;&gt;configuration&#45;modules&#45;core#1189 -->
<g id="edge38" class="edge"><title>configuration-modules-core#1220-&gt;configuration-modules-core#1189</title>
<path fill="none" stroke="black" stroke-width="2" d="M204.217,-1851C233.916,-1851 267.888,-1851 300.372,-1851"/>
<polygon fill="black" stroke="black" points="300.399,-1854.5 310.399,-1851 300.399,-1847.5 300.399,-1854.5"/>
<text text-anchor="middle" x="273" y="-1855" font-family="Sans" font-size="10.00">fixes</text>
</g>
<!-- configuration&#45;modules&#45;core#1105 -->
<g id="node47" class="node"><title>configuration-modules-core#1105</title>
<a xlink:href="https://github.com/quattor/configuration-modules-core/pull/1105" xlink:title="ncm-authconfig: fix krb5_realm, user_object_class and newline between ldap_krb5_canonicalize and ldap_krb5_realm" target="_parent">
<polygon fill="#6cc644" stroke="black" points="204,-745 32,-745 32,-691 204,-691 204,-745"/>
<text text-anchor="middle" x="118" y="-722" font-family="Sans" font-size="10.00">pull-request</text>
<text text-anchor="middle" x="118" y="-709" font-family="Sans" font-size="10.00">configuration-modules-core#1105</text>
</a>
</g>
<!-- configuration&#45;modules&#45;core#1100 -->
<g id="node49" class="node"><title>configuration-modules-core#1100</title>
<a xlink:href="https://github.com/quattor/configuration-modules-core/issues/1100" xlink:title="ncm-authconfig : no newline after krb5_canonicalize option" target="_parent">
<ellipse fill="#6cc644" stroke="black" cx="432" cy="-624" rx="121.122" ry="38.1838"/>
<text text-anchor="middle" x="432" y="-628" font-family="Sans" font-size="10.00">issue</text>
<text text-anchor="middle" x="432" y="-615" font-family="Sans" font-size="10.00">configuration-modules-core#1100</text>
</a>
</g>
<!-- configuration&#45;modules&#45;core#1105&#45;&gt;configuration&#45;modules&#45;core#1100 -->
<g id="edge40" class="edge"><title>configuration-modules-core#1105-&gt;configuration-modules-core#1100</title>
<path fill="none" stroke="black" stroke-width="2" d="M204.217,-692.19C244.557,-680.113 292.783,-665.676 334.453,-653.202"/>
<polygon fill="black" stroke="black" points="335.488,-656.546 344.064,-650.325 333.48,-649.84 335.488,-656.546"/>
<text text-anchor="middle" x="273" y="-681" font-family="Sans" font-size="10.00">fixes</text>
</g>
<!-- configuration&#45;modules&#45;core#1102 -->
<g id="node51" class="node"><title>configuration-modules-core#1102</title>
<a xlink:href="https://github.com/quattor/configuration-modules-core/issues/1102" xlink:title="ncm-authconfig: There is no " target="_parent">
<ellipse fill="#6cc644" stroke="black" cx="432" cy="-718" rx="121.122" ry="38.1838"/>
<text text-anchor="middle" x="432" y="-722" font-family="Sans" font-size="10.00">issue</text>
<text text-anchor="middle" x="432" y="-709" font-family="Sans" font-size="10.00">configuration-modules-core#1102</text>
</a>
</g>
<!-- configuration&#45;modules&#45;core#1105&#45;&gt;configuration&#45;modules&#45;core#1102 -->
<g id="edge42" class="edge"><title>configuration-modules-core#1105-&gt;configuration-modules-core#1102</title>
<path fill="none" stroke="black" stroke-width="2" d="M204.217,-718C233.916,-718 267.888,-718 300.372,-718"/>
<polygon fill="black" stroke="black" points="300.399,-721.5 310.399,-718 300.399,-714.5 300.399,-721.5"/>
<text text-anchor="middle" x="273" y="-722" font-family="Sans" font-size="10.00">fixes</text>
</g>
<!-- configuration&#45;modules&#45;core#1103 -->
<g id="node53" class="node"><title>configuration-modules-core#1103</title>
<a xlink:href="https://github.com/quattor/configuration-modules-core/issues/1103" xlink:title="ncm-authconfig: krb5_realm = ARRAY(0x39a5830)" target="_parent">
<ellipse fill="#6cc644" stroke="black" cx="432" cy="-812" rx="121.122" ry="38.1838"/>
<text text-anchor="middle" x="432" y="-816" font-family="Sans" font-size="10.00">issue</text>
<text text-anchor="middle" x="432" y="-803" font-family="Sans" font-size="10.00">configuration-modules-core#1103</text>
</a>
</g>
<!-- configuration&#45;modules&#45;core#1105&#45;&gt;configuration&#45;modules&#45;core#1103 -->
<g id="edge44" class="edge"><title>configuration-modules-core#1105-&gt;configuration-modules-core#1103</title>
<path fill="none" stroke="black" stroke-width="2" d="M204.217,-743.81C244.557,-755.887 292.783,-770.324 334.453,-782.798"/>
<polygon fill="black" stroke="black" points="333.48,-786.16 344.064,-785.675 335.488,-779.454 333.48,-786.16"/>
<text text-anchor="middle" x="273" y="-772" font-family="Sans" font-size="10.00">fixes</text>
</g>
<!-- configuration&#45;modules&#45;core#1148 -->
<g id="node54" class="node"><title>configuration-modules-core#1148</title>
<a xlink:href="https://github.com/quattor/configuration-modules-core/pull/1148" xlink:title="ncm-spma: Remove support from groups from spma yumng backend" target="_parent">
<polygon fill="#6cc644" stroke="black" points="204,-2254 32,-2254 32,-2200 204,-2200 204,-2254"/>
<text text-anchor="middle" x="118" y="-2231" font-family="Sans" font-size="10.00">pull-request</text>
<text text-anchor="middle" x="118" y="-2218" font-family="Sans" font-size="10.00">configuration-modules-core#1148</text>
</a>
</g>
<!-- configuration&#45;modules&#45;core#952 -->
<g id="node56" class="node"><title>configuration-modules-core#952</title>
<a xlink:href="https://github.com/quattor/configuration-modules-core/issues/952" xlink:title="ncm-spma (yumng): Remove support for package groups" target="_parent">
<ellipse fill="#6cc644" stroke="black" cx="432" cy="-2227" rx="118.087" ry="38.1838"/>
<text text-anchor="middle" x="432" y="-2231" font-family="Sans" font-size="10.00">issue</text>
<text text-anchor="middle" x="432" y="-2218" font-family="Sans" font-size="10.00">configuration-modules-core#952</text>
</a>
</g>
<!-- configuration&#45;modules&#45;core#1148&#45;&gt;configuration&#45;modules&#45;core#952 -->
<g id="edge46" class="edge"><title>configuration-modules-core#1148-&gt;configuration-modules-core#952</title>
<path fill="none" stroke="black" stroke-width="2" d="M204.217,-2227C234.903,-2227 270.151,-2227 303.606,-2227"/>
<polygon fill="black" stroke="black" points="303.924,-2230.5 313.924,-2227 303.924,-2223.5 303.924,-2230.5"/>
<text text-anchor="middle" x="273" y="-2231" font-family="Sans" font-size="10.00">fixes</text>
</g>
<!-- configuration&#45;modules&#45;core#950 -->
<g id="node57" class="node"><title>configuration-modules-core#950</title>
<a xlink:href="https://github.com/quattor/configuration-modules-core/issues/950" xlink:title="ncm-spma: Remove support for package groups from yum backends" target="_parent">
<ellipse fill="#6cc644" stroke="black" cx="118" cy="-2139" rx="118.087" ry="38.1838"/>
<text text-anchor="middle" x="118" y="-2143" font-family="Sans" font-size="10.00">issue</text>
<text text-anchor="middle" x="118" y="-2130" font-family="Sans" font-size="10.00">configuration-modules-core#950</text>
</a>
</g>
<!-- configuration&#45;modules&#45;core#950&#45;&gt;configuration&#45;modules&#45;core#952 -->
<g id="edge50" class="edge"><title>configuration-modules-core#950-&gt;configuration-modules-core#952</title>
<path fill="none" stroke="black" stroke-dasharray="5,2" d="M207.14,-2163.98C246.419,-2174.99 292.716,-2187.96 333.059,-2199.27"/>
<polygon fill="none" stroke="black" points="332.336,-2202.7 342.909,-2202.03 334.225,-2195.96 332.336,-2202.7"/>
<text text-anchor="middle" x="273" y="-2190" font-family="Sans" font-size="10.00">requires</text>
</g>
<!-- configuration&#45;modules&#45;core#951 -->
<g id="node59" class="node"><title>configuration-modules-core#951</title>
<a xlink:href="https://github.com/quattor/configuration-modules-core/issues/951" xlink:title="ncm-spma (yum): Remove support for package groups" target="_parent">
<ellipse fill="#6cc644" stroke="black" cx="432" cy="-2133" rx="118.087" ry="38.1838"/>
<text text-anchor="middle" x="432" y="-2137" font-family="Sans" font-size="10.00">issue</text>
<text text-anchor="middle" x="432" y="-2124" font-family="Sans" font-size="10.00">configuration-modules-core#951</text>
</a>
</g>
<!-- configuration&#45;modules&#45;core#950&#45;&gt;configuration&#45;modules&#45;core#951 -->
<g id="edge48" class="edge"><title>configuration-modules-core#950-&gt;configuration-modules-core#951</title>
<path fill="none" stroke="black" stroke-dasharray="5,2" d="M235.815,-2136.75C257.999,-2136.32 281.298,-2135.88 303.781,-2135.45"/>
<polygon fill="none" stroke="black" points="304.115,-2138.94 314.047,-2135.25 303.982,-2131.95 304.115,-2138.94"/>
<text text-anchor="middle" x="273" y="-2141" font-family="Sans" font-size="10.00">requires</text>
</g>
<!-- ncm&#45;lib&#45;blockdevices#88 -->
<g id="node61" class="node"><title>ncm-lib-blockdevices#88</title>
<a xlink:href="https://github.com/quattor/ncm-lib-blockdevices/pull/88" xlink:title="LV: add useexisting_lv flag and support useexisting option in ks" target="_parent">
<polygon fill="#6cc644" stroke="black" points="186,-557 50,-557 50,-503 186,-503 186,-557"/>
<text text-anchor="middle" x="118" y="-534" font-family="Sans" font-size="10.00">pull-request</text>
<text text-anchor="middle" x="118" y="-521" font-family="Sans" font-size="10.00">ncm-lib-blockdevices#88</text>
</a>
</g>
<!-- ncm&#45;lib&#45;blockdevices#82 -->
<g id="node63" class="node"><title>ncm-lib-blockdevices#82</title>
<a xlink:href="https://github.com/quattor/ncm-lib-blockdevices/issues/82" xlink:title="kickstart configuration of logvol is incomplete on SL7" target="_parent">
<ellipse fill="#6cc644" stroke="black" cx="432" cy="-530" rx="96.1665" ry="38.1838"/>
<text text-anchor="middle" x="432" y="-534" font-family="Sans" font-size="10.00">issue</text>
<text text-anchor="middle" x="432" y="-521" font-family="Sans" font-size="10.00">ncm-lib-blockdevices#82</text>
</a>
</g>
<!-- ncm&#45;lib&#45;blockdevices#88&#45;&gt;ncm&#45;lib&#45;blockdevices#82 -->
<g id="edge52" class="edge"><title>ncm-lib-blockdevices#88-&gt;ncm-lib-blockdevices#82</title>
<path fill="none" stroke="black" stroke-width="2" d="M186.133,-530C226.883,-530 279.543,-530 325.667,-530"/>
<polygon fill="black" stroke="black" points="325.708,-533.5 335.708,-530 325.708,-526.5 325.708,-533.5"/>
<text text-anchor="middle" x="273" y="-534" font-family="Sans" font-size="10.00">fixes</text>
</g>
<!-- ncm&#45;ncd#117 -->
<g id="node64" class="node"><title>ncm-ncd#117</title>
<a xlink:href="https://github.com/quattor/ncm-ncd/pull/117" xlink:title="Allow component modules to be loaded from any path" target="_parent">
<polygon fill="#6cc644" stroke="black" points="161,-463 75,-463 75,-409 161,-409 161,-463"/>
<text text-anchor="middle" x="118" y="-440" font-family="Sans" font-size="10.00">pull-request</text>
<text text-anchor="middle" x="118" y="-427" font-family="Sans" font-size="10.00">ncm-ncd#117</text>
</a>
</g>
<!-- ncm&#45;ncd#116 -->
<g id="node66" class="node"><title>ncm-ncd#116</title>
<a xlink:href="https://github.com/quattor/ncm-ncd/issues/116" xlink:title="hasFile() prevents component modules from being relocated" target="_parent">
<ellipse fill="#6cc644" stroke="black" cx="432" cy="-436" rx="61.0181" ry="38.1838"/>
<text text-anchor="middle" x="432" y="-440" font-family="Sans" font-size="10.00">issue</text>
<text text-anchor="middle" x="432" y="-427" font-family="Sans" font-size="10.00">ncm-ncd#116</text>
</a>
</g>
<!-- ncm&#45;ncd#117&#45;&gt;ncm&#45;ncd#116 -->
<g id="edge54" class="edge"><title>ncm-ncd#117-&gt;ncm-ncd#116</title>
<path fill="none" stroke="black" stroke-width="2" d="M161.66,-436C212.954,-436 298.809,-436 360.001,-436"/>
<polygon fill="black" stroke="black" points="360.362,-439.5 370.362,-436 360.362,-432.5 360.362,-439.5"/>
<text text-anchor="middle" x="273" y="-440" font-family="Sans" font-size="10.00">fixes</text>
</g>
<!-- template&#45;library&#45;grid#211 -->
<g id="node67" class="node"><title>template-library-grid#211</title>
<a xlink:href="https://github.com/quattor/template-library-grid/pull/211" xlink:title="Machine job feature bug fix" target="_parent">
<polygon fill="#6e5494" stroke="black" points="185,-1784 51,-1784 51,-1730 185,-1730 185,-1784"/>
<text text-anchor="middle" x="118" y="-1761" font-family="Sans" font-size="10.00">pull-request</text>
<text text-anchor="middle" x="118" y="-1748" font-family="Sans" font-size="10.00">template-library-grid#211</text>
</a>
</g>
<!-- template&#45;library&#45;grid#155 -->
<g id="node69" class="node"><title>template-library-grid#155</title>
<a xlink:href="https://github.com/quattor/template-library-grid/issues/155" xlink:title="Cleanup machine and job features templates" target="_parent">
<ellipse fill="#bd2c00" stroke="black" cx="432" cy="-1757" rx="94.9596" ry="38.1838"/>
<text text-anchor="middle" x="432" y="-1761" font-family="Sans" font-size="10.00">issue</text>
<text text-anchor="middle" x="432" y="-1748" font-family="Sans" font-size="10.00">template-library-grid#155</text>
</a>
</g>
<!-- template&#45;library&#45;grid#211&#45;&gt;template&#45;library&#45;grid#155 -->
<g id="edge56" class="edge"><title>template-library-grid#211-&gt;template-library-grid#155</title>
<path fill="none" stroke="black" stroke-width="2" d="M185.747,-1757C226.73,-1757 279.863,-1757 326.279,-1757"/>
<polygon fill="black" stroke="black" points="326.381,-1760.5 336.381,-1757 326.381,-1753.5 326.381,-1760.5"/>
<text text-anchor="middle" x="273" y="-1761" font-family="Sans" font-size="10.00">fixes</text>
</g>
<!-- template&#45;library&#45;standard#109 -->
<g id="node70" class="node"><title>template-library-standard#109</title>
<a xlink:href="https://github.com/quattor/template-library-standard/pull/109" xlink:title="Add sample of nvidia workstation and compute GPUs" target="_parent">
<polygon fill="#6e5494" stroke="black" points="196,-1701 40,-1701 40,-1647 196,-1647 196,-1701"/>
<text text-anchor="middle" x="118" y="-1678" font-family="Sans" font-size="10.00">pull-request</text>
<text text-anchor="middle" x="118" y="-1665" font-family="Sans" font-size="10.00">template-library-standard#109</text>
</a>
</g>
<!-- template&#45;library&#45;core#172 -->
<g id="node72" class="node"><title>template-library-core#172</title>
<a xlink:href="https://github.com/quattor/template-library-core/pull/172" xlink:title="Allow RAM to be modelled on GPU cards" target="_parent">
<polygon fill="#6e5494" stroke="black" points="501,-1701 363,-1701 363,-1647 501,-1647 501,-1701"/>
<text text-anchor="middle" x="432" y="-1678" font-family="Sans" font-size="10.00">pull-request</text>
<text text-anchor="middle" x="432" y="-1665" font-family="Sans" font-size="10.00">template-library-core#172</text>
</a>
</g>
<!-- template&#45;library&#45;standard#109&#45;&gt;template&#45;library&#45;core#172 -->
<g id="edge58" class="edge"><title>template-library-standard#109-&gt;template-library-core#172</title>
<path fill="none" stroke="black" stroke-dasharray="5,2" d="M196.83,-1674C244.389,-1674 304.795,-1674 352.478,-1674"/>
<polygon fill="none" stroke="black" points="352.758,-1677.5 362.758,-1674 352.758,-1670.5 352.758,-1677.5"/>
<text text-anchor="middle" x="273" y="-1678" font-family="Sans" font-size="10.00">requires</text>
</g>
<!-- aquilon#77 -->
<g id="node73" class="node"><title>aquilon#77</title>
<a xlink:href="https://github.com/quattor/aquilon/pull/77" xlink:title="aqd:py: ensure that notifyd uses the same Python interpreter as aqd" target="_parent">
<polygon fill="#6cc644" stroke="black" points="157,-2348 79,-2348 79,-2294 157,-2294 157,-2348"/>
<text text-anchor="middle" x="118" y="-2325" font-family="Sans" font-size="10.00">pull-request</text>
<text text-anchor="middle" x="118" y="-2312" font-family="Sans" font-size="10.00">aquilon#77</text>
</a>
</g>
<!-- aquilon#76 -->
<g id="node75" class="node"><title>aquilon#76</title>
<a xlink:href="https://github.com/quattor/aquilon/issues/76" xlink:title="notifyd should be started with the same interpreter as aqd" target="_parent">
<ellipse fill="#6cc644" stroke="black" cx="432" cy="-2321" rx="53.033" ry="38.1838"/>
<text text-anchor="middle" x="432" y="-2325" font-family="Sans" font-size="10.00">issue</text>
<text text-anchor="middle" x="432" y="-2312" font-family="Sans" font-size="10.00">aquilon#76</text>
</a>
</g>
<!-- aquilon#77&#45;&gt;aquilon#76 -->
<g id="edge60" class="edge"><title>aquilon#77-&gt;aquilon#76</title>
<path fill="none" stroke="black" stroke-width="2" d="M157.768,-2321C210.918,-2321 305.713,-2321 368.729,-2321"/>
<polygon fill="black" stroke="black" points="368.945,-2324.5 378.945,-2321 368.945,-2317.5 368.945,-2324.5"/>
<text text-anchor="middle" x="273" y="-2325" font-family="Sans" font-size="10.00">fixes</text>
</g>
</g>
</svg>
