<?xml version="1.0" encoding="UTF-8" standalone="no"?>
<?xml-stylesheet href="relationships.css" type="text/css"?>
<!-- Generated by graphviz version 2.26.0 (20091210.2329)
 -->
<!-- Title: Dependencies Pages: 1 -->
<svg xmlns="http://www.w3.org/2000/svg" xmlns:xlink="http://www.w3.org/1999/xlink" width="774pt" height="1983pt" viewBox="0.00 0.00 774.00 1983.00">
<g id="graph1" class="graph" transform="scale(1 1) rotate(0) translate(4 1979)">
<title>Dependencies</title>
<polygon fill="white" stroke="white" points="-4,5 -4,-1979 771,-1979 771,5 -4,5"/>
<g id="graph2" class="cluster"><title>cluster_milestone_20.12</title>
<polygon fill="none" stroke="black" points="26,-916 26,-1126 488,-1126 488,-916 26,-916"/>
<text text-anchor="middle" x="257" y="-1111.2" font-family="Sans" font-size="12.00">20.12</text>
</g>
<g id="graph3" class="cluster"><title>cluster_milestone_20.3</title>
<polygon fill="none" stroke="black" points="8,-1196 8,-1627 758,-1627 758,-1196 8,-1196"/>
<text text-anchor="middle" x="383" y="-1612.2" font-family="Sans" font-size="12.00">20.3</text>
</g>
<g id="graph4" class="cluster"><title>cluster_milestone_20.4</title>
<polygon fill="none" stroke="black" points="8,-454 8,-908 741,-908 741,-454 8,-454"/>
<text text-anchor="middle" x="374.5" y="-893.2" font-family="Sans" font-size="12.00">20.4</text>
</g>
<g id="graph5" class="cluster"><title>cluster_repo_aquilon</title>
<polygon fill="none" stroke="black" points="41,-1635 41,-1967 449,-1967 449,-1635 41,-1635"/>
<text text-anchor="middle" x="245" y="-1952.2" font-family="Sans" font-size="12.00">aquilon</text>
</g>
<!-- aii#316 -->
<g id="node1" class="node"><title>aii#316</title>
<a xlink:href="https://github.com/quattor/aii/pull/316" xlink:title="aii-ks: generate kickstart repo entries based on SPMA configuration" target="_parent">
<polygon fill="#6cc644" stroke="black" points="141,-804 63,-804 63,-750 141,-750 141,-804"/>
<text text-anchor="middle" x="102" y="-781" font-family="Sans" font-size="10.00">pull-request</text>
<text text-anchor="middle" x="102" y="-768" font-family="Sans" font-size="10.00">aii#316</text>
</a>
</g>
<!-- aii#314 -->
<g id="node3" class="node"><title>aii#314</title>
<polygon fill="lightgrey" stroke="black" points="413,-388.5 355,-388.5 355,-347.5 413,-347.5 413,-388.5"/>
<text text-anchor="middle" x="384" y="-365.5" font-family="Sans" font-size="10.00">aii#314</text>
</g>
<!-- aii#316&#45;&gt;aii#314 -->
<g id="edge2" class="edge"><title>aii#316-&gt;aii#314</title>
<path fill="none" stroke="black" stroke-dasharray="5,2" d="M141.706,-770.069C158.757,-764.971 177.208,-756.166 188,-741 225.052,-688.935 179.967,-512.36 206,-454 220.468,-421.567 231.072,-414.455 262,-397 287.299,-382.722 319.371,-375.449 344.281,-371.758"/>
<polygon fill="none" stroke="black" points="345.034,-375.189 354.478,-370.386 344.1,-368.251 345.034,-375.189"/>
<text text-anchor="middle" x="225" y="-458" font-family="Sans" font-size="10.00">requires</text>
</g>
<!-- aii#315 -->
<g id="node5" class="node"><title>aii#315</title>
<polygon fill="lightgrey" stroke="black" points="413,-446.5 355,-446.5 355,-405.5 413,-405.5 413,-446.5"/>
<text text-anchor="middle" x="384" y="-423.5" font-family="Sans" font-size="10.00">aii#315</text>
</g>
<!-- aii#316&#45;&gt;aii#315 -->
<g id="edge4" class="edge"><title>aii#316-&gt;aii#315</title>
<path fill="none" stroke="black" stroke-dasharray="5,2" d="M141.624,-769.545C158.443,-764.347 176.73,-755.61 188,-741 223.088,-695.512 192.606,-668.865 206,-613 223.86,-538.51 204.263,-500.34 262,-450 284.408,-430.463 318.014,-425.001 344.285,-424.124"/>
<polygon fill="none" stroke="black" points="344.361,-427.623 354.315,-423.995 344.271,-420.624 344.361,-427.623"/>
<text text-anchor="middle" x="225" y="-617" font-family="Sans" font-size="10.00">requires</text>
</g>
<!-- aii#299 -->
<g id="node6" class="node"><title>aii#299</title>
<a xlink:href="https://github.com/quattor/aii/pull/299" xlink:title="aii-dhcp: support optional hostname ip verification" target="_parent">
<polygon fill="#6cc644" stroke="black" points="141,-876 63,-876 63,-822 141,-822 141,-876"/>
<text text-anchor="middle" x="102" y="-853" font-family="Sans" font-size="10.00">pull-request</text>
<text text-anchor="middle" x="102" y="-840" font-family="Sans" font-size="10.00">aii#299</text>
</a>
</g>
<!-- aii#296 -->
<g id="node8" class="node"><title>aii#296</title>
<a xlink:href="https://github.com/quattor/aii/pull/296" xlink:title="DHCP plugin updates" target="_parent">
<polygon fill="#6cc644" stroke="black" points="423,-876 345,-876 345,-822 423,-822 423,-876"/>
<text text-anchor="middle" x="384" y="-853" font-family="Sans" font-size="10.00">pull-request</text>
<text text-anchor="middle" x="384" y="-840" font-family="Sans" font-size="10.00">aii#296</text>
</a>
</g>
<!-- aii#299&#45;&gt;aii#296 -->
<g id="edge6" class="edge"><title>aii#299-&gt;aii#296</title>
<path fill="none" stroke="black" stroke-dasharray="5,2" d="M141.508,-849C191.919,-849 279.151,-849 334.101,-849"/>
<polygon fill="none" stroke="black" points="334.305,-852.5 344.305,-849 334.305,-845.5 334.305,-852.5"/>
<text text-anchor="middle" x="225" y="-853" font-family="Sans" font-size="10.00">requires</text>
</g>
<!-- aii#280 -->
<g id="node9" class="node"><title>aii#280</title>
<a xlink:href="https://github.com/quattor/aii/pull/280" xlink:title="Support active configuration attribute for plugins" target="_parent">
<polygon fill="#6cc644" stroke="black" points="141,-732 63,-732 63,-678 141,-678 141,-732"/>
<text text-anchor="middle" x="102" y="-709" font-family="Sans" font-size="10.00">pull-request</text>
<text text-anchor="middle" x="102" y="-696" font-family="Sans" font-size="10.00">aii#280</text>
</a>
</g>
<!-- aii#209 -->
<g id="node11" class="node"><title>aii#209</title>
<a xlink:href="https://github.com/quattor/aii/issues/209" xlink:title="support ACTIVE_CONFIG" target="_parent">
<ellipse fill="#6cc644" stroke="black" cx="384" cy="-710" rx="41.2167" ry="38.1838"/>
<text text-anchor="middle" x="384" y="-714" font-family="Sans" font-size="10.00">issue</text>
<text text-anchor="middle" x="384" y="-701" font-family="Sans" font-size="10.00">aii#209</text>
</a>
</g>
<!-- aii#280&#45;&gt;aii#209 -->
<g id="edge8" class="edge"><title>aii#280-&gt;aii#209</title>
<path fill="none" stroke="black" stroke-width="2" d="M141.508,-705.7C191.35,-706.584 277.184,-708.106 332.226,-709.082"/>
<polygon fill="black" stroke="black" points="332.406,-712.586 342.467,-709.264 332.531,-705.587 332.406,-712.586"/>
<text text-anchor="middle" x="225" y="-712" font-family="Sans" font-size="10.00">fixes</text>
</g>
<!-- ncm&#45;ncd#74 -->
<g id="node13" class="node"><title>ncm-ncd#74</title>
<polygon fill="lightgrey" stroke="black" points="425,-330.5 343,-330.5 343,-289.5 425,-289.5 425,-330.5"/>
<text text-anchor="middle" x="384" y="-307.5" font-family="Sans" font-size="10.00">ncm-ncd#74</text>
</g>
<!-- aii#280&#45;&gt;ncm&#45;ncd#74 -->
<g id="edge10" class="edge"><title>aii#280-&gt;ncm-ncd#74</title>
<path fill="none" stroke="black" stroke-dasharray="5,2" d="M141.769,-698.114C158.833,-693.025 177.277,-684.215 188,-669 209.538,-638.441 180.573,-360.409 206,-333 237.453,-299.095 292.267,-296.773 332.782,-300.809"/>
<polygon fill="none" stroke="black" points="332.416,-304.29 342.751,-301.957 333.217,-297.336 332.416,-304.29"/>
<text text-anchor="middle" x="225" y="-337" font-family="Sans" font-size="10.00">requires</text>
</g>
<!-- aii#203 -->
<g id="node15" class="node"><title>aii#203</title>
<polygon fill="lightgrey" stroke="black" points="413,-272.5 355,-272.5 355,-231.5 413,-231.5 413,-272.5"/>
<text text-anchor="middle" x="384" y="-249.5" font-family="Sans" font-size="10.00">aii#203</text>
</g>
<!-- aii#280&#45;&gt;aii#203 -->
<g id="edge12" class="edge"><title>aii#280-&gt;aii#203</title>
<path fill="none" stroke="black" stroke-dasharray="5,2" d="M141.809,-698.141C158.881,-693.058 177.32,-684.245 188,-669 211.998,-634.744 179.179,-325.094 206,-293 239.275,-253.182 302.736,-247.516 344.199,-248.61"/>
<polygon fill="none" stroke="black" points="344.101,-252.109 354.235,-249.017 344.385,-245.115 344.101,-252.109"/>
<text text-anchor="middle" x="225" y="-297" font-family="Sans" font-size="10.00">requires</text>
</g>
<!-- aii#210 -->
<g id="node17" class="node"><title>aii#210</title>
<polygon fill="lightgrey" stroke="black" points="413,-214.5 355,-214.5 355,-173.5 413,-173.5 413,-214.5"/>
<text text-anchor="middle" x="384" y="-191.5" font-family="Sans" font-size="10.00">aii#210</text>
</g>
<!-- aii#280&#45;&gt;aii#210 -->
<g id="edge14" class="edge"><title>aii#280-&gt;aii#210</title>
<path fill="none" stroke="black" stroke-dasharray="1,5" d="M141.843,-698.165C158.922,-693.087 177.357,-684.271 188,-669 214.643,-630.769 180.376,-288.921 206,-250 235.541,-205.13 301.499,-194.893 344.3,-193.248"/>
<polygon fill="black" stroke="black" points="354.381,-193.002 344.494,-197.745 349.382,-193.124 344.384,-193.246 344.384,-193.246 344.384,-193.246 349.382,-193.124 344.274,-188.747 354.381,-193.002 354.381,-193.002"/>
<text text-anchor="middle" x="225" y="-254" font-family="Sans" font-size="10.00">replaces</text>
</g>
<!-- CAF#257 -->
<g id="node18" class="node"><title>CAF#257</title>
<a xlink:href="https://github.com/quattor/CAF/pull/257" xlink:title="Process: run process as another user" target="_parent">
<polygon fill="#6cc644" stroke="black" points="141,-1075 63,-1075 63,-1021 141,-1021 141,-1075"/>
<text text-anchor="middle" x="102" y="-1052" font-family="Sans" font-size="10.00">pull-request</text>
<text text-anchor="middle" x="102" y="-1039" font-family="Sans" font-size="10.00">CAF#257</text>
</a>
</g>
<!-- CAF#253 -->
<g id="node20" class="node"><title>CAF#253</title>
<a xlink:href="https://github.com/quattor/CAF/issues/253" xlink:title="CAF::Process: Include an option to execute the command as an specific user" target="_parent">
<ellipse fill="#6cc644" stroke="black" cx="384" cy="-1056" rx="48.9975" ry="38.1838"/>
<text text-anchor="middle" x="384" y="-1060" font-family="Sans" font-size="10.00">issue</text>
<text text-anchor="middle" x="384" y="-1047" font-family="Sans" font-size="10.00">CAF#253</text>
</a>
</g>
<!-- CAF#257&#45;&gt;CAF#253 -->
<g id="edge16" class="edge"><title>CAF#257-&gt;CAF#253</title>
<path fill="none" stroke="black" stroke-width="2" d="M141.693,-1037.57C160.956,-1033.03 184.525,-1028.25 206,-1026 247.134,-1021.7 293.162,-1029.8 328.107,-1038.67"/>
<polygon fill="black" stroke="black" points="327.555,-1042.14 338.116,-1041.3 329.338,-1035.37 327.555,-1042.14"/>
<text text-anchor="middle" x="225" y="-1030" font-family="Sans" font-size="10.00">fixes</text>
</g>
<!-- CAF#257&#45;&gt;CAF#253 -->
<g id="edge18" class="edge"><title>CAF#257-&gt;CAF#253</title>
<path fill="none" stroke="black" stroke-width="2" d="M141.508,-1049.12C188.929,-1050.47 268.931,-1052.74 323.996,-1054.3"/>
<polygon fill="black" stroke="black" points="324.221,-1057.81 334.316,-1054.59 324.419,-1050.81 324.221,-1057.81"/>
<text text-anchor="middle" x="225" y="-1056" font-family="Sans" font-size="10.00">fixes</text>
</g>
<!-- CAF#110 -->
<g id="node22" class="node"><title>CAF#110</title>
<a xlink:href="https://github.com/quattor/CAF/pull/110" xlink:title="CAF::Download class: API proposal" target="_parent">
<polygon fill="#6cc644" stroke="black" points="141,-1188 63,-1188 63,-1134 141,-1134 141,-1188"/>
<text text-anchor="middle" x="102" y="-1165" font-family="Sans" font-size="10.00">pull-request</text>
<text text-anchor="middle" x="102" y="-1152" font-family="Sans" font-size="10.00">CAF#110</text>
</a>
</g>
<!-- CAF#120 -->
<g id="node24" class="node"><title>CAF#120</title>
<polygon fill="lightgrey" stroke="black" points="419,-1181.5 349,-1181.5 349,-1140.5 419,-1140.5 419,-1181.5"/>
<text text-anchor="middle" x="384" y="-1158.5" font-family="Sans" font-size="10.00">CAF#120</text>
</g>
<!-- CAF#110&#45;&gt;CAF#120 -->
<g id="edge20" class="edge"><title>CAF#110-&gt;CAF#120</title>
<path fill="none" stroke="black" stroke-dasharray="5,2" d="M141.508,-1161C193.343,-1161 284.109,-1161 338.679,-1161"/>
<polygon fill="none" stroke="black" points="338.759,-1164.5 348.759,-1161 338.759,-1157.5 338.759,-1164.5"/>
<text text-anchor="middle" x="225" y="-1165" font-family="Sans" font-size="10.00">requires</text>
</g>
<!-- configuration&#45;modules&#45;core#1431 -->
<g id="node25" class="node"><title>configuration-modules-core#1431</title>
<a xlink:href="https://github.com/quattor/configuration-modules-core/pull/1431" xlink:title="ncm-cron: Provide schema validation to match the component code" target="_parent">
<polygon fill="#6cc644" stroke="black" points="188,-1573 16,-1573 16,-1519 188,-1519 188,-1573"/>
<text text-anchor="middle" x="102" y="-1550" font-family="Sans" font-size="10.00">pull-request</text>
<text text-anchor="middle" x="102" y="-1537" font-family="Sans" font-size="10.00">configuration-modules-core#1431</text>
</a>
</g>
<!-- configuration&#45;modules&#45;core#1429 -->
<g id="node27" class="node"><title>configuration-modules-core#1429</title>
<a xlink:href="https://github.com/quattor/configuration-modules-core/issues/1429" xlink:title="ncm-cron: Minutes field should not be optional if smear is used" target="_parent">
<ellipse fill="#6cc644" stroke="black" cx="384" cy="-1552" rx="121.122" ry="38.1838"/>
<text text-anchor="middle" x="384" y="-1556" font-family="Sans" font-size="10.00">issue</text>
<text text-anchor="middle" x="384" y="-1543" font-family="Sans" font-size="10.00">configuration-modules-core#1429</text>
</a>
</g>
<!-- configuration&#45;modules&#45;core#1431&#45;&gt;configuration&#45;modules&#45;core#1429 -->
<g id="edge22" class="edge"><title>configuration-modules-core#1431-&gt;configuration-modules-core#1429</title>
<path fill="none" stroke="black" stroke-width="2" d="M172.269,-1518.95C183.404,-1515.65 194.908,-1512.82 206,-1511 236.928,-1505.94 270.505,-1510.89 300.076,-1518.89"/>
<polygon fill="black" stroke="black" points="299.364,-1522.32 309.941,-1521.7 301.287,-1515.59 299.364,-1522.32"/>
<text text-anchor="middle" x="225" y="-1515" font-family="Sans" font-size="10.00">fixes</text>
</g>
<!-- configuration&#45;modules&#45;core#1431&#45;&gt;configuration&#45;modules&#45;core#1429 -->
<g id="edge42" class="edge"><title>configuration-modules-core#1431-&gt;configuration-modules-core#1429</title>
<path fill="none" stroke="black" stroke-width="2" d="M188.362,-1546.21C206.729,-1546.37 226.007,-1546.62 244,-1547 247.062,-1547.07 250.162,-1547.14 253.288,-1547.21"/>
<polygon fill="black" stroke="black" points="253.261,-1550.71 263.348,-1547.47 253.442,-1543.72 253.261,-1550.71"/>
<text text-anchor="middle" x="225" y="-1551" font-family="Sans" font-size="10.00">fixes</text>
</g>
<!-- configuration&#45;modules&#45;core#1431&#45;&gt;configuration&#45;modules&#45;core#1429 -->
<g id="edge44" class="edge"><title>configuration-modules-core#1431-&gt;configuration-modules-core#1429</title>
<path fill="none" stroke="black" stroke-width="2" d="M188.171,-1558.5C194.196,-1559.1 200.183,-1559.61 206,-1560 221.975,-1561.07 238.766,-1561.38 255.391,-1561.2"/>
<polygon fill="black" stroke="black" points="255.773,-1564.69 265.712,-1561.02 255.653,-1557.69 255.773,-1564.69"/>
<text text-anchor="middle" x="225" y="-1566" font-family="Sans" font-size="10.00">fixes</text>
</g>
<!-- configuration&#45;modules&#45;core#1417 -->
<g id="node28" class="node"><title>configuration-modules-core#1417</title>
<a xlink:href="https://github.com/quattor/configuration-modules-core/pull/1417" xlink:title="ncm-puppet: Document string quoting behaviour" target="_parent">
<polygon fill="#6e5494" stroke="black" points="188,-1499 16,-1499 16,-1445 188,-1445 188,-1499"/>
<text text-anchor="middle" x="102" y="-1476" font-family="Sans" font-size="10.00">pull-request</text>
<text text-anchor="middle" x="102" y="-1463" font-family="Sans" font-size="10.00">configuration-modules-core#1417</text>
</a>
</g>
<!-- configuration&#45;modules&#45;core#1416 -->
<g id="node30" class="node"><title>configuration-modules-core#1416</title>
<a xlink:href="https://github.com/quattor/configuration-modules-core/issues/1416" xlink:title="ncm-puppet: document behaviour when quoting strings" target="_parent">
<ellipse fill="#bd2c00" stroke="black" cx="384" cy="-1458" rx="121.122" ry="38.1838"/>
<text text-anchor="middle" x="384" y="-1462" font-family="Sans" font-size="10.00">issue</text>
<text text-anchor="middle" x="384" y="-1449" font-family="Sans" font-size="10.00">configuration-modules-core#1416</text>
</a>
</g>
<!-- configuration&#45;modules&#45;core#1417&#45;&gt;configuration&#45;modules&#45;core#1416 -->
<g id="edge24" class="edge"><title>configuration-modules-core#1417-&gt;configuration-modules-core#1416</title>
<path fill="none" stroke="black" stroke-width="2" d="M178.036,-1444.95C187.356,-1442.51 196.827,-1440.42 206,-1439 226.813,-1435.78 249.08,-1435.59 270.573,-1437.06"/>
<polygon fill="black" stroke="black" points="270.469,-1440.56 280.718,-1437.88 271.031,-1433.59 270.469,-1440.56"/>
<text text-anchor="middle" x="225" y="-1443" font-family="Sans" font-size="10.00">fixes</text>
</g>
<!-- configuration&#45;modules&#45;core#1417&#45;&gt;configuration&#45;modules&#45;core#1416 -->
<g id="edge46" class="edge"><title>configuration-modules-core#1417-&gt;configuration-modules-core#1416</title>
<path fill="none" stroke="black" stroke-width="2" d="M188.142,-1467.72C208.86,-1466.69 231.45,-1465.57 253.684,-1464.47"/>
<polygon fill="black" stroke="black" points="254.053,-1467.96 263.867,-1463.96 253.705,-1460.96 254.053,-1467.96"/>
<text text-anchor="middle" x="225" y="-1471" font-family="Sans" font-size="10.00">fixes</text>
</g>
<!-- configuration&#45;modules&#45;core#1402 -->
<g id="node31" class="node"><title>configuration-modules-core#1402</title>
<a xlink:href="https://github.com/quattor/configuration-modules-core/pull/1402" xlink:title="ncm-network: always enable the network service" target="_parent">
<polygon fill="#6cc644" stroke="black" points="188,-1424 16,-1424 16,-1370 188,-1370 188,-1424"/>
<text text-anchor="middle" x="102" y="-1401" font-family="Sans" font-size="10.00">pull-request</text>
<text text-anchor="middle" x="102" y="-1388" font-family="Sans" font-size="10.00">configuration-modules-core#1402</text>
</a>
</g>
<!-- configuration&#45;modules&#45;core#1372 -->
<g id="node33" class="node"><title>configuration-modules-core#1372</title>
<a xlink:href="https://github.com/quattor/configuration-modules-core/pull/1372" xlink:title="ncm-network: support ethtool channels" target="_parent">
<polygon fill="#6e5494" stroke="black" points="470,-1402 298,-1402 298,-1348 470,-1348 470,-1402"/>
<text text-anchor="middle" x="384" y="-1379" font-family="Sans" font-size="10.00">pull-request</text>
<text text-anchor="middle" x="384" y="-1366" font-family="Sans" font-size="10.00">configuration-modules-core#1372</text>
</a>
</g>
<!-- configuration&#45;modules&#45;core#1402&#45;&gt;configuration&#45;modules&#45;core#1372 -->
<g id="edge26" class="edge"><title>configuration-modules-core#1402-&gt;configuration-modules-core#1372</title>
<path fill="none" stroke="black" stroke-dasharray="5,2" d="M188.141,-1370.16C194.145,-1368.91 200.139,-1367.83 206,-1367 232.345,-1363.28 261.08,-1362.96 287.626,-1364.18"/>
<polygon fill="none" stroke="black" points="287.511,-1367.68 297.683,-1364.72 287.885,-1360.69 287.511,-1367.68"/>
<text text-anchor="middle" x="225" y="-1371" font-family="Sans" font-size="10.00">requires</text>
</g>
<!-- configuration&#45;modules&#45;core#1402&#45;&gt;configuration&#45;modules&#45;core#1372 -->
<g id="edge48" class="edge"><title>configuration-modules-core#1402-&gt;configuration-modules-core#1372</title>
<path fill="none" stroke="black" stroke-dasharray="5,2" d="M188.142,-1390.28C219.565,-1387.83 255.296,-1385.04 287.558,-1382.52"/>
<polygon fill="none" stroke="black" points="288.203,-1385.98 297.9,-1381.72 287.658,-1379.01 288.203,-1385.98"/>
<text text-anchor="middle" x="225" y="-1393" font-family="Sans" font-size="10.00">requires</text>
</g>
<!-- configuration&#45;modules&#45;core#1322 -->
<g id="node41" class="node"><title>configuration-modules-core#1322</title>
<a xlink:href="https://github.com/quattor/configuration-modules-core/pull/1322" xlink:title="ncm-network: support rules and routes using routing tables" target="_parent">
<polygon fill="#6e5494" stroke="black" points="750,-1402 578,-1402 578,-1348 750,-1348 750,-1402"/>
<text text-anchor="middle" x="664" y="-1379" font-family="Sans" font-size="10.00">pull-request</text>
<text text-anchor="middle" x="664" y="-1366" font-family="Sans" font-size="10.00">configuration-modules-core#1322</text>
</a>
</g>
<!-- configuration&#45;modules&#45;core#1372&#45;&gt;configuration&#45;modules&#45;core#1322 -->
<g id="edge32" class="edge"><title>configuration-modules-core#1372-&gt;configuration-modules-core#1322</title>
<path fill="none" stroke="black" stroke-dasharray="5,2" d="M470.294,-1375C501.177,-1375 536.171,-1375 567.836,-1375"/>
<polygon fill="none" stroke="black" points="567.991,-1378.5 577.991,-1375 567.991,-1371.5 567.991,-1378.5"/>
<text text-anchor="middle" x="542" y="-1379" font-family="Sans" font-size="10.00">requires</text>
</g>
<!-- configuration&#45;modules&#45;core#1401 -->
<g id="node34" class="node"><title>configuration-modules-core#1401</title>
<a xlink:href="https://github.com/quattor/configuration-modules-core/pull/1401" xlink:title="ncm-spma: yumdnf: initial dnf/yum4 based on yum" target="_parent">
<polygon fill="#6cc644" stroke="black" points="188,-588 16,-588 16,-534 188,-534 188,-588"/>
<text text-anchor="middle" x="102" y="-565" font-family="Sans" font-size="10.00">pull-request</text>
<text text-anchor="middle" x="102" y="-552" font-family="Sans" font-size="10.00">configuration-modules-core#1401</text>
</a>
</g>
<!-- configuration&#45;modules&#45;core#1405 -->
<g id="node36" class="node"><title>configuration-modules-core#1405</title>
<polygon fill="lightgrey" stroke="black" points="470,-98.5 298,-98.5 298,-57.5 470,-57.5 470,-98.5"/>
<text text-anchor="middle" x="384" y="-75.5" font-family="Sans" font-size="10.00">configuration-modules-core#1405</text>
</g>
<!-- configuration&#45;modules&#45;core#1401&#45;&gt;configuration&#45;modules&#45;core#1405 -->
<g id="edge28" class="edge"><title>configuration-modules-core#1401-&gt;configuration-modules-core#1405</title>
<path fill="none" stroke="black" stroke-dasharray="5,2" d="M180.398,-533.74C183.216,-531.091 185.777,-528.186 188,-525 214.089,-487.601 176.455,-149.733 206,-115 217.263,-101.76 251.785,-93.0633 287.466,-87.4519"/>
<polygon fill="none" stroke="black" points="288.168,-90.8861 297.543,-85.9498 287.136,-83.9626 288.168,-90.8861"/>
<text text-anchor="middle" x="225" y="-119" font-family="Sans" font-size="10.00">requires</text>
</g>
<!-- configuration&#45;modules&#45;core#1401&#45;&gt;configuration&#45;modules&#45;core#1405 -->
<g id="edge50" class="edge"><title>configuration-modules-core#1401-&gt;configuration-modules-core#1405</title>
<path fill="none" stroke="black" stroke-dasharray="5,2" d="M180.412,-533.749C183.226,-531.098 185.783,-528.19 188,-525 216.242,-484.366 170.502,-114.477 206,-80 231.323,-55.4055 269.486,-52.3605 303.988,-56.531"/>
<polygon fill="none" stroke="black" points="303.691,-60.0237 314.083,-57.9632 304.674,-53.0932 303.691,-60.0237"/>
<text text-anchor="middle" x="225" y="-84" font-family="Sans" font-size="10.00">requires</text>
</g>
<!-- configuration&#45;modules&#45;core#1394 -->
<g id="node37" class="node"><title>configuration-modules-core#1394</title>
<a xlink:href="https://github.com/quattor/configuration-modules-core/pull/1394" xlink:title="ncm-metaconfig generic templates" target="_parent">
<polygon fill="#6e5494" stroke="black" points="188,-1346 16,-1346 16,-1292 188,-1292 188,-1346"/>
<text text-anchor="middle" x="102" y="-1323" font-family="Sans" font-size="10.00">pull-request</text>
<text text-anchor="middle" x="102" y="-1310" font-family="Sans" font-size="10.00">configuration-modules-core#1394</text>
</a>
</g>
<!-- configuration&#45;modules&#45;core#1387 -->
<g id="node39" class="node"><title>configuration-modules-core#1387</title>
<a xlink:href="https://github.com/quattor/configuration-modules-core/pull/1387" xlink:title="ncm-metaconfig: the content should not only be a dict" target="_parent">
<polygon fill="#6e5494" stroke="black" points="470,-1330 298,-1330 298,-1276 470,-1276 470,-1330"/>
<text text-anchor="middle" x="384" y="-1307" font-family="Sans" font-size="10.00">pull-request</text>
<text text-anchor="middle" x="384" y="-1294" font-family="Sans" font-size="10.00">configuration-modules-core#1387</text>
</a>
</g>
<!-- configuration&#45;modules&#45;core#1394&#45;&gt;configuration&#45;modules&#45;core#1387 -->
<g id="edge30" class="edge"><title>configuration-modules-core#1394-&gt;configuration-modules-core#1387</title>
<path fill="none" stroke="black" stroke-dasharray="5,2" d="M188.283,-1297.52C194.254,-1296.52 200.201,-1295.66 206,-1295 232.436,-1291.99 261.201,-1291.9 287.747,-1293.12"/>
<polygon fill="none" stroke="black" points="287.633,-1296.62 297.802,-1293.65 287.999,-1289.63 287.633,-1296.62"/>
<text text-anchor="middle" x="225" y="-1299" font-family="Sans" font-size="10.00">requires</text>
</g>
<!-- configuration&#45;modules&#45;core#1394&#45;&gt;configuration&#45;modules&#45;core#1387 -->
<g id="edge52" class="edge"><title>configuration-modules-core#1394-&gt;configuration-modules-core#1387</title>
<path fill="none" stroke="black" stroke-dasharray="5,2" d="M188.142,-1314.11C219.565,-1312.33 255.296,-1310.3 287.558,-1308.47"/>
<polygon fill="none" stroke="black" points="288.115,-1311.95 297.9,-1307.89 287.718,-1304.96 288.115,-1311.95"/>
<text text-anchor="middle" x="225" y="-1317" font-family="Sans" font-size="10.00">requires</text>
</g>
<!-- configuration&#45;modules&#45;core#1341 -->
<g id="node42" class="node"><title>configuration-modules-core#1341</title>
<a xlink:href="https://github.com/quattor/configuration-modules-core/pull/1341" xlink:title="ncm-metaconfig: switch to CAF::ServiceActions" target="_parent">
<polygon fill="#6cc644" stroke="black" points="188,-516 16,-516 16,-462 188,-462 188,-516"/>
<text text-anchor="middle" x="102" y="-493" font-family="Sans" font-size="10.00">pull-request</text>
<text text-anchor="middle" x="102" y="-480" font-family="Sans" font-size="10.00">configuration-modules-core#1341</text>
</a>
</g>
<!-- CAF#267 -->
<g id="node44" class="node"><title>CAF#267</title>
<polygon fill="lightgrey" stroke="black" points="419,-40.5 349,-40.5 349,0.5 419,0.5 419,-40.5"/>
<text text-anchor="middle" x="384" y="-17.5" font-family="Sans" font-size="10.00">CAF#267</text>
</g>
<!-- configuration&#45;modules&#45;core#1341&#45;&gt;CAF#267 -->
<g id="edge34" class="edge"><title>configuration-modules-core#1341-&gt;CAF#267</title>
<path fill="none" stroke="black" stroke-dasharray="5,2" d="M104.355,-461.84C112.549,-374.021 142.822,-100.122 206,-43 241.614,-10.7994 298.843,-9.02943 338.764,-12.7234"/>
<polygon fill="none" stroke="black" points="338.454,-16.2101 348.77,-13.7958 339.2,-9.25001 338.454,-16.2101"/>
<text text-anchor="middle" x="225" y="-47" font-family="Sans" font-size="10.00">requires</text>
</g>
<!-- configuration&#45;modules&#45;core#1336 -->
<g id="node45" class="node"><title>configuration-modules-core#1336</title>
<a xlink:href="https://github.com/quattor/configuration-modules-core/pull/1336" xlink:title="ncm-network: Add support for CAF::Service actions after changes" target="_parent">
<polygon fill="#6cc644" stroke="black" points="188,-660 16,-660 16,-606 188,-606 188,-660"/>
<text text-anchor="middle" x="102" y="-637" font-family="Sans" font-size="10.00">pull-request</text>
<text text-anchor="middle" x="102" y="-624" font-family="Sans" font-size="10.00">configuration-modules-core#1336</text>
</a>
</g>
<!-- configuration&#45;modules&#45;core#1335 -->
<g id="node47" class="node"><title>configuration-modules-core#1335</title>
<a xlink:href="https://github.com/quattor/configuration-modules-core/pull/1335" xlink:title="ncm-metaconfig: Remove caf_service_action type to allow reuse" target="_parent">
<polygon fill="#6cc644" stroke="black" points="470,-654 298,-654 298,-600 470,-600 470,-654"/>
<text text-anchor="middle" x="384" y="-631" font-family="Sans" font-size="10.00">pull-request</text>
<text text-anchor="middle" x="384" y="-618" font-family="Sans" font-size="10.00">configuration-modules-core#1335</text>
</a>
</g>
<!-- configuration&#45;modules&#45;core#1336&#45;&gt;configuration&#45;modules&#45;core#1335 -->
<g id="edge36" class="edge"><title>configuration-modules-core#1336-&gt;configuration-modules-core#1335</title>
<path fill="none" stroke="black" stroke-dasharray="5,2" d="M188.142,-631.167C219.565,-630.499 255.296,-629.738 287.558,-629.052"/>
<polygon fill="none" stroke="black" points="287.977,-632.544 297.9,-628.832 287.828,-625.546 287.977,-632.544"/>
<text text-anchor="middle" x="225" y="-635" font-family="Sans" font-size="10.00">requires</text>
</g>
<!-- configuration&#45;modules&#45;core#1071 -->
<g id="node49" class="node"><title>configuration-modules-core#1071</title>
<polygon fill="lightgrey" stroke="black" points="470,-156.5 298,-156.5 298,-115.5 470,-115.5 470,-156.5"/>
<text text-anchor="middle" x="384" y="-133.5" font-family="Sans" font-size="10.00">configuration-modules-core#1071</text>
</g>
<!-- configuration&#45;modules&#45;core#1336&#45;&gt;configuration&#45;modules&#45;core#1071 -->
<g id="edge38" class="edge"><title>configuration-modules-core#1336-&gt;configuration-modules-core#1071</title>
<path fill="none" stroke="black" stroke-width="2" d="M180.409,-605.747C183.224,-603.097 185.782,-600.189 188,-597 215.812,-557.013 173.096,-194.914 206,-159 226.519,-136.604 257.221,-127.929 287.375,-125.773"/>
<polygon fill="black" stroke="black" points="287.745,-129.259 297.565,-125.281 287.408,-122.267 287.745,-129.259"/>
<text text-anchor="middle" x="225" y="-163" font-family="Sans" font-size="10.00">fixes</text>
</g>
<!-- template&#45;library&#45;core#191 -->
<g id="node51" class="node"><title>template-library-core#191</title>
<a xlink:href="https://github.com/quattor/template-library-core/pull/191" xlink:title="Allow the caf_service_action to be used by multiple components" target="_parent">
<polygon fill="#6cc644" stroke="black" points="733,-654 595,-654 595,-600 733,-600 733,-654"/>
<text text-anchor="middle" x="664" y="-631" font-family="Sans" font-size="10.00">pull-request</text>
<text text-anchor="middle" x="664" y="-618" font-family="Sans" font-size="10.00">template-library-core#191</text>
</a>
</g>
<!-- configuration&#45;modules&#45;core#1335&#45;&gt;template&#45;library&#45;core#191 -->
<g id="edge40" class="edge"><title>configuration-modules-core#1335-&gt;template-library-core#191</title>
<path fill="none" stroke="black" stroke-dasharray="5,2" d="M470.294,-627C506.71,-627 548.84,-627 584.49,-627"/>
<polygon fill="none" stroke="black" points="584.847,-630.5 594.847,-627 584.847,-623.5 584.847,-630.5"/>
<text text-anchor="middle" x="542" y="-631" font-family="Sans" font-size="10.00">requires</text>
</g>
<!-- template&#45;library&#45;core#196 -->
<g id="node58" class="node"><title>template-library-core#196</title>
<a xlink:href="https://github.com/quattor/template-library-core/pull/196" xlink:title="pan/types: Add string type for search paths" target="_parent">
<polygon fill="#6e5494" stroke="black" points="171,-1262 33,-1262 33,-1208 171,-1208 171,-1262"/>
<text text-anchor="middle" x="102" y="-1239" font-family="Sans" font-size="10.00">pull-request</text>
<text text-anchor="middle" x="102" y="-1226" font-family="Sans" font-size="10.00">template-library-core#196</text>
</a>
</g>
<!-- template&#45;library&#45;core#197 -->
<g id="node60" class="node"><title>template-library-core#197</title>
<a xlink:href="https://github.com/quattor/template-library-core/pull/197" xlink:title="pan/types: Cleanup style - lint, indentation, wrapping" target="_parent">
<polygon fill="#6e5494" stroke="black" points="453,-1258 315,-1258 315,-1204 453,-1204 453,-1258"/>
<text text-anchor="middle" x="384" y="-1235" font-family="Sans" font-size="10.00">pull-request</text>
<text text-anchor="middle" x="384" y="-1222" font-family="Sans" font-size="10.00">template-library-core#197</text>
</a>
</g>
<!-- template&#45;library&#45;core#196&#45;&gt;template&#45;library&#45;core#197 -->
<g id="edge54" class="edge"><title>template-library-core#196-&gt;template-library-core#197</title>
<path fill="none" stroke="black" stroke-dasharray="5,2" d="M171.272,-1225.89C182.849,-1224.68 194.75,-1223.65 206,-1223 238.186,-1221.15 273.666,-1222.13 304.425,-1223.95"/>
<polygon fill="none" stroke="black" points="304.463,-1227.46 314.663,-1224.59 304.903,-1220.47 304.463,-1227.46"/>
<text text-anchor="middle" x="225" y="-1227" font-family="Sans" font-size="10.00">requires</text>
</g>
<!-- template&#45;library&#45;core#196&#45;&gt;template&#45;library&#45;core#197 -->
<g id="edge56" class="edge"><title>template-library-core#196-&gt;template-library-core#197</title>
<path fill="none" stroke="black" stroke-dasharray="5,2" d="M171.088,-1235.76C182.741,-1235.86 194.715,-1235.95 206,-1236 222.889,-1236.08 227.114,-1236.3 244,-1236 263.672,-1235.65 284.892,-1235.02 304.717,-1234.32"/>
<polygon fill="none" stroke="black" points="305.073,-1237.81 314.941,-1233.96 304.821,-1230.82 305.073,-1237.81"/>
<text text-anchor="middle" x="225" y="-1241" font-family="Sans" font-size="10.00">requires</text>
</g>
<!-- template&#45;library&#45;grid#232 -->
<g id="node62" class="node"><title>template-library-grid#232</title>
<a xlink:href="https://github.com/quattor/template-library-grid/pull/232" xlink:title="arc-ce: Export arc-ce feature from aquilon at RAL" target="_parent">
<polygon fill="#6cc644" stroke="black" points="169,-989 35,-989 35,-935 169,-935 169,-989"/>
<text text-anchor="middle" x="102" y="-966" font-family="Sans" font-size="10.00">pull-request</text>
<text text-anchor="middle" x="102" y="-953" font-family="Sans" font-size="10.00">template-library-grid#232</text>
</a>
</g>
<!-- template&#45;library&#45;grid#221 -->
<g id="node64" class="node"><title>template-library-grid#221</title>
<a xlink:href="https://github.com/quattor/template-library-grid/issues/221" xlink:title="Support for new CE types (ARC CE, HTCONDOR CE)" target="_parent">
<ellipse fill="#6cc644" stroke="black" cx="384" cy="-962" rx="94.9596" ry="38.1838"/>
<text text-anchor="middle" x="384" y="-966" font-family="Sans" font-size="10.00">issue</text>
<text text-anchor="middle" x="384" y="-953" font-family="Sans" font-size="10.00">template-library-grid#221</text>
</a>
</g>
<!-- template&#45;library&#45;grid#232&#45;&gt;template&#45;library&#45;grid#221 -->
<g id="edge58" class="edge"><title>template-library-grid#232-&gt;template-library-grid#221</title>
<path fill="none" stroke="black" stroke-width="2" d="M169.546,-962C202.09,-962 241.876,-962 278.303,-962"/>
<polygon fill="black" stroke="black" points="278.479,-965.5 288.479,-962 278.479,-958.5 278.479,-965.5"/>
<text text-anchor="middle" x="225" y="-966" font-family="Sans" font-size="10.00">fixes</text>
</g>
<!-- aquilon#115 -->
<g id="node65" class="node"><title>aquilon#115</title>
<a xlink:href="https://github.com/quattor/aquilon/pull/115" xlink:title="services: insert service data early in the object template" target="_parent">
<polygon fill="#6cc644" stroke="black" points="142,-1935 62,-1935 62,-1881 142,-1881 142,-1935"/>
<text text-anchor="middle" x="102" y="-1912" font-family="Sans" font-size="10.00">pull-request</text>
<text text-anchor="middle" x="102" y="-1899" font-family="Sans" font-size="10.00">aquilon#115</text>
</a>
</g>
<!-- aquilon#109 -->
<g id="node67" class="node"><title>aquilon#109</title>
<a xlink:href="https://github.com/quattor/aquilon/issues/109" xlink:title="Why service configuration is included so late in the plenary object?" target="_parent">
<ellipse fill="#6cc644" stroke="black" cx="384" cy="-1897" rx="56.0679" ry="38.1838"/>
<text text-anchor="middle" x="384" y="-1901" font-family="Sans" font-size="10.00">issue</text>
<text text-anchor="middle" x="384" y="-1888" font-family="Sans" font-size="10.00">aquilon#109</text>
</a>
</g>
<!-- aquilon#115&#45;&gt;aquilon#109 -->
<g id="edge60" class="edge"><title>aquilon#115-&gt;aquilon#109</title>
<path fill="none" stroke="black" stroke-width="2" d="M142.104,-1906.44C187.675,-1904.66 262.773,-1901.73 317.219,-1899.6"/>
<polygon fill="black" stroke="black" points="317.619,-1903.09 327.475,-1899.2 317.347,-1896.1 317.619,-1903.09"/>
<text text-anchor="middle" x="225" y="-1907" font-family="Sans" font-size="10.00">fixes</text>
</g>
<!-- aquilon#110 -->
<g id="node68" class="node"><title>aquilon#110</title>
<a xlink:href="https://github.com/quattor/aquilon/pull/110" xlink:title="Change site and machine namespace to use continent name" target="_parent">
<polygon fill="#6cc644" stroke="black" points="142,-1769 62,-1769 62,-1715 142,-1715 142,-1769"/>
<text text-anchor="middle" x="102" y="-1746" font-family="Sans" font-size="10.00">pull-request</text>
<text text-anchor="middle" x="102" y="-1733" font-family="Sans" font-size="10.00">aquilon#110</text>
</a>
</g>
<!-- aquilon#104 -->
<g id="node70" class="node"><title>aquilon#104</title>
<a xlink:href="https://github.com/quattor/aquilon/issues/104" xlink:title="1.12.62: location related templates cannot be used" target="_parent">
<ellipse fill="#6cc644" stroke="black" cx="384" cy="-1789" rx="56.0679" ry="38.1838"/>
<text text-anchor="middle" x="384" y="-1793" font-family="Sans" font-size="10.00">issue</text>
<text text-anchor="middle" x="384" y="-1780" font-family="Sans" font-size="10.00">aquilon#104</text>
</a>
</g>
<!-- aquilon#110&#45;&gt;aquilon#104 -->
<g id="edge62" class="edge"><title>aquilon#110-&gt;aquilon#104</title>
<path fill="none" stroke="black" stroke-width="2" d="M142.104,-1748.68C188.199,-1756.37 264.504,-1769.08 319.09,-1778.18"/>
<polygon fill="black" stroke="black" points="318.578,-1781.64 329.017,-1779.84 319.729,-1774.74 318.578,-1781.64"/>
<text text-anchor="middle" x="225" y="-1770" font-family="Sans" font-size="10.00">fixes</text>
</g>
<!-- aquilon#91 -->
<g id="node71" class="node"><title>aquilon#91</title>
<a xlink:href="https://github.com/quattor/aquilon/issues/91" xlink:title="1.12.58: city timezone is not passed to the object template" target="_parent">
<ellipse fill="#6cc644" stroke="black" cx="102" cy="-1825" rx="53.033" ry="38.1838"/>
<text text-anchor="middle" x="102" y="-1829" font-family="Sans" font-size="10.00">issue</text>
<text text-anchor="middle" x="102" y="-1816" font-family="Sans" font-size="10.00">aquilon#91</text>
</a>
</g>
<!-- aquilon#91&#45;&gt;aquilon#104 -->
<g id="edge64" class="edge"><title>aquilon#91-&gt;aquilon#104</title>
<path fill="none" stroke="black" stroke-dasharray="5,2" d="M154.381,-1818.31C200.576,-1812.42 268.113,-1803.79 317.991,-1797.43"/>
<polygon fill="none" stroke="black" points="318.559,-1800.88 328.036,-1796.14 317.673,-1793.94 318.559,-1800.88"/>
<text text-anchor="middle" x="225" y="-1815" font-family="Sans" font-size="10.00">requires</text>
</g>
<!-- aquilon#89 -->
<g id="node73" class="node"><title>aquilon#89</title>
<a xlink:href="https://github.com/quattor/aquilon/pull/89" xlink:title="Broker: pass archetype to the object profile" target="_parent">
<polygon fill="#6cc644" stroke="black" points="141,-1697 63,-1697 63,-1643 141,-1643 141,-1697"/>
<text text-anchor="middle" x="102" y="-1674" font-family="Sans" font-size="10.00">pull-request</text>
<text text-anchor="middle" x="102" y="-1661" font-family="Sans" font-size="10.00">aquilon#89</text>
</a>
</g>
<!-- aquilon#88 -->
<g id="node75" class="node"><title>aquilon#88</title>
<a xlink:href="https://github.com/quattor/aquilon/issues/88" xlink:title="1.12.58: the broker should pass the archetype to the object template" target="_parent">
<ellipse fill="#6cc644" stroke="black" cx="384" cy="-1681" rx="53.033" ry="38.1838"/>
<text text-anchor="middle" x="384" y="-1685" font-family="Sans" font-size="10.00">issue</text>
<text text-anchor="middle" x="384" y="-1672" font-family="Sans" font-size="10.00">aquilon#88</text>
</a>
</g>
<!-- aquilon#89&#45;&gt;aquilon#88 -->
<g id="edge66" class="edge"><title>aquilon#89-&gt;aquilon#88</title>
<path fill="none" stroke="black" stroke-width="2" d="M141.508,-1671.54C188.003,-1673.35 265.82,-1676.39 320.743,-1678.53"/>
<polygon fill="black" stroke="black" points="320.934,-1682.04 331.062,-1678.94 321.206,-1675.05 320.934,-1682.04"/>
<text text-anchor="middle" x="225" y="-1680" font-family="Sans" font-size="10.00">fixes</text>
</g>
</g>
</svg>
