<?xml version="1.0" encoding="UTF-8" standalone="no"?>
<?xml-stylesheet href="relationships.css" type="text/css"?>
<!-- Generated by graphviz version 2.26.0 (20091210.2329)
 -->
<!-- Title: Dependencies Pages: 1 -->
<svg xmlns="http://www.w3.org/2000/svg" xmlns:xlink="http://www.w3.org/1999/xlink" width="578pt" height="1283pt" viewBox="0.00 0.00 578.00 1283.00">
<g id="graph1" class="graph" transform="scale(1 1) rotate(0) translate(4 1279)">
<title>Dependencies</title>
<polygon fill="white" stroke="white" points="-4,5 -4,-1279 575,-1279 575,5 -4,5"/>
<g id="graph3" class="cluster"><title>cluster_18.3</title>
<polygon fill="none" stroke="black" points="24,-108 24,-838 562,-838 562,-108 24,-108"/>
<text text-anchor="middle" x="293" y="-823.2" font-family="Sans" font-size="12.00">18.3</text>
</g>
<!-- aii#210 -->
<g id="node1" class="node"><title>aii#210</title>
<a xlink:href="https://github.com/quattor/aii/pull/210" xlink:title="Shellfe: support active config for plugins" target="_parent">
<polygon fill="#6cc644" stroke="black" points="157,-723 79,-723 79,-669 157,-669 157,-723"/>
<text text-anchor="middle" x="118" y="-700" font-family="Sans" font-size="10.00">pull-request</text>
<text text-anchor="middle" x="118" y="-687" font-family="Sans" font-size="10.00">aii#210</text>
</a>
</g>
<!-- aii#209 -->
<g id="node3" class="node"><title>aii#209</title>
<a xlink:href="https://github.com/quattor/aii/issues/209" xlink:title="support ACTIVE_CONFIG" target="_parent">
<ellipse fill="#6cc644" stroke="black" cx="432" cy="-696" rx="41.2167" ry="38.1838"/>
<text text-anchor="middle" x="432" y="-700" font-family="Sans" font-size="10.00">issue</text>
<text text-anchor="middle" x="432" y="-687" font-family="Sans" font-size="10.00">aii#209</text>
</a>
</g>
<!-- aii#210&#45;&gt;aii#209 -->
<g id="edge2" class="edge"><title>aii#210-&gt;aii#209</title>
<path fill="none" stroke="black" stroke-width="2" d="M157.768,-696C214.279,-696 317.868,-696 380.284,-696"/>
<polygon fill="black" stroke="black" points="380.31,-699.5 390.31,-696 380.31,-692.5 380.31,-699.5"/>
<text text-anchor="middle" x="273" y="-700" font-family="Sans" font-size="10.00">fixes</text>
</g>
<!-- ncm&#45;ncd#74 -->
<g id="node5" class="node"><title>ncm-ncd#74</title>
<a xlink:href="https://github.com/quattor/ncm-ncd/pull/74" xlink:title="Set the current active config as an attribute to the component" target="_parent">
<polygon fill="#6cc644" stroke="black" points="473,-806 391,-806 391,-752 473,-752 473,-806"/>
<text text-anchor="middle" x="432" y="-783" font-family="Sans" font-size="10.00">pull-request</text>
<text text-anchor="middle" x="432" y="-770" font-family="Sans" font-size="10.00">ncm-ncd#74</text>
</a>
</g>
<!-- aii#210&#45;&gt;ncm&#45;ncd#74 -->
<g id="edge4" class="edge"><title>aii#210-&gt;ncm-ncd#74</title>
<path fill="none" stroke="black" stroke-dasharray="5,2" d="M157.609,-706.38C180.517,-712.39 209.889,-720.106 236,-727 285.266,-740.007 341.475,-754.927 381.028,-765.441"/>
<polygon fill="none" stroke="black" points="380.148,-768.828 390.711,-768.015 381.946,-762.063 380.148,-768.828"/>
<text text-anchor="middle" x="273" y="-746" font-family="Sans" font-size="10.00">requires</text>
</g>
<!-- aii#203 -->
<g id="node7" class="node"><title>aii#203</title>
<polygon fill="lightgrey" stroke="black" points="461,-98.5 403,-98.5 403,-57.5 461,-57.5 461,-98.5"/>
<text text-anchor="middle" x="432" y="-75.5" font-family="Sans" font-size="10.00">aii#203</text>
</g>
<!-- aii#210&#45;&gt;aii#203 -->
<g id="edge6" class="edge"><title>aii#210-&gt;aii#203</title>
<path fill="none" stroke="black" stroke-dasharray="5,2" d="M157.577,-690.386C184.487,-684.312 218.301,-671.768 236,-646 269.612,-597.064 215.398,-157.104 254,-112 287.474,-72.8874 350.88,-69.8844 392.277,-72.8092"/>
<polygon fill="none" stroke="black" points="392.035,-76.3012 402.296,-73.6622 392.629,-69.3264 392.035,-76.3012"/>
<text text-anchor="middle" x="273" y="-116" font-family="Sans" font-size="10.00">requires</text>
</g>
<!-- CAF#257 -->
<g id="node8" class="node"><title>CAF#257</title>
<a xlink:href="https://github.com/quattor/CAF/pull/257" xlink:title="Process: run process as another user" target="_parent">
<polygon fill="#6cc644" stroke="black" points="157,-637 79,-637 79,-583 157,-583 157,-637"/>
<text text-anchor="middle" x="118" y="-614" font-family="Sans" font-size="10.00">pull-request</text>
<text text-anchor="middle" x="118" y="-601" font-family="Sans" font-size="10.00">CAF#257</text>
</a>
</g>
<!-- CAF#253 -->
<g id="node10" class="node"><title>CAF#253</title>
<a xlink:href="https://github.com/quattor/CAF/issues/253" xlink:title="CAF::Process: Include an option to execute the command as an specific user" target="_parent">
<ellipse fill="#6cc644" stroke="black" cx="432" cy="-602" rx="48.9975" ry="38.1838"/>
<text text-anchor="middle" x="432" y="-606" font-family="Sans" font-size="10.00">issue</text>
<text text-anchor="middle" x="432" y="-593" font-family="Sans" font-size="10.00">CAF#253</text>
</a>
</g>
<!-- CAF#257&#45;&gt;CAF#253 -->
<g id="edge8" class="edge"><title>CAF#257-&gt;CAF#253</title>
<path fill="none" stroke="black" stroke-width="2" d="M157.768,-608.987C211.934,-607.607 309.353,-605.125 372.308,-603.521"/>
<polygon fill="black" stroke="black" points="372.58,-607.015 382.488,-603.261 372.402,-600.017 372.58,-607.015"/>
<text text-anchor="middle" x="273" y="-611" font-family="Sans" font-size="10.00">fixes</text>
</g>
<!-- CAF#110 -->
<g id="node11" class="node"><title>CAF#110</title>
<a xlink:href="https://github.com/quattor/CAF/pull/110" xlink:title="Download: API proposal" target="_parent">
<polygon fill="#6cc644" stroke="black" points="157,-900 79,-900 79,-846 157,-846 157,-900"/>
<text text-anchor="middle" x="118" y="-877" font-family="Sans" font-size="10.00">pull-request</text>
<text text-anchor="middle" x="118" y="-864" font-family="Sans" font-size="10.00">CAF#110</text>
</a>
</g>
<!-- CAF#120 -->
<g id="node13" class="node"><title>CAF#120</title>
<polygon fill="lightgrey" stroke="black" points="467,-893.5 397,-893.5 397,-852.5 467,-852.5 467,-893.5"/>
<text text-anchor="middle" x="432" y="-870.5" font-family="Sans" font-size="10.00">CAF#120</text>
</g>
<!-- CAF#110&#45;&gt;CAF#120 -->
<g id="edge10" class="edge"><title>CAF#110-&gt;CAF#120</title>
<path fill="none" stroke="black" stroke-dasharray="5,2" d="M157.768,-873C216.269,-873 325.221,-873 386.719,-873"/>
<polygon fill="none" stroke="black" points="386.897,-876.5 396.897,-873 386.897,-869.5 386.897,-876.5"/>
<text text-anchor="middle" x="273" y="-877" font-family="Sans" font-size="10.00">requires</text>
</g>
<!-- configuration&#45;modules&#45;core#1230 -->
<g id="node14" class="node"><title>configuration-modules-core#1230</title>
<a xlink:href="https://github.com/quattor/configuration-modules-core/pull/1230" xlink:title="ncm-ceph: support for luminous, bluestore, ceph-volume and per host osd deployment" target="_parent">
<polygon fill="#6cc644" stroke="black" points="204,-170 32,-170 32,-116 204,-116 204,-170"/>
<text text-anchor="middle" x="118" y="-147" font-family="Sans" font-size="10.00">pull-request</text>
<text text-anchor="middle" x="118" y="-134" font-family="Sans" font-size="10.00">configuration-modules-core#1230</text>
</a>
</g>
<!-- configuration&#45;modules&#45;core#1224 -->
<g id="node16" class="node"><title>configuration-modules-core#1224</title>
<polygon fill="lightgrey" stroke="black" points="518,-40.5 346,-40.5 346,0.5 518,0.5 518,-40.5"/>
<text text-anchor="middle" x="432" y="-17.5" font-family="Sans" font-size="10.00">configuration-modules-core#1224</text>
</g>
<!-- configuration&#45;modules&#45;core#1230&#45;&gt;configuration&#45;modules&#45;core#1224 -->
<g id="edge28" class="edge"><title>configuration-modules-core#1230-&gt;configuration-modules-core#1224</title>
<path fill="none" stroke="black" stroke-dasharray="1,5" d="M144.402,-115.975C169.976,-91.6384 211.092,-57.14 254,-40 279.479,-29.8222 308.538,-24.2842 335.684,-21.3968"/>
<polygon fill="black" stroke="black" points="345.982,-20.4158 336.454,-25.8439 341.005,-20.89 336.027,-21.3642 336.027,-21.3642 336.027,-21.3642 341.005,-20.89 335.601,-16.8844 345.982,-20.4158 345.982,-20.4158"/>
<text text-anchor="middle" x="273" y="-44" font-family="Sans" font-size="10.00">replaces</text>
</g>
<!-- configuration&#45;modules&#45;core#1230&#45;&gt;configuration&#45;modules&#45;core#1224 -->
<g id="edge44" class="edge"><title>configuration-modules-core#1230-&gt;configuration-modules-core#1224</title>
<path fill="none" stroke="black" stroke-dasharray="1,5" d="M136.03,-115.919C159.047,-84.073 202.162,-32.9058 254,-12 279.312,-1.7921 308.319,0.429413 335.468,-1.04304"/>
<polygon fill="black" stroke="black" points="345.771,-1.77928 335.475,-5.55494 340.783,-1.42284 335.796,-1.06639 335.796,-1.06639 335.796,-1.06639 340.783,-1.42284 336.117,3.42216 345.771,-1.77928 345.771,-1.77928"/>
<text text-anchor="middle" x="273" y="-16" font-family="Sans" font-size="10.00">replaces</text>
</g>
<!-- configuration&#45;modules&#45;core#1230&#45;&gt;configuration&#45;modules&#45;core#1224 -->
<g id="edge12" class="edge"><title>configuration-modules-core#1230-&gt;configuration-modules-core#1224</title>
<path fill="none" stroke="black" stroke-dasharray="1,5" d="M163.315,-115.918C201.227,-94.4792 257.411,-65.4901 310,-49 318.467,-46.3451 327.33,-43.8005 336.249,-41.3984"/>
<polygon fill="black" stroke="black" points="345.932,-38.8492 337.407,-45.7468 341.097,-40.1221 336.262,-41.395 336.262,-41.395 336.262,-41.395 341.097,-40.1221 335.116,-37.0433 345.932,-38.8492 345.932,-38.8492"/>
<text text-anchor="middle" x="273" y="-74" font-family="Sans" font-size="10.00">replaces</text>
</g>
<!-- configuration&#45;modules&#45;core#1220 -->
<g id="node17" class="node"><title>configuration-modules-core#1220</title>
<a xlink:href="https://github.com/quattor/configuration-modules-core/pull/1220" xlink:title="ncm-cups: Stop daemon if server not enabled" target="_parent">
<polygon fill="#6cc644" stroke="black" points="204,-565 32,-565 32,-511 204,-511 204,-565"/>
<text text-anchor="middle" x="118" y="-542" font-family="Sans" font-size="10.00">pull-request</text>
<text text-anchor="middle" x="118" y="-529" font-family="Sans" font-size="10.00">configuration-modules-core#1220</text>
</a>
</g>
<!-- configuration&#45;modules&#45;core#1189 -->
<g id="node19" class="node"><title>configuration-modules-core#1189</title>
<a xlink:href="https://github.com/quattor/configuration-modules-core/issues/1189" xlink:title="ncm-cups: Nodetype of client should stop running cups daemon" target="_parent">
<ellipse fill="#6cc644" stroke="black" cx="432" cy="-508" rx="121.122" ry="38.1838"/>
<text text-anchor="middle" x="432" y="-512" font-family="Sans" font-size="10.00">issue</text>
<text text-anchor="middle" x="432" y="-499" font-family="Sans" font-size="10.00">configuration-modules-core#1189</text>
</a>
</g>
<!-- configuration&#45;modules&#45;core#1220&#45;&gt;configuration&#45;modules&#45;core#1189 -->
<g id="edge30" class="edge"><title>configuration-modules-core#1220-&gt;configuration-modules-core#1189</title>
<path fill="none" stroke="black" stroke-width="2" d="M204.065,-512.379C220.502,-508.478 237.674,-505.067 254,-503 269.874,-500.99 286.605,-499.997 303.198,-499.693"/>
<polygon fill="black" stroke="black" points="303.539,-503.189 313.503,-499.589 303.468,-496.19 303.539,-503.189"/>
<text text-anchor="middle" x="273" y="-507" font-family="Sans" font-size="10.00">fixes</text>
</g>
<!-- configuration&#45;modules&#45;core#1220&#45;&gt;configuration&#45;modules&#45;core#1189 -->
<g id="edge46" class="edge"><title>configuration-modules-core#1220-&gt;configuration-modules-core#1189</title>
<path fill="none" stroke="black" stroke-width="2" d="M204.217,-529.763C235.531,-526.771 271.596,-523.325 305.658,-520.071"/>
<polygon fill="black" stroke="black" points="306.058,-523.549 315.68,-519.113 305.392,-516.58 306.058,-523.549"/>
<text text-anchor="middle" x="273" y="-529" font-family="Sans" font-size="10.00">fixes</text>
</g>
<!-- configuration&#45;modules&#45;core#1220&#45;&gt;configuration&#45;modules&#45;core#1189 -->
<g id="edge14" class="edge"><title>configuration-modules-core#1220-&gt;configuration-modules-core#1189</title>
<path fill="none" stroke="black" stroke-width="2" d="M204.132,-552.828C232.244,-555.564 263.542,-556.367 292,-552 309.052,-549.384 326.877,-545.073 343.874,-540.148"/>
<polygon fill="black" stroke="black" points="345.198,-543.405 353.774,-537.185 343.191,-536.699 345.198,-543.405"/>
<text text-anchor="middle" x="273" y="-560" font-family="Sans" font-size="10.00">fixes</text>
</g>
<!-- configuration&#45;modules&#45;core#1105 -->
<g id="node20" class="node"><title>configuration-modules-core#1105</title>
<a xlink:href="https://github.com/quattor/configuration-modules-core/pull/1105" xlink:title="ncm-authconfig: fix krb5_realm, user_object_class and newline between ldap_krb5_canonicalize and ldap_krb5_realm" target="_parent">
<polygon fill="#6cc644" stroke="black" points="204,-349 32,-349 32,-295 204,-295 204,-349"/>
<text text-anchor="middle" x="118" y="-326" font-family="Sans" font-size="10.00">pull-request</text>
<text text-anchor="middle" x="118" y="-313" font-family="Sans" font-size="10.00">configuration-modules-core#1105</text>
</a>
</g>
<!-- configuration&#45;modules&#45;core#1100 -->
<g id="node22" class="node"><title>configuration-modules-core#1100</title>
<a xlink:href="https://github.com/quattor/configuration-modules-core/issues/1100" xlink:title="ncm-authconfig : no newline after krb5_canonicalize option" target="_parent">
<ellipse fill="#6cc644" stroke="black" cx="432" cy="-320" rx="121.122" ry="38.1838"/>
<text text-anchor="middle" x="432" y="-324" font-family="Sans" font-size="10.00">issue</text>
<text text-anchor="middle" x="432" y="-311" font-family="Sans" font-size="10.00">configuration-modules-core#1100</text>
</a>
</g>
<!-- configuration&#45;modules&#45;core#1105&#45;&gt;configuration&#45;modules&#45;core#1100 -->
<g id="edge32" class="edge"><title>configuration-modules-core#1105-&gt;configuration-modules-core#1100</title>
<path fill="none" stroke="black" stroke-width="2" d="M204.217,-321.451C233.916,-321.262 267.888,-321.045 300.372,-320.838"/>
<polygon fill="black" stroke="black" points="300.421,-324.338 310.399,-320.775 300.377,-317.338 300.421,-324.338"/>
<text text-anchor="middle" x="273" y="-326" font-family="Sans" font-size="10.00">fixes</text>
</g>
<!-- configuration&#45;modules&#45;core#1105&#45;&gt;configuration&#45;modules&#45;core#1100 -->
<g id="edge48" class="edge"><title>configuration-modules-core#1105-&gt;configuration-modules-core#1100</title>
<path fill="none" stroke="black" stroke-width="2" d="M204.231,-332.223C220.729,-333.797 237.881,-335.173 254,-336 272.124,-336.93 291.257,-336.6 309.993,-335.538"/>
<polygon fill="black" stroke="black" points="310.291,-339.026 320.048,-334.896 309.846,-332.04 310.291,-339.026"/>
<text text-anchor="middle" x="273" y="-341" font-family="Sans" font-size="10.00">fixes</text>
</g>
<!-- configuration&#45;modules&#45;core#1105&#45;&gt;configuration&#45;modules&#45;core#1100 -->
<g id="edge16" class="edge"><title>configuration-modules-core#1105-&gt;configuration-modules-core#1100</title>
<path fill="none" stroke="black" stroke-width="2" d="M204.065,-296.379C220.502,-292.478 237.674,-289.067 254,-287 280.681,-283.622 309.412,-286.189 335.842,-291.104"/>
<polygon fill="black" stroke="black" points="335.36,-294.577 345.85,-293.096 336.726,-287.711 335.36,-294.577"/>
<text text-anchor="middle" x="273" y="-291" font-family="Sans" font-size="10.00">fixes</text>
</g>
<!-- configuration&#45;modules&#45;core#1102 -->
<g id="node24" class="node"><title>configuration-modules-core#1102</title>
<a xlink:href="https://github.com/quattor/configuration-modules-core/issues/1102" xlink:title="ncm-authconfig: There is no " target="_parent">
<ellipse fill="#6cc644" stroke="black" cx="432" cy="-414" rx="121.122" ry="38.1838"/>
<text text-anchor="middle" x="432" y="-418" font-family="Sans" font-size="10.00">issue</text>
<text text-anchor="middle" x="432" y="-405" font-family="Sans" font-size="10.00">configuration-modules-core#1102</text>
</a>
</g>
<!-- configuration&#45;modules&#45;core#1105&#45;&gt;configuration&#45;modules&#45;core#1102 -->
<g id="edge34" class="edge"><title>configuration-modules-core#1105-&gt;configuration-modules-core#1102</title>
<path fill="none" stroke="black" stroke-width="2" d="M204.217,-347.261C244.22,-358.982 291.978,-372.974 333.407,-385.113"/>
<polygon fill="black" stroke="black" points="332.661,-388.541 343.242,-387.994 334.629,-381.824 332.661,-388.541"/>
<text text-anchor="middle" x="273" y="-375" font-family="Sans" font-size="10.00">fixes</text>
</g>
<!-- configuration&#45;modules&#45;core#1105&#45;&gt;configuration&#45;modules&#45;core#1102 -->
<g id="edge50" class="edge"><title>configuration-modules-core#1105-&gt;configuration-modules-core#1102</title>
<path fill="none" stroke="black" stroke-width="2" d="M164.687,-349.081C190.28,-362.775 223.021,-378.47 254,-388 270.469,-393.066 288.107,-397.156 305.645,-400.456"/>
<polygon fill="black" stroke="black" points="305.488,-403.983 315.95,-402.308 306.727,-397.094 305.488,-403.983"/>
<text text-anchor="middle" x="273" y="-401" font-family="Sans" font-size="10.00">fixes</text>
</g>
<!-- configuration&#45;modules&#45;core#1105&#45;&gt;configuration&#45;modules&#45;core#1102 -->
<g id="edge18" class="edge"><title>configuration-modules-core#1105-&gt;configuration-modules-core#1102</title>
<path fill="none" stroke="black" stroke-width="2" d="M137.946,-349.117C161.728,-378.915 204.53,-425.063 254,-444 283.187,-455.173 316.647,-453.088 346.621,-446.38"/>
<polygon fill="black" stroke="black" points="347.753,-449.706 356.641,-443.94 346.097,-442.905 347.753,-449.706"/>
<text text-anchor="middle" x="273" y="-456" font-family="Sans" font-size="10.00">fixes</text>
</g>
<!-- configuration&#45;modules&#45;core#1103 -->
<g id="node26" class="node"><title>configuration-modules-core#1103</title>
<a xlink:href="https://github.com/quattor/configuration-modules-core/issues/1103" xlink:title="ncm-authconfig: krb5_realm = ARRAY(0x39a5830)" target="_parent">
<ellipse fill="#6cc644" stroke="black" cx="432" cy="-226" rx="121.122" ry="38.1838"/>
<text text-anchor="middle" x="432" y="-230" font-family="Sans" font-size="10.00">issue</text>
<text text-anchor="middle" x="432" y="-217" font-family="Sans" font-size="10.00">configuration-modules-core#1103</text>
</a>
</g>
<!-- configuration&#45;modules&#45;core#1105&#45;&gt;configuration&#45;modules&#45;core#1103 -->
<g id="edge36" class="edge"><title>configuration-modules-core#1105-&gt;configuration-modules-core#1103</title>
<path fill="none" stroke="black" stroke-width="2" d="M182.972,-294.913C202.549,-283.895 222.418,-269.354 236,-251 255.62,-224.485 228.001,-199.299 254,-179 267.312,-168.606 275.332,-176.277 292,-179 310.254,-181.982 329.337,-187.016 347.333,-192.708"/>
<polygon fill="black" stroke="black" points="346.615,-196.155 357.207,-195.93 348.786,-189.5 346.615,-196.155"/>
<text text-anchor="middle" x="273" y="-183" font-family="Sans" font-size="10.00">fixes</text>
</g>
<!-- configuration&#45;modules&#45;core#1105&#45;&gt;configuration&#45;modules&#45;core#1103 -->
<g id="edge52" class="edge"><title>configuration-modules-core#1105-&gt;configuration-modules-core#1103</title>
<path fill="none" stroke="black" stroke-width="2" d="M162.562,-294.836C198.331,-273.249 244.153,-246.162 254,-243 268.931,-238.205 284.9,-234.641 300.916,-232.008"/>
<polygon fill="black" stroke="black" points="301.529,-235.455 310.886,-230.486 300.473,-228.535 301.529,-235.455"/>
<text text-anchor="middle" x="273" y="-247" font-family="Sans" font-size="10.00">fixes</text>
</g>
<!-- configuration&#45;modules&#45;core#1105&#45;&gt;configuration&#45;modules&#45;core#1103 -->
<g id="edge20" class="edge"><title>configuration-modules-core#1105-&gt;configuration-modules-core#1103</title>
<path fill="none" stroke="black" stroke-width="2" d="M182.05,-294.994C204.564,-286.049 230.186,-276.479 254,-269 275.797,-262.154 299.384,-255.763 322.038,-250.111"/>
<polygon fill="black" stroke="black" points="323.152,-253.441 332.025,-247.651 321.478,-246.645 323.152,-253.441"/>
<text text-anchor="middle" x="273" y="-273" font-family="Sans" font-size="10.00">fixes</text>
</g>
<!-- configuration&#45;modules&#45;core#1148 -->
<g id="node27" class="node"><title>configuration-modules-core#1148</title>
<a xlink:href="https://github.com/quattor/configuration-modules-core/pull/1148" xlink:title="ncm-spma: Remove support from groups from spma yumng backend" target="_parent">
<polygon fill="#6cc644" stroke="black" points="204,-1192 32,-1192 32,-1138 204,-1138 204,-1192"/>
<text text-anchor="middle" x="118" y="-1169" font-family="Sans" font-size="10.00">pull-request</text>
<text text-anchor="middle" x="118" y="-1156" font-family="Sans" font-size="10.00">configuration-modules-core#1148</text>
</a>
</g>
<!-- configuration&#45;modules&#45;core#952 -->
<g id="node29" class="node"><title>configuration-modules-core#952</title>
<a xlink:href="https://github.com/quattor/configuration-modules-core/issues/952" xlink:title="ncm-spma (yumng): Remove support for package groups" target="_parent">
<ellipse fill="#6cc644" stroke="black" cx="432" cy="-1111" rx="118.087" ry="38.1838"/>
<text text-anchor="middle" x="432" y="-1115" font-family="Sans" font-size="10.00">issue</text>
<text text-anchor="middle" x="432" y="-1102" font-family="Sans" font-size="10.00">configuration-modules-core#952</text>
</a>
</g>
<!-- configuration&#45;modules&#45;core#1148&#45;&gt;configuration&#45;modules&#45;core#952 -->
<g id="edge22" class="edge"><title>configuration-modules-core#1148-&gt;configuration-modules-core#952</title>
<path fill="none" stroke="black" stroke-width="2" d="M204.281,-1140.79C220.697,-1136.75 237.806,-1132.93 254,-1130 271.288,-1126.87 289.621,-1124.2 307.693,-1121.93"/>
<polygon fill="black" stroke="black" points="308.195,-1125.39 317.699,-1120.71 307.349,-1118.44 308.195,-1125.39"/>
<text text-anchor="middle" x="273" y="-1134" font-family="Sans" font-size="10.00">fixes</text>
</g>
<!-- configuration&#45;modules&#45;core#1148&#45;&gt;configuration&#45;modules&#45;core#952 -->
<g id="edge38" class="edge"><title>configuration-modules-core#1148-&gt;configuration-modules-core#952</title>
<path fill="none" stroke="black" stroke-width="2" d="M204.162,-1182.26C232.418,-1185.19 263.794,-1185.49 292,-1179 318.153,-1172.98 345.085,-1161.4 368.255,-1149.48"/>
<polygon fill="black" stroke="black" points="370.06,-1152.48 377.273,-1144.72 366.795,-1146.29 370.06,-1152.48"/>
<text text-anchor="middle" x="273" y="-1187" font-family="Sans" font-size="10.00">fixes</text>
</g>
<!-- configuration&#45;modules&#45;core#1148&#45;&gt;configuration&#45;modules&#45;core#952 -->
<g id="edge54" class="edge"><title>configuration-modules-core#1148-&gt;configuration-modules-core#952</title>
<path fill="none" stroke="black" stroke-width="2" d="M204.102,-1155.82C232.212,-1152.37 263.517,-1148.04 292,-1143 303.604,-1140.95 315.695,-1138.56 327.699,-1136.03"/>
<polygon fill="black" stroke="black" points="328.702,-1139.4 337.748,-1133.88 327.237,-1132.55 328.702,-1139.4"/>
<text text-anchor="middle" x="273" y="-1153" font-family="Sans" font-size="10.00">fixes</text>
</g>
<!-- configuration&#45;modules&#45;core#950 -->
<g id="node30" class="node"><title>configuration-modules-core#950</title>
<a xlink:href="https://github.com/quattor/configuration-modules-core/issues/950" xlink:title="ncm-spma: Remove support for package groups from yum backends" target="_parent">
<ellipse fill="#6cc644" stroke="black" cx="118" cy="-1003" rx="118.087" ry="38.1838"/>
<text text-anchor="middle" x="118" y="-1007" font-family="Sans" font-size="10.00">issue</text>
<text text-anchor="middle" x="118" y="-994" font-family="Sans" font-size="10.00">configuration-modules-core#950</text>
</a>
</g>
<!-- configuration&#45;modules&#45;core#950&#45;&gt;configuration&#45;modules&#45;core#952 -->
<g id="edge26" class="edge"><title>configuration-modules-core#950-&gt;configuration-modules-core#952</title>
<path fill="none" stroke="black" stroke-dasharray="5,2" d="M235.235,-1008.38C254.537,-1011.36 274.079,-1015.71 292,-1022 323.253,-1032.97 354.678,-1052.04 379.815,-1069.73"/>
<polygon fill="none" stroke="black" points="377.922,-1072.68 388.089,-1075.66 382,-1066.99 377.922,-1072.68"/>
<text text-anchor="middle" x="273" y="-1026" font-family="Sans" font-size="10.00">requires</text>
</g>
<!-- configuration&#45;modules&#45;core#950&#45;&gt;configuration&#45;modules&#45;core#952 -->
<g id="edge42" class="edge"><title>configuration-modules-core#950-&gt;configuration-modules-core#952</title>
<path fill="none" stroke="black" stroke-dasharray="5,2" d="M176.545,-1036.18C200.057,-1048.46 227.766,-1061.65 254,-1071 274.698,-1078.38 297.25,-1084.69 319.132,-1089.98"/>
<polygon fill="none" stroke="black" points="318.592,-1093.45 329.129,-1092.34 320.199,-1086.64 318.592,-1093.45"/>
<text text-anchor="middle" x="273" y="-1086" font-family="Sans" font-size="10.00">requires</text>
</g>
<!-- configuration&#45;modules&#45;core#950&#45;&gt;configuration&#45;modules&#45;core#952 -->
<g id="edge58" class="edge"><title>configuration-modules-core#950-&gt;configuration-modules-core#952</title>
<path fill="none" stroke="black" stroke-dasharray="5,2" d="M208.415,-1027.61C235.478,-1035.49 265.103,-1044.61 292,-1054 311.482,-1060.8 332.205,-1068.8 351.568,-1076.62"/>
<polygon fill="none" stroke="black" points="350.371,-1079.92 360.952,-1080.44 353.009,-1073.43 350.371,-1079.92"/>
<text text-anchor="middle" x="273" y="-1058" font-family="Sans" font-size="10.00">requires</text>
</g>
<!-- configuration&#45;modules&#45;core#951 -->
<g id="node32" class="node"><title>configuration-modules-core#951</title>
<a xlink:href="https://github.com/quattor/configuration-modules-core/issues/951" xlink:title="ncm-spma (yum): Remove support for package groups" target="_parent">
<ellipse fill="#6cc644" stroke="black" cx="432" cy="-949" rx="118.087" ry="38.1838"/>
<text text-anchor="middle" x="432" y="-953" font-family="Sans" font-size="10.00">issue</text>
<text text-anchor="middle" x="432" y="-940" font-family="Sans" font-size="10.00">configuration-modules-core#951</text>
</a>
</g>
<!-- configuration&#45;modules&#45;core#950&#45;&gt;configuration&#45;modules&#45;core#951 -->
<g id="edge24" class="edge"><title>configuration-modules-core#950-&gt;configuration-modules-core#951</title>
<path fill="none" stroke="black" stroke-dasharray="5,2" d="M184.347,-971.555C206.051,-962.798 230.602,-954.466 254,-950 270.367,-946.876 287.736,-945.023 304.958,-944.046"/>
<polygon fill="none" stroke="black" points="305.249,-947.536 315.073,-943.568 304.919,-940.544 305.249,-947.536"/>
<text text-anchor="middle" x="273" y="-954" font-family="Sans" font-size="10.00">requires</text>
</g>
<!-- configuration&#45;modules&#45;core#950&#45;&gt;configuration&#45;modules&#45;core#951 -->
<g id="edge40" class="edge"><title>configuration-modules-core#950-&gt;configuration-modules-core#951</title>
<path fill="none" stroke="black" stroke-dasharray="5,2" d="M167.471,-968.296C192.23,-953.016 223.391,-936.788 254,-929 277.574,-923.002 303.361,-922.536 327.807,-924.783"/>
<polygon fill="none" stroke="black" points="327.509,-928.271 337.825,-925.858 328.256,-921.311 327.509,-928.271"/>
<text text-anchor="middle" x="273" y="-933" font-family="Sans" font-size="10.00">requires</text>
</g>
<!-- configuration&#45;modules&#45;core#950&#45;&gt;configuration&#45;modules&#45;core#951 -->
<g id="edge56" class="edge"><title>configuration-modules-core#950-&gt;configuration-modules-core#951</title>
<path fill="none" stroke="black" stroke-dasharray="5,2" d="M222.121,-985.094C252.808,-979.816 286.547,-974.014 317.829,-968.634"/>
<polygon fill="none" stroke="black" points="318.631,-972.048 327.893,-966.904 317.444,-965.149 318.631,-972.048"/>
<text text-anchor="middle" x="273" y="-984" font-family="Sans" font-size="10.00">requires</text>
</g>
<!-- ncm&#45;ncd#117 -->
<g id="node50" class="node"><title>ncm-ncd#117</title>
<a xlink:href="https://github.com/quattor/ncm-ncd/pull/117" xlink:title="Allow component modules to be loaded from any path" target="_parent">
<polygon fill="#6cc644" stroke="black" points="161,-1264 75,-1264 75,-1210 161,-1210 161,-1264"/>
<text text-anchor="middle" x="118" y="-1241" font-family="Sans" font-size="10.00">pull-request</text>
<text text-anchor="middle" x="118" y="-1228" font-family="Sans" font-size="10.00">ncm-ncd#117</text>
</a>
</g>
<!-- ncm&#45;ncd#116 -->
<g id="node52" class="node"><title>ncm-ncd#116</title>
<a xlink:href="https://github.com/quattor/ncm-ncd/issues/116" xlink:title="hasFile() prevents component modules from being relocated" target="_parent">
<ellipse fill="#6cc644" stroke="black" cx="432" cy="-1237" rx="61.0181" ry="38.1838"/>
<text text-anchor="middle" x="432" y="-1241" font-family="Sans" font-size="10.00">issue</text>
<text text-anchor="middle" x="432" y="-1228" font-family="Sans" font-size="10.00">ncm-ncd#116</text>
</a>
</g>
<!-- ncm&#45;ncd#117&#45;&gt;ncm&#45;ncd#116 -->
<g id="edge60" class="edge"><title>ncm-ncd#117-&gt;ncm-ncd#116</title>
<path fill="none" stroke="black" stroke-width="2" d="M161.66,-1237C212.954,-1237 298.809,-1237 360.001,-1237"/>
<polygon fill="black" stroke="black" points="360.362,-1240.5 370.362,-1237 360.362,-1233.5 360.362,-1240.5"/>
<text text-anchor="middle" x="273" y="-1241" font-family="Sans" font-size="10.00">fixes</text>
</g>
<!-- template&#45;library&#45;standard#109 -->
<g id="node53" class="node"><title>template-library-standard#109</title>
<a xlink:href="https://github.com/quattor/template-library-standard/pull/109" xlink:title="Add sample of nVidia workstation and compute GPUs" target="_parent">
<polygon fill="#6cc644" stroke="black" points="196,-242 40,-242 40,-188 196,-188 196,-242"/>
<text text-anchor="middle" x="118" y="-219" font-family="Sans" font-size="10.00">pull-request</text>
<text text-anchor="middle" x="118" y="-206" font-family="Sans" font-size="10.00">template-library-standard#109</text>
</a>
</g>
<!-- template&#45;library&#45;core#172 -->
<g id="node55" class="node"><title>template-library-core#172</title>
<a xlink:href="https://github.com/quattor/template-library-core/pull/172" xlink:title="Allow RAM to be modelled on GPU cards" target="_parent">
<polygon fill="#6cc644" stroke="black" points="501,-170 363,-170 363,-116 501,-116 501,-170"/>
<text text-anchor="middle" x="432" y="-147" font-family="Sans" font-size="10.00">pull-request</text>
<text text-anchor="middle" x="432" y="-134" font-family="Sans" font-size="10.00">template-library-core#172</text>
</a>
</g>
<!-- template&#45;library&#45;standard#109&#45;&gt;template&#45;library&#45;core#172 -->
<g id="edge62" class="edge"><title>template-library-standard#109-&gt;template-library-core#172</title>
<path fill="none" stroke="black" stroke-dasharray="5,2" d="M196.528,-200.818C210.737,-195.653 224.63,-188.608 236,-179 249.663,-167.454 238.783,-152.405 254,-143 282.945,-125.111 319.92,-122.611 352.663,-125.571"/>
<polygon fill="none" stroke="black" points="352.357,-129.058 362.676,-126.654 353.11,-122.098 352.357,-129.058"/>
<text text-anchor="middle" x="273" y="-147" font-family="Sans" font-size="10.00">requires</text>
</g>
</g>
</svg>
