<?xml version="1.0" encoding="UTF-8" standalone="no"?>
<?xml-stylesheet href="relationships.css" type="text/css"?>
<!-- Generated by graphviz version 2.26.0 (20091210.2329)
 -->
<!-- Title: Dependencies Pages: 1 -->
<svg xmlns="http://www.w3.org/2000/svg" xmlns:xlink="http://www.w3.org/1999/xlink" width="594pt" height="1801pt" viewBox="0.00 0.00 594.00 1800.78">
<g id="graph1" class="graph" transform="scale(1 1) rotate(0) translate(4 1796.78)">
<title>Dependencies</title>
<polygon fill="white" stroke="white" points="-4,5 -4,-1796.78 591,-1796.78 591,5 -4,5"/>
<g id="graph3" class="cluster"><title>cluster_17.8</title>
<polygon fill="none" stroke="black" points="8,-491.785 8,-1462.78 578,-1462.78 578,-491.785 8,-491.785"/>
<text text-anchor="middle" x="293" y="-1447.98" font-family="Sans" font-size="12.00">17.8</text>
</g>
<g id="graph5" class="cluster"><title>cluster_17.12</title>
<polygon fill="none" stroke="black" points="86,-1520.78 86,-1708.78 498,-1708.78 498,-1520.78 86,-1520.78"/>
<text text-anchor="middle" x="292" y="-1693.98" font-family="Sans" font-size="12.00">17.12</text>
</g>
<!-- aii#275 -->
<g id="node1" class="node"><title>aii#275</title>
<a xlink:href="https://github.com/quattor/aii/pull/275" xlink:title="remove aii-freeipa, deprecated by ncm-freeipa AII support" target="_parent">
<polygon fill="#6e5494" stroke="black" points="173,-1430.78 95,-1430.78 95,-1376.78 173,-1376.78 173,-1430.78"/>
<text text-anchor="middle" x="134" y="-1407.78" font-family="Sans" font-size="10.00">pull-request</text>
<text text-anchor="middle" x="134" y="-1394.78" font-family="Sans" font-size="10.00">aii#275</text>
</a>
</g>
<!-- aii#134 -->
<g id="node3" class="node"><title>aii#134</title>
<a xlink:href="https://github.com/quattor/aii/issues/134" xlink:title="Missing freeipa.pm in AII RPM" target="_parent">
<ellipse fill="#bd2c00" stroke="black" cx="448" cy="-1392.78" rx="41.2167" ry="38.1838"/>
<text text-anchor="middle" x="448" y="-1396.78" font-family="Sans" font-size="10.00">issue</text>
<text text-anchor="middle" x="448" y="-1383.78" font-family="Sans" font-size="10.00">aii#134</text>
</a>
</g>
<!-- aii#275&#45;&gt;aii#134 -->
<g id="edge2" class="edge"><title>aii#275-&gt;aii#134</title>
<path fill="none" stroke="black" stroke-width="2" d="M173.768,-1402.39C230.279,-1400.41 333.868,-1396.78 396.284,-1394.6"/>
<polygon fill="black" stroke="black" points="396.438,-1398.09 406.31,-1394.25 396.193,-1391.1 396.438,-1398.09"/>
<text text-anchor="middle" x="289" y="-1403.78" font-family="Sans" font-size="10.00">fixes</text>
</g>
<!-- aii#210 -->
<g id="node4" class="node"><title>aii#210</title>
<a xlink:href="https://github.com/quattor/aii/pull/210" xlink:title="Shellfe: support active config for plugins" target="_parent">
<polygon fill="#6cc644" stroke="black" points="173,-1593.78 95,-1593.78 95,-1539.78 173,-1539.78 173,-1593.78"/>
<text text-anchor="middle" x="134" y="-1570.78" font-family="Sans" font-size="10.00">pull-request</text>
<text text-anchor="middle" x="134" y="-1557.78" font-family="Sans" font-size="10.00">aii#210</text>
</a>
</g>
<!-- aii#209 -->
<g id="node6" class="node"><title>aii#209</title>
<a xlink:href="https://github.com/quattor/aii/issues/209" xlink:title="support ACTIVE_CONFIG" target="_parent">
<ellipse fill="#6cc644" stroke="black" cx="448" cy="-1566.78" rx="41.2167" ry="38.1838"/>
<text text-anchor="middle" x="448" y="-1570.78" font-family="Sans" font-size="10.00">issue</text>
<text text-anchor="middle" x="448" y="-1557.78" font-family="Sans" font-size="10.00">aii#209</text>
</a>
</g>
<!-- aii#210&#45;&gt;aii#209 -->
<g id="edge4" class="edge"><title>aii#210-&gt;aii#209</title>
<path fill="none" stroke="black" stroke-width="2" d="M173.768,-1566.78C230.279,-1566.78 333.868,-1566.78 396.284,-1566.78"/>
<polygon fill="black" stroke="black" points="396.31,-1570.28 406.31,-1566.78 396.31,-1563.28 396.31,-1570.28"/>
<text text-anchor="middle" x="289" y="-1570.78" font-family="Sans" font-size="10.00">fixes</text>
</g>
<!-- ncm&#45;ncd#74 -->
<g id="node8" class="node"><title>ncm-ncd#74</title>
<a xlink:href="https://github.com/quattor/ncm-ncd/pull/74" xlink:title="Set the current active config as an attribute to the component" target="_parent">
<polygon fill="#6cc644" stroke="black" points="489,-1676.78 407,-1676.78 407,-1622.78 489,-1622.78 489,-1676.78"/>
<text text-anchor="middle" x="448" y="-1653.78" font-family="Sans" font-size="10.00">pull-request</text>
<text text-anchor="middle" x="448" y="-1640.78" font-family="Sans" font-size="10.00">ncm-ncd#74</text>
</a>
</g>
<!-- aii#210&#45;&gt;ncm&#45;ncd#74 -->
<g id="edge6" class="edge"><title>aii#210-&gt;ncm-ncd#74</title>
<path fill="none" stroke="black" stroke-dasharray="5,2" d="M173.609,-1577.17C196.517,-1583.17 225.889,-1590.89 252,-1597.78 301.266,-1610.79 357.475,-1625.71 397.028,-1636.23"/>
<polygon fill="none" stroke="black" points="396.148,-1639.61 406.711,-1638.8 397.946,-1632.85 396.148,-1639.61"/>
<text text-anchor="middle" x="289" y="-1616.78" font-family="Sans" font-size="10.00">requires</text>
</g>
<!-- aii#203 -->
<g id="node10" class="node"><title>aii#203</title>
<polygon fill="lightgrey" stroke="black" points="477,-1511.28 419,-1511.28 419,-1470.28 477,-1470.28 477,-1511.28"/>
<text text-anchor="middle" x="448" y="-1488.28" font-family="Sans" font-size="10.00">aii#203</text>
</g>
<!-- aii#210&#45;&gt;aii#203 -->
<g id="edge8" class="edge"><title>aii#210-&gt;aii#203</title>
<path fill="none" stroke="black" stroke-dasharray="5,2" d="M173.585,-1555.92C212.315,-1545.43 273.039,-1529.32 326,-1516.78 353.353,-1510.31 384.33,-1503.72 408.226,-1498.79"/>
<polygon fill="none" stroke="black" points="409.24,-1502.16 418.334,-1496.72 407.835,-1495.3 409.24,-1502.16"/>
<text text-anchor="middle" x="289" y="-1533.78" font-family="Sans" font-size="10.00">requires</text>
</g>
<!-- configuration&#45;modules&#45;core#1151 -->
<g id="node11" class="node"><title>configuration-modules-core#1151</title>
<a xlink:href="https://github.com/quattor/configuration-modules-core/pull/1151" xlink:title="Escape / unescape functions from CCM::Path" target="_parent">
<polygon fill="#6cc644" stroke="black" points="220,-1358.78 48,-1358.78 48,-1304.78 220,-1304.78 220,-1358.78"/>
<text text-anchor="middle" x="134" y="-1335.78" font-family="Sans" font-size="10.00">pull-request</text>
<text text-anchor="middle" x="134" y="-1322.78" font-family="Sans" font-size="10.00">configuration-modules-core#1151</text>
</a>
</g>
<!-- configuration&#45;modules&#45;core#1083 -->
<g id="node13" class="node"><title>configuration-modules-core#1083</title>
<a xlink:href="https://github.com/quattor/configuration-modules-core/issues/1083" xlink:title="warnings due to deprecated CCM modules" target="_parent">
<ellipse fill="#6cc644" stroke="black" cx="448" cy="-1298.78" rx="121.122" ry="38.1838"/>
<text text-anchor="middle" x="448" y="-1302.78" font-family="Sans" font-size="10.00">issue</text>
<text text-anchor="middle" x="448" y="-1289.78" font-family="Sans" font-size="10.00">configuration-modules-core#1083</text>
</a>
</g>
<!-- configuration&#45;modules&#45;core#1151&#45;&gt;configuration&#45;modules&#45;core#1083 -->
<g id="edge42" class="edge"><title>configuration-modules-core#1151-&gt;configuration-modules-core#1083</title>
<path fill="none" stroke="black" stroke-width="2" d="M220.186,-1317.34C236.688,-1314.89 253.853,-1312.57 270,-1310.78 285.551,-1309.06 301.896,-1307.55 318.116,-1306.24"/>
<polygon fill="black" stroke="black" points="318.496,-1309.72 328.19,-1305.45 317.946,-1302.74 318.496,-1309.72"/>
<text text-anchor="middle" x="289" y="-1314.78" font-family="Sans" font-size="10.00">fixes</text>
</g>
<!-- configuration&#45;modules&#45;core#1151&#45;&gt;configuration&#45;modules&#45;core#1083 -->
<g id="edge74" class="edge"><title>configuration-modules-core#1151-&gt;configuration-modules-core#1083</title>
<path fill="none" stroke="black" stroke-width="2" d="M220.022,-1330.06C248.127,-1328.9 279.45,-1326.98 308,-1323.78 316.646,-1322.82 325.565,-1321.64 334.517,-1320.34"/>
<polygon fill="black" stroke="black" points="335.261,-1323.77 344.626,-1318.81 334.216,-1316.84 335.261,-1323.77"/>
<text text-anchor="middle" x="289" y="-1331.78" font-family="Sans" font-size="10.00">fixes</text>
</g>
<!-- configuration&#45;modules&#45;core#1151&#45;&gt;configuration&#45;modules&#45;core#1083 -->
<g id="edge10" class="edge"><title>configuration-modules-core#1151-&gt;configuration-modules-core#1083</title>
<path fill="none" stroke="black" stroke-width="2" d="M206.035,-1358.85C237.896,-1366.9 275.442,-1370.96 308,-1359.78 317.586,-1356.5 317.177,-1350.77 326,-1345.78 335.456,-1340.44 345.639,-1335.45 355.948,-1330.87"/>
<polygon fill="black" stroke="black" points="357.635,-1333.96 365.433,-1326.79 354.864,-1327.53 357.635,-1333.96"/>
<text text-anchor="middle" x="289" y="-1370.78" font-family="Sans" font-size="10.00">fixes</text>
</g>
<!-- configuration&#45;modules&#45;core#1149 -->
<g id="node14" class="node"><title>configuration-modules-core#1149</title>
<a xlink:href="https://github.com/quattor/configuration-modules-core/pull/1149" xlink:title="ncm-metaconfig: rsyslog: rainer script configuration" target="_parent">
<polygon fill="#6cc644" stroke="black" points="220,-1264.78 48,-1264.78 48,-1210.78 220,-1210.78 220,-1264.78"/>
<text text-anchor="middle" x="134" y="-1241.78" font-family="Sans" font-size="10.00">pull-request</text>
<text text-anchor="middle" x="134" y="-1228.78" font-family="Sans" font-size="10.00">configuration-modules-core#1149</text>
</a>
</g>
<!-- configuration&#45;modules&#45;core#1126 -->
<g id="node16" class="node"><title>configuration-modules-core#1126</title>
<a xlink:href="https://github.com/quattor/configuration-modules-core/pull/1126" xlink:title="ncm-metaconfig: cleanup and switch to 00-tqu" target="_parent">
<polygon fill="#6cc644" stroke="black" points="534,-1242.78 362,-1242.78 362,-1188.78 534,-1188.78 534,-1242.78"/>
<text text-anchor="middle" x="448" y="-1219.78" font-family="Sans" font-size="10.00">pull-request</text>
<text text-anchor="middle" x="448" y="-1206.78" font-family="Sans" font-size="10.00">configuration-modules-core#1126</text>
</a>
</g>
<!-- configuration&#45;modules&#45;core#1149&#45;&gt;configuration&#45;modules&#45;core#1126 -->
<g id="edge44" class="edge"><title>configuration-modules-core#1149-&gt;configuration-modules-core#1126</title>
<path fill="none" stroke="black" stroke-dasharray="5,2" d="M220.065,-1212.16C236.502,-1208.26 253.674,-1204.85 270,-1202.78 296.44,-1199.44 325.206,-1199.81 351.752,-1201.77"/>
<polygon fill="none" stroke="black" points="351.554,-1205.27 361.807,-1202.6 352.128,-1198.29 351.554,-1205.27"/>
<text text-anchor="middle" x="289" y="-1206.78" font-family="Sans" font-size="10.00">requires</text>
</g>
<!-- configuration&#45;modules&#45;core#1149&#45;&gt;configuration&#45;modules&#45;core#1126 -->
<g id="edge76" class="edge"><title>configuration-modules-core#1149-&gt;configuration-modules-core#1126</title>
<path fill="none" stroke="black" stroke-dasharray="5,2" d="M220.217,-1231.74C260.975,-1228.89 309.781,-1225.47 351.743,-1222.53"/>
<polygon fill="none" stroke="black" points="352.244,-1226 361.975,-1221.81 351.755,-1219.02 352.244,-1226"/>
<text text-anchor="middle" x="289" y="-1232.78" font-family="Sans" font-size="10.00">requires</text>
</g>
<!-- configuration&#45;modules&#45;core#1149&#45;&gt;configuration&#45;modules&#45;core#1126 -->
<g id="edge12" class="edge"><title>configuration-modules-core#1149-&gt;configuration-modules-core#1126</title>
<path fill="none" stroke="black" stroke-dasharray="5,2" d="M220.007,-1251.72C248.111,-1254.4 279.437,-1255.4 308,-1251.78 322.262,-1249.98 337.151,-1247.18 351.672,-1243.92"/>
<polygon fill="none" stroke="black" points="352.707,-1247.28 361.654,-1241.6 351.121,-1240.46 352.707,-1247.28"/>
<text text-anchor="middle" x="289" y="-1258.78" font-family="Sans" font-size="10.00">requires</text>
</g>
<!-- configuration&#45;modules&#45;core#1148 -->
<g id="node17" class="node"><title>configuration-modules-core#1148</title>
<a xlink:href="https://github.com/quattor/configuration-modules-core/pull/1148" xlink:title="ncm-spma: Remove support from groups from spma yumng backend" target="_parent">
<polygon fill="#6cc644" stroke="black" points="220,-1156.78 48,-1156.78 48,-1102.78 220,-1102.78 220,-1156.78"/>
<text text-anchor="middle" x="134" y="-1133.78" font-family="Sans" font-size="10.00">pull-request</text>
<text text-anchor="middle" x="134" y="-1120.78" font-family="Sans" font-size="10.00">configuration-modules-core#1148</text>
</a>
</g>
<!-- configuration&#45;modules&#45;core#952 -->
<g id="node19" class="node"><title>configuration-modules-core#952</title>
<a xlink:href="https://github.com/quattor/configuration-modules-core/issues/952" xlink:title="ncm-spma (yumng): Remove support for package groups" target="_parent">
<ellipse fill="#6cc644" stroke="black" cx="448" cy="-1101.78" rx="118.087" ry="38.1838"/>
<text text-anchor="middle" x="448" y="-1105.78" font-family="Sans" font-size="10.00">issue</text>
<text text-anchor="middle" x="448" y="-1092.78" font-family="Sans" font-size="10.00">configuration-modules-core#952</text>
</a>
</g>
<!-- configuration&#45;modules&#45;core#1148&#45;&gt;configuration&#45;modules&#45;core#952 -->
<g id="edge46" class="edge"><title>configuration-modules-core#1148-&gt;configuration-modules-core#952</title>
<path fill="none" stroke="black" stroke-width="2" d="M220.065,-1104.16C236.502,-1100.26 253.674,-1096.85 270,-1094.78 287.345,-1092.59 305.709,-1091.7 323.797,-1091.66"/>
<polygon fill="black" stroke="black" points="323.789,-1095.16 333.809,-1091.72 323.83,-1088.16 323.789,-1095.16"/>
<text text-anchor="middle" x="289" y="-1098.78" font-family="Sans" font-size="10.00">fixes</text>
</g>
<!-- configuration&#45;modules&#45;core#1148&#45;&gt;configuration&#45;modules&#45;core#952 -->
<g id="edge78" class="edge"><title>configuration-modules-core#1148-&gt;configuration-modules-core#952</title>
<path fill="none" stroke="black" stroke-width="2" d="M220.217,-1122.1C252.192,-1119.25 289.121,-1115.95 323.812,-1112.86"/>
<polygon fill="black" stroke="black" points="324.364,-1116.32 334.013,-1111.95 323.742,-1109.35 324.364,-1116.32"/>
<text text-anchor="middle" x="289" y="-1121.78" font-family="Sans" font-size="10.00">fixes</text>
</g>
<!-- configuration&#45;modules&#45;core#1148&#45;&gt;configuration&#45;modules&#45;core#952 -->
<g id="edge14" class="edge"><title>configuration-modules-core#1148-&gt;configuration-modules-core#952</title>
<path fill="none" stroke="black" stroke-width="2" d="M220.099,-1144.39C248.209,-1147.12 279.515,-1147.97 308,-1143.78 324.685,-1141.34 342.142,-1137.33 358.846,-1132.74"/>
<polygon fill="black" stroke="black" points="359.918,-1136.07 368.582,-1129.97 358.007,-1129.34 359.918,-1136.07"/>
<text text-anchor="middle" x="289" y="-1150.78" font-family="Sans" font-size="10.00">fixes</text>
</g>
<!-- configuration&#45;modules&#45;core#1136 -->
<g id="node20" class="node"><title>configuration-modules-core#1136</title>
<a xlink:href="https://github.com/quattor/configuration-modules-core/pull/1136" xlink:title="ncm-gmond: cleanup and support new configuration options" target="_parent">
<polygon fill="#6cc644" stroke="black" points="220,-913.785 48,-913.785 48,-859.785 220,-859.785 220,-913.785"/>
<text text-anchor="middle" x="134" y="-890.785" font-family="Sans" font-size="10.00">pull-request</text>
<text text-anchor="middle" x="134" y="-877.785" font-family="Sans" font-size="10.00">configuration-modules-core#1136</text>
</a>
</g>
<!-- configuration&#45;modules&#45;core#1116 -->
<g id="node22" class="node"><title>configuration-modules-core#1116</title>
<a xlink:href="https://github.com/quattor/configuration-modules-core/issues/1116" xlink:title="ncm-gmond: configuration options missing from schema" target="_parent">
<ellipse fill="#6cc644" stroke="black" cx="448" cy="-913.785" rx="121.122" ry="38.1838"/>
<text text-anchor="middle" x="448" y="-917.785" font-family="Sans" font-size="10.00">issue</text>
<text text-anchor="middle" x="448" y="-904.785" font-family="Sans" font-size="10.00">configuration-modules-core#1116</text>
</a>
</g>
<!-- configuration&#45;modules&#45;core#1136&#45;&gt;configuration&#45;modules&#45;core#1116 -->
<g id="edge48" class="edge"><title>configuration-modules-core#1136-&gt;configuration-modules-core#1116</title>
<path fill="none" stroke="black" stroke-width="2" d="M220.217,-894.198C251.15,-896.858 286.719,-899.917 320.413,-902.814"/>
<polygon fill="black" stroke="black" points="320.539,-906.338 330.802,-903.707 321.139,-899.363 320.539,-906.338"/>
<text text-anchor="middle" x="289" y="-905.785" font-family="Sans" font-size="10.00">fixes</text>
</g>
<!-- configuration&#45;modules&#45;core#1136&#45;&gt;configuration&#45;modules&#45;core#1116 -->
<g id="edge80" class="edge"><title>configuration-modules-core#1136-&gt;configuration-modules-core#1116</title>
<path fill="none" stroke="black" stroke-width="2" d="M220.03,-861.826C248.136,-856.768 279.457,-854.43 308,-859.785 316.436,-861.368 317.995,-863.686 326,-866.785 337.525,-871.246 349.666,-875.935 361.639,-880.554"/>
<polygon fill="black" stroke="black" points="360.602,-883.905 371.191,-884.237 363.12,-877.374 360.602,-883.905"/>
<text text-anchor="middle" x="289" y="-863.785" font-family="Sans" font-size="10.00">fixes</text>
</g>
<!-- configuration&#45;modules&#45;core#1136&#45;&gt;configuration&#45;modules&#45;core#1116 -->
<g id="edge16" class="edge"><title>configuration-modules-core#1136-&gt;configuration-modules-core#1116</title>
<path fill="none" stroke="black" stroke-width="2" d="M220.066,-877.107C248.174,-875.472 279.487,-875.275 308,-878.785 321.306,-880.423 335.167,-882.905 348.768,-885.808"/>
<polygon fill="black" stroke="black" points="348.095,-889.243 358.615,-887.989 349.609,-882.409 348.095,-889.243"/>
<text text-anchor="middle" x="289" y="-882.785" font-family="Sans" font-size="10.00">fixes</text>
</g>
<!-- configuration&#45;modules&#45;core#1132 -->
<g id="node23" class="node"><title>configuration-modules-core#1132</title>
<a xlink:href="https://github.com/quattor/configuration-modules-core/pull/1132" xlink:title="ncm-metaconfig: hnormalise" target="_parent">
<polygon fill="#6cc644" stroke="black" points="220,-697.785 48,-697.785 48,-643.785 220,-643.785 220,-697.785"/>
<text text-anchor="middle" x="134" y="-674.785" font-family="Sans" font-size="10.00">pull-request</text>
<text text-anchor="middle" x="134" y="-661.785" font-family="Sans" font-size="10.00">configuration-modules-core#1132</text>
</a>
</g>
<!-- configuration&#45;modules&#45;core#1028 -->
<g id="node25" class="node"><title>configuration-modules-core#1028</title>
<polygon fill="lightgrey" stroke="black" points="534,-250.285 362,-250.285 362,-209.285 534,-209.285 534,-250.285"/>
<text text-anchor="middle" x="448" y="-227.285" font-family="Sans" font-size="10.00">configuration-modules-core#1028</text>
</g>
<!-- configuration&#45;modules&#45;core#1132&#45;&gt;configuration&#45;modules&#45;core#1028 -->
<g id="edge50" class="edge"><title>configuration-modules-core#1132-&gt;configuration-modules-core#1028</title>
<path fill="none" stroke="black" stroke-dasharray="5,2" d="M220.274,-658.306C232.566,-652.922 243.797,-645.363 252,-634.785 279.535,-599.277 237.615,-261.934 270,-230.785 295.948,-205.827 335.142,-203.378 370.153,-208.12"/>
<polygon fill="none" stroke="black" points="369.961,-211.632 380.382,-209.719 371.043,-204.716 369.961,-211.632"/>
<text text-anchor="middle" x="289" y="-234.785" font-family="Sans" font-size="10.00">requires</text>
</g>
<!-- configuration&#45;modules&#45;core#1132&#45;&gt;configuration&#45;modules&#45;core#1028 -->
<g id="edge82" class="edge"><title>configuration-modules-core#1132-&gt;configuration-modules-core#1028</title>
<path fill="none" stroke="black" stroke-dasharray="5,2" d="M220.012,-658.46C232.415,-653.066 243.751,-645.463 252,-634.785 281.914,-596.064 234.701,-228.669 270,-194.785 286.352,-179.088 340.588,-192.108 384.937,-206.513"/>
<polygon fill="none" stroke="black" points="383.928,-209.866 394.521,-209.696 386.134,-203.223 383.928,-209.866"/>
<text text-anchor="middle" x="289" y="-198.785" font-family="Sans" font-size="10.00">requires</text>
</g>
<!-- configuration&#45;modules&#45;core#1132&#45;&gt;configuration&#45;modules&#45;core#1028 -->
<g id="edge18" class="edge"><title>configuration-modules-core#1132-&gt;configuration-modules-core#1028</title>
<path fill="none" stroke="black" stroke-dasharray="5,2" d="M220.128,-658.191C232.436,-652.821 243.711,-645.296 252,-634.785 292.804,-583.038 235.914,-395.184 270,-338.785 280.211,-321.889 291.145,-326.063 308,-315.785 341.294,-295.483 378.952,-272.34 406.819,-255.18"/>
<polygon fill="none" stroke="black" points="408.826,-258.054 415.505,-249.829 405.155,-252.094 408.826,-258.054"/>
<text text-anchor="middle" x="289" y="-342.785" font-family="Sans" font-size="10.00">requires</text>
</g>
<!-- configuration&#45;modules&#45;core#1124 -->
<g id="node26" class="node"><title>configuration-modules-core#1124</title>
<a xlink:href="https://github.com/quattor/configuration-modules-core/pull/1124" xlink:title="ncm-cron: cleanup and switch to 00-tqu" target="_parent">
<polygon fill="#6cc644" stroke="black" points="220,-625.785 48,-625.785 48,-571.785 220,-571.785 220,-625.785"/>
<text text-anchor="middle" x="134" y="-602.785" font-family="Sans" font-size="10.00">pull-request</text>
<text text-anchor="middle" x="134" y="-589.785" font-family="Sans" font-size="10.00">configuration-modules-core#1124</text>
</a>
</g>
<!-- CAF#230 -->
<g id="node28" class="node"><title>CAF#230</title>
<polygon fill="lightgrey" stroke="black" points="483,-178.285 413,-178.285 413,-137.285 483,-137.285 483,-178.285"/>
<text text-anchor="middle" x="448" y="-155.285" font-family="Sans" font-size="10.00">CAF#230</text>
</g>
<!-- configuration&#45;modules&#45;core#1124&#45;&gt;CAF#230 -->
<g id="edge52" class="edge"><title>configuration-modules-core#1124-&gt;CAF#230</title>
<path fill="none" stroke="black" stroke-dasharray="5,2" d="M220.012,-586.46C232.415,-581.066 243.751,-573.463 252,-562.785 281.914,-524.064 234.701,-156.669 270,-122.785 306.754,-87.5037 368.133,-110.786 408.34,-132.707"/>
<polygon fill="none" stroke="black" points="406.649,-135.772 417.08,-137.631 410.086,-129.673 406.649,-135.772"/>
<text text-anchor="middle" x="289" y="-126.785" font-family="Sans" font-size="10.00">requires</text>
</g>
<!-- configuration&#45;modules&#45;core#1124&#45;&gt;CAF#230 -->
<g id="edge84" class="edge"><title>configuration-modules-core#1124-&gt;CAF#230</title>
<path fill="none" stroke="black" stroke-dasharray="5,2" d="M220.039,-586.481C232.439,-581.084 243.766,-573.475 252,-562.785 284.161,-521.03 232.032,-125.339 270,-88.7849 312.353,-48.01 381.473,-96.8689 419.932,-130.723"/>
<polygon fill="none" stroke="black" points="417.881,-133.587 427.653,-137.682 422.568,-128.387 417.881,-133.587"/>
<text text-anchor="middle" x="289" y="-92.7849" font-family="Sans" font-size="10.00">requires</text>
</g>
<!-- configuration&#45;modules&#45;core#1124&#45;&gt;CAF#230 -->
<g id="edge20" class="edge"><title>configuration-modules-core#1124-&gt;CAF#230</title>
<path fill="none" stroke="black" stroke-dasharray="5,2" d="M220.274,-586.306C232.566,-580.922 243.797,-573.363 252,-562.785 279.535,-527.277 237.615,-189.934 270,-158.785 304.598,-125.508 362.746,-132.246 403.126,-142.691"/>
<polygon fill="none" stroke="black" points="402.414,-146.125 412.984,-145.404 404.271,-139.376 402.414,-146.125"/>
<text text-anchor="middle" x="289" y="-162.785" font-family="Sans" font-size="10.00">requires</text>
</g>
<!-- configuration&#45;modules&#45;core#1119 -->
<g id="node29" class="node"><title>configuration-modules-core#1119</title>
<a xlink:href="https://github.com/quattor/configuration-modules-core/pull/1119" xlink:title="ncm-systemd: cleanup, restarting modified unitfiles and initial handling of unconfigured units" target="_parent">
<polygon fill="#6cc644" stroke="black" points="220,-841.785 48,-841.785 48,-787.785 220,-787.785 220,-841.785"/>
<text text-anchor="middle" x="134" y="-818.785" font-family="Sans" font-size="10.00">pull-request</text>
<text text-anchor="middle" x="134" y="-805.785" font-family="Sans" font-size="10.00">configuration-modules-core#1119</text>
</a>
</g>
<!-- configuration&#45;modules&#45;core#1095 -->
<g id="node31" class="node"><title>configuration-modules-core#1095</title>
<a xlink:href="https://github.com/quattor/configuration-modules-core/issues/1095" xlink:title="Manual intervention required in order for drop-in unit files to have any affect" target="_parent">
<ellipse fill="#6cc644" stroke="black" cx="448" cy="-819.785" rx="121.122" ry="38.1838"/>
<text text-anchor="middle" x="448" y="-823.785" font-family="Sans" font-size="10.00">issue</text>
<text text-anchor="middle" x="448" y="-810.785" font-family="Sans" font-size="10.00">configuration-modules-core#1095</text>
</a>
</g>
<!-- configuration&#45;modules&#45;core#1119&#45;&gt;configuration&#45;modules&#45;core#1095 -->
<g id="edge22" class="edge"><title>configuration-modules-core#1119-&gt;configuration-modules-core#1095</title>
<path fill="none" stroke="black" stroke-width="2" d="M220.3,-808.943C236.792,-808.043 253.924,-807.257 270,-806.785 286.882,-806.289 291.129,-806.003 308,-806.785 312.511,-806.994 317.101,-807.241 321.736,-807.518"/>
<polygon fill="black" stroke="black" points="321.734,-811.025 331.938,-808.174 322.183,-804.04 321.734,-811.025"/>
<text text-anchor="middle" x="289" y="-810.785" font-family="Sans" font-size="10.00">fixes</text>
</g>
<!-- configuration&#45;modules&#45;core#1119&#45;&gt;configuration&#45;modules&#45;core#1095 -->
<g id="edge54" class="edge"><title>configuration-modules-core#1119-&gt;configuration-modules-core#1095</title>
<path fill="none" stroke="black" stroke-width="2" d="M220.1,-798.512C231.743,-793.58 242.82,-787.155 252,-778.785 267.613,-764.549 252.458,-746.562 270,-734.785 284.022,-725.371 293.729,-725.754 308,-734.785 323.791,-744.778 312.302,-760.073 326,-772.785 332.781,-779.078 340.495,-784.558 348.674,-789.325"/>
<polygon fill="black" stroke="black" points="347.249,-792.534 357.708,-794.223 350.585,-786.38 347.249,-792.534"/>
<text text-anchor="middle" x="289" y="-738.785" font-family="Sans" font-size="10.00">fixes</text>
</g>
<!-- configuration&#45;modules&#45;core#1119&#45;&gt;configuration&#45;modules&#45;core#1095 -->
<g id="edge86" class="edge"><title>configuration-modules-core#1119-&gt;configuration-modules-core#1095</title>
<path fill="none" stroke="black" stroke-width="2" d="M220.008,-796.537C236.527,-793.725 253.743,-791.267 270,-789.785 294.55,-787.547 320.819,-789.517 345.433,-793.32"/>
<polygon fill="black" stroke="black" points="345.065,-796.807 355.503,-794.991 346.211,-789.901 345.065,-796.807"/>
<text text-anchor="middle" x="289" y="-793.785" font-family="Sans" font-size="10.00">fixes</text>
</g>
<!-- configuration&#45;modules&#45;core#1087 -->
<g id="node32" class="node"><title>configuration-modules-core#1087</title>
<a xlink:href="https://github.com/quattor/configuration-modules-core/pull/1087" xlink:title="ncm-network: cleanup, fixes and new features" target="_parent">
<polygon fill="#6cc644" stroke="black" points="220,-769.785 48,-769.785 48,-715.785 220,-715.785 220,-769.785"/>
<text text-anchor="middle" x="134" y="-746.785" font-family="Sans" font-size="10.00">pull-request</text>
<text text-anchor="middle" x="134" y="-733.785" font-family="Sans" font-size="10.00">configuration-modules-core#1087</text>
</a>
</g>
<!-- configuration&#45;modules&#45;core#1087&#45;&gt;CAF#230 -->
<g id="edge34" class="edge"><title>configuration-modules-core#1087-&gt;CAF#230</title>
<path fill="none" stroke="black" stroke-dasharray="5,2" d="M220.278,-730.309C232.569,-724.925 243.799,-717.365 252,-706.785 279.8,-670.92 245.299,-336.85 270,-298.785 280.279,-282.945 296.34,-294.637 308,-279.785 330.238,-251.46 302.04,-227.668 326,-200.785 345.523,-178.88 376.897,-168.134 402.94,-162.862"/>
<polygon fill="none" stroke="black" points="403.774,-166.268 412.988,-161.039 402.524,-159.38 403.774,-166.268"/>
<text text-anchor="middle" x="289" y="-302.785" font-family="Sans" font-size="10.00">requires</text>
</g>
<!-- configuration&#45;modules&#45;core#1087&#45;&gt;CAF#230 -->
<g id="edge66" class="edge"><title>configuration-modules-core#1087-&gt;CAF#230</title>
<path fill="none" stroke="black" stroke-dasharray="5,2" d="M220.015,-730.463C232.418,-725.068 243.753,-717.465 252,-706.785 282.178,-667.707 243.197,-304.25 270,-262.785 280.25,-246.927 295.104,-257.578 308,-243.785 322.149,-228.651 310.935,-215.007 326,-200.785 346.955,-181.003 377.556,-170.248 402.867,-164.442"/>
<polygon fill="none" stroke="black" points="403.923,-167.796 412.989,-162.313 402.482,-160.946 403.923,-167.796"/>
<text text-anchor="middle" x="289" y="-266.785" font-family="Sans" font-size="10.00">requires</text>
</g>
<!-- configuration&#45;modules&#45;core#1082 -->
<g id="node34" class="node"><title>configuration-modules-core#1082</title>
<a xlink:href="https://github.com/quattor/configuration-modules-core/issues/1082" xlink:title="ncm-network: Allow extra routing options for the default route" target="_parent">
<ellipse fill="#6cc644" stroke="black" cx="448" cy="-537.785" rx="121.122" ry="38.1838"/>
<text text-anchor="middle" x="448" y="-541.785" font-family="Sans" font-size="10.00">issue</text>
<text text-anchor="middle" x="448" y="-528.785" font-family="Sans" font-size="10.00">configuration-modules-core#1082</text>
</a>
</g>
<!-- configuration&#45;modules&#45;core#1087&#45;&gt;configuration&#45;modules&#45;core#1082 -->
<g id="edge24" class="edge"><title>configuration-modules-core#1087-&gt;configuration-modules-core#1082</title>
<path fill="none" stroke="black" stroke-width="2" d="M220.113,-729.813C232.344,-724.482 243.598,-717.068 252,-706.785 278.555,-674.285 238.942,-547.012 270,-518.785 295.747,-495.385 333.015,-496.084 366.804,-504.28"/>
<polygon fill="black" stroke="black" points="366.131,-507.723 376.694,-506.91 367.93,-500.958 366.131,-507.723"/>
<text text-anchor="middle" x="289" y="-522.785" font-family="Sans" font-size="10.00">fixes</text>
</g>
<!-- configuration&#45;modules&#45;core#1087&#45;&gt;configuration&#45;modules&#45;core#1082 -->
<g id="edge56" class="edge"><title>configuration-modules-core#1087-&gt;configuration-modules-core#1082</title>
<path fill="none" stroke="black" stroke-width="2" d="M220.116,-729.441C232.269,-724.149 243.497,-716.845 252,-706.785 292.213,-659.21 226.801,-612.666 270,-567.785 282.744,-554.545 298.99,-545.796 316.464,-540.176"/>
<polygon fill="black" stroke="black" points="317.632,-543.482 326.283,-537.367 315.706,-536.752 317.632,-543.482"/>
<text text-anchor="middle" x="289" y="-571.785" font-family="Sans" font-size="10.00">fixes</text>
</g>
<!-- configuration&#45;modules&#45;core#870 -->
<g id="node36" class="node"><title>configuration-modules-core#870</title>
<a xlink:href="https://github.com/quattor/configuration-modules-core/issues/870" xlink:title="ncm-network: hostname is not set in el7" target="_parent">
<ellipse fill="#6cc644" stroke="black" cx="448" cy="-631.785" rx="118.087" ry="38.1838"/>
<text text-anchor="middle" x="448" y="-635.785" font-family="Sans" font-size="10.00">issue</text>
<text text-anchor="middle" x="448" y="-622.785" font-family="Sans" font-size="10.00">configuration-modules-core#870</text>
</a>
</g>
<!-- configuration&#45;modules&#45;core#1087&#45;&gt;configuration&#45;modules&#45;core#870 -->
<g id="edge26" class="edge"><title>configuration-modules-core#1087-&gt;configuration-modules-core#870</title>
<path fill="none" stroke="black" stroke-width="2" d="M220.195,-729.125C232.261,-723.867 243.441,-716.656 252,-706.785 286.178,-667.366 230.381,-624.73 270,-590.785 284.541,-578.326 324.975,-586.746 363.636,-599.119"/>
<polygon fill="black" stroke="black" points="362.817,-602.534 373.41,-602.339 365.008,-595.885 362.817,-602.534"/>
<text text-anchor="middle" x="289" y="-594.785" font-family="Sans" font-size="10.00">fixes</text>
</g>
<!-- configuration&#45;modules&#45;core#1087&#45;&gt;configuration&#45;modules&#45;core#870 -->
<g id="edge58" class="edge"><title>configuration-modules-core#1087-&gt;configuration-modules-core#870</title>
<path fill="none" stroke="black" stroke-width="2" d="M220.152,-727.879C232,-722.768 243.124,-715.93 252,-706.785 273.176,-684.967 246.311,-659.845 270,-640.785 286.934,-627.16 307.976,-620.335 329.597,-617.603"/>
<polygon fill="black" stroke="black" points="329.948,-621.085 339.559,-616.626 329.265,-614.119 329.948,-621.085"/>
<text text-anchor="middle" x="289" y="-644.785" font-family="Sans" font-size="10.00">fixes</text>
</g>
<!-- configuration&#45;modules&#45;core#1109 -->
<g id="node38" class="node"><title>configuration-modules-core#1109</title>
<a xlink:href="https://github.com/quattor/configuration-modules-core/issues/1109" xlink:title="ncm-network: systemd rpm scripts remove HOSTNAME from /etc/sysconfig/network" target="_parent">
<ellipse fill="#6cc644" stroke="black" cx="448" cy="-725.785" rx="121.122" ry="38.1838"/>
<text text-anchor="middle" x="448" y="-729.785" font-family="Sans" font-size="10.00">issue</text>
<text text-anchor="middle" x="448" y="-716.785" font-family="Sans" font-size="10.00">configuration-modules-core#1109</text>
</a>
</g>
<!-- configuration&#45;modules&#45;core#1087&#45;&gt;configuration&#45;modules&#45;core#1109 -->
<g id="edge28" class="edge"><title>configuration-modules-core#1087-&gt;configuration-modules-core#1109</title>
<path fill="none" stroke="black" stroke-width="2" d="M220.1,-726.512C231.743,-721.58 242.82,-715.155 252,-706.785 267.613,-692.549 252.458,-674.562 270,-662.785 284.022,-653.371 292.214,-656.783 308,-662.785 318.005,-666.589 316.859,-673.216 326,-678.785 335.127,-684.345 345.024,-689.451 355.099,-694.08"/>
<polygon fill="black" stroke="black" points="353.824,-697.343 364.384,-698.196 356.661,-690.943 353.824,-697.343"/>
<text text-anchor="middle" x="289" y="-666.785" font-family="Sans" font-size="10.00">fixes</text>
</g>
<!-- configuration&#45;modules&#45;core#1087&#45;&gt;configuration&#45;modules&#45;core#1109 -->
<g id="edge60" class="edge"><title>configuration-modules-core#1087-&gt;configuration-modules-core#1109</title>
<path fill="none" stroke="black" stroke-width="2" d="M220.2,-720.087C236.623,-716.632 253.756,-713.613 270,-711.785 288.147,-709.743 307.369,-709.382 326.209,-710.037"/>
<polygon fill="black" stroke="black" points="326.176,-713.539 336.321,-710.484 326.486,-706.546 326.176,-713.539"/>
<text text-anchor="middle" x="289" y="-715.785" font-family="Sans" font-size="10.00">fixes</text>
</g>
<!-- configuration&#45;modules&#45;core#1085 -->
<g id="node40" class="node"><title>configuration-modules-core#1085</title>
<polygon fill="lightgrey" stroke="black" points="534,-402.285 362,-402.285 362,-361.285 534,-361.285 534,-402.285"/>
<text text-anchor="middle" x="448" y="-379.285" font-family="Sans" font-size="10.00">configuration-modules-core#1085</text>
</g>
<!-- configuration&#45;modules&#45;core#1087&#45;&gt;configuration&#45;modules&#45;core#1085 -->
<g id="edge30" class="edge"><title>configuration-modules-core#1087-&gt;configuration-modules-core#1085</title>
<path fill="none" stroke="black" stroke-dasharray="1,5" d="M220.118,-730.184C232.428,-724.815 243.706,-717.292 252,-706.785 292.144,-655.93 227.185,-464.413 270,-415.785 290.36,-392.661 321.191,-382.253 351.502,-378.216"/>
<polygon fill="black" stroke="black" points="361.746,-377.082 352.301,-382.655 356.776,-377.633 351.806,-378.183 351.806,-378.183 351.806,-378.183 356.776,-377.633 351.311,-373.71 361.746,-377.082 361.746,-377.082"/>
<text text-anchor="middle" x="289" y="-419.785" font-family="Sans" font-size="10.00">replaces</text>
</g>
<!-- configuration&#45;modules&#45;core#1087&#45;&gt;configuration&#45;modules&#45;core#1085 -->
<g id="edge62" class="edge"><title>configuration-modules-core#1087-&gt;configuration-modules-core#1085</title>
<path fill="none" stroke="black" stroke-dasharray="1,5" d="M220.187,-730.238C232.489,-724.862 243.746,-717.324 252,-706.785 274.779,-677.701 243.18,-400.191 270,-374.785 299.989,-346.378 347.138,-349.518 385.378,-359.02"/>
<polygon fill="black" stroke="black" points="395.398,-361.702 384.575,-363.463 390.568,-360.409 385.738,-359.116 385.738,-359.116 385.738,-359.116 390.568,-360.409 386.901,-354.769 395.398,-361.702 395.398,-361.702"/>
<text text-anchor="middle" x="289" y="-378.785" font-family="Sans" font-size="10.00">replaces</text>
</g>
<!-- configuration&#45;modules&#45;core#1070 -->
<g id="node42" class="node"><title>configuration-modules-core#1070</title>
<polygon fill="lightgrey" stroke="black" points="534,-475.285 362,-475.285 362,-434.285 534,-434.285 534,-475.285"/>
<text text-anchor="middle" x="448" y="-452.285" font-family="Sans" font-size="10.00">configuration-modules-core#1070</text>
</g>
<!-- configuration&#45;modules&#45;core#1087&#45;&gt;configuration&#45;modules&#45;core#1070 -->
<g id="edge32" class="edge"><title>configuration-modules-core#1087-&gt;configuration-modules-core#1070</title>
<path fill="none" stroke="black" stroke-dasharray="1,5" d="M220.242,-729.918C232.458,-724.574 243.673,-717.129 252,-706.785 283.037,-668.23 236.54,-521.257 270,-484.785 281.668,-472.067 316.246,-464.74 351.86,-460.518"/>
<polygon fill="black" stroke="black" points="361.915,-459.408 352.469,-464.979 356.945,-459.957 351.975,-460.506 351.975,-460.506 351.975,-460.506 356.945,-459.957 351.481,-456.033 361.915,-459.408 361.915,-459.408"/>
<text text-anchor="middle" x="289" y="-488.785" font-family="Sans" font-size="10.00">replaces</text>
</g>
<!-- configuration&#45;modules&#45;core#1087&#45;&gt;configuration&#45;modules&#45;core#1070 -->
<g id="edge64" class="edge"><title>configuration-modules-core#1087-&gt;configuration-modules-core#1070</title>
<path fill="none" stroke="black" stroke-dasharray="1,5" d="M220.04,-730.122C232.359,-724.76 243.66,-717.256 252,-706.785 287.391,-662.349 228.441,-490.514 270,-451.785 298.315,-425.398 341.521,-425.544 378.274,-432.579"/>
<polygon fill="black" stroke="black" points="388.452,-434.73 377.737,-437.065 383.56,-433.696 378.668,-432.662 378.668,-432.662 378.668,-432.662 383.56,-433.696 379.598,-428.26 388.452,-434.73 388.452,-434.73"/>
<text text-anchor="middle" x="289" y="-455.785" font-family="Sans" font-size="10.00">replaces</text>
</g>
<!-- configuration&#45;modules&#45;core#1058 -->
<g id="node44" class="node"><title>configuration-modules-core#1058</title>
<a xlink:href="https://github.com/quattor/configuration-modules-core/pull/1058" xlink:title="ncm-ssh: disable insecure ssh ciphersuites and macs" target="_parent">
<polygon fill="#6cc644" stroke="black" points="220,-553.785 48,-553.785 48,-499.785 220,-499.785 220,-553.785"/>
<text text-anchor="middle" x="134" y="-530.785" font-family="Sans" font-size="10.00">pull-request</text>
<text text-anchor="middle" x="134" y="-517.785" font-family="Sans" font-size="10.00">configuration-modules-core#1058</text>
</a>
</g>
<!-- configuration&#45;modules&#45;core#983 -->
<g id="node46" class="node"><title>configuration-modules-core#983</title>
<polygon fill="lightgrey" stroke="black" points="531,-52.2849 365,-52.2849 365,-11.2849 531,-11.2849 531,-52.2849"/>
<text text-anchor="middle" x="448" y="-29.2849" font-family="Sans" font-size="10.00">configuration-modules-core#983</text>
</g>
<!-- configuration&#45;modules&#45;core#1058&#45;&gt;configuration&#45;modules&#45;core#983 -->
<g id="edge36" class="edge"><title>configuration-modules-core#1058-&gt;configuration-modules-core#983</title>
<path fill="none" stroke="black" stroke-dasharray="1,5" d="M137.942,-499.719C151.747,-408.809 200.848,-116.746 270,-56.7849 292.983,-36.8565 324.272,-28.48 354.21,-25.7474"/>
<polygon fill="black" stroke="black" points="364.296,-25.0285 354.642,-30.2281 359.309,-25.384 354.322,-25.7395 354.322,-25.7395 354.322,-25.7395 359.309,-25.384 354.002,-21.2508 364.296,-25.0285 364.296,-25.0285"/>
<text text-anchor="middle" x="289" y="-60.7849" font-family="Sans" font-size="10.00">replaces</text>
</g>
<!-- configuration&#45;modules&#45;core#1058&#45;&gt;configuration&#45;modules&#45;core#983 -->
<g id="edge68" class="edge"><title>configuration-modules-core#1058-&gt;configuration-modules-core#983</title>
<path fill="none" stroke="black" stroke-dasharray="1,5" d="M136.997,-499.541C148.238,-402.915 191.326,-79.1673 270,-18.7849 303.282,6.75865 351.152,1.64517 388.868,-8.8415"/>
<polygon fill="black" stroke="black" points="398.718,-11.7635 387.851,-13.2337 393.925,-10.3415 389.131,-8.91951 389.131,-8.91951 389.131,-8.91951 393.925,-10.3415 390.411,-4.60532 398.718,-11.7635 398.718,-11.7635"/>
<text text-anchor="middle" x="289" y="-22.7849" font-family="Sans" font-size="10.00">replaces</text>
</g>
<!-- configuration&#45;modules&#45;core#950 -->
<g id="node47" class="node"><title>configuration-modules-core#950</title>
<a xlink:href="https://github.com/quattor/configuration-modules-core/issues/950" xlink:title="ncm-spma: Remove support for package groups from yum backends" target="_parent">
<ellipse fill="#6cc644" stroke="black" cx="134" cy="-1003.78" rx="118.087" ry="38.1838"/>
<text text-anchor="middle" x="134" y="-1007.78" font-family="Sans" font-size="10.00">issue</text>
<text text-anchor="middle" x="134" y="-994.785" font-family="Sans" font-size="10.00">configuration-modules-core#950</text>
</a>
</g>
<!-- configuration&#45;modules&#45;core#950&#45;&gt;configuration&#45;modules&#45;core#952 -->
<g id="edge40" class="edge"><title>configuration-modules-core#950-&gt;configuration-modules-core#952</title>
<path fill="none" stroke="black" stroke-dasharray="5,2" d="M218.973,-1030.31C260.596,-1043.3 310.842,-1058.98 353.653,-1072.34"/>
<polygon fill="none" stroke="black" points="352.643,-1075.69 363.232,-1075.33 354.728,-1069.01 352.643,-1075.69"/>
<text text-anchor="middle" x="289" y="-1059.78" font-family="Sans" font-size="10.00">requires</text>
</g>
<!-- configuration&#45;modules&#45;core#950&#45;&gt;configuration&#45;modules&#45;core#952 -->
<g id="edge72" class="edge"><title>configuration-modules-core#950-&gt;configuration-modules-core#952</title>
<path fill="none" stroke="black" stroke-dasharray="5,2" d="M251.137,-1009.27C271.059,-1013.68 290.832,-1020.48 308,-1030.78 319.432,-1037.65 315.365,-1046.74 326,-1054.78 334.163,-1060.96 343.235,-1066.42 352.643,-1071.22"/>
<polygon fill="none" stroke="black" points="351.221,-1074.42 361.747,-1075.62 354.269,-1068.11 351.221,-1074.42"/>
<text text-anchor="middle" x="289" y="-1034.78" font-family="Sans" font-size="10.00">requires</text>
</g>
<!-- configuration&#45;modules&#45;core#951 -->
<g id="node49" class="node"><title>configuration-modules-core#951</title>
<a xlink:href="https://github.com/quattor/configuration-modules-core/issues/951" xlink:title="ncm-spma (yum): Remove support for package groups" target="_parent">
<ellipse fill="#6cc644" stroke="black" cx="448" cy="-1007.78" rx="118.087" ry="38.1838"/>
<text text-anchor="middle" x="448" y="-1011.78" font-family="Sans" font-size="10.00">issue</text>
<text text-anchor="middle" x="448" y="-998.785" font-family="Sans" font-size="10.00">configuration-modules-core#951</text>
</a>
</g>
<!-- configuration&#45;modules&#45;core#950&#45;&gt;configuration&#45;modules&#45;core#951 -->
<g id="edge38" class="edge"><title>configuration-modules-core#950-&gt;configuration-modules-core#951</title>
<path fill="none" stroke="black" stroke-dasharray="5,2" d="M190.472,-970.236C224.352,-954.209 268.413,-940.527 308,-950.785 316.859,-953.081 317.71,-956.908 326,-960.785 336.762,-965.818 348.224,-970.757 359.649,-975.431"/>
<polygon fill="none" stroke="black" points="358.638,-978.797 369.222,-979.291 361.256,-972.305 358.638,-978.797"/>
<text text-anchor="middle" x="289" y="-954.785" font-family="Sans" font-size="10.00">requires</text>
</g>
<!-- configuration&#45;modules&#45;core#950&#45;&gt;configuration&#45;modules&#45;core#951 -->
<g id="edge70" class="edge"><title>configuration-modules-core#950-&gt;configuration-modules-core#951</title>
<path fill="none" stroke="black" stroke-dasharray="5,2" d="M243.007,-988.949C252.125,-988.076 261.213,-987.332 270,-986.785 290.913,-985.483 313.139,-986.319 334.541,-988.258"/>
<polygon fill="none" stroke="black" points="334.342,-991.755 344.639,-989.258 335.032,-984.789 334.342,-991.755"/>
<text text-anchor="middle" x="289" y="-990.785" font-family="Sans" font-size="10.00">requires</text>
</g>
<!-- ncm&#45;ncd#117 -->
<g id="node74" class="node"><title>ncm-ncd#117</title>
<a xlink:href="https://github.com/quattor/ncm-ncd/pull/117" xlink:title="Allow component modules to be loaded from any path" target="_parent">
<polygon fill="#6cc644" stroke="black" points="177,-1781.78 91,-1781.78 91,-1727.78 177,-1727.78 177,-1781.78"/>
<text text-anchor="middle" x="134" y="-1758.78" font-family="Sans" font-size="10.00">pull-request</text>
<text text-anchor="middle" x="134" y="-1745.78" font-family="Sans" font-size="10.00">ncm-ncd#117</text>
</a>
</g>
<!-- ncm&#45;ncd#116 -->
<g id="node76" class="node"><title>ncm-ncd#116</title>
<a xlink:href="https://github.com/quattor/ncm-ncd/issues/116" xlink:title="hasFile() prevents component modules from being relocated" target="_parent">
<ellipse fill="#6cc644" stroke="black" cx="448" cy="-1754.78" rx="61.0181" ry="38.1838"/>
<text text-anchor="middle" x="448" y="-1758.78" font-family="Sans" font-size="10.00">issue</text>
<text text-anchor="middle" x="448" y="-1745.78" font-family="Sans" font-size="10.00">ncm-ncd#116</text>
</a>
</g>
<!-- ncm&#45;ncd#117&#45;&gt;ncm&#45;ncd#116 -->
<g id="edge88" class="edge"><title>ncm-ncd#117-&gt;ncm-ncd#116</title>
<path fill="none" stroke="black" stroke-width="2" d="M177.66,-1754.78C228.954,-1754.78 314.809,-1754.78 376.001,-1754.78"/>
<polygon fill="black" stroke="black" points="376.362,-1758.28 386.362,-1754.78 376.362,-1751.28 376.362,-1758.28"/>
<text text-anchor="middle" x="289" y="-1758.78" font-family="Sans" font-size="10.00">fixes</text>
</g>
</g>
</svg>
